<?xml version="1.0" encoding="UTF-8" standalone="no"?>
<svg
   width="22"
   height="22"
   version="1.1"
   id="svg9"
   sodipodi:docname="steam_tray_mono.svg"
   inkscape:version="1.4 (e7c3feb100, 2024-10-09)"
   xmlns:inkscape="http://www.inkscape.org/namespaces/inkscape"
   xmlns:sodipodi="http://sodipodi.sourceforge.net/DTD/sodipodi-0.dtd"
   xmlns="http://www.w3.org/2000/svg"
   xmlns:svg="http://www.w3.org/2000/svg"
   xmlns:rdf="http://www.w3.org/1999/02/22-rdf-syntax-ns#"
   xmlns:cc="http://creativecommons.org/ns#"
   xmlns:dc="http://purl.org/dc/elements/1.1/">
  <path
     d="m 14.441834,3.049997 c -2.497674,0 -4.5289631,2.0680893 -4.5289631,4.6095816 0,0.020372 -2.873e-4,0.04104 7.873e-4,0.060176 L 7.0043471,12.013543 c -0.044906,-0.0025 -0.089858,-0.004 -0.1348274,-0.0047 -0.6527311,8.91e-4 -1.2906796,0.197509 -1.8338113,0.565304 l -0.3140663,-0.131504 -1.711469,-0.71732 v 1.851941 c 0,2.709775 1.4700938,5.407919 4.0948206,5.15198 0.3899506,-0.0277 0.7720017,-0.12527 1.12849,-0.288201 0.00338,-0.0019 0.00676,-0.0036 0.010131,-0.0055 1.1807054,-0.546209 1.9390973,-1.742126 1.9405913,-3.060136 -9e-4,-0.02905 -0.0023,-0.05808 -0.0039,-0.08709 l 4.159467,-3.019726 c 0.03379,0.0012 0.06832,0.0015 0.102096,0.0015 2.498671,0 4.529762,-2.069063 4.529762,-4.6103935 0,-2.5415734 -2.030731,-4.6087708 -4.529762,-4.6087708 v -8.1e-4 z m 0,1.5383782 c 1.664423,0 3.019202,1.3787397 3.019202,3.0712442 0,1.6938014 -1.354779,3.0720156 -3.019202,3.0720156 -1.663386,0 -3.016848,-1.3782142 -3.016848,-3.0720156 0,-1.6924639 1.3535,-3.0712442 3.016848,-3.0712442 z m 0.0055,0.7585077 c -1.250872,0 -2.266357,1.033761 -2.266357,2.3079935 0,1.2743138 1.015485,2.3071823 2.266357,2.3071823 1.251909,0 2.267115,-1.0328685 2.267115,-2.3071823 0,-1.2742325 -1.015246,-2.3079935 -2.267115,-2.3079935 z M 6.8697552,12.79575 c 0.2503503,7e-6 0.4993232,0.03763 0.7388391,0.111637 0.077499,0.02426 0.1542682,0.05241 0.2306859,0.08472 0.2361925,0.09983 0.4526172,0.232672 0.6445094,0.393503 0.3198165,0.268054 0.5715271,0.613867 0.7333728,1.014261 0.061629,0.152444 0.1073861,0.308958 0.1395041,0.467121 0.0024,0.01054 0.00473,0.0211 0.00702,0.03168 0.010939,0.0575 0.017888,0.115496 0.02494,0.173392 0.00416,0.02975 0.00779,0.05959 0.01091,0.08947 0.0062,0.07132 0.0098,0.142293 0.010131,0.213774 v 8.91e-4 C 9.4091689,16.80079 8.2720634,17.955302 6.8697733,17.954921 5.9398082,17.95403 5.0847173,17.436753 4.640845,16.606544 l 1.347516,0.564533 c 0.8768232,0.36738 1.8596682,0.0246 2.3481978,-0.764061 3.655e-4,-6.4e-4 0.0012,-9.9e-4 0.00153,-0.0015 0.00575,-0.0091 0.00919,-0.02008 0.01481,-0.0293 0.049136,-0.08255 0.098703,-0.164742 0.1363878,-0.256528 0.00216,-0.0053 0.00258,-0.01062 0.00467,-0.01584 0.048693,-0.118724 0.084335,-0.23956 0.1083278,-0.361041 1.522e-4,-8.02e-4 -1.506e-4,-0.0015 0,-0.0024 0.024684,-0.12572 0.036232,-0.251607 0.035848,-0.376878 -0.00118,-0.377308 -0.1125137,-0.744927 -0.3156388,-1.055408 -0.00182,-0.0028 -0.0044,-0.0051 -0.00624,-0.0079 -0.065112,-0.0985 -0.1391393,-0.191112 -0.2221054,-0.276409 -0.066865,-0.06915 -0.1435299,-0.129381 -0.2213365,-0.188436 -0.019655,-0.01492 -0.035785,-0.03329 -0.056111,-0.04751 -4.702e-4,-3.26e-4 -0.00107,-4.52e-4 -0.00153,-8.91e-4 -0.1096194,-0.07644 -0.227943,-0.144148 -0.3561663,-0.197872 L 5.9681169,12.965134 c 0.2879616,-0.111607 0.5935176,-0.169021 0.9017229,-0.169437 z"
     color="#000000"
     fill="url(#b)"
     stroke-width="0.429018"
     id="path25"
     style="fill:#dfdfdf;fill-opacity:1"
     sodipodi:nodetypes="csccccccsccccccsscccssssssssssccccccccccsccccccccsccsccccccccc" />
  <metadata
     id="metadata13">
    <rdf:RDF>
      <cc:Work
         rdf:about="">
        <dc:format>image/svg+xml</dc:format>
        <dc:type
           rdf:resource="http://purl.org/dc/dcmitype/StillImage" />
        <dc:title />
      </cc:Work>
    </rdf:RDF>
  </metadata>
  <sodipodi:namedview
     pagecolor="#ffffff"
     bordercolor="#666666"
     borderopacity="1"
     objecttolerance="10"
     gridtolerance="10"
     guidetolerance="10"
     inkscape:pageopacity="0"
     inkscape:pageshadow="2"
     inkscape:window-width="1541"
     inkscape:window-height="738"
     id="namedview11"
     showgrid="false"
     inkscape:zoom="37.5"
     inkscape:cx="11.16"
     inkscape:cy="14.466667"
     inkscape:window-x="84"
     inkscape:window-y="47"
     inkscape:window-maximized="0"
     inkscape:current-layer="svg9"
     inkscape:document-rotation="0"
     inkscape:showpageshadow="2"
     inkscape:pagecheckerboard="0"
     inkscape:deskcolor="#d1d1d1" />
  <defs
     id="defs3">
    <style
       id="current-color-scheme"
       type="text/css">
   .ColorScheme-Text { color:#dfdfdf; } .ColorScheme-Highlight { color:#4285f4; } .ColorScheme-NeutralText { color:#ff9800; } .ColorScheme-PositiveText { color:#4caf50; } .ColorScheme-NegativeText { color:#f44336; }
  </style>
  </defs>
  <path
     style="fill:currentColor"
     class="ColorScheme-Text"
     d="M 13.349609,10.990234 A 3.9999998,3.9999998 0 0 0 13.363281,11.001953 L 13.353516,11 Z"
     id="path7" />
</svg>
