<?xml version="1.0" encoding="UTF-8" standalone="no"?>
<svg
   width="64"
   height="64"
   version="1.1"
   viewBox="0 0 16.933 16.933"
   id="svg7"
   sodipodi:docname="System Template.svg"
   inkscape:version="1.4 (e7c3feb100, 2024-10-09)"
   xmlns:inkscape="http://www.inkscape.org/namespaces/inkscape"
   xmlns:sodipodi="http://sodipodi.sourceforge.net/DTD/sodipodi-0.dtd"
   xmlns:xlink="http://www.w3.org/1999/xlink"
   xmlns="http://www.w3.org/2000/svg"
   xmlns:svg="http://www.w3.org/2000/svg"
   xmlns:rdf="http://www.w3.org/1999/02/22-rdf-syntax-ns#"
   xmlns:cc="http://creativecommons.org/ns#"
   xmlns:dc="http://purl.org/dc/elements/1.1/">
  <sodipodi:namedview
     id="namedview7"
     pagecolor="#9c4444"
     bordercolor="#000000"
     borderopacity="0.25"
     inkscape:showpageshadow="2"
     inkscape:pageopacity="0.0"
     inkscape:pagecheckerboard="0"
     inkscape:deskcolor="#d1d1d1"
     inkscape:zoom="4.3531261"
     inkscape:cx="40.086135"
     inkscape:cy="46.977734"
     inkscape:window-width="1183"
     inkscape:window-height="973"
     inkscape:window-x="35"
     inkscape:window-y="32"
     inkscape:window-maximized="0"
     inkscape:current-layer="text2284"
     showgrid="false" />
  <defs
     id="defs2">
    <linearGradient
       inkscape:collect="always"
       id="linearGradient1134">
      <stop
         style="stop-color:#161616;stop-opacity:1;"
         offset="0"
         id="stop1130" />
      <stop
         style="stop-color:#404040;stop-opacity:1;"
         offset="1"
         id="stop1132" />
    </linearGradient>
    <linearGradient
       inkscape:collect="always"
       id="linearGradient883">
      <stop
         style="stop-color:#808080;stop-opacity:1;"
         offset="0"
         id="stop879" />
      <stop
         style="stop-color:#3e3e3e;stop-opacity:1;"
         offset="0.5"
         id="stop1216" />
      <stop
         style="stop-color:#242424;stop-opacity:1;"
         offset="1"
         id="stop881" />
    </linearGradient>
    <linearGradient
       inkscape:collect="always"
       xlink:href="#linearGradient883"
       id="linearGradient885"
       x1="2.1085808"
       y1="2.0236168"
       x2="14.846128"
       y2="15.071845"
       gradientUnits="userSpaceOnUse" />
    <linearGradient
       inkscape:collect="always"
       xlink:href="#linearGradient1134"
       id="linearGradient1136"
       x1="14.971222"
       y1="14.703373"
       x2="2.0756054"
       y2="2.0069976"
       gradientUnits="userSpaceOnUse" />
    <filter
       style="color-interpolation-filters:sRGB;"
       inkscape:label="Blur"
       id="filter1283"
       x="-0.082344266"
       y="-0.082344266"
       width="1.1646885"
       height="1.1646885">
      <feGaussianBlur
         stdDeviation="0.5 0.5"
         result="blur"
         id="feGaussianBlur1281" />
    </filter>
    <filter
       style="color-interpolation-filters:sRGB;"
       inkscape:label="Blur"
       id="filter1694"
       x="-0.94955398"
       y="-0.2118907"
       width="2.899108"
       height="1.4237814">
      <feGaussianBlur
         stdDeviation="0.2 0.2"
         result="blur"
         id="feGaussianBlur1692" />
    </filter>
    <filter
       style="color-interpolation-filters:sRGB;"
       inkscape:label="Blur"
       id="filter3335"
       x="-0.94955398"
       y="-0.2118907"
       width="2.899108"
       height="1.4237814">
      <feGaussianBlur
         stdDeviation="0.2 0.2"
         result="blur"
         id="feGaussianBlur3333" />
    </filter>
  </defs>
  <metadata
     id="metadata2">
    <rdf:RDF>
      <cc:Work
         rdf:about="">
        <dc:format>image/svg+xml</dc:format>
        <dc:type
           rdf:resource="http://purl.org/dc/dcmitype/StillImage" />
      </cc:Work>
    </rdf:RDF>
  </metadata>
  <rect
     style="fill:#000000;stroke:none;stroke-width:0.539739;stroke-dasharray:none;filter:url(#filter1283)"
     id="rect246-1"
     width="14.572964"
     height="14.572964"
     x="1.1932471"
     y="1.2138842"
     rx="2.1589575"
     ry="2.1589575" />
  <rect
     style="opacity:1;fill:#000000;stroke:url(#linearGradient885);stroke-width:0.52915625;stroke-dasharray:none"
     id="rect246"
     width="14.287219"
     height="14.287219"
     x="1.3361193"
     y="1.3567564"
     rx="2.1166251"
     ry="2.1166251" />
  <g
     aria-label="Krita"
     id="text1450"
     style="font-size:1.76385px;opacity:1;fill:#999999;stroke-width:0.529156">
    <rect
       style="font-size:1.76385px;fill:#ff0000;fill-opacity:1;stroke:none;stroke-width:0.519976;stroke-dasharray:none;filter:url(#filter3335)"
       id="rect1656-0"
       width="0.5055005"
       height="2.2653189"
       x="15.369148"
       y="4.3016486"
       rx="0"
       ry="0" />
    <rect
       style="opacity:1;fill:#ff0000;fill-opacity:1;stroke:none;stroke-width:0.519976;stroke-dasharray:none"
       id="rect1656"
       width="0.5055005"
       height="2.2653189"
       x="15.369148"
       y="4.3016486"
       rx="0"
       ry="0" />
  </g>
  <rect
     style="fill:url(#linearGradient1136);fill-opacity:1;stroke:none;stroke-width:0.478315;stroke-dasharray:none"
     id="rect246-5"
     width="12.914515"
     height="12.914515"
     x="2.0224717"
     y="2.0431087"
     rx="1.5874687"
     ry="1.5874687" />
  <path
     id="path17"
     style="fill:#999999;fill-opacity:1;stroke:none;stroke-width:0.246605;stroke-dasharray:none;stroke-dashoffset:2.2;stroke-opacity:0.3"
     d="m 8.2103728,3.3409633 c -0.055011,0.00738 -0.1103794,0.053764 -0.1488293,0.1281185 -0.036752,0.07107 -0.042867,0.3200342 -0.042867,1.7690959 0,0.9277062 -0.00951,1.6868898 -0.021194,1.6867331 C 7.9857987,6.9247544 7.5398255,6.5563654 7.0067323,6.1065899 6.4736396,5.6568136 6.0164945,5.280922 5.9904541,5.2709296 5.9644126,5.2609374 5.9123045,5.272906 5.8748584,5.2974206 5.7595736,5.372958 5.7199455,5.5479399 5.7857528,5.692372 5.8040645,5.732561 6.2662103,6.1426651 6.8126277,6.6036513 7.3590435,7.0646384 7.8089493,7.4564424 7.8125298,7.4739906 7.81611,7.4915344 7.3791337,7.8625595 6.8410449,8.298573 6.3029556,8.7345863 5.8427782,9.1131928 5.8185044,9.1400134 5.746045,9.2200738 5.7403596,9.4170472 5.8074276,9.5238865 5.9171124,9.6986213 5.9318808,9.6901665 6.9990265,8.8230877 7.5358797,8.3868849 7.9850122,8.0298133 7.9970021,8.0298133 c 0.011992,0 0.021675,0.7512646 0.021675,1.6693936 0,1.0910841 0.010036,1.6967521 0.029381,1.7488691 0.016282,0.04386 0.050939,0.09564 0.076582,0.115113 0.025644,0.01948 0.073923,0.03564 0.1074079,0.03564 0.062857,0 2.481246,-1.8272065 2.62643,-1.9843926 0.104211,-0.1128276 0.111204,-0.3416469 0.01398,-0.4551595 C 10.837481,9.1184464 10.343394,8.730853 9.7747717,8.2980917 9.2061465,7.8653281 8.7309746,7.5027157 8.7185136,7.4918107 8.7060561,7.4809056 9.1744565,7.1049146 9.7598385,6.6566321 10.345219,6.2083493 10.849397,5.8094953 10.880153,5.7703985 c 0.06425,-0.081671 0.07504,-0.2950937 0.01975,-0.393989 -0.0358,-0.064034 -2.5449201,-1.9958192 -2.6355833,-2.0291854 -0.017654,-0.0065 -0.035608,-0.00872 -0.053945,-0.00625 z m 0.2494945,0.8366235 c 0.029034,0 1.7965497,1.3628352 1.7965497,1.3852219 0,0.011978 -0.3974396,0.3268485 -0.8833443,0.6993532 -0.4859042,0.3725059 -0.8938488,0.6811566 -0.9064623,0.6863499 -0.01261,0.0052 -0.023118,-0.61575 -0.023118,-1.3804049 0,-0.7646549 0.00749,-1.3905201 0.016375,-1.3905201 z m 0.00482,3.8242908 c 0.041002,7.8e-4 1.7772817,1.3493709 1.7772817,1.3804052 0,0.017253 -0.3999102,0.3382684 -0.8891217,0.7133222 -0.4892113,0.375052 -0.8938249,0.681533 -0.8992377,0.681533 -0.00541,0 -0.010116,-0.624274 -0.010116,-1.38763 0,-0.7633567 0.00951,-1.3878594 0.021192,-1.3876304 z" />
  <g
     aria-label="Terminal"
     id="text2284"
     style="font-size:1.76385px;opacity:1;fill:#999999;stroke-width:0.529156">
    <path
       d="m 4.8736217,12.92136 q 0.2363559,0 0.3562977,0.07055 0.1217056,0.06879 0.1217056,0.241648 0,0.111122 -0.061735,0.185204 -0.061735,0.07232 -0.1781489,0.09348 v 0.0088 q 0.079373,0.01235 0.1428719,0.04586 0.065262,0.03351 0.1023033,0.09525 0.037041,0.06174 0.037041,0.16051 0,0.171094 -0.1181779,0.264578 -0.1164141,0.09348 -0.3192569,0.09348 H 4.5137963 V 12.92136 Z m 0.031749,0.53621 q 0.1622742,0 0.2222451,-0.05115 0.059971,-0.05292 0.059971,-0.155219 0,-0.104067 -0.074082,-0.148163 -0.072318,-0.04586 -0.2328282,-0.04586 H 4.6725428 v 0.400393 z m -0.2328282,0.132289 v 0.456837 h 0.2539944 q 0.1675657,0 0.2328282,-0.06526 0.065262,-0.06526 0.065262,-0.171094 0,-0.09877 -0.06879,-0.158746 -0.067026,-0.06173 -0.2416475,-0.06173 z m 1.1218079,0.59089 H 5.6391319 V 12.840223 H 5.7943507 Z M 6.884409,13.235325 v 0.945424 H 6.7574118 l -0.02293,-0.125233 h -0.00706 q -0.04586,0.07408 -0.1269972,0.109358 -0.081137,0.03351 -0.1728573,0.03351 -0.1710934,0 -0.2575221,-0.08114 -0.086429,-0.0829 -0.086429,-0.262813 v -0.619112 h 0.1569826 v 0.608529 q 0,0.225772 0.2098982,0.225772 0.1569826,0 0.2169535,-0.08819 0.061735,-0.08819 0.061735,-0.253995 v -0.492114 z m 0.6649713,-0.01764 q 0.1217056,0 0.2081343,0.05292 0.088192,0.05292 0.1340526,0.149928 0.047624,0.09525 0.047624,0.224009 v 0.09348 H 7.2918582 q 0.00353,0.16051 0.081137,0.245175 0.079373,0.0829 0.2204812,0.0829 0.089956,0 0.1587465,-0.01587 0.070554,-0.01764 0.1446357,-0.04939 v 0.135817 q -0.072318,0.03175 -0.1428718,0.04586 -0.070554,0.01587 -0.1675658,0.01587 -0.1340526,0 -0.2381197,-0.05468 -0.1023033,-0.05468 -0.1605104,-0.162274 -0.056443,-0.109359 -0.056443,-0.266341 0,-0.155219 0.051152,-0.266342 0.052916,-0.111122 0.1463995,-0.171093 0.095248,-0.05997 0.2204813,-0.05997 z m -0.00176,0.126997 q -0.1111225,0 -0.176385,0.07232 -0.063499,0.07055 -0.075845,0.197551 h 0.481531 q -0.00176,-0.119942 -0.056443,-0.194023 -0.054679,-0.07585 -0.1728573,-0.07585 z m 0.9471862,0.726706 q 0.035277,0 0.072318,-0.0053 0.037041,-0.0071 0.059971,-0.01411 v 0.118178 q -0.024694,0.01235 -0.070554,0.0194 -0.04586,0.0088 -0.088192,0.0088 -0.074082,0 -0.1375803,-0.02469 -0.061735,-0.02646 -0.1005394,-0.08996 -0.038805,-0.0635 -0.038805,-0.178149 V 13.355267 H 8.0573678 v -0.07408 l 0.1358164,-0.06173 0.061735,-0.201079 h 0.09172 v 0.216953 h 0.2733967 v 0.119942 H 8.3466392 v 0.546794 q 0,0.08643 0.040568,0.128761 0.042332,0.04057 0.1075949,0.04057 z m 1.1429747,-0.365117 q 0,0.234592 -0.1199418,0.363353 -0.118178,0.128761 -0.3210207,0.128761 -0.1252334,0 -0.224009,-0.05644 -0.097012,-0.05821 -0.1534549,-0.167566 -0.056443,-0.111122 -0.056443,-0.268105 0,-0.234592 0.1181779,-0.361589 0.118178,-0.126997 0.3210207,-0.126997 0.1287611,0 0.2257728,0.05821 0.098776,0.05644 0.153455,0.165802 0.056443,0.107595 0.056443,0.264577 z m -0.7143593,0 q 0,0.167566 0.065262,0.266342 0.067026,0.09701 0.211662,0.09701 0.1428718,0 0.2098981,-0.09701 0.067026,-0.09878 0.067026,-0.266342 0,-0.167565 -0.067026,-0.262813 -0.067026,-0.09525 -0.211662,-0.09525 -0.1446357,0 -0.2098981,0.09525 -0.065262,0.09525 -0.065262,0.262813 z m 1.781488,0 q 0,0.234592 -0.119942,0.363353 -0.118178,0.128761 -0.321021,0.128761 -0.125233,0 -0.224009,-0.05644 -0.097011,-0.05821 -0.1534545,-0.167566 -0.056443,-0.111122 -0.056443,-0.268105 0,-0.234592 0.118178,-0.361589 0.1181777,-0.126997 0.3210207,-0.126997 0.128761,0 0.225773,0.05821 0.09877,0.05644 0.153455,0.165802 0.05644,0.107595 0.05644,0.264577 z m -0.7143593,0 q 0,0.167566 0.065262,0.266342 0.06703,0.09701 0.211662,0.09701 0.142872,0 0.209898,-0.09701 0.06703,-0.09878 0.06703,-0.266342 0,-0.167565 -0.06703,-0.262813 -0.06703,-0.09525 -0.211662,-0.09525 -0.144635,0 -0.209898,0.09525 -0.065262,0.09525 -0.065262,0.262813 z m 1.2752623,0.365117 q 0.03528,0 0.07232,-0.0053 0.03704,-0.0071 0.05997,-0.01411 v 0.118178 q -0.02469,0.01235 -0.07055,0.0194 -0.04586,0.0088 -0.08819,0.0088 -0.07408,0 -0.13758,-0.02469 -0.06173,-0.02646 -0.100539,-0.08996 -0.0388,-0.0635 -0.0388,-0.178149 v -0.550321 h -0.134053 v -0.07408 l 0.135817,-0.06173 0.06174,-0.201079 h 0.09172 v 0.216953 h 0.273397 v 0.119942 h -0.273397 v 0.546794 q 0,0.08643 0.04057,0.128761 0.04233,0.04057 0.107595,0.04057 z m 0.47624,-0.837828 q 0,0.07055 -0.0088,0.132288 h 0.01058 q 0.04586,-0.07232 0.123469,-0.109358 0.07937,-0.03704 0.171094,-0.03704 0.172857,0 0.259286,0.0829 0.08643,0.08114 0.08643,0.262813 v 0.615584 h -0.153455 v -0.605001 q 0,-0.227536 -0.211662,-0.227536 -0.158746,0 -0.218717,0.08996 -0.05821,0.08819 -0.05821,0.253994 v 0.488587 H 11.58683 v -1.340526 h 0.155219 z"
       id="text1"
       style="text-align:center;text-anchor:middle;stroke-width:0.140003"
       aria-label="Bluetooth" />
  </g>
</svg>
