<?xml version="1.0" encoding="UTF-8" standalone="no"?>
<svg
   width="64"
   height="64"
   version="1.1"
   viewBox="0 0 16.933 16.933"
   id="svg7"
   sodipodi:docname="drive-harddisk-system.svg"
   inkscape:version="1.4 (e7c3feb100, 2024-10-09)"
   xmlns:inkscape="http://www.inkscape.org/namespaces/inkscape"
   xmlns:sodipodi="http://sodipodi.sourceforge.net/DTD/sodipodi-0.dtd"
   xmlns:xlink="http://www.w3.org/1999/xlink"
   xmlns="http://www.w3.org/2000/svg"
   xmlns:svg="http://www.w3.org/2000/svg"
   xmlns:rdf="http://www.w3.org/1999/02/22-rdf-syntax-ns#"
   xmlns:cc="http://creativecommons.org/ns#"
   xmlns:dc="http://purl.org/dc/elements/1.1/">
  <sodipodi:namedview
     id="namedview7"
     pagecolor="#9c4444"
     bordercolor="#000000"
     borderopacity="0.25"
     inkscape:showpageshadow="2"
     inkscape:pageopacity="0.0"
     inkscape:pagecheckerboard="0"
     inkscape:deskcolor="#d1d1d1"
     inkscape:zoom="4.3531261"
     inkscape:cx="40.086135"
     inkscape:cy="46.977734"
     inkscape:window-width="1183"
     inkscape:window-height="973"
     inkscape:window-x="35"
     inkscape:window-y="32"
     inkscape:window-maximized="0"
     inkscape:current-layer="text2284"
     showgrid="false" />
  <defs
     id="defs2">
    <linearGradient
       inkscape:collect="always"
       id="linearGradient1134">
      <stop
         style="stop-color:#161616;stop-opacity:1;"
         offset="0"
         id="stop1130" />
      <stop
         style="stop-color:#404040;stop-opacity:1;"
         offset="1"
         id="stop1132" />
    </linearGradient>
    <linearGradient
       inkscape:collect="always"
       id="linearGradient883">
      <stop
         style="stop-color:#808080;stop-opacity:1;"
         offset="0"
         id="stop879" />
      <stop
         style="stop-color:#3e3e3e;stop-opacity:1;"
         offset="0.5"
         id="stop1216" />
      <stop
         style="stop-color:#242424;stop-opacity:1;"
         offset="1"
         id="stop881" />
    </linearGradient>
    <linearGradient
       inkscape:collect="always"
       xlink:href="#linearGradient883"
       id="linearGradient885"
       x1="2.1085808"
       y1="2.0236168"
       x2="14.846128"
       y2="15.071845"
       gradientUnits="userSpaceOnUse" />
    <linearGradient
       inkscape:collect="always"
       xlink:href="#linearGradient1134"
       id="linearGradient1136"
       x1="14.971222"
       y1="14.703373"
       x2="2.0756054"
       y2="2.0069976"
       gradientUnits="userSpaceOnUse" />
    <filter
       style="color-interpolation-filters:sRGB;"
       inkscape:label="Blur"
       id="filter1283"
       x="-0.082344266"
       y="-0.082344266"
       width="1.1646885"
       height="1.1646885">
      <feGaussianBlur
         stdDeviation="0.5 0.5"
         result="blur"
         id="feGaussianBlur1281" />
    </filter>
    <filter
       style="color-interpolation-filters:sRGB;"
       inkscape:label="Blur"
       id="filter1694"
       x="-0.94955398"
       y="-0.2118907"
       width="2.899108"
       height="1.4237814">
      <feGaussianBlur
         stdDeviation="0.2 0.2"
         result="blur"
         id="feGaussianBlur1692" />
    </filter>
    <filter
       style="color-interpolation-filters:sRGB;"
       inkscape:label="Blur"
       id="filter3335"
       x="-0.94955398"
       y="-0.2118907"
       width="2.899108"
       height="1.4237814">
      <feGaussianBlur
         stdDeviation="0.2 0.2"
         result="blur"
         id="feGaussianBlur3333" />
    </filter>
  </defs>
  <metadata
     id="metadata2">
    <rdf:RDF>
      <cc:Work
         rdf:about="">
        <dc:format>image/svg+xml</dc:format>
        <dc:type
           rdf:resource="http://purl.org/dc/dcmitype/StillImage" />
      </cc:Work>
    </rdf:RDF>
  </metadata>
  <rect
     style="fill:#000000;stroke:none;stroke-width:0.539739;stroke-dasharray:none;filter:url(#filter1283)"
     id="rect246-1"
     width="14.572964"
     height="14.572964"
     x="1.1932471"
     y="1.2138842"
     rx="2.1589575"
     ry="2.1589575" />
  <rect
     style="opacity:1;fill:#000000;stroke:url(#linearGradient885);stroke-width:0.52915625;stroke-dasharray:none"
     id="rect246"
     width="14.287219"
     height="14.287219"
     x="1.3361193"
     y="1.3567564"
     rx="2.1166251"
     ry="2.1166251" />
  <g
     aria-label="Krita"
     id="text1450"
     style="font-size:1.76385px;opacity:1;fill:#999999;stroke-width:0.529156">
    <rect
       style="font-size:1.76385px;fill:#ff0000;fill-opacity:1;stroke:none;stroke-width:0.519976;stroke-dasharray:none;filter:url(#filter3335)"
       id="rect1656-0"
       width="0.5055005"
       height="2.2653189"
       x="15.369148"
       y="4.3016486"
       rx="0"
       ry="0" />
    <rect
       style="opacity:1;fill:#ff0000;fill-opacity:1;stroke:none;stroke-width:0.519976;stroke-dasharray:none"
       id="rect1656"
       width="0.5055005"
       height="2.2653189"
       x="15.369148"
       y="4.3016486"
       rx="0"
       ry="0" />
  </g>
  <rect
     style="fill:url(#linearGradient1136);fill-opacity:1;stroke:none;stroke-width:0.478315;stroke-dasharray:none"
     id="rect246-5"
     width="12.914515"
     height="12.914515"
     x="2.0224717"
     y="2.0431087"
     rx="1.5874687"
     ry="1.5874687" />
  <path
     style="fill:#999999;fill-opacity:1;stroke:none;stroke-width:0.244138;stroke-dasharray:none;stroke-opacity:0.3"
     d="m 8.5780743,3.6900552 c -2.0556788,0 -3.7221288,1.6664505 -3.7221288,3.7221285 v 3.7221293 h 3.7221288 c 2.0556787,0 3.7221287,-1.6664497 3.7221287,-3.7221293 0,-2.055678 -1.66645,-3.7221284 -3.7221287,-3.7221285 z m 0,2.1269307 A 1.5951981,1.5951981 0 0 1 10.173273,7.4121837 1.5951981,1.5951981 0 0 1 8.5780743,9.0073814 1.5951981,1.5951981 0 0 1 6.9828759,7.4121837 1.5951981,1.5951981 0 0 1 8.5780743,5.8169859 Z"
     id="path2072" />
  <g
     aria-label="Terminal"
     id="text2284"
     style="font-size:1.76385px;opacity:1;fill:#999999;stroke-width:0.529156">
    <path
       d="M 5.6759925,14.161479 H 5.517246 V 13.574117 H 4.8716769 v 0.587362 H 4.7129304 V 12.90209 h 0.1587465 v 0.532683 H 5.517246 V 12.90209 h 0.1587465 z m 0.6808448,-0.961298 q 0.1728573,0 0.2557582,0.07584 0.082901,0.07585 0.082901,0.241648 v 0.643805 H 6.5826101 l -0.029986,-0.134053 h -0.00706 q -0.061735,0.07761 -0.1305249,0.114651 -0.067026,0.03704 -0.1869681,0.03704 -0.128761,0 -0.2134258,-0.06703 -0.084665,-0.06879 -0.084665,-0.213426 0,-0.141108 0.1111225,-0.216953 0.1111226,-0.07761 0.3421869,-0.08466 l 0.1605104,-0.0053 v -0.05644 q 0,-0.118178 -0.051152,-0.164038 -0.051152,-0.04586 -0.1446357,-0.04586 -0.074082,0 -0.141108,0.02293 -0.067026,0.02117 -0.1252333,0.04939 l -0.047624,-0.116414 q 0.061735,-0.03351 0.1463996,-0.05644 0.084665,-0.02469 0.176385,-0.02469 z m 0.04586,0.504461 q -0.176385,0.0071 -0.2451752,0.05644 -0.067026,0.04939 -0.067026,0.139344 0,0.07937 0.047624,0.116414 0.049388,0.03704 0.1252333,0.03704 0.1199418,0 0.1993151,-0.06526 0.079373,-0.06703 0.079373,-0.204607 v -0.08466 z m 1.026562,-0.506225 q 0.026458,0 0.056443,0.0035 0.031749,0.0018 0.054679,0.0071 l -0.019402,0.142872 q -0.02293,-0.0053 -0.051152,-0.0088 -0.026458,-0.0035 -0.051152,-0.0035 -0.072318,0 -0.1358165,0.04057 -0.063499,0.0388 -0.1023033,0.111123 -0.037041,0.07055 -0.037041,0.165802 v 0.504461 H 6.9882969 v -0.945424 h 0.1269972 l 0.017639,0.172858 h 0.00706 q 0.04586,-0.07761 0.1181779,-0.134053 0.072318,-0.05644 0.1710935,-0.05644 z m 0.5873615,0.9807 q -0.176385,0 -0.282216,-0.121705 -0.105831,-0.12347 -0.105831,-0.366881 0,-0.243411 0.105831,-0.366881 0.1075948,-0.125233 0.2839798,-0.125233 0.1093587,0 0.1781489,0.04057 0.070554,0.04057 0.1146502,0.09878 h 0.010583 q -0.00176,-0.02293 -0.00706,-0.06703 -0.00353,-0.04586 -0.00353,-0.07232 v -0.377464 h 0.1552188 v 1.340526 H 8.3411693 l -0.02293,-0.126997 h -0.00706 q -0.042332,0.05997 -0.1128864,0.102303 -0.070554,0.04233 -0.1816765,0.04233 z m 0.024694,-0.128761 q 0.1499272,0 0.2098981,-0.08114 0.061735,-0.0829 0.061735,-0.248702 v -0.02822 q 0,-0.176385 -0.058207,-0.269869 -0.058207,-0.09525 -0.2151897,-0.09525 -0.1252333,0 -0.1887319,0.100539 -0.061735,0.09878 -0.061735,0.266342 0,0.169329 0.061735,0.262813 0.063499,0.09348 0.1904958,0.09348 z m 1.0600734,0.128761 q -0.176385,0 -0.282216,-0.121705 -0.105831,-0.12347 -0.105831,-0.366881 0,-0.243411 0.105831,-0.366881 0.1075949,-0.125233 0.2839798,-0.125233 0.1093587,0 0.1781489,0.04057 0.070554,0.04057 0.1146502,0.09878 h 0.010583 q -0.00176,-0.02293 -0.00706,-0.06703 -0.00353,-0.04586 -0.00353,-0.07232 v -0.377464 h 0.1552188 v 1.340526 H 9.4259366 l -0.02293,-0.126997 h -0.00706 q -0.042332,0.05997 -0.1128864,0.102303 -0.070554,0.04233 -0.1816765,0.04233 z m 0.024694,-0.128761 q 0.1499272,0 0.2098981,-0.08114 0.061735,-0.0829 0.061735,-0.248702 v -0.02822 q 0,-0.176385 -0.058207,-0.269869 -0.058207,-0.09525 -0.2151897,-0.09525 -0.1252333,0 -0.1887319,0.100539 -0.061735,0.09878 -0.061735,0.266342 0,0.169329 0.061735,0.262813 0.063499,0.09348 0.1904958,0.09348 z m 0.8043152,-1.188834 q 0.035277,0 0.061735,0.02469 0.028222,0.02293 0.028222,0.07408 0,0.04939 -0.028222,0.07408 -0.026458,0.02469 -0.061735,0.02469 -0.038805,0 -0.065262,-0.02469 -0.026458,-0.02469 -0.026458,-0.07408 0,-0.05115 0.026458,-0.07408 0.026458,-0.02469 0.065262,-0.02469 z m 0.075846,0.354533 v 0.945424 H 9.851024 v -0.945424 z m 0.915437,0.684374 q 0,0.13758 -0.102303,0.208134 -0.102304,0.07055 -0.275161,0.07055 -0.09877,0 -0.171093,-0.01587 -0.07055,-0.01587 -0.125234,-0.0441 v -0.141108 q 0.05644,0.02822 0.135817,0.05291 0.08114,0.02293 0.164038,0.02293 0.118178,0 0.171093,-0.03704 0.05292,-0.0388 0.05292,-0.102303 0,-0.03528 -0.0194,-0.0635 -0.0194,-0.02822 -0.07055,-0.05644 -0.04939,-0.02822 -0.142871,-0.0635 -0.09172,-0.03528 -0.156983,-0.07055 -0.06526,-0.03528 -0.100539,-0.08466 -0.03528,-0.04939 -0.03528,-0.126997 0,-0.119942 0.09701,-0.185205 0.09878,-0.06526 0.257522,-0.06526 0.08643,0 0.160511,0.01764 0.07584,0.01587 0.141108,0.04586 l -0.05292,0.123469 q -0.05997,-0.02469 -0.125233,-0.04233 -0.06526,-0.01764 -0.134053,-0.01764 -0.09525,0 -0.146399,0.03175 -0.04939,0.02999 -0.04939,0.0829 0,0.0388 0.02293,0.06703 0.02293,0.02646 0.07585,0.05291 0.05468,0.02469 0.144635,0.05997 0.08996,0.03351 0.153455,0.06879 0.0635,0.03528 0.09701,0.08643 0.03351,0.04939 0.03351,0.125233 z m 0.382756,-0.379228 q 0,0.02822 -0.0035,0.07408 -0.0018,0.04586 -0.0035,0.07937 h 0.0071 q 0.01058,-0.01411 0.03175,-0.04057 0.02117,-0.02646 0.04233,-0.05292 0.02293,-0.02822 0.0388,-0.04586 l 0.301619,-0.319257 h 0.181676 l -0.382755,0.403922 0.409213,0.541502 h -0.186968 l -0.328076,-0.440962 -0.107595,0.09348 v 0.347478 h -0.153455 v -1.340526 h 0.153455 z"
       id="text2"
       style="text-align:center;text-anchor:middle;stroke-width:0.132289;stroke-opacity:0.6"
       aria-label="Harddisk" />
  </g>
</svg>
