<?xml version="1.0" encoding="UTF-8" standalone="no"?>
<svg
   width="64"
   height="64"
   version="1.1"
   viewBox="0 0 16.933 16.933"
   id="svg7"
   sodipodi:docname="input-gaming.svg"
   inkscape:version="1.4 (e7c3feb100, 2024-10-09)"
   xmlns:inkscape="http://www.inkscape.org/namespaces/inkscape"
   xmlns:sodipodi="http://sodipodi.sourceforge.net/DTD/sodipodi-0.dtd"
   xmlns:xlink="http://www.w3.org/1999/xlink"
   xmlns="http://www.w3.org/2000/svg"
   xmlns:svg="http://www.w3.org/2000/svg"
   xmlns:rdf="http://www.w3.org/1999/02/22-rdf-syntax-ns#"
   xmlns:cc="http://creativecommons.org/ns#"
   xmlns:dc="http://purl.org/dc/elements/1.1/">
  <sodipodi:namedview
     id="namedview7"
     pagecolor="#9c4444"
     bordercolor="#000000"
     borderopacity="0.25"
     inkscape:showpageshadow="2"
     inkscape:pageopacity="0.0"
     inkscape:pagecheckerboard="0"
     inkscape:deskcolor="#d1d1d1"
     inkscape:zoom="6.15625"
     inkscape:cx="15.675127"
     inkscape:cy="41.177665"
     inkscape:window-width="1183"
     inkscape:window-height="973"
     inkscape:window-x="35"
     inkscape:window-y="32"
     inkscape:window-maximized="0"
     inkscape:current-layer="svg7"
     showgrid="false" />
  <defs
     id="defs2">
    <linearGradient
       inkscape:collect="always"
       id="linearGradient1134">
      <stop
         style="stop-color:#161616;stop-opacity:1;"
         offset="0"
         id="stop1130" />
      <stop
         style="stop-color:#404040;stop-opacity:1;"
         offset="1"
         id="stop1132" />
    </linearGradient>
    <linearGradient
       inkscape:collect="always"
       id="linearGradient883">
      <stop
         style="stop-color:#808080;stop-opacity:1;"
         offset="0"
         id="stop879" />
      <stop
         style="stop-color:#3e3e3e;stop-opacity:1;"
         offset="0.5"
         id="stop1216" />
      <stop
         style="stop-color:#242424;stop-opacity:1;"
         offset="1"
         id="stop881" />
    </linearGradient>
    <linearGradient
       inkscape:collect="always"
       xlink:href="#linearGradient883"
       id="linearGradient885"
       x1="2.1085808"
       y1="2.0236168"
       x2="14.846128"
       y2="15.071845"
       gradientUnits="userSpaceOnUse" />
    <linearGradient
       inkscape:collect="always"
       xlink:href="#linearGradient1134"
       id="linearGradient1136"
       x1="14.971222"
       y1="14.703373"
       x2="2.0756054"
       y2="2.0069976"
       gradientUnits="userSpaceOnUse" />
    <filter
       style="color-interpolation-filters:sRGB;"
       inkscape:label="Blur"
       id="filter1283"
       x="-0.082344266"
       y="-0.082344266"
       width="1.1646885"
       height="1.1646885">
      <feGaussianBlur
         stdDeviation="0.5 0.5"
         result="blur"
         id="feGaussianBlur1281" />
    </filter>
    <filter
       style="color-interpolation-filters:sRGB;"
       inkscape:label="Blur"
       id="filter1694"
       x="-0.94955398"
       y="-0.2118907"
       width="2.899108"
       height="1.4237814">
      <feGaussianBlur
         stdDeviation="0.2 0.2"
         result="blur"
         id="feGaussianBlur1692" />
    </filter>
  </defs>
  <metadata
     id="metadata2">
    <rdf:RDF>
      <cc:Work
         rdf:about="">
        <dc:format>image/svg+xml</dc:format>
        <dc:type
           rdf:resource="http://purl.org/dc/dcmitype/StillImage" />
      </cc:Work>
    </rdf:RDF>
  </metadata>
  <rect
     style="fill:#000000;stroke:none;stroke-width:0.539739;stroke-dasharray:none;filter:url(#filter1283)"
     id="rect246-1"
     width="14.572964"
     height="14.572964"
     x="1.1932471"
     y="1.2138842"
     rx="2.1589575"
     ry="2.1589575" />
  <rect
     style="opacity:1;fill:#000000;stroke:url(#linearGradient885);stroke-width:0.52915625;stroke-dasharray:none"
     id="rect246"
     width="14.287219"
     height="14.287219"
     x="1.3361193"
     y="1.3567564"
     rx="2.1166251"
     ry="2.1166251" />
  <rect
     style="fill:url(#linearGradient1136);fill-opacity:1;stroke:none;stroke-width:0.478315;stroke-dasharray:none"
     id="rect246-5"
     width="12.914515"
     height="12.914515"
     x="2.0224717"
     y="2.0431087"
     rx="1.5874687"
     ry="1.5874687" />
  <path
     id="path1"
     style="fill:#999999;fill-opacity:1;stroke:none;stroke-width:0.23352;stroke-dasharray:none;stroke-dashoffset:2.2;stroke-opacity:0.3"
     d="M 10.529439,4.435238 C 10.406703,4.4351866 10.275326,4.484609 10.110902,4.5809496 9.7196316,4.8102021 9.2079231,4.9183212 8.5052106,4.9183212 7.8025663,4.9183212 7.2737876,4.8079018 6.8848471,4.5799718 6.572968,4.3972066 6.3867723,4.3947843 6.1250294,4.5712645 5.453047,5.0241119 4.9466016,6.4760224 4.7980317,8.3733002 4.7089387,9.5110149 4.7921617,10.110824 5.0865082,10.44838 5.2284741,10.611125 5.5769818,10.583534 5.8913111,10.38384 6.1577629,10.21456 6.4752383,9.8410223 6.8545331,9.2504591 7.1972796,8.7168001 7.6118532,8.5410358 8.5286803,8.5395333 c 0.9150026,-0.00144 1.2745895,0.1716947 1.6966377,0.820449 0.708098,1.0884507 1.362602,1.4673847 1.746511,1.0111357 0.212682,-0.252756 0.25161,-0.4969631 0.241537,-1.5137692 C 12.195012,7.0102625 11.712189,5.3299352 11.01643,4.6886061 10.831129,4.5178007 10.687256,4.4353984 10.529439,4.435332 Z M 6.5543215,5.5236281 h 0.4244038 0.4244038 v 0.3637752 0.363776 H 7.7669047 8.1306792 V 6.7058982 7.160616 H 7.7669047 7.4031291 V 7.5547049 7.9487947 H 7.01882 c -0.211131,0 -0.4012024,-0.018925 -0.423428,-0.041065 C 6.573177,7.8855147 6.554326,7.7090827 6.554326,7.5146194 V 7.160616 H 6.1905463 5.8267704 V 6.7058982 6.2511793 h 0.3637759 0.3637752 v -0.363776 z m 3.4597725,0 c 0.382869,0 0.546834,0.4242097 0.270876,0.7001706 C 10.10947,6.3992776 9.9493011,6.4130713 9.7764677,6.2668304 9.4766827,6.0131627 9.633159,5.5236349 10.014094,5.5236349 Z m -0.73635,0.7774225 c 0.095602,6.63e-5 0.1918615,0.038172 0.2679405,0.1222277 0.1185948,0.1310468 0.1314048,0.4310799 0.024453,0.5710886 -0.2093108,0.2740139 -0.7119037,0.097761 -0.7119037,-0.2493613 0,-0.2634515 0.2091867,-0.4441062 0.4195141,-0.4439625 z m 1.503016,0.014765 c 0.110203,0.00208 0.217176,0.038508 0.279676,0.1075618 0.11859,0.1310473 0.1314,0.4310783 0.02444,0.5710887 -0.222632,0.2914495 -0.711903,0.096378 -0.711903,-0.2835889 0,-0.1151705 0.04615,-0.2400046 0.110497,-0.298256 0.07356,-0.066575 0.187098,-0.09882 0.29728,-0.096812 z m -0.740263,0.7842653 c 0.339433,0 0.504591,0.3600403 0.299233,0.6532309 -0.07021,0.10022 -0.155817,0.1349456 -0.332482,0.1349456 -0.2033966,0 -0.2505945,-0.026473 -0.3324806,-0.1848284 C 9.5133099,7.3911991 9.6895297,7.1000711 10.040497,7.1000711 Z" />
  <g
     aria-label="Krita"
     id="text1450"
     style="font-size:1.76385px;opacity:1;fill:#ff00ff;stroke-width:0.529156">
    <rect
       style="font-size:1.76385px;fill:#ff00ff;fill-opacity:1;stroke:none;stroke-width:0.519976;stroke-dasharray:none;filter:url(#filter1694)"
       id="rect1656-7"
       width="0.5055005"
       height="2.2653189"
       x="15.369148"
       y="4.3016486"
       rx="0"
       ry="0" />
    <rect
       style="opacity:1;fill:#ff00ff;fill-opacity:1;stroke:none;stroke-width:0.519976;stroke-dasharray:none"
       id="rect1656"
       width="0.5055005"
       height="2.2653189"
       x="15.369148"
       y="4.3016486"
       rx="0"
       ry="0" />
  </g>
  <g
     aria-label="Steam"
     id="text2284"
     style="font-size:1.76385px;opacity:1;fill:#999999;stroke-width:0.529156">
    <path
       d="m 6.0100675,13.50751 h 0.4356709 v 0.617348 q -0.1023033,0.03351 -0.2063704,0.04939 -0.1040672,0.01587 -0.2363559,0.01587 -0.1957874,0 -0.32984,-0.07761 -0.1340526,-0.07937 -0.2046066,-0.224009 -0.06879,-0.1464 -0.06879,-0.345715 0,-0.197551 0.077609,-0.342187 0.077609,-0.144635 0.2222451,-0.224009 0.1463995,-0.08114 0.35277,-0.08114 0.105831,0 0.199315,0.0194 0.095248,0.0194 0.176385,0.05468 l -0.059971,0.13758 q -0.067026,-0.02998 -0.1516911,-0.05115 -0.082901,-0.02117 -0.1728573,-0.02117 -0.2257728,0 -0.35277,0.135817 -0.1252333,0.135816 -0.1252333,0.372172 0,0.149927 0.047624,0.266341 0.049388,0.114651 0.153455,0.179913 0.1040671,0.0635 0.2733967,0.0635 0.082901,0 0.141108,-0.0088 0.058207,-0.0088 0.105831,-0.02117 V 13.648618 H 6.0100675 Z m 1.0741858,-0.296327 q 0.1728573,0 0.2557582,0.07585 0.082901,0.07584 0.082901,0.241647 v 0.643806 H 7.3100261 l -0.029985,-0.134053 h -0.00706 q -0.061735,0.07761 -0.1305249,0.11465 -0.067026,0.03704 -0.1869681,0.03704 -0.128761,0 -0.2134258,-0.06703 -0.084665,-0.06879 -0.084665,-0.213426 0,-0.141108 0.1111225,-0.216954 0.1111226,-0.07761 0.3421869,-0.08466 l 0.1605104,-0.0053 v -0.05644 q 0,-0.118178 -0.051152,-0.164038 -0.051152,-0.04586 -0.1446357,-0.04586 -0.074082,0 -0.141108,0.02293 -0.067026,0.02117 -0.1252333,0.04939 L 6.7614687,13.29232 q 0.061735,-0.03351 0.1463996,-0.05644 0.084665,-0.02469 0.176385,-0.02469 z m 0.04586,0.504461 q -0.176385,0.0071 -0.2451752,0.05644 -0.067026,0.04939 -0.067026,0.139344 0,0.07937 0.047624,0.116414 0.049388,0.03704 0.1252333,0.03704 0.1199418,0 0.1993151,-0.06526 0.079373,-0.06703 0.079373,-0.204606 v -0.08467 z m 1.6227435,-0.506225 q 0.1605104,0 0.2398836,0.0829 0.079373,0.08114 0.079373,0.264578 v 0.615584 h -0.153455 v -0.608529 q 0,-0.224009 -0.1922596,-0.224009 -0.1375803,0 -0.1975512,0.07937 -0.058207,0.07937 -0.058207,0.231064 v 0.5221 H 8.317186 v -0.608529 q 0,-0.224009 -0.1940235,-0.224009 -0.1428719,0 -0.1975512,0.08819 -0.054679,0.08819 -0.054679,0.253994 v 0.490351 H 7.7157131 v -0.945424 h 0.1252334 l 0.02293,0.128761 h 0.00882 q 0.044096,-0.07408 0.1181779,-0.109359 0.075846,-0.03704 0.1605104,-0.03704 0.2222451,0 0.2892714,0.158747 h 0.00882 q 0.047624,-0.08114 0.1287611,-0.119942 0.082901,-0.0388 0.1746211,-0.0388 z m 0.691428,-0.336895 q 0.035277,0 0.061735,0.02469 0.028222,0.02293 0.028222,0.07408 0,0.04939 -0.028222,0.07408 -0.026458,0.02469 -0.061735,0.02469 -0.038805,0 -0.065262,-0.02469 -0.026458,-0.02469 -0.026458,-0.07408 0,-0.05115 0.026458,-0.07408 0.026458,-0.02469 0.065262,-0.02469 z m 0.075846,0.354534 v 0.945424 H 9.3649117 v -0.945424 z m 0.7549265,-0.01764 q 0.16933,0 0.255759,0.0829 0.08643,0.08114 0.08643,0.264578 v 0.615584 h -0.153455 v -0.605001 q 0,-0.227537 -0.211662,-0.227537 -0.156982,0 -0.216953,0.08819 -0.059971,0.08819 -0.059971,0.253994 v 0.490351 H 9.8199841 v -0.945424 h 0.1252333 l 0.02293,0.128761 h 0.00882 q 0.04586,-0.07408 0.1269973,-0.109359 0.08114,-0.03704 0.171093,-0.03704 z m 0.970118,0 q 0.09348,0 0.167566,0.03528 0.07584,0.03528 0.128761,0.107595 h 0.0088 l 0.02117,-0.125233 h 0.12347 v 0.961298 q 0,0.202843 -0.104068,0.305146 -0.102303,0.102304 -0.319256,0.102304 -0.208135,0 -0.340423,-0.05997 v -0.142872 q 0.139344,0.07408 0.349242,0.07408 0.121705,0 0.190496,-0.07232 0.07055,-0.07055 0.07055,-0.194024 v -0.03704 q 0,-0.02117 0.0018,-0.05997 0.0018,-0.04057 0.0035,-0.05644 h -0.0071 q -0.09525,0.142872 -0.292799,0.142872 -0.183441,0 -0.287508,-0.128761 -0.102303,-0.128761 -0.102303,-0.359825 0,-0.225773 0.102303,-0.358062 0.104067,-0.134053 0.285744,-0.134053 z m 0.02117,0.130525 q -0.118178,0 -0.18344,0.09525 -0.06526,0.09348 -0.06526,0.268105 0,0.174622 0.0635,0.268106 0.06526,0.09172 0.188732,0.09172 0.142872,0 0.208134,-0.07585 0.06526,-0.07761 0.06526,-0.248703 v -0.03704 q 0,-0.194024 -0.06703,-0.276925 -0.06703,-0.08467 -0.209898,-0.08467 z"
       id="text1"
       style="text-align:center;text-anchor:middle;stroke-width:0.140003"
       aria-label="Gaming" />
  </g>
</svg>
