<?xml version="1.0" encoding="UTF-8" standalone="no"?>
<svg
   width="64"
   height="64"
   version="1.1"
   viewBox="0 0 16.933 16.933"
   id="svg7"
   sodipodi:docname="printer-network.svg"
   inkscape:version="1.4 (e7c3feb100, 2024-10-09)"
   xmlns:inkscape="http://www.inkscape.org/namespaces/inkscape"
   xmlns:sodipodi="http://sodipodi.sourceforge.net/DTD/sodipodi-0.dtd"
   xmlns:xlink="http://www.w3.org/1999/xlink"
   xmlns="http://www.w3.org/2000/svg"
   xmlns:svg="http://www.w3.org/2000/svg"
   xmlns:rdf="http://www.w3.org/1999/02/22-rdf-syntax-ns#"
   xmlns:cc="http://creativecommons.org/ns#"
   xmlns:dc="http://purl.org/dc/elements/1.1/">
  <sodipodi:namedview
     id="namedview7"
     pagecolor="#9c4444"
     bordercolor="#000000"
     borderopacity="0.25"
     inkscape:showpageshadow="2"
     inkscape:pageopacity="0.0"
     inkscape:pagecheckerboard="0"
     inkscape:deskcolor="#d1d1d1"
     inkscape:zoom="6.15625"
     inkscape:cx="15.675127"
     inkscape:cy="29.807107"
     inkscape:window-width="1183"
     inkscape:window-height="973"
     inkscape:window-x="35"
     inkscape:window-y="32"
     inkscape:window-maximized="0"
     inkscape:current-layer="svg7"
     showgrid="false" />
  <defs
     id="defs2">
    <rect
       x="67.489848"
       y="35.60533"
       width="15.337563"
       height="22.51269"
       id="rect3808" />
    <linearGradient
       inkscape:collect="always"
       id="linearGradient1134">
      <stop
         style="stop-color:#161616;stop-opacity:1;"
         offset="0"
         id="stop1130" />
      <stop
         style="stop-color:#404040;stop-opacity:1;"
         offset="1"
         id="stop1132" />
    </linearGradient>
    <linearGradient
       inkscape:collect="always"
       id="linearGradient883">
      <stop
         style="stop-color:#808080;stop-opacity:1;"
         offset="0"
         id="stop879" />
      <stop
         style="stop-color:#3e3e3e;stop-opacity:1;"
         offset="0.5"
         id="stop1216" />
      <stop
         style="stop-color:#242424;stop-opacity:1;"
         offset="1"
         id="stop881" />
    </linearGradient>
    <linearGradient
       inkscape:collect="always"
       xlink:href="#linearGradient883"
       id="linearGradient885"
       x1="2.1085808"
       y1="2.0236168"
       x2="14.846128"
       y2="15.071845"
       gradientUnits="userSpaceOnUse" />
    <linearGradient
       inkscape:collect="always"
       xlink:href="#linearGradient1134"
       id="linearGradient1136"
       x1="14.971222"
       y1="14.703373"
       x2="2.0756054"
       y2="2.0069976"
       gradientUnits="userSpaceOnUse" />
    <filter
       style="color-interpolation-filters:sRGB;"
       inkscape:label="Blur"
       id="filter1283"
       x="-0.082344266"
       y="-0.082344266"
       width="1.1646885"
       height="1.1646885">
      <feGaussianBlur
         stdDeviation="0.5 0.5"
         result="blur"
         id="feGaussianBlur1281" />
    </filter>
    <filter
       style="color-interpolation-filters:sRGB;"
       inkscape:label="Blur"
       id="filter1694"
       x="-0.94955398"
       y="-0.2118907"
       width="2.899108"
       height="1.4237814">
      <feGaussianBlur
         stdDeviation="0.2 0.2"
         result="blur"
         id="feGaussianBlur1692" />
    </filter>
    <filter
       style="color-interpolation-filters:sRGB;"
       inkscape:label="Blur"
       id="filter3148"
       x="-0.94955398"
       y="-0.2118907"
       width="2.899108"
       height="1.4237814">
      <feGaussianBlur
         stdDeviation="0.2 0.2"
         result="blur"
         id="feGaussianBlur3146" />
    </filter>
    <clipPath
       clipPathUnits="userSpaceOnUse"
       id="clipPath44">
      <path
         id="path46"
         style="display:block;opacity:0.85;fill:#f2f2f2;stroke-width:4.39162"
         d="m 17.570312,8.4453125 a 6.5431988,7.4283052 9.9958727e-8 0 0 -6.535156,7.4394535 6.5431988,7.4283052 9.9958727e-8 0 0 6.552735,7.417968 6.5431988,7.4283052 9.9958727e-8 0 0 6.535156,-7.4375 6.5431988,7.4283052 9.9958727e-8 0 0 -6.552735,-7.4199215 z M 45.646484,41.177734 a 6.5431986,7.0703472 2.4665357e-6 0 0 -6.533203,7.080078 6.5431986,7.0703472 2.4665357e-6 0 0 6.550781,7.060547 6.5431986,7.0703472 2.4665357e-6 0 0 6.535157,-7.080078 6.5431986,7.0703472 2.4665357e-6 0 0 -6.552735,-7.060547 z" />
    </clipPath>
    <inkscape:path-effect
       effect="powerclip"
       id="path-effect48"
       is_visible="true"
       lpeversion="1"
       inverse="true"
       flatten="false"
       hide_clip="false"
       message="" />
  </defs>
  <metadata
     id="metadata2">
    <rdf:RDF>
      <cc:Work
         rdf:about="">
        <dc:format>image/svg+xml</dc:format>
        <dc:type
           rdf:resource="http://purl.org/dc/dcmitype/StillImage" />
      </cc:Work>
    </rdf:RDF>
  </metadata>
  <rect
     style="fill:#000000;stroke:none;stroke-width:0.539739;stroke-dasharray:none;filter:url(#filter1283)"
     id="rect246-1"
     width="14.572964"
     height="14.572964"
     x="1.1932471"
     y="1.2138842"
     rx="2.1589575"
     ry="2.1589575" />
  <rect
     style="opacity:1;fill:#000000;stroke:url(#linearGradient885);stroke-width:0.52915625;stroke-dasharray:none"
     id="rect246"
     width="14.287219"
     height="14.287219"
     x="1.3361193"
     y="1.3567564"
     rx="2.1166251"
     ry="2.1166251" />
  <rect
     style="fill:url(#linearGradient1136);fill-opacity:1;stroke:none;stroke-width:0.478315;stroke-dasharray:none"
     id="rect246-5"
     width="12.914515"
     height="12.914515"
     x="2.0224717"
     y="2.0431087"
     rx="1.5874687"
     ry="1.5874687" />
  <path
     style="color:#444444;fill:#999999;fill-opacity:1;stroke:none;stroke-width:0.224185;stroke-dasharray:none;stroke-opacity:0.3"
     class="ColorScheme-Text"
     d="M 6.3342098,3.9338397 V 5.0182905 H 10.672015 V 3.9338397 Z m -1.084452,1.6266765 c -0.2711124,0 -0.5422254,0.2711132 -0.5422254,0.5422255 V 8.271645 c 0,0.2711114 0.271113,0.5422255 0.5422254,0.5422255 H 5.7919843 V 7.7294191 h 5.4222567 v 1.0844514 h 0.542227 c 0.271112,0 0.542225,-0.2711141 0.542225,-0.5422255 V 6.1027417 c 0,-0.2711123 -0.271113,-0.5422255 -0.542225,-0.5422255 z m 1.084452,2.7111287 V 10.982773 H 10.672015 V 8.2716449 Z"
     id="path5" />
  <g
     fill="#474747"
     id="g9"
     transform="matrix(0.46959567,0,0,0.46959567,4.7471229,3.7470598)"
     style="fill:#999999;fill-opacity:1;stroke:none;stroke-width:0.58349;stroke-dasharray:none;stroke-opacity:0.3" />
  <g
     aria-label="Krita"
     id="text1450"
     style="font-size:1.76385px;opacity:1;fill:#afafe9;stroke-width:0.529156;fill-opacity:1">
    <rect
       style="font-size:1.76385px;fill:#afafe9;fill-opacity:1;stroke:none;stroke-width:0.519976;stroke-dasharray:none;filter:url(#filter3148)"
       id="rect1656-3"
       width="0.5055005"
       height="2.2653189"
       x="15.369148"
       y="4.3016486"
       rx="0"
       ry="0" />
    <rect
       style="opacity:1;fill:#afafe9;fill-opacity:1;stroke:none;stroke-width:0.519976;stroke-dasharray:none"
       id="rect1656"
       width="0.5055005"
       height="2.2653189"
       x="15.369148"
       y="4.3016486"
       rx="0"
       ry="0" />
  </g>
  <g
     aria-label="Printer"
     id="text2284"
     style="font-size:1.76385px;text-align:center;text-anchor:middle;opacity:1;fill:#999999;stroke-width:0.529156">
    <path
       d="m 6.1190744,12.919628 q 0.246939,0 0.3598254,0.09701 0.1128864,0.09701 0.1128864,0.273397 0,0.104067 -0.047624,0.195787 -0.04586,0.08996 -0.1569826,0.1464 -0.1093587,0.05644 -0.2980907,0.05644 H 5.9444532 v 0.49035 H 5.7857067 v -1.259389 z m -0.014111,0.135817 H 5.9444532 v 0.497405 h 0.1269972 q 0.1799127,0 0.2681052,-0.05821 0.088192,-0.05821 0.088192,-0.197551 0,-0.121706 -0.077609,-0.181676 -0.077609,-0.05997 -0.2451751,-0.05997 z"
       id="path3629" />
    <path
       d="m 7.2726315,13.215955 q 0.026458,0 0.056443,0.0035 0.031749,0.0018 0.054679,0.0071 l -0.019402,0.142872 q -0.02293,-0.0053 -0.051152,-0.0088 -0.026458,-0.0035 -0.051152,-0.0035 -0.072318,0 -0.1358165,0.04057 -0.063499,0.0388 -0.1023033,0.111122 -0.037041,0.07055 -0.037041,0.165802 v 0.504461 H 6.831669 v -0.945424 h 0.1269972 l 0.017639,0.172858 h 0.00706 q 0.04586,-0.07761 0.1181779,-0.134053 0.072318,-0.05644 0.1710935,-0.05644 z"
       id="path3631" />
    <path
       d="m 7.6395124,12.87906 q 0.035277,0 0.061735,0.02469 0.028222,0.02293 0.028222,0.07408 0,0.04939 -0.028222,0.07408 -0.026458,0.02469 -0.061735,0.02469 -0.038805,0 -0.065262,-0.02469 -0.026458,-0.02469 -0.026458,-0.07408 0,-0.05115 0.026458,-0.07408 0.026458,-0.02469 0.065262,-0.02469 z m 0.075846,0.354533 v 0.945424 H 7.5601392 v -0.945424 z"
       id="path3633" />
    <path
       d="m 8.4702847,13.215955 q 0.1693296,0 0.2557583,0.0829 0.086429,0.08114 0.086429,0.264577 v 0.615584 H 8.6590167 v -0.605 q 0,-0.227537 -0.211662,-0.227537 -0.1569827,0 -0.2169536,0.08819 -0.059971,0.08819 -0.059971,0.253995 v 0.49035 H 8.0152114 v -0.945424 h 0.1252334 l 0.02293,0.128762 h 0.00882 q 0.04586,-0.07408 0.1269972,-0.109359 0.081137,-0.03704 0.1710934,-0.03704 z"
       id="path3635" />
    <path
       d="m 9.4209999,14.069658 q 0.035277,0 0.072318,-0.0053 0.037041,-0.0071 0.059971,-0.01411 v 0.118178 q -0.024694,0.01235 -0.070554,0.0194 -0.04586,0.0088 -0.088192,0.0088 -0.074082,0 -0.1375803,-0.02469 -0.061735,-0.02646 -0.1005394,-0.08996 -0.038805,-0.0635 -0.038805,-0.178149 V 13.353535 H 8.9835651 v -0.07408 l 0.1358164,-0.06173 0.061735,-0.201079 h 0.09172 v 0.216953 h 0.2733967 v 0.119942 H 9.2728365 v 0.546794 q 0,0.08643 0.040568,0.128761 0.042332,0.04057 0.1075949,0.04057 z"
       id="path3637" />
    <path
       d="m 10.107138,13.215955 q 0.121705,0 0.208134,0.05292 0.08819,0.05292 0.134053,0.149928 0.04762,0.09525 0.04762,0.224009 v 0.09348 H 9.8496156 q 0.00353,0.16051 0.081137,0.245175 0.079373,0.0829 0.2204813,0.0829 0.08996,0 0.158746,-0.01588 0.07055,-0.01764 0.144636,-0.04939 v 0.135817 q -0.07232,0.03175 -0.142872,0.04586 -0.07055,0.01588 -0.167565,0.01588 -0.134053,0 -0.2381202,-0.05468 -0.1023033,-0.05468 -0.1605104,-0.162274 -0.056443,-0.109359 -0.056443,-0.266341 0,-0.155219 0.051152,-0.266342 0.052915,-0.111122 0.1463995,-0.171093 0.095248,-0.05997 0.2204816,-0.05997 z m -0.0018,0.126997 q -0.1111227,0 -0.1763852,0.07232 -0.063499,0.07055 -0.075846,0.197551 h 0.4815307 q -0.0018,-0.119942 -0.05644,-0.194023 -0.05468,-0.07585 -0.172857,-0.07585 z"
       id="path3639" />
    <path
       d="m 11.177793,13.215955 q 0.02646,0 0.05644,0.0035 0.03175,0.0018 0.05468,0.0071 l -0.0194,0.142872 q -0.02293,-0.0053 -0.05115,-0.0088 -0.02646,-0.0035 -0.05115,-0.0035 -0.07232,0 -0.135816,0.04057 -0.0635,0.0388 -0.102304,0.111122 -0.03704,0.07055 -0.03704,0.165802 v 0.504461 h -0.155218 v -0.945424 h 0.126997 l 0.01764,0.172858 h 0.0071 q 0.04586,-0.07761 0.118178,-0.134053 0.07232,-0.05644 0.171093,-0.05644 z"
       id="path3641" />
  </g>
  <text
     xml:space="preserve"
     transform="scale(0.26457812)"
     id="text3806"
     style="font-size:6.66667px;white-space:pre;shape-inside:url(#rect3808);display:inline;fill:#999999;stroke-width:2" />
</svg>
