<?xml version="1.0" encoding="UTF-8" standalone="no"?>
<svg
   width="64"
   height="64"
   version="1.1"
   viewBox="0 0 16.933 16.933"
   id="svg7"
   sodipodi:docname="System Template.svg"
   inkscape:version="1.4 (e7c3feb100, 2024-10-09)"
   xmlns:inkscape="http://www.inkscape.org/namespaces/inkscape"
   xmlns:sodipodi="http://sodipodi.sourceforge.net/DTD/sodipodi-0.dtd"
   xmlns:xlink="http://www.w3.org/1999/xlink"
   xmlns="http://www.w3.org/2000/svg"
   xmlns:svg="http://www.w3.org/2000/svg"
   xmlns:rdf="http://www.w3.org/1999/02/22-rdf-syntax-ns#"
   xmlns:cc="http://creativecommons.org/ns#"
   xmlns:dc="http://purl.org/dc/elements/1.1/">
  <sodipodi:namedview
     id="namedview7"
     pagecolor="#9c4444"
     bordercolor="#000000"
     borderopacity="0.25"
     inkscape:showpageshadow="2"
     inkscape:pageopacity="0.0"
     inkscape:pagecheckerboard="0"
     inkscape:deskcolor="#d1d1d1"
     inkscape:zoom="6.15625"
     inkscape:cx="35.005076"
     inkscape:cy="40.365482"
     inkscape:window-width="1183"
     inkscape:window-height="973"
     inkscape:window-x="35"
     inkscape:window-y="32"
     inkscape:window-maximized="0"
     inkscape:current-layer="svg7"
     showgrid="false" />
  <defs
     id="defs2">
    <linearGradient
       inkscape:collect="always"
       id="linearGradient1134">
      <stop
         style="stop-color:#161616;stop-opacity:1;"
         offset="0"
         id="stop1130" />
      <stop
         style="stop-color:#404040;stop-opacity:1;"
         offset="1"
         id="stop1132" />
    </linearGradient>
    <linearGradient
       inkscape:collect="always"
       id="linearGradient883">
      <stop
         style="stop-color:#808080;stop-opacity:1;"
         offset="0"
         id="stop879" />
      <stop
         style="stop-color:#3e3e3e;stop-opacity:1;"
         offset="0.5"
         id="stop1216" />
      <stop
         style="stop-color:#242424;stop-opacity:1;"
         offset="1"
         id="stop881" />
    </linearGradient>
    <linearGradient
       inkscape:collect="always"
       xlink:href="#linearGradient883"
       id="linearGradient885"
       x1="2.1085808"
       y1="2.0236168"
       x2="14.846128"
       y2="15.071845"
       gradientUnits="userSpaceOnUse" />
    <linearGradient
       inkscape:collect="always"
       xlink:href="#linearGradient1134"
       id="linearGradient1136"
       x1="14.971222"
       y1="14.703373"
       x2="2.0756054"
       y2="2.0069976"
       gradientUnits="userSpaceOnUse" />
    <filter
       style="color-interpolation-filters:sRGB;"
       inkscape:label="Blur"
       id="filter1283"
       x="-0.082344266"
       y="-0.082344266"
       width="1.1646885"
       height="1.1646885">
      <feGaussianBlur
         stdDeviation="0.5 0.5"
         result="blur"
         id="feGaussianBlur1281" />
    </filter>
    <filter
       style="color-interpolation-filters:sRGB;"
       inkscape:label="Blur"
       id="filter1694"
       x="-0.94955398"
       y="-0.2118907"
       width="2.899108"
       height="1.4237814">
      <feGaussianBlur
         stdDeviation="0.2 0.2"
         result="blur"
         id="feGaussianBlur1692" />
    </filter>
    <filter
       style="color-interpolation-filters:sRGB;"
       inkscape:label="Blur"
       id="filter3335"
       x="-0.94955398"
       y="-0.2118907"
       width="2.899108"
       height="1.4237814">
      <feGaussianBlur
         stdDeviation="0.2 0.2"
         result="blur"
         id="feGaussianBlur3333" />
    </filter>
  </defs>
  <metadata
     id="metadata2">
    <rdf:RDF>
      <cc:Work
         rdf:about="">
        <dc:format>image/svg+xml</dc:format>
        <dc:type
           rdf:resource="http://purl.org/dc/dcmitype/StillImage" />
      </cc:Work>
    </rdf:RDF>
  </metadata>
  <rect
     style="fill:#000000;stroke:none;stroke-width:0.539739;stroke-dasharray:none;filter:url(#filter1283)"
     id="rect246-1"
     width="14.572964"
     height="14.572964"
     x="1.1932471"
     y="1.2138842"
     rx="2.1589575"
     ry="2.1589575" />
  <rect
     style="opacity:1;fill:#000000;stroke:url(#linearGradient885);stroke-width:0.52915625;stroke-dasharray:none"
     id="rect246"
     width="14.287219"
     height="14.287219"
     x="1.3361193"
     y="1.3567564"
     rx="2.1166251"
     ry="2.1166251" />
  <g
     aria-label="Krita"
     id="text1450"
     style="font-size:1.76385px;opacity:1;fill:#999999;stroke-width:0.529156">
    <rect
       style="font-size:1.76385px;fill:#ff0000;fill-opacity:1;stroke:none;stroke-width:0.519976;stroke-dasharray:none;filter:url(#filter3335)"
       id="rect1656-0"
       width="0.5055005"
       height="2.2653189"
       x="15.369148"
       y="4.3016486"
       rx="0"
       ry="0" />
    <rect
       style="opacity:1;fill:#ff0000;fill-opacity:1;stroke:none;stroke-width:0.519976;stroke-dasharray:none"
       id="rect1656"
       width="0.5055005"
       height="2.2653189"
       x="15.369148"
       y="4.3016486"
       rx="0"
       ry="0" />
  </g>
  <rect
     style="fill:url(#linearGradient1136);fill-opacity:1;stroke:none;stroke-width:0.478315;stroke-dasharray:none"
     id="rect246-5"
     width="12.914515"
     height="12.914515"
     x="2.0224717"
     y="2.0431087"
     rx="1.5874687"
     ry="1.5874687" />
  <g
     id="g2187"
     style="fill:#999999;fill-opacity:1"
     transform="matrix(0.29839098,0,0,0.29839098,1.4913606,0.27462898)">
    <path
       d="m 17,12.20022 h 12 v 5 H 17 Z"
       fill="#e62525"
       id="path8"
       style="fill:#999999;fill-opacity:1" />
    <path
       d="m 17,17.071859 h 4 v 5 h -4 z"
       fill="#cd2121"
       id="path9"
       style="fill:#999999;fill-opacity:1" />
    <path
       d="m 27,17.071859 h 4 v 5 h -4 z"
       fill="#cd2121"
       id="path10"
       style="fill:#999999;fill-opacity:1" />
    <path
       d="m 17,22 h 12 v 5 H 17 Z"
       fill="#b31d1d"
       id="path11"
       style="fill:#999999;fill-opacity:1" />
    <path
       d="m 17,26.943318 h 4 v 5 h -4 z"
       fill="#9a1919"
       id="path12"
       style="fill:#999999;fill-opacity:1" />
    <path
       d="m 27,26.943318 h 4 v 5 h -4 z"
       fill="#9a1919"
       id="path13"
       style="fill:#999999;fill-opacity:1" />
    <path
       d="m 17,31.886981 h 12 v 5 H 17 Z"
       fill="#801414"
       id="path14"
       style="fill:#999999;fill-opacity:1" />
  </g>
  <path
     d="m 5.4749139,12.923073 q 0.2363558,0 0.3562976,0.07055 0.1217057,0.06879 0.1217057,0.241647 0,0.111123 -0.061735,0.185205 -0.061735,0.07232 -0.1781488,0.09348 v 0.0088 q 0.079373,0.01235 0.1428718,0.04586 0.065263,0.03351 0.1023033,0.09525 0.037041,0.06174 0.037041,0.16051 0,0.171094 -0.118178,0.264578 -0.1164141,0.09348 -0.3192568,0.09348 H 5.1150885 v -1.259389 z m 0.031749,0.53621 q 0.1622742,0 0.222245,-0.05115 0.059971,-0.05292 0.059971,-0.155219 0,-0.104067 -0.074082,-0.148164 -0.072318,-0.04586 -0.2328281,-0.04586 H 5.273835 v 0.400394 z M 5.273835,13.591572 v 0.456837 h 0.2539944 q 0.1675657,0 0.2328281,-0.06526 0.065263,-0.06526 0.065263,-0.171094 0,-0.09877 -0.06879,-0.158746 -0.067026,-0.06174 -0.2416474,-0.06174 z m 1.3246506,-0.370408 q 0.1728573,0 0.2557582,0.07584 0.082901,0.07585 0.082901,0.241647 v 0.643806 H 6.8242584 l -0.029985,-0.134053 h -0.00706 q -0.061735,0.07761 -0.1305249,0.11465 -0.067026,0.03704 -0.1869681,0.03704 -0.128761,0 -0.2134258,-0.06703 -0.084665,-0.06879 -0.084665,-0.213426 0,-0.141108 0.1111225,-0.216953 0.1111226,-0.07761 0.3421869,-0.08467 l 0.1605104,-0.0053 v -0.05644 q 0,-0.118178 -0.051152,-0.164038 -0.051152,-0.04586 -0.1446357,-0.04586 -0.074082,0 -0.141108,0.02293 -0.067026,0.02117 -0.1252333,0.04939 L 6.275701,13.302301 q 0.061735,-0.03351 0.1463996,-0.05644 0.084665,-0.02469 0.176385,-0.02469 z m 0.04586,0.504461 q -0.176385,0.0071 -0.2451752,0.05644 -0.067026,0.04939 -0.067026,0.139344 0,0.07937 0.047624,0.116414 0.049388,0.03704 0.1252333,0.03704 0.1199418,0 0.1993151,-0.06526 0.079373,-0.06703 0.079373,-0.204606 v -0.08466 z m 1.2011832,0.195787 q 0,0.13758 -0.1023033,0.208134 -0.1023033,0.07055 -0.2751605,0.07055 -0.098776,0 -0.1710935,-0.01587 -0.070554,-0.01588 -0.1252333,-0.0441 v -0.141108 q 0.056443,0.02822 0.1358164,0.05292 0.081137,0.02293 0.1640381,0.02293 0.1181779,0 0.1710934,-0.03704 0.052916,-0.0388 0.052916,-0.102303 0,-0.03528 -0.019402,-0.0635 -0.019402,-0.02822 -0.070554,-0.05644 -0.049388,-0.02822 -0.1428718,-0.0635 -0.09172,-0.03528 -0.1569826,-0.07055 -0.065263,-0.03528 -0.1005395,-0.08466 -0.035277,-0.04939 -0.035277,-0.126998 0,-0.119941 0.097012,-0.185204 0.098776,-0.06526 0.257522,-0.06526 0.086429,0 0.1605104,0.01764 0.075845,0.01587 0.141108,0.04586 l -0.052916,0.12347 q -0.059971,-0.02469 -0.1252334,-0.04233 -0.065262,-0.01764 -0.1340526,-0.01764 -0.095248,0 -0.1463995,0.03175 -0.049388,0.02999 -0.049388,0.0829 0,0.0388 0.02293,0.06703 0.02293,0.02646 0.075846,0.05292 0.054679,0.02469 0.1446357,0.05997 0.089956,0.03351 0.1534549,0.06879 0.063499,0.03528 0.097012,0.08643 0.033513,0.04939 0.033513,0.125233 z m 0.3845196,-0.686138 q 0,0.07055 -0.00882,0.132289 h 0.010583 q 0.04586,-0.07232 0.1234695,-0.109359 0.079373,-0.03704 0.1710935,-0.03704 0.1728573,0 0.2592859,0.0829 0.086429,0.08114 0.086429,0.262814 v 0.615584 h -0.153455 v -0.605001 q 0,-0.227536 -0.211662,-0.227536 -0.1587465,0 -0.2187174,0.08996 -0.058207,0.08819 -0.058207,0.253994 v 0.488587 H 8.0748297 v -1.340526 h 0.1552188 z m 1.2505696,0.837829 q 0.035277,0 0.072318,-0.0053 0.037041,-0.0071 0.059971,-0.01411 v 0.118178 q -0.024694,0.01235 -0.070554,0.0194 -0.04586,0.0088 -0.088192,0.0088 -0.074082,0 -0.1375803,-0.02469 -0.061735,-0.02646 -0.1005395,-0.08996 -0.038805,-0.0635 -0.038805,-0.178149 V 13.35698 H 9.0431833 v -0.07408 l 0.1358165,-0.06173 0.061735,-0.201079 h 0.09172 v 0.216953 H 9.6058515 V 13.35698 H 9.3324547 v 0.546793 q 0,0.08643 0.040569,0.128761 0.042332,0.04057 0.1075948,0.04057 z m 1.1429749,-0.365117 q 0,0.234592 -0.119942,0.363353 -0.118178,0.128761 -0.321021,0.128761 -0.125233,0 -0.2240086,-0.05644 -0.097012,-0.05821 -0.153455,-0.167566 -0.056443,-0.111122 -0.056443,-0.268105 0,-0.234592 0.118178,-0.361589 0.1181779,-0.126997 0.3210208,-0.126997 0.128761,0 0.225773,0.05821 0.09877,0.05644 0.153455,0.165802 0.05644,0.107594 0.05644,0.264577 z m -0.7143594,0 q 0,0.167566 0.065262,0.266341 0.067026,0.09701 0.211662,0.09701 0.142872,0 0.209898,-0.09701 0.06703,-0.09877 0.06703,-0.266341 0,-0.167566 -0.06703,-0.262814 -0.06703,-0.09525 -0.211662,-0.09525 -0.144636,0 -0.209898,0.09525 -0.065262,0.09525 -0.065262,0.262814 z M 11.318549,13.2194 q 0.174621,0 0.280452,0.121705 0.107595,0.121706 0.107595,0.366881 0,0.241648 -0.107595,0.366881 -0.105831,0.125233 -0.282216,0.125233 -0.109358,0 -0.181676,-0.04057 -0.07055,-0.04233 -0.111123,-0.09701 h -0.01058 q 0.0035,0.02998 0.0071,0.07585 0.0035,0.04586 0.0035,0.07937 v 0.388047 h -0.155219 v -1.368748 h 0.126998 l 0.02117,0.128761 h 0.0071 q 0.04233,-0.06174 0.111123,-0.104067 0.06879,-0.04233 0.18344,-0.04233 z m -0.02822,0.130525 q -0.144636,0 -0.204607,0.08114 -0.05821,0.08114 -0.06173,0.246939 v 0.02998 q 0,0.174621 0.05644,0.269869 0.05821,0.09348 0.213426,0.09348 0.08643,0 0.141108,-0.04762 0.05644,-0.04762 0.0829,-0.128761 0.02822,-0.0829 0.02822,-0.188732 0,-0.162274 -0.0635,-0.259286 -0.06174,-0.09701 -0.192259,-0.09701 z"
     id="text7"
     style="font-size:1.76385px;text-align:center;text-anchor:middle;fill:#999999;stroke-width:0.264578"
     aria-label="Bashtop" />
</svg>
