<?xml version="1.0" encoding="UTF-8" standalone="no"?>
<svg
   width="64"
   height="64"
   version="1.1"
   viewBox="0 0 16.933 16.933"
   id="svg7"
   sodipodi:docname="brave.svg"
   inkscape:version="1.4 (e7c3feb100, 2024-10-09)"
   xmlns:inkscape="http://www.inkscape.org/namespaces/inkscape"
   xmlns:sodipodi="http://sodipodi.sourceforge.net/DTD/sodipodi-0.dtd"
   xmlns:xlink="http://www.w3.org/1999/xlink"
   xmlns="http://www.w3.org/2000/svg"
   xmlns:svg="http://www.w3.org/2000/svg"
   xmlns:rdf="http://www.w3.org/1999/02/22-rdf-syntax-ns#"
   xmlns:cc="http://creativecommons.org/ns#"
   xmlns:dc="http://purl.org/dc/elements/1.1/">
  <sodipodi:namedview
     id="namedview7"
     pagecolor="#9c4444"
     bordercolor="#000000"
     borderopacity="0.25"
     inkscape:showpageshadow="2"
     inkscape:pageopacity="0.0"
     inkscape:pagecheckerboard="0"
     inkscape:deskcolor="#d1d1d1"
     inkscape:zoom="6.15625"
     inkscape:cx="15.675127"
     inkscape:cy="29.807107"
     inkscape:window-width="1183"
     inkscape:window-height="973"
     inkscape:window-x="35"
     inkscape:window-y="32"
     inkscape:window-maximized="0"
     inkscape:current-layer="svg7"
     showgrid="false" />
  <defs
     id="defs2">
    <rect
       x="67.489848"
       y="35.60533"
       width="15.337563"
       height="22.51269"
       id="rect3808" />
    <linearGradient
       inkscape:collect="always"
       id="linearGradient1134">
      <stop
         style="stop-color:#161616;stop-opacity:1;"
         offset="0"
         id="stop1130" />
      <stop
         style="stop-color:#404040;stop-opacity:1;"
         offset="1"
         id="stop1132" />
    </linearGradient>
    <linearGradient
       inkscape:collect="always"
       id="linearGradient883">
      <stop
         style="stop-color:#808080;stop-opacity:1;"
         offset="0"
         id="stop879" />
      <stop
         style="stop-color:#3e3e3e;stop-opacity:1;"
         offset="0.5"
         id="stop1216" />
      <stop
         style="stop-color:#242424;stop-opacity:1;"
         offset="1"
         id="stop881" />
    </linearGradient>
    <linearGradient
       inkscape:collect="always"
       xlink:href="#linearGradient883"
       id="linearGradient885"
       x1="2.1085808"
       y1="2.0236168"
       x2="14.846128"
       y2="15.071845"
       gradientUnits="userSpaceOnUse" />
    <linearGradient
       inkscape:collect="always"
       xlink:href="#linearGradient1134"
       id="linearGradient1136"
       x1="14.971222"
       y1="14.703373"
       x2="2.0756054"
       y2="2.0069976"
       gradientUnits="userSpaceOnUse" />
    <filter
       style="color-interpolation-filters:sRGB;"
       inkscape:label="Blur"
       id="filter1283"
       x="-0.082344266"
       y="-0.082344266"
       width="1.1646885"
       height="1.1646885">
      <feGaussianBlur
         stdDeviation="0.5 0.5"
         result="blur"
         id="feGaussianBlur1281" />
    </filter>
    <filter
       style="color-interpolation-filters:sRGB;"
       inkscape:label="Blur"
       id="filter1694"
       x="-0.94955398"
       y="-0.2118907"
       width="2.899108"
       height="1.4237814">
      <feGaussianBlur
         stdDeviation="0.2 0.2"
         result="blur"
         id="feGaussianBlur1692" />
    </filter>
    <filter
       style="color-interpolation-filters:sRGB;"
       inkscape:label="Blur"
       id="filter3148"
       x="-0.94955398"
       y="-0.2118907"
       width="2.899108"
       height="1.4237814">
      <feGaussianBlur
         stdDeviation="0.2 0.2"
         result="blur"
         id="feGaussianBlur3146" />
    </filter>
    <clipPath
       clipPathUnits="userSpaceOnUse"
       id="clipPath44">
      <path
         id="path46"
         style="display:block;opacity:0.85;fill:#f2f2f2;stroke-width:4.39162"
         d="m 17.570312,8.4453125 a 6.5431988,7.4283052 9.9958727e-8 0 0 -6.535156,7.4394535 6.5431988,7.4283052 9.9958727e-8 0 0 6.552735,7.417968 6.5431988,7.4283052 9.9958727e-8 0 0 6.535156,-7.4375 6.5431988,7.4283052 9.9958727e-8 0 0 -6.552735,-7.4199215 z M 45.646484,41.177734 a 6.5431986,7.0703472 2.4665357e-6 0 0 -6.533203,7.080078 6.5431986,7.0703472 2.4665357e-6 0 0 6.550781,7.060547 6.5431986,7.0703472 2.4665357e-6 0 0 6.535157,-7.080078 6.5431986,7.0703472 2.4665357e-6 0 0 -6.552735,-7.060547 z" />
    </clipPath>
    <inkscape:path-effect
       effect="powerclip"
       id="path-effect48"
       is_visible="true"
       lpeversion="1"
       inverse="true"
       flatten="false"
       hide_clip="false"
       message="" />
  </defs>
  <metadata
     id="metadata2">
    <rdf:RDF>
      <cc:Work
         rdf:about="">
        <dc:format>image/svg+xml</dc:format>
        <dc:type
           rdf:resource="http://purl.org/dc/dcmitype/StillImage" />
      </cc:Work>
    </rdf:RDF>
  </metadata>
  <rect
     style="fill:#000000;stroke:none;stroke-width:0.539739;stroke-dasharray:none;filter:url(#filter1283)"
     id="rect246-1"
     width="14.572964"
     height="14.572964"
     x="1.1932471"
     y="1.2138842"
     rx="2.1589575"
     ry="2.1589575" />
  <rect
     style="opacity:1;fill:#000000;stroke:url(#linearGradient885);stroke-width:0.52915625;stroke-dasharray:none"
     id="rect246"
     width="14.287219"
     height="14.287219"
     x="1.3361193"
     y="1.3567564"
     rx="2.1166251"
     ry="2.1166251" />
  <rect
     style="fill:url(#linearGradient1136);fill-opacity:1;stroke:none;stroke-width:0.478315;stroke-dasharray:none"
     id="rect246-5"
     width="12.914515"
     height="12.914515"
     x="2.0224717"
     y="2.0431087"
     rx="1.5874687"
     ry="1.5874687" />
  <path
     style="fill:#999999;fill-opacity:1;stroke:none;stroke-width:0.221945;stroke-dasharray:none;stroke-dashoffset:2.2;stroke-opacity:0.3"
     d="M 8.4594268,11.353473 C 8.3660701,11.331128 8.3403159,11.31467 7.4016128,10.677579 6.5738711,10.115797 6.3197039,9.8972052 6.1994079,9.6436409 6.1363883,9.5108055 5.7948226,8.2479594 5.4204342,6.7636005 L 5.2501986,6.0886591 5.3571925,5.7814454 C 5.416039,5.6124785 5.4641865,5.4542152 5.4641865,5.4297501 5.4641865,5.4052854 5.4183,5.2940047 5.3622164,5.1824607 5.3061338,5.0709161 5.2602469,4.9644482 5.2602469,4.9458653 c 0,-0.047654 0.580424,-0.6135676 0.6882961,-0.6710891 0.1241371,-0.066196 0.5097322,-0.067994 0.6362646,-0.00296 L 6.6729845,4.317122 7.005775,3.9850169 7.3385644,3.6529117 h 1.2102082 1.2102089 l 0.3329415,0.3322574 0.332943,0.3322573 0.124052,-0.054876 c 0.1022,-0.045207 0.158127,-0.052853 0.317458,-0.043397 0.117081,0.00696 0.228614,0.029786 0.282629,0.057873 0.106558,0.055413 0.454635,0.3723413 0.602985,0.5490274 l 0.105884,0.1261104 -0.112257,0.2181594 c -0.06174,0.1199877 -0.112257,0.23987 -0.112257,0.2664048 0,0.026534 0.04577,0.1723284 0.101686,0.323986 0.05593,0.1516585 0.101814,0.2979493 0.10197,0.3250916 4.21e-4,0.072525 -0.502047,2.0447856 -0.805746,3.1626993 -0.142193,0.5234065 -0.25336,0.6731548 -0.776574,1.0460537 -0.6017602,0.428882 -1.5539478,1.057073 -1.602272,1.057073 -0.026673,0 -0.063775,0.0045 -0.082447,0.01009 -0.018673,0.0055 -0.068421,0.0019 -0.1105501,-0.0082 z M 8.7170569,9.64431 C 8.7717195,9.6026185 8.9692636,9.46292 9.1560435,9.3338716 9.3428238,9.2048248 9.5435772,9.0562779 9.6021623,9.003768 9.7341202,8.8854926 9.7298288,8.8797943 9.3756674,8.7030928 8.6280772,8.3300977 8.5579952,8.3188762 8.1408933,8.5053922 7.6764691,8.7130688 7.414359,8.8619451 7.414359,8.9180579 c 0,0.035907 0.1192687,0.1327549 0.4226737,0.3431947 0.2324708,0.1612403 0.4722274,0.3304455 0.5327931,0.3760136 0.1366227,0.1027907 0.2194962,0.104473 0.3472313,0.00697 z M 7.4097663,8.6788017 C 7.4683751,8.6388713 7.6195728,8.5529543 7.7457605,8.487875 7.9858224,8.3640663 8.3730191,8.0536775 8.4336409,7.9364491 8.4828142,7.8413581 8.4547008,7.8045412 8.0852593,7.4802218 7.9074419,7.3241216 7.754863,7.1740581 7.7461955,7.1467479 7.7366405,7.1166519 7.7761314,6.9802225 7.8464409,6.8004073 8.0048461,6.3952855 8.0012128,6.2498798 7.8304776,6.1615899 7.7867687,6.1389889 7.544177,6.0407834 7.2913848,5.9433599 7.0385928,5.8459357 6.8194511,5.7582492 6.8044042,5.7485017 6.7656934,5.7234277 6.9906041,5.6971702 7.2666205,5.694544 c 0.2119557,-0.00202 0.2624997,0.00765 0.522595,0.099856 0.2892722,0.1025596 0.3810358,0.1654444 0.3623858,0.2483391 -0.00553,0.024592 -0.056091,0.2474166 -0.1123534,0.4951758 -0.056262,0.2477595 -0.1022962,0.4673425 -0.1022962,0.487962 0,0.050704 0.1526913,0.1082563 0.4202121,0.1583852 0.2068624,0.038763 0.2354089,0.038652 0.4171457,-0.0016 0.2533307,-0.056113 0.3862802,-0.1100753 0.3862802,-0.156783 0,-0.020622 -0.046033,-0.2402022 -0.1022963,-0.4879614 C 9.0020305,6.290153 8.9514716,6.0673235 8.9459398,6.0427368 8.9270188,5.9586405 9.0194042,5.8951571 9.3085499,5.7935609 9.5496698,5.70884 9.6291805,5.6923082 9.79554,5.6923082 c 0.235653,0 0.512211,0.026257 0.512211,0.048633 0,0.00873 -0.06022,0.037047 -0.133837,0.06292 C 9.75617,5.9506979 9.2449635,6.1664509 9.1939693,6.217445 9.1003304,6.3110846 9.114763,6.4582235 9.2506333,6.7951475 9.3207667,6.9690617 9.3607824,7.10365 9.3524601,7.1376382 9.3449181,7.1684326 9.2040239,7.3105986 9.0393575,7.4535606 8.6806247,7.7650097 8.6507407,7.7971371 8.6507407,7.8713549 c 0,0.079712 0.3542055,0.4134098 0.619177,0.5833285 0.3159719,0.2026231 0.490148,0.2967178 0.5492424,0.2967178 0.065561,0 0.3485799,-0.2477118 0.4440619,-0.3886643 0.143901,-0.2124291 0.14481,-0.294881 0.0074,-0.6756618 -0.04852,-0.1345022 -0.05992,-0.1974366 -0.04191,-0.231101 0.01361,-0.025444 0.188958,-0.1943221 0.389648,-0.3752851 0.200689,-0.1809627 0.444011,-0.406486 0.540713,-0.5011639 l 0.175851,-0.1721404 -0.01508,-0.1798253 c -0.0088,-0.106096 -0.03758,-0.2249948 -0.07004,-0.2899788 -0.102444,-0.2051239 -0.830693,-1.1696632 -0.90451,-1.1979895 -0.01498,-0.00577 -0.20452,0.034177 -0.4211558,0.088737 -0.216635,0.054561 -0.4220406,0.099202 -0.4564571,0.099202 -0.034417,0 -0.1835498,-0.033976 -0.3314078,-0.075505 C 8.6116193,4.7046722 8.4916136,4.7047171 7.9624456,4.852484 7.8152269,4.8935876 7.660883,4.9272929 7.6194594,4.9273849 7.5780358,4.9274766 7.4231692,4.8933065 7.2753113,4.8514505 7.1274523,4.8095789 6.9511418,4.7650155 6.8835087,4.7524047 L 6.7605392,4.7294736 6.6285839,4.8967386 c -0.2466567,0.312659 -0.6280878,0.858714 -0.7159853,1.025 -0.1205657,0.2280892 -0.158155,0.3850289 -0.116377,0.4858909 0.018918,0.04566 0.2457594,0.2727161 0.5489937,0.5495028 0.2842193,0.2594301 0.5235012,0.4892507 0.5317362,0.5107129 0.00824,0.021464 -0.014543,0.1211566 -0.050619,0.2215437 -0.1156302,0.3217544 -0.1201608,0.3463757 -0.086119,0.4679623 0.017265,0.061673 0.065494,0.1592044 0.1071695,0.2167359 0.1073183,0.1481492 0.3543902,0.3752802 0.4094262,0.3763834 0.025517,4.965e-4 0.094345,-0.031736 0.1529548,-0.071669 z"
     id="path14" />
  <g
     aria-label="Krita"
     id="text1450"
     style="font-size:1.76385px;opacity:1;fill:#ffff00;stroke-width:0.529156">
    <rect
       style="font-size:1.76385px;fill:#ffff00;fill-opacity:1;stroke:none;stroke-width:0.519976;stroke-dasharray:none;filter:url(#filter3148)"
       id="rect1656-3"
       width="0.5055005"
       height="2.2653189"
       x="15.369148"
       y="4.3016486"
       rx="0"
       ry="0" />
    <rect
       style="opacity:1;fill:#ffff00;fill-opacity:1;stroke:none;stroke-width:0.519976;stroke-dasharray:none"
       id="rect1656"
       width="0.5055005"
       height="2.2653189"
       x="15.369148"
       y="4.3016486"
       rx="0"
       ry="0" />
  </g>
  <g
     aria-label="Brave"
     id="text2284"
     style="font-size:1.76385px;text-align:center;text-anchor:middle;opacity:1;fill:#999999;stroke-width:0.529156">
    <path
       d="m 6.5899351,12.919628 q 0.2363559,0 0.3562977,0.07055 0.1217057,0.06879 0.1217057,0.241648 0,0.111122 -0.061735,0.185204 -0.061735,0.07232 -0.1781488,0.09348 v 0.0088 q 0.079373,0.01235 0.1428718,0.04586 0.065263,0.03351 0.1023033,0.09525 0.037041,0.06174 0.037041,0.160511 0,0.171093 -0.118178,0.264577 -0.1164141,0.09348 -0.3192568,0.09348 H 6.2301097 v -1.259389 z m 0.031749,0.536211 q 0.1622742,0 0.2222451,-0.05115 0.059971,-0.05292 0.059971,-0.155219 0,-0.104067 -0.074082,-0.148163 -0.072318,-0.04586 -0.2328282,-0.04586 H 6.3888562 v 0.400394 z m -0.2328282,0.132288 v 0.456837 h 0.2539944 q 0.1675658,0 0.2328282,-0.06526 0.065263,-0.06526 0.065263,-0.171093 0,-0.09878 -0.06879,-0.158747 -0.067026,-0.06174 -0.2416474,-0.06174 z"
       id="path658" />
    <path
       d="m 7.7964078,13.215955 q 0.026458,0 0.056443,0.0035 0.031749,0.0018 0.054679,0.0071 L 7.888128,13.36941 q -0.02293,-0.0053 -0.051152,-0.0088 -0.026458,-0.0035 -0.051152,-0.0035 -0.072318,0 -0.1358164,0.04057 -0.063499,0.0388 -0.1023033,0.111122 -0.037041,0.07055 -0.037041,0.165802 v 0.504461 H 7.3554453 v -0.945424 h 0.1269972 l 0.017638,0.172858 h 0.00706 q 0.04586,-0.07761 0.118178,-0.134053 0.072318,-0.05644 0.1710934,-0.05644 z"
       id="path660" />
    <path
       d="m 8.4066993,13.217719 q 0.1728573,0 0.2557583,0.07584 0.082901,0.07585 0.082901,0.241648 v 0.643805 H 8.6324721 l -0.029985,-0.134053 h -0.00706 q -0.061735,0.07761 -0.1305249,0.114651 -0.067026,0.03704 -0.1869681,0.03704 -0.128761,0 -0.2134258,-0.06703 -0.084665,-0.06879 -0.084665,-0.213426 0,-0.141108 0.1111225,-0.216953 0.1111226,-0.07761 0.3421869,-0.08466 l 0.1605103,-0.0053 v -0.05644 q 0,-0.118178 -0.051152,-0.164038 -0.051152,-0.04586 -0.1446357,-0.04586 -0.074082,0 -0.141108,0.02293 -0.067026,0.02117 -0.1252333,0.04939 l -0.047624,-0.116414 q 0.061735,-0.03351 0.1463996,-0.05644 0.084665,-0.02469 0.1763849,-0.02469 z m 0.04586,0.504461 q -0.1763849,0.0071 -0.2451751,0.05644 -0.067026,0.04939 -0.067026,0.139344 0,0.07937 0.047624,0.116414 0.049388,0.03704 0.1252333,0.03704 0.1199418,0 0.199315,-0.06526 0.079373,-0.06703 0.079373,-0.204607 v -0.08466 z"
       id="path662" />
    <path
       d="M 9.2462934,14.179017 8.8882318,13.233593 h 0.1658019 l 0.2010789,0.557377 q 0.014111,0.0388 0.029986,0.08643 0.015875,0.04762 0.028222,0.09172 0.012347,0.04233 0.017639,0.07232 h 0.00706 q 0.00706,-0.02999 0.019402,-0.07408 0.014111,-0.0441 0.029986,-0.09172 0.017639,-0.04762 0.029985,-0.08467 l 0.2010789,-0.557377 h 0.1658019 l -0.3598254,0.945424 z"
       id="path664" />
    <path
       d="m 10.299311,13.215955 q 0.121705,0 0.208134,0.05292 0.08819,0.05292 0.134053,0.149928 0.04762,0.09525 0.04762,0.224009 v 0.09348 h -0.647333 q 0.0035,0.16051 0.08114,0.245175 0.07937,0.0829 0.220481,0.0829 0.08996,0 0.158746,-0.01588 0.07055,-0.01764 0.144636,-0.04939 v 0.135817 q -0.07232,0.03175 -0.142872,0.04586 -0.07055,0.01588 -0.167565,0.01588 -0.134053,0 -0.23812,-0.05468 -0.1023035,-0.05468 -0.1605105,-0.162274 -0.056443,-0.109359 -0.056443,-0.266341 0,-0.155219 0.051152,-0.266342 0.052915,-0.111122 0.1463991,-0.171093 0.09525,-0.05997 0.220482,-0.05997 z m -0.0018,0.126997 q -0.111123,0 -0.176385,0.07232 -0.0635,0.07055 -0.07585,0.197551 h 0.481531 q -0.0018,-0.119942 -0.05644,-0.194023 -0.05468,-0.07585 -0.172857,-0.07585 z"
       id="path666" />
  </g>
  <text
     xml:space="preserve"
     transform="scale(0.26457812)"
     id="text3806"
     style="fill:#999999;stroke-width:2;font-size:6.66666667px;white-space:pre;shape-inside:url(#rect3808)" />
</svg>
