<?xml version="1.0" encoding="UTF-8" standalone="no"?>
<svg
   width="64"
   height="64"
   version="1.1"
   viewBox="0 0 16.933 16.933"
   id="svg7"
   sodipodi:docname="Internet Template.svg"
   inkscape:version="1.4 (e7c3feb100, 2024-10-09)"
   xmlns:inkscape="http://www.inkscape.org/namespaces/inkscape"
   xmlns:sodipodi="http://sodipodi.sourceforge.net/DTD/sodipodi-0.dtd"
   xmlns:xlink="http://www.w3.org/1999/xlink"
   xmlns="http://www.w3.org/2000/svg"
   xmlns:svg="http://www.w3.org/2000/svg"
   xmlns:rdf="http://www.w3.org/1999/02/22-rdf-syntax-ns#"
   xmlns:cc="http://creativecommons.org/ns#"
   xmlns:dc="http://purl.org/dc/elements/1.1/">
  <sodipodi:namedview
     id="namedview7"
     pagecolor="#9c4444"
     bordercolor="#000000"
     borderopacity="0.25"
     inkscape:showpageshadow="2"
     inkscape:pageopacity="0.0"
     inkscape:pagecheckerboard="0"
     inkscape:deskcolor="#d1d1d1"
     inkscape:zoom="6.15625"
     inkscape:cx="15.675127"
     inkscape:cy="29.807107"
     inkscape:window-width="1183"
     inkscape:window-height="973"
     inkscape:window-x="35"
     inkscape:window-y="32"
     inkscape:window-maximized="0"
     inkscape:current-layer="svg7"
     showgrid="false" />
  <defs
     id="defs2">
    <rect
       x="67.489848"
       y="35.60533"
       width="15.337563"
       height="22.51269"
       id="rect3808" />
    <linearGradient
       inkscape:collect="always"
       id="linearGradient1134">
      <stop
         style="stop-color:#161616;stop-opacity:1;"
         offset="0"
         id="stop1130" />
      <stop
         style="stop-color:#404040;stop-opacity:1;"
         offset="1"
         id="stop1132" />
    </linearGradient>
    <linearGradient
       inkscape:collect="always"
       id="linearGradient883">
      <stop
         style="stop-color:#808080;stop-opacity:1;"
         offset="0"
         id="stop879" />
      <stop
         style="stop-color:#3e3e3e;stop-opacity:1;"
         offset="0.5"
         id="stop1216" />
      <stop
         style="stop-color:#242424;stop-opacity:1;"
         offset="1"
         id="stop881" />
    </linearGradient>
    <linearGradient
       inkscape:collect="always"
       xlink:href="#linearGradient883"
       id="linearGradient885"
       x1="2.1085808"
       y1="2.0236168"
       x2="14.846128"
       y2="15.071845"
       gradientUnits="userSpaceOnUse" />
    <linearGradient
       inkscape:collect="always"
       xlink:href="#linearGradient1134"
       id="linearGradient1136"
       x1="14.971222"
       y1="14.703373"
       x2="2.0756054"
       y2="2.0069976"
       gradientUnits="userSpaceOnUse" />
    <filter
       style="color-interpolation-filters:sRGB;"
       inkscape:label="Blur"
       id="filter1283"
       x="-0.082344266"
       y="-0.082344266"
       width="1.1646885"
       height="1.1646885">
      <feGaussianBlur
         stdDeviation="0.5 0.5"
         result="blur"
         id="feGaussianBlur1281" />
    </filter>
    <filter
       style="color-interpolation-filters:sRGB;"
       inkscape:label="Blur"
       id="filter1694"
       x="-0.94955398"
       y="-0.2118907"
       width="2.899108"
       height="1.4237814">
      <feGaussianBlur
         stdDeviation="0.2 0.2"
         result="blur"
         id="feGaussianBlur1692" />
    </filter>
    <filter
       style="color-interpolation-filters:sRGB;"
       inkscape:label="Blur"
       id="filter3148"
       x="-0.94955398"
       y="-0.2118907"
       width="2.899108"
       height="1.4237814">
      <feGaussianBlur
         stdDeviation="0.2 0.2"
         result="blur"
         id="feGaussianBlur3146" />
    </filter>
    <clipPath
       clipPathUnits="userSpaceOnUse"
       id="clipPath44">
      <path
         id="path46"
         style="display:block;opacity:0.85;fill:#f2f2f2;stroke-width:4.39162"
         d="m 17.570312,8.4453125 a 6.5431988,7.4283052 9.9958727e-8 0 0 -6.535156,7.4394535 6.5431988,7.4283052 9.9958727e-8 0 0 6.552735,7.417968 6.5431988,7.4283052 9.9958727e-8 0 0 6.535156,-7.4375 6.5431988,7.4283052 9.9958727e-8 0 0 -6.552735,-7.4199215 z M 45.646484,41.177734 a 6.5431986,7.0703472 2.4665357e-6 0 0 -6.533203,7.080078 6.5431986,7.0703472 2.4665357e-6 0 0 6.550781,7.060547 6.5431986,7.0703472 2.4665357e-6 0 0 6.535157,-7.080078 6.5431986,7.0703472 2.4665357e-6 0 0 -6.552735,-7.060547 z" />
    </clipPath>
    <inkscape:path-effect
       effect="powerclip"
       id="path-effect48"
       is_visible="true"
       lpeversion="1"
       inverse="true"
       flatten="false"
       hide_clip="false"
       message="" />
  </defs>
  <metadata
     id="metadata2">
    <rdf:RDF>
      <cc:Work
         rdf:about="">
        <dc:format>image/svg+xml</dc:format>
        <dc:type
           rdf:resource="http://purl.org/dc/dcmitype/StillImage" />
      </cc:Work>
    </rdf:RDF>
  </metadata>
  <rect
     style="fill:#000000;stroke:none;stroke-width:0.539739;stroke-dasharray:none;filter:url(#filter1283)"
     id="rect246-1"
     width="14.572964"
     height="14.572964"
     x="1.1932471"
     y="1.2138842"
     rx="2.1589575"
     ry="2.1589575" />
  <rect
     style="opacity:1;fill:#000000;stroke:url(#linearGradient885);stroke-width:0.52915625;stroke-dasharray:none"
     id="rect246"
     width="14.287219"
     height="14.287219"
     x="1.3361193"
     y="1.3567564"
     rx="2.1166251"
     ry="2.1166251" />
  <rect
     style="fill:url(#linearGradient1136);fill-opacity:1;stroke:none;stroke-width:0.478315;stroke-dasharray:none"
     id="rect246-5"
     width="12.914515"
     height="12.914515"
     x="2.0224717"
     y="2.0431087"
     rx="1.5874687"
     ry="1.5874687" />
  <path
     id="path5"
     style="fill:#999999;fill-opacity:1;stroke-width:0.021009"
     d="m 8.5020919,3.9525087 c -0.1187906,7.32e-5 -0.2371871,0.00377 -0.3138955,0.010875 -0.828949,0.076761 -1.5993701,0.4421576 -2.201224,1.0440119 -0.6856874,0.6856873 -1.055134,1.56841 -1.055134,2.5215458 0,0.564997 0.1209233,1.0781075 0.3714841,1.5781291 0.4975953,0.9930055 1.4367878,1.6796955 2.5539242,1.8673095 0.086662,0.01455 0.200108,0.03065 0.2521049,0.0356 0.1582448,0.01503 0.5236035,0.01269 0.6829085,-0.0042 0.363051,-0.0385 0.6364635,-0.107437 1.0398103,-0.262487 0.4118406,-0.158314 0.5604476,-0.194316 0.8035236,-0.194268 0.242951,4.7e-5 0.423227,0.04135 0.841339,0.192786 0.266937,0.09668 0.373429,0.129791 0.384089,0.119132 0.01008,-0.01008 -0.0206,-0.08493 -0.128029,-0.311918 C 11.521074,10.101279 11.452634,9.8208668 11.476685,9.4985662 11.491468,9.3005228 11.529133,9.1680635 11.686031,8.7632584 11.958653,8.0598687 12.001428,7.8725696 12.001164,7.3833563 12.000803,6.6903858 11.817194,6.0759987 11.443071,5.5163031 10.845096,4.6217201 9.8946085,4.0593246 8.8184594,3.9631371 8.7400586,3.956129 8.6208827,3.9524359 8.5020919,3.9525099 Z m -0.051163,0.9992757 c 0.3052145,-0.00274 0.6370333,0.022801 0.871493,0.073407 0.3239071,0.069913 0.5871601,0.2434815 0.6497893,0.4280845 0.01854,0.054638 0.014427,0.1369252 -0.00964,0.1900677 -0.025893,0.057191 -0.1034919,0.1323515 -0.1735089,0.1680698 -0.043756,0.02232 -0.065715,0.026364 -0.1460719,0.026199 C 9.4926685,5.837286 9.4088063,5.7952841 9.1073918,5.569689 8.9117604,5.4232679 8.7823045,5.3369301 8.6837561,5.287183 8.2958771,5.0913821 7.6554948,5.2037216 7.5253082,5.49035 c -0.028075,0.061814 -0.024756,0.098833 0.017302,0.1829 0.1010492,0.2019853 0.3777493,0.4152429 1.0788616,0.8321943 0.1863518,0.1108229 0.410931,0.2463757 0.4992672,0.301043 0.4888297,0.3025128 0.797305,0.5811521 0.969615,0.8761887 0.207032,0.3544878 0.201224,0.9114708 -0.01409,1.3529652 -0.097168,0.1992432 -0.2473246,0.3809352 -0.4429129,0.5356 C 9.3232201,9.8164856 9.0443166,9.9373763 8.6503929,9.9975953 8.5164158,10.018072 8.2156367,10.026091 8.0942787,10.012426 7.713555,9.9695612 7.3678826,9.8162291 7.1214452,9.5806331 6.8593448,9.3300635 6.7289274,9.0629317 6.6963267,8.7101281 6.6730751,8.4585009 6.7297737,8.1492998 6.8386921,7.933298 6.9410134,7.7303788 7.1541495,7.5069002 7.3950534,7.3497488 7.6041696,7.2133331 7.8129112,7.1223074 8.1189906,7.0341231 8.3411199,6.970125 8.4086645,6.9438942 8.4086645,6.921417 8.4086645,6.877063 8.1409761,6.6321789 7.8582348,6.4179483 7.3852067,6.0595388 7.2538622,5.910182 7.2200628,5.6927752 7.1889372,5.492567 7.2757406,5.3013824 7.4519006,5.1818915 7.583397,5.0926965 7.7786977,5.0177691 7.9570995,4.9881166 8.0942879,4.9653142 8.2678005,4.9534341 8.4509289,4.9517844 Z M 8.639514,7.2412451 C 8.602949,7.2411513 8.556711,7.2481051 8.4892395,7.2617601 8.2149758,7.3172721 7.9574925,7.4439151 7.7830979,7.6095168 7.532729,7.8472625 7.4548232,8.0651485 7.4662364,8.4946032 c 0.00595,0.2236667 0.027349,0.3189932 0.1127057,0.4977854 0.1426635,0.2988245 0.3606232,0.5035723 0.6334762,0.5951657 0.045084,0.015131 0.1087107,0.031509 0.1416237,0.036337 v -2.415e-4 c 0.1316616,0.01931 0.2762232,0.00624 0.415232,-0.037568 C 9.0968645,9.4828327 9.3352656,9.219509 9.4333979,8.8525043 9.4674632,8.7251108 9.4794796,8.5090206 9.459846,8.3747395 9.4227371,8.1209565 9.3208694,7.8905474 9.1464432,7.6651343 9.0542441,7.545984 8.7926484,7.2917621 8.7317055,7.2622602 8.7029829,7.2483589 8.6760798,7.2413452 8.6395142,7.2412519 Z" />
  <g
     aria-label="Krita"
     id="text1450"
     style="font-size:1.76385px;opacity:1;fill:#ffff00;stroke-width:0.529156">
    <rect
       style="font-size:1.76385px;fill:#ffff00;fill-opacity:1;stroke:none;stroke-width:0.519976;stroke-dasharray:none;filter:url(#filter3148)"
       id="rect1656-3"
       width="0.5055005"
       height="2.2653189"
       x="15.369148"
       y="4.3016486"
       rx="0"
       ry="0" />
    <rect
       style="opacity:1;fill:#ffff00;fill-opacity:1;stroke:none;stroke-width:0.519976;stroke-dasharray:none"
       id="rect1656"
       width="0.5055005"
       height="2.2653189"
       x="15.369148"
       y="4.3016486"
       rx="0"
       ry="0" />
  </g>
  <path
     d="m 5.7820874,13.536976 q 0,0.319257 -0.1746212,0.481531 -0.1728573,0.16051 -0.4832948,0.16051 H 4.7731652 v -1.259389 h 0.388047 q 0.1904958,0 0.3298399,0.07055 0.1393442,0.07055 0.2151897,0.208134 0.075846,0.135817 0.075846,0.33866 z m -0.1675658,0.0053 q 0,-0.25223 -0.1252333,-0.368644 Q 5.3658188,13.055445 5.1382822,13.055445 H 4.9319117 v 0.987756 h 0.1710935 q 0.5115164,0 0.5115164,-0.500934 z m 0.7902041,-0.326312 q 0.1217056,0 0.2081342,0.05292 0.088192,0.05292 0.1340526,0.149928 0.047624,0.09525 0.047624,0.224009 v 0.09348 H 6.1472036 q 0.00353,0.16051 0.081137,0.245175 0.079373,0.0829 0.2204812,0.0829 0.089956,0 0.1587465,-0.01588 0.070554,-0.01764 0.1446357,-0.04939 v 0.135817 q -0.072318,0.03175 -0.1428719,0.04586 -0.070554,0.01588 -0.1675657,0.01588 -0.1340526,0 -0.2381197,-0.05468 -0.1023033,-0.05468 -0.1605104,-0.162274 -0.056443,-0.109359 -0.056443,-0.266341 0,-0.155219 0.051152,-0.266342 0.052916,-0.111122 0.1463995,-0.171093 0.095248,-0.05997 0.2204813,-0.05997 z m -0.00176,0.126997 q -0.1111225,0 -0.176385,0.07232 -0.063499,0.07055 -0.075845,0.197551 h 0.481531 q -0.00176,-0.119942 -0.056443,-0.194023 -0.054679,-0.07585 -0.1728573,-0.07585 z m 0.7866757,0.836065 H 7.0344187 V 12.838491 H 7.1896375 Z M 7.80522,14.069658 q 0.035277,0 0.072318,-0.0053 0.037041,-0.0071 0.059971,-0.01411 v 0.118178 q -0.024694,0.01235 -0.070554,0.0194 -0.04586,0.0088 -0.088192,0.0088 -0.074082,0 -0.1375803,-0.02469 -0.061735,-0.02646 -0.1005395,-0.08996 -0.038805,-0.0635 -0.038805,-0.178149 V 13.353535 H 7.3677852 v -0.07408 l 0.1358165,-0.06173 0.061735,-0.201079 h 0.09172 v 0.216953 h 0.2733967 v 0.119942 H 7.6570566 v 0.546794 q 0,0.08643 0.040569,0.128761 0.042332,0.04057 0.1075948,0.04057 z m 0.6790824,-0.851939 q 0.1728573,0 0.2557582,0.07584 0.082901,0.07585 0.082901,0.241648 v 0.643805 H 8.7100752 l -0.029986,-0.134053 h -0.00706 q -0.061735,0.07761 -0.1305249,0.114651 -0.067026,0.03704 -0.1869681,0.03704 -0.128761,0 -0.2134258,-0.06703 -0.084665,-0.06879 -0.084665,-0.213426 0,-0.141108 0.1111225,-0.216953 0.1111226,-0.07761 0.3421869,-0.08466 l 0.1605104,-0.0053 v -0.05644 q 0,-0.118178 -0.051152,-0.164038 -0.051152,-0.04586 -0.1446357,-0.04586 -0.074082,0 -0.141108,0.02293 -0.067026,0.02117 -0.1252333,0.04939 l -0.047624,-0.116414 q 0.061735,-0.03351 0.1463996,-0.05644 0.084665,-0.02469 0.176385,-0.02469 z m 0.04586,0.504461 q -0.176385,0.0071 -0.2451752,0.05644 -0.067026,0.04939 -0.067026,0.139344 0,0.07937 0.047624,0.116414 0.049388,0.03704 0.1252333,0.03704 0.1199418,0 0.1993151,-0.06526 0.079373,-0.06703 0.079373,-0.204607 v -0.08466 z m 0.9648271,0.474476 q -0.1252333,0 -0.2240089,-0.05115 -0.097012,-0.05115 -0.153455,-0.158747 -0.054679,-0.107594 -0.054679,-0.27516 0,-0.174621 0.058207,-0.28398 0.058207,-0.109359 0.1569827,-0.16051 0.1005394,-0.05115 0.2275366,-0.05115 0.072318,0 0.1393442,0.01588 0.067026,0.01411 0.1093587,0.03528 l -0.047624,0.128761 q -0.042332,-0.01587 -0.098776,-0.02999 -0.056443,-0.01411 -0.105831,-0.01411 -0.2786883,0 -0.2786883,0.358062 0,0.171093 0.067026,0.262814 0.06879,0.08996 0.2028428,0.08996 0.077609,0 0.1358164,-0.01587 0.059971,-0.01587 0.1093587,-0.0388 v 0.13758 q -0.047624,0.02469 -0.105831,0.03704 -0.056443,0.01411 -0.1375803,0.01411 z M 10.117628,13.23183 q 0,0.07055 -0.0088,0.132288 h 0.01058 q 0.04586,-0.07232 0.123469,-0.109358 0.07937,-0.03704 0.171094,-0.03704 0.172857,0 0.259286,0.0829 0.08643,0.08114 0.08643,0.262813 v 0.615584 h -0.153455 v -0.605 q 0,-0.227537 -0.211662,-0.227537 -0.158746,0 -0.218717,0.08996 -0.05821,0.08819 -0.05821,0.253995 v 0.488586 H 9.9624091 v -1.340526 h 0.1552189 z m 1.292902,-0.01411 q 0.172857,0 0.255758,0.07584 0.0829,0.07585 0.0829,0.241648 v 0.643805 h -0.112886 l -0.02999,-0.134053 h -0.0071 q -0.06173,0.07761 -0.130525,0.114651 -0.06703,0.03704 -0.186968,0.03704 -0.128761,0 -0.213426,-0.06703 -0.08467,-0.06879 -0.08467,-0.213426 0,-0.141108 0.111123,-0.216953 0.111122,-0.07761 0.342187,-0.08466 l 0.16051,-0.0053 v -0.05644 q 0,-0.118178 -0.05115,-0.164038 -0.05115,-0.04586 -0.144635,-0.04586 -0.07408,0 -0.141108,0.02293 -0.06703,0.02117 -0.125234,0.04939 l -0.04762,-0.116414 q 0.06174,-0.03351 0.1464,-0.05644 0.08466,-0.02469 0.176385,-0.02469 z m 0.04586,0.504461 q -0.176385,0.0071 -0.245175,0.05644 -0.06703,0.04939 -0.06703,0.139344 0,0.07937 0.04762,0.116414 0.04939,0.03704 0.125233,0.03704 0.119942,0 0.199315,-0.06526 0.07937,-0.06703 0.07937,-0.204607 v -0.08466 z m 0.901329,0.347478 q 0.03528,0 0.07232,-0.0053 0.03704,-0.0071 0.05997,-0.01411 v 0.118178 q -0.02469,0.01235 -0.07055,0.0194 -0.04586,0.0088 -0.08819,0.0088 -0.07408,0 -0.13758,-0.02469 -0.06174,-0.02646 -0.100539,-0.08996 -0.0388,-0.0635 -0.0388,-0.178149 v -0.550321 h -0.134053 v -0.07408 l 0.135817,-0.06173 0.06173,-0.201079 h 0.09172 v 0.216953 h 0.273396 v 0.119942 h -0.273396 v 0.546794 q 0,0.08643 0.04057,0.128761 0.04233,0.04057 0.107595,0.04057 z"
     id="text2284"
     style="font-size:1.76385px;fill:#999999;stroke-width:0.529156"
     aria-label="Deltachat" />
  <text
     xml:space="preserve"
     transform="scale(0.26457812)"
     id="text3806"
     style="fill:#999999;stroke-width:2;font-size:6.66666667px;white-space:pre;shape-inside:url(#rect3808)" />
</svg>
