<?xml version="1.0" encoding="UTF-8" standalone="no"?>
<svg
   width="64"
   height="64"
   version="1.1"
   viewBox="0 0 16.933 16.933"
   id="svg7"
   sodipodi:docname="Settings Template.svg"
   inkscape:version="1.4 (e7c3feb100, 2024-10-09)"
   xmlns:inkscape="http://www.inkscape.org/namespaces/inkscape"
   xmlns:sodipodi="http://sodipodi.sourceforge.net/DTD/sodipodi-0.dtd"
   xmlns:xlink="http://www.w3.org/1999/xlink"
   xmlns="http://www.w3.org/2000/svg"
   xmlns:svg="http://www.w3.org/2000/svg"
   xmlns:rdf="http://www.w3.org/1999/02/22-rdf-syntax-ns#"
   xmlns:cc="http://creativecommons.org/ns#"
   xmlns:dc="http://purl.org/dc/elements/1.1/">
  <sodipodi:namedview
     id="namedview7"
     pagecolor="#9c4444"
     bordercolor="#000000"
     borderopacity="0.25"
     inkscape:showpageshadow="2"
     inkscape:pageopacity="0.0"
     inkscape:pagecheckerboard="0"
     inkscape:deskcolor="#d1d1d1"
     inkscape:zoom="6.15625"
     inkscape:cx="19.411168"
     inkscape:cy="29.807107"
     inkscape:window-width="1183"
     inkscape:window-height="973"
     inkscape:window-x="35"
     inkscape:window-y="32"
     inkscape:window-maximized="0"
     inkscape:current-layer="svg7"
     showgrid="false" />
  <defs
     id="defs2">
    <rect
       x="67.489848"
       y="35.60533"
       width="15.337563"
       height="22.51269"
       id="rect3808" />
    <linearGradient
       inkscape:collect="always"
       id="linearGradient1134">
      <stop
         style="stop-color:#161616;stop-opacity:1;"
         offset="0"
         id="stop1130" />
      <stop
         style="stop-color:#404040;stop-opacity:1;"
         offset="1"
         id="stop1132" />
    </linearGradient>
    <linearGradient
       inkscape:collect="always"
       id="linearGradient883">
      <stop
         style="stop-color:#808080;stop-opacity:1;"
         offset="0"
         id="stop879" />
      <stop
         style="stop-color:#3e3e3e;stop-opacity:1;"
         offset="0.5"
         id="stop1216" />
      <stop
         style="stop-color:#242424;stop-opacity:1;"
         offset="1"
         id="stop881" />
    </linearGradient>
    <linearGradient
       inkscape:collect="always"
       xlink:href="#linearGradient883"
       id="linearGradient885"
       x1="2.1085808"
       y1="2.0236168"
       x2="14.846128"
       y2="15.071845"
       gradientUnits="userSpaceOnUse" />
    <linearGradient
       inkscape:collect="always"
       xlink:href="#linearGradient1134"
       id="linearGradient1136"
       x1="14.971222"
       y1="14.703373"
       x2="2.0756054"
       y2="2.0069976"
       gradientUnits="userSpaceOnUse" />
    <filter
       style="color-interpolation-filters:sRGB;"
       inkscape:label="Blur"
       id="filter1283"
       x="-0.082344266"
       y="-0.082344266"
       width="1.1646885"
       height="1.1646885">
      <feGaussianBlur
         stdDeviation="0.5 0.5"
         result="blur"
         id="feGaussianBlur1281" />
    </filter>
    <filter
       style="color-interpolation-filters:sRGB;"
       inkscape:label="Blur"
       id="filter1694"
       x="-0.94955398"
       y="-0.2118907"
       width="2.899108"
       height="1.4237814">
      <feGaussianBlur
         stdDeviation="0.2 0.2"
         result="blur"
         id="feGaussianBlur1692" />
    </filter>
    <filter
       style="color-interpolation-filters:sRGB;"
       inkscape:label="Blur"
       id="filter3148"
       x="-0.94955398"
       y="-0.2118907"
       width="2.899108"
       height="1.4237814">
      <feGaussianBlur
         stdDeviation="0.2 0.2"
         result="blur"
         id="feGaussianBlur3146" />
    </filter>
  </defs>
  <metadata
     id="metadata2">
    <rdf:RDF>
      <cc:Work
         rdf:about="">
        <dc:format>image/svg+xml</dc:format>
        <dc:type
           rdf:resource="http://purl.org/dc/dcmitype/StillImage" />
      </cc:Work>
    </rdf:RDF>
  </metadata>
  <rect
     style="fill:#000000;stroke:none;stroke-width:0.539739;stroke-dasharray:none;filter:url(#filter1283)"
     id="rect246-1"
     width="14.572964"
     height="14.572964"
     x="1.1932471"
     y="1.2138842"
     rx="2.1589575"
     ry="2.1589575" />
  <rect
     style="opacity:1;fill:#000000;stroke:url(#linearGradient885);stroke-width:0.52915625;stroke-dasharray:none"
     id="rect246"
     width="14.287219"
     height="14.287219"
     x="1.3361193"
     y="1.3567564"
     rx="2.1166251"
     ry="2.1166251" />
  <rect
     style="fill:url(#linearGradient1136);fill-opacity:1;stroke:none;stroke-width:0.478315;stroke-dasharray:none"
     id="rect246-5"
     width="12.914515"
     height="12.914515"
     x="2.0224717"
     y="2.0431087"
     rx="1.5874687"
     ry="1.5874687" />
  <path
     style="color:#444444;fill:#999999;fill-opacity:1;stroke:none;stroke-width:0.221945;stroke-dasharray:none;stroke-opacity:0.3"
     class="ColorScheme-Text"
     d="m 5.8886955,4.6922177 c 0,0 -0.9662465,0 -0.9662465,0.9662461 v 3.8649861 c 0,0.9662461 0.9662465,0.9662461 0.9662465,0.9662461 h 5.3143535 c 0,0 0.966247,0 0.966247,-0.9662461 V 5.6584638 c 0,-0.9662461 -0.966247,-0.9662461 -0.966247,-0.9662461 z M 6.0094762,5.6584638 H 6.734161 c 0.066911,0 0.1207805,0.05387 0.1207805,0.1207814 v 0.724685 c 0,0.066911 -0.05387,0.1207804 -0.1207805,0.1207804 H 6.0094762 c -0.066912,0 -0.1207807,-0.05387 -0.1207807,-0.1207804 v -0.724685 c 0,-0.066913 0.05387,-0.1207814 0.1207807,-0.1207814 z m 1.4493695,0 h 0.7246845 c 0.066913,0 0.120781,0.05387 0.120781,0.1207814 v 0.724685 c 0,0.066911 -0.05387,0.1207804 -0.120781,0.1207804 H 7.4588457 c -0.066912,0 -0.1207808,-0.05387 -0.1207808,-0.1207804 v -0.724685 c 0,-0.066913 0.05387,-0.1207814 0.1207808,-0.1207814 z m 1.4493693,0 h 0.7246844 c 0.066908,0 0.1207816,0.05387 0.1207816,0.1207814 v 0.724685 c 0,0.066911 -0.053873,0.1207804 -0.1207816,0.1207804 H 8.908215 c -0.066913,0 -0.1207804,-0.05387 -0.1207804,-0.1207804 v -0.724685 c 0,-0.066913 0.053869,-0.1207814 0.1207804,-0.1207814 z m 1.44937,0 h 0.724685 c 0.06692,0 0.120779,0.05387 0.120779,0.1207814 v 0.724685 c 0,0.066911 -0.05388,0.1207804 -0.120779,0.1207804 h -0.724685 c -0.06691,0 -0.120782,-0.05387 -0.120782,-0.1207804 v -0.724685 c 0,-0.066913 0.05388,-0.1207814 0.120782,-0.1207814 z M 6.0094762,7.1078343 H 6.734161 c 0.066911,0 0.1207805,0.053869 0.1207805,0.1207803 v 0.7246848 c 0,0.066913 -0.05387,0.1207808 -0.1207805,0.1207808 H 6.0094762 c -0.066912,0 -0.1207807,-0.053869 -0.1207807,-0.1207808 V 7.2286146 c 0,-0.066914 0.05387,-0.1207803 0.1207807,-0.1207803 z m 1.4493695,0 h 0.7246845 c 0.066913,0 0.120781,0.053869 0.120781,0.1207803 v 0.7246848 c 0,0.066913 -0.05387,0.1207808 -0.120781,0.1207808 H 7.4588457 c -0.066911,0 -0.1207808,-0.053869 -0.1207808,-0.1207808 V 7.2286146 c 0,-0.066914 0.05387,-0.1207803 0.1207808,-0.1207803 z m 1.4493693,0 h 0.7246844 c 0.066908,0 0.1207816,0.053869 0.1207816,0.1207803 v 0.7246848 c 0,0.066913 -0.053873,0.1207808 -0.1207816,0.1207808 H 8.908215 c -0.066913,0 -0.1207804,-0.053869 -0.1207804,-0.1207808 V 7.2286146 c 0,-0.066914 0.053869,-0.1207803 0.1207804,-0.1207803 z m 1.44937,0 h 0.724685 c 0.06692,0 0.120779,0.053869 0.120779,0.1207803 v 0.7246848 c 0,0.066913 -0.05388,0.1207808 -0.120779,0.1207808 h -0.724685 c -0.06691,0 -0.120782,-0.053869 -0.120782,-0.1207808 V 7.2286146 c 0,-0.066914 0.05388,-0.1207803 0.120782,-0.1207803 z M 6.9757221,8.5572028 h 3.1403009 c 0.06692,0 0.12078,0.053872 0.12078,0.1207801 v 0.7246862 c 0,0.066914 -0.05388,0.1207807 -0.12078,0.1207807 H 6.9757221 c -0.066912,0 -0.1207806,-0.053873 -0.1207806,-0.1207807 V 8.6779829 c 0,-0.066915 0.05387,-0.1207801 0.1207806,-0.1207801 z"
     id="path5" />
  <g
     aria-label="Krita"
     id="text1450"
     style="font-size:1.76385px;opacity:1;fill:#5555ff;stroke-width:0.529156">
    <rect
       style="font-size:1.76385px;fill:#5555ff;fill-opacity:1;stroke:none;stroke-width:0.519976;stroke-dasharray:none;filter:url(#filter3148)"
       id="rect1656-3"
       width="0.5055005"
       height="2.2653189"
       x="15.369148"
       y="4.3016486"
       rx="0"
       ry="0" />
    <rect
       style="opacity:1;fill:#5555ff;fill-opacity:1;stroke:none;stroke-width:0.519976;stroke-dasharray:none"
       id="rect1656"
       width="0.5055005"
       height="2.2653189"
       x="15.369148"
       y="4.3016486"
       rx="0"
       ry="0" />
  </g>
  <path
     d="M 5.6146102,14.179017 H 5.4276421 L 4.9813881,13.577544 4.852627,13.690431 v 0.488586 H 4.6938805 V 12.919628 H 4.852627 v 0.620875 q 0.052916,-0.05997 0.1075949,-0.119941 0.054679,-0.05997 0.1093587,-0.119942 l 0.340423,-0.380992 h 0.1852043 l -0.4991696,0.548558 z m 0.5150434,-0.963062 q 0.1217056,0 0.2081342,0.05292 0.088192,0.05292 0.1340526,0.149928 0.047624,0.09525 0.047624,0.224009 v 0.09348 H 5.8721315 q 0.00353,0.16051 0.081137,0.245175 0.079373,0.0829 0.2204812,0.0829 0.089956,0 0.1587465,-0.01588 0.070554,-0.01764 0.1446357,-0.04939 v 0.135817 q -0.072318,0.03175 -0.1428719,0.04586 -0.070554,0.01588 -0.1675657,0.01588 -0.1340526,0 -0.2381197,-0.05468 -0.1023033,-0.05468 -0.1605104,-0.162274 -0.056443,-0.109359 -0.056443,-0.266341 0,-0.155219 0.051152,-0.266342 0.052916,-0.111122 0.1463995,-0.171093 0.095248,-0.05997 0.2204813,-0.05997 z m -0.00176,0.126997 q -0.1111225,0 -0.176385,0.07232 -0.063499,0.07055 -0.075845,0.197551 h 0.481531 q -0.00176,-0.119942 -0.056443,-0.194023 -0.054679,-0.07585 -0.1728573,-0.07585 z m 0.4480157,-0.109359 h 0.1658018 l 0.2046066,0.537975 q 0.026458,0.07055 0.047624,0.135816 0.021166,0.0635 0.031749,0.121706 h 0.00706 q 0.010583,-0.0441 0.033513,-0.11465 0.02293,-0.07232 0.047624,-0.144636 L 7.3061392,13.233593 H 7.473705 l -0.4074494,1.075949 q -0.049388,0.134053 -0.128761,0.213426 -0.077609,0.07937 -0.2151897,0.07937 -0.042332,0 -0.074082,-0.0053 -0.031749,-0.0035 -0.054679,-0.0088 v -0.123469 q 0.019402,0.0035 0.04586,0.0071 0.028222,0.0035 0.058207,0.0035 0.081137,0 0.1305249,-0.04586 0.051152,-0.04586 0.079373,-0.121706 l 0.049388,-0.125233 z m 1.2029459,-0.06879 q 0,0.05997 -0.00353,0.112887 -0.00176,0.05115 -0.00529,0.08114 h 0.00882 q 0.040569,-0.05997 0.1111226,-0.10054 0.070554,-0.04057 0.1816765,-0.04057 0.176385,0 0.282216,0.123469 0.1075949,0.121706 0.1075949,0.365117 0,0.243412 -0.1075949,0.366881 -0.1075948,0.12347 -0.282216,0.12347 -0.1111225,0 -0.1816765,-0.04057 -0.070554,-0.04057 -0.1111226,-0.09701 h -0.012347 l -0.031749,0.119942 H 7.6236325 v -1.340526 h 0.1552188 z m 0.2663414,0.181677 q -0.1499273,0 -0.2081343,0.08643 -0.058207,0.08643 -0.058207,0.268105 v 0.0071 q 0,0.174621 0.056443,0.268105 0.058207,0.09172 0.2134259,0.09172 0.1269972,0 0.1887319,-0.09348 0.063499,-0.09348 0.063499,-0.269869 0,-0.358061 -0.2557582,-0.358061 z m 1.4851613,0.358061 q 0,0.234592 -0.1199418,0.363354 -0.118178,0.128761 -0.3210207,0.128761 -0.1252334,0 -0.224009,-0.05644 -0.097012,-0.05821 -0.1534549,-0.167565 -0.056443,-0.111123 -0.056443,-0.268106 0,-0.234592 0.1181779,-0.361589 0.118178,-0.126997 0.3210207,-0.126997 0.1287611,0 0.2257728,0.05821 0.098776,0.05644 0.153455,0.165802 0.056443,0.107595 0.056443,0.264577 z m -0.7143593,0 q 0,0.167566 0.065263,0.266342 0.067026,0.09701 0.211662,0.09701 0.1428718,0 0.2098981,-0.09701 0.067026,-0.09878 0.067026,-0.266342 0,-0.167565 -0.067026,-0.262813 -0.067026,-0.09525 -0.211662,-0.09525 -0.1446357,0 -0.2098981,0.09525 -0.065263,0.09525 -0.065263,0.262813 z M 10.13359,13.217719 q 0.172857,0 0.255758,0.07584 0.0829,0.07585 0.0829,0.241648 v 0.643805 h -0.112886 l -0.02999,-0.134053 h -0.0071 q -0.06174,0.07761 -0.130525,0.114651 -0.06703,0.03704 -0.186968,0.03704 -0.128761,0 -0.2134258,-0.06703 -0.084665,-0.06879 -0.084665,-0.213426 0,-0.141108 0.1111225,-0.216953 0.1111226,-0.07761 0.3421871,-0.08466 l 0.16051,-0.0053 v -0.05644 q 0,-0.118178 -0.05115,-0.164038 -0.05115,-0.04586 -0.144636,-0.04586 -0.07408,0 -0.1411082,0.02293 -0.067026,0.02117 -0.1252333,0.04939 l -0.047624,-0.116414 q 0.061735,-0.03351 0.1463996,-0.05644 0.084665,-0.02469 0.1763849,-0.02469 z m 0.04586,0.504461 q -0.176385,0.0071 -0.245175,0.05644 -0.067026,0.04939 -0.067026,0.139344 0,0.07937 0.047624,0.116414 0.049388,0.03704 0.1252333,0.03704 0.119942,0 0.199315,-0.06526 0.07937,-0.06703 0.07937,-0.204607 v -0.08466 z m 1.026562,-0.506225 q 0.02646,0 0.05644,0.0035 0.03175,0.0018 0.05468,0.0071 l -0.0194,0.142872 q -0.02293,-0.0053 -0.05115,-0.0088 -0.02646,-0.0035 -0.05115,-0.0035 -0.07232,0 -0.135816,0.04057 -0.0635,0.0388 -0.102304,0.111122 -0.03704,0.07055 -0.03704,0.165802 v 0.504461 H 10.76505 v -0.945424 h 0.126997 l 0.01764,0.172858 h 0.0071 q 0.04586,-0.07761 0.118178,-0.134053 0.07232,-0.05644 0.171093,-0.05644 z m 0.587362,0.980701 q -0.176385,0 -0.282216,-0.121706 -0.105831,-0.12347 -0.105831,-0.366881 0,-0.243411 0.105831,-0.366881 0.107594,-0.125233 0.283979,-0.125233 0.109359,0 0.178149,0.04057 0.07055,0.04057 0.11465,0.09877 h 0.01058 q -0.0018,-0.02293 -0.0071,-0.06703 -0.0035,-0.04586 -0.0035,-0.07232 v -0.377464 h 0.155219 v 1.340526 h -0.125233 l -0.02293,-0.126997 h -0.0071 q -0.04233,0.05997 -0.112886,0.102303 -0.07055,0.04233 -0.181676,0.04233 z m 0.02469,-0.128761 q 0.149928,0 0.209899,-0.08114 0.06173,-0.0829 0.06173,-0.248702 v -0.02822 q 0,-0.176385 -0.05821,-0.269869 -0.05821,-0.09525 -0.215189,-0.09525 -0.125234,0 -0.188732,0.100539 -0.06174,0.09878 -0.06174,0.266342 0,0.169329 0.06174,0.262813 0.0635,0.09348 0.190495,0.09348 z"
     id="text2284"
     style="font-size:1.76385px;fill:#999999;stroke-width:0.529156"
     aria-label="Keyboard" />
  <text
     xml:space="preserve"
     transform="scale(0.26457812)"
     id="text3806"
     style="fill:#999999;stroke-width:2;font-size:6.66666667px;white-space:pre;shape-inside:url(#rect3808)" />
</svg>
