<?xml version="1.0" encoding="UTF-8" standalone="no"?>
<svg
   width="64"
   height="64"
   version="1.1"
   viewBox="0 0 16.933 16.933"
   id="svg7"
   sodipodi:docname="clamtk.svg"
   inkscape:version="1.4 (e7c3feb100, 2024-10-09)"
   xmlns:inkscape="http://www.inkscape.org/namespaces/inkscape"
   xmlns:sodipodi="http://sodipodi.sourceforge.net/DTD/sodipodi-0.dtd"
   xmlns:xlink="http://www.w3.org/1999/xlink"
   xmlns="http://www.w3.org/2000/svg"
   xmlns:svg="http://www.w3.org/2000/svg"
   xmlns:rdf="http://www.w3.org/1999/02/22-rdf-syntax-ns#"
   xmlns:cc="http://creativecommons.org/ns#"
   xmlns:dc="http://purl.org/dc/elements/1.1/">
  <sodipodi:namedview
     id="namedview7"
     pagecolor="#9c4444"
     bordercolor="#000000"
     borderopacity="0.25"
     inkscape:showpageshadow="2"
     inkscape:pageopacity="0.0"
     inkscape:pagecheckerboard="0"
     inkscape:deskcolor="#d1d1d1"
     inkscape:zoom="6.15625"
     inkscape:cx="15.675127"
     inkscape:cy="29.807107"
     inkscape:window-width="1183"
     inkscape:window-height="973"
     inkscape:window-x="35"
     inkscape:window-y="32"
     inkscape:window-maximized="0"
     inkscape:current-layer="svg7"
     showgrid="false" />
  <defs
     id="defs2">
    <rect
       x="67.489848"
       y="35.60533"
       width="15.337563"
       height="22.51269"
       id="rect3808" />
    <linearGradient
       inkscape:collect="always"
       id="linearGradient1134">
      <stop
         style="stop-color:#161616;stop-opacity:1;"
         offset="0"
         id="stop1130" />
      <stop
         style="stop-color:#404040;stop-opacity:1;"
         offset="1"
         id="stop1132" />
    </linearGradient>
    <linearGradient
       inkscape:collect="always"
       id="linearGradient883">
      <stop
         style="stop-color:#808080;stop-opacity:1;"
         offset="0"
         id="stop879" />
      <stop
         style="stop-color:#3e3e3e;stop-opacity:1;"
         offset="0.5"
         id="stop1216" />
      <stop
         style="stop-color:#242424;stop-opacity:1;"
         offset="1"
         id="stop881" />
    </linearGradient>
    <linearGradient
       inkscape:collect="always"
       xlink:href="#linearGradient883"
       id="linearGradient885"
       x1="2.1085808"
       y1="2.0236168"
       x2="14.846128"
       y2="15.071845"
       gradientUnits="userSpaceOnUse" />
    <linearGradient
       inkscape:collect="always"
       xlink:href="#linearGradient1134"
       id="linearGradient1136"
       x1="14.971222"
       y1="14.703373"
       x2="2.0756054"
       y2="2.0069976"
       gradientUnits="userSpaceOnUse" />
    <filter
       style="color-interpolation-filters:sRGB;"
       inkscape:label="Blur"
       id="filter1283"
       x="-0.082344266"
       y="-0.082344266"
       width="1.1646885"
       height="1.1646885">
      <feGaussianBlur
         stdDeviation="0.5 0.5"
         result="blur"
         id="feGaussianBlur1281" />
    </filter>
    <filter
       style="color-interpolation-filters:sRGB;"
       inkscape:label="Blur"
       id="filter1694"
       x="-0.94955398"
       y="-0.2118907"
       width="2.899108"
       height="1.4237814">
      <feGaussianBlur
         stdDeviation="0.2 0.2"
         result="blur"
         id="feGaussianBlur1692" />
    </filter>
    <filter
       style="color-interpolation-filters:sRGB;"
       inkscape:label="Blur"
       id="filter3148"
       x="-0.94955398"
       y="-0.2118907"
       width="2.899108"
       height="1.4237814">
      <feGaussianBlur
         stdDeviation="0.2 0.2"
         result="blur"
         id="feGaussianBlur3146" />
    </filter>
    <clipPath
       clipPathUnits="userSpaceOnUse"
       id="clipPath44">
      <path
         id="path46"
         style="display:block;opacity:0.85;fill:#f2f2f2;stroke-width:4.39162"
         d="m 17.570312,8.4453125 a 6.5431988,7.4283052 9.9958727e-8 0 0 -6.535156,7.4394535 6.5431988,7.4283052 9.9958727e-8 0 0 6.552735,7.417968 6.5431988,7.4283052 9.9958727e-8 0 0 6.535156,-7.4375 6.5431988,7.4283052 9.9958727e-8 0 0 -6.552735,-7.4199215 z M 45.646484,41.177734 a 6.5431986,7.0703472 2.4665357e-6 0 0 -6.533203,7.080078 6.5431986,7.0703472 2.4665357e-6 0 0 6.550781,7.060547 6.5431986,7.0703472 2.4665357e-6 0 0 6.535157,-7.080078 6.5431986,7.0703472 2.4665357e-6 0 0 -6.552735,-7.060547 z" />
    </clipPath>
    <inkscape:path-effect
       effect="powerclip"
       id="path-effect48"
       is_visible="true"
       lpeversion="1"
       inverse="true"
       flatten="false"
       hide_clip="false"
       message="" />
  </defs>
  <metadata
     id="metadata2">
    <rdf:RDF>
      <cc:Work
         rdf:about="">
        <dc:format>image/svg+xml</dc:format>
        <dc:type
           rdf:resource="http://purl.org/dc/dcmitype/StillImage" />
      </cc:Work>
    </rdf:RDF>
  </metadata>
  <rect
     style="fill:#000000;stroke:none;stroke-width:0.539739;stroke-dasharray:none;filter:url(#filter1283)"
     id="rect246-1"
     width="14.572964"
     height="14.572964"
     x="1.1932471"
     y="1.2138842"
     rx="2.1589575"
     ry="2.1589575" />
  <rect
     style="opacity:1;fill:#000000;stroke:url(#linearGradient885);stroke-width:0.52915625;stroke-dasharray:none"
     id="rect246"
     width="14.287219"
     height="14.287219"
     x="1.3361193"
     y="1.3567564"
     rx="2.1166251"
     ry="2.1166251" />
  <rect
     style="fill:url(#linearGradient1136);fill-opacity:1;stroke:none;stroke-width:0.478315;stroke-dasharray:none"
     id="rect246-5"
     width="12.914515"
     height="12.914515"
     x="2.0224717"
     y="2.0431087"
     rx="1.5874687"
     ry="1.5874687" />
  <path
     id="path2"
     style="fill:#999999;fill-opacity:1;stroke-width:0.0819777"
     d="m 11.262162,3.6641997 -0.05303,0.2050834 C 11.102664,4.2785976 10.836146,4.75573 10.535475,5.0756165 L 10.380069,5.2407571 10.093423,5.089378 C 9.5811898,4.8187633 9.0722285,4.6892812 8.5222359,4.6892812 c -0.5961694,0 -1.1660627,0.1547899 -1.6900078,0.4591717 L 6.6721223,5.2414285 6.549945,5.1222719 C 6.3916122,4.9678304 6.1894555,4.6940542 6.0682844,4.4704358 5.9646628,4.2792053 5.8045755,3.8475708 5.8014409,3.7507981 c -0.00185,-0.05739 -0.00277,-0.057586 -0.02551,-0.00471 -0.037399,0.087034 -0.030595,0.4701086 0.013091,0.7394414 0.055197,0.3403129 0.1261403,0.5557612 0.2866467,0.8710169 L 6.2126148,5.6254099 6.0447891,5.804648 C 5.2638079,6.6395189 4.991961,7.9484489 5.366772,9.067185 c 0.3816522,1.139157 1.3805387,2.005539 2.5569967,2.21799 0.2943435,0.05314 0.8752941,0.05401 1.1754531,0.0017 C 10.85273,10.981076 12.059597,9.3158537 11.812968,7.5426622 11.726627,6.9218898 11.404942,6.2378077 10.990957,5.7952583 L 10.832193,5.6257537 10.967796,5.355554 C 11.04228,5.2068678 11.135045,4.9745835 11.173887,4.8393214 11.259747,4.5403269 11.31236,4.0530655 11.28331,3.8283375 Z m -0.391368,4.0580324 c 0.03279,0 0.129277,0.2606043 0.15507,0.4188937 0.08773,0.5383237 -0.315592,1.1043236 -0.87773,1.2321788 C 9.6678823,9.4825355 9.240115,9.3619087 8.9330737,9.0302685 8.8477534,8.9381116 8.7881865,8.8526849 8.8004913,8.8406232 8.8291165,8.8125656 9.5088603,8.4361619 9.8477248,8.260618 9.9905028,8.1866542 10.275144,8.0353848 10.48043,7.9242946 c 0.205284,-0.11109 0.380945,-0.2020625 0.390364,-0.2020625 z m -4.7105411,0.01242 c 0.014023,-0.00867 0.2378149,0.0991 0.4971006,0.2393199 0.2592859,0.1402203 0.508067,0.2710152 0.5531546,0.2906745 0.045088,0.019659 0.2173221,0.1130023 0.3826433,0.2074326 0.1653207,0.09443 0.3838842,0.2172939 0.4856881,0.2728842 l 0.18528,0.1010313 -0.056054,0.078206 C 8.0621755,9.129088 7.7974244,9.303272 7.5179654,9.3776689 7.2408219,9.4514502 6.8804396,9.4111608 6.6174109,9.2769729 6.4484669,9.1907849 6.2049423,8.9455409 6.1250096,8.781213 6.0306574,8.5872448 5.9855765,8.3522609 6.0092096,8.1780481 6.0302744,8.0227659 6.1198942,7.7595947 6.1602529,7.7346521 Z M 9.8500747,8.294855 c -0.023733,8.505e-4 -0.065529,0.023372 -0.1554061,0.073172 l -0.1664839,0.091968 0.053034,0.1570842 c 0.039452,0.1168579 0.050494,0.2110909 0.043299,0.3695536 -0.0084,0.1848293 -0.00483,0.2064029 0.027859,0.1641355 C 9.7938513,8.9677631 9.9430018,8.4456073 9.8869984,8.329091 9.8762164,8.306668 9.8685394,8.294197 9.8500784,8.294854 Z m -2.6795093,0.00101 c -0.041486,0 -0.034453,0.2112448 0.013426,0.3950607 0.023012,0.08835 0.081521,0.2352791 0.1298974,0.3262559 l 0.087941,0.1654776 0.016113,-0.2587896 c 0.00891,-0.1423575 0.036218,-0.3053358 0.060418,-0.3618362 L 7.5223287,8.459324 7.3605445,8.3777605 C 7.2715058,8.3328144 7.1860236,8.2958615 7.1705654,8.2958615 Z" />
  <g
     fill="#474747"
     id="g9"
     transform="matrix(0.46959567,0,0,0.46959567,4.7471229,3.7470598)"
     style="fill:#999999;fill-opacity:1;stroke:none;stroke-width:0.58349;stroke-dasharray:none;stroke-opacity:0.3" />
  <g
     aria-label="Krita"
     id="text1450"
     style="font-size:1.76385px;opacity:1;fill:#00ffff;stroke-width:0.529156">
    <rect
       style="font-size:1.76385px;fill:#00ffff;fill-opacity:1;stroke:none;stroke-width:0.519976;stroke-dasharray:none;filter:url(#filter3148)"
       id="rect1656-3"
       width="0.5055005"
       height="2.2653189"
       x="15.369148"
       y="4.3016486"
       rx="0"
       ry="0" />
    <rect
       style="opacity:1;fill:#00ffff;fill-opacity:1;stroke:none;stroke-width:0.519976;stroke-dasharray:none"
       id="rect1656"
       width="0.5055005"
       height="2.2653189"
       x="15.369148"
       y="4.3016486"
       rx="0"
       ry="0" />
  </g>
  <g
     aria-label="Clam TK"
     id="text2284"
     style="font-size:1.76385px;text-align:center;text-anchor:middle;opacity:1;fill:#999999;stroke-width:0.529156">
    <path
       d="m 5.8341247,13.041334 q -0.2028427,0 -0.3192568,0.135816 -0.1164141,0.135817 -0.1164141,0.372173 0,0.234592 0.1075948,0.372172 0.1093587,0.135816 0.3263123,0.135816 0.082901,0 0.1569826,-0.01411 0.074082,-0.01411 0.1446357,-0.03528 v 0.13758 q -0.070554,0.02646 -0.1463995,0.0388 -0.074082,0.01235 -0.1781489,0.01235 -0.1922596,0 -0.3210207,-0.07937 -0.128761,-0.07937 -0.1940235,-0.225772 -0.063499,-0.1464 -0.063499,-0.343951 0,-0.190496 0.06879,-0.335132 0.070554,-0.146399 0.2063704,-0.227536 0.1358165,-0.0829 0.32984,-0.0829 0.199315,0 0.3474784,0.07408 l -0.063499,0.134053 q -0.058207,-0.02646 -0.1305249,-0.04762 -0.070554,-0.02117 -0.1552188,-0.02117 z"
       id="path3097" />
    <path
       d="M 6.5431924,14.179017 H 6.3879736 v -1.340526 h 0.1552188 z"
       id="path3099" />
    <path
       d="m 7.2011074,13.217719 q 0.1728573,0 0.2557583,0.07584 0.082901,0.07585 0.082901,0.241648 v 0.643805 H 7.4268802 l -0.029985,-0.134053 h -0.00706 q -0.061735,0.07761 -0.1305249,0.114651 -0.067026,0.03704 -0.1869681,0.03704 -0.1287611,0 -0.2134259,-0.06703 -0.084665,-0.06879 -0.084665,-0.213426 0,-0.141108 0.1111226,-0.216953 0.1111225,-0.07761 0.3421869,-0.08466 l 0.1605103,-0.0053 v -0.05644 q 0,-0.118178 -0.051152,-0.164038 -0.051152,-0.04586 -0.1446357,-0.04586 -0.074082,0 -0.141108,0.02293 -0.067026,0.02117 -0.1252334,0.04939 l -0.047624,-0.116414 q 0.061735,-0.03351 0.1463995,-0.05644 0.084665,-0.02469 0.176385,-0.02469 z m 0.04586,0.504461 q -0.176385,0.0071 -0.2451751,0.05644 -0.067026,0.04939 -0.067026,0.139344 0,0.07937 0.047624,0.116414 0.049388,0.03704 0.1252334,0.03704 0.1199418,0 0.199315,-0.06526 0.079373,-0.06703 0.079373,-0.204607 v -0.08466 z"
       id="path3101" />
    <path
       d="m 8.8697109,13.215955 q 0.1605104,0 0.2398836,0.0829 0.079373,0.08114 0.079373,0.264577 v 0.615584 h -0.153455 v -0.608528 q 0,-0.224009 -0.1922596,-0.224009 -0.1375803,0 -0.1975512,0.07937 -0.058207,0.07937 -0.058207,0.231064 v 0.5221 H 8.43404 v -0.608528 q 0,-0.224009 -0.1940235,-0.224009 -0.1428719,0 -0.1975512,0.08819 -0.054679,0.08819 -0.054679,0.253995 v 0.49035 H 7.8325671 v -0.945424 h 0.1252334 l 0.02293,0.128762 h 0.00882 q 0.044096,-0.07408 0.1181779,-0.109359 0.075846,-0.03704 0.1605104,-0.03704 0.2222451,0 0.2892714,0.158746 h 0.00882 q 0.047624,-0.08114 0.1287611,-0.119941 0.082901,-0.0388 0.1746211,-0.0388 z"
       id="path3103" />
    <path
       d="M 10.360163,14.179017 H 10.201417 V 13.058972 H 9.8080784 v -0.139344 h 0.9436596 v 0.139344 h -0.391575 z"
       id="path3105" />
    <path
       d="m 11.862964,14.179017 h -0.186969 l -0.446254,-0.601473 -0.128761,0.112887 v 0.488586 h -0.158746 v -1.259389 h 0.158746 v 0.620875 q 0.05292,-0.05997 0.107595,-0.119941 0.05468,-0.05997 0.109359,-0.119942 l 0.340423,-0.380992 h 0.185204 l -0.499169,0.548558 z"
       id="path3107" />
  </g>
  <text
     xml:space="preserve"
     transform="scale(0.26457812)"
     id="text3806"
     style="font-size:6.66667px;white-space:pre;shape-inside:url(#rect3808);display:inline;fill:#999999;stroke-width:2" />
</svg>
