<?xml version="1.0" encoding="UTF-8" standalone="no"?>
<svg
   width="64"
   height="64"
   version="1.1"
   viewBox="0 0 16.933 16.933"
   id="svg7"
   sodipodi:docname="Graphics Template.svg"
   inkscape:version="1.4 (e7c3feb100, 2024-10-09)"
   xmlns:inkscape="http://www.inkscape.org/namespaces/inkscape"
   xmlns:sodipodi="http://sodipodi.sourceforge.net/DTD/sodipodi-0.dtd"
   xmlns:xlink="http://www.w3.org/1999/xlink"
   xmlns="http://www.w3.org/2000/svg"
   xmlns:svg="http://www.w3.org/2000/svg"
   xmlns:rdf="http://www.w3.org/1999/02/22-rdf-syntax-ns#"
   xmlns:cc="http://creativecommons.org/ns#"
   xmlns:dc="http://purl.org/dc/elements/1.1/">
  <sodipodi:namedview
     id="namedview7"
     pagecolor="#9c4444"
     bordercolor="#000000"
     borderopacity="0.25"
     inkscape:showpageshadow="2"
     inkscape:pageopacity="0.0"
     inkscape:pagecheckerboard="0"
     inkscape:deskcolor="#d1d1d1"
     inkscape:zoom="6.15625"
     inkscape:cx="15.756345"
     inkscape:cy="27.126904"
     inkscape:window-width="1226"
     inkscape:window-height="669"
     inkscape:window-x="35"
     inkscape:window-y="32"
     inkscape:window-maximized="0"
     inkscape:current-layer="svg7"
     showgrid="false" />
  <defs
     id="defs2">
    <linearGradient
       inkscape:collect="always"
       id="linearGradient1134">
      <stop
         style="stop-color:#161616;stop-opacity:1;"
         offset="0"
         id="stop1130" />
      <stop
         style="stop-color:#404040;stop-opacity:1;"
         offset="1"
         id="stop1132" />
    </linearGradient>
    <linearGradient
       inkscape:collect="always"
       id="linearGradient883">
      <stop
         style="stop-color:#808080;stop-opacity:1;"
         offset="0"
         id="stop879" />
      <stop
         style="stop-color:#3e3e3e;stop-opacity:1;"
         offset="0.5"
         id="stop1216" />
      <stop
         style="stop-color:#242424;stop-opacity:1;"
         offset="1"
         id="stop881" />
    </linearGradient>
    <linearGradient
       inkscape:collect="always"
       xlink:href="#linearGradient883"
       id="linearGradient885"
       x1="2.1085808"
       y1="2.0236168"
       x2="14.846128"
       y2="15.071845"
       gradientUnits="userSpaceOnUse" />
    <linearGradient
       inkscape:collect="always"
       xlink:href="#linearGradient1134"
       id="linearGradient1136"
       x1="14.971222"
       y1="14.703373"
       x2="2.0756054"
       y2="2.0069976"
       gradientUnits="userSpaceOnUse" />
    <filter
       style="color-interpolation-filters:sRGB;"
       inkscape:label="Blur"
       id="filter1283"
       x="-0.082344266"
       y="-0.082344266"
       width="1.1646885"
       height="1.1646885">
      <feGaussianBlur
         stdDeviation="0.5 0.5"
         result="blur"
         id="feGaussianBlur1281" />
    </filter>
    <filter
       style="color-interpolation-filters:sRGB;"
       inkscape:label="Blur"
       id="filter1694"
       x="-0.94955398"
       y="-0.2118907"
       width="2.899108"
       height="1.4237814">
      <feGaussianBlur
         stdDeviation="0.2 0.2"
         result="blur"
         id="feGaussianBlur1692" />
    </filter>
  </defs>
  <metadata
     id="metadata2">
    <rdf:RDF>
      <cc:Work
         rdf:about="">
        <dc:format>image/svg+xml</dc:format>
        <dc:type
           rdf:resource="http://purl.org/dc/dcmitype/StillImage" />
      </cc:Work>
    </rdf:RDF>
  </metadata>
  <rect
     style="fill:#000000;stroke:none;stroke-width:0.539739;stroke-dasharray:none;filter:url(#filter1283)"
     id="rect246-1"
     width="14.572964"
     height="14.572964"
     x="1.1932471"
     y="1.2138842"
     rx="2.1589575"
     ry="2.1589575" />
  <rect
     style="opacity:1;fill:#000000;stroke:url(#linearGradient885);stroke-width:0.52915625;stroke-dasharray:none"
     id="rect246"
     width="14.287219"
     height="14.287219"
     x="1.3361193"
     y="1.3567564"
     rx="2.1166251"
     ry="2.1166251" />
  <rect
     style="fill:url(#linearGradient1136);fill-opacity:1;stroke:none;stroke-width:0.478315;stroke-dasharray:none"
     id="rect246-5"
     width="12.914515"
     height="12.914515"
     x="2.0224717"
     y="2.0431087"
     rx="1.5874687"
     ry="1.5874687" />
  <path
     style="fill:#999999;stroke-width:0.0117326"
     d="m 8.2413894,10.908434 c -0.016132,-0.0028 -0.076849,-0.01092 -0.1349246,-0.01816 C 7.6850686,10.837754 7.2442227,10.644165 6.8217471,10.326118 6.5573907,10.127105 6.3647091,9.9464454 5.7184881,9.2916862 5.260937,8.8280902 5.080401,8.6680042 4.8114993,8.4874363 4.6927581,8.4077015 4.6356074,8.3478979 4.5932369,8.2590431 4.5032667,8.0703664 4.5199955,7.8237643 4.6340058,7.6580602 4.6566804,7.6251046 4.7213062,7.5620068 4.7776186,7.5178429 4.8982435,7.4232408 5.233569,7.0903993 5.4298291,6.8704636 L 5.5684055,6.71517 5.2124726,6.3468111 C 4.9963985,6.1231936 4.84089,5.9523822 4.8167123,5.9121061 4.6797071,5.683878 4.7163595,5.3989291 4.9072835,5.2079731 5.1019933,5.0132305 5.4157331,4.9813614 5.6390464,5.1336419 c 0.030946,0.021101 0.2099051,0.198077 0.3976885,0.3932777 0.1877835,0.195201 0.3451592,0.3549108 0.3497238,0.3549108 0.00456,0 0.058174,-0.040064 0.1191335,-0.089033 C 6.566551,5.7438298 6.691091,5.6538089 6.7823476,5.5927513 L 6.9482682,5.4817368 6.9308246,5.4148673 C 6.9212308,5.3780893 6.8663649,5.1740017 6.8089009,4.9613394 6.7174013,4.6227178 6.7044213,4.5627451 6.7044213,4.4786064 c 0,-0.4418082 0.4657376,-0.7165029 0.8592255,-0.5067761 0.097018,0.05171 0.1882313,0.1470314 0.2374661,0.2481608 0.024795,0.050929 0.081635,0.2300061 0.1448889,0.4564826 0.057248,0.2049718 0.107068,0.3756558 0.1107102,0.3792979 0.00365,0.00364 0.079682,1.969e-4 0.1689782,-0.00764 0.1527367,-0.013418 0.4066699,-0.00999 0.5847294,0.0079 l 0.070395,0.00707 0.1087692,-0.3896877 C 9.0494068,4.4590826 9.1126666,4.2539204 9.1301615,4.2174949 9.1717415,4.1309219 9.295188,4.0066181 9.3809858,3.9649286 9.6219437,3.8478461 9.874856,3.8884686 10.060979,4.0741484 c 0.123718,0.1234222 0.187286,0.2902547 0.170778,0.4481968 -0.004,0.039015 -0.06042,0.2669302 -0.1252,0.5064789 -0.06478,0.2395491 -0.1162922,0.4416942 -0.114467,0.4492114 0.00189,0.00752 0.074592,0.061404 0.161711,0.1197495 0.08711,0.058344 0.208265,0.1461214 0.269224,0.1950594 0.06096,0.048938 0.1145,0.088979 0.11898,0.088979 0.0045,0 0.154869,-0.1517902 0.334198,-0.3373116 0.179326,-0.1855214 0.344891,-0.3535959 0.367921,-0.3734988 0.207524,-0.1793532 0.524529,-0.1787135 0.740672,0.0015 0.228673,0.1906562 0.277003,0.5157662 0.113473,0.7633304 -0.02086,0.031576 -0.195237,0.2199379 -0.387507,0.4185823 l -0.349585,0.3611713 0.143798,0.1609454 c 0.199904,0.2237406 0.523741,0.5451543 0.646023,0.6411879 0.177241,0.1391956 0.235761,0.2552642 0.237012,0.4700965 0.0014,0.2420094 -0.06237,0.3564999 -0.283056,0.5081385 -0.291697,0.2004315 -0.432234,0.3266031 -0.961118,0.8628811 -0.446283,0.4525213 -0.655935,0.6554126 -0.825779,0.7991496 -0.489779,0.414491 -0.9421778,0.640981 -1.4548412,0.728353 -0.1057461,0.01802 -0.552502,0.03389 -0.6218267,0.02208 z m 0.5068332,-0.70305 c 0.8681695,-0.114606 1.5864424,-0.7083016 1.8568594,-1.5348051 0.02282,-0.069739 0.04149,-0.1317744 0.04149,-0.1378573 0,-0.00676 -0.204962,-0.011059 -0.527278,-0.011059 H 9.5920114 l -0.037307,0.069993 C 9.4654906,8.7590315 9.2813049,8.9455082 9.0994829,9.0525356 8.9085496,9.164927 8.7381985,9.2135145 8.5053669,9.2219906 8.3671857,9.2270098 8.321867,9.2239983 8.2198861,9.2029119 7.9701337,9.1512768 7.7501695,9.0320231 7.5723039,8.851818 7.4139248,8.6913551 7.3075684,8.5085585 7.2490999,8.2963194 7.2117777,8.1608415 7.1985922,7.9285541 7.2199378,7.7825718 7.2953953,7.2665141 7.6985182,6.8436839 8.2179243,6.7357968 c 0.1597104,-0.033174 0.4169816,-0.024725 0.5726253,0.018806 0.321884,0.090024 0.5853779,0.291385 0.7578368,0.5791347 l 0.043952,0.073328 h 0.5273406 0.52734 l -0.0077,-0.032264 C 10.622298,7.3048304 10.549576,7.1073289 10.506084,7.0131907 10.307553,6.5835389 9.9478211,6.2058639 9.5192621,5.9771795 8.8873126,5.6399639 8.0964573,5.6298617 7.4580431,5.9508501 7.0099143,6.1761649 6.6631409,6.5262501 6.4397915,6.9788268 6.272144,7.3185339 6.2018414,7.6526349 6.2151813,8.0462502 c 0.0096,0.2833916 0.054365,0.5070902 0.1495222,0.7472411 0.2083864,0.5259162 0.6079003,0.9588322 1.1082023,1.2008557 0.3982925,0.192677 0.8491848,0.267289 1.2753168,0.211037 z"
     id="path5" />
  <g
     aria-label="Krita"
     id="text1450"
     style="font-size:1.76385px;opacity:1;fill:#999999;stroke-width:0.529156">
    <rect
       style="font-size:1.76385px;fill:#00ff00;fill-opacity:1;stroke:none;stroke-width:0.519976;stroke-dasharray:none;filter:url(#filter1694)"
       id="rect1656-7"
       width="0.5055005"
       height="2.2653189"
       x="15.369148"
       y="4.3016486"
       rx="0"
       ry="0" />
    <rect
       style="opacity:1;fill:#00ff00;fill-opacity:1;stroke:none;stroke-width:0.519976;stroke-dasharray:none"
       id="rect1656"
       width="0.5055005"
       height="2.2653189"
       x="15.369148"
       y="4.3016486"
       rx="0"
       ry="0" />
  </g>
  <path
     d="M 5.0731067,14.179017 H 4.893194 L 4.5598263,13.632224 4.2211671,14.179017 H 4.0536014 L 4.4716338,13.522865 4.0800591,12.919628 h 0.176385 l 0.3086738,0.493878 0.3104376,-0.493878 h 0.1675657 l -0.3898108,0.599709 z m 1.1764887,0 H 6.0643912 L 5.3906005,13.133054 h -0.00706 q 0.00353,0.06174 0.00882,0.153455 0.00529,0.09172 0.00529,0.188732 v 0.703776 H 5.2512563 v -1.259389 h 0.1834404 l 0.6720269,1.042436 h 0.00706 q -0.00176,-0.02822 -0.00529,-0.08466 -0.00176,-0.05644 -0.00529,-0.12347 -0.00176,-0.06703 -0.00176,-0.123469 v -0.710832 h 0.1481634 z m 0.8819252,-1.137683 q -0.2028427,0 -0.3192568,0.135816 -0.1164141,0.135817 -0.1164141,0.372173 0,0.234592 0.1075949,0.372172 0.1093586,0.135816 0.3263122,0.135816 0.082901,0 0.1569826,-0.01411 0.074082,-0.01411 0.1446357,-0.03528 v 0.13758 q -0.070554,0.02646 -0.1463995,0.0388 -0.074082,0.01235 -0.1781489,0.01235 -0.1922596,0 -0.3210206,-0.07937 -0.1287611,-0.07937 -0.1940235,-0.225772 -0.063499,-0.1464 -0.063499,-0.343951 0,-0.190496 0.06879,-0.335132 0.070554,-0.146399 0.2063705,-0.227536 0.1358164,-0.0829 0.3298399,-0.0829 0.199315,0 0.3474784,0.07408 l -0.063499,0.134053 q -0.058207,-0.02646 -0.1305249,-0.04762 -0.070554,-0.02117 -0.1552188,-0.02117 z m 1.3758031,0.663207 q 0,0.234592 -0.1199418,0.363354 -0.118178,0.128761 -0.3210207,0.128761 -0.1252334,0 -0.224009,-0.05644 -0.097012,-0.05821 -0.1534549,-0.167565 -0.056443,-0.111123 -0.056443,-0.268106 0,-0.234592 0.1181779,-0.361589 0.118178,-0.126997 0.3210207,-0.126997 0.1287611,0 0.2257728,0.05821 0.098776,0.05644 0.153455,0.165802 0.056443,0.107595 0.056443,0.264577 z m -0.7143593,0 q 0,0.167566 0.065263,0.266342 0.067026,0.09701 0.211662,0.09701 0.1428718,0 0.2098981,-0.09701 0.067026,-0.09878 0.067026,-0.266342 0,-0.167565 -0.067026,-0.262813 -0.067026,-0.09525 -0.211662,-0.09525 -0.1446357,0 -0.2098981,0.09525 -0.065263,0.09525 -0.065263,0.262813 z m 1.4146067,-0.488586 q 0.1693296,0 0.2557582,0.0829 0.086429,0.08114 0.086429,0.264577 v 0.615584 H 9.396303 v -0.605 q 0,-0.227537 -0.211662,-0.227537 -0.1569826,0 -0.2169535,0.08819 -0.059971,0.08819 -0.059971,0.253995 v 0.49035 H 8.7524978 v -0.945424 h 0.1252333 l 0.02293,0.128762 h 0.00882 q 0.04586,-0.07408 0.1269972,-0.109359 0.081137,-0.03704 0.1710935,-0.03704 z m 0.8431199,0.963062 -0.3580612,-0.945424 h 0.1658019 l 0.2010793,0.557377 q 0.01411,0.0388 0.02998,0.08643 0.01587,0.04762 0.02822,0.09172 0.01235,0.04233 0.01764,0.07232 h 0.0071 q 0.0071,-0.02999 0.0194,-0.07408 0.01411,-0.0441 0.02998,-0.09172 0.01764,-0.04762 0.02999,-0.08467 l 0.201079,-0.557377 h 0.165802 l -0.359826,0.945424 z m 1.053018,-0.963062 q 0.121706,0 0.208134,0.05292 0.08819,0.05292 0.134053,0.149928 0.04762,0.09525 0.04762,0.224009 v 0.09348 h -0.647333 q 0.0035,0.16051 0.08114,0.245175 0.07937,0.0829 0.220481,0.0829 0.08996,0 0.158747,-0.01588 0.07055,-0.01764 0.144636,-0.04939 v 0.135817 q -0.07232,0.03175 -0.142872,0.04586 -0.07055,0.01588 -0.167566,0.01588 -0.134053,0 -0.23812,-0.05468 -0.102303,-0.05468 -0.16051,-0.162274 -0.05644,-0.109359 -0.05644,-0.266341 0,-0.155219 0.05115,-0.266342 0.05292,-0.111122 0.1464,-0.171093 0.09525,-0.05997 0.220481,-0.05997 z m -0.0018,0.126997 q -0.111122,0 -0.176385,0.07232 -0.0635,0.07055 -0.07585,0.197551 h 0.481531 q -0.0018,-0.119942 -0.05644,-0.194023 -0.05468,-0.07585 -0.172858,-0.07585 z m 1.072419,-0.126997 q 0.02646,0 0.05644,0.0035 0.03175,0.0018 0.05468,0.0071 l -0.0194,0.142872 q -0.02293,-0.0053 -0.05115,-0.0088 -0.02646,-0.0035 -0.05115,-0.0035 -0.07232,0 -0.135816,0.04057 -0.0635,0.0388 -0.102303,0.111122 -0.03704,0.07055 -0.03704,0.165802 v 0.504461 h -0.155219 v -0.945424 h 0.126997 l 0.01764,0.172858 h 0.0071 q 0.04586,-0.07761 0.118178,-0.134053 0.07232,-0.05644 0.171093,-0.05644 z m 0.603237,0.853703 q 0.03528,0 0.07232,-0.0053 0.03704,-0.0071 0.05997,-0.01411 v 0.118178 q -0.02469,0.01235 -0.07055,0.0194 -0.04586,0.0088 -0.08819,0.0088 -0.07408,0 -0.137581,-0.02469 -0.06173,-0.02646 -0.100539,-0.08996 -0.0388,-0.0635 -0.0388,-0.178149 v -0.550321 h -0.134052 v -0.07408 l 0.135816,-0.06173 0.06174,-0.201079 h 0.09172 v 0.216953 h 0.273397 v 0.119942 h -0.273397 v 0.546794 q 0,0.08643 0.04057,0.128761 0.04233,0.04057 0.107594,0.04057 z"
     id="text2284"
     style="font-size:1.76385px;fill:#999999;stroke-width:0.529156"
     aria-label="XNConvert" />
</svg>
