<?xml version="1.0" encoding="UTF-8" standalone="no"?>
<svg
   width="64"
   height="64"
   version="1.1"
   viewBox="0 0 16.933 16.933"
   id="svg7"
   sodipodi:docname="com.github.maoschanz.drawing.svg"
   inkscape:version="1.4 (e7c3feb100, 2024-10-09)"
   xmlns:inkscape="http://www.inkscape.org/namespaces/inkscape"
   xmlns:sodipodi="http://sodipodi.sourceforge.net/DTD/sodipodi-0.dtd"
   xmlns:xlink="http://www.w3.org/1999/xlink"
   xmlns="http://www.w3.org/2000/svg"
   xmlns:svg="http://www.w3.org/2000/svg"
   xmlns:rdf="http://www.w3.org/1999/02/22-rdf-syntax-ns#"
   xmlns:cc="http://creativecommons.org/ns#"
   xmlns:dc="http://purl.org/dc/elements/1.1/">
  <sodipodi:namedview
     id="namedview7"
     pagecolor="#9c4444"
     bordercolor="#000000"
     borderopacity="0.25"
     inkscape:showpageshadow="2"
     inkscape:pageopacity="0.0"
     inkscape:pagecheckerboard="0"
     inkscape:deskcolor="#d1d1d1"
     inkscape:zoom="6.15625"
     inkscape:cx="15.51269"
     inkscape:cy="27.370558"
     inkscape:window-width="1183"
     inkscape:window-height="973"
     inkscape:window-x="35"
     inkscape:window-y="32"
     inkscape:window-maximized="0"
     inkscape:current-layer="svg7"
     showgrid="false" />
  <defs
     id="defs2">
    <linearGradient
       inkscape:collect="always"
       id="linearGradient1134">
      <stop
         style="stop-color:#161616;stop-opacity:1;"
         offset="0"
         id="stop1130" />
      <stop
         style="stop-color:#404040;stop-opacity:1;"
         offset="1"
         id="stop1132" />
    </linearGradient>
    <linearGradient
       inkscape:collect="always"
       id="linearGradient883">
      <stop
         style="stop-color:#808080;stop-opacity:1;"
         offset="0"
         id="stop879" />
      <stop
         style="stop-color:#3e3e3e;stop-opacity:1;"
         offset="0.5"
         id="stop1216" />
      <stop
         style="stop-color:#242424;stop-opacity:1;"
         offset="1"
         id="stop881" />
    </linearGradient>
    <linearGradient
       inkscape:collect="always"
       xlink:href="#linearGradient883"
       id="linearGradient885"
       x1="2.1085808"
       y1="2.0236168"
       x2="14.846128"
       y2="15.071845"
       gradientUnits="userSpaceOnUse" />
    <linearGradient
       inkscape:collect="always"
       xlink:href="#linearGradient1134"
       id="linearGradient1136"
       x1="14.971222"
       y1="14.703373"
       x2="2.0756054"
       y2="2.0069976"
       gradientUnits="userSpaceOnUse" />
    <filter
       style="color-interpolation-filters:sRGB;"
       inkscape:label="Blur"
       id="filter1283"
       x="-0.082344266"
       y="-0.082344266"
       width="1.1646885"
       height="1.1646885">
      <feGaussianBlur
         stdDeviation="0.5 0.5"
         result="blur"
         id="feGaussianBlur1281" />
    </filter>
    <filter
       style="color-interpolation-filters:sRGB;"
       inkscape:label="Blur"
       id="filter1694"
       x="-0.94955398"
       y="-0.2118907"
       width="2.899108"
       height="1.4237814">
      <feGaussianBlur
         stdDeviation="0.2 0.2"
         result="blur"
         id="feGaussianBlur1692" />
    </filter>
  </defs>
  <metadata
     id="metadata2">
    <rdf:RDF>
      <cc:Work
         rdf:about="">
        <dc:format>image/svg+xml</dc:format>
        <dc:type
           rdf:resource="http://purl.org/dc/dcmitype/StillImage" />
      </cc:Work>
    </rdf:RDF>
  </metadata>
  <rect
     style="fill:#000000;stroke:none;stroke-width:0.539739;stroke-dasharray:none;filter:url(#filter1283)"
     id="rect246-1"
     width="14.572964"
     height="14.572964"
     x="1.1932471"
     y="1.2138842"
     rx="2.1589575"
     ry="2.1589575" />
  <rect
     style="opacity:1;fill:#000000;stroke:url(#linearGradient885);stroke-width:0.52915625;stroke-dasharray:none"
     id="rect246"
     width="14.287219"
     height="14.287219"
     x="1.3361193"
     y="1.3567564"
     rx="2.1166251"
     ry="2.1166251" />
  <rect
     style="fill:url(#linearGradient1136);stroke:none;stroke-width:0.478315;stroke-dasharray:none;fill-opacity:1"
     id="rect246-5"
     width="12.914515"
     height="12.914515"
     x="2.0224717"
     y="2.0431087"
     rx="1.9132617"
     ry="1.9132617" />
  <path
     id="path10"
     style="fill:#999999;fill-opacity:1;stroke:none;stroke-width:0.0733614"
     d="m 11.602505,4.4793095 c -0.103796,4.881e-4 -0.200449,0.1036814 -0.393018,0.2965943 l -0.26547,0.2660803 0.559012,0.5593184 0.559014,0.559318 0.253569,-0.2523491 c 0.271227,-0.2696259 0.306054,-0.3165298 0.306054,-0.4125467 0,-0.1004457 -0.08252,-0.2026124 -0.488526,-0.603258 C 11.847118,4.6102186 11.720139,4.4787636 11.602505,4.4793095 Z m -0.897411,0.8192958 c -0.01023,0 -0.214172,0.1961678 -0.453436,0.4357374 l -0.435127,0.435432 0.02869,0.082388 C 9.885786,6.3691667 9.865212,6.4977369 9.7783962,6.6702018 9.6425016,6.9401513 9.4215851,7.1610671 9.1516352,7.2969553 8.9763411,7.3851945 8.838,7.4072541 8.7281034,7.3640856 L 8.651819,7.3338769 8.2066223,7.7787684 7.7617307,8.2236597 8.3161671,8.7787057 c 0.3050821,0.3052056 0.5590712,0.5547418 0.5642002,0.5547418 0.00514,0 0.6693547,-0.6601527 1.4762587,-1.4671044 L 11.82373,6.3992387 11.27387,5.8487694 C 10.971362,5.5461355 10.715322,5.2986053 10.705094,5.2986053 Z M 4.8745137,7.449219 c -0.012539,-4.88e-4 -0.024466,7.213e-4 -0.036922,0.00305 -0.1291829,0.024235 -0.2021219,0.1949629 -0.128158,0.3005613 0.015999,0.022842 0.082164,0.066508 0.1467715,0.097034 0.064607,0.030525 0.1297193,0.073471 0.1449405,0.095203 0.043827,0.062573 0.032903,0.1900332 -0.038447,0.4451964 -0.1065959,0.38121 -0.1040902,0.5797369 0.00977,0.7369096 0.1130191,0.1560182 0.2965326,0.2441073 0.5828135,0.2804212 0.2634756,0.033429 0.3935173,0.068542 0.46381,0.1251069 0.1992455,0.1603276 0.2997611,0.4282557 0.3182594,0.8482836 0.00903,0.205133 0.024049,0.249171 0.1019161,0.297511 0.097805,0.06071 0.105547,0.03106 0.016782,-0.065 -0.048524,-0.05251 -0.088262,-0.112413 -0.088185,-0.133041 7.72e-5,-0.02062 0.062653,-0.177271 0.1388379,-0.348163 C 6.6099304,9.9007345 6.6422148,9.8096428 6.6336362,9.7746733 6.6042711,9.6549723 6.4876484,9.4541026 6.3822024,9.3413806 6.193748,9.1399223 6.048302,9.0741881 5.6956415,9.0310556 5.4226538,8.9976665 5.3057862,8.9523017 5.276992,8.8684157 5.2627259,8.8268554 5.2716221,8.7677351 5.3206265,8.584028 5.4485208,8.1045621 5.4536925,7.9976418 5.3578535,7.798907 5.2915091,7.6613335 5.2103625,7.5873994 5.0344072,7.5038384 4.9550704,7.4661606 4.9121359,7.45069 4.8745146,7.4492188 Z M 7.5231128,8.4622777 7.1886815,8.797015 6.8539448,9.1317518 7.412958,9.6910699 7.9722763,10.250388 8.3073178,9.9159571 8.6420545,9.5812202 8.0827361,9.0219009 Z M 6.935417,9.3108679 c -0.018202,0.021951 -0.5309405,1.1514611 -0.5309405,1.1695941 0,0.0092 0.046595,0.06369 0.1037466,0.121444 0.07752,0.07834 0.1113647,0.1014 0.1330403,0.09002 0.01598,-0.0084 0.2809534,-0.128935 0.5886116,-0.267606 C 7.5375337,10.285646 7.7928497,10.169034 7.797432,10.164949 7.802013,10.160899 7.6123319,9.9638371 7.3760364,9.7273814 7.1397409,9.4909244 6.9415144,9.3035139 6.935417,9.3108679 Z" />
  <g
     aria-label="Krita"
     id="text1450"
     style="font-size:1.76385px;opacity:1;fill:#999999;stroke-width:0.529156">
    <rect
       style="font-size:1.76385px;fill:#00ff00;fill-opacity:1;stroke:none;stroke-width:0.519976;stroke-dasharray:none;filter:url(#filter1694)"
       id="rect1656-7"
       width="0.5055005"
       height="2.2653189"
       x="15.369148"
       y="4.3016486"
       rx="0"
       ry="0" />
    <rect
       style="opacity:1;fill:#00ff00;fill-opacity:1;stroke:none;stroke-width:0.519976;stroke-dasharray:none"
       id="rect1656"
       width="0.5055005"
       height="2.2653189"
       x="15.369148"
       y="4.3016486"
       rx="0"
       ry="0" />
  </g>
  <g
     aria-label="Drawing"
     id="text2284"
     style="font-size:1.76385px;opacity:1;fill:#999999;stroke-width:0.529156">
    <path
       d="m 6.0732122,13.536976 q 0,0.319257 -0.1746211,0.481531 -0.1728573,0.16051 -0.4832949,0.16051 H 5.06429 v -1.259389 h 0.388047 q 0.1904958,0 0.32984,0.07055 0.1393441,0.07055 0.2151897,0.208134 0.075846,0.135817 0.075846,0.33866 z m -0.1675657,0.0053 q 0,-0.25223 -0.1252334,-0.368644 Q 5.6569436,13.055445 5.429407,13.055445 H 5.2230365 v 0.987756 H 5.39413 q 0.5115165,0 0.5115165,-0.500934 z"
       id="path2882" />
    <path
       d="m 6.771696,13.215955 q 0.026458,0 0.056443,0.0035 0.031749,0.0018 0.054679,0.0071 l -0.019402,0.142872 q -0.02293,-0.0053 -0.051152,-0.0088 -0.026458,-0.0035 -0.051152,-0.0035 -0.072318,0 -0.1358164,0.04057 -0.063499,0.0388 -0.1023033,0.111122 -0.037041,0.07055 -0.037041,0.165802 v 0.504461 H 6.3307335 v -0.945424 h 0.1269972 l 0.017639,0.172858 h 0.00706 q 0.04586,-0.07761 0.118178,-0.134053 0.072318,-0.05644 0.1710934,-0.05644 z"
       id="path2884" />
    <path
       d="m 7.3819874,13.217719 q 0.1728573,0 0.2557583,0.07584 0.082901,0.07585 0.082901,0.241648 v 0.643805 H 7.6077602 l -0.029985,-0.134053 h -0.00706 q -0.061735,0.07761 -0.1305249,0.114651 -0.067026,0.03704 -0.1869681,0.03704 -0.1287611,0 -0.2134259,-0.06703 -0.084665,-0.06879 -0.084665,-0.213426 0,-0.141108 0.1111226,-0.216953 0.1111225,-0.07761 0.3421869,-0.08466 l 0.1605103,-0.0053 v -0.05644 q 0,-0.118178 -0.051152,-0.164038 -0.051152,-0.04586 -0.1446357,-0.04586 -0.074082,0 -0.141108,0.02293 -0.067026,0.02117 -0.1252334,0.04939 l -0.047624,-0.116414 q 0.061735,-0.03351 0.1463995,-0.05644 0.084665,-0.02469 0.176385,-0.02469 z m 0.04586,0.504461 q -0.176385,0.0071 -0.2451751,0.05644 -0.067026,0.04939 -0.067026,0.139344 0,0.07937 0.047624,0.116414 0.049388,0.03704 0.1252334,0.03704 0.1199418,0 0.199315,-0.06526 0.079373,-0.06703 0.079373,-0.204607 v -0.08466 z"
       id="path2886" />
    <path
       d="m 8.6237392,13.644571 q -0.02293,-0.07232 -0.040568,-0.141108 -0.015875,-0.07055 -0.024694,-0.109359 h -0.00706 q -0.00706,0.0388 -0.02293,0.109359 -0.015875,0.06879 -0.040569,0.142871 L 8.3185932,14.177253 H 8.1422082 L 7.8829223,13.23183 h 0.1605103 l 0.1305249,0.504461 q 0.019402,0.07585 0.037041,0.153455 0.017639,0.07761 0.024694,0.128761 h 0.00706 q 0.00706,-0.02999 0.015875,-0.07408 0.010583,-0.0441 0.02293,-0.09172 0.012347,-0.04939 0.024694,-0.08819 L 8.473812,13.23183 h 0.1693296 l 0.1622742,0.532682 q 0.019402,0.05997 0.037041,0.130525 0.019402,0.07055 0.026458,0.121706 h 0.00706 q 0.00529,-0.0441 0.02293,-0.121706 0.019402,-0.07761 0.040569,-0.158746 L 9.0717571,13.23183 H 9.2305036 L 8.96769,14.177253 H 8.7860134 Z"
       id="path2888" />
    <path
       d="m 9.4792051,12.87906 q 0.035277,0 0.061735,0.02469 0.028222,0.02293 0.028222,0.07408 0,0.04939 -0.028222,0.07408 -0.026458,0.02469 -0.061735,0.02469 -0.038805,0 -0.065262,-0.02469 -0.026458,-0.02469 -0.026458,-0.07408 0,-0.05115 0.026458,-0.07408 0.026458,-0.02469 0.065262,-0.02469 z m 0.075846,0.354533 v 0.945424 H 9.3998319 v -0.945424 z"
       id="path2890" />
    <path
       d="m 10.309978,13.215955 q 0.169329,0 0.255758,0.0829 0.08643,0.08114 0.08643,0.264577 v 0.615584 H 10.49871 v -0.605 q 0,-0.227537 -0.211662,-0.227537 -0.156983,0 -0.216954,0.08819 -0.05997,0.08819 -0.05997,0.253995 v 0.49035 H 9.8549043 v -0.945424 h 0.1252333 l 0.02293,0.128762 h 0.0088 q 0.04586,-0.07408 0.126997,-0.109359 0.08114,-0.03704 0.171094,-0.03704 z"
       id="path2892" />
    <path
       d="m 11.280095,13.215955 q 0.09348,0 0.167566,0.03528 0.07584,0.03528 0.128761,0.107595 h 0.0088 l 0.02117,-0.125234 h 0.12347 v 0.961299 q 0,0.202842 -0.104067,0.305146 -0.102304,0.102303 -0.319257,0.102303 -0.208134,0 -0.340423,-0.05997 v -0.142872 q 0.139344,0.07408 0.349242,0.07408 0.121706,0 0.190496,-0.07232 0.07055,-0.07055 0.07055,-0.194023 v -0.03704 q 0,-0.02117 0.0018,-0.05997 0.0018,-0.04057 0.0035,-0.05644 h -0.0071 q -0.09525,0.142872 -0.292799,0.142872 -0.18344,0 -0.287508,-0.128761 -0.102303,-0.128762 -0.102303,-0.359826 0,-0.225773 0.102303,-0.358061 0.104068,-0.134053 0.285744,-0.134053 z m 0.02117,0.130525 q -0.118178,0 -0.18344,0.09525 -0.06526,0.09348 -0.06526,0.268105 0,0.174621 0.0635,0.268105 0.06526,0.09172 0.188732,0.09172 0.142872,0 0.208134,-0.07585 0.06526,-0.07761 0.06526,-0.248703 v -0.03704 q 0,-0.194023 -0.06703,-0.276924 -0.06703,-0.08467 -0.209898,-0.08467 z"
       id="path2894" />
  </g>
</svg>
