<?xml version="1.0" encoding="UTF-8" standalone="no"?>
<svg
   width="64"
   height="64"
   version="1.1"
   viewBox="0 0 16.933 16.933"
   id="svg7"
   sodipodi:docname="Internet Template.svg"
   inkscape:version="1.4 (e7c3feb100, 2024-10-09)"
   xmlns:inkscape="http://www.inkscape.org/namespaces/inkscape"
   xmlns:sodipodi="http://sodipodi.sourceforge.net/DTD/sodipodi-0.dtd"
   xmlns:xlink="http://www.w3.org/1999/xlink"
   xmlns="http://www.w3.org/2000/svg"
   xmlns:svg="http://www.w3.org/2000/svg"
   xmlns:rdf="http://www.w3.org/1999/02/22-rdf-syntax-ns#"
   xmlns:cc="http://creativecommons.org/ns#"
   xmlns:dc="http://purl.org/dc/elements/1.1/">
  <sodipodi:namedview
     id="namedview7"
     pagecolor="#9c4444"
     bordercolor="#000000"
     borderopacity="0.25"
     inkscape:showpageshadow="2"
     inkscape:pageopacity="0.0"
     inkscape:pagecheckerboard="0"
     inkscape:deskcolor="#d1d1d1"
     inkscape:zoom="6.15625"
     inkscape:cx="15.675127"
     inkscape:cy="29.807107"
     inkscape:window-width="1183"
     inkscape:window-height="973"
     inkscape:window-x="35"
     inkscape:window-y="32"
     inkscape:window-maximized="0"
     inkscape:current-layer="svg7"
     showgrid="false" />
  <defs
     id="defs2">
    <rect
       x="67.489848"
       y="35.60533"
       width="15.337563"
       height="22.51269"
       id="rect3808" />
    <linearGradient
       inkscape:collect="always"
       id="linearGradient1134">
      <stop
         style="stop-color:#161616;stop-opacity:1;"
         offset="0"
         id="stop1130" />
      <stop
         style="stop-color:#404040;stop-opacity:1;"
         offset="1"
         id="stop1132" />
    </linearGradient>
    <linearGradient
       inkscape:collect="always"
       id="linearGradient883">
      <stop
         style="stop-color:#808080;stop-opacity:1;"
         offset="0"
         id="stop879" />
      <stop
         style="stop-color:#3e3e3e;stop-opacity:1;"
         offset="0.5"
         id="stop1216" />
      <stop
         style="stop-color:#242424;stop-opacity:1;"
         offset="1"
         id="stop881" />
    </linearGradient>
    <linearGradient
       inkscape:collect="always"
       xlink:href="#linearGradient883"
       id="linearGradient885"
       x1="2.1085808"
       y1="2.0236168"
       x2="14.846128"
       y2="15.071845"
       gradientUnits="userSpaceOnUse" />
    <linearGradient
       inkscape:collect="always"
       xlink:href="#linearGradient1134"
       id="linearGradient1136"
       x1="14.971222"
       y1="14.703373"
       x2="2.0756054"
       y2="2.0069976"
       gradientUnits="userSpaceOnUse" />
    <filter
       style="color-interpolation-filters:sRGB;"
       inkscape:label="Blur"
       id="filter1283"
       x="-0.082344266"
       y="-0.082344266"
       width="1.1646885"
       height="1.1646885">
      <feGaussianBlur
         stdDeviation="0.5 0.5"
         result="blur"
         id="feGaussianBlur1281" />
    </filter>
    <filter
       style="color-interpolation-filters:sRGB;"
       inkscape:label="Blur"
       id="filter1694"
       x="-0.94955398"
       y="-0.2118907"
       width="2.899108"
       height="1.4237814">
      <feGaussianBlur
         stdDeviation="0.2 0.2"
         result="blur"
         id="feGaussianBlur1692" />
    </filter>
    <filter
       style="color-interpolation-filters:sRGB;"
       inkscape:label="Blur"
       id="filter3148"
       x="-0.94955398"
       y="-0.2118907"
       width="2.899108"
       height="1.4237814">
      <feGaussianBlur
         stdDeviation="0.2 0.2"
         result="blur"
         id="feGaussianBlur3146" />
    </filter>
    <clipPath
       clipPathUnits="userSpaceOnUse"
       id="clipPath44">
      <path
         id="path46"
         style="display:block;opacity:0.85;fill:#f2f2f2;stroke-width:4.39162"
         d="m 17.570312,8.4453125 a 6.5431988,7.4283052 9.9958727e-8 0 0 -6.535156,7.4394535 6.5431988,7.4283052 9.9958727e-8 0 0 6.552735,7.417968 6.5431988,7.4283052 9.9958727e-8 0 0 6.535156,-7.4375 6.5431988,7.4283052 9.9958727e-8 0 0 -6.552735,-7.4199215 z M 45.646484,41.177734 a 6.5431986,7.0703472 2.4665357e-6 0 0 -6.533203,7.080078 6.5431986,7.0703472 2.4665357e-6 0 0 6.550781,7.060547 6.5431986,7.0703472 2.4665357e-6 0 0 6.535157,-7.080078 6.5431986,7.0703472 2.4665357e-6 0 0 -6.552735,-7.060547 z" />
    </clipPath>
    <inkscape:path-effect
       effect="powerclip"
       id="path-effect48"
       is_visible="true"
       lpeversion="1"
       inverse="true"
       flatten="false"
       hide_clip="false"
       message="" />
  </defs>
  <metadata
     id="metadata2">
    <rdf:RDF>
      <cc:Work
         rdf:about="">
        <dc:format>image/svg+xml</dc:format>
        <dc:type
           rdf:resource="http://purl.org/dc/dcmitype/StillImage" />
      </cc:Work>
    </rdf:RDF>
  </metadata>
  <rect
     style="fill:#000000;stroke:none;stroke-width:0.539739;stroke-dasharray:none;filter:url(#filter1283)"
     id="rect246-1"
     width="14.572964"
     height="14.572964"
     x="1.1932471"
     y="1.2138842"
     rx="2.1589575"
     ry="2.1589575" />
  <rect
     style="opacity:1;fill:#000000;stroke:url(#linearGradient885);stroke-width:0.52915625;stroke-dasharray:none"
     id="rect246"
     width="14.287219"
     height="14.287219"
     x="1.3361193"
     y="1.3567564"
     rx="2.1166251"
     ry="2.1166251" />
  <rect
     style="fill:url(#linearGradient1136);fill-opacity:1;stroke:none;stroke-width:0.478315;stroke-dasharray:none"
     id="rect246-5"
     width="12.914515"
     height="12.914515"
     x="2.0224717"
     y="2.0431087"
     rx="1.5874687"
     ry="1.5874687" />
  <path
     id="path6"
     style="fill:#999999;fill-opacity:1;stroke-width:0.035015"
     d="M 8.4703232,3.8570759 C 8.0023321,3.8567131 7.8754308,3.8811073 7.5717523,4.030364 6.9626945,4.329713 6.627639,5.028591 6.5419111,6.17875 L 6.525434,6.4000973 6.6399527,6.3045282 c 0.159589,-0.1331421 0.4385505,-0.3106663 0.61763,-0.3929877 0.082939,-0.038127 0.1536673,-0.070833 0.1573597,-0.072775 0.00369,-0.00194 0.032453,-0.099942 0.063987,-0.2177772 0.1195704,-0.4467955 0.3151253,-0.7353585 0.589344,-0.8702847 0.1470415,-0.07235 0.1706964,-0.076936 0.4017751,-0.076346 0.2198268,5.538e-4 0.2592077,0.00735 0.3778832,0.065086 0.2693712,0.13103 0.4723815,0.4262756 0.596484,0.8678128 l 0.064536,0.2290369 0.1518668,0.068107 c 0.1818013,0.08148 0.5681895,0.3351557 0.6640415,0.4361036 0.03771,0.039713 0.07224,0.072226 0.0769,0.072226 0.0086,0 -0.0013,-0.1165787 -0.04367,-0.5135476 C 10.309399,5.4429347 10.193051,5.0210366 10.02662,4.6971517 9.8905736,4.4323999 9.5989897,4.1395241 9.3573598,4.0248713 9.0539412,3.8809001 8.9295899,3.8574301 8.4703232,3.8570759 Z m 0.035701,1.8103237 c -0.040311,-4.392e-4 -0.080575,8.92e-5 -0.1208349,0.00138 C 7.6766263,5.691372 6.9810909,5.9808218 6.4787474,6.4937481 5.151657,7.8487938 5.5034168,10.082572 7.1804125,10.948705 c 0.3138495,0.162097 0.5851233,0.244017 1.0097936,0.304832 0.3772245,0.05403 0.9474138,-0.03657 1.3893245,-0.220524 0.8339904,-0.347191 1.4715164,-1.1591762 1.6480214,-2.0992274 0.04231,-0.225308 0.03658,-0.74302 -0.01098,-0.9867256 C 11.019972,6.9398326 10.312819,6.1325332 9.3425293,5.8074564 9.0708513,5.7164362 8.7881969,5.6705397 8.5060234,5.6673979 Z m -0.022244,0.8181059 c 0.725341,0.012194 1.4164705,0.4231478 1.7446878,1.0828439 0.610156,1.226373 -0.153346,2.6726866 -1.5087856,2.8580156 C 8.2007815,10.497314 7.6813395,10.356627 7.2482447,10.02816 6.8998401,9.7639216 6.6212014,9.316387 6.5290037,8.8722653 6.4691132,8.5837703 6.4804934,8.1985709 6.5564662,7.9311282 6.6624318,7.5581026 6.9228201,7.1623559 7.2224302,6.9191373 7.3887347,6.7841342 7.7691662,6.5950487 7.9801187,6.5426274 8.14711,6.5011302 8.3163933,6.4826916 8.4837802,6.4855055 Z M 9.535866,7.3931388 c -0.00269,0 -0.1895934,0.062019 -0.4155069,0.137587 C 8.7297455,7.6613839 8.7035339,7.6668171 8.5848417,7.6452442 8.2371467,7.5820488 7.8657137,7.7890535 7.704396,8.1359977 7.653221,8.2460593 7.6427525,8.3022158 7.6423313,8.4674694 7.6418921,8.6457143 7.6496537,8.6826273 7.7184025,8.8222843 7.8379076,9.0650332 8.0714427,9.241112 8.3299911,9.2833787 8.5959893,9.3268595 8.8459584,9.242174 9.0448382,9.0408847 9.2412173,8.842126 9.2955039,8.6968217 9.281838,8.4086997 9.2720977,8.2033163 9.2748494,8.1896646 9.4062431,7.7960129 9.4801664,7.5745425 9.5385376,7.3931388 9.535866,7.3931388 Z" />
  <g
     aria-label="Krita"
     id="text1450"
     style="font-size:1.76385px;opacity:1;fill:#ffff00;stroke-width:0.529156">
    <rect
       style="font-size:1.76385px;fill:#ffff00;fill-opacity:1;stroke:none;stroke-width:0.519976;stroke-dasharray:none;filter:url(#filter3148)"
       id="rect1656-3"
       width="0.5055005"
       height="2.2653189"
       x="15.369148"
       y="4.3016486"
       rx="0"
       ry="0" />
    <rect
       style="opacity:1;fill:#ffff00;fill-opacity:1;stroke:none;stroke-width:0.519976;stroke-dasharray:none"
       id="rect1656"
       width="0.5055005"
       height="2.2653189"
       x="15.369148"
       y="4.3016486"
       rx="0"
       ry="0" />
  </g>
  <path
     d="M 3.8171544,14.179017 3.6654633,13.789206 H 3.1662938 L 3.0163665,14.179017 H 2.8558562 l 0.4921141,-1.26468 h 0.1428719 l 0.4903503,1.26468 z m -0.340423,-0.91191 q -0.00529,-0.01411 -0.017638,-0.05115 -0.012347,-0.03704 -0.024694,-0.07585 -0.010583,-0.04057 -0.017638,-0.06173 -0.012347,0.05468 -0.028222,0.107595 -0.015875,0.05115 -0.026458,0.08114 l -0.1428718,0.380991 h 0.3986301 z m 1.4463568,-0.03351 v 0.945424 H 4.796091 l -0.02293,-0.125233 h -0.00706 q -0.04586,0.07408 -0.1269972,0.109358 -0.081137,0.03351 -0.1728573,0.03351 -0.1710935,0 -0.2575221,-0.08114 -0.086429,-0.0829 -0.086429,-0.262813 V 13.233593 H 4.279283 v 0.608529 q 0,0.225773 0.2098981,0.225773 0.1569827,0 0.2169536,-0.08819 0.061735,-0.08819 0.061735,-0.253994 v -0.492115 z m 0.6155836,0.836065 q 0.035277,0 0.072318,-0.0053 0.037041,-0.0071 0.059971,-0.01411 v 0.118178 q -0.024694,0.01235 -0.070554,0.0194 -0.04586,0.0088 -0.088193,0.0088 -0.074082,0 -0.1375803,-0.02469 -0.061735,-0.02646 -0.1005395,-0.08996 -0.038805,-0.0635 -0.038805,-0.178149 V 13.353535 H 5.1012371 v -0.07408 l 0.1358164,-0.06173 0.061735,-0.201079 h 0.09172 v 0.216953 h 0.2733968 v 0.119942 H 5.3905084 v 0.546794 q 0,0.08643 0.040569,0.128761 0.042332,0.04057 0.1075948,0.04057 z M 6.0149115,13.23183 q 0,0.07055 -0.00882,0.132288 h 0.010583 q 0.04586,-0.07232 0.1234695,-0.109358 0.079373,-0.03704 0.1710935,-0.03704 0.1728573,0 0.2592859,0.0829 0.086429,0.08114 0.086429,0.262813 v 0.615584 h -0.153455 v -0.605 q 0,-0.227537 -0.211662,-0.227537 -0.1587465,0 -0.2187174,0.08996 -0.058207,0.08819 -0.058207,0.253995 v 0.488586 H 5.8596927 v -1.340526 h 0.1552188 z m 1.2999574,-0.01588 q 0.1217057,0 0.2081343,0.05292 0.088192,0.05292 0.1340526,0.149928 0.047624,0.09525 0.047624,0.224009 v 0.09348 h -0.647333 q 0.00353,0.16051 0.081137,0.245175 0.079373,0.0829 0.2204813,0.0829 0.089956,0 0.1587465,-0.01588 0.070554,-0.01764 0.1446357,-0.04939 v 0.135817 q -0.072318,0.03175 -0.1428719,0.04586 -0.070554,0.01588 -0.1675657,0.01588 -0.1340526,0 -0.2381198,-0.05468 -0.1023033,-0.05468 -0.1605103,-0.162274 -0.056443,-0.109359 -0.056443,-0.266341 0,-0.155219 0.051152,-0.266342 0.052916,-0.111122 0.1463996,-0.171093 0.095248,-0.05997 0.2204812,-0.05997 z m -0.00176,0.126997 q -0.1111226,0 -0.176385,0.07232 -0.063499,0.07055 -0.075846,0.197551 h 0.4815311 q -0.00176,-0.119942 -0.056443,-0.194023 -0.054679,-0.07585 -0.1728573,-0.07585 z m 1.08653,-0.126997 q 0.1693296,0 0.2557583,0.0829 0.086429,0.08114 0.086429,0.264577 v 0.615584 H 8.5883671 v -0.605 q 0,-0.227537 -0.211662,-0.227537 -0.1569827,0 -0.2169536,0.08819 -0.059971,0.08819 -0.059971,0.253995 v 0.49035 H 7.9445618 v -0.945424 h 0.1252334 l 0.02293,0.128762 h 0.00882 q 0.04586,-0.07408 0.1269972,-0.109359 0.081137,-0.03704 0.1710934,-0.03704 z m 0.9507152,0.853703 q 0.035277,0 0.072318,-0.0053 0.037041,-0.0071 0.059971,-0.01411 v 0.118178 q -0.024694,0.01235 -0.070554,0.0194 -0.04586,0.0088 -0.088192,0.0088 -0.074082,0 -0.1375803,-0.02469 -0.061735,-0.02646 -0.1005394,-0.08996 -0.038805,-0.0635 -0.038805,-0.178149 V 13.353535 H 8.9129155 v -0.07408 l 0.1358164,-0.06173 0.061735,-0.201079 h 0.09172 v 0.216953 h 0.2733967 v 0.119942 H 9.2021869 v 0.546794 q 0,0.08643 0.040569,0.128761 0.042332,0.04057 0.1075949,0.04057 z M 9.7507441,12.87906 q 0.035277,0 0.061735,0.02469 0.028222,0.02293 0.028222,0.07408 0,0.04939 -0.028222,0.07408 -0.026458,0.02469 -0.061735,0.02469 -0.038805,0 -0.065262,-0.02469 -0.026458,-0.02469 -0.026458,-0.07408 0,-0.05115 0.026458,-0.07408 0.026458,-0.02469 0.065262,-0.02469 z m 0.075846,0.354533 v 0.945424 H 9.6713709 v -0.945424 z m 0.6790813,0.963063 q -0.125233,0 -0.224009,-0.05115 -0.09701,-0.05115 -0.153455,-0.158747 -0.05468,-0.107594 -0.05468,-0.27516 0,-0.174621 0.05821,-0.28398 0.05821,-0.109359 0.156982,-0.16051 0.10054,-0.05115 0.227537,-0.05115 0.07232,0 0.139344,0.01588 0.06703,0.01411 0.109359,0.03528 l -0.04762,0.128761 q -0.04233,-0.01587 -0.09878,-0.02999 -0.05644,-0.01411 -0.105831,-0.01411 -0.278688,0 -0.278688,0.358062 0,0.171093 0.06703,0.262814 0.06879,0.08996 0.202843,0.08996 0.07761,0 0.135817,-0.01587 0.05997,-0.01587 0.109358,-0.0388 v 0.13758 q -0.04762,0.02469 -0.105831,0.03704 -0.05644,0.01411 -0.13758,0.01411 z m 0.825481,-0.978937 q 0.172857,0 0.255758,0.07584 0.0829,0.07585 0.0829,0.241648 v 0.643805 h -0.112886 l -0.02999,-0.134053 h -0.0071 q -0.06173,0.07761 -0.130525,0.114651 -0.06703,0.03704 -0.186968,0.03704 -0.128761,0 -0.213426,-0.06703 -0.08467,-0.06879 -0.08467,-0.213426 0,-0.141108 0.111123,-0.216953 0.111122,-0.07761 0.342187,-0.08466 l 0.16051,-0.0053 v -0.05644 q 0,-0.118178 -0.05115,-0.164038 -0.05115,-0.04586 -0.144636,-0.04586 -0.07408,0 -0.141108,0.02293 -0.06703,0.02117 -0.125234,0.04939 l -0.04762,-0.116414 q 0.06173,-0.03351 0.146399,-0.05644 0.08467,-0.02469 0.176385,-0.02469 z m 0.04586,0.504461 q -0.176385,0.0071 -0.245175,0.05644 -0.06703,0.04939 -0.06703,0.139344 0,0.07937 0.04762,0.116414 0.04939,0.03704 0.125233,0.03704 0.119942,0 0.199315,-0.06526 0.07937,-0.06703 0.07937,-0.204607 v -0.08466 z m 0.901329,0.347478 q 0.03528,0 0.07232,-0.0053 0.03704,-0.0071 0.05997,-0.01411 v 0.118178 q -0.02469,0.01235 -0.07055,0.0194 -0.04586,0.0088 -0.08819,0.0088 -0.07408,0 -0.13758,-0.02469 -0.06173,-0.02646 -0.10054,-0.08996 -0.0388,-0.0635 -0.0388,-0.178149 v -0.550321 h -0.134052 v -0.07408 l 0.135816,-0.06173 0.06173,-0.201079 h 0.09172 v 0.216953 h 0.273397 v 0.119942 h -0.273397 v 0.546794 q 0,0.08643 0.04057,0.128761 0.04233,0.04057 0.107595,0.04057 z m 1.142975,-0.365117 q 0,0.234592 -0.119942,0.363354 -0.118178,0.128761 -0.321021,0.128761 -0.125233,0 -0.224009,-0.05644 -0.09701,-0.05821 -0.153455,-0.167565 -0.05644,-0.111123 -0.05644,-0.268106 0,-0.234592 0.118178,-0.361589 0.118178,-0.126997 0.321021,-0.126997 0.128761,0 0.225773,0.05821 0.09877,0.05644 0.153455,0.165802 0.05644,0.107595 0.05644,0.264577 z m -0.714359,0 q 0,0.167566 0.06526,0.266342 0.06703,0.09701 0.211662,0.09701 0.142872,0 0.209898,-0.09701 0.06703,-0.09878 0.06703,-0.266342 0,-0.167565 -0.06703,-0.262813 -0.06703,-0.09525 -0.211662,-0.09525 -0.144635,0 -0.209898,0.09525 -0.06526,0.09525 -0.06526,0.262813 z m 1.400495,-0.488586 q 0.02646,0 0.05644,0.0035 0.03175,0.0018 0.05468,0.0071 l -0.0194,0.142872 q -0.02293,-0.0053 -0.05115,-0.0088 -0.02646,-0.0035 -0.05115,-0.0035 -0.07232,0 -0.135816,0.04057 -0.0635,0.0388 -0.102303,0.111122 -0.03704,0.07055 -0.03704,0.165802 v 0.504461 H 13.66649 v -0.945424 h 0.126997 l 0.01764,0.172858 h 0.0071 q 0.04586,-0.07761 0.118178,-0.134053 0.07232,-0.05644 0.171093,-0.05644 z"
     id="text2284"
     style="font-size:1.76385px;fill:#999999;stroke-width:0.529156"
     aria-label="Authenticator" />
  <text
     xml:space="preserve"
     transform="scale(0.26457812)"
     id="text3806"
     style="fill:#999999;stroke-width:2;font-size:6.66666667px;white-space:pre;shape-inside:url(#rect3808)" />
</svg>
