<?xml version="1.0" encoding="UTF-8" standalone="no"?>
<svg
   width="64"
   height="64"
   version="1.1"
   viewBox="0 0 16.933 16.933"
   id="svg7"
   sodipodi:docname="com.visualstudio.code-oss.svg"
   inkscape:version="1.4 (e7c3feb100, 2024-10-09)"
   xmlns:inkscape="http://www.inkscape.org/namespaces/inkscape"
   xmlns:sodipodi="http://sodipodi.sourceforge.net/DTD/sodipodi-0.dtd"
   xmlns:xlink="http://www.w3.org/1999/xlink"
   xmlns="http://www.w3.org/2000/svg"
   xmlns:svg="http://www.w3.org/2000/svg"
   xmlns:rdf="http://www.w3.org/1999/02/22-rdf-syntax-ns#"
   xmlns:cc="http://creativecommons.org/ns#"
   xmlns:dc="http://purl.org/dc/elements/1.1/">
  <sodipodi:namedview
     id="namedview7"
     pagecolor="#9c4444"
     bordercolor="#000000"
     borderopacity="0.25"
     inkscape:showpageshadow="2"
     inkscape:pageopacity="0.0"
     inkscape:pagecheckerboard="0"
     inkscape:deskcolor="#d1d1d1"
     inkscape:zoom="6.15625"
     inkscape:cx="15.675127"
     inkscape:cy="29.807107"
     inkscape:window-width="1183"
     inkscape:window-height="973"
     inkscape:window-x="35"
     inkscape:window-y="32"
     inkscape:window-maximized="0"
     inkscape:current-layer="svg7"
     showgrid="false" />
  <defs
     id="defs2">
    <rect
       x="67.489848"
       y="35.60533"
       width="15.337563"
       height="22.51269"
       id="rect3808" />
    <linearGradient
       inkscape:collect="always"
       id="linearGradient1134">
      <stop
         style="stop-color:#161616;stop-opacity:1;"
         offset="0"
         id="stop1130" />
      <stop
         style="stop-color:#404040;stop-opacity:1;"
         offset="1"
         id="stop1132" />
    </linearGradient>
    <linearGradient
       inkscape:collect="always"
       id="linearGradient883">
      <stop
         style="stop-color:#808080;stop-opacity:1;"
         offset="0"
         id="stop879" />
      <stop
         style="stop-color:#3e3e3e;stop-opacity:1;"
         offset="0.5"
         id="stop1216" />
      <stop
         style="stop-color:#242424;stop-opacity:1;"
         offset="1"
         id="stop881" />
    </linearGradient>
    <linearGradient
       inkscape:collect="always"
       xlink:href="#linearGradient883"
       id="linearGradient885"
       x1="2.1085808"
       y1="2.0236168"
       x2="14.846128"
       y2="15.071845"
       gradientUnits="userSpaceOnUse" />
    <linearGradient
       inkscape:collect="always"
       xlink:href="#linearGradient1134"
       id="linearGradient1136"
       x1="14.971222"
       y1="14.703373"
       x2="2.0756054"
       y2="2.0069976"
       gradientUnits="userSpaceOnUse" />
    <filter
       style="color-interpolation-filters:sRGB;"
       inkscape:label="Blur"
       id="filter1283"
       x="-0.082344266"
       y="-0.082344266"
       width="1.1646885"
       height="1.1646885">
      <feGaussianBlur
         stdDeviation="0.5 0.5"
         result="blur"
         id="feGaussianBlur1281" />
    </filter>
    <filter
       style="color-interpolation-filters:sRGB;"
       inkscape:label="Blur"
       id="filter1694"
       x="-0.94955398"
       y="-0.2118907"
       width="2.899108"
       height="1.4237814">
      <feGaussianBlur
         stdDeviation="0.2 0.2"
         result="blur"
         id="feGaussianBlur1692" />
    </filter>
    <filter
       style="color-interpolation-filters:sRGB;"
       inkscape:label="Blur"
       id="filter3148"
       x="-0.94955398"
       y="-0.2118907"
       width="2.899108"
       height="1.4237814">
      <feGaussianBlur
         stdDeviation="0.2 0.2"
         result="blur"
         id="feGaussianBlur3146" />
    </filter>
    <clipPath
       clipPathUnits="userSpaceOnUse"
       id="clipPath44">
      <path
         id="path46"
         style="display:block;opacity:0.85;fill:#f2f2f2;stroke-width:4.39162"
         d="m 17.570312,8.4453125 a 6.5431988,7.4283052 9.9958727e-8 0 0 -6.535156,7.4394535 6.5431988,7.4283052 9.9958727e-8 0 0 6.552735,7.417968 6.5431988,7.4283052 9.9958727e-8 0 0 6.535156,-7.4375 6.5431988,7.4283052 9.9958727e-8 0 0 -6.552735,-7.4199215 z M 45.646484,41.177734 a 6.5431986,7.0703472 2.4665357e-6 0 0 -6.533203,7.080078 6.5431986,7.0703472 2.4665357e-6 0 0 6.550781,7.060547 6.5431986,7.0703472 2.4665357e-6 0 0 6.535157,-7.080078 6.5431986,7.0703472 2.4665357e-6 0 0 -6.552735,-7.060547 z" />
    </clipPath>
    <inkscape:path-effect
       effect="powerclip"
       id="path-effect48"
       is_visible="true"
       lpeversion="1"
       inverse="true"
       flatten="false"
       hide_clip="false"
       message="" />
  </defs>
  <metadata
     id="metadata2">
    <rdf:RDF>
      <cc:Work
         rdf:about="">
        <dc:format>image/svg+xml</dc:format>
        <dc:type
           rdf:resource="http://purl.org/dc/dcmitype/StillImage" />
      </cc:Work>
    </rdf:RDF>
  </metadata>
  <rect
     style="fill:#000000;stroke:none;stroke-width:0.539739;stroke-dasharray:none;filter:url(#filter1283)"
     id="rect246-1"
     width="14.572964"
     height="14.572964"
     x="1.1932471"
     y="1.2138842"
     rx="2.1589575"
     ry="2.1589575" />
  <rect
     style="opacity:1;fill:#000000;stroke:url(#linearGradient885);stroke-width:0.52915625;stroke-dasharray:none"
     id="rect246"
     width="14.287219"
     height="14.287219"
     x="1.3361193"
     y="1.3567564"
     rx="2.1166251"
     ry="2.1166251" />
  <rect
     style="fill:url(#linearGradient1136);fill-opacity:1;stroke:none;stroke-width:0.478315;stroke-dasharray:none"
     id="rect246-5"
     width="12.914515"
     height="12.914515"
     x="2.0224717"
     y="2.0431087"
     rx="1.5874687"
     ry="1.5874687" />
  <g
     id="g10"
     transform="matrix(0.14060767,0,0,0.14060766,3.8098099,2.9087418)"
     style="fill:#999999;fill-opacity:1">
    <g
       id="path5"
       style="fill:#999999;fill-opacity:1">
      <path
         style="color:#000000;fill:#999999;fill-opacity:1;stroke-linecap:round;-inkscape-stroke:none"
         d="M 22,7 V 57"
         id="path1" />
      <path
         style="color:#000000;fill:#999999;fill-opacity:1;stroke-linecap:round;-inkscape-stroke:none"
         d="m 22,4 a 3,3 0 0 0 -3,3 v 50 a 3,3 0 0 0 3,3 3,3 0 0 0 3,-3 V 7 A 3,3 0 0 0 22,4 Z"
         id="path2" />
    </g>
    <g
       id="path6"
       style="fill:#999999;fill-opacity:1">
      <path
         style="color:#000000;fill:#999999;fill-opacity:1;stroke-linecap:round;-inkscape-stroke:none"
         d="M 30.042727,13.9994 H 41"
         id="path4" />
      <path
         style="color:#000000;fill:#999999;fill-opacity:1;stroke-linecap:round;-inkscape-stroke:none"
         d="m 30.042969,11 a 3,3 0 0 0 -3,3 3,3 0 0 0 3,3 H 41 a 3,3 0 0 0 3,-3 3,3 0 0 0 -3,-3 z"
         id="path12" />
    </g>
    <g
       id="path7"
       style="fill:#999999;fill-opacity:1">
      <path
         style="color:#000000;fill:#999999;fill-opacity:1;stroke-linecap:round;-inkscape-stroke:none"
         d="M 34.042727,22.9997 H 48"
         id="path13" />
      <path
         style="color:#000000;fill:#999999;fill-opacity:1;stroke-linecap:round;-inkscape-stroke:none"
         d="m 34.042969,20 a 3,3 0 0 0 -3,3 3,3 0 0 0 3,3 H 48 a 3,3 0 0 0 3,-3 3,3 0 0 0 -3,-3 z"
         id="path14" />
    </g>
    <g
       id="path8"
       style="fill:#999999;fill-opacity:1">
      <path
         style="color:#000000;fill:#999999;fill-opacity:1;stroke-linecap:round;-inkscape-stroke:none"
         d="M 34.042727,31.9997 H 48"
         id="path15" />
      <path
         style="color:#000000;fill:#999999;fill-opacity:1;stroke-linecap:round;-inkscape-stroke:none"
         d="m 34.042969,29 a 3,3 0 0 0 -3,3 3,3 0 0 0 3,3 H 48 a 3,3 0 0 0 3,-3 3,3 0 0 0 -3,-3 z"
         id="path16" />
    </g>
    <g
       id="path9"
       style="fill:#999999;fill-opacity:1">
      <path
         style="color:#000000;fill:#999999;fill-opacity:1;stroke-linecap:round;-inkscape-stroke:none"
         d="M 34.042727,40.9997 H 48"
         id="path17" />
      <path
         style="color:#000000;fill:#999999;fill-opacity:1;stroke-linecap:round;-inkscape-stroke:none"
         d="m 34.042969,38 a 3,3 0 0 0 -3,3 3,3 0 0 0 3,3 H 48 a 3,3 0 0 0 3,-3 3,3 0 0 0 -3,-3 z"
         id="path19" />
    </g>
    <g
       id="path10"
       style="fill:#999999;fill-opacity:1">
      <path
         style="color:#000000;fill:#999999;fill-opacity:1;stroke-linecap:round;-inkscape-stroke:none"
         d="M 30.042727,49.9997 H 41"
         id="path21" />
      <path
         style="color:#000000;fill:#999999;fill-opacity:1;stroke-linecap:round;-inkscape-stroke:none"
         d="m 30.042969,47 a 3,3 0 0 0 -3,3 3,3 0 0 0 3,3 H 41 a 3,3 0 0 0 3,-3 3,3 0 0 0 -3,-3 z"
         id="path23" />
    </g>
  </g>
  <g
     fill="#474747"
     id="g9"
     transform="matrix(0.46959567,0,0,0.46959567,4.7471229,3.7470598)"
     style="fill:#999999;fill-opacity:1;stroke:none;stroke-width:0.58349;stroke-dasharray:none;stroke-opacity:0.3" />
  <g
     aria-label="Krita"
     id="text1450"
     style="font-size:1.76385px;opacity:1;fill:#8a916f;stroke-width:0.529156">
    <rect
       style="font-size:1.76385px;fill:#8a916f;fill-opacity:1;stroke:none;stroke-width:0.519976;stroke-dasharray:none;filter:url(#filter3148)"
       id="rect1656-3"
       width="0.5055005"
       height="2.2653189"
       x="15.369148"
       y="4.3016486"
       rx="0"
       ry="0" />
    <rect
       style="opacity:1;fill:#8a916f;fill-opacity:1;stroke:none;stroke-width:0.519976;stroke-dasharray:none"
       id="rect1656"
       width="0.5055005"
       height="2.2653189"
       x="15.369148"
       y="4.3016486"
       rx="0"
       ry="0" />
  </g>
  <g
     aria-label="Code OSS"
     id="text2284"
     style="font-size:1.76385px;text-align:center;text-anchor:middle;opacity:1;fill:#999999;stroke-width:0.529156">
    <path
       d="m 5.0748711,13.041334 q -0.2028427,0 -0.3192568,0.135816 -0.1164141,0.135817 -0.1164141,0.372173 0,0.234592 0.1075949,0.372172 0.1093587,0.135816 0.3263122,0.135816 0.082901,0 0.1569826,-0.01411 0.074082,-0.01411 0.1446357,-0.03528 v 0.13758 q -0.070554,0.02646 -0.1463995,0.0388 -0.074082,0.01235 -0.1781488,0.01235 -0.1922597,0 -0.3210207,-0.07937 -0.1287611,-0.07937 -0.1940235,-0.225772 -0.063499,-0.1464 -0.063499,-0.343951 0,-0.190496 0.06879,-0.335132 0.070554,-0.146399 0.2063705,-0.227536 0.1358164,-0.0829 0.3298399,-0.0829 0.199315,0 0.3474784,0.07408 l -0.063499,0.134053 q -0.058207,-0.02646 -0.1305249,-0.04762 -0.070554,-0.02117 -0.1552188,-0.02117 z"
       id="path1928" />
    <path
       d="m 6.4506741,13.704541 q 0,0.234592 -0.1199418,0.363354 -0.118178,0.128761 -0.3210207,0.128761 -0.1252334,0 -0.224009,-0.05644 -0.097012,-0.05821 -0.1534549,-0.167565 -0.056443,-0.111123 -0.056443,-0.268106 0,-0.234592 0.1181779,-0.361589 0.118178,-0.126997 0.3210207,-0.126997 0.1287611,0 0.2257728,0.05821 0.098776,0.05644 0.153455,0.165802 0.056443,0.107595 0.056443,0.264577 z m -0.7143593,0 q 0,0.167566 0.065263,0.266342 0.067026,0.09701 0.211662,0.09701 0.1428718,0 0.2098981,-0.09701 0.067026,-0.09878 0.067026,-0.266342 0,-0.167565 -0.067026,-0.262813 -0.067026,-0.09525 -0.211662,-0.09525 -0.1446357,0 -0.2098981,0.09525 -0.065263,0.09525 -0.065263,0.262813 z"
       id="path1930" />
    <path
       d="m 7.0309798,14.196656 q -0.176385,0 -0.282216,-0.121706 -0.105831,-0.12347 -0.105831,-0.366881 0,-0.243411 0.105831,-0.366881 0.1075948,-0.125233 0.2839798,-0.125233 0.1093587,0 0.1781489,0.04057 0.070554,0.04057 0.1146502,0.09877 h 0.010583 q -0.00176,-0.02293 -0.00706,-0.06703 -0.00353,-0.04586 -0.00353,-0.07232 v -0.377464 h 0.1552188 v 1.340526 H 7.3555282 l -0.02293,-0.126997 h -0.00706 q -0.042332,0.05997 -0.1128864,0.102303 -0.070554,0.04233 -0.1816765,0.04233 z m 0.024694,-0.128761 q 0.1499272,0 0.2098981,-0.08114 0.061735,-0.0829 0.061735,-0.248702 v -0.02822 q 0,-0.176385 -0.058207,-0.269869 -0.058207,-0.09525 -0.2151897,-0.09525 -0.1252333,0 -0.1887319,0.100539 -0.061735,0.09878 -0.061735,0.266342 0,0.169329 0.061735,0.262813 0.063499,0.09348 0.1904958,0.09348 z"
       id="path1932" />
    <path
       d="m 8.1457326,13.215955 q 0.1217056,0 0.2081343,0.05292 0.088192,0.05292 0.1340526,0.149928 0.047624,0.09525 0.047624,0.224009 v 0.09348 H 7.8882105 q 0.00353,0.16051 0.081137,0.245175 0.079373,0.0829 0.2204812,0.0829 0.089956,0 0.1587465,-0.01588 0.070554,-0.01764 0.1446357,-0.04939 v 0.135817 q -0.072318,0.03175 -0.1428718,0.04586 -0.070554,0.01588 -0.1675658,0.01588 -0.1340526,0 -0.2381197,-0.05468 -0.1023033,-0.05468 -0.1605104,-0.162274 -0.056443,-0.109359 -0.056443,-0.266341 0,-0.155219 0.051152,-0.266342 0.052916,-0.111122 0.1463995,-0.171093 0.095248,-0.05997 0.2204813,-0.05997 z m -0.00176,0.126997 q -0.1111225,0 -0.176385,0.07232 -0.063499,0.07055 -0.075845,0.197551 h 0.481531 q -0.00176,-0.119942 -0.056443,-0.194023 -0.054679,-0.07585 -0.1728573,-0.07585 z"
       id="path1934" />
    <path
       d="m 10.354072,13.547559 q 0,0.195787 -0.06703,0.342187 -0.06526,0.144635 -0.194024,0.225772 -0.1287609,0.08114 -0.3192567,0.08114 -0.1957873,0 -0.3263122,-0.08114 -0.1287611,-0.08114 -0.1922597,-0.227536 -0.063499,-0.1464 -0.063499,-0.342187 0,-0.194024 0.063499,-0.338659 0.063499,-0.144636 0.1922597,-0.225773 0.1305249,-0.08114 0.328076,-0.08114 0.188732,0 0.3174929,0.08114 0.128761,0.07937 0.194024,0.225773 0.06703,0.144635 0.06703,0.340423 z m -0.9948114,0 q 0,0.23812 0.1005394,0.3757 0.1005395,0.135816 0.3139653,0.135816 0.2151897,0 0.3139657,-0.135816 0.09877,-0.13758 0.09877,-0.3757 0,-0.23812 -0.09877,-0.372173 -0.098776,-0.135816 -0.3122019,-0.135816 -0.2134258,0 -0.3157291,0.135816 -0.1005394,0.134053 -0.1005394,0.372173 z"
       id="path1936" />
    <path
       d="m 11.347119,13.842122 q 0,0.167565 -0.121705,0.26105 -0.121706,0.09348 -0.328076,0.09348 -0.105831,0 -0.195788,-0.01588 -0.08996,-0.01587 -0.149927,-0.0441 v -0.151691 q 0.0635,0.02822 0.156983,0.05115 0.09525,0.02293 0.195787,0.02293 0.141108,0 0.211662,-0.05468 0.07232,-0.05468 0.07232,-0.148163 0,-0.06173 -0.02646,-0.104068 -0.02646,-0.04233 -0.09172,-0.07761 -0.0635,-0.03704 -0.178149,-0.07761 -0.16051,-0.05821 -0.243411,-0.142872 -0.08114,-0.08466 -0.08114,-0.231065 0,-0.100539 0.05115,-0.171093 0.05115,-0.07232 0.141108,-0.111123 0.09172,-0.0388 0.209899,-0.0388 0.104067,0 0.190495,0.0194 0.08643,0.0194 0.156983,0.05115 l -0.04939,0.135816 q -0.06526,-0.02822 -0.142872,-0.04762 -0.07584,-0.0194 -0.158746,-0.0194 -0.118178,0 -0.178149,0.05115 -0.05997,0.04939 -0.05997,0.132289 0,0.0635 0.02646,0.105831 0.02646,0.04233 0.08643,0.07585 0.05997,0.03351 0.162274,0.07232 0.111122,0.04057 0.186968,0.08819 0.07761,0.04586 0.116414,0.111123 0.04057,0.06526 0.04057,0.164038 z"
       id="path1938" />
    <path
       d="m 12.315473,13.842122 q 0,0.167565 -0.121706,0.26105 -0.121706,0.09348 -0.328076,0.09348 -0.105831,0 -0.195787,-0.01588 -0.08996,-0.01587 -0.149928,-0.0441 v -0.151691 q 0.0635,0.02822 0.156983,0.05115 0.09525,0.02293 0.195787,0.02293 0.141108,0 0.211662,-0.05468 0.07232,-0.05468 0.07232,-0.148163 0,-0.06173 -0.02646,-0.104068 -0.02646,-0.04233 -0.09172,-0.07761 -0.0635,-0.03704 -0.178149,-0.07761 -0.16051,-0.05821 -0.243411,-0.142872 -0.08114,-0.08466 -0.08114,-0.231065 0,-0.100539 0.05115,-0.171093 0.05115,-0.07232 0.141108,-0.111123 0.09172,-0.0388 0.209898,-0.0388 0.104067,0 0.190496,0.0194 0.08643,0.0194 0.156982,0.05115 l -0.04939,0.135816 q -0.06526,-0.02822 -0.142871,-0.04762 -0.07585,-0.0194 -0.158747,-0.0194 -0.118178,0 -0.178149,0.05115 -0.05997,0.04939 -0.05997,0.132289 0,0.0635 0.02646,0.105831 0.02646,0.04233 0.08643,0.07585 0.05997,0.03351 0.162274,0.07232 0.111123,0.04057 0.186968,0.08819 0.07761,0.04586 0.116414,0.111123 0.04057,0.06526 0.04057,0.164038 z"
       id="path1940" />
  </g>
  <text
     xml:space="preserve"
     transform="scale(0.26457812)"
     id="text3806"
     style="font-size:6.66667px;white-space:pre;shape-inside:url(#rect3808);display:inline;fill:#999999;stroke-width:2" />
</svg>
