<?xml version="1.0" encoding="UTF-8" standalone="no"?>
<svg
   width="64"
   height="64"
   version="1.1"
   viewBox="0 0 16.933 16.933"
   id="svg7"
   sodipodi:docname="Internet Template.svg"
   inkscape:version="1.4 (e7c3feb100, 2024-10-09)"
   xmlns:inkscape="http://www.inkscape.org/namespaces/inkscape"
   xmlns:sodipodi="http://sodipodi.sourceforge.net/DTD/sodipodi-0.dtd"
   xmlns:xlink="http://www.w3.org/1999/xlink"
   xmlns="http://www.w3.org/2000/svg"
   xmlns:svg="http://www.w3.org/2000/svg"
   xmlns:rdf="http://www.w3.org/1999/02/22-rdf-syntax-ns#"
   xmlns:cc="http://creativecommons.org/ns#"
   xmlns:dc="http://purl.org/dc/elements/1.1/">
  <sodipodi:namedview
     id="namedview7"
     pagecolor="#9c4444"
     bordercolor="#000000"
     borderopacity="0.25"
     inkscape:showpageshadow="2"
     inkscape:pageopacity="0.0"
     inkscape:pagecheckerboard="0"
     inkscape:deskcolor="#d1d1d1"
     inkscape:zoom="6.15625"
     inkscape:cx="15.675127"
     inkscape:cy="29.807107"
     inkscape:window-width="1183"
     inkscape:window-height="973"
     inkscape:window-x="35"
     inkscape:window-y="32"
     inkscape:window-maximized="0"
     inkscape:current-layer="svg7"
     showgrid="false" />
  <defs
     id="defs2">
    <rect
       x="67.489848"
       y="35.60533"
       width="15.337563"
       height="22.51269"
       id="rect3808" />
    <linearGradient
       inkscape:collect="always"
       id="linearGradient1134">
      <stop
         style="stop-color:#161616;stop-opacity:1;"
         offset="0"
         id="stop1130" />
      <stop
         style="stop-color:#404040;stop-opacity:1;"
         offset="1"
         id="stop1132" />
    </linearGradient>
    <linearGradient
       inkscape:collect="always"
       id="linearGradient883">
      <stop
         style="stop-color:#808080;stop-opacity:1;"
         offset="0"
         id="stop879" />
      <stop
         style="stop-color:#3e3e3e;stop-opacity:1;"
         offset="0.5"
         id="stop1216" />
      <stop
         style="stop-color:#242424;stop-opacity:1;"
         offset="1"
         id="stop881" />
    </linearGradient>
    <linearGradient
       inkscape:collect="always"
       xlink:href="#linearGradient883"
       id="linearGradient885"
       x1="2.1085808"
       y1="2.0236168"
       x2="14.846128"
       y2="15.071845"
       gradientUnits="userSpaceOnUse" />
    <linearGradient
       inkscape:collect="always"
       xlink:href="#linearGradient1134"
       id="linearGradient1136"
       x1="14.971222"
       y1="14.703373"
       x2="2.0756054"
       y2="2.0069976"
       gradientUnits="userSpaceOnUse" />
    <filter
       style="color-interpolation-filters:sRGB;"
       inkscape:label="Blur"
       id="filter1283"
       x="-0.082344266"
       y="-0.082344266"
       width="1.1646885"
       height="1.1646885">
      <feGaussianBlur
         stdDeviation="0.5 0.5"
         result="blur"
         id="feGaussianBlur1281" />
    </filter>
    <filter
       style="color-interpolation-filters:sRGB;"
       inkscape:label="Blur"
       id="filter1694"
       x="-0.94955398"
       y="-0.2118907"
       width="2.899108"
       height="1.4237814">
      <feGaussianBlur
         stdDeviation="0.2 0.2"
         result="blur"
         id="feGaussianBlur1692" />
    </filter>
    <filter
       style="color-interpolation-filters:sRGB;"
       inkscape:label="Blur"
       id="filter3148"
       x="-0.94955398"
       y="-0.2118907"
       width="2.899108"
       height="1.4237814">
      <feGaussianBlur
         stdDeviation="0.2 0.2"
         result="blur"
         id="feGaussianBlur3146" />
    </filter>
    <clipPath
       clipPathUnits="userSpaceOnUse"
       id="clipPath44">
      <path
         id="path46"
         style="display:block;opacity:0.85;fill:#f2f2f2;stroke-width:4.39162"
         d="m 17.570312,8.4453125 a 6.5431988,7.4283052 9.9958727e-8 0 0 -6.535156,7.4394535 6.5431988,7.4283052 9.9958727e-8 0 0 6.552735,7.417968 6.5431988,7.4283052 9.9958727e-8 0 0 6.535156,-7.4375 6.5431988,7.4283052 9.9958727e-8 0 0 -6.552735,-7.4199215 z M 45.646484,41.177734 a 6.5431986,7.0703472 2.4665357e-6 0 0 -6.533203,7.080078 6.5431986,7.0703472 2.4665357e-6 0 0 6.550781,7.060547 6.5431986,7.0703472 2.4665357e-6 0 0 6.535157,-7.080078 6.5431986,7.0703472 2.4665357e-6 0 0 -6.552735,-7.060547 z" />
    </clipPath>
    <inkscape:path-effect
       effect="powerclip"
       id="path-effect48"
       is_visible="true"
       lpeversion="1"
       inverse="true"
       flatten="false"
       hide_clip="false"
       message="" />
  </defs>
  <metadata
     id="metadata2">
    <rdf:RDF>
      <cc:Work
         rdf:about="">
        <dc:format>image/svg+xml</dc:format>
        <dc:type
           rdf:resource="http://purl.org/dc/dcmitype/StillImage" />
      </cc:Work>
    </rdf:RDF>
  </metadata>
  <rect
     style="fill:#000000;stroke:none;stroke-width:0.539739;stroke-dasharray:none;filter:url(#filter1283)"
     id="rect246-1"
     width="14.572964"
     height="14.572964"
     x="1.1932471"
     y="1.2138842"
     rx="2.1589575"
     ry="2.1589575" />
  <rect
     style="opacity:1;fill:#000000;stroke:url(#linearGradient885);stroke-width:0.52915625;stroke-dasharray:none"
     id="rect246"
     width="14.287219"
     height="14.287219"
     x="1.3361193"
     y="1.3567564"
     rx="2.1166251"
     ry="2.1166251" />
  <rect
     style="fill:url(#linearGradient1136);fill-opacity:1;stroke:none;stroke-width:0.478315;stroke-dasharray:none"
     id="rect246-5"
     width="12.914515"
     height="12.914515"
     x="2.0224717"
     y="2.0431087"
     rx="1.5874687"
     ry="1.5874687" />
  <path
     id="path11-3"
     style="fill:#999999;fill-opacity:1;stroke:none;stroke-width:0.00525226;stroke-dasharray:none;stroke-opacity:1"
     d="m 8.4657161,3.7942874 c -0.2660605,0 -0.5320497,0.00331 -0.6774709,0.010134 C 6.3463511,3.8721318 5.3378772,4.1081098 4.9972929,4.4574228 4.8517151,4.6067316 4.7885782,4.8175302 4.8391093,4.9865966 4.949108,5.3546292 5.4153369,5.610827 6.3121943,5.7958047 6.8641613,5.9096482 7.4780425,5.9739236 8.1453941,5.9878493 9.1980167,6.0098143 10.123468,5.9246964 10.881724,5.7362385 11.283275,5.6364367 11.562761,5.5265015 11.77472,5.3850213 12.211463,5.0934997 12.220181,4.6292059 11.794493,4.3444697 11.364377,4.0567731 10.419525,3.8643575 9.1431868,3.804421 8.9977654,3.7975907 8.7317765,3.7942874 8.4657161,3.7942874 Z m 0.00989,0.6829085 c 1.0543219,8.991e-4 2.0702809,0.1101455 2.5816059,0.2943699 0.06524,0.023507 0.127256,0.045221 0.137669,0.048443 0.01449,0.00449 0.01826,0.014791 0.01582,0.043501 -0.0031,0.036534 -0.0058,0.038654 -0.09788,0.077856 C 10.724916,5.1065335 10.105838,5.2192224 9.222034,5.2859096 9.0326166,5.3002 8.1052399,5.3073171 7.8932917,5.2960432 7.3562697,5.2674765 6.8850183,5.2118798 6.4634582,5.1274785 6.2109803,5.0769292 6.0394719,5.0283104 5.8606304,4.9566896 l -0.1366805,-0.054623 -0.00321,-0.038064 c -0.00245,-0.029196 0.0013,-0.039496 0.015817,-0.043995 0.010416,-0.00322 0.072425,-0.024936 0.137669,-0.048443 C 6.2008601,4.653882 6.7459147,4.5633223 7.4256599,4.5137748 7.768335,4.4887968 8.124163,4.4768978 8.4756038,4.4771948 Z m -2.562575,1.3035317 -0.03658,0.027683 C 5.8113291,5.8572656 5.7228652,5.9534007 5.6831706,6.0187459 5.5433495,6.2489159 5.5696688,6.5139968 5.7541056,6.736504 6.0832526,7.1335906 6.9869554,7.4357392 8.0403533,7.5007285 8.6392677,7.5376785 9.3368527,7.4855955 9.8720699,7.3642948 10.835964,7.145837 11.37004,6.7522396 11.335763,6.2854332 c -0.007,-0.095773 -0.03446,-0.1793729 -0.0875,-0.2666877 -0.03969,-0.065345 -0.128158,-0.1614795 -0.193281,-0.2103351 l -0.03657,-0.027682 -0.126052,0.030895 C 10.498984,5.9080551 9.9070965,5.9985873 9.4793323,6.027642 l -0.1102345,0.00741 0.1653515,0.018537 c 0.4089244,0.046133 0.7623337,0.1289358 0.9481137,0.2219515 0.06843,0.03426 0.07836,0.043929 0.0786,0.076621 3.63e-4,0.049714 -0.291839,0.1901738 -0.5657537,0.2718783 -0.4475546,0.1334985 -0.9480102,0.1984715 -1.5296854,0.1984715 -0.5833737,0 -1.1000635,-0.067594 -1.5447619,-0.2021784 -0.2596381,-0.078568 -0.5510349,-0.220566 -0.5506805,-0.2681634 2.483e-4,-0.032785 0.01013,-0.04234 0.078597,-0.07662 C 6.6346554,6.1825306 6.9880649,6.0997278 7.3969891,6.0535948 L 7.5623405,6.0350576 7.452106,6.0276429 C 7.0243417,5.9985877 6.4324537,5.9080556 6.0390815,5.811623 Z m 0.6579456,1.5232588 -0.043006,0.046466 c -0.06339,0.06877 -0.1220047,0.1644553 -0.1492859,0.243949 -0.034725,0.1011844 -0.032502,0.2424061 0.00519,0.340589 0.077148,0.20096 0.261712,0.3633214 0.5422732,0.4770225 0.2709269,0.1097963 0.6566353,0.1902628 1.0667509,0.2226931 0.1680834,0.013289 0.7551217,0.013931 0.9196893,0.00102 0.5618521,-0.044192 1.0090875,-0.154937 1.2921608,-0.3203225 0.121041,-0.070718 0.265582,-0.21492 0.31266,-0.3116712 0.109037,-0.2240834 0.0688,-0.4549882 -0.113943,-0.6532487 l -0.04276,-0.046466 -0.07563,0.025705 c -0.25986,0.088521 -0.7305958,0.1833615 -1.0944269,0.2204383 l -0.073654,0.00741 0.1366806,0.024963 c 0.1697812,0.030996 0.3175322,0.070437 0.3964475,0.1055379 0.056104,0.024954 0.06031,0.029226 0.06031,0.061791 0,0.043393 -0.019326,0.054689 -0.1576888,0.091944 C 8.9543399,8.0029388 8.0145857,8.005763 7.403664,7.8482468 7.243605,7.8069738 7.2210112,7.7947448 7.2210112,7.7498728 c 0,-0.032566 0.0042,-0.036837 0.060307,-0.06179 0.078915,-0.035102 0.2266663,-0.074542 0.3964477,-0.1055382 L 7.814446,7.5575806 7.7407918,7.5501736 C 7.3723419,7.5126183 6.8934809,7.4152392 6.6307871,7.3245067 Z M 8.44916,8.8870585 c -0.261017,9.72e-4 -0.5245607,0.014029 -0.7503837,0.03905 -0.7251694,0.080328 -1.2707379,0.290066 -1.3136655,0.5047047 -0.01368,0.068396 0.076347,0.1761558 0.2095936,0.2506224 0.2694247,0.1505721 0.7912808,0.2710749 1.3406057,0.3096939 0.089551,0.00621 0.186391,0.013203 0.2152783,0.015327 0.1183193,0.0087 0.757598,-0.0049 0.9140047,-0.019521 0.6823663,-0.063441 1.1898009,-0.2072394 1.3954759,-0.3952139 0.108103,-0.0988 0.113493,-0.1774162 0.01828,-0.2726204 C 10.297223,9.1379708 9.8102447,8.9878031 9.1852013,8.9204289 8.9687055,8.8970928 8.71017,8.8860687 8.4491531,8.887065 Z M 6.4095786,9.1616552 c -0.0029,0 -0.073343,0.023247 -0.1567007,0.051654 -0.4738376,0.1615132 -0.7855991,0.3691504 -0.8996692,0.5991212 -0.036616,0.073818 -0.038804,0.083763 -0.038804,0.1789452 0,0.096101 0.00199,0.1048854 0.041029,0.1838874 0.1692021,0.342359 0.8165612,0.6446 1.7078887,0.797345 0.2688898,0.04608 0.616466,0.08491 0.940204,0.104797 0.034664,0.0022 0.2758607,0.0025 0.5358471,0.0011 0.4868704,-0.0029 0.6384025,-0.01144 1.0136109,-0.05834 1.0420656,-0.13024 1.8331956,-0.460713 2.0230206,-0.8448 0.03904,-0.079 0.04103,-0.08779 0.04103,-0.1838877 0,-0.096214 -0.0019,-0.1047627 -0.04127,-0.1843821 -0.08856,-0.1791951 -0.328313,-0.3630897 -0.657204,-0.5039641 -0.07723,-0.03308 -0.381392,-0.1413765 -0.396942,-0.1413765 -0.003,0 0.01842,0.02285 0.04771,0.050917 0.09753,0.093507 0.1342,0.2034533 0.103314,0.309694 -0.03418,0.1175739 -0.140617,0.2159638 -0.337129,0.3116706 C 10.02897,9.9833318 9.6031929,10.078171 9.0067716,10.130137 8.7754494,10.150297 8.103203,10.147027 7.8616703,10.124437 6.9367726,10.037947 6.343956,9.8151724 6.2588128,9.5222885 6.2279412,9.4160964 6.2625226,9.3116518 6.3606432,9.2150666 c 0.029801,-0.029338 0.05184,-0.053387 0.048938,-0.053387 z" />
  <g
     aria-label="Krita"
     id="text1450"
     style="font-size:1.76385px;opacity:1;fill:#ffff00;stroke-width:0.529156">
    <rect
       style="font-size:1.76385px;fill:#ffff00;fill-opacity:1;stroke:none;stroke-width:0.519976;stroke-dasharray:none;filter:url(#filter3148)"
       id="rect1656-3"
       width="0.5055005"
       height="2.2653189"
       x="15.369148"
       y="4.3016486"
       rx="0"
       ry="0" />
    <rect
       style="opacity:1;fill:#ffff00;fill-opacity:1;stroke:none;stroke-width:0.519976;stroke-dasharray:none"
       id="rect1656"
       width="0.5055005"
       height="2.2653189"
       x="15.369148"
       y="4.3016486"
       rx="0"
       ry="0" />
  </g>
  <path
     d="M 5.5422048,14.179017 H 5.3834583 V 13.058972 H 4.9901198 v -0.139344 h 0.9436597 v 0.139344 H 5.5422048 Z m 0.8025518,-0.963062 q 0.1217057,0 0.2081343,0.05292 0.088192,0.05292 0.1340526,0.149928 0.047624,0.09525 0.047624,0.224009 v 0.09348 h -0.647333 q 0.00353,0.16051 0.081137,0.245175 0.079373,0.0829 0.2204813,0.0829 0.089956,0 0.1587465,-0.01588 0.070554,-0.01764 0.1446357,-0.04939 v 0.135817 q -0.072318,0.03175 -0.1428719,0.04586 -0.070554,0.01588 -0.1675657,0.01588 -0.1340526,0 -0.2381198,-0.05468 -0.1023033,-0.05468 -0.1605103,-0.162274 -0.056443,-0.109359 -0.056443,-0.266341 0,-0.155219 0.051152,-0.266342 0.052916,-0.111122 0.1463996,-0.171093 0.095248,-0.05997 0.2204812,-0.05997 z m -0.00176,0.126997 q -0.1111226,0 -0.176385,0.07232 -0.063499,0.07055 -0.075846,0.197551 h 0.4815311 q -0.00176,-0.119942 -0.056443,-0.194023 -0.054679,-0.07585 -0.1728573,-0.07585 z m 0.7866756,0.836065 H 6.9744496 v -1.340526 h 0.1552188 z m 0.6649705,-0.963062 q 0.1217056,0 0.2081342,0.05292 0.088192,0.05292 0.1340526,0.149928 0.047624,0.09525 0.047624,0.224009 v 0.09348 H 7.5371168 q 0.00353,0.16051 0.081137,0.245175 0.079373,0.0829 0.2204812,0.0829 0.089956,0 0.1587465,-0.01588 0.070554,-0.01764 0.1446357,-0.04939 v 0.135817 q -0.072318,0.03175 -0.1428719,0.04586 -0.070554,0.01588 -0.1675657,0.01588 -0.1340526,0 -0.2381197,-0.05468 -0.1023033,-0.05468 -0.1605104,-0.162274 -0.056443,-0.109359 -0.056443,-0.266341 0,-0.155219 0.051152,-0.266342 0.052916,-0.111122 0.1463995,-0.171093 0.095248,-0.05997 0.2204813,-0.05997 z m -0.00176,0.126997 q -0.1111225,0 -0.176385,0.07232 -0.063499,0.07055 -0.075845,0.197551 h 0.481531 q -0.00176,-0.119942 -0.056443,-0.194023 -0.054679,-0.07585 -0.1728573,-0.07585 z m 1.0812385,-0.126997 q 0.1746212,0 0.2804522,0.121706 0.1075948,0.121705 0.1075948,0.36688 0,0.241648 -0.1075948,0.366881 -0.105831,0.125234 -0.282216,0.125234 -0.1093587,0 -0.1816766,-0.04057 -0.070554,-0.04233 -0.1111225,-0.09701 h -0.010583 q 0.00353,0.02999 0.00706,0.07585 0.00353,0.04586 0.00353,0.07937 v 0.388047 H 8.4243318 V 13.233593 H 8.551329 l 0.021166,0.128762 h 0.00706 q 0.042332,-0.06174 0.1111225,-0.104068 0.06879,-0.04233 0.1834404,-0.04233 z m -0.028222,0.130525 q -0.1446357,0 -0.2046066,0.08114 -0.058207,0.08114 -0.061735,0.246939 v 0.02998 q 0,0.174622 0.056443,0.269869 0.058207,0.09348 0.2134258,0.09348 0.086429,0 0.141108,-0.04762 0.056443,-0.04762 0.082901,-0.128761 0.028222,-0.0829 0.028222,-0.188732 0,-0.162275 -0.063499,-0.259286 -0.061735,-0.09701 -0.1922597,-0.09701 z m 1.4851611,0.358061 q 0,0.234592 -0.119942,0.363354 -0.118178,0.128761 -0.3210203,0.128761 -0.1252333,0 -0.2240089,-0.05644 -0.097012,-0.05821 -0.153455,-0.167565 -0.056443,-0.111123 -0.056443,-0.268106 0,-0.234592 0.118178,-0.361589 0.1181779,-0.126997 0.3210207,-0.126997 0.1287607,0 0.2257727,0.05821 0.09878,0.05644 0.153455,0.165802 0.05644,0.107595 0.05644,0.264577 z m -0.714359,0 q 0,0.167566 0.065262,0.266342 0.067026,0.09701 0.211662,0.09701 0.1428716,0 0.2098986,-0.09701 0.06703,-0.09878 0.06703,-0.266342 0,-0.167565 -0.06703,-0.262813 -0.06703,-0.09525 -0.2116624,-0.09525 -0.1446357,0 -0.2098982,0.09525 -0.065262,0.09525 -0.065262,0.262813 z m 1.400496,-0.488586 q 0.02646,0 0.05644,0.0035 0.03175,0.0018 0.05468,0.0071 l -0.0194,0.142872 q -0.02293,-0.0053 -0.05115,-0.0088 -0.02646,-0.0035 -0.05115,-0.0035 -0.07232,0 -0.135816,0.04057 -0.0635,0.0388 -0.102304,0.111122 -0.03704,0.07055 -0.03704,0.165802 v 0.504461 h -0.155219 v -0.945424 h 0.126997 l 0.01764,0.172858 h 0.0071 q 0.04586,-0.07761 0.118178,-0.134053 0.07232,-0.05644 0.171093,-0.05644 z m 0.603237,0.853703 q 0.03528,0 0.07232,-0.0053 0.03704,-0.0071 0.05997,-0.01411 v 0.118178 q -0.02469,0.01235 -0.07055,0.0194 -0.04586,0.0088 -0.08819,0.0088 -0.07408,0 -0.13758,-0.02469 -0.06174,-0.02646 -0.10054,-0.08996 -0.0388,-0.0635 -0.0388,-0.178149 v -0.550321 h -0.134053 v -0.07408 l 0.135816,-0.06173 0.06173,-0.201079 h 0.09172 v 0.216953 h 0.273397 v 0.119942 h -0.273397 v 0.546794 q 0,0.08643 0.04057,0.128761 0.04233,0.04057 0.107595,0.04057 z"
     id="text2284"
     style="font-size:1.76385px;fill:#999999;stroke-width:0.529156"
     aria-label="Teleport" />
  <text
     xml:space="preserve"
     transform="scale(0.26457812)"
     id="text3806"
     style="fill:#999999;stroke-width:2;font-size:6.66666667px;white-space:pre;shape-inside:url(#rect3808)" />
</svg>
