<?xml version="1.0" encoding="UTF-8" standalone="no"?>
<svg
   width="64"
   height="64"
   version="1.1"
   viewBox="0 0 16.933 16.933"
   id="svg7"
   sodipodi:docname="com.github.tchx84.Flatseal.svg"
   inkscape:version="1.4 (e7c3feb100, 2024-10-09)"
   xmlns:inkscape="http://www.inkscape.org/namespaces/inkscape"
   xmlns:sodipodi="http://sodipodi.sourceforge.net/DTD/sodipodi-0.dtd"
   xmlns:xlink="http://www.w3.org/1999/xlink"
   xmlns="http://www.w3.org/2000/svg"
   xmlns:svg="http://www.w3.org/2000/svg"
   xmlns:rdf="http://www.w3.org/1999/02/22-rdf-syntax-ns#"
   xmlns:cc="http://creativecommons.org/ns#"
   xmlns:dc="http://purl.org/dc/elements/1.1/">
  <sodipodi:namedview
     id="namedview7"
     pagecolor="#9c4444"
     bordercolor="#000000"
     borderopacity="0.25"
     inkscape:showpageshadow="2"
     inkscape:pageopacity="0.0"
     inkscape:pagecheckerboard="0"
     inkscape:deskcolor="#d1d1d1"
     inkscape:zoom="12.3125"
     inkscape:cx="29.19797"
     inkscape:cy="29.725888"
     inkscape:window-width="1183"
     inkscape:window-height="941"
     inkscape:window-x="35"
     inkscape:window-y="32"
     inkscape:window-maximized="0"
     inkscape:current-layer="svg7"
     showgrid="false" />
  <defs
     id="defs2">
    <rect
       x="67.489848"
       y="35.60533"
       width="15.337563"
       height="22.51269"
       id="rect3808" />
    <linearGradient
       inkscape:collect="always"
       id="linearGradient1134">
      <stop
         style="stop-color:#161616;stop-opacity:1;"
         offset="0"
         id="stop1130" />
      <stop
         style="stop-color:#404040;stop-opacity:1;"
         offset="1"
         id="stop1132" />
    </linearGradient>
    <linearGradient
       inkscape:collect="always"
       id="linearGradient883">
      <stop
         style="stop-color:#808080;stop-opacity:1;"
         offset="0"
         id="stop879" />
      <stop
         style="stop-color:#3e3e3e;stop-opacity:1;"
         offset="0.5"
         id="stop1216" />
      <stop
         style="stop-color:#242424;stop-opacity:1;"
         offset="1"
         id="stop881" />
    </linearGradient>
    <linearGradient
       inkscape:collect="always"
       xlink:href="#linearGradient883"
       id="linearGradient885"
       x1="2.1085808"
       y1="2.0236168"
       x2="14.846128"
       y2="15.071845"
       gradientUnits="userSpaceOnUse" />
    <linearGradient
       inkscape:collect="always"
       xlink:href="#linearGradient1134"
       id="linearGradient1136"
       x1="14.971222"
       y1="14.703373"
       x2="2.0756054"
       y2="2.0069976"
       gradientUnits="userSpaceOnUse" />
    <filter
       style="color-interpolation-filters:sRGB;"
       inkscape:label="Blur"
       id="filter1283"
       x="-0.082344266"
       y="-0.082344266"
       width="1.1646885"
       height="1.1646885">
      <feGaussianBlur
         stdDeviation="0.5 0.5"
         result="blur"
         id="feGaussianBlur1281" />
    </filter>
    <filter
       style="color-interpolation-filters:sRGB;"
       inkscape:label="Blur"
       id="filter1694"
       x="-0.94955398"
       y="-0.2118907"
       width="2.899108"
       height="1.4237814">
      <feGaussianBlur
         stdDeviation="0.2 0.2"
         result="blur"
         id="feGaussianBlur1692" />
    </filter>
    <filter
       style="color-interpolation-filters:sRGB;"
       inkscape:label="Blur"
       id="filter3148"
       x="-0.94955398"
       y="-0.2118907"
       width="2.899108"
       height="1.4237814">
      <feGaussianBlur
         stdDeviation="0.2 0.2"
         result="blur"
         id="feGaussianBlur3146" />
    </filter>
    <clipPath
       clipPathUnits="userSpaceOnUse"
       id="clipPath191">
      <g
         id="g195"
         style="display:block">
        <path
           id="path193"
           style="color:#000000;opacity:0.85;fill:#ffffff;stroke-width:2.97138;-inkscape-stroke:none"
           d="m 20.630859,13.712891 c -3.468166,-0.0017 -6.260369,2.787692 -6.259765,6.255859 6.04e-4,3.468166 2.793552,6.26197 6.261718,6.263672 l 22.275391,0.01172 c 3.468167,0.0017 6.26037,-2.789647 6.259766,-6.257813 -6.04e-4,-3.468167 -2.793552,-6.26197 -6.261719,-6.263672 z m 0.132813,17.759765 c -3.542387,-0.0017 -6.393071,2.848239 -6.392578,6.390625 4.93e-4,3.542386 2.852144,6.394827 6.394531,6.396485 l 22.007813,0.01172 c 3.542385,0.0017 6.395024,-2.850192 6.394531,-6.392578 -4.93e-4,-3.542386 -2.854099,-6.394826 -6.396485,-6.396484 z" />
      </g>
    </clipPath>
    <inkscape:path-effect
       effect="powerclip"
       id="path-effect197"
       is_visible="true"
       lpeversion="1"
       inverse="true"
       flatten="false"
       hide_clip="false"
       message="" />
  </defs>
  <metadata
     id="metadata2">
    <rdf:RDF>
      <cc:Work
         rdf:about="">
        <dc:format>image/svg+xml</dc:format>
        <dc:type
           rdf:resource="http://purl.org/dc/dcmitype/StillImage" />
      </cc:Work>
    </rdf:RDF>
  </metadata>
  <rect
     style="fill:#000000;stroke:none;stroke-width:0.539739;stroke-dasharray:none;filter:url(#filter1283)"
     id="rect246-1"
     width="14.572964"
     height="14.572964"
     x="1.1932471"
     y="1.2138842"
     rx="2.1589575"
     ry="2.1589575" />
  <rect
     style="opacity:1;fill:#000000;stroke:url(#linearGradient885);stroke-width:0.52915625;stroke-dasharray:none"
     id="rect246"
     width="14.287219"
     height="14.287219"
     x="1.3361193"
     y="1.3567564"
     rx="2.1166251"
     ry="2.1166251" />
  <rect
     style="fill:url(#linearGradient1136);fill-opacity:1;stroke:none;stroke-width:0.478315;stroke-dasharray:none"
     id="rect246-5"
     width="12.914515"
     height="12.914515"
     x="2.0224717"
     y="2.0431087"
     rx="1.5874687"
     ry="1.5874687" />
  <path
     id="path1"
     style="opacity:1;fill:#999999;stroke-width:0.0406091;stroke-opacity:0.6"
     d="M 32.082032 14.853516 C 31.62558 14.853169 20.938555 18.190102 20.691407 18.410157 C 20.315082 18.745224 20.278925 18.991325 20.240235 21.429688 C 20.200161 23.955355 20.279585 25.264206 20.595704 27.283204 C 21.691766 34.283558 24.941343 39.289384 30.013672 41.789063 C 30.507295 42.032324 31.166125 42.322265 31.476563 42.431641 C 31.811391 42.549607 32.123691 42.610242 32.244141 42.582032 C 32.701861 42.474843 34.353979 41.711987 35.132813 41.248048 C 37.921152 39.587078 39.930718 37.340833 41.462891 34.171876 C 42.636 31.745564 43.308819 29.320747 43.748048 25.949219 C 43.866698 25.038455 43.896132 24.262639 43.894532 22.050782 C 43.892354 19.107584 43.85641 18.778425 43.503907 18.447266 C 43.239906 18.19925 32.60757 14.853916 32.082032 14.853516 z M 30.197266 19.990235 C 32.235833 19.986974 34.598412 20.005724 36.183594 20.048829 C 38.096959 20.100859 38.139483 20.105963 38.587891 20.326172 C 39.152097 20.603249 39.738752 21.216155 40.025391 21.830079 C 40.21236 22.230525 40.241466 22.401585 40.242188 23.06836 C 40.242956 23.777526 40.222539 23.885242 39.98047 24.376954 C 39.667539 25.012606 39.15705 25.511935 38.511719 25.814454 L 38.050782 26.03125 L 32.082032 26.042969 C 28.798784 26.050129 25.998626 26.027951 25.859375 25.994141 C 25.006252 25.787034 24.256813 25.155028 23.853516 24.300782 C 23.625743 23.818316 23.597063 23.678427 23.601563 23.066407 C 23.608036 22.184699 23.822216 21.603732 24.363282 21.011719 C 24.834301 20.496349 25.43674 20.177838 26.152344 20.064454 C 26.443352 20.018344 28.158699 19.993496 30.197266 19.990235 z M 36.794923 21.146485 C 36.402947 21.145773 36.011785 21.207951 35.777344 21.333985 C 35.096044 21.700247 34.656704 22.363063 34.658204 23.023438 C 34.660247 23.91685 35.252731 24.643347 36.222657 24.939454 C 37.352101 25.28426 38.690074 24.490316 38.941407 23.326172 C 39.085891 22.656934 38.565835 21.735545 37.81836 21.337891 C 37.579832 21.211006 37.186898 21.147197 36.794923 21.146485 z M 28.78711 28.515626 C 29.605318 28.515868 30.674113 28.519826 32.083985 28.525391 L 37.888673 28.548829 L 38.355469 28.736329 C 38.991936 28.993346 39.649139 29.610787 39.960938 30.244141 C 40.792883 31.934061 39.900759 34.030807 38.121094 34.566407 C 37.582116 34.728586 26.183231 34.724984 25.742188 34.562501 C 24.131525 33.969122 23.268219 32.429308 23.667969 30.861329 C 23.934467 29.816018 24.729816 28.973689 25.736329 28.667969 C 26.13276 28.547556 26.332486 28.514897 28.78711 28.515626 z M 27.144532 29.664063 C 26.070421 29.699391 25.070773 30.475636 25.080079 31.644532 C 25.086174 32.410127 25.649214 33.139474 26.457032 33.427735 C 26.624968 33.487656 26.986434 33.537063 27.261719 33.539063 C 27.672301 33.541988 27.85512 33.495288 28.277344 33.277344 C 29.535524 32.627895 29.763603 31.208504 28.759766 30.269532 C 28.290757 29.830829 27.707161 29.645558 27.144532 29.664063 z "
     transform="scale(0.26457812)" />
  <g
     aria-label="Krita"
     id="text1450"
     style="font-size:1.76385px;opacity:1;fill:#5555ff;stroke-width:0.529156">
    <rect
       style="font-size:1.76385px;fill:#5555ff;fill-opacity:1;stroke:none;stroke-width:0.519976;stroke-dasharray:none;filter:url(#filter3148)"
       id="rect1656-3"
       width="0.5055005"
       height="2.2653189"
       x="15.369148"
       y="4.3016486"
       rx="0"
       ry="0" />
    <rect
       style="opacity:1;fill:#5555ff;fill-opacity:1;stroke:none;stroke-width:0.519976;stroke-dasharray:none"
       id="rect1656"
       width="0.5055005"
       height="2.2653189"
       x="15.369148"
       y="4.3016486"
       rx="0"
       ry="0" />
  </g>
  <path
     d="M 5.8315661,14.179017 H 5.6728196 v -1.259389 h 0.7037761 v 0.139344 H 5.8315661 v 0.446254 h 0.5115165 v 0.139345 H 5.8315661 Z m 0.8907427,0 H 6.56709 v -1.340526 h 0.1552188 z m 0.6579151,-0.961298 q 0.1728572,0 0.2557582,0.07584 0.082901,0.07585 0.082901,0.241648 v 0.643805 H 7.6059966 l -0.029985,-0.134053 h -0.00706 q -0.061735,0.07761 -0.1305249,0.114651 -0.067026,0.03704 -0.1869681,0.03704 -0.128761,0 -0.2134258,-0.06703 -0.084665,-0.06879 -0.084665,-0.213426 0,-0.141108 0.1111225,-0.216953 0.1111226,-0.07761 0.3421869,-0.08466 l 0.1605103,-0.0053 v -0.05644 q 0,-0.118178 -0.051152,-0.164038 -0.051152,-0.04586 -0.1446357,-0.04586 -0.074082,0 -0.141108,0.02293 -0.067026,0.02117 -0.1252333,0.04939 l -0.047624,-0.116414 q 0.061735,-0.03351 0.1463996,-0.05644 0.084665,-0.02469 0.176385,-0.02469 z m 0.04586,0.504461 q -0.176385,0.0071 -0.2451752,0.05644 -0.067026,0.04939 -0.067026,0.139344 0,0.07937 0.047624,0.116414 0.049388,0.03704 0.1252333,0.03704 0.1199418,0 0.1993151,-0.06526 0.079373,-0.06703 0.079373,-0.204607 v -0.08466 z m 0.9013287,0.347478 q 0.035277,0 0.072318,-0.0053 0.037041,-0.0071 0.059971,-0.01411 v 0.118178 q -0.024694,0.01235 -0.070554,0.0194 -0.04586,0.0088 -0.088192,0.0088 -0.074082,0 -0.1375803,-0.02469 -0.061735,-0.02646 -0.1005395,-0.08996 -0.038805,-0.0635 -0.038805,-0.178149 V 13.353535 H 7.8899779 v -0.07408 l 0.1358165,-0.06173 0.061735,-0.201079 h 0.09172 v 0.216953 h 0.2733968 v 0.119942 H 8.1792493 v 0.546794 q 0,0.08643 0.040569,0.128761 0.042332,0.04057 0.1075948,0.04057 z M 9.264017,13.917967 q 0,0.137581 -0.1023033,0.208135 -0.1023033,0.07055 -0.2751606,0.07055 -0.098776,0 -0.1710935,-0.01588 -0.070554,-0.01587 -0.1252333,-0.0441 v -0.141108 q 0.056443,0.02822 0.1358164,0.05291 0.081137,0.02293 0.1640381,0.02293 0.1181779,0 0.1710934,-0.03704 0.052915,-0.0388 0.052915,-0.102303 0,-0.03528 -0.019402,-0.0635 -0.019402,-0.02822 -0.070554,-0.05644 -0.049388,-0.02822 -0.1428719,-0.0635 -0.09172,-0.03528 -0.1569826,-0.07055 -0.065262,-0.03528 -0.1005395,-0.08466 -0.035277,-0.04939 -0.035277,-0.126997 0,-0.119942 0.097012,-0.185205 0.098776,-0.06526 0.2575221,-0.06526 0.086429,0 0.1605103,0.01764 0.075846,0.01587 0.141108,0.04586 l -0.052916,0.123469 q -0.059971,-0.02469 -0.1252333,-0.04233 -0.065262,-0.01764 -0.1340526,-0.01764 -0.095248,0 -0.1463996,0.03175 -0.049388,0.02999 -0.049388,0.0829 0,0.0388 0.02293,0.06703 0.02293,0.02646 0.075845,0.05292 0.054679,0.02469 0.1446357,0.05997 0.089956,0.03351 0.153455,0.06879 0.063499,0.03528 0.097012,0.08643 0.033513,0.04939 0.033513,0.125233 z m 0.5944177,-0.702012 q 0.1217056,0 0.2081343,0.05292 0.08819,0.05292 0.134053,0.149928 0.04762,0.09525 0.04762,0.224009 v 0.09348 H 9.6009126 q 0.00353,0.16051 0.081137,0.245175 0.079373,0.0829 0.2204812,0.0829 0.089956,0 0.1587461,-0.01588 0.07055,-0.01764 0.144636,-0.04939 v 0.135817 q -0.07232,0.03175 -0.142872,0.04586 -0.070554,0.01588 -0.1675655,0.01588 -0.1340526,0 -0.2381197,-0.05468 -0.1023033,-0.05468 -0.1605104,-0.162274 -0.056443,-0.109359 -0.056443,-0.266341 0,-0.155219 0.051152,-0.266342 0.052916,-0.111122 0.1463995,-0.171093 0.095248,-0.05997 0.2204813,-0.05997 z m -0.00176,0.126997 q -0.1111225,0 -0.176385,0.07232 -0.063499,0.07055 -0.075845,0.197551 h 0.4815307 q -0.0018,-0.119942 -0.05644,-0.194023 -0.054679,-0.07585 -0.1728572,-0.07585 z m 0.9895182,-0.125233 q 0.172858,0 0.255759,0.07584 0.0829,0.07585 0.0829,0.241648 v 0.643805 h -0.112887 l -0.02998,-0.134053 h -0.0071 q -0.06173,0.07761 -0.130525,0.114651 -0.06703,0.03704 -0.186968,0.03704 -0.128761,0 -0.213426,-0.06703 -0.08466,-0.06879 -0.08466,-0.213426 0,-0.141108 0.111122,-0.216953 0.111123,-0.07761 0.342187,-0.08466 l 0.16051,-0.0053 v -0.05644 q 0,-0.118178 -0.05115,-0.164038 -0.05115,-0.04586 -0.144636,-0.04586 -0.07408,0 -0.141108,0.02293 -0.06703,0.02117 -0.125233,0.04939 l -0.04762,-0.116414 q 0.06174,-0.03351 0.146399,-0.05644 0.08467,-0.02469 0.176385,-0.02469 z m 0.04586,0.504461 q -0.176385,0.0071 -0.245175,0.05644 -0.06703,0.04939 -0.06703,0.139344 0,0.07937 0.04762,0.116414 0.04939,0.03704 0.125233,0.03704 0.119942,0 0.199315,-0.06526 0.07937,-0.06703 0.07937,-0.204607 v -0.08466 z m 0.740819,0.456837 h -0.155219 v -1.340526 h 0.155219 z"
     id="text2284"
     style="font-size:1.76385px;fill:#999999;stroke-width:0.529156"
     aria-label="Flatseal" />
  <text
     xml:space="preserve"
     transform="scale(0.26457812)"
     id="text3806"
     style="fill:#999999;stroke-width:2;font-size:6.66666667px;white-space:pre;shape-inside:url(#rect3808)" />
</svg>
