<?xml version="1.0" encoding="UTF-8" standalone="no"?>
<svg
   width="64"
   height="64"
   version="1.1"
   viewBox="0 0 16.933 16.933"
   id="svg7"
   sodipodi:docname="Internet Template.svg"
   inkscape:version="1.4 (e7c3feb100, 2024-10-09)"
   xmlns:inkscape="http://www.inkscape.org/namespaces/inkscape"
   xmlns:sodipodi="http://sodipodi.sourceforge.net/DTD/sodipodi-0.dtd"
   xmlns:xlink="http://www.w3.org/1999/xlink"
   xmlns="http://www.w3.org/2000/svg"
   xmlns:svg="http://www.w3.org/2000/svg"
   xmlns:rdf="http://www.w3.org/1999/02/22-rdf-syntax-ns#"
   xmlns:cc="http://creativecommons.org/ns#"
   xmlns:dc="http://purl.org/dc/elements/1.1/">
  <sodipodi:namedview
     id="namedview7"
     pagecolor="#9c4444"
     bordercolor="#000000"
     borderopacity="0.25"
     inkscape:showpageshadow="2"
     inkscape:pageopacity="0.0"
     inkscape:pagecheckerboard="0"
     inkscape:deskcolor="#d1d1d1"
     inkscape:zoom="6.15625"
     inkscape:cx="15.675127"
     inkscape:cy="29.807107"
     inkscape:window-width="1183"
     inkscape:window-height="973"
     inkscape:window-x="35"
     inkscape:window-y="32"
     inkscape:window-maximized="0"
     inkscape:current-layer="svg7"
     showgrid="false" />
  <defs
     id="defs2">
    <rect
       x="67.489848"
       y="35.60533"
       width="15.337563"
       height="22.51269"
       id="rect3808" />
    <linearGradient
       inkscape:collect="always"
       id="linearGradient1134">
      <stop
         style="stop-color:#161616;stop-opacity:1;"
         offset="0"
         id="stop1130" />
      <stop
         style="stop-color:#404040;stop-opacity:1;"
         offset="1"
         id="stop1132" />
    </linearGradient>
    <linearGradient
       inkscape:collect="always"
       id="linearGradient883">
      <stop
         style="stop-color:#808080;stop-opacity:1;"
         offset="0"
         id="stop879" />
      <stop
         style="stop-color:#3e3e3e;stop-opacity:1;"
         offset="0.5"
         id="stop1216" />
      <stop
         style="stop-color:#242424;stop-opacity:1;"
         offset="1"
         id="stop881" />
    </linearGradient>
    <linearGradient
       inkscape:collect="always"
       xlink:href="#linearGradient883"
       id="linearGradient885"
       x1="2.1085808"
       y1="2.0236168"
       x2="14.846128"
       y2="15.071845"
       gradientUnits="userSpaceOnUse" />
    <linearGradient
       inkscape:collect="always"
       xlink:href="#linearGradient1134"
       id="linearGradient1136"
       x1="14.971222"
       y1="14.703373"
       x2="2.0756054"
       y2="2.0069976"
       gradientUnits="userSpaceOnUse" />
    <filter
       style="color-interpolation-filters:sRGB;"
       inkscape:label="Blur"
       id="filter1283"
       x="-0.082344266"
       y="-0.082344266"
       width="1.1646885"
       height="1.1646885">
      <feGaussianBlur
         stdDeviation="0.5 0.5"
         result="blur"
         id="feGaussianBlur1281" />
    </filter>
    <filter
       style="color-interpolation-filters:sRGB;"
       inkscape:label="Blur"
       id="filter1694"
       x="-0.94955398"
       y="-0.2118907"
       width="2.899108"
       height="1.4237814">
      <feGaussianBlur
         stdDeviation="0.2 0.2"
         result="blur"
         id="feGaussianBlur1692" />
    </filter>
    <filter
       style="color-interpolation-filters:sRGB;"
       inkscape:label="Blur"
       id="filter3148"
       x="-0.94955398"
       y="-0.2118907"
       width="2.899108"
       height="1.4237814">
      <feGaussianBlur
         stdDeviation="0.2 0.2"
         result="blur"
         id="feGaussianBlur3146" />
    </filter>
    <clipPath
       clipPathUnits="userSpaceOnUse"
       id="clipPath44">
      <path
         id="path46"
         style="display:block;opacity:0.85;fill:#f2f2f2;stroke-width:4.39162"
         d="m 17.570312,8.4453125 a 6.5431988,7.4283052 9.9958727e-8 0 0 -6.535156,7.4394535 6.5431988,7.4283052 9.9958727e-8 0 0 6.552735,7.417968 6.5431988,7.4283052 9.9958727e-8 0 0 6.535156,-7.4375 6.5431988,7.4283052 9.9958727e-8 0 0 -6.552735,-7.4199215 z M 45.646484,41.177734 a 6.5431986,7.0703472 2.4665357e-6 0 0 -6.533203,7.080078 6.5431986,7.0703472 2.4665357e-6 0 0 6.550781,7.060547 6.5431986,7.0703472 2.4665357e-6 0 0 6.535157,-7.080078 6.5431986,7.0703472 2.4665357e-6 0 0 -6.552735,-7.060547 z" />
    </clipPath>
    <inkscape:path-effect
       effect="powerclip"
       id="path-effect48"
       is_visible="true"
       lpeversion="1"
       inverse="true"
       flatten="false"
       hide_clip="false"
       message="" />
  </defs>
  <metadata
     id="metadata2">
    <rdf:RDF>
      <cc:Work
         rdf:about="">
        <dc:format>image/svg+xml</dc:format>
        <dc:type
           rdf:resource="http://purl.org/dc/dcmitype/StillImage" />
      </cc:Work>
    </rdf:RDF>
  </metadata>
  <rect
     style="fill:#000000;stroke:none;stroke-width:0.539739;stroke-dasharray:none;filter:url(#filter1283)"
     id="rect246-1"
     width="14.572964"
     height="14.572964"
     x="1.1932471"
     y="1.2138842"
     rx="2.1589575"
     ry="2.1589575" />
  <rect
     style="opacity:1;fill:#000000;stroke:url(#linearGradient885);stroke-width:0.52915625;stroke-dasharray:none"
     id="rect246"
     width="14.287219"
     height="14.287219"
     x="1.3361193"
     y="1.3567564"
     rx="2.1166251"
     ry="2.1166251" />
  <rect
     style="fill:url(#linearGradient1136);fill-opacity:1;stroke:none;stroke-width:0.478315;stroke-dasharray:none"
     id="rect246-5"
     width="12.914515"
     height="12.914515"
     x="2.0224717"
     y="2.0431087"
     rx="1.5874687"
     ry="1.5874687" />
  <path
     style="fill:#999999;fill-opacity:1;stroke-width:0.00642605"
     d="m 8.530311,10.467161 c -0.00381,-0.0093 -0.00821,-0.05158 -0.00981,-0.09399 C 8.515811,10.248818 8.535565,10.12379 8.609008,9.8127717 8.630043,9.7236837 8.648007,9.6415906 8.648925,9.630347 L 8.650585,9.609903 8.5107511,9.563069 C 8.3191536,9.4988989 8.2116445,9.481539 8.1686263,9.5078332 8.1580225,9.5143132 8.1305509,9.5382487 8.1075793,9.5610259 8.024044,9.6438646 7.930966,9.6764331 7.71398,9.6987535 c -0.020316,0.00202 -0.036948,0.00551 -0.036948,0.00721 0,0.023393 0.029495,0.099992 0.067509,0.1752685 0.049437,0.097904 0.058305,0.121125 0.1005567,0.263323 0.028969,0.0975 0.038767,0.186009 0.025148,0.227273 -0.01852,0.05611 -0.078124,0.08163 -0.1905987,0.08163 -0.075299,0 -0.2190578,-0.01647 -0.2315317,-0.02652 -0.012752,-0.01029 -0.029836,-0.08469 -0.02918,-0.127142 7.086e-4,-0.04547 -0.018131,-0.09982 -0.093725,-0.270453 C 7.3040666,9.9816215 7.2702851,9.8934287 7.250135,9.8333447 7.2299831,9.7732697 7.2023801,9.7009398 7.1887928,9.6726328 7.1621717,9.6171721 7.1170709,9.5602323 7.0997603,9.5602412 c -0.021388,0 -0.088438,0.037122 -0.1086356,0.060134 -0.041616,0.047409 -0.046954,0.06608 -0.069113,0.241896 -0.00913,0.072459 -0.020737,0.1505328 -0.025787,0.1735048 -0.00506,0.02298 -0.012285,0.08949 -0.016076,0.1478 -0.00862,0.132602 -0.015773,0.178643 -0.030949,0.199146 -0.037025,0.05002 -0.1125727,0.07065 -0.2589614,0.0707 -0.1153053,8.3e-5 -0.1635513,-0.0206 -0.179137,-0.07671 -0.011942,-0.04298 -0.00743,-0.166748 0.013204,-0.363441 0.00371,-0.035343 0.020837,-0.1278795 0.038059,-0.2056341 0.039897,-0.1801213 0.047494,-0.2340196 0.0438,-0.3107406 C 6.5023761,9.4181069 6.4820991,9.3686977 6.4357734,9.3253651 6.3805431,9.2737195 6.3173333,9.2520601 6.1743558,9.2358331 6.0534985,9.222103 5.9875629,9.2092483 5.9297494,9.1881478 5.8144498,9.1460751 5.7734109,9.0990235 5.7204182,8.9481545 5.6774871,8.825932 5.6240228,8.779029 5.4357015,8.6983821 5.3480061,8.6608271 5.3137866,8.6381107 5.2789136,8.5942964 c -0.063589,-0.079894 -0.084257,-0.158157 -0.078365,-0.296756 0.00616,-0.144765 -0.0086,-0.1959078 -0.092565,-0.3208337 -0.042003,-0.062494 -0.043118,-0.065211 -0.042279,-0.1030162 4.581e-4,-0.021355 0.00869,-0.090729 0.018249,-0.1541633 0.0121,-0.080272 0.016723,-0.1331677 0.015204,-0.1739944 -0.002,-0.052881 -0.00409,-0.061394 -0.02146,-0.086419 -0.042833,-0.061673 -0.047822,-0.070731 -0.058949,-0.1070179 -0.00904,-0.029491 -0.011505,-0.058834 -0.011245,-0.1341396 3.818e-4,-0.1134844 0.00724,-0.138092 0.06309,-0.2269997 0.039775,-0.063302 0.050763,-0.094611 0.047757,-0.1360752 l -0.00207,-0.028918 -0.051409,-0.0047 c -0.057464,-0.00525 -0.1092509,-0.00256 -0.2301093,0.011978 -0.045269,0.00544 -0.1132254,0.00892 -0.1510133,0.00774 -0.061132,-0.00193 -0.07294,-0.0043 -0.1070972,-0.021443 -0.036093,-0.018123 -0.0389,-0.021203 -0.04685,-0.05141 -0.04159,-0.1579727 0.1082524,-0.29881 0.3179152,-0.29881 0.070279,0 0.1159814,0.012761 0.209447,0.058486 0.068885,0.0337 0.1469745,0.060651 0.1604099,0.05536 0.00436,-0.00172 0.031076,-0.039886 0.059351,-0.084812 0.073841,-0.1173374 0.112627,-0.1576131 0.1855363,-0.1926646 0.032259,-0.015507 0.099136,-0.041657 0.1486166,-0.058108 0.1413693,-0.047001 0.1676704,-0.066248 0.2392373,-0.1750857 0.06571,-0.09993 0.1105516,-0.1321068 0.2267682,-0.1627207 0.044465,-0.011713 0.079961,-0.01515 0.1926692,-0.018659 0.1850463,-0.00577 0.1868513,-0.00644 0.3059025,-0.1156979 0.058117,-0.053335 0.1120336,-0.085037 0.1889071,-0.111074 l 0.061049,-0.020678 0.1702911,-5.04e-5 c 0.2026961,-5.4e-5 0.2220904,-0.00397 0.3646949,-0.073624 0.1995006,-0.097429 0.2718888,-0.1047833 0.4852779,-0.049299 0.1654458,0.043017 0.2082897,0.040803 0.3463292,-0.0179 0.1279984,-0.054435 0.1990212,-0.068492 0.2814275,-0.055706 0.097116,0.015068 0.1780903,0.051906 0.2816994,0.1281495 0.081678,0.060107 0.1028069,0.071347 0.1748244,0.093003 0.096081,0.028893 0.1562589,0.036615 0.3373706,0.043299 0.095427,0.00353 0.1883225,0.00931 0.2064377,0.012878 0.090856,0.017861 0.1714157,0.1170079 0.2867474,0.3529057 0.079291,0.1621878 0.1138038,0.2244091 0.1823568,0.3287718 0.210604,0.3206322 0.481507,0.5479107 0.845361,0.7092354 0.08559,0.03795 0.102948,0.052002 0.128611,0.1041287 0.02102,0.042698 0.02127,0.044276 0.02124,0.1333098 -8.6e-5,0.099475 -0.0076,0.1445944 -0.0461,0.275136 -0.01271,0.043138 -0.02713,0.094339 -0.03203,0.1137776 -0.0131,0.052087 -0.01138,0.1460024 0.0044,0.2409787 0.01625,0.097605 0.01401,0.1491919 -0.0095,0.2166811 -0.0246,0.070727 -0.06386,0.1294686 -0.139119,0.2080471 -0.07593,0.079306 -0.0887,0.1001151 -0.137559,0.2243075 -0.03834,0.097459 -0.06487,0.1414534 -0.110388,0.1830518 -0.08671,0.07925 -0.209712,0.1158729 -0.432639,0.1288175 l -0.1124575,0.00656 -0.020844,0.023944 c -0.027702,0.031818 -0.06838,0.1159726 -0.083013,0.1717469 -0.00963,0.036709 -0.011761,0.068656 -0.011494,0.1735036 3.054e-4,0.1401292 0.00535,0.1784171 0.060726,0.4626807 0.053289,0.2735515 0.098448,0.5894995 0.085824,0.6003625 -0.00576,0.0049 -0.3420844,0.05851 -0.3665729,0.05838 -0.012013,-8.4e-5 -0.016409,-0.0077 -0.030155,-0.05309 C 9.457692,10.058767 9.4113838,9.813938 9.3930594,9.518523 9.3895278,9.4619769 9.38381,9.4059095 9.3803044,9.3939352 9.3673371,9.3496444 9.3407431,9.3330151 9.2672988,9.3232789 9.16473,9.3096871 9.1684886,9.3092659 9.1616148,9.3350563 9.1312317,9.4490242 8.9441424,10.206063 8.9300813,10.271934 c -0.014615,0.06845 -0.035482,0.146362 -0.041258,0.154021 -6.11e-4,8.02e-4 -0.065957,0.01176 -0.1453274,0.02447 -0.079372,0.01271 -0.1582545,0.0255 -0.1752966,0.02839 -0.029562,0.005 -0.031306,0.0045 -0.03789,-0.01162 z M 11.101627,7.044517 C 10.877955,7.0021672 10.610516,6.8377908 10.359249,6.5882284 10.171908,6.4021598 10.063152,6.2413069 9.9422185,5.9714323 9.8877334,5.8498414 9.8616703,5.8058841 9.7969174,5.7263598 c -0.020469,-0.025148 -0.042177,-0.058403 -0.048219,-0.0739 -0.00599,-0.015497 -0.016257,-0.035796 -0.022696,-0.045109 L 9.7142974,5.5904171 9.5615889,5.5873571 C 9.4388912,5.5849105 9.3952039,5.581527 9.3392804,5.570215 9.2481516,5.5517904 9.1450291,5.5147336 9.0351309,5.4609236 8.9158941,5.402541 8.8803024,5.3644194 8.842659,5.2547799 8.8326798,5.2257203 8.830526,5.2005828 8.830526,5.1134055 c 0,-0.093202 0.00185,-0.1118616 0.015056,-0.1542259 C 8.875913,4.8620776 8.882302,4.8519435 8.922806,4.836621 8.953234,4.825106 8.968318,4.823414 9.016884,4.826083 9.094972,4.830353 9.1520551,4.851629 9.3476215,4.9492773 9.5566849,5.0536638 9.6276732,5.0805801 9.7187822,5.0900085 l 0.033583,0.00346 0.052334,-0.065546 c 0.028804,-0.036049 0.074035,-0.098802 0.100555,-0.1394462 0.05427,-0.083156 0.084456,-0.1178462 0.1173128,-0.1347689 0.03837,-0.019763 0.107443,-0.03839 0.240979,-0.064994 0.123998,-0.024703 0.137041,-0.028996 0.216336,-0.071242 0.04243,-0.022611 0.141728,-0.038843 0.220639,-0.036074 0.06136,0.00213 0.07916,0.00554 0.134948,0.025659 0.03534,0.012746 0.08895,0.03205 0.11912,0.042898 0.05904,0.021222 0.111119,0.028581 0.276586,0.039061 0.105905,0.00671 0.157494,0.015053 0.189068,0.030571 0.0106,0.00522 0.05408,0.045857 0.0966,0.09032 l 0.07733,0.080843 0.08012,-0.026295 c 0.04406,-0.014462 0.139395,-0.04669 0.21185,-0.07162 0.171308,-0.058945 0.242665,-0.07356 0.340583,-0.069756 0.05489,0.0021 0.08308,0.00641 0.109575,0.016642 0.10665,0.04118 0.125117,0.1493615 0.0509,0.2982239 -0.07163,0.1436991 -0.190031,0.2643693 -0.31691,0.3229907 -0.08779,0.040563 -0.134226,0.048118 -0.335174,0.054545 -0.09896,0.00318 -0.183246,0.00589 -0.1873,0.00607 -0.01368,5.537e-4 -0.02479,0.1082524 -0.02422,0.2348552 7.22e-4,0.1551011 0.0095,0.1987276 0.08685,0.428379 0.08025,0.2384032 0.09802,0.34498 0.08345,0.5007387 -0.01475,0.1577475 -0.05396,0.2534987 -0.138089,0.3371693 -0.05763,0.057327 -0.111004,0.08782 -0.196621,0.1123414 -0.06287,0.018003 -0.188177,0.022615 -0.257566,0.00947 z M 10.410872,5.8918531 c 0.01033,-0.00587 0.02552,-0.0234 0.03374,-0.03893 0.03999,-0.075628 -0.0052,-0.1676325 -0.08221,-0.1675672 -0.03738,2.4e-5 -0.06496,0.017814 -0.0819,0.052785 -0.02971,0.061371 -0.01047,0.1302 0.04413,0.1577856 0.03144,0.015888 0.05294,0.014871 0.08626,-0.00407 z m 0.993373,-0.066754 c 0.03885,-0.026438 0.04814,-0.045345 0.04814,-0.097998 0,-0.052827 -0.0092,-0.071399 -0.04878,-0.098566 -0.01731,-0.01188 -0.02777,-0.014382 -0.04995,-0.01195 -0.03572,0.00392 -0.05816,0.020371 -0.07637,0.056027 -0.04837,0.094646 0.04581,0.2077337 0.126981,0.152489 z"
     id="path1" />
  <g
     aria-label="Krita"
     id="text1450"
     style="font-size:1.76385px;opacity:1;fill:#ffff00;stroke-width:0.529156">
    <rect
       style="font-size:1.76385px;fill:#ffff00;fill-opacity:1;stroke:none;stroke-width:0.519976;stroke-dasharray:none;filter:url(#filter3148)"
       id="rect1656-3"
       width="0.5055005"
       height="2.2653189"
       x="15.369148"
       y="4.3016486"
       rx="0"
       ry="0" />
    <rect
       style="opacity:1;fill:#ffff00;fill-opacity:1;stroke:none;stroke-width:0.519976;stroke-dasharray:none"
       id="rect1656"
       width="0.5055005"
       height="2.2653189"
       x="15.369148"
       y="4.3016486"
       rx="0"
       ry="0" />
  </g>
  <path
     d="M 6.6216824,14.179017 6.4699913,13.789206 H 5.9708218 L 5.8208945,14.179017 H 5.6603842 l 0.4921141,-1.26468 h 0.1428719 l 0.4903503,1.26468 z m -0.340423,-0.91191 q -0.00529,-0.01411 -0.017638,-0.05115 -0.012347,-0.03704 -0.024694,-0.07585 -0.010583,-0.04057 -0.017639,-0.06173 -0.012347,0.05468 -0.028222,0.107595 -0.015875,0.05115 -0.026458,0.08114 l -0.1428718,0.380991 h 0.3986301 z m 0.8113708,0.91191 H 6.9374114 v -1.340526 h 0.1552188 z m 0.7496352,-0.963062 q 0.1746212,0 0.2804522,0.121706 0.1075948,0.121705 0.1075948,0.36688 0,0.241648 -0.1075948,0.366881 -0.105831,0.125234 -0.282216,0.125234 -0.1093587,0 -0.1816766,-0.04057 -0.070554,-0.04233 -0.1111225,-0.09701 h -0.010583 q 0.00353,0.02999 0.00706,0.07585 0.00353,0.04586 0.00353,0.07937 v 0.388047 H 7.3924837 v -1.368748 h 0.1269972 l 0.021166,0.128762 h 0.00706 q 0.042332,-0.06174 0.1111225,-0.104068 0.06879,-0.04233 0.1834404,-0.04233 z m -0.028222,0.130525 q -0.1446357,0 -0.2046066,0.08114 -0.058207,0.08114 -0.061735,0.246939 v 0.02998 q 0,0.174622 0.056443,0.269869 0.058207,0.09348 0.2134258,0.09348 0.086429,0 0.141108,-0.04762 0.056443,-0.04762 0.082901,-0.128761 0.028222,-0.0829 0.028222,-0.188732 0,-0.162275 -0.063499,-0.259286 -0.061735,-0.09701 -0.1922597,-0.09701 z m 1.0212689,-0.128761 q 0.1728573,0 0.2557583,0.07584 0.082901,0.07585 0.082901,0.241648 v 0.643805 H 9.0610855 l -0.029985,-0.134053 h -0.00706 q -0.061735,0.07761 -0.1305249,0.114651 -0.067026,0.03704 -0.1869681,0.03704 -0.1287611,0 -0.2134259,-0.06703 -0.084665,-0.06879 -0.084665,-0.213426 0,-0.141108 0.1111226,-0.216953 0.1111225,-0.07761 0.3421869,-0.08466 l 0.1605103,-0.0053 v -0.05644 q 0,-0.118178 -0.051152,-0.164038 -0.051152,-0.04586 -0.1446357,-0.04586 -0.074082,0 -0.141108,0.02293 -0.067026,0.02117 -0.1252334,0.04939 l -0.047624,-0.116414 q 0.061735,-0.03351 0.1463995,-0.05644 0.084665,-0.02469 0.176385,-0.02469 z m 0.04586,0.504461 q -0.176385,0.0071 -0.2451751,0.05644 -0.067026,0.04939 -0.067026,0.139344 0,0.07937 0.047624,0.116414 0.049388,0.03704 0.1252334,0.03704 0.1199418,0 0.199315,-0.06526 0.079373,-0.06703 0.079373,-0.204607 v -0.08466 z m 0.9648271,0.474476 q -0.1252333,0 -0.2240089,-0.05115 -0.097012,-0.05115 -0.153455,-0.158747 -0.054679,-0.107594 -0.054679,-0.27516 0,-0.174621 0.058207,-0.28398 0.058207,-0.109359 0.1569827,-0.16051 0.1005394,-0.05115 0.2275366,-0.05115 0.072318,0 0.1393442,0.01588 0.067026,0.01411 0.1093588,0.03528 l -0.04762,0.128761 q -0.04233,-0.01587 -0.098776,-0.02999 -0.056443,-0.01411 -0.105831,-0.01411 -0.2786883,0 -0.2786883,0.358062 0,0.171093 0.067026,0.262814 0.06879,0.08996 0.2028428,0.08996 0.077609,0 0.1358164,-0.01587 0.059971,-0.01587 0.1093585,-0.0388 v 0.13758 q -0.04762,0.02469 -0.1058308,0.03704 -0.056443,0.01411 -0.1375803,0.01411 z m 0.8254811,-0.978937 q 0.172857,0 0.255758,0.07584 0.0829,0.07585 0.0829,0.241648 v 0.643805 h -0.112886 l -0.02999,-0.134053 h -0.0071 q -0.06174,0.07761 -0.130525,0.114651 -0.06703,0.03704 -0.186968,0.03704 -0.128761,0 -0.213426,-0.06703 -0.08467,-0.06879 -0.08467,-0.213426 0,-0.141108 0.111123,-0.216953 0.111122,-0.07761 0.342187,-0.08466 l 0.16051,-0.0053 v -0.05644 q 0,-0.118178 -0.05115,-0.164038 -0.05115,-0.04586 -0.144635,-0.04586 -0.07408,0 -0.141108,0.02293 -0.06703,0.02117 -0.125234,0.04939 l -0.04762,-0.116414 q 0.06174,-0.03351 0.1464,-0.05644 0.08466,-0.02469 0.176385,-0.02469 z m 0.04586,0.504461 q -0.176385,0.0071 -0.245175,0.05644 -0.06703,0.04939 -0.06703,0.139344 0,0.07937 0.04762,0.116414 0.04939,0.03704 0.125233,0.03704 0.119942,0 0.199315,-0.06526 0.07937,-0.06703 0.07937,-0.204607 v -0.08466 z"
     id="text2284"
     style="font-size:1.76385px;fill:#999999;stroke-width:0.529156"
     aria-label="Alpaca" />
  <text
     xml:space="preserve"
     transform="scale(0.26457812)"
     id="text3806"
     style="fill:#999999;stroke-width:2;font-size:6.66666667px;white-space:pre;shape-inside:url(#rect3808)" />
</svg>
