<?xml version="1.0" encoding="UTF-8" standalone="no"?>
<svg
   width="64"
   height="64"
   version="1.1"
   viewBox="0 0 16.933 16.933"
   id="svg7"
   sodipodi:docname="cs-desktop.svg"
   inkscape:version="1.4 (e7c3feb100, 2024-10-09)"
   xmlns:inkscape="http://www.inkscape.org/namespaces/inkscape"
   xmlns:sodipodi="http://sodipodi.sourceforge.net/DTD/sodipodi-0.dtd"
   xmlns:xlink="http://www.w3.org/1999/xlink"
   xmlns="http://www.w3.org/2000/svg"
   xmlns:svg="http://www.w3.org/2000/svg"
   xmlns:rdf="http://www.w3.org/1999/02/22-rdf-syntax-ns#"
   xmlns:cc="http://creativecommons.org/ns#"
   xmlns:dc="http://purl.org/dc/elements/1.1/">
  <sodipodi:namedview
     id="namedview7"
     pagecolor="#9c4444"
     bordercolor="#000000"
     borderopacity="0.25"
     inkscape:showpageshadow="2"
     inkscape:pageopacity="0.0"
     inkscape:pagecheckerboard="0"
     inkscape:deskcolor="#d1d1d1"
     inkscape:zoom="6.15625"
     inkscape:cx="15.675127"
     inkscape:cy="29.807107"
     inkscape:window-width="1183"
     inkscape:window-height="973"
     inkscape:window-x="35"
     inkscape:window-y="32"
     inkscape:window-maximized="0"
     inkscape:current-layer="svg7"
     showgrid="false" />
  <defs
     id="defs2">
    <rect
       x="67.489848"
       y="35.60533"
       width="15.337563"
       height="22.51269"
       id="rect3808" />
    <linearGradient
       inkscape:collect="always"
       id="linearGradient1134">
      <stop
         style="stop-color:#161616;stop-opacity:1;"
         offset="0"
         id="stop1130" />
      <stop
         style="stop-color:#404040;stop-opacity:1;"
         offset="1"
         id="stop1132" />
    </linearGradient>
    <linearGradient
       inkscape:collect="always"
       id="linearGradient883">
      <stop
         style="stop-color:#808080;stop-opacity:1;"
         offset="0"
         id="stop879" />
      <stop
         style="stop-color:#3e3e3e;stop-opacity:1;"
         offset="0.5"
         id="stop1216" />
      <stop
         style="stop-color:#242424;stop-opacity:1;"
         offset="1"
         id="stop881" />
    </linearGradient>
    <linearGradient
       inkscape:collect="always"
       xlink:href="#linearGradient883"
       id="linearGradient885"
       x1="2.1085808"
       y1="2.0236168"
       x2="14.846128"
       y2="15.071845"
       gradientUnits="userSpaceOnUse" />
    <linearGradient
       inkscape:collect="always"
       xlink:href="#linearGradient1134"
       id="linearGradient1136"
       x1="14.971222"
       y1="14.703373"
       x2="2.0756054"
       y2="2.0069976"
       gradientUnits="userSpaceOnUse" />
    <filter
       style="color-interpolation-filters:sRGB;"
       inkscape:label="Blur"
       id="filter1283"
       x="-0.082344266"
       y="-0.082344266"
       width="1.1646885"
       height="1.1646885">
      <feGaussianBlur
         stdDeviation="0.5 0.5"
         result="blur"
         id="feGaussianBlur1281" />
    </filter>
    <filter
       style="color-interpolation-filters:sRGB;"
       inkscape:label="Blur"
       id="filter1694"
       x="-0.94955398"
       y="-0.2118907"
       width="2.899108"
       height="1.4237814">
      <feGaussianBlur
         stdDeviation="0.2 0.2"
         result="blur"
         id="feGaussianBlur1692" />
    </filter>
    <filter
       style="color-interpolation-filters:sRGB;"
       inkscape:label="Blur"
       id="filter3148"
       x="-0.94955398"
       y="-0.2118907"
       width="2.899108"
       height="1.4237814">
      <feGaussianBlur
         stdDeviation="0.2 0.2"
         result="blur"
         id="feGaussianBlur3146" />
    </filter>
  </defs>
  <metadata
     id="metadata2">
    <rdf:RDF>
      <cc:Work
         rdf:about="">
        <dc:format>image/svg+xml</dc:format>
        <dc:type
           rdf:resource="http://purl.org/dc/dcmitype/StillImage" />
      </cc:Work>
    </rdf:RDF>
  </metadata>
  <rect
     style="fill:#000000;stroke:none;stroke-width:0.539739;stroke-dasharray:none;filter:url(#filter1283)"
     id="rect246-1"
     width="14.572964"
     height="14.572964"
     x="1.1932471"
     y="1.2138842"
     rx="2.1589575"
     ry="2.1589575" />
  <rect
     style="opacity:1;fill:#000000;stroke:url(#linearGradient885);stroke-width:0.52915625;stroke-dasharray:none"
     id="rect246"
     width="14.287219"
     height="14.287219"
     x="1.3361193"
     y="1.3567564"
     rx="2.1166251"
     ry="2.1166251" />
  <rect
     style="fill:url(#linearGradient1136);fill-opacity:1;stroke:none;stroke-width:0.478315;stroke-dasharray:none"
     id="rect246-5"
     width="12.914515"
     height="12.914515"
     x="2.0224717"
     y="2.0431087"
     rx="1.5874687"
     ry="1.5874687" />
  <g
     transform="matrix(0.12266797,0,0,0.12266798,4.6953585,-30.662602)"
     id="g26"
     style="fill:#999999;fill-opacity:1;stroke:none;stroke-width:2.01034;stroke-dasharray:none;stroke-opacity:0.3">
    <path
       style="fill:#999999;fill-opacity:1;stroke:none;stroke-width:2.01034;stroke-linecap:round;stroke-linejoin:round;stroke-dasharray:none;stroke-opacity:0.3"
       d="m 4.4166669,283.06668 c -0.7848329,0 -1.4166664,0.63186 -1.4166664,1.4167 v 14.16664 c 0,0.78485 0.6318335,1.41665 1.4166664,1.41665 H 18.583333 c 0.784834,0 1.416667,-0.6318 1.416667,-1.41665 v -14.16664 c 0,-0.78484 -0.631833,-1.4167 -1.416667,-1.4167 z"
       id="path6" />
    <path
       style="fill:#999999;fill-opacity:1;stroke:none;stroke-width:2.01034;stroke-linecap:round;stroke-linejoin:round;stroke-dasharray:none;stroke-opacity:0.3"
       d="m 24.416665,283.06667 c -0.784833,0 -1.416667,0.63187 -1.416667,1.4167 v 14.16665 c 0,0.78485 0.631834,1.41665 1.416667,1.41665 h 14.166673 c 0.784833,0 1.416667,-0.6318 1.416667,-1.41665 v -14.16665 c 0,-0.78483 -0.631834,-1.4167 -1.416667,-1.4167 z"
       id="path8" />
    <path
       style="fill:#999999;fill-opacity:1;stroke:none;stroke-width:2.01034;stroke-linecap:round;stroke-linejoin:round;stroke-dasharray:none;stroke-opacity:0.3"
       d="m 44.416665,283.06667 c -0.784833,0 -1.416667,0.63187 -1.416667,1.4167 v 14.16665 c 0,0.78485 0.631834,1.41665 1.416667,1.41665 h 14.166672 c 0.784832,0 1.41667,-0.6318 1.41667,-1.41665 v -14.16665 c 0,-0.78483 -0.631838,-1.4167 -1.41667,-1.4167 z"
       id="path10" />
    <path
       style="fill:#999999;fill-opacity:1;stroke:none;stroke-width:2.01034;stroke-linecap:round;stroke-linejoin:round;stroke-dasharray:none;stroke-opacity:0.3"
       d="m 4.4166668,303.06667 c -0.7848329,0 -1.4166663,0.63181 -1.4166663,1.41665 v 14.1667 c 0,0.78484 0.6318334,1.41665 1.4166663,1.41665 H 18.583331 c 0.784834,0 1.416667,-0.63181 1.416667,-1.41665 v -14.1667 c 0,-0.78484 -0.631833,-1.41665 -1.416667,-1.41665 z"
       id="path12" />
    <path
       style="fill:#999999;fill-opacity:1;stroke:none;stroke-width:2.01034;stroke-linecap:round;stroke-linejoin:round;stroke-dasharray:none;stroke-opacity:0.3"
       d="m 24.416665,303.06667 c -0.784834,0 -1.416667,0.63181 -1.416667,1.41665 v 14.1667 c 0,0.78484 0.631833,1.41665 1.416667,1.41665 h 14.166664 c 0.784833,0 1.416666,-0.63181 1.416666,-1.41665 v -14.1667 c 0,-0.78484 -0.631833,-1.41665 -1.416666,-1.41665 z"
       id="path14" />
    <path
       style="fill:#999999;fill-opacity:1;stroke:none;stroke-width:2.01034;stroke-linecap:round;stroke-linejoin:round;stroke-dasharray:none;stroke-opacity:0.3"
       d="m 44.416665,303.06667 c -0.784833,0 -1.416667,0.63181 -1.416667,1.41665 v 14.1667 c 0,0.78484 0.631834,1.41665 1.416667,1.41665 h 14.166663 c 0.784832,0 1.416669,-0.63181 1.416669,-1.41665 v -14.1667 c 0,-0.78484 -0.631837,-1.41665 -1.416669,-1.41665 z"
       id="path16" />
    <path
       style="fill:#999999;fill-opacity:1;stroke:none;stroke-width:2.01034;stroke-linecap:round;stroke-linejoin:round;stroke-dasharray:none;stroke-opacity:0.3"
       d="m 4.4166676,323.06667 c -0.7848333,0 -1.4166671,0.6318 -1.4166671,1.41665 v 14.16665 c 0,0.78484 0.6318338,1.4167 1.4166671,1.4167 H 18.583341 c 0.784833,0 1.416667,-0.63186 1.416667,-1.4167 v -14.16665 c 0,-0.78485 -0.631834,-1.41665 -1.416667,-1.41665 z"
       id="path18" />
    <path
       style="fill:#999999;fill-opacity:1;stroke:none;stroke-width:2.01034;stroke-linecap:round;stroke-linejoin:round;stroke-dasharray:none;stroke-opacity:0.3"
       d="m 24.416677,323.06667 c -0.784832,0 -1.416667,0.6318 -1.416667,1.41665 v 14.16665 c 0,0.78484 0.631835,1.4167 1.416667,1.4167 h 14.166674 c 0.784833,0 1.416666,-0.63186 1.416666,-1.4167 v -14.16665 c 0,-0.78485 -0.631833,-1.41665 -1.416666,-1.41665 z"
       id="path20-3" />
    <path
       style="fill:#999999;fill-opacity:1;stroke:none;stroke-width:2.01034;stroke-linecap:round;stroke-linejoin:round;stroke-dasharray:none;stroke-opacity:0.3"
       d="m 44.416689,323.06667 c -0.784833,0 -1.416667,0.6318 -1.416667,1.41665 v 14.16665 c 0,0.78484 0.631834,1.4167 1.416667,1.4167 H 58.58336 c 0.784833,0 1.416671,-0.63186 1.416671,-1.4167 v -14.16665 c 0,-0.78485 -0.631838,-1.41665 -1.416671,-1.41665 z"
       id="path22" />
  </g>
  <g
     aria-label="Krita"
     id="text1450"
     style="font-size:1.76385px;opacity:1;fill:#5555ff;stroke-width:0.529156">
    <rect
       style="font-size:1.76385px;fill:#5555ff;fill-opacity:1;stroke:none;stroke-width:0.519976;stroke-dasharray:none;filter:url(#filter3148)"
       id="rect1656-3"
       width="0.5055005"
       height="2.2653189"
       x="15.369148"
       y="4.3016486"
       rx="0"
       ry="0" />
    <rect
       style="opacity:1;fill:#5555ff;fill-opacity:1;stroke:none;stroke-width:0.519976;stroke-dasharray:none"
       id="rect1656"
       width="0.5055005"
       height="2.2653189"
       x="15.369148"
       y="4.3016486"
       rx="0"
       ry="0" />
  </g>
  <path
     d="m 6.3112436,13.536976 q 0,0.319257 -0.1746211,0.481531 -0.1728573,0.16051 -0.4832949,0.16051 H 5.3023214 v -1.259389 h 0.388047 q 0.1904958,0 0.32984,0.07055 0.1393441,0.07055 0.2151897,0.208134 0.075845,0.135817 0.075845,0.33866 z m -0.1675657,0.0053 q 0,-0.25223 -0.1252334,-0.368644 Q 5.894975,13.055445 5.6674384,13.055445 H 5.4610679 v 0.987756 h 0.1710935 q 0.5115165,0 0.5115165,-0.500934 z m 0.790204,-0.326312 q 0.1217056,0 0.2081343,0.05292 0.088193,0.05292 0.1340526,0.149928 0.047624,0.09525 0.047624,0.224009 v 0.09348 H 6.6763598 q 0.00353,0.16051 0.081137,0.245175 0.079373,0.0829 0.2204812,0.0829 0.089956,0 0.1587465,-0.01588 0.070554,-0.01764 0.1446357,-0.04939 v 0.135817 q -0.072318,0.03175 -0.1428718,0.04586 -0.070554,0.01588 -0.1675658,0.01588 -0.1340526,0 -0.2381197,-0.05468 -0.1023033,-0.05468 -0.1605104,-0.162274 -0.056443,-0.109359 -0.056443,-0.266341 0,-0.155219 0.051152,-0.266342 0.052916,-0.111122 0.1463995,-0.171093 0.095248,-0.05997 0.2204813,-0.05997 z m -0.00176,0.126997 q -0.1111225,0 -0.176385,0.07232 -0.063499,0.07055 -0.075845,0.197551 h 0.481531 q -0.00176,-0.119942 -0.056443,-0.194023 -0.054679,-0.07585 -0.1728573,-0.07585 z m 1.2470405,0.575015 q 0,0.137581 -0.1023033,0.208135 -0.1023033,0.07055 -0.2751606,0.07055 -0.098776,0 -0.1710934,-0.01588 -0.070554,-0.01587 -0.1252333,-0.0441 v -0.141108 q 0.056443,0.02822 0.1358164,0.05291 0.081137,0.02293 0.164038,0.02293 0.118178,0 0.1710935,-0.03704 0.052915,-0.0388 0.052915,-0.102303 0,-0.03528 -0.019402,-0.0635 -0.019402,-0.02822 -0.070554,-0.05644 -0.049388,-0.02822 -0.1428718,-0.0635 -0.09172,-0.03528 -0.1569827,-0.07055 -0.065262,-0.03528 -0.1005394,-0.08466 -0.035277,-0.04939 -0.035277,-0.126997 0,-0.119942 0.097012,-0.185205 0.098776,-0.06526 0.2575221,-0.06526 0.086429,0 0.1605104,0.01764 0.075845,0.01587 0.141108,0.04586 l -0.052916,0.123469 q -0.059971,-0.02469 -0.1252334,-0.04233 -0.065262,-0.01764 -0.1340526,-0.01764 -0.095248,0 -0.1463995,0.03175 -0.049388,0.02999 -0.049388,0.0829 0,0.0388 0.02293,0.06703 0.02293,0.02646 0.075846,0.05292 0.054679,0.02469 0.1446357,0.05997 0.089956,0.03351 0.1534549,0.06879 0.063499,0.03528 0.097012,0.08643 0.033513,0.04939 0.033513,0.125233 z M 8.561914,13.53874 q 0,0.02822 -0.00353,0.07408 -0.00176,0.04586 -0.00353,0.07937 h 0.00706 q 0.010583,-0.01411 0.031749,-0.04057 0.021166,-0.02646 0.042332,-0.05292 0.02293,-0.02822 0.038805,-0.04586 L 8.9764187,13.233593 H 9.1580953 L 8.7753399,13.637515 9.184553,14.179017 H 8.9975849 l -0.328076,-0.440962 -0.1075949,0.09348 v 0.347478 H 8.4084591 V 12.838491 H 8.561914 Z m 1.1041709,0.530918 q 0.035277,0 0.072318,-0.0053 0.037041,-0.0071 0.059971,-0.01411 v 0.118178 q -0.024694,0.01235 -0.070554,0.0194 -0.04586,0.0088 -0.088192,0.0088 -0.074082,0 -0.1375803,-0.02469 -0.061735,-0.02646 -0.1005394,-0.08996 -0.038805,-0.0635 -0.038805,-0.178149 V 13.353535 H 9.2286501 v -0.07408 l 0.1358164,-0.06173 0.061735,-0.201079 h 0.09172 v 0.216953 h 0.2733967 v 0.119942 H 9.5179215 v 0.546794 q 0,0.08643 0.040569,0.128761 0.042332,0.04057 0.1075949,0.04057 z M 10.80906,13.704541 q 0,0.234592 -0.119942,0.363354 -0.118178,0.128761 -0.321021,0.128761 -0.125233,0 -0.224009,-0.05644 -0.09701,-0.05821 -0.1534548,-0.167565 -0.056443,-0.111123 -0.056443,-0.268106 0,-0.234592 0.118178,-0.361589 0.118178,-0.126997 0.321021,-0.126997 0.128761,0 0.225772,0.05821 0.09878,0.05644 0.153455,0.165802 0.05644,0.107595 0.05644,0.264577 z m -0.71436,0 q 0,0.167566 0.06526,0.266342 0.06703,0.09701 0.211662,0.09701 0.142872,0 0.209898,-0.09701 0.06703,-0.09878 0.06703,-0.266342 0,-0.167565 -0.06703,-0.262813 -0.06703,-0.09525 -0.211662,-0.09525 -0.144636,0 -0.209898,0.09525 -0.06526,0.09525 -0.06526,0.262813 z m 1.409316,-0.488586 q 0.174621,0 0.280452,0.121706 0.107595,0.121705 0.107595,0.36688 0,0.241648 -0.107595,0.366881 -0.105831,0.125234 -0.282216,0.125234 -0.109359,0 -0.181677,-0.04057 -0.07055,-0.04233 -0.111122,-0.09701 h -0.01058 q 0.0035,0.02999 0.0071,0.07585 0.0035,0.04586 0.0035,0.07937 v 0.388047 h -0.155219 v -1.368748 h 0.126997 l 0.02117,0.128762 h 0.0071 q 0.04233,-0.06174 0.111122,-0.104068 0.06879,-0.04233 0.183441,-0.04233 z m -0.02822,0.130525 q -0.144635,0 -0.204606,0.08114 -0.05821,0.08114 -0.06174,0.246939 v 0.02998 q 0,0.174622 0.05644,0.269869 0.05821,0.09348 0.213426,0.09348 0.08643,0 0.141108,-0.04762 0.05644,-0.04762 0.0829,-0.128761 0.02822,-0.0829 0.02822,-0.188732 0,-0.162275 -0.0635,-0.259286 -0.06174,-0.09701 -0.19226,-0.09701 z"
     id="text2284"
     style="font-size:1.76385px;fill:#999999;stroke-width:0.529156"
     aria-label="Desktop" />
  <text
     xml:space="preserve"
     transform="scale(0.26457812)"
     id="text3806"
     style="fill:#999999;stroke-width:2;font-size:6.66666667px;white-space:pre;shape-inside:url(#rect3808)" />
</svg>
