<?xml version="1.0" encoding="UTF-8" standalone="no"?>
<svg
   width="64"
   height="64"
   version="1.1"
   viewBox="0 0 16.933 16.933"
   id="svg7"
   sodipodi:docname="session-properties.svg"
   inkscape:version="1.4 (e7c3feb100, 2024-10-09)"
   xmlns:inkscape="http://www.inkscape.org/namespaces/inkscape"
   xmlns:sodipodi="http://sodipodi.sourceforge.net/DTD/sodipodi-0.dtd"
   xmlns:xlink="http://www.w3.org/1999/xlink"
   xmlns="http://www.w3.org/2000/svg"
   xmlns:svg="http://www.w3.org/2000/svg"
   xmlns:rdf="http://www.w3.org/1999/02/22-rdf-syntax-ns#"
   xmlns:cc="http://creativecommons.org/ns#"
   xmlns:dc="http://purl.org/dc/elements/1.1/">
  <sodipodi:namedview
     id="namedview7"
     pagecolor="#9c4444"
     bordercolor="#000000"
     borderopacity="0.25"
     inkscape:showpageshadow="2"
     inkscape:pageopacity="0.0"
     inkscape:pagecheckerboard="0"
     inkscape:deskcolor="#d1d1d1"
     inkscape:zoom="6.15625"
     inkscape:cx="31.431472"
     inkscape:cy="40.527919"
     inkscape:window-width="1183"
     inkscape:window-height="973"
     inkscape:window-x="35"
     inkscape:window-y="32"
     inkscape:window-maximized="0"
     inkscape:current-layer="svg7"
     showgrid="false" />
  <defs
     id="defs2">
    <linearGradient
       inkscape:collect="always"
       id="linearGradient1134">
      <stop
         style="stop-color:#161616;stop-opacity:1;"
         offset="0"
         id="stop1130" />
      <stop
         style="stop-color:#404040;stop-opacity:1;"
         offset="1"
         id="stop1132" />
    </linearGradient>
    <linearGradient
       inkscape:collect="always"
       id="linearGradient883">
      <stop
         style="stop-color:#808080;stop-opacity:1;"
         offset="0"
         id="stop879" />
      <stop
         style="stop-color:#3e3e3e;stop-opacity:1;"
         offset="0.5"
         id="stop1216" />
      <stop
         style="stop-color:#242424;stop-opacity:1;"
         offset="1"
         id="stop881" />
    </linearGradient>
    <linearGradient
       inkscape:collect="always"
       xlink:href="#linearGradient883"
       id="linearGradient885"
       x1="2.1085808"
       y1="2.0236168"
       x2="14.846128"
       y2="15.071845"
       gradientUnits="userSpaceOnUse" />
    <linearGradient
       inkscape:collect="always"
       xlink:href="#linearGradient1134"
       id="linearGradient1136"
       x1="14.971222"
       y1="14.703373"
       x2="2.0756054"
       y2="2.0069976"
       gradientUnits="userSpaceOnUse" />
    <filter
       style="color-interpolation-filters:sRGB;"
       inkscape:label="Blur"
       id="filter1283"
       x="-0.082344266"
       y="-0.082344266"
       width="1.1646885"
       height="1.1646885">
      <feGaussianBlur
         stdDeviation="0.5 0.5"
         result="blur"
         id="feGaussianBlur1281" />
    </filter>
    <filter
       style="color-interpolation-filters:sRGB;"
       inkscape:label="Blur"
       id="filter1694"
       x="-0.94955398"
       y="-0.2118907"
       width="2.899108"
       height="1.4237814">
      <feGaussianBlur
         stdDeviation="0.2 0.2"
         result="blur"
         id="feGaussianBlur1692" />
    </filter>
    <filter
       style="color-interpolation-filters:sRGB;"
       inkscape:label="Blur"
       id="filter3335"
       x="-0.94955398"
       y="-0.2118907"
       width="2.899108"
       height="1.4237814">
      <feGaussianBlur
         stdDeviation="0.2 0.2"
         result="blur"
         id="feGaussianBlur3333" />
    </filter>
  </defs>
  <metadata
     id="metadata2">
    <rdf:RDF>
      <cc:Work
         rdf:about="">
        <dc:format>image/svg+xml</dc:format>
        <dc:type
           rdf:resource="http://purl.org/dc/dcmitype/StillImage" />
      </cc:Work>
    </rdf:RDF>
  </metadata>
  <rect
     style="fill:#000000;stroke:none;stroke-width:0.539739;stroke-dasharray:none;filter:url(#filter1283)"
     id="rect246-1"
     width="14.572964"
     height="14.572964"
     x="1.1932471"
     y="1.2138842"
     rx="2.1589575"
     ry="2.1589575" />
  <rect
     style="opacity:1;fill:#000000;stroke:url(#linearGradient885);stroke-width:0.52915625;stroke-dasharray:none"
     id="rect246"
     width="14.287219"
     height="14.287219"
     x="1.3361193"
     y="1.3567564"
     rx="2.1166251"
     ry="2.1166251" />
  <g
     aria-label="Krita"
     id="text1450"
     style="font-size:1.76385px;opacity:1;fill:#999999;stroke-width:0.529156">
    <rect
       style="font-size:1.76385px;fill:#ff0000;fill-opacity:1;stroke:none;stroke-width:0.519976;stroke-dasharray:none;filter:url(#filter3335)"
       id="rect1656-0"
       width="0.5055005"
       height="2.2653189"
       x="15.369148"
       y="4.3016486"
       rx="0"
       ry="0" />
    <rect
       style="opacity:1;fill:#ff0000;fill-opacity:1;stroke:none;stroke-width:0.519976;stroke-dasharray:none"
       id="rect1656"
       width="0.5055005"
       height="2.2653189"
       x="15.369148"
       y="4.3016486"
       rx="0"
       ry="0" />
  </g>
  <rect
     style="fill:url(#linearGradient1136);fill-opacity:1;stroke:none;stroke-width:0.478315;stroke-dasharray:none"
     id="rect246-5"
     width="12.914515"
     height="12.914515"
     x="2.0224717"
     y="2.0431087"
     rx="1.5874687"
     ry="1.5874687" />
  <g
     style="fill:#999999;fill-opacity:1;stroke:none;stroke-width:0.873557;stroke-dasharray:none;stroke-opacity:0.3"
     transform="matrix(0.29222564,0,0,0.30154219,4.9639869,3.8272003)"
     id="g16">
    <g
       id="g14"
       style="fill:#999999;fill-opacity:1;stroke:none;stroke-width:0.873557;stroke-dasharray:none;stroke-opacity:0.3">
      <path
         d="m 24.013,0.001 c 0,0 -3.601,-0.101 -7.2,1.7 -1.1,0.5 -2.3,1.3 -3.3,2.3 -1.617,1.617 -4.129,4.594 -6.107,7 H 3.013 l -2,3 3.392,0.917 c 0.01,0.121 0.042,0.292 0.136,0.523 L 4.014,16.6 c 0,0 -0.2,0.4 1.3,2 1.6,1.601 2.1,1.4 2.1,1.4 l 1.243,-0.564 c 0.186,0.058 0.324,0.078 0.414,0.078 l 0.943,3.486 3,-2 v -4.527 c 2.423,-1.959 5.396,-4.421 7,-5.973 1,-1 1.8,-2.2 2.399,-3.3 1.699,-3.599 1.6,-7.199 1.6,-7.199 z m -7,9 c -1.101,0 -2,-0.9 -2,-2 0,-1.101 0.899,-2 2,-2 1.1,0 2,0.899 2,2 0,1.1 -0.901,2 -2,2 z m -10.5,12 c 0.2,0.101 0.3,0.2 0.5,0.3 -0.2,0.2 -0.4,0.5 -0.601,0.7 -2.301,2.3 -6.399,2 -6.399,2 0,0 -0.3,-4.101 2,-6.399 0.2,-0.201 0.5,-0.399 0.7,-0.601 0.1,0.2 0.199,0.3 0.3,0.5 -1.5,1.899 -1.3,4.8 -1.3,4.8 0,0 2.899,0.2 4.8,-1.3 z"
         id="path12"
         style="fill:#999999;fill-opacity:1;stroke:none;stroke-width:0.873557;stroke-dasharray:none;stroke-opacity:0.3" />
    </g>
  </g>
  <path
     d="m 4.2632335,13.454467 q 0,0.319256 -0.1746211,0.481531 -0.1728573,0.16051 -0.4832949,0.16051 H 3.2543113 v -1.259389 h 0.388047 q 0.1904958,0 0.32984,0.07055 0.1393441,0.07055 0.2151897,0.208134 0.075845,0.135817 0.075845,0.33866 z m -0.1675657,0.0053 q 0,-0.25223 -0.1252334,-0.368644 Q 3.8469649,12.972936 3.6194283,12.972936 H 3.4130578 v 0.987756 h 0.1710935 q 0.5115165,0 0.5115165,-0.500934 z m 0.790204,-0.326312 q 0.1217056,0 0.2081343,0.05292 0.088193,0.05292 0.1340526,0.149928 0.047624,0.09525 0.047624,0.224009 v 0.09348 H 4.6283497 q 0.00353,0.16051 0.081137,0.245175 0.079373,0.0829 0.2204812,0.0829 0.089956,0 0.1587465,-0.01588 0.070554,-0.01764 0.1446357,-0.04939 v 0.135817 q -0.072318,0.03175 -0.1428718,0.04586 -0.070554,0.01588 -0.1675658,0.01588 -0.1340526,0 -0.2381197,-0.05468 -0.1023033,-0.05468 -0.1605104,-0.162274 -0.056443,-0.109359 -0.056443,-0.266341 0,-0.155219 0.051152,-0.266342 0.052916,-0.111122 0.1463995,-0.171093 0.095248,-0.05997 0.2204813,-0.05997 z m -0.00176,0.126997 q -0.1111225,0 -0.176385,0.07232 -0.063499,0.07055 -0.075846,0.197551 h 0.481531 q -0.00176,-0.119942 -0.056443,-0.194023 -0.054679,-0.07585 -0.1728573,-0.07585 z m 1.0671278,0.01058 H 5.713116 v 0.825482 H 5.5578972 V 13.271026 H 5.3920953 v -0.07232 l 0.1658019,-0.05292 v -0.05468 q 0,-0.183441 0.081137,-0.262814 0.081137,-0.08114 0.2257728,-0.08114 0.056443,0 0.1023033,0.01058 0.047624,0.0088 0.081137,0.02117 l -0.040569,0.121706 q -0.028222,-0.0088 -0.065262,-0.01764 -0.037041,-0.0088 -0.075846,-0.0088 -0.077609,0 -0.1164141,0.05292 -0.037041,0.05115 -0.037041,0.162275 v 0.06173 H 5.9512357 Z M 6.4803904,13.13521 q 0.1728573,0 0.2557583,0.07584 0.082901,0.07585 0.082901,0.241648 v 0.643805 H 6.7061632 l -0.029985,-0.134053 h -0.00706 q -0.061735,0.07761 -0.1305249,0.114651 -0.067026,0.03704 -0.1869681,0.03704 -0.1287611,0 -0.2134259,-0.06703 -0.084665,-0.06879 -0.084665,-0.213426 0,-0.141108 0.1111226,-0.216953 0.1111225,-0.07761 0.3421869,-0.08466 l 0.1605103,-0.0053 v -0.05644 q 0,-0.118178 -0.051152,-0.164038 -0.051152,-0.04586 -0.1446357,-0.04586 -0.074082,0 -0.141108,0.02293 -0.067026,0.02117 -0.1252334,0.04939 l -0.047624,-0.116414 q 0.061735,-0.03351 0.1463995,-0.05644 0.084665,-0.02469 0.176385,-0.02469 z m 0.04586,0.504461 q -0.176385,0.0071 -0.2451751,0.05644 -0.067026,0.04939 -0.067026,0.139344 0,0.07937 0.047624,0.116414 0.049388,0.03704 0.1252334,0.03704 0.1199418,0 0.199315,-0.06526 0.079373,-0.06703 0.079373,-0.204607 v -0.08467 z m 1.3758044,-0.488587 v 0.945424 H 7.7750577 l -0.02293,-0.125233 h -0.00706 q -0.04586,0.07408 -0.1269972,0.109358 -0.081137,0.03351 -0.1728573,0.03351 -0.1710935,0 -0.2575221,-0.08114 -0.086429,-0.0829 -0.086429,-0.262813 v -0.619112 h 0.1569827 v 0.608529 q 0,0.225772 0.2098981,0.225772 0.1569827,0 0.2169536,-0.08819 0.061735,-0.08819 0.061735,-0.253994 v -0.492115 z m 0.4550733,0.945424 H 8.2019094 V 12.755982 H 8.3571282 Z M 8.972711,13.987149 q 0.035277,0 0.072318,-0.0053 0.037041,-0.0071 0.059971,-0.01411 v 0.118178 q -0.024694,0.01235 -0.070554,0.0194 -0.04586,0.0088 -0.088192,0.0088 -0.074082,0 -0.1375803,-0.02469 -0.061735,-0.02646 -0.1005394,-0.08996 -0.038805,-0.0635 -0.038805,-0.178149 V 13.271026 H 8.5352762 v -0.07408 l 0.1358164,-0.06173 0.061735,-0.201079 h 0.09172 v 0.216953 h 0.2733967 v 0.119942 H 8.8245476 v 0.546794 q 0,0.08643 0.040568,0.128761 0.042332,0.04057 0.1075949,0.04057 z m 1.590993,0.109359 -0.151691,-0.389811 H 9.9128434 L 9.7629161,14.096508 H 9.6024058 l 0.4921142,-1.26468 h 0.142872 l 0.49035,1.26468 z m -0.340423,-0.91191 q -0.0053,-0.01411 -0.01764,-0.05115 -0.01235,-0.03704 -0.02469,-0.07585 -0.01058,-0.04057 -0.01764,-0.06173 -0.01235,0.05468 -0.02822,0.107594 -0.01587,0.05115 -0.02646,0.08114 l -0.1428721,0.380991 h 0.3986301 z m 1.105934,-0.05115 q 0.174621,0 0.280452,0.121706 0.107595,0.121705 0.107595,0.36688 0,0.241648 -0.107595,0.366881 -0.105831,0.125234 -0.282216,0.125234 -0.109359,0 -0.181677,-0.04057 -0.07055,-0.04233 -0.111122,-0.09701 h -0.01058 q 0.0035,0.02999 0.0071,0.07585 0.0035,0.04586 0.0035,0.07937 v 0.388047 h -0.155219 v -1.368748 h 0.126997 l 0.02117,0.128761 h 0.0071 q 0.04233,-0.06173 0.111122,-0.104067 0.06879,-0.04233 0.183441,-0.04233 z m -0.02822,0.130525 q -0.144636,0 -0.204606,0.08114 -0.05821,0.08114 -0.06174,0.246939 v 0.02998 q 0,0.174622 0.05644,0.269869 0.05821,0.09348 0.213426,0.09348 0.08643,0 0.141108,-0.04762 0.05644,-0.04762 0.0829,-0.128762 0.02822,-0.0829 0.02822,-0.188731 0,-0.162275 -0.0635,-0.259286 -0.06173,-0.09701 -0.19226,-0.09701 z m 1.112989,-0.130525 q 0.174621,0 0.280452,0.121706 0.107595,0.121705 0.107595,0.36688 0,0.241648 -0.107595,0.366881 -0.105831,0.125234 -0.282216,0.125234 -0.109358,0 -0.181676,-0.04057 -0.07055,-0.04233 -0.111123,-0.09701 h -0.01058 q 0.0035,0.02999 0.0071,0.07585 0.0035,0.04586 0.0035,0.07937 v 0.388047 H 11.9642 v -1.368748 h 0.126998 l 0.02117,0.128761 h 0.0071 q 0.04233,-0.06173 0.111123,-0.104067 0.06879,-0.04233 0.18344,-0.04233 z m -0.02822,0.130525 q -0.144636,0 -0.204607,0.08114 -0.05821,0.08114 -0.06173,0.246939 v 0.02998 q 0,0.174622 0.05644,0.269869 0.05821,0.09348 0.213426,0.09348 0.08643,0 0.141108,-0.04762 0.05644,-0.04762 0.0829,-0.128762 0.02822,-0.0829 0.02822,-0.188731 0,-0.162275 -0.0635,-0.259286 -0.06174,-0.09701 -0.192259,-0.09701 z m 1.27879,0.571487 q 0,0.137581 -0.102303,0.208135 -0.102303,0.07055 -0.275161,0.07055 -0.09877,0 -0.171093,-0.01588 -0.07055,-0.01587 -0.125233,-0.0441 v -0.141108 q 0.05644,0.02822 0.135816,0.05291 0.08114,0.02293 0.164038,0.02293 0.118178,0 0.171094,-0.03704 0.05291,-0.0388 0.05291,-0.102303 0,-0.03528 -0.0194,-0.0635 -0.0194,-0.02822 -0.07055,-0.05644 -0.04939,-0.02822 -0.142872,-0.0635 -0.09172,-0.03528 -0.156983,-0.07055 -0.06526,-0.03528 -0.100539,-0.08466 -0.03528,-0.04939 -0.03528,-0.126997 0,-0.119942 0.09701,-0.185205 0.09877,-0.06526 0.257522,-0.06526 0.08643,0 0.16051,0.01764 0.07585,0.01587 0.141108,0.04586 l -0.05292,0.123469 q -0.05997,-0.02469 -0.125234,-0.04233 -0.06526,-0.01764 -0.134052,-0.01764 -0.09525,0 -0.1464,0.03175 -0.04939,0.02999 -0.04939,0.0829 0,0.0388 0.02293,0.06703 0.02293,0.02646 0.07585,0.05292 0.05468,0.02469 0.144636,0.05997 0.08996,0.03351 0.153454,0.06879 0.0635,0.03528 0.09701,0.08643 0.03351,0.04939 0.03351,0.125233 z"
     id="text2"
     style="font-size:1.76385px;text-align:center;text-anchor:middle;fill:#999999;stroke-width:0.264578"
     aria-label="Default Apps" />
</svg>
