<?xml version="1.0" encoding="UTF-8" standalone="no"?>
<svg
   width="64"
   height="64"
   version="1.1"
   viewBox="0 0 16.933 16.933"
   id="svg7"
   sodipodi:docname="cs-desklets.svg"
   inkscape:version="1.4 (e7c3feb100, 2024-10-09)"
   xmlns:inkscape="http://www.inkscape.org/namespaces/inkscape"
   xmlns:sodipodi="http://sodipodi.sourceforge.net/DTD/sodipodi-0.dtd"
   xmlns:xlink="http://www.w3.org/1999/xlink"
   xmlns="http://www.w3.org/2000/svg"
   xmlns:svg="http://www.w3.org/2000/svg"
   xmlns:rdf="http://www.w3.org/1999/02/22-rdf-syntax-ns#"
   xmlns:cc="http://creativecommons.org/ns#"
   xmlns:dc="http://purl.org/dc/elements/1.1/">
  <sodipodi:namedview
     id="namedview7"
     pagecolor="#9c4444"
     bordercolor="#000000"
     borderopacity="0.25"
     inkscape:showpageshadow="2"
     inkscape:pageopacity="0.0"
     inkscape:pagecheckerboard="0"
     inkscape:deskcolor="#d1d1d1"
     inkscape:zoom="6.15625"
     inkscape:cx="19.573604"
     inkscape:cy="29.807107"
     inkscape:window-width="1183"
     inkscape:window-height="940"
     inkscape:window-x="35"
     inkscape:window-y="32"
     inkscape:window-maximized="0"
     inkscape:current-layer="svg7"
     showgrid="false" />
  <defs
     id="defs2">
    <rect
       x="67.489848"
       y="35.60533"
       width="15.337563"
       height="22.51269"
       id="rect3808" />
    <linearGradient
       inkscape:collect="always"
       id="linearGradient1134">
      <stop
         style="stop-color:#161616;stop-opacity:1;"
         offset="0"
         id="stop1130" />
      <stop
         style="stop-color:#404040;stop-opacity:1;"
         offset="1"
         id="stop1132" />
    </linearGradient>
    <linearGradient
       inkscape:collect="always"
       id="linearGradient883">
      <stop
         style="stop-color:#808080;stop-opacity:1;"
         offset="0"
         id="stop879" />
      <stop
         style="stop-color:#3e3e3e;stop-opacity:1;"
         offset="0.5"
         id="stop1216" />
      <stop
         style="stop-color:#242424;stop-opacity:1;"
         offset="1"
         id="stop881" />
    </linearGradient>
    <linearGradient
       inkscape:collect="always"
       xlink:href="#linearGradient883"
       id="linearGradient885"
       x1="2.1085808"
       y1="2.0236168"
       x2="14.846128"
       y2="15.071845"
       gradientUnits="userSpaceOnUse" />
    <linearGradient
       inkscape:collect="always"
       xlink:href="#linearGradient1134"
       id="linearGradient1136"
       x1="14.971222"
       y1="14.703373"
       x2="2.0756054"
       y2="2.0069976"
       gradientUnits="userSpaceOnUse" />
    <filter
       style="color-interpolation-filters:sRGB;"
       inkscape:label="Blur"
       id="filter1283"
       x="-0.082344266"
       y="-0.082344266"
       width="1.1646885"
       height="1.1646885">
      <feGaussianBlur
         stdDeviation="0.5 0.5"
         result="blur"
         id="feGaussianBlur1281" />
    </filter>
    <filter
       style="color-interpolation-filters:sRGB;"
       inkscape:label="Blur"
       id="filter1694"
       x="-0.94955398"
       y="-0.2118907"
       width="2.899108"
       height="1.4237814">
      <feGaussianBlur
         stdDeviation="0.2 0.2"
         result="blur"
         id="feGaussianBlur1692" />
    </filter>
    <filter
       style="color-interpolation-filters:sRGB;"
       inkscape:label="Blur"
       id="filter3148"
       x="-0.94955398"
       y="-0.2118907"
       width="2.899108"
       height="1.4237814">
      <feGaussianBlur
         stdDeviation="0.2 0.2"
         result="blur"
         id="feGaussianBlur3146" />
    </filter>
  </defs>
  <metadata
     id="metadata2">
    <rdf:RDF>
      <cc:Work
         rdf:about="">
        <dc:format>image/svg+xml</dc:format>
        <dc:type
           rdf:resource="http://purl.org/dc/dcmitype/StillImage" />
      </cc:Work>
    </rdf:RDF>
  </metadata>
  <rect
     style="fill:#000000;stroke:none;stroke-width:0.539739;stroke-dasharray:none;filter:url(#filter1283)"
     id="rect246-1"
     width="14.572964"
     height="14.572964"
     x="1.1932471"
     y="1.2138842"
     rx="2.1589575"
     ry="2.1589575" />
  <rect
     style="opacity:1;fill:#000000;stroke:url(#linearGradient885);stroke-width:0.52915625;stroke-dasharray:none"
     id="rect246"
     width="14.287219"
     height="14.287219"
     x="1.3361193"
     y="1.3567564"
     rx="2.1166251"
     ry="2.1166251" />
  <rect
     style="fill:url(#linearGradient1136);fill-opacity:1;stroke:none;stroke-width:0.478315;stroke-dasharray:none"
     id="rect246-5"
     width="12.914515"
     height="12.914515"
     x="2.0224717"
     y="2.0431087"
     rx="1.5874687"
     ry="1.5874687" />
  <path
     id="path6"
     style="fill:#999999;fill-opacity:1;stroke:none;stroke-width:0.0791148;stroke-dasharray:none;stroke-opacity:1"
     d="m 8.5782546,4.6967992 c -1.6077311,0 -3.2154256,0.00555 -3.2527965,0.016754 -0.073522,0.022027 -0.1596313,0.1031124 -0.1966971,0.18514 l -0.031568,0.069651 v 2.5844445 2.5844433 l 0.034515,0.07361 c 0.037302,0.07954 0.1129628,0.152588 0.1849079,0.178624 0.063319,0.02291 6.4381351,0.02542 6.5144341,0.0025 0.07352,-0.02202 0.15963,-0.103112 0.196695,-0.185138 l 0.03157,-0.06965 V 7.552791 4.9683465 l -0.03157,-0.069649 C 11.990683,4.8166695 11.904571,4.7355839 11.83105,4.7135563 11.793682,4.7023612 10.185984,4.6968028 8.5782545,4.6968028 Z m 0,0.3041986 c 1.4642074,0 2.9284214,0.00445 2.9591464,0.013264 0.07345,0.021064 0.140063,0.076065 0.180564,0.1491517 l 0.03809,0.068719 v 2.1624301 c 0,2.0829492 -8.91e-4,2.164126 -0.02459,2.2085796 -0.04242,0.079817 -0.11467,0.1443088 -0.185294,0.1652835 -0.0945,0.028062 -5.8497502,0.027612 -5.9397785,-5.535e-4 C 5.5393023,9.7469516 5.4696239,9.684789 5.4290018,9.6096461 l -0.02854,-0.052743 V 7.3944591 5.2320292 l 0.038082,-0.06872 c 0.040501,-0.073086 0.1071141,-0.1280862 0.1805643,-0.1491516 0.030724,-0.00881 1.4949392,-0.013264 2.9591466,-0.013264 z m 1.4286914,0.5292054 c -0.2063774,-3.77e-5 -0.4506261,4.202e-4 -0.7364502,0.00111 l -1.6020433,0.00411 -0.052898,0.028309 c -0.070434,0.037728 -0.1236192,0.092002 -0.1531075,0.156287 -0.02128,0.046386 -0.024179,0.090428 -0.024436,0.365552 l -5.538e-4,0.3128845 1.031733,0.00356 1.0318053,0.00364 0.063215,0.031334 c 0.083484,0.041461 0.1671866,0.1245855 0.2074793,0.2060072 l 0.03257,0.065927 0.00373,0.7548318 0.00373,0.7549138 0.5698462,-5.537e-4 c 0.52339,-5.538e-4 0.574194,-0.00222 0.622901,-0.024354 0.06539,-0.029708 0.126289,-0.089171 0.159313,-0.1556693 0.02398,-0.04827 0.02505,-0.096979 0.02505,-1.1645924 V 5.7594962 L 11.15168,5.6962842 C 11.10492,5.6167072 11.028414,5.5607898 10.94057,5.5418569 10.90404,5.5339869 10.625861,5.5302619 10.006723,5.5301499 Z M 7.8003072,6.6496569 c -1.604762,0 -1.6223544,5.537e-4 -1.6656445,0.026679 -0.026424,0.016113 -0.053927,0.049736 -0.069494,0.084933 -0.024988,0.056488 -0.025671,0.090999 -0.022182,1.1303097 0.0035,1.0393077 0.00438,1.0732709 0.029397,1.1102247 0.014191,0.020955 0.043861,0.049135 0.065928,0.062589 0.038509,0.023482 0.1057583,0.024462 1.6723915,0.024511 h 1.6322156 l 0.055537,-0.051735 0.055531,-0.051808 0.00341,-1.0986655 c 0.00334,-1.077991 0.00288,-1.0994656 -0.022958,-1.14163 -0.014467,-0.023641 -0.045692,-0.054779 -0.069329,-0.069189 -0.042266,-0.02577 -0.069659,-0.026216 -1.6647912,-0.026216 z" />
  <g
     aria-label="Krita"
     id="text1450"
     style="font-size:1.76385px;opacity:1;fill:#5555ff;stroke-width:0.529156">
    <rect
       style="font-size:1.76385px;fill:#5555ff;fill-opacity:1;stroke:none;stroke-width:0.519976;stroke-dasharray:none;filter:url(#filter3148)"
       id="rect1656-3"
       width="0.5055005"
       height="2.2653189"
       x="15.369148"
       y="4.3016486"
       rx="0"
       ry="0" />
    <rect
       style="opacity:1;fill:#5555ff;fill-opacity:1;stroke:none;stroke-width:0.519976;stroke-dasharray:none"
       id="rect1656"
       width="0.5055005"
       height="2.2653189"
       x="15.369148"
       y="4.3016486"
       rx="0"
       ry="0" />
  </g>
  <text
     xml:space="preserve"
     transform="scale(0.26457812)"
     id="text3806"
     style="fill:#999999;stroke-width:2;font-size:6.66666667px;white-space:pre;shape-inside:url(#rect3808)" />
  <path
     d="M 6.9006371,14.268415 H 6.7418906 V 13.148371 H 6.348552 v -0.139344 h 0.9436598 v 0.139344 H 6.9006371 Z m 0.6402771,-1.299957 q 0.035277,0 0.061735,0.02469 0.028222,0.02293 0.028222,0.07408 0,0.04939 -0.028222,0.07408 -0.026458,0.02469 -0.061735,0.02469 -0.038805,0 -0.065262,-0.02469 -0.026458,-0.02469 -0.026458,-0.07408 0,-0.05115 0.026458,-0.07408 0.026458,-0.02469 0.065262,-0.02469 z m 0.075846,0.354534 v 0.945423 H 7.4615409 V 13.322992 Z M 8.071832,14.268415 H 7.9166132 V 12.927889 H 8.071832 Z m 0.3792267,-1.299957 q 0.035277,0 0.061735,0.02469 0.028222,0.02293 0.028222,0.07408 0,0.04939 -0.028222,0.07408 -0.026458,0.02469 -0.061735,0.02469 -0.038805,0 -0.065262,-0.02469 -0.026458,-0.02469 -0.026458,-0.07408 0,-0.05115 0.026458,-0.07408 0.026458,-0.02469 0.065262,-0.02469 z m 0.075846,0.354534 v 0.945423 H 8.3716855 v -0.945423 z m 0.7549268,-0.01764 q 0.1693296,0 0.2557582,0.0829 0.086429,0.08114 0.086429,0.264578 v 0.615583 H 9.470563 v -0.605 q 0,-0.227537 -0.211662,-0.227537 -0.1569826,0 -0.2169535,0.08819 -0.059971,0.08819 -0.059971,0.253994 v 0.49035 H 8.8267578 v -0.945423 h 0.1252333 l 0.02293,0.128761 h 0.00882 q 0.04586,-0.07408 0.1269972,-0.109359 0.081137,-0.03704 0.1710935,-0.03704 z m 0.9701179,0 q 0.09348,0 0.167565,0.03528 0.07585,0.03528 0.128761,0.107595 h 0.0088 l 0.02117,-0.125233 h 0.123469 v 0.961298 q 0,0.202843 -0.104067,0.305146 -0.102303,0.102303 -0.319257,0.102303 -0.208134,0 -0.3404227,-0.05997 v -0.142872 q 0.1393437,0.07408 0.3492427,0.07408 0.121705,0 0.190495,-0.07232 0.07055,-0.07055 0.07055,-0.194024 v -0.03704 q 0,-0.02117 0.0018,-0.05997 0.0018,-0.04057 0.0035,-0.05644 h -0.0071 q -0.09525,0.142872 -0.292799,0.142872 -0.18344,0 -0.2875071,-0.128761 -0.1023033,-0.128761 -0.1023033,-0.359825 0,-0.225773 0.1023033,-0.358062 0.1040671,-0.134053 0.2857441,-0.134053 z m 0.02117,0.130525 q -0.118178,0 -0.183441,0.09525 -0.06526,0.09348 -0.06526,0.268105 0,0.174622 0.0635,0.268106 0.06526,0.09172 0.188731,0.09172 0.142872,0 0.208135,-0.07585 0.06526,-0.07761 0.06526,-0.248703 v -0.03704 q 0,-0.194024 -0.06703,-0.276925 -0.06703,-0.08466 -0.209898,-0.08466 z"
     id="text1"
     style="font-size:1.76385px;fill:#999999;stroke-width:0.264578"
     aria-label="Tiling" />
</svg>
