<?xml version="1.0" encoding="UTF-8" standalone="no"?>
<svg
   width="64"
   height="64"
   version="1.1"
   viewBox="0 0 16.933 16.933"
   id="svg7"
   sodipodi:docname="de.haeckerfelix.Shortwave.svg"
   inkscape:version="1.4 (e7c3feb100, 2024-10-09)"
   xmlns:inkscape="http://www.inkscape.org/namespaces/inkscape"
   xmlns:sodipodi="http://sodipodi.sourceforge.net/DTD/sodipodi-0.dtd"
   xmlns:xlink="http://www.w3.org/1999/xlink"
   xmlns="http://www.w3.org/2000/svg"
   xmlns:svg="http://www.w3.org/2000/svg"
   xmlns:rdf="http://www.w3.org/1999/02/22-rdf-syntax-ns#"
   xmlns:cc="http://creativecommons.org/ns#"
   xmlns:dc="http://purl.org/dc/elements/1.1/">
  <sodipodi:namedview
     id="namedview7"
     pagecolor="#9c4444"
     bordercolor="#000000"
     borderopacity="0.25"
     inkscape:showpageshadow="2"
     inkscape:pageopacity="0.0"
     inkscape:pagecheckerboard="0"
     inkscape:deskcolor="#d1d1d1"
     inkscape:zoom="6.15625"
     inkscape:cx="15.675127"
     inkscape:cy="29.807107"
     inkscape:window-width="1183"
     inkscape:window-height="973"
     inkscape:window-x="35"
     inkscape:window-y="32"
     inkscape:window-maximized="0"
     inkscape:current-layer="svg7"
     showgrid="false" />
  <defs
     id="defs2">
    <rect
       x="67.489848"
       y="35.60533"
       width="15.337563"
       height="22.51269"
       id="rect3808" />
    <linearGradient
       inkscape:collect="always"
       id="linearGradient1134">
      <stop
         style="stop-color:#161616;stop-opacity:1;"
         offset="0"
         id="stop1130" />
      <stop
         style="stop-color:#404040;stop-opacity:1;"
         offset="1"
         id="stop1132" />
    </linearGradient>
    <linearGradient
       inkscape:collect="always"
       id="linearGradient883">
      <stop
         style="stop-color:#808080;stop-opacity:1;"
         offset="0"
         id="stop879" />
      <stop
         style="stop-color:#3e3e3e;stop-opacity:1;"
         offset="0.5"
         id="stop1216" />
      <stop
         style="stop-color:#242424;stop-opacity:1;"
         offset="1"
         id="stop881" />
    </linearGradient>
    <linearGradient
       inkscape:collect="always"
       xlink:href="#linearGradient883"
       id="linearGradient885"
       x1="2.1085808"
       y1="2.0236168"
       x2="14.846128"
       y2="15.071845"
       gradientUnits="userSpaceOnUse" />
    <linearGradient
       inkscape:collect="always"
       xlink:href="#linearGradient1134"
       id="linearGradient1136"
       x1="14.971222"
       y1="14.703373"
       x2="2.0756054"
       y2="2.0069976"
       gradientUnits="userSpaceOnUse" />
    <filter
       style="color-interpolation-filters:sRGB;"
       inkscape:label="Blur"
       id="filter1283"
       x="-0.082344266"
       y="-0.082344266"
       width="1.1646885"
       height="1.1646885">
      <feGaussianBlur
         stdDeviation="0.5 0.5"
         result="blur"
         id="feGaussianBlur1281" />
    </filter>
    <filter
       style="color-interpolation-filters:sRGB;"
       inkscape:label="Blur"
       id="filter1694"
       x="-0.94955398"
       y="-0.2118907"
       width="2.899108"
       height="1.4237814">
      <feGaussianBlur
         stdDeviation="0.2 0.2"
         result="blur"
         id="feGaussianBlur1692" />
    </filter>
    <filter
       style="color-interpolation-filters:sRGB;"
       inkscape:label="Blur"
       id="filter3148"
       x="-0.94955398"
       y="-0.2118907"
       width="2.899108"
       height="1.4237814">
      <feGaussianBlur
         stdDeviation="0.2 0.2"
         result="blur"
         id="feGaussianBlur3146" />
    </filter>
    <clipPath
       clipPathUnits="userSpaceOnUse"
       id="clipPath44">
      <path
         id="path46"
         style="display:block;opacity:0.85;fill:#f2f2f2;stroke-width:4.39162"
         d="m 17.570312,8.4453125 a 6.5431988,7.4283052 9.9958727e-8 0 0 -6.535156,7.4394535 6.5431988,7.4283052 9.9958727e-8 0 0 6.552735,7.417968 6.5431988,7.4283052 9.9958727e-8 0 0 6.535156,-7.4375 6.5431988,7.4283052 9.9958727e-8 0 0 -6.552735,-7.4199215 z M 45.646484,41.177734 a 6.5431986,7.0703472 2.4665357e-6 0 0 -6.533203,7.080078 6.5431986,7.0703472 2.4665357e-6 0 0 6.550781,7.060547 6.5431986,7.0703472 2.4665357e-6 0 0 6.535157,-7.080078 6.5431986,7.0703472 2.4665357e-6 0 0 -6.552735,-7.060547 z" />
    </clipPath>
    <inkscape:path-effect
       effect="powerclip"
       id="path-effect48"
       is_visible="true"
       lpeversion="1"
       inverse="true"
       flatten="false"
       hide_clip="false"
       message="" />
  </defs>
  <metadata
     id="metadata2">
    <rdf:RDF>
      <cc:Work
         rdf:about="">
        <dc:format>image/svg+xml</dc:format>
        <dc:type
           rdf:resource="http://purl.org/dc/dcmitype/StillImage" />
      </cc:Work>
    </rdf:RDF>
  </metadata>
  <rect
     style="fill:#000000;stroke:none;stroke-width:0.539739;stroke-dasharray:none;filter:url(#filter1283)"
     id="rect246-1"
     width="14.572964"
     height="14.572964"
     x="1.1932471"
     y="1.2138842"
     rx="2.1589575"
     ry="2.1589575" />
  <rect
     style="opacity:1;fill:#000000;stroke:url(#linearGradient885);stroke-width:0.52915625;stroke-dasharray:none"
     id="rect246"
     width="14.287219"
     height="14.287219"
     x="1.3361193"
     y="1.3567564"
     rx="2.1166251"
     ry="2.1166251" />
  <rect
     style="fill:url(#linearGradient1136);fill-opacity:1;stroke:none;stroke-width:0.478315;stroke-dasharray:none"
     id="rect246-5"
     width="12.914515"
     height="12.914515"
     x="2.0224717"
     y="2.0431087"
     rx="1.5874687"
     ry="1.5874687" />
  <path
     id="path10"
     style="fill:#999999;fill-opacity:1;stroke:none;stroke-width:0.0594229"
     d="m 10.149894,4.0005849 c -0.03663,-8.6e-6 -0.6535923,0.2257525 -1.8339421,0.6707971 l -1.7785768,0.6705505 0.044241,0.050421 c 0.025093,0.02858 0.055046,0.089114 0.068959,0.1391522 l 0.024717,0.088484 h 0.07761 c 0.066103,0 0.3296422,-0.095054 1.7765997,-0.6403965 0.9344015,-0.3521663 1.7133942,-0.6534911 1.7311212,-0.6698089 0.08266,-0.07609 0.0812,-0.1891446 -0.0035,-0.2634746 -0.03813,-0.033481 -0.06683,-0.045716 -0.107269,-0.045725 z M 6.2857642,5.265312 C 6.197089,5.2646628 6.1070564,5.2948563 6.0351419,5.357998 5.9792303,5.4070894 5.9130371,5.5307008 5.912797,5.5866227 v 0.033367 h 0.3712372 c 0.2042649,0 0.3715297,-0.00499 0.3714841,-0.011123 C 6.6552129,5.5688472 6.6158839,5.4697251 6.5791454,5.4163279 6.5114758,5.3179736 6.3997749,5.2661507 6.2857642,5.2653117 Z m 3.296398,0.3685188 v 2.34087 2.3408702 l 1.0509318,-0.0048 c 0.960914,-0.0043 1.056796,-0.0068 1.117913,-0.03065 0.09894,-0.03867 0.203685,-0.121383 0.253836,-0.200447 0.09238,-0.1456458 0.08774,-0.03625 0.08774,-2.1147179 0,-1.8873765 -1.16e-4,-1.8987346 -0.0309,-1.9810029 -0.05607,-0.1498624 -0.180342,-0.2740138 -0.322793,-0.322299 -0.04104,-0.013912 -0.316138,-0.019745 -1.105803,-0.023233 z m -0.014828,4.774e-4 -2.1354784,0.00396 -2.135726,0.00396 -0.093427,0.043254 c -0.1173612,0.054194 -0.2263683,0.1692072 -0.2694064,0.2842371 -0.030526,0.081592 -0.030648,0.096815 -0.030648,2.0049773 0,1.9030842 2.101e-4,1.9235232 0.030401,2.0042352 0.059207,0.1582472 0.2207158,0.2909272 0.3873025,0.3185922 0.044001,0.0073 1.0174849,0.01412 2.1634083,0.01508 l 2.0835747,0.0017 v -2.33985 z m -2.367812,0.6270507 c 0.254597,-0.00496 0.5103589,0.045406 0.7432159,0.1529929 0.1045779,0.048318 0.3618451,0.2068279 0.3618451,0.2229401 -10e-8,0.00427 -0.4860963,0.00766 -1.0800977,0.00766 -0.6262409,0 -1.0739457,-0.00548 -1.0657621,-0.013101 0.00776,-0.00723 0.059304,-0.043798 0.1146832,-0.081316 C 6.5465651,6.3654771 6.8721834,6.267727 7.1995227,6.2613553 Z M 10.85653,6.7680404 c 0.180129,0.0071 0.355621,0.1082119 0.443903,0.2901683 0.03546,0.073085 0.04098,0.102646 0.04102,0.2182438 4.3e-5,0.1052457 -0.0068,0.1484991 -0.03189,0.2036613 -0.04433,0.097263 -0.155922,0.2116056 -0.252848,0.2590259 -0.138395,0.067711 -0.327232,0.062317 -0.47282,-0.013594 -0.07358,-0.038365 -0.171627,-0.1459925 -0.213054,-0.2338152 -0.0326,-0.069121 -0.03861,-0.1021708 -0.03856,-0.2152779 9.1e-5,-0.1607046 0.0291,-0.2358573 0.134457,-0.3484984 0.106755,-0.1141299 0.249673,-0.1654402 0.389774,-0.1599136 z m -0.244196,0.2318383 c -0.01457,5.154e-4 -0.0295,0.00589 -0.04326,0.017302 -0.02993,0.024848 -0.02695,0.098475 0.0047,0.1169077 0.03995,0.023268 0.07067,0.018976 0.100594,-0.014089 0.0468,-0.051717 -0.0049,-0.1221432 -0.06204,-0.1201205 z M 5.7963842,7.0164448 H 7.2254746 8.654812 l 0.04696,0.077856 c 0.057816,0.095734 0.1374219,0.2698777 0.1374219,0.3005489 0,0.020103 -0.1785725,0.022738 -1.6117428,0.022738 -1.3354511,0 -1.6117428,-0.00356 -1.6117428,-0.020021 0,-0.010922 0.040532,-0.101069 0.090214,-0.2004487 z M 5.5304381,7.7739965 h 1.6972608 1.6972608 l 0.0089,0.033367 c 0.011708,0.043705 0.012133,0.3139691 4.773e-4,0.3442967 -0.00815,0.021237 -0.172343,0.02348 -1.706406,0.02348 H 5.5304354 l -0.00939,-0.068959 c -0.0052,-0.037908 -0.00939,-0.097003 -0.00939,-0.1314903 0,-0.034486 0.00419,-0.093829 0.00939,-0.1317373 z m 4.9926699,0.3863139 c 0.182719,0 0.18809,0.00554 0.18809,0.1957526 0,0.1180898 -0.0044,0.1453078 -0.02719,0.1658459 -0.02111,0.019114 -0.05745,0.024713 -0.163375,0.024713 -0.18465,0 -0.195751,-0.011029 -0.195751,-0.1932806 0,-0.1827288 0.01065,-0.1930338 0.198224,-0.1930338 z m 0.628533,0 c 0.187578,0 0.198224,0.010305 0.198224,0.1930338 0,0.1138926 -0.0043,0.1380641 -0.02966,0.1633742 -0.02547,0.025471 -0.04955,0.029903 -0.168565,0.029903 -0.184315,0 -0.195504,-0.011132 -0.195504,-0.1932805 0,-0.1821443 0.01119,-0.1930338 0.195504,-0.1930338 z M 7.2274517,8.5315477 c 1.0233411,0 1.6117428,0.00525 1.6117428,0.014332 0,0.030428 -0.063911,0.176451 -0.1223451,0.2792934 L 8.6558006,8.932693 H 7.2333837 5.8107196 L 5.7793296,8.888442 C 5.7425792,8.8368365 5.6157083,8.573345 5.6157083,8.5485939 c 0,-0.012459 0.4198665,-0.017051 1.6117429,-0.017051 z m 3.2860173,0.2525991 c 0.105877,0 0.162944,0.015601 0.18636,0.050674 0.006,0.00899 0.01099,0.078157 0.01112,0.1537356 2.1e-4,0.1177912 -0.004,0.1416133 -0.02941,0.1670814 -0.02498,0.024972 -0.04953,0.029662 -0.153982,0.029662 -0.103226,0 -0.131107,-0.00502 -0.163621,-0.03065 -0.0373,-0.029338 -0.03905,-0.037357 -0.03905,-0.1698006 0,-0.1324391 0.0018,-0.1404589 0.03905,-0.1698003 0.03163,-0.024875 0.06034,-0.030893 0.149533,-0.030893 z m 0.702682,2.487e-4 c 0.05713,1.012e-4 0.06895,0.00794 0.0959,0.034854 0.03502,0.035008 0.03782,0.048187 0.03782,0.1712835 0,0.12631 -0.002,0.1349406 -0.03905,0.1641159 -0.03242,0.025499 -0.06033,0.030651 -0.161891,0.030651 -0.179137,0 -0.192786,-0.014062 -0.192786,-0.1987184 0,-0.1859064 0.0068,-0.193232 0.185619,-0.2002013 0.03138,-0.00122 0.05536,-0.00202 0.0744,-0.00194 z M 7.2274517,9.2893473 c 0.6594343,0 1.0771317,0.00535 1.0771317,0.013843 0,0.02541 -0.2531211,0.1828189 -0.3863142,0.2402414 C 7.7702093,9.6072596 7.6090038,9.6513795 7.4380338,9.6746743 7.1274223,9.7169967 6.7704555,9.657802 6.4847303,9.5167381 6.3687836,9.4594953 6.1503202,9.3184004 6.1503202,9.3007189 c 0,-0.00624 0.4847646,-0.011372 1.0771315,-0.011372 z" />
  <g
     fill="#474747"
     id="g9"
     transform="matrix(0.46959567,0,0,0.46959567,4.7471229,3.7470598)"
     style="fill:#999999;fill-opacity:1;stroke:none;stroke-width:0.58349;stroke-dasharray:none;stroke-opacity:0.3" />
  <g
     aria-label="Krita"
     id="text1450"
     style="font-size:1.76385px;opacity:1;fill:#ff7f2a;stroke-width:0.529156">
    <rect
       style="font-size:1.76385px;fill:#ff7f2a;fill-opacity:1;stroke:none;stroke-width:0.519976;stroke-dasharray:none;filter:url(#filter3148)"
       id="rect1656-3"
       width="0.5055005"
       height="2.2653189"
       x="15.369148"
       y="4.3016486"
       rx="0"
       ry="0" />
    <rect
       style="opacity:1;fill:#ff7f2a;fill-opacity:1;stroke:none;stroke-width:0.519976;stroke-dasharray:none"
       id="rect1656"
       width="0.5055005"
       height="2.2653189"
       x="15.369148"
       y="4.3016486"
       rx="0"
       ry="0" />
  </g>
  <g
     aria-label="Shortwave"
     id="text2284"
     style="font-size:1.76385px;opacity:1;fill:#999999;stroke-width:0.529156">
    <path
       d="m 5.0906577,13.842122 q 0,0.167565 -0.1217057,0.26105 -0.1217056,0.09348 -0.3280761,0.09348 -0.105831,0 -0.1957873,-0.01588 -0.089956,-0.01587 -0.1499273,-0.0441 v -0.151691 q 0.063499,0.02822 0.1569827,0.05115 0.095248,0.02293 0.1957873,0.02293 0.141108,0 0.211662,-0.05468 0.072318,-0.05468 0.072318,-0.148163 0,-0.06173 -0.026458,-0.104068 -0.026458,-0.04233 -0.09172,-0.07761 -0.063499,-0.03704 -0.1781488,-0.07761 Q 4.475074,13.53874 4.3921731,13.454075 4.311036,13.36941 4.311036,13.22301 q 0,-0.100539 0.051152,-0.171093 0.051152,-0.07232 0.141108,-0.111123 0.09172,-0.0388 0.2098982,-0.0388 0.1040671,0 0.1904958,0.0194 0.086429,0.0194 0.1569826,0.05115 l -0.049388,0.135816 q -0.065262,-0.02822 -0.1428718,-0.04762 -0.075846,-0.0194 -0.1587465,-0.0194 -0.118178,0 -0.1781489,0.05115 -0.059971,0.04939 -0.059971,0.132289 0,0.0635 0.026458,0.105831 0.026458,0.04233 0.086429,0.07585 0.059971,0.03351 0.1622742,0.07232 0.1111226,0.04057 0.1869681,0.08819 0.077609,0.04586 0.1164141,0.111123 0.040569,0.06526 0.040569,0.164038 z"
       id="path3641" />
    <path
       d="m 5.4787043,13.23183 q 0,0.07055 -0.00882,0.132288 h 0.010583 q 0.04586,-0.07232 0.1234695,-0.109358 0.079373,-0.03704 0.1710935,-0.03704 0.1728573,0 0.2592859,0.0829 0.086429,0.08114 0.086429,0.262813 v 0.615584 h -0.153455 v -0.605 q 0,-0.227537 -0.211662,-0.227537 -0.1587465,0 -0.2187174,0.08996 -0.058207,0.08819 -0.058207,0.253995 v 0.488586 H 5.3234855 v -1.340526 h 0.1552188 z"
       id="path3643" />
    <path
       d="m 7.2354989,13.704541 q 0,0.234592 -0.1199418,0.363354 -0.118178,0.128761 -0.3210207,0.128761 -0.1252334,0 -0.224009,-0.05644 -0.097012,-0.05821 -0.1534549,-0.167565 -0.056443,-0.111123 -0.056443,-0.268106 0,-0.234592 0.1181779,-0.361589 0.118178,-0.126997 0.3210207,-0.126997 0.1287611,0 0.2257728,0.05821 0.098776,0.05644 0.153455,0.165802 0.056443,0.107595 0.056443,0.264577 z m -0.7143593,0 q 0,0.167566 0.065263,0.266342 0.067026,0.09701 0.211662,0.09701 0.1428718,0 0.2098981,-0.09701 0.067026,-0.09878 0.067026,-0.266342 0,-0.167565 -0.067026,-0.262813 -0.067026,-0.09525 -0.211662,-0.09525 -0.1446357,0 -0.2098981,0.09525 -0.065263,0.09525 -0.065263,0.262813 z"
       id="path3645" />
    <path
       d="m 7.9216357,13.215955 q 0.026458,0 0.056443,0.0035 0.031749,0.0018 0.054679,0.0071 l -0.019402,0.142872 q -0.02293,-0.0053 -0.051152,-0.0088 -0.026458,-0.0035 -0.051152,-0.0035 -0.072318,0 -0.1358165,0.04057 -0.063499,0.0388 -0.1023033,0.111122 -0.037041,0.07055 -0.037041,0.165802 v 0.504461 H 7.4806732 v -0.945424 h 0.1269972 l 0.017639,0.172858 h 0.00706 q 0.04586,-0.07761 0.1181779,-0.134053 0.072318,-0.05644 0.1710935,-0.05644 z"
       id="path3647" />
    <path
       d="m 8.5248724,14.069658 q 0.035277,0 0.072318,-0.0053 0.037041,-0.0071 0.059971,-0.01411 v 0.118178 q -0.024694,0.01235 -0.070554,0.0194 -0.04586,0.0088 -0.088192,0.0088 -0.074082,0 -0.1375803,-0.02469 -0.061735,-0.02646 -0.1005395,-0.08996 -0.038805,-0.0635 -0.038805,-0.178149 V 13.353535 H 8.0874376 v -0.07408 l 0.1358165,-0.06173 0.061735,-0.201079 h 0.09172 v 0.216953 h 0.2733968 v 0.119942 H 8.376709 v 0.546794 q 0,0.08643 0.040569,0.128761 0.042332,0.04057 0.1075948,0.04057 z"
       id="path3649" />
    <path
       d="m 9.4561856,13.644571 q -0.02293,-0.07232 -0.040569,-0.141108 -0.015875,-0.07055 -0.024694,-0.109359 h -0.00706 q -0.00706,0.0388 -0.02293,0.109359 -0.015875,0.06879 -0.040569,0.142871 L 9.1510395,14.177253 H 8.9746545 L 8.7153686,13.23183 h 0.1605103 l 0.1305249,0.504461 q 0.019402,0.07585 0.037041,0.153455 0.017639,0.07761 0.024694,0.128761 h 0.00706 q 0.00706,-0.02999 0.015875,-0.07408 0.010583,-0.0441 0.02293,-0.09172 0.012347,-0.04939 0.024694,-0.08819 L 9.3062583,13.23183 h 0.1693296 l 0.1622742,0.532682 q 0.019402,0.05997 0.037041,0.130525 0.019402,0.07055 0.026458,0.121706 h 0.00706 q 0.00529,-0.0441 0.02293,-0.121706 0.019402,-0.07761 0.040568,-0.158746 L 9.9042035,13.23183 H 10.06295 L 9.8001363,14.177253 H 9.6184598 Z"
       id="path3651" />
    <path
       d="m 10.59034,13.217719 q 0.172857,0 0.255758,0.07584 0.0829,0.07585 0.0829,0.241648 v 0.643805 h -0.112887 l -0.02998,-0.134053 h -0.0071 q -0.06173,0.07761 -0.130524,0.114651 -0.06703,0.03704 -0.186969,0.03704 -0.128761,0 -0.213425,-0.06703 -0.08467,-0.06879 -0.08467,-0.213426 0,-0.141108 0.111122,-0.216953 0.111123,-0.07761 0.342187,-0.08466 l 0.160511,-0.0053 v -0.05644 q 0,-0.118178 -0.05115,-0.164038 -0.05115,-0.04586 -0.144636,-0.04586 -0.07408,0 -0.141108,0.02293 -0.06703,0.02117 -0.125233,0.04939 l -0.04762,-0.116414 q 0.06174,-0.03351 0.1464,-0.05644 0.08466,-0.02469 0.176385,-0.02469 z m 0.04586,0.504461 q -0.176385,0.0071 -0.245176,0.05644 -0.06703,0.04939 -0.06703,0.139344 0,0.07937 0.04762,0.116414 0.04939,0.03704 0.125233,0.03704 0.119942,0 0.199316,-0.06526 0.07937,-0.06703 0.07937,-0.204607 v -0.08466 z"
       id="path3653" />
    <path
       d="m 11.429934,14.179017 -0.358062,-0.945424 h 0.165802 l 0.201079,0.557377 q 0.01411,0.0388 0.02998,0.08643 0.01587,0.04762 0.02822,0.09172 0.01235,0.04233 0.01764,0.07232 h 0.0071 q 0.0071,-0.02999 0.0194,-0.07408 0.01411,-0.0441 0.02999,-0.09172 0.01764,-0.04762 0.02998,-0.08467 l 0.201079,-0.557377 h 0.165802 l -0.359825,0.945424 z"
       id="path3655" />
    <path
       d="m 12.482951,13.215955 q 0.121706,0 0.208134,0.05292 0.08819,0.05292 0.134053,0.149928 0.04762,0.09525 0.04762,0.224009 v 0.09348 h -0.647333 q 0.0035,0.16051 0.08114,0.245175 0.07937,0.0829 0.220481,0.0829 0.08996,0 0.158747,-0.01588 0.07055,-0.01764 0.144636,-0.04939 v 0.135817 q -0.07232,0.03175 -0.142872,0.04586 -0.07055,0.01588 -0.167566,0.01588 -0.134053,0 -0.23812,-0.05468 -0.102303,-0.05468 -0.16051,-0.162274 -0.05644,-0.109359 -0.05644,-0.266341 0,-0.155219 0.05115,-0.266342 0.05292,-0.111122 0.1464,-0.171093 0.09525,-0.05997 0.220481,-0.05997 z m -0.0018,0.126997 q -0.111122,0 -0.176385,0.07232 -0.0635,0.07055 -0.07585,0.197551 h 0.481531 q -0.0018,-0.119942 -0.05644,-0.194023 -0.05468,-0.07585 -0.172858,-0.07585 z"
       id="path3657" />
  </g>
  <text
     xml:space="preserve"
     transform="scale(0.26457812)"
     id="text3806"
     style="font-size:6.66667px;white-space:pre;shape-inside:url(#rect3808);display:inline;fill:#999999;stroke-width:2" />
</svg>
