<?xml version="1.0" encoding="UTF-8" standalone="no"?>
<svg
   width="64"
   height="64"
   version="1.1"
   viewBox="0 0 16.933 16.933"
   id="svg7"
   sodipodi:docname="Internet Template.svg"
   inkscape:version="1.4 (e7c3feb100, 2024-10-09)"
   xmlns:inkscape="http://www.inkscape.org/namespaces/inkscape"
   xmlns:sodipodi="http://sodipodi.sourceforge.net/DTD/sodipodi-0.dtd"
   xmlns:xlink="http://www.w3.org/1999/xlink"
   xmlns="http://www.w3.org/2000/svg"
   xmlns:svg="http://www.w3.org/2000/svg"
   xmlns:rdf="http://www.w3.org/1999/02/22-rdf-syntax-ns#"
   xmlns:cc="http://creativecommons.org/ns#"
   xmlns:dc="http://purl.org/dc/elements/1.1/">
  <sodipodi:namedview
     id="namedview7"
     pagecolor="#9c4444"
     bordercolor="#000000"
     borderopacity="0.25"
     inkscape:showpageshadow="2"
     inkscape:pageopacity="0.0"
     inkscape:pagecheckerboard="0"
     inkscape:deskcolor="#d1d1d1"
     inkscape:zoom="6.15625"
     inkscape:cx="15.675127"
     inkscape:cy="29.807107"
     inkscape:window-width="1183"
     inkscape:window-height="973"
     inkscape:window-x="35"
     inkscape:window-y="32"
     inkscape:window-maximized="0"
     inkscape:current-layer="svg7"
     showgrid="false" />
  <defs
     id="defs2">
    <rect
       x="67.489848"
       y="35.60533"
       width="15.337563"
       height="22.51269"
       id="rect3808" />
    <linearGradient
       inkscape:collect="always"
       id="linearGradient1134">
      <stop
         style="stop-color:#161616;stop-opacity:1;"
         offset="0"
         id="stop1130" />
      <stop
         style="stop-color:#404040;stop-opacity:1;"
         offset="1"
         id="stop1132" />
    </linearGradient>
    <linearGradient
       inkscape:collect="always"
       id="linearGradient883">
      <stop
         style="stop-color:#808080;stop-opacity:1;"
         offset="0"
         id="stop879" />
      <stop
         style="stop-color:#3e3e3e;stop-opacity:1;"
         offset="0.5"
         id="stop1216" />
      <stop
         style="stop-color:#242424;stop-opacity:1;"
         offset="1"
         id="stop881" />
    </linearGradient>
    <linearGradient
       inkscape:collect="always"
       xlink:href="#linearGradient883"
       id="linearGradient885"
       x1="2.1085808"
       y1="2.0236168"
       x2="14.846128"
       y2="15.071845"
       gradientUnits="userSpaceOnUse" />
    <linearGradient
       inkscape:collect="always"
       xlink:href="#linearGradient1134"
       id="linearGradient1136"
       x1="14.971222"
       y1="14.703373"
       x2="2.0756054"
       y2="2.0069976"
       gradientUnits="userSpaceOnUse" />
    <filter
       style="color-interpolation-filters:sRGB;"
       inkscape:label="Blur"
       id="filter1283"
       x="-0.082344266"
       y="-0.082344266"
       width="1.1646885"
       height="1.1646885">
      <feGaussianBlur
         stdDeviation="0.5 0.5"
         result="blur"
         id="feGaussianBlur1281" />
    </filter>
    <filter
       style="color-interpolation-filters:sRGB;"
       inkscape:label="Blur"
       id="filter1694"
       x="-0.94955398"
       y="-0.2118907"
       width="2.899108"
       height="1.4237814">
      <feGaussianBlur
         stdDeviation="0.2 0.2"
         result="blur"
         id="feGaussianBlur1692" />
    </filter>
    <filter
       style="color-interpolation-filters:sRGB;"
       inkscape:label="Blur"
       id="filter3148"
       x="-0.94955398"
       y="-0.2118907"
       width="2.899108"
       height="1.4237814">
      <feGaussianBlur
         stdDeviation="0.2 0.2"
         result="blur"
         id="feGaussianBlur3146" />
    </filter>
    <clipPath
       clipPathUnits="userSpaceOnUse"
       id="clipPath44">
      <path
         id="path46"
         style="display:block;opacity:0.85;fill:#f2f2f2;stroke-width:4.39162"
         d="m 17.570312,8.4453125 a 6.5431988,7.4283052 9.9958727e-8 0 0 -6.535156,7.4394535 6.5431988,7.4283052 9.9958727e-8 0 0 6.552735,7.417968 6.5431988,7.4283052 9.9958727e-8 0 0 6.535156,-7.4375 6.5431988,7.4283052 9.9958727e-8 0 0 -6.552735,-7.4199215 z M 45.646484,41.177734 a 6.5431986,7.0703472 2.4665357e-6 0 0 -6.533203,7.080078 6.5431986,7.0703472 2.4665357e-6 0 0 6.550781,7.060547 6.5431986,7.0703472 2.4665357e-6 0 0 6.535157,-7.080078 6.5431986,7.0703472 2.4665357e-6 0 0 -6.552735,-7.060547 z" />
    </clipPath>
    <inkscape:path-effect
       effect="powerclip"
       id="path-effect48"
       is_visible="true"
       lpeversion="1"
       inverse="true"
       flatten="false"
       hide_clip="false"
       message="" />
    <clipPath
       clipPathUnits="userSpaceOnUse"
       id="clipPath2617">
      <path
         id="path2619"
         style="display:none;fill:#813d9c;stroke-width:1.6"
         d="m 32.117188,5.8242188 -6.511719,6.5117192 6.513672,6.511718 6.509765,-6.509765 z m 0.002,13.0234372 -6.511719,6.511719 6.513672,6.509766 6.509765,-6.507813 z m 6.511718,6.513672 6.513672,6.509766 6.507813,-6.507813 -6.511719,-6.513672 z m 6.513672,6.509766 -6.511719,6.511718 6.513672,6.511719 6.507813,-6.509765 z m -6.511719,6.511718 -6.511718,-6.513671 -6.511719,6.511718 6.513672,6.511719 z m -6.509765,6.509766 -6.509766,6.509766 6.511719,6.511718 6.509766,-6.507812 z m -6.513672,-6.511719 -6.509766,-6.513671 -6.511718,6.511718 6.513671,6.511719 z m -6.509766,-6.513671 6.507813,-6.507813 -6.509766,-6.513672 -6.511718,6.509766 z" />
      <path
         id="lpe_path-effect2621"
         style="fill:#813d9c;stroke-width:1.6"
         class="powerclip"
         d="M -3.000003,-3 H 67 V 67.000277 H -3.000003 Z m 35.117191,8.8242188 -6.511719,6.5117192 6.513672,6.511718 6.509765,-6.509765 z m 0.002,13.0234372 -6.511719,6.511719 6.513672,6.509766 6.509765,-6.507813 z m 6.511718,6.513672 6.513672,6.509766 6.507813,-6.507813 -6.511719,-6.513672 z m 6.513672,6.509766 -6.511719,6.511718 6.513672,6.511719 6.507813,-6.509765 z m -6.511719,6.511718 -6.511718,-6.513671 -6.511719,6.511718 6.513672,6.511719 z m -6.509765,6.509766 -6.509766,6.509766 6.511719,6.511718 6.509766,-6.507812 z m -6.513672,-6.511719 -6.509766,-6.513671 -6.511718,6.511718 6.513671,6.511719 z m -6.509766,-6.513671 6.507813,-6.507813 -6.509766,-6.513672 -6.511718,6.509766 z" />
    </clipPath>
    <inkscape:path-effect
       effect="powerclip"
       id="path-effect2621"
       is_visible="true"
       lpeversion="1"
       inverse="true"
       flatten="false"
       hide_clip="false"
       message="" />
  </defs>
  <metadata
     id="metadata2">
    <rdf:RDF>
      <cc:Work
         rdf:about="">
        <dc:format>image/svg+xml</dc:format>
        <dc:type
           rdf:resource="http://purl.org/dc/dcmitype/StillImage" />
      </cc:Work>
    </rdf:RDF>
  </metadata>
  <rect
     style="fill:#000000;stroke:none;stroke-width:0.539739;stroke-dasharray:none;filter:url(#filter1283)"
     id="rect246-1"
     width="14.572964"
     height="14.572964"
     x="1.1932471"
     y="1.2138842"
     rx="2.1589575"
     ry="2.1589575" />
  <rect
     style="opacity:1;fill:#000000;stroke:url(#linearGradient885);stroke-width:0.52915625;stroke-dasharray:none"
     id="rect246"
     width="14.287219"
     height="14.287219"
     x="1.3361193"
     y="1.3567564"
     rx="2.1166251"
     ry="2.1166251" />
  <rect
     style="fill:url(#linearGradient1136);fill-opacity:1;stroke:none;stroke-width:0.478315;stroke-dasharray:none"
     id="rect246-5"
     width="12.914515"
     height="12.914515"
     x="2.0224717"
     y="2.0431087"
     rx="1.5874687"
     ry="1.5874687" />
  <path
     id="path4"
     style="fill:#999999;fill-opacity:1;stroke-width:2"
     d="M 32,2 C 30.4285,2 28.856375,2.5850594 27.681641,3.7597656 L 15.71875,15.722656 3.7597656,27.683594 C 2.5843371,28.858992 1.9984601,30.42878 2,32 c 0.00157,1.569368 0.5895821,3.140439 1.7636719,4.314453 l 3.8203125,3.822266 -0.00195,0.002 8.1406246,8.138672 8.138672,8.138672 0.002,-0.002 3.820313,3.822266 c 2.34947,2.349412 6.285291,2.353146 8.634765,0.0039 l 12.085938,-12.08789 -0.002,-0.002 8.013672,-8.011719 3.820312,-3.822266 c 0.293678,-0.293677 0.55102,-0.61239 0.771484,-0.949218 0.110233,-0.168415 0.210852,-0.340635 0.302735,-0.517579 2.69e-4,-5.18e-4 -2.69e-4,-0.0014 0,-0.002 0.09156,-0.176448 0.174759,-0.357587 0.248047,-0.541015 0.0735,-0.183968 0.138248,-0.3711 0.193359,-0.560547 0.110222,-0.378895 0.183982,-0.766884 0.220703,-1.158203 C 61.991017,32.392231 62,32.196392 62,32 c 0,-0.196392 -0.009,-0.392289 -0.02734,-0.587891 -0.03678,-0.391203 -0.11042,-0.779423 -0.220703,-1.158203 -0.05514,-0.18939 -0.119858,-0.376579 -0.193359,-0.560547 -0.0735,-0.183967 -0.156195,-0.365967 -0.248047,-0.542968 -0.09185,-0.177002 -0.192543,-0.349087 -0.302735,-0.517579 C 60.787429,28.29583 60.53001,27.97727 60.236328,27.683594 l -3.820312,-3.822266 -8.138672,-8.138672 v -0.002 L 40.138672,7.5820312 v -0.00195 L 36.314453,3.7558594 C 35.140331,2.5849283 33.568976,2 32,2 Z"
     transform="matrix(0.12654689,0,0,0.12654689,4.4169989,3.3587056)"
     clip-path="url(#clipPath2617)"
     inkscape:path-effect="#path-effect2621"
     inkscape:original-d="M 32,2 C 30.4285,2 28.856375,2.5850594 27.681641,3.7597656 L 15.71875,15.722656 3.7597656,27.683594 C 2.5843371,28.858992 1.9984601,30.42878 2,32 c 0.00157,1.569368 0.5895821,3.140439 1.7636719,4.314453 l 3.8203125,3.822266 -0.00195,0.002 8.1406246,8.138672 8.138672,8.138672 0.002,-0.002 3.820313,3.822266 c 2.34947,2.349412 6.285291,2.353146 8.634765,0.0039 l 12.085938,-12.08789 -0.002,-0.002 8.013672,-8.011719 3.820312,-3.822266 c 0.293678,-0.293677 0.55102,-0.61239 0.771484,-0.949218 0.110233,-0.168415 0.210852,-0.340635 0.302735,-0.517579 2.69e-4,-5.18e-4 -2.69e-4,-0.0014 0,-0.002 0.09156,-0.176448 0.174759,-0.357587 0.248047,-0.541015 0.0735,-0.183968 0.138248,-0.3711 0.193359,-0.560547 0.110222,-0.378895 0.183982,-0.766884 0.220703,-1.158203 C 61.991017,32.392231 62,32.196392 62,32 c 0,-0.196392 -0.009,-0.392289 -0.02734,-0.587891 -0.03678,-0.391203 -0.11042,-0.779423 -0.220703,-1.158203 -0.05514,-0.18939 -0.119858,-0.376579 -0.193359,-0.560547 -0.0735,-0.183967 -0.156195,-0.365967 -0.248047,-0.542968 -0.09185,-0.177002 -0.192543,-0.349087 -0.302735,-0.517579 C 60.787429,28.29583 60.53001,27.97727 60.236328,27.683594 l -3.820312,-3.822266 -8.138672,-8.138672 v -0.002 L 40.138672,7.5820312 v -0.00195 L 36.314453,3.7558594 C 35.140331,2.5849283 33.568976,2 32,2 Z" />
  <g
     aria-label="Krita"
     id="text1450"
     style="font-size:1.76385px;opacity:1;fill:#ffff00;stroke-width:0.529156">
    <rect
       style="font-size:1.76385px;fill:#ffff00;fill-opacity:1;stroke:none;stroke-width:0.519976;stroke-dasharray:none;filter:url(#filter3148)"
       id="rect1656-3"
       width="0.5055005"
       height="2.2653189"
       x="15.369148"
       y="4.3016486"
       rx="0"
       ry="0" />
    <rect
       style="opacity:1;fill:#ffff00;fill-opacity:1;stroke:none;stroke-width:0.519976;stroke-dasharray:none"
       id="rect1656"
       width="0.5055005"
       height="2.2653189"
       x="15.369148"
       y="4.3016486"
       rx="0"
       ry="0" />
  </g>
  <path
     d="M 4.2176394,14.179017 H 4.0588929 v -1.259389 h 0.7037762 v 0.139344 H 4.2176394 v 0.446254 h 0.5115165 v 0.139345 H 4.2176394 Z m 1.1764864,-0.963062 q 0.026458,0 0.056443,0.0035 0.031749,0.0018 0.054679,0.0071 L 5.485846,13.36941 q -0.02293,-0.0053 -0.051152,-0.0088 -0.026458,-0.0035 -0.051152,-0.0035 -0.072318,0 -0.1358164,0.04057 -0.063499,0.0388 -0.1023033,0.111122 -0.037041,0.07055 -0.037041,0.165802 v 0.504461 H 4.9531633 v -0.945424 h 0.1269972 l 0.017639,0.172858 h 0.00706 q 0.04586,-0.07761 0.118178,-0.134053 0.072318,-0.05644 0.1710934,-0.05644 z m 0.6102915,0.0018 q 0.1728573,0 0.2557582,0.07584 0.082901,0.07585 0.082901,0.241648 v 0.643805 H 6.2301901 l -0.029985,-0.134053 h -0.00706 q -0.061735,0.07761 -0.1305249,0.114651 -0.067026,0.03704 -0.1869681,0.03704 -0.128761,0 -0.2134258,-0.06703 -0.084665,-0.06879 -0.084665,-0.213426 0,-0.141108 0.1111225,-0.216953 0.1111226,-0.07761 0.3421869,-0.08466 l 0.1605104,-0.0053 v -0.05644 q 0,-0.118178 -0.051152,-0.164038 -0.051152,-0.04586 -0.1446357,-0.04586 -0.074082,0 -0.141108,0.02293 -0.067026,0.02117 -0.1252333,0.04939 l -0.047624,-0.116414 q 0.061735,-0.03351 0.1463996,-0.05644 0.084665,-0.02469 0.176385,-0.02469 z m 0.04586,0.504461 q -0.176385,0.0071 -0.2451752,0.05644 -0.067026,0.04939 -0.067026,0.139344 0,0.07937 0.047624,0.116414 0.049388,0.03704 0.1252333,0.03704 0.1199418,0 0.1993151,-0.06526 0.079373,-0.06703 0.079373,-0.204607 v -0.08466 z m 0.9207311,-0.506225 q 0.093484,0 0.1675657,0.03528 0.075846,0.03528 0.1287611,0.107595 h 0.00882 l 0.021166,-0.125234 h 0.1234695 v 0.961299 q 0,0.202842 -0.1040671,0.305146 -0.1023033,0.102303 -0.3192569,0.102303 -0.2081342,0 -0.340423,-0.05997 v -0.142872 q 0.1393442,0.07408 0.3492423,0.07408 0.1217056,0 0.1904958,-0.07232 0.070554,-0.07055 0.070554,-0.194023 v -0.03704 q 0,-0.02117 0.00176,-0.05997 0.00176,-0.04057 0.00353,-0.05644 h -0.00706 q -0.095248,0.142872 -0.2927991,0.142872 -0.1834403,0 -0.2875075,-0.128761 -0.1023033,-0.128762 -0.1023033,-0.359826 0,-0.225773 0.1023033,-0.358061 0.1040672,-0.134053 0.2857437,-0.134053 z m 0.021166,0.130525 q -0.118178,0 -0.1834404,0.09525 -0.065262,0.09348 -0.065262,0.268105 0,0.174621 0.063498,0.268105 0.065263,0.09172 0.188732,0.09172 0.1428718,0 0.2081343,-0.07585 0.065262,-0.07761 0.065262,-0.248703 v -0.03704 q 0,-0.194023 -0.067026,-0.276924 -0.067026,-0.08467 -0.2098981,-0.08467 z m 1.7656134,-0.130525 q 0.1605104,0 0.2398836,0.0829 0.079373,0.08114 0.079373,0.264577 v 0.615584 H 8.92359 v -0.608528 q 0,-0.224009 -0.1922596,-0.224009 -0.1375803,0 -0.1975512,0.07937 -0.058207,0.07937 -0.058207,0.231064 v 0.5221 H 8.3221172 v -0.608528 q 0,-0.224009 -0.1940235,-0.224009 -0.1428719,0 -0.1975512,0.08819 -0.054679,0.08819 -0.054679,0.253995 v 0.49035 H 7.7206443 v -0.945424 h 0.1252334 l 0.02293,0.128762 h 0.00882 q 0.044096,-0.07408 0.1181779,-0.109359 0.075846,-0.03704 0.1605104,-0.03704 0.2222451,0 0.2892714,0.158746 h 0.00882 q 0.047624,-0.08114 0.1287611,-0.119941 0.082901,-0.0388 0.1746211,-0.0388 z m 0.9771717,0 q 0.1217057,0 0.2081343,0.05292 0.088193,0.05292 0.1340529,0.149928 0.04762,0.09525 0.04762,0.224009 v 0.09348 H 9.4774377 q 0.00353,0.16051 0.081137,0.245175 0.079373,0.0829 0.2204813,0.0829 0.089956,0 0.1587465,-0.01588 0.070554,-0.01764 0.1446354,-0.04939 v 0.135817 q -0.07232,0.03175 -0.1428716,0.04586 -0.070554,0.01588 -0.1675657,0.01588 -0.1340526,0 -0.2381198,-0.05468 -0.1023033,-0.05468 -0.1605103,-0.162274 -0.056443,-0.109359 -0.056443,-0.266341 0,-0.155219 0.051152,-0.266342 0.052916,-0.111122 0.1463996,-0.171093 0.095248,-0.05997 0.2204812,-0.05997 z m -0.00176,0.126997 q -0.1111226,0 -0.176385,0.07232 -0.063499,0.07055 -0.075846,0.197551 h 0.4815311 q -0.00176,-0.119942 -0.056443,-0.194023 -0.054679,-0.07585 -0.1728573,-0.07585 z m 1.08653,-0.126997 q 0.16933,0 0.255759,0.0829 0.08643,0.08114 0.08643,0.264577 v 0.615584 h -0.153455 v -0.605 q 0,-0.227537 -0.211662,-0.227537 -0.156982,0 -0.216953,0.08819 -0.05997,0.08819 -0.05997,0.253995 v 0.49035 h -0.155219 v -0.945424 h 0.125233 l 0.02293,0.128762 h 0.0088 q 0.04586,-0.07408 0.126997,-0.109359 0.08114,-0.03704 0.171093,-0.03704 z m 0.950715,0.853703 q 0.03528,0 0.07232,-0.0053 0.03704,-0.0071 0.05997,-0.01411 v 0.118178 q -0.02469,0.01235 -0.07055,0.0194 -0.04586,0.0088 -0.08819,0.0088 -0.07408,0 -0.137581,-0.02469 -0.06173,-0.02646 -0.100539,-0.08996 -0.0388,-0.0635 -0.0388,-0.178149 v -0.550321 h -0.134052 v -0.07408 l 0.135816,-0.06173 0.06173,-0.201079 h 0.09172 v 0.216953 h 0.273397 v 0.119942 h -0.273397 v 0.546794 q 0,0.08643 0.04057,0.128761 0.04233,0.04057 0.107594,0.04057 z m 0.936605,-0.151691 q 0,0.137581 -0.102303,0.208135 -0.102303,0.07055 -0.275161,0.07055 -0.09877,0 -0.171093,-0.01588 -0.07055,-0.01587 -0.125234,-0.0441 v -0.141108 q 0.05644,0.02822 0.135817,0.05291 0.08114,0.02293 0.164038,0.02293 0.118178,0 0.171093,-0.03704 0.05292,-0.0388 0.05292,-0.102303 0,-0.03528 -0.0194,-0.0635 -0.0194,-0.02822 -0.07055,-0.05644 -0.04939,-0.02822 -0.142872,-0.0635 -0.09172,-0.03528 -0.156983,-0.07055 -0.06526,-0.03528 -0.100539,-0.08466 -0.03528,-0.04939 -0.03528,-0.126997 0,-0.119942 0.09701,-0.185205 0.09878,-0.06526 0.257522,-0.06526 0.08643,0 0.160511,0.01764 0.07585,0.01587 0.141108,0.04586 l -0.05292,0.123469 q -0.05997,-0.02469 -0.125233,-0.04233 -0.06526,-0.01764 -0.134053,-0.01764 -0.09525,0 -0.146399,0.03175 -0.04939,0.02999 -0.04939,0.0829 0,0.0388 0.02293,0.06703 0.02293,0.02646 0.07585,0.05292 0.05468,0.02469 0.144635,0.05997 0.08996,0.03351 0.153455,0.06879 0.0635,0.03528 0.09701,0.08643 0.03351,0.04939 0.03351,0.125233 z"
     id="text2284"
     style="font-size:1.76385px;fill:#999999;stroke-width:0.529156"
     aria-label="Fragments" />
  <text
     xml:space="preserve"
     transform="scale(0.26457812)"
     id="text3806"
     style="fill:#999999;stroke-width:2;font-size:6.66666667px;white-space:pre;shape-inside:url(#rect3808)" />
</svg>
