<?xml version="1.0" encoding="UTF-8" standalone="no"?>
<svg
   width="64"
   height="64"
   version="1.1"
   viewBox="0 0 16.933 16.933"
   id="svg7"
   sodipodi:docname="Games Templates.svg"
   inkscape:version="1.4 (e7c3feb100, 2024-10-09)"
   xmlns:inkscape="http://www.inkscape.org/namespaces/inkscape"
   xmlns:sodipodi="http://sodipodi.sourceforge.net/DTD/sodipodi-0.dtd"
   xmlns:xlink="http://www.w3.org/1999/xlink"
   xmlns="http://www.w3.org/2000/svg"
   xmlns:svg="http://www.w3.org/2000/svg"
   xmlns:rdf="http://www.w3.org/1999/02/22-rdf-syntax-ns#"
   xmlns:cc="http://creativecommons.org/ns#"
   xmlns:dc="http://purl.org/dc/elements/1.1/">
  <sodipodi:namedview
     id="namedview7"
     pagecolor="#9c4444"
     bordercolor="#000000"
     borderopacity="0.25"
     inkscape:showpageshadow="2"
     inkscape:pageopacity="0.0"
     inkscape:pagecheckerboard="0"
     inkscape:deskcolor="#d1d1d1"
     inkscape:zoom="6.15625"
     inkscape:cx="15.675127"
     inkscape:cy="27.370558"
     inkscape:window-width="1183"
     inkscape:window-height="973"
     inkscape:window-x="35"
     inkscape:window-y="32"
     inkscape:window-maximized="0"
     inkscape:current-layer="svg7"
     showgrid="false" />
  <defs
     id="defs2">
    <linearGradient
       inkscape:collect="always"
       id="linearGradient1134">
      <stop
         style="stop-color:#161616;stop-opacity:1;"
         offset="0"
         id="stop1130" />
      <stop
         style="stop-color:#404040;stop-opacity:1;"
         offset="1"
         id="stop1132" />
    </linearGradient>
    <linearGradient
       inkscape:collect="always"
       id="linearGradient883">
      <stop
         style="stop-color:#808080;stop-opacity:1;"
         offset="0"
         id="stop879" />
      <stop
         style="stop-color:#3e3e3e;stop-opacity:1;"
         offset="0.5"
         id="stop1216" />
      <stop
         style="stop-color:#242424;stop-opacity:1;"
         offset="1"
         id="stop881" />
    </linearGradient>
    <linearGradient
       inkscape:collect="always"
       xlink:href="#linearGradient883"
       id="linearGradient885"
       x1="2.1085808"
       y1="2.0236168"
       x2="14.846128"
       y2="15.071845"
       gradientUnits="userSpaceOnUse" />
    <linearGradient
       inkscape:collect="always"
       xlink:href="#linearGradient1134"
       id="linearGradient1136"
       x1="14.971222"
       y1="14.703373"
       x2="2.0756054"
       y2="2.0069976"
       gradientUnits="userSpaceOnUse" />
    <filter
       style="color-interpolation-filters:sRGB;"
       inkscape:label="Blur"
       id="filter1283"
       x="-0.082344266"
       y="-0.082344266"
       width="1.1646885"
       height="1.1646885">
      <feGaussianBlur
         stdDeviation="0.5 0.5"
         result="blur"
         id="feGaussianBlur1281" />
    </filter>
    <filter
       style="color-interpolation-filters:sRGB;"
       inkscape:label="Blur"
       id="filter1694"
       x="-0.94955398"
       y="-0.2118907"
       width="2.899108"
       height="1.4237814">
      <feGaussianBlur
         stdDeviation="0.2 0.2"
         result="blur"
         id="feGaussianBlur1692" />
    </filter>
  </defs>
  <metadata
     id="metadata2">
    <rdf:RDF>
      <cc:Work
         rdf:about="">
        <dc:format>image/svg+xml</dc:format>
        <dc:type
           rdf:resource="http://purl.org/dc/dcmitype/StillImage" />
      </cc:Work>
    </rdf:RDF>
  </metadata>
  <rect
     style="fill:#000000;stroke:none;stroke-width:0.539739;stroke-dasharray:none;filter:url(#filter1283)"
     id="rect246-1"
     width="14.572964"
     height="14.572964"
     x="1.1932471"
     y="1.2138842"
     rx="2.1589575"
     ry="2.1589575" />
  <rect
     style="opacity:1;fill:#000000;stroke:url(#linearGradient885);stroke-width:0.52915625;stroke-dasharray:none"
     id="rect246"
     width="14.287219"
     height="14.287219"
     x="1.3361193"
     y="1.3567564"
     rx="2.1166251"
     ry="2.1166251" />
  <rect
     style="fill:url(#linearGradient1136);fill-opacity:1;stroke:none;stroke-width:0.478315;stroke-dasharray:none"
     id="rect246-5"
     width="12.914515"
     height="12.914515"
     x="2.0224717"
     y="2.0431087"
     rx="1.5874687"
     ry="1.5874687" />
  <g
     transform="matrix(0.00418563,0,0,0.00418563,4.1803433,3.3800187)"
     id="g3"
     style="fill:#999999;fill-opacity:1">
    <path
       style="fill:#999999;fill-opacity:1"
       transform="matrix(73.143954,0,0,73.143954,-731.43339,-731.19914)"
       d="m 29.142578,16.308594 c -1.631413,0.104656 -3.097072,1.059254 -3.371094,1.193359 -0.878609,-0.251504 -1.880334,-0.774861 -3.052734,-0.97377 -4.05514,-0.687999 -7.486832,0.410168 -9.208984,1.605469 -2.257207,1.566664 -2.194775,3.325625 -2.38086,4.055801 -0.115266,0.452327 -1.1411832,1.288212 -1.128906,1.875 0.02006,0.765933 0.498788,1.012466 0.498788,1.012466 0.430725,-0.034 1.07322,-0.341311 1.622303,-0.567153 0.815036,-0.335243 0.878025,-0.517265 3.105468,-0.84961 1.024774,-0.152904 2.103286,-0.198338 2.90625,-0.205078 0.312467,0.659795 1.08953,2.017443 2.435547,2.667969 0.798715,0.367531 2.001636,0.53178 2.533203,0.636719 l 1.554688,0.230468 v -0.628906 h -0.002 c 0,0 -1.304731,-0.541113 -2.107422,-1.34375 -0.338767,-0.338742 -0.341841,-0.743997 -0.435547,-1.148437 1.236935,0.232862 2.338964,0.409267 4.947266,1.408203 2.402306,0.92004 4.04304,2.256279 4.044922,2.257812 l 0.002,0.002 0.0039,0.0039 v -0.628907 l -0.0059,-0.0039 c -0.02182,-0.02711 -1.704738,-2.113765 -4.535157,-3.509765 -2.33925,-1.15378 -4.260766,-1.724456 -6.921875,-1.853516 -2.763683,-0.134043 -4.600944,0.18741 -4.800781,0.220703 0.236976,-0.470989 0.717016,-1.287019 2.005859,-1.891593 1.909468,-0.895713 4.91179,-1.045527 8.359376,-0.166015 4.870682,1.242563 6.531824,3.568404 8.626953,5.754874 2.228656,2.325847 4.154023,6.233759 4.15625,6.238281 l 0.002,0.0039 0.0039,0.0098 v -0.632813 l -0.01758,-0.04883 c -0.09314,-0.312179 -0.67221,-2.194929 -1.650391,-4 -1.288705,-2.378091 -2.397481,-4.078174 -4.24414,-5.804687 -1.288358,-0.96098 -2.599163,-2.269279 -2.374998,-2.833972 0.579769,-0.762847 2.152395,-1.229261 2.158203,-1.230469 h 0.0039 v -0.002 -0.626953 c 0,0 -0.994124,-0.338068 -2.732422,-0.226562 z m 1.951173,11.218749 c 0,0 0.01562,0.01371 0,0 z"
       id="path3-3" />
  </g>
  <g
     aria-label="Krita"
     id="text1450"
     style="font-size:1.76385px;opacity:1;fill:#ff00ff;stroke-width:0.529156">
    <rect
       style="font-size:1.76385px;fill:#ff00ff;fill-opacity:1;stroke:none;stroke-width:0.519976;stroke-dasharray:none;filter:url(#filter1694)"
       id="rect1656-7"
       width="0.5055005"
       height="2.2653189"
       x="15.369148"
       y="4.3016486"
       rx="0"
       ry="0" />
    <rect
       style="opacity:1;fill:#ff00ff;fill-opacity:1;stroke:none;stroke-width:0.519976;stroke-dasharray:none"
       id="rect1656"
       width="0.5055005"
       height="2.2653189"
       x="15.369148"
       y="4.3016486"
       rx="0"
       ry="0" />
  </g>
  <path
     d="m 4.2428608,13.518931 q 0,0.319257 -0.1746211,0.481531 -0.1728573,0.160511 -0.4832949,0.160511 H 3.2339386 v -1.259389 h 0.388047 q 0.1904958,0 0.32984,0.07055 0.1393441,0.07055 0.2151897,0.208134 0.075845,0.135816 0.075845,0.338659 z m -0.1675657,0.0053 q 0,-0.252231 -0.1252334,-0.368645 Q 3.8265922,13.0374 3.5990556,13.0374 H 3.3926851 v 0.987756 h 0.1710935 q 0.5115165,0 0.5115165,-0.500933 z m 1.2470411,0.162274 q 0,0.234592 -0.1199418,0.363353 -0.1181779,0.128761 -0.3210207,0.128761 -0.1252333,0 -0.2240089,-0.05644 -0.097012,-0.05821 -0.153455,-0.167566 -0.056443,-0.111122 -0.056443,-0.268105 0,-0.234592 0.118178,-0.361589 0.1181779,-0.126997 0.3210207,-0.126997 0.128761,0 0.2257728,0.05821 0.098776,0.05644 0.1534549,0.165801 0.056443,0.107595 0.056443,0.264578 z m -0.7143592,0 q 0,0.167566 0.065262,0.266341 0.067026,0.09701 0.211662,0.09701 0.1428719,0 0.2098982,-0.09701 0.067026,-0.09877 0.067026,-0.266341 0,-0.167566 -0.067026,-0.262814 -0.067026,-0.09525 -0.211662,-0.09525 -0.1446357,0 -0.2098982,0.09525 -0.065262,0.09525 -0.065262,0.262814 z m 1.1147525,0.474476 H 5.5675107 v -1.340526 h 0.1552188 z m 0.7496351,-0.963062 q 0.1746211,0 0.2804521,0.121705 0.1075949,0.121706 0.1075949,0.366881 0,0.241647 -0.1075949,0.366881 -0.105831,0.125233 -0.282216,0.125233 -0.1093587,0 -0.1816765,-0.04057 -0.070554,-0.04233 -0.1111226,-0.09701 h -0.010583 q 0.00353,0.02998 0.00706,0.07584 0.00353,0.04586 0.00353,0.07937 v 0.388047 H 6.0225828 V 13.215549 H 6.14958 l 0.021166,0.128761 h 0.00706 q 0.042332,-0.06174 0.1111226,-0.104067 0.06879,-0.04233 0.1834404,-0.04233 z m -0.028222,0.130524 q -0.1446357,0 -0.2046066,0.08114 -0.058207,0.08114 -0.061735,0.246939 v 0.02998 q 0,0.174621 0.056443,0.269869 0.058207,0.09348 0.2134259,0.09348 0.086429,0 0.141108,-0.04762 0.056443,-0.04762 0.082901,-0.128761 0.028222,-0.0829 0.028222,-0.188732 0,-0.162274 -0.063499,-0.259286 -0.061735,-0.09701 -0.1922596,-0.09701 z m 0.818426,-0.11465 q 0,0.07055 -0.00882,0.132289 h 0.010583 q 0.04586,-0.07232 0.1234695,-0.109359 0.079373,-0.03704 0.1710935,-0.03704 0.1728573,0 0.2592859,0.0829 0.086429,0.08114 0.086429,0.262814 v 0.615584 h -0.153455 v -0.605001 q 0,-0.227537 -0.211662,-0.227537 -0.1587465,0 -0.2187174,0.08996 -0.058207,0.08819 -0.058207,0.253994 v 0.488587 H 7.1073502 V 12.820447 H 7.262569 Z m 1.014214,-0.35277 q 0.035277,0 0.061735,0.02469 0.028222,0.02293 0.028222,0.07408 0,0.04939 -0.028222,0.07408 -0.026458,0.02469 -0.061735,0.02469 -0.038805,0 -0.065262,-0.02469 -0.026458,-0.02469 -0.026458,-0.07408 0,-0.05115 0.026458,-0.07408 0.026458,-0.02469 0.065262,-0.02469 z m 0.075845,0.354534 v 0.945424 H 8.1974097 v -0.945424 z m 0.7549264,-0.01764 q 0.1693296,0 0.2557583,0.0829 0.086429,0.08114 0.086429,0.264578 v 0.615584 H 9.2962869 v -0.605001 q 0,-0.227537 -0.211662,-0.227537 -0.1569827,0 -0.2169536,0.08819 -0.059971,0.08819 -0.059971,0.253994 v 0.490351 H 8.6524816 V 13.215549 H 8.777715 l 0.02293,0.128761 h 0.00882 q 0.04586,-0.07408 0.1269972,-0.109359 0.081137,-0.03704 0.1710934,-0.03704 z m 1.8185301,0.963062 h -0.703776 v -1.259389 h 0.703776 v 0.139344 h -0.54503 v 0.393338 h 0.51328 v 0.137581 h -0.51328 v 0.449781 h 0.54503 z m 1.292901,-0.963062 q 0.160511,0 0.239884,0.0829 0.07937,0.08114 0.07937,0.264578 v 0.615584 h -0.153455 v -0.608529 q 0,-0.224009 -0.19226,-0.224009 -0.13758,0 -0.197551,0.07937 -0.05821,0.07937 -0.05821,0.231064 v 0.5221 h -0.153455 v -0.608529 q 0,-0.224009 -0.194023,-0.224009 -0.142872,0 -0.197551,0.08819 -0.05468,0.08819 -0.05468,0.253994 v 0.490351 h -0.155219 v -0.945424 h 0.125234 l 0.02293,0.128761 h 0.0088 q 0.0441,-0.07408 0.118178,-0.109359 0.07585,-0.03704 0.16051,-0.03704 0.222245,0 0.289272,0.158746 h 0.0088 q 0.04762,-0.08114 0.128761,-0.119942 0.0829,-0.0388 0.174621,-0.0388 z m 1.40226,0.01764 v 0.945424 h -0.126997 l -0.02293,-0.125234 h -0.0071 q -0.04586,0.07408 -0.126998,0.109359 -0.08114,0.03351 -0.172857,0.03351 -0.171093,0 -0.257522,-0.08114 -0.08643,-0.0829 -0.08643,-0.262814 v -0.619111 h 0.156983 v 0.608528 q 0,0.225773 0.209898,0.225773 0.156983,0 0.216954,-0.08819 0.06173,-0.08819 0.06173,-0.253995 v -0.492114 z"
     id="text1"
     style="font-size:1.76385px;text-align:center;text-anchor:middle;fill:#999999;stroke-width:0.264578"
     aria-label="Dolphin Emu" />
</svg>
