<?xml version="1.0" encoding="UTF-8" standalone="no"?>
<svg
   width="64"
   height="64"
   version="1.1"
   viewBox="0 0 16.933 16.933"
   id="svg7"
   sodipodi:docname="draw.io.svg"
   inkscape:version="1.4 (e7c3feb100, 2024-10-09)"
   xmlns:inkscape="http://www.inkscape.org/namespaces/inkscape"
   xmlns:sodipodi="http://sodipodi.sourceforge.net/DTD/sodipodi-0.dtd"
   xmlns:xlink="http://www.w3.org/1999/xlink"
   xmlns="http://www.w3.org/2000/svg"
   xmlns:svg="http://www.w3.org/2000/svg"
   xmlns:rdf="http://www.w3.org/1999/02/22-rdf-syntax-ns#"
   xmlns:cc="http://creativecommons.org/ns#"
   xmlns:dc="http://purl.org/dc/elements/1.1/">
  <sodipodi:namedview
     id="namedview7"
     pagecolor="#9c4444"
     bordercolor="#000000"
     borderopacity="0.25"
     inkscape:showpageshadow="2"
     inkscape:pageopacity="0.0"
     inkscape:pagecheckerboard="0"
     inkscape:deskcolor="#d1d1d1"
     inkscape:zoom="6.15625"
     inkscape:cx="15.51269"
     inkscape:cy="27.370558"
     inkscape:window-width="1183"
     inkscape:window-height="973"
     inkscape:window-x="35"
     inkscape:window-y="32"
     inkscape:window-maximized="0"
     inkscape:current-layer="svg7"
     showgrid="false" />
  <defs
     id="defs2">
    <linearGradient
       inkscape:collect="always"
       id="linearGradient1134">
      <stop
         style="stop-color:#161616;stop-opacity:1;"
         offset="0"
         id="stop1130" />
      <stop
         style="stop-color:#404040;stop-opacity:1;"
         offset="1"
         id="stop1132" />
    </linearGradient>
    <linearGradient
       inkscape:collect="always"
       id="linearGradient883">
      <stop
         style="stop-color:#808080;stop-opacity:1;"
         offset="0"
         id="stop879" />
      <stop
         style="stop-color:#3e3e3e;stop-opacity:1;"
         offset="0.5"
         id="stop1216" />
      <stop
         style="stop-color:#242424;stop-opacity:1;"
         offset="1"
         id="stop881" />
    </linearGradient>
    <linearGradient
       inkscape:collect="always"
       xlink:href="#linearGradient883"
       id="linearGradient885"
       x1="2.1085808"
       y1="2.0236168"
       x2="14.846128"
       y2="15.071845"
       gradientUnits="userSpaceOnUse" />
    <linearGradient
       inkscape:collect="always"
       xlink:href="#linearGradient1134"
       id="linearGradient1136"
       x1="14.971222"
       y1="14.703373"
       x2="2.0756054"
       y2="2.0069976"
       gradientUnits="userSpaceOnUse" />
    <filter
       style="color-interpolation-filters:sRGB;"
       inkscape:label="Blur"
       id="filter1283"
       x="-0.082344266"
       y="-0.082344266"
       width="1.1646885"
       height="1.1646885">
      <feGaussianBlur
         stdDeviation="0.5 0.5"
         result="blur"
         id="feGaussianBlur1281" />
    </filter>
    <filter
       style="color-interpolation-filters:sRGB;"
       inkscape:label="Blur"
       id="filter1694"
       x="-0.94955398"
       y="-0.2118907"
       width="2.899108"
       height="1.4237814">
      <feGaussianBlur
         stdDeviation="0.2 0.2"
         result="blur"
         id="feGaussianBlur1692" />
    </filter>
  </defs>
  <metadata
     id="metadata2">
    <rdf:RDF>
      <cc:Work
         rdf:about="">
        <dc:format>image/svg+xml</dc:format>
        <dc:type
           rdf:resource="http://purl.org/dc/dcmitype/StillImage" />
      </cc:Work>
    </rdf:RDF>
  </metadata>
  <rect
     style="fill:#000000;stroke:none;stroke-width:0.539739;stroke-dasharray:none;filter:url(#filter1283)"
     id="rect246-1"
     width="14.572964"
     height="14.572964"
     x="1.1932471"
     y="1.2138842"
     rx="2.1589575"
     ry="2.1589575" />
  <rect
     style="opacity:1;fill:#000000;stroke:url(#linearGradient885);stroke-width:0.52915625;stroke-dasharray:none"
     id="rect246"
     width="14.287219"
     height="14.287219"
     x="1.3361193"
     y="1.3567564"
     rx="2.1166251"
     ry="2.1166251" />
  <rect
     style="fill:url(#linearGradient1136);stroke:none;stroke-width:0.478315;stroke-dasharray:none;fill-opacity:1"
     id="rect246-5"
     width="12.914515"
     height="12.914515"
     x="2.0224717"
     y="2.0431087"
     rx="1.9132617"
     ry="1.9132617" />
  <path
     id="path6"
     style="fill:#999999;fill-opacity:1;stroke:none;stroke-width:0.0216145;stroke-opacity:1"
     d="M 7.4313128,4.2107989 7.3485864,4.244025 C 7.2329943,4.2907033 7.1191795,4.3989238 7.0607395,4.5176322 l -0.047466,0.095949 v 0.8865959 0.886257 l 0.039329,0.083743 c 0.053553,0.1142918 0.1850596,0.2437735 0.2824224,0.2783537 0.041115,0.014602 0.074589,0.03178 0.074589,0.037972 -2e-7,0.00619 -0.1625719,0.2864543 -0.3614192,0.622821 l -0.3617574,0.6116328 -0.758777,0.00407 -0.758777,0.00441 -0.096288,0.045431 C 4.9497536,8.1330602 4.8551482,8.2276659 4.7969533,8.350507 L 4.7511823,8.447134 V 9.3188118 10.19083 l 0.039329,0.08408 c 0.021668,0.04625 0.059045,0.108681 0.083066,0.139008 0.058217,0.07351 0.1817505,0.153957 0.2763196,0.179693 0.064222,0.01748 0.2433812,0.02038 1.0927337,0.01796 l 1.015771,-0.003 0.093576,-0.04442 C 7.5169609,10.485807 7.6356851,10.333165 7.6689817,10.156285 7.6880402,10.055 7.6883237,8.5850058 7.6693254,8.4848058 7.6361239,8.3096955 7.5151345,8.1520086 7.3560502,8.0765598 L 7.2662073,8.03418 7.3055363,7.9660326 C 7.3271204,7.92865 7.4906721,7.6505034 7.6689897,7.3479583 L 7.9931142,6.7980315 h 0.4756684 l 0.4756763,-3.438e-4 0.3241246,0.5495878 c 0.1783177,0.3022541 0.3421624,0.580524 0.3641315,0.6180743 l 0.040008,0.068148 -0.090524,0.042719 c -0.1618274,0.076741 -0.2806745,0.2301699 -0.3136149,0.4051556 -0.019503,0.1036063 -0.019503,1.5712646 0,1.6748696 0.033296,0.176879 0.152021,0.329524 0.3170046,0.407869 l 0.093576,0.04441 1.0066173,0.0041 c 1.121981,0.0045 1.110092,0.0053 1.256491,-0.09188 0.118592,-0.07871 0.193117,-0.184329 0.231904,-0.329888 0.02788,-0.104651 0.02789,-1.6392789 0,-1.7436959 C 12.128345,8.2755498 12.024214,8.1503112 11.86497,8.0748708 l -0.09629,-0.045436 -0.758776,-0.00441 -0.758439,-0.00407 -0.3617559,-0.612647 C 9.6907653,7.0714674 9.527951,6.7912073 9.527951,6.7854789 c 0,-0.00572 0.032031,-0.02169 0.071198,-0.0356 C 9.701398,6.7135638 9.8190297,6.6004536 9.8768256,6.4830531 L 9.9242997,6.387104 V 5.5005079 4.6135731 L 9.8768256,4.5176241 C 9.8183857,4.3989155 9.7045711,4.2906952 9.5889787,4.2440169 L 9.5062525,4.2107988 H 8.4687826 Z m 1.0374698,0.1512129 c 1.0941143,0 1.0671787,-0.00233 1.177155,0.1047642 0.1260829,0.1227815 0.1192975,0.065112 0.1237509,1.0208565 l 0.00373,0.8445548 -0.047466,0.09222 C 9.6745976,6.52386 9.5886331,6.5956043 9.4872474,6.6237636 9.4168836,6.643308 7.5079313,6.6417414 7.4394313,6.622065 7.3235968,6.5887915 7.2151171,6.4775305 7.1797433,6.356255 7.1681088,6.3163403 7.1644426,6.060174 7.1675379,5.4716933 l 0.00441,-0.8286198 0.035938,-0.070182 C 7.22763,4.5342254 7.2693601,4.4804442 7.3007809,4.4535488 7.408614,4.3612594 7.3982126,4.3620135 8.4687824,4.3620135 Z M 6.8186633,8.1823415 c 0.4690097,0.00234 0.4769488,0.020655 0.5651835,0.098322 0.038093,0.03353 0.079219,0.089055 0.09934,0.1335828 l 0.034582,0.076284 v 0.8282812 0.8286205 l -0.033904,0.07527 c -0.045097,0.09974 -0.1373614,0.18322 -0.2339393,0.211901 -0.065957,0.01958 -0.2041752,0.02264 -1.0425553,0.02136 -0.5315333,-8.91e-4 -0.9858927,-0.0064 -1.0096682,-0.0122 -0.1191516,-0.02901 -0.23764,-0.144016 -0.2736074,-0.265132 -0.031983,-0.1077 -0.031983,-1.6119212 0,-1.7196229 0.025727,-0.086631 0.1154747,-0.1943137 0.1996961,-0.2393638 0.059476,-0.031814 0.05966,-0.031861 1.0520485,-0.035938 0.2789317,-0.00115 0.4864878,-0.00214 0.6428246,-0.00135 z m 3.3002387,0 c 0.156336,-7.8e-4 0.363893,2.101e-4 0.642824,0.00135 0.992388,0.00408 0.992572,0.00412 1.052049,0.035938 0.08422,0.04505 0.173969,0.1527328 0.199696,0.2393646 0.03281,0.1104733 0.03192,1.6124329 -0.0011,1.7233529 -0.02618,0.08816 -0.111617,0.189312 -0.200034,0.236652 -0.05801,0.03107 -0.06305,0.03108 -1.059847,0.0339 -0.8341422,0.0023 -1.0125447,-4.58e-4 -1.0676449,-0.01762 -0.090276,-0.02814 -0.1884304,-0.118423 -0.2305163,-0.211561 l -0.034611,-0.07628 V 9.318811 8.4905303 L 9.45432,8.4142463 c 0.020147,-0.044528 0.061273,-0.1000521 0.099366,-0.1335829 0.088235,-0.077667 0.096175,-0.09598 0.565183,-0.098322 z" />
  <g
     aria-label="Krita"
     id="text1450"
     style="font-size:1.76385px;opacity:1;fill:#999999;stroke-width:0.529156">
    <rect
       style="font-size:1.76385px;fill:#00ff00;fill-opacity:1;stroke:none;stroke-width:0.519976;stroke-dasharray:none;filter:url(#filter1694)"
       id="rect1656-7"
       width="0.5055005"
       height="2.2653189"
       x="15.369148"
       y="4.3016486"
       rx="0"
       ry="0" />
    <rect
       style="opacity:1;fill:#00ff00;fill-opacity:1;stroke:none;stroke-width:0.519976;stroke-dasharray:none"
       id="rect1656"
       width="0.5055005"
       height="2.2653189"
       x="15.369148"
       y="4.3016486"
       rx="0"
       ry="0" />
  </g>
  <g
     aria-label="Draw"
     id="text2284"
     style="font-size:1.76385px;opacity:1;fill:#999999;stroke-width:0.529156">
    <path
       d="m 7.3696447,13.536976 q 0,0.319257 -0.1746211,0.481531 -0.1728573,0.16051 -0.4832949,0.16051 H 6.3607225 v -1.259389 h 0.388047 q 0.1904958,0 0.32984,0.07055 0.1393441,0.07055 0.2151897,0.208134 0.075846,0.135817 0.075846,0.33866 z m -0.1675657,0.0053 q 0,-0.25223 -0.1252334,-0.368644 Q 6.9533761,13.055445 6.7258395,13.055445 H 6.519469 v 0.987756 h 0.1710935 q 0.5115165,0 0.5115165,-0.500934 z"
       id="path3126" />
    <path
       d="m 8.0681285,13.215955 q 0.026458,0 0.056443,0.0035 0.031749,0.0018 0.054679,0.0071 l -0.019402,0.142872 q -0.02293,-0.0053 -0.051152,-0.0088 -0.026458,-0.0035 -0.051152,-0.0035 -0.072318,0 -0.1358164,0.04057 -0.063499,0.0388 -0.1023033,0.111122 -0.037041,0.07055 -0.037041,0.165802 v 0.504461 H 7.627166 v -0.945424 h 0.1269972 l 0.017639,0.172858 h 0.00706 q 0.04586,-0.07761 0.118178,-0.134053 0.072318,-0.05644 0.1710934,-0.05644 z"
       id="path3128" />
    <path
       d="m 8.6784199,13.217719 q 0.1728573,0 0.2557583,0.07584 0.082901,0.07585 0.082901,0.241648 v 0.643805 H 8.9041927 l -0.029985,-0.134053 h -0.00706 q -0.061735,0.07761 -0.1305249,0.114651 -0.067026,0.03704 -0.1869681,0.03704 -0.1287611,0 -0.2134259,-0.06703 -0.084665,-0.06879 -0.084665,-0.213426 0,-0.141108 0.1111226,-0.216953 0.1111225,-0.07761 0.3421869,-0.08466 l 0.1605103,-0.0053 v -0.05644 q 0,-0.118178 -0.051152,-0.164038 -0.051152,-0.04586 -0.1446357,-0.04586 -0.074082,0 -0.141108,0.02293 -0.067026,0.02117 -0.1252334,0.04939 l -0.047624,-0.116414 q 0.061735,-0.03351 0.1463995,-0.05644 0.084665,-0.02469 0.176385,-0.02469 z m 0.04586,0.504461 q -0.176385,0.0071 -0.2451751,0.05644 -0.067026,0.04939 -0.067026,0.139344 0,0.07937 0.047624,0.116414 0.049388,0.03704 0.1252334,0.03704 0.1199418,0 0.199315,-0.06526 0.079373,-0.06703 0.079373,-0.204607 v -0.08466 z"
       id="path3130" />
    <path
       d="m 9.9201717,13.644571 q -0.02293,-0.07232 -0.040568,-0.141108 -0.015875,-0.07055 -0.024694,-0.109359 h -0.00706 q -0.00706,0.0388 -0.02293,0.109359 -0.015875,0.06879 -0.040569,0.142871 L 9.6150257,14.177253 H 9.4386407 L 9.1793548,13.23183 H 9.3398651 L 9.47039,13.736291 q 0.019402,0.07585 0.037041,0.153455 0.017639,0.07761 0.024694,0.128761 h 0.00706 q 0.00706,-0.02999 0.015875,-0.07408 0.010583,-0.0441 0.02293,-0.09172 0.012347,-0.04939 0.024694,-0.08819 L 9.7702445,13.23183 h 0.1693296 l 0.1622739,0.532682 q 0.0194,0.05997 0.03704,0.130525 0.0194,0.07055 0.02646,0.121706 h 0.0071 q 0.0053,-0.0441 0.02293,-0.121706 0.0194,-0.07761 0.04057,-0.158746 L 10.36819,13.23183 h 0.158746 l -0.262814,0.945423 h -0.181676 z"
       id="path3132" />
  </g>
</svg>
