<?xml version="1.0" encoding="UTF-8" standalone="no"?>
<svg
   width="64"
   height="64"
   version="1.1"
   viewBox="0 0 16.933 16.933"
   id="svg7"
   sodipodi:docname="Development Template.svg"
   inkscape:version="1.4 (e7c3feb100, 2024-10-09)"
   xmlns:inkscape="http://www.inkscape.org/namespaces/inkscape"
   xmlns:sodipodi="http://sodipodi.sourceforge.net/DTD/sodipodi-0.dtd"
   xmlns:xlink="http://www.w3.org/1999/xlink"
   xmlns="http://www.w3.org/2000/svg"
   xmlns:svg="http://www.w3.org/2000/svg"
   xmlns:rdf="http://www.w3.org/1999/02/22-rdf-syntax-ns#"
   xmlns:cc="http://creativecommons.org/ns#"
   xmlns:dc="http://purl.org/dc/elements/1.1/">
  <sodipodi:namedview
     id="namedview7"
     pagecolor="#9c4444"
     bordercolor="#000000"
     borderopacity="0.25"
     inkscape:showpageshadow="2"
     inkscape:pageopacity="0.0"
     inkscape:pagecheckerboard="0"
     inkscape:deskcolor="#d1d1d1"
     inkscape:zoom="6.15625"
     inkscape:cx="15.675127"
     inkscape:cy="29.807107"
     inkscape:window-width="1183"
     inkscape:window-height="973"
     inkscape:window-x="35"
     inkscape:window-y="32"
     inkscape:window-maximized="0"
     inkscape:current-layer="svg7"
     showgrid="false" />
  <defs
     id="defs2">
    <rect
       x="67.489848"
       y="35.60533"
       width="15.337563"
       height="22.51269"
       id="rect3808" />
    <linearGradient
       inkscape:collect="always"
       id="linearGradient1134">
      <stop
         style="stop-color:#161616;stop-opacity:1;"
         offset="0"
         id="stop1130" />
      <stop
         style="stop-color:#404040;stop-opacity:1;"
         offset="1"
         id="stop1132" />
    </linearGradient>
    <linearGradient
       inkscape:collect="always"
       id="linearGradient883">
      <stop
         style="stop-color:#808080;stop-opacity:1;"
         offset="0"
         id="stop879" />
      <stop
         style="stop-color:#3e3e3e;stop-opacity:1;"
         offset="0.5"
         id="stop1216" />
      <stop
         style="stop-color:#242424;stop-opacity:1;"
         offset="1"
         id="stop881" />
    </linearGradient>
    <linearGradient
       inkscape:collect="always"
       xlink:href="#linearGradient883"
       id="linearGradient885"
       x1="2.1085808"
       y1="2.0236168"
       x2="14.846128"
       y2="15.071845"
       gradientUnits="userSpaceOnUse" />
    <linearGradient
       inkscape:collect="always"
       xlink:href="#linearGradient1134"
       id="linearGradient1136"
       x1="14.971222"
       y1="14.703373"
       x2="2.0756054"
       y2="2.0069976"
       gradientUnits="userSpaceOnUse" />
    <filter
       style="color-interpolation-filters:sRGB;"
       inkscape:label="Blur"
       id="filter1283"
       x="-0.082344266"
       y="-0.082344266"
       width="1.1646885"
       height="1.1646885">
      <feGaussianBlur
         stdDeviation="0.5 0.5"
         result="blur"
         id="feGaussianBlur1281" />
    </filter>
    <filter
       style="color-interpolation-filters:sRGB;"
       inkscape:label="Blur"
       id="filter1694"
       x="-0.94955398"
       y="-0.2118907"
       width="2.899108"
       height="1.4237814">
      <feGaussianBlur
         stdDeviation="0.2 0.2"
         result="blur"
         id="feGaussianBlur1692" />
    </filter>
    <filter
       style="color-interpolation-filters:sRGB;"
       inkscape:label="Blur"
       id="filter3148"
       x="-0.94955398"
       y="-0.2118907"
       width="2.899108"
       height="1.4237814">
      <feGaussianBlur
         stdDeviation="0.2 0.2"
         result="blur"
         id="feGaussianBlur3146" />
    </filter>
    <clipPath
       clipPathUnits="userSpaceOnUse"
       id="clipPath44">
      <path
         id="path46"
         style="display:block;opacity:0.85;fill:#f2f2f2;stroke-width:4.39162"
         d="m 17.570312,8.4453125 a 6.5431988,7.4283052 9.9958727e-8 0 0 -6.535156,7.4394535 6.5431988,7.4283052 9.9958727e-8 0 0 6.552735,7.417968 6.5431988,7.4283052 9.9958727e-8 0 0 6.535156,-7.4375 6.5431988,7.4283052 9.9958727e-8 0 0 -6.552735,-7.4199215 z M 45.646484,41.177734 a 6.5431986,7.0703472 2.4665357e-6 0 0 -6.533203,7.080078 6.5431986,7.0703472 2.4665357e-6 0 0 6.550781,7.060547 6.5431986,7.0703472 2.4665357e-6 0 0 6.535157,-7.080078 6.5431986,7.0703472 2.4665357e-6 0 0 -6.552735,-7.060547 z" />
    </clipPath>
    <inkscape:path-effect
       effect="powerclip"
       id="path-effect48"
       is_visible="true"
       lpeversion="1"
       inverse="true"
       flatten="false"
       hide_clip="false"
       message="" />
  </defs>
  <metadata
     id="metadata2">
    <rdf:RDF>
      <cc:Work
         rdf:about="">
        <dc:format>image/svg+xml</dc:format>
        <dc:type
           rdf:resource="http://purl.org/dc/dcmitype/StillImage" />
      </cc:Work>
    </rdf:RDF>
  </metadata>
  <rect
     style="fill:#000000;stroke:none;stroke-width:0.539739;stroke-dasharray:none;filter:url(#filter1283)"
     id="rect246-1"
     width="14.572964"
     height="14.572964"
     x="1.1932471"
     y="1.2138842"
     rx="2.1589575"
     ry="2.1589575" />
  <rect
     style="opacity:1;fill:#000000;stroke:url(#linearGradient885);stroke-width:0.52915625;stroke-dasharray:none"
     id="rect246"
     width="14.287219"
     height="14.287219"
     x="1.3361193"
     y="1.3567564"
     rx="2.1166251"
     ry="2.1166251" />
  <rect
     style="fill:url(#linearGradient1136);fill-opacity:1;stroke:none;stroke-width:0.478315;stroke-dasharray:none"
     id="rect246-5"
     width="12.914515"
     height="12.914515"
     x="2.0224717"
     y="2.0431087"
     rx="1.5874687"
     ry="1.5874687" />
  <path
     id="path8"
     style="fill:#999999;fill-opacity:1;stroke-width:0.0181986"
     d="m 8.7882444,4.0208387 c -0.018068,4.774e-4 -0.029781,0.0028 -0.03364,0.00697 -0.021875,0.023628 -0.1417023,0.3329443 -0.2079926,0.5370056 l -0.057023,0.1751795 -0.2186587,0.00985 C 8.0786549,4.75875 7.8562839,4.7929299 7.7687948,4.8265536 7.7473305,4.8348026 7.7189855,4.8049367 7.6609013,4.7137372 7.5227185,4.4967722 7.3072328,4.1991693 7.2884024,4.1992946 c -0.071263,4.774e-4 -0.6781285,0.2927881 -0.860276,0.414344 -0.025076,0.016734 0.014863,0.2852739 0.086561,0.5825424 0.020069,0.083211 0.036511,0.16629 0.036511,0.1841982 0,0.018364 -0.049486,0.071088 -0.1136368,0.1210214 -0.062558,0.048694 -0.201903,0.176896 -0.309322,0.2851177 L 5.932965,5.9834341 5.8644547,5.9485634 C 5.7900992,5.910666 5.5068339,5.788344 5.3573966,5.7299051 l -0.093125,-0.036101 -0.127995,0.194044 C 4.9932326,6.1048518 4.8227067,6.4057795 4.7760847,6.5237215 l -0.030767,0.077537 0.087791,0.1046115 c 0.048199,0.057451 0.1622892,0.1862561 0.2535293,0.2863481 l 0.1657371,0.1821473 0.096406,0.7823303 c 0.052962,0.4303981 0.1019542,0.8109477 0.108714,0.8455072 0.012028,0.061487 0.015215,0.06352 0.1476869,0.091075 0.1657546,0.034482 0.1697198,0.040816 0.2006078,0.3179374 l 0.022564,0.2042998 0.2264532,0.041432 c 0.1243937,0.022737 0.2302402,0.036831 0.2354787,0.031598 0.00524,-0.00526 -0.00287,-0.1060662 -0.01805,-0.2239909 -0.02853,-0.2215401 -0.023182,-0.2633766 0.038153,-0.2945543 0.018653,-0.00948 0.2106471,-0.00421 0.4721879,0.01313 0.3477536,0.023053 0.4468058,0.035316 0.4693158,0.057842 0.019156,0.019173 0.038317,0.1072831 0.058253,0.2678875 L 7.3396824,9.54803 7.4779337,9.55419 c 0.075925,0.0034 0.233808,0.00737 0.3511666,0.00943 l 0.213326,0.00364 -0.00821,-0.05005 c -0.04934,-0.2900628 -0.056244,-0.482178 -0.018456,-0.5135396 0.035927,-0.029824 1.2440379,-0.1813031 1.295542,-0.162456 0.049327,0.018047 0.053028,0.030213 0.088612,0.3072713 0.016043,0.1249125 0.031335,0.2298918 0.03446,0.2330168 0.00532,0.00535 0.6494376,-0.160197 0.6625406,-0.1702491 0.0033,-0.00259 -0.0083,-0.1166894 -0.02543,-0.2535303 -0.03039,-0.2419121 -0.03009,-0.2497991 0.0032,-0.2810157 0.0346,-0.03236 0.814946,-0.2920926 0.877505,-0.292092 0.06502,0 0.0896,0.058147 0.117741,0.2789635 0.01507,0.1183346 0.03161,0.2190937 0.03651,0.2239926 0.005,0.00494 0.101725,-0.034344 0.215377,-0.086971 0.113646,-0.052626 0.208213,-0.096103 0.21004,-0.096818 0.0019,-7.217e-4 -0.0088,-0.094819 -0.02379,-0.2092232 -0.01493,-0.1144052 -0.02258,-0.2268643 -0.01682,-0.2498372 0.0068,-0.026738 0.04328,-0.058375 0.101329,-0.087792 0.04988,-0.025274 0.09028,-0.056168 0.08985,-0.06851 -4.39e-4,-0.012344 -0.04838,-0.399029 -0.106663,-0.8594554 l -0.106288,-0.8373069 0.06851,-0.11815 c 0.03754,-0.06506 0.11755,-0.2174692 0.178044,-0.3384488 L 11.826082,5.7151376 11.70342,5.5711428 c -0.142349,-0.1669193 -0.580095,-0.5899267 -0.61044,-0.589927 -0.01761,0 -0.359463,0.252359 -0.5288,0.3901394 l -0.05456,0.044306 -0.136609,-0.090253 C 10.297937,5.2757863 10.133183,5.1842256 10.00707,5.1219279 L 9.7777462,5.0087016 9.7658441,4.7904531 C 9.7590644,4.6703415 9.7485522,4.4921312 9.7424577,4.3945696 L 9.7313883,4.2169352 9.5927266,4.1734497 C 9.3528756,4.0978948 8.9147249,4.017417 8.7882444,4.0208387 Z m 1.3624126,2.6608252 c 0.09715,0.00102 0.191876,0.018188 0.264604,0.051691 0.142549,0.065668 0.232916,0.1402575 0.308912,0.2547599 0.261857,0.394538 0.07872,0.9281654 -0.366756,1.0686782 C 9.9561145,8.1833718 9.5578765,7.9597075 9.4524248,7.5480934 9.4169763,7.4097231 9.4278814,7.2666434 9.485243,7.1128272 9.5387807,6.969266 9.7225957,6.7866292 9.8725108,6.7280208 c 0.081621,-0.03191 0.1809882,-0.04736 0.2781452,-0.046357 z m -0.07179,0.301117 C 9.8424607,6.98301 9.6282373,7.1753121 9.6271875,7.4393794 c -7.217e-4,0.1847304 0.122841,0.3606152 0.2990659,0.4258305 0.095248,0.035248 0.2552046,0.024771 0.3478856,-0.022974 0.339756,-0.1750258 0.342065,-0.6434526 0.0041,-0.8118676 -0.06548,-0.032638 -0.133163,-0.047655 -0.199356,-0.047588 z M 6.8695459,7.1013405 c 0.1831502,0 0.2091024,0.00473 0.3056298,0.052101 0.1346275,0.066067 0.268279,0.1993099 0.3343466,0.3339364 0.047371,0.096528 0.051691,0.1224794 0.051691,0.3056298 0,0.1831506 -0.00432,0.2091025 -0.051691,0.3056296 C 7.4434914,8.23319 7.3100125,8.3665953 7.1759961,8.4321633 7.038864,8.4992568 6.777513,8.513842 6.6332468,8.4621111 6.4342675,8.3907627 6.2810906,8.2395179 6.2041345,8.0387421 6.1468495,7.8892868 6.1589371,7.6326026 6.23039,7.4865573 6.2959584,7.3525411 6.4293642,7.2194722 6.5639161,7.1534412 6.6604443,7.1060724 6.686395,7.1013402 6.8695459,7.1013405 Z m 0.059895,0.2703489 c -0.07929,0.00206 -0.1604875,0.025586 -0.2358889,0.075485 -0.1490656,0.098647 -0.2360949,0.2991084 -0.1997874,0.4607008 0.035247,0.1568722 0.1333629,0.2764379 0.278964,0.3396799 0.085627,0.037192 0.2631304,0.034211 0.3519868,-0.00616 C 7.2879595,8.1672447 7.3873026,8.0116534 7.3876807,7.8295183 7.3882345,7.5556452 7.1673107,7.3655034 6.9294409,7.3716894 Z m 5.0779661,0.8381232 c -0.01789,-0.01106 -0.306039,0.1187187 -0.306039,0.1378411 0,0.00657 0.01245,0.1050528 0.02749,0.2190695 0.01504,0.1140164 0.02276,0.2217432 0.01723,0.2391711 -0.0098,0.031023 -0.06975,0.062516 -0.505008,0.2650166 -0.229752,0.1068976 -0.291509,0.1138215 -0.320394,0.036507 -0.0083,-0.022251 -0.02559,-0.1367404 -0.03856,-0.2543507 -0.01409,-0.12766 -0.03167,-0.2138166 -0.04349,-0.2137364 -0.01089,7.43e-5 -0.142772,0.039359 -0.292913,0.087381 -0.230757,0.073807 -0.272492,0.093152 -0.271168,0.1230737 8.91e-4,0.019464 0.0123,0.1355835 0.02585,0.258452 0.02129,0.1930618 0.0214,0.2271734 -0.0013,0.2494264 -0.02821,0.027743 -0.8959481,0.264195 -0.9694007,0.264195 -0.024395,0 -0.05454,-0.011802 -0.06687,-0.026665 C 9.2506115,9.5803383 9.226693,9.4574956 9.2096093,9.3223851 9.1925272,9.1872747 9.1734258,9.0712356 9.166945,9.0647531 9.155732,9.0535431 8.2240839,9.1629151 8.2094418,9.1771594 c -0.00384,0.00373 0.0062,0.1125657 0.022562,0.2416319 0.036377,0.2871035 0.036466,0.2851619 0.00124,0.3203985 -0.024576,0.024575 -0.097079,0.028318 -0.5164941,0.028318 -0.4415389,0 -0.4920565,-0.00297 -0.5283907,-0.0324 C 7.153957,9.7072518 7.14416,9.6676348 7.118204,9.4577843 L 7.0878265,9.2124511 6.7875299,9.19276 C 6.6224689,9.181833 6.4845049,9.175304 6.4806485,9.178391 c -0.00385,0.00308 0.00596,0.1100718 0.022153,0.2375286 0.026257,0.2067529 0.026491,0.2363301 0.00207,0.2736314 -0.017376,0.026528 -0.045143,0.041845 -0.076305,0.041845 -0.093254,0 -0.742012,-0.1308879 -0.7667411,-0.1546622 C 5.647178,9.5626552 5.6257843,9.4601589 5.609313,9.326487 L 5.5814013,9.1004451 5.4156637,9.0688551 c -0.091135,-0.017294 -0.1842406,-0.035964 -0.2067617,-0.04144 -0.039489,-0.0096 -0.040614,-0.00551 -0.040614,0.116509 0,0.4426054 0.28887,0.8789669 0.7794585,1.1769829 0.378604,0.229988 0.9362923,0.404494 1.51338,0.473419 0.2533883,0.03026 0.9440093,0.03584 1.2036482,0.0098 1.170144,-0.117113 2.2108083,-0.529271 2.8388693,-1.1244726 0.359205,-0.3404101 0.53953,-0.6811976 0.557518,-1.0543201 0.0088,-0.1838019 -0.01834,-0.3937004 -0.05375,-0.4155755 z" />
  <g
     fill="#474747"
     id="g9"
     transform="matrix(0.46959567,0,0,0.46959567,4.7471229,3.7470598)"
     style="fill:#999999;fill-opacity:1;stroke:none;stroke-width:0.58349;stroke-dasharray:none;stroke-opacity:0.3" />
  <g
     aria-label="Krita"
     id="text1450"
     style="font-size:1.76385px;opacity:1;fill:#8a916f;stroke-width:0.529156">
    <rect
       style="font-size:1.76385px;fill:#8a916f;fill-opacity:1;stroke:none;stroke-width:0.519976;stroke-dasharray:none;filter:url(#filter3148)"
       id="rect1656-3"
       width="0.5055005"
       height="2.2653189"
       x="15.369148"
       y="4.3016486"
       rx="0"
       ry="0" />
    <rect
       style="opacity:1;fill:#8a916f;fill-opacity:1;stroke:none;stroke-width:0.519976;stroke-dasharray:none"
       id="rect1656"
       width="0.5055005"
       height="2.2653189"
       x="15.369148"
       y="4.3016486"
       rx="0"
       ry="0" />
  </g>
  <path
     d="m 4.060663,13.514046 h 0.435671 v 0.617347 q -0.1023033,0.03351 -0.2063705,0.04939 -0.1040671,0.01588 -0.2363559,0.01588 -0.1957873,0 -0.3298399,-0.07761 -0.1340526,-0.07937 -0.2046066,-0.224009 -0.06879,-0.146399 -0.06879,-0.345714 0,-0.197552 0.077609,-0.342187 0.077609,-0.144636 0.222245,-0.224009 0.1463996,-0.08114 0.35277,-0.08114 0.105831,0 0.1993151,0.0194 0.095248,0.0194 0.176385,0.05468 l -0.059971,0.137581 q -0.067026,-0.02999 -0.1516911,-0.05115 -0.082901,-0.02117 -0.1728573,-0.02117 -0.2257728,0 -0.35277,0.135816 -0.1252334,0.135817 -0.1252334,0.372173 0,0.149927 0.047624,0.266341 0.049388,0.11465 0.1534549,0.179913 0.1040672,0.0635 0.2733968,0.0635 0.082901,0 0.141108,-0.0088 0.058207,-0.0088 0.105831,-0.02117 V 13.655154 H 4.060663 Z m 1.5380784,0.190495 q 0,0.234592 -0.1199418,0.363354 -0.1181779,0.128761 -0.3210207,0.128761 -0.1252333,0 -0.2240089,-0.05644 -0.097012,-0.05821 -0.153455,-0.167565 -0.056443,-0.111123 -0.056443,-0.268106 0,-0.234592 0.118178,-0.361589 0.1181779,-0.126997 0.3210207,-0.126997 0.128761,0 0.2257728,0.05821 0.098776,0.05644 0.1534549,0.165802 0.056443,0.107595 0.056443,0.264577 z m -0.7143592,0 q 0,0.167566 0.065262,0.266342 0.067026,0.09701 0.211662,0.09701 0.1428719,0 0.2098982,-0.09701 0.067026,-0.09878 0.067026,-0.266342 0,-0.167565 -0.067026,-0.262813 -0.067026,-0.09525 -0.211662,-0.09525 -0.1446357,0 -0.2098982,0.09525 -0.065262,0.09525 -0.065262,0.262813 z m 1.2946651,0.492115 q -0.1763849,0 -0.2822159,-0.121706 -0.105831,-0.12347 -0.105831,-0.366881 0,-0.243411 0.105831,-0.366881 0.1075948,-0.125233 0.2839798,-0.125233 0.1093587,0 0.1781488,0.04057 0.070554,0.04057 0.1146503,0.09877 h 0.010583 q -0.00176,-0.02293 -0.00706,-0.06703 -0.00353,-0.04586 -0.00353,-0.07232 v -0.377464 h 0.1552188 v 1.340526 H 6.5035957 l -0.02293,-0.126997 h -0.00706 q -0.042332,0.05997 -0.1128864,0.102303 -0.070554,0.04233 -0.1816766,0.04233 z m 0.024694,-0.128761 q 0.1499273,0 0.2098982,-0.08114 0.061735,-0.0829 0.061735,-0.248702 v -0.02822 q 0,-0.176385 -0.058207,-0.269869 -0.058207,-0.09525 -0.2151897,-0.09525 -0.1252334,0 -0.1887319,0.100539 -0.061735,0.09878 -0.061735,0.266342 0,0.169329 0.061735,0.262813 0.063498,0.09348 0.1904957,0.09348 z m 1.5468961,-0.363354 q 0,0.234592 -0.1199418,0.363354 -0.118178,0.128761 -0.3210207,0.128761 -0.1252334,0 -0.224009,-0.05644 -0.097012,-0.05821 -0.1534549,-0.167565 -0.056443,-0.111123 -0.056443,-0.268106 0,-0.234592 0.1181779,-0.361589 0.118178,-0.126997 0.3210207,-0.126997 0.1287611,0 0.2257728,0.05821 0.098776,0.05644 0.153455,0.165802 0.056443,0.107595 0.056443,0.264577 z m -0.7143593,0 q 0,0.167566 0.065262,0.266342 0.067026,0.09701 0.211662,0.09701 0.1428718,0 0.2098981,-0.09701 0.067026,-0.09878 0.067026,-0.266342 0,-0.167565 -0.067026,-0.262813 -0.067026,-0.09525 -0.211662,-0.09525 -0.1446357,0 -0.2098981,0.09525 -0.065262,0.09525 -0.065262,0.262813 z m 1.2752625,0.365117 q 0.035277,0 0.072318,-0.0053 0.037041,-0.0071 0.059971,-0.01411 v 0.118178 q -0.024694,0.01235 -0.070554,0.0194 -0.04586,0.0088 -0.088192,0.0088 -0.074082,0 -0.1375803,-0.02469 -0.061735,-0.02646 -0.1005395,-0.08996 -0.038805,-0.0635 -0.038805,-0.178149 V 13.353535 H 7.8741057 v -0.07408 l 0.1358165,-0.06173 0.061735,-0.201079 h 0.09172 v 0.216953 h 0.2733968 v 0.119942 H 8.1633771 v 0.546794 q 0,0.08643 0.040569,0.128761 0.042332,0.04057 0.1075948,0.04057 z m 1.356401,0.109359 -0.4145047,-1.10417 h -0.00706 q 0.00529,0.05468 0.00882,0.148163 0.00353,0.09172 0.00353,0.19226 v 0.763747 H 9.1123288 v -1.259389 h 0.234592 l 0.388047,1.031852 h 0.00706 l 0.3951028,-1.031852 h 0.232828 v 1.259389 h -0.156983 v -0.77433 q 0,-0.09172 0.0035,-0.181677 0.0053,-0.08996 0.0088,-0.146399 h -0.0071 l -0.4197966,1.102406 z m 1.8449865,-0.474476 q 0,0.234592 -0.119942,0.363354 -0.118178,0.128761 -0.32102,0.128761 -0.125234,0 -0.224009,-0.05644 -0.09701,-0.05821 -0.153455,-0.167565 -0.05644,-0.111123 -0.05644,-0.268106 0,-0.234592 0.118178,-0.361589 0.118178,-0.126997 0.32102,-0.126997 0.128761,0 0.225773,0.05821 0.09878,0.05644 0.153455,0.165802 0.05644,0.107595 0.05644,0.264577 z m -0.714359,0 q 0,0.167566 0.06526,0.266342 0.06703,0.09701 0.211662,0.09701 0.142872,0 0.209899,-0.09701 0.06703,-0.09878 0.06703,-0.266342 0,-0.167565 -0.06703,-0.262813 -0.06703,-0.09525 -0.211662,-0.09525 -0.144636,0 -0.209899,0.09525 -0.06526,0.09525 -0.06526,0.262813 z m 1.414607,-0.488586 q 0.169329,0 0.255758,0.0829 0.08643,0.08114 0.08643,0.264577 v 0.615584 h -0.153455 v -0.605 q 0,-0.227537 -0.211662,-0.227537 -0.156983,0 -0.216954,0.08819 -0.05997,0.08819 -0.05997,0.253995 v 0.49035 h -0.155219 v -0.945424 h 0.125234 l 0.02293,0.128762 h 0.0088 q 0.04586,-0.07408 0.126997,-0.109359 0.08114,-0.03704 0.171094,-0.03704 z m 1.45694,0.488586 q 0,0.234592 -0.119942,0.363354 -0.118178,0.128761 -0.321021,0.128761 -0.125233,0 -0.224009,-0.05644 -0.09701,-0.05821 -0.153455,-0.167565 -0.05644,-0.111123 -0.05644,-0.268106 0,-0.234592 0.118178,-0.361589 0.118178,-0.126997 0.321021,-0.126997 0.128761,0 0.225773,0.05821 0.09877,0.05644 0.153454,0.165802 0.05644,0.107595 0.05644,0.264577 z m -0.71436,0 q 0,0.167566 0.06526,0.266342 0.06703,0.09701 0.211662,0.09701 0.142872,0 0.209898,-0.09701 0.06703,-0.09878 0.06703,-0.266342 0,-0.167565 -0.06703,-0.262813 -0.06703,-0.09525 -0.211662,-0.09525 -0.144636,0 -0.209898,0.09525 -0.06526,0.09525 -0.06526,0.262813 z"
     id="text2284"
     style="font-size:1.76385px;text-align:center;text-anchor:middle;fill:#999999;stroke-width:0.529156"
     aria-label="Godot Mono" />
  <text
     xml:space="preserve"
     transform="scale(0.26457812)"
     id="text3806"
     style="font-size:6.66667px;white-space:pre;shape-inside:url(#rect3808);display:inline;fill:#999999;stroke-width:2" />
</svg>
