<?xml version="1.0" encoding="UTF-8" standalone="no"?>
<svg
   width="64"
   height="64"
   version="1.1"
   viewBox="0 0 16.933 16.933"
   id="svg7"
   sodipodi:docname="gvim.svg"
   inkscape:version="1.4 (e7c3feb100, 2024-10-09)"
   xmlns:inkscape="http://www.inkscape.org/namespaces/inkscape"
   xmlns:sodipodi="http://sodipodi.sourceforge.net/DTD/sodipodi-0.dtd"
   xmlns:xlink="http://www.w3.org/1999/xlink"
   xmlns="http://www.w3.org/2000/svg"
   xmlns:svg="http://www.w3.org/2000/svg"
   xmlns:rdf="http://www.w3.org/1999/02/22-rdf-syntax-ns#"
   xmlns:cc="http://creativecommons.org/ns#"
   xmlns:dc="http://purl.org/dc/elements/1.1/">
  <sodipodi:namedview
     id="namedview7"
     pagecolor="#9c4444"
     bordercolor="#000000"
     borderopacity="0.25"
     inkscape:showpageshadow="2"
     inkscape:pageopacity="0.0"
     inkscape:pagecheckerboard="0"
     inkscape:deskcolor="#d1d1d1"
     inkscape:zoom="6.15625"
     inkscape:cx="15.51269"
     inkscape:cy="29.807107"
     inkscape:window-width="1183"
     inkscape:window-height="973"
     inkscape:window-x="35"
     inkscape:window-y="32"
     inkscape:window-maximized="0"
     inkscape:current-layer="svg7"
     showgrid="false" />
  <defs
     id="defs2">
    <rect
       x="67.489848"
       y="35.60533"
       width="15.337563"
       height="22.51269"
       id="rect3808" />
    <linearGradient
       inkscape:collect="always"
       id="linearGradient1134">
      <stop
         style="stop-color:#161616;stop-opacity:1;"
         offset="0"
         id="stop1130" />
      <stop
         style="stop-color:#404040;stop-opacity:1;"
         offset="1"
         id="stop1132" />
    </linearGradient>
    <linearGradient
       inkscape:collect="always"
       id="linearGradient883">
      <stop
         style="stop-color:#808080;stop-opacity:1;"
         offset="0"
         id="stop879" />
      <stop
         style="stop-color:#3e3e3e;stop-opacity:1;"
         offset="0.5"
         id="stop1216" />
      <stop
         style="stop-color:#242424;stop-opacity:1;"
         offset="1"
         id="stop881" />
    </linearGradient>
    <linearGradient
       inkscape:collect="always"
       xlink:href="#linearGradient883"
       id="linearGradient885"
       x1="2.1085808"
       y1="2.0236168"
       x2="14.846128"
       y2="15.071845"
       gradientUnits="userSpaceOnUse" />
    <linearGradient
       inkscape:collect="always"
       xlink:href="#linearGradient1134"
       id="linearGradient1136"
       x1="14.971222"
       y1="14.703373"
       x2="2.0756054"
       y2="2.0069976"
       gradientUnits="userSpaceOnUse" />
    <filter
       style="color-interpolation-filters:sRGB;"
       inkscape:label="Blur"
       id="filter1283"
       x="-0.082344266"
       y="-0.082344266"
       width="1.1646885"
       height="1.1646885">
      <feGaussianBlur
         stdDeviation="0.5 0.5"
         result="blur"
         id="feGaussianBlur1281" />
    </filter>
    <filter
       style="color-interpolation-filters:sRGB;"
       inkscape:label="Blur"
       id="filter1694"
       x="-0.94955398"
       y="-0.2118907"
       width="2.899108"
       height="1.4237814">
      <feGaussianBlur
         stdDeviation="0.2 0.2"
         result="blur"
         id="feGaussianBlur1692" />
    </filter>
    <filter
       style="color-interpolation-filters:sRGB;"
       inkscape:label="Blur"
       id="filter3148"
       x="-0.94955398"
       y="-0.2118907"
       width="2.899108"
       height="1.4237814">
      <feGaussianBlur
         stdDeviation="0.2 0.2"
         result="blur"
         id="feGaussianBlur3146" />
    </filter>
    <clipPath
       clipPathUnits="userSpaceOnUse"
       id="clipPath44">
      <path
         id="path46"
         style="display:block;opacity:0.85;fill:#f2f2f2;stroke-width:4.39162"
         d="m 17.570312,8.4453125 a 6.5431988,7.4283052 9.9958727e-8 0 0 -6.535156,7.4394535 6.5431988,7.4283052 9.9958727e-8 0 0 6.552735,7.417968 6.5431988,7.4283052 9.9958727e-8 0 0 6.535156,-7.4375 6.5431988,7.4283052 9.9958727e-8 0 0 -6.552735,-7.4199215 z M 45.646484,41.177734 a 6.5431986,7.0703472 2.4665357e-6 0 0 -6.533203,7.080078 6.5431986,7.0703472 2.4665357e-6 0 0 6.550781,7.060547 6.5431986,7.0703472 2.4665357e-6 0 0 6.535157,-7.080078 6.5431986,7.0703472 2.4665357e-6 0 0 -6.552735,-7.060547 z" />
    </clipPath>
    <inkscape:path-effect
       effect="powerclip"
       id="path-effect48"
       is_visible="true"
       lpeversion="1"
       inverse="true"
       flatten="false"
       hide_clip="false"
       message="" />
  </defs>
  <metadata
     id="metadata2">
    <rdf:RDF>
      <cc:Work
         rdf:about="">
        <dc:format>image/svg+xml</dc:format>
        <dc:type
           rdf:resource="http://purl.org/dc/dcmitype/StillImage" />
      </cc:Work>
    </rdf:RDF>
  </metadata>
  <rect
     style="fill:#000000;stroke:none;stroke-width:0.539739;stroke-dasharray:none;filter:url(#filter1283)"
     id="rect246-1"
     width="14.572964"
     height="14.572964"
     x="1.1932471"
     y="1.2138842"
     rx="2.1589575"
     ry="2.1589575" />
  <rect
     style="opacity:1;fill:#000000;stroke:url(#linearGradient885);stroke-width:0.52915625;stroke-dasharray:none"
     id="rect246"
     width="14.287219"
     height="14.287219"
     x="1.3361193"
     y="1.3567564"
     rx="2.1166251"
     ry="2.1166251" />
  <rect
     style="fill:url(#linearGradient1136);fill-opacity:1;stroke:none;stroke-width:0.478315;stroke-dasharray:none"
     id="rect246-5"
     width="12.914515"
     height="12.914515"
     x="2.0224717"
     y="2.0431087"
     rx="1.5874687"
     ry="1.5874687" />
  <path
     d="M 4.7253343,4.7005926 4.5904678,4.8355723 v 0.2699514 l 0.1348665,0.1349794 h 0.4045975 v 5.2642879 l 0.1348688,0.13498 H 5.669398 L 11.603634,5.1055937 V 4.8356426 L 11.468768,4.7006628 H 9.0411818 L 8.9063133,4.8356426 V 5.1055937 L 9.0411818,5.2405734 H 9.4457796 V 5.5105248 L 6.4786613,8.2100368 V 5.2404288 H 6.883259 l 0.1348688,-0.13498 V 4.8354976 L 6.883259,4.7005182 Z M 8.8778104,7.9400899 8.686567,8.0750697 8.5959362,8.3450207 8.6970867,8.4800006 H 8.9889388 L 9.1801801,8.3450207 9.2702712,8.0750697 9.1696604,7.9400899 M 8.1781118,8.7499643 8.0969215,9.0199154 H 8.33968 L 7.827176,10.369714 h 0.8091953 l 0.099533,-0.269952 H 8.5015006 L 9.0140049,8.7499644 m 0.3234087,0 -0.094406,0.2699511 H 9.4453085 L 8.9328041,10.369714 h 0.6880948 l 0.094408,-0.269952 H 9.5666832 L 9.85018,9.2898878 h 0.573179 l -0.384642,1.0798462 h 0.674343 l 0.107894,-0.269951 h -0.148085 l 0.28296,-0.8098749 h 0.53947 l -0.377631,1.0798469 h 0.706976 l 0.123807,-0.269951 H 11.759906 L 12.142935,9.0199567 11.926874,8.7500056 H 11.603465 L 11.333719,9.0199567 H 11.104443 L 10.874899,8.7500056 H 10.618927 L 10.362685,9.0199567 H 10.09294 L 9.85018,8.7500056"
     fill="url(#c)"
     id="path37"
     style="fill:#999999;fill-opacity:1;stroke-width:0.206886" />
  <g
     fill="#474747"
     id="g9"
     transform="matrix(0.46959567,0,0,0.46959567,4.7471229,3.7470598)"
     style="fill:#999999;fill-opacity:1;stroke:none;stroke-width:0.58349;stroke-dasharray:none;stroke-opacity:0.3" />
  <g
     aria-label="Krita"
     id="text1450"
     style="font-size:1.76385px;opacity:1;fill:#afafe9;stroke-width:0.529156;fill-opacity:1">
    <rect
       style="font-size:1.76385px;fill:#afafe9;fill-opacity:1;stroke:none;stroke-width:0.519976;stroke-dasharray:none;filter:url(#filter3148)"
       id="rect1656-3"
       width="0.5055005"
       height="2.2653189"
       x="15.369148"
       y="4.3016486"
       rx="0"
       ry="0" />
    <rect
       style="opacity:1;fill:#afafe9;fill-opacity:1;stroke:none;stroke-width:0.519976;stroke-dasharray:none"
       id="rect1656"
       width="0.5055005"
       height="2.2653189"
       x="15.369148"
       y="4.3016486"
       rx="0"
       ry="0" />
  </g>
  <g
     aria-label="Text Editor"
     id="text2284"
     style="font-size:1.76385px;text-align:center;text-anchor:middle;opacity:1;fill:#999999;stroke-width:0.529156">
    <path
       d="M 4.6604542,14.179017 H 4.5017077 V 13.058972 H 4.1083692 v -0.139344 h 0.9436597 v 0.139344 H 4.6604542 Z"
       id="path660" />
    <path
       d="m 5.4630061,13.215955 q 0.1217056,0 0.2081343,0.05292 0.088193,0.05292 0.1340526,0.149928 0.047624,0.09525 0.047624,0.224009 v 0.09348 H 5.205484 q 0.00353,0.16051 0.081137,0.245175 0.079373,0.0829 0.2204812,0.0829 0.089956,0 0.1587465,-0.01588 0.070554,-0.01764 0.1446357,-0.04939 v 0.135817 q -0.072318,0.03175 -0.1428718,0.04586 -0.070554,0.01588 -0.1675658,0.01588 -0.1340526,0 -0.2381197,-0.05468 -0.1023033,-0.05468 -0.1605104,-0.162274 -0.056443,-0.109359 -0.056443,-0.266341 0,-0.155219 0.051152,-0.266342 0.052916,-0.111122 0.1463995,-0.171093 0.095248,-0.05997 0.2204813,-0.05997 z m -0.00176,0.126997 q -0.1111225,0 -0.176385,0.07232 -0.063499,0.07055 -0.075846,0.197551 h 0.481531 q -0.00176,-0.119942 -0.056443,-0.194023 -0.054679,-0.07585 -0.1728573,-0.07585 z"
       id="path662" />
    <path
       d="M 6.2814303,13.695722 5.955118,13.233593 h 0.176385 l 0.2434113,0.356298 0.2416475,-0.356298 h 0.1746211 l -0.3263122,0.462129 0.3439507,0.483295 H 6.6324364 L 6.3749143,13.801553 6.1138645,14.179017 H 5.9392434 Z"
       id="path664" />
    <path
       d="m 7.3062259,14.069658 q 0.035277,0 0.072318,-0.0053 0.037041,-0.0071 0.059971,-0.01411 v 0.118178 q -0.024694,0.01235 -0.070554,0.0194 -0.04586,0.0088 -0.088192,0.0088 -0.074082,0 -0.1375803,-0.02469 -0.061735,-0.02646 -0.1005395,-0.08996 -0.038805,-0.0635 -0.038805,-0.178149 V 13.353535 H 6.8687911 v -0.07408 l 0.1358165,-0.06173 0.061735,-0.201079 h 0.09172 v 0.216953 h 0.2733968 v 0.119942 H 7.1580625 v 0.546794 q 0,0.08643 0.040569,0.128761 0.042332,0.04057 0.1075948,0.04057 z"
       id="path666" />
    <path
       d="M 8.8107903,14.179017 H 8.1070142 v -1.259389 h 0.7037761 v 0.139344 H 8.2657607 v 0.393339 H 8.779041 v 0.13758 H 8.2657607 v 0.449782 h 0.5450296 z"
       id="path668" />
    <path
       d="m 9.4016795,14.196656 q -0.176385,0 -0.282216,-0.121706 -0.105831,-0.12347 -0.105831,-0.366881 0,-0.243411 0.105831,-0.366881 0.1075949,-0.125233 0.2839799,-0.125233 0.1093587,0 0.1781488,0.04057 0.070554,0.04057 0.1146503,0.09877 h 0.010583 q -0.00176,-0.02293 -0.00706,-0.06703 -0.00353,-0.04586 -0.00353,-0.07232 v -0.377464 h 0.1552187 v 1.340526 H 9.7262279 l -0.02293,-0.126997 h -0.00706 q -0.042332,0.05997 -0.1128864,0.102303 -0.070554,0.04233 -0.1816766,0.04233 z m 0.024694,-0.128761 q 0.1499273,0 0.2098982,-0.08114 0.061735,-0.0829 0.061735,-0.248702 v -0.02822 q 0,-0.176385 -0.058207,-0.269869 -0.058207,-0.09525 -0.2151897,-0.09525 -0.1252334,0 -0.188732,0.100539 -0.061735,0.09878 -0.061735,0.266342 0,0.169329 0.061735,0.262813 0.063499,0.09348 0.1904958,0.09348 z"
       id="path670" />
    <path
       d="m 10.230689,12.87906 q 0.03528,0 0.06173,0.02469 0.02822,0.02293 0.02822,0.07408 0,0.04939 -0.02822,0.07408 -0.02646,0.02469 -0.06173,0.02469 -0.0388,0 -0.06526,-0.02469 -0.02646,-0.02469 -0.02646,-0.07408 0,-0.05115 0.02646,-0.07408 0.02646,-0.02469 0.06526,-0.02469 z m 0.07584,0.354533 v 0.945424 h -0.155219 v -0.945424 z"
       id="path672" />
    <path
       d="m 10.922117,14.069658 q 0.03528,0 0.07232,-0.0053 0.03704,-0.0071 0.05997,-0.01411 v 0.118178 q -0.02469,0.01235 -0.07055,0.0194 -0.04586,0.0088 -0.08819,0.0088 -0.07408,0 -0.13758,-0.02469 -0.06174,-0.02646 -0.10054,-0.08996 -0.0388,-0.0635 -0.0388,-0.178149 v -0.550321 h -0.134053 v -0.07408 l 0.135817,-0.06173 0.06173,-0.201079 h 0.09172 v 0.216953 h 0.273396 v 0.119942 h -0.273396 v 0.546794 q 0,0.08643 0.04057,0.128761 0.04233,0.04057 0.107595,0.04057 z"
       id="path674" />
    <path
       d="m 12.065092,13.704541 q 0,0.234592 -0.119942,0.363354 -0.118178,0.128761 -0.321021,0.128761 -0.125233,0 -0.224009,-0.05644 -0.09701,-0.05821 -0.153455,-0.167565 -0.05644,-0.111123 -0.05644,-0.268106 0,-0.234592 0.118178,-0.361589 0.118178,-0.126997 0.321021,-0.126997 0.128761,0 0.225772,0.05821 0.09878,0.05644 0.153455,0.165802 0.05644,0.107595 0.05644,0.264577 z m -0.71436,0 q 0,0.167566 0.06526,0.266342 0.06703,0.09701 0.211662,0.09701 0.142872,0 0.209898,-0.09701 0.06703,-0.09878 0.06703,-0.266342 0,-0.167565 -0.06703,-0.262813 -0.06703,-0.09525 -0.211662,-0.09525 -0.144636,0 -0.209898,0.09525 -0.06526,0.09525 -0.06526,0.262813 z"
       id="path676" />
    <path
       d="m 12.751228,13.215955 q 0.02646,0 0.05644,0.0035 0.03175,0.0018 0.05468,0.0071 l -0.0194,0.142872 q -0.02293,-0.0053 -0.05115,-0.0088 -0.02646,-0.0035 -0.05115,-0.0035 -0.07232,0 -0.135816,0.04057 -0.0635,0.0388 -0.102304,0.111122 -0.03704,0.07055 -0.03704,0.165802 v 0.504461 h -0.155218 v -0.945424 h 0.126997 l 0.01764,0.172858 h 0.0071 q 0.04586,-0.07761 0.118178,-0.134053 0.07232,-0.05644 0.171093,-0.05644 z"
       id="path678" />
  </g>
  <text
     xml:space="preserve"
     transform="scale(0.26457812)"
     id="text3806"
     style="font-size:6.66667px;white-space:pre;shape-inside:url(#rect3808);display:inline;fill:#999999;stroke-width:2" />
</svg>
