<?xml version="1.0" encoding="UTF-8" standalone="no"?>
<svg
   width="64"
   height="64"
   version="1.1"
   viewBox="0 0 16.933 16.933"
   id="svg7"
   sodipodi:docname="inkscape.svg"
   inkscape:version="1.4 (e7c3feb100, 2024-10-09)"
   xmlns:inkscape="http://www.inkscape.org/namespaces/inkscape"
   xmlns:sodipodi="http://sodipodi.sourceforge.net/DTD/sodipodi-0.dtd"
   xmlns:xlink="http://www.w3.org/1999/xlink"
   xmlns="http://www.w3.org/2000/svg"
   xmlns:svg="http://www.w3.org/2000/svg"
   xmlns:rdf="http://www.w3.org/1999/02/22-rdf-syntax-ns#"
   xmlns:cc="http://creativecommons.org/ns#"
   xmlns:dc="http://purl.org/dc/elements/1.1/">
  <sodipodi:namedview
     id="namedview7"
     pagecolor="#9c4444"
     bordercolor="#000000"
     borderopacity="0.25"
     inkscape:showpageshadow="2"
     inkscape:pageopacity="0.0"
     inkscape:pagecheckerboard="0"
     inkscape:deskcolor="#d1d1d1"
     inkscape:zoom="6.15625"
     inkscape:cx="15.675127"
     inkscape:cy="27.370558"
     inkscape:window-width="1183"
     inkscape:window-height="973"
     inkscape:window-x="35"
     inkscape:window-y="32"
     inkscape:window-maximized="0"
     inkscape:current-layer="svg7"
     showgrid="false" />
  <defs
     id="defs2">
    <linearGradient
       inkscape:collect="always"
       id="linearGradient1134">
      <stop
         style="stop-color:#161616;stop-opacity:1;"
         offset="0"
         id="stop1130" />
      <stop
         style="stop-color:#404040;stop-opacity:1;"
         offset="1"
         id="stop1132" />
    </linearGradient>
    <linearGradient
       inkscape:collect="always"
       id="linearGradient883">
      <stop
         style="stop-color:#808080;stop-opacity:1;"
         offset="0"
         id="stop879" />
      <stop
         style="stop-color:#3e3e3e;stop-opacity:1;"
         offset="0.5"
         id="stop1216" />
      <stop
         style="stop-color:#242424;stop-opacity:1;"
         offset="1"
         id="stop881" />
    </linearGradient>
    <linearGradient
       inkscape:collect="always"
       xlink:href="#linearGradient883"
       id="linearGradient885"
       x1="2.1085808"
       y1="2.0236168"
       x2="14.846128"
       y2="15.071845"
       gradientUnits="userSpaceOnUse" />
    <linearGradient
       inkscape:collect="always"
       xlink:href="#linearGradient1134"
       id="linearGradient1136"
       x1="14.971222"
       y1="14.703373"
       x2="2.0756054"
       y2="2.0069976"
       gradientUnits="userSpaceOnUse" />
    <filter
       style="color-interpolation-filters:sRGB;"
       inkscape:label="Blur"
       id="filter1283"
       x="-0.082344266"
       y="-0.082344266"
       width="1.1646885"
       height="1.1646885">
      <feGaussianBlur
         stdDeviation="0.5 0.5"
         result="blur"
         id="feGaussianBlur1281" />
    </filter>
    <filter
       style="color-interpolation-filters:sRGB;"
       inkscape:label="Blur"
       id="filter1694"
       x="-0.94955398"
       y="-0.2118907"
       width="2.899108"
       height="1.4237814">
      <feGaussianBlur
         stdDeviation="0.2 0.2"
         result="blur"
         id="feGaussianBlur1692" />
    </filter>
  </defs>
  <metadata
     id="metadata2">
    <rdf:RDF>
      <cc:Work
         rdf:about="">
        <dc:format>image/svg+xml</dc:format>
        <dc:type
           rdf:resource="http://purl.org/dc/dcmitype/StillImage" />
      </cc:Work>
    </rdf:RDF>
  </metadata>
  <rect
     style="fill:#000000;stroke:none;stroke-width:0.539739;stroke-dasharray:none;filter:url(#filter1283)"
     id="rect246-1"
     width="14.572964"
     height="14.572964"
     x="1.1932471"
     y="1.2138842"
     rx="2.1589575"
     ry="2.1589575" />
  <rect
     style="opacity:1;fill:#000000;stroke:url(#linearGradient885);stroke-width:0.52915625;stroke-dasharray:none"
     id="rect246"
     width="14.287219"
     height="14.287219"
     x="1.3361193"
     y="1.3567564"
     rx="2.1166251"
     ry="2.1166251" />
  <rect
     style="fill:url(#linearGradient1136);fill-opacity:1;stroke:none;stroke-width:0.478315;stroke-dasharray:none"
     id="rect246-5"
     width="12.914515"
     height="12.914515"
     x="2.0224717"
     y="2.0431087"
     rx="1.5874687"
     ry="1.5874687" />
  <path
     d="M 8.4729523,3.5814378 C 8.2484102,3.5809604 8.0251657,3.6699203 7.8640309,3.849664 L 5.1835974,6.8389911 C 4.277788,8.0614083 5.8000785,7.9194963 6.452663,8.2716238 6.6867523,8.5323841 5.55559,8.7238444 5.7896798,8.9848248 6.0237698,9.2455843 7.2040889,9.4868825 7.438543,9.7476435 7.6726325,10.008403 6.9597622,10.285376 7.1938312,10.546114 c 0.2340893,0.260759 0.7750219,0.01355 0.8763964,0.615516 0.07224,0.430175 0.9766161,0.184858 1.4184023,-0.167448 C 9.7227191,10.733223 9.0411275,10.758804 9.2752171,10.498045 9.8573193,9.8493029 10.399182,10.261231 10.598366,9.6111877 10.696748,9.2899877 9.7407205,9.1168834 9.9752139,8.8561231 10.648741,8.4274743 12.976336,8.1481805 11.871729,6.9444309 L 9.0931834,3.8497306 C 8.9232555,3.6719436 8.6974329,3.58199 8.4728704,3.5815039 Z m 0.022766,0.2837343 c 0.1603232,9.36e-4 0.3203019,0.066799 0.4353393,0.1938027 l 1.0613495,1.173684 c 0.1005789,0.112001 0.098958,0.328292 0.042678,0.3906985 L 9.508691,5.1644207 9.4048342,5.8450607 8.9652176,5.5923416 8.2595435,6.0760856 8.0262241,5.054342 7.6477853,5.7675435 H 7.0701629 c -0.2358932,0 -0.2641313,-0.3261265 -0.049795,-0.5596926 C 7.3947524,4.7674714 7.8240517,4.3190712 8.0575332,4.0589748 8.1748732,3.9282722 8.3354079,3.8642417 8.4957311,3.8651721 Z m -1.273323,4.5674937 c 0.071643,0.048496 1.1550417,0.2885931 1.4198213,0.3364414 0.091797,0.021092 0.026932,0.1242127 -0.099589,0.193803 C 8.2572514,9.045557 6.8730871,8.4326658 7.222316,8.4326658 Z m 4.2141357,0.8217345 c -0.218012,0.00821 -0.432986,0.1290112 -0.492259,0.35661 0,0.1483196 1.001589,0.2464466 1.001589,-0.034109 -0.07144,-0.2253049 -0.291314,-0.330677 -0.50933,-0.3224822 z M 6.8382596,9.8962685 C 6.5239784,9.8930285 6.1559986,10.144281 6.4271026,10.40016 6.6645778,10.623939 7.0313409,10.343451 7.1413111,10.031156 7.0765966,9.9374498 6.9612496,9.8975114 6.8382596,9.8962667 Z m 3.9791964,0.02016 c -0.306112,0.2992425 0.03401,0.6026595 0.33575,0.4093215 0.06726,-0.07438 -0.0014,-0.3349419 -0.33575,-0.4093215 z"
     fill="url(#b)"
     stroke-width="0.837773"
     id="path42"
     style="fill:#999999;fill-opacity:1;stroke:none;stroke-width:0.235393;stroke-dasharray:none;stroke-opacity:0.3" />
  <g
     aria-label="Krita"
     id="text1450"
     style="font-size:1.76385px;opacity:1;fill:#999999;stroke-width:0.529156">
    <rect
       style="font-size:1.76385px;fill:#00ff00;fill-opacity:1;stroke:none;stroke-width:0.519976;stroke-dasharray:none;filter:url(#filter1694)"
       id="rect1656-7"
       width="0.5055005"
       height="2.2653189"
       x="15.369148"
       y="4.3016486"
       rx="0"
       ry="0" />
    <rect
       style="opacity:1;fill:#00ff00;fill-opacity:1;stroke:none;stroke-width:0.519976;stroke-dasharray:none"
       id="rect1656"
       width="0.5055005"
       height="2.2653189"
       x="15.369148"
       y="4.3016486"
       rx="0"
       ry="0" />
  </g>
  <g
     aria-label="Inkscape"
     id="text2284"
     style="font-size:1.76385px;opacity:1;fill:#999999;stroke-width:0.529156">
    <path
       d="M 5.4188239,14.179017 H 4.9637506 v -0.09172 l 0.1481634,-0.03351 v -1.007159 l -0.1481634,-0.03528 v -0.09172 h 0.4550733 v 0.09172 l -0.1481634,0.03528 v 1.007159 l 0.1481634,0.03351 z"
       id="path2635" />
    <path
       d="m 6.0961435,13.215955 q 0.1693296,0 0.2557583,0.0829 0.086429,0.08114 0.086429,0.264577 v 0.615584 H 6.2848755 v -0.605 q 0,-0.227537 -0.211662,-0.227537 -0.1569827,0 -0.2169536,0.08819 -0.059971,0.08819 -0.059971,0.253995 v 0.49035 H 5.6410702 v -0.945424 h 0.1252334 l 0.02293,0.128762 h 0.00882 q 0.04586,-0.07408 0.1269972,-0.109359 0.081137,-0.03704 0.1710934,-0.03704 z"
       id="path2637" />
    <path
       d="m 6.8845845,13.53874 q 0,0.02822 -0.00353,0.07408 -0.00176,0.04586 -0.00353,0.07937 h 0.00706 q 0.010583,-0.01411 0.031749,-0.04057 0.021166,-0.02646 0.042332,-0.05292 0.02293,-0.02822 0.038805,-0.04586 l 0.3016183,-0.319257 h 0.1816766 l -0.3827555,0.403922 0.4092132,0.541502 H 7.3202554 l -0.3280761,-0.440962 -0.1075948,0.09348 v 0.347478 h -0.153455 v -1.340526 h 0.153455 z"
       id="path2639" />
    <path
       d="m 8.2886098,13.917967 q 0,0.137581 -0.1023033,0.208135 -0.1023033,0.07055 -0.2751606,0.07055 -0.098776,0 -0.1710934,-0.01588 -0.070554,-0.01587 -0.1252334,-0.0441 v -0.141108 q 0.056443,0.02822 0.1358165,0.05291 0.081137,0.02293 0.164038,0.02293 0.118178,0 0.1710935,-0.03704 0.052915,-0.0388 0.052915,-0.102303 0,-0.03528 -0.019402,-0.0635 -0.019402,-0.02822 -0.070554,-0.05644 -0.049388,-0.02822 -0.1428718,-0.0635 -0.09172,-0.03528 -0.1569827,-0.07055 -0.065262,-0.03528 -0.1005394,-0.08466 -0.035277,-0.04939 -0.035277,-0.126997 0,-0.119942 0.097012,-0.185205 0.098776,-0.06526 0.2575221,-0.06526 0.086429,0 0.1605104,0.01764 0.075845,0.01587 0.141108,0.04586 l -0.052916,0.123469 q -0.059971,-0.02469 -0.1252334,-0.04233 -0.065262,-0.01764 -0.1340526,-0.01764 -0.095248,0 -0.1463995,0.03175 -0.049388,0.02999 -0.049388,0.0829 0,0.0388 0.02293,0.06703 0.02293,0.02646 0.075846,0.05292 0.054679,0.02469 0.1446357,0.05997 0.089956,0.03351 0.1534549,0.06879 0.063499,0.03528 0.097012,0.08643 0.033513,0.04939 0.033513,0.125233 z"
       id="path2641" />
    <path
       d="m 8.8971381,14.196656 q -0.1252334,0 -0.224009,-0.05115 -0.097012,-0.05115 -0.1534549,-0.158747 -0.054679,-0.107594 -0.054679,-0.27516 0,-0.174621 0.058207,-0.28398 0.058207,-0.109359 0.1569826,-0.16051 0.1005395,-0.05115 0.2275367,-0.05115 0.072318,0 0.1393441,0.01588 0.067026,0.01411 0.1093587,0.03528 l -0.047624,0.128761 q -0.042332,-0.01587 -0.098776,-0.02999 -0.056443,-0.01411 -0.105831,-0.01411 -0.2786883,0 -0.2786883,0.358062 0,0.171093 0.067026,0.262814 0.06879,0.08996 0.2028427,0.08996 0.077609,0 0.1358165,-0.01587 0.059971,-0.01587 0.1093587,-0.0388 v 0.13758 q -0.047624,0.02469 -0.105831,0.03704 -0.056443,0.01411 -0.1375803,0.01411 z"
       id="path2643" />
    <path
       d="m 9.7226189,13.217719 q 0.1728573,0 0.2557583,0.07584 0.082901,0.07585 0.082901,0.241648 v 0.643805 H 9.9483917 l -0.029985,-0.134053 h -0.00706 q -0.061735,0.07761 -0.1305249,0.114651 -0.067026,0.03704 -0.1869681,0.03704 -0.1287611,0 -0.2134259,-0.06703 -0.084665,-0.06879 -0.084665,-0.213426 0,-0.141108 0.1111226,-0.216953 0.1111225,-0.07761 0.3421869,-0.08466 l 0.1605103,-0.0053 v -0.05644 q 0,-0.118178 -0.051152,-0.164038 -0.051152,-0.04586 -0.1446357,-0.04586 -0.074082,0 -0.141108,0.02293 -0.067026,0.02117 -0.1252334,0.04939 l -0.047624,-0.116414 q 0.061735,-0.03351 0.1463995,-0.05644 0.084665,-0.02469 0.176385,-0.02469 z m 0.04586,0.504461 q -0.176385,0.0071 -0.2451751,0.05644 -0.067026,0.04939 -0.067026,0.139344 0,0.07937 0.047624,0.116414 0.049388,0.03704 0.1252334,0.03704 0.1199418,0 0.199315,-0.06526 0.079373,-0.06703 0.079373,-0.204607 v -0.08466 z"
       id="path2645" />
    <path
       d="m 10.803861,13.215955 q 0.174621,0 0.280452,0.121706 0.107595,0.121705 0.107595,0.36688 0,0.241648 -0.107595,0.366881 -0.105831,0.125234 -0.282216,0.125234 -0.109359,0 -0.181677,-0.04057 -0.07055,-0.04233 -0.111122,-0.09701 h -0.01058 q 0.0035,0.02999 0.0071,0.07585 0.0035,0.04586 0.0035,0.07937 v 0.388047 h -0.155219 v -1.368748 h 0.126997 l 0.02117,0.128762 h 0.0071 q 0.04233,-0.06174 0.111122,-0.104068 0.06879,-0.04233 0.183441,-0.04233 z m -0.02822,0.130525 q -0.144636,0 -0.204607,0.08114 -0.05821,0.08114 -0.06173,0.246939 v 0.02998 q 0,0.174622 0.05644,0.269869 0.05821,0.09348 0.213426,0.09348 0.08643,0 0.141108,-0.04762 0.05644,-0.04762 0.0829,-0.128761 0.02822,-0.0829 0.02822,-0.188732 0,-0.162275 -0.0635,-0.259286 -0.06173,-0.09701 -0.19226,-0.09701 z"
       id="path2647" />
    <path
       d="m 11.803963,13.215955 q 0.121706,0 0.208134,0.05292 0.08819,0.05292 0.134053,0.149928 0.04762,0.09525 0.04762,0.224009 v 0.09348 h -0.647333 q 0.0035,0.16051 0.08114,0.245175 0.07937,0.0829 0.220481,0.0829 0.08996,0 0.158747,-0.01588 0.07055,-0.01764 0.144636,-0.04939 v 0.135817 q -0.07232,0.03175 -0.142872,0.04586 -0.07055,0.01588 -0.167566,0.01588 -0.134053,0 -0.23812,-0.05468 -0.102303,-0.05468 -0.16051,-0.162274 -0.05644,-0.109359 -0.05644,-0.266341 0,-0.155219 0.05115,-0.266342 0.05292,-0.111122 0.1464,-0.171093 0.09525,-0.05997 0.220481,-0.05997 z m -0.0018,0.126997 q -0.111122,0 -0.176385,0.07232 -0.0635,0.07055 -0.07584,0.197551 H 12.0315 q -0.0018,-0.119942 -0.05644,-0.194023 -0.05468,-0.07585 -0.172858,-0.07585 z"
       id="path2649" />
  </g>
</svg>
