<?xml version="1.0" encoding="UTF-8" standalone="no"?>
<svg
   width="64"
   height="64"
   version="1.1"
   viewBox="0 0 16.933 16.933"
   id="svg7"
   sodipodi:docname="Games Templates.svg"
   inkscape:version="1.4 (e7c3feb100, 2024-10-09)"
   xmlns:inkscape="http://www.inkscape.org/namespaces/inkscape"
   xmlns:sodipodi="http://sodipodi.sourceforge.net/DTD/sodipodi-0.dtd"
   xmlns:xlink="http://www.w3.org/1999/xlink"
   xmlns="http://www.w3.org/2000/svg"
   xmlns:svg="http://www.w3.org/2000/svg"
   xmlns:rdf="http://www.w3.org/1999/02/22-rdf-syntax-ns#"
   xmlns:cc="http://creativecommons.org/ns#"
   xmlns:dc="http://purl.org/dc/elements/1.1/">
  <sodipodi:namedview
     id="namedview7"
     pagecolor="#9c4444"
     bordercolor="#000000"
     borderopacity="0.25"
     inkscape:showpageshadow="2"
     inkscape:pageopacity="0.0"
     inkscape:pagecheckerboard="0"
     inkscape:deskcolor="#d1d1d1"
     inkscape:zoom="6.15625"
     inkscape:cx="15.675127"
     inkscape:cy="27.370558"
     inkscape:window-width="1183"
     inkscape:window-height="973"
     inkscape:window-x="35"
     inkscape:window-y="32"
     inkscape:window-maximized="0"
     inkscape:current-layer="svg7"
     showgrid="false" />
  <defs
     id="defs2">
    <linearGradient
       inkscape:collect="always"
       id="linearGradient1134">
      <stop
         style="stop-color:#161616;stop-opacity:1;"
         offset="0"
         id="stop1130" />
      <stop
         style="stop-color:#404040;stop-opacity:1;"
         offset="1"
         id="stop1132" />
    </linearGradient>
    <linearGradient
       inkscape:collect="always"
       id="linearGradient883">
      <stop
         style="stop-color:#808080;stop-opacity:1;"
         offset="0"
         id="stop879" />
      <stop
         style="stop-color:#3e3e3e;stop-opacity:1;"
         offset="0.5"
         id="stop1216" />
      <stop
         style="stop-color:#242424;stop-opacity:1;"
         offset="1"
         id="stop881" />
    </linearGradient>
    <linearGradient
       inkscape:collect="always"
       xlink:href="#linearGradient883"
       id="linearGradient885"
       x1="2.1085808"
       y1="2.0236168"
       x2="14.846128"
       y2="15.071845"
       gradientUnits="userSpaceOnUse" />
    <linearGradient
       inkscape:collect="always"
       xlink:href="#linearGradient1134"
       id="linearGradient1136"
       x1="14.971222"
       y1="14.703373"
       x2="2.0756054"
       y2="2.0069976"
       gradientUnits="userSpaceOnUse" />
    <filter
       style="color-interpolation-filters:sRGB;"
       inkscape:label="Blur"
       id="filter1283"
       x="-0.082344266"
       y="-0.082344266"
       width="1.1646885"
       height="1.1646885">
      <feGaussianBlur
         stdDeviation="0.5 0.5"
         result="blur"
         id="feGaussianBlur1281" />
    </filter>
    <filter
       style="color-interpolation-filters:sRGB;"
       inkscape:label="Blur"
       id="filter1694"
       x="-0.94955398"
       y="-0.2118907"
       width="2.899108"
       height="1.4237814">
      <feGaussianBlur
         stdDeviation="0.2 0.2"
         result="blur"
         id="feGaussianBlur1692" />
    </filter>
  </defs>
  <metadata
     id="metadata2">
    <rdf:RDF>
      <cc:Work
         rdf:about="">
        <dc:format>image/svg+xml</dc:format>
        <dc:type
           rdf:resource="http://purl.org/dc/dcmitype/StillImage" />
      </cc:Work>
    </rdf:RDF>
  </metadata>
  <rect
     style="fill:#000000;stroke:none;stroke-width:0.539739;stroke-dasharray:none;filter:url(#filter1283)"
     id="rect246-1"
     width="14.572964"
     height="14.572964"
     x="1.1932471"
     y="1.2138842"
     rx="2.1589575"
     ry="2.1589575" />
  <rect
     style="opacity:1;fill:#000000;stroke:url(#linearGradient885);stroke-width:0.52915625;stroke-dasharray:none"
     id="rect246"
     width="14.287219"
     height="14.287219"
     x="1.3361193"
     y="1.3567564"
     rx="2.1166251"
     ry="2.1166251" />
  <rect
     style="fill:url(#linearGradient1136);fill-opacity:1;stroke:none;stroke-width:0.478315;stroke-dasharray:none"
     id="rect246-5"
     width="12.914515"
     height="12.914515"
     x="2.0224717"
     y="2.0431087"
     rx="1.5874687"
     ry="1.5874687" />
  <path
     id="path4"
     style="fill:#999999;fill-opacity:1;stroke-width:0.0216145"
     d="m 8.5195026,3.7060382 c -0.1548954,0 -0.1665981,0.0017 -0.2634358,0.03526 C 8.1998601,3.760778 8.0891955,3.8140364 8.0075486,3.8609806 7.9265799,3.9075355 7.3374745,4.2463086 6.698506,4.6136549 6.0595365,4.981001 5.5100306,5.2994854 5.4772752,5.3215754 c -0.080491,0.054283 -0.1939974,0.1762928 -0.247162,0.2661483 -0.02401,0.04058 -0.059715,0.1201745 -0.079336,0.1766411 l -0.0356,0.1027298 v 1.6209618 1.6209619 l 0.0356,0.10273 c 0.06358,0.1829748 0.1748903,0.3343349 0.3207342,0.4370259 0.068155,0.047992 2.5561663,1.4812898 2.6696198,1.5378968 0.072683,0.03626 0.1237454,0.05431 0.2108844,0.07458 0.079165,0.01841 0.2990713,0.01172 0.3837961,-0.01153 0.035663,-0.0098 0.099077,-0.03379 0.1410416,-0.05357 0.1032254,-0.04866 2.6082497,-1.4893382 2.6906407,-1.5473892 0.1459,-0.1027971 0.25716,-0.2540728 0.320734,-0.4370267 l 0.0356,-0.1027291 V 7.4880564 5.8670946 l -0.0356,-0.1027298 C 11.868607,5.7078982 11.832901,5.6283041 11.808892,5.5877237 11.755749,5.4979059 11.642259,5.3759335 11.56173,5.3215754 11.511752,5.2878395 11.082918,5.0402851 9.0314567,3.8609807 8.9498595,3.8140739 8.8391113,3.760766 8.7829387,3.7412985 8.6861009,3.7077378 8.6743981,3.7060382 8.5195026,3.7060382 Z M 7.1443468,5.798947 c 0.099745,-0.00312 0.2042188,8.829e-4 0.2858125,0.012884 0.3487876,0.051297 0.6922495,0.2058008 0.9845792,0.4427894 0.045806,0.037134 0.088845,0.070871 0.09561,0.074929 0.00689,0.00412 0.054226,-0.026869 0.1078153,-0.070182 0.2996235,-0.2421602 0.6402028,-0.3959898 0.9906816,-0.447536 0.1631899,-0.024 0.4185026,-0.015725 0.5424676,0.01729 0.113963,0.030353 0.265242,0.1047598 0.345485,0.1698603 0.133781,0.1085356 0.241449,0.2834277 0.287508,0.4678785 0.02951,0.1181727 0.04082,0.404376 0.02102,0.5272111 -0.0709,0.4397888 -0.416188,0.853091 -0.9266037,1.1090078 l -0.096962,0.048822 -0.0068,0.1112061 C 9.7542972,8.5936463 9.6541843,8.8594328 9.459312,9.1015574 9.2978643,9.3021539 9.0808256,9.4470297 8.8327616,9.5199362 8.750158,9.5442119 8.7098252,9.5491124 8.562884,9.5528222 8.3670034,9.5577632 8.2842516,9.5464232 8.1299267,9.4924772 7.9489608,9.4292583 7.8061573,9.3372901 7.66003,9.1903869 7.4217906,8.9508858 7.2866175,8.6369031 7.2643676,8.2705648 L 7.2572477,8.1512219 7.1535005,8.0990093 C 6.7866295,7.9144763 6.4904789,7.6327319 6.3411544,7.3259927 6.2579794,7.155137 6.2323983,7.0463811 6.22588,6.8357373 6.2198384,6.6404948 6.2301629,6.5466359 6.273685,6.4071877 6.3658645,6.1118465 6.5792576,5.9112683 6.8876908,5.8291203 6.9496738,5.8126125 7.0446005,5.802078 7.1443459,5.7989451 Z m 0.4078679,1.0459458 c -0.036111,-2.863e-4 -0.074666,0.0073 -0.1223943,0.022037 -0.088637,0.027377 -0.1718945,0.097466 -0.1718945,0.1444321 0,0.054224 0.048502,0.088151 0.2081721,0.1454493 0.2154308,0.077308 0.3096128,0.1311922 0.439738,0.2522475 0.037049,0.034466 0.071598,0.062723 0.076963,0.062723 0.025087,0 0.037016,-0.034289 0.030514,-0.089168 C 7.9855285,7.1481211 7.8770959,6.9790903 7.6942736,6.885578 7.6413638,6.858515 7.5986421,6.8452739 7.5522147,6.8448928 Z m 1.9315246,0 c -0.112562,0 -0.2884355,0.1175833 -0.3637926,0.2430934 -0.0629,0.104765 -0.1167442,0.3321831 -0.087134,0.3678611 0.00736,0.00887 0.017863,0.015934 0.023054,0.015934 0.00519,0 0.043034,-0.030817 0.084083,-0.068486 C 9.2703503,7.2836277 9.3631911,7.2304229 9.567822,7.158507 9.7548315,7.0927845 9.7783677,7.075959 9.7783677,7.0072941 c 0,-0.072014 -0.1636801,-0.1624013 -0.2946284,-0.1624013 z M 8.2282654,7.916267 c -0.015448,5.919e-4 -0.024571,0.013787 -0.044415,0.058654 -0.057446,0.1298952 -0.083284,0.2404825 -0.084083,0.3614194 -5.537e-4,0.083884 0.00423,0.124406 0.01763,0.1549422 0.023662,0.053912 0.053665,0.050592 0.1006954,-0.011186 0.065026,-0.085421 0.08436,-0.1543821 0.084082,-0.3003913 -3.053e-4,-0.1561647 -0.026099,-0.2568387 -0.06713,-0.2627582 -0.00252,-3.628e-4 -0.00457,-7.582e-4 -0.00678,-6.692e-4 z m 0.5801014,3.438e-4 c -0.00172,-1.053e-4 -0.00367,8.47e-5 -0.00543,3.436e-4 -0.050151,0.00725 -0.089638,0.2475183 -0.062384,0.3787104 0.016887,0.081283 0.069073,0.1839617 0.1115452,0.2196994 l 0.033904,0.028816 0.018649,-0.023055 C 8.960894,8.4516755 8.957121,8.2705817 8.8958413,8.082407 8.8564583,7.9614757 8.8341833,7.9181925 8.8083683,7.9166154 Z" />
  <g
     aria-label="Krita"
     id="text1450"
     style="font-size:1.76385px;opacity:1;fill:#ff00ff;stroke-width:0.529156">
    <rect
       style="font-size:1.76385px;fill:#ff00ff;fill-opacity:1;stroke:none;stroke-width:0.519976;stroke-dasharray:none;filter:url(#filter1694)"
       id="rect1656-7"
       width="0.5055005"
       height="2.2653189"
       x="15.369148"
       y="4.3016486"
       rx="0"
       ry="0" />
    <rect
       style="opacity:1;fill:#ff00ff;fill-opacity:1;stroke:none;stroke-width:0.519976;stroke-dasharray:none"
       id="rect1656"
       width="0.5055005"
       height="2.2653189"
       x="15.369148"
       y="4.3016486"
       rx="0"
       ry="0" />
  </g>
  <path
     d="m 3.9910712,13.496002 h 0.4356709 v 0.617348 q -0.1023033,0.03351 -0.2063705,0.04939 -0.1040671,0.01587 -0.2363558,0.01587 -0.1957874,0 -0.32984,-0.07761 -0.1340526,-0.07937 -0.2046066,-0.224009 -0.06879,-0.1464 -0.06879,-0.345715 0,-0.197551 0.077609,-0.342187 0.077609,-0.144635 0.2222451,-0.224009 0.1463995,-0.08114 0.35277,-0.08114 0.105831,0 0.199315,0.0194 0.095248,0.0194 0.176385,0.05468 l -0.059971,0.13758 q -0.067026,-0.02998 -0.1516911,-0.05115 -0.082901,-0.02117 -0.1728573,-0.02117 -0.2257728,0 -0.35277,0.135817 -0.1252333,0.135816 -0.1252333,0.372172 0,0.149927 0.047624,0.266341 0.049388,0.114651 0.153455,0.179913 0.1040671,0.0635 0.2733967,0.0635 0.082901,0 0.141108,-0.0088 0.058207,-0.0088 0.105831,-0.02117 V 13.63711 H 3.9910712 Z m 1.7462126,0.02293 q 0,0.319257 -0.1746211,0.481531 -0.1728573,0.160511 -0.4832949,0.160511 H 4.7283616 v -1.259389 h 0.388047 q 0.1904958,0 0.32984,0.07055 0.1393441,0.07055 0.2151897,0.208134 0.075845,0.135816 0.075845,0.338659 z m -0.1675657,0.0053 q 0,-0.252231 -0.1252334,-0.368645 Q 5.3210152,13.037401 5.0934786,13.037401 H 4.8871081 v 0.987756 h 0.1710935 q 0.5115165,0 0.5115165,-0.500933 z m 0.4462532,0.63675 v -1.259389 h 0.1587465 v 1.118281 H 6.725039 v 0.141108 z m 1.2611531,-0.961299 q 0.1728573,0 0.2557583,0.07585 0.082901,0.07585 0.082901,0.241647 v 0.643806 H 7.5028972 l -0.029985,-0.134053 h -0.00706 q -0.061735,0.07761 -0.1305249,0.11465 -0.067026,0.03704 -0.1869681,0.03704 -0.1287611,0 -0.2134259,-0.06703 -0.084665,-0.06879 -0.084665,-0.213426 0,-0.141108 0.1111226,-0.216954 0.1111225,-0.07761 0.3421869,-0.08466 l 0.1605103,-0.0053 v -0.05644 q 0,-0.118178 -0.051152,-0.164038 -0.051152,-0.04586 -0.1446357,-0.04586 -0.074082,0 -0.141108,0.02293 -0.067026,0.02117 -0.1252334,0.04939 l -0.047624,-0.116415 q 0.061735,-0.03351 0.1463995,-0.05644 0.084665,-0.02469 0.176385,-0.02469 z m 0.04586,0.504461 q -0.176385,0.0071 -0.2451751,0.05644 -0.067026,0.04939 -0.067026,0.139344 0,0.07937 0.047624,0.116414 0.049388,0.03704 0.1252334,0.03704 0.1199418,0 0.199315,-0.06526 0.079373,-0.06703 0.079373,-0.204606 v -0.08466 z M 8.6987889,13.21555 v 0.945424 H 8.5717917 l -0.02293,-0.125234 h -0.00706 q -0.04586,0.07408 -0.1269972,0.109359 -0.081137,0.03351 -0.1728573,0.03351 -0.1710935,0 -0.2575221,-0.08114 -0.086429,-0.0829 -0.086429,-0.262814 V 13.21555 h 0.1569827 v 0.608528 q 0,0.225773 0.2098981,0.225773 0.1569827,0 0.2169536,-0.08819 0.061735,-0.08819 0.061735,-0.253995 V 13.21555 Z m 0.7549278,-0.01764 q 0.1693296,0 0.2557583,0.0829 0.086429,0.08114 0.086429,0.264578 v 0.615584 H 9.6424487 v -0.605001 q 0,-0.227537 -0.211662,-0.227537 -0.1569827,0 -0.2169536,0.08819 -0.059971,0.08819 -0.059971,0.253994 v 0.490351 H 8.9986434 V 13.21555 h 0.1252334 l 0.02293,0.128761 h 0.00882 q 0.04586,-0.07408 0.1269972,-0.109359 0.081137,-0.03704 0.1710934,-0.03704 z m 1.0142133,0.980701 q -0.125233,0 -0.224009,-0.05115 -0.09701,-0.05115 -0.153454,-0.158746 -0.05468,-0.107595 -0.05468,-0.275161 0,-0.174621 0.05821,-0.28398 0.05821,-0.109358 0.156983,-0.16051 0.100539,-0.05115 0.227537,-0.05115 0.07232,0 0.139344,0.01588 0.06703,0.01411 0.109358,0.03528 l -0.04762,0.128761 q -0.04233,-0.01587 -0.09877,-0.02998 -0.05644,-0.01411 -0.105831,-0.01411 -0.278688,0 -0.278688,0.358061 0,0.171094 0.06703,0.262814 0.06879,0.08996 0.202843,0.08996 0.07761,0 0.135816,-0.01587 0.05997,-0.01587 0.109359,-0.0388 v 0.13758 q -0.04762,0.02469 -0.105831,0.03704 -0.05644,0.01411 -0.137581,0.01411 z m 0.622639,-0.964826 q 0,0.07055 -0.0088,0.132289 h 0.01058 q 0.04586,-0.07232 0.123469,-0.109359 0.07937,-0.03704 0.171094,-0.03704 0.172857,0 0.259286,0.0829 0.08643,0.08114 0.08643,0.262814 v 0.615584 h -0.153455 v -0.605001 q 0,-0.227537 -0.211662,-0.227537 -0.158746,0 -0.218717,0.08996 -0.05821,0.08819 -0.05821,0.253994 v 0.488587 H 10.93535 v -1.340526 h 0.155219 z m 1.299957,-0.01588 q 0.121706,0 0.208134,0.05292 0.08819,0.05292 0.134053,0.149927 0.04762,0.09525 0.04762,0.224009 v 0.09348 h -0.647333 q 0.0035,0.160511 0.08114,0.245175 0.07937,0.0829 0.220481,0.0829 0.08996,0 0.158747,-0.01587 0.07055,-0.01764 0.144636,-0.04939 v 0.135816 q -0.07232,0.03175 -0.142872,0.04586 -0.07055,0.01587 -0.167566,0.01587 -0.134053,0 -0.23812,-0.05468 -0.102303,-0.05468 -0.16051,-0.162274 -0.05644,-0.109359 -0.05644,-0.266342 0,-0.155219 0.05115,-0.266341 0.05292,-0.111123 0.1464,-0.171094 0.09525,-0.05997 0.220481,-0.05997 z m -0.0018,0.126998 q -0.111122,0 -0.176385,0.07232 -0.0635,0.07055 -0.07584,0.197551 h 0.481531 q -0.0018,-0.119942 -0.05644,-0.194024 -0.05468,-0.07584 -0.172858,-0.07584 z m 1.07242,-0.126998 q 0.02646,0 0.05644,0.0035 0.03175,0.0018 0.05468,0.0071 l -0.0194,0.142871 q -0.02293,-0.0053 -0.05115,-0.0088 -0.02646,-0.0035 -0.05115,-0.0035 -0.07232,0 -0.135817,0.04057 -0.0635,0.0388 -0.102303,0.111123 -0.03704,0.07055 -0.03704,0.165801 v 0.504462 H 13.020219 V 13.21555 h 0.126998 l 0.01764,0.172857 h 0.0071 q 0.04586,-0.07761 0.118178,-0.134052 0.07232,-0.05644 0.171094,-0.05644 z"
     id="text1"
     style="font-size:1.76385px;text-align:center;text-anchor:middle;fill:#999999;stroke-width:0.264578"
     aria-label="GDLauncher" />
</svg>
