<?xml version="1.0" encoding="UTF-8" standalone="no"?>
<svg
   width="64"
   height="64"
   version="1.1"
   viewBox="0 0 16.933 16.933"
   id="svg7"
   sodipodi:docname="Multimedia Template.svg"
   inkscape:version="1.4 (e7c3feb100, 2024-10-09)"
   xmlns:inkscape="http://www.inkscape.org/namespaces/inkscape"
   xmlns:sodipodi="http://sodipodi.sourceforge.net/DTD/sodipodi-0.dtd"
   xmlns:xlink="http://www.w3.org/1999/xlink"
   xmlns="http://www.w3.org/2000/svg"
   xmlns:svg="http://www.w3.org/2000/svg"
   xmlns:rdf="http://www.w3.org/1999/02/22-rdf-syntax-ns#"
   xmlns:cc="http://creativecommons.org/ns#"
   xmlns:dc="http://purl.org/dc/elements/1.1/">
  <sodipodi:namedview
     id="namedview7"
     pagecolor="#9c4444"
     bordercolor="#000000"
     borderopacity="0.25"
     inkscape:showpageshadow="2"
     inkscape:pageopacity="0.0"
     inkscape:pagecheckerboard="0"
     inkscape:deskcolor="#d1d1d1"
     inkscape:zoom="6.15625"
     inkscape:cx="15.675127"
     inkscape:cy="29.807107"
     inkscape:window-width="1183"
     inkscape:window-height="973"
     inkscape:window-x="35"
     inkscape:window-y="32"
     inkscape:window-maximized="0"
     inkscape:current-layer="svg7"
     showgrid="false" />
  <defs
     id="defs2">
    <rect
       x="67.489848"
       y="35.60533"
       width="15.337563"
       height="22.51269"
       id="rect3808" />
    <linearGradient
       inkscape:collect="always"
       id="linearGradient1134">
      <stop
         style="stop-color:#161616;stop-opacity:1;"
         offset="0"
         id="stop1130" />
      <stop
         style="stop-color:#404040;stop-opacity:1;"
         offset="1"
         id="stop1132" />
    </linearGradient>
    <linearGradient
       inkscape:collect="always"
       id="linearGradient883">
      <stop
         style="stop-color:#808080;stop-opacity:1;"
         offset="0"
         id="stop879" />
      <stop
         style="stop-color:#3e3e3e;stop-opacity:1;"
         offset="0.5"
         id="stop1216" />
      <stop
         style="stop-color:#242424;stop-opacity:1;"
         offset="1"
         id="stop881" />
    </linearGradient>
    <linearGradient
       inkscape:collect="always"
       xlink:href="#linearGradient883"
       id="linearGradient885"
       x1="2.1085808"
       y1="2.0236168"
       x2="14.846128"
       y2="15.071845"
       gradientUnits="userSpaceOnUse" />
    <linearGradient
       inkscape:collect="always"
       xlink:href="#linearGradient1134"
       id="linearGradient1136"
       x1="14.971222"
       y1="14.703373"
       x2="2.0756054"
       y2="2.0069976"
       gradientUnits="userSpaceOnUse" />
    <filter
       style="color-interpolation-filters:sRGB;"
       inkscape:label="Blur"
       id="filter1283"
       x="-0.082344266"
       y="-0.082344266"
       width="1.1646885"
       height="1.1646885">
      <feGaussianBlur
         stdDeviation="0.5 0.5"
         result="blur"
         id="feGaussianBlur1281" />
    </filter>
    <filter
       style="color-interpolation-filters:sRGB;"
       inkscape:label="Blur"
       id="filter1694"
       x="-0.94955398"
       y="-0.2118907"
       width="2.899108"
       height="1.4237814">
      <feGaussianBlur
         stdDeviation="0.2 0.2"
         result="blur"
         id="feGaussianBlur1692" />
    </filter>
    <filter
       style="color-interpolation-filters:sRGB;"
       inkscape:label="Blur"
       id="filter3148"
       x="-0.94955398"
       y="-0.2118907"
       width="2.899108"
       height="1.4237814">
      <feGaussianBlur
         stdDeviation="0.2 0.2"
         result="blur"
         id="feGaussianBlur3146" />
    </filter>
    <clipPath
       clipPathUnits="userSpaceOnUse"
       id="clipPath44">
      <path
         id="path46"
         style="display:block;opacity:0.85;fill:#f2f2f2;stroke-width:4.39162"
         d="m 17.570312,8.4453125 a 6.5431988,7.4283052 9.9958727e-8 0 0 -6.535156,7.4394535 6.5431988,7.4283052 9.9958727e-8 0 0 6.552735,7.417968 6.5431988,7.4283052 9.9958727e-8 0 0 6.535156,-7.4375 6.5431988,7.4283052 9.9958727e-8 0 0 -6.552735,-7.4199215 z M 45.646484,41.177734 a 6.5431986,7.0703472 2.4665357e-6 0 0 -6.533203,7.080078 6.5431986,7.0703472 2.4665357e-6 0 0 6.550781,7.060547 6.5431986,7.0703472 2.4665357e-6 0 0 6.535157,-7.080078 6.5431986,7.0703472 2.4665357e-6 0 0 -6.552735,-7.060547 z" />
    </clipPath>
    <inkscape:path-effect
       effect="powerclip"
       id="path-effect48"
       is_visible="true"
       lpeversion="1"
       inverse="true"
       flatten="false"
       hide_clip="false"
       message="" />
  </defs>
  <metadata
     id="metadata2">
    <rdf:RDF>
      <cc:Work
         rdf:about="">
        <dc:format>image/svg+xml</dc:format>
        <dc:type
           rdf:resource="http://purl.org/dc/dcmitype/StillImage" />
      </cc:Work>
    </rdf:RDF>
  </metadata>
  <rect
     style="fill:#000000;stroke:none;stroke-width:0.539739;stroke-dasharray:none;filter:url(#filter1283)"
     id="rect246-1"
     width="14.572964"
     height="14.572964"
     x="1.1932471"
     y="1.2138842"
     rx="2.1589575"
     ry="2.1589575" />
  <rect
     style="opacity:1;fill:#000000;stroke:url(#linearGradient885);stroke-width:0.52915625;stroke-dasharray:none"
     id="rect246"
     width="14.287219"
     height="14.287219"
     x="1.3361193"
     y="1.3567564"
     rx="2.1166251"
     ry="2.1166251" />
  <rect
     style="fill:url(#linearGradient1136);fill-opacity:1;stroke:none;stroke-width:0.478315;stroke-dasharray:none"
     id="rect246-5"
     width="12.914515"
     height="12.914515"
     x="2.0224717"
     y="2.0431087"
     rx="1.5874687"
     ry="1.5874687" />
  <path
     id="path5"
     style="fill:#999999;fill-opacity:1;stroke:none;stroke-width:0.118846;stroke-dasharray:none;stroke-opacity:1"
     d="M 8.4736415,3.6456273 C 8.1975177,3.645169 7.9219457,3.6634332 7.7472328,3.7007443 7.3932042,3.7763502 7.0928791,3.8814998 6.7818183,4.0386146 6.0319934,4.4173463 5.4724338,4.9769056 5.0937023,5.7267306 4.8064331,6.2954759 4.7029302,6.7443449 4.7034338,7.4200368 4.7038348,7.9465678 4.7469332,8.2141533 4.9016575,8.65288 5.3928761,10.04575 6.660348,11.040148 8.11847,11.176404 9.6339443,11.31802 11.104979,10.514937 11.814035,9.1590679 12.10532,8.6020675 12.236201,8.066592 12.238907,7.4200368 12.243171,6.3935081 11.873278,5.5001334 11.135823,4.7566199 10.590854,4.2071738 9.9671814,3.8672102 9.2030163,3.7032161 9.0263724,3.6653072 8.7497657,3.6460966 8.4736415,3.6456273 Z m 0.083293,0.4676304 c 0.134606,0.00393 0.2708556,0.016198 0.4083118,0.037074 C 10.177374,4.33441 11.210448,5.1961102 11.592331,6.341669 11.87033,7.1756019 11.807005,8.1288252 11.423025,8.8906499 10.96068,9.8079549 10.089437,10.466107 9.08512,10.656622 8.8264332,10.70569 8.170461,10.714825 7.9229649,10.67293 6.5203879,10.435554 5.4188789,9.3157519 5.2054197,7.9101587 4.8922993,5.8483152 6.537852,4.0542471 8.5569345,4.1132577 Z M 10.200315,5.2067018 C 10.074016,5.2085535 9.6433038,5.2713517 8.8463618,5.4041844 7.5458226,5.6209549 7.5227441,5.6260289 7.4350674,5.7131366 L 7.3460884,5.8018676 7.3374384,7.0159268 7.3287884,8.230233 7.2081733,8.203046 C 6.9041295,8.1347326 6.5726989,8.3034557 6.418488,8.604931 6.2337378,8.9661087 6.3784593,9.4047458 6.7420231,9.5859171 7.1268283,9.7776753 7.5753565,9.6153768 7.7593412,9.2178926 7.818664,9.0897311 7.8217793,9.0282332 7.8307711,7.8179674 L 7.8401637,6.5522512 8.7816035,6.3962921 C 9.2993499,6.3105228 9.7596686,6.2333532 9.8046066,6.2247617 l 0.081811,-0.015572 V 6.97119 7.7329431 l -0.08181,-0.022244 C 9.6366816,7.6646448 9.4234797,7.6915692 9.2620871,7.7794101 9.0060969,7.9187375 8.8756354,8.1413415 8.8767617,8.4366138 8.877596,8.6559135 8.9486861,8.8119333 9.1192277,8.9685063 9.2855801,9.121232 9.4237118,9.1678937 9.6632311,9.1526414 9.8053437,9.1435937 9.8850564,9.1194152 9.9946746,9.0517995 10.157066,8.9516307 10.3124,8.7238596 10.342432,8.5421518 c 0.03121,-0.1888409 0.02217,-3.1460868 -0.0099,-3.2304061 -0.01605,-0.042211 -0.05958,-0.088247 -0.09664,-0.1023251 -0.0058,-0.00221 -0.01754,-0.00298 -0.0356,-0.00272 z" />
  <g
     aria-label="Krita"
     id="text1450"
     style="font-size:1.76385px;opacity:1;fill:#ff7f2a;stroke-width:0.529156">
    <rect
       style="font-size:1.76385px;fill:#ff7f2a;fill-opacity:1;stroke:none;stroke-width:0.519976;stroke-dasharray:none;filter:url(#filter3148)"
       id="rect1656-3"
       width="0.5055005"
       height="2.2653189"
       x="15.369148"
       y="4.3016486"
       rx="0"
       ry="0" />
    <rect
       style="opacity:1;fill:#ff7f2a;fill-opacity:1;stroke:none;stroke-width:0.519976;stroke-dasharray:none"
       id="rect1656"
       width="0.5055005"
       height="2.2653189"
       x="15.369148"
       y="4.3016486"
       rx="0"
       ry="0" />
  </g>
  <path
     style="font-size:1.76385px;text-align:center;text-anchor:middle;fill:#999999;stroke-width:0.529156"
     d="m 5.3896338,14.179017 -0.4145047,-1.10417 h -0.00706 q 0.00529,0.05468 0.00882,0.148163 0.00353,0.09172 0.00353,0.19226 v 0.763747 H 4.8340211 v -1.259389 h 0.234592 l 0.388047,1.031852 h 0.00706 l 0.3951024,-1.031852 h 0.2328282 v 1.259389 H 5.9346635 v -0.77433 q 0,-0.09172 0.00353,-0.181677 0.00529,-0.08996 0.00882,-0.146399 H 5.939955 L 5.5201587,14.179017 Z M 6.777783,13.215955 q 0.1217057,0 0.2081343,0.05292 0.088192,0.05292 0.1340526,0.149928 0.047624,0.09525 0.047624,0.224009 v 0.09348 h -0.647333 q 0.00353,0.16051 0.081137,0.245175 0.079373,0.0829 0.2204813,0.0829 0.089956,0 0.1587465,-0.01588 0.070554,-0.01764 0.1446357,-0.04939 v 0.135817 q -0.072318,0.03175 -0.1428719,0.04586 -0.070554,0.01588 -0.1675657,0.01588 -0.1340526,0 -0.2381198,-0.05468 -0.1023033,-0.05468 -0.1605103,-0.162274 -0.056443,-0.109359 -0.056443,-0.266341 0,-0.155219 0.051152,-0.266342 0.052916,-0.111122 0.1463996,-0.171093 0.095248,-0.05997 0.2204812,-0.05997 z m -0.00176,0.126997 q -0.1111226,0 -0.176385,0.07232 -0.063499,0.07055 -0.075846,0.197551 h 0.4815311 q -0.00176,-0.119942 -0.056443,-0.194023 -0.054679,-0.07585 -0.1728573,-0.07585 z m 1.0724193,-0.126997 q 0.026458,0 0.056443,0.0035 0.031749,0.0018 0.054679,0.0071 l -0.019402,0.142872 q -0.02293,-0.0053 -0.051152,-0.0088 -0.026458,-0.0035 -0.051152,-0.0035 -0.072318,0 -0.1358164,0.04057 -0.063499,0.0388 -0.1023033,0.111122 -0.037041,0.07055 -0.037041,0.165802 v 0.504461 H 7.4074761 v -0.945424 h 0.1269971 l 0.017639,0.172858 h 0.00706 q 0.04586,-0.07761 0.118178,-0.134053 0.072318,-0.05644 0.1710934,-0.05644 z M 8.2153194,12.87906 q 0.035277,0 0.061735,0.02469 0.028222,0.02293 0.028222,0.07408 0,0.04939 -0.028222,0.07408 -0.026458,0.02469 -0.061735,0.02469 -0.038805,0 -0.065263,-0.02469 -0.026458,-0.02469 -0.026458,-0.07408 0,-0.05115 0.026458,-0.07408 0.026458,-0.02469 0.065263,-0.02469 z m 0.075845,0.354533 v 0.945424 H 8.1359461 V 13.233593 Z M 8.92615,14.196656 q -0.176385,0 -0.282216,-0.121706 -0.105831,-0.12347 -0.105831,-0.366881 0,-0.243411 0.105831,-0.366881 0.1075949,-0.125233 0.2839799,-0.125233 0.1093587,0 0.1781488,0.04057 0.070554,0.04057 0.1146503,0.09877 h 0.010583 q -0.00176,-0.02293 -0.00706,-0.06703 -0.00353,-0.04586 -0.00353,-0.07232 v -0.377464 h 0.1552188 v 1.340526 H 9.2506984 l -0.02293,-0.126997 h -0.00706 q -0.042332,0.05997 -0.1128864,0.102303 -0.070554,0.04233 -0.1816766,0.04233 z m 0.024694,-0.128761 q 0.1499273,0 0.2098982,-0.08114 0.061735,-0.0829 0.061735,-0.248702 v -0.02822 q 0,-0.176385 -0.058207,-0.269869 -0.058207,-0.09525 -0.2151897,-0.09525 -0.1252334,0 -0.188732,0.100539 -0.061735,0.09878 -0.061735,0.266342 0,0.169329 0.061735,0.262813 0.063499,0.09348 0.1904958,0.09348 z m 0.804315,-1.188835 q 0.035277,0 0.061735,0.02469 0.028222,0.02293 0.028222,0.07408 0,0.04939 -0.028222,0.07408 -0.026458,0.02469 -0.061735,0.02469 -0.038805,0 -0.065262,-0.02469 -0.026458,-0.02469 -0.026458,-0.07408 0,-0.05115 0.026458,-0.07408 0.026458,-0.02469 0.065262,-0.02469 z m 0.075845,0.354533 v 0.945424 H 9.6757856 v -0.945424 z m 1.0900586,0 v 0.945424 h -0.126997 l -0.02293,-0.125233 h -0.0071 q -0.04586,0.07408 -0.126997,0.109358 -0.08114,0.03351 -0.172857,0.03351 -0.171094,0 -0.257522,-0.08114 -0.08643,-0.0829 -0.08643,-0.262813 v -0.619112 h 0.156983 v 0.608529 q 0,0.225773 0.209898,0.225773 0.156982,0 0.216953,-0.08819 0.06173,-0.08819 0.06173,-0.253994 v -0.492115 z m 0.915438,0.684374 q 0,0.137581 -0.102303,0.208135 -0.102304,0.07055 -0.275161,0.07055 -0.09878,0 -0.171093,-0.01588 -0.07055,-0.01587 -0.125234,-0.0441 v -0.141108 q 0.05644,0.02822 0.135817,0.05291 0.08114,0.02293 0.164038,0.02293 0.118178,0 0.171093,-0.03704 0.05292,-0.0388 0.05292,-0.102303 0,-0.03528 -0.0194,-0.0635 -0.0194,-0.02822 -0.07055,-0.05644 -0.04939,-0.02822 -0.142871,-0.0635 -0.09172,-0.03528 -0.156983,-0.07055 -0.06526,-0.03528 -0.10054,-0.08466 -0.03528,-0.04939 -0.03528,-0.126997 0,-0.119942 0.09701,-0.185205 0.09878,-0.06526 0.257522,-0.06526 0.08643,0 0.160511,0.01764 0.07585,0.01587 0.141108,0.04586 l -0.05292,0.123469 q -0.05997,-0.02469 -0.125233,-0.04233 -0.06526,-0.01764 -0.134053,-0.01764 -0.09525,0 -0.146399,0.03175 -0.04939,0.02999 -0.04939,0.0829 0,0.0388 0.02293,0.06703 0.02293,0.02646 0.07585,0.05292 0.05468,0.02469 0.144636,0.05997 0.08996,0.03351 0.153455,0.06879 0.0635,0.03528 0.09701,0.08643 0.03351,0.04939 0.03351,0.125233 z"
     id="text2284"
     aria-label="Meridius" />
  <text
     xml:space="preserve"
     transform="scale(0.26457812)"
     id="text3806"
     style="font-size:6.66667px;white-space:pre;shape-inside:url(#rect3808);display:inline;fill:#999999;stroke-width:2" />
</svg>
