<?xml version="1.0" encoding="UTF-8" standalone="no"?>
<svg
   width="64"
   height="64"
   version="1.1"
   viewBox="0 0 16.933 16.933"
   id="svg7"
   sodipodi:docname="Science Template.svg"
   inkscape:version="1.4 (e7c3feb100, 2024-10-09)"
   xmlns:inkscape="http://www.inkscape.org/namespaces/inkscape"
   xmlns:sodipodi="http://sodipodi.sourceforge.net/DTD/sodipodi-0.dtd"
   xmlns:xlink="http://www.w3.org/1999/xlink"
   xmlns="http://www.w3.org/2000/svg"
   xmlns:svg="http://www.w3.org/2000/svg"
   xmlns:rdf="http://www.w3.org/1999/02/22-rdf-syntax-ns#"
   xmlns:cc="http://creativecommons.org/ns#"
   xmlns:dc="http://purl.org/dc/elements/1.1/">
  <sodipodi:namedview
     id="namedview7"
     pagecolor="#9c4444"
     bordercolor="#000000"
     borderopacity="0.25"
     inkscape:showpageshadow="2"
     inkscape:pageopacity="0.0"
     inkscape:pagecheckerboard="0"
     inkscape:deskcolor="#d1d1d1"
     inkscape:zoom="6.15625"
     inkscape:cx="15.675127"
     inkscape:cy="29.807107"
     inkscape:window-width="1183"
     inkscape:window-height="973"
     inkscape:window-x="35"
     inkscape:window-y="32"
     inkscape:window-maximized="0"
     inkscape:current-layer="text2284"
     showgrid="false" />
  <defs
     id="defs2">
    <rect
       x="67.489848"
       y="35.60533"
       width="15.337563"
       height="22.51269"
       id="rect3808" />
    <linearGradient
       inkscape:collect="always"
       id="linearGradient1134">
      <stop
         style="stop-color:#161616;stop-opacity:1;"
         offset="0"
         id="stop1130" />
      <stop
         style="stop-color:#404040;stop-opacity:1;"
         offset="1"
         id="stop1132" />
    </linearGradient>
    <linearGradient
       inkscape:collect="always"
       id="linearGradient883">
      <stop
         style="stop-color:#808080;stop-opacity:1;"
         offset="0"
         id="stop879" />
      <stop
         style="stop-color:#3e3e3e;stop-opacity:1;"
         offset="0.5"
         id="stop1216" />
      <stop
         style="stop-color:#242424;stop-opacity:1;"
         offset="1"
         id="stop881" />
    </linearGradient>
    <linearGradient
       inkscape:collect="always"
       xlink:href="#linearGradient883"
       id="linearGradient885"
       x1="2.1085808"
       y1="2.0236168"
       x2="14.846128"
       y2="15.071845"
       gradientUnits="userSpaceOnUse" />
    <linearGradient
       inkscape:collect="always"
       xlink:href="#linearGradient1134"
       id="linearGradient1136"
       x1="14.971222"
       y1="14.703373"
       x2="2.0756054"
       y2="2.0069976"
       gradientUnits="userSpaceOnUse" />
    <filter
       style="color-interpolation-filters:sRGB;"
       inkscape:label="Blur"
       id="filter1283"
       x="-0.082344266"
       y="-0.082344266"
       width="1.1646885"
       height="1.1646885">
      <feGaussianBlur
         stdDeviation="0.5 0.5"
         result="blur"
         id="feGaussianBlur1281" />
    </filter>
    <filter
       style="color-interpolation-filters:sRGB;"
       inkscape:label="Blur"
       id="filter1694"
       x="-0.94955398"
       y="-0.2118907"
       width="2.899108"
       height="1.4237814">
      <feGaussianBlur
         stdDeviation="0.2 0.2"
         result="blur"
         id="feGaussianBlur1692" />
    </filter>
    <filter
       style="color-interpolation-filters:sRGB;"
       inkscape:label="Blur"
       id="filter3148"
       x="-0.94955398"
       y="-0.2118907"
       width="2.899108"
       height="1.4237814">
      <feGaussianBlur
         stdDeviation="0.2 0.2"
         result="blur"
         id="feGaussianBlur3146" />
    </filter>
    <clipPath
       clipPathUnits="userSpaceOnUse"
       id="clipPath44">
      <path
         id="path46"
         style="display:block;opacity:0.85;fill:#f2f2f2;stroke-width:4.39162"
         d="m 17.570312,8.4453125 a 6.5431988,7.4283052 9.9958727e-8 0 0 -6.535156,7.4394535 6.5431988,7.4283052 9.9958727e-8 0 0 6.552735,7.417968 6.5431988,7.4283052 9.9958727e-8 0 0 6.535156,-7.4375 6.5431988,7.4283052 9.9958727e-8 0 0 -6.552735,-7.4199215 z M 45.646484,41.177734 a 6.5431986,7.0703472 2.4665357e-6 0 0 -6.533203,7.080078 6.5431986,7.0703472 2.4665357e-6 0 0 6.550781,7.060547 6.5431986,7.0703472 2.4665357e-6 0 0 6.535157,-7.080078 6.5431986,7.0703472 2.4665357e-6 0 0 -6.552735,-7.060547 z" />
    </clipPath>
    <inkscape:path-effect
       effect="powerclip"
       id="path-effect48"
       is_visible="true"
       lpeversion="1"
       inverse="true"
       flatten="false"
       hide_clip="false"
       message="" />
  </defs>
  <metadata
     id="metadata2">
    <rdf:RDF>
      <cc:Work
         rdf:about="">
        <dc:format>image/svg+xml</dc:format>
        <dc:type
           rdf:resource="http://purl.org/dc/dcmitype/StillImage" />
      </cc:Work>
    </rdf:RDF>
  </metadata>
  <rect
     style="fill:#000000;stroke:none;stroke-width:0.539739;stroke-dasharray:none;filter:url(#filter1283)"
     id="rect246-1"
     width="14.572964"
     height="14.572964"
     x="1.1932471"
     y="1.2138842"
     rx="2.1589575"
     ry="2.1589575" />
  <rect
     style="opacity:1;fill:#000000;stroke:url(#linearGradient885);stroke-width:0.52915625;stroke-dasharray:none"
     id="rect246"
     width="14.287219"
     height="14.287219"
     x="1.3361193"
     y="1.3567564"
     rx="2.1166251"
     ry="2.1166251" />
  <rect
     style="fill:url(#linearGradient1136);fill-opacity:1;stroke:none;stroke-width:0.478315;stroke-dasharray:none"
     id="rect246-5"
     width="12.914515"
     height="12.914515"
     x="2.0224717"
     y="2.0431087"
     rx="1.5874687"
     ry="1.5874687" />
  <g
     id="g1952"
     transform="matrix(0.19287746,0,0,0.19287746,2.330272,1.1490625)"
     style="fill:#999999;fill-opacity:1">
    <path
       style="fill:#999999;fill-opacity:1"
       d="m 47.997154,14.869545 c 0.02585,0.592985 -0.124756,1.180216 -0.432884,1.687536 -0.307923,0.50722 -0.759531,0.911726 -1.297532,1.162358 -0.538001,0.250632 -1.13828,0.335994 -1.724822,0.245387 -0.586439,-0.09061 -1.132987,-0.353147 -1.570244,-0.754423 -0.437261,-0.401276 -0.745695,-0.923226 -0.886328,-1.499763 -0.140528,-0.576639 -0.106946,-1.181933 0.09657,-1.739501 0.203519,-0.557467 0.567818,-1.042084 1.046798,-1.392507 0.479082,-0.350321 1.051277,-0.550809 1.644226,-0.575932 0.794334,-0.0337 1.569536,0.249321 2.155363,0.786912 0.58583,0.537489 0.934356,1.285656 0.968851,2.079933 z"
       id="path1449" />
    <path
       style="fill:#999999;fill-opacity:1"
       d="M 31.996387,44 C 25.550961,44 19.921918,41.582358 17,38 c 1.088237,3.214498 3.116427,5.999877 5.803766,7.970613 C 25.491187,47.941346 28.704828,49 32,49 35.295173,49 38.508814,47.941346 41.196234,45.970613 43.883574,43.999877 45.911764,41.214498 47,38 c -2.929142,3.582358 -8.558103,6 -15.003613,6 z"
       id="path1451" />
    <path
       style="fill:#999999;fill-opacity:1"
       d="M 32.003531,22 C 38.449041,22 44.078084,24.417641 47,28 45.911764,24.785504 43.883575,22.000122 41.196234,20.029388 38.508814,18.058654 35.295173,17 32,17 28.704829,17 25.491188,18.058654 22.803766,20.029388 20.116427,22.000122 18.088238,24.785504 17,28 c 2.929144,-3.574955 8.558105,-6 15.003531,-6 z"
       id="path1453" />
    <path
       style="fill:#999999;fill-opacity:1"
       d="m 24.996634,50.346863 c 0.03033,0.691987 -0.145341,1.377439 -0.50488,1.96949 -0.359445,0.592146 -0.886461,1.064275 -1.514452,1.356611 -0.627897,0.292337 -1.328513,0.391806 -2.01302,0.285799 -0.684509,-0.106006 -1.322109,-0.412727 -1.832263,-0.881307 -0.510062,-0.468672 -0.8696,-1.078096 -1.033122,-1.751218 -0.16352,-0.673123 -0.123582,-1.379588 0.114635,-2.02992 0.238217,-0.650426 0.664068,-1.215579 1.223674,-1.623824 0.559513,-0.408244 1.227632,-0.641272 1.91977,-0.669572 0.925739,-0.03783 1.828683,0.292897 2.510931,0.919694 0.682248,0.626889 1.08813,1.498575 1.128727,2.424247 z"
       id="path1455" />
    <path
       style="fill:#999999;fill-opacity:1"
       d="m 19.086342,20.998132 c -0.3954,0.0171 -0.786947,-0.08349 -1.125115,-0.289108 -0.338167,-0.205531 -0.607819,-0.506825 -0.774657,-0.865596 -0.166928,-0.35886 -0.223611,-0.759191 -0.162892,-1.150246 0.06072,-0.391054 0.236084,-0.755281 0.503902,-1.046663 0.267821,-0.29138 0.616077,-0.49673 1.000654,-0.590038 0.384578,-0.0934 0.788231,-0.07057 1.159875,0.06557 0.371553,0.13614 0.694405,0.379505 0.927646,0.699259 0.23324,0.319667 0.366416,0.701444 0.382559,1.096865 0.02174,0.529197 -0.167386,1.045389 -0.525824,1.435352 -0.358437,0.389873 -0.856929,0.621776 -1.386148,0.644605 z"
       id="path1457" />
  </g>
  <g
     fill="#474747"
     id="g9"
     transform="matrix(0.46959567,0,0,0.46959567,4.7471229,3.7470598)"
     style="fill:#999999;fill-opacity:1;stroke:none;stroke-width:0.58349;stroke-dasharray:none;stroke-opacity:0.3" />
  <g
     aria-label="Krita"
     id="text1450"
     style="font-size:1.76385px;opacity:1;fill:#f2f2f2;stroke-width:0.529156">
    <rect
       style="font-size:1.76385px;fill:#f2f2f2;fill-opacity:1;stroke:none;stroke-width:0.519976;stroke-dasharray:none;filter:url(#filter3148)"
       id="rect1656-3"
       width="0.5055005"
       height="2.2653189"
       x="15.369148"
       y="4.3016486"
       rx="0"
       ry="0" />
    <rect
       style="opacity:1;fill:#f2f2f2;fill-opacity:1;stroke:none;stroke-width:0.519976;stroke-dasharray:none"
       id="rect1656"
       width="0.5055005"
       height="2.2653189"
       x="15.369148"
       y="4.3016486"
       rx="0"
       ry="0" />
  </g>
  <g
     aria-label="Science"
     id="text2284"
     style="font-size:1.76385px;text-align:center;text-anchor:middle;opacity:1;fill:#999999;stroke-width:0.529156">
    <path
       d="m 5.9112744,14.517593 q -0.042332,0 -0.074082,-0.0071 -0.031749,-0.0053 -0.056443,-0.01588 v -0.134052 q 0.028222,0.0071 0.059971,0.01235 0.031749,0.0053 0.067026,0.0053 0.044096,0 0.082901,-0.01764 0.040569,-0.01764 0.065263,-0.06174 0.024694,-0.0441 0.024694,-0.12347 v -1.252333 h 0.1587465 v 1.239986 q 0,0.181677 -0.089956,0.268106 -0.089956,0.08643 -0.2381197,0.08643 z m 1.4287197,-1.280555 v 0.945424 H 7.2129969 l -0.02293,-0.125234 h -0.00706 q -0.04586,0.07408 -0.1269972,0.109359 -0.081137,0.03351 -0.1728573,0.03351 -0.1710935,0 -0.2575221,-0.08114 -0.086429,-0.0829 -0.086429,-0.262814 v -0.619111 h 0.1569827 v 0.608528 q 0,0.225773 0.2098981,0.225773 0.1569827,0 0.2169536,-0.08819 0.061735,-0.08819 0.061735,-0.253995 V 13.237038 Z M 8.0896304,13.2194 q 0.1746211,0 0.2804521,0.121705 0.1075949,0.121706 0.1075949,0.366881 0,0.241648 -0.1075949,0.366881 -0.105831,0.125233 -0.282216,0.125233 -0.1093587,0 -0.1816765,-0.04057 -0.070554,-0.04233 -0.1111225,-0.09701 h -0.010583 q 0.00353,0.02998 0.00706,0.07585 0.00353,0.04586 0.00353,0.07937 v 0.388047 H 7.6398487 v -1.368748 h 0.1269972 l 0.021166,0.128761 h 0.00706 q 0.042332,-0.06174 0.1111225,-0.104067 0.06879,-0.04233 0.1834404,-0.04233 z m -0.028222,0.130525 q -0.1446357,0 -0.2046066,0.08114 -0.058207,0.08114 -0.061735,0.246939 v 0.02998 q 0,0.174621 0.056443,0.269869 0.058207,0.09348 0.2134258,0.09348 0.086429,0 0.141108,-0.04762 0.056443,-0.04762 0.082901,-0.128761 0.028222,-0.0829 0.028222,-0.188732 0,-0.162274 -0.063499,-0.259286 -0.061735,-0.09701 -0.1922596,-0.09701 z m 0.479766,-0.112887 h 0.1658019 l 0.2046065,0.537974 q 0.026458,0.07055 0.047624,0.135817 0.021166,0.0635 0.031749,0.121705 h 0.00706 q 0.010583,-0.0441 0.033513,-0.11465 0.02293,-0.07232 0.047624,-0.144635 L 9.2714086,13.237038 H 9.4389744 L 9.031525,14.312987 q -0.049388,0.134052 -0.128761,0.213425 -0.077609,0.07937 -0.2151897,0.07937 -0.042332,0 -0.074082,-0.0053 -0.031749,-0.0035 -0.054679,-0.0088 v -0.12347 q 0.019402,0.0035 0.04586,0.0071 0.028222,0.0035 0.058207,0.0035 0.081137,0 0.1305249,-0.04586 0.051152,-0.04586 0.079373,-0.121705 l 0.049388,-0.125234 z m 1.3634563,0.836065 q 0.035277,0 0.072318,-0.0053 0.037041,-0.0071 0.059971,-0.01411 v 0.118178 q -0.02469,0.01235 -0.070554,0.0194 -0.04586,0.0088 -0.088192,0.0088 -0.074082,0 -0.1375803,-0.02469 -0.061735,-0.02646 -0.1005394,-0.08996 -0.038805,-0.0635 -0.038805,-0.178149 V 13.35698 H 9.4671963 v -0.07408 l 0.1358164,-0.06173 0.061735,-0.201079 h 0.09172 v 0.216953 H 10.029864 V 13.35698 H 9.7564677 v 0.546793 q 0,0.08643 0.040569,0.128761 0.042332,0.04057 0.1075949,0.04057 z M 10.590769,13.2194 q 0.121706,0 0.208134,0.05292 0.08819,0.05292 0.134053,0.149927 0.04762,0.09525 0.04762,0.224009 v 0.09348 h -0.647333 q 0.0035,0.160511 0.08114,0.245176 0.07937,0.0829 0.220481,0.0829 0.08996,0 0.158747,-0.01587 0.07055,-0.01764 0.144635,-0.04939 v 0.135816 q -0.07232,0.03175 -0.142872,0.04586 -0.07055,0.01587 -0.167565,0.01587 -0.134053,0 -0.23812,-0.05468 -0.102303,-0.05468 -0.16051,-0.162274 -0.05644,-0.109359 -0.05644,-0.266342 0,-0.155218 0.05115,-0.266341 0.05292,-0.111123 0.1464,-0.171093 0.09525,-0.05997 0.220481,-0.05997 z m -0.0018,0.126997 q -0.111123,0 -0.176385,0.07232 -0.0635,0.07055 -0.07585,0.197551 h 0.481532 q -0.0018,-0.119942 -0.05644,-0.194024 -0.05468,-0.07585 -0.172857,-0.07585 z m 1.07242,-0.126997 q 0.02646,0 0.05644,0.0035 0.03175,0.0018 0.05468,0.0071 l -0.0194,0.142872 q -0.02293,-0.0053 -0.05115,-0.0088 -0.02646,-0.0035 -0.05115,-0.0035 -0.07232,0 -0.135816,0.04057 -0.0635,0.0388 -0.102303,0.111123 -0.03704,0.07055 -0.03704,0.165802 v 0.504461 h -0.155219 v -0.945424 h 0.126997 l 0.01764,0.172857 h 0.0071 q 0.04586,-0.07761 0.118178,-0.134052 0.07232,-0.05644 0.171094,-0.05644 z"
       id="text5"
       style="stroke-width:0.140003"
       aria-label="Jupyter" />
  </g>
  <text
     xml:space="preserve"
     transform="scale(0.26457812)"
     id="text3806"
     style="font-size:6.66667px;white-space:pre;shape-inside:url(#rect3808);display:inline;fill:#999999;stroke-width:2" />
</svg>
