<?xml version="1.0" encoding="UTF-8" standalone="no"?>
<svg
   width="64"
   height="64"
   version="1.1"
   viewBox="0 0 16.933 16.933"
   id="svg7"
   sodipodi:docname="Science Template.svg"
   inkscape:version="1.4 (e7c3feb100, 2024-10-09)"
   xmlns:inkscape="http://www.inkscape.org/namespaces/inkscape"
   xmlns:sodipodi="http://sodipodi.sourceforge.net/DTD/sodipodi-0.dtd"
   xmlns:xlink="http://www.w3.org/1999/xlink"
   xmlns="http://www.w3.org/2000/svg"
   xmlns:svg="http://www.w3.org/2000/svg"
   xmlns:rdf="http://www.w3.org/1999/02/22-rdf-syntax-ns#"
   xmlns:cc="http://creativecommons.org/ns#"
   xmlns:dc="http://purl.org/dc/elements/1.1/">
  <sodipodi:namedview
     id="namedview7"
     pagecolor="#9c4444"
     bordercolor="#000000"
     borderopacity="0.25"
     inkscape:showpageshadow="2"
     inkscape:pageopacity="0.0"
     inkscape:pagecheckerboard="0"
     inkscape:deskcolor="#d1d1d1"
     inkscape:zoom="6.15625"
     inkscape:cx="15.675127"
     inkscape:cy="29.807107"
     inkscape:window-width="1183"
     inkscape:window-height="973"
     inkscape:window-x="35"
     inkscape:window-y="32"
     inkscape:window-maximized="0"
     inkscape:current-layer="text2284"
     showgrid="false" />
  <defs
     id="defs2">
    <rect
       x="67.489848"
       y="35.60533"
       width="15.337563"
       height="22.51269"
       id="rect3808" />
    <linearGradient
       inkscape:collect="always"
       id="linearGradient1134">
      <stop
         style="stop-color:#161616;stop-opacity:1;"
         offset="0"
         id="stop1130" />
      <stop
         style="stop-color:#404040;stop-opacity:1;"
         offset="1"
         id="stop1132" />
    </linearGradient>
    <linearGradient
       inkscape:collect="always"
       id="linearGradient883">
      <stop
         style="stop-color:#808080;stop-opacity:1;"
         offset="0"
         id="stop879" />
      <stop
         style="stop-color:#3e3e3e;stop-opacity:1;"
         offset="0.5"
         id="stop1216" />
      <stop
         style="stop-color:#242424;stop-opacity:1;"
         offset="1"
         id="stop881" />
    </linearGradient>
    <linearGradient
       inkscape:collect="always"
       xlink:href="#linearGradient883"
       id="linearGradient885"
       x1="2.1085808"
       y1="2.0236168"
       x2="14.846128"
       y2="15.071845"
       gradientUnits="userSpaceOnUse" />
    <linearGradient
       inkscape:collect="always"
       xlink:href="#linearGradient1134"
       id="linearGradient1136"
       x1="14.971222"
       y1="14.703373"
       x2="2.0756054"
       y2="2.0069976"
       gradientUnits="userSpaceOnUse" />
    <filter
       style="color-interpolation-filters:sRGB;"
       inkscape:label="Blur"
       id="filter1283"
       x="-0.082344266"
       y="-0.082344266"
       width="1.1646885"
       height="1.1646885">
      <feGaussianBlur
         stdDeviation="0.5 0.5"
         result="blur"
         id="feGaussianBlur1281" />
    </filter>
    <filter
       style="color-interpolation-filters:sRGB;"
       inkscape:label="Blur"
       id="filter1694"
       x="-0.94955398"
       y="-0.2118907"
       width="2.899108"
       height="1.4237814">
      <feGaussianBlur
         stdDeviation="0.2 0.2"
         result="blur"
         id="feGaussianBlur1692" />
    </filter>
    <filter
       style="color-interpolation-filters:sRGB;"
       inkscape:label="Blur"
       id="filter3148"
       x="-0.94955398"
       y="-0.2118907"
       width="2.899108"
       height="1.4237814">
      <feGaussianBlur
         stdDeviation="0.2 0.2"
         result="blur"
         id="feGaussianBlur3146" />
    </filter>
    <clipPath
       clipPathUnits="userSpaceOnUse"
       id="clipPath44">
      <path
         id="path46"
         style="display:block;opacity:0.85;fill:#f2f2f2;stroke-width:4.39162"
         d="m 17.570312,8.4453125 a 6.5431988,7.4283052 9.9958727e-8 0 0 -6.535156,7.4394535 6.5431988,7.4283052 9.9958727e-8 0 0 6.552735,7.417968 6.5431988,7.4283052 9.9958727e-8 0 0 6.535156,-7.4375 6.5431988,7.4283052 9.9958727e-8 0 0 -6.552735,-7.4199215 z M 45.646484,41.177734 a 6.5431986,7.0703472 2.4665357e-6 0 0 -6.533203,7.080078 6.5431986,7.0703472 2.4665357e-6 0 0 6.550781,7.060547 6.5431986,7.0703472 2.4665357e-6 0 0 6.535157,-7.080078 6.5431986,7.0703472 2.4665357e-6 0 0 -6.552735,-7.060547 z" />
    </clipPath>
    <inkscape:path-effect
       effect="powerclip"
       id="path-effect48"
       is_visible="true"
       lpeversion="1"
       inverse="true"
       flatten="false"
       hide_clip="false"
       message="" />
  </defs>
  <metadata
     id="metadata2">
    <rdf:RDF>
      <cc:Work
         rdf:about="">
        <dc:format>image/svg+xml</dc:format>
        <dc:type
           rdf:resource="http://purl.org/dc/dcmitype/StillImage" />
      </cc:Work>
    </rdf:RDF>
  </metadata>
  <rect
     style="fill:#000000;stroke:none;stroke-width:0.539739;stroke-dasharray:none;filter:url(#filter1283)"
     id="rect246-1"
     width="14.572964"
     height="14.572964"
     x="1.1932471"
     y="1.2138842"
     rx="2.1589575"
     ry="2.1589575" />
  <rect
     style="opacity:1;fill:#000000;stroke:url(#linearGradient885);stroke-width:0.52915625;stroke-dasharray:none"
     id="rect246"
     width="14.287219"
     height="14.287219"
     x="1.3361193"
     y="1.3567564"
     rx="2.1166251"
     ry="2.1166251" />
  <rect
     style="fill:url(#linearGradient1136);fill-opacity:1;stroke:none;stroke-width:0.478315;stroke-dasharray:none"
     id="rect246-5"
     width="12.914515"
     height="12.914515"
     x="2.0224717"
     y="2.0431087"
     rx="1.5874687"
     ry="1.5874687" />
  <path
     id="path5"
     style="fill:#999999;fill-opacity:1;stroke:none;stroke-width:0.0576381;stroke-opacity:1"
     d="m 11.41325,4.9472355 c -0.149905,8.991e-4 -0.299772,0.041373 -0.430923,0.1193428 -0.185388,0.1102131 -0.345506,0.3233268 -0.398037,0.5295842 -0.02805,0.1101417 -0.02775,0.3090732 3.44e-4,0.4190563 0.08166,0.3198406 0.363369,0.5816404 0.688935,0.6401122 0.112538,0.020211 0.278334,0.00612 0.406512,-0.034582 C 12.108243,6.484788 12.359706,6.0320596 12.248655,5.5978576 12.174693,5.3086693 11.963323,5.0825733 11.679402,4.9889374 11.59333,4.9605513 11.503198,4.9466925 11.413254,4.947235 Z m -5.905101,0.00135 c -0.088225,0.00153 -0.1777734,0.015252 -0.2556379,0.040688 -0.5933857,0.1938306 -0.790537,0.9292993 -0.3729467,1.390752 0.1274776,0.140867 0.2726453,0.2234822 0.4739812,0.2698777 0.1097784,0.025297 0.2902477,0.015523 0.4129537,-0.022377 0.2524794,-0.077983 0.4758192,-0.2947372 0.5624715,-0.5455193 0.048202,-0.1395032 0.048202,-0.4134748 0,-0.5529782 C 6.241075,5.2746486 6.0190683,5.0617733 5.7570061,4.9804632 5.6834433,4.9576384 5.5963754,4.9470728 5.508149,4.9485936 Z m 1.0120415,1.159525 c -0.00362,-2e-7 -0.00678,0.00866 -0.00678,0.018986 0,0.039997 -0.1146296,0.2531074 -0.1779974,0.3309053 l -0.066452,0.081709 0.248179,0.1464664 c 0.1366196,0.080517 0.3003909,0.1776321 0.3637928,0.2159699 0.063401,0.038338 0.1162149,0.069939 0.1173085,0.070182 0.00109,2.481e-4 0.025159,-0.048668 0.053569,-0.1084937 0.02841,-0.059823 0.085165,-0.1570579 0.1261231,-0.2163062 0.040958,-0.059248 0.071932,-0.1101726 0.068826,-0.11324 -0.00999,-0.00986 -0.7197364,-0.4261732 -0.726569,-0.4261728 z m 3.8925455,0 c -0.006,0 -0.7175888,0.4167677 -0.7275856,0.4261762 -0.00306,0.00293 0.027862,0.053993 0.068825,0.11324 0.040962,0.059249 0.097676,0.1567434 0.1261246,0.2166483 l 0.051876,0.1088325 0.04509,-0.027463 c 0.024831,-0.015118 0.174775,-0.1034763 0.33328,-0.196308 0.158503,-0.092832 0.302939,-0.1780186 0.320733,-0.1891857 l 0.0322,-0.020003 -0.06441,-0.079336 c -0.06012,-0.073807 -0.180371,-0.2976045 -0.180371,-0.3356521 0,-0.00933 -0.0026,-0.016952 -0.0058,-0.016952 z m -1.9467811,0.065097 c -0.2715332,1.261e-4 -0.39299,0.026312 -0.6051907,0.1301951 -0.4737303,0.2319116 -0.7709824,0.70926 -0.7709825,1.2385218 0,0.6596655 0.4571023,1.2179829 1.109686,1.3554918 0.1246296,0.026268 0.4803441,0.01812 0.5943414,-0.013559 C 9.0560079,8.8109859 9.2602953,8.6943232 9.4390062,8.5153174 9.6187691,8.3352576 9.7402383,8.1238897 9.8075444,7.8735098 9.8489148,7.7196181 9.8465386,7.3535327 9.8031704,7.1950861 9.6697415,6.7080348 9.3007606,6.3381538 8.8165251,6.2057588 8.7146904,6.1779163 8.6614018,6.1731211 8.4659553,6.173211 Z M 6.9999355,8.1108416 6.9548428,8.1383038 C 6.9300036,8.1534197 6.7800688,8.2417776 6.6215643,8.3346097 6.4630596,8.4274414 6.3186244,8.5126286 6.3008302,8.5237954 l -0.032209,0.020004 0.066791,0.082048 c 0.063444,0.077893 0.1779974,0.2908818 0.1779974,0.3309055 0,0.010327 0.00255,0.018986 0.00576,0.018986 0.00607,0 0.7175877,-0.4167681 0.7275849,-0.4261766 0.0031,-0.00295 -0.027868,-0.053991 -0.068826,-0.1132407 C 7.1369736,8.3770695 7.0802567,8.2795752 7.0518078,8.2196698 Z m 2.9320376,0 -0.051876,0.1088325 c -0.028449,0.059906 -0.08573,0.1582878 -0.12748,0.2186822 -0.041747,0.060394 -0.069568,0.1125465 -0.061709,0.1156138 0.00786,0.00309 0.1698565,0.098508 0.3600619,0.2122406 0.190206,0.1137321 0.350728,0.2074434 0.356673,0.2081724 0.006,7.217e-4 0.01085,-0.00583 0.01085,-0.01458 0,-0.039601 0.116526,-0.2587359 0.177318,-0.3332794 l 0.06746,-0.082727 -0.0322,-0.020345 C 10.613283,8.5121346 10.468849,8.4267598 10.310346,8.3339308 10.15184,8.2411015 10.001907,8.1529294 9.9770658,8.1379643 Z m 1.4731399,0.3058163 c -0.01761,1.27e-5 -0.0346,8.586e-4 -0.05085,0.00238 -0.339198,0.031524 -0.638562,0.2612571 -0.748945,0.5750163 -0.04397,0.124971 -0.05464,0.3592263 -0.02238,0.4851691 0.08593,0.3354103 0.359097,0.5874277 0.703513,0.6485887 0.110197,0.01957 0.276351,0.004 0.400071,-0.0373 0.505829,-0.1686897 0.736611,-0.7469705 0.486864,-1.2202147 -0.06925,-0.1312119 -0.236895,-0.292952 -0.37159,-0.3587055 -0.120979,-0.059062 -0.27335,-0.095021 -0.396679,-0.094932 z m -5.8973032,0.00103 c -0.017285,1.91e-4 -0.034696,0.00102 -0.051873,0.00238 C 5.2379855,8.4374554 5.065252,8.5188249 4.906688,8.6790887 4.7896096,8.7974224 4.7233454,8.9139474 4.6832589,9.0706824 4.5601075,9.5522019 4.8843921,10.044451 5.3796522,10.127139 c 0.1085226,0.01812 0.1621854,0.01708 0.2864909,-0.0051 0.1762511,-0.03143 0.3142681,-0.105803 0.4522824,-0.2441103 0.1787998,-0.1791794 0.2508914,-0.3539452 0.2508914,-0.6082423 0,-0.2009466 -0.05138,-0.3509245 -0.1776582,-0.5177189 C 6.0343123,8.5441535 5.767074,8.4149435 5.5078098,8.4176879 Z" />
  <g
     fill="#474747"
     id="g9"
     transform="matrix(0.46959567,0,0,0.46959567,4.7471229,3.7470598)"
     style="fill:#999999;fill-opacity:1;stroke:none;stroke-width:0.58349;stroke-dasharray:none;stroke-opacity:0.3" />
  <g
     aria-label="Krita"
     id="text1450"
     style="font-size:1.76385px;opacity:1;fill:#f2f2f2;stroke-width:0.529156">
    <rect
       style="font-size:1.76385px;fill:#f2f2f2;fill-opacity:1;stroke:none;stroke-width:0.519976;stroke-dasharray:none;filter:url(#filter3148)"
       id="rect1656-3"
       width="0.5055005"
       height="2.2653189"
       x="15.369148"
       y="4.3016486"
       rx="0"
       ry="0" />
    <rect
       style="opacity:1;fill:#f2f2f2;fill-opacity:1;stroke:none;stroke-width:0.519976;stroke-dasharray:none"
       id="rect1656"
       width="0.5055005"
       height="2.2653189"
       x="15.369148"
       y="4.3016486"
       rx="0"
       ry="0" />
  </g>
  <g
     aria-label="Science"
     id="text2284"
     style="font-size:1.76385px;text-align:center;text-anchor:middle;opacity:1;fill:#999999;stroke-width:0.529156">
    <path
       d="M 6.4324207,14.182462 H 6.2454526 l -0.446254,-0.601473 -0.1287611,0.112886 v 0.488587 H 5.511691 v -1.259389 h 0.1587465 v 0.620875 q 0.052916,-0.05997 0.1075949,-0.119942 0.054679,-0.05997 0.1093587,-0.119942 l 0.340423,-0.380991 H 6.4130184 L 5.9138488,13.47163 Z m 0.507988,-0.961298 q 0.1728572,0 0.2557582,0.07584 0.082901,0.07585 0.082901,0.241647 v 0.643806 H 7.1661814 L 7.136196,14.048409 h -0.00706 q -0.061735,0.07761 -0.1305249,0.11465 -0.067026,0.03704 -0.1869681,0.03704 -0.128761,0 -0.2134258,-0.06703 -0.084665,-0.06879 -0.084665,-0.213426 0,-0.141108 0.1111225,-0.216953 0.1111226,-0.07761 0.3421869,-0.08467 l 0.1605103,-0.0053 v -0.05644 q 0,-0.118178 -0.051152,-0.164038 -0.051152,-0.04586 -0.1446357,-0.04586 -0.074082,0 -0.141108,0.02293 -0.067026,0.02117 -0.1252333,0.04939 l -0.047624,-0.116414 q 0.061735,-0.03351 0.1463996,-0.05644 0.084665,-0.02469 0.176385,-0.02469 z m 0.04586,0.504461 q -0.176385,0.0071 -0.2451752,0.05644 -0.067026,0.04939 -0.067026,0.139344 0,0.07937 0.047624,0.116414 0.049388,0.03704 0.1252333,0.03704 0.1199418,0 0.199315,-0.06526 0.079373,-0.06703 0.079373,-0.204606 v -0.08466 z m 0.7408185,0.456837 H 7.5718685 v -1.340526 h 0.1552188 z m 0.9101454,0 H 7.9458036 V 14.080158 L 8.4537923,13.35698 H 7.975789 v -0.119942 h 0.6490968 v 0.116414 L 8.1239524,14.06252 h 0.5132803 z m 0.2980895,-1.299958 q 0.035277,0 0.061735,0.02469 0.028222,0.02293 0.028222,0.07408 0,0.04939 -0.028222,0.07408 -0.026458,0.02469 -0.061735,0.02469 -0.038805,0 -0.065262,-0.02469 -0.026458,-0.02469 -0.026458,-0.07408 0,-0.05115 0.026458,-0.07408 0.026458,-0.02469 0.065262,-0.02469 z m 0.075846,0.354534 v 0.945424 H 8.855949 v -0.945424 z m 1.0900582,0 v 0.945424 H 9.9742288 l -0.02293,-0.125234 h -0.00706 q -0.04586,0.07408 -0.1269972,0.109359 -0.081137,0.03351 -0.1728573,0.03351 -0.1710934,0 -0.2575221,-0.08114 -0.086429,-0.0829 -0.086429,-0.262814 v -0.619111 h 0.1569826 v 0.608528 q 0,0.225773 0.2098982,0.225773 0.1569826,0 0.2169535,-0.08819 0.061735,-0.08819 0.061735,-0.253995 v -0.492114 z m 1.336998,-0.01764 q 0.160511,0 0.239884,0.0829 0.07937,0.08114 0.07937,0.264577 v 0.615584 h -0.153455 v -0.608529 q 0,-0.224008 -0.192259,-0.224008 -0.137581,0 -0.197551,0.07937 -0.05821,0.07937 -0.05821,0.231064 v 0.5221 h -0.153454 v -0.608529 q 0,-0.224008 -0.194024,-0.224008 -0.142872,0 -0.197551,0.08819 -0.05468,0.08819 -0.05468,0.253994 v 0.490351 h -0.155218 v -0.945424 h 0.125233 l 0.02293,0.128761 h 0.0088 q 0.0441,-0.07408 0.118178,-0.109358 0.07585,-0.03704 0.160511,-0.03704 0.222245,0 0.289271,0.158746 h 0.0088 q 0.04762,-0.08114 0.128761,-0.119942 0.0829,-0.0388 0.174621,-0.0388 z"
       id="text5"
       style="stroke-width:0.140003"
       aria-label="Kalzium" />
  </g>
  <text
     xml:space="preserve"
     transform="scale(0.26457812)"
     id="text3806"
     style="font-size:6.66667px;white-space:pre;shape-inside:url(#rect3808);display:inline;fill:#999999;stroke-width:2" />
</svg>
