<?xml version="1.0" encoding="UTF-8" standalone="no"?>
<svg
   width="64"
   height="64"
   version="1.1"
   viewBox="0 0 16.933 16.933"
   id="svg7"
   sodipodi:docname="breeze-settings.svg"
   inkscape:version="1.4 (e7c3feb100, 2024-10-09)"
   xmlns:inkscape="http://www.inkscape.org/namespaces/inkscape"
   xmlns:sodipodi="http://sodipodi.sourceforge.net/DTD/sodipodi-0.dtd"
   xmlns:xlink="http://www.w3.org/1999/xlink"
   xmlns="http://www.w3.org/2000/svg"
   xmlns:svg="http://www.w3.org/2000/svg"
   xmlns:rdf="http://www.w3.org/1999/02/22-rdf-syntax-ns#"
   xmlns:cc="http://creativecommons.org/ns#"
   xmlns:dc="http://purl.org/dc/elements/1.1/">
  <sodipodi:namedview
     id="namedview7"
     pagecolor="#9c4444"
     bordercolor="#000000"
     borderopacity="0.25"
     inkscape:showpageshadow="2"
     inkscape:pageopacity="0.0"
     inkscape:pagecheckerboard="0"
     inkscape:deskcolor="#d1d1d1"
     inkscape:zoom="6.15625"
     inkscape:cx="15.837563"
     inkscape:cy="29.807107"
     inkscape:window-width="1183"
     inkscape:window-height="940"
     inkscape:window-x="35"
     inkscape:window-y="32"
     inkscape:window-maximized="0"
     inkscape:current-layer="svg7"
     showgrid="false" />
  <defs
     id="defs2">
    <rect
       x="67.489848"
       y="35.60533"
       width="15.337563"
       height="22.51269"
       id="rect3808" />
    <linearGradient
       inkscape:collect="always"
       id="linearGradient1134">
      <stop
         style="stop-color:#161616;stop-opacity:1;"
         offset="0"
         id="stop1130" />
      <stop
         style="stop-color:#404040;stop-opacity:1;"
         offset="1"
         id="stop1132" />
    </linearGradient>
    <linearGradient
       inkscape:collect="always"
       id="linearGradient883">
      <stop
         style="stop-color:#808080;stop-opacity:1;"
         offset="0"
         id="stop879" />
      <stop
         style="stop-color:#3e3e3e;stop-opacity:1;"
         offset="0.5"
         id="stop1216" />
      <stop
         style="stop-color:#242424;stop-opacity:1;"
         offset="1"
         id="stop881" />
    </linearGradient>
    <linearGradient
       inkscape:collect="always"
       xlink:href="#linearGradient883"
       id="linearGradient885"
       x1="2.1085808"
       y1="2.0236168"
       x2="14.846128"
       y2="15.071845"
       gradientUnits="userSpaceOnUse" />
    <linearGradient
       inkscape:collect="always"
       xlink:href="#linearGradient1134"
       id="linearGradient1136"
       x1="14.971222"
       y1="14.703373"
       x2="2.0756054"
       y2="2.0069976"
       gradientUnits="userSpaceOnUse" />
    <filter
       style="color-interpolation-filters:sRGB;"
       inkscape:label="Blur"
       id="filter1283"
       x="-0.082344266"
       y="-0.082344266"
       width="1.1646885"
       height="1.1646885">
      <feGaussianBlur
         stdDeviation="0.5 0.5"
         result="blur"
         id="feGaussianBlur1281" />
    </filter>
    <filter
       style="color-interpolation-filters:sRGB;"
       inkscape:label="Blur"
       id="filter1694"
       x="-0.94955398"
       y="-0.2118907"
       width="2.899108"
       height="1.4237814">
      <feGaussianBlur
         stdDeviation="0.2 0.2"
         result="blur"
         id="feGaussianBlur1692" />
    </filter>
    <filter
       style="color-interpolation-filters:sRGB;"
       inkscape:label="Blur"
       id="filter3148"
       x="-0.94955398"
       y="-0.2118907"
       width="2.899108"
       height="1.4237814">
      <feGaussianBlur
         stdDeviation="0.2 0.2"
         result="blur"
         id="feGaussianBlur3146" />
    </filter>
    <clipPath
       clipPathUnits="userSpaceOnUse"
       id="clipPath44">
      <path
         id="path46"
         style="display:block;opacity:0.85;fill:#f2f2f2;stroke-width:4.39162"
         d="m 17.570312,8.4453125 a 6.5431988,7.4283052 9.9958727e-8 0 0 -6.535156,7.4394535 6.5431988,7.4283052 9.9958727e-8 0 0 6.552735,7.417968 6.5431988,7.4283052 9.9958727e-8 0 0 6.535156,-7.4375 6.5431988,7.4283052 9.9958727e-8 0 0 -6.552735,-7.4199215 z M 45.646484,41.177734 a 6.5431986,7.0703472 2.4665357e-6 0 0 -6.533203,7.080078 6.5431986,7.0703472 2.4665357e-6 0 0 6.550781,7.060547 6.5431986,7.0703472 2.4665357e-6 0 0 6.535157,-7.080078 6.5431986,7.0703472 2.4665357e-6 0 0 -6.552735,-7.060547 z" />
    </clipPath>
    <inkscape:path-effect
       effect="powerclip"
       id="path-effect48"
       is_visible="true"
       lpeversion="1"
       inverse="true"
       flatten="false"
       hide_clip="false"
       message="" />
  </defs>
  <metadata
     id="metadata2">
    <rdf:RDF>
      <cc:Work
         rdf:about="">
        <dc:format>image/svg+xml</dc:format>
        <dc:type
           rdf:resource="http://purl.org/dc/dcmitype/StillImage" />
      </cc:Work>
    </rdf:RDF>
  </metadata>
  <rect
     style="fill:#000000;stroke:none;stroke-width:0.539739;stroke-dasharray:none;filter:url(#filter1283)"
     id="rect246-1"
     width="14.572964"
     height="14.572964"
     x="1.1932471"
     y="1.2138842"
     rx="2.1589575"
     ry="2.1589575" />
  <rect
     style="opacity:1;fill:#000000;stroke:url(#linearGradient885);stroke-width:0.52915625;stroke-dasharray:none"
     id="rect246"
     width="14.287219"
     height="14.287219"
     x="1.3361193"
     y="1.3567564"
     rx="2.1166251"
     ry="2.1166251" />
  <rect
     style="fill:url(#linearGradient1136);fill-opacity:1;stroke:none;stroke-width:0.478315;stroke-dasharray:none"
     id="rect246-5"
     width="12.914515"
     height="12.914515"
     x="2.0224717"
     y="2.0431087"
     rx="1.5874687"
     ry="1.5874687" />
  <path
     id="path1"
     style="fill:#999999;stroke-width:0.162437"
     d="M 32.244141 17.38086 C 21.677944 17.38086 21.971117 17.349931 20.570313 18.609375 C 19.310678 19.741894 18.75069 21.370018 19.078125 22.947266 C 19.429354 24.639128 20.5682 25.925632 22.226563 26.503907 C 23.002819 26.774585 23.768738 26.792893 32.406251 26.757813 L 41.746095 26.720704 L 42.558595 26.347657 C 44.247701 25.570887 45.237391 24.177374 45.365235 22.396485 C 45.475656 20.858325 45.093296 19.812045 44.035157 18.753907 C 42.616326 17.335079 43.001646 17.38086 32.244141 17.38086 z M 39.919923 18.837891 C 41.968677 18.842221 43.807206 20.670815 43.291016 22.72461 C 43.043284 23.710275 42.481862 24.417356 41.617188 24.835938 C 40.713432 25.273439 39.242666 25.289575 38.335938 24.871094 C 35.815514 23.707843 35.908925 20.320862 38.494141 19.146485 C 38.963008 18.933494 39.447133 18.836892 39.919923 18.837891 z M 32.326172 30.863282 C 21.783664 30.863282 21.957539 30.844938 20.585938 32.078126 C 17.807978 34.57575 18.939291 39.059612 22.578125 39.972657 C 22.846146 40.039907 27.306556 40.08326 32.488282 40.06836 C 41.676721 40.041935 41.925776 40.032565 42.638673 39.701173 C 44.402071 38.881453 45.257477 37.643232 45.367188 35.748048 C 45.460343 34.138847 45.053342 33.114351 43.916016 32.091797 C 42.5162 30.833245 42.801151 30.863282 32.326172 30.863282 z M 24.451172 32.341797 C 24.552918 32.342191 24.656547 32.345621 24.761719 32.351563 C 25.696219 32.404367 26.013607 32.500551 26.576172 32.898438 C 27.715321 33.704129 27.939454 34.1267 27.939454 35.476563 C 27.939454 36.524996 27.887355 36.723274 27.470704 37.269532 C 27.200813 37.623377 26.650908 38.046482 26.171875 38.269532 C 23.082355 39.708092 19.75954 36.933411 21.197266 34.115235 C 21.790234 32.952922 22.924991 32.335889 24.451172 32.341797 z "
     transform="scale(0.26457812)" />
  <g
     aria-label="Krita"
     id="text1450"
     style="font-size:1.76385px;opacity:1;fill:#5555ff;stroke-width:0.529156">
    <rect
       style="font-size:1.76385px;fill:#5555ff;fill-opacity:1;stroke:none;stroke-width:0.519976;stroke-dasharray:none;filter:url(#filter3148)"
       id="rect1656-3"
       width="0.5055005"
       height="2.2653189"
       x="15.369148"
       y="4.3016486"
       rx="0"
       ry="0" />
    <rect
       style="opacity:1;fill:#5555ff;fill-opacity:1;stroke:none;stroke-width:0.519976;stroke-dasharray:none"
       id="rect1656"
       width="0.5055005"
       height="2.2653189"
       x="15.369148"
       y="4.3016486"
       rx="0"
       ry="0" />
  </g>
  <text
     xml:space="preserve"
     transform="scale(0.26457812)"
     id="text3806"
     style="fill:#999999;stroke-width:2;font-size:6.66666667px;white-space:pre;shape-inside:url(#rect3808)" />
  <path
     d="M 7.0293093,14.182462 H 6.8423412 l -0.446254,-0.601473 -0.1287611,0.112886 v 0.488587 H 6.1085796 v -1.259389 h 0.1587465 v 0.620875 q 0.052916,-0.05997 0.1075949,-0.119942 0.054679,-0.05997 0.1093587,-0.119942 l 0.340423,-0.380991 H 7.009907 L 6.5107374,13.47163 Z m 0.3051452,0 H 7.1792357 v -1.340526 h 0.1552188 z m 0.657915,-0.961298 q 0.1728573,0 0.2557583,0.07584 0.082901,0.07585 0.082901,0.241647 v 0.643806 H 8.2181423 l -0.029985,-0.134053 h -0.00706 q -0.061735,0.07761 -0.1305249,0.11465 -0.067026,0.03704 -0.1869681,0.03704 -0.1287611,0 -0.2134259,-0.06703 -0.084665,-0.06879 -0.084665,-0.213426 0,-0.141108 0.1111226,-0.216953 0.1111225,-0.07761 0.3421869,-0.08467 l 0.1605103,-0.0053 v -0.05644 q 0,-0.118178 -0.051152,-0.164038 -0.051152,-0.04586 -0.1446357,-0.04586 -0.074082,0 -0.141108,0.02293 -0.067026,0.02117 -0.1252334,0.04939 L 7.669585,13.302301 q 0.061735,-0.03351 0.1463995,-0.05644 0.084665,-0.02469 0.176385,-0.02469 z m 0.04586,0.504461 q -0.176385,0.0071 -0.2451751,0.05644 -0.067026,0.04939 -0.067026,0.139344 0,0.07937 0.047624,0.116414 0.049388,0.03704 0.1252334,0.03704 0.1199418,0 0.199315,-0.06526 0.079373,-0.06703 0.079373,-0.204606 v -0.08466 z m 1.2011833,0.195787 q 0,0.13758 -0.1023033,0.208134 -0.1023033,0.07055 -0.2751606,0.07055 -0.098776,0 -0.1710935,-0.01587 -0.070554,-0.01588 -0.1252333,-0.0441 v -0.141108 q 0.056443,0.02822 0.1358164,0.05292 0.081137,0.02293 0.1640381,0.02293 0.1181779,0 0.1710934,-0.03704 0.052915,-0.0388 0.052915,-0.102303 0,-0.03528 -0.019402,-0.0635 -0.019402,-0.02822 -0.070554,-0.05644 -0.049388,-0.02822 -0.1428719,-0.0635 -0.09172,-0.03528 -0.1569826,-0.07055 -0.065263,-0.03528 -0.1005395,-0.08466 -0.035277,-0.04939 -0.035277,-0.126998 0,-0.119941 0.097012,-0.185204 0.098776,-0.06526 0.2575221,-0.06526 0.086429,0 0.1605103,0.01764 0.075846,0.01587 0.141108,0.04586 l -0.052916,0.12347 q -0.059971,-0.02469 -0.1252333,-0.04233 -0.065262,-0.01764 -0.1340526,-0.01764 -0.095248,0 -0.1463996,0.03175 -0.049388,0.02999 -0.049388,0.0829 0,0.0388 0.02293,0.06703 0.02293,0.02646 0.075846,0.05292 0.054679,0.02469 0.1446357,0.05997 0.089956,0.03351 0.153455,0.06879 0.063499,0.03528 0.097012,0.08643 0.033513,0.04939 0.033513,0.125233 z m 0.8448841,0 q 0,0.13758 -0.1023033,0.208134 -0.1023033,0.07055 -0.2751606,0.07055 -0.098776,0 -0.1710934,-0.01587 -0.070554,-0.01588 -0.1252334,-0.0441 v -0.141108 q 0.056443,0.02822 0.1358165,0.05292 0.081137,0.02293 0.164038,0.02293 0.118178,0 0.1710935,-0.03704 0.052916,-0.0388 0.052916,-0.102303 0,-0.03528 -0.019402,-0.0635 -0.019402,-0.02822 -0.070554,-0.05644 -0.049388,-0.02822 -0.1428718,-0.0635 -0.09172,-0.03528 -0.1569827,-0.07055 -0.065262,-0.03528 -0.1005394,-0.08466 -0.035277,-0.04939 -0.035277,-0.126998 0,-0.119941 0.097012,-0.185204 0.098776,-0.06526 0.2575221,-0.06526 0.086429,0 0.1605104,0.01764 0.075845,0.01587 0.1411083,0.04586 l -0.05292,0.12347 q -0.059971,-0.02469 -0.1252332,-0.04233 -0.065262,-0.01764 -0.1340526,-0.01764 -0.095248,0 -0.1463995,0.03175 -0.049388,0.02999 -0.049388,0.0829 0,0.0388 0.02293,0.06703 0.02293,0.02646 0.075846,0.05292 0.054679,0.02469 0.1446357,0.05997 0.089956,0.03351 0.1534549,0.06879 0.063499,0.03528 0.097012,0.08643 0.03351,0.04939 0.03351,0.125233 z m 0.08114,-0.684374 h 0.165802 l 0.204607,0.537974 q 0.02646,0.07055 0.04762,0.135817 0.02117,0.0635 0.03175,0.121705 h 0.0071 q 0.01058,-0.0441 0.03351,-0.11465 0.02293,-0.07232 0.04762,-0.144635 l 0.192259,-0.536211 h 0.167566 l -0.407449,1.075949 q -0.04939,0.134052 -0.128761,0.213425 -0.07761,0.07937 -0.21519,0.07937 -0.04233,0 -0.07408,-0.0053 -0.03175,-0.0035 -0.05468,-0.0088 v -0.12347 q 0.0194,0.0035 0.04586,0.0071 0.02822,0.0035 0.05821,0.0035 0.08114,0 0.130525,-0.04586 0.05115,-0.04586 0.07937,-0.121705 l 0.04939,-0.125234 z"
     id="text1"
     style="font-size:1.76385px;fill:#999999;stroke-width:0.132289;stroke-opacity:0.6"
     aria-label="Klassy" />
</svg>
