<?xml version="1.0" encoding="UTF-8" standalone="no"?>
<svg
   width="64"
   height="64"
   version="1.1"
   viewBox="0 0 16.933 16.933"
   id="svg7"
   sodipodi:docname="libreoffice-startcenter.svg"
   inkscape:version="1.4 (e7c3feb100, 2024-10-09)"
   xmlns:inkscape="http://www.inkscape.org/namespaces/inkscape"
   xmlns:sodipodi="http://sodipodi.sourceforge.net/DTD/sodipodi-0.dtd"
   xmlns:xlink="http://www.w3.org/1999/xlink"
   xmlns="http://www.w3.org/2000/svg"
   xmlns:svg="http://www.w3.org/2000/svg"
   xmlns:rdf="http://www.w3.org/1999/02/22-rdf-syntax-ns#"
   xmlns:cc="http://creativecommons.org/ns#"
   xmlns:dc="http://purl.org/dc/elements/1.1/">
  <sodipodi:namedview
     id="namedview7"
     pagecolor="#9c4444"
     bordercolor="#000000"
     borderopacity="0.25"
     inkscape:showpageshadow="2"
     inkscape:pageopacity="0.0"
     inkscape:pagecheckerboard="0"
     inkscape:deskcolor="#d1d1d1"
     inkscape:zoom="6.15625"
     inkscape:cx="15.675127"
     inkscape:cy="29.807107"
     inkscape:window-width="1183"
     inkscape:window-height="973"
     inkscape:window-x="35"
     inkscape:window-y="32"
     inkscape:window-maximized="0"
     inkscape:current-layer="svg7"
     showgrid="false" />
  <defs
     id="defs2">
    <rect
       x="67.489848"
       y="35.60533"
       width="15.337563"
       height="22.51269"
       id="rect3808" />
    <linearGradient
       inkscape:collect="always"
       id="linearGradient1134">
      <stop
         style="stop-color:#161616;stop-opacity:1;"
         offset="0"
         id="stop1130" />
      <stop
         style="stop-color:#404040;stop-opacity:1;"
         offset="1"
         id="stop1132" />
    </linearGradient>
    <linearGradient
       inkscape:collect="always"
       id="linearGradient883">
      <stop
         style="stop-color:#808080;stop-opacity:1;"
         offset="0"
         id="stop879" />
      <stop
         style="stop-color:#3e3e3e;stop-opacity:1;"
         offset="0.5"
         id="stop1216" />
      <stop
         style="stop-color:#242424;stop-opacity:1;"
         offset="1"
         id="stop881" />
    </linearGradient>
    <linearGradient
       inkscape:collect="always"
       xlink:href="#linearGradient883"
       id="linearGradient885"
       x1="2.1085808"
       y1="2.0236168"
       x2="14.846128"
       y2="15.071845"
       gradientUnits="userSpaceOnUse" />
    <linearGradient
       inkscape:collect="always"
       xlink:href="#linearGradient1134"
       id="linearGradient1136"
       x1="14.971222"
       y1="14.703373"
       x2="2.0756054"
       y2="2.0069976"
       gradientUnits="userSpaceOnUse" />
    <filter
       style="color-interpolation-filters:sRGB;"
       inkscape:label="Blur"
       id="filter1283"
       x="-0.082344266"
       y="-0.082344266"
       width="1.1646885"
       height="1.1646885">
      <feGaussianBlur
         stdDeviation="0.5 0.5"
         result="blur"
         id="feGaussianBlur1281" />
    </filter>
    <filter
       style="color-interpolation-filters:sRGB;"
       inkscape:label="Blur"
       id="filter1694"
       x="-0.94955398"
       y="-0.2118907"
       width="2.899108"
       height="1.4237814">
      <feGaussianBlur
         stdDeviation="0.2 0.2"
         result="blur"
         id="feGaussianBlur1692" />
    </filter>
    <filter
       style="color-interpolation-filters:sRGB;"
       inkscape:label="Blur"
       id="filter3148"
       x="-0.94955398"
       y="-0.2118907"
       width="2.899108"
       height="1.4237814">
      <feGaussianBlur
         stdDeviation="0.2 0.2"
         result="blur"
         id="feGaussianBlur3146" />
    </filter>
    <clipPath
       clipPathUnits="userSpaceOnUse"
       id="clipPath44">
      <path
         id="path46"
         style="display:block;opacity:0.85;fill:#f2f2f2;stroke-width:4.39162"
         d="m 17.570312,8.4453125 a 6.5431988,7.4283052 9.9958727e-8 0 0 -6.535156,7.4394535 6.5431988,7.4283052 9.9958727e-8 0 0 6.552735,7.417968 6.5431988,7.4283052 9.9958727e-8 0 0 6.535156,-7.4375 6.5431988,7.4283052 9.9958727e-8 0 0 -6.552735,-7.4199215 z M 45.646484,41.177734 a 6.5431986,7.0703472 2.4665357e-6 0 0 -6.533203,7.080078 6.5431986,7.0703472 2.4665357e-6 0 0 6.550781,7.060547 6.5431986,7.0703472 2.4665357e-6 0 0 6.535157,-7.080078 6.5431986,7.0703472 2.4665357e-6 0 0 -6.552735,-7.060547 z" />
    </clipPath>
    <inkscape:path-effect
       effect="powerclip"
       id="path-effect48"
       is_visible="true"
       lpeversion="1"
       inverse="true"
       flatten="false"
       hide_clip="false"
       message="" />
  </defs>
  <metadata
     id="metadata2">
    <rdf:RDF>
      <cc:Work
         rdf:about="">
        <dc:format>image/svg+xml</dc:format>
        <dc:type
           rdf:resource="http://purl.org/dc/dcmitype/StillImage" />
      </cc:Work>
    </rdf:RDF>
  </metadata>
  <rect
     style="fill:#000000;stroke:none;stroke-width:0.539739;stroke-dasharray:none;filter:url(#filter1283)"
     id="rect246-1"
     width="14.572964"
     height="14.572964"
     x="1.1932471"
     y="1.2138842"
     rx="2.1589575"
     ry="2.1589575" />
  <rect
     style="opacity:1;fill:#000000;stroke:url(#linearGradient885);stroke-width:0.52915625;stroke-dasharray:none"
     id="rect246"
     width="14.287219"
     height="14.287219"
     x="1.3361193"
     y="1.3567564"
     rx="2.1166251"
     ry="2.1166251" />
  <rect
     style="fill:url(#linearGradient1136);fill-opacity:1;stroke:none;stroke-width:0.478315;stroke-dasharray:none"
     id="rect246-5"
     width="12.914515"
     height="12.914515"
     x="2.0224717"
     y="2.0431087"
     rx="1.5874687"
     ry="1.5874687" />
  <path
     id="path1"
     style="fill:#999999;fill-opacity:1;stroke-width:0.0200289"
     d="m 7.7799754,3.8701238 c -2.3119278,4.201e-4 -2.4227111,0.00167 -2.4992756,0.037086 -0.098173,0.045453 -0.1779022,0.1281115 -0.2191503,0.2268565 -0.027563,0.065978 -0.031307,0.3610303 -0.031307,2.5893431 0,2.2283133 0.00373,2.5233658 0.031307,2.5893427 0.041243,0.098745 0.1209774,0.1814052 0.2191503,0.2268586 0.076568,0.035462 0.1873478,0.037155 2.4992756,0.037568 2.6493216,4.771e-4 2.4941896,0.00753 2.6254696,-0.115597 0.03169,-0.029703 0.07448,-0.090316 0.09489,-0.1343798 0.03548,-0.076626 0.03715,-0.190273 0.03756,-2.6095734 4.39e-4,-2.450109 -0.0012,-2.5318129 -0.03804,-2.6037921 C 10.450686,4.0182423 10.367371,3.9396879 10.273474,3.900464 10.207532,3.8729151 9.9223617,3.8697253 7.7799778,3.8701198 Z M 7.025232,4.975989 C 7.052728,4.9755306 7.08137,4.984349 7.109519,5.00537 7.137899,5.026558 7.167923,5.068647 7.175985,5.09881 7.194124,5.166616 7.16137,5.265745 7.112409,5.2919514 7.049709,5.3255084 6.9734044,5.3138154 6.9221568,5.2625704 6.813225,5.153638 6.9060981,4.9778914 7.02523,4.9759887 Z M 5.8914298,5.01115 c 0.2752086,0 0.3405269,0.00523 0.3405269,0.027455 0,0.016612 -0.031635,0.032656 -0.080437,0.040458 -0.061946,0.00991 -0.085293,0.024902 -0.1001837,0.064058 -0.029574,0.07779 -0.025671,1.1355859 0.00428,1.1655894 0.029732,0.029735 0.2338311,0.031675 0.3101826,0.00289 0.086915,-0.032769 0.1741769,-0.1282276 0.236971,-0.2596083 0.038355,-0.080244 0.068871,-0.1194491 0.092955,-0.1194491 0.028093,0 0.033917,0.011791 0.026489,0.054908 -0.032612,0.1894371 -0.069299,0.4178147 -0.069354,0.430594 -3.54e-5,0.00825 -0.2480732,0.01493 -0.5510066,0.01493 -0.5298393,0 -0.5510063,-0.00149 -0.5510063,-0.038533 0,-0.026477 0.018735,-0.042427 0.060201,-0.051537 0.033135,-0.00727 0.069513,-0.029681 0.080438,-0.05009 0.026473,-0.04947 0.026473,-1.1117873 0,-1.1612549 -0.010923,-0.020412 -0.047294,-0.043296 -0.080438,-0.050573 -0.033134,-0.00727 -0.060201,-0.025774 -0.060201,-0.041422 0,-0.023466 0.059689,-0.028419 0.3405255,-0.028419 z m 1.6125609,0 h 0.1902519 v 0.2519016 0.2519027 l 0.071284,-0.043831 c 0.1033991,-0.063904 0.2659511,-0.049099 0.3516036,0.032269 0.1182016,0.1122879 0.1478666,0.1966103 0.1478666,0.4190346 0,0.1848745 -0.00448,0.2085663 -0.059728,0.3082548 -0.085628,0.1546052 -0.1805105,0.2123409 -0.3491946,0.2124077 -0.106128,4.19e-5 -0.1444789,-0.00892 -0.1974757,-0.04672 l -0.06599,-0.047201 -0.06791,0.052018 c -0.037441,0.028561 -0.077837,0.052018 -0.08959,0.052018 -0.014707,0 -0.021195,-0.2091818 -0.021195,-0.6714186 V 5.1103694 l -0.05009,-0.02264 c -0.027544,-0.012548 -0.050089,-0.034856 -0.050089,-0.049611 0,-0.020538 0.044609,-0.026973 0.1902512,-0.026973 z M 9.00818,5.4301843 c 0.042045,0.00237 0.079523,0.020202 0.1064448,0.054427 0.059484,0.075627 0.054759,0.1741083 -0.011073,0.2258936 -0.070697,0.05561 -0.099464,0.052735 -0.1705036,-0.018301 -0.033051,-0.033048 -0.073829,-0.060206 -0.090066,-0.060206 -0.057814,0 -0.087474,0.1276716 -0.087176,0.3747228 3.246e-4,0.2921922 0.0082,0.3247242 0.082358,0.3395622 0.038765,0.00775 0.057798,0.023801 0.057798,0.049128 0,0.034793 -0.01934,0.037569 -0.2605718,0.037569 -0.2353469,0 -0.2600916,-0.00324 -0.2600916,-0.035159 0,-0.01942 0.020011,-0.044035 0.044795,-0.054908 0.044207,-0.019394 0.045234,-0.02752 0.050574,-0.4060294 l 0.00531,-0.385801 -0.050574,-0.019265 c -0.027775,-0.010559 -0.050088,-0.032813 -0.050088,-0.04961 0,-0.025222 0.033098,-0.030343 0.1902516,-0.030343 H 8.755821 l 4.772e-4,0.065022 c 6.693e-4,0.063971 0.00142,0.064538 0.035158,0.024566 0.064445,-0.076233 0.1466651,-0.115188 0.2167435,-0.111262 z m 0.6006164,0.00244 c 0.056969,4.773e-4 0.1120538,0.010131 0.1483485,0.028897 0.1125299,0.058192 0.2003663,0.2221209 0.2003663,0.3737592 V 5.912344 H 9.7268006 9.4965721 l 4.773e-4,0.075138 c 4.774e-4,0.085333 0.056156,0.2212078 0.1083708,0.2644247 0.062914,0.052068 0.1640934,0.036333 0.2403435,-0.03757 0.043991,-0.042641 0.08066,-0.062286 0.1011455,-0.054428 0.028548,0.010959 0.028764,0.01805 0.00279,0.067432 C 9.9104412,6.3023475 9.799492,6.4060581 9.7305748,6.4320412 9.6541189,6.4608736 9.5198975,6.4574383 9.4449755,6.4248142 9.3019601,6.3625504 9.2070197,6.1704196 9.2070197,5.9426841 c 0,-0.2308686 0.095849,-0.4223977 0.2422686,-0.4835751 C 9.4926753,5.440975 9.5517514,5.432161 9.6087147,5.43262 Z m 1.1704076,0.015897 -0.0053,2.0494145 c -0.0059,2.2578259 0.0036,2.095425 -0.128118,2.2271439 -0.131495,0.1314982 0.01976,0.1226611 -2.1264795,0.1285993 l -1.9487512,0.00531 0.00578,0.518735 0.00625,0.518734 0.060202,0.08573 c 0.064425,0.09161 0.1545028,0.153899 0.2571999,0.178692 0.034812,0.0084 1.1452087,0.01376 2.4679685,0.01204 l 2.4053553,-0.0029 0.09729,-0.06069 c 0.07111,-0.04397 0.112904,-0.08915 0.153647,-0.167131 l 0.05634,-0.10741 V 8.3172079 5.7996301 L 12.025241,5.6907777 C 11.983895,5.609226 11.945555,5.5668947 11.871597,5.521719 l -0.09826,-0.060205 -0.497062,-0.00626 z m -3.7958755,0.00338 h 0.1902517 v 0.4301122 c 0,0.408756 0.00198,0.4318841 0.039975,0.4556393 0.022027,0.013758 0.039976,0.040826 0.039976,0.060205 0,0.031589 -0.023746,0.035159 -0.2302289,0.035159 -0.2169758,0 -0.2307094,-0.00224 -0.2307094,-0.039977 0,-0.02203 0.00858,-0.039976 0.018781,-0.039976 0.010224,0 0.03278,-0.014 0.05009,-0.031307 0.026265,-0.026274 0.031307,-0.090823 0.031307,-0.3901397 V 5.5727721 L 6.842682,5.5400193 C 6.8151384,5.521977 6.7925943,5.49459 6.7925943,5.4793332 c 0,-0.021686 0.04198,-0.027454 0.1907327,-0.027454 z m 2.6240232,0.069835 c -0.069745,0 -0.098401,0.047083 -0.1194494,0.19555 l -0.013489,0.094879 H 9.5957895 9.7171639 L 9.7157059,5.737021 C 9.7150948,5.6957134 9.7038091,5.6306019 9.6906579,5.5920462 9.6704938,5.532917 9.6577946,5.5217254 9.6073308,5.5217254 Z m -1.7859543,0.036123 c -0.01477,4.583e-4 -0.030003,0.00507 -0.045755,0.013489 -0.070475,0.037717 -0.081397,0.090887 -0.081397,0.3973599 0,0.2722102 0.00364,0.3035667 0.041422,0.3516039 0.069803,0.088744 0.1553431,0.060741 0.2066269,-0.06743 0.048223,-0.1205328 0.044382,-0.4823392 -0.00625,-0.59388 C 7.9051674,5.5909953 7.8657407,5.5565295 7.8214141,5.5578549 Z M 7.1846579,6.8727547 c 0.1262762,-0.0038 0.2495753,0.053984 0.2774301,0.1656874 0.031457,0.1261451 -0.066334,0.2214283 -0.1719494,0.1676134 -0.041542,-0.021171 -0.046333,-0.036886 -0.042865,-0.1382371 0.00401,-0.1165996 -0.00992,-0.1346902 -0.07369,-0.094403 -0.022139,0.013983 -0.031933,0.06653 -0.037087,0.1998844 l -0.00726,0.1811001 h 0.082358 c 0.07423,0 0.081882,0.00482 0.081882,0.05009 0,0.045064 -0.00783,0.05009 -0.079952,0.05009 h -0.08044 v 0.3607547 c 0,0.3338117 0.00336,0.3631601 0.040461,0.4002503 0.022036,0.02203 0.057919,0.039976 0.079953,0.039976 0.02226,0 0.039976,0.013653 0.039976,0.030343 0,0.025223 -0.043212,0.029863 -0.2702054,0.029863 -0.2125899,0 -0.2706858,-0.00587 -0.2706858,-0.026973 0,-0.014751 0.022547,-0.037062 0.050089,-0.049611 l 0.05009,-0.022637 V 7.8355593 7.4545746 h -0.05009 c -0.040059,0 -0.050088,-0.010036 -0.050088,-0.05009 0,-0.0389 0.010439,-0.050091 0.046239,-0.050091 0.04214,0 0.047787,-0.012994 0.067909,-0.1526823 0.012805,-0.088889 0.038289,-0.174614 0.060687,-0.2051824 0.059009,-0.080554 0.1589846,-0.1208368 0.2572005,-0.1237835 z m 0.6511896,4.964e-4 c 0.093169,0.00387 0.1818043,0.039305 0.2278189,0.1049988 0.025658,0.036635 0.030824,0.038433 0.030824,0.010116 0,-0.053326 0.074034,-0.1146326 0.1382332,-0.1146326 0.097296,0 0.1522011,0.061841 0.1522011,0.170504 0,0.074276 -0.00971,0.1016108 -0.0472,0.1319715 -0.060648,0.049117 -0.1241822,0.048631 -0.1878423,-0.00145 l -0.050574,-0.039986 -0.028904,0.042866 c -0.033219,0.050027 -0.1352615,0.058735 -0.1868799,0.015899 -0.030888,-0.025634 -0.033965,-0.1054692 -0.00774,-0.1994026 0.014457,-0.051705 -0.068311,-0.03469 -0.095848,0.019749 -0.013936,0.02754 -0.025362,0.1156847 -0.025527,0.1955494 v 0.1449765 h 0.079952 c 0.072104,0 0.079953,0.00501 0.079953,0.050091 0,0.045064 -0.00783,0.050091 -0.079953,0.050091 h -0.079952 v 0.3390775 c 0,0.1865506 0.00839,0.3626026 0.019265,0.3910986 0.01317,0.034634 0.040051,0.055984 0.080438,0.064058 0.03323,0.00665 0.060203,0.024348 0.060203,0.039496 0,0.022008 -0.054134,0.027454 -0.2702048,0.027454 -0.2125913,0 -0.270687,-0.00587 -0.270687,-0.026973 0,-0.014751 0.022548,-0.037062 0.050088,-0.049611 l 0.050089,-0.02264 V 7.8355755 7.4545913 h -0.05009 c -0.040058,0 -0.050088,-0.010036 -0.050088,-0.050091 0,-0.039661 0.010124,-0.050089 0.048644,-0.050089 0.044338,0 0.049763,-0.010114 0.061646,-0.1151146 0.017839,-0.1575986 0.043396,-0.2321536 0.095847,-0.2812813 0.065199,-0.061077 0.1630664,-0.088639 0.2562374,-0.084771 z m -1.8360464,0.00338 c 0.019825,-1.909e-4 0.039865,1.105e-4 0.060204,0.00145 0.248881,0.016326 0.4375239,0.1517081 0.5490804,0.3939885 0.1011863,0.2197667 0.079951,0.583545 -0.045756,0.7826827 C 6.4899759,8.1709524 6.3385889,8.2923883 6.2256943,8.3259144 6.1201509,8.3572578 5.897165,8.3631528 5.8114758,8.3369893 5.624266,8.2798392 5.4622444,8.1275003 5.3876228,7.9381866 5.3343833,7.8031227 5.3237582,7.4770962 5.3683577,7.3443134 5.4663535,7.0525798 5.7024718,6.8795565 5.9997997,6.8766337 Z m 0.00531,0.079473 c -0.036723,-0.00126 -0.069867,0.012858 -0.115113,0.043346 -0.1502667,0.1012652 -0.2089376,0.3160196 -0.1955492,0.7181386 0.00765,0.2286603 0.013794,0.2610961 0.067909,0.3694248 0.043163,0.086406 0.078052,0.1281535 0.1290817,0.1536458 0.085778,0.042852 0.1443407,0.044233 0.2196322,0.00528 0.1387288,-0.071735 0.207569,-0.2726301 0.209517,-0.6112077 0.00204,-0.3555289 -0.072897,-0.5802665 -0.2162595,-0.6482992 -0.04033,-0.019139 -0.07066,-0.029377 -0.099221,-0.030344 z M 9.787978,7.3240815 c 0.024948,0.00121 0.049977,0.00526 0.075136,0.012041 0.147565,0.039734 0.227219,0.1585984 0.264425,0.3939886 l 0.01348,0.085252 H 9.8968197 9.6526216 l 0.013968,0.094885 c 0.037361,0.2491715 0.1977392,0.3439693 0.3434154,0.2027739 0.05936,-0.057544 0.127638,-0.069151 0.127638,-0.021675 0,0.039974 -0.1546006,0.1929427 -0.2292655,0.2268574 C 9.7078128,8.4092985 9.4838459,8.3025131 9.4079538,8.0797798 9.3726657,7.9762233 9.3667189,7.7408764 9.3968806,7.632328 9.4506608,7.4387133 9.6133616,7.315563 9.7879791,7.3240734 Z m -0.7759358,0.00193 c 0.1471706,0.00548 0.2735775,0.088232 0.2735775,0.231673 0,0.092185 -0.042885,0.13727 -0.1305275,0.13727 -0.072747,0 -0.1007974,-0.039537 -0.1160767,-0.1647239 -0.012271,-0.1005251 -0.015587,-0.1054727 -0.071766,-0.1054727 -0.095113,0 -0.1395558,0.097302 -0.1406409,0.3092181 -0.00105,0.2038792 0.041857,0.3349949 0.1348615,0.4132541 0.078192,0.065793 0.1737518,0.056268 0.2591276,-0.025527 0.04718,-0.0452 0.061208,-0.050283 0.075618,-0.026972 0.010254,0.016584 0.00987,0.042782 -4.965e-4,0.062132 C 9.2626046,8.2187323 9.1378406,8.3134196 9.0616386,8.3345804 8.8698577,8.3878415 8.7050003,8.3143804 8.6040712,8.1303644 8.5544578,8.0398982 8.546619,8.0037561 8.5462742,7.8654575 8.5457777,7.6684311 8.5770789,7.5737171 8.680654,7.4613544 8.7703375,7.3640579 8.8975648,7.3217471 9.0120286,7.326011 Z M 8.1850505,7.3544225 H 8.3753006 V 7.773457 c 0,0.3543603 0.00466,0.4242167 0.031308,0.4508231 0.017307,0.01731 0.039865,0.031306 0.050088,0.031306 0.010224,0 0.018781,0.013819 0.018781,0.030344 0,0.025039 -0.040051,0.029863 -0.2403416,0.029863 -0.1874879,0 -0.2403433,-0.00605 -0.2403433,-0.026973 0,-0.014756 0.022072,-0.037063 0.049604,-0.049611 l 0.05009,-0.022646 V 7.8351038 7.4536378 l -0.05009,-0.02264 c -0.027544,-0.012548 -0.049604,-0.034855 -0.049604,-0.04961 0,-0.020538 0.044609,-0.026973 0.1902517,-0.026973 z m 1.5629507,0.062616 c -0.028927,0.00126 -0.041305,0.016794 -0.061645,0.065504 -0.016271,0.038957 -0.029379,0.1073024 -0.029379,0.1517193 v 0.080916 h 0.1103025 0.1098167 v -0.09536 C 9.8766579,7.4941538 9.840898,7.4260957 9.7711327,7.4180119 c -0.00877,-0.00102 -0.016435,-0.00126 -0.023117,-9.36e-4 z" />
  <g
     fill="#474747"
     id="g9"
     transform="matrix(0.46959567,0,0,0.46959567,4.7471229,3.7470598)"
     style="fill:#999999;fill-opacity:1;stroke:none;stroke-width:0.58349;stroke-dasharray:none;stroke-opacity:0.3" />
  <g
     aria-label="Krita"
     id="text1450"
     style="font-size:1.76385px;opacity:1;fill:#afafe9;stroke-width:0.529156;fill-opacity:1">
    <rect
       style="font-size:1.76385px;fill:#afafe9;fill-opacity:1;stroke:none;stroke-width:0.519976;stroke-dasharray:none;filter:url(#filter3148)"
       id="rect1656-3"
       width="0.5055005"
       height="2.2653189"
       x="15.369148"
       y="4.3016486"
       rx="0"
       ry="0" />
    <rect
       style="opacity:1;fill:#afafe9;fill-opacity:1;stroke:none;stroke-width:0.519976;stroke-dasharray:none"
       id="rect1656"
       width="0.5055005"
       height="2.2653189"
       x="15.369148"
       y="4.3016486"
       rx="0"
       ry="0" />
  </g>
  <g
     aria-label="L.O. Start"
     id="text2284"
     style="font-size:1.76385px;text-align:center;text-anchor:middle;opacity:1;fill:#999999;stroke-width:0.529156">
    <path
       d="m 4.9373804,14.179017 v -1.259389 h 0.1587465 v 1.118281 h 0.5503212 v 0.141108 z"
       id="path4153" />
    <path
       d="m 5.8175418,14.083769 q 0,-0.06526 0.031749,-0.09172 0.031749,-0.02646 0.075846,-0.02646 0.04586,0 0.077609,0.02646 0.033513,0.02646 0.033513,0.09172 0,0.0635 -0.033513,0.09172 -0.031749,0.02822 -0.077609,0.02822 -0.044096,0 -0.075846,-0.02822 -0.031749,-0.02822 -0.031749,-0.09172 z"
       id="path4155" />
    <path
       d="m 7.3450366,13.547559 q 0,0.195787 -0.067026,0.342187 -0.065262,0.144635 -0.1940235,0.225772 -0.128761,0.08114 -0.3192568,0.08114 -0.1957874,0 -0.3263123,-0.08114 -0.128761,-0.08114 -0.1922596,-0.227536 -0.063499,-0.1464 -0.063499,-0.342187 0,-0.194024 0.063499,-0.338659 0.063499,-0.144636 0.1922596,-0.225773 0.1305249,-0.08114 0.3280761,-0.08114 0.188732,0 0.317493,0.08114 0.1287611,0.07937 0.1940235,0.225773 0.067026,0.144635 0.067026,0.340423 z m -0.9948114,0 q 0,0.23812 0.1005395,0.3757 0.1005394,0.135816 0.3139653,0.135816 0.2151897,0 0.3139653,-0.135816 0.098776,-0.13758 0.098776,-0.3757 0,-0.23812 -0.098776,-0.372173 -0.098776,-0.135816 -0.3122015,-0.135816 -0.2134258,0 -0.3157291,0.135816 -0.1005395,0.134053 -0.1005395,0.372173 z"
       id="path4157" />
    <path
       d="m 7.5090733,14.083769 q 0,-0.06526 0.031749,-0.09172 0.031749,-0.02646 0.075846,-0.02646 0.04586,0 0.077609,0.02646 0.033513,0.02646 0.033513,0.09172 0,0.0635 -0.033513,0.09172 -0.031749,0.02822 -0.077609,0.02822 -0.044096,0 -0.075846,-0.02822 -0.031749,-0.02822 -0.031749,-0.09172 z"
       id="path4159" />
    <path
       d="m 9.1988414,13.842122 q 0,0.167565 -0.1217057,0.26105 -0.1217056,0.09348 -0.3280761,0.09348 -0.105831,0 -0.1957873,-0.01588 -0.089956,-0.01587 -0.1499273,-0.0441 v -0.151691 q 0.063499,0.02822 0.1569827,0.05115 0.095248,0.02293 0.1957873,0.02293 0.141108,0 0.211662,-0.05468 0.072318,-0.05468 0.072318,-0.148163 0,-0.06173 -0.026458,-0.104068 -0.026458,-0.04233 -0.09172,-0.07761 -0.063499,-0.03704 -0.1781488,-0.07761 -0.1605104,-0.05821 -0.2434113,-0.142872 -0.081137,-0.08466 -0.081137,-0.231065 0,-0.100539 0.051152,-0.171093 0.051152,-0.07232 0.141108,-0.111123 0.09172,-0.0388 0.2098982,-0.0388 0.1040671,0 0.1904958,0.0194 0.086429,0.0194 0.1569826,0.05115 l -0.049388,0.135816 q -0.065262,-0.02822 -0.1428718,-0.04762 -0.075846,-0.0194 -0.1587465,-0.0194 -0.118178,0 -0.1781489,0.05115 -0.059971,0.04939 -0.059971,0.132289 0,0.0635 0.026458,0.105831 0.026458,0.04233 0.086429,0.07585 0.059971,0.03351 0.1622742,0.07232 0.1111226,0.04057 0.1869681,0.08819 0.077609,0.04586 0.1164141,0.111123 0.040569,0.06526 0.040569,0.164038 z"
       id="path4161" />
    <path
       d="m 9.7473986,14.069658 q 0.035277,0 0.072318,-0.0053 0.037041,-0.0071 0.059971,-0.01411 v 0.118178 q -0.024694,0.01235 -0.070554,0.0194 -0.04586,0.0088 -0.088192,0.0088 -0.074082,0 -0.1375803,-0.02469 -0.061735,-0.02646 -0.1005394,-0.08996 -0.038805,-0.0635 -0.038805,-0.178149 V 13.353535 H 9.3099638 v -0.07408 l 0.1358164,-0.06173 0.061735,-0.201079 h 0.09172 v 0.216953 h 0.2733967 v 0.119942 H 9.5992352 v 0.546794 q 0,0.08643 0.040568,0.128761 0.042332,0.04057 0.1075949,0.04057 z"
       id="path4163" />
    <path
       d="m 10.426481,13.217719 q 0.172857,0 0.255758,0.07584 0.0829,0.07585 0.0829,0.241648 v 0.643805 h -0.112886 l -0.02999,-0.134053 h -0.0071 q -0.06174,0.07761 -0.130525,0.114651 -0.06703,0.03704 -0.186968,0.03704 -0.128761,0 -0.213426,-0.06703 -0.084665,-0.06879 -0.084665,-0.213426 0,-0.141108 0.111123,-0.216953 0.111122,-0.07761 0.342186,-0.08466 l 0.160511,-0.0053 v -0.05644 q 0,-0.118178 -0.05115,-0.164038 -0.05115,-0.04586 -0.144636,-0.04586 -0.07408,0 -0.141108,0.02293 -0.06703,0.02117 -0.125233,0.04939 l -0.04762,-0.116414 q 0.06174,-0.03351 0.1464,-0.05644 0.08467,-0.02469 0.176385,-0.02469 z m 0.04586,0.504461 q -0.176385,0.0071 -0.245175,0.05644 -0.06703,0.04939 -0.06703,0.139344 0,0.07937 0.04762,0.116414 0.04939,0.03704 0.125234,0.03704 0.119941,0 0.199315,-0.06526 0.07937,-0.06703 0.07937,-0.204607 v -0.08466 z"
       id="path4165" />
    <path
       d="m 11.498903,13.215955 q 0.02646,0 0.05644,0.0035 0.03175,0.0018 0.05468,0.0071 l -0.0194,0.142872 q -0.02293,-0.0053 -0.05115,-0.0088 -0.02646,-0.0035 -0.05115,-0.0035 -0.07232,0 -0.135817,0.04057 -0.0635,0.0388 -0.102303,0.111122 -0.03704,0.07055 -0.03704,0.165802 v 0.504461 H 11.05794 v -0.945424 h 0.126997 l 0.01764,0.172858 h 0.0071 q 0.04586,-0.07761 0.118178,-0.134053 0.07232,-0.05644 0.171094,-0.05644 z"
       id="path4167" />
    <path
       d="m 12.10214,14.069658 q 0.03528,0 0.07232,-0.0053 0.03704,-0.0071 0.05997,-0.01411 v 0.118178 q -0.02469,0.01235 -0.07055,0.0194 -0.04586,0.0088 -0.08819,0.0088 -0.07408,0 -0.13758,-0.02469 -0.06174,-0.02646 -0.10054,-0.08996 -0.0388,-0.0635 -0.0388,-0.178149 v -0.550321 h -0.134052 v -0.07408 l 0.135816,-0.06173 0.06174,-0.201079 h 0.09172 v 0.216953 h 0.273397 v 0.119942 h -0.273397 v 0.546794 q 0,0.08643 0.04057,0.128761 0.04233,0.04057 0.107595,0.04057 z"
       id="path4169" />
  </g>
  <text
     xml:space="preserve"
     transform="scale(0.26457812)"
     id="text3806"
     style="font-size:6.66667px;white-space:pre;shape-inside:url(#rect3808);display:inline;fill:#999999;stroke-width:2" />
</svg>
