<?xml version="1.0" encoding="UTF-8" standalone="no"?>
<svg
   width="64"
   height="64"
   version="1.1"
   viewBox="0 0 16.933 16.933"
   id="svg7"
   sodipodi:docname="Multimedia Template.svg"
   inkscape:version="1.4 (e7c3feb100, 2024-10-09)"
   xmlns:inkscape="http://www.inkscape.org/namespaces/inkscape"
   xmlns:sodipodi="http://sodipodi.sourceforge.net/DTD/sodipodi-0.dtd"
   xmlns:xlink="http://www.w3.org/1999/xlink"
   xmlns="http://www.w3.org/2000/svg"
   xmlns:svg="http://www.w3.org/2000/svg"
   xmlns:rdf="http://www.w3.org/1999/02/22-rdf-syntax-ns#"
   xmlns:cc="http://creativecommons.org/ns#"
   xmlns:dc="http://purl.org/dc/elements/1.1/">
  <sodipodi:namedview
     id="namedview7"
     pagecolor="#9c4444"
     bordercolor="#000000"
     borderopacity="0.25"
     inkscape:showpageshadow="2"
     inkscape:pageopacity="0.0"
     inkscape:pagecheckerboard="0"
     inkscape:deskcolor="#d1d1d1"
     inkscape:zoom="6.15625"
     inkscape:cx="15.675127"
     inkscape:cy="29.807107"
     inkscape:window-width="1183"
     inkscape:window-height="973"
     inkscape:window-x="35"
     inkscape:window-y="32"
     inkscape:window-maximized="0"
     inkscape:current-layer="svg7"
     showgrid="false" />
  <defs
     id="defs2">
    <rect
       x="67.489848"
       y="35.60533"
       width="15.337563"
       height="22.51269"
       id="rect3808" />
    <linearGradient
       inkscape:collect="always"
       id="linearGradient1134">
      <stop
         style="stop-color:#161616;stop-opacity:1;"
         offset="0"
         id="stop1130" />
      <stop
         style="stop-color:#404040;stop-opacity:1;"
         offset="1"
         id="stop1132" />
    </linearGradient>
    <linearGradient
       inkscape:collect="always"
       id="linearGradient883">
      <stop
         style="stop-color:#808080;stop-opacity:1;"
         offset="0"
         id="stop879" />
      <stop
         style="stop-color:#3e3e3e;stop-opacity:1;"
         offset="0.5"
         id="stop1216" />
      <stop
         style="stop-color:#242424;stop-opacity:1;"
         offset="1"
         id="stop881" />
    </linearGradient>
    <linearGradient
       inkscape:collect="always"
       xlink:href="#linearGradient883"
       id="linearGradient885"
       x1="2.1085808"
       y1="2.0236168"
       x2="14.846128"
       y2="15.071845"
       gradientUnits="userSpaceOnUse" />
    <linearGradient
       inkscape:collect="always"
       xlink:href="#linearGradient1134"
       id="linearGradient1136"
       x1="14.971222"
       y1="14.703373"
       x2="2.0756054"
       y2="2.0069976"
       gradientUnits="userSpaceOnUse" />
    <filter
       style="color-interpolation-filters:sRGB;"
       inkscape:label="Blur"
       id="filter1283"
       x="-0.082344266"
       y="-0.082344266"
       width="1.1646885"
       height="1.1646885">
      <feGaussianBlur
         stdDeviation="0.5 0.5"
         result="blur"
         id="feGaussianBlur1281" />
    </filter>
    <filter
       style="color-interpolation-filters:sRGB;"
       inkscape:label="Blur"
       id="filter1694"
       x="-0.94955398"
       y="-0.2118907"
       width="2.899108"
       height="1.4237814">
      <feGaussianBlur
         stdDeviation="0.2 0.2"
         result="blur"
         id="feGaussianBlur1692" />
    </filter>
    <filter
       style="color-interpolation-filters:sRGB;"
       inkscape:label="Blur"
       id="filter3148"
       x="-0.94955398"
       y="-0.2118907"
       width="2.899108"
       height="1.4237814">
      <feGaussianBlur
         stdDeviation="0.2 0.2"
         result="blur"
         id="feGaussianBlur3146" />
    </filter>
    <clipPath
       clipPathUnits="userSpaceOnUse"
       id="clipPath44">
      <path
         id="path46"
         style="display:block;opacity:0.85;fill:#f2f2f2;stroke-width:4.39162"
         d="m 17.570312,8.4453125 a 6.5431988,7.4283052 9.9958727e-8 0 0 -6.535156,7.4394535 6.5431988,7.4283052 9.9958727e-8 0 0 6.552735,7.417968 6.5431988,7.4283052 9.9958727e-8 0 0 6.535156,-7.4375 6.5431988,7.4283052 9.9958727e-8 0 0 -6.552735,-7.4199215 z M 45.646484,41.177734 a 6.5431986,7.0703472 2.4665357e-6 0 0 -6.533203,7.080078 6.5431986,7.0703472 2.4665357e-6 0 0 6.550781,7.060547 6.5431986,7.0703472 2.4665357e-6 0 0 6.535157,-7.080078 6.5431986,7.0703472 2.4665357e-6 0 0 -6.552735,-7.060547 z" />
    </clipPath>
    <inkscape:path-effect
       effect="powerclip"
       id="path-effect48"
       is_visible="true"
       lpeversion="1"
       inverse="true"
       flatten="false"
       hide_clip="false"
       message="" />
  </defs>
  <metadata
     id="metadata2">
    <rdf:RDF>
      <cc:Work
         rdf:about="">
        <dc:format>image/svg+xml</dc:format>
        <dc:type
           rdf:resource="http://purl.org/dc/dcmitype/StillImage" />
      </cc:Work>
    </rdf:RDF>
  </metadata>
  <rect
     style="fill:#000000;stroke:none;stroke-width:0.539739;stroke-dasharray:none;filter:url(#filter1283)"
     id="rect246-1"
     width="14.572964"
     height="14.572964"
     x="1.1932471"
     y="1.2138842"
     rx="2.1589575"
     ry="2.1589575" />
  <rect
     style="opacity:1;fill:#000000;stroke:url(#linearGradient885);stroke-width:0.52915625;stroke-dasharray:none"
     id="rect246"
     width="14.287219"
     height="14.287219"
     x="1.3361193"
     y="1.3567564"
     rx="2.1166251"
     ry="2.1166251" />
  <rect
     style="fill:url(#linearGradient1136);fill-opacity:1;stroke:none;stroke-width:0.478315;stroke-dasharray:none"
     id="rect246-5"
     width="12.914515"
     height="12.914515"
     x="2.0224717"
     y="2.0431087"
     rx="1.5874687"
     ry="1.5874687" />
  <path
     d="m 10.342696,7.5432001 c 0.846076,0.061759 1.514242,0.7634748 1.514242,1.6240359 0,0.901734 -0.730688,1.633441 -1.632422,1.633441 -0.8608152,0 -1.5648181,-0.669694 -1.6240356,-1.5152595 C 9.5296627,9.218066 10.275347,8.4713661 10.342696,7.5432002 h -9.9e-4 z m -3.7978025,0 C 5.7216928,7.6265626 5.0766534,8.3214157 5.0766534,9.167236 c 0,0.901734 0.7304348,1.632423 1.6321687,1.632423 0.8620858,0 1.5640556,-0.668676 1.6250522,-1.5142415 C 7.4044377,9.218066 6.6587539,8.4713661 6.5914035,7.5419294 c -0.016265,0.0023 -0.031515,-0.00102 -0.048036,0 z M 10.032376,7.6702765 C 9.967063,8.4639955 9.5217843,8.9092709 8.7283193,8.9745885 v -1.304312 z m -1.8268489,0 v 1.304312 C 7.4118083,8.9092709 6.9665328,8.4639955 6.9012155,7.6702765 Z M 10.226041,4.0188649 c 0.901733,0 1.632423,0.7314513 1.632423,1.6331852 0,0.8610692 -0.669692,1.5632931 -1.515257,1.6242897 C 10.275855,6.3469034 9.5301712,5.6012193 8.6009885,5.533869 8.6619852,4.6880488 9.3639551,4.0188649 10.225786,4.0188649 Z m -3.5172189,0 c -0.9017339,0 -1.6321687,0.7304347 -1.6321687,1.6321683 0,0.8620861 0.6691839,1.5640558 1.5150042,1.6250525 C 6.6590081,6.3466494 7.4046919,5.6009653 8.3341285,5.5336146 8.2731317,4.6880488 7.5709079,4.0186105 6.7098386,4.0186105 Z M 10.032376,7.1487552 H 8.7283193 V 5.8444435 c 0.793465,0.065317 1.2387396,0.5105928 1.3040567,1.3043117 z m -1.8268489,0 H 6.9012155 C 6.9665328,6.3550363 7.4118083,5.9097608 8.2055271,5.8444435 Z"
     fill="#ffffff"
     fill-opacity="0.56"
     fill-rule="nonzero"
     id="path2"
     style="fill:#999999;fill-opacity:1;stroke-width:0.254153" />
  <g
     aria-label="Krita"
     id="text1450"
     style="font-size:1.76385px;opacity:1;fill:#ff7f2a;stroke-width:0.529156">
    <rect
       style="font-size:1.76385px;fill:#ff7f2a;fill-opacity:1;stroke:none;stroke-width:0.519976;stroke-dasharray:none;filter:url(#filter3148)"
       id="rect1656-3"
       width="0.5055005"
       height="2.2653189"
       x="15.369148"
       y="4.3016486"
       rx="0"
       ry="0" />
    <rect
       style="opacity:1;fill:#ff7f2a;fill-opacity:1;stroke:none;stroke-width:0.519976;stroke-dasharray:none"
       id="rect1656"
       width="0.5055005"
       height="2.2653189"
       x="15.369148"
       y="4.3016486"
       rx="0"
       ry="0" />
  </g>
  <path
     style="font-size:1.76385px;text-align:center;text-anchor:middle;fill:#999999;stroke-width:0.529156"
     d="m 3.880659,14.179017 v -1.259389 h 0.1587465 v 1.118281 h 0.5503212 v 0.141108 z M 4.8631238,12.87906 q 0.035277,0 0.061735,0.02469 0.028222,0.02293 0.028222,0.07408 0,0.04939 -0.028222,0.07408 -0.026458,0.02469 -0.061735,0.02469 -0.038805,0 -0.065263,-0.02469 -0.026458,-0.02469 -0.026458,-0.07408 0,-0.05115 0.026458,-0.07408 0.026458,-0.02469 0.065263,-0.02469 z m 0.075845,0.354533 v 0.945424 H 4.7837505 v -0.945424 z m 0.6349849,-0.01764 q 0.093484,0 0.1675658,0.03528 0.075845,0.03528 0.128761,0.107595 h 0.00882 l 0.021166,-0.125234 H 6.023736 v 0.961299 q 0,0.202842 -0.1040672,0.305146 -0.1023033,0.102303 -0.3192568,0.102303 -0.2081343,0 -0.3404231,-0.05997 v -0.142872 q 0.1393442,0.07408 0.3492423,0.07408 0.1217057,0 0.1904958,-0.07232 0.070554,-0.07055 0.070554,-0.194023 v -0.03704 q 0,-0.02117 0.00176,-0.05997 0.00176,-0.04057 0.00353,-0.05644 h -0.00706 q -0.095248,0.142872 -0.2927991,0.142872 -0.1834404,0 -0.2875076,-0.128761 -0.1023033,-0.128762 -0.1023033,-0.359826 0,-0.225773 0.1023033,-0.358061 0.1040672,-0.134053 0.2857437,-0.134053 z m 0.021166,0.130525 q -0.1181779,0 -0.1834404,0.09525 -0.065262,0.09348 -0.065262,0.268105 0,0.174621 0.063499,0.268105 0.065262,0.09172 0.1887319,0.09172 0.1428719,0 0.2081343,-0.07585 0.065262,-0.07761 0.065262,-0.248703 v -0.03704 q 0,-0.194023 -0.067026,-0.276924 -0.067026,-0.08467 -0.2098982,-0.08467 z m 0.8836885,-0.11465 q 0,0.07055 -0.00882,0.132288 h 0.010583 q 0.04586,-0.07232 0.1234695,-0.109358 0.079373,-0.03704 0.1710935,-0.03704 0.1728573,0 0.2592859,0.0829 0.086429,0.08114 0.086429,0.262813 v 0.615584 h -0.153455 v -0.605 q 0,-0.227537 -0.211662,-0.227537 -0.1587465,0 -0.2187174,0.08996 -0.058207,0.08819 -0.058207,0.253995 v 0.488586 H 6.3235901 v -1.340526 h 0.1552188 z m 1.2505696,0.837828 q 0.035277,0 0.072318,-0.0053 0.037041,-0.0071 0.059971,-0.01411 v 0.118178 q -0.024694,0.01235 -0.070554,0.0194 -0.04586,0.0088 -0.088192,0.0088 -0.074082,0 -0.1375803,-0.02469 -0.061735,-0.02646 -0.1005395,-0.08996 -0.038805,-0.0635 -0.038805,-0.178149 V 13.353535 H 7.2919437 v -0.07408 l 0.1358165,-0.06173 0.061735,-0.201079 h 0.09172 v 0.216953 h 0.2733968 v 0.119942 H 7.5812151 v 0.546794 q 0,0.08643 0.040569,0.128761 0.042332,0.04057 0.1075948,0.04057 z m 0.9313129,-0.425087 q -0.02293,-0.07232 -0.040568,-0.141108 -0.015875,-0.07055 -0.024694,-0.109359 h -0.00706 q -0.00706,0.0388 -0.02293,0.109359 -0.015875,0.06879 -0.040569,0.142871 L 8.3555454,14.177253 H 8.1791604 L 7.9198745,13.23183 h 0.1605103 l 0.1305249,0.504461 q 0.019402,0.07585 0.037041,0.153455 0.017639,0.07761 0.024694,0.128761 h 0.00706 q 0.00706,-0.02999 0.015875,-0.07408 0.010583,-0.0441 0.02293,-0.09172 0.012347,-0.04939 0.024694,-0.08819 L 8.5107642,13.23183 h 0.1693296 l 0.1622742,0.532682 q 0.019402,0.05997 0.037041,0.130525 0.019402,0.07055 0.026458,0.121706 h 0.00706 q 0.00529,-0.0441 0.02293,-0.121706 0.019402,-0.07761 0.040569,-0.158746 L 9.1087093,13.23183 H 9.2674558 L 9.0046422,14.177253 H 8.8229656 Z m 1.5980466,0.05997 q 0,0.234592 -0.119941,0.363354 -0.118178,0.128761 -0.3210211,0.128761 -0.1252333,0 -0.2240089,-0.05644 -0.097012,-0.05821 -0.153455,-0.167565 -0.056443,-0.111123 -0.056443,-0.268106 0,-0.234592 0.118178,-0.361589 0.1181779,-0.126997 0.3210207,-0.126997 0.128761,0 0.2257725,0.05821 0.09878,0.05644 0.153455,0.165802 0.05644,0.107595 0.05644,0.264577 z m -0.7143588,0 q 0,0.167566 0.065262,0.266342 0.067026,0.09701 0.211662,0.09701 0.1428719,0 0.2098984,-0.09701 0.06703,-0.09878 0.06703,-0.266342 0,-0.167565 -0.06703,-0.262813 -0.067027,-0.09525 -0.2116622,-0.09525 -0.1446357,0 -0.2098982,0.09525 -0.065262,0.09525 -0.065262,0.262813 z m 1.4004958,-0.488586 q 0.02646,0 0.05644,0.0035 0.03175,0.0018 0.05468,0.0071 l -0.0194,0.142872 q -0.02293,-0.0053 -0.05115,-0.0088 -0.02646,-0.0035 -0.05115,-0.0035 -0.07232,0 -0.135817,0.04057 -0.0635,0.0388 -0.102303,0.111122 -0.03704,0.07055 -0.03704,0.165802 v 0.504461 h -0.155219 v -0.945424 h 0.126998 l 0.01764,0.172858 h 0.0071 q 0.04586,-0.07761 0.118178,-0.134053 0.07232,-0.05644 0.171093,-0.05644 z m 0.440963,0.322785 q 0,0.02822 -0.0035,0.07408 -0.0018,0.04586 -0.0035,0.07937 h 0.0071 q 0.01058,-0.01411 0.03175,-0.04057 0.02117,-0.02646 0.04233,-0.05292 0.02293,-0.02822 0.0388,-0.04586 l 0.301619,-0.319257 h 0.181676 l -0.382755,0.403922 0.409213,0.541502 h -0.186968 l -0.328076,-0.440962 -0.107595,0.09348 v 0.347478 h -0.153455 v -1.340526 h 0.153455 z m 1.404025,0.379227 q 0,0.137581 -0.102303,0.208135 -0.102303,0.07055 -0.275161,0.07055 -0.09877,0 -0.171093,-0.01588 -0.07055,-0.01587 -0.125233,-0.0441 v -0.141108 q 0.05644,0.02822 0.135816,0.05291 0.08114,0.02293 0.164038,0.02293 0.118178,0 0.171094,-0.03704 0.05292,-0.0388 0.05292,-0.102303 0,-0.03528 -0.0194,-0.0635 -0.0194,-0.02822 -0.07055,-0.05644 -0.04939,-0.02822 -0.142872,-0.0635 -0.09172,-0.03528 -0.156983,-0.07055 -0.06526,-0.03528 -0.100539,-0.08466 -0.03528,-0.04939 -0.03528,-0.126997 0,-0.119942 0.09701,-0.185205 0.09877,-0.06526 0.257522,-0.06526 0.08643,0 0.16051,0.01764 0.07585,0.01587 0.141108,0.04586 l -0.05291,0.123469 q -0.05997,-0.02469 -0.125234,-0.04233 -0.06526,-0.01764 -0.134052,-0.01764 -0.09525,0 -0.1464,0.03175 -0.04939,0.02999 -0.04939,0.0829 0,0.0388 0.02293,0.06703 0.02293,0.02646 0.07585,0.05292 0.05468,0.02469 0.144636,0.05997 0.08996,0.03351 0.153454,0.06879 0.0635,0.03528 0.09701,0.08643 0.03351,0.04939 0.03351,0.125233 z"
     id="text2284"
     aria-label="Lightworks" />
  <text
     xml:space="preserve"
     transform="scale(0.26457812)"
     id="text3806"
     style="font-size:6.66667px;white-space:pre;shape-inside:url(#rect3808);display:inline;fill:#999999;stroke-width:2" />
</svg>
