<?xml version="1.0" encoding="UTF-8" standalone="no"?>
<svg
   width="64"
   height="64"
   version="1.1"
   viewBox="0 0 16.933 16.933"
   id="svg7"
   sodipodi:docname="Development Template.svg"
   inkscape:version="1.4 (e7c3feb100, 2024-10-09)"
   xmlns:inkscape="http://www.inkscape.org/namespaces/inkscape"
   xmlns:sodipodi="http://sodipodi.sourceforge.net/DTD/sodipodi-0.dtd"
   xmlns:xlink="http://www.w3.org/1999/xlink"
   xmlns="http://www.w3.org/2000/svg"
   xmlns:svg="http://www.w3.org/2000/svg"
   xmlns:rdf="http://www.w3.org/1999/02/22-rdf-syntax-ns#"
   xmlns:cc="http://creativecommons.org/ns#"
   xmlns:dc="http://purl.org/dc/elements/1.1/">
  <sodipodi:namedview
     id="namedview7"
     pagecolor="#9c4444"
     bordercolor="#000000"
     borderopacity="0.25"
     inkscape:showpageshadow="2"
     inkscape:pageopacity="0.0"
     inkscape:pagecheckerboard="0"
     inkscape:deskcolor="#d1d1d1"
     inkscape:zoom="6.15625"
     inkscape:cx="15.756345"
     inkscape:cy="29.563452"
     inkscape:window-width="1226"
     inkscape:window-height="669"
     inkscape:window-x="278"
     inkscape:window-y="140"
     inkscape:window-maximized="0"
     inkscape:current-layer="svg7"
     showgrid="false" />
  <defs
     id="defs2">
    <rect
       x="67.489848"
       y="35.60533"
       width="15.337563"
       height="22.51269"
       id="rect3808" />
    <linearGradient
       inkscape:collect="always"
       id="linearGradient1134">
      <stop
         style="stop-color:#161616;stop-opacity:1;"
         offset="0"
         id="stop1130" />
      <stop
         style="stop-color:#404040;stop-opacity:1;"
         offset="1"
         id="stop1132" />
    </linearGradient>
    <linearGradient
       inkscape:collect="always"
       id="linearGradient883">
      <stop
         style="stop-color:#808080;stop-opacity:1;"
         offset="0"
         id="stop879" />
      <stop
         style="stop-color:#3e3e3e;stop-opacity:1;"
         offset="0.5"
         id="stop1216" />
      <stop
         style="stop-color:#242424;stop-opacity:1;"
         offset="1"
         id="stop881" />
    </linearGradient>
    <linearGradient
       inkscape:collect="always"
       xlink:href="#linearGradient883"
       id="linearGradient885"
       x1="2.1085808"
       y1="2.0236168"
       x2="14.846128"
       y2="15.071845"
       gradientUnits="userSpaceOnUse" />
    <linearGradient
       inkscape:collect="always"
       xlink:href="#linearGradient1134"
       id="linearGradient1136"
       x1="14.971222"
       y1="14.703373"
       x2="2.0756054"
       y2="2.0069976"
       gradientUnits="userSpaceOnUse" />
    <filter
       style="color-interpolation-filters:sRGB;"
       inkscape:label="Blur"
       id="filter1283"
       x="-0.082344266"
       y="-0.082344266"
       width="1.1646885"
       height="1.1646885">
      <feGaussianBlur
         stdDeviation="0.5 0.5"
         result="blur"
         id="feGaussianBlur1281" />
    </filter>
    <filter
       style="color-interpolation-filters:sRGB;"
       inkscape:label="Blur"
       id="filter1694"
       x="-0.94955398"
       y="-0.2118907"
       width="2.899108"
       height="1.4237814">
      <feGaussianBlur
         stdDeviation="0.2 0.2"
         result="blur"
         id="feGaussianBlur1692" />
    </filter>
    <filter
       style="color-interpolation-filters:sRGB;"
       inkscape:label="Blur"
       id="filter3148"
       x="-0.94955398"
       y="-0.2118907"
       width="2.899108"
       height="1.4237814">
      <feGaussianBlur
         stdDeviation="0.2 0.2"
         result="blur"
         id="feGaussianBlur3146" />
    </filter>
    <clipPath
       clipPathUnits="userSpaceOnUse"
       id="clipPath44">
      <path
         id="path46"
         style="display:block;opacity:0.85;fill:#f2f2f2;stroke-width:4.39162"
         d="m 17.570312,8.4453125 a 6.5431988,7.4283052 9.9958727e-8 0 0 -6.535156,7.4394535 6.5431988,7.4283052 9.9958727e-8 0 0 6.552735,7.417968 6.5431988,7.4283052 9.9958727e-8 0 0 6.535156,-7.4375 6.5431988,7.4283052 9.9958727e-8 0 0 -6.552735,-7.4199215 z M 45.646484,41.177734 a 6.5431986,7.0703472 2.4665357e-6 0 0 -6.533203,7.080078 6.5431986,7.0703472 2.4665357e-6 0 0 6.550781,7.060547 6.5431986,7.0703472 2.4665357e-6 0 0 6.535157,-7.080078 6.5431986,7.0703472 2.4665357e-6 0 0 -6.552735,-7.060547 z" />
    </clipPath>
    <inkscape:path-effect
       effect="powerclip"
       id="path-effect48"
       is_visible="true"
       lpeversion="1"
       inverse="true"
       flatten="false"
       hide_clip="false"
       message="" />
  </defs>
  <metadata
     id="metadata2">
    <rdf:RDF>
      <cc:Work
         rdf:about="">
        <dc:format>image/svg+xml</dc:format>
        <dc:type
           rdf:resource="http://purl.org/dc/dcmitype/StillImage" />
      </cc:Work>
    </rdf:RDF>
  </metadata>
  <rect
     style="fill:#000000;stroke:none;stroke-width:0.539739;stroke-dasharray:none;filter:url(#filter1283)"
     id="rect246-1"
     width="14.572964"
     height="14.572964"
     x="1.1932471"
     y="1.2138842"
     rx="2.1589575"
     ry="2.1589575" />
  <rect
     style="opacity:1;fill:#000000;stroke:url(#linearGradient885);stroke-width:0.52915625;stroke-dasharray:none"
     id="rect246"
     width="14.287219"
     height="14.287219"
     x="1.3361193"
     y="1.3567564"
     rx="2.1166251"
     ry="2.1166251" />
  <rect
     style="fill:url(#linearGradient1136);fill-opacity:1;stroke:none;stroke-width:0.478315;stroke-dasharray:none"
     id="rect246-5"
     width="12.914515"
     height="12.914515"
     x="2.0224717"
     y="2.0431087"
     rx="1.5874687"
     ry="1.5874687" />
  <g
     fill="#474747"
     id="g9"
     transform="matrix(0.46959567,0,0,0.46959567,4.7471229,3.7470598)"
     style="fill:#999999;fill-opacity:1;stroke:none;stroke-width:0.58349;stroke-dasharray:none;stroke-opacity:0.3" />
  <g
     aria-label="Krita"
     id="text1450"
     style="font-size:1.76385px;opacity:1;fill:#8a916f;stroke-width:0.529156">
    <rect
       style="font-size:1.76385px;fill:#8a916f;fill-opacity:1;stroke:none;stroke-width:0.519976;stroke-dasharray:none;filter:url(#filter3148)"
       id="rect1656-3"
       width="0.5055005"
       height="2.2653189"
       x="15.369148"
       y="4.3016486"
       rx="0"
       ry="0" />
    <rect
       style="opacity:1;fill:#8a916f;fill-opacity:1;stroke:none;stroke-width:0.519976;stroke-dasharray:none"
       id="rect1656"
       width="0.5055005"
       height="2.2653189"
       x="15.369148"
       y="4.3016486"
       rx="0"
       ry="0" />
  </g>
  <text
     xml:space="preserve"
     transform="scale(0.26457812)"
     id="text3806"
     style="font-size:6.66667px;white-space:pre;shape-inside:url(#rect3808);display:inline;fill:#999999;stroke-width:2" />
  <path
     d="M 6.5209422,10.087502 V 3.7219274 h 0.8023833 v 5.6523445 h 2.7815955 v 0.7132301 z"
     id="text1"
     style="font-size:8.91537px;opacity:1;fill:#999999;stroke-width:0.66865;stroke-opacity:0.6"
     aria-label="L" />
  <path
     d="m 5.0418862,13.508026 q 0,0.231064 -0.093484,0.393339 -0.09172,0.162274 -0.2733968,0.224009 l 0.3016184,0.313965 H 4.7490871 l -0.2434113,-0.28398 q -0.010583,0 -0.02293,0 -0.010583,0.0018 -0.021166,0.0018 -0.1957874,0 -0.3263123,-0.08114 -0.128761,-0.08114 -0.1922596,-0.227537 -0.063499,-0.146399 -0.063499,-0.342187 0,-0.194023 0.063499,-0.338659 0.063499,-0.144636 0.1922596,-0.225773 0.1305249,-0.08114 0.3280761,-0.08114 0.188732,0 0.317493,0.08114 0.1287611,0.07937 0.1940235,0.225773 0.067026,0.144636 0.067026,0.340423 z m -0.9948114,0 q 0,0.23812 0.1005395,0.3757 0.1005394,0.135817 0.3139653,0.135817 0.2151897,0 0.3139653,-0.135817 0.098776,-0.13758 0.098776,-0.3757 0,-0.23812 -0.098776,-0.372172 -0.098776,-0.135817 -0.3122015,-0.135817 -0.2134258,0 -0.3157291,0.135817 -0.1005395,0.134052 -0.1005395,0.372172 z m 1.6192134,0.631458 H 5.5075417 V 13.01944 H 5.1142032 V 12.880096 H 6.0578629 V 13.01944 H 5.6662882 Z m 1.0406715,0 v -1.259388 h 0.1587465 v 1.11828 h 0.5503212 v 0.141108 z m 0.9824646,-1.299957 q 0.035277,0 0.061735,0.02469 0.028222,0.02293 0.028222,0.07408 0,0.04939 -0.028222,0.07408 -0.026458,0.02469 -0.061735,0.02469 -0.038805,0 -0.065262,-0.02469 -0.026458,-0.02469 -0.026458,-0.07408 0,-0.05115 0.026458,-0.07408 0.026458,-0.02469 0.065262,-0.02469 z m 0.075845,0.354534 v 0.945423 H 7.610051 v -0.945423 z m 0.7549269,-0.01764 q 0.1693296,0 0.2557583,0.0829 0.086429,0.08114 0.086429,0.264578 v 0.615583 H 8.7089287 v -0.605 q 0,-0.227537 -0.211662,-0.227537 -0.1569827,0 -0.2169536,0.08819 -0.059971,0.08819 -0.059971,0.253994 v 0.49035 H 8.0651234 v -0.945423 h 0.1252334 l 0.02293,0.128761 h 0.00882 q 0.04586,-0.07408 0.1269972,-0.109359 0.081137,-0.03704 0.1710934,-0.03704 z m 0.9701175,0 q 0.093484,0 0.1675658,0.03528 0.075845,0.03528 0.128761,0.107595 h 0.00882 l 0.021166,-0.125233 h 0.1234695 v 0.961298 q 0,0.202843 -0.1040671,0.305146 -0.1023033,0.102303 -0.3192568,0.102303 -0.2081343,0 -0.3404231,-0.05997 v -0.142872 q 0.1393442,0.07408 0.3492423,0.07408 0.1217057,0 0.1904958,-0.07232 0.070554,-0.07055 0.070554,-0.194024 v -0.03704 q 0,-0.02117 0.00176,-0.05997 0.00176,-0.04057 0.00353,-0.05644 h -0.00706 q -0.095248,0.142872 -0.292799,0.142872 -0.1834404,0 -0.2875076,-0.128761 -0.1023033,-0.128761 -0.1023033,-0.359826 0,-0.225772 0.1023033,-0.358061 0.1040672,-0.134053 0.2857437,-0.134053 z m 0.021166,0.130525 q -0.1181779,0 -0.1834404,0.09525 -0.065262,0.09348 -0.065262,0.268105 0,0.174621 0.063499,0.268106 0.065262,0.09172 0.1887319,0.09172 0.1428719,0 0.2081343,-0.07585 0.065262,-0.07761 0.065262,-0.248703 v -0.03704 q 0,-0.194023 -0.067026,-0.276924 -0.067026,-0.08467 -0.2098982,-0.08467 z m 1.5186746,-0.112886 v 0.945423 h -0.126997 l -0.02293,-0.125233 h -0.0071 q -0.04586,0.07408 -0.126997,0.109359 -0.08114,0.03351 -0.172857,0.03351 -0.171094,0 -0.257522,-0.08114 -0.08643,-0.0829 -0.08643,-0.262814 v -0.619111 h 0.156983 v 0.608528 q 0,0.225773 0.209898,0.225773 0.156982,0 0.216953,-0.08819 0.06174,-0.08819 0.06174,-0.253994 v -0.492114 z m 0.379228,-0.354534 q 0.03528,0 0.06173,0.02469 0.02822,0.02293 0.02822,0.07408 0,0.04939 -0.02822,0.07408 -0.02646,0.02469 -0.06173,0.02469 -0.0388,0 -0.06526,-0.02469 -0.02646,-0.02469 -0.02646,-0.07408 0,-0.05115 0.02646,-0.07408 0.02646,-0.02469 0.06526,-0.02469 z m 0.07584,0.354534 v 0.945423 h -0.155219 v -0.945423 z m 0.915437,0.684374 q 0,0.13758 -0.102303,0.208134 -0.102303,0.07055 -0.275161,0.07055 -0.09877,0 -0.171093,-0.01588 -0.07055,-0.01587 -0.125233,-0.0441 v -0.141108 q 0.05644,0.02822 0.135816,0.05292 0.08114,0.02293 0.164038,0.02293 0.118178,0 0.171094,-0.03704 0.05292,-0.0388 0.05292,-0.102304 0,-0.03528 -0.0194,-0.0635 -0.0194,-0.02822 -0.07055,-0.05644 -0.04939,-0.02822 -0.142872,-0.0635 -0.09172,-0.03528 -0.156983,-0.07055 -0.06526,-0.03528 -0.100539,-0.08466 -0.03528,-0.04939 -0.03528,-0.126997 0,-0.119942 0.09701,-0.185204 0.09877,-0.06526 0.257522,-0.06526 0.08643,0 0.16051,0.01764 0.07585,0.01587 0.141108,0.04586 l -0.05292,0.123469 q -0.05997,-0.02469 -0.125234,-0.04233 -0.06526,-0.01764 -0.134052,-0.01764 -0.09525,0 -0.1464,0.03175 -0.04939,0.02998 -0.04939,0.0829 0,0.0388 0.02293,0.06703 0.02293,0.02646 0.07585,0.05292 0.05468,0.02469 0.144636,0.05997 0.08996,0.03351 0.153454,0.06879 0.0635,0.03528 0.09701,0.08643 0.03351,0.04939 0.03351,0.125234 z m 0.54503,0.151691 q 0.03528,0 0.07232,-0.0053 0.03704,-0.0071 0.05997,-0.01411 v 0.118178 q -0.02469,0.01235 -0.07055,0.0194 -0.04586,0.0088 -0.08819,0.0088 -0.07408,0 -0.13758,-0.02469 -0.06173,-0.02646 -0.10054,-0.08996 -0.0388,-0.0635 -0.0388,-0.178149 V 13.314003 H 12.50826 v -0.07408 l 0.135816,-0.06174 0.06174,-0.201079 h 0.09172 v 0.216954 h 0.273397 v 0.119942 h -0.273397 v 0.546793 q 0,0.08643 0.04057,0.128761 0.04233,0.04057 0.107595,0.04057 z"
     id="text2"
     style="font-size:1.76385px;fill:#999999;stroke-width:0.132289;stroke-opacity:0.6"
     aria-label="QT Linguist" />
</svg>
