<?xml version="1.0" encoding="UTF-8" standalone="no"?>
<svg
   width="64"
   height="64"
   version="1.1"
   viewBox="0 0 16.933 16.933"
   id="svg7"
   sodipodi:docname="Internet Template.svg"
   inkscape:version="1.4 (e7c3feb100, 2024-10-09)"
   xmlns:inkscape="http://www.inkscape.org/namespaces/inkscape"
   xmlns:sodipodi="http://sodipodi.sourceforge.net/DTD/sodipodi-0.dtd"
   xmlns:xlink="http://www.w3.org/1999/xlink"
   xmlns="http://www.w3.org/2000/svg"
   xmlns:svg="http://www.w3.org/2000/svg"
   xmlns:rdf="http://www.w3.org/1999/02/22-rdf-syntax-ns#"
   xmlns:cc="http://creativecommons.org/ns#"
   xmlns:dc="http://purl.org/dc/elements/1.1/">
  <sodipodi:namedview
     id="namedview7"
     pagecolor="#9c4444"
     bordercolor="#000000"
     borderopacity="0.25"
     inkscape:showpageshadow="2"
     inkscape:pageopacity="0.0"
     inkscape:pagecheckerboard="0"
     inkscape:deskcolor="#d1d1d1"
     inkscape:zoom="6.15625"
     inkscape:cx="15.675127"
     inkscape:cy="29.807107"
     inkscape:window-width="1183"
     inkscape:window-height="973"
     inkscape:window-x="35"
     inkscape:window-y="32"
     inkscape:window-maximized="0"
     inkscape:current-layer="svg7"
     showgrid="false" />
  <defs
     id="defs2">
    <rect
       x="67.489848"
       y="35.60533"
       width="15.337563"
       height="22.51269"
       id="rect3808" />
    <linearGradient
       inkscape:collect="always"
       id="linearGradient1134">
      <stop
         style="stop-color:#161616;stop-opacity:1;"
         offset="0"
         id="stop1130" />
      <stop
         style="stop-color:#404040;stop-opacity:1;"
         offset="1"
         id="stop1132" />
    </linearGradient>
    <linearGradient
       inkscape:collect="always"
       id="linearGradient883">
      <stop
         style="stop-color:#808080;stop-opacity:1;"
         offset="0"
         id="stop879" />
      <stop
         style="stop-color:#3e3e3e;stop-opacity:1;"
         offset="0.5"
         id="stop1216" />
      <stop
         style="stop-color:#242424;stop-opacity:1;"
         offset="1"
         id="stop881" />
    </linearGradient>
    <linearGradient
       inkscape:collect="always"
       xlink:href="#linearGradient883"
       id="linearGradient885"
       x1="2.1085808"
       y1="2.0236168"
       x2="14.846128"
       y2="15.071845"
       gradientUnits="userSpaceOnUse" />
    <linearGradient
       inkscape:collect="always"
       xlink:href="#linearGradient1134"
       id="linearGradient1136"
       x1="14.971222"
       y1="14.703373"
       x2="2.0756054"
       y2="2.0069976"
       gradientUnits="userSpaceOnUse" />
    <filter
       style="color-interpolation-filters:sRGB;"
       inkscape:label="Blur"
       id="filter1283"
       x="-0.082344266"
       y="-0.082344266"
       width="1.1646885"
       height="1.1646885">
      <feGaussianBlur
         stdDeviation="0.5 0.5"
         result="blur"
         id="feGaussianBlur1281" />
    </filter>
    <filter
       style="color-interpolation-filters:sRGB;"
       inkscape:label="Blur"
       id="filter3148"
       x="-0.94955398"
       y="-0.2118907"
       width="2.899108"
       height="1.4237814">
      <feGaussianBlur
         stdDeviation="0.2 0.2"
         result="blur"
         id="feGaussianBlur3146" />
    </filter>
  </defs>
  <metadata
     id="metadata2">
    <rdf:RDF>
      <cc:Work
         rdf:about="">
        <dc:format>image/svg+xml</dc:format>
        <dc:type
           rdf:resource="http://purl.org/dc/dcmitype/StillImage" />
      </cc:Work>
    </rdf:RDF>
  </metadata>
  <rect
     style="fill:#000000;stroke:none;stroke-width:0.539739;stroke-dasharray:none;filter:url(#filter1283)"
     id="rect246-1"
     width="14.572964"
     height="14.572964"
     x="1.1932471"
     y="1.2138842"
     rx="2.1589575"
     ry="2.1589575" />
  <rect
     style="opacity:1;fill:#000000;stroke:url(#linearGradient885);stroke-width:0.52915625;stroke-dasharray:none"
     id="rect246"
     width="14.287219"
     height="14.287219"
     x="1.3361193"
     y="1.3567564"
     rx="2.1166251"
     ry="2.1166251" />
  <rect
     style="fill:url(#linearGradient1136);fill-opacity:1;stroke:none;stroke-width:0.478315;stroke-dasharray:none"
     id="rect246-5"
     width="12.914515"
     height="12.914515"
     x="2.0224717"
     y="2.0431087"
     rx="1.5874687"
     ry="1.5874687" />
  <path
     style="fill:#999999;fill-opacity:1;stroke-width:0.190949"
     d="M 8.4620244,3.7219885 A 3.8189736,3.8189736 0 0 0 4.6475263,7.5405888 3.8189736,3.8189736 0 0 0 8.4665002,11.359564 3.8189736,3.8189736 0 0 0 12.285474,7.5405888 3.8189736,3.8189736 0 0 0 10.357712,4.2284499 a 0.95483889,0.95483889 0 0 1 0.01081,0.1376174 v 0.726127 A 2.6732815,2.6732815 0 0 1 11.139782,6.9677431 2.6732815,2.6732815 0 0 1 8.4665004,9.641025 2.6732815,2.6732815 0 0 1 5.7932187,6.9677431 2.6732815,2.6732815 0 0 1 7.9544443,4.3463009 C 8.0765203,4.1945851 8.213581,4.0243188 8.2744327,3.9468753 8.3304271,3.8756124 8.3844033,3.8096264 8.4370375,3.7492136 c 0.0077,-0.00883 0.017286,-0.018551 0.024987,-0.027225 z m 0.8156345,0.5728458 c -0.01831,-0.0013 -0.03455,1.887e-4 -0.0455,0.00522 C 9.2127536,4.3089733 9.1200356,4.4161522 9.0251737,4.5368794 8.9303134,4.6576024 8.7232783,4.9153659 8.564958,5.1108408 8.4066373,5.3063153 8.1058388,5.6807807 7.8973833,5.9421388 7.4878568,6.455595 7.4225812,6.5590317 7.3551192,6.8028998 c -0.042132,0.1523106 -0.045841,0.3982575 -0.00821,0.5411455 0.1031828,0.3917119 0.448025,0.6853765 0.8928342,0.7608111 0.020221,0.00345 0.090082,0.00766 0.1547729,0.00858 0.2695275,0.00404 0.4990063,-0.090772 0.6933079,-0.2867956 C 9.1902342,7.7233253 9.2184411,7.6826457 9.2813883,7.550657 9.3219491,7.4656151 9.3660144,7.3523186 9.3798462,7.2992911 9.415331,7.1632793 9.4322405,6.8824383 9.4137846,6.2393769 V 4.3660673 c -0.00724,-0.037965 -0.081193,-0.067349 -0.1361257,-0.071233 z"
     id="path3-3" />
  <g
     aria-label="Krita"
     id="text1450"
     style="font-size:1.76385px;opacity:1;fill:#ffff00;stroke-width:0.529156">
    <rect
       style="font-size:1.76385px;fill:#ffff00;fill-opacity:1;stroke:none;stroke-width:0.519976;stroke-dasharray:none;filter:url(#filter3148)"
       id="rect1656-3"
       width="0.5055005"
       height="2.2653189"
       x="15.369148"
       y="4.3016486"
       rx="0"
       ry="0" />
    <rect
       style="opacity:1;fill:#ffff00;fill-opacity:1;stroke:none;stroke-width:0.519976;stroke-dasharray:none"
       id="rect1656"
       width="0.5055005"
       height="2.2653189"
       x="15.369148"
       y="4.3016486"
       rx="0"
       ry="0" />
  </g>
  <path
     d="m 4.2704655,14.179017 -0.4145047,-1.10417 h -0.00706 q 0.00529,0.05468 0.00882,0.148163 0.00353,0.09172 0.00353,0.19226 v 0.763747 H 3.7148528 v -1.259389 h 0.234592 l 0.388047,1.031852 h 0.00706 l 0.3951024,-1.031852 h 0.2328282 v 1.259389 H 4.8154952 v -0.77433 q 0,-0.09172 0.00353,-0.181677 0.00529,-0.08996 0.00882,-0.146399 h -0.00706 l -0.4197963,1.102406 z m 1.3810938,-0.961298 q 0.1728573,0 0.2557583,0.07584 0.082901,0.07585 0.082901,0.241648 v 0.643805 H 5.8773321 l -0.029985,-0.134053 h -0.00706 q -0.061735,0.07761 -0.1305249,0.114651 -0.067026,0.03704 -0.1869681,0.03704 -0.1287611,0 -0.2134259,-0.06703 -0.084665,-0.06879 -0.084665,-0.213426 0,-0.141108 0.1111226,-0.216953 0.1111225,-0.07761 0.3421869,-0.08466 l 0.1605103,-0.0053 v -0.05644 q 0,-0.118178 -0.051152,-0.164038 -0.051152,-0.04586 -0.1446357,-0.04586 -0.074082,0 -0.141108,0.02293 -0.067026,0.02117 -0.1252334,0.04939 l -0.047624,-0.116414 q 0.061735,-0.03351 0.1463995,-0.05644 0.084665,-0.02469 0.176385,-0.02469 z m 0.04586,0.504461 q -0.176385,0.0071 -0.2451751,0.05644 -0.067026,0.04939 -0.067026,0.139344 0,0.07937 0.047624,0.116414 0.049388,0.03704 0.1252334,0.03704 0.1199418,0 0.199315,-0.06526 0.079373,-0.06703 0.079373,-0.204607 v -0.08466 z m 0.9013289,0.347478 q 0.035277,0 0.072318,-0.0053 0.037041,-0.0071 0.059971,-0.01411 v 0.118178 q -0.024694,0.01235 -0.070554,0.0194 -0.04586,0.0088 -0.088193,0.0088 -0.074082,0 -0.1375803,-0.02469 -0.061735,-0.02646 -0.1005395,-0.08996 -0.038805,-0.0635 -0.038805,-0.178149 V 13.353535 H 6.1613135 v -0.07408 L 6.29713,13.217719 6.3588647,13.01664 h 0.09172 v 0.216953 h 0.2733968 v 0.119942 H 6.4505849 v 0.546794 q 0,0.08643 0.040569,0.128761 0.042332,0.04057 0.1075948,0.04057 z m 0.6367498,0 q 0.035277,0 0.072318,-0.0053 0.037041,-0.0071 0.059971,-0.01411 v 0.118178 q -0.024694,0.01235 -0.070554,0.0194 -0.04586,0.0088 -0.088192,0.0088 -0.074082,0 -0.1375803,-0.02469 -0.061735,-0.02646 -0.1005394,-0.08996 -0.038805,-0.0635 -0.038805,-0.178149 V 13.353535 H 6.7980633 v -0.07408 l 0.1358164,-0.06173 0.061735,-0.201079 h 0.09172 v 0.216953 h 0.2733967 v 0.119942 H 7.0873347 v 0.546794 q 0,0.08643 0.040569,0.128761 0.042332,0.04057 0.1075949,0.04057 z m 0.6861377,-0.853703 q 0.1217057,0 0.2081343,0.05292 0.088192,0.05292 0.1340526,0.149928 0.047624,0.09525 0.047624,0.224009 v 0.09348 h -0.647333 q 0.00353,0.16051 0.081137,0.245175 0.079373,0.0829 0.2204813,0.0829 0.089956,0 0.1587465,-0.01588 0.070554,-0.01764 0.1446357,-0.04939 v 0.135817 q -0.072318,0.03175 -0.1428719,0.04586 -0.070554,0.01588 -0.1675657,0.01588 -0.1340526,0 -0.2381198,-0.05468 -0.1023032,-0.05468 -0.1605103,-0.162274 -0.056443,-0.109359 -0.056443,-0.266341 0,-0.155219 0.051152,-0.266342 0.052915,-0.111122 0.1463995,-0.171093 0.095248,-0.05997 0.2204812,-0.05997 z m -0.00176,0.126997 q -0.1111226,0 -0.176385,0.07232 -0.063499,0.07055 -0.075846,0.197551 h 0.4815311 q -0.00176,-0.119942 -0.056443,-0.194023 -0.054679,-0.07585 -0.1728573,-0.07585 z m 1.0724193,-0.126997 q 0.026458,0 0.056443,0.0035 0.031749,0.0018 0.054679,0.0071 l -0.019402,0.142872 q -0.02293,-0.0053 -0.051152,-0.0088 -0.026458,-0.0035 -0.051152,-0.0035 -0.072318,0 -0.1358165,0.04057 -0.063499,0.0388 -0.1023033,0.111122 -0.037041,0.07055 -0.037041,0.165802 v 0.504461 H 8.5513288 V 13.233593 H 8.678326 l 0.017639,0.172858 h 0.00706 q 0.04586,-0.07761 0.1181779,-0.134053 0.072318,-0.05644 0.1710935,-0.05644 z m 1.3246517,0 q 0.16051,0 0.239883,0.0829 0.07937,0.08114 0.07937,0.264577 v 0.615584 h -0.153455 v -0.608528 q 0,-0.224009 -0.19226,-0.224009 -0.13758,0 -0.197551,0.07937 -0.05821,0.07937 -0.05821,0.231064 v 0.5221 H 9.8812719 v -0.608528 q 0,-0.224009 -0.1940235,-0.224009 -0.1428718,0 -0.1975512,0.08819 -0.054679,0.08819 -0.054679,0.253995 v 0.49035 H 9.2797991 v -0.945424 h 0.1252333 l 0.02293,0.128762 h 0.00882 q 0.044096,-0.07408 0.118178,-0.109359 0.075845,-0.03704 0.1605103,-0.03704 0.2222451,0 0.289271,0.158746 h 0.0088 q 0.04762,-0.08114 0.128761,-0.119941 0.0829,-0.0388 0.174621,-0.0388 z m 1.434009,0.488586 q 0,0.234592 -0.119942,0.363354 -0.118178,0.128761 -0.321021,0.128761 -0.125233,0 -0.224009,-0.05644 -0.09701,-0.05821 -0.153455,-0.167565 -0.05644,-0.111123 -0.05644,-0.268106 0,-0.234592 0.118178,-0.361589 0.118178,-0.126997 0.321021,-0.126997 0.128761,0 0.225773,0.05821 0.09877,0.05644 0.153455,0.165802 0.05644,0.107595 0.05644,0.264577 z m -0.71436,0 q 0,0.167566 0.06526,0.266342 0.06703,0.09701 0.211662,0.09701 0.142872,0 0.209898,-0.09701 0.06703,-0.09878 0.06703,-0.266342 0,-0.167565 -0.06703,-0.262813 -0.06703,-0.09525 -0.211662,-0.09525 -0.144636,0 -0.209898,0.09525 -0.06526,0.09525 -0.06526,0.262813 z m 1.575118,0.213426 q 0,0.137581 -0.102303,0.208135 -0.102304,0.07055 -0.275161,0.07055 -0.09878,0 -0.171093,-0.01588 -0.07055,-0.01587 -0.125234,-0.0441 v -0.141108 q 0.05644,0.02822 0.135817,0.05291 0.08114,0.02293 0.164038,0.02293 0.118178,0 0.171093,-0.03704 0.05292,-0.0388 0.05292,-0.102303 0,-0.03528 -0.0194,-0.0635 -0.0194,-0.02822 -0.07055,-0.05644 -0.04939,-0.02822 -0.142872,-0.0635 -0.09172,-0.03528 -0.156982,-0.07055 -0.06526,-0.03528 -0.10054,-0.08466 -0.03528,-0.04939 -0.03528,-0.126997 0,-0.119942 0.09701,-0.185205 0.09878,-0.06526 0.257522,-0.06526 0.08643,0 0.160511,0.01764 0.07584,0.01587 0.141108,0.04586 l -0.05292,0.123469 q -0.05997,-0.02469 -0.125233,-0.04233 -0.06526,-0.01764 -0.134053,-0.01764 -0.09525,0 -0.146399,0.03175 -0.04939,0.02999 -0.04939,0.0829 0,0.0388 0.02293,0.06703 0.02293,0.02646 0.07585,0.05292 0.05468,0.02469 0.144636,0.05997 0.08996,0.03351 0.153455,0.06879 0.0635,0.03528 0.09701,0.08643 0.03351,0.04939 0.03351,0.125233 z m 0.545029,0.151691 q 0.03528,0 0.07232,-0.0053 0.03704,-0.0071 0.05997,-0.01411 v 0.118178 q -0.02469,0.01235 -0.07055,0.0194 -0.04586,0.0088 -0.08819,0.0088 -0.07408,0 -0.137581,-0.02469 -0.06173,-0.02646 -0.100539,-0.08996 -0.0388,-0.0635 -0.0388,-0.178149 v -0.550321 h -0.134052 v -0.07408 l 0.135816,-0.06173 0.06173,-0.201079 h 0.09172 v 0.216953 h 0.273397 v 0.119942 h -0.273397 v 0.546794 q 0,0.08643 0.04057,0.128761 0.04233,0.04057 0.107595,0.04057 z"
     id="text2284"
     style="font-size:1.76385px;fill:#999999;stroke-width:0.529156"
     aria-label="Mattermost" />
  <text
     xml:space="preserve"
     transform="scale(0.26457812)"
     id="text3806"
     style="fill:#999999;stroke-width:2;font-size:6.66666667px;white-space:pre;shape-inside:url(#rect3808)" />
</svg>
