<?xml version="1.0" encoding="UTF-8" standalone="no"?>
<svg
   width="64"
   height="64"
   version="1.1"
   viewBox="0 0 16.933 16.933"
   id="svg7"
   sodipodi:docname="Games Templates.svg"
   inkscape:version="1.4 (e7c3feb100, 2024-10-09)"
   xmlns:inkscape="http://www.inkscape.org/namespaces/inkscape"
   xmlns:sodipodi="http://sodipodi.sourceforge.net/DTD/sodipodi-0.dtd"
   xmlns:xlink="http://www.w3.org/1999/xlink"
   xmlns="http://www.w3.org/2000/svg"
   xmlns:svg="http://www.w3.org/2000/svg"
   xmlns:rdf="http://www.w3.org/1999/02/22-rdf-syntax-ns#"
   xmlns:cc="http://creativecommons.org/ns#"
   xmlns:dc="http://purl.org/dc/elements/1.1/">
  <sodipodi:namedview
     id="namedview7"
     pagecolor="#9c4444"
     bordercolor="#000000"
     borderopacity="0.25"
     inkscape:showpageshadow="2"
     inkscape:pageopacity="0.0"
     inkscape:pagecheckerboard="0"
     inkscape:deskcolor="#d1d1d1"
     inkscape:zoom="6.15625"
     inkscape:cx="15.675127"
     inkscape:cy="27.370558"
     inkscape:window-width="1183"
     inkscape:window-height="973"
     inkscape:window-x="35"
     inkscape:window-y="32"
     inkscape:window-maximized="0"
     inkscape:current-layer="svg7"
     showgrid="false" />
  <defs
     id="defs2">
    <linearGradient
       inkscape:collect="always"
       id="linearGradient1134">
      <stop
         style="stop-color:#161616;stop-opacity:1;"
         offset="0"
         id="stop1130" />
      <stop
         style="stop-color:#404040;stop-opacity:1;"
         offset="1"
         id="stop1132" />
    </linearGradient>
    <linearGradient
       inkscape:collect="always"
       id="linearGradient883">
      <stop
         style="stop-color:#808080;stop-opacity:1;"
         offset="0"
         id="stop879" />
      <stop
         style="stop-color:#3e3e3e;stop-opacity:1;"
         offset="0.5"
         id="stop1216" />
      <stop
         style="stop-color:#242424;stop-opacity:1;"
         offset="1"
         id="stop881" />
    </linearGradient>
    <linearGradient
       inkscape:collect="always"
       xlink:href="#linearGradient883"
       id="linearGradient885"
       x1="2.1085808"
       y1="2.0236168"
       x2="14.846128"
       y2="15.071845"
       gradientUnits="userSpaceOnUse" />
    <linearGradient
       inkscape:collect="always"
       xlink:href="#linearGradient1134"
       id="linearGradient1136"
       x1="14.971222"
       y1="14.703373"
       x2="2.0756054"
       y2="2.0069976"
       gradientUnits="userSpaceOnUse" />
    <filter
       style="color-interpolation-filters:sRGB;"
       inkscape:label="Blur"
       id="filter1283"
       x="-0.082344266"
       y="-0.082344266"
       width="1.1646885"
       height="1.1646885">
      <feGaussianBlur
         stdDeviation="0.5 0.5"
         result="blur"
         id="feGaussianBlur1281" />
    </filter>
    <filter
       style="color-interpolation-filters:sRGB;"
       inkscape:label="Blur"
       id="filter1694"
       x="-0.94955398"
       y="-0.2118907"
       width="2.899108"
       height="1.4237814">
      <feGaussianBlur
         stdDeviation="0.2 0.2"
         result="blur"
         id="feGaussianBlur1692" />
    </filter>
  </defs>
  <metadata
     id="metadata2">
    <rdf:RDF>
      <cc:Work
         rdf:about="">
        <dc:format>image/svg+xml</dc:format>
        <dc:type
           rdf:resource="http://purl.org/dc/dcmitype/StillImage" />
      </cc:Work>
    </rdf:RDF>
  </metadata>
  <rect
     style="fill:#000000;stroke:none;stroke-width:0.539739;stroke-dasharray:none;filter:url(#filter1283)"
     id="rect246-1"
     width="14.572964"
     height="14.572964"
     x="1.1932471"
     y="1.2138842"
     rx="2.1589575"
     ry="2.1589575" />
  <rect
     style="opacity:1;fill:#000000;stroke:url(#linearGradient885);stroke-width:0.52915625;stroke-dasharray:none"
     id="rect246"
     width="14.287219"
     height="14.287219"
     x="1.3361193"
     y="1.3567564"
     rx="2.1166251"
     ry="2.1166251" />
  <rect
     style="fill:url(#linearGradient1136);fill-opacity:1;stroke:none;stroke-width:0.478315;stroke-dasharray:none"
     id="rect246-5"
     width="12.914515"
     height="12.914515"
     x="2.0224717"
     y="2.0431087"
     rx="1.5874687"
     ry="1.5874687" />
  <path
     style="fill:#999999;fill-opacity:1;stroke-width:0.0672522"
     d="m 8.3779686,11.353317 c -0.027239,-0.0052 -0.7923,-0.323032 -1.700136,-0.706274 C 5.3444285,10.084146 5.0158486,9.937576 4.9680399,9.884359 4.908863,9.8184898 4.9088573,9.8184574 4.9088573,9.4852485 c 0,-0.1832771 0.00392,-0.3332316 0.00869,-0.3332316 0.011275,0 1.0254819,0.420472 2.3155399,0.9599831 l 1.0222338,0.427502 0.2259674,-6.3e-4 0.2259673,-6.3e-4 0.3873727,-0.162942 c 0.8089477,-0.340308 2.9381636,-1.223181 2.9498466,-1.223181 0.0067,0 0.0091,0.1541972 0.0054,0.3426599 -0.0066,0.3268942 -0.0092,0.345175 -0.05823,0.3972787 -0.03049,0.032418 -0.209823,0.1216884 -0.441174,0.2196144 -1.9272476,0.815764 -2.8943814,1.218163 -2.9693746,1.235479 -0.092393,0.02134 -0.1198764,0.02219 -0.2030853,0.0061 z M 8.3091298,10.257116 C 8.2651394,10.23979 6.4044218,9.4681194 5.6082811,9.1370303 5.2531893,8.9893597 4.9505543,8.8585018 4.9357589,8.8462376 4.9007523,8.8172153 4.9012011,8.733228 4.9365171,8.703915 4.9598901,8.684515 7.9554446,7.4303601 7.978404,7.4303601 c 0.00435,0 0.00791,0.2874717 0.00791,0.6388266 0,0.603992 0.00245,0.6438926 0.044974,0.7317298 0.1420788,0.2934964 0.5707733,0.3603222 0.8055282,0.125567 0.1315617,-0.1315619 0.1394505,-0.1814684 0.1394505,-0.8822024 0,-0.4861702 0.00575,-0.6162404 0.026901,-0.6078451 0.3369048,0.1337677 3.0046383,1.2529046 3.0236593,1.2684509 0.01479,0.012093 0.0269,0.043829 0.0269,0.070519 0,0.026689 -0.01211,0.058539 -0.0269,0.070762 C 12.012032,8.85839 11.622239,9.0251925 11.16062,9.2168266 10.699001,9.4084605 9.9484658,9.720987 9.4927644,9.9113302 8.7026476,10.241359 8.656731,10.257699 8.5028121,10.263621 c -0.088772,0.0034 -0.1759318,4.2e-4 -0.1936863,-0.0065 z M 6.6469605,9.0116452 C 6.8034873,8.9651593 6.8887632,8.874258 6.8887632,8.7538838 c 0,-0.075597 -0.012602,-0.1061351 -0.065731,-0.1592632 C 6.6463371,8.4179251 6.2102861,8.4233503 6.0514813,8.6042194 5.8242196,8.8630556 6.2246786,9.1370497 6.6469605,9.0116452 Z M 8.3447745,8.761791 C 8.2482221,8.7056669 8.2458218,8.6704465 8.2461255,7.3142079 l 2.866e-4,-1.282694 H 8.471457 8.6965017 v 1.3245018 1.3245015 l -0.052824,0.05282 c -0.041671,0.041666 -0.074614,0.052682 -0.1560253,0.052164 -0.05676,-3.628e-4 -0.1210562,-0.01104 -0.1428788,-0.023717 z M 8.338983,5.7517606 C 7.9774682,5.6988109 7.6577193,5.4719585 7.505007,5.1600785 7.4713305,5.091303 7.4281997,4.9596955 7.4091599,4.8676172 7.3797712,4.7254916 7.3784437,4.6731594 7.4003705,4.5211708 7.5286311,3.6321343 8.6070782,3.2649023 9.2452463,3.8929553 9.6603616,4.3014909 9.6825749,4.9570264 9.2961471,5.395104 9.0673723,5.654457 8.6743954,5.8008871 8.338983,5.7517606 Z"
     id="path1-3" />
  <g
     aria-label="Krita"
     id="text1450"
     style="font-size:1.76385px;opacity:1;fill:#ff00ff;stroke-width:0.529156">
    <rect
       style="font-size:1.76385px;fill:#ff00ff;fill-opacity:1;stroke:none;stroke-width:0.519976;stroke-dasharray:none;filter:url(#filter1694)"
       id="rect1656-7"
       width="0.5055005"
       height="2.2653189"
       x="15.369148"
       y="4.3016486"
       rx="0"
       ry="0" />
    <rect
       style="opacity:1;fill:#ff00ff;fill-opacity:1;stroke:none;stroke-width:0.519976;stroke-dasharray:none"
       id="rect1656"
       width="0.5055005"
       height="2.2653189"
       x="15.369148"
       y="4.3016486"
       rx="0"
       ry="0" />
  </g>
  <path
     d="m 6.4697552,14.139484 v -1.259388 h 0.1587465 v 1.11828 h 0.5503212 v 0.141108 z m 1.6932963,-0.945423 v 0.945423 H 8.0360543 l -0.02293,-0.125233 h -0.00706 q -0.04586,0.07408 -0.1269972,0.109359 -0.081137,0.03351 -0.1728573,0.03351 -0.1710935,0 -0.2575221,-0.08114 -0.086429,-0.0829 -0.086429,-0.262814 v -0.619111 h 0.1569827 v 0.608528 q 0,0.225773 0.2098981,0.225773 0.1569827,0 0.2169536,-0.08819 0.061735,-0.08819 0.061735,-0.253994 v -0.492114 z m 0.6155837,0.836065 q 0.035277,0 0.072318,-0.0053 0.037041,-0.0071 0.059971,-0.01411 v 0.118178 q -0.024694,0.01235 -0.070554,0.0194 -0.04586,0.0088 -0.088192,0.0088 -0.074082,0 -0.1375803,-0.02469 -0.061735,-0.02646 -0.1005395,-0.08996 -0.038805,-0.0635 -0.038805,-0.178149 V 13.314003 H 8.3412004 v -0.07408 l 0.1358165,-0.06174 0.061735,-0.201079 h 0.09172 v 0.216954 h 0.2733968 v 0.119942 H 8.6304718 v 0.546793 q 0,0.08643 0.040569,0.128761 0.042332,0.04057 0.1075948,0.04057 z m 0.7619831,-0.853704 q 0.026458,0 0.056443,0.0035 0.031749,0.0018 0.054679,0.0071 l -0.019402,0.142872 q -0.02293,-0.0053 -0.051152,-0.0088 -0.026458,-0.0035 -0.051152,-0.0035 -0.072318,0 -0.1358164,0.04057 -0.063499,0.0388 -0.1023033,0.111122 -0.037041,0.07055 -0.037041,0.165802 v 0.504461 H 9.0996558 V 13.194061 H 9.226653 l 0.017638,0.172857 h 0.00706 q 0.04586,-0.07761 0.118178,-0.134052 0.072318,-0.05644 0.1710934,-0.05644 z m 0.3668811,-0.336895 q 0.035277,0 0.061735,0.02469 0.028222,0.02293 0.028222,0.07408 0,0.04939 -0.028222,0.07408 -0.026458,0.02469 -0.061735,0.02469 -0.038805,0 -0.065263,-0.02469 -0.026458,-0.02469 -0.026458,-0.07408 0,-0.05115 0.026458,-0.07408 0.026458,-0.02469 0.065263,-0.02469 z m 0.075845,0.354534 v 0.945423 H 9.8281261 v -0.945423 z m 0.9154371,0.684374 q 0,0.13758 -0.102303,0.208134 -0.102303,0.07055 -0.275161,0.07055 -0.09878,0 -0.171093,-0.01588 -0.07055,-0.01587 -0.125234,-0.0441 v -0.141108 q 0.05644,0.02822 0.135817,0.05292 0.08114,0.02293 0.164038,0.02293 0.118178,0 0.171093,-0.03704 0.05292,-0.0388 0.05292,-0.102304 0,-0.03528 -0.0194,-0.0635 -0.0194,-0.02822 -0.07055,-0.05644 -0.04939,-0.02822 -0.142872,-0.0635 -0.09172,-0.03528 -0.156983,-0.07055 -0.06526,-0.03528 -0.100539,-0.08466 -0.03528,-0.04939 -0.03528,-0.126997 0,-0.119942 0.09701,-0.185204 0.09878,-0.06526 0.257522,-0.06526 0.08643,0 0.160511,0.01764 0.07584,0.01587 0.141108,0.04586 l -0.05292,0.123469 q -0.05997,-0.02469 -0.125233,-0.04233 -0.06526,-0.01764 -0.134053,-0.01764 -0.09525,0 -0.146399,0.03175 -0.04939,0.02998 -0.04939,0.0829 0,0.0388 0.02293,0.06703 0.02293,0.02646 0.07585,0.05292 0.05468,0.02469 0.144635,0.05997 0.08996,0.03351 0.153455,0.06879 0.0635,0.03528 0.09701,0.08643 0.03351,0.04939 0.03351,0.125234 z"
     id="text1"
     style="font-size:1.76385px;text-align:center;text-anchor:middle;fill:#999999;stroke-width:0.264578"
     aria-label="Lutris" />
</svg>
