<?xml version="1.0" encoding="UTF-8" standalone="no"?>
<svg
   width="64"
   height="64"
   version="1.1"
   viewBox="0 0 16.933 16.933"
   id="svg7"
   sodipodi:docname="Games Templates.svg"
   inkscape:version="1.4 (e7c3feb100, 2024-10-09)"
   xmlns:inkscape="http://www.inkscape.org/namespaces/inkscape"
   xmlns:sodipodi="http://sodipodi.sourceforge.net/DTD/sodipodi-0.dtd"
   xmlns:xlink="http://www.w3.org/1999/xlink"
   xmlns="http://www.w3.org/2000/svg"
   xmlns:svg="http://www.w3.org/2000/svg"
   xmlns:rdf="http://www.w3.org/1999/02/22-rdf-syntax-ns#"
   xmlns:cc="http://creativecommons.org/ns#"
   xmlns:dc="http://purl.org/dc/elements/1.1/">
  <sodipodi:namedview
     id="namedview7"
     pagecolor="#9c4444"
     bordercolor="#000000"
     borderopacity="0.25"
     inkscape:showpageshadow="2"
     inkscape:pageopacity="0.0"
     inkscape:pagecheckerboard="0"
     inkscape:deskcolor="#d1d1d1"
     inkscape:zoom="4.3531261"
     inkscape:cx="15.506098"
     inkscape:cy="33.883695"
     inkscape:window-width="1183"
     inkscape:window-height="973"
     inkscape:window-x="35"
     inkscape:window-y="32"
     inkscape:window-maximized="0"
     inkscape:current-layer="svg7"
     showgrid="false" />
  <defs
     id="defs2">
    <linearGradient
       inkscape:collect="always"
       id="linearGradient1134">
      <stop
         style="stop-color:#161616;stop-opacity:1;"
         offset="0"
         id="stop1130" />
      <stop
         style="stop-color:#404040;stop-opacity:1;"
         offset="1"
         id="stop1132" />
    </linearGradient>
    <linearGradient
       inkscape:collect="always"
       id="linearGradient883">
      <stop
         style="stop-color:#808080;stop-opacity:1;"
         offset="0"
         id="stop879" />
      <stop
         style="stop-color:#3e3e3e;stop-opacity:1;"
         offset="0.5"
         id="stop1216" />
      <stop
         style="stop-color:#242424;stop-opacity:1;"
         offset="1"
         id="stop881" />
    </linearGradient>
    <linearGradient
       inkscape:collect="always"
       xlink:href="#linearGradient883"
       id="linearGradient885"
       x1="2.1085808"
       y1="2.0236168"
       x2="14.846128"
       y2="15.071845"
       gradientUnits="userSpaceOnUse" />
    <linearGradient
       inkscape:collect="always"
       xlink:href="#linearGradient1134"
       id="linearGradient1136"
       x1="14.971222"
       y1="14.703373"
       x2="2.0756054"
       y2="2.0069976"
       gradientUnits="userSpaceOnUse" />
    <filter
       style="color-interpolation-filters:sRGB;"
       inkscape:label="Blur"
       id="filter1283"
       x="-0.082344266"
       y="-0.082344266"
       width="1.1646885"
       height="1.1646885">
      <feGaussianBlur
         stdDeviation="0.5 0.5"
         result="blur"
         id="feGaussianBlur1281" />
    </filter>
    <filter
       style="color-interpolation-filters:sRGB;"
       inkscape:label="Blur"
       id="filter1694"
       x="-0.94955398"
       y="-0.2118907"
       width="2.899108"
       height="1.4237814">
      <feGaussianBlur
         stdDeviation="0.2 0.2"
         result="blur"
         id="feGaussianBlur1692" />
    </filter>
    <clipPath
       clipPathUnits="userSpaceOnUse"
       id="clipPath938">
      <path
         style="display:none;fill:#ff8118;stroke-width:2.31858"
         d="M 70.185124,-33.557802 29.143729,45.965504 19.270584,27.579648 H 5.191792 l 18.986361,35.663514 10.064572,-0.06287 49.928382,-96.738105 z"
         id="path940" />
      <path
         id="lpe_path-effect942"
         style="fill:#ff8118;stroke-width:2.31858"
         class="powerclip"
         d="M -3.2828448,-3.2767531 H 56.202942 V 67.375489 H -3.2828448 Z M 70.185124,-33.557802 29.143729,45.965504 19.270584,27.579648 H 5.191792 l 18.986361,35.663514 10.064572,-0.06287 49.928382,-96.738105 z" />
    </clipPath>
    <inkscape:path-effect
       effect="powerclip"
       id="path-effect942"
       is_visible="true"
       lpeversion="1"
       inverse="true"
       flatten="false"
       hide_clip="false"
       message="" />
  </defs>
  <metadata
     id="metadata2">
    <rdf:RDF>
      <cc:Work
         rdf:about="">
        <dc:format>image/svg+xml</dc:format>
        <dc:type
           rdf:resource="http://purl.org/dc/dcmitype/StillImage" />
      </cc:Work>
    </rdf:RDF>
  </metadata>
  <rect
     style="fill:#000000;stroke:none;stroke-width:0.539739;stroke-dasharray:none;filter:url(#filter1283)"
     id="rect246-1"
     width="14.572964"
     height="14.572964"
     x="1.1932471"
     y="1.2138842"
     rx="2.1589575"
     ry="2.1589575" />
  <rect
     style="opacity:1;fill:#000000;stroke:url(#linearGradient885);stroke-width:0.52915625;stroke-dasharray:none"
     id="rect246"
     width="14.287219"
     height="14.287219"
     x="1.3361193"
     y="1.3567564"
     rx="2.1166251"
     ry="2.1166251" />
  <rect
     style="fill:url(#linearGradient1136);fill-opacity:1;stroke:none;stroke-width:0.478315;stroke-dasharray:none"
     id="rect246-5"
     width="12.914515"
     height="12.914515"
     x="2.0224717"
     y="2.0431087"
     rx="1.5874687"
     ry="1.5874687" />
  <path
     d="M 5.9850215,14.182462 H 5.826275 v -1.259389 h 0.7037761 v 0.139344 H 5.9850215 v 0.446254 h 0.5115164 v 0.139344 H 5.9850215 Z m 1.4710493,-0.336896 q 0,0.167566 -0.1217057,0.26105 -0.1217056,0.09348 -0.3280761,0.09348 -0.105831,0 -0.1957873,-0.01587 -0.089956,-0.01588 -0.1499273,-0.0441 v -0.151691 q 0.063499,0.02822 0.1569827,0.05115 0.095248,0.02293 0.1957873,0.02293 0.141108,0 0.211662,-0.05468 0.072318,-0.05468 0.072318,-0.148164 0,-0.06173 -0.026458,-0.104067 -0.026458,-0.04233 -0.09172,-0.07761 -0.063499,-0.03704 -0.1781488,-0.07761 -0.1605104,-0.05821 -0.2434113,-0.142872 -0.081137,-0.08466 -0.081137,-0.231064 0,-0.100539 0.051152,-0.171093 0.051152,-0.07232 0.141108,-0.111123 0.09172,-0.0388 0.2098982,-0.0388 0.1040671,0 0.1904958,0.0194 0.086429,0.0194 0.1569826,0.05115 l -0.049388,0.135817 q -0.065262,-0.02822 -0.1428718,-0.04762 -0.075846,-0.0194 -0.1587465,-0.0194 -0.118178,0 -0.1781489,0.05115 -0.059971,0.04939 -0.059971,0.132289 0,0.0635 0.026458,0.105831 0.026458,0.04233 0.086429,0.07585 0.059971,0.03351 0.1622742,0.07232 0.1111226,0.04057 0.1869681,0.08819 0.077609,0.04586 0.1164141,0.111122 0.040569,0.06526 0.040569,0.164038 z m 1.6703659,-0.107594 q 0,0.130524 -0.052915,0.236355 -0.052915,0.104068 -0.1622742,0.165802 -0.1075948,0.05997 -0.2751606,0.05997 -0.234592,0 -0.3580615,-0.126997 -0.1217056,-0.128761 -0.1217056,-0.338659 v -0.811371 h 0.1587465 v 0.816662 q 0,0.153455 0.081137,0.23812 0.082901,0.08466 0.2487028,0.08466 0.1710934,0 0.246939,-0.08996 0.077609,-0.09172 0.077609,-0.234592 v -0.814899 h 0.1569826 z m 1.1041713,0.44449 -0.151691,-0.389811 H 9.5797472 L 9.42982,14.182462 H 9.2693096 l 0.4921142,-1.264681 h 0.1428718 l 0.4903504,1.264681 z M 9.8901848,13.270551 q -0.00529,-0.01411 -0.017639,-0.05115 -0.012347,-0.03704 -0.024694,-0.07585 -0.010583,-0.04057 -0.017639,-0.06174 -0.012347,0.05468 -0.028222,0.107595 -0.015875,0.05115 -0.026458,0.08114 l -0.1428719,0.380992 h 0.3986303 z m 1.3810942,0.911911 h -0.703776 v -1.259389 h 0.703776 v 0.139344 H 10.72625 v 0.393339 h 0.51328 v 0.13758 h -0.51328 v 0.449782 h 0.545029 z"
     id="text2"
     style="font-size:1.76385px;text-align:center;text-anchor:middle;fill:#999999;stroke-width:0.264578"
     aria-label="FS UAE" />
  <g
     id="g13"
     style="fill:#999999;fill-opacity:1"
     transform="matrix(0.11389221,0,0,0.11389221,4.7446468,3.7793554)">
    <path
       style="fill:#999999;fill-opacity:1;stroke-width:1.45274"
       d="M 42.439796,1.7232561 16.724636,51.549889 10.538457,40.029929 H 1.7171552 l 11.8962178,22.34556 6.306121,-0.03939 31.283448,-60.6128521 z"
       id="path12"
       clip-path="url(#clipPath938)"
       inkscape:path-effect="#path-effect942"
       inkscape:original-d="M 42.439796,1.7232561 16.724636,51.549889 10.538457,40.029929 H 1.7171552 l 11.8962178,22.34556 6.306121,-0.03939 31.283448,-60.6128521 z" />
    <path
       style="fill:#999999;fill-opacity:1;stroke-width:1.45274"
       d="M 55.30359,1.8331496 29.58843,51.659782 23.402249,40.139822 h -8.821298 l 11.896216,22.34556 6.306122,-0.03939 L 64.06674,1.8331452 Z"
       id="path8-3" />
  </g>
  <g
     aria-label="Krita"
     id="text1450"
     style="font-size:1.76385px;opacity:1;fill:#ff00ff;stroke-width:0.529156">
    <rect
       style="font-size:1.76385px;fill:#ff00ff;fill-opacity:1;stroke:none;stroke-width:0.519976;stroke-dasharray:none;filter:url(#filter1694)"
       id="rect1656-7"
       width="0.5055005"
       height="2.2653189"
       x="15.369148"
       y="4.3016486"
       rx="0"
       ry="0" />
    <rect
       style="opacity:1;fill:#ff00ff;fill-opacity:1;stroke:none;stroke-width:0.519976;stroke-dasharray:none"
       id="rect1656"
       width="0.5055005"
       height="2.2653189"
       x="15.369148"
       y="4.3016486"
       rx="0"
       ry="0" />
  </g>
</svg>
