<?xml version="1.0" encoding="UTF-8" standalone="no"?>
<svg
   width="64"
   height="64"
   version="1.1"
   viewBox="0 0 16.933 16.933"
   id="svg7"
   sodipodi:docname="Development Template.svg"
   inkscape:version="1.4 (e7c3feb100, 2024-10-09)"
   xmlns:inkscape="http://www.inkscape.org/namespaces/inkscape"
   xmlns:sodipodi="http://sodipodi.sourceforge.net/DTD/sodipodi-0.dtd"
   xmlns:xlink="http://www.w3.org/1999/xlink"
   xmlns="http://www.w3.org/2000/svg"
   xmlns:svg="http://www.w3.org/2000/svg"
   xmlns:rdf="http://www.w3.org/1999/02/22-rdf-syntax-ns#"
   xmlns:cc="http://creativecommons.org/ns#"
   xmlns:dc="http://purl.org/dc/elements/1.1/">
  <sodipodi:namedview
     id="namedview7"
     pagecolor="#9c4444"
     bordercolor="#000000"
     borderopacity="0.25"
     inkscape:showpageshadow="2"
     inkscape:pageopacity="0.0"
     inkscape:pagecheckerboard="0"
     inkscape:deskcolor="#d1d1d1"
     inkscape:zoom="6.15625"
     inkscape:cx="15.675127"
     inkscape:cy="29.807107"
     inkscape:window-width="1183"
     inkscape:window-height="973"
     inkscape:window-x="35"
     inkscape:window-y="32"
     inkscape:window-maximized="0"
     inkscape:current-layer="svg7"
     showgrid="false" />
  <defs
     id="defs2">
    <rect
       x="67.489848"
       y="35.60533"
       width="15.337563"
       height="22.51269"
       id="rect3808" />
    <linearGradient
       inkscape:collect="always"
       id="linearGradient1134">
      <stop
         style="stop-color:#161616;stop-opacity:1;"
         offset="0"
         id="stop1130" />
      <stop
         style="stop-color:#404040;stop-opacity:1;"
         offset="1"
         id="stop1132" />
    </linearGradient>
    <linearGradient
       inkscape:collect="always"
       id="linearGradient883">
      <stop
         style="stop-color:#808080;stop-opacity:1;"
         offset="0"
         id="stop879" />
      <stop
         style="stop-color:#3e3e3e;stop-opacity:1;"
         offset="0.5"
         id="stop1216" />
      <stop
         style="stop-color:#242424;stop-opacity:1;"
         offset="1"
         id="stop881" />
    </linearGradient>
    <linearGradient
       inkscape:collect="always"
       xlink:href="#linearGradient883"
       id="linearGradient885"
       x1="2.1085808"
       y1="2.0236168"
       x2="14.846128"
       y2="15.071845"
       gradientUnits="userSpaceOnUse" />
    <linearGradient
       inkscape:collect="always"
       xlink:href="#linearGradient1134"
       id="linearGradient1136"
       x1="14.971222"
       y1="14.703373"
       x2="2.0756054"
       y2="2.0069976"
       gradientUnits="userSpaceOnUse" />
    <filter
       style="color-interpolation-filters:sRGB;"
       inkscape:label="Blur"
       id="filter1283"
       x="-0.082344266"
       y="-0.082344266"
       width="1.1646885"
       height="1.1646885">
      <feGaussianBlur
         stdDeviation="0.5 0.5"
         result="blur"
         id="feGaussianBlur1281" />
    </filter>
    <filter
       style="color-interpolation-filters:sRGB;"
       inkscape:label="Blur"
       id="filter1694"
       x="-0.94955398"
       y="-0.2118907"
       width="2.899108"
       height="1.4237814">
      <feGaussianBlur
         stdDeviation="0.2 0.2"
         result="blur"
         id="feGaussianBlur1692" />
    </filter>
    <filter
       style="color-interpolation-filters:sRGB;"
       inkscape:label="Blur"
       id="filter3148"
       x="-0.94955398"
       y="-0.2118907"
       width="2.899108"
       height="1.4237814">
      <feGaussianBlur
         stdDeviation="0.2 0.2"
         result="blur"
         id="feGaussianBlur3146" />
    </filter>
    <clipPath
       clipPathUnits="userSpaceOnUse"
       id="clipPath44">
      <path
         id="path46"
         style="display:block;opacity:0.85;fill:#f2f2f2;stroke-width:4.39162"
         d="m 17.570312,8.4453125 a 6.5431988,7.4283052 9.9958727e-8 0 0 -6.535156,7.4394535 6.5431988,7.4283052 9.9958727e-8 0 0 6.552735,7.417968 6.5431988,7.4283052 9.9958727e-8 0 0 6.535156,-7.4375 6.5431988,7.4283052 9.9958727e-8 0 0 -6.552735,-7.4199215 z M 45.646484,41.177734 a 6.5431986,7.0703472 2.4665357e-6 0 0 -6.533203,7.080078 6.5431986,7.0703472 2.4665357e-6 0 0 6.550781,7.060547 6.5431986,7.0703472 2.4665357e-6 0 0 6.535157,-7.080078 6.5431986,7.0703472 2.4665357e-6 0 0 -6.552735,-7.060547 z" />
    </clipPath>
    <inkscape:path-effect
       effect="powerclip"
       id="path-effect48"
       is_visible="true"
       lpeversion="1"
       inverse="true"
       flatten="false"
       hide_clip="false"
       message="" />
  </defs>
  <metadata
     id="metadata2">
    <rdf:RDF>
      <cc:Work
         rdf:about="">
        <dc:format>image/svg+xml</dc:format>
        <dc:type
           rdf:resource="http://purl.org/dc/dcmitype/StillImage" />
      </cc:Work>
    </rdf:RDF>
  </metadata>
  <rect
     style="fill:#000000;stroke:none;stroke-width:0.539739;stroke-dasharray:none;filter:url(#filter1283)"
     id="rect246-1"
     width="14.572964"
     height="14.572964"
     x="1.1932471"
     y="1.2138842"
     rx="2.1589575"
     ry="2.1589575" />
  <rect
     style="opacity:1;fill:#000000;stroke:url(#linearGradient885);stroke-width:0.52915625;stroke-dasharray:none"
     id="rect246"
     width="14.287219"
     height="14.287219"
     x="1.3361193"
     y="1.3567564"
     rx="2.1166251"
     ry="2.1166251" />
  <rect
     style="fill:url(#linearGradient1136);fill-opacity:1;stroke:none;stroke-width:0.478315;stroke-dasharray:none"
     id="rect246-5"
     width="12.914515"
     height="12.914515"
     x="2.0224717"
     y="2.0431087"
     rx="1.5874687"
     ry="1.5874687" />
  <path
     id="path6"
     style="fill:#999999;fill-opacity:1;stroke:none;stroke-width:0.0576381;stroke-opacity:1"
     d="m 8.6118367,3.6042854 c -0.1927854,0.00157 -0.3861948,0.010781 -0.488221,0.026445 -0.5398635,0.08288 -1.00057,0.2446395 -1.4355054,0.5044948 C 6.3961186,4.3096787 6.2096785,4.4568274 5.9469637,4.7197349 5.6173546,5.049586 5.4265684,5.3121832 5.2241251,5.7144855 c -0.053653,0.1066221 -0.097644,0.1990731 -0.097644,0.2054594 0,0.00638 0.3220033,0.00985 0.7153795,0.0078 l 0.7150403,-0.00373 0.059333,-0.096966 C 6.826329,5.4831732 7.1553533,5.1431809 7.4913022,4.9224759 8.1976791,4.4584149 9.0755783,4.3301795 9.8981656,4.5708889 c 0.021123,0.00618 0.024102,-0.017585 0.028818,-0.2203774 0.00612,-0.2588067 0.024912,-0.3205007 0.1261234,-0.4119367 l 0.05458,-0.049161 -0.1420579,-0.052891 C 9.7047346,3.7400461 9.4041565,3.6663772 9.0963286,3.6229331 8.9968561,3.6088948 8.8046228,3.6027316 8.6118367,3.6042854 Z m 2.2624313,0.4268545 c -0.05157,2.099e-4 -0.110065,7.581e-4 -0.17698,0.00135 l -0.46754,0.00407 -0.039,0.035938 c -0.07527,0.069484 -0.07853,0.093584 -0.07763,0.5580639 9.9e-4,0.4757864 0.0058,0.5091821 0.08408,0.561793 0.04853,0.032625 0.05324,0.032887 0.523821,0.032887 0.462612,0 0.475689,-6.692e-4 0.518057,-0.030853 0.07931,-0.056471 0.0834,-0.08448 0.0834,-0.5621325 0,-0.4090908 -0.0019,-0.4391874 -0.02949,-0.4963578 -0.04531,-0.093574 -0.0577,-0.1061998 -0.418724,-0.1047594 z m 0.642824,0.8842225 -0.0098,0.119004 c -0.01534,0.1850832 -0.08777,0.2960242 -0.232922,0.3566725 l -0.05424,0.022716 0.06713,0.082387 c 0.202776,0.2497187 0.404409,0.6154922 0.503138,0.9127022 0.154495,0.4650826 0.18924,0.9910506 0.09663,1.4626289 l -0.02611,0.1315484 0.181387,0.00644 c 0.15088,0.00523 0.192354,0.0118 0.249536,0.039329 0.03775,0.018171 0.07231,0.039256 0.07696,0.046788 0.01401,0.022677 0.01722,0.010683 0.04373,-0.168843 0.03188,-0.2157712 0.03619,-0.7803151 0.0075,-0.9866134 C 12.354657,6.4711066 12.217863,6.0362821 12.012094,5.643287 11.911456,5.451079 11.721346,5.1613943 11.600835,5.0163975 Z M 4.8888123,6.1257437 4.8267679,6.1589699 C 4.7313781,6.2099024 4.6558036,6.2860426 4.6118146,6.375618 l -0.040007,0.081709 -0.00407,0.9208391 c -0.00445,1.0198975 -0.00494,1.0132983 0.087473,1.1351142 0.052169,0.068765 0.1617616,0.1489514 0.231566,0.169182 0.024848,0.00721 0.4611245,0.013527 0.9693221,0.01424 1.0116669,0.00146 0.9817367,0.00365 1.1046002,-0.084761 0.085674,-0.061647 0.1554816,-0.1705906 0.1779941,-0.2780154 0.01417,-0.067617 0.0191,-0.293962 0.019325,-0.919483 C 7.1583277,6.5629604 7.1528827,6.4663095 7.1003852,6.3634117 7.0633814,6.2908788 6.9669006,6.1986011 6.8871276,6.1593082 L 6.819658,6.125743 H 5.8540655 Z m 6.7035467,2.068159 c -0.600308,-3.437e-4 -0.619962,0.00174 -0.699443,0.075946 -0.07471,0.069752 -0.07459,0.067668 -0.07459,0.6943591 0,0.6293451 0.0013,0.6425295 0.07594,0.7113106 0.02008,0.018508 0.06142,0.042533 0.09188,0.053565 0.04442,0.016111 0.166684,0.019586 0.617396,0.016953 0.635312,-0.00369 0.636695,-0.00405 0.710972,-0.1162914 l 0.03831,-0.05798 0.0044,-0.5702702 c 0.0029,-0.3713956 -9.9e-4,-0.58822 -0.01085,-0.6221422 -0.0214,-0.073145 -0.06773,-0.1271923 -0.136295,-0.1583327 C 12.15616,8.196525 12.10518,8.1941913 11.592353,8.193897 Z M 5.8937339,8.8855489 c -0.4220157,-2.098e-4 -0.7672528,0.00486 -0.7672528,0.011186 0,0.00624 0.043991,0.098839 0.097644,0.2054592 0.1120005,0.2225702 0.2309848,0.4155715 0.3797277,0.6157022 0.1331973,0.1792118 0.5403483,0.5859837 0.7228382,0.7221607 0.5797323,0.432603 1.2376057,0.690614 1.9481378,0.764201 0.1773229,0.01836 0.703205,0.0068 0.8791368,-0.01932 0.8370309,-0.124212 1.5401784,-0.469971 2.1322384,-1.048997 l 0.20207,-0.1976612 -0.223769,-6.561e-4 c -0.254947,-5.733e-4 -0.356043,-0.01998 -0.453638,-0.087138 -0.03448,-0.023724 -0.07716,-0.064107 -0.09493,-0.089847 -0.01778,-0.025742 -0.03408,-0.049288 -0.03627,-0.052213 -0.0022,-0.003 -0.04523,0.020736 -0.09561,0.052553 C 9.6792341,10.332424 8.4776941,10.33336 7.5581009,9.763046 7.2376745,9.5642686 6.9059986,9.2502047 6.7115042,8.9611632 L 6.6609881,8.885898 Z" />
  <g
     fill="#474747"
     id="g9"
     transform="matrix(0.46959567,0,0,0.46959567,4.7471229,3.7470598)"
     style="fill:#999999;fill-opacity:1;stroke:none;stroke-width:0.58349;stroke-dasharray:none;stroke-opacity:0.3" />
  <g
     aria-label="Krita"
     id="text1450"
     style="font-size:1.76385px;opacity:1;fill:#8a916f;stroke-width:0.529156">
    <rect
       style="font-size:1.76385px;fill:#8a916f;fill-opacity:1;stroke:none;stroke-width:0.519976;stroke-dasharray:none;filter:url(#filter3148)"
       id="rect1656-3"
       width="0.5055005"
       height="2.2653189"
       x="15.369148"
       y="4.3016486"
       rx="0"
       ry="0" />
    <rect
       style="opacity:1;fill:#8a916f;fill-opacity:1;stroke:none;stroke-width:0.519976;stroke-dasharray:none"
       id="rect1656"
       width="0.5055005"
       height="2.2653189"
       x="15.369148"
       y="4.3016486"
       rx="0"
       ry="0" />
  </g>
  <path
     d="m 6.9304449,13.547559 q 0,0.195787 -0.067026,0.342187 -0.065262,0.144635 -0.1940235,0.225772 -0.128761,0.08114 -0.3192568,0.08114 -0.1957874,0 -0.3263123,-0.08114 -0.128761,-0.08114 -0.1922596,-0.227536 -0.063499,-0.1464 -0.063499,-0.342187 0,-0.194024 0.063499,-0.338659 0.063499,-0.144636 0.1922596,-0.225773 0.1305249,-0.08114 0.3280761,-0.08114 0.188732,0 0.317493,0.08114 0.1287611,0.07937 0.1940235,0.225773 0.067026,0.144635 0.067026,0.340423 z m -0.9948114,0 q 0,0.23812 0.1005395,0.3757 0.1005394,0.135816 0.3139653,0.135816 0.2151897,0 0.3139653,-0.135816 0.098776,-0.13758 0.098776,-0.3757 0,-0.23812 -0.098776,-0.372173 -0.098776,-0.135816 -0.3122015,-0.135816 -0.2134258,0 -0.3157291,0.135816 -0.1005395,0.134053 -0.1005395,0.372173 z m 1.6315615,0.649097 q -0.1252334,0 -0.224009,-0.05115 -0.097012,-0.05115 -0.1534549,-0.158747 -0.054679,-0.107594 -0.054679,-0.27516 0,-0.174621 0.058207,-0.28398 0.058207,-0.109359 0.1569826,-0.16051 0.1005395,-0.05115 0.2275367,-0.05115 0.072318,0 0.1393441,0.01588 0.067026,0.01411 0.1093587,0.03528 l -0.047624,0.128761 q -0.042332,-0.01587 -0.098776,-0.02999 -0.056443,-0.01411 -0.105831,-0.01411 -0.2786883,0 -0.2786883,0.358062 0,0.171093 0.067026,0.262814 0.06879,0.08996 0.2028427,0.08996 0.077609,0 0.1358165,-0.01587 0.059971,-0.01587 0.1093587,-0.0388 v 0.13758 q -0.047624,0.02469 -0.105831,0.03704 -0.056443,0.01411 -0.1375803,0.01411 z m 0.7831486,-0.126998 q 0.035277,0 0.072318,-0.0053 0.037041,-0.0071 0.059971,-0.01411 v 0.118178 q -0.024694,0.01235 -0.070554,0.0194 -0.04586,0.0088 -0.088192,0.0088 -0.074082,0 -0.1375803,-0.02469 -0.061735,-0.02646 -0.1005395,-0.08996 -0.038805,-0.0635 -0.038805,-0.178149 V 13.353535 H 7.9129089 v -0.07408 l 0.1358164,-0.06173 0.061735,-0.201079 h 0.09172 v 0.216953 H 8.475577 v 0.119942 H 8.2021802 v 0.546794 q 0,0.08643 0.040569,0.128761 0.042332,0.04057 0.1075948,0.04057 z M 9.029426,13.217719 q 0.1728573,0 0.2557583,0.07584 0.082901,0.07585 0.082901,0.241648 v 0.643805 H 9.2551988 l -0.029985,-0.134053 h -0.00706 q -0.061735,0.07761 -0.1305249,0.114651 -0.067026,0.03704 -0.1869681,0.03704 -0.1287611,0 -0.2134259,-0.06703 -0.084665,-0.06879 -0.084665,-0.213426 0,-0.141108 0.1111226,-0.216953 0.1111225,-0.07761 0.3421869,-0.08466 l 0.1605103,-0.0053 v -0.05644 q 0,-0.118178 -0.051152,-0.164038 -0.051152,-0.04586 -0.1446357,-0.04586 -0.074082,0 -0.141108,0.02293 -0.067026,0.02117 -0.1252334,0.04939 l -0.047624,-0.116414 q 0.061735,-0.03351 0.1463995,-0.05644 0.084665,-0.02469 0.176385,-0.02469 z m 0.04586,0.504461 q -0.176385,0.0071 -0.2451751,0.05644 -0.067026,0.04939 -0.067026,0.139344 0,0.07937 0.047624,0.116414 0.049388,0.03704 0.1252334,0.03704 0.1199418,0 0.199315,-0.06526 0.079373,-0.06703 0.079373,-0.204607 v -0.08466 z M 9.8690197,14.179017 9.5109582,13.233593 H 9.6767601 L 9.877839,13.79097 q 0.014111,0.0388 0.029985,0.08643 0.015875,0.04762 0.028222,0.09172 0.012347,0.04233 0.017639,0.07232 h 0.00706 q 0.00706,-0.02999 0.019402,-0.07408 0.014111,-0.0441 0.029985,-0.09172 0.01764,-0.04762 0.02999,-0.08467 l 0.201079,-0.557377 h 0.165802 l -0.359825,0.945424 z m 1.0530183,-0.963062 q 0.121706,0 0.208134,0.05292 0.08819,0.05292 0.134053,0.149928 0.04762,0.09525 0.04762,0.224009 v 0.09348 h -0.647333 q 0.0035,0.16051 0.08114,0.245175 0.07937,0.0829 0.220481,0.0829 0.08996,0 0.158747,-0.01588 0.07055,-0.01764 0.144636,-0.04939 v 0.135817 q -0.07232,0.03175 -0.142872,0.04586 -0.07055,0.01588 -0.167566,0.01588 -0.134053,0 -0.23812,-0.05468 -0.102303,-0.05468 -0.16051,-0.162274 -0.05644,-0.109359 -0.05644,-0.266341 0,-0.155219 0.05115,-0.266342 0.05292,-0.111122 0.1464,-0.171093 0.09525,-0.05997 0.220481,-0.05997 z m -0.0018,0.126997 q -0.111122,0 -0.176385,0.07232 -0.0635,0.07055 -0.07584,0.197551 h 0.481531 q -0.0018,-0.119942 -0.05644,-0.194023 -0.05468,-0.07585 -0.172858,-0.07585 z"
     id="text2284"
     style="font-size:1.76385px;fill:#999999;stroke-width:0.529156"
     aria-label="Octave" />
  <text
     xml:space="preserve"
     transform="scale(0.26457812)"
     id="text3806"
     style="font-size:6.66667px;white-space:pre;shape-inside:url(#rect3808);display:inline;fill:#999999;stroke-width:2" />
</svg>
