<?xml version="1.0" encoding="UTF-8" standalone="no"?>
<svg
   width="64"
   height="64"
   version="1.1"
   viewBox="0 0 16.933 16.933"
   id="svg7"
   sodipodi:docname="Games Templates.svg"
   inkscape:version="1.4 (e7c3feb100, 2024-10-09)"
   xmlns:inkscape="http://www.inkscape.org/namespaces/inkscape"
   xmlns:sodipodi="http://sodipodi.sourceforge.net/DTD/sodipodi-0.dtd"
   xmlns:xlink="http://www.w3.org/1999/xlink"
   xmlns="http://www.w3.org/2000/svg"
   xmlns:svg="http://www.w3.org/2000/svg"
   xmlns:rdf="http://www.w3.org/1999/02/22-rdf-syntax-ns#"
   xmlns:cc="http://creativecommons.org/ns#"
   xmlns:dc="http://purl.org/dc/elements/1.1/">
  <sodipodi:namedview
     id="namedview7"
     pagecolor="#9c4444"
     bordercolor="#000000"
     borderopacity="0.25"
     inkscape:showpageshadow="2"
     inkscape:pageopacity="0.0"
     inkscape:pagecheckerboard="0"
     inkscape:deskcolor="#d1d1d1"
     inkscape:zoom="6.15625"
     inkscape:cx="15.675127"
     inkscape:cy="27.370558"
     inkscape:window-width="1183"
     inkscape:window-height="973"
     inkscape:window-x="35"
     inkscape:window-y="32"
     inkscape:window-maximized="0"
     inkscape:current-layer="svg7"
     showgrid="false" />
  <defs
     id="defs2">
    <linearGradient
       inkscape:collect="always"
       id="linearGradient1134">
      <stop
         style="stop-color:#161616;stop-opacity:1;"
         offset="0"
         id="stop1130" />
      <stop
         style="stop-color:#404040;stop-opacity:1;"
         offset="1"
         id="stop1132" />
    </linearGradient>
    <linearGradient
       inkscape:collect="always"
       id="linearGradient883">
      <stop
         style="stop-color:#808080;stop-opacity:1;"
         offset="0"
         id="stop879" />
      <stop
         style="stop-color:#3e3e3e;stop-opacity:1;"
         offset="0.5"
         id="stop1216" />
      <stop
         style="stop-color:#242424;stop-opacity:1;"
         offset="1"
         id="stop881" />
    </linearGradient>
    <linearGradient
       inkscape:collect="always"
       xlink:href="#linearGradient883"
       id="linearGradient885"
       x1="2.1085808"
       y1="2.0236168"
       x2="14.846128"
       y2="15.071845"
       gradientUnits="userSpaceOnUse" />
    <linearGradient
       inkscape:collect="always"
       xlink:href="#linearGradient1134"
       id="linearGradient1136"
       x1="14.971222"
       y1="14.703373"
       x2="2.0756054"
       y2="2.0069976"
       gradientUnits="userSpaceOnUse" />
    <filter
       style="color-interpolation-filters:sRGB;"
       inkscape:label="Blur"
       id="filter1283"
       x="-0.082344266"
       y="-0.082344266"
       width="1.1646885"
       height="1.1646885">
      <feGaussianBlur
         stdDeviation="0.5 0.5"
         result="blur"
         id="feGaussianBlur1281" />
    </filter>
    <filter
       style="color-interpolation-filters:sRGB;"
       inkscape:label="Blur"
       id="filter1694"
       x="-0.94955398"
       y="-0.2118907"
       width="2.899108"
       height="1.4237814">
      <feGaussianBlur
         stdDeviation="0.2 0.2"
         result="blur"
         id="feGaussianBlur1692" />
    </filter>
  </defs>
  <metadata
     id="metadata2">
    <rdf:RDF>
      <cc:Work
         rdf:about="">
        <dc:format>image/svg+xml</dc:format>
        <dc:type
           rdf:resource="http://purl.org/dc/dcmitype/StillImage" />
      </cc:Work>
    </rdf:RDF>
  </metadata>
  <rect
     style="fill:#000000;stroke:none;stroke-width:0.539739;stroke-dasharray:none;filter:url(#filter1283)"
     id="rect246-1"
     width="14.572964"
     height="14.572964"
     x="1.1932471"
     y="1.2138842"
     rx="2.1589575"
     ry="2.1589575" />
  <rect
     style="opacity:1;fill:#000000;stroke:url(#linearGradient885);stroke-width:0.52915625;stroke-dasharray:none"
     id="rect246"
     width="14.287219"
     height="14.287219"
     x="1.3361193"
     y="1.3567564"
     rx="2.1166251"
     ry="2.1166251" />
  <rect
     style="fill:url(#linearGradient1136);fill-opacity:1;stroke:none;stroke-width:0.478315;stroke-dasharray:none"
     id="rect246-5"
     width="12.914515"
     height="12.914515"
     x="2.0224717"
     y="2.0431087"
     rx="1.5874687"
     ry="1.5874687" />
  <path
     style="fill:#999999;fill-opacity:1;stroke-width:0.1985"
     d="M 8.5027764,4.915289 C 7.6102332,4.9161092 6.7193143,5.1249164 6.0393896,5.5378437 4.5445219,6.445283 4.4415828,8.0156421 5.8149539,8.9801357 c 0.1262475,0.08694 0.2410032,0.1680591 0.2554594,0.178926 L 5.6904124,9.8049044 6.4724232,10.349058 8.5027764,7.1198466 10.533129,10.349058 11.315221,9.8049044 10.93514,9.1590617 c 0.01461,-0.010862 0.12913,-0.091986 0.255418,-0.178926 1.37333,-0.9644936 1.270595,-2.5352409 -0.224557,-3.442292 C 10.286239,5.1249164 9.3953195,4.9161041 8.5027764,4.915289 Z M 8.2973046,5.3034157 6.4699864,8.4084258 C 4.4396743,6.8559205 6.6730219,5.3034157 8.2973046,5.3034157 Z m 0.4085072,0 c 1.6242822,0 3.8576712,1.5525048 1.8273172,3.1050101 z M 8.5027764,8.0202997 7.6906351,9.1839028 8.5027764,10.349058 9.3149177,9.1839028 Z"
     id="path8" />
  <g
     aria-label="Krita"
     id="text1450"
     style="font-size:1.76385px;opacity:1;fill:#ff00ff;stroke-width:0.529156">
    <rect
       style="font-size:1.76385px;fill:#ff00ff;fill-opacity:1;stroke:none;stroke-width:0.519976;stroke-dasharray:none;filter:url(#filter1694)"
       id="rect1656-7"
       width="0.5055005"
       height="2.2653189"
       x="15.369148"
       y="4.3016486"
       rx="0"
       ry="0" />
    <rect
       style="opacity:1;fill:#ff00ff;fill-opacity:1;stroke:none;stroke-width:0.519976;stroke-dasharray:none"
       id="rect1656"
       width="0.5055005"
       height="2.2653189"
       x="15.369148"
       y="4.3016486"
       rx="0"
       ry="0" />
  </g>
  <path
     d="m 5.0529548,13.528409 q 0,0.195506 -0.06693,0.341695 -0.065168,0.144427 -0.1937441,0.225447 -0.1285756,0.08102 -0.3187971,0.08102 -0.1955054,0 -0.3258423,-0.08102 -0.1285756,-0.08102 -0.1919828,-0.227209 -0.063407,-0.146188 -0.063407,-0.341694 0,-0.193744 0.063407,-0.338171 0.063407,-0.144428 0.1919828,-0.225448 0.1303369,-0.08102 0.3276036,-0.08102 0.1884602,0 0.3170358,0.08102 0.1285757,0.07926 0.1937441,0.225448 0.06693,0.144427 0.06693,0.339932 z m -0.9933788,0 q 0,0.237777 0.1003947,0.375159 0.1003946,0.135621 0.3135131,0.135621 0.2148799,0 0.3135132,-0.135621 0.098633,-0.137382 0.098633,-0.375159 0,-0.237776 -0.098633,-0.371636 -0.098633,-0.135621 -0.3117519,-0.135621 -0.2131185,0 -0.3152744,0.135621 -0.1003947,0.13386 -0.1003947,0.371636 z m 1.6996643,-0.331126 q 0.1743697,0 0.2800483,0.121531 0.1074399,0.12153 0.1074399,0.366352 0,0.2413 -0.1074399,0.366353 -0.1056786,0.125053 -0.2818096,0.125053 -0.1092012,0 -0.1814149,-0.04051 -0.070452,-0.04227 -0.1109626,-0.09687 h -0.010568 q 0.00352,0.02994 0.00705,0.07574 0.00352,0.04579 0.00352,0.07926 v 0.387488 H 5.3101063 v -1.366777 h 0.1268143 l 0.021136,0.128576 h 0.00705 q 0.042272,-0.06165 0.1109626,-0.103917 0.068691,-0.04227 0.1831762,-0.04227 z m -0.028181,0.130337 q -0.1444275,0 -0.204312,0.08102 -0.058123,0.08102 -0.061646,0.246584 v 0.02994 q 0,0.17437 0.056362,0.26948 0.058123,0.09335 0.2131185,0.09335 0.086304,0 0.1409048,-0.04755 0.056362,-0.04756 0.082782,-0.128576 0.028181,-0.08278 0.028181,-0.18846 0,-0.162041 -0.063407,-0.258913 -0.061646,-0.09687 -0.1919827,-0.09687 z m 1.0268431,-0.130337 q 0.1215304,0 0.2078346,0.05284 0.088065,0.05284 0.1338596,0.149712 0.047555,0.09511 0.047555,0.223686 v 0.09335 H 6.5007513 q 0.00352,0.160279 0.08102,0.244822 0.079259,0.08278 0.2201638,0.08278 0.089827,0 0.1585179,-0.01585 0.070452,-0.01761 0.1444274,-0.04932 v 0.135621 q -0.072214,0.0317 -0.1426661,0.04579 -0.070452,0.01585 -0.1673245,0.01585 -0.1338595,0 -0.2377768,-0.0546 -0.102156,-0.0546 -0.1602792,-0.162041 -0.056362,-0.109201 -0.056362,-0.265957 0,-0.154996 0.051078,-0.265958 0.052839,-0.110963 0.1461887,-0.170847 0.095111,-0.05988 0.2201637,-0.05988 z m -0.00176,0.126815 q -0.1109625,0 -0.176131,0.07221 -0.063407,0.07045 -0.075736,0.197267 h 0.4808376 q -0.00176,-0.119769 -0.056362,-0.193744 -0.054601,-0.07574 -0.1726084,-0.07574 z m 1.0849656,-0.126815 q 0.1690858,0 0.2553899,0.08278 0.086304,0.08102 0.086304,0.264196 v 0.614697 H 8.029567 v -0.604129 q 0,-0.227209 -0.2113572,-0.227209 -0.1567566,0 -0.2166412,0.08807 -0.059884,0.08806 -0.059884,0.253628 v 0.489644 H 7.3866888 v -0.944062 h 0.125053 l 0.022897,0.128576 h 0.00881 q 0.045794,-0.07398 0.1268143,-0.109201 0.08102,-0.03699 0.1708471,-0.03699 z M 9.2853812,14.158958 9.1339085,13.769709 H 8.6354578 L 8.4857465,14.158958 H 8.3254672 L 8.8168727,12.896099 H 8.9595388 L 9.449183,14.158958 Z M 8.9454484,13.248361 q -0.00528,-0.01409 -0.017613,-0.05108 -0.012329,-0.03699 -0.024658,-0.07574 -0.010568,-0.04051 -0.017613,-0.06165 -0.012329,0.0546 -0.028181,0.10744 -0.015852,0.05108 -0.02642,0.08102 l -0.1426661,0.380443 h 0.3980561 z m 1.0955346,-0.05108 q 0.02642,0 0.05636,0.0035 0.0317,0.0018 0.0546,0.007 l -0.01937,0.142666 q -0.0229,-0.0053 -0.05108,-0.0088 -0.02642,-0.0035 -0.05108,-0.0035 -0.072214,0 -0.1356208,0.04051 -0.063407,0.03875 -0.102156,0.110963 -0.036988,0.07045 -0.036988,0.165563 v 0.503734 H 9.6006554 v -0.944062 h 0.1268143 l 0.017613,0.172609 h 0.00705 q 0.045794,-0.0775 0.1180078,-0.13386 0.072214,-0.05636 0.1708471,-0.05636 z m 0.616458,0 q 0.12153,0 0.207835,0.05284 0.08807,0.05284 0.133859,0.149712 0.04756,0.09511 0.04756,0.223686 v 0.09335 H 10.40029 q 0.0035,0.160279 0.08102,0.244822 0.07926,0.08278 0.220164,0.08278 0.08983,0 0.158518,-0.01585 0.07045,-0.01761 0.144427,-0.04932 v 0.135621 q -0.07221,0.0317 -0.142666,0.04579 -0.07045,0.01585 -0.167324,0.01585 -0.13386,0 -0.237777,-0.0546 -0.102156,-0.0546 -0.160279,-0.162041 -0.05636,-0.109201 -0.05636,-0.265957 0,-0.154996 0.05108,-0.265958 0.05284,-0.110963 0.146188,-0.170847 0.09511,-0.05988 0.220164,-0.05988 z m -0.0018,0.126815 q -0.110963,0 -0.176131,0.07221 -0.06341,0.07045 -0.07574,0.197267 h 0.480838 q -0.0018,-0.119769 -0.05636,-0.193744 -0.0546,-0.07574 -0.172608,-0.07574 z m 1.084965,-0.126815 q 0.169086,0 0.25539,0.08278 0.0863,0.08102 0.0863,0.264196 v 0.614697 h -0.153234 v -0.604129 q 0,-0.227209 -0.211357,-0.227209 -0.156757,0 -0.216641,0.08807 -0.05988,0.08806 -0.05988,0.253628 v 0.489644 h -0.154995 v -0.944062 h 0.125053 l 0.0229,0.128576 h 0.0088 q 0.04579,-0.07398 0.126814,-0.109201 0.08102,-0.03699 0.170847,-0.03699 z m 0.991618,0.0018 q 0.172608,0 0.25539,0.07574 0.08278,0.07574 0.08278,0.241299 v 0.642878 h -0.112724 l -0.02994,-0.133859 h -0.007 q -0.06165,0.0775 -0.130337,0.114485 -0.06693,0.03699 -0.186699,0.03699 -0.128575,0 -0.213118,-0.06693 -0.08454,-0.06869 -0.08454,-0.213119 0,-0.140905 0.110963,-0.216641 0.110962,-0.0775 0.341694,-0.08454 l 0.160279,-0.0053 v -0.05636 q 0,-0.118007 -0.05108,-0.163801 -0.05108,-0.04579 -0.144428,-0.04579 -0.07398,0 -0.140904,0.0229 -0.06693,0.02114 -0.125053,0.04932 l -0.04756,-0.116246 q 0.06165,-0.03346 0.146189,-0.05636 0.08454,-0.02466 0.176131,-0.02466 z m 0.04579,0.503735 q -0.176131,0.007 -0.244822,0.05636 -0.06693,0.04932 -0.06693,0.139144 0,0.07926 0.04756,0.116246 0.04932,0.03699 0.125053,0.03699 0.119769,0 0.199028,-0.06517 0.07926,-0.06693 0.07926,-0.204312 v -0.08454 z"
     id="text1"
     style="font-size:1.76131px;text-align:center;text-anchor:middle;fill:#999999;stroke-width:0.264198"
     transform="scale(0.99856158,1.0014405)"
     aria-label="OpenArena" />
</svg>
