<?xml version="1.0" encoding="UTF-8" standalone="no"?>
<svg
   width="64"
   height="64"
   version="1.1"
   viewBox="0 0 16.933 16.933"
   id="svg7"
   sodipodi:docname="org.gnome.Boxes.svg"
   inkscape:version="1.4 (e7c3feb100, 2024-10-09)"
   xmlns:inkscape="http://www.inkscape.org/namespaces/inkscape"
   xmlns:sodipodi="http://sodipodi.sourceforge.net/DTD/sodipodi-0.dtd"
   xmlns:xlink="http://www.w3.org/1999/xlink"
   xmlns="http://www.w3.org/2000/svg"
   xmlns:svg="http://www.w3.org/2000/svg"
   xmlns:rdf="http://www.w3.org/1999/02/22-rdf-syntax-ns#"
   xmlns:cc="http://creativecommons.org/ns#"
   xmlns:dc="http://purl.org/dc/elements/1.1/">
  <sodipodi:namedview
     id="namedview7"
     pagecolor="#9c4444"
     bordercolor="#000000"
     borderopacity="0.25"
     inkscape:showpageshadow="2"
     inkscape:pageopacity="0.0"
     inkscape:pagecheckerboard="0"
     inkscape:deskcolor="#d1d1d1"
     inkscape:zoom="6.15625"
     inkscape:cx="15.675127"
     inkscape:cy="29.807107"
     inkscape:window-width="1183"
     inkscape:window-height="973"
     inkscape:window-x="35"
     inkscape:window-y="32"
     inkscape:window-maximized="0"
     inkscape:current-layer="svg7"
     showgrid="false" />
  <defs
     id="defs2">
    <rect
       x="67.489848"
       y="35.60533"
       width="15.337563"
       height="22.51269"
       id="rect3808" />
    <linearGradient
       inkscape:collect="always"
       id="linearGradient1134">
      <stop
         style="stop-color:#161616;stop-opacity:1;"
         offset="0"
         id="stop1130" />
      <stop
         style="stop-color:#404040;stop-opacity:1;"
         offset="1"
         id="stop1132" />
    </linearGradient>
    <linearGradient
       inkscape:collect="always"
       id="linearGradient883">
      <stop
         style="stop-color:#808080;stop-opacity:1;"
         offset="0"
         id="stop879" />
      <stop
         style="stop-color:#3e3e3e;stop-opacity:1;"
         offset="0.5"
         id="stop1216" />
      <stop
         style="stop-color:#242424;stop-opacity:1;"
         offset="1"
         id="stop881" />
    </linearGradient>
    <linearGradient
       inkscape:collect="always"
       xlink:href="#linearGradient883"
       id="linearGradient885"
       x1="2.1085808"
       y1="2.0236168"
       x2="14.846128"
       y2="15.071845"
       gradientUnits="userSpaceOnUse" />
    <linearGradient
       inkscape:collect="always"
       xlink:href="#linearGradient1134"
       id="linearGradient1136"
       x1="14.971222"
       y1="14.703373"
       x2="2.0756054"
       y2="2.0069976"
       gradientUnits="userSpaceOnUse" />
    <filter
       style="color-interpolation-filters:sRGB;"
       inkscape:label="Blur"
       id="filter1283"
       x="-0.082344266"
       y="-0.082344266"
       width="1.1646885"
       height="1.1646885">
      <feGaussianBlur
         stdDeviation="0.5 0.5"
         result="blur"
         id="feGaussianBlur1281" />
    </filter>
    <filter
       style="color-interpolation-filters:sRGB;"
       inkscape:label="Blur"
       id="filter1694"
       x="-0.94955398"
       y="-0.2118907"
       width="2.899108"
       height="1.4237814">
      <feGaussianBlur
         stdDeviation="0.2 0.2"
         result="blur"
         id="feGaussianBlur1692" />
    </filter>
    <filter
       style="color-interpolation-filters:sRGB;"
       inkscape:label="Blur"
       id="filter3148"
       x="-0.94955398"
       y="-0.2118907"
       width="2.899108"
       height="1.4237814">
      <feGaussianBlur
         stdDeviation="0.2 0.2"
         result="blur"
         id="feGaussianBlur3146" />
    </filter>
    <clipPath
       clipPathUnits="userSpaceOnUse"
       id="clipPath44">
      <path
         id="path46"
         style="display:block;opacity:0.85;fill:#f2f2f2;stroke-width:4.39162"
         d="m 17.570312,8.4453125 a 6.5431988,7.4283052 9.9958727e-8 0 0 -6.535156,7.4394535 6.5431988,7.4283052 9.9958727e-8 0 0 6.552735,7.417968 6.5431988,7.4283052 9.9958727e-8 0 0 6.535156,-7.4375 6.5431988,7.4283052 9.9958727e-8 0 0 -6.552735,-7.4199215 z M 45.646484,41.177734 a 6.5431986,7.0703472 2.4665357e-6 0 0 -6.533203,7.080078 6.5431986,7.0703472 2.4665357e-6 0 0 6.550781,7.060547 6.5431986,7.0703472 2.4665357e-6 0 0 6.535157,-7.080078 6.5431986,7.0703472 2.4665357e-6 0 0 -6.552735,-7.060547 z" />
    </clipPath>
    <inkscape:path-effect
       effect="powerclip"
       id="path-effect48"
       is_visible="true"
       lpeversion="1"
       inverse="true"
       flatten="false"
       hide_clip="false"
       message="" />
  </defs>
  <metadata
     id="metadata2">
    <rdf:RDF>
      <cc:Work
         rdf:about="">
        <dc:format>image/svg+xml</dc:format>
        <dc:type
           rdf:resource="http://purl.org/dc/dcmitype/StillImage" />
      </cc:Work>
    </rdf:RDF>
  </metadata>
  <rect
     style="fill:#000000;stroke:none;stroke-width:0.539739;stroke-dasharray:none;filter:url(#filter1283)"
     id="rect246-1"
     width="14.572964"
     height="14.572964"
     x="1.1932471"
     y="1.2138842"
     rx="2.1589575"
     ry="2.1589575" />
  <rect
     style="opacity:1;fill:#000000;stroke:url(#linearGradient885);stroke-width:0.52915625;stroke-dasharray:none"
     id="rect246"
     width="14.287219"
     height="14.287219"
     x="1.3361193"
     y="1.3567564"
     rx="2.1166251"
     ry="2.1166251" />
  <rect
     style="fill:url(#linearGradient1136);fill-opacity:1;stroke:none;stroke-width:0.478315;stroke-dasharray:none"
     id="rect246-5"
     width="12.914515"
     height="12.914515"
     x="2.0224717"
     y="2.0431087"
     rx="1.5874687"
     ry="1.5874687" />
  <path
     style="fill:#999999;fill-opacity:1;stroke:none;stroke-width:0.246605;stroke-dasharray:none;stroke-opacity:0.3"
     d="M 5.7252979,10.931923 C 5.5248364,10.874229 5.3061076,10.713501 5.1906674,10.539062 4.9341268,10.1514 4.9818797,9.6818429 5.3113503,9.3523727 5.4099723,9.2537503 5.5333648,9.162341 5.5855561,9.1492425 l 0.094893,-0.023814 V 7.4287303 5.7320346 L 5.5672883,5.6851614 C 5.4179855,5.6233184 5.2211373,5.4277096 5.1316155,5.2522322 4.9030333,4.8041749 5.0660512,4.2718528 5.512147,4.0096351 5.670636,3.9164747 5.7430291,3.8993433 5.9745362,3.9002164 c 0.3923591,0.00147 0.6781211,0.1697159 0.8474374,0.4989129 l 0.075628,0.1470433 h 1.6862715 1.6862719 l 0.03561,-0.093673 c 0.107758,-0.2834265 0.535664,-0.5717976 0.849578,-0.5725413 0.523844,-0.00121 0.962325,0.4229607 0.965437,0.9339968 7.22e-4,0.1236799 -0.02804,0.2919687 -0.06487,0.3792085 -0.07889,0.1868573 -0.303994,0.4278 -0.460072,0.4924491 l -0.112071,0.046422 v 1.6961899 1.6961889 l 0.113161,0.046867 c 0.166137,0.068818 0.358634,0.2714812 0.447474,0.4711052 0.317435,0.7132903 -0.366876,1.5000043 -1.114453,1.2812313 -0.252957,-0.07403 -0.478817,-0.251662 -0.585254,-0.460297 l -0.07808,-0.153046 H 8.5850358 6.903461 L 6.8008314,10.485398 C 6.6742489,10.701394 6.4864811,10.848551 6.2445538,10.92136 6.0359586,10.98414 5.9152555,10.9866 5.7252979,10.93193 Z M 10.335346,9.5839665 10.401215,9.4458297 10.17355,9.2157662 C 9.9558875,8.9958023 9.9389477,8.9866323 9.787774,9.0069074 9.6014664,9.0318927 9.402597,8.9416417 9.3251673,8.7969668 9.2748215,8.7028958 9.2725458,8.7025993 8.5996999,8.7025993 H 7.9247358 L 7.7629339,8.8644033 C 7.6087263,9.0186103 7.5920688,9.0253341 7.4080455,9.0076518 7.2163357,8.9892405 7.2133507,8.9907309 6.9889776,9.2174648 l -0.2259824,0.2283649 0.065872,0.1381368 0.065873,0.1381358 H 8.5821078 10.269474 Z M 6.785344,9.0289994 C 7.0021451,8.8144628 7.0094472,8.8005664 6.9879178,8.6434935 6.9618183,8.4530742 7.0414149,8.2670577 7.1909116,8.1691041 l 0.097213,-0.063696 V 7.4246182 6.7438292 L 7.1880913,6.678285 C 7.0370422,6.5793136 6.9617068,6.4041867 6.9879178,6.2129545 7.0094699,6.0557305 7.0022694,6.042109 6.782959,5.8250858 L 6.555665,5.6001645 6.4121445,5.6686042 6.2686234,5.7370447 v 1.6752261 1.6752246 l 0.1274374,0.078789 c 0.070092,0.043335 0.1357489,0.080247 0.1459066,0.082026 0.01016,0.00186 0.119677,-0.096904 0.2433766,-0.2193126 z m 4.070787,-1.5982347 -2.49e-4,-1.6886388 -0.124038,-0.070615 -0.124038,-0.070613 -0.230224,0.22746 c -0.217289,0.2146819 -0.22886,0.2355809 -0.205989,0.3720064 0.02984,0.1779506 -0.07128,0.4128712 -0.2036833,0.4731976 -0.091259,0.04158 -0.091822,0.046087 -0.091822,0.7368402 v 0.6950045 l 0.1013049,0.066378 c 0.1371224,0.089847 0.2254964,0.3114089 0.1930964,0.4841133 -0.02385,0.127157 -0.01005,0.1524371 0.198284,0.3629602 L 10.592695,9.245144 10.724537,9.18228 10.856378,9.119416 10.856149,7.4307785 Z m -1.5370839,0.9014 c 0.024048,-0.052775 0.088636,-0.1253855 0.1435344,-0.1613563 l 0.099815,-0.065402 V 7.4263844 6.7473617 L 9.4470806,6.6652495 C 9.3836573,6.6200881 9.3207096,6.5483053 9.3071978,6.5057333 9.2839554,6.4325054 9.2451449,6.4283286 8.5879188,6.4283286 H 7.893207 L 7.8251283,6.5435771 C 7.7876847,6.606965 7.7221221,6.6699115 7.6794338,6.6834603 7.6059119,6.7067937 7.6018178,6.7449564 7.6018178,7.406751 v 0.6986565 l 0.099815,0.065403 c 0.054898,0.03597 0.1194886,0.1085807 0.1435346,0.1613558 l 0.04372,0.095954 H 8.582108 9.2753286 Z m -0.01185,-2.2557219 c 0.013512,-0.04257 0.07775,-0.1152739 0.1427528,-0.1615589 0.093995,-0.066929 0.1571887,-0.080407 0.3087438,-0.065845 0.1885811,0.018121 0.1929065,0.015939 0.4165423,-0.2100551 L 10.401217,5.4106182 10.33535,5.272482 10.269481,5.1343466 H 8.5866149 6.9037554 L 6.8254884,5.2669991 6.7472205,5.3996514 6.9778082,5.6278327 C 7.1962381,5.843983 7.2175549,5.8554508 7.3821216,5.8453306 7.5879169,5.8326721 7.7596825,5.9111881 7.8352962,6.0524731 L 7.88955,6.1538478 h 0.6965402 c 0.6590463,0 0.6978626,-0.00417 0.7211069,-0.077405 z"
     id="path2647" />
  <g
     fill="#474747"
     id="g9"
     transform="matrix(0.46959567,0,0,0.46959567,4.7471229,3.7470598)"
     style="fill:#999999;fill-opacity:1;stroke:none;stroke-width:0.58349;stroke-dasharray:none;stroke-opacity:0.3" />
  <g
     aria-label="Krita"
     id="text1450"
     style="font-size:1.76385px;opacity:1;fill:#00ffff;stroke-width:0.529156">
    <rect
       style="font-size:1.76385px;fill:#00ffff;fill-opacity:1;stroke:none;stroke-width:0.519976;stroke-dasharray:none;filter:url(#filter3148)"
       id="rect1656-3"
       width="0.5055005"
       height="2.2653189"
       x="15.369148"
       y="4.3016486"
       rx="0"
       ry="0" />
    <rect
       style="opacity:1;fill:#00ffff;fill-opacity:1;stroke:none;stroke-width:0.519976;stroke-dasharray:none"
       id="rect1656"
       width="0.5055005"
       height="2.2653189"
       x="15.369148"
       y="4.3016486"
       rx="0"
       ry="0" />
  </g>
  <g
     aria-label="Boxes"
     id="text2284"
     style="font-size:1.76385px;text-align:center;text-anchor:middle;opacity:1;fill:#999999;stroke-width:0.529156">
    <path
       d="m 6.5686804,12.919628 q 0.2363559,0 0.3562977,0.07055 0.1217056,0.06879 0.1217056,0.241648 0,0.111122 -0.061735,0.185204 -0.061735,0.07232 -0.1781489,0.09348 v 0.0088 q 0.079373,0.01235 0.1428719,0.04586 0.065262,0.03351 0.1023033,0.09525 0.037041,0.06174 0.037041,0.160511 0,0.171093 -0.1181779,0.264577 -0.1164141,0.09348 -0.3192569,0.09348 H 6.208855 v -1.259389 z m 0.031749,0.536211 q 0.1622742,0 0.2222451,-0.05115 0.059971,-0.05292 0.059971,-0.155219 0,-0.104067 -0.074082,-0.148163 -0.072318,-0.04586 -0.2328282,-0.04586 H 6.3676015 v 0.400394 z m -0.2328282,0.132288 v 0.456837 h 0.2539944 q 0.1675657,0 0.2328282,-0.06526 0.065262,-0.06526 0.065262,-0.171093 0,-0.09878 -0.06879,-0.158747 -0.067026,-0.06174 -0.2416475,-0.06174 z"
       id="path659" />
    <path
       d="m 8.1561446,13.704541 q 0,0.234592 -0.1199418,0.363354 -0.1181779,0.128761 -0.3210207,0.128761 -0.1252333,0 -0.2240089,-0.05644 -0.097012,-0.05821 -0.153455,-0.167565 -0.056443,-0.111123 -0.056443,-0.268106 0,-0.234592 0.118178,-0.361589 0.1181779,-0.126997 0.3210207,-0.126997 0.128761,0 0.2257728,0.05821 0.098776,0.05644 0.1534549,0.165802 0.056443,0.107595 0.056443,0.264577 z m -0.7143592,0 q 0,0.167566 0.065262,0.266342 0.067026,0.09701 0.211662,0.09701 0.1428719,0 0.2098982,-0.09701 0.067026,-0.09878 0.067026,-0.266342 0,-0.167565 -0.067026,-0.262813 -0.067026,-0.09525 -0.211662,-0.09525 -0.1446357,0 -0.2098982,0.09525 -0.065262,0.09525 -0.065262,0.262813 z"
       id="path661" />
    <path
       d="M 8.5900501,13.695722 8.2637378,13.233593 h 0.176385 l 0.2434113,0.356298 0.2416475,-0.356298 h 0.1746211 l -0.3263122,0.462129 0.3439507,0.483295 H 8.9410562 L 8.6835341,13.801553 8.4224843,14.179017 H 8.2478632 Z"
       id="path663" />
    <path
       d="m 9.6289557,13.215955 q 0.1217056,0 0.2081342,0.05292 0.088192,0.05292 0.1340526,0.149928 0.047624,0.09525 0.047624,0.224009 v 0.09348 H 9.3714336 q 0.00353,0.16051 0.081137,0.245175 0.079373,0.0829 0.2204812,0.0829 0.089956,0 0.1587465,-0.01588 0.070554,-0.01764 0.1446357,-0.04939 v 0.135817 q -0.072318,0.03175 -0.1428719,0.04586 -0.070554,0.01588 -0.1675657,0.01588 -0.1340526,0 -0.2381197,-0.05468 -0.1023033,-0.05468 -0.1605104,-0.162274 -0.056443,-0.109359 -0.056443,-0.266341 0,-0.155219 0.051152,-0.266342 0.052915,-0.111122 0.1463995,-0.171093 0.095248,-0.05997 0.2204813,-0.05997 z m -0.00176,0.126997 q -0.1111225,0 -0.176385,0.07232 -0.063499,0.07055 -0.075845,0.197551 h 0.481531 q -0.00176,-0.119942 -0.056443,-0.194023 -0.054679,-0.07585 -0.1728573,-0.07585 z"
       id="path665" />
    <path
       d="m 10.874232,13.917967 q 0,0.137581 -0.102303,0.208135 -0.102303,0.07055 -0.27516,0.07055 -0.09878,0 -0.171094,-0.01588 -0.07055,-0.01587 -0.125233,-0.0441 v -0.141108 q 0.05644,0.02822 0.135816,0.05291 0.08114,0.02293 0.164038,0.02293 0.118178,0 0.171094,-0.03704 0.05291,-0.0388 0.05291,-0.102303 0,-0.03528 -0.0194,-0.0635 -0.0194,-0.02822 -0.07055,-0.05644 -0.04939,-0.02822 -0.142872,-0.0635 -0.09172,-0.03528 -0.156983,-0.07055 -0.06526,-0.03528 -0.100539,-0.08466 -0.03528,-0.04939 -0.03528,-0.126997 0,-0.119942 0.09701,-0.185205 0.09877,-0.06526 0.257522,-0.06526 0.08643,0 0.16051,0.01764 0.07585,0.01587 0.141108,0.04586 l -0.05292,0.123469 q -0.05997,-0.02469 -0.125234,-0.04233 -0.06526,-0.01764 -0.134052,-0.01764 -0.09525,0 -0.1464,0.03175 -0.04939,0.02999 -0.04939,0.0829 0,0.0388 0.02293,0.06703 0.02293,0.02646 0.07585,0.05292 0.05468,0.02469 0.144636,0.05997 0.08996,0.03351 0.153455,0.06879 0.0635,0.03528 0.09701,0.08643 0.03351,0.04939 0.03351,0.125233 z"
       id="path667" />
  </g>
  <text
     xml:space="preserve"
     transform="scale(0.26457812)"
     id="text3806"
     style="font-size:6.66667px;white-space:pre;shape-inside:url(#rect3808);display:inline;fill:#999999;stroke-width:2" />
</svg>
