<?xml version="1.0" encoding="UTF-8" standalone="no"?>
<svg
   width="64"
   height="64"
   version="1.1"
   viewBox="0 0 16.933 16.933"
   id="svg7"
   sodipodi:docname="org.gnome.meld.svg"
   inkscape:version="1.4 (e7c3feb100, 2024-10-09)"
   xmlns:inkscape="http://www.inkscape.org/namespaces/inkscape"
   xmlns:sodipodi="http://sodipodi.sourceforge.net/DTD/sodipodi-0.dtd"
   xmlns:xlink="http://www.w3.org/1999/xlink"
   xmlns="http://www.w3.org/2000/svg"
   xmlns:svg="http://www.w3.org/2000/svg"
   xmlns:rdf="http://www.w3.org/1999/02/22-rdf-syntax-ns#"
   xmlns:cc="http://creativecommons.org/ns#"
   xmlns:dc="http://purl.org/dc/elements/1.1/">
  <sodipodi:namedview
     id="namedview7"
     pagecolor="#9c4444"
     bordercolor="#000000"
     borderopacity="0.25"
     inkscape:showpageshadow="2"
     inkscape:pageopacity="0.0"
     inkscape:pagecheckerboard="0"
     inkscape:deskcolor="#d1d1d1"
     inkscape:zoom="6.15625"
     inkscape:cx="15.675127"
     inkscape:cy="29.807107"
     inkscape:window-width="1183"
     inkscape:window-height="973"
     inkscape:window-x="35"
     inkscape:window-y="32"
     inkscape:window-maximized="0"
     inkscape:current-layer="svg7"
     showgrid="false" />
  <defs
     id="defs2">
    <rect
       x="67.489848"
       y="35.60533"
       width="15.337563"
       height="22.51269"
       id="rect3808" />
    <linearGradient
       inkscape:collect="always"
       id="linearGradient1134">
      <stop
         style="stop-color:#161616;stop-opacity:1;"
         offset="0"
         id="stop1130" />
      <stop
         style="stop-color:#404040;stop-opacity:1;"
         offset="1"
         id="stop1132" />
    </linearGradient>
    <linearGradient
       inkscape:collect="always"
       id="linearGradient883">
      <stop
         style="stop-color:#808080;stop-opacity:1;"
         offset="0"
         id="stop879" />
      <stop
         style="stop-color:#3e3e3e;stop-opacity:1;"
         offset="0.5"
         id="stop1216" />
      <stop
         style="stop-color:#242424;stop-opacity:1;"
         offset="1"
         id="stop881" />
    </linearGradient>
    <linearGradient
       inkscape:collect="always"
       xlink:href="#linearGradient883"
       id="linearGradient885"
       x1="2.1085808"
       y1="2.0236168"
       x2="14.846128"
       y2="15.071845"
       gradientUnits="userSpaceOnUse" />
    <linearGradient
       inkscape:collect="always"
       xlink:href="#linearGradient1134"
       id="linearGradient1136"
       x1="14.971222"
       y1="14.703373"
       x2="2.0756054"
       y2="2.0069976"
       gradientUnits="userSpaceOnUse" />
    <filter
       style="color-interpolation-filters:sRGB;"
       inkscape:label="Blur"
       id="filter1283"
       x="-0.082344266"
       y="-0.082344266"
       width="1.1646885"
       height="1.1646885">
      <feGaussianBlur
         stdDeviation="0.5 0.5"
         result="blur"
         id="feGaussianBlur1281" />
    </filter>
    <filter
       style="color-interpolation-filters:sRGB;"
       inkscape:label="Blur"
       id="filter1694"
       x="-0.94955398"
       y="-0.2118907"
       width="2.899108"
       height="1.4237814">
      <feGaussianBlur
         stdDeviation="0.2 0.2"
         result="blur"
         id="feGaussianBlur1692" />
    </filter>
    <filter
       style="color-interpolation-filters:sRGB;"
       inkscape:label="Blur"
       id="filter3148"
       x="-0.94955398"
       y="-0.2118907"
       width="2.899108"
       height="1.4237814">
      <feGaussianBlur
         stdDeviation="0.2 0.2"
         result="blur"
         id="feGaussianBlur3146" />
    </filter>
    <clipPath
       clipPathUnits="userSpaceOnUse"
       id="clipPath44">
      <path
         id="path46"
         style="display:block;opacity:0.85;fill:#f2f2f2;stroke-width:4.39162"
         d="m 17.570312,8.4453125 a 6.5431988,7.4283052 9.9958727e-8 0 0 -6.535156,7.4394535 6.5431988,7.4283052 9.9958727e-8 0 0 6.552735,7.417968 6.5431988,7.4283052 9.9958727e-8 0 0 6.535156,-7.4375 6.5431988,7.4283052 9.9958727e-8 0 0 -6.552735,-7.4199215 z M 45.646484,41.177734 a 6.5431986,7.0703472 2.4665357e-6 0 0 -6.533203,7.080078 6.5431986,7.0703472 2.4665357e-6 0 0 6.550781,7.060547 6.5431986,7.0703472 2.4665357e-6 0 0 6.535157,-7.080078 6.5431986,7.0703472 2.4665357e-6 0 0 -6.552735,-7.060547 z" />
    </clipPath>
    <inkscape:path-effect
       effect="powerclip"
       id="path-effect48"
       is_visible="true"
       lpeversion="1"
       inverse="true"
       flatten="false"
       hide_clip="false"
       message="" />
  </defs>
  <metadata
     id="metadata2">
    <rdf:RDF>
      <cc:Work
         rdf:about="">
        <dc:format>image/svg+xml</dc:format>
        <dc:type
           rdf:resource="http://purl.org/dc/dcmitype/StillImage" />
      </cc:Work>
    </rdf:RDF>
  </metadata>
  <rect
     style="fill:#000000;stroke:none;stroke-width:0.539739;stroke-dasharray:none;filter:url(#filter1283)"
     id="rect246-1"
     width="14.572964"
     height="14.572964"
     x="1.1932471"
     y="1.2138842"
     rx="2.1589575"
     ry="2.1589575" />
  <rect
     style="opacity:1;fill:#000000;stroke:url(#linearGradient885);stroke-width:0.52915625;stroke-dasharray:none"
     id="rect246"
     width="14.287219"
     height="14.287219"
     x="1.3361193"
     y="1.3567564"
     rx="2.1166251"
     ry="2.1166251" />
  <rect
     style="fill:url(#linearGradient1136);fill-opacity:1;stroke:none;stroke-width:0.478315;stroke-dasharray:none"
     id="rect246-5"
     width="12.914515"
     height="12.914515"
     x="2.0224717"
     y="2.0431087"
     rx="1.5874687"
     ry="1.5874687" />
  <path
     id="path5"
     style="fill:#999999;fill-opacity:1;stroke:none;stroke-width:0.0216145;stroke-opacity:1"
     d="M 8.3596272,3.6353648 8.1541674,3.7513174 C 6.9970111,4.405604 6.3682802,5.2134861 6.1860262,6.2795567 6.1381721,6.5594738 6.1276419,6.954476 6.1639887,7.1146179 6.2684346,7.5748022 6.5222408,8.0295977 6.8410562,8.3277119 7.3220773,8.777498 8.0655561,8.9206428 8.6040767,8.6670934 8.7798352,8.5843394 8.9787758,8.3794626 9.0309312,8.2276943 9.1147617,7.9837534 9.0605177,7.6063139 8.9200643,7.45739 8.8625274,7.3963829 8.8362638,7.3850003 8.756646,7.3851738 8.7014787,7.3852967 8.613786,7.4077303 8.5464396,7.4390816 8.3933197,7.5103576 8.3106491,7.5107328 8.2928359,7.4397499 8.275196,7.3694638 8.336529,7.2718449 8.4888025,7.127831 8.6605617,6.9653876 8.7708786,6.9203401 8.9970269,6.920337 9.157874,6.9203346 9.1971022,6.928374 9.3106413,6.9850938 9.4969605,7.0781715 9.72249,7.3109982 9.8239506,7.5146782 9.9452987,7.7582801 9.9789191,7.9128619 9.9785537,8.2276844 9.9781919,8.5393928 9.9468107,8.681833 9.8171701,8.9593382 9.4640156,9.7153336 8.5559517,10.302739 7.6208537,10.380265 7.0348392,10.428848 6.1640882,10.175913 5.5062463,9.765921 5.4111437,9.7066455 5.3299315,9.6619254 5.3255367,9.6662427 c -0.0044,0.00429 0.055299,0.088519 0.1325656,0.187152 0.1536951,0.1961933 0.480209,0.5255433 0.6587594,0.6645223 0.5527247,0.430227 1.2529586,0.719102 1.9366103,0.798785 0.085136,0.0099 0.2644304,0.01914 0.3983746,0.02068 l 0.2434326,0.003 0.199357,-0.111884 c 1.0746187,-0.602333 1.7043078,-1.3890253 1.9220318,-2.402116 0.0378,-0.1758729 0.04724,-0.2944449 0.04815,-0.5878996 0.0011,-0.3479841 -0.0021,-0.3769516 -0.06034,-0.5509438 C 10.652258,7.2330869 10.387069,6.8291483 10.080945,6.585364 9.9171431,6.4549194 9.6064126,6.3013993 9.397097,6.2476778 9.1973422,6.1964102 8.8405983,6.1952118 8.6556113,6.2453044 8.1485511,6.3826114 7.8893158,6.7171291 7.9520983,7.1529211 7.985437,7.3843359 8.0664041,7.55055 8.166373,7.59232 8.257089,7.630223 8.322145,7.620828 8.5091448,7.54282 8.6113287,7.500193 8.6472308,7.493967 8.6874811,7.512306 8.7615201,7.546041 8.7501461,7.6134638 8.6484911,7.7452283 8.478174,7.9659914 8.2682111,8.0800058 8.0327905,8.0798628 7.8639077,8.0797605 7.7575885,8.0506744 7.6293299,7.9693352 7.1696388,7.6778075 6.9385331,7.0510653 7.0644854,6.4382195 7.237916,5.5943577 8.065521,4.8756694 9.1136575,4.6589251 c 0.4237786,-0.087633 0.9788345,-0.030196 1.5226385,0.1573156 0.264525,0.091212 0.670233,0.2834546 0.877443,0.416005 0.06881,0.044021 0.130194,0.074925 0.136634,0.068486 C 11.670542,5.2805604 11.429414,4.9834208 11.230299,4.783014 10.518569,4.0666744 9.5936799,3.6638154 8.6081455,3.6411285 Z m -0.5414507,0.060349 c -0.00468,-0.0016 -0.015565,-4.011e-4 -0.031531,0.00272 C 6.3136628,3.9860229 5.1198371,5.1145338 4.7606923,6.558931 4.67308,6.9112884 4.647872,7.1267464 4.6488083,7.5146914 c 0.00124,0.5125074 0.090177,0.9563321 0.289203,1.4446598 l 0.091202,0.2234282 0.206477,0.1556204 C 5.8589906,9.8079222 6.5383195,10.09275 7.2462119,10.181256 7.516827,10.215089 7.9446909,10.153295 8.2836818,10.031399 8.9011479,9.8093775 9.4538702,9.3239227 9.6683303,8.8145758 9.8422655,8.4014774 9.8368628,7.9969494 9.6527347,7.6225029 9.5622386,7.4384651 9.3839852,7.2450182 9.2353748,7.1692032 9.1021075,7.101215 8.9234662,7.0905726 8.813267,7.1444531 l -0.086456,0.04238 0.065096,0.00238 c 0.2502571,0.00858 0.4314081,0.2649379 0.474999,0.6719817 0.068657,0.6411108 -0.472702,1.1232465 -1.2615768,1.1232465 -0.530893,0 -0.9669112,-0.1849871 -1.3534571,-0.5739978 C 6.3239873,8.0804631 6.1197412,7.7204009 6.0005707,7.2621012 5.9066577,6.9009369 5.9362877,6.3737749 6.0788891,5.8659246 6.309364,5.0451311 6.8392773,4.3602846 7.6679811,3.8123446 7.7911568,3.7309009 7.8322162,3.70053 7.8181765,3.6957138 Z m 1.762681,1.119519 c -0.159366,-0.00168 -0.3135139,0.012173 -0.46008,0.042041 C 8.3485549,5.0146427 7.6776246,5.5052962 7.3767433,6.1327512 7.179052,6.5450159 7.1751305,6.9914042 7.3655556,7.3783931 c 0.089422,0.1817283 0.2766632,0.3809469 0.4295669,0.457029 0.1185139,0.058972 0.3188202,0.069115 0.4112583,0.020682 l 0.057638,-0.030175 -0.111545,-0.028819 C 7.941375,7.7430078 7.8152603,7.5506768 7.7605399,7.1987006 7.7107092,6.878175 7.802676,6.584097 8.0192295,6.3724542 8.169028,6.2260526 8.343286,6.1293561 8.5762761,6.0632477 c 0.25816,-0.073251 0.6599564,-0.068212 0.9286371,0.011867 0.5365728,0.1599216 0.9264148,0.4722842 1.2368258,0.9910209 0.212152,0.3545318 0.330227,0.753887 0.330227,1.1164666 0,1.1865643 -0.588341,2.2446318 -1.6372345,2.9439068 -0.092046,0.06136 -0.1772984,0.120962 -0.1891856,0.132564 -0.014164,0.01381 -0.00663,0.01714 0.021699,0.0095 0.023776,-0.0064 0.1257728,-0.03227 0.2268188,-0.05763 C 10.189632,11.036323 10.937298,10.559942 11.416096,9.9863148 12.328383,8.8933411 12.582909,7.5225768 12.119947,6.197177 11.997593,5.846887 11.962258,5.7905399 11.782599,5.6567374 11.062267,5.1202619 10.271446,4.8225207 9.5808575,4.8152328 Z" />
  <g
     fill="#474747"
     id="g9"
     transform="matrix(0.46959567,0,0,0.46959567,4.7471229,3.7470598)"
     style="fill:#999999;fill-opacity:1;stroke:none;stroke-width:0.58349;stroke-dasharray:none;stroke-opacity:0.3" />
  <g
     aria-label="Krita"
     id="text1450"
     style="font-size:1.76385px;opacity:1;fill:#00ffff;stroke-width:0.529156">
    <rect
       style="font-size:1.76385px;fill:#00ffff;fill-opacity:1;stroke:none;stroke-width:0.519976;stroke-dasharray:none;filter:url(#filter3148)"
       id="rect1656-3"
       width="0.5055005"
       height="2.2653189"
       x="15.369148"
       y="4.3016486"
       rx="0"
       ry="0" />
    <rect
       style="opacity:1;fill:#00ffff;fill-opacity:1;stroke:none;stroke-width:0.519976;stroke-dasharray:none"
       id="rect1656"
       width="0.5055005"
       height="2.2653189"
       x="15.369148"
       y="4.3016486"
       rx="0"
       ry="0" />
  </g>
  <g
     aria-label="Meld"
     id="text2284"
     style="font-size:1.76385px;text-align:center;text-anchor:middle;opacity:1;fill:#999999;stroke-width:0.529156">
    <path
       d="m 7.1526036,14.179017 -0.4145047,-1.10417 h -0.00706 q 0.00529,0.05468 0.00882,0.148163 0.00353,0.09172 0.00353,0.19226 v 0.763747 H 6.5969909 V 12.919628 H 6.831583 l 0.3880469,1.031852 h 0.00706 l 0.3951024,-1.031852 h 0.2328282 v 1.259389 H 7.6976333 v -0.77433 q 0,-0.09172 0.00353,-0.181677 0.00529,-0.08996 0.00882,-0.146399 h -0.00706 l -0.4197963,1.102406 z"
       id="path639" />
    <path
       d="m 8.5407528,13.215955 q 0.1217057,0 0.2081343,0.05292 0.088192,0.05292 0.1340526,0.149928 0.047624,0.09525 0.047624,0.224009 v 0.09348 h -0.647333 q 0.00353,0.16051 0.081137,0.245175 0.079373,0.0829 0.2204813,0.0829 0.089956,0 0.1587465,-0.01588 0.070554,-0.01764 0.1446357,-0.04939 v 0.135817 q -0.072318,0.03175 -0.1428719,0.04586 -0.070554,0.01588 -0.1675657,0.01588 -0.1340526,0 -0.2381198,-0.05468 -0.1023032,-0.05468 -0.1605103,-0.162274 -0.056443,-0.109359 -0.056443,-0.266341 0,-0.155219 0.051152,-0.266342 0.052915,-0.111122 0.1463995,-0.171093 0.095248,-0.05997 0.2204812,-0.05997 z m -0.00176,0.126997 q -0.1111226,0 -0.176385,0.07232 -0.063499,0.07055 -0.075846,0.197551 h 0.4815311 q -0.00176,-0.119942 -0.056443,-0.194023 -0.054679,-0.07585 -0.1728573,-0.07585 z"
       id="path641" />
    <path
       d="M 9.3256647,14.179017 H 9.1704459 v -1.340526 h 0.1552188 z"
       id="path643" />
    <path
       d="m 9.9606495,14.196656 q -0.176385,0 -0.282216,-0.121706 -0.1058309,-0.12347 -0.1058309,-0.366881 0,-0.243411 0.1058309,-0.366881 0.1075949,-0.125233 0.2839799,-0.125233 0.1093586,0 0.1781486,0.04057 0.07055,0.04057 0.11465,0.09877 h 0.01058 q -0.0018,-0.02293 -0.0071,-0.06703 -0.0035,-0.04586 -0.0035,-0.07232 v -0.377464 h 0.155219 v 1.340526 h -0.125233 l -0.02293,-0.126997 h -0.0071 q -0.04233,0.05997 -0.112886,0.102303 -0.07055,0.04233 -0.1816765,0.04233 z m 0.024694,-0.128761 q 0.1499276,0 0.2098986,-0.08114 0.06173,-0.0829 0.06173,-0.248702 v -0.02822 q 0,-0.176385 -0.05821,-0.269869 -0.05821,-0.09525 -0.2151894,-0.09525 -0.1252334,0 -0.188732,0.100539 -0.061735,0.09878 -0.061735,0.266342 0,0.169329 0.061735,0.262813 0.063499,0.09348 0.1904958,0.09348 z"
       id="path645" />
  </g>
  <text
     xml:space="preserve"
     transform="scale(0.26457812)"
     id="text3806"
     style="font-size:6.66667px;white-space:pre;shape-inside:url(#rect3808);display:inline;fill:#999999;stroke-width:2" />
</svg>
