<?xml version="1.0" encoding="UTF-8" standalone="no"?>
<svg
   width="64"
   height="64"
   version="1.1"
   viewBox="0 0 16.933 16.933"
   id="svg7"
   sodipodi:docname="org.scummvm.ScummVM.svg"
   inkscape:version="1.4 (e7c3feb100, 2024-10-09)"
   xmlns:inkscape="http://www.inkscape.org/namespaces/inkscape"
   xmlns:sodipodi="http://sodipodi.sourceforge.net/DTD/sodipodi-0.dtd"
   xmlns:xlink="http://www.w3.org/1999/xlink"
   xmlns="http://www.w3.org/2000/svg"
   xmlns:svg="http://www.w3.org/2000/svg"
   xmlns:rdf="http://www.w3.org/1999/02/22-rdf-syntax-ns#"
   xmlns:cc="http://creativecommons.org/ns#"
   xmlns:dc="http://purl.org/dc/elements/1.1/">
  <sodipodi:namedview
     id="namedview7"
     pagecolor="#9c4444"
     bordercolor="#000000"
     borderopacity="0.25"
     inkscape:showpageshadow="2"
     inkscape:pageopacity="0.0"
     inkscape:pagecheckerboard="0"
     inkscape:deskcolor="#d1d1d1"
     inkscape:zoom="6.15625"
     inkscape:cx="28.345178"
     inkscape:cy="27.370558"
     inkscape:window-width="1183"
     inkscape:window-height="940"
     inkscape:window-x="35"
     inkscape:window-y="32"
     inkscape:window-maximized="0"
     inkscape:current-layer="svg7"
     showgrid="false" />
  <defs
     id="defs2">
    <linearGradient
       inkscape:collect="always"
       id="linearGradient1134">
      <stop
         style="stop-color:#161616;stop-opacity:1;"
         offset="0"
         id="stop1130" />
      <stop
         style="stop-color:#404040;stop-opacity:1;"
         offset="1"
         id="stop1132" />
    </linearGradient>
    <linearGradient
       inkscape:collect="always"
       id="linearGradient883">
      <stop
         style="stop-color:#808080;stop-opacity:1;"
         offset="0"
         id="stop879" />
      <stop
         style="stop-color:#3e3e3e;stop-opacity:1;"
         offset="0.5"
         id="stop1216" />
      <stop
         style="stop-color:#242424;stop-opacity:1;"
         offset="1"
         id="stop881" />
    </linearGradient>
    <linearGradient
       inkscape:collect="always"
       xlink:href="#linearGradient883"
       id="linearGradient885"
       x1="2.1085808"
       y1="2.0236168"
       x2="14.846128"
       y2="15.071845"
       gradientUnits="userSpaceOnUse" />
    <linearGradient
       inkscape:collect="always"
       xlink:href="#linearGradient1134"
       id="linearGradient1136"
       x1="14.971222"
       y1="14.703373"
       x2="2.0756054"
       y2="2.0069976"
       gradientUnits="userSpaceOnUse" />
    <filter
       style="color-interpolation-filters:sRGB;"
       inkscape:label="Blur"
       id="filter1283"
       x="-0.082344266"
       y="-0.082344266"
       width="1.1646885"
       height="1.1646885">
      <feGaussianBlur
         stdDeviation="0.5 0.5"
         result="blur"
         id="feGaussianBlur1281" />
    </filter>
    <filter
       style="color-interpolation-filters:sRGB;"
       inkscape:label="Blur"
       id="filter1694"
       x="-0.94955398"
       y="-0.2118907"
       width="2.899108"
       height="1.4237814">
      <feGaussianBlur
         stdDeviation="0.2 0.2"
         result="blur"
         id="feGaussianBlur1692" />
    </filter>
    <clipPath
       clipPathUnits="userSpaceOnUse"
       id="clipPath9">
      <path
         style="display:block;opacity:0.85;fill:#ffffff;stroke-width:1.02768"
         d="m 47.458967,1023.3069 c 0.85688,1.8179 1.286598,4.0198 1.286598,6.5331 0,2.4237 -0.471043,4.5945 -1.412286,6.367 -0.94152,1.7735 -2.198842,3.2676 -3.705671,4.4122 -1.50626,1.1449 -3.245953,1.9605 -5.149374,2.5225 -1.904832,0.5606 -3.852868,0.8052 -5.777238,0.8052 -3.850431,0 -7.996222,-1.2967 -10.611304,-2.8214 -2.984685,-1.5261 -7.041712,-6.2092 -6.960672,-6.9347 0.105349,-0.9437 2.398251,-4.0793 3.788125,-6.1999 0.67691,-1.0328 0.945189,-1.5206 1.959266,-0.5557 1.267312,1.6672 3.027389,2.7385 4.649929,3.6343 1.422401,0.728 4.427349,1.775 6.001755,1.9875 1.317989,0.2094 3.286601,0.2094 3.429864,-2.016 0,-0.8517 -0.665023,-1.6274 -1.521901,-2.3915 -0.858009,-0.7623 -1.43195,-1.4142 -2.70807,-2.2454 -5.062162,-4.2564 -7.79732,-6.1773 -10.368074,-10.4259 -0.858006,-1.6832 -1.354021,-3.5518 -1.354021,-5.7516 0,-2.1546 0.309343,-4.2556 1.062619,-5.8717 2.446826,-4.82161 7.391989,-7.34282 11.820387,-7.40606 3.783597,0 6.559511,1.09784 9.049178,2.31298 3.362337,1.54068 5.501784,3.55878 7.329115,5.34908 0.71227,0.6978 0.09745,1.54 -0.273887,2.159 -0.933252,1.5561 -2.253588,3.4749 -2.665561,4.398 -0.327914,0.6711 -0.934034,0.9233 -1.436782,0.4557 0,0 -1.242737,-1.1321 -2.246817,-1.8289 -2.666217,-1.599 -5.433717,-3.9539 -8.253986,-4.2475 -0.753274,0 -1.510094,0.2379 -1.865076,0.6416 -0.356113,0.4043 -0.485072,1.2175 -0.466448,1.8457 0.03355,1.1324 0.328115,1.3432 1.320701,2.3637 0.856877,0.6962 1.532222,1.1971 3.266048,2.1905 1.296029,0.7422 2.886235,1.7855 4.372119,2.7054 1.485027,0.9204 2.977366,2.1036 4.275001,3.4048 1.29735,1.3031 2.307877,2.7902 3.166455,4.6077 z"
         id="path11" />
    </clipPath>
    <inkscape:path-effect
       effect="powerclip"
       id="path-effect13"
       is_visible="true"
       lpeversion="1"
       inverse="true"
       flatten="false"
       hide_clip="false"
       message="" />
  </defs>
  <metadata
     id="metadata2">
    <rdf:RDF>
      <cc:Work
         rdf:about="">
        <dc:format>image/svg+xml</dc:format>
        <dc:type
           rdf:resource="http://purl.org/dc/dcmitype/StillImage" />
      </cc:Work>
    </rdf:RDF>
  </metadata>
  <rect
     style="fill:#000000;stroke:none;stroke-width:0.539739;stroke-dasharray:none;filter:url(#filter1283)"
     id="rect246-1"
     width="14.572964"
     height="14.572964"
     x="1.1932471"
     y="1.2138842"
     rx="2.1589575"
     ry="2.1589575" />
  <rect
     style="opacity:1;fill:#000000;stroke:url(#linearGradient885);stroke-width:0.52915625;stroke-dasharray:none"
     id="rect246"
     width="14.287219"
     height="14.287219"
     x="1.3361193"
     y="1.3567564"
     rx="2.1166251"
     ry="2.1166251" />
  <rect
     style="fill:url(#linearGradient1136);fill-opacity:1;stroke:none;stroke-width:0.478315;stroke-dasharray:none"
     id="rect246-5"
     width="12.914515"
     height="12.914515"
     x="2.0224717"
     y="2.0431087"
     rx="1.5874687"
     ry="1.5874687" />
  <path
     id="path1"
     style="fill:#999999;stroke-width:0.162437"
     d="M 32.031251 13.84961 C 31.310867 13.84752 30.616874 13.906036 30.132813 14.027344 C 28.723783 14.380452 27.74592 14.822425 26.695313 15.578125 C 25.532909 16.414241 24.289673 17.911585 23.753907 19.123047 C 22.499562 21.959345 22.846023 26.189024 24.488282 28.109376 C 24.816314 28.492953 24.845094 28.557787 24.726563 28.628907 C 24.135905 28.983281 23.858769 29.312383 22.892579 30.792969 C 21.548756 32.852238 21.307433 33.301836 21.203125 33.949219 C 21.003352 35.189102 21.144195 35.763993 21.931641 36.919923 C 22.500959 37.75565 24.391026 39.644598 25.177735 40.164063 C 26.61768 41.114862 28.467976 41.857477 30.109376 42.146485 C 31.334391 42.36217 33.220619 42.366625 34.451173 42.156251 C 37.839742 41.576946 40.387689 39.758404 41.794923 36.914063 C 42.71302 35.058379 42.987038 32.931388 42.591798 30.720704 C 42.266335 28.900301 41.686096 27.557199 40.697266 26.335938 L 40.28711 25.830079 L 40.638673 25.322266 C 41.369554 24.259918 42.335553 22.566063 42.484376 22.087891 C 42.761907 21.196181 42.624536 20.07622 42.109376 19.029297 C 41.876124 18.555274 41.681327 18.315696 41.087891 17.771485 C 38.984097 15.842199 36.599309 14.570173 34.085938 14.039063 C 33.497147 13.914643 32.751634 13.851699 32.031251 13.84961 z M 32.277344 16.822266 C 33.562056 16.863012 34.932293 17.261083 36.441407 18.017578 C 37.543457 18.570019 38.520564 19.264228 39.382813 20.109375 C 40.122953 20.834836 40.12323 20.805756 39.240235 22.232422 C 38.88735 22.802584 38.539268 23.384877 38.466798 23.527344 C 38.334088 23.78825 38.04832 24.041016 37.884766 24.041016 C 37.836198 24.041016 37.598484 23.871537 37.355469 23.664063 C 37.112453 23.456587 36.548263 23.042756 36.101563 22.744141 C 34.050732 21.373184 33.244224 20.997265 32.462891 21.052735 C 31.797059 21.100002 31.649782 21.267864 31.607422 22.017579 L 31.574219 22.59375 L 32.132813 23.134766 C 32.491456 23.481424 33.056601 23.890363 33.707032 24.275391 C 35.635281 25.416836 36.984494 26.358284 37.703126 27.062501 C 39.457411 28.781597 40.237272 30.968972 39.964845 33.41211 C 39.626073 36.450242 37.478575 38.58498 34.160157 39.183594 C 32.682331 39.450182 31.395063 39.404485 29.830079 39.027344 C 27.688748 38.511312 25.959505 37.422047 24.533204 35.691407 C 23.893671 34.915416 23.809848 34.715486 23.966797 34.333985 C 24.13567 33.923499 25.975321 31.188495 26.089844 31.177735 C 26.339712 31.154263 26.470512 31.238322 27.044922 31.78711 C 28.100714 32.795808 29.428725 33.493386 31.097657 33.917969 C 31.975312 34.141246 32.477639 34.162389 32.810547 33.990235 C 33.355505 33.708427 33.467753 33.065179 33.066407 32.519532 C 32.825637 32.192194 32.632056 32.023366 30.171876 29.984376 C 27.6885 27.926161 26.495346 26.533038 26.019532 25.136719 C 25.833363 24.590385 25.793142 24.312 25.763672 23.388672 C 25.695473 21.251992 26.108813 20.097593 27.404297 18.796875 C 27.810419 18.389112 28.362564 17.925925 28.632813 17.769532 C 29.793714 17.097719 30.992633 16.78152 32.277344 16.822266 z "
     transform="scale(0.26457812)" />
  <g
     aria-label="Krita"
     id="text1450"
     style="font-size:1.76385px;opacity:1;fill:#ff00ff;stroke-width:0.529156">
    <rect
       style="font-size:1.76385px;fill:#ff00ff;fill-opacity:1;stroke:none;stroke-width:0.519976;stroke-dasharray:none;filter:url(#filter1694)"
       id="rect1656-7"
       width="0.5055005"
       height="2.2653189"
       x="15.369148"
       y="4.3016486"
       rx="0"
       ry="0" />
    <rect
       style="opacity:1;fill:#ff00ff;fill-opacity:1;stroke:none;stroke-width:0.519976;stroke-dasharray:none"
       id="rect1656"
       width="0.5055005"
       height="2.2653189"
       x="15.369148"
       y="4.3016486"
       rx="0"
       ry="0" />
  </g>
  <path
     d="m 4.9211634,13.802589 q 0,0.167566 -0.1217057,0.26105 -0.1217056,0.09348 -0.3280761,0.09348 -0.105831,0 -0.1957873,-0.01588 -0.089956,-0.01587 -0.1499273,-0.0441 v -0.151691 q 0.063499,0.02822 0.1569827,0.05115 0.095248,0.02293 0.1957873,0.02293 0.141108,0 0.211662,-0.05468 0.072318,-0.05468 0.072318,-0.148163 0,-0.06174 -0.026458,-0.104067 -0.026458,-0.04233 -0.09172,-0.07761 -0.063499,-0.03704 -0.1781488,-0.07761 -0.1605104,-0.05821 -0.2434113,-0.142872 -0.081137,-0.08467 -0.081137,-0.231064 0,-0.10054 0.051152,-0.171094 0.051152,-0.07232 0.141108,-0.111122 0.09172,-0.0388 0.2098982,-0.0388 0.1040671,0 0.1904958,0.0194 0.086429,0.0194 0.1569826,0.05115 l -0.049388,0.135816 q -0.065262,-0.02822 -0.1428718,-0.04762 -0.075846,-0.0194 -0.1587465,-0.0194 -0.118178,0 -0.1781489,0.05115 -0.059971,0.04939 -0.059971,0.132289 0,0.0635 0.026458,0.105831 0.026458,0.04233 0.086429,0.07584 0.059971,0.03351 0.1622742,0.07232 0.1111226,0.04057 0.1869681,0.08819 0.077609,0.04586 0.1164141,0.111123 0.040569,0.06526 0.040569,0.164038 z m 0.6120555,0.354534 q -0.1252333,0 -0.2240089,-0.05115 -0.097012,-0.05115 -0.1534549,-0.158746 -0.054679,-0.107595 -0.054679,-0.275161 0,-0.174621 0.058207,-0.28398 0.058207,-0.109358 0.1569826,-0.16051 0.1005394,-0.05115 0.2275366,-0.05115 0.072318,0 0.1393442,0.01587 0.067026,0.01411 0.1093587,0.03528 l -0.047624,0.128761 q -0.042332,-0.01587 -0.098776,-0.02998 -0.056443,-0.01411 -0.105831,-0.01411 -0.2786882,0 -0.2786882,0.358061 0,0.171094 0.067026,0.262814 0.06879,0.08996 0.2028428,0.08996 0.077609,0 0.1358164,-0.01587 0.059971,-0.01588 0.1093587,-0.0388 v 0.13758 q -0.047624,0.02469 -0.105831,0.03704 -0.056443,0.01411 -0.1375803,0.01411 z m 1.2576244,-0.963062 v 0.945423 H 6.6638461 l -0.02293,-0.125233 h -0.00706 q -0.04586,0.07408 -0.1269972,0.109359 -0.081137,0.03351 -0.1728573,0.03351 -0.1710934,0 -0.2575221,-0.08114 -0.086429,-0.0829 -0.086429,-0.262814 V 13.194061 H 6.147038 v 0.608528 q 0,0.225773 0.2098982,0.225773 0.1569826,0 0.2169535,-0.08819 0.061735,-0.08819 0.061735,-0.253994 v -0.492114 z m 1.3369982,-0.01764 q 0.1605104,0 0.2398836,0.0829 0.079373,0.08114 0.079373,0.264578 v 0.615583 h -0.153455 v -0.608528 q 0,-0.224009 -0.1922596,-0.224009 -0.1375803,0 -0.1975512,0.07937 -0.058207,0.07937 -0.058207,0.231065 v 0.522099 H 7.6921706 v -0.608528 q 0,-0.224009 -0.1940235,-0.224009 -0.1428719,0 -0.1975512,0.08819 -0.054679,0.08819 -0.054679,0.253994 v 0.49035 H 7.0906977 v -0.945423 h 0.1252334 l 0.02293,0.128761 h 0.00882 q 0.044096,-0.07408 0.1181779,-0.109359 0.075846,-0.03704 0.1605104,-0.03704 0.2222451,0 0.2892714,0.158747 h 0.00882 q 0.047624,-0.08114 0.1287611,-0.119942 0.082901,-0.0388 0.1746211,-0.0388 z m 1.6491986,0 q 0.1605103,0 0.2398839,0.0829 0.07937,0.08114 0.07937,0.264578 v 0.615583 H 9.942842 v -0.608528 q 0,-0.224009 -0.1922597,-0.224009 -0.1375803,0 -0.1975512,0.07937 -0.058207,0.07937 -0.058207,0.231065 v 0.522099 h -0.153455 v -0.608528 q 0,-0.224009 -0.1940235,-0.224009 -0.1428718,0 -0.1975512,0.08819 -0.054679,0.08819 -0.054679,0.253994 v 0.49035 H 8.7398963 v -0.945423 h 0.1252333 l 0.02293,0.128761 h 0.00882 q 0.044096,-0.07408 0.118178,-0.109359 0.075845,-0.03704 0.1605103,-0.03704 0.2222451,0 0.2892714,0.158747 h 0.00882 q 0.047624,-0.08114 0.128761,-0.119942 0.082901,-0.0388 0.1746212,-0.0388 z m 1.5204379,-0.296326 -0.449782,1.259388 H 10.68895 l -0.449782,-1.259388 h 0.165802 l 0.28398,0.807843 q 0.02822,0.07761 0.04762,0.146399 0.0194,0.06703 0.03175,0.128761 0.01235,-0.06173 0.03175,-0.130524 0.0194,-0.06879 0.04762,-0.148164 l 0.282216,-0.804315 z m 0.726707,1.259388 -0.414505,-1.10417 h -0.0071 q 0.0053,0.05468 0.0088,0.148164 0.0035,0.09172 0.0035,0.192259 v 0.763747 h -0.1464 v -1.259388 h 0.234592 l 0.388047,1.031852 h 0.0071 l 0.395103,-1.031852 h 0.232828 v 1.259388 h -0.156983 v -0.77433 q 0,-0.09172 0.0035,-0.181676 0.0053,-0.08996 0.0088,-0.1464 h -0.0071 l -0.419796,1.102406 z"
     id="text1"
     style="font-size:1.76385px;text-align:center;text-anchor:middle;fill:#999999;stroke-width:0.132289;stroke-opacity:0.6"
     aria-label="ScummVM" />
</svg>
