<?xml version="1.0" encoding="UTF-8" standalone="no"?>
<svg
   width="64"
   height="64"
   version="1.1"
   viewBox="0 0 16.933 16.933"
   id="svg7"
   sodipodi:docname="secrets.svg"
   inkscape:version="1.4 (e7c3feb100, 2024-10-09)"
   xmlns:inkscape="http://www.inkscape.org/namespaces/inkscape"
   xmlns:sodipodi="http://sodipodi.sourceforge.net/DTD/sodipodi-0.dtd"
   xmlns:xlink="http://www.w3.org/1999/xlink"
   xmlns="http://www.w3.org/2000/svg"
   xmlns:svg="http://www.w3.org/2000/svg"
   xmlns:rdf="http://www.w3.org/1999/02/22-rdf-syntax-ns#"
   xmlns:cc="http://creativecommons.org/ns#"
   xmlns:dc="http://purl.org/dc/elements/1.1/">
  <sodipodi:namedview
     id="namedview7"
     pagecolor="#9c4444"
     bordercolor="#000000"
     borderopacity="0.25"
     inkscape:showpageshadow="2"
     inkscape:pageopacity="0.0"
     inkscape:pagecheckerboard="0"
     inkscape:deskcolor="#d1d1d1"
     inkscape:zoom="6.15625"
     inkscape:cx="15.187817"
     inkscape:cy="30.13198"
     inkscape:window-width="1183"
     inkscape:window-height="940"
     inkscape:window-x="35"
     inkscape:window-y="32"
     inkscape:window-maximized="0"
     inkscape:current-layer="svg7"
     showgrid="false" />
  <defs
     id="defs2">
    <rect
       x="67.489848"
       y="35.60533"
       width="15.337563"
       height="22.51269"
       id="rect3808" />
    <linearGradient
       inkscape:collect="always"
       id="linearGradient1134">
      <stop
         style="stop-color:#161616;stop-opacity:1;"
         offset="0"
         id="stop1130" />
      <stop
         style="stop-color:#404040;stop-opacity:1;"
         offset="1"
         id="stop1132" />
    </linearGradient>
    <linearGradient
       inkscape:collect="always"
       id="linearGradient883">
      <stop
         style="stop-color:#808080;stop-opacity:1;"
         offset="0"
         id="stop879" />
      <stop
         style="stop-color:#3e3e3e;stop-opacity:1;"
         offset="0.5"
         id="stop1216" />
      <stop
         style="stop-color:#242424;stop-opacity:1;"
         offset="1"
         id="stop881" />
    </linearGradient>
    <linearGradient
       inkscape:collect="always"
       xlink:href="#linearGradient883"
       id="linearGradient885"
       x1="2.1085808"
       y1="2.0236168"
       x2="14.846128"
       y2="15.071845"
       gradientUnits="userSpaceOnUse" />
    <linearGradient
       inkscape:collect="always"
       xlink:href="#linearGradient1134"
       id="linearGradient1136"
       x1="14.971222"
       y1="14.703373"
       x2="2.0756054"
       y2="2.0069976"
       gradientUnits="userSpaceOnUse" />
    <filter
       style="color-interpolation-filters:sRGB;"
       inkscape:label="Blur"
       id="filter1283"
       x="-0.082344266"
       y="-0.082344266"
       width="1.1646885"
       height="1.1646885">
      <feGaussianBlur
         stdDeviation="0.5 0.5"
         result="blur"
         id="feGaussianBlur1281" />
    </filter>
    <filter
       style="color-interpolation-filters:sRGB;"
       inkscape:label="Blur"
       id="filter1694"
       x="-0.94955398"
       y="-0.2118907"
       width="2.899108"
       height="1.4237814">
      <feGaussianBlur
         stdDeviation="0.2 0.2"
         result="blur"
         id="feGaussianBlur1692" />
    </filter>
    <filter
       style="color-interpolation-filters:sRGB;"
       inkscape:label="Blur"
       id="filter3148"
       x="-0.94955398"
       y="-0.2118907"
       width="2.899108"
       height="1.4237814">
      <feGaussianBlur
         stdDeviation="0.2 0.2"
         result="blur"
         id="feGaussianBlur3146" />
    </filter>
    <clipPath
       clipPathUnits="userSpaceOnUse"
       id="clipPath44">
      <path
         id="path46"
         style="display:block;opacity:0.85;fill:#f2f2f2;stroke-width:4.39162"
         d="m 17.570312,8.4453125 a 6.5431988,7.4283052 9.9958727e-8 0 0 -6.535156,7.4394535 6.5431988,7.4283052 9.9958727e-8 0 0 6.552735,7.417968 6.5431988,7.4283052 9.9958727e-8 0 0 6.535156,-7.4375 6.5431988,7.4283052 9.9958727e-8 0 0 -6.552735,-7.4199215 z M 45.646484,41.177734 a 6.5431986,7.0703472 2.4665357e-6 0 0 -6.533203,7.080078 6.5431986,7.0703472 2.4665357e-6 0 0 6.550781,7.060547 6.5431986,7.0703472 2.4665357e-6 0 0 6.535157,-7.080078 6.5431986,7.0703472 2.4665357e-6 0 0 -6.552735,-7.060547 z" />
    </clipPath>
    <inkscape:path-effect
       effect="powerclip"
       id="path-effect48"
       is_visible="true"
       lpeversion="1"
       inverse="true"
       flatten="false"
       hide_clip="false"
       message="" />
  </defs>
  <metadata
     id="metadata2">
    <rdf:RDF>
      <cc:Work
         rdf:about="">
        <dc:format>image/svg+xml</dc:format>
        <dc:type
           rdf:resource="http://purl.org/dc/dcmitype/StillImage" />
      </cc:Work>
    </rdf:RDF>
  </metadata>
  <rect
     style="fill:#000000;stroke:none;stroke-width:0.539739;stroke-dasharray:none;filter:url(#filter1283)"
     id="rect246-1"
     width="14.572964"
     height="14.572964"
     x="1.1932471"
     y="1.2138842"
     rx="2.1589575"
     ry="2.1589575" />
  <rect
     style="opacity:1;fill:#000000;stroke:url(#linearGradient885);stroke-width:0.52915625;stroke-dasharray:none"
     id="rect246"
     width="14.287219"
     height="14.287219"
     x="1.3361193"
     y="1.3567564"
     rx="2.1166251"
     ry="2.1166251" />
  <rect
     style="fill:url(#linearGradient1136);fill-opacity:1;stroke:none;stroke-width:0.478315;stroke-dasharray:none"
     id="rect246-5"
     width="12.914515"
     height="12.914515"
     x="2.0224717"
     y="2.0431087"
     rx="1.5874687"
     ry="1.5874687" />
  <g
     id="Vault"
     transform="matrix(0.41539898,0,0,0.41539895,3.5790865,2.7296104)"
     style="fill:#999999">
    <g
       id="g3"
       style="fill:#999999">
      <path
         d="m 15.935,6.06 h -7.87 a 2,2 0 0 0 -2,2 v 6 a 1.993,1.993 0 0 0 2,2 h 7.87 a 2,2 0 0 0 2,-2 v -6 a 2.006,2.006 0 0 0 -2,-2 z m 1,8 a 1,1 0 0 1 -1,1 h -7.87 a 0.99,0.99 0 0 1 -1,-1 v -6 a 1,1 0 0 1 1,-1 h 7.87 a 1,1 0 0 1 1,1 z"
         id="path1"
         style="fill:#999999" />
      <path
         d="M 18.435,3.06 H 5.565 a 2.507,2.507 0 0 0 -2.5,2.5 v 11 a 2.5,2.5 0 0 0 2.5,2.5 v 0.38 a 1.5,1.5 0 0 0 1.5,1.5 h 1.43 a 1.5,1.5 0 0 0 1.5,-1.5 v -0.38 h 4 v 0.38 a 1.5,1.5 0 0 0 1.5,1.5 h 1.44 a 1.5,1.5 0 0 0 1.5,-1.5 v -0.38 a 2.5,2.5 0 0 0 2.5,-2.5 v -11 a 2.507,2.507 0 0 0 -2.5,-2.5 z m -9.44,16.38 a 0.5,0.5 0 0 1 -0.5,0.5 h -1.43 a 0.5,0.5 0 0 1 -0.5,-0.5 v -0.38 h 2.43 z m 8.44,0 a 0.5,0.5 0 0 1 -0.5,0.5 H 15.5 A 0.508,0.508 0 0 1 15,19.44 v -0.38 h 2.44 z m 2.5,-2.88 a 1.5,1.5 0 0 1 -1.5,1.5 H 5.565 a 1.5,1.5 0 0 1 -1.5,-1.5 v -11 a 1.5,1.5 0 0 1 1.5,-1.5 h 12.87 a 1.5,1.5 0 0 1 1.5,1.5 z"
         id="path2"
         style="fill:#999999" />
      <path
         d="m 14.265,10.56 h -0.61 A 1.656,1.656 0 0 0 12.5,9.4 V 8.79 A 0.491,0.491 0 0 0 12,8.31 0.5,0.5 0 0 0 11.5,8.79 V 9.4 a 1.656,1.656 0 0 0 -1.16,1.16 H 9.73 a 0.5,0.5 0 0 0 -0.48,0.5 0.491,0.491 0 0 0 0.48,0.5 h 0.61 a 1.656,1.656 0 0 0 1.16,1.16 v 0.62 a 0.489,0.489 0 0 0 0.5,0.47 0.483,0.483 0 0 0 0.5,-0.47 v -0.62 a 1.622,1.622 0 0 0 1.16,-1.16 h 0.61 a 0.485,0.485 0 0 0 0.48,-0.5 0.491,0.491 0 0 0 -0.485,-0.5 z M 12,11.81 A 0.75,0.75 0 1 1 12.75,11.06 0.749,0.749 0 0 1 12,11.81 Z"
         id="path3"
         style="fill:#999999" />
    </g>
  </g>
  <g
     fill="#474747"
     id="g9"
     transform="matrix(0.46959567,0,0,0.46959567,4.7471229,3.7470598)"
     style="fill:#999999;fill-opacity:1;stroke:none;stroke-width:0.58349;stroke-dasharray:none;stroke-opacity:0.3" />
  <g
     aria-label="Krita"
     id="text1450"
     style="font-size:1.76385px;opacity:1;fill:#00ffff;stroke-width:0.529156">
    <rect
       style="font-size:1.76385px;fill:#00ffff;fill-opacity:1;stroke:none;stroke-width:0.519976;stroke-dasharray:none;filter:url(#filter3148)"
       id="rect1656-3"
       width="0.5055005"
       height="2.2653189"
       x="15.369148"
       y="4.3016486"
       rx="0"
       ry="0" />
    <rect
       style="opacity:1;fill:#00ffff;fill-opacity:1;stroke:none;stroke-width:0.519976;stroke-dasharray:none"
       id="rect1656"
       width="0.5055005"
       height="2.2653189"
       x="15.369148"
       y="4.3016486"
       rx="0"
       ry="0" />
  </g>
  <g
     aria-label="Passwords"
     id="text2284"
     style="font-size:1.76385px;opacity:1;fill:#999999;stroke-width:0.529156"
     transform="translate(0.10583039)">
    <path
       d="m 6.3005742,13.802588 q 0,0.167566 -0.1217056,0.26105 -0.1217057,0.09348 -0.3280761,0.09348 -0.105831,0 -0.1957873,-0.01587 -0.089956,-0.01587 -0.1499273,-0.0441 V 13.94546 q 0.063499,0.02822 0.1569827,0.05115 0.095248,0.02293 0.1957873,0.02293 0.141108,0 0.211662,-0.05468 0.072318,-0.05468 0.072318,-0.148163 0,-0.06174 -0.026458,-0.104067 -0.026458,-0.04233 -0.09172,-0.07761 -0.063499,-0.03704 -0.1781489,-0.07761 -0.1605103,-0.05821 -0.2434112,-0.142872 -0.081137,-0.08466 -0.081137,-0.231064 0,-0.10054 0.051152,-0.171094 0.051152,-0.07232 0.141108,-0.111122 0.09172,-0.0388 0.2098981,-0.0388 0.1040672,0 0.1904958,0.0194 0.086429,0.0194 0.1569827,0.05115 l -0.049388,0.135817 q -0.065262,-0.02822 -0.1428719,-0.04762 -0.075846,-0.0194 -0.1587465,-0.0194 -0.1181779,0 -0.1781488,0.05115 -0.059971,0.04939 -0.059971,0.132289 0,0.0635 0.026458,0.105831 0.026458,0.04233 0.086429,0.07585 0.059971,0.03351 0.1622742,0.07232 0.1111225,0.04057 0.1869681,0.08819 0.077609,0.04586 0.1164141,0.111122 0.040569,0.06526 0.040569,0.164038 z M 6.898519,13.176421 q 0.1217057,0 0.2081343,0.05292 0.088193,0.05292 0.1340526,0.149927 0.047624,0.09525 0.047624,0.224009 v 0.09348 h -0.647333 q 0.00353,0.16051 0.081137,0.245175 0.079373,0.0829 0.2204813,0.0829 0.089956,0 0.1587465,-0.01587 0.070554,-0.01764 0.1446357,-0.04939 v 0.135816 q -0.072318,0.03175 -0.1428719,0.04586 -0.070554,0.01587 -0.1675657,0.01587 -0.1340526,0 -0.2381198,-0.05468 -0.1023033,-0.05468 -0.1605103,-0.162275 -0.056443,-0.109358 -0.056443,-0.266341 0,-0.155219 0.051152,-0.266341 0.052916,-0.111123 0.1463996,-0.171094 0.095248,-0.05997 0.2204812,-0.05997 z m -0.00176,0.126998 q -0.1111226,0 -0.176385,0.07232 -0.063499,0.07055 -0.075846,0.197552 h 0.4815311 q -0.00176,-0.119942 -0.056443,-0.194024 -0.054679,-0.07584 -0.1728573,-0.07584 z m 1.0106845,0.853703 q -0.1252334,0 -0.224009,-0.05115 -0.097012,-0.05115 -0.1534549,-0.158746 -0.054679,-0.107595 -0.054679,-0.275161 0,-0.174621 0.058207,-0.28398 0.058207,-0.109358 0.1569826,-0.16051 0.1005395,-0.05115 0.2275367,-0.05115 0.072318,0 0.1393441,0.01588 0.067026,0.01411 0.1093587,0.03528 l -0.047624,0.128761 q -0.042332,-0.01588 -0.098776,-0.02998 -0.056443,-0.01411 -0.105831,-0.01411 -0.2786883,0 -0.2786883,0.358061 0,0.171094 0.067026,0.262814 0.06879,0.08996 0.2028427,0.08996 0.077609,0 0.1358165,-0.01587 0.059971,-0.01587 0.1093587,-0.0388 v 0.13758 q -0.047624,0.02469 -0.105831,0.03704 -0.056443,0.01411 -0.1375803,0.01411 z m 0.908382,-0.980701 q 0.026458,0 0.056443,0.0035 0.031749,0.0018 0.054679,0.0071 l -0.019402,0.142872 q -0.02293,-0.0053 -0.051152,-0.0088 -0.026458,-0.0035 -0.051152,-0.0035 -0.072318,0 -0.1358165,0.04057 -0.063499,0.0388 -0.1023032,0.111122 -0.037041,0.07055 -0.037041,0.165802 v 0.504461 H 8.3748592 V 13.19406 h 0.1269972 l 0.017639,0.172857 h 0.00706 q 0.04586,-0.07761 0.1181779,-0.134052 0.072318,-0.05644 0.1710935,-0.05644 z m 0.6173469,0 q 0.1217057,0 0.2081343,0.05292 0.088192,0.05292 0.1340526,0.149927 0.047624,0.09525 0.047624,0.224009 v 0.09348 h -0.647333 q 0.00353,0.16051 0.081137,0.245175 0.079373,0.0829 0.2204813,0.0829 0.089956,0 0.1587465,-0.01587 0.070554,-0.01764 0.1446357,-0.04939 v 0.135816 q -0.072318,0.03175 -0.1428719,0.04586 -0.070554,0.01587 -0.1675657,0.01587 -0.1340526,0 -0.2381198,-0.05468 -0.1023033,-0.05468 -0.1605103,-0.162275 -0.056443,-0.109358 -0.056443,-0.266341 0,-0.155219 0.051152,-0.266341 0.052916,-0.111123 0.1463996,-0.171094 0.095248,-0.05997 0.2204812,-0.05997 z m -0.00176,0.126998 q -0.1111226,0 -0.176385,0.07232 -0.063499,0.07055 -0.075846,0.197552 h 0.4815311 q -0.00176,-0.119942 -0.056443,-0.194024 -0.054679,-0.07584 -0.1728573,-0.07584 z m 0.9471862,0.726706 q 0.03528,0 0.07232,-0.0053 0.03704,-0.0071 0.05997,-0.01411 V 14.1289 q -0.02469,0.01235 -0.07055,0.0194 -0.04586,0.0088 -0.08819,0.0088 -0.07408,0 -0.13758,-0.02469 -0.06174,-0.02646 -0.10054,-0.08996 -0.0388,-0.0635 -0.0388,-0.178149 V 13.314002 H 9.9411559 v -0.07408 l 0.1358161,-0.06174 0.06174,-0.201079 h 0.09172 v 0.216954 h 0.273397 v 0.119942 h -0.273397 v 0.546793 q 0,0.08643 0.04057,0.128761 0.04233,0.04057 0.107595,0.04057 z m 0.936604,-0.151691 q 0,0.13758 -0.102303,0.208134 -0.102304,0.07055 -0.275161,0.07055 -0.09878,0 -0.171093,-0.01587 -0.07055,-0.01587 -0.125234,-0.0441 v -0.141108 q 0.05644,0.02822 0.135817,0.05292 0.08114,0.02293 0.164038,0.02293 0.118178,0 0.171093,-0.03704 0.05292,-0.0388 0.05292,-0.102304 0,-0.03528 -0.0194,-0.0635 -0.0194,-0.02822 -0.07055,-0.05644 -0.04939,-0.02822 -0.142872,-0.0635 -0.09172,-0.03528 -0.156982,-0.07055 -0.06526,-0.03528 -0.10054,-0.08467 -0.03528,-0.04939 -0.03528,-0.126997 0,-0.119942 0.09701,-0.185204 0.09878,-0.06526 0.257522,-0.06526 0.08643,0 0.160511,0.01764 0.07584,0.01587 0.141108,0.04586 l -0.05292,0.123469 q -0.05997,-0.02469 -0.125233,-0.04233 -0.06526,-0.01764 -0.134053,-0.01764 -0.09525,0 -0.146399,0.03175 -0.04939,0.02998 -0.04939,0.0829 0,0.0388 0.02293,0.06703 0.02293,0.02646 0.07584,0.05292 0.05468,0.02469 0.144636,0.05997 0.08996,0.03351 0.153455,0.06879 0.0635,0.03528 0.09701,0.08643 0.03351,0.04939 0.03351,0.125234 z"
       id="text1"
       aria-label="Secrets" />
  </g>
  <text
     xml:space="preserve"
     transform="scale(0.26457812)"
     id="text3806"
     style="font-size:6.66667px;white-space:pre;shape-inside:url(#rect3808);display:inline;fill:#999999;stroke-width:2" />
</svg>
