<?xml version="1.0" encoding="UTF-8" standalone="no"?>
<svg
   width="64"
   height="64"
   version="1.1"
   viewBox="0 0 16.933 16.933"
   id="svg7"
   sodipodi:docname="Utilities Template.svg"
   inkscape:version="1.4 (e7c3feb100, 2024-10-09)"
   xmlns:inkscape="http://www.inkscape.org/namespaces/inkscape"
   xmlns:sodipodi="http://sodipodi.sourceforge.net/DTD/sodipodi-0.dtd"
   xmlns:xlink="http://www.w3.org/1999/xlink"
   xmlns="http://www.w3.org/2000/svg"
   xmlns:svg="http://www.w3.org/2000/svg"
   xmlns:rdf="http://www.w3.org/1999/02/22-rdf-syntax-ns#"
   xmlns:cc="http://creativecommons.org/ns#"
   xmlns:dc="http://purl.org/dc/elements/1.1/">
  <sodipodi:namedview
     id="namedview7"
     pagecolor="#9c4444"
     bordercolor="#000000"
     borderopacity="0.25"
     inkscape:showpageshadow="2"
     inkscape:pageopacity="0.0"
     inkscape:pagecheckerboard="0"
     inkscape:deskcolor="#d1d1d1"
     inkscape:zoom="6.15625"
     inkscape:cx="15.51269"
     inkscape:cy="29.807107"
     inkscape:window-width="1183"
     inkscape:window-height="973"
     inkscape:window-x="35"
     inkscape:window-y="32"
     inkscape:window-maximized="0"
     inkscape:current-layer="svg7"
     showgrid="false" />
  <defs
     id="defs2">
    <rect
       x="67.489848"
       y="35.60533"
       width="15.337563"
       height="22.51269"
       id="rect3808" />
    <linearGradient
       inkscape:collect="always"
       id="linearGradient1134">
      <stop
         style="stop-color:#161616;stop-opacity:1;"
         offset="0"
         id="stop1130" />
      <stop
         style="stop-color:#404040;stop-opacity:1;"
         offset="1"
         id="stop1132" />
    </linearGradient>
    <linearGradient
       inkscape:collect="always"
       id="linearGradient883">
      <stop
         style="stop-color:#808080;stop-opacity:1;"
         offset="0"
         id="stop879" />
      <stop
         style="stop-color:#3e3e3e;stop-opacity:1;"
         offset="0.5"
         id="stop1216" />
      <stop
         style="stop-color:#242424;stop-opacity:1;"
         offset="1"
         id="stop881" />
    </linearGradient>
    <linearGradient
       inkscape:collect="always"
       xlink:href="#linearGradient883"
       id="linearGradient885"
       x1="2.1085808"
       y1="2.0236168"
       x2="14.846128"
       y2="15.071845"
       gradientUnits="userSpaceOnUse" />
    <linearGradient
       inkscape:collect="always"
       xlink:href="#linearGradient1134"
       id="linearGradient1136"
       x1="14.971222"
       y1="14.703373"
       x2="2.0756054"
       y2="2.0069976"
       gradientUnits="userSpaceOnUse" />
    <filter
       style="color-interpolation-filters:sRGB;"
       inkscape:label="Blur"
       id="filter1283"
       x="-0.082344266"
       y="-0.082344266"
       width="1.1646885"
       height="1.1646885">
      <feGaussianBlur
         stdDeviation="0.5 0.5"
         result="blur"
         id="feGaussianBlur1281" />
    </filter>
    <filter
       style="color-interpolation-filters:sRGB;"
       inkscape:label="Blur"
       id="filter1694"
       x="-0.94955398"
       y="-0.2118907"
       width="2.899108"
       height="1.4237814">
      <feGaussianBlur
         stdDeviation="0.2 0.2"
         result="blur"
         id="feGaussianBlur1692" />
    </filter>
    <filter
       style="color-interpolation-filters:sRGB;"
       inkscape:label="Blur"
       id="filter3148"
       x="-0.94955398"
       y="-0.2118907"
       width="2.899108"
       height="1.4237814">
      <feGaussianBlur
         stdDeviation="0.2 0.2"
         result="blur"
         id="feGaussianBlur3146" />
    </filter>
    <clipPath
       clipPathUnits="userSpaceOnUse"
       id="clipPath44">
      <path
         id="path46"
         style="display:block;opacity:0.85;fill:#f2f2f2;stroke-width:4.39162"
         d="m 17.570312,8.4453125 a 6.5431988,7.4283052 9.9958727e-8 0 0 -6.535156,7.4394535 6.5431988,7.4283052 9.9958727e-8 0 0 6.552735,7.417968 6.5431988,7.4283052 9.9958727e-8 0 0 6.535156,-7.4375 6.5431988,7.4283052 9.9958727e-8 0 0 -6.552735,-7.4199215 z M 45.646484,41.177734 a 6.5431986,7.0703472 2.4665357e-6 0 0 -6.533203,7.080078 6.5431986,7.0703472 2.4665357e-6 0 0 6.550781,7.060547 6.5431986,7.0703472 2.4665357e-6 0 0 6.535157,-7.080078 6.5431986,7.0703472 2.4665357e-6 0 0 -6.552735,-7.060547 z" />
    </clipPath>
    <inkscape:path-effect
       effect="powerclip"
       id="path-effect48"
       is_visible="true"
       lpeversion="1"
       inverse="true"
       flatten="false"
       hide_clip="false"
       message="" />
  </defs>
  <metadata
     id="metadata2">
    <rdf:RDF>
      <cc:Work
         rdf:about="">
        <dc:format>image/svg+xml</dc:format>
        <dc:type
           rdf:resource="http://purl.org/dc/dcmitype/StillImage" />
      </cc:Work>
    </rdf:RDF>
  </metadata>
  <rect
     style="fill:#000000;stroke:none;stroke-width:0.539739;stroke-dasharray:none;filter:url(#filter1283)"
     id="rect246-1"
     width="14.572964"
     height="14.572964"
     x="1.1932471"
     y="1.2138842"
     rx="2.1589575"
     ry="2.1589575" />
  <rect
     style="opacity:1;fill:#000000;stroke:url(#linearGradient885);stroke-width:0.52915625;stroke-dasharray:none"
     id="rect246"
     width="14.287219"
     height="14.287219"
     x="1.3361193"
     y="1.3567564"
     rx="2.1166251"
     ry="2.1166251" />
  <rect
     style="fill:url(#linearGradient1136);fill-opacity:1;stroke:none;stroke-width:0.478315;stroke-dasharray:none"
     id="rect246-5"
     width="12.914515"
     height="12.914515"
     x="2.0224717"
     y="2.0431087"
     rx="1.5874687"
     ry="1.5874687" />
  <path
     id="path5"
     style="fill:#999999;fill-opacity:1;stroke-width:0.0180167"
     d="m 9.8620559,3.7921828 c -0.016905,0 -0.1046043,0.05873 -0.1673297,0.1120941 -0.067834,0.057713 -0.086882,0.05331 -0.1072206,-0.025182 l -0.014625,-0.055234 -0.09991,0.091381 c -0.1064543,0.097293 -0.1411936,0.098361 -0.142961,0.00407 -7.611e-4,-0.04104 -0.014259,-0.031526 -0.1254972,0.088538 L 9.080237,4.1422775 9.055463,4.0833865 9.030689,4.0244965 8.967331,4.1020685 C 8.802865,4.3029853 8.7015485,4.5384044 8.7009037,4.7210236 c -2.864e-4,0.091487 0.00888,0.1242283 0.058077,0.2051001 0.033659,0.055332 0.085962,0.1120473 0.1230602,0.1332134 L 8.9466173,5.09589 9.0981072,4.9858265 C 9.4432976,4.7355483 9.7968071,4.5444802 10.213771,4.3818978 10.585518,4.2369469 10.584557,4.2452471 10.204861,4.4558148 9.7418243,4.7125846 9.3561753,4.978333 9.1704262,5.1685886 c -0.07889,0.080802 -0.079574,0.082319 -0.058486,0.152708 0.049558,0.1654111 0.2557901,0.3192604 0.5133599,0.3825826 0.070896,0.017429 0.1889893,0.032169 0.2623658,0.032897 l 0.1336211,0.00122 -0.033714,-0.036959 c -0.028764,-0.03178 -0.029835,-0.039775 -0.00738,-0.054015 0.014472,-0.00915 0.051597,-0.016497 0.082449,-0.016653 0.06433,-2.863e-4 0.243145,-0.03236 0.25668,-0.045895 0.005,-0.00499 -0.0068,-0.020429 -0.02598,-0.034521 -0.04593,-0.033897 -0.02569,-0.050736 0.118592,-0.098691 0.0644,-0.021407 0.137277,-0.050428 0.162048,-0.064577 l 0.04508,-0.025586 -0.04508,-0.00122 c -0.04585,-9.54e-4 -0.104764,-0.028174 -0.08935,-0.041426 0.0047,-0.00401 0.0571,-0.032871 0.116562,-0.06417 0.05945,-0.031299 0.132321,-0.076803 0.16205,-0.1011293 l 0.05403,-0.044268 -0.05726,-8.019e-4 c -0.03162,-3.437e-4 -0.06205,-0.00758 -0.06742,-0.016245 -0.0053,-0.00868 0.04648,-0.057631 0.115343,-0.1088449 0.06888,-0.051215 0.130203,-0.1009978 0.136055,-0.1104699 0.006,-0.00972 -0.01742,-0.017462 -0.05361,-0.017462 -0.03527,0 -0.06417,-0.00601 -0.06417,-0.01381 0,-0.00781 0.04108,-0.054798 0.09138,-0.1039716 0.05029,-0.049172 0.09964,-0.1043756 0.109658,-0.1226537 0.01566,-0.028574 0.01323,-0.031375 -0.01908,-0.02112 -0.04451,0.014126 -0.109658,-0.00322 -0.109658,-0.029242 0,-0.010095 0.04659,-0.063832 0.103565,-0.1194046 l 0.103568,-0.1011285 -0.07229,-0.010156 c -0.06435,-0.00895 -0.07109,-0.014608 -0.06579,-0.054829 0.0033,-0.024773 0.02946,-0.087689 0.05849,-0.1397118 l 0.05279,-0.09463 -0.139712,-0.00121 c -0.07689,-6.889e-4 -0.154621,-0.00711 -0.17261,-0.014214 -0.03098,-0.012214 -0.03077,-0.014367 0.0041,-0.045895 0.02023,-0.018309 0.03251,-0.040558 0.02721,-0.049143 -0.01504,-0.024332 -0.129269,-0.018247 -0.25546,0.013402 -0.06322,0.015856 -0.119985,0.023385 -0.12631,0.017057 -0.0062,-0.00633 -0.0025,-0.035227 0.0086,-0.064577 0.01108,-0.029351 0.01489,-0.053611 0.0081,-0.053611 -0.0068,0 -0.07104,0.016328 -0.142555,0.036147 -0.07151,0.019819 -0.134224,0.036147 -0.139306,0.036147 -0.02145,0 -0.0068,-0.062957 0.02234,-0.095849 0.03075,-0.034766 0.03038,-0.035584 -0.02234,-0.023558 -0.02973,0.00679 -0.102417,0.036174 -0.1616429,0.064983 C 9.8744839,3.919913 9.8438549,3.912293 9.8625436,3.832812 9.8678536,3.810516 9.8677636,3.792198 9.8621242,3.792198 Z m -2.9968993,0.00122 c -0.014746,7.086e-4 -0.01135,0.014014 0.00528,0.039395 0.046525,0.071007 0.011617,0.094917 -0.091381,0.062139 -0.048231,-0.015349 -0.1159954,-0.033512 -0.1506776,-0.040208 -0.05157,-0.00996 -0.059031,-0.00786 -0.040613,0.011369 0.024304,0.02538 0.031522,0.1063539 0.00934,0.1060024 C 6.589685,3.9719826 6.538699,3.9599232 6.4841982,3.9452942 6.3820387,3.9178722 6.2319857,3.9088932 6.2319857,3.9302682 c 0,0.00665 0.013599,0.027305 0.030055,0.045486 0.016452,0.018182 0.02401,0.038929 0.016653,0.0463 -0.00735,0.00737 -0.085891,0.01644 -0.1742336,0.019899 l -0.1604245,0.00608 0.036147,0.051172 c 0.034964,0.049102 0.089757,0.1831231 0.089757,0.2197214 0,0.00972 -0.032189,0.014344 -0.071887,0.010558 -0.039637,-0.00378 -0.072293,1.691e-4 -0.072293,0.00853 0,0.00836 0.050253,0.062975 0.1116876,0.1214358 0.061436,0.05846 0.1054157,0.1122751 0.09788,0.1198109 -0.00753,0.00753 -0.044745,0.01381 -0.082852,0.01381 h -0.069453 l 0.035334,0.04955 c 0.019377,0.027211 0.071339,0.07888 0.1153433,0.1149371 0.088083,0.072177 0.089107,0.097474 0.00406,0.097474 h -0.056048 l 0.043457,0.046705 c 0.024023,0.025672 0.08249,0.075031 0.1295581,0.1096571 0.047068,0.034625 0.085289,0.070539 0.085289,0.079603 0,0.00906 -0.029087,0.016653 -0.064983,0.016653 -0.088646,0 -0.06436,0.025885 0.1185921,0.1267155 0.079708,0.043929 0.1422349,0.087848 0.1388997,0.097879 -0.00333,0.010032 -0.02998,0.023 -0.05889,0.02843 l -0.052392,0.00975 0.054015,0.028023 c 0.029728,0.015517 0.1104057,0.04687 0.1791071,0.069449 l 0.1246849,0.04102 -0.041832,0.034115 c -0.023036,0.018653 -0.037941,0.037602 -0.033304,0.042238 0.01456,0.014559 0.1963344,0.044675 0.2696763,0.044675 0.076862,0 0.1070868,0.035389 0.069043,0.081229 -0.019291,0.023244 -0.00699,0.026669 0.0926,0.026399 C 7.483013,5.7366047 7.7925618,5.580231 7.9016185,5.3505281 L 7.9446768,5.2607778 7.8033404,5.1255335 C 7.7256544,5.051212 7.585737,4.9357986 7.4922389,4.8692572 7.307746,4.737955 6.8488339,4.459855 6.6702137,4.3709246 6.5285356,4.3003866 6.5090927,4.270668 6.6324433,4.3132531 7.1075176,4.4772662 7.6393388,4.7568815 7.9743262,5.0191226 l 0.1116879,0.087726 0.07676,-0.058485 C 8.36208,4.8963487 8.3817333,4.676448 8.2245074,4.3599588 8.1362776,4.182356 7.9818525,3.9891723 7.9804179,4.0545427 7.9784649,4.1441305 7.941564,4.1323126 7.816338,4.002151 L 7.6924655,3.8734045 7.6920454,3.93067 C 7.6917588,3.962291 7.6830154,3.993659 7.6725624,4.00012 7.6621054,4.00658 7.6071534,3.968588 7.5507202,3.915643 7.4516942,3.822736 7.4478886,3.820999 7.4418748,3.86447 7.4292148,3.955988 7.4067078,3.956921 7.2916033,3.87219 7.170334,3.782915 7.1500577,3.7758663 7.1636695,3.8279188 c 0.00514,0.019671 0.00488,0.048141 -8.019e-4,0.062951 -0.00851,0.022186 -0.033564,0.015906 -0.1413366,-0.035741 C 6.933065,3.8127313 6.8841296,3.792464 6.8651658,3.7933938 Z m 1.6261801,1.9868388 c -0.2721174,0.00462 -0.600148,0.1571438 -0.7347051,0.3513099 -0.053609,0.077359 -0.061828,0.1747089 -0.02112,0.2534307 0.062473,0.1208087 0.2798252,0.2506054 0.4987387,0.2981061 0.1568737,0.03404 0.4211639,0.033718 0.5884952,-8.019e-4 C 9.1800827,6.6085331 9.3659909,6.422869 9.287774,6.2180602 9.2100431,6.0145256 8.8841484,5.8161573 8.5737818,5.7834916 c -0.026671,-0.0028 -0.054296,-0.00373 -0.082446,-0.00326 z M 7.3240934,5.9402509 C 7.2243939,5.9400027 7.1120397,5.9468411 7.047513,5.9605579 6.7006558,6.0342904 6.4468083,6.2567274 6.3290535,6.5904793 6.2986034,6.6767848 6.2655011,6.9528892 6.2807226,6.9925571 6.3236189,7.1043426 6.815547,6.7722992 7.2534256,6.3362365 7.4343425,6.1560697 7.5540073,5.9910575 7.5247262,5.9617766 7.5108118,5.9478699 7.4237937,5.9404994 7.3240934,5.9402521 Z m 2.3097117,0.017462 c -0.032098,4.583e-4 -0.064626,0.00222 -0.097473,0.00528 -0.1128268,0.010574 -0.1332142,0.017453 -0.1332142,0.045486 0,0.1455959 0.7711111,0.8459309 1.1002291,0.9991018 0.05368,0.02498 0.105842,0.042561 0.115752,0.039395 0.03025,-0.00966 0.03085,-0.2399048 8.02e-4,-0.3594342 C 10.506386,6.2358277 10.115278,5.951004 9.6338015,5.9577155 Z M 9.4055554,6.7651177 C 9.2115998,6.7641457 9.024575,6.8359061 8.8832607,6.9905245 8.7818353,7.1015021 8.7238877,7.2338453 8.6980614,7.4133154 8.6577126,7.693713 8.7772407,8.0269345 8.9981985,8.2511798 9.1245013,8.379364 9.23524,8.4497546 9.4031183,8.5086724 c 0.096033,0.033696 0.1460501,0.040184 0.2790181,0.035332 0.187664,-0.00688 0.3161867,-0.055412 0.4378186,-0.1652984 0.2662,-0.2404962 0.322329,-0.6747899 0.134838,-1.0454 C 10.071496,6.9709952 9.7288157,6.7667394 9.4055554,6.7651236 Z M 7.6104217,6.8130418 C 7.4792301,6.8134999 7.4249663,6.82258 7.3257183,6.8609659 6.7725189,7.0749346 6.4877122,7.73695 6.7380352,8.2276231 c 0.086389,0.169335 0.2820067,0.3171375 0.4727458,0.3574025 0.041449,0.00874 0.1273278,0.011777 0.1908851,0.00697 C 8.1882616,8.5316853 8.6259945,7.4843158 8.0750447,6.9807776 7.9397972,6.857171 7.8150938,6.8123355 7.6104217,6.8130418 Z M 10.740534,7.291065 c -0.01403,2.674e-4 -0.02687,0.00718 -0.04751,0.020715 -0.06755,0.044254 -0.100722,0.1799343 -0.100722,0.4102007 0,0.4288159 0.116538,0.8910454 0.261553,1.0360598 0.06129,0.061293 0.104682,0.053176 0.178701,-0.033299 0.138258,-0.1615256 0.207611,-0.3680002 0.207943,-0.6201745 2.48e-4,-0.2001693 -0.04176,-0.3504196 -0.140524,-0.5032061 -0.07472,-0.1156002 -0.212205,-0.2472768 -0.304199,-0.2916075 -0.02609,-0.012576 -0.0412,-0.018967 -0.05523,-0.018682 z M 6.1946213,7.311372 c -0.025037,-0.0022 -0.052588,0.012925 -0.1169678,0.057266 -0.2533753,0.1745056 -0.386238,0.4345507 -0.386238,0.7562309 0,0.25796 0.071258,0.4690711 0.2099735,0.6226109 0.035486,0.039277 0.07817,0.071483 0.094631,0.071483 0.178694,0 0.3598984,-0.6043839 0.3411566,-1.1380017 -0.00791,-0.225401 -0.040991,-0.3272512 -0.1169681,-0.3618675 -0.00906,-0.00412 -0.017239,-0.00699 -0.025587,-0.00772 z m 2.3166163,1.14815 C 8.284534,8.463248 8.0552305,8.5485905 7.8764424,8.7231068 7.7491089,8.8473964 7.6575735,9.0380956 7.6433189,9.208442 c -0.03587,0.4286466 0.3025834,0.8106 0.7777557,0.877667 0.09395,0.01326 0.2843287,-0.0085 0.3963918,-0.04549 C 9.3028415,9.8808543 9.538663,9.3707817 9.3259524,8.9403905 9.1688985,8.6226183 8.842572,8.4540265 8.5112376,8.459522 Z m 1.9819574,0.3041978 c -0.148548,0.00405 -0.322089,0.1136478 -0.55113,0.3423766 -0.1855651,0.1853102 -0.2176752,0.2270195 -0.2924202,0.3793327 -0.1464277,0.2983935 -0.1945487,0.5905429 -0.12306,0.7477019 0.038881,0.08546 0.06927,0.113016 0.1600189,0.145397 0.1628144,0.0581 0.4082683,0.01148 0.6246413,-0.118591 0.114951,-0.0691 0.330379,-0.2874267 0.397611,-0.4032963 0.08656,-0.1491741 0.122551,-0.2939802 0.123465,-0.4971139 0.0013,-0.28834 -0.07527,-0.5069217 -0.19779,-0.5653454 -0.04514,-0.02153 -0.09182,-0.031833 -0.141336,-0.030464 z M 6.4553624,8.8920659 C 6.4050574,8.8924101 6.3598274,8.9022639 6.322149,8.9217119 6.1224071,9.0248249 6.1066143,9.4428085 6.288035,9.8229357 6.3981167,10.053592 6.6849655,10.290136 6.9366384,10.35782 7.0658629,10.39257 7.1963778,10.39107 7.2936345,10.35372 7.4038612,10.3115 7.4572764,10.210893 7.4569021,10.045925 7.4559296,9.6192025 7.1623775,9.1783606 6.7388476,8.9676283 6.6372765,8.9170924 6.5392014,8.8914964 6.455363,8.8920796 Z m 2.0920215,1.4864681 c -0.3306667,-8.6e-5 -0.5273767,0.03747 -0.7286132,0.1389 -0.2190693,0.110416 -0.2296814,0.189082 -0.048737,0.366338 0.1301117,0.127459 0.3509754,0.245516 0.5340725,0.285921 0.3054002,0.0674 0.664753,-0.04973 0.9190925,-0.299323 0.1855548,-0.182093 0.1795428,-0.275727 -0.024774,-0.375272 -0.186668,-0.09095 -0.3276406,-0.116477 -0.6510408,-0.116564 z" />
  <g
     fill="#474747"
     id="g9"
     transform="matrix(0.46959567,0,0,0.46959567,4.7471229,3.7470598)"
     style="fill:#999999;fill-opacity:1;stroke:none;stroke-width:0.58349;stroke-dasharray:none;stroke-opacity:0.3" />
  <g
     aria-label="Krita"
     id="text1450"
     style="font-size:1.76385px;opacity:1;fill:#00ffff;stroke-width:0.529156">
    <rect
       style="font-size:1.76385px;fill:#00ffff;fill-opacity:1;stroke:none;stroke-width:0.519976;stroke-dasharray:none;filter:url(#filter3148)"
       id="rect1656-3"
       width="0.5055005"
       height="2.2653189"
       x="15.369148"
       y="4.3016486"
       rx="0"
       ry="0" />
    <rect
       style="opacity:1;fill:#00ffff;fill-opacity:1;stroke:none;stroke-width:0.519976;stroke-dasharray:none"
       id="rect1656"
       width="0.5055005"
       height="2.2653189"
       x="15.369148"
       y="4.3016486"
       rx="0"
       ry="0" />
  </g>
  <path
     d="m 4.2476247,12.919628 q 0.234592,0 0.3457146,0.08996 0.1128864,0.08819 0.1128864,0.268105 0,0.100539 -0.037041,0.167565 -0.037041,0.06703 -0.095248,0.107595 -0.056443,0.0388 -0.1199418,0.06174 l 0.3457146,0.564432 H 4.6145055 L 4.3093594,13.658681 H 4.0588927 v 0.520336 H 3.9001462 v -1.259389 z m -0.00882,0.13758 H 4.0588927 v 0.467421 h 0.188732 q 0.1534549,0 0.2240089,-0.05997 0.070554,-0.06174 0.070554,-0.179913 0,-0.123469 -0.074082,-0.174621 -0.074082,-0.05292 -0.2293005,-0.05292 z m 1.0918227,-0.13758 q 0.246939,0 0.3598254,0.09701 0.1128864,0.09701 0.1128864,0.273397 0,0.104067 -0.047624,0.195787 -0.04586,0.08996 -0.1569826,0.1464 -0.1093587,0.05644 -0.2980907,0.05644 H 5.1560069 v 0.49035 H 4.9972604 v -1.259389 z m -0.014111,0.135817 H 5.1560069 v 0.497405 h 0.1269972 q 0.1799127,0 0.2681052,-0.05821 0.088192,-0.05821 0.088192,-0.197551 0,-0.121706 -0.077609,-0.181676 -0.077609,-0.05997 -0.2451751,-0.05997 z m 1.1024055,1.123572 H 5.9638495 v -0.09172 l 0.1481634,-0.03351 v -1.007159 l -0.1481634,-0.03528 v -0.09172 h 0.4550733 v 0.09172 l -0.1481634,0.03528 v 1.007159 l 0.1481634,0.03351 z m 1.0565477,0 H 7.0203972 v -0.09172 l 0.1481634,-0.03351 v -1.007159 l -0.1481634,-0.03528 v -0.09172 h 0.4550733 v 0.09172 l -0.1481634,0.03528 v 1.007159 l 0.1481634,0.03351 z m 1.2593901,-0.963062 q 0.1605104,0 0.2398836,0.0829 0.079373,0.08114 0.079373,0.264577 v 0.615584 h -0.153455 v -0.608528 q 0,-0.224009 -0.1922596,-0.224009 -0.1375803,0 -0.1975512,0.07937 -0.058207,0.07937 -0.058207,0.231064 v 0.5221 H 8.2991897 v -0.608528 q 0,-0.224009 -0.1940235,-0.224009 -0.1428719,0 -0.1975512,0.08819 -0.054679,0.08819 -0.054679,0.253995 v 0.49035 H 7.6977168 v -0.945424 h 0.1252334 l 0.02293,0.128762 h 0.00882 q 0.044096,-0.07408 0.1181779,-0.109359 0.075846,-0.03704 0.1605104,-0.03704 0.2222451,0 0.2892714,0.158746 h 0.00882 q 0.047624,-0.08114 0.1287611,-0.119941 0.082901,-0.0388 0.1746211,-0.0388 z m 0.9701165,0.0018 q 0.1728573,0 0.2557583,0.07584 0.082901,0.07585 0.082901,0.241648 v 0.643805 H 9.9307499 l -0.029985,-0.134053 h -0.00706 q -0.061735,0.07761 -0.1305249,0.114651 -0.067026,0.03704 -0.1869681,0.03704 -0.1287611,0 -0.2134259,-0.06703 -0.084665,-0.06879 -0.084665,-0.213426 0,-0.141108 0.1111226,-0.216953 0.1111225,-0.07761 0.3421869,-0.08466 l 0.1605103,-0.0053 v -0.05644 q 0,-0.118178 -0.051152,-0.164038 -0.051152,-0.04586 -0.1446357,-0.04586 -0.074082,0 -0.141108,0.02293 -0.067026,0.02117 -0.1252334,0.04939 l -0.047624,-0.116414 q 0.061735,-0.03351 0.1463995,-0.05644 0.084665,-0.02469 0.176385,-0.02469 z m 0.04586,0.504461 q -0.176385,0.0071 -0.2451751,0.05644 -0.067026,0.04939 -0.067026,0.139344 0,0.07937 0.047624,0.116414 0.049388,0.03704 0.1252334,0.03704 0.1199418,0 0.199315,-0.06526 0.079373,-0.06703 0.079373,-0.204607 v -0.08466 z m 0.9207318,-0.506225 q 0.09348,0 0.167565,0.03528 0.07585,0.03528 0.128761,0.107595 h 0.0088 l 0.02117,-0.125234 h 0.123469 v 0.961299 q 0,0.202842 -0.104067,0.305146 -0.102303,0.102303 -0.319257,0.102303 -0.208134,0 -0.340423,-0.05997 v -0.142872 q 0.139344,0.07408 0.349243,0.07408 0.121705,0 0.190495,-0.07232 0.07055,-0.07055 0.07055,-0.194023 v -0.03704 q 0,-0.02117 0.0018,-0.05997 0.0018,-0.04057 0.0035,-0.05644 h -0.0071 q -0.09525,0.142872 -0.2928,0.142872 -0.18344,0 -0.287507,-0.128761 -0.102303,-0.128762 -0.102303,-0.359826 0,-0.225773 0.102303,-0.358061 0.104067,-0.134053 0.285744,-0.134053 z m 0.02117,0.130525 q -0.118178,0 -0.183441,0.09525 -0.06526,0.09348 -0.06526,0.268105 0,0.174621 0.0635,0.268105 0.06526,0.09172 0.188731,0.09172 0.142872,0 0.208135,-0.07585 0.06526,-0.07761 0.06526,-0.248703 v -0.03704 q 0,-0.194023 -0.06703,-0.276924 -0.06703,-0.08467 -0.209898,-0.08467 z m 1.093586,-0.130525 q 0.121706,0 0.208135,0.05292 0.08819,0.05292 0.134052,0.149928 0.04762,0.09525 0.04762,0.224009 v 0.09348 h -0.647333 q 0.0035,0.16051 0.08114,0.245175 0.07937,0.0829 0.220482,0.0829 0.08996,0 0.158746,-0.01588 0.07055,-0.01764 0.144636,-0.04939 v 0.135817 q -0.07232,0.03175 -0.142872,0.04586 -0.07055,0.01588 -0.167566,0.01588 -0.134052,0 -0.23812,-0.05468 -0.102303,-0.05468 -0.16051,-0.162274 -0.05644,-0.109359 -0.05644,-0.266341 0,-0.155219 0.05115,-0.266342 0.05291,-0.111122 0.146399,-0.171093 0.09525,-0.05997 0.220481,-0.05997 z m -0.0018,0.126997 q -0.111123,0 -0.176385,0.07232 -0.0635,0.07055 -0.07585,0.197551 h 0.481531 q -0.0018,-0.119942 -0.05644,-0.194023 -0.05468,-0.07585 -0.172857,-0.07585 z m 1.072419,-0.126997 q 0.02646,0 0.05644,0.0035 0.03175,0.0018 0.05468,0.0071 l -0.0194,0.142872 q -0.02293,-0.0053 -0.05115,-0.0088 -0.02646,-0.0035 -0.05115,-0.0035 -0.07232,0 -0.135816,0.04057 -0.0635,0.0388 -0.102303,0.111122 -0.03704,0.07055 -0.03704,0.165802 v 0.504461 h -0.155219 v -0.945424 h 0.126997 l 0.01764,0.172858 h 0.0071 q 0.04586,-0.07761 0.118178,-0.134053 0.07232,-0.05644 0.171094,-0.05644 z"
     id="text2284"
     style="font-size:1.76385px;fill:#999999;stroke-width:0.529156"
     aria-label="RPI Imager" />
  <text
     xml:space="preserve"
     transform="scale(0.26457812)"
     id="text3806"
     style="font-size:6.66667px;white-space:pre;shape-inside:url(#rect3808);display:inline;fill:#999999;stroke-width:2" />
</svg>
