<?xml version="1.0" encoding="UTF-8" standalone="no"?>
<svg
   width="64"
   height="64"
   version="1.1"
   viewBox="0 0 16.933 16.933"
   id="svg7"
   sodipodi:docname="Settings Template.svg"
   inkscape:version="1.4 (e7c3feb100, 2024-10-09)"
   xmlns:inkscape="http://www.inkscape.org/namespaces/inkscape"
   xmlns:sodipodi="http://sodipodi.sourceforge.net/DTD/sodipodi-0.dtd"
   xmlns:xlink="http://www.w3.org/1999/xlink"
   xmlns="http://www.w3.org/2000/svg"
   xmlns:svg="http://www.w3.org/2000/svg"
   xmlns:rdf="http://www.w3.org/1999/02/22-rdf-syntax-ns#"
   xmlns:cc="http://creativecommons.org/ns#"
   xmlns:dc="http://purl.org/dc/elements/1.1/">
  <sodipodi:namedview
     id="namedview7"
     pagecolor="#9c4444"
     bordercolor="#000000"
     borderopacity="0.25"
     inkscape:showpageshadow="2"
     inkscape:pageopacity="0.0"
     inkscape:pagecheckerboard="0"
     inkscape:deskcolor="#d1d1d1"
     inkscape:zoom="6.15625"
     inkscape:cx="19.411168"
     inkscape:cy="29.807107"
     inkscape:window-width="1183"
     inkscape:window-height="973"
     inkscape:window-x="35"
     inkscape:window-y="32"
     inkscape:window-maximized="0"
     inkscape:current-layer="svg7"
     showgrid="false" />
  <defs
     id="defs2">
    <rect
       x="67.489848"
       y="35.60533"
       width="15.337563"
       height="22.51269"
       id="rect3808" />
    <linearGradient
       inkscape:collect="always"
       id="linearGradient1134">
      <stop
         style="stop-color:#161616;stop-opacity:1;"
         offset="0"
         id="stop1130" />
      <stop
         style="stop-color:#404040;stop-opacity:1;"
         offset="1"
         id="stop1132" />
    </linearGradient>
    <linearGradient
       inkscape:collect="always"
       id="linearGradient883">
      <stop
         style="stop-color:#808080;stop-opacity:1;"
         offset="0"
         id="stop879" />
      <stop
         style="stop-color:#3e3e3e;stop-opacity:1;"
         offset="0.5"
         id="stop1216" />
      <stop
         style="stop-color:#242424;stop-opacity:1;"
         offset="1"
         id="stop881" />
    </linearGradient>
    <linearGradient
       inkscape:collect="always"
       xlink:href="#linearGradient883"
       id="linearGradient885"
       x1="2.1085808"
       y1="2.0236168"
       x2="14.846128"
       y2="15.071845"
       gradientUnits="userSpaceOnUse" />
    <linearGradient
       inkscape:collect="always"
       xlink:href="#linearGradient1134"
       id="linearGradient1136"
       x1="14.971222"
       y1="14.703373"
       x2="2.0756054"
       y2="2.0069976"
       gradientUnits="userSpaceOnUse" />
    <filter
       style="color-interpolation-filters:sRGB;"
       inkscape:label="Blur"
       id="filter1283"
       x="-0.082344266"
       y="-0.082344266"
       width="1.1646885"
       height="1.1646885">
      <feGaussianBlur
         stdDeviation="0.5 0.5"
         result="blur"
         id="feGaussianBlur1281" />
    </filter>
    <filter
       style="color-interpolation-filters:sRGB;"
       inkscape:label="Blur"
       id="filter1694"
       x="-0.94955398"
       y="-0.2118907"
       width="2.899108"
       height="1.4237814">
      <feGaussianBlur
         stdDeviation="0.2 0.2"
         result="blur"
         id="feGaussianBlur1692" />
    </filter>
    <filter
       style="color-interpolation-filters:sRGB;"
       inkscape:label="Blur"
       id="filter3148"
       x="-0.94955398"
       y="-0.2118907"
       width="2.899108"
       height="1.4237814">
      <feGaussianBlur
         stdDeviation="0.2 0.2"
         result="blur"
         id="feGaussianBlur3146" />
    </filter>
  </defs>
  <metadata
     id="metadata2">
    <rdf:RDF>
      <cc:Work
         rdf:about="">
        <dc:format>image/svg+xml</dc:format>
        <dc:type
           rdf:resource="http://purl.org/dc/dcmitype/StillImage" />
      </cc:Work>
    </rdf:RDF>
  </metadata>
  <rect
     style="fill:#000000;stroke:none;stroke-width:0.539739;stroke-dasharray:none;filter:url(#filter1283)"
     id="rect246-1"
     width="14.572964"
     height="14.572964"
     x="1.1932471"
     y="1.2138842"
     rx="2.1589575"
     ry="2.1589575" />
  <rect
     style="opacity:1;fill:#000000;stroke:url(#linearGradient885);stroke-width:0.52915625;stroke-dasharray:none"
     id="rect246"
     width="14.287219"
     height="14.287219"
     x="1.3361193"
     y="1.3567564"
     rx="2.1166251"
     ry="2.1166251" />
  <rect
     style="fill:url(#linearGradient1136);fill-opacity:1;stroke:none;stroke-width:0.478315;stroke-dasharray:none"
     id="rect246-5"
     width="12.914515"
     height="12.914515"
     x="2.0224717"
     y="2.0431087"
     rx="1.5874687"
     ry="1.5874687" />
  <g
     fill="#474747"
     id="g7"
     transform="matrix(0.52333163,0,0,0.52333163,4.1517019,2.9769213)"
     style="fill:#999999;fill-opacity:1;stroke:none;stroke-width:0.441494;stroke-dasharray:none;stroke-opacity:0.3">
    <path
       d="m 12.109,5 c 0.62,0.75 0.995,1.71 0.995,2.76 A 4.344,4.344 0 0 1 8.76,12.104 C 7.71,12.104 6.75,11.728 6,11.109 A 5.055,5.055 0 0 0 10.932,15 5.068,5.068 0 0 0 16,9.932 5.055,5.055 0 0 0 12.109,5 Z M 6.511,1.79 c 0.4,0 0.721,0.322 0.721,0.721 A 0.72,0.72 0 0 1 6.512,3.232 0.72,0.72 0 0 1 5.79,2.512 c 0,-0.4 0.322,-0.722 0.721,-0.722 z m 4,1.023 a 0.699,0.699 0 1 1 0,1.398 0.697,0.697 0 0 1 -0.699,-0.7 c 0,-0.387 0.312,-0.698 0.7,-0.698 z m -3,1.977 c 0.4,0 0.721,0.322 0.721,0.721 A 0.72,0.72 0 0 1 7.512,6.232 0.72,0.72 0 0 1 6.79,5.512 c 0,-0.4 0.322,-0.722 0.721,-0.722 z"
       color="#bebebe"
       overflow="visible"
       id="path2-3"
       style="fill:#999999;fill-opacity:1;stroke:none;stroke-width:0.441494;stroke-dasharray:none;stroke-opacity:0.3" />
    <path
       d="M 3.505,7.505 2.76,5.25 0.505,4.505 2.76,3.76 3.505,1.505 4.25,3.76 6.505,4.505 4.25,5.25 Z"
       overflow="visible"
       id="path4"
       style="fill:#999999;fill-opacity:1;stroke:none;stroke-width:0.441494;stroke-dasharray:none;stroke-opacity:0.3" />
  </g>
  <g
     aria-label="Krita"
     id="text1450"
     style="font-size:1.76385px;opacity:1;fill:#5555ff;stroke-width:0.529156">
    <rect
       style="font-size:1.76385px;fill:#5555ff;fill-opacity:1;stroke:none;stroke-width:0.519976;stroke-dasharray:none;filter:url(#filter3148)"
       id="rect1656-3"
       width="0.5055005"
       height="2.2653189"
       x="15.369148"
       y="4.3016486"
       rx="0"
       ry="0" />
    <rect
       style="opacity:1;fill:#5555ff;fill-opacity:1;stroke:none;stroke-width:0.519976;stroke-dasharray:none"
       id="rect1656"
       width="0.5055005"
       height="2.2653189"
       x="15.369148"
       y="4.3016486"
       rx="0"
       ry="0" />
  </g>
  <path
     d="m 4.4027545,13.842122 q 0,0.167565 -0.1217057,0.26105 -0.1217056,0.09348 -0.3280761,0.09348 -0.105831,0 -0.1957873,-0.01588 -0.089956,-0.01587 -0.1499273,-0.0441 v -0.151691 q 0.063499,0.02822 0.1569827,0.05115 0.095248,0.02293 0.1957873,0.02293 0.141108,0 0.211662,-0.05468 0.072318,-0.05468 0.072318,-0.148163 0,-0.06173 -0.026458,-0.104068 -0.026458,-0.04233 -0.09172,-0.07761 -0.063499,-0.03704 -0.1781488,-0.07761 -0.1605104,-0.05821 -0.2434113,-0.142872 -0.081137,-0.08466 -0.081137,-0.231065 0,-0.100539 0.051152,-0.171093 0.051152,-0.07232 0.141108,-0.111123 0.09172,-0.0388 0.2098982,-0.0388 0.1040671,0 0.1904958,0.0194 0.086429,0.0194 0.1569826,0.05115 l -0.049388,0.135816 q -0.065262,-0.02822 -0.1428718,-0.04762 -0.075846,-0.0194 -0.1587465,-0.0194 -0.118178,0 -0.1781489,0.05115 -0.059971,0.04939 -0.059971,0.132289 0,0.0635 0.026458,0.105831 0.026458,0.04233 0.086429,0.07585 0.059971,0.03351 0.1622742,0.07232 0.1111226,0.04057 0.1869681,0.08819 0.077609,0.04586 0.1164141,0.111123 0.040569,0.06526 0.040569,0.164038 z m 0.6120556,0.354534 q -0.1252334,0 -0.224009,-0.05115 -0.097012,-0.05115 -0.1534549,-0.158747 -0.054679,-0.107594 -0.054679,-0.27516 0,-0.174621 0.058207,-0.28398 0.058207,-0.109359 0.1569826,-0.16051 0.1005395,-0.05115 0.2275367,-0.05115 0.072318,0 0.1393441,0.01588 0.067026,0.01411 0.1093587,0.03528 l -0.047624,0.128761 q -0.042332,-0.01587 -0.098776,-0.02999 -0.056443,-0.01411 -0.105831,-0.01411 -0.2786883,0 -0.2786883,0.358062 0,0.171093 0.067026,0.262814 0.06879,0.08996 0.2028427,0.08996 0.077609,0 0.1358165,-0.01587 0.059971,-0.01587 0.1093587,-0.0388 v 0.13758 q -0.047624,0.02469 -0.105831,0.03704 -0.056443,0.01411 -0.1375803,0.01411 z m 0.908382,-0.980701 q 0.026458,0 0.056443,0.0035 0.031749,0.0018 0.054679,0.0071 l -0.019402,0.142872 q -0.02293,-0.0053 -0.051152,-0.0088 -0.026458,-0.0035 -0.051152,-0.0035 -0.072318,0 -0.1358165,0.04057 -0.063499,0.0388 -0.1023033,0.111122 -0.037041,0.07055 -0.037041,0.165802 v 0.504461 H 5.4822296 v -0.945424 h 0.1269972 l 0.017639,0.172858 h 0.00706 q 0.04586,-0.07761 0.1181779,-0.134053 0.072318,-0.05644 0.1710935,-0.05644 z m 0.6173469,0 q 0.1217057,0 0.2081343,0.05292 0.088192,0.05292 0.1340526,0.149928 0.047624,0.09525 0.047624,0.224009 v 0.09348 h -0.647333 q 0.00353,0.16051 0.081137,0.245175 0.079373,0.0829 0.2204813,0.0829 0.089956,0 0.1587465,-0.01588 0.070554,-0.01764 0.1446357,-0.04939 v 0.135817 q -0.072318,0.03175 -0.1428719,0.04586 -0.070554,0.01588 -0.1675657,0.01588 -0.1340526,0 -0.2381198,-0.05468 -0.1023033,-0.05468 -0.1605103,-0.162274 -0.056443,-0.109359 -0.056443,-0.266341 0,-0.155219 0.051152,-0.266342 0.052916,-0.111122 0.1463996,-0.171093 0.095248,-0.05997 0.2204812,-0.05997 z m -0.00176,0.126997 q -0.1111226,0 -0.176385,0.07232 -0.063499,0.07055 -0.075846,0.197551 h 0.4815311 q -0.00176,-0.119942 -0.056443,-0.194023 -0.054679,-0.07585 -0.1728573,-0.07585 z m 0.9965737,-0.126997 q 0.1217056,0 0.2081343,0.05292 0.088192,0.05292 0.1340526,0.149928 0.047624,0.09525 0.047624,0.224009 v 0.09348 H 7.2778268 q 0.00353,0.16051 0.081137,0.245175 0.079373,0.0829 0.2204812,0.0829 0.089956,0 0.1587465,-0.01588 0.070554,-0.01764 0.1446357,-0.04939 v 0.135817 q -0.072318,0.03175 -0.1428718,0.04586 -0.070554,0.01588 -0.1675658,0.01588 -0.1340526,0 -0.2381197,-0.05468 -0.1023033,-0.05468 -0.1605104,-0.162274 -0.056443,-0.109359 -0.056443,-0.266341 0,-0.155219 0.051152,-0.266342 0.052916,-0.111122 0.1463995,-0.171093 0.095248,-0.05997 0.2204813,-0.05997 z m -0.00176,0.126997 q -0.1111225,0 -0.176385,0.07232 -0.063499,0.07055 -0.075845,0.197551 h 0.481531 q -0.00176,-0.119942 -0.056443,-0.194023 -0.054679,-0.07585 -0.1728573,-0.07585 z m 1.0865301,-0.126997 q 0.1693296,0 0.2557582,0.0829 0.086429,0.08114 0.086429,0.264577 v 0.615584 H 8.808847 v -0.605 q 0,-0.227537 -0.211662,-0.227537 -0.1569826,0 -0.2169535,0.08819 -0.059971,0.08819 -0.059971,0.253995 v 0.49035 H 8.1650418 v -0.945424 h 0.1252333 l 0.02293,0.128762 h 0.00882 q 0.04586,-0.07408 0.1269972,-0.109359 0.081137,-0.03704 0.1710935,-0.03704 z m 1.2505696,0.702012 q 0,0.137581 -0.1023033,0.208135 -0.1023033,0.07055 -0.2751606,0.07055 -0.098776,0 -0.1710934,-0.01588 -0.070554,-0.01587 -0.1252334,-0.0441 v -0.141108 q 0.056443,0.02822 0.1358165,0.05291 0.081137,0.02293 0.164038,0.02293 0.118178,0 0.1710935,-0.03704 0.052915,-0.0388 0.052915,-0.102303 0,-0.03528 -0.019402,-0.0635 -0.019402,-0.02822 -0.070554,-0.05644 -0.049388,-0.02822 -0.1428718,-0.0635 -0.09172,-0.03528 -0.1569827,-0.07055 -0.065262,-0.03528 -0.1005394,-0.08466 -0.035277,-0.04939 -0.035277,-0.126997 0,-0.119942 0.097012,-0.185205 0.098776,-0.06526 0.2575221,-0.06526 0.086429,0 0.1605104,0.01764 0.075845,0.01587 0.141108,0.04586 l -0.052916,0.123469 q -0.059971,-0.02469 -0.1252334,-0.04233 -0.065262,-0.01764 -0.1340526,-0.01764 -0.095248,0 -0.1463995,0.03175 -0.049388,0.02999 -0.049388,0.0829 0,0.0388 0.02293,0.06703 0.02293,0.02646 0.075846,0.05292 0.054679,0.02469 0.1446357,0.05997 0.089956,0.03351 0.1534549,0.06879 0.063499,0.03528 0.097012,0.08643 0.033513,0.04939 0.033513,0.125233 z m 0.5873623,-0.700248 q 0.172857,0 0.255758,0.07584 0.0829,0.07585 0.0829,0.241648 v 0.643805 H 10.68382 l -0.02999,-0.134053 h -0.0071 q -0.06174,0.07761 -0.130525,0.114651 -0.06703,0.03704 -0.186968,0.03704 -0.128761,0 -0.213426,-0.06703 -0.08466,-0.06879 -0.08466,-0.213426 0,-0.141108 0.111123,-0.216953 0.111122,-0.07761 0.342187,-0.08466 l 0.16051,-0.0053 v -0.05644 q 0,-0.118178 -0.05115,-0.164038 -0.05115,-0.04586 -0.144635,-0.04586 -0.07408,0 -0.141108,0.02293 -0.06703,0.02117 -0.125234,0.04939 l -0.04762,-0.116414 q 0.06173,-0.03351 0.1464,-0.05644 0.08466,-0.02469 0.176385,-0.02469 z m 0.04586,0.504461 q -0.176385,0.0071 -0.245175,0.05644 -0.06703,0.04939 -0.06703,0.139344 0,0.07937 0.04762,0.116414 0.04939,0.03704 0.125233,0.03704 0.119942,0 0.199315,-0.06526 0.07937,-0.06703 0.07937,-0.204607 v -0.08466 z m 0.793734,0.456837 -0.358062,-0.945424 h 0.165802 l 0.201079,0.557377 q 0.01411,0.0388 0.02998,0.08643 0.01588,0.04762 0.02822,0.09172 0.01235,0.04233 0.01764,0.07232 h 0.0071 q 0.0071,-0.02999 0.0194,-0.07408 0.01411,-0.0441 0.02999,-0.09172 0.01764,-0.04762 0.02998,-0.08467 l 0.201079,-0.557377 h 0.165802 l -0.359825,0.945424 z m 1.053018,-0.963062 q 0.121705,0 0.208134,0.05292 0.08819,0.05292 0.134053,0.149928 0.04762,0.09525 0.04762,0.224009 v 0.09348 h -0.647332 q 0.0035,0.16051 0.08114,0.245175 0.07937,0.0829 0.220481,0.0829 0.08996,0 0.158746,-0.01588 0.07055,-0.01764 0.144636,-0.04939 v 0.135817 q -0.07232,0.03175 -0.142872,0.04586 -0.07055,0.01588 -0.167566,0.01588 -0.134052,0 -0.238119,-0.05468 -0.102304,-0.05468 -0.160511,-0.162274 -0.05644,-0.109359 -0.05644,-0.266341 0,-0.155219 0.05115,-0.266342 0.05292,-0.111122 0.146399,-0.171093 0.09525,-0.05997 0.220482,-0.05997 z m -0.0018,0.126997 q -0.111123,0 -0.176385,0.07232 -0.0635,0.07055 -0.07585,0.197551 h 0.481531 q -0.0018,-0.119942 -0.05644,-0.194023 -0.05468,-0.07585 -0.172857,-0.07585 z m 1.072418,-0.126997 q 0.02646,0 0.05644,0.0035 0.03175,0.0018 0.05468,0.0071 l -0.0194,0.142872 q -0.02293,-0.0053 -0.05115,-0.0088 -0.02646,-0.0035 -0.05115,-0.0035 -0.07232,0 -0.135816,0.04057 -0.0635,0.0388 -0.102304,0.111122 -0.03704,0.07055 -0.03704,0.165802 v 0.504461 h -0.155219 v -0.945424 h 0.126997 l 0.01764,0.172858 h 0.0071 q 0.04586,-0.07761 0.118178,-0.134053 0.07232,-0.05644 0.171093,-0.05644 z"
     id="text2284"
     style="font-size:1.76385px;fill:#999999;stroke-width:0.529156"
     aria-label="Screensaver" />
  <text
     xml:space="preserve"
     transform="scale(0.26457812)"
     id="text3806"
     style="fill:#999999;stroke-width:2;font-size:6.66666667px;white-space:pre;shape-inside:url(#rect3808)" />
</svg>
