<?xml version="1.0" encoding="UTF-8" standalone="no"?>
<svg
   width="64"
   height="64"
   version="1.1"
   viewBox="0 0 16.933 16.933"
   id="svg7"
   sodipodi:docname="Settings Template.svg"
   inkscape:version="1.4 (e7c3feb100, 2024-10-09)"
   xmlns:inkscape="http://www.inkscape.org/namespaces/inkscape"
   xmlns:sodipodi="http://sodipodi.sourceforge.net/DTD/sodipodi-0.dtd"
   xmlns:xlink="http://www.w3.org/1999/xlink"
   xmlns="http://www.w3.org/2000/svg"
   xmlns:svg="http://www.w3.org/2000/svg"
   xmlns:rdf="http://www.w3.org/1999/02/22-rdf-syntax-ns#"
   xmlns:cc="http://creativecommons.org/ns#"
   xmlns:dc="http://purl.org/dc/elements/1.1/">
  <sodipodi:namedview
     id="namedview7"
     pagecolor="#9c4444"
     bordercolor="#000000"
     borderopacity="0.25"
     inkscape:showpageshadow="2"
     inkscape:pageopacity="0.0"
     inkscape:pagecheckerboard="0"
     inkscape:deskcolor="#d1d1d1"
     inkscape:zoom="6.15625"
     inkscape:cx="15.675127"
     inkscape:cy="29.807107"
     inkscape:window-width="1183"
     inkscape:window-height="973"
     inkscape:window-x="35"
     inkscape:window-y="32"
     inkscape:window-maximized="0"
     inkscape:current-layer="svg7"
     showgrid="false" />
  <defs
     id="defs2">
    <rect
       x="67.489848"
       y="35.60533"
       width="15.337563"
       height="22.51269"
       id="rect3808" />
    <linearGradient
       inkscape:collect="always"
       id="linearGradient1134">
      <stop
         style="stop-color:#161616;stop-opacity:1;"
         offset="0"
         id="stop1130" />
      <stop
         style="stop-color:#404040;stop-opacity:1;"
         offset="1"
         id="stop1132" />
    </linearGradient>
    <linearGradient
       inkscape:collect="always"
       id="linearGradient883">
      <stop
         style="stop-color:#808080;stop-opacity:1;"
         offset="0"
         id="stop879" />
      <stop
         style="stop-color:#3e3e3e;stop-opacity:1;"
         offset="0.5"
         id="stop1216" />
      <stop
         style="stop-color:#242424;stop-opacity:1;"
         offset="1"
         id="stop881" />
    </linearGradient>
    <linearGradient
       inkscape:collect="always"
       xlink:href="#linearGradient883"
       id="linearGradient885"
       x1="2.1085808"
       y1="2.0236168"
       x2="14.846128"
       y2="15.071845"
       gradientUnits="userSpaceOnUse" />
    <linearGradient
       inkscape:collect="always"
       xlink:href="#linearGradient1134"
       id="linearGradient1136"
       x1="14.971222"
       y1="14.703373"
       x2="2.0756054"
       y2="2.0069976"
       gradientUnits="userSpaceOnUse" />
    <filter
       style="color-interpolation-filters:sRGB;"
       inkscape:label="Blur"
       id="filter1283"
       x="-0.082344266"
       y="-0.082344266"
       width="1.1646885"
       height="1.1646885">
      <feGaussianBlur
         stdDeviation="0.5 0.5"
         result="blur"
         id="feGaussianBlur1281" />
    </filter>
    <filter
       style="color-interpolation-filters:sRGB;"
       inkscape:label="Blur"
       id="filter1694"
       x="-0.94955398"
       y="-0.2118907"
       width="2.899108"
       height="1.4237814">
      <feGaussianBlur
         stdDeviation="0.2 0.2"
         result="blur"
         id="feGaussianBlur1692" />
    </filter>
    <filter
       style="color-interpolation-filters:sRGB;"
       inkscape:label="Blur"
       id="filter3148"
       x="-0.94955398"
       y="-0.2118907"
       width="2.899108"
       height="1.4237814">
      <feGaussianBlur
         stdDeviation="0.2 0.2"
         result="blur"
         id="feGaussianBlur3146" />
    </filter>
  </defs>
  <metadata
     id="metadata2">
    <rdf:RDF>
      <cc:Work
         rdf:about="">
        <dc:format>image/svg+xml</dc:format>
        <dc:type
           rdf:resource="http://purl.org/dc/dcmitype/StillImage" />
      </cc:Work>
    </rdf:RDF>
  </metadata>
  <rect
     style="fill:#000000;stroke:none;stroke-width:0.539739;stroke-dasharray:none;filter:url(#filter1283)"
     id="rect246-1"
     width="14.572964"
     height="14.572964"
     x="1.1932471"
     y="1.2138842"
     rx="2.1589575"
     ry="2.1589575" />
  <rect
     style="opacity:1;fill:#000000;stroke:url(#linearGradient885);stroke-width:0.52915625;stroke-dasharray:none"
     id="rect246"
     width="14.287219"
     height="14.287219"
     x="1.3361193"
     y="1.3567564"
     rx="2.1166251"
     ry="2.1166251" />
  <rect
     style="fill:url(#linearGradient1136);fill-opacity:1;stroke:none;stroke-width:0.478315;stroke-dasharray:none"
     id="rect246-5"
     width="12.914515"
     height="12.914515"
     x="2.0224717"
     y="2.0431087"
     rx="1.5874687"
     ry="1.5874687" />
  <path
     id="path5-3"
     style="fill:#999999;fill-opacity:1;stroke:none;stroke-width:0.207702;stroke-dasharray:none;stroke-opacity:0.3"
     d="M 9.8140898,4.1555064 C 9.5909027,4.1511762 9.3157961,4.1661805 9.1559353,4.1946325 8.713615,4.2733798 8.3592772,4.4599768 7.9983144,4.8042294 7.8015875,4.9918475 7.64558,5.1735596 7.3107852,5.6055121 6.9571997,6.0617077 6.8637962,6.1733066 6.6621663,6.3801569 6.3458533,6.7046608 6.1429066,6.7919895 5.7418167,6.7762742 5.4793621,6.7659927 5.2685937,6.6990989 5.0677677,6.5624116 4.9733545,6.4981519 4.8182915,6.3447374 4.7473358,6.245442 4.6798683,6.1510271 4.5578747,5.9052569 4.5578747,5.8637269 c 0,-0.067249 -0.018903,0.00823 -0.043361,0.1730771 -0.080229,0.5407298 -0.059425,1.1074631 0.057474,1.5663694 0.1296671,0.5090365 0.4482678,1.0347294 0.8872898,1.463643 0.3091037,0.301989 0.5858006,0.4963053 0.9896482,0.6952433 0.5451957,0.2685673 1.0239235,0.3940013 1.699812,0.4454413 0.1353528,0.0103 0.5837185,-0.006 0.7575908,-0.02752 0.967845,-0.1201 1.8538625,-0.5392403 2.5113135,-1.1879696 C 11.652897,8.7598776 11.951182,8.2444352 12.09449,7.822397 12.220581,7.4510696 12.269607,7.1548241 12.269584,6.7658304 12.269556,6.3238454 12.200644,5.8757783 12.085207,5.5675412 11.793381,4.7883066 11.02924,4.2714887 10.013721,4.1663465 9.9570662,4.1604785 9.8884844,4.1569235 9.8140901,4.1555042 Z M 10.57804,5.382092 c 0.159473,0 0.267883,0.067138 0.331873,0.205323 0.08888,0.1919375 0.0037,0.4266704 -0.18323,0.5049595 -0.111558,0.046721 -0.264837,0.032225 -0.357305,-0.033772 -0.115222,-0.082234 -0.166911,-0.1944937 -0.15653,-0.33991 0.0076,-0.107634 0.02968,-0.1591701 0.09766,-0.228264 0.07946,-0.08078 0.147301,-0.1083339 0.267537,-0.1083339 z m 0.184119,0.091637 c -0.09903,0 -0.148716,0.1218977 -0.07845,0.1923236 0.02191,0.021975 0.05086,0.034917 0.07845,0.034917 0.05823,0 0.113423,-0.055189 0.113423,-0.1135592 0,-0.05837 -0.05519,-0.1136854 -0.113423,-0.1136854 z m 1.480721,0.6552241 c -0.0028,0.0028 0.0037,0.075326 0.01449,0.1612248 0.01076,0.085899 0.01984,0.1840448 0.0201,0.2180685 3.18e-4,0.043709 0.0058,0.059734 0.01819,0.054679 0.0097,-0.0039 0.109951,-0.062102 0.222776,-0.129235 0.112826,-0.06713 0.211666,-0.1244399 0.219598,-0.1273225 0.0079,-0.00287 0.01127,-0.00845 0.0074,-0.012363 C 12.7343,6.2828911 12.248441,6.1233179 12.24286,6.1289562 Z M 7.8167369,6.5998832 c 0.082238,-0.00166 0.165443,0.011399 0.2497315,0.039254 0.3457134,0.1142474 0.5909505,0.507158 0.5081124,0.8138996 C 8.5407407,7.5783476 8.4717743,7.7190958 8.3930033,7.8235367 8.2738527,7.9815145 8.1511555,8.0573481 7.9427474,8.1015063 7.8138835,8.1288098 7.3943884,8.1500585 7.2847192,8.1348929 7.2613459,8.1317104 7.1848297,8.1221036 7.1147119,8.1136085 7.0445949,8.1051133 6.8874033,8.0768972 6.765417,8.0509018 6.5282933,8.0003924 5.7481941,7.7867946 5.747921,7.7722994 5.7478296,7.767462 5.7817359,7.7596056 5.8233239,7.7547172 5.9539076,7.739331 6.2394027,7.6608282 6.3967937,7.5970608 6.751161,7.4534866 6.9695169,7.2818048 7.1561651,7.0000818 7.2444513,6.8668233 7.3144339,6.7933134 7.4121282,6.7310329 7.5451515,6.6462296 7.6796721,6.6025847 7.8167369,6.5998862 Z" />
  <g
     aria-label="Krita"
     id="text1450"
     style="font-size:1.76385px;opacity:1;fill:#5555ff;stroke-width:0.529156">
    <rect
       style="font-size:1.76385px;fill:#5555ff;fill-opacity:1;stroke:none;stroke-width:0.519976;stroke-dasharray:none;filter:url(#filter3148)"
       id="rect1656-3"
       width="0.5055005"
       height="2.2653189"
       x="15.369148"
       y="4.3016486"
       rx="0"
       ry="0" />
    <rect
       style="opacity:1;fill:#5555ff;fill-opacity:1;stroke:none;stroke-width:0.519976;stroke-dasharray:none"
       id="rect1656"
       width="0.5055005"
       height="2.2653189"
       x="15.369148"
       y="4.3016486"
       rx="0"
       ry="0" />
  </g>
  <path
     d="m 6.0166807,13.842122 q 0,0.167565 -0.1217057,0.26105 -0.1217056,0.09348 -0.3280761,0.09348 -0.105831,0 -0.1957873,-0.01588 -0.089956,-0.01587 -0.1499273,-0.0441 v -0.151691 q 0.063499,0.02822 0.1569827,0.05115 0.095248,0.02293 0.1957873,0.02293 0.141108,0 0.211662,-0.05468 0.072318,-0.05468 0.072318,-0.148163 0,-0.06173 -0.026458,-0.104068 -0.026458,-0.04233 -0.09172,-0.07761 -0.063499,-0.03704 -0.1781488,-0.07761 Q 5.401097,13.53874 5.3181961,13.454075 5.237059,13.36941 5.237059,13.22301 q 0,-0.100539 0.051152,-0.171093 0.051152,-0.07232 0.141108,-0.111123 0.09172,-0.0388 0.2098982,-0.0388 0.1040671,0 0.1904958,0.0194 0.086429,0.0194 0.1569826,0.05115 l -0.049388,0.135816 q -0.065262,-0.02822 -0.1428718,-0.04762 -0.075846,-0.0194 -0.1587465,-0.0194 -0.118178,0 -0.1781489,0.05115 -0.059971,0.04939 -0.059971,0.132289 0,0.0635 0.026458,0.105831 0.026458,0.04233 0.086429,0.07585 0.059971,0.03351 0.1622742,0.07232 0.1111226,0.04057 0.1869681,0.08819 0.077609,0.04586 0.1164141,0.111123 0.040569,0.06526 0.040569,0.164038 z m 0.5979447,-0.626167 q 0.1217057,0 0.2081343,0.05292 0.088192,0.05292 0.1340526,0.149928 0.047624,0.09525 0.047624,0.224009 v 0.09348 h -0.647333 q 0.00353,0.16051 0.081137,0.245175 0.079373,0.0829 0.2204813,0.0829 0.089956,0 0.1587465,-0.01588 0.070554,-0.01764 0.1446357,-0.04939 v 0.135817 q -0.072318,0.03175 -0.1428719,0.04586 -0.070554,0.01588 -0.1675657,0.01588 -0.1340526,0 -0.2381198,-0.05468 -0.1023033,-0.05468 -0.1605103,-0.162274 -0.056443,-0.109359 -0.056443,-0.266341 0,-0.155219 0.051152,-0.266342 0.052916,-0.111122 0.1463996,-0.171093 0.095248,-0.05997 0.2204812,-0.05997 z m -0.00176,0.126997 q -0.1111226,0 -0.176385,0.07232 -0.063499,0.07055 -0.075846,0.197551 h 0.4815311 q -0.00176,-0.119942 -0.056443,-0.194023 -0.054679,-0.07585 -0.1728573,-0.07585 z m 0.9471859,0.726706 q 0.035277,0 0.072318,-0.0053 0.037041,-0.0071 0.059971,-0.01411 v 0.118178 q -0.024694,0.01235 -0.070554,0.0194 -0.04586,0.0088 -0.088192,0.0088 -0.074082,0 -0.1375803,-0.02469 -0.061735,-0.02646 -0.1005395,-0.08996 -0.038805,-0.0635 -0.038805,-0.178149 V 13.353535 H 7.1226127 v -0.07408 l 0.1358165,-0.06173 0.061735,-0.201079 h 0.09172 v 0.216953 h 0.2733967 v 0.119942 H 7.4118841 v 0.546794 q 0,0.08643 0.040569,0.128761 0.042332,0.04057 0.1075948,0.04057 z m 0.63675,0 q 0.035277,0 0.072318,-0.0053 0.037041,-0.0071 0.059971,-0.01411 v 0.118178 q -0.024694,0.01235 -0.070554,0.0194 -0.04586,0.0088 -0.088192,0.0088 -0.074082,0 -0.1375803,-0.02469 -0.061735,-0.02646 -0.1005394,-0.08996 -0.038805,-0.0635 -0.038805,-0.178149 V 13.353535 H 7.7593627 v -0.07408 l 0.1358164,-0.06173 0.061735,-0.201079 h 0.09172 v 0.216953 h 0.2733967 v 0.119942 H 8.0486341 v 0.546794 q 0,0.08643 0.040569,0.128761 0.042332,0.04057 0.1075949,0.04057 z M 8.5971916,12.87906 q 0.035277,0 0.061735,0.02469 0.028222,0.02293 0.028222,0.07408 0,0.04939 -0.028222,0.07408 -0.026458,0.02469 -0.061735,0.02469 -0.038805,0 -0.065263,-0.02469 -0.026458,-0.02469 -0.026458,-0.07408 0,-0.05115 0.026458,-0.07408 0.026458,-0.02469 0.065263,-0.02469 z m 0.075845,0.354533 v 0.945424 H 8.5178183 v -0.945424 z m 0.7549267,-0.01764 q 0.1693296,0 0.2557582,0.0829 0.086429,0.08114 0.086429,0.264577 v 0.615584 h -0.153455 v -0.605 q 0,-0.227537 -0.211662,-0.227537 -0.1569826,0 -0.2169535,0.08819 -0.059971,0.08819 -0.059971,0.253995 v 0.49035 H 8.9728905 v -0.945424 h 0.1252333 l 0.02293,0.128762 h 0.00882 q 0.04586,-0.07408 0.1269972,-0.109359 0.081137,-0.03704 0.1710935,-0.03704 z m 0.9701172,0 q 0.09348,0 0.167566,0.03528 0.07585,0.03528 0.128761,0.107595 h 0.0088 l 0.02117,-0.125234 h 0.123469 v 0.961299 q 0,0.202842 -0.104067,0.305146 -0.102303,0.102303 -0.319257,0.102303 -0.208134,0 -0.340423,-0.05997 v -0.142872 q 0.139344,0.07408 0.349242,0.07408 0.121706,0 0.190496,-0.07232 0.07055,-0.07055 0.07055,-0.194023 v -0.03704 q 0,-0.02117 0.0018,-0.05997 0.0018,-0.04057 0.0035,-0.05644 h -0.0071 q -0.09525,0.142872 -0.292799,0.142872 -0.18344,0 -0.287507,-0.128761 -0.102304,-0.128762 -0.102304,-0.359826 0,-0.225773 0.102304,-0.358061 0.104067,-0.134053 0.285743,-0.134053 z m 0.02117,0.130525 q -0.118177,0 -0.18344,0.09525 -0.06526,0.09348 -0.06526,0.268105 0,0.174621 0.0635,0.268105 0.06526,0.09172 0.188732,0.09172 0.142872,0 0.208134,-0.07585 0.06526,-0.07761 0.06526,-0.248703 v -0.03704 q 0,-0.194023 -0.06703,-0.276924 -0.06703,-0.08467 -0.209899,-0.08467 z m 1.344054,0.571487 q 0,0.137581 -0.102304,0.208135 -0.102303,0.07055 -0.27516,0.07055 -0.09878,0 -0.171094,-0.01588 -0.07055,-0.01587 -0.125233,-0.0441 v -0.141108 q 0.05644,0.02822 0.135817,0.05291 0.08114,0.02293 0.164038,0.02293 0.118178,0 0.171093,-0.03704 0.05292,-0.0388 0.05292,-0.102303 0,-0.03528 -0.0194,-0.0635 -0.0194,-0.02822 -0.07055,-0.05644 -0.04939,-0.02822 -0.142872,-0.0635 -0.09172,-0.03528 -0.156982,-0.07055 -0.06526,-0.03528 -0.10054,-0.08466 -0.03528,-0.04939 -0.03528,-0.126997 0,-0.119942 0.09701,-0.185205 0.09878,-0.06526 0.257522,-0.06526 0.08643,0 0.16051,0.01764 0.07585,0.01587 0.141108,0.04586 l -0.05292,0.123469 q -0.05997,-0.02469 -0.125233,-0.04233 -0.06526,-0.01764 -0.134053,-0.01764 -0.09525,0 -0.1464,0.03175 -0.04939,0.02999 -0.04939,0.0829 0,0.0388 0.02293,0.06703 0.02293,0.02646 0.07585,0.05292 0.05468,0.02469 0.144636,0.05997 0.08996,0.03351 0.153455,0.06879 0.0635,0.03528 0.09701,0.08643 0.03351,0.04939 0.03351,0.125233 z"
     id="text2284"
     style="font-size:1.76385px;fill:#999999;stroke-width:0.529156"
     aria-label="Settings" />
  <text
     xml:space="preserve"
     transform="scale(0.26457812)"
     id="text3806"
     style="fill:#999999;stroke-width:2;font-size:6.66666667px;white-space:pre;shape-inside:url(#rect3808)" />
</svg>
