<?xml version="1.0" encoding="UTF-8" standalone="no"?>
<svg
   width="64"
   height="64"
   version="1.1"
   viewBox="0 0 16.933 16.933"
   id="svg7"
   sodipodi:docname="Multimedia Template.svg"
   inkscape:version="1.4 (e7c3feb100, 2024-10-09)"
   xmlns:inkscape="http://www.inkscape.org/namespaces/inkscape"
   xmlns:sodipodi="http://sodipodi.sourceforge.net/DTD/sodipodi-0.dtd"
   xmlns:xlink="http://www.w3.org/1999/xlink"
   xmlns="http://www.w3.org/2000/svg"
   xmlns:svg="http://www.w3.org/2000/svg"
   xmlns:rdf="http://www.w3.org/1999/02/22-rdf-syntax-ns#"
   xmlns:cc="http://creativecommons.org/ns#"
   xmlns:dc="http://purl.org/dc/elements/1.1/">
  <sodipodi:namedview
     id="namedview7"
     pagecolor="#9c4444"
     bordercolor="#000000"
     borderopacity="0.25"
     inkscape:showpageshadow="2"
     inkscape:pageopacity="0.0"
     inkscape:pagecheckerboard="0"
     inkscape:deskcolor="#d1d1d1"
     inkscape:zoom="6.15625"
     inkscape:cx="15.675127"
     inkscape:cy="29.807107"
     inkscape:window-width="1183"
     inkscape:window-height="973"
     inkscape:window-x="35"
     inkscape:window-y="32"
     inkscape:window-maximized="0"
     inkscape:current-layer="svg7"
     showgrid="false" />
  <defs
     id="defs2">
    <rect
       x="67.489848"
       y="35.60533"
       width="15.337563"
       height="22.51269"
       id="rect3808" />
    <linearGradient
       inkscape:collect="always"
       id="linearGradient1134">
      <stop
         style="stop-color:#161616;stop-opacity:1;"
         offset="0"
         id="stop1130" />
      <stop
         style="stop-color:#404040;stop-opacity:1;"
         offset="1"
         id="stop1132" />
    </linearGradient>
    <linearGradient
       inkscape:collect="always"
       id="linearGradient883">
      <stop
         style="stop-color:#808080;stop-opacity:1;"
         offset="0"
         id="stop879" />
      <stop
         style="stop-color:#3e3e3e;stop-opacity:1;"
         offset="0.5"
         id="stop1216" />
      <stop
         style="stop-color:#242424;stop-opacity:1;"
         offset="1"
         id="stop881" />
    </linearGradient>
    <linearGradient
       inkscape:collect="always"
       xlink:href="#linearGradient883"
       id="linearGradient885"
       x1="2.1085808"
       y1="2.0236168"
       x2="14.846128"
       y2="15.071845"
       gradientUnits="userSpaceOnUse" />
    <linearGradient
       inkscape:collect="always"
       xlink:href="#linearGradient1134"
       id="linearGradient1136"
       x1="14.971222"
       y1="14.703373"
       x2="2.0756054"
       y2="2.0069976"
       gradientUnits="userSpaceOnUse" />
    <filter
       style="color-interpolation-filters:sRGB;"
       inkscape:label="Blur"
       id="filter1283"
       x="-0.082344266"
       y="-0.082344266"
       width="1.1646885"
       height="1.1646885">
      <feGaussianBlur
         stdDeviation="0.5 0.5"
         result="blur"
         id="feGaussianBlur1281" />
    </filter>
    <filter
       style="color-interpolation-filters:sRGB;"
       inkscape:label="Blur"
       id="filter1694"
       x="-0.94955398"
       y="-0.2118907"
       width="2.899108"
       height="1.4237814">
      <feGaussianBlur
         stdDeviation="0.2 0.2"
         result="blur"
         id="feGaussianBlur1692" />
    </filter>
    <filter
       style="color-interpolation-filters:sRGB;"
       inkscape:label="Blur"
       id="filter3148"
       x="-0.94955398"
       y="-0.2118907"
       width="2.899108"
       height="1.4237814">
      <feGaussianBlur
         stdDeviation="0.2 0.2"
         result="blur"
         id="feGaussianBlur3146" />
    </filter>
    <clipPath
       clipPathUnits="userSpaceOnUse"
       id="clipPath44">
      <path
         id="path46"
         style="display:block;opacity:0.85;fill:#f2f2f2;stroke-width:4.39162"
         d="m 17.570312,8.4453125 a 6.5431988,7.4283052 9.9958727e-8 0 0 -6.535156,7.4394535 6.5431988,7.4283052 9.9958727e-8 0 0 6.552735,7.417968 6.5431988,7.4283052 9.9958727e-8 0 0 6.535156,-7.4375 6.5431988,7.4283052 9.9958727e-8 0 0 -6.552735,-7.4199215 z M 45.646484,41.177734 a 6.5431986,7.0703472 2.4665357e-6 0 0 -6.533203,7.080078 6.5431986,7.0703472 2.4665357e-6 0 0 6.550781,7.060547 6.5431986,7.0703472 2.4665357e-6 0 0 6.535157,-7.080078 6.5431986,7.0703472 2.4665357e-6 0 0 -6.552735,-7.060547 z" />
    </clipPath>
    <inkscape:path-effect
       effect="powerclip"
       id="path-effect48"
       is_visible="true"
       lpeversion="1"
       inverse="true"
       flatten="false"
       hide_clip="false"
       message="" />
  </defs>
  <metadata
     id="metadata2">
    <rdf:RDF>
      <cc:Work
         rdf:about="">
        <dc:format>image/svg+xml</dc:format>
        <dc:type
           rdf:resource="http://purl.org/dc/dcmitype/StillImage" />
      </cc:Work>
    </rdf:RDF>
  </metadata>
  <rect
     style="fill:#000000;stroke:none;stroke-width:0.539739;stroke-dasharray:none;filter:url(#filter1283)"
     id="rect246-1"
     width="14.572964"
     height="14.572964"
     x="1.1932471"
     y="1.2138842"
     rx="2.1589575"
     ry="2.1589575" />
  <rect
     style="opacity:1;fill:#000000;stroke:url(#linearGradient885);stroke-width:0.52915625;stroke-dasharray:none"
     id="rect246"
     width="14.287219"
     height="14.287219"
     x="1.3361193"
     y="1.3567564"
     rx="2.1166251"
     ry="2.1166251" />
  <rect
     style="fill:url(#linearGradient1136);fill-opacity:1;stroke:none;stroke-width:0.478315;stroke-dasharray:none"
     id="rect246-5"
     width="12.914515"
     height="12.914515"
     x="2.0224717"
     y="2.0431087"
     rx="1.5874687"
     ry="1.5874687" />
  <path
     style="fill:#999999;stroke-width:0.0138466"
     d="m 7.247737,11.513676 c 0,-0.0051 0.1266966,-0.19873 0.2815481,-0.430122 l 0.2815483,-0.420711 0.101542,0.02365 c 0.4375064,0.101917 1.0394678,0.101917 1.4769744,0 l 0.101542,-0.02365 0.2815475,0.420711 c 0.1548514,0.231392 0.2815497,0.424946 0.2815497,0.430122 0,0.0051 -0.6314075,0.0094 -1.4031265,0.0094 -0.7717191,0 -1.4031255,-0.0042 -1.4031255,-0.0094 z M 8.5031651,10.383277 C 8.0724007,10.367394 7.5670143,10.224252 7.1866216,10.010388 6.8105322,9.7989433 6.4635238,9.4908371 6.2281683,9.1593818 6.1163817,9.00195 5.9222876,8.6433841 5.8911758,8.536828 L 5.8790478,8.49529 h 2.7718147 2.7718165 l -0.01213,0.041538 c -0.0067,0.022846 -0.05729,0.1329272 -0.112487,0.244623 -0.506204,1.0243827 -1.5911813,1.646212 -2.7948979,1.601826 z M 8.0818664,8.0926248 c 0.00888,-0.05032 0.5583425,-1.4618355 0.5689961,-1.461704 0.010784,1.377e-4 0.5602508,1.411355 0.5689957,1.4613784 0.00562,0.032089 -0.022311,0.033745 -0.5689957,0.033745 -0.5446582,0 -0.5745853,-0.00176 -0.5689961,-0.033419 z M 7.328316,6.387472 C 7.275299,6.3618 7.24009,6.291446 7.242243,6.2154863 c 0.00234,-0.082672 0.085888,-0.1852475 0.2730309,-0.335226 0.6666419,-0.534255 1.6045358,-0.534255 2.2711778,0 0.1871433,0.1499785 0.2706863,0.2525541 0.2730313,0.335226 0.0032,0.1156219 -0.070407,0.1935748 -0.1829674,0.1935748 -0.065327,0 -0.097097,-0.020389 -0.2215852,-0.1422009 C 9.0904178,5.7144848 8.1966946,5.7177529 7.6388653,6.2742329 7.5848997,6.328068 7.5252131,6.3804279 7.5062284,6.3905882 7.4627933,6.4138338 7.3797544,6.4123796 7.328316,6.387472 Z M 6.5509995,5.7161852 C 6.4910477,5.6741932 6.4676455,5.5698163 6.5005339,5.4911026 6.5355965,5.4071867 6.8084871,5.1389641 7.0169597,4.9835118 7.1965711,4.8495799 7.4934344,4.6870336 7.7000602,4.6094821 8.6390065,4.2570745 9.6537974,4.4455594 10.455176,5.1212109 c 0.168211,0.1418191 0.32638,0.3151562 0.354092,0.3880456 0.02401,0.063173 -0.0062,0.1703359 -0.05854,0.2069287 -0.02218,0.015531 -0.07543,0.028238 -0.118337,0.028238 -0.07456,0 -0.08698,-0.0089 -0.279401,-0.200317 C 9.9721476,5.165273 9.5390554,4.9325068 9.0572082,4.8476855 8.8539658,4.8119084 8.4466742,4.8120236 8.2446946,4.8479189 7.7610447,4.9338655 7.3297107,5.1659085 6.9471432,5.545957 6.7563956,5.7354487 6.7438302,5.7444254 6.6693368,5.7444254 c -0.042913,0 -0.096164,-0.012707 -0.1183373,-0.028237 z M 5.6898374,5.055924 C 5.5858428,4.9519295 5.6017486,4.8666282 5.7586865,4.6866904 6.2442055,4.1300144 7.002897,3.6798653 7.7579164,3.5005008 8.36941,3.3552331 9.1070298,3.3694647 9.6939762,3.5378565 c 0.7219898,0.2071344 1.4043198,0.6327309 1.8580318,1.1589301 0.14783,0.1714465 0.162083,0.2569344 0.05989,0.3591377 -0.03972,0.03971 -0.059,0.045435 -0.127161,0.037751 -0.07452,-0.0084 -0.09755,-0.026522 -0.317069,-0.2495189 C 10.82641,4.497511 10.472476,4.2477193 10.076575,4.0741206 8.9032587,3.5596334 7.5708032,3.7128012 6.5332695,4.4814282 6.4540563,4.540111 6.2782533,4.699871 6.1425961,4.8364504 5.9145955,5.0660007 5.8899239,5.0854557 5.816296,5.0937546 5.748919,5.1013546 5.729433,5.0955146 5.6898374,5.055924 Z"
     id="path1" />
  <g
     aria-label="Krita"
     id="text1450"
     style="font-size:1.76385px;opacity:1;fill:#ff7f2a;stroke-width:0.529156">
    <rect
       style="font-size:1.76385px;fill:#ff7f2a;fill-opacity:1;stroke:none;stroke-width:0.519976;stroke-dasharray:none;filter:url(#filter3148)"
       id="rect1656-3"
       width="0.5055005"
       height="2.2653189"
       x="15.369148"
       y="4.3016486"
       rx="0"
       ry="0" />
    <rect
       style="opacity:1;fill:#ff7f2a;fill-opacity:1;stroke:none;stroke-width:0.519976;stroke-dasharray:none"
       id="rect1656"
       width="0.5055005"
       height="2.2653189"
       x="15.369148"
       y="4.3016486"
       rx="0"
       ry="0" />
  </g>
  <path
     style="font-size:1.76385px;text-align:center;text-anchor:middle;fill:#999999;stroke-width:0.529156"
     d="m 4.9698367,12.919628 q 0.246939,0 0.3598254,0.09701 0.1128864,0.09701 0.1128864,0.273397 0,0.104067 -0.047624,0.195787 -0.04586,0.08996 -0.1569826,0.1464 -0.1093587,0.05644 -0.2980907,0.05644 H 4.7952155 v 0.49035 H 4.6364691 v -1.259389 z m -0.014111,0.135817 H 4.7952155 v 0.497405 h 0.1269972 q 0.1799127,0 0.2681052,-0.05821 0.088192,-0.05821 0.088192,-0.197551 0,-0.121706 -0.077609,-0.181676 -0.077609,-0.05997 -0.2451751,-0.05997 z m 1.0847669,0.162274 q 0.1728573,0 0.2557583,0.07584 0.082901,0.07585 0.082901,0.241648 v 0.643805 H 6.2662656 l -0.029985,-0.134053 h -0.00706 q -0.061735,0.07761 -0.1305249,0.114651 -0.067026,0.03704 -0.1869681,0.03704 -0.1287611,0 -0.2134259,-0.06703 -0.084665,-0.06879 -0.084665,-0.213426 0,-0.141108 0.1111226,-0.216953 0.1111225,-0.07761 0.3421869,-0.08466 l 0.1605103,-0.0053 v -0.05644 q 0,-0.118178 -0.051152,-0.164038 -0.051152,-0.04586 -0.1446357,-0.04586 -0.074082,0 -0.141108,0.02293 -0.067026,0.02117 -0.1252334,0.04939 l -0.047624,-0.116414 q 0.061735,-0.03351 0.1463995,-0.05644 0.084665,-0.02469 0.176385,-0.02469 z m 0.04586,0.504461 q -0.176385,0.0071 -0.2451751,0.05644 -0.067026,0.04939 -0.067026,0.139344 0,0.07937 0.047624,0.116414 0.049388,0.03704 0.1252334,0.03704 0.1199418,0 0.199315,-0.06526 0.079373,-0.06703 0.079373,-0.204607 v -0.08466 z M 7.112915,13.215955 q 0.026458,0 0.056443,0.0035 0.031749,0.0018 0.054679,0.0071 l -0.019402,0.142872 q -0.02293,-0.0053 -0.051152,-0.0088 -0.026458,-0.0035 -0.051152,-0.0035 -0.072318,0 -0.1358164,0.04057 -0.063499,0.0388 -0.1023033,0.111122 -0.037041,0.07055 -0.037041,0.165802 v 0.504461 H 6.6719525 v -0.945424 h 0.1269972 l 0.017639,0.172858 h 0.00706 q 0.04586,-0.07761 0.118178,-0.134053 0.072318,-0.05644 0.1710934,-0.05644 z m 0.6102916,0.0018 q 0.1728573,0 0.2557582,0.07584 0.082901,0.07585 0.082901,0.241648 v 0.643805 H 7.9489794 l -0.029985,-0.134053 h -0.00706 q -0.061735,0.07761 -0.1305249,0.114651 -0.067026,0.03704 -0.1869681,0.03704 -0.128761,0 -0.2134258,-0.06703 -0.084665,-0.06879 -0.084665,-0.213426 0,-0.141108 0.1111225,-0.216953 0.1111226,-0.07761 0.3421869,-0.08466 l 0.1605104,-0.0053 v -0.05644 q 0,-0.118178 -0.051152,-0.164038 -0.051152,-0.04586 -0.1446357,-0.04586 -0.074082,0 -0.141108,0.02293 -0.067026,0.02117 -0.1252333,0.04939 L 7.400422,13.298856 q 0.061735,-0.03351 0.1463996,-0.05644 0.084665,-0.02469 0.176385,-0.02469 z m 0.04586,0.504461 q -0.176385,0.0071 -0.2451752,0.05644 -0.067026,0.04939 -0.067026,0.139344 0,0.07937 0.047624,0.116414 0.049388,0.03704 0.1252333,0.03704 0.1199418,0 0.1993151,-0.06526 0.079373,-0.06703 0.079373,-0.204607 v -0.08466 z m 0.7408184,-0.557377 q 0,0.05997 -0.00353,0.112887 -0.00176,0.05115 -0.00529,0.08114 h 0.00882 q 0.040569,-0.05997 0.1111225,-0.10054 0.070554,-0.04057 0.1816766,-0.04057 0.176385,0 0.282216,0.123469 0.1075948,0.121706 0.1075948,0.365117 0,0.243412 -0.1075948,0.366881 -0.1075949,0.12347 -0.282216,0.12347 -0.1111226,0 -0.1816766,-0.04057 -0.070554,-0.04057 -0.1111225,-0.09701 h -0.012347 l -0.031749,0.119942 H 8.3546663 v -1.340526 h 0.1552188 z m 0.2663413,0.181677 q -0.1499272,0 -0.2081343,0.08643 -0.058207,0.08643 -0.058207,0.268105 v 0.0071 q 0,0.174621 0.056443,0.268105 0.058207,0.09172 0.2134258,0.09172 0.1269972,0 0.188732,-0.09348 0.063499,-0.09348 0.063499,-0.269869 0,-0.358061 -0.2557583,-0.358061 z m 1.4851606,0.358061 q 0,0.234592 -0.119941,0.363354 -0.118178,0.128761 -0.321021,0.128761 -0.1252334,0 -0.224009,-0.05644 -0.097012,-0.05821 -0.1534549,-0.167565 -0.056443,-0.111123 -0.056443,-0.268106 0,-0.234592 0.1181779,-0.361589 0.118178,-0.126997 0.3210207,-0.126997 0.1287611,0 0.2257725,0.05821 0.09878,0.05644 0.153455,0.165802 0.05644,0.107595 0.05644,0.264577 z m -0.7143588,0 q 0,0.167566 0.065263,0.266342 0.067026,0.09701 0.211662,0.09701 0.1428718,0 0.2098983,-0.09701 0.06703,-0.09878 0.06703,-0.266342 0,-0.167565 -0.06703,-0.262813 -0.067027,-0.09525 -0.2116622,-0.09525 -0.1446357,0 -0.2098981,0.09525 -0.065263,0.09525 -0.065263,0.262813 z m 1.1147528,0.474476 h -0.155219 v -1.340526 h 0.155219 z m 0.379227,-1.299957 q 0.03528,0 0.06173,0.02469 0.02822,0.02293 0.02822,0.07408 0,0.04939 -0.02822,0.07408 -0.02646,0.02469 -0.06173,0.02469 -0.0388,0 -0.06526,-0.02469 -0.02646,-0.02469 -0.02646,-0.07408 0,-0.05115 0.02646,-0.07408 0.02646,-0.02469 0.06526,-0.02469 z m 0.07585,0.354533 v 0.945424 h -0.155219 v -0.945424 z m 0.679081,0.963063 q -0.125233,0 -0.224009,-0.05115 -0.09701,-0.05115 -0.153455,-0.158747 -0.05468,-0.107594 -0.05468,-0.27516 0,-0.174621 0.05821,-0.28398 0.05821,-0.109359 0.156983,-0.16051 0.100539,-0.05115 0.227536,-0.05115 0.07232,0 0.139344,0.01588 0.06703,0.01411 0.109359,0.03528 l -0.04762,0.128761 q -0.04233,-0.01587 -0.09877,-0.02999 -0.05644,-0.01411 -0.105831,-0.01411 -0.278689,0 -0.278689,0.358062 0,0.171093 0.06703,0.262814 0.06879,0.08996 0.202842,0.08996 0.07761,0 0.135817,-0.01587 0.05997,-0.01587 0.109358,-0.0388 v 0.13758 q -0.04762,0.02469 -0.105831,0.03704 -0.05644,0.01411 -0.13758,0.01411 z"
     id="text2284"
     aria-label="Parabolic" />
  <text
     xml:space="preserve"
     transform="scale(0.26457812)"
     id="text3806"
     style="font-size:6.66667px;white-space:pre;shape-inside:url(#rect3808);display:inline;fill:#999999;stroke-width:2" />
</svg>
