<?xml version="1.0" encoding="UTF-8" standalone="no"?>
<svg
   width="64"
   height="64"
   version="1.1"
   viewBox="0 0 16.933 16.933"
   id="svg7"
   sodipodi:docname="org.videolan.VLC.svg"
   inkscape:version="1.4 (e7c3feb100, 2024-10-09)"
   xmlns:inkscape="http://www.inkscape.org/namespaces/inkscape"
   xmlns:sodipodi="http://sodipodi.sourceforge.net/DTD/sodipodi-0.dtd"
   xmlns:xlink="http://www.w3.org/1999/xlink"
   xmlns="http://www.w3.org/2000/svg"
   xmlns:svg="http://www.w3.org/2000/svg"
   xmlns:rdf="http://www.w3.org/1999/02/22-rdf-syntax-ns#"
   xmlns:cc="http://creativecommons.org/ns#"
   xmlns:dc="http://purl.org/dc/elements/1.1/">
  <sodipodi:namedview
     id="namedview7"
     pagecolor="#9c4444"
     bordercolor="#000000"
     borderopacity="0.25"
     inkscape:showpageshadow="2"
     inkscape:pageopacity="0.0"
     inkscape:pagecheckerboard="0"
     inkscape:deskcolor="#d1d1d1"
     inkscape:zoom="4.3531261"
     inkscape:cx="16.195258"
     inkscape:cy="52.261293"
     inkscape:window-width="1183"
     inkscape:window-height="973"
     inkscape:window-x="35"
     inkscape:window-y="32"
     inkscape:window-maximized="0"
     inkscape:current-layer="svg7"
     showgrid="false" />
  <defs
     id="defs2">
    <rect
       x="67.489848"
       y="35.60533"
       width="15.337563"
       height="22.51269"
       id="rect3808" />
    <linearGradient
       inkscape:collect="always"
       id="linearGradient1134">
      <stop
         style="stop-color:#161616;stop-opacity:1;"
         offset="0"
         id="stop1130" />
      <stop
         style="stop-color:#404040;stop-opacity:1;"
         offset="1"
         id="stop1132" />
    </linearGradient>
    <linearGradient
       inkscape:collect="always"
       id="linearGradient883">
      <stop
         style="stop-color:#808080;stop-opacity:1;"
         offset="0"
         id="stop879" />
      <stop
         style="stop-color:#3e3e3e;stop-opacity:1;"
         offset="0.5"
         id="stop1216" />
      <stop
         style="stop-color:#242424;stop-opacity:1;"
         offset="1"
         id="stop881" />
    </linearGradient>
    <linearGradient
       inkscape:collect="always"
       xlink:href="#linearGradient883"
       id="linearGradient885"
       x1="2.1085808"
       y1="2.0236168"
       x2="14.846128"
       y2="15.071845"
       gradientUnits="userSpaceOnUse" />
    <linearGradient
       inkscape:collect="always"
       xlink:href="#linearGradient1134"
       id="linearGradient1136"
       x1="14.971222"
       y1="14.703373"
       x2="2.0756054"
       y2="2.0069976"
       gradientUnits="userSpaceOnUse" />
    <filter
       style="color-interpolation-filters:sRGB;"
       inkscape:label="Blur"
       id="filter1283"
       x="-0.082344266"
       y="-0.082344266"
       width="1.1646885"
       height="1.1646885">
      <feGaussianBlur
         stdDeviation="0.5 0.5"
         result="blur"
         id="feGaussianBlur1281" />
    </filter>
    <filter
       style="color-interpolation-filters:sRGB;"
       inkscape:label="Blur"
       id="filter3148"
       x="-0.94955398"
       y="-0.2118907"
       width="2.899108"
       height="1.4237814">
      <feGaussianBlur
         stdDeviation="0.2 0.2"
         result="blur"
         id="feGaussianBlur3146" />
    </filter>
  </defs>
  <metadata
     id="metadata2">
    <rdf:RDF>
      <cc:Work
         rdf:about="">
        <dc:format>image/svg+xml</dc:format>
        <dc:type
           rdf:resource="http://purl.org/dc/dcmitype/StillImage" />
      </cc:Work>
    </rdf:RDF>
  </metadata>
  <rect
     style="fill:#000000;stroke:none;stroke-width:0.539739;stroke-dasharray:none;filter:url(#filter1283)"
     id="rect246-1"
     width="14.572964"
     height="14.572964"
     x="1.1932471"
     y="1.2138842"
     rx="2.1589575"
     ry="2.1589575" />
  <rect
     style="opacity:1;fill:#000000;stroke:url(#linearGradient885);stroke-width:0.52915625;stroke-dasharray:none"
     id="rect246"
     width="14.287219"
     height="14.287219"
     x="1.3361193"
     y="1.3567564"
     rx="2.1166251"
     ry="2.1166251" />
  <rect
     style="fill:url(#linearGradient1136);fill-opacity:1;stroke:none;stroke-width:0.478315;stroke-dasharray:none"
     id="rect246-5"
     width="12.914515"
     height="12.914515"
     x="2.0224717"
     y="2.0431087"
     rx="1.5874687"
     ry="1.5874687" />
  <path
     id="path1-2"
     style="fill:#999999;fill-opacity:1;stroke:none;stroke-width:0.246605;stroke-dasharray:none;stroke-dashoffset:2.2;stroke-opacity:0.3"
     d="M 8.3905703,3.7273775 C 8.1851092,3.7294349 7.9827772,3.7867125 7.8949538,3.8983628 7.8646606,3.9368742 7.7482573,4.2445139 7.6358267,4.5818219 L 7.4311264,5.1949608 7.5443132,5.2956256 C 7.663918,5.4017252 7.8548763,5.4826168 8.081833,5.5239269 8.2990084,5.5634567 8.7402844,5.5342553 8.9396498,5.4670919 9.1564238,5.394066 9.333327,5.2797002 9.3533857,5.1997782 9.3733524,5.1202307 8.980461,3.9710039 8.9049711,3.8882483 8.8048262,3.7784646 8.5960312,3.7253378 8.3905703,3.7273775 Z M 7.0506236,6.3412844 6.8810831,6.8316034 C 6.5709853,7.7271582 6.5776496,7.6803454 6.7365888,7.8613682 6.9846252,8.143866 7.4596619,8.3272198 8.08665,8.3825114 8.8716131,8.4517349 9.6824999,8.2566536 10.022878,7.9162756 10.222569,7.7165852 10.222602,7.7145368 10.004575,7.0560511 9.8983061,6.7350983 9.8001605,6.4430073 9.7868709,6.4072706 9.7629135,6.3428557 9.7618767,6.3430862 9.6746449,6.4424309 9.5615953,6.5711921 9.2400181,6.7281313 8.9690337,6.78681 8.651896,6.8554815 8.1137296,6.849085 7.7971829,6.7728402 7.4999276,6.7012437 7.2395564,6.5705056 7.1296179,6.4371312 Z M 6.3633109,8.2259757 c 0,-0.00364 -0.3537425,0.1450301 -0.7860503,0.3304109 -0.6792809,0.2912874 -0.8007311,0.352956 -0.8953854,0.45323 -0.096682,0.1024246 -0.1074777,0.127746 -0.092958,0.2172243 0.00975,0.06007 0.053797,0.1402085 0.1083707,0.1965133 0.053442,0.055145 0.704891,0.443817 1.5518723,0.9262088 1.7094038,0.97358 1.5462348,0.885678 1.7344167,0.936327 0.2421886,0.06519 0.6804684,0.05485 0.903573,-0.02118 0.1072679,-0.03657 0.8309882,-0.431701 1.6954041,-0.92573 1.573126,-0.8990679 1.643867,-0.9474905 1.643867,-1.1270578 0,-0.1016672 -0.07424,-0.2216429 -0.176284,-0.2846552 -0.0829,-0.051184 -1.608226,-0.7163095 -1.608226,-0.7012791 0,0.00338 0.03763,0.1167208 0.08333,0.2519025 0.06454,0.1909494 0.0775,0.2648319 0.05828,0.3318553 C 10.425722,9.359949 9.4414065,9.7222315 8.2224782,9.6786365 7.283567,9.6450539 6.5249341,9.3638605 6.2896212,8.9624179 6.2034425,8.8153956 6.2040363,8.7009215 6.2925129,8.4407936 6.3314601,8.3262856 6.3633158,8.2296304 6.3633158,8.225978 Z" />
  <g
     aria-label="Krita"
     id="text1450"
     style="font-size:1.76385px;opacity:1;fill:#ff7f2a;stroke-width:0.529156">
    <rect
       style="font-size:1.76385px;fill:#ff7f2a;fill-opacity:1;stroke:none;stroke-width:0.519976;stroke-dasharray:none;filter:url(#filter3148)"
       id="rect1656-3"
       width="0.5055005"
       height="2.2653189"
       x="15.369148"
       y="4.3016486"
       rx="0"
       ry="0" />
    <rect
       style="opacity:1;fill:#ff7f2a;fill-opacity:1;stroke:none;stroke-width:0.519976;stroke-dasharray:none"
       id="rect1656"
       width="0.5055005"
       height="2.2653189"
       x="15.369148"
       y="4.3016486"
       rx="0"
       ry="0" />
  </g>
  <g
     aria-label="Amberol"
     id="text2284"
     style="font-size:1.76385px;opacity:1;fill:#999999;stroke-width:0.529156">
    <g
       aria-label="VLC"
       id="text386"
       style="text-align:center;text-anchor:middle">
      <path
         d="M 7.9968621,12.906981 7.5470804,14.166369 H 7.3883339 L 6.9385521,12.906981 H 7.104354 l 0.2839799,0.807843 q 0.028222,0.07761 0.047624,0.146399 0.019402,0.06703 0.031749,0.128761 0.012347,-0.06173 0.031749,-0.130524 0.019402,-0.06879 0.047624,-0.148164 l 0.282216,-0.804315 z"
         id="path723" />
      <path
         d="m 8.1679562,14.166369 v -1.259388 h 0.1587465 v 1.11828 h 0.5503212 v 0.141108 z"
         id="path725" />
      <path
         d="m 9.5966741,13.028686 q -0.2028427,0 -0.3192568,0.135817 -0.1164141,0.135816 -0.1164141,0.372172 0,0.234592 0.1075948,0.372172 0.1093587,0.135817 0.3263123,0.135817 0.082901,0 0.1569826,-0.01411 0.074082,-0.01411 0.1446357,-0.03528 v 0.13758 q -0.070554,0.02646 -0.1463995,0.0388 -0.074082,0.01235 -0.1781489,0.01235 -0.1922596,0 -0.3210207,-0.07937 -0.128761,-0.07937 -0.1940235,-0.225773 -0.063499,-0.1464 -0.063499,-0.343951 0,-0.190496 0.06879,-0.335131 0.070554,-0.1464 0.2063704,-0.227537 0.1358165,-0.0829 0.32984,-0.0829 0.199315,0 0.3474784,0.07408 l -0.063499,0.134052 q -0.058207,-0.02646 -0.1305249,-0.04762 -0.070554,-0.02117 -0.1552188,-0.02117 z"
         id="path727" />
    </g>
  </g>
  <text
     xml:space="preserve"
     transform="scale(0.26457812)"
     id="text3806"
     style="font-size:6.66667px;white-space:pre;shape-inside:url(#rect3808);display:inline;fill:#999999;stroke-width:2" />
</svg>
