<?xml version="1.0" encoding="UTF-8" standalone="no"?>
<svg
   width="64"
   height="64"
   version="1.1"
   viewBox="0 0 16.933 16.933"
   id="svg7"
   sodipodi:docname="Multimedia Template.svg"
   inkscape:version="1.4 (e7c3feb100, 2024-10-09)"
   xmlns:inkscape="http://www.inkscape.org/namespaces/inkscape"
   xmlns:sodipodi="http://sodipodi.sourceforge.net/DTD/sodipodi-0.dtd"
   xmlns:xlink="http://www.w3.org/1999/xlink"
   xmlns="http://www.w3.org/2000/svg"
   xmlns:svg="http://www.w3.org/2000/svg"
   xmlns:rdf="http://www.w3.org/1999/02/22-rdf-syntax-ns#"
   xmlns:cc="http://creativecommons.org/ns#"
   xmlns:dc="http://purl.org/dc/elements/1.1/">
  <sodipodi:namedview
     id="namedview7"
     pagecolor="#9c4444"
     bordercolor="#000000"
     borderopacity="0.25"
     inkscape:showpageshadow="2"
     inkscape:pageopacity="0.0"
     inkscape:pagecheckerboard="0"
     inkscape:deskcolor="#d1d1d1"
     inkscape:zoom="6.15625"
     inkscape:cx="15.675127"
     inkscape:cy="29.807107"
     inkscape:window-width="1183"
     inkscape:window-height="973"
     inkscape:window-x="35"
     inkscape:window-y="32"
     inkscape:window-maximized="0"
     inkscape:current-layer="svg7"
     showgrid="false" />
  <defs
     id="defs2">
    <rect
       x="67.489848"
       y="35.60533"
       width="15.337563"
       height="22.51269"
       id="rect3808" />
    <linearGradient
       inkscape:collect="always"
       id="linearGradient1134">
      <stop
         style="stop-color:#161616;stop-opacity:1;"
         offset="0"
         id="stop1130" />
      <stop
         style="stop-color:#404040;stop-opacity:1;"
         offset="1"
         id="stop1132" />
    </linearGradient>
    <linearGradient
       inkscape:collect="always"
       id="linearGradient883">
      <stop
         style="stop-color:#808080;stop-opacity:1;"
         offset="0"
         id="stop879" />
      <stop
         style="stop-color:#3e3e3e;stop-opacity:1;"
         offset="0.5"
         id="stop1216" />
      <stop
         style="stop-color:#242424;stop-opacity:1;"
         offset="1"
         id="stop881" />
    </linearGradient>
    <linearGradient
       inkscape:collect="always"
       xlink:href="#linearGradient883"
       id="linearGradient885"
       x1="2.1085808"
       y1="2.0236168"
       x2="14.846128"
       y2="15.071845"
       gradientUnits="userSpaceOnUse" />
    <linearGradient
       inkscape:collect="always"
       xlink:href="#linearGradient1134"
       id="linearGradient1136"
       x1="14.971222"
       y1="14.703373"
       x2="2.0756054"
       y2="2.0069976"
       gradientUnits="userSpaceOnUse" />
    <filter
       style="color-interpolation-filters:sRGB;"
       inkscape:label="Blur"
       id="filter1283"
       x="-0.082344266"
       y="-0.082344266"
       width="1.1646885"
       height="1.1646885">
      <feGaussianBlur
         stdDeviation="0.5 0.5"
         result="blur"
         id="feGaussianBlur1281" />
    </filter>
    <filter
       style="color-interpolation-filters:sRGB;"
       inkscape:label="Blur"
       id="filter1694"
       x="-0.94955398"
       y="-0.2118907"
       width="2.899108"
       height="1.4237814">
      <feGaussianBlur
         stdDeviation="0.2 0.2"
         result="blur"
         id="feGaussianBlur1692" />
    </filter>
    <filter
       style="color-interpolation-filters:sRGB;"
       inkscape:label="Blur"
       id="filter3148"
       x="-0.94955398"
       y="-0.2118907"
       width="2.899108"
       height="1.4237814">
      <feGaussianBlur
         stdDeviation="0.2 0.2"
         result="blur"
         id="feGaussianBlur3146" />
    </filter>
    <clipPath
       clipPathUnits="userSpaceOnUse"
       id="clipPath44">
      <path
         id="path46"
         style="display:block;opacity:0.85;fill:#f2f2f2;stroke-width:4.39162"
         d="m 17.570312,8.4453125 a 6.5431988,7.4283052 9.9958727e-8 0 0 -6.535156,7.4394535 6.5431988,7.4283052 9.9958727e-8 0 0 6.552735,7.417968 6.5431988,7.4283052 9.9958727e-8 0 0 6.535156,-7.4375 6.5431988,7.4283052 9.9958727e-8 0 0 -6.552735,-7.4199215 z M 45.646484,41.177734 a 6.5431986,7.0703472 2.4665357e-6 0 0 -6.533203,7.080078 6.5431986,7.0703472 2.4665357e-6 0 0 6.550781,7.060547 6.5431986,7.0703472 2.4665357e-6 0 0 6.535157,-7.080078 6.5431986,7.0703472 2.4665357e-6 0 0 -6.552735,-7.060547 z" />
    </clipPath>
    <inkscape:path-effect
       effect="powerclip"
       id="path-effect48"
       is_visible="true"
       lpeversion="1"
       inverse="true"
       flatten="false"
       hide_clip="false"
       message="" />
  </defs>
  <metadata
     id="metadata2">
    <rdf:RDF>
      <cc:Work
         rdf:about="">
        <dc:format>image/svg+xml</dc:format>
        <dc:type
           rdf:resource="http://purl.org/dc/dcmitype/StillImage" />
      </cc:Work>
    </rdf:RDF>
  </metadata>
  <rect
     style="fill:#000000;stroke:none;stroke-width:0.539739;stroke-dasharray:none;filter:url(#filter1283)"
     id="rect246-1"
     width="14.572964"
     height="14.572964"
     x="1.1932471"
     y="1.2138842"
     rx="2.1589575"
     ry="2.1589575" />
  <rect
     style="opacity:1;fill:#000000;stroke:url(#linearGradient885);stroke-width:0.52915625;stroke-dasharray:none"
     id="rect246"
     width="14.287219"
     height="14.287219"
     x="1.3361193"
     y="1.3567564"
     rx="2.1166251"
     ry="2.1166251" />
  <rect
     style="fill:url(#linearGradient1136);fill-opacity:1;stroke:none;stroke-width:0.478315;stroke-dasharray:none"
     id="rect246-5"
     width="12.914515"
     height="12.914515"
     x="2.0224717"
     y="2.0431087"
     rx="1.5874687"
     ry="1.5874687" />
  <path
     d="m 9.7820943,9.7372039 c 0.04374,0.3612391 0.038362,0.7736891 -0.028115,1.1186121 -0.4013388,0.153974 -0.8356603,0.238513 -1.2883823,0.238513 -0.1845257,0 -0.3661005,-0.01406 -0.5435093,-0.04114 0.1765407,-0.278959 0.3228769,-0.628917 0.4190455,-0.962381 0.041315,0.0019 0.082802,0.0029 0.1244638,0.0029 0.4780662,0 0.9283578,-0.1301924 1.3165047,-0.3565534 z M 6.1216086,8.6557393 C 6.3672378,9.1320704 6.7541693,9.5257712 7.225639,9.7800811 6.9518881,9.9837016 6.5760664,10.191142 6.2125693,10.303975 5.7048195,9.900205 5.3059103,9.3645072 5.0696546,8.7508664 c 0.3348547,0.022563 0.7139747,-0.017357 1.051954,-0.095127 z m 4.9764694,-1.294979 c 0.314545,0.1362679 0.684465,0.3603721 0.96516,0.6205833 -0.09634,0.6592938 -0.372525,1.263559 -0.776815,1.7607211 -0.147551,-0.3008318 -0.371135,-0.6084318 -0.60687,-0.8618737 0.265593,-0.4107132 0.420434,-0.8985004 0.420434,-1.4196166 0,-0.033503 -6.56e-4,-0.066658 -0.0019,-0.099814 z M 9.4453305,7.5980573 7.7623784,8.6566076 c -0.065964,0.041137 -0.1201242,0.00569 -0.1201242,-0.097211 V 6.4856945 c 0,-0.1178674 0.052598,-0.1378302 0.1201242,-0.097384 l 1.6829521,1.0585503 c 0.074817,0.047216 0.071693,0.1058895 0,0.1511965 z m -3.612749,-0.05173 C 5.4946023,7.4097125 5.1345772,7.1991483 4.8644717,6.9641077 4.9583838,6.2891909 5.2408141,5.6710381 5.6560409,5.1651976 5.8039393,5.4653342 6.0271756,5.7718936 6.2623896,6.0246403 5.9900275,6.4388253 5.831193,6.9325144 5.831193,7.4605744 c 0,0.028643 5.155e-4,0.057285 0.0014,0.085753 z M 9.6923488,5.1341251 C 9.980508,4.911236 10.331332,4.7201138 10.6891,4.5940877 c 0.520249,0.4051584 0.929401,0.9476261 1.170343,1.5709866 -0.335029,-0.023261 -0.715016,0.01545 -1.054036,0.09235 C 10.557173,5.780226 10.167117,5.3866981 9.6923488,5.1341251 Z M 7.1562032,5.1799525 C 7.1244363,4.8365924 7.1379772,4.4118182 7.2209521,4.0488423 7.6099666,3.9052834 8.0293594,3.8268207 8.4655903,3.8268207 c 0.1845259,0 0.3661007,0.014062 0.543683,0.041141 -0.1767144,0.2787852 -0.323224,0.6289156 -0.4193929,0.9625549 -0.041314,-0.00191 -0.082629,-0.00295 -0.1242901,-0.00295 -0.4752888,0 -0.9228029,0.1284565 -1.3093871,0.352387 z"
     fill="#ff3859"
     fill-rule="nonzero"
     id="path3-5"
     style="fill:#999999;fill-opacity:1;stroke-width:0.173589" />
  <g
     aria-label="Krita"
     id="text1450"
     style="font-size:1.76385px;opacity:1;fill:#ff7f2a;stroke-width:0.529156">
    <rect
       style="font-size:1.76385px;fill:#ff7f2a;fill-opacity:1;stroke:none;stroke-width:0.519976;stroke-dasharray:none;filter:url(#filter3148)"
       id="rect1656-3"
       width="0.5055005"
       height="2.2653189"
       x="15.369148"
       y="4.3016486"
       rx="0"
       ry="0" />
    <rect
       style="opacity:1;fill:#ff7f2a;fill-opacity:1;stroke:none;stroke-width:0.519976;stroke-dasharray:none"
       id="rect1656"
       width="0.5055005"
       height="2.2653189"
       x="15.369148"
       y="4.3016486"
       rx="0"
       ry="0" />
  </g>
  <path
     style="font-size:1.76385px;text-align:center;text-anchor:middle;fill:#999999;stroke-width:0.529156"
     d="m 4.9416157,14.179017 v -1.259389 h 0.1587465 v 1.118281 h 0.5503212 v 0.141108 z m 1.7250456,-0.474476 q 0,0.234592 -0.1199418,0.363354 -0.118178,0.128761 -0.3210207,0.128761 -0.1252334,0 -0.224009,-0.05644 -0.097012,-0.05821 -0.1534549,-0.167565 -0.056443,-0.111123 -0.056443,-0.268106 0,-0.234592 0.1181779,-0.361589 0.118178,-0.126997 0.3210207,-0.126997 0.1287611,0 0.2257728,0.05821 0.098776,0.05644 0.153455,0.165802 0.056443,0.107595 0.056443,0.264577 z m -0.7143593,0 q 0,0.167566 0.065262,0.266342 0.067026,0.09701 0.211662,0.09701 0.1428718,0 0.2098981,-0.09701 0.067026,-0.09878 0.067026,-0.266342 0,-0.167565 -0.067026,-0.262813 -0.067026,-0.09525 -0.211662,-0.09525 -0.1446357,0 -0.2098981,0.09525 -0.065262,0.09525 -0.065262,0.262813 z m 1.1147525,0.474476 H 6.9118357 v -1.340526 h 0.1552188 z m 0.4550721,0 H 7.3669078 v -1.340526 h 0.1552188 z m 0.1516902,-0.945424 h 0.1658019 l 0.2046066,0.537975 q 0.026458,0.07055 0.047624,0.135816 0.021166,0.0635 0.031749,0.121706 h 0.00706 q 0.010583,-0.0441 0.033513,-0.11465 0.02293,-0.07232 0.047624,-0.144636 l 0.1922596,-0.536211 h 0.1675658 l -0.4074494,1.075949 q -0.049388,0.134053 -0.128761,0.213426 -0.077609,0.07937 -0.2151897,0.07937 -0.042332,0 -0.074082,-0.0053 -0.031749,-0.0035 -0.054679,-0.0088 v -0.123469 q 0.019402,0.0035 0.04586,0.0071 0.028222,0.0035 0.058207,0.0035 0.081137,0 0.1305249,-0.04586 0.051152,-0.04586 0.079373,-0.121706 l 0.049388,-0.125233 z m 1.497509,-0.01764 q 0.1746211,0 0.2804521,0.121706 0.1075949,0.121705 0.1075949,0.36688 0,0.241648 -0.1075949,0.366881 -0.105831,0.125234 -0.282216,0.125234 -0.1093587,0 -0.1816765,-0.04057 -0.070554,-0.04233 -0.1111226,-0.09701 h -0.010583 q 0.00353,0.02999 0.00706,0.07585 0.00353,0.04586 0.00353,0.07937 v 0.388047 H 8.721544 v -1.368748 h 0.1269972 l 0.021166,0.128762 h 0.00706 q 0.042332,-0.06174 0.1111226,-0.104068 0.06879,-0.04233 0.1834404,-0.04233 z m -0.028222,0.130525 q -0.1446357,0 -0.2046066,0.08114 -0.058207,0.08114 -0.061735,0.246939 v 0.02998 q 0,0.174622 0.056443,0.269869 0.058207,0.09348 0.2134259,0.09348 0.086429,0 0.141108,-0.04762 0.056443,-0.04762 0.082901,-0.128761 0.028222,-0.0829 0.028222,-0.188732 0,-0.162275 -0.063499,-0.259286 -0.061735,-0.09701 -0.1922596,-0.09701 z m 1.4851608,0.358061 q 0,0.234592 -0.119941,0.363354 -0.118178,0.128761 -0.321021,0.128761 -0.125233,0 -0.224009,-0.05644 -0.097012,-0.05821 -0.1534549,-0.167565 -0.056443,-0.111123 -0.056443,-0.268106 0,-0.234592 0.1181779,-0.361589 0.118178,-0.126997 0.3210212,-0.126997 0.128761,0 0.225772,0.05821 0.09878,0.05644 0.153455,0.165802 0.05644,0.107595 0.05644,0.264577 z m -0.7143588,0 q 0,0.167566 0.065263,0.266342 0.067026,0.09701 0.2116623,0.09701 0.142872,0 0.209898,-0.09701 0.06703,-0.09878 0.06703,-0.266342 0,-0.167565 -0.06703,-0.262813 -0.06703,-0.09525 -0.211662,-0.09525 -0.144636,0 -0.2098983,0.09525 -0.065263,0.09525 -0.065263,0.262813 z m 1.4093158,-0.488586 q 0.174621,0 0.280452,0.121706 0.107595,0.121705 0.107595,0.36688 0,0.241648 -0.107595,0.366881 -0.105831,0.125234 -0.282216,0.125234 -0.109359,0 -0.181677,-0.04057 -0.07055,-0.04233 -0.111122,-0.09701 h -0.01058 q 0.0035,0.02999 0.0071,0.07585 0.0035,0.04586 0.0035,0.07937 v 0.388047 H 10.87344 v -1.368748 h 0.126997 l 0.02117,0.128762 h 0.0071 q 0.04233,-0.06174 0.111122,-0.104068 0.06879,-0.04233 0.183441,-0.04233 z M 11.295,13.34648 q -0.144636,0 -0.204606,0.08114 -0.05821,0.08114 -0.06174,0.246939 v 0.02998 q 0,0.174622 0.05644,0.269869 0.05821,0.09348 0.213426,0.09348 0.08643,0 0.141108,-0.04762 0.05644,-0.04762 0.0829,-0.128761 0.02822,-0.0829 0.02822,-0.188732 0,-0.162275 -0.0635,-0.259286 -0.06173,-0.09701 -0.19226,-0.09701 z"
     id="text2284"
     aria-label="Lollypop" />
  <text
     xml:space="preserve"
     transform="scale(0.26457812)"
     id="text3806"
     style="font-size:6.66667px;white-space:pre;shape-inside:url(#rect3808);display:inline;fill:#999999;stroke-width:2" />
</svg>
