<?xml version="1.0" encoding="UTF-8" standalone="no"?>
<svg
   width="64"
   height="64"
   version="1.1"
   viewBox="0 0 16.933 16.933"
   id="svg7"
   sodipodi:docname="org.gnome.eog.svg"
   inkscape:version="1.4 (e7c3feb100, 2024-10-09)"
   xmlns:inkscape="http://www.inkscape.org/namespaces/inkscape"
   xmlns:sodipodi="http://sodipodi.sourceforge.net/DTD/sodipodi-0.dtd"
   xmlns:xlink="http://www.w3.org/1999/xlink"
   xmlns="http://www.w3.org/2000/svg"
   xmlns:svg="http://www.w3.org/2000/svg"
   xmlns:rdf="http://www.w3.org/1999/02/22-rdf-syntax-ns#"
   xmlns:cc="http://creativecommons.org/ns#"
   xmlns:dc="http://purl.org/dc/elements/1.1/">
  <sodipodi:namedview
     id="namedview7"
     pagecolor="#9c4444"
     bordercolor="#000000"
     borderopacity="0.25"
     inkscape:showpageshadow="2"
     inkscape:pageopacity="0.0"
     inkscape:pagecheckerboard="0"
     inkscape:deskcolor="#d1d1d1"
     inkscape:zoom="6.15625"
     inkscape:cx="15.675127"
     inkscape:cy="27.370558"
     inkscape:window-width="1183"
     inkscape:window-height="973"
     inkscape:window-x="35"
     inkscape:window-y="32"
     inkscape:window-maximized="0"
     inkscape:current-layer="svg7"
     showgrid="false" />
  <defs
     id="defs2">
    <linearGradient
       inkscape:collect="always"
       id="linearGradient1134">
      <stop
         style="stop-color:#161616;stop-opacity:1;"
         offset="0"
         id="stop1130" />
      <stop
         style="stop-color:#404040;stop-opacity:1;"
         offset="1"
         id="stop1132" />
    </linearGradient>
    <linearGradient
       inkscape:collect="always"
       id="linearGradient883">
      <stop
         style="stop-color:#808080;stop-opacity:1;"
         offset="0"
         id="stop879" />
      <stop
         style="stop-color:#3e3e3e;stop-opacity:1;"
         offset="0.5"
         id="stop1216" />
      <stop
         style="stop-color:#242424;stop-opacity:1;"
         offset="1"
         id="stop881" />
    </linearGradient>
    <linearGradient
       inkscape:collect="always"
       xlink:href="#linearGradient883"
       id="linearGradient885"
       x1="2.1085808"
       y1="2.0236168"
       x2="14.846128"
       y2="15.071845"
       gradientUnits="userSpaceOnUse" />
    <linearGradient
       inkscape:collect="always"
       xlink:href="#linearGradient1134"
       id="linearGradient1136"
       x1="14.971222"
       y1="14.703373"
       x2="2.0756054"
       y2="2.0069976"
       gradientUnits="userSpaceOnUse" />
    <filter
       style="color-interpolation-filters:sRGB;"
       inkscape:label="Blur"
       id="filter1283"
       x="-0.082344266"
       y="-0.082344266"
       width="1.1646885"
       height="1.1646885">
      <feGaussianBlur
         stdDeviation="0.5 0.5"
         result="blur"
         id="feGaussianBlur1281" />
    </filter>
    <filter
       style="color-interpolation-filters:sRGB;"
       inkscape:label="Blur"
       id="filter1694"
       x="-0.94955398"
       y="-0.2118907"
       width="2.899108"
       height="1.4237814">
      <feGaussianBlur
         stdDeviation="0.2 0.2"
         result="blur"
         id="feGaussianBlur1692" />
    </filter>
  </defs>
  <metadata
     id="metadata2">
    <rdf:RDF>
      <cc:Work
         rdf:about="">
        <dc:format>image/svg+xml</dc:format>
        <dc:type
           rdf:resource="http://purl.org/dc/dcmitype/StillImage" />
      </cc:Work>
    </rdf:RDF>
  </metadata>
  <rect
     style="fill:#000000;stroke:none;stroke-width:0.539739;stroke-dasharray:none;filter:url(#filter1283)"
     id="rect246-1"
     width="14.572964"
     height="14.572964"
     x="1.1932471"
     y="1.2138842"
     rx="2.1589575"
     ry="2.1589575" />
  <rect
     style="opacity:1;fill:#000000;stroke:url(#linearGradient885);stroke-width:0.52915625;stroke-dasharray:none"
     id="rect246"
     width="14.287219"
     height="14.287219"
     x="1.3361193"
     y="1.3567564"
     rx="2.1166251"
     ry="2.1166251" />
  <rect
     style="fill:url(#linearGradient1136);fill-opacity:1;stroke:none;stroke-width:0.478315;stroke-dasharray:none"
     id="rect246-5"
     width="12.914515"
     height="12.914515"
     x="2.0224717"
     y="2.0431087"
     rx="1.5874687"
     ry="1.5874687" />
  <path
     style="fill:#999999;fill-opacity:1;fill-rule:evenodd;stroke:none;stroke-width:0.245051;stroke-dasharray:none;stroke-opacity:0.3"
     d="m 8.5047902,4.9933702 v 8.092e-4 C 7.6854596,5.0017422 6.8608712,5.1776698 6.1471788,5.5584259 5.8627265,5.7328459 5.5212367,5.9580423 5.2639004,6.185011 4.8590005,6.5582152 4.5124117,6.9932964 4.2782614,7.4810878 4.9201361,8.8140392 6.3308733,9.7912698 7.8831935,9.9356199 8.9014486,10.04413 9.9673044,9.8780613 10.862401,9.4037502 11.146844,9.2293312 11.48834,9.0041349 11.745676,8.7771639 12.150579,8.4031497 12.497168,7.9680674 12.731318,7.4810712 12.089731,6.1481968 10.678367,5.171378 9.1263855,5.0273489 8.9201316,5.0042702 8.7118882,4.993348 8.5047902,4.993348 Z m 0.00166,0.8289708 C 9.4108046,5.8026924 10.211605,6.5964431 10.194588,7.4786646 10.223633,8.4537188 9.2332631,9.295211 8.2539102,9.1131278 7.2648334,8.9992319 6.5698366,7.9106983 6.8951478,6.9888907 7.1031378,6.3107134 7.7825237,5.8152027 8.5073373,5.8231515 Z m -0.00166,0.8289701 A 0.84530523,0.82849352 0 0 0 7.6594847,7.4810925 0.84530523,0.82849352 0 0 0 8.5047902,8.3092537 0.84530523,0.82849352 0 0 0 9.3500961,7.4810925 0.84530523,0.82849352 0 0 0 8.5047902,6.6537398 Z"
     id="path24" />
  <g
     aria-label="Krita"
     id="text1450"
     style="font-size:1.76385px;opacity:1;fill:#999999;stroke-width:0.529156">
    <rect
       style="font-size:1.76385px;fill:#00ff00;fill-opacity:1;stroke:none;stroke-width:0.519976;stroke-dasharray:none;filter:url(#filter1694)"
       id="rect1656-7"
       width="0.5055005"
       height="2.2653189"
       x="15.369148"
       y="4.3016486"
       rx="0"
       ry="0" />
    <rect
       style="opacity:1;fill:#00ff00;fill-opacity:1;stroke:none;stroke-width:0.519976;stroke-dasharray:none"
       id="rect1656"
       width="0.5055005"
       height="2.2653189"
       x="15.369148"
       y="4.3016486"
       rx="0"
       ry="0" />
  </g>
  <g
     aria-label="Image View"
     id="text2284"
     style="font-size:1.76385px;opacity:1;fill:#999999;stroke-width:0.529156">
    <path
       d="M 4.0959329,14.179017 H 3.6408596 v -0.09172 l 0.1481634,-0.03351 v -1.007159 l -0.1481634,-0.03528 v -0.09172 h 0.4550733 v 0.09172 l -0.1481634,0.03528 v 1.007159 l 0.1481634,0.03351 z"
       id="path644" />
    <path
       d="m 5.355323,13.215955 q 0.1605104,0 0.2398836,0.0829 0.079373,0.08114 0.079373,0.264577 v 0.615584 h -0.153455 v -0.608528 q 0,-0.224009 -0.1922596,-0.224009 -0.1375803,0 -0.1975512,0.07937 -0.058207,0.07937 -0.058207,0.231064 v 0.5221 H 4.9196521 v -0.608528 q 0,-0.224009 -0.1940235,-0.224009 -0.1428719,0 -0.1975512,0.08819 -0.054679,0.08819 -0.054679,0.253995 v 0.49035 H 4.3181792 v -0.945424 h 0.1252334 l 0.02293,0.128762 h 0.00882 q 0.044096,-0.07408 0.1181779,-0.109359 0.075846,-0.03704 0.1605104,-0.03704 0.2222451,0 0.2892714,0.158746 h 0.00882 q 0.047624,-0.08114 0.1287611,-0.119941 0.082901,-0.0388 0.1746211,-0.0388 z"
       id="path646" />
    <path
       d="m 6.3254396,13.217719 q 0.1728573,0 0.2557582,0.07584 0.082901,0.07585 0.082901,0.241648 v 0.643805 H 6.5512124 l -0.029985,-0.134053 h -0.00706 q -0.061735,0.07761 -0.1305249,0.114651 -0.067026,0.03704 -0.1869681,0.03704 -0.128761,0 -0.2134258,-0.06703 -0.084665,-0.06879 -0.084665,-0.213426 0,-0.141108 0.1111225,-0.216953 0.1111226,-0.07761 0.3421869,-0.08466 l 0.1605104,-0.0053 v -0.05644 q 0,-0.118178 -0.051152,-0.164038 -0.051152,-0.04586 -0.1446357,-0.04586 -0.074082,0 -0.141108,0.02293 -0.067026,0.02117 -0.1252333,0.04939 L 6.002655,13.298856 q 0.061735,-0.03351 0.1463996,-0.05644 0.084665,-0.02469 0.176385,-0.02469 z m 0.04586,0.504461 q -0.176385,0.0071 -0.2451752,0.05644 -0.067026,0.04939 -0.067026,0.139344 0,0.07937 0.047624,0.116414 0.049388,0.03704 0.1252333,0.03704 0.1199418,0 0.1993151,-0.06526 0.079373,-0.06703 0.079373,-0.204607 v -0.08466 z"
       id="path648" />
    <path
       d="m 7.2920308,13.215955 q 0.093484,0 0.1675657,0.03528 0.075846,0.03528 0.1287611,0.107595 h 0.00882 l 0.021166,-0.125234 h 0.1234695 v 0.961299 q 0,0.202842 -0.1040671,0.305146 -0.1023033,0.102303 -0.3192569,0.102303 -0.2081343,0 -0.340423,-0.05997 v -0.142872 q 0.1393441,0.07408 0.3492423,0.07408 0.1217056,0 0.1904958,-0.07232 0.070554,-0.07055 0.070554,-0.194023 v -0.03704 q 0,-0.02117 0.00176,-0.05997 0.00176,-0.04057 0.00353,-0.05644 h -0.00706 q -0.095248,0.142872 -0.2927991,0.142872 -0.1834404,0 -0.2875075,-0.128761 -0.1023033,-0.128762 -0.1023033,-0.359826 0,-0.225773 0.1023033,-0.358061 0.1040671,-0.134053 0.2857437,-0.134053 z m 0.021166,0.130525 q -0.118178,0 -0.1834404,0.09525 -0.065263,0.09348 -0.065263,0.268105 0,0.174621 0.063499,0.268105 0.065263,0.09172 0.188732,0.09172 0.1428718,0 0.2081343,-0.07585 0.065262,-0.07761 0.065262,-0.248703 v -0.03704 q 0,-0.194023 -0.067026,-0.276924 -0.067026,-0.08467 -0.2098981,-0.08467 z"
       id="path650" />
    <path
       d="m 8.4067838,13.215955 q 0.1217056,0 0.2081343,0.05292 0.088192,0.05292 0.1340526,0.149928 0.047624,0.09525 0.047624,0.224009 v 0.09348 H 8.1492617 q 0.00353,0.16051 0.081137,0.245175 0.079373,0.0829 0.2204812,0.0829 0.089956,0 0.1587465,-0.01588 0.070554,-0.01764 0.1446357,-0.04939 v 0.135817 q -0.072318,0.03175 -0.1428718,0.04586 -0.070554,0.01588 -0.1675658,0.01588 -0.1340525,0 -0.2381197,-0.05468 -0.1023033,-0.05468 -0.1605103,-0.162274 -0.056443,-0.109359 -0.056443,-0.266341 0,-0.155219 0.051152,-0.266342 0.052915,-0.111122 0.1463996,-0.171093 0.095248,-0.05997 0.2204812,-0.05997 z m -0.00176,0.126997 q -0.1111225,0 -0.1763849,0.07232 -0.063499,0.07055 -0.075846,0.197551 h 0.481531 q -0.00176,-0.119942 -0.056443,-0.194023 -0.054679,-0.07585 -0.1728573,-0.07585 z"
       id="path652" />
    <path
       d="M 10.403461,12.919628 9.953679,14.179017 H 9.7949325 L 9.3451507,12.919628 h 0.1658019 l 0.2839799,0.807843 q 0.028222,0.07761 0.047624,0.1464 0.019402,0.06703 0.031749,0.128761 0.012347,-0.06174 0.031749,-0.130525 0.019402,-0.06879 0.047624,-0.148163 l 0.282216,-0.804316 z"
       id="path654" />
    <path
       d="m 10.632762,12.87906 q 0.03528,0 0.06173,0.02469 0.02822,0.02293 0.02822,0.07408 0,0.04939 -0.02822,0.07408 -0.02646,0.02469 -0.06173,0.02469 -0.0388,0 -0.06526,-0.02469 -0.02646,-0.02469 -0.02646,-0.07408 0,-0.05115 0.02646,-0.07408 0.02646,-0.02469 0.06526,-0.02469 z m 0.07585,0.354533 v 0.945424 h -0.155219 v -0.945424 z"
       id="path656" />
    <path
       d="m 11.373578,13.215955 q 0.121705,0 0.208134,0.05292 0.08819,0.05292 0.134053,0.149928 0.04762,0.09525 0.04762,0.224009 v 0.09348 h -0.647333 q 0.0035,0.16051 0.08114,0.245175 0.07937,0.0829 0.220481,0.0829 0.08996,0 0.158747,-0.01588 0.07055,-0.01764 0.144635,-0.04939 v 0.135817 q -0.07232,0.03175 -0.142872,0.04586 -0.07055,0.01588 -0.167565,0.01588 -0.134053,0 -0.23812,-0.05468 -0.102303,-0.05468 -0.16051,-0.162274 -0.05644,-0.109359 -0.05644,-0.266341 0,-0.155219 0.05115,-0.266342 0.05292,-0.111122 0.1464,-0.171093 0.09525,-0.05997 0.220481,-0.05997 z m -0.0018,0.126997 q -0.111123,0 -0.176385,0.07232 -0.0635,0.07055 -0.07585,0.197551 h 0.481531 q -0.0018,-0.119942 -0.05644,-0.194023 -0.05468,-0.07585 -0.172857,-0.07585 z"
       id="path658" />
    <path
       d="m 12.578285,13.644571 q -0.02293,-0.07232 -0.04057,-0.141108 -0.01587,-0.07055 -0.02469,-0.109359 h -0.0071 q -0.0071,0.0388 -0.02293,0.109359 -0.01587,0.06879 -0.04057,0.142871 l -0.169329,0.530919 H 12.096754 L 11.837468,13.23183 h 0.16051 l 0.130525,0.504461 q 0.0194,0.07585 0.03704,0.153455 0.01764,0.07761 0.02469,0.128761 h 0.0071 q 0.0071,-0.02999 0.01587,-0.07408 0.01058,-0.0441 0.02293,-0.09172 0.01235,-0.04939 0.02469,-0.08819 l 0.167565,-0.532682 h 0.16933 l 0.162274,0.532682 q 0.0194,0.05997 0.03704,0.130525 0.0194,0.07055 0.02646,0.121706 h 0.0071 q 0.0053,-0.0441 0.02293,-0.121706 0.0194,-0.07761 0.04057,-0.158746 l 0.132289,-0.504461 h 0.158746 l -0.262814,0.945423 h -0.181676 z"
       id="path660" />
  </g>
</svg>
