<?xml version="1.0" encoding="UTF-8" standalone="no"?>
<svg
   width="64"
   height="64"
   version="1.1"
   viewBox="0 0 16.933 16.933"
   id="svg7"
   sodipodi:docname="Games Templates.svg"
   inkscape:version="1.4 (e7c3feb100, 2024-10-09)"
   xmlns:inkscape="http://www.inkscape.org/namespaces/inkscape"
   xmlns:sodipodi="http://sodipodi.sourceforge.net/DTD/sodipodi-0.dtd"
   xmlns:xlink="http://www.w3.org/1999/xlink"
   xmlns="http://www.w3.org/2000/svg"
   xmlns:svg="http://www.w3.org/2000/svg"
   xmlns:rdf="http://www.w3.org/1999/02/22-rdf-syntax-ns#"
   xmlns:cc="http://creativecommons.org/ns#"
   xmlns:dc="http://purl.org/dc/elements/1.1/">
  <sodipodi:namedview
     id="namedview7"
     pagecolor="#9c4444"
     bordercolor="#000000"
     borderopacity="0.25"
     inkscape:showpageshadow="2"
     inkscape:pageopacity="0.0"
     inkscape:pagecheckerboard="0"
     inkscape:deskcolor="#d1d1d1"
     inkscape:zoom="6.15625"
     inkscape:cx="15.675127"
     inkscape:cy="27.370558"
     inkscape:window-width="1183"
     inkscape:window-height="973"
     inkscape:window-x="35"
     inkscape:window-y="32"
     inkscape:window-maximized="0"
     inkscape:current-layer="svg7"
     showgrid="false" />
  <defs
     id="defs2">
    <linearGradient
       inkscape:collect="always"
       id="linearGradient1134">
      <stop
         style="stop-color:#161616;stop-opacity:1;"
         offset="0"
         id="stop1130" />
      <stop
         style="stop-color:#404040;stop-opacity:1;"
         offset="1"
         id="stop1132" />
    </linearGradient>
    <linearGradient
       inkscape:collect="always"
       id="linearGradient883">
      <stop
         style="stop-color:#808080;stop-opacity:1;"
         offset="0"
         id="stop879" />
      <stop
         style="stop-color:#3e3e3e;stop-opacity:1;"
         offset="0.5"
         id="stop1216" />
      <stop
         style="stop-color:#242424;stop-opacity:1;"
         offset="1"
         id="stop881" />
    </linearGradient>
    <linearGradient
       inkscape:collect="always"
       xlink:href="#linearGradient883"
       id="linearGradient885"
       x1="2.1085808"
       y1="2.0236168"
       x2="14.846128"
       y2="15.071845"
       gradientUnits="userSpaceOnUse" />
    <linearGradient
       inkscape:collect="always"
       xlink:href="#linearGradient1134"
       id="linearGradient1136"
       x1="14.971222"
       y1="14.703373"
       x2="2.0756054"
       y2="2.0069976"
       gradientUnits="userSpaceOnUse" />
    <filter
       style="color-interpolation-filters:sRGB;"
       inkscape:label="Blur"
       id="filter1283"
       x="-0.082344266"
       y="-0.082344266"
       width="1.1646885"
       height="1.1646885">
      <feGaussianBlur
         stdDeviation="0.5 0.5"
         result="blur"
         id="feGaussianBlur1281" />
    </filter>
    <filter
       style="color-interpolation-filters:sRGB;"
       inkscape:label="Blur"
       id="filter1694"
       x="-0.94955398"
       y="-0.2118907"
       width="2.899108"
       height="1.4237814">
      <feGaussianBlur
         stdDeviation="0.2 0.2"
         result="blur"
         id="feGaussianBlur1692" />
    </filter>
    <clipPath
       clipPathUnits="userSpaceOnUse"
       id="clipPath9">
      <path
         style="display:block;opacity:0.85;fill:#ffffff;stroke-width:1.02768"
         d="m 47.458967,1023.3069 c 0.85688,1.8179 1.286598,4.0198 1.286598,6.5331 0,2.4237 -0.471043,4.5945 -1.412286,6.367 -0.94152,1.7735 -2.198842,3.2676 -3.705671,4.4122 -1.50626,1.1449 -3.245953,1.9605 -5.149374,2.5225 -1.904832,0.5606 -3.852868,0.8052 -5.777238,0.8052 -3.850431,0 -7.996222,-1.2967 -10.611304,-2.8214 -2.984685,-1.5261 -7.041712,-6.2092 -6.960672,-6.9347 0.105349,-0.9437 2.398251,-4.0793 3.788125,-6.1999 0.67691,-1.0328 0.945189,-1.5206 1.959266,-0.5557 1.267312,1.6672 3.027389,2.7385 4.649929,3.6343 1.422401,0.728 4.427349,1.775 6.001755,1.9875 1.317989,0.2094 3.286601,0.2094 3.429864,-2.016 0,-0.8517 -0.665023,-1.6274 -1.521901,-2.3915 -0.858009,-0.7623 -1.43195,-1.4142 -2.70807,-2.2454 -5.062162,-4.2564 -7.79732,-6.1773 -10.368074,-10.4259 -0.858006,-1.6832 -1.354021,-3.5518 -1.354021,-5.7516 0,-2.1546 0.309343,-4.2556 1.062619,-5.8717 2.446826,-4.82161 7.391989,-7.34282 11.820387,-7.40606 3.783597,0 6.559511,1.09784 9.049178,2.31298 3.362337,1.54068 5.501784,3.55878 7.329115,5.34908 0.71227,0.6978 0.09745,1.54 -0.273887,2.159 -0.933252,1.5561 -2.253588,3.4749 -2.665561,4.398 -0.327914,0.6711 -0.934034,0.9233 -1.436782,0.4557 0,0 -1.242737,-1.1321 -2.246817,-1.8289 -2.666217,-1.599 -5.433717,-3.9539 -8.253986,-4.2475 -0.753274,0 -1.510094,0.2379 -1.865076,0.6416 -0.356113,0.4043 -0.485072,1.2175 -0.466448,1.8457 0.03355,1.1324 0.328115,1.3432 1.320701,2.3637 0.856877,0.6962 1.532222,1.1971 3.266048,2.1905 1.296029,0.7422 2.886235,1.7855 4.372119,2.7054 1.485027,0.9204 2.977366,2.1036 4.275001,3.4048 1.29735,1.3031 2.307877,2.7902 3.166455,4.6077 z"
         id="path11" />
    </clipPath>
    <inkscape:path-effect
       effect="powerclip"
       id="path-effect13"
       is_visible="true"
       lpeversion="1"
       inverse="true"
       flatten="false"
       hide_clip="false"
       message="" />
  </defs>
  <metadata
     id="metadata2">
    <rdf:RDF>
      <cc:Work
         rdf:about="">
        <dc:format>image/svg+xml</dc:format>
        <dc:type
           rdf:resource="http://purl.org/dc/dcmitype/StillImage" />
      </cc:Work>
    </rdf:RDF>
  </metadata>
  <rect
     style="fill:#000000;stroke:none;stroke-width:0.539739;stroke-dasharray:none;filter:url(#filter1283)"
     id="rect246-1"
     width="14.572964"
     height="14.572964"
     x="1.1932471"
     y="1.2138842"
     rx="2.1589575"
     ry="2.1589575" />
  <rect
     style="opacity:1;fill:#000000;stroke:url(#linearGradient885);stroke-width:0.52915625;stroke-dasharray:none"
     id="rect246"
     width="14.287219"
     height="14.287219"
     x="1.3361193"
     y="1.3567564"
     rx="2.1166251"
     ry="2.1166251" />
  <rect
     style="fill:url(#linearGradient1136);fill-opacity:1;stroke:none;stroke-width:0.478315;stroke-dasharray:none"
     id="rect246-5"
     width="12.914515"
     height="12.914515"
     x="2.0224717"
     y="2.0431087"
     rx="1.5874687"
     ry="1.5874687" />
  <path
     style="fill:#999999;fill-opacity:1;stroke-width:0.0112157"
     d="M 8.3277046,11.224519 C 7.9770919,11.197694 7.6819367,11.142942 7.3971755,11.051905 7.2144809,10.9935 6.9255005,10.875217 6.8126865,10.812671 6.6342392,10.713736 6.578478,10.680088 6.4416486,10.588788 5.8612901,10.201538 5.3883494,9.6328867 5.1060993,8.9829608 4.8955392,8.4981113 4.8013855,8.0383461 4.8013855,7.4950012 c 0,-0.4272203 0.055077,-0.7839406 0.1789431,-1.1589634 C 5.3942271,5.0829026 6.427739,4.141757 7.7071058,3.8529569 c 0.5203665,-0.1174657 1.1245991,-0.1174657 1.6449659,0 1.1576723,0.261329 2.1280123,1.0649395 2.6010073,2.1540852 0.21056,0.4848485 0.304714,0.9446139 0.304714,1.4879591 0,0.4272199 -0.05507,0.7839405 -0.178943,1.1589631 -0.451809,1.3679177 -1.641387,2.3570287 -3.0557673,2.5408107 -0.1783717,0.02318 -0.565034,0.03972 -0.6953781,0.02974 z M 8.955788,10.962938 c 0.6940892,-0.08194 1.325905,-0.367442 1.892333,-0.855119 l 0.06566,-0.05654 -0.792018,-0.7921229 C 9.6861607,8.823492 9.3248918,8.467037 9.3189503,8.467037 c -0.00594,0 -0.056436,0.029505 -0.1122104,0.065564 C 8.9847944,8.6760941 8.8066323,8.7273282 8.5295882,8.7273282 8.2525446,8.7273282 8.0743826,8.6760962 7.8524374,8.532601 7.7966624,8.496542 7.7461682,8.467037 7.7402268,8.467037 c -0.00594,0 -0.3672102,0.3564551 -0.8028197,0.7921227 L 6.14539,10.051283 l 0.065667,0.05653 c 0.3928087,0.338196 0.7699706,0.555338 1.2273046,0.706594 0.2716206,0.08983 0.5280377,0.138704 0.8968202,0.170924 0.1012488,0.0088 0.468078,-0.0044 0.620606,-0.0224 z M 8.2191994,9.9848554 C 8.0526927,9.65172 7.9164594,9.3758119 7.9164594,9.3717246 c 0,-0.00405 0.2759083,-0.00745 0.6131288,-0.00745 0.3372213,0 0.6131297,0.00332 0.6131297,0.00745 0,0.014799 -0.6056841,1.2188294 -0.6131297,1.2188294 -0.0042,0 -0.1438818,-0.272564 -0.3103888,-0.6056986 z M 6.7743261,9.0782889 7.5688862,8.2838325 7.5031542,8.1898019 C 7.4249703,8.0779588 7.3740801,7.9670593 7.3295048,7.8113854 c -0.046864,-0.1636668 -0.046864,-0.4691016 0,-0.6327686 0.044575,-0.1556739 0.095466,-0.2665734 0.1736494,-0.3784165 L 7.5688862,6.7061698 6.7709871,5.9083747 C 6.2868475,5.4242984 5.9680311,5.1163029 5.9602283,5.1251343 5.4428733,5.7106767 5.150951,6.3449449 5.0587714,7.083756 c -0.023983,0.1922261 -0.023983,0.6302641 0,0.8224901 0.073834,0.5917741 0.288479,1.1449766 0.6265382,1.6147712 0.097304,0.1352225 0.2732411,0.3505659 0.2870307,0.351321 0.0041,2.286e-4 0.3649772,-0.3570979 0.8019858,-0.7940494 z M 6.0359488,7.8045489 C 5.7048964,7.638505 5.4340353,7.4992088 5.4340353,7.4950015 c 0,-0.00744 1.204028,-0.6131294 1.2188291,-0.6131294 0.00409,0 0.00742,0.2759079 0.00742,0.6131291 0,0.3372208 -0.00505,0.6127497 -0.011215,0.6122873 -0.00616,-4.392e-4 -0.282071,-0.1366958 -0.613123,-0.3027396 z M 11.19637,9.7495688 c 0.443112,-0.522967 0.717899,-1.1529382 0.804037,-1.8433227 0.01026,-0.082249 0.01867,-0.2673096 0.01867,-0.4112449 0,-0.3995155 -0.05248,-0.7357015 -0.170594,-1.0928292 -0.15507,-0.468868 -0.391728,-0.8720872 -0.749521,-1.2770377 -0.0077,-0.00883 -0.32662,0.2991641 -0.81076,0.7832404 l -0.7979025,0.7977951 0.065732,0.094031 C 9.6342155,6.9120439 9.6851056,7.0229434 9.729681,7.1786173 9.776815,7.3432434 9.776564,7.6476307 9.7291464,7.8133576 9.6861346,7.963638 9.6250834,8.0948046 9.5501646,8.197856 l -0.059795,0.082249 0.7944344,0.7963337 c 0.436938,0.4379827 0.798731,0.7946448 0.803985,0.7925811 0.0053,-0.00198 0.05367,-0.055809 0.107587,-0.1194512 z M 10.398885,7.4950012 c 0,-0.3372212 0.0033,-0.6131291 0.0075,-0.6131291 0.0148,0 1.218829,0.605684 1.218829,0.6131291 0,0.00744 -1.204028,0.6131288 -1.218829,0.6131288 -0.004,0 -0.0075,-0.275908 -0.0075,-0.6131288 z M 8.8361531,8.4453353 C 9.149678,8.3402725 9.3921822,8.0929086 9.4892674,7.7791338 c 0.049277,-0.1592557 0.049277,-0.4090097 0,-0.5682657 C 9.3924125,6.8978369 9.1529341,6.6530613 8.8361531,6.5433073 8.7302113,6.506602 8.6951223,6.5018578 8.5295882,6.5018578 c -0.1655334,0 -0.2006223,0.00474 -0.3065639,0.04145 -0.3167809,0.1097543 -0.5562594,0.3545298 -0.6531144,0.667561 -0.049277,0.159256 -0.049277,0.40901 0,0.5682657 0.1087973,0.3516292 0.3921448,0.6121229 0.7577947,0.6966751 0.138659,0.032064 0.3617244,0.018692 0.5084485,-0.030474 z M 7.8524374,6.4574045 C 8.0743826,6.3139117 8.2525446,6.262678 8.5295882,6.262678 c 0.2770441,0 0.4552062,0.051233 0.6771517,0.1947265 0.055775,0.03606 0.1062693,0.065563 0.1122104,0.065563 0.00594,0 0.3672104,-0.3564552 0.8028197,-0.7921229 l 0.792018,-0.7921224 -0.06566,-0.056538 C 10.455312,4.5439876 10.078151,4.3268449 9.6208159,4.1755891 9.2653379,4.0580209 8.9284976,4.0055255 8.5295882,4.0055255 c -0.8756809,0 -1.6328185,0.2862807 -2.3185312,0.8766584 L 6.14539,4.9387219 6.9374072,5.7308444 c 0.4356093,0.4356675 0.7968781,0.7921228 0.8028194,0.7921228 0.00594,0 0.056435,-0.029503 0.1122108,-0.065563 z m 0.064022,-0.8391279 c 0,-0.0148 0.6056836,-1.2188288 0.6131287,-1.2188288 0.00744,0 0.6131298,1.2040286 0.6131298,1.2188288 0,0.0041 -0.2759085,0.00743 -0.6131298,0.00743 -0.3372203,0 -0.6131287,-0.00335 -0.6131287,-0.00743 z"
     id="path1" />
  <g
     aria-label="Krita"
     id="text1450"
     style="font-size:1.76385px;opacity:1;fill:#ff00ff;stroke-width:0.529156">
    <rect
       style="font-size:1.76385px;fill:#ff00ff;fill-opacity:1;stroke:none;stroke-width:0.519976;stroke-dasharray:none;filter:url(#filter1694)"
       id="rect1656-7"
       width="0.5055005"
       height="2.2653189"
       x="15.369148"
       y="4.3016486"
       rx="0"
       ry="0" />
    <rect
       style="opacity:1;fill:#ff00ff;fill-opacity:1;stroke:none;stroke-width:0.519976;stroke-dasharray:none"
       id="rect1656"
       width="0.5055005"
       height="2.2653189"
       x="15.369148"
       y="4.3016486"
       rx="0"
       ry="0" />
  </g>
  <path
     d="m 4.7933605,13.001801 q -0.2028427,0 -0.3192568,0.135817 -0.1164141,0.135816 -0.1164141,0.372172 0,0.234592 0.1075948,0.372172 0.1093587,0.135817 0.3263123,0.135817 0.082901,0 0.1569826,-0.01411 0.074082,-0.01411 0.1446357,-0.03528 v 0.13758 q -0.070554,0.02646 -0.1463995,0.0388 -0.074082,0.01235 -0.1781489,0.01235 -0.1922596,0 -0.3210207,-0.07937 -0.128761,-0.07937 -0.1940235,-0.225773 -0.063499,-0.1464 -0.063499,-0.343951 0,-0.190496 0.06879,-0.335131 0.070554,-0.1464 0.2063704,-0.227537 0.1358165,-0.0829 0.32984,-0.0829 0.199315,0 0.3474784,0.07408 l -0.063499,0.134052 q -0.058207,-0.02646 -0.1305249,-0.04762 -0.070554,-0.02117 -0.1552188,-0.02117 z m 0.9119104,0.176385 q 0.1728573,0 0.2557582,0.07585 0.082901,0.07584 0.082901,0.241647 v 0.643805 H 5.9310437 l -0.029986,-0.134052 h -0.00706 q -0.061735,0.07761 -0.1305249,0.11465 -0.067026,0.03704 -0.1869681,0.03704 -0.128761,0 -0.2134258,-0.06703 -0.084665,-0.06879 -0.084665,-0.213426 0,-0.141108 0.1111225,-0.216954 0.1111226,-0.07761 0.3421869,-0.08467 l 0.1605104,-0.0053 v -0.05644 q 0,-0.118178 -0.051152,-0.164038 -0.051152,-0.04586 -0.1446357,-0.04586 -0.074082,0 -0.141108,0.02293 -0.067026,0.02117 -0.1252333,0.04939 l -0.047624,-0.116414 q 0.061735,-0.03351 0.1463996,-0.05644 0.084665,-0.02469 0.176385,-0.02469 z m 0.04586,0.504461 q -0.176385,0.0071 -0.2451752,0.05644 -0.067026,0.04939 -0.067026,0.139345 0,0.07937 0.047624,0.116414 0.049388,0.03704 0.1252333,0.03704 0.1199418,0 0.1993151,-0.06526 0.079373,-0.06703 0.079373,-0.204606 v -0.08467 z m 1.026562,-0.506225 q 0.026458,0 0.056443,0.0035 0.031749,0.0018 0.054679,0.0071 l -0.019402,0.142872 q -0.02293,-0.0053 -0.051152,-0.0088 -0.026458,-0.0035 -0.051152,-0.0035 -0.072318,0 -0.1358165,0.04057 -0.063499,0.0388 -0.1023033,0.111122 -0.037041,0.07055 -0.037041,0.165802 v 0.504461 H 6.3367305 v -0.945423 h 0.1269972 l 0.017639,0.172857 h 0.00706 q 0.04586,-0.07761 0.1181779,-0.134052 0.072318,-0.05644 0.1710935,-0.05644 z m 0.603237,0.853704 q 0.035277,0 0.072318,-0.0053 0.037041,-0.0071 0.059971,-0.01411 v 0.118178 q -0.024694,0.01235 -0.070554,0.0194 -0.04586,0.0088 -0.088192,0.0088 -0.074082,0 -0.1375803,-0.02469 -0.061735,-0.02646 -0.1005394,-0.08996 -0.038805,-0.0635 -0.038805,-0.178149 V 13.314003 H 6.9434952 v -0.07408 l 0.1358164,-0.06174 0.061735,-0.201079 h 0.09172 v 0.216954 h 0.2733967 v 0.119942 H 7.2327666 v 0.546793 q 0,0.08643 0.040569,0.128761 0.042332,0.04057 0.1075949,0.04057 z m 0.7619833,-0.853704 q 0.026458,0 0.056443,0.0035 0.031749,0.0018 0.054679,0.0071 l -0.019402,0.142872 q -0.02293,-0.0053 -0.051152,-0.0088 -0.026458,-0.0035 -0.051152,-0.0035 -0.072318,0 -0.1358165,0.04057 -0.063499,0.0388 -0.1023033,0.111122 -0.037041,0.07055 -0.037041,0.165802 v 0.504461 H 7.7019508 V 13.194061 H 7.828948 l 0.017639,0.172857 h 0.00706 q 0.04586,-0.07761 0.1181779,-0.134052 0.072318,-0.05644 0.1710935,-0.05644 z m 0.3668808,-0.336895 q 0.035277,0 0.061735,0.02469 0.028222,0.02293 0.028222,0.07408 0,0.04939 -0.028222,0.07408 -0.026458,0.02469 -0.061735,0.02469 -0.038805,0 -0.065262,-0.02469 -0.026458,-0.02469 -0.026458,-0.07408 0,-0.05115 0.026458,-0.07408 0.026458,-0.02469 0.065262,-0.02469 z m 0.075846,0.354534 v 0.945423 H 8.4304209 v -0.945423 z m 0.6349851,0.963062 q -0.176385,0 -0.282216,-0.121706 -0.105831,-0.123469 -0.105831,-0.366881 0,-0.243411 0.105831,-0.36688 0.1075948,-0.125234 0.2839798,-0.125234 0.1093587,0 0.1781489,0.04057 0.070554,0.04057 0.1146502,0.09877 h 0.010583 q -0.00176,-0.02293 -0.00706,-0.06703 -0.00353,-0.04586 -0.00353,-0.07232 v -0.377464 h 0.1552188 v 1.340526 H 9.5451732 l -0.02293,-0.126997 h -0.00706 q -0.042332,0.05997 -0.1128864,0.102304 -0.070554,0.04233 -0.1816765,0.04233 z m 0.024694,-0.128761 q 0.1499272,0 0.2098981,-0.08114 0.061735,-0.0829 0.061735,-0.248703 V 13.6703 q 0,-0.176385 -0.058207,-0.269869 -0.058207,-0.09525 -0.2151897,-0.09525 -0.1252333,0 -0.1887319,0.10054 -0.061735,0.09877 -0.061735,0.266341 0,0.16933 0.061735,0.262814 0.063499,0.09348 0.1904958,0.09348 z m 1.0600733,-0.85194 q 0.09348,0 0.167566,0.03528 0.07584,0.03528 0.128761,0.107595 h 0.0088 l 0.02117,-0.125233 h 0.12347 v 0.961298 q 0,0.202843 -0.104067,0.305146 -0.102304,0.102303 -0.319257,0.102303 -0.208134,0 -0.3404232,-0.05997 v -0.142872 q 0.1393442,0.07408 0.3492422,0.07408 0.121706,0 0.190496,-0.07232 0.07055,-0.07055 0.07055,-0.194024 v -0.03704 q 0,-0.02117 0.0018,-0.05997 0.0018,-0.04057 0.0035,-0.05644 h -0.0071 q -0.09525,0.142872 -0.292799,0.142872 -0.18344,0 -0.287508,-0.128761 -0.1023029,-0.128761 -0.1023029,-0.359826 0,-0.225772 0.1023029,-0.358061 0.104068,-0.134053 0.285744,-0.134053 z m 0.02117,0.130525 q -0.118178,0 -0.18344,0.09525 -0.06526,0.09348 -0.06526,0.268105 0,0.174621 0.0635,0.268106 0.06526,0.09172 0.188732,0.09172 0.142872,0 0.208134,-0.07585 0.06526,-0.07761 0.06526,-0.248703 v -0.03704 q 0,-0.194023 -0.06703,-0.276924 -0.06703,-0.08467 -0.209898,-0.08467 z m 1.093587,-0.130525 q 0.121706,0 0.208134,0.05292 0.08819,0.05292 0.134053,0.149927 0.04762,0.09525 0.04762,0.224009 v 0.09348 h -0.647333 q 0.0035,0.16051 0.08114,0.245175 0.07937,0.0829 0.220481,0.0829 0.08996,0 0.158747,-0.01587 0.07055,-0.01764 0.144635,-0.04939 v 0.135816 q -0.07232,0.03175 -0.142871,0.04586 -0.07055,0.01588 -0.167566,0.01588 -0.134053,0 -0.23812,-0.05468 -0.102303,-0.05468 -0.16051,-0.162275 -0.05644,-0.109358 -0.05644,-0.266341 0,-0.155219 0.05115,-0.266341 0.05292,-0.111123 0.1464,-0.171094 0.09525,-0.05997 0.220481,-0.05997 z m -0.0018,0.126998 q -0.111122,0 -0.176385,0.07232 -0.0635,0.07055 -0.07585,0.197552 h 0.481531 q -0.0018,-0.119942 -0.05644,-0.194024 -0.05468,-0.07585 -0.172857,-0.07585 z m 1.247041,0.575015 q 0,0.13758 -0.102304,0.208134 -0.102303,0.07055 -0.27516,0.07055 -0.09878,0 -0.171094,-0.01588 -0.07055,-0.01587 -0.125233,-0.0441 v -0.141108 q 0.05644,0.02822 0.135816,0.05292 0.08114,0.02293 0.164039,0.02293 0.118177,0 0.171093,-0.03704 0.05292,-0.0388 0.05292,-0.102304 0,-0.03528 -0.0194,-0.0635 -0.0194,-0.02822 -0.07055,-0.05644 -0.04939,-0.02822 -0.142872,-0.0635 -0.09172,-0.03528 -0.156982,-0.07055 -0.06526,-0.03528 -0.10054,-0.08466 -0.03528,-0.04939 -0.03528,-0.126997 0,-0.119942 0.09701,-0.185204 0.09878,-0.06526 0.257522,-0.06526 0.08643,0 0.16051,0.01764 0.07585,0.01587 0.141108,0.04586 l -0.05292,0.123469 q -0.05997,-0.02469 -0.125233,-0.04233 -0.06526,-0.01764 -0.134053,-0.01764 -0.09525,0 -0.1464,0.03175 -0.04939,0.02998 -0.04939,0.0829 0,0.0388 0.02293,0.06703 0.02293,0.02646 0.07584,0.05292 0.05468,0.02469 0.144636,0.05997 0.08996,0.03351 0.153455,0.06879 0.0635,0.03528 0.09701,0.08643 0.03351,0.04939 0.03351,0.125234 z"
     id="text1"
     style="font-size:1.76385px;text-align:center;text-anchor:middle;fill:#999999;stroke-width:0.132289;stroke-opacity:0.6"
     aria-label="Cartridges" />
</svg>
