<?xml version="1.0" encoding="UTF-8" standalone="no"?>
<svg
   width="64"
   height="64"
   version="1.1"
   viewBox="0 0 16.933 16.933"
   id="svg7"
   sodipodi:docname="Settings Template.svg"
   inkscape:version="1.4 (e7c3feb100, 2024-10-09)"
   xmlns:inkscape="http://www.inkscape.org/namespaces/inkscape"
   xmlns:sodipodi="http://sodipodi.sourceforge.net/DTD/sodipodi-0.dtd"
   xmlns:xlink="http://www.w3.org/1999/xlink"
   xmlns="http://www.w3.org/2000/svg"
   xmlns:svg="http://www.w3.org/2000/svg"
   xmlns:rdf="http://www.w3.org/1999/02/22-rdf-syntax-ns#"
   xmlns:cc="http://creativecommons.org/ns#"
   xmlns:dc="http://purl.org/dc/elements/1.1/">
  <sodipodi:namedview
     id="namedview7"
     pagecolor="#9c4444"
     bordercolor="#000000"
     borderopacity="0.25"
     inkscape:showpageshadow="2"
     inkscape:pageopacity="0.0"
     inkscape:pagecheckerboard="0"
     inkscape:deskcolor="#d1d1d1"
     inkscape:zoom="6.15625"
     inkscape:cx="15.675127"
     inkscape:cy="29.807107"
     inkscape:window-width="1183"
     inkscape:window-height="973"
     inkscape:window-x="35"
     inkscape:window-y="32"
     inkscape:window-maximized="0"
     inkscape:current-layer="svg7"
     showgrid="false" />
  <defs
     id="defs2">
    <rect
       x="67.489848"
       y="35.60533"
       width="15.337563"
       height="22.51269"
       id="rect3808" />
    <linearGradient
       inkscape:collect="always"
       id="linearGradient1134">
      <stop
         style="stop-color:#161616;stop-opacity:1;"
         offset="0"
         id="stop1130" />
      <stop
         style="stop-color:#404040;stop-opacity:1;"
         offset="1"
         id="stop1132" />
    </linearGradient>
    <linearGradient
       inkscape:collect="always"
       id="linearGradient883">
      <stop
         style="stop-color:#808080;stop-opacity:1;"
         offset="0"
         id="stop879" />
      <stop
         style="stop-color:#3e3e3e;stop-opacity:1;"
         offset="0.5"
         id="stop1216" />
      <stop
         style="stop-color:#242424;stop-opacity:1;"
         offset="1"
         id="stop881" />
    </linearGradient>
    <linearGradient
       inkscape:collect="always"
       xlink:href="#linearGradient883"
       id="linearGradient885"
       x1="2.1085808"
       y1="2.0236168"
       x2="14.846128"
       y2="15.071845"
       gradientUnits="userSpaceOnUse" />
    <linearGradient
       inkscape:collect="always"
       xlink:href="#linearGradient1134"
       id="linearGradient1136"
       x1="14.971222"
       y1="14.703373"
       x2="2.0756054"
       y2="2.0069976"
       gradientUnits="userSpaceOnUse" />
    <filter
       style="color-interpolation-filters:sRGB;"
       inkscape:label="Blur"
       id="filter1283"
       x="-0.082344266"
       y="-0.082344266"
       width="1.1646885"
       height="1.1646885">
      <feGaussianBlur
         stdDeviation="0.5 0.5"
         result="blur"
         id="feGaussianBlur1281" />
    </filter>
    <filter
       style="color-interpolation-filters:sRGB;"
       inkscape:label="Blur"
       id="filter1694"
       x="-0.94955398"
       y="-0.2118907"
       width="2.899108"
       height="1.4237814">
      <feGaussianBlur
         stdDeviation="0.2 0.2"
         result="blur"
         id="feGaussianBlur1692" />
    </filter>
    <filter
       style="color-interpolation-filters:sRGB;"
       inkscape:label="Blur"
       id="filter3148"
       x="-0.94955398"
       y="-0.2118907"
       width="2.899108"
       height="1.4237814">
      <feGaussianBlur
         stdDeviation="0.2 0.2"
         result="blur"
         id="feGaussianBlur3146" />
    </filter>
  </defs>
  <metadata
     id="metadata2">
    <rdf:RDF>
      <cc:Work
         rdf:about="">
        <dc:format>image/svg+xml</dc:format>
        <dc:type
           rdf:resource="http://purl.org/dc/dcmitype/StillImage" />
      </cc:Work>
    </rdf:RDF>
  </metadata>
  <rect
     style="fill:#000000;stroke:none;stroke-width:0.539739;stroke-dasharray:none;filter:url(#filter1283)"
     id="rect246-1"
     width="14.572964"
     height="14.572964"
     x="1.1932471"
     y="1.2138842"
     rx="2.1589575"
     ry="2.1589575" />
  <rect
     style="opacity:1;fill:#000000;stroke:url(#linearGradient885);stroke-width:0.52915625;stroke-dasharray:none"
     id="rect246"
     width="14.287219"
     height="14.287219"
     x="1.3361193"
     y="1.3567564"
     rx="2.1166251"
     ry="2.1166251" />
  <rect
     style="fill:url(#linearGradient1136);fill-opacity:1;stroke:none;stroke-width:0.478315;stroke-dasharray:none"
     id="rect246-5"
     width="12.914515"
     height="12.914515"
     x="2.0224717"
     y="2.0431087"
     rx="1.5874687"
     ry="1.5874687" />
  <path
     id="path11"
     style="fill:#999999;fill-opacity:1;stroke:none;stroke-width:0.214308;stroke-dasharray:none;stroke-dashoffset:2.2;stroke-opacity:0.3"
     d="m 8.4450988,3.7505128 c -0.1084991,3.429e-4 -0.215743,0.020342 -0.2913253,0.060274 -0.162369,0.085782 -0.3150987,0.2398474 -0.3909452,0.3942937 -0.057467,0.1170193 -0.068215,0.1697528 -0.067809,0.3356938 4.071e-4,0.1644997 0.011196,0.2173946 0.065298,0.3202066 0.081151,0.1542193 0.2177125,0.29147 0.3566223,0.3587154 l 0.1067355,0.051902 V 5.4783734 5.6855659 H 7.6946013 7.1655277 V 5.919547 6.1531095 h 0.5290736 0.5290736 v 1.0200573 c 0,0.6626996 -0.00889,1.0440973 -0.025952,1.0891214 C 8.1320182,8.4357046 7.9404089,8.5501794 7.719297,8.5477535 7.5429499,8.5458247 7.0295185,8.4437207 6.7431898,8.3539551 6.5009831,8.2780214 6.1863841,8.1208542 6.1061248,8.0354227 L 6.0491992,7.97473 H 6.2735531 6.4983258 L 6.1191006,7.6164334 C 5.9105665,7.4194487 5.73141,7.256239 5.7210396,7.2535323 5.6661831,7.2392122 5.5634236,7.689936 5.5284972,8.0977897 L 5.5125912,8.2823796 5.6369067,8.1609939 c 0.068323,-0.066875 0.1277052,-0.1168746 0.1318499,-0.1109212 0.00415,0.00596 0.023672,0.043368 0.043532,0.082877 0.019859,0.039508 0.090811,0.1152306 0.1578012,0.1682655 0.2115437,0.1674761 0.4836693,0.2876805 1.2192968,0.5399561 0.2366452,0.081157 0.4851382,0.175356 0.552095,0.2092862 0.066956,0.033931 0.2501454,0.1767502 0.4068508,0.3172763 0.1567062,0.1405253 0.290814,0.2555487 0.2980224,0.2557472 0.00721,1.984e-4 0.145629,-0.1164693 0.3076496,-0.2595145 C 8.9160258,9.2209214 9.0871004,9.083785 9.1344852,9.0592477 9.1818702,9.0347047 9.4644955,8.9289964 9.7623421,8.8244287 10.600538,8.5301558 11.048796,8.2888798 11.094234,8.1078356 c 0.0082,-0.03266 0.0215,-0.059018 0.02972,-0.059018 0.0082,0 0.06833,0.052146 0.133106,0.115944 l 0.117618,0.1159442 V 8.1676911 c 0,-0.1465008 -0.05778,-0.4709421 -0.131013,-0.7345918 l -0.05818,-0.2092856 -0.367086,0.3695982 -0.366669,0.3691796 0.208867,0.012138 0.209286,0.012557 -0.154453,0.1058986 c -0.282986,0.1941069 -0.669,0.3240094 -1.2552971,0.422756 -0.2467873,0.041566 -0.3217248,0.04596 -0.4064322,0.02344 C 8.9109694,8.5014342 8.793952,8.4251919 8.7385168,8.3342814 8.6947128,8.2624455 8.6917235,8.1945093 8.6916369,7.2053959 V 6.1531095 h 0.516935 0.5169354 V 5.919547 5.6855659 H 9.2085719 8.6916369 V 5.4787918 5.2715993 L 8.8251611,5.1962565 C 9.1639171,5.0050744 9.3073271,4.5504744 9.1382519,4.2029879 9.0673874,4.057347 8.8919332,3.8822306 8.7435395,3.8091126 8.663497,3.7696741 8.5535984,3.7501698 8.4450988,3.7505128 Z m -0.010464,0.5135864 c 0.1477939,-0.00933 0.2816982,0.1051563 0.2816982,0.2687224 0,0.079807 -0.01627,0.1154719 -0.083714,0.1829156 -0.067444,0.067444 -0.1031087,0.083714 -0.1829155,0.083714 -0.2835333,0 -0.3732758,-0.3864298 -0.1180369,-0.5081451 0.034146,-0.016284 0.068862,-0.025054 0.1029682,-0.027207 z m 2.2385162,5.8746418 c -0.325484,0 -0.651191,0.01078 -0.672224,0.03181 -0.021024,0.02102 -0.029295,0.172941 -0.029295,0.527818 0,0.448764 0.00432,0.501043 0.04311,0.523633 0.0585,0.03407 1.248746,0.03523 1.31222,0.0013 0.04467,-0.0239 0.04772,-0.05649 0.04772,-0.52447 0,-0.355156 -0.0087,-0.507207 -0.02972,-0.528237 -0.02103,-0.02103 -0.346323,-0.03181 -0.671806,-0.03181 z m -4.458616,0.0021 c -0.5541136,0 -0.651165,0.0058 -0.6843635,0.03893 -0.032503,0.03251 -0.038508,0.114585 -0.038508,0.515261 0,0.464856 0.00107,0.477906 0.054414,0.515261 0.045966,0.03219 0.1528852,0.03851 0.6688763,0.03851 0.5369055,0 0.619894,-0.0054 0.6592491,-0.04102 0.040699,-0.03683 0.045205,-0.08683 0.045205,-0.52405 0,-0.34329 -0.00875,-0.492199 -0.029719,-0.513168 -0.021472,-0.02147 -0.2058206,-0.02972 -0.6751539,-0.02972 z m 2.2196813,0 c -0.4677334,0 -0.6515939,0.0083 -0.6730619,0.02972 -0.020979,0.02098 -0.029719,0.170372 -0.029719,0.515261 0,0.408658 0.00637,0.4915 0.038927,0.52405 0.033135,0.03314 0.1284806,0.03893 0.6646903,0.03893 0.5931132,0 0.6285054,-0.0028 0.6751549,-0.04939 0.045716,-0.04572 0.048973,-0.08221 0.048973,-0.508982 0,-0.393118 -0.00576,-0.465873 -0.040602,-0.504378 -0.037488,-0.04143 -0.092145,-0.04521 -0.6843633,-0.04521 z" />
  <g
     aria-label="Krita"
     id="text1450"
     style="font-size:1.76385px;opacity:1;fill:#5555ff;stroke-width:0.529156">
    <rect
       style="font-size:1.76385px;fill:#5555ff;fill-opacity:1;stroke:none;stroke-width:0.519976;stroke-dasharray:none;filter:url(#filter3148)"
       id="rect1656-3"
       width="0.5055005"
       height="2.2653189"
       x="15.369148"
       y="4.3016486"
       rx="0"
       ry="0" />
    <rect
       style="opacity:1;fill:#5555ff;fill-opacity:1;stroke:none;stroke-width:0.519976;stroke-dasharray:none"
       id="rect1656"
       width="0.5055005"
       height="2.2653189"
       x="15.369148"
       y="4.3016486"
       rx="0"
       ry="0" />
  </g>
  <path
     d="m 6.5353435,12.919628 q 0.2469389,0 0.3598253,0.09701 0.1128864,0.09701 0.1128864,0.273397 0,0.104067 -0.047624,0.195787 -0.04586,0.08996 -0.1569827,0.1464 -0.1093587,0.05644 -0.2980906,0.05644 H 6.3607223 v 0.49035 H 6.2019758 v -1.259389 z m -0.014111,0.135817 H 6.3607223 v 0.497405 h 0.1269972 q 0.1799127,0 0.2681052,-0.05821 0.088192,-0.05821 0.088192,-0.197551 0,-0.121706 -0.077609,-0.181676 -0.077609,-0.05997 -0.2451751,-0.05997 z m 0.8819241,1.123572 H 7.247938 v -1.340526 h 0.1552188 z m 0.6579151,-0.961298 q 0.1728573,0 0.2557582,0.07584 0.082901,0.07585 0.082901,0.241648 v 0.643805 H 8.2868447 l -0.029986,-0.134053 h -0.00706 q -0.061735,0.07761 -0.1305249,0.114651 -0.067026,0.03704 -0.1869681,0.03704 -0.128761,0 -0.2134258,-0.06703 -0.084665,-0.06879 -0.084665,-0.213426 0,-0.141108 0.1111225,-0.216953 0.1111226,-0.07761 0.3421869,-0.08466 l 0.1605104,-0.0053 v -0.05644 q 0,-0.118178 -0.051152,-0.164038 -0.051152,-0.04586 -0.1446357,-0.04586 -0.074082,0 -0.141108,0.02293 -0.067026,0.02117 -0.1252333,0.04939 l -0.047624,-0.116414 q 0.061735,-0.03351 0.1463996,-0.05644 0.084665,-0.02469 0.176385,-0.02469 z m 0.04586,0.504461 q -0.176385,0.0071 -0.2451752,0.05644 -0.067026,0.04939 -0.067026,0.139344 0,0.07937 0.047624,0.116414 0.049388,0.03704 0.1252333,0.03704 0.1199418,0 0.1993151,-0.06526 0.079373,-0.06703 0.079373,-0.204607 v -0.08466 z m 1.040673,-0.506225 q 0.1693296,0 0.2557582,0.0829 0.086429,0.08114 0.086429,0.264577 v 0.615584 h -0.153455 v -0.605 q 0,-0.227537 -0.211662,-0.227537 -0.1569826,0 -0.2169535,0.08819 -0.059971,0.08819 -0.059971,0.253995 v 0.49035 H 8.6925317 V 13.233593 H 8.817765 l 0.02293,0.128762 h 0.00882 q 0.04586,-0.07408 0.1269972,-0.109359 0.081137,-0.03704 0.1710935,-0.03704 z m 0.7884409,0.322785 q 0,0.02822 -0.00353,0.07408 -0.00176,0.04586 -0.00353,0.07937 h 0.00706 q 0.010583,-0.01411 0.031749,-0.04057 0.021166,-0.02646 0.042333,-0.05292 0.02293,-0.02822 0.0388,-0.04586 l 0.301619,-0.319257 h 0.181676 l -0.382755,0.403922 0.409213,0.541502 h -0.186968 l -0.328076,-0.440962 -0.1075951,0.09348 v 0.347478 H 9.782591 v -1.340526 h 0.1534549 z"
     id="text2284"
     style="font-size:1.76385px;fill:#999999;stroke-width:0.529156"
     aria-label="Plank" />
  <text
     xml:space="preserve"
     transform="scale(0.26457812)"
     id="text3806"
     style="fill:#999999;stroke-width:2;font-size:6.66666667px;white-space:pre;shape-inside:url(#rect3808)" />
</svg>
