<?xml version="1.0" encoding="UTF-8" standalone="no"?>
<svg
   width="64"
   height="64"
   version="1.1"
   viewBox="0 0 16.933 16.933"
   id="svg7"
   sodipodi:docname="Settings Template.svg"
   inkscape:version="1.4 (e7c3feb100, 2024-10-09)"
   xmlns:inkscape="http://www.inkscape.org/namespaces/inkscape"
   xmlns:sodipodi="http://sodipodi.sourceforge.net/DTD/sodipodi-0.dtd"
   xmlns:xlink="http://www.w3.org/1999/xlink"
   xmlns="http://www.w3.org/2000/svg"
   xmlns:svg="http://www.w3.org/2000/svg"
   xmlns:rdf="http://www.w3.org/1999/02/22-rdf-syntax-ns#"
   xmlns:cc="http://creativecommons.org/ns#"
   xmlns:dc="http://purl.org/dc/elements/1.1/">
  <sodipodi:namedview
     id="namedview7"
     pagecolor="#9c4444"
     bordercolor="#000000"
     borderopacity="0.25"
     inkscape:showpageshadow="2"
     inkscape:pageopacity="0.0"
     inkscape:pagecheckerboard="0"
     inkscape:deskcolor="#d1d1d1"
     inkscape:zoom="6.15625"
     inkscape:cx="15.675127"
     inkscape:cy="29.807107"
     inkscape:window-width="1183"
     inkscape:window-height="973"
     inkscape:window-x="35"
     inkscape:window-y="32"
     inkscape:window-maximized="0"
     inkscape:current-layer="svg7"
     showgrid="false" />
  <defs
     id="defs2">
    <rect
       x="67.489848"
       y="35.60533"
       width="15.337563"
       height="22.51269"
       id="rect3808" />
    <linearGradient
       inkscape:collect="always"
       id="linearGradient1134">
      <stop
         style="stop-color:#161616;stop-opacity:1;"
         offset="0"
         id="stop1130" />
      <stop
         style="stop-color:#404040;stop-opacity:1;"
         offset="1"
         id="stop1132" />
    </linearGradient>
    <linearGradient
       inkscape:collect="always"
       id="linearGradient883">
      <stop
         style="stop-color:#808080;stop-opacity:1;"
         offset="0"
         id="stop879" />
      <stop
         style="stop-color:#3e3e3e;stop-opacity:1;"
         offset="0.5"
         id="stop1216" />
      <stop
         style="stop-color:#242424;stop-opacity:1;"
         offset="1"
         id="stop881" />
    </linearGradient>
    <linearGradient
       inkscape:collect="always"
       xlink:href="#linearGradient883"
       id="linearGradient885"
       x1="2.1085808"
       y1="2.0236168"
       x2="14.846128"
       y2="15.071845"
       gradientUnits="userSpaceOnUse" />
    <linearGradient
       inkscape:collect="always"
       xlink:href="#linearGradient1134"
       id="linearGradient1136"
       x1="14.971222"
       y1="14.703373"
       x2="2.0756054"
       y2="2.0069976"
       gradientUnits="userSpaceOnUse" />
    <filter
       style="color-interpolation-filters:sRGB;"
       inkscape:label="Blur"
       id="filter1283"
       x="-0.082344266"
       y="-0.082344266"
       width="1.1646885"
       height="1.1646885">
      <feGaussianBlur
         stdDeviation="0.5 0.5"
         result="blur"
         id="feGaussianBlur1281" />
    </filter>
    <filter
       style="color-interpolation-filters:sRGB;"
       inkscape:label="Blur"
       id="filter1694"
       x="-0.94955398"
       y="-0.2118907"
       width="2.899108"
       height="1.4237814">
      <feGaussianBlur
         stdDeviation="0.2 0.2"
         result="blur"
         id="feGaussianBlur1692" />
    </filter>
    <filter
       style="color-interpolation-filters:sRGB;"
       inkscape:label="Blur"
       id="filter3148"
       x="-0.94955398"
       y="-0.2118907"
       width="2.899108"
       height="1.4237814">
      <feGaussianBlur
         stdDeviation="0.2 0.2"
         result="blur"
         id="feGaussianBlur3146" />
    </filter>
  </defs>
  <metadata
     id="metadata2">
    <rdf:RDF>
      <cc:Work
         rdf:about="">
        <dc:format>image/svg+xml</dc:format>
        <dc:type
           rdf:resource="http://purl.org/dc/dcmitype/StillImage" />
      </cc:Work>
    </rdf:RDF>
  </metadata>
  <rect
     style="fill:#000000;stroke:none;stroke-width:0.539739;stroke-dasharray:none;filter:url(#filter1283)"
     id="rect246-1"
     width="14.572964"
     height="14.572964"
     x="1.1932471"
     y="1.2138842"
     rx="2.1589575"
     ry="2.1589575" />
  <rect
     style="opacity:1;fill:#000000;stroke:url(#linearGradient885);stroke-width:0.52915625;stroke-dasharray:none"
     id="rect246"
     width="14.287219"
     height="14.287219"
     x="1.3361193"
     y="1.3567564"
     rx="2.1166251"
     ry="2.1166251" />
  <rect
     style="fill:url(#linearGradient1136);fill-opacity:1;stroke:none;stroke-width:0.478315;stroke-dasharray:none"
     id="rect246-5"
     width="12.914515"
     height="12.914515"
     x="2.0224717"
     y="2.0431087"
     rx="1.5874687"
     ry="1.5874687" />
  <path
     id="path10"
     style="fill:#999999;fill-opacity:1;stroke-width:0.0341189;stroke-opacity:0.3"
     d="M 8.5402597,3.9950255 C 7.2594852,3.9977083 6.0059359,4.6943701 5.3941176,5.9235699 5.1265871,6.461063 5.0315942,6.8771883 5.035566,7.4931528 c 0.0023,0.3579172 0.019387,0.5073148 0.089023,0.774536 0.3537957,1.3576767 1.4259659,2.3498372 2.8089239,2.5996992 0.5355756,0.09676 1.1902729,0.04694 1.7107078,-0.130456 C 11.377362,10.146122 12.367205,8.3710722 11.938289,6.6230311 11.744463,5.8330996 11.195953,5.0632427 10.486857,4.5853629 9.8893902,4.182716 9.2111417,3.9936199 8.5402597,3.9950255 Z m 0.018869,0.7359727 c 0.5041081,4.392e-4 0.5433641,0.00547 0.8360725,0.1074833 0.4912501,0.1711976 0.7457248,0.330003 1.1105238,0.6928976 0.266522,0.2651301 0.354628,0.3803333 0.484495,0.6334125 0.244308,0.4760969 0.313854,0.7622721 0.313013,1.2943116 -7.22e-4,0.5230943 -0.05035,0.7411744 -0.269937,1.193802 C 10.664779,9.4125167 9.9523911,9.9698184 9.1334672,10.1388 7.6315706,10.448711 6.2012863,9.5703689 5.8302025,8.110156 c -0.092978,-0.3658684 -0.092901,-0.9223857 0,-1.3099005 C 6.0154133,6.0276891 6.5565517,5.3566806 7.2799956,5.0029882 7.7564213,4.7700638 7.9431239,4.7304731 8.5591287,4.7309982 Z M 9.5391963,5.4989699 C 9.4777813,5.4979004 9.4144425,5.5155062 9.374689,5.5514816 9.3417587,5.5812797 9.1412558,5.9088546 8.9287563,6.2796595 8.5442107,6.9506813 8.5414421,6.9542558 8.3819045,7.0111199 8.1960077,7.0773796 8.0827558,7.2138844 8.057404,7.4029005 L 8.040177,7.5317162 7.194259,7.965341 C 6.7289897,8.2038844 6.3290544,8.4220772 6.3056753,8.4502464 c -0.03235,0.038985 -0.033335,0.071636 -0.00413,0.1357898 0.044021,0.096618 0.1858802,0.1146321 0.297015,0.037748 C 6.6355675,8.598174 7.0096806,8.4043154 7.4301155,8.1930303 8.1860874,7.8131215 8.1955776,7.8092138 8.2883442,7.8640119 8.4166029,7.9397751 8.6539027,7.9342996 8.7880187,7.8525244 8.9510822,7.7530988 9.0146156,7.6044589 8.9935499,7.3721315 L 8.9759099,7.1784978 9.3820493,6.46796 C 9.8008545,5.7352065 9.8146812,5.6953658 9.6930125,5.556814 9.6603128,5.5195783 9.6005889,5.500037 9.539172,5.4989695 Z M 8.5246694,7.2031127 c 0.24264,0 0.3655845,0.2769584 0.1944541,0.4377273 C 8.549329,7.8003534 8.272781,7.6911473 8.272781,7.4648466 c 0,-0.165917 0.092409,-0.2617339 0.2518884,-0.2617339 z" />
  <g
     aria-label="Krita"
     id="text1450"
     style="font-size:1.76385px;opacity:1;fill:#5555ff;stroke-width:0.529156">
    <rect
       style="font-size:1.76385px;fill:#5555ff;fill-opacity:1;stroke:none;stroke-width:0.519976;stroke-dasharray:none;filter:url(#filter3148)"
       id="rect1656-3"
       width="0.5055005"
       height="2.2653189"
       x="15.369148"
       y="4.3016486"
       rx="0"
       ry="0" />
    <rect
       style="opacity:1;fill:#5555ff;fill-opacity:1;stroke:none;stroke-width:0.519976;stroke-dasharray:none"
       id="rect1656"
       width="0.5055005"
       height="2.2653189"
       x="15.369148"
       y="4.3016486"
       rx="0"
       ry="0" />
  </g>
  <path
     d="M 3.9019086,14.179017 H 3.7431621 V 13.058972 H 3.3498235 v -0.139344 h 0.9436598 v 0.139344 H 3.9019086 Z M 4.5421857,12.87906 q 0.035277,0 0.061735,0.02469 0.028222,0.02293 0.028222,0.07408 0,0.04939 -0.028222,0.07408 -0.026458,0.02469 -0.061735,0.02469 -0.038805,0 -0.065263,-0.02469 -0.026458,-0.02469 -0.026458,-0.07408 0,-0.05115 0.026458,-0.07408 0.026458,-0.02469 0.065263,-0.02469 z m 0.075845,0.354533 v 0.945424 H 4.4628124 v -0.945424 z m 1.3369973,-0.01764 q 0.1605103,0 0.2398836,0.0829 0.079373,0.08114 0.079373,0.264577 v 0.615584 H 6.1208304 v -0.608528 q 0,-0.224009 -0.1922597,-0.224009 -0.1375803,0 -0.1975512,0.07937 -0.058207,0.07937 -0.058207,0.231064 v 0.5221 h -0.153455 v -0.608528 q 0,-0.224009 -0.1940235,-0.224009 -0.1428718,0 -0.1975512,0.08819 -0.054679,0.08819 -0.054679,0.253995 v 0.49035 H 4.9178847 V 13.233593 H 5.043118 l 0.02293,0.128762 h 0.00882 q 0.044096,-0.07408 0.118178,-0.109359 0.075846,-0.03704 0.1605103,-0.03704 0.2222451,0 0.2892714,0.158746 h 0.00882 q 0.047624,-0.08114 0.128761,-0.119941 0.082901,-0.0388 0.1746212,-0.0388 z m 0.9771719,0 q 0.1217057,0 0.2081343,0.05292 0.088192,0.05292 0.1340526,0.149928 0.047624,0.09525 0.047624,0.224009 v 0.09348 h -0.647333 q 0.00353,0.16051 0.081137,0.245175 0.079373,0.0829 0.2204813,0.0829 0.089956,0 0.1587465,-0.01588 0.070554,-0.01764 0.1446357,-0.04939 v 0.135817 q -0.072318,0.03175 -0.1428719,0.04586 -0.070554,0.01588 -0.1675657,0.01588 -0.1340526,0 -0.2381198,-0.05468 -0.1023033,-0.05468 -0.1605103,-0.162274 -0.056443,-0.109359 -0.056443,-0.266341 0,-0.155219 0.051152,-0.266342 0.052916,-0.111122 0.1463996,-0.171093 0.095248,-0.05997 0.2204812,-0.05997 z m -0.00176,0.126997 q -0.1111226,0 -0.176385,0.07232 -0.063499,0.07055 -0.075846,0.197551 h 0.4815311 q -0.00176,-0.119942 -0.056443,-0.194023 -0.054679,-0.07585 -0.1728573,-0.07585 z M 8.406778,12.900226 q 0.141108,0 0.222245,0.07232 0.082901,0.07055 0.082901,0.199315 0,0.111122 -0.072318,0.188732 -0.070554,0.07761 -0.1799126,0.141108 l 0.340423,0.328076 q 0.04586,-0.05468 0.074082,-0.125234 0.029985,-0.07232 0.049388,-0.155218 h 0.1569826 q -0.028222,0.112886 -0.070554,0.209898 -0.042332,0.09701 -0.1093587,0.169329 L 9.158178,14.179017 H 8.9482799 l -0.153455,-0.148163 q -0.082901,0.07408 -0.1852042,0.119941 -0.1023033,0.04586 -0.2487028,0.04586 -0.1816766,0 -0.2892714,-0.08996 -0.1075949,-0.08996 -0.1075949,-0.255758 0,-0.135816 0.072318,-0.216954 0.074082,-0.0829 0.199315,-0.153455 -0.056443,-0.0635 -0.105831,-0.135816 -0.047624,-0.07232 -0.047624,-0.16933 0,-0.130524 0.086429,-0.202842 0.088192,-0.07232 0.2381198,-0.07232 z m -0.00529,0.126997 q -0.074082,0 -0.1217056,0.0388 -0.04586,0.0388 -0.04586,0.107595 0,0.0635 0.033513,0.118178 0.033513,0.05292 0.097012,0.118177 0.1040671,-0.05997 0.1481634,-0.112886 0.04586,-0.05468 0.04586,-0.125233 0,-0.0635 -0.042332,-0.104067 -0.042332,-0.04057 -0.1146503,-0.04057 z m -0.072318,0.550321 q -0.095248,0.05644 -0.1499273,0.11465 -0.052915,0.05821 -0.052915,0.153455 0,0.09701 0.065262,0.155219 0.065262,0.05821 0.1746211,0.05821 0.1128864,0 0.1940235,-0.03704 0.081137,-0.03704 0.1358164,-0.08819 z m 2.4711544,-0.04057 q 0,0.319257 -0.174621,0.481531 -0.172857,0.16051 -0.483295,0.16051 H 9.7914011 v -1.259389 h 0.3880469 q 0.190496,0 0.32984,0.07055 0.139344,0.07055 0.21519,0.208134 0.07585,0.135817 0.07585,0.33866 z m -0.167565,0.0053 q 0,-0.25223 -0.125234,-0.368644 -0.123469,-0.118178 -0.351006,-0.118178 H 9.9501476 v 0.987756 h 0.1710934 q 0.511517,0 0.511517,-0.500934 z m 0.783148,-0.324548 q 0.172857,0 0.255758,0.07584 0.0829,0.07585 0.0829,0.241648 v 0.643805 h -0.112886 l -0.02999,-0.134053 h -0.0071 q -0.06173,0.07761 -0.130525,0.114651 -0.06703,0.03704 -0.186968,0.03704 -0.128761,0 -0.213426,-0.06703 -0.08467,-0.06879 -0.08467,-0.213426 0,-0.141108 0.111123,-0.216953 0.111122,-0.07761 0.342187,-0.08466 l 0.16051,-0.0053 v -0.05644 q 0,-0.118178 -0.05115,-0.164038 -0.05115,-0.04586 -0.144636,-0.04586 -0.07408,0 -0.141108,0.02293 -0.06703,0.02117 -0.125234,0.04939 l -0.04762,-0.116414 q 0.06173,-0.03351 0.146399,-0.05644 0.08466,-0.02469 0.176385,-0.02469 z m 0.04586,0.504461 q -0.176385,0.0071 -0.245175,0.05644 -0.06703,0.04939 -0.06703,0.139344 0,0.07937 0.04762,0.116414 0.04939,0.03704 0.125233,0.03704 0.119942,0 0.199315,-0.06526 0.07937,-0.06703 0.07937,-0.204607 v -0.08466 z m 0.901329,0.347478 q 0.03528,0 0.07232,-0.0053 0.03704,-0.0071 0.05997,-0.01411 v 0.118178 q -0.02469,0.01235 -0.07055,0.0194 -0.04586,0.0088 -0.08819,0.0088 -0.07408,0 -0.13758,-0.02469 -0.06174,-0.02646 -0.10054,-0.08996 -0.0388,-0.0635 -0.0388,-0.178149 V 13.353535 H 11.92566 v -0.07408 l 0.135816,-0.06173 0.06173,-0.201079 h 0.09172 v 0.216953 h 0.273397 v 0.119942 h -0.273397 v 0.546794 q 0,0.08643 0.04057,0.128761 0.04233,0.04057 0.107595,0.04057 z m 0.686138,-0.853703 q 0.121705,0 0.208134,0.05292 0.08819,0.05292 0.134053,0.149928 0.04762,0.09525 0.04762,0.224009 v 0.09348 h -0.647333 q 0.0035,0.16051 0.08114,0.245175 0.07937,0.0829 0.220481,0.0829 0.08996,0 0.158746,-0.01588 0.07055,-0.01764 0.144636,-0.04939 v 0.135817 q -0.07232,0.03175 -0.142872,0.04586 -0.07055,0.01588 -0.167565,0.01588 -0.134053,0 -0.23812,-0.05468 -0.102303,-0.05468 -0.160511,-0.162274 -0.05644,-0.109359 -0.05644,-0.266341 0,-0.155219 0.05115,-0.266342 0.05292,-0.111122 0.146399,-0.171093 0.09525,-0.05997 0.220482,-0.05997 z m -0.0018,0.126997 q -0.111123,0 -0.176385,0.07232 -0.0635,0.07055 -0.07585,0.197551 h 0.481531 q -0.0018,-0.119942 -0.05644,-0.194023 -0.05468,-0.07585 -0.172857,-0.07585 z"
     id="text2284"
     style="font-size:1.76385px;fill:#999999;stroke-width:0.529156"
     aria-label="Time &amp; Date" />
  <text
     xml:space="preserve"
     transform="scale(0.26457812)"
     id="text3806"
     style="fill:#999999;stroke-width:2;font-size:6.66666667px;white-space:pre;shape-inside:url(#rect3808)" />
</svg>
