<?xml version="1.0" encoding="UTF-8" standalone="no"?>
<svg
   width="64"
   height="64"
   version="1.1"
   viewBox="0 0 16.933 16.933"
   id="svg7"
   sodipodi:docname="Development Template.svg"
   inkscape:version="1.4 (e7c3feb100, 2024-10-09)"
   xmlns:inkscape="http://www.inkscape.org/namespaces/inkscape"
   xmlns:sodipodi="http://sodipodi.sourceforge.net/DTD/sodipodi-0.dtd"
   xmlns:xlink="http://www.w3.org/1999/xlink"
   xmlns="http://www.w3.org/2000/svg"
   xmlns:svg="http://www.w3.org/2000/svg"
   xmlns:rdf="http://www.w3.org/1999/02/22-rdf-syntax-ns#"
   xmlns:cc="http://creativecommons.org/ns#"
   xmlns:dc="http://purl.org/dc/elements/1.1/">
  <sodipodi:namedview
     id="namedview7"
     pagecolor="#9c4444"
     bordercolor="#000000"
     borderopacity="0.25"
     inkscape:showpageshadow="2"
     inkscape:pageopacity="0.0"
     inkscape:pagecheckerboard="0"
     inkscape:deskcolor="#d1d1d1"
     inkscape:zoom="6.15625"
     inkscape:cx="15.756345"
     inkscape:cy="29.563452"
     inkscape:window-width="1226"
     inkscape:window-height="669"
     inkscape:window-x="278"
     inkscape:window-y="140"
     inkscape:window-maximized="0"
     inkscape:current-layer="svg7"
     showgrid="false" />
  <defs
     id="defs2">
    <rect
       x="67.489848"
       y="35.60533"
       width="15.337563"
       height="22.51269"
       id="rect3808" />
    <linearGradient
       inkscape:collect="always"
       id="linearGradient1134">
      <stop
         style="stop-color:#161616;stop-opacity:1;"
         offset="0"
         id="stop1130" />
      <stop
         style="stop-color:#404040;stop-opacity:1;"
         offset="1"
         id="stop1132" />
    </linearGradient>
    <linearGradient
       inkscape:collect="always"
       id="linearGradient883">
      <stop
         style="stop-color:#808080;stop-opacity:1;"
         offset="0"
         id="stop879" />
      <stop
         style="stop-color:#3e3e3e;stop-opacity:1;"
         offset="0.5"
         id="stop1216" />
      <stop
         style="stop-color:#242424;stop-opacity:1;"
         offset="1"
         id="stop881" />
    </linearGradient>
    <linearGradient
       inkscape:collect="always"
       xlink:href="#linearGradient883"
       id="linearGradient885"
       x1="2.1085808"
       y1="2.0236168"
       x2="14.846128"
       y2="15.071845"
       gradientUnits="userSpaceOnUse" />
    <linearGradient
       inkscape:collect="always"
       xlink:href="#linearGradient1134"
       id="linearGradient1136"
       x1="14.971222"
       y1="14.703373"
       x2="2.0756054"
       y2="2.0069976"
       gradientUnits="userSpaceOnUse" />
    <filter
       style="color-interpolation-filters:sRGB;"
       inkscape:label="Blur"
       id="filter1283"
       x="-0.082344266"
       y="-0.082344266"
       width="1.1646885"
       height="1.1646885">
      <feGaussianBlur
         stdDeviation="0.5 0.5"
         result="blur"
         id="feGaussianBlur1281" />
    </filter>
    <filter
       style="color-interpolation-filters:sRGB;"
       inkscape:label="Blur"
       id="filter1694"
       x="-0.94955398"
       y="-0.2118907"
       width="2.899108"
       height="1.4237814">
      <feGaussianBlur
         stdDeviation="0.2 0.2"
         result="blur"
         id="feGaussianBlur1692" />
    </filter>
    <filter
       style="color-interpolation-filters:sRGB;"
       inkscape:label="Blur"
       id="filter3148"
       x="-0.94955398"
       y="-0.2118907"
       width="2.899108"
       height="1.4237814">
      <feGaussianBlur
         stdDeviation="0.2 0.2"
         result="blur"
         id="feGaussianBlur3146" />
    </filter>
    <clipPath
       clipPathUnits="userSpaceOnUse"
       id="clipPath44">
      <path
         id="path46"
         style="display:block;opacity:0.85;fill:#f2f2f2;stroke-width:4.39162"
         d="m 17.570312,8.4453125 a 6.5431988,7.4283052 9.9958727e-8 0 0 -6.535156,7.4394535 6.5431988,7.4283052 9.9958727e-8 0 0 6.552735,7.417968 6.5431988,7.4283052 9.9958727e-8 0 0 6.535156,-7.4375 6.5431988,7.4283052 9.9958727e-8 0 0 -6.552735,-7.4199215 z M 45.646484,41.177734 a 6.5431986,7.0703472 2.4665357e-6 0 0 -6.533203,7.080078 6.5431986,7.0703472 2.4665357e-6 0 0 6.550781,7.060547 6.5431986,7.0703472 2.4665357e-6 0 0 6.535157,-7.080078 6.5431986,7.0703472 2.4665357e-6 0 0 -6.552735,-7.060547 z" />
    </clipPath>
    <inkscape:path-effect
       effect="powerclip"
       id="path-effect48"
       is_visible="true"
       lpeversion="1"
       inverse="true"
       flatten="false"
       hide_clip="false"
       message="" />
  </defs>
  <metadata
     id="metadata2">
    <rdf:RDF>
      <cc:Work
         rdf:about="">
        <dc:format>image/svg+xml</dc:format>
        <dc:type
           rdf:resource="http://purl.org/dc/dcmitype/StillImage" />
      </cc:Work>
    </rdf:RDF>
  </metadata>
  <rect
     style="fill:#000000;stroke:none;stroke-width:0.539739;stroke-dasharray:none;filter:url(#filter1283)"
     id="rect246-1"
     width="14.572964"
     height="14.572964"
     x="1.1932471"
     y="1.2138842"
     rx="2.1589575"
     ry="2.1589575" />
  <rect
     style="opacity:1;fill:#000000;stroke:url(#linearGradient885);stroke-width:0.52915625;stroke-dasharray:none"
     id="rect246"
     width="14.287219"
     height="14.287219"
     x="1.3361193"
     y="1.3567564"
     rx="2.1166251"
     ry="2.1166251" />
  <rect
     style="fill:url(#linearGradient1136);fill-opacity:1;stroke:none;stroke-width:0.478315;stroke-dasharray:none"
     id="rect246-5"
     width="12.914515"
     height="12.914515"
     x="2.0224717"
     y="2.0431087"
     rx="1.5874687"
     ry="1.5874687" />
  <g
     fill="#474747"
     id="g9"
     transform="matrix(0.46959567,0,0,0.46959567,4.7471229,3.7470598)"
     style="fill:#999999;fill-opacity:1;stroke:none;stroke-width:0.58349;stroke-dasharray:none;stroke-opacity:0.3" />
  <g
     aria-label="Krita"
     id="text1450"
     style="font-size:1.76385px;opacity:1;fill:#8a916f;stroke-width:0.529156">
    <rect
       style="font-size:1.76385px;fill:#8a916f;fill-opacity:1;stroke:none;stroke-width:0.519976;stroke-dasharray:none;filter:url(#filter3148)"
       id="rect1656-3"
       width="0.5055005"
       height="2.2653189"
       x="15.369148"
       y="4.3016486"
       rx="0"
       ry="0" />
    <rect
       style="opacity:1;fill:#8a916f;fill-opacity:1;stroke:none;stroke-width:0.519976;stroke-dasharray:none"
       id="rect1656"
       width="0.5055005"
       height="2.2653189"
       x="15.369148"
       y="4.3016486"
       rx="0"
       ry="0" />
  </g>
  <text
     xml:space="preserve"
     transform="scale(0.26457812)"
     id="text3806"
     style="font-size:6.66667px;white-space:pre;shape-inside:url(#rect3808);display:inline;fill:#999999;stroke-width:2" />
  <path
     d="m 8.1929657,7.2030386 q 0,1.1763733 -0.6434307,1.7743089 Q 6.9126036,9.5687838 5.7687268,9.5687838 H 4.4753661 V 4.9282836 h 1.429846 q 0.7019244,0 1.2153691,0.259972 0.5134447,0.259972 0.7929146,0.7669174 0.2794699,0.5004461 0.2794699,1.2478656 z m -0.6174335,0.019498 q 0,-0.9293999 -0.4614503,-1.3583537 Q 6.6591309,5.4287297 5.8207212,5.4287297 H 5.0603031 v 3.639608 h 0.6304321 q 1.884797,0 1.884797,-1.8458012 z M 12.424006,4.9282836 10.766684,9.5687838 H 10.181747 L 8.5244255,4.9282836 H 9.1353597 L 10.181747,7.904963 q 0.103989,0.2859692 0.175481,0.5394419 0.07149,0.2469734 0.116988,0.4744489 0.04549,-0.2274755 0.116987,-0.4809482 0.07149,-0.2534727 0.175481,-0.5459412 l 1.039888,-2.9636808 z"
     id="text1"
     style="font-size:6.4993px;opacity:1;fill:#999999;stroke-width:0.487445;stroke-opacity:0.6"
     aria-label="DV" />
  <path
     d="m 4.1051484,13.497443 q 0,0.319257 -0.1746212,0.481531 -0.1728573,0.16051 -0.4832949,0.16051 H 3.0962262 v -1.259388 h 0.388047 q 0.1904958,0 0.3298399,0.07055 0.1393442,0.07055 0.2151897,0.208134 0.075846,0.135816 0.075846,0.338659 z m -0.1675658,0.0053 q 0,-0.252231 -0.1252333,-0.368645 Q 3.6888798,13.015912 3.4613431,13.015912 H 3.2549727 v 0.987756 h 0.1710934 q 0.5115165,0 0.5115165,-0.500933 z m 0.3457138,0.232828 v -0.137581 h 0.4268517 v 0.137581 z m 1.0283255,-0.855467 q 0.2363559,0 0.3562977,0.07055 0.1217057,0.06879 0.1217057,0.241647 0,0.111123 -0.061735,0.185204 -0.061735,0.07232 -0.1781488,0.09348 v 0.0088 q 0.079373,0.01235 0.1428718,0.04586 0.065263,0.03351 0.1023033,0.09525 0.037041,0.06173 0.037041,0.16051 0,0.171093 -0.118178,0.264577 -0.1164141,0.09348 -0.3192568,0.09348 H 4.9517965 v -1.259388 z m 0.031749,0.53621 q 0.1622742,0 0.2222451,-0.05115 0.059971,-0.05292 0.059971,-0.155219 0,-0.104067 -0.074082,-0.148163 -0.072318,-0.04586 -0.2328282,-0.04586 H 5.110543 v 0.400394 z M 5.110543,13.548595 v 0.456837 h 0.2539944 q 0.1675658,0 0.2328282,-0.06526 0.065263,-0.06526 0.065263,-0.171093 0,-0.09878 -0.06879,-0.158747 -0.067026,-0.06173 -0.2416474,-0.06173 z m 1.7567939,-0.354534 v 0.945423 H 6.7403397 l -0.02293,-0.125233 h -0.00706 q -0.04586,0.07408 -0.1269972,0.109359 -0.081137,0.03351 -0.1728573,0.03351 -0.1710934,0 -0.2575221,-0.08114 -0.086429,-0.0829 -0.086429,-0.262814 v -0.619111 h 0.1569826 v 0.608528 q 0,0.225773 0.2098982,0.225773 0.1569826,0 0.2169535,-0.08819 0.061735,-0.08819 0.061735,-0.253994 v -0.492114 z m 0.9154379,0.684374 q 0,0.13758 -0.1023033,0.208134 -0.1023033,0.07055 -0.2751606,0.07055 -0.098776,0 -0.1710935,-0.01588 -0.070554,-0.01587 -0.1252333,-0.0441 v -0.141108 q 0.056443,0.02822 0.1358164,0.05292 0.081137,0.02293 0.1640381,0.02293 0.1181779,0 0.1710934,-0.03704 0.052915,-0.0388 0.052915,-0.102304 0,-0.03528 -0.019402,-0.0635 -0.019402,-0.02822 -0.070554,-0.05644 -0.049388,-0.02822 -0.1428719,-0.0635 -0.09172,-0.03528 -0.1569826,-0.07055 -0.065263,-0.03528 -0.1005395,-0.08466 -0.035277,-0.04939 -0.035277,-0.126997 0,-0.119942 0.097012,-0.185204 0.098776,-0.06526 0.2575221,-0.06526 0.086429,0 0.1605103,0.01764 0.075846,0.01587 0.141108,0.04586 l -0.052916,0.123469 q -0.059971,-0.02469 -0.1252333,-0.04233 -0.065263,-0.01764 -0.1340526,-0.01764 -0.095248,0 -0.1463996,0.03175 -0.049388,0.02998 -0.049388,0.0829 0,0.0388 0.02293,0.06703 0.02293,0.02646 0.075845,0.05292 0.054679,0.02469 0.1446357,0.05997 0.089956,0.03351 0.153455,0.06879 0.063499,0.03528 0.097012,0.08643 0.033513,0.04939 0.033513,0.125234 z M 9.3790597,12.880096 8.929278,14.139484 H 8.7705315 L 8.3207498,12.880096 h 0.1658019 l 0.2839798,0.807843 q 0.028222,0.07761 0.047624,0.146399 0.019402,0.06703 0.031749,0.128761 0.012347,-0.06173 0.031749,-0.130524 0.019402,-0.06879 0.047624,-0.148164 l 0.282216,-0.804315 z m 0.2293011,-0.04057 q 0.035277,0 0.061735,0.02469 0.028222,0.02293 0.028222,0.07408 0,0.04939 -0.028222,0.07408 -0.026458,0.02469 -0.061735,0.02469 -0.038805,0 -0.065262,-0.02469 -0.026458,-0.02469 -0.026458,-0.07408 0,-0.05115 0.026458,-0.07408 0.026458,-0.02469 0.065262,-0.02469 z m 0.075845,0.354534 v 0.945423 H 9.5289875 v -0.945423 z m 0.6649707,-0.01764 q 0.121706,0 0.208134,0.05292 0.08819,0.05292 0.134053,0.149927 0.04762,0.09525 0.04762,0.224009 v 0.09348 h -0.647333 q 0.0035,0.16051 0.08114,0.245175 0.07937,0.0829 0.220481,0.0829 0.08996,0 0.158747,-0.01587 0.07055,-0.01764 0.144635,-0.04939 v 0.135816 q -0.07232,0.03175 -0.142872,0.04586 -0.07055,0.01588 -0.167565,0.01588 -0.134053,0 -0.23812,-0.05468 -0.102303,-0.05468 -0.1605104,-0.162275 -0.056443,-0.109358 -0.056443,-0.266341 0,-0.155219 0.051152,-0.266341 0.052916,-0.111123 0.1463999,-0.171094 0.09525,-0.05997 0.220481,-0.05997 z m -0.0018,0.126998 q -0.111123,0 -0.176385,0.07232 -0.0635,0.07055 -0.07585,0.197552 h 0.481532 q -0.0018,-0.119942 -0.05644,-0.194024 -0.05468,-0.07585 -0.172857,-0.07585 z m 1.206471,0.301618 q -0.02293,-0.07232 -0.04057,-0.141108 -0.01587,-0.07055 -0.02469,-0.109359 h -0.0071 q -0.0071,0.0388 -0.02293,0.109359 -0.01587,0.06879 -0.04057,0.142872 l -0.16933,0.530919 h -0.176385 l -0.259286,-0.945424 h 0.160511 l 0.130525,0.504461 q 0.0194,0.07585 0.03704,0.153455 0.01764,0.07761 0.02469,0.128761 h 0.0071 q 0.0071,-0.02998 0.01587,-0.07408 0.01058,-0.0441 0.02293,-0.09172 0.01235,-0.04939 0.02469,-0.08819 l 0.167566,-0.532683 h 0.16933 l 0.162274,0.532683 q 0.0194,0.05997 0.03704,0.130525 0.0194,0.07055 0.02646,0.121705 h 0.0071 q 0.0053,-0.0441 0.02293,-0.121705 0.0194,-0.07761 0.04057,-0.158747 l 0.132289,-0.504461 h 0.158747 l -0.262814,0.945424 h -0.181677 z m 1.14121,-0.428616 q 0.121706,0 0.208134,0.05292 0.08819,0.05292 0.134053,0.149927 0.04762,0.09525 0.04762,0.224009 v 0.09348 h -0.647333 q 0.0035,0.16051 0.08114,0.245175 0.07937,0.0829 0.220481,0.0829 0.08996,0 0.158747,-0.01587 0.07055,-0.01764 0.144636,-0.04939 v 0.135816 q -0.07232,0.03175 -0.142872,0.04586 -0.07055,0.01588 -0.167566,0.01588 -0.134053,0 -0.23812,-0.05468 -0.102303,-0.05468 -0.16051,-0.162275 -0.05644,-0.109358 -0.05644,-0.266341 0,-0.155219 0.05115,-0.266341 0.05292,-0.111123 0.1464,-0.171094 0.09525,-0.05997 0.220481,-0.05997 z m -0.0018,0.126998 q -0.111122,0 -0.176385,0.07232 -0.0635,0.07055 -0.07584,0.197552 h 0.481531 q -0.0018,-0.119942 -0.05644,-0.194024 -0.05468,-0.07585 -0.172858,-0.07585 z m 1.07242,-0.126998 q 0.02646,0 0.05644,0.0035 0.03175,0.0018 0.05468,0.0071 l -0.0194,0.142872 q -0.02293,-0.0053 -0.05115,-0.0088 -0.02646,-0.0035 -0.05115,-0.0035 -0.07232,0 -0.135817,0.04057 -0.0635,0.0388 -0.102303,0.111122 -0.03704,0.07055 -0.03704,0.165802 v 0.504461 h -0.155219 v -0.945423 h 0.126997 l 0.01764,0.172857 h 0.0071 q 0.04586,-0.07761 0.118178,-0.134052 0.07232,-0.05644 0.171094,-0.05644 z"
     id="text2"
     style="font-size:1.76385px;fill:#999999;stroke-width:0.132289;stroke-opacity:0.6"
     aria-label="D-Bus Viewer" />
</svg>
