<?xml version="1.0" encoding="UTF-8" standalone="no"?>
<svg
   width="64"
   height="64"
   version="1.1"
   viewBox="0 0 16.933 16.933"
   id="svg7"
   sodipodi:docname="repoman.svg"
   inkscape:version="1.4 (e7c3feb100, 2024-10-09)"
   xmlns:inkscape="http://www.inkscape.org/namespaces/inkscape"
   xmlns:sodipodi="http://sodipodi.sourceforge.net/DTD/sodipodi-0.dtd"
   xmlns:xlink="http://www.w3.org/1999/xlink"
   xmlns="http://www.w3.org/2000/svg"
   xmlns:svg="http://www.w3.org/2000/svg"
   xmlns:rdf="http://www.w3.org/1999/02/22-rdf-syntax-ns#"
   xmlns:cc="http://creativecommons.org/ns#"
   xmlns:dc="http://purl.org/dc/elements/1.1/">
  <sodipodi:namedview
     id="namedview7"
     pagecolor="#9c4444"
     bordercolor="#000000"
     borderopacity="0.25"
     inkscape:showpageshadow="2"
     inkscape:pageopacity="0.0"
     inkscape:pagecheckerboard="0"
     inkscape:deskcolor="#d1d1d1"
     inkscape:zoom="4.3531261"
     inkscape:cx="15.735818"
     inkscape:cy="43.072494"
     inkscape:window-width="1183"
     inkscape:window-height="973"
     inkscape:window-x="35"
     inkscape:window-y="32"
     inkscape:window-maximized="0"
     inkscape:current-layer="svg7"
     showgrid="false" />
  <defs
     id="defs2">
    <linearGradient
       inkscape:collect="always"
       id="linearGradient1134">
      <stop
         style="stop-color:#161616;stop-opacity:1;"
         offset="0"
         id="stop1130" />
      <stop
         style="stop-color:#404040;stop-opacity:1;"
         offset="1"
         id="stop1132" />
    </linearGradient>
    <linearGradient
       inkscape:collect="always"
       id="linearGradient883">
      <stop
         style="stop-color:#808080;stop-opacity:1;"
         offset="0"
         id="stop879" />
      <stop
         style="stop-color:#3e3e3e;stop-opacity:1;"
         offset="0.5"
         id="stop1216" />
      <stop
         style="stop-color:#242424;stop-opacity:1;"
         offset="1"
         id="stop881" />
    </linearGradient>
    <linearGradient
       inkscape:collect="always"
       xlink:href="#linearGradient883"
       id="linearGradient885"
       x1="2.1085808"
       y1="2.0236168"
       x2="14.846128"
       y2="15.071845"
       gradientUnits="userSpaceOnUse" />
    <linearGradient
       inkscape:collect="always"
       xlink:href="#linearGradient1134"
       id="linearGradient1136"
       x1="14.971222"
       y1="14.703373"
       x2="2.0756054"
       y2="2.0069976"
       gradientUnits="userSpaceOnUse" />
    <filter
       style="color-interpolation-filters:sRGB;"
       inkscape:label="Blur"
       id="filter1283"
       x="-0.082344266"
       y="-0.082344266"
       width="1.1646885"
       height="1.1646885">
      <feGaussianBlur
         stdDeviation="0.5 0.5"
         result="blur"
         id="feGaussianBlur1281" />
    </filter>
    <filter
       style="color-interpolation-filters:sRGB;"
       inkscape:label="Blur"
       id="filter1694"
       x="-0.94955398"
       y="-0.2118907"
       width="2.899108"
       height="1.4237814">
      <feGaussianBlur
         stdDeviation="0.2 0.2"
         result="blur"
         id="feGaussianBlur1692" />
    </filter>
    <filter
       style="color-interpolation-filters:sRGB;"
       inkscape:label="Blur"
       id="filter3335"
       x="-0.94955398"
       y="-0.2118907"
       width="2.899108"
       height="1.4237814">
      <feGaussianBlur
         stdDeviation="0.2 0.2"
         result="blur"
         id="feGaussianBlur3333" />
    </filter>
  </defs>
  <metadata
     id="metadata2">
    <rdf:RDF>
      <cc:Work
         rdf:about="">
        <dc:format>image/svg+xml</dc:format>
        <dc:type
           rdf:resource="http://purl.org/dc/dcmitype/StillImage" />
      </cc:Work>
    </rdf:RDF>
  </metadata>
  <rect
     style="fill:#000000;stroke:none;stroke-width:0.539739;stroke-dasharray:none;filter:url(#filter1283)"
     id="rect246-1"
     width="14.572964"
     height="14.572964"
     x="1.1932471"
     y="1.2138842"
     rx="2.1589575"
     ry="2.1589575" />
  <rect
     style="opacity:1;fill:#000000;stroke:url(#linearGradient885);stroke-width:0.52915625;stroke-dasharray:none"
     id="rect246"
     width="14.287219"
     height="14.287219"
     x="1.3361193"
     y="1.3567564"
     rx="2.1166251"
     ry="2.1166251" />
  <g
     aria-label="Krita"
     id="text1450"
     style="font-size:1.76385px;opacity:1;fill:#999999;stroke-width:0.529156">
    <rect
       style="font-size:1.76385px;fill:#ff0000;fill-opacity:1;stroke:none;stroke-width:0.519976;stroke-dasharray:none;filter:url(#filter3335)"
       id="rect1656-0"
       width="0.5055005"
       height="2.2653189"
       x="15.369148"
       y="4.3016486"
       rx="0"
       ry="0" />
    <rect
       style="opacity:1;fill:#ff0000;fill-opacity:1;stroke:none;stroke-width:0.519976;stroke-dasharray:none"
       id="rect1656"
       width="0.5055005"
       height="2.2653189"
       x="15.369148"
       y="4.3016486"
       rx="0"
       ry="0" />
  </g>
  <rect
     style="fill:url(#linearGradient1136);fill-opacity:1;stroke:none;stroke-width:0.478315;stroke-dasharray:none"
     id="rect246-5"
     width="12.914515"
     height="12.914515"
     x="2.0224717"
     y="2.0431087"
     rx="1.5874687"
     ry="1.5874687" />
  <g
     id="g3476"
     transform="matrix(0.25415269,0,0,0.25415269,0.33094758,-0.46791379)"
     style="fill:#999999;fill-opacity:1">
    <path
       d="m 37.65872,16.769586 c 0.709091,-0.184546 1.437273,-0.201819 2.128182,-0.147273 l -2.472727,4.192727 a 1.7727273,1.7727273 0 0 0 0.643636,2.450909 l 1.590909,0.923637 a 1.8,1.8 0 0 0 2.466364,-0.642728 l 2.472727,-4.191818 c 0.385455,0.570909 0.727273,1.210909 0.911818,1.914546 0.884546,3.368181 -1.148181,6.814545 -4.539091,7.697272 -0.70909,0.184546 -1.437272,0.201819 -2.128181,0.147273 l -1.459091,2.027273 -6.199091,-0.04182 c 0,0 2.760909,-4.685455 2.958182,-4.718182 -0.385455,-0.570909 -0.727273,-1.21 -0.912728,-1.913637 -0.884545,-3.368181 1.148182,-6.815454 4.539091,-7.698181 z"
       color="#000000"
       fill="#ffffff"
       style="text-indent:0;text-decoration-line:none;text-transform:none;fill:#999999;fill-opacity:1;stroke-width:0.909091"
       id="path3310" />
    <path
       d="m 23.076902,17.860495 c -0.418182,0.08545 -0.806364,0.238182 -1.190909,0.398182 -0.03091,1.134545 0.157273,2.620909 -0.284546,3.010909 -0.433636,0.383636 -1.884545,0.06273 -3.006363,-0.05727 a 6.6,6.6 0 0 0 -0.567273,1.363636 c 0.867273,0.72 2.07,1.525455 2.099091,2.102728 0.02818,0.583636 -1.137273,1.463636 -1.929091,2.272727 0.187273,0.469091 0.454546,0.897273 0.737273,1.306363 1.104545,-0.22909 2.480909,-0.67909 2.95,-0.340909 0.478182,0.345455 0.481818,1.828182 0.624545,2.954546 0.452728,0.136364 0.93,0.190909 1.418182,0.227273 0.510909,-1.008182 1.03,-2.4 1.588182,-2.556364 0.573636,-0.161818 1.75,0.832727 2.723636,1.42 a 6.7636364,6.7636364 0 0 0 1.078182,-0.965455 C 28.856902,27.955952 28.00872,26.64777 28.239629,26.09868 c 0.230909,-0.549091 1.770909,-0.853637 2.836364,-1.25 0.0073,-0.133637 0.05727,-0.261819 0.05727,-0.397273 0,-0.348182 -0.06273,-0.689091 -0.113637,-1.022727 -1.1,-0.292728 -2.663636,-0.439091 -2.95,-0.966364 -0.284545,-0.523636 0.439091,-1.929091 0.793637,-3.010909 A 6.6927273,6.6927273 0 0 0 27.672354,18.59868 c -0.909091,0.681818 -1.969091,1.80909 -2.553637,1.704545 -0.574545,-0.101818 -1.202727,-1.49 -1.815454,-2.442727 -0.07273,0.01273 -0.154546,-0.01455 -0.227273,0 z m 1.134545,3.409091 c 1.691819,0 3.063637,1.373636 3.063637,3.068181 0,1.694546 -1.371818,3.068182 -3.063637,3.068182 -1.691818,0 -3.063636,-1.373636 -3.063636,-3.068182 0,-1.694545 1.371818,-3.068181 3.063636,-3.068181 z"
       color="#000000"
       fill="#ffffff"
       id="path3312"
       style="fill:#999999;fill-opacity:1;stroke-width:0.909091" />
    <path
       d="m 21.985993,32.91504 0.01454,10.909091 c 0,1.036364 0.837273,1.818182 1.816364,1.818182 h 14.530909 c 0.95,0 1.807273,-0.809091 1.807273,-1.704545 L 40.140538,32.91504 Z m 7.272727,0.909091 h 3.636364 v 4.545455 h 1.704545 l -3.522727,4.545454 -3.522727,-4.545454 h 1.704545 z m -1.413636,10 h 6.463636 c 0.223637,0 0.404546,0.180909 0.404546,0.404546 v 0.1 a 0.40454545,0.40454545 0 0 1 -0.404546,0.404545 h -6.463636 a 0.40454545,0.40454545 0 0 1 -0.404546,-0.404545 v -0.1 c 0,-0.223637 0.18091,-0.404546 0.404546,-0.404546 z"
       color="#bebebe"
       fill="#ffffff"
       id="path3314"
       style="fill:#999999;fill-opacity:1;stroke-width:0.909091" />
  </g>
  <g
     aria-label="Terminal"
     id="text2284"
     style="font-size:1.76385px;opacity:1;fill:#999999;stroke-width:0.529156">
    <g
       aria-label="Repositories"
       id="text1117"
       style="text-align:center;text-anchor:middle;stroke-width:0.140003">
      <path
         d="m 3.7906559,12.899456 q 0.2345921,0 0.3457146,0.08996 0.1128864,0.08819 0.1128864,0.268106 0,0.100539 -0.037041,0.167565 -0.037041,0.06703 -0.095248,0.107595 -0.056443,0.0388 -0.1199418,0.06173 L 4.342741,14.158845 H 4.1575367 L 3.8523907,13.638509 H 3.601924 v 0.520336 H 3.4431775 v -1.259389 z m -0.00882,0.13758 H 3.601924 v 0.467421 h 0.1887319 q 0.153455,0 0.224009,-0.05997 0.070554,-0.06173 0.070554,-0.179913 0,-0.123469 -0.074082,-0.174621 -0.074082,-0.05292 -0.2293005,-0.05292 z"
         id="path3977" />
      <path
         d="m 4.8842424,13.195783 q 0.1217057,0 0.2081343,0.05291 0.088192,0.05292 0.1340526,0.149928 0.047624,0.09525 0.047624,0.224009 v 0.09348 h -0.647333 q 0.00353,0.16051 0.081137,0.245175 0.079373,0.0829 0.2204813,0.0829 0.089956,0 0.1587465,-0.01587 0.070554,-0.01764 0.1446357,-0.04939 v 0.135817 q -0.072318,0.03175 -0.1428719,0.04586 -0.070554,0.01587 -0.1675657,0.01587 -0.1340526,0 -0.2381198,-0.05468 Q 4.5808602,14.067125 4.5226532,13.95953 4.46621,13.850171 4.46621,13.693189 q 0,-0.155219 0.051152,-0.266342 0.052916,-0.111122 0.1463996,-0.171093 0.095248,-0.05997 0.2204812,-0.05997 z m -0.00176,0.126997 q -0.1111226,0 -0.176385,0.07232 -0.063499,0.07055 -0.075846,0.197551 h 0.4815311 q -0.00176,-0.119942 -0.056443,-0.194023 -0.054679,-0.07585 -0.1728573,-0.07585 z"
         id="path3979" />
      <path
         d="m 5.9637172,13.195783 q 0.1746212,0 0.2804522,0.121706 0.1075948,0.121705 0.1075948,0.36688 0,0.241648 -0.1075948,0.366881 -0.105831,0.125233 -0.282216,0.125233 -0.1093587,0 -0.1816766,-0.04057 -0.070554,-0.04233 -0.1111225,-0.09701 h -0.010583 q 0.00353,0.02999 0.00706,0.07585 0.00353,0.04586 0.00353,0.07937 v 0.388047 H 5.5139355 v -1.368748 h 0.1269972 l 0.021166,0.128761 h 0.00706 q 0.042332,-0.06173 0.1111225,-0.104067 0.06879,-0.04233 0.1834404,-0.04233 z m -0.028222,0.130525 q -0.1446357,0 -0.2046066,0.08114 -0.058207,0.08114 -0.061735,0.246939 v 0.02998 q 0,0.174621 0.056443,0.269869 0.058207,0.09348 0.2134258,0.09348 0.086429,0 0.141108,-0.04762 0.056443,-0.04762 0.082901,-0.128761 0.028222,-0.0829 0.028222,-0.188732 0,-0.162274 -0.063499,-0.259285 -0.061735,-0.09701 -0.1922597,-0.09701 z"
         id="path3981" />
      <path
         d="m 7.4206569,13.684369 q 0,0.234592 -0.1199418,0.363353 -0.1181779,0.128761 -0.3210207,0.128761 -0.1252333,0 -0.2240089,-0.05644 -0.097012,-0.05821 -0.153455,-0.167565 -0.056443,-0.111123 -0.056443,-0.268106 0,-0.234592 0.118178,-0.361589 0.1181779,-0.126997 0.3210207,-0.126997 0.128761,0 0.2257728,0.05821 0.098776,0.05644 0.1534549,0.165802 0.056443,0.107595 0.056443,0.264577 z m -0.7143592,0 q 0,0.167566 0.065262,0.266342 0.067026,0.09701 0.211662,0.09701 0.1428719,0 0.2098982,-0.09701 0.067026,-0.09878 0.067026,-0.266342 0,-0.167565 -0.067026,-0.262813 -0.067026,-0.09525 -0.211662,-0.09525 -0.1446357,0 -0.2098982,0.09525 -0.065262,0.09525 -0.065262,0.262813 z"
         id="path3983" />
      <path
         d="m 8.2814146,13.897795 q 0,0.13758 -0.1023033,0.208134 -0.1023033,0.07055 -0.2751606,0.07055 -0.098776,0 -0.1710934,-0.01587 -0.070554,-0.01587 -0.1252334,-0.0441 v -0.141108 q 0.056443,0.02822 0.1358165,0.05292 0.081137,0.02293 0.164038,0.02293 0.118178,0 0.1710935,-0.03704 0.052915,-0.0388 0.052915,-0.102303 0,-0.03528 -0.019402,-0.0635 -0.019402,-0.02822 -0.070554,-0.05644 -0.049388,-0.02822 -0.1428718,-0.0635 -0.09172,-0.03528 -0.1569827,-0.07055 -0.065262,-0.03528 -0.1005394,-0.08466 -0.035277,-0.04939 -0.035277,-0.126997 0,-0.119942 0.097012,-0.185205 0.098776,-0.06526 0.2575221,-0.06526 0.086429,0 0.1605104,0.01764 0.075845,0.01587 0.141108,0.04586 l -0.052916,0.12347 q -0.059971,-0.02469 -0.1252334,-0.04233 -0.065262,-0.01764 -0.1340526,-0.01764 -0.095248,0 -0.1463995,0.03175 -0.049388,0.02999 -0.049388,0.0829 0,0.0388 0.02293,0.06703 0.02293,0.02646 0.075846,0.05292 0.054679,0.02469 0.1446357,0.05997 0.089956,0.03351 0.1534549,0.06879 0.063499,0.03528 0.097012,0.08643 0.033513,0.04939 0.033513,0.125233 z"
         id="path3985" />
      <path
         d="m 8.5900886,12.858888 q 0.035277,0 0.061735,0.02469 0.028222,0.02293 0.028222,0.07408 0,0.04939 -0.028222,0.07408 -0.026458,0.02469 -0.061735,0.02469 -0.038805,0 -0.065262,-0.02469 -0.026458,-0.02469 -0.026458,-0.07408 0,-0.05115 0.026458,-0.07408 0.026458,-0.02469 0.065262,-0.02469 z m 0.075846,0.354533 v 0.945424 H 8.5107154 v -0.945424 z"
         id="path3987" />
      <path
         d="m 9.2815169,14.049486 q 0.035277,0 0.072318,-0.0053 0.037041,-0.0071 0.059971,-0.01411 v 0.118178 q -0.024694,0.01235 -0.070554,0.0194 -0.04586,0.0088 -0.088192,0.0088 -0.074082,0 -0.1375803,-0.02469 -0.061735,-0.02646 -0.1005395,-0.08996 -0.038805,-0.0635 -0.038805,-0.178149 V 13.333363 H 8.8440821 v -0.07408 l 0.1358165,-0.06173 0.061735,-0.201079 h 0.09172 v 0.216953 h 0.2733968 v 0.119942 H 9.1333535 v 0.546794 q 0,0.08643 0.040569,0.128761 0.042332,0.04057 0.1075948,0.04057 z"
         id="path3989" />
      <path
         d="m 10.424492,13.684369 q 0,0.234592 -0.119942,0.363353 -0.118178,0.128761 -0.3210209,0.128761 -0.1252333,0 -0.2240089,-0.05644 -0.097012,-0.05821 -0.153455,-0.167565 -0.056443,-0.111123 -0.056443,-0.268106 0,-0.234592 0.118178,-0.361589 0.1181779,-0.126997 0.3210207,-0.126997 0.1287613,0 0.2257723,0.05821 0.09878,0.05644 0.153455,0.165802 0.05644,0.107595 0.05644,0.264577 z m -0.7143596,0 q 0,0.167566 0.065262,0.266342 0.067026,0.09701 0.211662,0.09701 0.1428722,0 0.2098982,-0.09701 0.06703,-0.09878 0.06703,-0.266342 0,-0.167565 -0.06703,-0.262813 -0.06703,-0.09525 -0.211662,-0.09525 -0.1446357,0 -0.2098982,0.09525 -0.065262,0.09525 -0.065262,0.262813 z"
         id="path3991" />
      <path
         d="m 11.110629,13.195783 q 0.02646,0 0.05644,0.0035 0.03175,0.0018 0.05468,0.0071 l -0.0194,0.142872 q -0.02293,-0.0053 -0.05115,-0.0088 -0.02646,-0.0035 -0.05115,-0.0035 -0.07232,0 -0.135817,0.04057 -0.0635,0.0388 -0.102303,0.111123 -0.03704,0.07055 -0.03704,0.165802 v 0.504461 h -0.155219 v -0.945424 h 0.126997 l 0.01764,0.172858 h 0.0071 q 0.04586,-0.07761 0.118178,-0.134053 0.07232,-0.05644 0.171094,-0.05644 z"
         id="path3993" />
      <path
         d="m 11.477509,12.858888 q 0.03528,0 0.06174,0.02469 0.02822,0.02293 0.02822,0.07408 0,0.04939 -0.02822,0.07408 -0.02646,0.02469 -0.06174,0.02469 -0.0388,0 -0.06526,-0.02469 -0.02646,-0.02469 -0.02646,-0.07408 0,-0.05115 0.02646,-0.07408 0.02646,-0.02469 0.06526,-0.02469 z m 0.07585,0.354533 v 0.945424 h -0.155219 v -0.945424 z"
         id="path3995" />
      <path
         d="m 12.218325,13.195783 q 0.121706,0 0.208135,0.05291 0.08819,0.05292 0.134052,0.149928 0.04762,0.09525 0.04762,0.224009 v 0.09348 h -0.647333 q 0.0035,0.16051 0.08114,0.245175 0.07937,0.0829 0.220482,0.0829 0.08996,0 0.158746,-0.01587 0.07055,-0.01764 0.144636,-0.04939 v 0.135817 q -0.07232,0.03175 -0.142872,0.04586 -0.07055,0.01587 -0.167566,0.01587 -0.134052,0 -0.23812,-0.05468 -0.102303,-0.05468 -0.16051,-0.162274 -0.05644,-0.109359 -0.05644,-0.266341 0,-0.155219 0.05115,-0.266342 0.05292,-0.111122 0.146399,-0.171093 0.09525,-0.05997 0.220481,-0.05997 z m -0.0018,0.126997 q -0.111123,0 -0.176385,0.07232 -0.0635,0.07055 -0.07585,0.197551 h 0.481531 q -0.0018,-0.119942 -0.05644,-0.194023 -0.05468,-0.07585 -0.172857,-0.07585 z"
         id="path3997" />
      <path
         d="m 13.463602,13.897795 q 0,0.13758 -0.102303,0.208134 -0.102303,0.07055 -0.275161,0.07055 -0.09877,0 -0.171093,-0.01587 -0.07055,-0.01587 -0.125233,-0.0441 v -0.141108 q 0.05644,0.02822 0.135816,0.05292 0.08114,0.02293 0.164038,0.02293 0.118178,0 0.171093,-0.03704 0.05292,-0.0388 0.05292,-0.102303 0,-0.03528 -0.0194,-0.0635 -0.0194,-0.02822 -0.07055,-0.05644 -0.04939,-0.02822 -0.142872,-0.0635 -0.09172,-0.03528 -0.156983,-0.07055 -0.06526,-0.03528 -0.100539,-0.08466 -0.03528,-0.04939 -0.03528,-0.126997 0,-0.119942 0.09701,-0.185205 0.09878,-0.06526 0.257523,-0.06526 0.08643,0 0.16051,0.01764 0.07585,0.01587 0.141108,0.04586 l -0.05292,0.12347 q -0.05997,-0.02469 -0.125233,-0.04233 -0.06526,-0.01764 -0.134053,-0.01764 -0.09525,0 -0.146399,0.03175 -0.04939,0.02999 -0.04939,0.0829 0,0.0388 0.02293,0.06703 0.02293,0.02646 0.07585,0.05292 0.05468,0.02469 0.144635,0.05997 0.08996,0.03351 0.153455,0.06879 0.0635,0.03528 0.09701,0.08643 0.03351,0.04939 0.03351,0.125233 z"
         id="path3999" />
    </g>
  </g>
</svg>
