<?xml version="1.0" encoding="UTF-8" standalone="no"?>
<svg
   width="64"
   height="64"
   version="1.1"
   viewBox="0 0 16.933 16.933"
   id="svg7"
   sodipodi:docname="Internet Template.svg"
   inkscape:version="1.4 (e7c3feb100, 2024-10-09)"
   xmlns:inkscape="http://www.inkscape.org/namespaces/inkscape"
   xmlns:sodipodi="http://sodipodi.sourceforge.net/DTD/sodipodi-0.dtd"
   xmlns:xlink="http://www.w3.org/1999/xlink"
   xmlns="http://www.w3.org/2000/svg"
   xmlns:svg="http://www.w3.org/2000/svg"
   xmlns:rdf="http://www.w3.org/1999/02/22-rdf-syntax-ns#"
   xmlns:cc="http://creativecommons.org/ns#"
   xmlns:dc="http://purl.org/dc/elements/1.1/">
  <sodipodi:namedview
     id="namedview7"
     pagecolor="#9c4444"
     bordercolor="#000000"
     borderopacity="0.25"
     inkscape:showpageshadow="2"
     inkscape:pageopacity="0.0"
     inkscape:pagecheckerboard="0"
     inkscape:deskcolor="#d1d1d1"
     inkscape:zoom="6.15625"
     inkscape:cx="15.675127"
     inkscape:cy="29.807107"
     inkscape:window-width="1183"
     inkscape:window-height="973"
     inkscape:window-x="35"
     inkscape:window-y="32"
     inkscape:window-maximized="0"
     inkscape:current-layer="svg7"
     showgrid="false" />
  <defs
     id="defs2">
    <rect
       x="67.489848"
       y="35.60533"
       width="15.337563"
       height="22.51269"
       id="rect3808" />
    <linearGradient
       inkscape:collect="always"
       id="linearGradient1134">
      <stop
         style="stop-color:#161616;stop-opacity:1;"
         offset="0"
         id="stop1130" />
      <stop
         style="stop-color:#404040;stop-opacity:1;"
         offset="1"
         id="stop1132" />
    </linearGradient>
    <linearGradient
       inkscape:collect="always"
       id="linearGradient883">
      <stop
         style="stop-color:#808080;stop-opacity:1;"
         offset="0"
         id="stop879" />
      <stop
         style="stop-color:#3e3e3e;stop-opacity:1;"
         offset="0.5"
         id="stop1216" />
      <stop
         style="stop-color:#242424;stop-opacity:1;"
         offset="1"
         id="stop881" />
    </linearGradient>
    <linearGradient
       inkscape:collect="always"
       xlink:href="#linearGradient883"
       id="linearGradient885"
       x1="2.1085808"
       y1="2.0236168"
       x2="14.846128"
       y2="15.071845"
       gradientUnits="userSpaceOnUse" />
    <linearGradient
       inkscape:collect="always"
       xlink:href="#linearGradient1134"
       id="linearGradient1136"
       x1="14.971222"
       y1="14.703373"
       x2="2.0756054"
       y2="2.0069976"
       gradientUnits="userSpaceOnUse" />
    <filter
       style="color-interpolation-filters:sRGB;"
       inkscape:label="Blur"
       id="filter1283"
       x="-0.082344266"
       y="-0.082344266"
       width="1.1646885"
       height="1.1646885">
      <feGaussianBlur
         stdDeviation="0.5 0.5"
         result="blur"
         id="feGaussianBlur1281" />
    </filter>
    <filter
       style="color-interpolation-filters:sRGB;"
       inkscape:label="Blur"
       id="filter3148"
       x="-0.94955398"
       y="-0.2118907"
       width="2.899108"
       height="1.4237814">
      <feGaussianBlur
         stdDeviation="0.2 0.2"
         result="blur"
         id="feGaussianBlur3146" />
    </filter>
  </defs>
  <metadata
     id="metadata2">
    <rdf:RDF>
      <cc:Work
         rdf:about="">
        <dc:format>image/svg+xml</dc:format>
        <dc:type
           rdf:resource="http://purl.org/dc/dcmitype/StillImage" />
      </cc:Work>
    </rdf:RDF>
  </metadata>
  <rect
     style="fill:#000000;stroke:none;stroke-width:0.539739;stroke-dasharray:none;filter:url(#filter1283)"
     id="rect246-1"
     width="14.572964"
     height="14.572964"
     x="1.1932471"
     y="1.2138842"
     rx="2.1589575"
     ry="2.1589575" />
  <rect
     style="opacity:1;fill:#000000;stroke:url(#linearGradient885);stroke-width:0.52915625;stroke-dasharray:none"
     id="rect246"
     width="14.287219"
     height="14.287219"
     x="1.3361193"
     y="1.3567564"
     rx="2.1166251"
     ry="2.1166251" />
  <rect
     style="fill:url(#linearGradient1136);fill-opacity:1;stroke:none;stroke-width:0.478315;stroke-dasharray:none"
     id="rect246-5"
     width="12.914515"
     height="12.914515"
     x="2.0224717"
     y="2.0431087"
     rx="1.5874687"
     ry="1.5874687" />
  <path
     id="path4"
     style="fill:#999999;fill-opacity:1;stroke-width:0.0319138"
     d="m 6.9185045,3.7304708 c -0.048345,9.8e-5 -0.09615,0.00214 -0.1431031,0.00626 C 6.3334275,3.7751855 5.9633765,3.9283617 5.6263006,4.2117647 5.3261597,4.4641139 5.0912742,4.8390263 4.9933576,5.2226974 4.9425652,5.4217238 4.9377466,5.466268 4.9377619,5.7279992 c 1.24e-5,0.2189342 0.00318,0.2652038 0.024674,0.3714096 0.034259,0.1692483 0.097553,0.3556035 0.1730395,0.5089205 l 0.064149,0.130603 -0.02138,0.1355369 C 5.0748272,7.5229689 5.1562514,8.194266 5.4104988,8.7864564 5.8773431,9.8738272 6.886701,10.657437 8.0478714,10.834312 c 0.3551577,0.0541 0.6694289,0.0553 1.0352765,0.004 l 0.1240225,-0.01744 0.120733,0.0533 c 0.2064281,0.09149 0.4186753,0.14965 0.626693,0.171393 0.2722936,0.02847 0.5598396,-0.0042 0.8296686,-0.09409 0.717613,-0.238883 1.23533,-0.86093 1.345497,-1.6172284 0.02421,-0.1661593 0.01608,-0.4996123 -0.0158,-0.6536686 -0.0284,-0.137394 -0.07675,-0.2915105 -0.128958,-0.4118728 l -0.04145,-0.09642 0.02567,-0.1503404 c 0.03797,-0.2199286 0.04813,-0.3441476 0.04802,-0.5957562 C 12.017105,7.1105299 11.98499,6.8501964 11.911649,6.5678607 11.68209,5.684181 11.096198,4.9109563 10.309883,4.4542117 9.6428413,4.0667496 8.8371971,3.9091834 8.094581,4.0209546 L 7.9853625,4.0374028 7.9093699,3.9929918 C 7.622187,3.825267 7.2569196,3.7297856 6.9185045,3.7304708 Z m 1.6787466,1.7948741 c 0.2514858,-4.36e-5 0.4495079,0.030475 0.6428121,0.098692 0.1866842,0.065881 0.4005372,0.1908898 0.4753655,0.2783108 0.1740098,0.2032904 0.1253244,0.4890423 -0.1042843,0.6135338 -0.063149,0.03424 -0.07319,0.036516 -0.1681045,0.036516 -0.1097935,0 -0.096114,0.0047 -0.2881806,-0.09935 C 8.9827237,6.3597854 8.7452125,6.3023704 8.5340882,6.3027072 8.2790951,6.3031273 8.1144457,6.3760218 8.0442486,6.5194998 c -0.06104,0.124761 -0.043964,0.2329544 0.051649,0.3233799 0.1017554,0.096236 0.2287788,0.1478889 0.6714326,0.2733765 0.46459,0.1317055 0.6709403,0.2132008 0.8612495,0.3398287 0.1062765,0.070715 0.2434943,0.2115773 0.3016676,0.3098917 0.1366787,0.2309898 0.1672477,0.576844 0.076991,0.8678288 C 9.8614062,9.1039067 9.4189408,9.4155615 8.8025416,9.4825559 8.7077879,9.492851 8.3932369,9.4956131 8.3048064,9.4868489 8.04859,9.4614294 7.8012667,9.3943484 7.5843448,9.2914574 7.3538798,9.1821446 7.235849,9.0849665 7.1734584,8.953274 7.1416643,8.8861574 7.1399795,8.8753925 7.1402322,8.7598387 7.1404613,8.6564366 7.144266,8.6277548 7.1655633,8.5742979 7.2138247,8.4532049 7.3615526,8.3481533 7.4991416,8.3371087 c 0.09329,-0.0075 0.1658094,0.015921 0.2743628,0.088164 0.228314,0.1519412 0.5209496,0.2441741 0.8132202,0.2565995 0.1180352,0.00502 0.1680367,0.00251 0.2394919,-0.011842 C 9.0391499,8.6270293 9.1573217,8.5264273 9.203548,8.3489547 9.2275451,8.2567878 9.2032427,8.1909255 9.1153834,8.1087657 9.0157681,8.0155871 8.8686085,7.9549249 8.4620438,7.8393373 7.8615128,7.6686043 7.6338691,7.5615294 7.4323603,7.3547608 7.2168403,7.133616 7.1317948,6.787582 7.2050399,6.4300191 7.3168488,5.8842019 7.8690418,5.5254706 8.5972511,5.5253449 Z" />
  <g
     aria-label="Krita"
     id="text1450"
     style="font-size:1.76385px;opacity:1;fill:#ffff00;stroke-width:0.529156">
    <rect
       style="font-size:1.76385px;fill:#ffff00;fill-opacity:1;stroke:none;stroke-width:0.519976;stroke-dasharray:none;filter:url(#filter3148)"
       id="rect1656-3"
       width="0.5055005"
       height="2.2653189"
       x="15.369148"
       y="4.3016486"
       rx="0"
       ry="0" />
    <rect
       style="opacity:1;fill:#ffff00;fill-opacity:1;stroke:none;stroke-width:0.519976;stroke-dasharray:none"
       id="rect1656"
       width="0.5055005"
       height="2.2653189"
       x="15.369148"
       y="4.3016486"
       rx="0"
       ry="0" />
  </g>
  <text
     xml:space="preserve"
     style="font-size:1.76385px;text-align:start;text-anchor:start;opacity:1;fill:#999999;fill-opacity:1;stroke:none;stroke-width:0.529156;stroke-dasharray:none"
     x="5.9778786"
     y="14.179017"
     id="text2284"><tspan
       sodipodi:role="line"
       id="tspan2282"
       style="stroke-width:0.529156"
       x="5.9778786"
       y="14.179017">Skype</tspan></text>
  <text
     xml:space="preserve"
     transform="scale(0.26457812)"
     id="text3806"
     style="fill:#999999;stroke-width:2;font-size:6.66666667px;white-space:pre;shape-inside:url(#rect3808)" />
</svg>
