<?xml version="1.0" encoding="UTF-8" standalone="no"?>
<svg
   width="64"
   height="64"
   version="1.1"
   viewBox="0 0 16.933 16.933"
   id="svg7"
   sodipodi:docname="steam_icon_1086940.svg"
   inkscape:version="1.4 (e7c3feb100, 2024-10-09)"
   xmlns:inkscape="http://www.inkscape.org/namespaces/inkscape"
   xmlns:sodipodi="http://sodipodi.sourceforge.net/DTD/sodipodi-0.dtd"
   xmlns:xlink="http://www.w3.org/1999/xlink"
   xmlns="http://www.w3.org/2000/svg"
   xmlns:svg="http://www.w3.org/2000/svg"
   xmlns:rdf="http://www.w3.org/1999/02/22-rdf-syntax-ns#"
   xmlns:cc="http://creativecommons.org/ns#"
   xmlns:dc="http://purl.org/dc/elements/1.1/">
  <sodipodi:namedview
     id="namedview7"
     pagecolor="#9c4444"
     bordercolor="#000000"
     borderopacity="0.25"
     inkscape:showpageshadow="2"
     inkscape:pageopacity="0.0"
     inkscape:pagecheckerboard="0"
     inkscape:deskcolor="#d1d1d1"
     inkscape:zoom="4.3531261"
     inkscape:cx="35.951175"
     inkscape:cy="39.856415"
     inkscape:window-width="1183"
     inkscape:window-height="973"
     inkscape:window-x="35"
     inkscape:window-y="32"
     inkscape:window-maximized="0"
     inkscape:current-layer="svg7"
     showgrid="false" />
  <defs
     id="defs2">
    <linearGradient
       inkscape:collect="always"
       id="linearGradient1134">
      <stop
         style="stop-color:#161616;stop-opacity:1;"
         offset="0"
         id="stop1130" />
      <stop
         style="stop-color:#404040;stop-opacity:1;"
         offset="1"
         id="stop1132" />
    </linearGradient>
    <linearGradient
       inkscape:collect="always"
       id="linearGradient883">
      <stop
         style="stop-color:#808080;stop-opacity:1;"
         offset="0"
         id="stop879" />
      <stop
         style="stop-color:#3e3e3e;stop-opacity:1;"
         offset="0.5"
         id="stop1216" />
      <stop
         style="stop-color:#242424;stop-opacity:1;"
         offset="1"
         id="stop881" />
    </linearGradient>
    <linearGradient
       inkscape:collect="always"
       xlink:href="#linearGradient883"
       id="linearGradient885"
       x1="2.1085808"
       y1="2.0236168"
       x2="14.846128"
       y2="15.071845"
       gradientUnits="userSpaceOnUse" />
    <linearGradient
       inkscape:collect="always"
       xlink:href="#linearGradient1134"
       id="linearGradient1136"
       x1="14.971222"
       y1="14.703373"
       x2="2.0756054"
       y2="2.0069976"
       gradientUnits="userSpaceOnUse" />
    <filter
       style="color-interpolation-filters:sRGB;"
       inkscape:label="Blur"
       id="filter1283"
       x="-0.082344266"
       y="-0.082344266"
       width="1.1646885"
       height="1.1646885">
      <feGaussianBlur
         stdDeviation="0.5 0.5"
         result="blur"
         id="feGaussianBlur1281" />
    </filter>
    <filter
       style="color-interpolation-filters:sRGB;"
       inkscape:label="Blur"
       id="filter1694"
       x="-0.94955398"
       y="-0.2118907"
       width="2.899108"
       height="1.4237814">
      <feGaussianBlur
         stdDeviation="0.2 0.2"
         result="blur"
         id="feGaussianBlur1692" />
    </filter>
  </defs>
  <metadata
     id="metadata2">
    <rdf:RDF>
      <cc:Work
         rdf:about="">
        <dc:format>image/svg+xml</dc:format>
        <dc:type
           rdf:resource="http://purl.org/dc/dcmitype/StillImage" />
      </cc:Work>
    </rdf:RDF>
  </metadata>
  <rect
     style="fill:#000000;stroke:none;stroke-width:0.539739;stroke-dasharray:none;filter:url(#filter1283)"
     id="rect246-1"
     width="14.572964"
     height="14.572964"
     x="1.1932471"
     y="1.2138842"
     rx="2.1589575"
     ry="2.1589575" />
  <rect
     style="opacity:1;fill:#000000;stroke:url(#linearGradient885);stroke-width:0.52915625;stroke-dasharray:none"
     id="rect246"
     width="14.287219"
     height="14.287219"
     x="1.3361193"
     y="1.3567564"
     rx="2.1166251"
     ry="2.1166251" />
  <rect
     style="fill:url(#linearGradient1136);fill-opacity:1;stroke:none;stroke-width:0.478315;stroke-dasharray:none"
     id="rect246-5"
     width="12.914515"
     height="12.914515"
     x="2.0224717"
     y="2.0431087"
     rx="1.5874687"
     ry="1.5874687" />
  <path
     style="fill:#999999;fill-opacity:1;stroke-width:0.0357407"
     d="m 4.4103487,10.434893 c 0,-0.04229 -0.055607,-0.141861 -0.1235708,-0.221264 C 4.0327897,9.9169017 4.0349013,9.4311416 4.2914111,9.1472131 4.3598836,9.0714214 4.4468393,8.9995944 4.4846455,8.9875942 4.6099649,8.9478232 4.6329614,8.8455907 4.5487116,8.7027982 4.4111775,8.4696953 4.4705474,8.0479443 4.6711718,7.8328641 c 0.088336,-0.094702 0.3154667,-0.220389 0.3982681,-0.220389 0.043569,0 0.050127,-0.030804 0.03306,-0.1553345 -0.037684,-0.2749279 0.1694576,-0.6098098 0.4515456,-0.7300082 0.1503679,-0.064071 0.4555252,-0.07043 0.5651325,-0.011769 0.09726,0.052059 0.1561385,0.021578 0.2634245,-0.1363295 0.2657256,-0.3911129 0.9727594,-0.3320245 1.1397227,0.095249 0.038753,0.099172 0.1041197,0.1014914 0.2557076,0.00907 0.1506777,-0.091869 0.3582781,-0.090964 0.5511461,0.00243 0.1917246,0.092812 0.3120397,0.2793668 0.3204174,0.4968219 0.0062,0.1611195 0.00685,0.1618858 0.1440843,0.1713693 0.2182237,0.015074 0.2858326,0.037892 0.4019342,0.1355805 0.065681,0.055274 0.1179683,0.1405957 0.1320058,0.2154235 0.02578,0.13742 0.1004879,0.1934493 0.2579416,0.1934493 0.057613,0 0.1456444,0.032173 0.1956254,0.071483 0.1132951,0.08912 0.1458724,0.089031 0.3316564,-9.72e-4 0.125546,-0.060774 0.166058,-0.065715 0.252534,-0.030804 0.14369,0.058004 0.2379,0.046065 0.438481,-0.055582 0.248995,-0.1261747 0.453806,-0.3742138 0.540343,-0.6543865 0.08471,-0.2742541 0.0957,-0.7901457 0.02264,-1.0632124 -0.157695,-0.5894762 -0.554483,-0.9471254 -1.050768,-0.9471254 -0.186745,0 -0.476975,0.089693 -0.5978244,0.1847544 -0.272467,0.2143224 -0.3082625,0.7430141 -0.069514,1.0267474 0.145847,0.1733288 0.3601034,0.2349326 0.6680844,0.1920908 0.142329,-0.019796 0.270841,-0.029128 0.285588,-0.020744 0.07275,0.041391 0.0145,0.1611244 -0.122482,0.2517765 -0.133893,0.088606 -0.180885,0.098793 -0.455694,0.098793 -0.3619572,0 -0.513281,-0.060183 -0.7420484,-0.295091 C 9.0599528,6.4279742 8.9746822,6.1715759 8.9925101,5.7851641 9.0044157,5.5271086 9.0255853,5.4385468 9.1223437,5.2420016 c 0.1386315,-0.2816 0.3604997,-0.489437 0.6438348,-0.6031173 0.1683836,-0.06756 0.2699405,-0.081083 0.6128455,-0.081608 0.38931,-5.92e-4 0.42383,0.00544 0.653609,0.1142788 0.483226,0.2288875 0.833488,0.6812668 0.99579,1.2861056 0.110785,0.4128584 0.110651,1.1712645 -5.54e-4,1.5638433 -0.149372,0.5286322 -0.421355,0.9307505 -0.811962,1.2004515 -0.260991,0.180208 -0.76233,0.3557318 -1.019709,0.3570124 -0.143981,7.217e-4 -0.2541227,0.020542 -0.2978447,0.053614 C 9.7973351,9.2089891 9.6172376,9.1969687 9.5017283,9.1061029 9.4209842,9.0425908 9.3597125,9.0283105 9.1883188,9.0330571 8.9779409,9.0388891 8.7704306,8.9717077 8.7704306,8.8977612 8.7704306,8.8394574 8.4050111,8.6254446 8.2597021,8.5986554 8.1645007,8.5810655 8.0719296,8.521426 7.9467168,8.3968707 7.8489549,8.2996212 7.7534852,8.2200539 7.7345625,8.2200539 c -0.018923,0 -0.087064,0.032108 -0.1514261,0.071345 -0.064361,0.039245 -0.1773328,0.07141 -0.251048,0.071483 L 7.1980613,8.3630001 V 8.560722 c 0,0.3219366 -0.1573213,0.5981112 -0.3973451,0.6975314 -0.1193539,0.049434 -0.1205381,0.054829 -0.049413,0.2250634 0.1380735,0.3304564 0.016981,0.7113932 -0.2857842,0.8990272 l -0.1730128,0.107221 -0.9411057,0.01111 -0.9411054,0.01111 z m 0.4926199,-0.340615 c 0.1186549,-0.08311 0.1864512,-0.2412313 0.1864512,-0.4348612 0,-0.3759593 -0.3218748,-0.5736571 -0.5486322,-0.336974 -0.2047466,0.2137106 -0.1973251,0.5562026 0.01594,0.7356542 0.1249934,0.105175 0.2318023,0.116336 0.3462405,0.03619 z m 1.474031,-0.04686 C 6.5118674,9.9125448 6.5425561,9.7791405 6.4799104,9.6000543 6.4096997,9.3993426 6.2473069,9.3060006 6.0700866,9.3644883 5.9123934,9.4165308 5.8045482,9.5808759 5.8043649,9.7694178 c -1.118e-4,0.1089324 0.025185,0.1629198 0.1213845,0.2591192 0.1575712,0.157572 0.306332,0.163794 0.4512502,0.01887 z M 6.7437355,8.9434727 C 6.9111806,8.7919379 6.9551582,8.5718906 6.8526719,8.3983943 6.7514063,8.2269648 6.5898649,8.1816072 6.4106513,8.2742828 6.1445906,8.4118678 6.1259933,8.8485609 6.3800143,8.9936773 6.4822684,9.0521023 6.649166,9.0290583 6.7437355,8.9434727 Z m 3.1144985,0.04246 c 0.030888,-0.030885 0.056169,-0.069943 0.056169,-0.086798 0,-0.065335 -0.117142,-0.1429626 -0.2157385,-0.1429626 -0.068206,0 -0.1169757,0.025345 -0.1432583,0.074455 -0.082635,0.1544055 0.1727577,0.2853819 0.3028332,0.1553063 z M 10.50335,8.8769263 c 0.113724,-0.1137223 -3.63e-4,-0.2579187 -0.17002,-0.2152852 -0.106985,0.026851 -0.158505,0.145835 -0.09584,0.2213384 0.05728,0.069028 0.193895,0.065918 0.265862,-0.00607 z M 9.1979542,8.847499 C 9.2666333,8.7647462 9.2273783,8.6364979 9.1172661,8.5838844 8.917424,8.4883951 8.7437145,8.7188994 8.9216149,8.8435057 c 0.099522,0.069709 0.2203521,0.071458 0.2763396,0.00397 z M 5.3277648,8.6369709 C 5.4412767,8.5329442 5.4599597,8.4921866 5.4744995,8.316854 5.4900961,8.1287936 5.4839214,8.1086991 5.3779837,8.0027625 5.2805449,7.9053243 5.2470256,7.8924704 5.13694,7.9103358 4.914396,7.9464537 4.7677543,8.140844 4.7677543,8.3997429 c 0,0.1153578 0.022758,0.170245 0.1044728,0.2519586 0.1443408,0.1443423 0.2869938,0.1397277 0.4555377,-0.014726 z m 5.8030362,-0.061787 c 0.05246,-0.098035 -0.01723,-0.1838409 -0.13752,-0.1692909 -0.118699,0.014361 -0.179006,0.1109822 -0.116375,0.1864491 0.06667,0.080336 0.206785,0.070867 0.253895,-0.017164 z M 8.5393651,8.3262054 C 8.6330006,8.222739 8.5755713,8.0776227 8.4086356,7.9958742 8.1754829,7.8816999 7.9785084,8.0430324 8.1086186,8.2416088 8.2139405,8.4023495 8.431744,8.4451248 8.5393651,8.3262054 Z m 1.1755372,0.015123 c 0.072698,-0.027896 0.072916,-0.1712609 3.248e-4,-0.2438078 -0.06646,-0.06646 -0.2333698,-0.074002 -0.2940945,-0.013276 -0.1419806,0.14198 0.082246,0.3382345 0.2937235,0.2570814 z m 0.6664727,-0.015309 c 0.08148,-0.043602 0.09046,-0.1509907 0.01769,-0.2113932 -0.07135,-0.059219 -0.237075,-0.032935 -0.284481,0.045117 -0.03196,0.052634 -0.02353,0.077768 0.04503,0.1340277 0.09666,0.079323 0.125871,0.083567 0.221767,0.032246 z m 0.571849,-0.071483 c 0.08989,-0.048114 0.08861,-0.1645047 -0.0023,-0.2131866 -0.144288,-0.077217 -0.285472,0.093379 -0.171555,0.2072955 0.05251,0.052512 0.08475,0.053606 0.173904,0.00591 z m 0.532464,-0.01505 c 0.04848,-0.058425 0.02152,-0.126658 -0.05005,-0.126658 -0.06427,0 -0.138841,0.095468 -0.110456,0.1413971 0.03287,0.053185 0.110009,0.046097 0.160503,-0.014742 z M 7.4457419,8.0248131 C 7.7914281,7.8460518 7.4764385,7.4029354 7.1119403,7.5552316 6.9069506,7.6408818 6.8509928,7.8302624 6.9926057,7.9591002 7.1336863,8.0874552 7.2827916,8.1090774 7.4457419,8.0248155 Z M 9.0852168,7.9627347 C 9.1547683,7.8931801 9.1345401,7.7586251 9.0403784,7.6644634 8.9305785,7.5546632 8.7927068,7.5511038 8.7191151,7.656169 c -0.073043,0.1042843 -0.070285,0.1424871 0.018438,0.2552815 0.080631,0.1025048 0.268699,0.1302464 0.3476638,0.051281 z m 2.2880962,-0.091504 c 0.0085,-0.060151 -0.0064,-0.080052 -0.06044,-0.080052 -0.08554,0 -0.126149,0.054059 -0.09722,0.1294455 0.03057,0.079672 0.144329,0.044032 0.157658,-0.049386 z m 0.342629,-0.018646 c 0.02697,-0.04276 0.02511,-0.071815 -0.0067,-0.1035627 -0.05936,-0.059365 -0.170435,0.046769 -0.137837,0.1317134 0.02654,0.069166 0.09101,0.056603 0.144475,-0.028156 z M 5.9370765,7.6957496 C 6.1500564,7.5946835 6.2582789,7.3284208 6.1605775,7.1458646 6.1154597,7.0615606 5.943835,6.9690951 5.8328117,6.9692757 5.7131206,6.9694855 5.5302151,7.092625 5.4664309,7.2159701 5.3623905,7.4171631 5.4071624,7.6049769 5.5817513,7.6997218 5.7093397,7.7689606 5.784565,7.7681263 5.9370765,7.6957528 Z M 8.2505312,7.3402136 C 8.4219954,7.2744173 8.3783372,7.0473192 8.1757415,6.9511809 8.0196534,6.8771145 7.8650393,6.9383343 7.8484679,7.0807763 7.8293236,7.2453253 8.0786147,7.4061835 8.2505312,7.3402136 Z M 7.1818685,7.0601205 C 7.3019566,6.9400321 7.2943049,6.8175876 7.1596307,6.7042669 7.035073,6.5994586 6.8879347,6.5854812 6.7360425,6.6640261 6.6271608,6.7203374 6.5905238,6.7837345 6.5905238,6.9158609 c 0,0.2171466 0.4167826,0.3188203 0.5913443,0.144258 z"
     id="path1-47" />
  <g
     aria-label="Krita"
     id="text1450"
     style="font-size:1.76385px;opacity:1;fill:#ff00ff;stroke-width:0.529156">
    <rect
       style="font-size:1.76385px;fill:#ff00ff;fill-opacity:1;stroke:none;stroke-width:0.519976;stroke-dasharray:none;filter:url(#filter1694)"
       id="rect1656-7"
       width="0.5055005"
       height="2.2653189"
       x="15.369148"
       y="4.3016486"
       rx="0"
       ry="0" />
    <rect
       style="opacity:1;fill:#ff00ff;fill-opacity:1;stroke:none;stroke-width:0.519976;stroke-dasharray:none"
       id="rect1656"
       width="0.5055005"
       height="2.2653189"
       x="15.369148"
       y="4.3016486"
       rx="0"
       ry="0" />
  </g>
  <g
     aria-label="Steam"
     id="text2284"
     style="font-size:1.76385px;opacity:1;fill:#999999;stroke-width:0.529156">
    <path
       d="m 6.7172843,13.496001 h 0.4356709 v 0.617348 q -0.1023033,0.03351 -0.2063705,0.04939 -0.1040671,0.01587 -0.2363558,0.01587 -0.1957874,0 -0.32984,-0.07761 -0.1340526,-0.07937 -0.2046066,-0.224009 -0.06879,-0.1464 -0.06879,-0.345715 0,-0.197551 0.077609,-0.342187 0.077609,-0.144635 0.2222451,-0.224009 0.1463995,-0.08114 0.35277,-0.08114 0.105831,0 0.199315,0.0194 0.095248,0.0194 0.176385,0.05468 l -0.059971,0.13758 q -0.067026,-0.02998 -0.1516911,-0.05115 -0.082901,-0.02117 -0.1728573,-0.02117 -0.2257728,0 -0.35277,0.135817 -0.1252333,0.135816 -0.1252333,0.372172 0,0.149927 0.047624,0.266342 0.049388,0.11465 0.153455,0.179912 0.1040671,0.0635 0.2733967,0.0635 0.082901,0 0.141108,-0.0088 0.058207,-0.0088 0.105831,-0.02117 V 13.637109 H 6.7172843 Z m 1.0741858,-0.296327 q 0.1728573,0 0.2557582,0.07585 0.082901,0.07584 0.082901,0.241647 v 0.643806 H 8.0172429 L 7.9872574,14.02692 h -0.00706 q -0.061735,0.07761 -0.1305249,0.11465 -0.067026,0.03704 -0.1869681,0.03704 -0.128761,0 -0.2134258,-0.06703 -0.084665,-0.06879 -0.084665,-0.213426 0,-0.141108 0.1111225,-0.216954 0.1111226,-0.07761 0.3421869,-0.08466 l 0.1605104,-0.0053 V 13.5348 q 0,-0.118178 -0.051152,-0.164038 -0.051152,-0.04586 -0.1446357,-0.04586 -0.074082,0 -0.141108,0.02293 -0.067026,0.02117 -0.1252333,0.04939 l -0.047624,-0.116415 q 0.061735,-0.03351 0.1463996,-0.05644 0.084665,-0.02469 0.176385,-0.02469 z m 0.04586,0.504461 q -0.176385,0.0071 -0.2451752,0.05644 -0.067026,0.04939 -0.067026,0.139344 0,0.07937 0.047624,0.116414 0.049388,0.03704 0.1252333,0.03704 0.1199418,0 0.1993151,-0.06526 0.079373,-0.06703 0.079373,-0.204606 v -0.08467 z m 1.6227435,-0.506224 q 0.1605103,0 0.2398836,0.0829 0.079373,0.08114 0.079373,0.264578 v 0.615584 H 9.6258756 v -0.608529 q 0,-0.224009 -0.1922597,-0.224009 -0.1375803,0 -0.1975512,0.07937 -0.058207,0.07937 -0.058207,0.231064 v 0.5221 H 9.0244027 V 13.55244 q 0,-0.224009 -0.1940234,-0.224009 -0.1428719,0 -0.1975512,0.08819 -0.054679,0.08819 -0.054679,0.253994 v 0.490351 H 8.4229299 v -0.945424 h 0.1252334 l 0.02293,0.128761 h 0.00882 q 0.044096,-0.07408 0.1181779,-0.109359 0.075846,-0.03704 0.1605104,-0.03704 0.222245,0 0.2892713,0.158746 h 0.00882 q 0.047624,-0.08114 0.128761,-0.119942 0.082901,-0.0388 0.1746212,-0.0388 z m 0.9771714,0 q 0.121705,0 0.208134,0.05292 0.08819,0.05292 0.134052,0.149927 0.04762,0.09525 0.04762,0.224009 v 0.09348 h -0.647333 q 0.0035,0.160511 0.08114,0.245175 0.07937,0.0829 0.220481,0.0829 0.08996,0 0.158746,-0.01587 0.07055,-0.01764 0.144636,-0.04939 v 0.135816 q -0.07232,0.03175 -0.142872,0.04586 -0.07055,0.01587 -0.167566,0.01587 -0.134052,0 -0.238119,-0.05468 -0.102304,-0.05468 -0.160511,-0.162274 -0.05644,-0.109359 -0.05644,-0.266342 0,-0.155219 0.05115,-0.266341 0.05291,-0.111123 0.146399,-0.171094 0.09525,-0.05997 0.220482,-0.05997 z m -0.0018,0.126997 q -0.111123,0 -0.176385,0.07232 -0.0635,0.07055 -0.07585,0.197551 h 0.481531 q -0.0018,-0.119942 -0.05644,-0.194024 -0.05468,-0.07584 -0.172857,-0.07584 z"
       id="text2"
       style="text-align:center;text-anchor:middle;stroke-width:0.140003"
       aria-label="Game" />
  </g>
</svg>
