<?xml version="1.0" encoding="UTF-8" standalone="no"?>
<svg
   width="64"
   height="64"
   version="1.1"
   viewBox="0 0 16.933 16.933"
   id="svg7"
   sodipodi:docname="steam_icon_1086940.svg"
   inkscape:version="1.4 (e7c3feb100, 2024-10-09)"
   xmlns:inkscape="http://www.inkscape.org/namespaces/inkscape"
   xmlns:sodipodi="http://sodipodi.sourceforge.net/DTD/sodipodi-0.dtd"
   xmlns:xlink="http://www.w3.org/1999/xlink"
   xmlns="http://www.w3.org/2000/svg"
   xmlns:svg="http://www.w3.org/2000/svg"
   xmlns:rdf="http://www.w3.org/1999/02/22-rdf-syntax-ns#"
   xmlns:cc="http://creativecommons.org/ns#"
   xmlns:dc="http://purl.org/dc/elements/1.1/">
  <sodipodi:namedview
     id="namedview7"
     pagecolor="#9c4444"
     bordercolor="#000000"
     borderopacity="0.25"
     inkscape:showpageshadow="2"
     inkscape:pageopacity="0.0"
     inkscape:pagecheckerboard="0"
     inkscape:deskcolor="#d1d1d1"
     inkscape:zoom="4.3531261"
     inkscape:cx="35.951175"
     inkscape:cy="39.856415"
     inkscape:window-width="1183"
     inkscape:window-height="973"
     inkscape:window-x="35"
     inkscape:window-y="32"
     inkscape:window-maximized="0"
     inkscape:current-layer="svg7"
     showgrid="false" />
  <defs
     id="defs2">
    <linearGradient
       inkscape:collect="always"
       id="linearGradient1134">
      <stop
         style="stop-color:#161616;stop-opacity:1;"
         offset="0"
         id="stop1130" />
      <stop
         style="stop-color:#404040;stop-opacity:1;"
         offset="1"
         id="stop1132" />
    </linearGradient>
    <linearGradient
       inkscape:collect="always"
       id="linearGradient883">
      <stop
         style="stop-color:#808080;stop-opacity:1;"
         offset="0"
         id="stop879" />
      <stop
         style="stop-color:#3e3e3e;stop-opacity:1;"
         offset="0.5"
         id="stop1216" />
      <stop
         style="stop-color:#242424;stop-opacity:1;"
         offset="1"
         id="stop881" />
    </linearGradient>
    <linearGradient
       inkscape:collect="always"
       xlink:href="#linearGradient883"
       id="linearGradient885"
       x1="2.1085808"
       y1="2.0236168"
       x2="14.846128"
       y2="15.071845"
       gradientUnits="userSpaceOnUse" />
    <linearGradient
       inkscape:collect="always"
       xlink:href="#linearGradient1134"
       id="linearGradient1136"
       x1="14.971222"
       y1="14.703373"
       x2="2.0756054"
       y2="2.0069976"
       gradientUnits="userSpaceOnUse" />
    <filter
       style="color-interpolation-filters:sRGB;"
       inkscape:label="Blur"
       id="filter1283"
       x="-0.082344266"
       y="-0.082344266"
       width="1.1646885"
       height="1.1646885">
      <feGaussianBlur
         stdDeviation="0.5 0.5"
         result="blur"
         id="feGaussianBlur1281" />
    </filter>
    <filter
       style="color-interpolation-filters:sRGB;"
       inkscape:label="Blur"
       id="filter1694"
       x="-0.94955398"
       y="-0.2118907"
       width="2.899108"
       height="1.4237814">
      <feGaussianBlur
         stdDeviation="0.2 0.2"
         result="blur"
         id="feGaussianBlur1692" />
    </filter>
  </defs>
  <metadata
     id="metadata2">
    <rdf:RDF>
      <cc:Work
         rdf:about="">
        <dc:format>image/svg+xml</dc:format>
        <dc:type
           rdf:resource="http://purl.org/dc/dcmitype/StillImage" />
      </cc:Work>
    </rdf:RDF>
  </metadata>
  <rect
     style="fill:#000000;stroke:none;stroke-width:0.539739;stroke-dasharray:none;filter:url(#filter1283)"
     id="rect246-1"
     width="14.572964"
     height="14.572964"
     x="1.1932471"
     y="1.2138842"
     rx="2.1589575"
     ry="2.1589575" />
  <rect
     style="opacity:1;fill:#000000;stroke:url(#linearGradient885);stroke-width:0.52915625;stroke-dasharray:none"
     id="rect246"
     width="14.287219"
     height="14.287219"
     x="1.3361193"
     y="1.3567564"
     rx="2.1166251"
     ry="2.1166251" />
  <rect
     style="fill:url(#linearGradient1136);fill-opacity:1;stroke:none;stroke-width:0.478315;stroke-dasharray:none"
     id="rect246-5"
     width="12.914515"
     height="12.914515"
     x="2.0224717"
     y="2.0431087"
     rx="1.5874687"
     ry="1.5874687" />
  <path
     style="fill:#999999;fill-opacity:1;stroke:none;stroke-width:0.231048;stroke-dasharray:none;stroke-opacity:0.3"
     d="m 7.6388707,4.1955968 c -0.765857,0 -1.5724916,0.1991573 -2.4014991,0.5925566 -0.6747896,0.3202162 -0.9633085,0.5844101 -0.8037493,0.7363301 0.056285,0.053591 0.017366,0.064749 0.9625496,-0.2859219 0.645943,-0.2396494 1.4403967,-0.441836 1.8698634,-0.4764011 0.6631324,-0.053371 1.4529286,0.1125898 2.8510947,0.5986491 0.502084,0.1745451 1.079483,0.3578841 1.282992,0.4073569 0.435243,0.1058072 0.48108,0.089396 0.843956,0.090569 l 0.256274,3.89e-4 v -0.207537 c 0,-0.2367245 -0.02956,-0.2176903 -0.343186,-0.2176903 -0.699182,0 -0.87359,-0.1072957 -1.92591,-0.5511305 C 9.1041262,4.4073733 8.4213036,4.1955794 7.6388707,4.1955794 Z M 7.1685616,5.8615788 C 7.0496876,5.8659488 6.9436027,5.8768968 6.8582718,5.8944758 6.4647091,5.9755428 5.9375555,6.27013 5.6142682,6.5690725 5.1131597,7.0324461 4.5467074,7.8988335 4.6021703,8.1172742 c 0.024977,0.098366 0.051508,0.1050217 0.4930522,0.123466 0.2563224,0.0107 0.7583143,0.068793 1.1518101,0.1287463 L 6.9711783,8.4779263 V 8.7829369 C 6.847757,9.3419488 6.9358155,9.643836 6.9577773,9.8474266 7.0400274,10.58426 7.0410966,10.664456 7.2315148,10.637772 7.5256701,10.159593 7.5177418,9.2424039 7.5198732,8.7138933 l 0.300137,0.2907956 c 0.8223129,0.7252931 1.1268504,0.7773635 1.8320917,1.1164761 0.5833111,0.237749 1.0834191,0.343093 1.6468931,0.302166 0.346379,0 0.783706,-0.383904 0.783443,-0.8277102 -1.43e-4,-0.3422147 -0.09662,-0.631261 -0.331005,-0.7412039 -0.430885,-0.2021163 -0.908533,0.037576 -0.908533,0.4861485 0,0.4402576 0.424318,0.6848606 0.70587,0.4065436 0.117448,-0.1160961 0.146355,-0.3119397 0.06295,-0.4296942 -0.03701,-0.052277 -0.04099,-0.043537 -0.01787,0.037365 0.07977,0.2792104 -0.137735,0.4726728 -0.387863,0.3448131 -0.261405,-0.1336233 -0.211901,-0.5628692 0.07311,-0.6335792 0.140781,-0.034927 0.387345,0.1906418 0.479651,0.3768981 0.04973,0.100373 0.05158,0.1615053 0.0089,0.3021674 C 11.62778,10.206538 10.999284,10.20889 10.053335,9.7527295 9.8240735,9.6422403 9.5166017,9.4755025 9.3702407,9.3819912 9.1179818,9.2208231 8.7894866,9.0232128 8.3492073,8.640788 8.11597,8.4381965 8.1027726,8.465956 8.711077,8.3678617 8.8859643,8.3396624 9.3973397,8.1928118 9.8470478,8.0417327 10.645976,7.7733349 10.676327,7.7101401 11.16456,7.7066682 c 0.274825,-0.00197 -0.181812,-0.0192 0.274145,3.889e-4 l 0.853704,0.035325 V 7.3386874 6.894372 L 11.302649,6.870004 C 9.9225425,6.8341857 10.595337,6.8023568 9.1708274,6.2583707 8.8988177,6.154497 8.6088517,6.0289261 8.418658,5.9797594 8.0813731,5.8925676 7.5251837,5.8484881 7.1685626,5.8615731 Z m 1.6160266,0.7079001 c 0.016538,0 0.2519483,0.1321138 0.6315462,0.2928261 0.3795981,0.1607119 0.7394596,0.3039766 0.7992806,0.3188186 0.05981,0.014844 0.108441,0.043109 0.108441,0.06214 0,0.019033 -0.229854,0.1475581 -0.510924,0.2855159 -0.5731929,0.28134 -0.9131287,0.3992642 -1.4669736,0.4264457 L 8.2094955,7.9609038 8.356924,7.8459666 C 8.438137,7.7826966 8.5607525,7.6365628 8.6294433,7.5210541 8.7384237,7.3377991 8.7545341,7.2639312 8.7545341,6.9406817 c 0,-0.2037469 0.013515,-0.3712113 0.030055,-0.371211 z m -2.3901267,0.097879 c 0.068078,-0.012756 0.067593,0.091643 0.068231,0.3001366 0.00127,0.4102981 0.100935,0.6338738 0.3874563,0.8691374 L 7.0373791,7.9901529 6.0740174,7.9093309 C 5.6061099,7.86521 5.2427488,7.8195265 5.2300606,7.8069839 5.1845836,7.7620312 5.5189587,7.4185055 5.8867876,7.0694357 6.1606635,6.8095276 6.3263819,6.6801091 6.3944615,6.6673579 Z"
     id="path3-8" />
  <g
     aria-label="Krita"
     id="text1450"
     style="font-size:1.76385px;opacity:1;fill:#ff00ff;stroke-width:0.529156">
    <rect
       style="font-size:1.76385px;fill:#ff00ff;fill-opacity:1;stroke:none;stroke-width:0.519976;stroke-dasharray:none;filter:url(#filter1694)"
       id="rect1656-7"
       width="0.5055005"
       height="2.2653189"
       x="15.369148"
       y="4.3016486"
       rx="0"
       ry="0" />
    <rect
       style="opacity:1;fill:#ff00ff;fill-opacity:1;stroke:none;stroke-width:0.519976;stroke-dasharray:none"
       id="rect1656"
       width="0.5055005"
       height="2.2653189"
       x="15.369148"
       y="4.3016486"
       rx="0"
       ry="0" />
  </g>
  <g
     aria-label="Steam"
     id="text2284"
     style="font-size:1.76385px;opacity:1;fill:#999999;stroke-width:0.529156">
    <path
       d="m 6.7172843,13.496001 h 0.4356709 v 0.617348 q -0.1023033,0.03351 -0.2063705,0.04939 -0.1040671,0.01587 -0.2363558,0.01587 -0.1957874,0 -0.32984,-0.07761 -0.1340526,-0.07937 -0.2046066,-0.224009 -0.06879,-0.1464 -0.06879,-0.345715 0,-0.197551 0.077609,-0.342187 0.077609,-0.144635 0.2222451,-0.224009 0.1463995,-0.08114 0.35277,-0.08114 0.105831,0 0.199315,0.0194 0.095248,0.0194 0.176385,0.05468 l -0.059971,0.13758 q -0.067026,-0.02998 -0.1516911,-0.05115 -0.082901,-0.02117 -0.1728573,-0.02117 -0.2257728,0 -0.35277,0.135817 -0.1252333,0.135816 -0.1252333,0.372172 0,0.149927 0.047624,0.266342 0.049388,0.11465 0.153455,0.179912 0.1040671,0.0635 0.2733967,0.0635 0.082901,0 0.141108,-0.0088 0.058207,-0.0088 0.105831,-0.02117 V 13.637109 H 6.7172843 Z m 1.0741858,-0.296327 q 0.1728573,0 0.2557582,0.07585 0.082901,0.07584 0.082901,0.241647 v 0.643806 H 8.0172429 L 7.9872574,14.02692 h -0.00706 q -0.061735,0.07761 -0.1305249,0.11465 -0.067026,0.03704 -0.1869681,0.03704 -0.128761,0 -0.2134258,-0.06703 -0.084665,-0.06879 -0.084665,-0.213426 0,-0.141108 0.1111225,-0.216954 0.1111226,-0.07761 0.3421869,-0.08466 l 0.1605104,-0.0053 V 13.5348 q 0,-0.118178 -0.051152,-0.164038 -0.051152,-0.04586 -0.1446357,-0.04586 -0.074082,0 -0.141108,0.02293 -0.067026,0.02117 -0.1252333,0.04939 l -0.047624,-0.116415 q 0.061735,-0.03351 0.1463996,-0.05644 0.084665,-0.02469 0.176385,-0.02469 z m 0.04586,0.504461 q -0.176385,0.0071 -0.2451752,0.05644 -0.067026,0.04939 -0.067026,0.139344 0,0.07937 0.047624,0.116414 0.049388,0.03704 0.1252333,0.03704 0.1199418,0 0.1993151,-0.06526 0.079373,-0.06703 0.079373,-0.204606 v -0.08467 z m 1.6227435,-0.506224 q 0.1605103,0 0.2398836,0.0829 0.079373,0.08114 0.079373,0.264578 v 0.615584 H 9.6258756 v -0.608529 q 0,-0.224009 -0.1922597,-0.224009 -0.1375803,0 -0.1975512,0.07937 -0.058207,0.07937 -0.058207,0.231064 v 0.5221 H 9.0244027 V 13.55244 q 0,-0.224009 -0.1940234,-0.224009 -0.1428719,0 -0.1975512,0.08819 -0.054679,0.08819 -0.054679,0.253994 v 0.490351 H 8.4229299 v -0.945424 h 0.1252334 l 0.02293,0.128761 h 0.00882 q 0.044096,-0.07408 0.1181779,-0.109359 0.075846,-0.03704 0.1605104,-0.03704 0.222245,0 0.2892713,0.158746 h 0.00882 q 0.047624,-0.08114 0.128761,-0.119942 0.082901,-0.0388 0.1746212,-0.0388 z m 0.9771714,0 q 0.121705,0 0.208134,0.05292 0.08819,0.05292 0.134052,0.149927 0.04762,0.09525 0.04762,0.224009 v 0.09348 h -0.647333 q 0.0035,0.160511 0.08114,0.245175 0.07937,0.0829 0.220481,0.0829 0.08996,0 0.158746,-0.01587 0.07055,-0.01764 0.144636,-0.04939 v 0.135816 q -0.07232,0.03175 -0.142872,0.04586 -0.07055,0.01587 -0.167566,0.01587 -0.134052,0 -0.238119,-0.05468 -0.102304,-0.05468 -0.160511,-0.162274 -0.05644,-0.109359 -0.05644,-0.266342 0,-0.155219 0.05115,-0.266341 0.05291,-0.111123 0.146399,-0.171094 0.09525,-0.05997 0.220482,-0.05997 z m -0.0018,0.126997 q -0.111123,0 -0.176385,0.07232 -0.0635,0.07055 -0.07585,0.197551 h 0.481531 q -0.0018,-0.119942 -0.05644,-0.194024 -0.05468,-0.07584 -0.172857,-0.07584 z"
       id="text2"
       style="text-align:center;text-anchor:middle;stroke-width:0.140003"
       aria-label="Game" />
  </g>
</svg>
