<?xml version="1.0" encoding="UTF-8" standalone="no"?>
<svg
   width="64"
   height="64"
   version="1.1"
   viewBox="0 0 16.933 16.933"
   id="svg7"
   sodipodi:docname="steam_icon_1086940.svg"
   inkscape:version="1.4 (e7c3feb100, 2024-10-09)"
   xmlns:inkscape="http://www.inkscape.org/namespaces/inkscape"
   xmlns:sodipodi="http://sodipodi.sourceforge.net/DTD/sodipodi-0.dtd"
   xmlns:xlink="http://www.w3.org/1999/xlink"
   xmlns="http://www.w3.org/2000/svg"
   xmlns:svg="http://www.w3.org/2000/svg"
   xmlns:rdf="http://www.w3.org/1999/02/22-rdf-syntax-ns#"
   xmlns:cc="http://creativecommons.org/ns#"
   xmlns:dc="http://purl.org/dc/elements/1.1/">
  <sodipodi:namedview
     id="namedview7"
     pagecolor="#9c4444"
     bordercolor="#000000"
     borderopacity="0.25"
     inkscape:showpageshadow="2"
     inkscape:pageopacity="0.0"
     inkscape:pagecheckerboard="0"
     inkscape:deskcolor="#d1d1d1"
     inkscape:zoom="4.3531261"
     inkscape:cx="35.491735"
     inkscape:cy="39.856415"
     inkscape:window-width="1183"
     inkscape:window-height="973"
     inkscape:window-x="35"
     inkscape:window-y="32"
     inkscape:window-maximized="0"
     inkscape:current-layer="svg7"
     showgrid="false" />
  <defs
     id="defs2">
    <linearGradient
       inkscape:collect="always"
       id="linearGradient1134">
      <stop
         style="stop-color:#161616;stop-opacity:1;"
         offset="0"
         id="stop1130" />
      <stop
         style="stop-color:#404040;stop-opacity:1;"
         offset="1"
         id="stop1132" />
    </linearGradient>
    <linearGradient
       inkscape:collect="always"
       id="linearGradient883">
      <stop
         style="stop-color:#808080;stop-opacity:1;"
         offset="0"
         id="stop879" />
      <stop
         style="stop-color:#3e3e3e;stop-opacity:1;"
         offset="0.5"
         id="stop1216" />
      <stop
         style="stop-color:#242424;stop-opacity:1;"
         offset="1"
         id="stop881" />
    </linearGradient>
    <linearGradient
       inkscape:collect="always"
       xlink:href="#linearGradient883"
       id="linearGradient885"
       x1="2.1085808"
       y1="2.0236168"
       x2="14.846128"
       y2="15.071845"
       gradientUnits="userSpaceOnUse" />
    <linearGradient
       inkscape:collect="always"
       xlink:href="#linearGradient1134"
       id="linearGradient1136"
       x1="14.971222"
       y1="14.703373"
       x2="2.0756054"
       y2="2.0069976"
       gradientUnits="userSpaceOnUse" />
    <filter
       style="color-interpolation-filters:sRGB;"
       inkscape:label="Blur"
       id="filter1283"
       x="-0.082344266"
       y="-0.082344266"
       width="1.1646885"
       height="1.1646885">
      <feGaussianBlur
         stdDeviation="0.5 0.5"
         result="blur"
         id="feGaussianBlur1281" />
    </filter>
    <filter
       style="color-interpolation-filters:sRGB;"
       inkscape:label="Blur"
       id="filter1694"
       x="-0.94955398"
       y="-0.2118907"
       width="2.899108"
       height="1.4237814">
      <feGaussianBlur
         stdDeviation="0.2 0.2"
         result="blur"
         id="feGaussianBlur1692" />
    </filter>
  </defs>
  <metadata
     id="metadata2">
    <rdf:RDF>
      <cc:Work
         rdf:about="">
        <dc:format>image/svg+xml</dc:format>
        <dc:type
           rdf:resource="http://purl.org/dc/dcmitype/StillImage" />
      </cc:Work>
    </rdf:RDF>
  </metadata>
  <rect
     style="fill:#000000;stroke:none;stroke-width:0.539739;stroke-dasharray:none;filter:url(#filter1283)"
     id="rect246-1"
     width="14.572964"
     height="14.572964"
     x="1.1932471"
     y="1.2138842"
     rx="2.1589575"
     ry="2.1589575" />
  <rect
     style="opacity:1;fill:#000000;stroke:url(#linearGradient885);stroke-width:0.52915625;stroke-dasharray:none"
     id="rect246"
     width="14.287219"
     height="14.287219"
     x="1.3361193"
     y="1.3567564"
     rx="2.1166251"
     ry="2.1166251" />
  <rect
     style="fill:url(#linearGradient1136);fill-opacity:1;stroke:none;stroke-width:0.478315;stroke-dasharray:none"
     id="rect246-5"
     width="12.914515"
     height="12.914515"
     x="2.0224717"
     y="2.0431087"
     rx="1.5874687"
     ry="1.5874687" />
  <path
     style="fill:#999999;stroke:none;stroke-width:0.228739;stroke-dasharray:none;stroke-opacity:0.3"
     d="M 8.4670556,11.687459 C 8.4669378,11.667015 8.3928102,11.422831 8.3023255,11.144821 8.1559809,10.69519 8.134871,10.598295 8.1112299,10.267683 8.096611,10.063265 8.0759568,9.8734023 8.065328,9.845766 7.9899089,9.6496436 7.4610144,9.6187356 7.3166876,9.8020179 7.1487043,10.015339 6.9898901,10.002955 7.0268956,9.7794189 7.0547709,9.6110333 7.088688,9.5553766 7.292793,9.3430875 7.4814595,9.1468569 7.682008,9.0336162 7.9469306,8.9737281 l 0.1486677,-0.033607 0.014865,-0.7262613 c 0.00818,-0.3994403 0.011119,-1.0963245 0.00652,-1.5486284 l -0.00833,-0.822364 -0.095738,0.015076 c -0.052647,0.00829 -0.1157999,0.025664 -0.1403302,0.038615 -0.024531,0.012951 -0.1704867,0.0656 -0.3243492,0.1170014 -0.6383263,0.2132456 -1.2776296,0.667192 -1.371564,0.973898 -0.048925,0.1597457 -0.074147,1.3287286 -0.032024,1.4842901 0.046263,0.1708502 0.1493523,0.3123748 0.2815702,0.3865408 0.062086,0.034838 0.1152104,0.074941 0.1180549,0.08915 0.00921,0.045984 -0.2216972,0.067611 -0.7530336,0.070535 C 5.3088274,9.0207274 4.9062389,9.0021703 4.8174763,8.9733505 4.7556121,8.9532625 4.7763643,8.91823 4.8926092,8.8465386 4.953496,8.8089951 5.0367604,8.7287095 5.077644,8.6681391 L 5.151977,8.5580124 5.160347,7.3163589 5.168717,6.0747053 5.264414,6.1264343 C 5.472067,6.2386736 5.9113601,6.1690251 6.1183159,5.9910444 6.2575153,5.8713334 6.6677413,5.6198014 6.9091724,5.5061268 7.1849403,5.3762855 7.7086441,5.1955731 7.8948936,5.1659889 c 0.069503,-0.011042 0.1263675,-0.036284 0.1263675,-0.0561 0,-0.019816 0.033081,-0.0511 0.073514,-0.069523 0.040432,-0.01842 0.079294,-0.064055 0.086356,-0.1014068 0.023552,-0.1245373 0.1954174,-1.135171 0.231502,-1.3613196 0.01957,-0.1226504 0.044836,-0.2339898 0.056146,-0.2474198 0.044051,-0.052312 0.3247167,1.2340905 0.3253219,1.4910814 1.714e-4,0.07007 0.026249,0.124937 0.089434,0.1881219 0.049059,0.049059 0.089201,0.098327 0.089201,0.1094835 0,0.011156 0.1103854,0.044894 0.2453016,0.074972 0.2962975,0.066059 0.6997316,0.2179776 0.9858454,0.3712356 0.301683,0.1615974 0.615103,0.3571488 0.701533,0.4377043 0.117624,0.1096305 0.291458,0.1672016 0.519057,0.1719061 0.144294,0.00298 0.239465,-0.011101 0.306047,-0.045292 l 0.09664,-0.04962 7.15e-4,1.1944954 c 7.94e-4,1.3612838 -0.0021,1.3436634 0.248509,1.5531282 0.09511,0.079502 0.127513,0.1239973 0.10598,0.1455401 -0.04511,0.045117 -1.629767,0.042128 -1.706572,-0.00324 -0.05406,-0.031922 -0.05102,-0.037244 0.04461,-0.077938 0.120747,-0.051378 0.206467,-0.1402856 0.292758,-0.3036279 0.05758,-0.1090049 0.0626,-0.1659554 0.0626,-0.711168 0,-0.7596311 -0.02725,-0.9242567 -0.182211,-1.1002857 C 10.526254,6.5867451 10.270953,6.4034814 9.9283981,6.2275228 9.5672735,6.0420267 8.9420058,5.8185693 8.900427,5.8601478 c -0.0087,0.0087 -0.0158,0.7024653 -0.015764,1.5416902 l 6.67e-5,1.5258651 0.1257746,0.031752 C 9.4573291,9.0723043 9.8309816,9.3571734 9.9429178,9.670318 9.9986728,9.826272 9.9923638,9.9041301 9.9209218,9.9423693 9.8666968,9.9713853 9.843421,9.9616023 9.749952,9.8705313 9.618026,9.7419876 9.4607296,9.6729975 9.2995826,9.6729975 c -0.1212554,0 -0.3176488,0.080052 -0.3776227,0.1539279 -0.017564,0.021636 -0.038649,0.2199706 -0.046852,0.4407406 -0.01441,0.387785 -0.020572,0.418866 -0.1816401,0.916103 -0.0917,0.283083 -0.1667276,0.52058 -0.1667276,0.527768 0,0.0071 -0.013378,0.01309 -0.029733,0.01309 -0.016351,0 -0.029829,-0.01672 -0.029947,-0.03716 z"
     id="path1-3" />
  <g
     aria-label="Krita"
     id="text1450"
     style="font-size:1.76385px;opacity:1;fill:#ff00ff;stroke-width:0.529156">
    <rect
       style="font-size:1.76385px;fill:#ff00ff;fill-opacity:1;stroke:none;stroke-width:0.519976;stroke-dasharray:none;filter:url(#filter1694)"
       id="rect1656-7"
       width="0.5055005"
       height="2.2653189"
       x="15.369148"
       y="4.3016486"
       rx="0"
       ry="0" />
    <rect
       style="opacity:1;fill:#ff00ff;fill-opacity:1;stroke:none;stroke-width:0.519976;stroke-dasharray:none"
       id="rect1656"
       width="0.5055005"
       height="2.2653189"
       x="15.369148"
       y="4.3016486"
       rx="0"
       ry="0" />
  </g>
  <g
     aria-label="Steam"
     id="text2284"
     style="font-size:1.76385px;opacity:1;fill:#999999;stroke-width:0.529156">
    <path
       d="m 6.7172843,13.496001 h 0.4356709 v 0.617348 q -0.1023033,0.03351 -0.2063705,0.04939 -0.1040671,0.01587 -0.2363558,0.01587 -0.1957874,0 -0.32984,-0.07761 -0.1340526,-0.07937 -0.2046066,-0.224009 -0.06879,-0.1464 -0.06879,-0.345715 0,-0.197551 0.077609,-0.342187 0.077609,-0.144635 0.2222451,-0.224009 0.1463995,-0.08114 0.35277,-0.08114 0.105831,0 0.199315,0.0194 0.095248,0.0194 0.176385,0.05468 l -0.059971,0.13758 q -0.067026,-0.02998 -0.1516911,-0.05115 -0.082901,-0.02117 -0.1728573,-0.02117 -0.2257728,0 -0.35277,0.135817 -0.1252333,0.135816 -0.1252333,0.372172 0,0.149927 0.047624,0.266342 0.049388,0.11465 0.153455,0.179912 0.1040671,0.0635 0.2733967,0.0635 0.082901,0 0.141108,-0.0088 0.058207,-0.0088 0.105831,-0.02117 V 13.637109 H 6.7172843 Z m 1.0741858,-0.296327 q 0.1728573,0 0.2557582,0.07585 0.082901,0.07584 0.082901,0.241647 v 0.643806 H 8.0172429 L 7.9872574,14.02692 h -0.00706 q -0.061735,0.07761 -0.1305249,0.11465 -0.067026,0.03704 -0.1869681,0.03704 -0.128761,0 -0.2134258,-0.06703 -0.084665,-0.06879 -0.084665,-0.213426 0,-0.141108 0.1111225,-0.216954 0.1111226,-0.07761 0.3421869,-0.08466 l 0.1605104,-0.0053 V 13.5348 q 0,-0.118178 -0.051152,-0.164038 -0.051152,-0.04586 -0.1446357,-0.04586 -0.074082,0 -0.141108,0.02293 -0.067026,0.02117 -0.1252333,0.04939 l -0.047624,-0.116415 q 0.061735,-0.03351 0.1463996,-0.05644 0.084665,-0.02469 0.176385,-0.02469 z m 0.04586,0.504461 q -0.176385,0.0071 -0.2451752,0.05644 -0.067026,0.04939 -0.067026,0.139344 0,0.07937 0.047624,0.116414 0.049388,0.03704 0.1252333,0.03704 0.1199418,0 0.1993151,-0.06526 0.079373,-0.06703 0.079373,-0.204606 v -0.08467 z m 1.6227435,-0.506224 q 0.1605103,0 0.2398836,0.0829 0.079373,0.08114 0.079373,0.264578 v 0.615584 H 9.6258756 v -0.608529 q 0,-0.224009 -0.1922597,-0.224009 -0.1375803,0 -0.1975512,0.07937 -0.058207,0.07937 -0.058207,0.231064 v 0.5221 H 9.0244027 V 13.55244 q 0,-0.224009 -0.1940234,-0.224009 -0.1428719,0 -0.1975512,0.08819 -0.054679,0.08819 -0.054679,0.253994 v 0.490351 H 8.4229299 v -0.945424 h 0.1252334 l 0.02293,0.128761 h 0.00882 q 0.044096,-0.07408 0.1181779,-0.109359 0.075846,-0.03704 0.1605104,-0.03704 0.222245,0 0.2892713,0.158746 h 0.00882 q 0.047624,-0.08114 0.128761,-0.119942 0.082901,-0.0388 0.1746212,-0.0388 z m 0.9771714,0 q 0.121705,0 0.208134,0.05292 0.08819,0.05292 0.134052,0.149927 0.04762,0.09525 0.04762,0.224009 v 0.09348 h -0.647333 q 0.0035,0.160511 0.08114,0.245175 0.07937,0.0829 0.220481,0.0829 0.08996,0 0.158746,-0.01587 0.07055,-0.01764 0.144636,-0.04939 v 0.135816 q -0.07232,0.03175 -0.142872,0.04586 -0.07055,0.01587 -0.167566,0.01587 -0.134052,0 -0.238119,-0.05468 -0.102304,-0.05468 -0.160511,-0.162274 -0.05644,-0.109359 -0.05644,-0.266342 0,-0.155219 0.05115,-0.266341 0.05291,-0.111123 0.146399,-0.171094 0.09525,-0.05997 0.220482,-0.05997 z m -0.0018,0.126997 q -0.111123,0 -0.176385,0.07232 -0.0635,0.07055 -0.07585,0.197551 h 0.481531 q -0.0018,-0.119942 -0.05644,-0.194024 -0.05468,-0.07584 -0.172857,-0.07584 z"
       id="text2"
       style="text-align:center;text-anchor:middle;stroke-width:0.140003"
       aria-label="Game" />
  </g>
</svg>
