<?xml version="1.0" encoding="UTF-8" standalone="no"?>
<svg
   width="64"
   height="64"
   version="1.1"
   viewBox="0 0 16.933 16.933"
   id="svg7"
   sodipodi:docname="steam_icon_1086940.svg"
   inkscape:version="1.4 (e7c3feb100, 2024-10-09)"
   xmlns:inkscape="http://www.inkscape.org/namespaces/inkscape"
   xmlns:sodipodi="http://sodipodi.sourceforge.net/DTD/sodipodi-0.dtd"
   xmlns:xlink="http://www.w3.org/1999/xlink"
   xmlns="http://www.w3.org/2000/svg"
   xmlns:svg="http://www.w3.org/2000/svg"
   xmlns:rdf="http://www.w3.org/1999/02/22-rdf-syntax-ns#"
   xmlns:cc="http://creativecommons.org/ns#"
   xmlns:dc="http://purl.org/dc/elements/1.1/">
  <sodipodi:namedview
     id="namedview7"
     pagecolor="#9c4444"
     bordercolor="#000000"
     borderopacity="0.25"
     inkscape:showpageshadow="2"
     inkscape:pageopacity="0.0"
     inkscape:pagecheckerboard="0"
     inkscape:deskcolor="#d1d1d1"
     inkscape:zoom="4.3531261"
     inkscape:cx="35.951175"
     inkscape:cy="39.856415"
     inkscape:window-width="1183"
     inkscape:window-height="973"
     inkscape:window-x="35"
     inkscape:window-y="32"
     inkscape:window-maximized="0"
     inkscape:current-layer="svg7"
     showgrid="false" />
  <defs
     id="defs2">
    <linearGradient
       inkscape:collect="always"
       id="linearGradient1134">
      <stop
         style="stop-color:#161616;stop-opacity:1;"
         offset="0"
         id="stop1130" />
      <stop
         style="stop-color:#404040;stop-opacity:1;"
         offset="1"
         id="stop1132" />
    </linearGradient>
    <linearGradient
       inkscape:collect="always"
       id="linearGradient883">
      <stop
         style="stop-color:#808080;stop-opacity:1;"
         offset="0"
         id="stop879" />
      <stop
         style="stop-color:#3e3e3e;stop-opacity:1;"
         offset="0.5"
         id="stop1216" />
      <stop
         style="stop-color:#242424;stop-opacity:1;"
         offset="1"
         id="stop881" />
    </linearGradient>
    <linearGradient
       inkscape:collect="always"
       xlink:href="#linearGradient883"
       id="linearGradient885"
       x1="2.1085808"
       y1="2.0236168"
       x2="14.846128"
       y2="15.071845"
       gradientUnits="userSpaceOnUse" />
    <linearGradient
       inkscape:collect="always"
       xlink:href="#linearGradient1134"
       id="linearGradient1136"
       x1="14.971222"
       y1="14.703373"
       x2="2.0756054"
       y2="2.0069976"
       gradientUnits="userSpaceOnUse" />
    <filter
       style="color-interpolation-filters:sRGB;"
       inkscape:label="Blur"
       id="filter1283"
       x="-0.082344266"
       y="-0.082344266"
       width="1.1646885"
       height="1.1646885">
      <feGaussianBlur
         stdDeviation="0.5 0.5"
         result="blur"
         id="feGaussianBlur1281" />
    </filter>
    <filter
       style="color-interpolation-filters:sRGB;"
       inkscape:label="Blur"
       id="filter1694"
       x="-0.94955398"
       y="-0.2118907"
       width="2.899108"
       height="1.4237814">
      <feGaussianBlur
         stdDeviation="0.2 0.2"
         result="blur"
         id="feGaussianBlur1692" />
    </filter>
  </defs>
  <metadata
     id="metadata2">
    <rdf:RDF>
      <cc:Work
         rdf:about="">
        <dc:format>image/svg+xml</dc:format>
        <dc:type
           rdf:resource="http://purl.org/dc/dcmitype/StillImage" />
      </cc:Work>
    </rdf:RDF>
  </metadata>
  <rect
     style="fill:#000000;stroke:none;stroke-width:0.539739;stroke-dasharray:none;filter:url(#filter1283)"
     id="rect246-1"
     width="14.572964"
     height="14.572964"
     x="1.1932471"
     y="1.2138842"
     rx="2.1589575"
     ry="2.1589575" />
  <rect
     style="opacity:1;fill:#000000;stroke:url(#linearGradient885);stroke-width:0.52915625;stroke-dasharray:none"
     id="rect246"
     width="14.287219"
     height="14.287219"
     x="1.3361193"
     y="1.3567564"
     rx="2.1166251"
     ry="2.1166251" />
  <rect
     style="fill:url(#linearGradient1136);fill-opacity:1;stroke:none;stroke-width:0.478315;stroke-dasharray:none"
     id="rect246-5"
     width="12.914515"
     height="12.914515"
     x="2.0224717"
     y="2.0431087"
     rx="1.5874687"
     ry="1.5874687" />
  <path
     style="fill:#999999;fill-opacity:1;stroke-width:0.0184621"
     d="m 7.303978,11.184137 c -0.02696,-0.65737 -0.028373,-0.647652 0.092687,-0.63714 l 0.055386,0.0048 -0.00446,0.477936 c -0.00467,0.500562 -0.00924,0.528253 -0.08725,0.528253 -0.040545,0 -0.041213,-0.0044 -0.056364,-0.373859 z m 0.6109461,0.307921 c -0.035854,-0.03585 -0.036037,-0.06138 -0.00167,-0.232099 0.015043,-0.07471 0.038875,-0.249852 0.05296,-0.389219 0.029642,-0.293291 0.05242,-0.346628 0.1480303,-0.346628 0.1127907,0 0.1487321,0.09905 0.103843,0.286164 -0.00974,0.04063 -0.039317,0.193993 -0.065719,0.340834 -0.056849,0.31619 -0.079356,0.369961 -0.1548479,0.369961 -0.029477,0 -0.066649,-0.01305 -0.082606,-0.02902 z m 1.4550216,0.01514 c -0.011715,-0.0078 -0.029651,-0.125545 -0.041497,-0.272295 -0.011473,-0.142157 -0.02919,-0.287493 -0.039369,-0.322964 -0.026759,-0.09326 -0.02272,-0.249691 0.00837,-0.324096 0.030989,-0.07416 0.092015,-0.104579 0.1535758,-0.07653 0.052783,0.02405 0.068159,0.0836 0.050113,0.194114 -0.021573,0.132116 -0.026415,0.19191 -0.041347,0.510811 -0.011265,0.240563 -0.01895,0.296075 -0.041517,0.299987 -0.015232,0.0026 -0.036979,-0.0014 -0.048327,-0.009 z m -1.7228882,-0.05882 c -0.039756,-0.03976 -0.040319,-0.05053 -0.0466,-0.889943 -8.586e-4,-0.112536 0.031084,-0.145303 0.1133756,-0.116362 0.081075,0.02851 0.088492,0.08107 0.062846,0.4454 -0.044092,0.626396 -0.047853,0.642674 -0.1296216,0.560905 z m 1.0441901,-0.0058 c -0.03649,-0.05761 -0.1250286,-0.531708 -0.1275468,-0.682985 -0.00238,-0.142673 0.040847,-0.226277 0.1169785,-0.226277 0.036603,0 0.048089,0.01662 0.076563,0.110771 0.018425,0.06092 0.037472,0.152313 0.042328,0.203085 0.00485,0.05077 0.022997,0.197929 0.040314,0.327019 0.030367,0.226377 0.030277,0.236046 -0.00256,0.272317 -0.045108,0.04984 -0.1131823,0.04801 -0.1460858,-0.004 z m 0.3481584,0.02245 C 9.032916,11.454498 9.019653,11.29458 9.009935,11.109615 9.000215,10.924647 8.987604,10.729456 8.981905,10.675854 8.9688,10.552567 8.99384,10.516279 9.0821287,10.530607 c 0.1195947,0.0194 0.1388355,0.07618 0.089103,0.262959 -0.017965,0.06746 -0.022424,0.167367 -0.01575,0.352905 0.00886,0.246107 0.00737,0.260737 -0.03011,0.29822 -0.04347,0.04347 -0.068063,0.04928 -0.085965,0.02031 z m 0.592679,-0.09629 c -0.00466,-0.02285 -0.013734,-0.07893 -0.020193,-0.124619 -0.00649,-0.0457 -0.018837,-0.124621 -0.02749,-0.175392 -0.00865,-0.05077 -0.016308,-0.158775 -0.017007,-0.240008 -9.45e-4,-0.116813 0.00642,-0.160372 0.035684,-0.208319 0.037828,-0.06204 0.083866,-0.09227 0.1063245,-0.0698 0.014329,0.01433 0.00951,0.478169 -0.00737,0.707376 -0.00815,0.110776 -0.018065,0.152312 -0.036363,0.152312 -0.013837,0 -0.028956,-0.01869 -0.033593,-0.04153 z M 7.0593549,10.972055 c 0.00446,-0.342573 0.00828,-0.383483 0.036231,-0.388854 0.087367,-0.01679 0.1275925,0.243305 0.083015,0.536768 -0.027452,0.180726 -0.050166,0.234936 -0.098429,0.234936 -0.021432,0 -0.024961,-0.06491 -0.020817,-0.38285 z m 1.2435972,-0.541676 c -0.026288,-0.03124 -0.048061,-0.0707 -0.048384,-0.0877 -0.0013,-0.06833 -0.0887,-0.132435 -0.1805605,-0.132435 -0.075518,0 -0.099362,0.03575 -0.084758,0.127073 0.025187,0.157509 -0.062238,0.171639 -0.2418039,0.03909 -0.068778,-0.05077 -0.1361857,-0.09231 -0.1497948,-0.09231 -0.02982,0 -0.072211,0.0642 -0.088368,0.13385 -0.00648,0.02792 -0.019373,0.05077 -0.028653,0.05077 -0.00928,0 -0.04684,-0.03657 -0.083463,-0.08126 -0.036624,-0.04469 -0.086958,-0.08637 -0.1118536,-0.09262 -0.051952,-0.01303 -0.1533529,0.02418 -0.1916436,0.07035 -0.036969,0.04459 -0.056381,0.0068 -0.056734,-0.110647 -4.01e-4,-0.138109 0.025891,-0.194236 0.1184928,-0.25282 C 7.2498593,9.9419783 7.3628288,9.822641 7.388257,9.7557593 7.461048,9.5643139 7.2895349,9.2573626 7.0736203,9.192672 6.8382021,9.1221453 6.3807994,9.3494969 6.2565669,9.5987988 l -0.044492,0.089282 -0.066437,-0.034085 C 6.0387226,9.5991423 5.855719,9.4178211 5.7606398,9.2725354 5.6677276,9.1305586 5.5831572,8.9315147 5.5325206,8.7356332 5.5031842,8.6221487 5.5033796,8.6165893 5.5380391,8.5787055 5.6468961,8.4597182 5.6976921,8.2597108 5.6835263,8.0058564 5.6710058,7.7814646 5.6237117,7.6319449 5.5130746,7.4669556 L 5.4344108,7.3496475 5.6121659,7.2245129 C 5.8476964,7.0587066 6.1759411,6.7335768 6.2976728,6.5455134 6.4259057,6.3474055 6.4404809,6.3331981 6.5154883,6.3331981 c 0.051931,0 0.084651,0.019208 0.1746347,0.1025167 0.3753955,0.3475493 0.753661,0.5203403 1.2696373,0.5799663 0.096465,0.011146 0.1895801,0.024603 0.2069234,0.029902 0.047723,0.014581 0.1807822,0.1911818 0.1807822,0.2399425 0,0.070108 -0.1851925,0.4120122 -0.275884,0.5093398 C 7.9699936,7.9038879 7.8942199,7.9310223 7.8143321,7.8869882 7.7837383,7.8701256 7.6913686,7.7981725 7.6090658,7.7270929 7.2172515,7.3887104 6.8187612,7.2226252 6.4458616,7.2422871 c -0.1593232,0.0084 -0.3310659,0.066058 -0.4102697,0.1377362 -0.018177,0.01645 -0.036789,0.026168 -0.04136,0.021598 -0.00742,-0.00742 0.082958,-0.083557 0.1839281,-0.1549541 0.034574,-0.024448 0.032517,-0.026148 -0.032309,-0.026698 -0.038078,-3.246e-4 -0.069233,-0.00571 -0.069233,-0.011959 0,-0.00625 0.029486,-0.051541 0.065525,-0.1006357 0.075496,-0.1028474 0.1965514,-0.1968969 0.3411588,-0.265051 l 0.1010254,-0.047614 -0.073849,0.010366 c -0.182903,0.025676 -0.4514321,0.209831 -0.536616,0.3680079 -0.019183,0.03562 -0.048925,0.064764 -0.066093,0.064764 -0.078251,0 -0.084413,0.013378 -0.060224,0.1307541 0.040255,0.1953473 0.049567,0.5301328 0.026092,0.9382503 l -0.022641,0.3936375 0.040127,0.039479 0.040126,0.039479 -0.01068,-0.046162 c -0.00693,-0.029929 0.024979,-0.1532617 0.09074,-0.3507857 0.05578,-0.1675445 0.1015843,-0.2838557 0.1017846,-0.2584703 2.099e-4,0.025386 -0.012133,0.1703057 -0.027407,0.3220452 -0.015274,0.151739 -0.021488,0.2812598 -0.013806,0.287824 0.00768,0.00656 0.047199,0.031663 0.087816,0.055777 l 0.07385,0.043845 -0.047163,-0.063966 -0.047163,-0.063966 0.08708,-0.3507812 c 0.047894,-0.1929299 0.087811,-0.3294914 0.088704,-0.3034703 8.991e-4,0.026021 -0.011285,0.1827343 -0.027063,0.348251 -0.015778,0.1655158 -0.026162,0.3030691 -0.023078,0.3056741 0.00309,0.00259 0.075018,0.04796 0.1598521,0.1007939 C 6.6053209,8.9185329 6.725162,8.946188 6.9535725,8.9280926 7.2319529,8.9060444 7.5054582,8.8037316 7.7472152,8.631217 7.8711514,8.5427785 7.9011804,8.4951412 7.7899562,8.5634128 7.7167934,8.6083264 7.4051278,8.73867 7.3950379,8.728579 7.3865599,8.720101 7.7756358,8.4349547 7.9291412,8.3371507 c 0.059315,-0.037793 0.1351207,-0.08011 0.1684555,-0.094038 0.056865,-0.023759 0.0641,-0.037632 0.1171135,-0.2245141 l 0.056505,-0.19919 0.00118,0.1092347 c 6.691e-4,0.060079 0.00538,0.1050545 0.010493,0.099946 0.00511,-0.00511 0.025576,-0.083342 0.045485,-0.173852 l 0.0362,-0.1645638 -0.010619,0.2446238 c -0.00999,0.2300476 -0.00857,0.2446255 0.023747,0.2446486 0.031835,1.4e-5 0.034114,-0.016647 0.03092,-0.2261613 l -0.00345,-0.226187 0.031141,0.141779 c 0.04064,0.1850208 0.065394,0.2057067 0.051269,0.042843 L 8.4763766,7.7824842 8.5374533,7.9932885 8.59853,8.2040922 8.7133774,8.2649772 C 8.776543,8.2984644 8.8675179,8.352648 8.9155433,8.3853848 9.0127713,8.4516626 9.343307,8.6934216 9.372106,8.719323 9.3993904,8.7438579 9.2067495,8.6678151 9.0585539,8.5955446 8.987642,8.5609612 8.926846,8.5354462 8.9234518,8.5388446 c -0.012502,0.012499 0.2311735,0.1737068 0.3601927,0.2382905 0.2167134,0.1084825 0.386022,0.1477076 0.642327,0.1488156 0.2381135,0.00105 0.2716975,-0.00917 0.4956225,-0.1505295 l 0.07267,-0.045878 -0.0121,-0.1965964 c -0.0067,-0.1081283 -0.01602,-0.2589071 -0.02083,-0.3350633 -0.0068,-0.1098462 0.005,-0.065962 0.05785,0.2123152 0.03662,0.1929287 0.06916,0.3536666 0.07233,0.3571958 0.0031,0.00356 0.03126,-0.00864 0.06242,-0.027062 0.06663,-0.039358 0.06667,-0.039949 0.02897,-0.3578305 -0.01505,-0.1269274 -0.02668,-0.2390852 -0.02586,-0.249239 8.91e-4,-0.010153 0.03763,0.1225549 0.08176,0.2949089 0.05891,0.2300949 0.07494,0.3197519 0.06031,0.3373815 -0.04035,0.048608 0.0021,0.042582 0.05916,-0.00841 l 0.05888,-0.05261 -0.02214,-0.3871794 c -0.02337,-0.4088387 -0.01273,-0.7880316 0.02693,-0.9585938 0.02529,-0.1088012 0.01895,-0.1198658 -0.06978,-0.1217824 -0.02644,-5.538e-4 -0.06197,-0.031883 -0.104648,-0.092247 C 10.638602,6.9907072 10.442389,6.867932 10.23288,6.8227125 c -0.04117,-0.00888 -0.05832,-0.007 -0.05055,0.00556 0.0065,0.010458 0.03665,0.024483 0.06707,0.031165 0.08746,0.01921 0.272922,0.1533247 0.354569,0.2564059 l 0.07469,0.094298 -0.07173,0.00923 -0.07172,0.00923 0.06462,0.040246 c 0.03553,0.022136 0.08954,0.066883 0.120004,0.099438 l 0.05539,0.05919 -0.0815,-0.058096 C 10.587182,7.2934304 10.403331,7.2378342 10.25873,7.2378342 c -0.06362,0 -0.196696,0.020547 -0.2956987,0.045662 C 9.6544726,7.3617736 9.4507849,7.4794423 9.0753102,7.7963243 8.967997,7.8868907 8.9386806,7.9024816 8.8756961,7.9024816 c -0.064871,0 -0.08518,-0.011759 -0.1674001,-0.096926 C 8.6086279,7.7023147 8.4213045,7.3628842 8.4213045,7.2855247 c 0,-0.048924 0.1332758,-0.2255843 0.1807819,-0.2396313 0.017344,-0.00514 0.1312287,-0.022094 0.2530792,-0.037703 0.5036267,-0.064514 0.8565649,-0.2283927 1.2159884,-0.5646168 0.09723,-0.090955 0.129257,-0.1103766 0.182013,-0.1103766 0.07513,0 0.08966,0.014146 0.21793,0.2123151 0.121955,0.1884108 0.450098,0.5132763 0.686704,0.679848 l 0.178952,0.1259828 -0.07611,0.1115051 c -0.113872,0.1668244 -0.164127,0.3219736 -0.175883,0.5430073 -0.01352,0.2541495 0.03747,0.4542498 0.145974,0.5728481 0.03466,0.037886 0.03487,0.043448 0.0055,0.1569292 -0.05063,0.1958807 -0.135207,0.3949253 -0.22812,0.5369014 -0.09678,0.147893 -0.279047,0.3273398 -0.389935,0.383911 l -0.07107,0.036264 -0.02267,-0.068931 C 10.468987,9.4552318 10.146778,9.2335761 9.8943698,9.1903424 9.7380239,9.1635557 9.6468934,9.1889654 9.5373506,9.2899619 9.3937785,9.4223013 9.3281346,9.6179983 9.3808267,9.7565882 c 0.025482,0.067023 0.1592553,0.2071296 0.2423669,0.2538418 0.042763,0.02404 0.078016,0.06127 0.08969,0.09477 0.021198,0.0608 0.025094,0.201332 0.00737,0.267349 -0.010951,0.04087 -0.012158,0.04111 -0.036034,0.0069 -0.035393,-0.05053 -0.1484914,-0.09984 -0.1972337,-0.08599 -0.022583,0.0064 -0.07517,0.04968 -0.1168558,0.09614 -0.041685,0.04647 -0.084361,0.07918 -0.094833,0.07271 -0.010473,-0.0064 -0.024357,-0.0401 -0.030854,-0.07474 -0.014071,-0.07501 -0.051362,-0.110806 -0.099512,-0.09552 -0.019284,0.0061 -0.082993,0.04835 -0.1415738,0.09384 -0.1192368,0.09259 -0.1798497,0.103584 -0.2214056,0.04016 -0.022747,-0.03471 -0.023881,-0.05313 -0.00617,-0.100063 0.028441,-0.07535 -0.00312,-0.115862 -0.090284,-0.115862 -0.0946,0 -0.1316863,0.02839 -0.1801215,0.137918 -0.039685,0.08974 -0.088123,0.139017 -0.1366373,0.139017 -0.00992,0 -0.039543,-0.02555 -0.065832,-0.05681 z M 8.2543529,9.5368055 c 0.029189,-0.015098 0.06795,-0.06024 0.086779,-0.1010655 0.018716,-0.040581 0.038181,-0.073783 0.043259,-0.073783 0.00508,0 0.024543,0.033202 0.043259,0.073783 0.039018,0.084609 0.1096366,0.1283447 0.2072358,0.1283447 0.054032,0 0.082182,-0.014475 0.1393832,-0.071677 0.068571,-0.068567 0.071677,-0.076877 0.071677,-0.191787 0,-0.1584012 -0.069986,-0.3985552 -0.1841634,-0.6319517 C 8.535761,8.4110542 8.436022,8.3150505 8.4124358,8.4286526 8.3810716,8.579718 8.3792824,8.5815018 8.3615178,8.4794214 8.3412306,8.3628446 8.3157903,8.356992 8.2382486,8.4510648 8.0889519,8.6321879 7.942584,9.0107749 7.9276402,9.2544676 l -0.00988,0.161177 0.074217,0.074212 c 0.059664,0.059673 0.087493,0.074212 0.1419229,0.074212 0.037238,0 0.091445,-0.01228 0.1204576,-0.027281 z M 7.6095608,7.857027 C 7.5251625,7.7553334 7.0216301,7.4934671 6.7149408,7.3917723 6.5423542,7.3345445 6.5362639,7.3309431 6.6304838,7.3418319 c 0.3741494,0.043241 0.7469696,0.2270223 0.9594335,0.4729545 0.032896,0.038079 0.055814,0.069233 0.050929,0.069233 -0.0049,0 -0.018965,-0.012145 -0.031286,-0.026992 z M 9.1769074,7.8194016 C 9.39394,7.5604635 9.737678,7.3909719 10.147529,7.3408043 c 0.07776,-0.00952 0.06299,-0.00153 -0.09369,0.050672 C 9.7443083,7.4946053 9.3221039,7.7130458 9.1604817,7.853681 9.1310707,7.879273 9.1368717,7.867164 9.1769057,7.819402 Z M 5.3334865,7.048818 C 5.3395968,6.8210098 5.3731852,6.4493835 5.4033328,6.2760197 5.4671334,5.9091384 5.752233,5.3690133 6.0765894,5.0005251 6.1295977,4.9403048 6.1694117,4.8874772 6.1650652,4.8831308 6.1491211,4.8671865 5.7898595,5.2390276 5.6856073,5.3793795 5.6265,5.4589539 5.5781395,5.5198993 5.5781395,5.5148141 c 0,-0.031694 0.1401101,-0.3669563 0.2177795,-0.5211117 0.4250864,-0.8436978 1.1115677,-1.3568617 2.0226568,-1.5119915 0.1000469,-0.017034 0.1839228,-0.028364 0.1863912,-0.025177 0.074022,0.095589 0.3669391,0.5283449 0.3670127,0.5422242 6.61e-5,0.010718 -0.047735,0.1039762 -0.1062036,0.2072402 L 8.159469,4.3937509 8.2497232,4.626126 8.3399773,4.8585015 8.3048026,5.092755 8.2696288,5.3270089 8.338621,5.4707873 c 0.037946,0.079079 0.072499,0.1402733 0.076783,0.1359892 0.00428,-0.00428 -0.00975,-0.076475 -0.03118,-0.1604224 L 8.3452517,5.293721 8.3937684,5.0661574 8.4422853,4.8385933 8.3667582,4.6325008 C 8.2796873,4.3949079 8.2667368,4.4485449 8.4814108,4.157651 8.5513865,4.0628301 8.6040923,3.9755967 8.5985347,3.963798 8.5929762,3.9519993 8.5087985,3.8268876 8.4114713,3.6857709 L 8.2345122,3.4291958 8.50792,3.4398106 c 0.4598201,0.017854 0.8342239,0.1052601 1.1990955,0.2799331 0.5731405,0.2743756 0.9823255,0.6917487 1.2798215,1.3054315 0.0951,0.1961686 0.221167,0.5011589 0.196849,0.4762161 -0.0044,-0.00452 -0.04754,-0.062225 -0.09585,-0.1282275 -0.09923,-0.1355697 -0.312739,-0.36239 -0.423189,-0.4495642 -0.06191,-0.048863 -0.05267,-0.033092 0.05789,0.098783 0.186475,0.2224348 0.325532,0.4364904 0.449766,0.6923317 0.142978,0.2944435 0.175263,0.39837 0.212211,0.6831005 0.02942,0.2266531 0.06591,0.8030126 0.05195,0.8203552 C 11.42791,7.228773 11.230492,7.0907436 11.078926,6.9682021 10.880241,6.8075685 10.608409,6.5139668 10.49689,6.339557 10.43947,6.2497487 10.375854,6.1524364 10.355529,6.1233077 l -0.03695,-0.052961 0.05295,-0.044989 c 0.0914,-0.077673 0.309352,-0.1736796 0.42026,-0.1851264 0.127934,-0.013204 0.136246,-0.042438 0.01207,-0.042438 -0.271185,0 -0.438784,0.08607 -0.709929,0.3645802 C 9.9827399,6.2765827 9.8330045,6.4104003 9.7611818,6.4597462 9.5639242,6.5952764 9.52522,6.6104092 9.6254248,6.5128271 9.6733493,6.4661565 9.7429025,6.3805397 9.7799868,6.3225682 9.8440661,6.2223952 9.9636752,5.9308633 9.9473789,5.9145678 9.9431489,5.9103468 9.9167339,5.9460966 9.8886629,5.9940054 9.8171228,6.1160642 9.5659083,6.3737678 9.390584,6.5049387 9.1835907,6.6598008 8.9036273,6.793302 8.7422587,6.8140934 8.5754859,6.8355808 8.1884839,6.8350649 8.0196059,6.8131386 7.7831762,6.7824297 7.4390931,6.5915731 7.1685023,6.3410478 7.0309446,6.2136909 6.8884257,6.0419826 6.8496631,5.9569078 6.804815,5.8584768 6.8002794,5.9127967 6.8428863,6.0380668 6.9051049,6.2209978 6.9748796,6.3419208 7.092038,6.46986 L 7.1935802,6.5807394 7.1197316,6.5365674 C 6.9800017,6.4529883 6.8423825,6.3366381 6.6576448,6.1458961 6.4599443,5.9417716 6.3561213,5.8726187 6.1775149,5.8260976 6.0601176,5.7955195 5.8735346,5.7878951 5.8735346,5.8136745 c 0,0.00873 0.04656,0.020685 0.1034673,0.026558 0.1140333,0.011768 0.3348844,0.1102108 0.4182409,0.1864259 l 0.050923,0.04656 -0.053032,0.07922 C 6.3639647,6.1960078 6.3039875,6.2898123 6.2598502,6.360892 6.1551758,6.5294611 5.7482667,6.9374494 5.5343735,7.088293 5.4442996,7.1518157 5.3612199,7.2073917 5.3497514,7.211796 5.3349876,7.217466 5.3302385,7.1698939 5.3334865,7.048818 Z"
     id="path482" />
  <g
     aria-label="Krita"
     id="text1450"
     style="font-size:1.76385px;opacity:1;fill:#ff00ff;stroke-width:0.529156">
    <rect
       style="font-size:1.76385px;fill:#ff00ff;fill-opacity:1;stroke:none;stroke-width:0.519976;stroke-dasharray:none;filter:url(#filter1694)"
       id="rect1656-7"
       width="0.5055005"
       height="2.2653189"
       x="15.369148"
       y="4.3016486"
       rx="0"
       ry="0" />
    <rect
       style="opacity:1;fill:#ff00ff;fill-opacity:1;stroke:none;stroke-width:0.519976;stroke-dasharray:none"
       id="rect1656"
       width="0.5055005"
       height="2.2653189"
       x="15.369148"
       y="4.3016486"
       rx="0"
       ry="0" />
  </g>
  <g
     aria-label="Steam"
     id="text2284"
     style="font-size:1.76385px;opacity:1;fill:#999999;stroke-width:0.529156">
    <path
       d="m 6.7172843,13.496001 h 0.4356709 v 0.617348 q -0.1023033,0.03351 -0.2063705,0.04939 -0.1040671,0.01587 -0.2363558,0.01587 -0.1957874,0 -0.32984,-0.07761 -0.1340526,-0.07937 -0.2046066,-0.224009 -0.06879,-0.1464 -0.06879,-0.345715 0,-0.197551 0.077609,-0.342187 0.077609,-0.144635 0.2222451,-0.224009 0.1463995,-0.08114 0.35277,-0.08114 0.105831,0 0.199315,0.0194 0.095248,0.0194 0.176385,0.05468 l -0.059971,0.13758 q -0.067026,-0.02998 -0.1516911,-0.05115 -0.082901,-0.02117 -0.1728573,-0.02117 -0.2257728,0 -0.35277,0.135817 -0.1252333,0.135816 -0.1252333,0.372172 0,0.149927 0.047624,0.266342 0.049388,0.11465 0.153455,0.179912 0.1040671,0.0635 0.2733967,0.0635 0.082901,0 0.141108,-0.0088 0.058207,-0.0088 0.105831,-0.02117 V 13.637109 H 6.7172843 Z m 1.0741858,-0.296327 q 0.1728573,0 0.2557582,0.07585 0.082901,0.07584 0.082901,0.241647 v 0.643806 H 8.0172429 L 7.9872574,14.02692 h -0.00706 q -0.061735,0.07761 -0.1305249,0.11465 -0.067026,0.03704 -0.1869681,0.03704 -0.128761,0 -0.2134258,-0.06703 -0.084665,-0.06879 -0.084665,-0.213426 0,-0.141108 0.1111225,-0.216954 0.1111226,-0.07761 0.3421869,-0.08466 l 0.1605104,-0.0053 V 13.5348 q 0,-0.118178 -0.051152,-0.164038 -0.051152,-0.04586 -0.1446357,-0.04586 -0.074082,0 -0.141108,0.02293 -0.067026,0.02117 -0.1252333,0.04939 l -0.047624,-0.116415 q 0.061735,-0.03351 0.1463996,-0.05644 0.084665,-0.02469 0.176385,-0.02469 z m 0.04586,0.504461 q -0.176385,0.0071 -0.2451752,0.05644 -0.067026,0.04939 -0.067026,0.139344 0,0.07937 0.047624,0.116414 0.049388,0.03704 0.1252333,0.03704 0.1199418,0 0.1993151,-0.06526 0.079373,-0.06703 0.079373,-0.204606 v -0.08467 z m 1.6227435,-0.506224 q 0.1605103,0 0.2398836,0.0829 0.079373,0.08114 0.079373,0.264578 v 0.615584 H 9.6258756 v -0.608529 q 0,-0.224009 -0.1922597,-0.224009 -0.1375803,0 -0.1975512,0.07937 -0.058207,0.07937 -0.058207,0.231064 v 0.5221 H 9.0244027 V 13.55244 q 0,-0.224009 -0.1940234,-0.224009 -0.1428719,0 -0.1975512,0.08819 -0.054679,0.08819 -0.054679,0.253994 v 0.490351 H 8.4229299 v -0.945424 h 0.1252334 l 0.02293,0.128761 h 0.00882 q 0.044096,-0.07408 0.1181779,-0.109359 0.075846,-0.03704 0.1605104,-0.03704 0.222245,0 0.2892713,0.158746 h 0.00882 q 0.047624,-0.08114 0.128761,-0.119942 0.082901,-0.0388 0.1746212,-0.0388 z m 0.9771714,0 q 0.121705,0 0.208134,0.05292 0.08819,0.05292 0.134052,0.149927 0.04762,0.09525 0.04762,0.224009 v 0.09348 h -0.647333 q 0.0035,0.160511 0.08114,0.245175 0.07937,0.0829 0.220481,0.0829 0.08996,0 0.158746,-0.01587 0.07055,-0.01764 0.144636,-0.04939 v 0.135816 q -0.07232,0.03175 -0.142872,0.04586 -0.07055,0.01587 -0.167566,0.01587 -0.134052,0 -0.238119,-0.05468 -0.102304,-0.05468 -0.160511,-0.162274 -0.05644,-0.109359 -0.05644,-0.266342 0,-0.155219 0.05115,-0.266341 0.05291,-0.111123 0.146399,-0.171094 0.09525,-0.05997 0.220482,-0.05997 z m -0.0018,0.126997 q -0.111123,0 -0.176385,0.07232 -0.0635,0.07055 -0.07585,0.197551 h 0.481531 q -0.0018,-0.119942 -0.05644,-0.194024 -0.05468,-0.07584 -0.172857,-0.07584 z"
       id="text2"
       style="text-align:center;text-anchor:middle;stroke-width:0.140003"
       aria-label="Game" />
  </g>
</svg>
