<?xml version="1.0" encoding="UTF-8" standalone="no"?>
<svg
   width="64"
   height="64"
   version="1.1"
   viewBox="0 0 16.933 16.933"
   id="svg7"
   sodipodi:docname="steam_icon_2842040.svg"
   inkscape:version="1.4 (e7c3feb100, 2024-10-09)"
   xmlns:inkscape="http://www.inkscape.org/namespaces/inkscape"
   xmlns:sodipodi="http://sodipodi.sourceforge.net/DTD/sodipodi-0.dtd"
   xmlns:xlink="http://www.w3.org/1999/xlink"
   xmlns="http://www.w3.org/2000/svg"
   xmlns:svg="http://www.w3.org/2000/svg"
   xmlns:rdf="http://www.w3.org/1999/02/22-rdf-syntax-ns#"
   xmlns:cc="http://creativecommons.org/ns#"
   xmlns:dc="http://purl.org/dc/elements/1.1/">
  <sodipodi:namedview
     id="namedview7"
     pagecolor="#9c4444"
     bordercolor="#000000"
     borderopacity="0.25"
     inkscape:showpageshadow="2"
     inkscape:pageopacity="0.0"
     inkscape:pagecheckerboard="0"
     inkscape:deskcolor="#d1d1d1"
     inkscape:zoom="6.15625"
     inkscape:cx="16"
     inkscape:cy="27.045685"
     inkscape:window-width="1183"
     inkscape:window-height="973"
     inkscape:window-x="35"
     inkscape:window-y="32"
     inkscape:window-maximized="0"
     inkscape:current-layer="svg7"
     showgrid="false" />
  <defs
     id="defs2">
    <linearGradient
       inkscape:collect="always"
       id="linearGradient1134">
      <stop
         style="stop-color:#161616;stop-opacity:1;"
         offset="0"
         id="stop1130" />
      <stop
         style="stop-color:#404040;stop-opacity:1;"
         offset="1"
         id="stop1132" />
    </linearGradient>
    <linearGradient
       inkscape:collect="always"
       id="linearGradient883">
      <stop
         style="stop-color:#808080;stop-opacity:1;"
         offset="0"
         id="stop879" />
      <stop
         style="stop-color:#3e3e3e;stop-opacity:1;"
         offset="0.5"
         id="stop1216" />
      <stop
         style="stop-color:#242424;stop-opacity:1;"
         offset="1"
         id="stop881" />
    </linearGradient>
    <linearGradient
       inkscape:collect="always"
       xlink:href="#linearGradient883"
       id="linearGradient885"
       x1="2.1085808"
       y1="2.0236168"
       x2="14.846128"
       y2="15.071845"
       gradientUnits="userSpaceOnUse" />
    <linearGradient
       inkscape:collect="always"
       xlink:href="#linearGradient1134"
       id="linearGradient1136"
       x1="14.971222"
       y1="14.703373"
       x2="2.0756054"
       y2="2.0069976"
       gradientUnits="userSpaceOnUse" />
    <filter
       style="color-interpolation-filters:sRGB;"
       inkscape:label="Blur"
       id="filter1283"
       x="-0.082344266"
       y="-0.082344266"
       width="1.1646885"
       height="1.1646885">
      <feGaussianBlur
         stdDeviation="0.5 0.5"
         result="blur"
         id="feGaussianBlur1281" />
    </filter>
    <filter
       style="color-interpolation-filters:sRGB;"
       inkscape:label="Blur"
       id="filter1694"
       x="-0.94955398"
       y="-0.2118907"
       width="2.899108"
       height="1.4237814">
      <feGaussianBlur
         stdDeviation="0.2 0.2"
         result="blur"
         id="feGaussianBlur1692" />
    </filter>
  </defs>
  <metadata
     id="metadata2">
    <rdf:RDF>
      <cc:Work
         rdf:about="">
        <dc:format>image/svg+xml</dc:format>
        <dc:type
           rdf:resource="http://purl.org/dc/dcmitype/StillImage" />
      </cc:Work>
    </rdf:RDF>
  </metadata>
  <rect
     style="fill:#000000;stroke:none;stroke-width:0.539739;stroke-dasharray:none;filter:url(#filter1283)"
     id="rect246-1"
     width="14.572964"
     height="14.572964"
     x="1.1932471"
     y="1.2138842"
     rx="2.1589575"
     ry="2.1589575" />
  <rect
     style="opacity:1;fill:#000000;stroke:url(#linearGradient885);stroke-width:0.52915625;stroke-dasharray:none"
     id="rect246"
     width="14.287219"
     height="14.287219"
     x="1.3361193"
     y="1.3567564"
     rx="2.1166251"
     ry="2.1166251" />
  <rect
     style="fill:url(#linearGradient1136);fill-opacity:1;stroke:none;stroke-width:0.478315;stroke-dasharray:none"
     id="rect246-5"
     width="12.914515"
     height="12.914515"
     x="2.0224717"
     y="2.0431087"
     rx="1.5874687"
     ry="1.5874687" />
  <path
     style="fill:#999999;stroke-width:0.0397114"
     d="M 10.503977,9.2494771 C 10.190337,8.9222296 9.9014965,8.6433174 9.862111,8.6296728 9.822718,8.6160256 9.6272882,8.6474576 9.4278021,8.6995163 8.9458592,8.8252878 8.6025385,8.7802053 7.7199111,8.4752464 6.8706073,8.1817664 6.6856702,8.0543762 6.3981638,7.5645003 6.2886388,7.3778831 6.1665545,7.2373242 6.091366,7.2112761 6.02268,7.1874808 5.7087635,7.2153626 5.3937725,7.2732347 4.354595,7.4641625 3.995957,7.4247577 3.9062357,7.109798 3.7790246,6.6632385 4.2784993,6.427142 5.4306232,6.389237 5.6410566,6.3823135 5.8155185,6.3700412 5.8183157,6.361967 5.8211112,6.3538975 5.4378036,6.2170079 4.9665224,6.0577626 L 4.1096436,5.7682394 4.0372693,5.585941 C 3.9404977,5.3421939 4.0150173,5.1495359 4.2321145,5.0821938 4.3871096,5.0341164 4.4797483,5.0561004 5.2401868,5.3214194 5.8111965,5.5206731 6.0835773,5.596272 6.0964296,5.5591735 6.1067979,5.529245 6.0272606,5.4130887 5.9196822,5.3010448 5.6471314,5.0171839 5.6470416,5.0171147 5.6665231,5.1042042 c 0.011529,0.051538 0.00182,0.058836 -0.028582,0.021513 -0.025317,-0.031074 -0.026832,-0.072141 -0.00337,-0.091266 0.023471,-0.019116 -0.03803,-0.089565 -0.1366606,-0.156542 C 5.2851325,4.7334223 5.0033008,4.2328757 5.0247178,4.0374974 5.0350222,3.9435182 5.0881778,3.86911 5.1932068,3.8016772 5.5037928,3.6022581 5.9400097,3.904553 6.5984513,4.7754993 6.9447181,5.2335198 7.1084634,5.336192 7.4206026,5.2910091 c 0.292988,-0.04241 1.1635173,0.1372915 1.7010634,0.351148 0.395095,0.1571918 0.5866991,0.2684935 0.96891,0.5628708 0.262032,0.2018179 0.519842,0.3674913 0.572908,0.3681648 0.05305,6.7e-4 0.497647,-0.049505 0.987954,-0.1115055 0.766,-0.096864 0.915574,-0.099736 1.062751,-0.020405 0.235138,0.1267433 0.282785,0.2274786 0.207875,0.4394957 -0.100763,0.2850522 -0.519119,0.472001 -0.992997,0.4436525 -0.344074,-0.020583 -0.80255,0.061747 -0.799854,0.1436325 0.0015,0.04436 0.260369,0.1820921 0.74161,0.3945355 0.406651,0.1795173 0.78324,0.3645885 0.836866,0.4112791 0.206418,0.1797263 0.114964,0.5342122 -0.174008,0.6744795 -0.134379,0.065228 -0.174869,0.056008 -0.686872,-0.1564066 C 11.547568,8.6678026 11.242734,8.5297525 11.169402,8.485169 10.934284,8.3422222 11.009351,8.536547 11.301495,8.8271153 11.623623,9.147501 11.80329,9.5316355 11.698941,9.6768673 11.594701,9.821963 11.424384,9.8924213 11.239226,9.867064 11.103898,9.8485344 10.971695,9.7374867 10.503975,9.2494711 Z m 0.801287,0.1784552 C 11.283476,9.3687095 11.039191,9.0960132 10.762396,8.82194 10.146799,8.2123985 10.046866,8.0666946 10.113159,7.8753381 c 0.02734,-0.078932 0.08312,-0.1509838 0.123954,-0.1601179 0.09396,-0.021023 0.364532,0.094816 0.843148,0.3609394 0.418581,0.2327488 1.242853,0.5371108 1.266868,0.4677917 C 12.372383,8.4710539 12.245863,8.3906879 11.731338,8.1528041 11.463225,8.0288489 11.083342,7.844856 10.887153,7.7439412 10.690963,7.6430224 10.488485,7.5403188 10.437206,7.5157055 10.344771,7.4713415 10.316469,7.3944912 10.322698,7.2047804 10.327625,7.0548809 9.7056699,6.4658019 9.319332,6.2544457 9.1272002,6.1493329 8.7405346,5.9971239 8.4201747,5.9004877 7.9498671,5.7586222 7.7971374,5.7353008 7.4846174,5.757658 7.2791979,5.7723517 7.0320232,5.7696776 6.9353435,5.7517167 6.7691581,5.7208406 6.7581549,5.7284897 6.7337995,5.8917917 6.7173004,6.0023343 6.6787771,6.0750543 6.6267759,6.0937839 6.5775036,6.1115283 6.1235746,5.9788553 5.4736379,5.7567488 4.884096,5.5553198 4.3842361,5.3989565 4.3628046,5.4093679 4.2289226,5.474355 4.5101508,5.6028331 5.3566843,5.8634162 6.3826464,6.1792325 6.4944244,6.244228 6.3888733,6.4635643 6.3230664,6.6003225 6.1580345,6.6331135 4.9458144,6.750309 4.4741641,6.7959068 4.2135465,6.9012085 4.3024146,7.0102712 c 0.040962,0.050261 0.5257965,-0.00673 1.375335,-0.1616673 0.2960887,-0.054 0.592128,-0.079607 0.657866,-0.056904 0.070231,0.024256 0.1812086,0.1562112 0.2690974,0.3199622 0.2709913,0.5049054 0.4356405,0.6207292 1.3215642,0.929664 0.7472731,0.2605125 0.7876465,0.269049 1.1311484,0.2347229 0.1959114,-0.019531 0.4573322,-0.086568 0.5809362,-0.1489694 0.1236073,-0.062401 0.2496829,-0.104816 0.280173,-0.094253 0.030483,0.01056 0.1418932,0.1296394 0.2475632,0.2646161 0.304174,0.3885361 1.034848,1.1875537 1.110219,1.2140619 0.05811,0.02043 0.06252,0.0077 0.02895,-0.083564 z M 7.1850426,6.8245807 c -0.068574,-0.059777 0.014931,-0.3063893 0.1212036,-0.3579838 0.1766994,-0.085771 0.4029825,0.098431 0.3409339,0.2775367 -0.05729,0.1653704 -0.313567,0.2099788 -0.4621496,0.080443 z m 1.7919053,0.521559 C 8.925951,7.1435008 9.066742,7.0092541 9.2600404,7.0762197 9.508358,7.162246 9.5307943,7.4032319 9.2996409,7.5015263 9.1308112,7.5733178 9.0207872,7.5203383 8.9769479,7.3461397 Z M 11.038947,7.0631533 c 0.225542,-0.028288 0.584066,-0.051556 0.796722,-0.051704 0.418521,-2.946e-4 0.866577,-0.1488196 0.718646,-0.2382219 -0.0446,-0.026949 -0.167395,-0.03642 -0.272894,-0.021038 -0.105498,0.015383 -0.349568,0.046601 -0.542379,0.06938 -0.192811,0.022778 -0.431089,0.055484 -0.529505,0.072677 -0.09841,0.017194 -0.285693,0.047502 -0.41617,0.067354 -0.365114,0.055552 -0.382719,0.062704 -0.379705,0.1542533 0.0025,0.074519 0.01663,0.080007 0.109035,0.042144 0.05841,-0.023902 0.290728,-0.066606 0.516268,-0.094894 z M 6.6646751,5.5364345 C 6.6711098,5.5178605 6.1915216,4.9296204 5.8781513,4.571739 c -0.075477,-0.086197 -0.086499,-0.090983 -0.044443,-0.01927 0.030766,0.052435 0.055467,0.1273627 0.054885,0.1665056 -5.863e-4,0.039142 0.1564951,0.2344367 0.3490601,0.4339882 0.3583888,0.3713938 0.4139246,0.4212709 0.4270098,0.3835001 z M 5.6897061,4.4447269 c 0.064627,-0.015219 0.063417,-0.045782 -0.00559,-0.1411682 -0.048438,-0.066962 -0.1320159,-0.1369646 -0.1857253,-0.1555715 -0.091554,-0.031718 -0.093022,-0.023474 -0.023475,0.1319586 0.081774,0.182775 0.095078,0.1929809 0.214794,0.1647826 z"
     id="path1" />
  <g
     aria-label="Krita"
     id="text1450"
     style="font-size:1.76385px;opacity:1;fill:#ff00ff;stroke-width:0.529156">
    <rect
       style="font-size:1.76385px;fill:#ff00ff;fill-opacity:1;stroke:none;stroke-width:0.519976;stroke-dasharray:none;filter:url(#filter1694)"
       id="rect1656-7"
       width="0.5055005"
       height="2.2653189"
       x="15.369148"
       y="4.3016486"
       rx="0"
       ry="0" />
    <rect
       style="opacity:1;fill:#ff00ff;fill-opacity:1;stroke:none;stroke-width:0.519976;stroke-dasharray:none"
       id="rect1656"
       width="0.5055005"
       height="2.2653189"
       x="15.369148"
       y="4.3016486"
       rx="0"
       ry="0" />
  </g>
  <path
     d="m 6.6437321,13.474513 h 0.435671 v 0.617347 q -0.1023033,0.03351 -0.2063705,0.04939 -0.1040671,0.01588 -0.2363559,0.01588 -0.1957873,0 -0.3298399,-0.07761 -0.1340526,-0.07937 -0.2046066,-0.224009 -0.06879,-0.1464 -0.06879,-0.345715 0,-0.197551 0.077609,-0.342187 0.077609,-0.144636 0.2222451,-0.224009 0.1463996,-0.08114 0.35277,-0.08114 0.105831,0 0.1993151,0.0194 0.095248,0.0194 0.176385,0.05468 l -0.059971,0.13758 q -0.067026,-0.02998 -0.1516911,-0.05115 -0.082901,-0.02117 -0.1728573,-0.02117 -0.2257728,0 -0.35277,0.135817 -0.1252334,0.135816 -0.1252334,0.372172 0,0.149927 0.047624,0.266341 0.049388,0.114651 0.1534549,0.179913 0.1040672,0.0635 0.2733968,0.0635 0.082901,0 0.141108,-0.0088 0.058207,-0.0088 0.105831,-0.02117 V 13.615621 H 6.6437321 Z m 1.0741858,-0.296327 q 0.1728573,0 0.2557583,0.07585 0.082901,0.07584 0.082901,0.241647 v 0.643805 H 7.9436907 l -0.029985,-0.134052 h -0.00706 q -0.061735,0.07761 -0.1305249,0.11465 -0.067026,0.03704 -0.1869681,0.03704 -0.1287611,0 -0.2134259,-0.06703 -0.084665,-0.06879 -0.084665,-0.213426 0,-0.141108 0.1111226,-0.216954 0.1111225,-0.07761 0.3421869,-0.08467 l 0.1605103,-0.0053 v -0.05644 q 0,-0.118178 -0.051152,-0.164038 -0.051152,-0.04586 -0.1446357,-0.04586 -0.074082,0 -0.141108,0.02293 -0.067026,0.02117 -0.1252334,0.04939 l -0.047624,-0.116414 q 0.061735,-0.03351 0.1463995,-0.05644 0.084665,-0.02469 0.176385,-0.02469 z m 0.04586,0.504461 q -0.176385,0.0071 -0.2451751,0.05644 -0.067026,0.04939 -0.067026,0.139345 0,0.07937 0.047624,0.116414 0.049388,0.03704 0.1252334,0.03704 0.1199418,0 0.199315,-0.06526 0.079373,-0.06703 0.079373,-0.204606 v -0.08467 z m 1.6227436,-0.506225 q 0.1605103,0 0.2398836,0.0829 0.079373,0.08114 0.079373,0.264578 v 0.615583 H 9.5523235 v -0.608528 q 0,-0.224009 -0.1922597,-0.224009 -0.1375803,0 -0.1975512,0.07937 -0.058207,0.07937 -0.058207,0.231065 v 0.522099 h -0.153455 v -0.608528 q 0,-0.224009 -0.1940235,-0.224009 -0.1428718,0 -0.1975512,0.08819 -0.054679,0.08819 -0.054679,0.253994 v 0.49035 H 8.3493778 v -0.945423 h 0.1252333 l 0.02293,0.128761 h 0.00882 q 0.044096,-0.07408 0.118178,-0.109359 0.075845,-0.03704 0.1605103,-0.03704 0.2222451,0 0.2892714,0.158747 h 0.00882 q 0.047624,-0.08114 0.128761,-0.119942 0.082901,-0.0388 0.1746212,-0.0388 z m 0.9771714,0 q 0.121706,0 0.208135,0.05292 0.08819,0.05292 0.134052,0.149927 0.04762,0.09525 0.04762,0.224009 v 0.09348 h -0.647333 q 0.0035,0.16051 0.08114,0.245175 0.07937,0.0829 0.220482,0.0829 0.08996,0 0.158746,-0.01587 0.07055,-0.01764 0.144636,-0.04939 v 0.135816 q -0.07232,0.03175 -0.142872,0.04586 -0.07055,0.01588 -0.167566,0.01588 -0.134052,0 -0.23812,-0.05468 -0.102303,-0.05468 -0.16051,-0.162275 -0.056443,-0.109358 -0.056443,-0.266341 0,-0.155219 0.051152,-0.266341 0.052915,-0.111123 0.1463995,-0.171094 0.09525,-0.05997 0.220481,-0.05997 z m -0.0018,0.126998 q -0.111122,0 -0.176385,0.07232 -0.0635,0.07055 -0.07584,0.197552 h 0.481531 q -0.0018,-0.119942 -0.05644,-0.194024 -0.05468,-0.07585 -0.172858,-0.07585 z"
     id="text1"
     style="font-size:1.76385px;text-align:center;text-anchor:middle;opacity:1;fill:#999999;stroke-width:0.132289;stroke-opacity:0.6"
     aria-label="Game" />
</svg>
