<?xml version="1.0" encoding="UTF-8" standalone="no"?>
<svg
   width="64"
   height="64"
   version="1.1"
   viewBox="0 0 16.933 16.933"
   id="svg7"
   sodipodi:docname="steam_icon_1086940.svg"
   inkscape:version="1.4 (e7c3feb100, 2024-10-09)"
   xmlns:inkscape="http://www.inkscape.org/namespaces/inkscape"
   xmlns:sodipodi="http://sodipodi.sourceforge.net/DTD/sodipodi-0.dtd"
   xmlns:xlink="http://www.w3.org/1999/xlink"
   xmlns="http://www.w3.org/2000/svg"
   xmlns:svg="http://www.w3.org/2000/svg"
   xmlns:rdf="http://www.w3.org/1999/02/22-rdf-syntax-ns#"
   xmlns:cc="http://creativecommons.org/ns#"
   xmlns:dc="http://purl.org/dc/elements/1.1/">
  <sodipodi:namedview
     id="namedview7"
     pagecolor="#9c4444"
     bordercolor="#000000"
     borderopacity="0.25"
     inkscape:showpageshadow="2"
     inkscape:pageopacity="0.0"
     inkscape:pagecheckerboard="0"
     inkscape:deskcolor="#d1d1d1"
     inkscape:zoom="4.3531261"
     inkscape:cx="35.951175"
     inkscape:cy="39.856415"
     inkscape:window-width="1183"
     inkscape:window-height="973"
     inkscape:window-x="35"
     inkscape:window-y="32"
     inkscape:window-maximized="0"
     inkscape:current-layer="svg7"
     showgrid="false" />
  <defs
     id="defs2">
    <linearGradient
       inkscape:collect="always"
       id="linearGradient1134">
      <stop
         style="stop-color:#161616;stop-opacity:1;"
         offset="0"
         id="stop1130" />
      <stop
         style="stop-color:#404040;stop-opacity:1;"
         offset="1"
         id="stop1132" />
    </linearGradient>
    <linearGradient
       inkscape:collect="always"
       id="linearGradient883">
      <stop
         style="stop-color:#808080;stop-opacity:1;"
         offset="0"
         id="stop879" />
      <stop
         style="stop-color:#3e3e3e;stop-opacity:1;"
         offset="0.5"
         id="stop1216" />
      <stop
         style="stop-color:#242424;stop-opacity:1;"
         offset="1"
         id="stop881" />
    </linearGradient>
    <linearGradient
       inkscape:collect="always"
       xlink:href="#linearGradient883"
       id="linearGradient885"
       x1="2.1085808"
       y1="2.0236168"
       x2="14.846128"
       y2="15.071845"
       gradientUnits="userSpaceOnUse" />
    <linearGradient
       inkscape:collect="always"
       xlink:href="#linearGradient1134"
       id="linearGradient1136"
       x1="14.971222"
       y1="14.703373"
       x2="2.0756054"
       y2="2.0069976"
       gradientUnits="userSpaceOnUse" />
    <filter
       style="color-interpolation-filters:sRGB;"
       inkscape:label="Blur"
       id="filter1283"
       x="-0.082344266"
       y="-0.082344266"
       width="1.1646885"
       height="1.1646885">
      <feGaussianBlur
         stdDeviation="0.5 0.5"
         result="blur"
         id="feGaussianBlur1281" />
    </filter>
    <filter
       style="color-interpolation-filters:sRGB;"
       inkscape:label="Blur"
       id="filter1694"
       x="-0.94955398"
       y="-0.2118907"
       width="2.899108"
       height="1.4237814">
      <feGaussianBlur
         stdDeviation="0.2 0.2"
         result="blur"
         id="feGaussianBlur1692" />
    </filter>
  </defs>
  <metadata
     id="metadata2">
    <rdf:RDF>
      <cc:Work
         rdf:about="">
        <dc:format>image/svg+xml</dc:format>
        <dc:type
           rdf:resource="http://purl.org/dc/dcmitype/StillImage" />
      </cc:Work>
    </rdf:RDF>
  </metadata>
  <rect
     style="fill:#000000;stroke:none;stroke-width:0.539739;stroke-dasharray:none;filter:url(#filter1283)"
     id="rect246-1"
     width="14.572964"
     height="14.572964"
     x="1.1932471"
     y="1.2138842"
     rx="2.1589575"
     ry="2.1589575" />
  <rect
     style="opacity:1;fill:#000000;stroke:url(#linearGradient885);stroke-width:0.52915625;stroke-dasharray:none"
     id="rect246"
     width="14.287219"
     height="14.287219"
     x="1.3361193"
     y="1.3567564"
     rx="2.1166251"
     ry="2.1166251" />
  <rect
     style="fill:url(#linearGradient1136);fill-opacity:1;stroke:none;stroke-width:0.478315;stroke-dasharray:none"
     id="rect246-5"
     width="12.914515"
     height="12.914515"
     x="2.0224717"
     y="2.0431087"
     rx="1.5874687"
     ry="1.5874687" />
  <path
     style="fill:#999999;fill-opacity:1;stroke:none;stroke-width:0.173589;stroke-dasharray:none;stroke-opacity:0.3"
     d="M 8.0274031,11.006214 C 7.5774612,10.448461 7.1956061,9.8525833 6.8869387,9.2265374 L 6.6149994,8.6749852 6.6283468,7.7704397 C 6.641039,6.9102541 6.5646606,5.9199106 6.4190633,5.0568033 6.398594,4.9354618 6.3895088,4.8280308 6.3988738,4.8180676 c 0.00936,-0.00996 0.05686,0.017934 0.1055457,0.061994 0.048686,0.04406 0.088477,0.072067 0.088427,0.062239 C 6.5927974,4.9324728 6.493493,4.6580537 6.372174,4.3324822 6.2508553,4.0069107 6.1589401,3.7331882 6.167918,3.72421 6.176898,3.71523 6.3451045,3.818696 6.5417144,3.9541311 6.7661981,4.1087662 6.9423492,4.2693977 7.0152066,4.3859063 7.0790166,4.4879484 7.1199417,4.5366895 7.1061496,4.49422 7.0656756,4.3695879 7.1717006,4.402057 7.5081962,4.6173441 7.8204409,4.8171159 7.8211543,4.8180258 7.758959,4.9372444 7.708491,5.0339834 7.696581,5.3684055 7.69656,6.6893975 7.6965438,7.7315026 7.713948,8.3858287 7.744679,8.4984889 7.81653,8.7618905 8.1196738,9.3633522 8.2528385,9.5067132 L 8.3696363,9.6324553 8.4722696,9.5067132 C 8.5927302,9.3591312 8.9038631,8.7427144 8.9700295,8.5205508 9.0436364,8.2733999 9.0700167,7.0818782 9.0261987,5.9834108 9.0039312,5.4252399 8.9784858,4.9290951 8.9696489,4.880867 8.9574625,4.8143452 9.0221815,4.7470675 9.2377771,4.6021462 9.3940842,4.4970779 9.5551373,4.4197864 9.5956736,4.4303869 9.6425924,4.4426548 9.6968861,4.4030908 9.7450641,4.3215327 9.8109414,4.2100101 10.514568,3.6908857 10.550774,3.727092 c 0.0074,0.0074 -0.08582,0.2798187 -0.207138,0.6053902 -0.121318,0.3255715 -0.22062,0.5999899 -0.220671,0.6098181 -4.4e-5,0.00983 0.03973,-0.018178 0.08842,-0.062239 0.04868,-0.044059 0.09797,-0.070658 0.109519,-0.059107 0.01155,0.011551 -0.0075,0.1884774 -0.04224,0.39317 -0.14734,0.8671227 -0.208325,1.7610416 -0.176395,2.5856022 l 0.03103,0.8014611 -0.2283722,0.4781402 C 9.5967148,9.7246463 9.2111516,10.343599 8.7618881,10.914286 8.5565114,11.175172 8.3766321,11.388608 8.3621553,11.38859 8.3476798,11.388571 8.1970372,11.216501 8.0273956,11.006213 Z m 1.610102,-6.478901 c 0,-0.012135 -0.00992,-0.022063 -0.02206,-0.022063 -0.01213,0 -0.02206,0.00993 -0.02206,0.022063 0,0.012135 0.00992,0.022063 0.02206,0.022063 0.01213,0 0.02206,-0.00993 0.02206,-0.022063 z"
     id="path1-5" />
  <g
     aria-label="Krita"
     id="text1450"
     style="font-size:1.76385px;opacity:1;fill:#ff00ff;stroke-width:0.529156">
    <rect
       style="font-size:1.76385px;fill:#ff00ff;fill-opacity:1;stroke:none;stroke-width:0.519976;stroke-dasharray:none;filter:url(#filter1694)"
       id="rect1656-7"
       width="0.5055005"
       height="2.2653189"
       x="15.369148"
       y="4.3016486"
       rx="0"
       ry="0" />
    <rect
       style="opacity:1;fill:#ff00ff;fill-opacity:1;stroke:none;stroke-width:0.519976;stroke-dasharray:none"
       id="rect1656"
       width="0.5055005"
       height="2.2653189"
       x="15.369148"
       y="4.3016486"
       rx="0"
       ry="0" />
  </g>
  <g
     aria-label="Steam"
     id="text2284"
     style="font-size:1.76385px;opacity:1;fill:#999999;stroke-width:0.529156">
    <path
       d="m 6.7172843,13.496001 h 0.4356709 v 0.617348 q -0.1023033,0.03351 -0.2063705,0.04939 -0.1040671,0.01587 -0.2363558,0.01587 -0.1957874,0 -0.32984,-0.07761 -0.1340526,-0.07937 -0.2046066,-0.224009 -0.06879,-0.1464 -0.06879,-0.345715 0,-0.197551 0.077609,-0.342187 0.077609,-0.144635 0.2222451,-0.224009 0.1463995,-0.08114 0.35277,-0.08114 0.105831,0 0.199315,0.0194 0.095248,0.0194 0.176385,0.05468 l -0.059971,0.13758 q -0.067026,-0.02998 -0.1516911,-0.05115 -0.082901,-0.02117 -0.1728573,-0.02117 -0.2257728,0 -0.35277,0.135817 -0.1252333,0.135816 -0.1252333,0.372172 0,0.149927 0.047624,0.266342 0.049388,0.11465 0.153455,0.179912 0.1040671,0.0635 0.2733967,0.0635 0.082901,0 0.141108,-0.0088 0.058207,-0.0088 0.105831,-0.02117 V 13.637109 H 6.7172843 Z m 1.0741858,-0.296327 q 0.1728573,0 0.2557582,0.07585 0.082901,0.07584 0.082901,0.241647 v 0.643806 H 8.0172429 L 7.9872574,14.02692 h -0.00706 q -0.061735,0.07761 -0.1305249,0.11465 -0.067026,0.03704 -0.1869681,0.03704 -0.128761,0 -0.2134258,-0.06703 -0.084665,-0.06879 -0.084665,-0.213426 0,-0.141108 0.1111225,-0.216954 0.1111226,-0.07761 0.3421869,-0.08466 l 0.1605104,-0.0053 V 13.5348 q 0,-0.118178 -0.051152,-0.164038 -0.051152,-0.04586 -0.1446357,-0.04586 -0.074082,0 -0.141108,0.02293 -0.067026,0.02117 -0.1252333,0.04939 l -0.047624,-0.116415 q 0.061735,-0.03351 0.1463996,-0.05644 0.084665,-0.02469 0.176385,-0.02469 z m 0.04586,0.504461 q -0.176385,0.0071 -0.2451752,0.05644 -0.067026,0.04939 -0.067026,0.139344 0,0.07937 0.047624,0.116414 0.049388,0.03704 0.1252333,0.03704 0.1199418,0 0.1993151,-0.06526 0.079373,-0.06703 0.079373,-0.204606 v -0.08467 z m 1.6227435,-0.506224 q 0.1605103,0 0.2398836,0.0829 0.079373,0.08114 0.079373,0.264578 v 0.615584 H 9.6258756 v -0.608529 q 0,-0.224009 -0.1922597,-0.224009 -0.1375803,0 -0.1975512,0.07937 -0.058207,0.07937 -0.058207,0.231064 v 0.5221 H 9.0244027 V 13.55244 q 0,-0.224009 -0.1940234,-0.224009 -0.1428719,0 -0.1975512,0.08819 -0.054679,0.08819 -0.054679,0.253994 v 0.490351 H 8.4229299 v -0.945424 h 0.1252334 l 0.02293,0.128761 h 0.00882 q 0.044096,-0.07408 0.1181779,-0.109359 0.075846,-0.03704 0.1605104,-0.03704 0.222245,0 0.2892713,0.158746 h 0.00882 q 0.047624,-0.08114 0.128761,-0.119942 0.082901,-0.0388 0.1746212,-0.0388 z m 0.9771714,0 q 0.121705,0 0.208134,0.05292 0.08819,0.05292 0.134052,0.149927 0.04762,0.09525 0.04762,0.224009 v 0.09348 h -0.647333 q 0.0035,0.160511 0.08114,0.245175 0.07937,0.0829 0.220481,0.0829 0.08996,0 0.158746,-0.01587 0.07055,-0.01764 0.144636,-0.04939 v 0.135816 q -0.07232,0.03175 -0.142872,0.04586 -0.07055,0.01587 -0.167566,0.01587 -0.134052,0 -0.238119,-0.05468 -0.102304,-0.05468 -0.160511,-0.162274 -0.05644,-0.109359 -0.05644,-0.266342 0,-0.155219 0.05115,-0.266341 0.05291,-0.111123 0.146399,-0.171094 0.09525,-0.05997 0.220482,-0.05997 z m -0.0018,0.126997 q -0.111123,0 -0.176385,0.07232 -0.0635,0.07055 -0.07585,0.197551 h 0.481531 q -0.0018,-0.119942 -0.05644,-0.194024 -0.05468,-0.07584 -0.172857,-0.07584 z"
       id="text2"
       style="text-align:center;text-anchor:middle;stroke-width:0.140003"
       aria-label="Game" />
  </g>
</svg>
