<?xml version="1.0" encoding="UTF-8" standalone="no"?>
<svg
   width="64"
   height="64"
   version="1.1"
   viewBox="0 0 16.933 16.933"
   id="svg7"
   sodipodi:docname="Office Template.svg"
   inkscape:version="1.4 (e7c3feb100, 2024-10-09)"
   xmlns:inkscape="http://www.inkscape.org/namespaces/inkscape"
   xmlns:sodipodi="http://sodipodi.sourceforge.net/DTD/sodipodi-0.dtd"
   xmlns:xlink="http://www.w3.org/1999/xlink"
   xmlns="http://www.w3.org/2000/svg"
   xmlns:svg="http://www.w3.org/2000/svg"
   xmlns:rdf="http://www.w3.org/1999/02/22-rdf-syntax-ns#"
   xmlns:cc="http://creativecommons.org/ns#"
   xmlns:dc="http://purl.org/dc/elements/1.1/">
  <sodipodi:namedview
     id="namedview7"
     pagecolor="#9c4444"
     bordercolor="#000000"
     borderopacity="0.25"
     inkscape:showpageshadow="2"
     inkscape:pageopacity="0.0"
     inkscape:pagecheckerboard="0"
     inkscape:deskcolor="#d1d1d1"
     inkscape:zoom="6.15625"
     inkscape:cx="15.51269"
     inkscape:cy="29.807107"
     inkscape:window-width="1183"
     inkscape:window-height="973"
     inkscape:window-x="35"
     inkscape:window-y="32"
     inkscape:window-maximized="0"
     inkscape:current-layer="svg7"
     showgrid="false" />
  <defs
     id="defs2">
    <rect
       x="67.489848"
       y="35.60533"
       width="15.337563"
       height="22.51269"
       id="rect3808" />
    <linearGradient
       inkscape:collect="always"
       id="linearGradient1134">
      <stop
         style="stop-color:#161616;stop-opacity:1;"
         offset="0"
         id="stop1130" />
      <stop
         style="stop-color:#404040;stop-opacity:1;"
         offset="1"
         id="stop1132" />
    </linearGradient>
    <linearGradient
       inkscape:collect="always"
       id="linearGradient883">
      <stop
         style="stop-color:#808080;stop-opacity:1;"
         offset="0"
         id="stop879" />
      <stop
         style="stop-color:#3e3e3e;stop-opacity:1;"
         offset="0.5"
         id="stop1216" />
      <stop
         style="stop-color:#242424;stop-opacity:1;"
         offset="1"
         id="stop881" />
    </linearGradient>
    <linearGradient
       inkscape:collect="always"
       xlink:href="#linearGradient883"
       id="linearGradient885"
       x1="2.1085808"
       y1="2.0236168"
       x2="14.846128"
       y2="15.071845"
       gradientUnits="userSpaceOnUse" />
    <linearGradient
       inkscape:collect="always"
       xlink:href="#linearGradient1134"
       id="linearGradient1136"
       x1="14.971222"
       y1="14.703373"
       x2="2.0756054"
       y2="2.0069976"
       gradientUnits="userSpaceOnUse" />
    <filter
       style="color-interpolation-filters:sRGB;"
       inkscape:label="Blur"
       id="filter1283"
       x="-0.082344266"
       y="-0.082344266"
       width="1.1646885"
       height="1.1646885">
      <feGaussianBlur
         stdDeviation="0.5 0.5"
         result="blur"
         id="feGaussianBlur1281" />
    </filter>
    <filter
       style="color-interpolation-filters:sRGB;"
       inkscape:label="Blur"
       id="filter1694"
       x="-0.94955398"
       y="-0.2118907"
       width="2.899108"
       height="1.4237814">
      <feGaussianBlur
         stdDeviation="0.2 0.2"
         result="blur"
         id="feGaussianBlur1692" />
    </filter>
    <filter
       style="color-interpolation-filters:sRGB;"
       inkscape:label="Blur"
       id="filter3148"
       x="-0.94955398"
       y="-0.2118907"
       width="2.899108"
       height="1.4237814">
      <feGaussianBlur
         stdDeviation="0.2 0.2"
         result="blur"
         id="feGaussianBlur3146" />
    </filter>
    <clipPath
       clipPathUnits="userSpaceOnUse"
       id="clipPath44">
      <path
         id="path46"
         style="display:block;opacity:0.85;fill:#f2f2f2;stroke-width:4.39162"
         d="m 17.570312,8.4453125 a 6.5431988,7.4283052 9.9958727e-8 0 0 -6.535156,7.4394535 6.5431988,7.4283052 9.9958727e-8 0 0 6.552735,7.417968 6.5431988,7.4283052 9.9958727e-8 0 0 6.535156,-7.4375 6.5431988,7.4283052 9.9958727e-8 0 0 -6.552735,-7.4199215 z M 45.646484,41.177734 a 6.5431986,7.0703472 2.4665357e-6 0 0 -6.533203,7.080078 6.5431986,7.0703472 2.4665357e-6 0 0 6.550781,7.060547 6.5431986,7.0703472 2.4665357e-6 0 0 6.535157,-7.080078 6.5431986,7.0703472 2.4665357e-6 0 0 -6.552735,-7.060547 z" />
    </clipPath>
    <inkscape:path-effect
       effect="powerclip"
       id="path-effect48"
       is_visible="true"
       lpeversion="1"
       inverse="true"
       flatten="false"
       hide_clip="false"
       message="" />
  </defs>
  <metadata
     id="metadata2">
    <rdf:RDF>
      <cc:Work
         rdf:about="">
        <dc:format>image/svg+xml</dc:format>
        <dc:type
           rdf:resource="http://purl.org/dc/dcmitype/StillImage" />
      </cc:Work>
    </rdf:RDF>
  </metadata>
  <rect
     style="fill:#000000;stroke:none;stroke-width:0.539739;stroke-dasharray:none;filter:url(#filter1283)"
     id="rect246-1"
     width="14.572964"
     height="14.572964"
     x="1.1932471"
     y="1.2138842"
     rx="2.1589575"
     ry="2.1589575" />
  <rect
     style="opacity:1;fill:#000000;stroke:url(#linearGradient885);stroke-width:0.52915625;stroke-dasharray:none"
     id="rect246"
     width="14.287219"
     height="14.287219"
     x="1.3361193"
     y="1.3567564"
     rx="2.1166251"
     ry="2.1166251" />
  <rect
     style="fill:url(#linearGradient1136);fill-opacity:1;stroke:none;stroke-width:0.478315;stroke-dasharray:none"
     id="rect246-5"
     width="12.914515"
     height="12.914515"
     x="2.0224717"
     y="2.0431087"
     rx="1.5874687"
     ry="1.5874687" />
  <path
     style="fill:#999999;fill-opacity:1;stroke-width:0.168655"
     d="M 4.7962431,5.0497161 V 5.9487484 H 5.4290235 V 8.8256523 H 6.3781939 V 5.9487484 H 7.0109742 V 5.0497161 Z m 5.2204369,0 0.660897,1.87076 -0.660897,1.9051762 h 0.73845 l 0.368916,-0.9439841 0.368917,0.9439841 h 0.738448 l -0.660896,-1.9051762 0.660896,-1.87076 H 11.492963 L 11.124046,5.9937001 10.75513,5.0497161 Z M 7.4855596,6.1285549 V 9.9044913 H 9.7002905 V 9.0054593 H 8.2765346 V 8.4660391 H 9.7002905 V 7.5670067 H 8.2765346 V 7.0275874 H 9.7002905 V 6.1285549 Z"
     id="path8" />
  <g
     fill="#474747"
     id="g9"
     transform="matrix(0.46959567,0,0,0.46959567,4.7471229,3.7470598)"
     style="fill:#999999;fill-opacity:1;stroke:none;stroke-width:0.58349;stroke-dasharray:none;stroke-opacity:0.3" />
  <g
     aria-label="Krita"
     id="text1450"
     style="font-size:1.76385px;opacity:1;fill:#afafe9;stroke-width:0.529156;fill-opacity:1">
    <rect
       style="font-size:1.76385px;fill:#afafe9;fill-opacity:1;stroke:none;stroke-width:0.519976;stroke-dasharray:none;filter:url(#filter3148)"
       id="rect1656-3"
       width="0.5055005"
       height="2.2653189"
       x="15.369148"
       y="4.3016486"
       rx="0"
       ry="0" />
    <rect
       style="opacity:1;fill:#afafe9;fill-opacity:1;stroke:none;stroke-width:0.519976;stroke-dasharray:none"
       id="rect1656"
       width="0.5055005"
       height="2.2653189"
       x="15.369148"
       y="4.3016486"
       rx="0"
       ry="0" />
  </g>
  <path
     d="M 4.9073057,14.179017 H 4.7485592 V 13.058972 H 4.3552206 v -0.139344 h 0.9436597 v 0.139344 H 4.9073057 Z m 0.8025518,-0.963062 q 0.1217057,0 0.2081343,0.05292 0.088192,0.05292 0.1340526,0.149928 0.047624,0.09525 0.047624,0.224009 v 0.09348 H 5.4523354 q 0.00353,0.16051 0.081137,0.245175 0.079373,0.0829 0.2204813,0.0829 0.089956,0 0.1587465,-0.01588 0.070554,-0.01764 0.1446356,-0.04939 v 0.135817 q -0.072318,0.03175 -0.1428718,0.04586 -0.070554,0.01588 -0.1675657,0.01588 -0.1340526,0 -0.2381198,-0.05468 -0.1023033,-0.05468 -0.1605103,-0.162274 -0.056443,-0.109359 -0.056443,-0.266341 0,-0.155219 0.051152,-0.266342 0.052915,-0.111122 0.1463996,-0.171093 0.095248,-0.05997 0.2204812,-0.05997 z m -0.00176,0.126997 q -0.1111226,0 -0.176385,0.07232 -0.063499,0.07055 -0.075846,0.197551 h 0.4815311 q -0.00176,-0.119942 -0.056443,-0.194023 -0.054679,-0.07585 -0.1728573,-0.07585 z m 0.820188,0.35277 -0.3263122,-0.462129 h 0.176385 l 0.2434113,0.356298 0.2416474,-0.356298 h 0.1746211 l -0.3263122,0.462129 0.3439507,0.483295 H 6.8792879 L 6.6217658,13.801553 6.360716,14.179017 H 6.1860948 Z M 8.274492,13.215955 q 0.1605103,0 0.2398836,0.0829 0.079373,0.08114 0.079373,0.264577 v 0.615584 H 8.4402939 v -0.608528 q 0,-0.224009 -0.1922597,-0.224009 -0.1375803,0 -0.1975512,0.07937 -0.058207,0.07937 -0.058207,0.231064 v 0.5221 H 7.838821 v -0.608528 q 0,-0.224009 -0.1940235,-0.224009 -0.1428718,0 -0.1975512,0.08819 -0.054679,0.08819 -0.054679,0.253995 v 0.49035 H 7.2373482 v -0.945424 h 0.1252333 l 0.02293,0.128762 h 0.00882 q 0.044096,-0.07408 0.118178,-0.109359 0.075845,-0.03704 0.1605103,-0.03704 0.2222451,0 0.2892714,0.158746 h 0.00882 q 0.047624,-0.08114 0.128761,-0.119941 0.082901,-0.0388 0.1746212,-0.0388 z m 0.9701163,0.0018 q 0.1728573,0 0.2557582,0.07584 0.082901,0.07585 0.082901,0.241648 v 0.643805 H 9.4703811 l -0.029986,-0.134053 h -0.00706 q -0.061735,0.07761 -0.1305249,0.114651 -0.067026,0.03704 -0.1869681,0.03704 -0.128761,0 -0.2134258,-0.06703 -0.084665,-0.06879 -0.084665,-0.213426 0,-0.141108 0.1111225,-0.216953 0.1111226,-0.07761 0.3421869,-0.08466 l 0.1605104,-0.0053 v -0.05644 q 0,-0.118178 -0.051152,-0.164038 -0.051152,-0.04586 -0.1446357,-0.04586 -0.074082,0 -0.141108,0.02293 -0.067026,0.02117 -0.1252333,0.04939 l -0.047624,-0.116414 q 0.061735,-0.03351 0.1463996,-0.05644 0.084665,-0.02469 0.176385,-0.02469 z m 0.04586,0.504461 q -0.176385,0.0071 -0.2451752,0.05644 -0.067026,0.04939 -0.067026,0.139344 0,0.07937 0.047624,0.116414 0.049388,0.03704 0.1252333,0.03704 0.1199418,0 0.1993151,-0.06526 0.079373,-0.06703 0.079373,-0.204607 v -0.08466 z m 0.7390546,-0.18344 q 0,0.02822 -0.0035,0.07408 -0.0018,0.04586 -0.0035,0.07937 h 0.0071 q 0.01058,-0.01411 0.03175,-0.04057 0.02117,-0.02646 0.04233,-0.05292 0.02293,-0.02822 0.0388,-0.04586 l 0.301618,-0.319257 h 0.181676 l -0.382755,0.403922 0.409213,0.541502 h -0.186968 l -0.328076,-0.440962 -0.107595,0.09348 v 0.347478 H 9.8760682 v -1.340526 h 0.1534548 z m 1.153559,-0.322785 q 0.121705,0 0.208134,0.05292 0.08819,0.05292 0.134053,0.149928 0.04762,0.09525 0.04762,0.224009 v 0.09348 H 10.92556 q 0.0035,0.16051 0.08114,0.245175 0.07937,0.0829 0.220481,0.0829 0.08996,0 0.158746,-0.01588 0.07055,-0.01764 0.144636,-0.04939 v 0.135817 q -0.07232,0.03175 -0.142872,0.04586 -0.07055,0.01588 -0.167566,0.01588 -0.134052,0 -0.238119,-0.05468 -0.102304,-0.05468 -0.160511,-0.162274 -0.05644,-0.109359 -0.05644,-0.266341 0,-0.155219 0.05115,-0.266342 0.05292,-0.111122 0.146399,-0.171093 0.09525,-0.05997 0.220482,-0.05997 z m -0.0018,0.126997 q -0.111123,0 -0.176385,0.07232 -0.0635,0.07055 -0.07585,0.197551 h 0.481531 q -0.0018,-0.119942 -0.05644,-0.194023 -0.05468,-0.07585 -0.172857,-0.07585 z m 1.072419,-0.126997 q 0.02646,0 0.05644,0.0035 0.03175,0.0018 0.05468,0.0071 l -0.0194,0.142872 q -0.02293,-0.0053 -0.05115,-0.0088 -0.02646,-0.0035 -0.05115,-0.0035 -0.07232,0 -0.135816,0.04057 -0.0635,0.0388 -0.102304,0.111122 -0.03704,0.07055 -0.03704,0.165802 v 0.504461 h -0.155219 v -0.945424 h 0.126997 l 0.01764,0.172858 h 0.0071 q 0.04586,-0.07761 0.118178,-0.134053 0.07232,-0.05644 0.171093,-0.05644 z"
     id="text2284"
     style="font-size:1.76385px;fill:#999999;stroke-width:0.529156"
     aria-label="Texmaker" />
  <text
     xml:space="preserve"
     transform="scale(0.26457812)"
     id="text3806"
     style="font-size:6.66667px;white-space:pre;shape-inside:url(#rect3808);display:inline;fill:#999999;stroke-width:2" />
</svg>
