<?xml version="1.0" encoding="UTF-8" standalone="no"?>
<svg
   width="64"
   height="64"
   version="1.1"
   viewBox="0 0 16.933 16.933"
   id="svg7"
   sodipodi:docname="Games Templates.svg"
   inkscape:version="1.4 (e7c3feb100, 2024-10-09)"
   xmlns:inkscape="http://www.inkscape.org/namespaces/inkscape"
   xmlns:sodipodi="http://sodipodi.sourceforge.net/DTD/sodipodi-0.dtd"
   xmlns:xlink="http://www.w3.org/1999/xlink"
   xmlns="http://www.w3.org/2000/svg"
   xmlns:svg="http://www.w3.org/2000/svg"
   xmlns:rdf="http://www.w3.org/1999/02/22-rdf-syntax-ns#"
   xmlns:cc="http://creativecommons.org/ns#"
   xmlns:dc="http://purl.org/dc/elements/1.1/">
  <sodipodi:namedview
     id="namedview7"
     pagecolor="#9c4444"
     bordercolor="#000000"
     borderopacity="0.25"
     inkscape:showpageshadow="2"
     inkscape:pageopacity="0.0"
     inkscape:pagecheckerboard="0"
     inkscape:deskcolor="#d1d1d1"
     inkscape:zoom="6.15625"
     inkscape:cx="15.675127"
     inkscape:cy="27.370558"
     inkscape:window-width="1183"
     inkscape:window-height="973"
     inkscape:window-x="35"
     inkscape:window-y="32"
     inkscape:window-maximized="0"
     inkscape:current-layer="svg7"
     showgrid="false" />
  <defs
     id="defs2">
    <linearGradient
       inkscape:collect="always"
       id="linearGradient1134">
      <stop
         style="stop-color:#161616;stop-opacity:1;"
         offset="0"
         id="stop1130" />
      <stop
         style="stop-color:#404040;stop-opacity:1;"
         offset="1"
         id="stop1132" />
    </linearGradient>
    <linearGradient
       inkscape:collect="always"
       id="linearGradient883">
      <stop
         style="stop-color:#808080;stop-opacity:1;"
         offset="0"
         id="stop879" />
      <stop
         style="stop-color:#3e3e3e;stop-opacity:1;"
         offset="0.5"
         id="stop1216" />
      <stop
         style="stop-color:#242424;stop-opacity:1;"
         offset="1"
         id="stop881" />
    </linearGradient>
    <linearGradient
       inkscape:collect="always"
       xlink:href="#linearGradient883"
       id="linearGradient885"
       x1="2.1085808"
       y1="2.0236168"
       x2="14.846128"
       y2="15.071845"
       gradientUnits="userSpaceOnUse" />
    <linearGradient
       inkscape:collect="always"
       xlink:href="#linearGradient1134"
       id="linearGradient1136"
       x1="14.971222"
       y1="14.703373"
       x2="2.0756054"
       y2="2.0069976"
       gradientUnits="userSpaceOnUse" />
    <filter
       style="color-interpolation-filters:sRGB;"
       inkscape:label="Blur"
       id="filter1283"
       x="-0.082344266"
       y="-0.082344266"
       width="1.1646885"
       height="1.1646885">
      <feGaussianBlur
         stdDeviation="0.5 0.5"
         result="blur"
         id="feGaussianBlur1281" />
    </filter>
    <filter
       style="color-interpolation-filters:sRGB;"
       inkscape:label="Blur"
       id="filter1694"
       x="-0.94955398"
       y="-0.2118907"
       width="2.899108"
       height="1.4237814">
      <feGaussianBlur
         stdDeviation="0.2 0.2"
         result="blur"
         id="feGaussianBlur1692" />
    </filter>
    <clipPath
       clipPathUnits="userSpaceOnUse"
       id="clipPath27">
      <path
         style="display:none;opacity:0.85;fill:#f2f2f2;stroke-width:1.12343"
         d="m 30.42493,16.814253 c -0.423623,-0.0026 -0.809329,0.01076 -1.146756,0.03703 -3.175298,0.248279 -7.315774,2.734045 -10.826313,6.504663 -3.393429,3.64485 -4.372996,6.557224 -2.925403,8.701679 1.630222,2.415008 3.518084,3.788363 6.150359,4.480439 2.251904,0.592079 2.924882,0.95125 4.853824,2.591992 3.113607,2.648442 4.186318,2.946389 10.732704,2.962274 2.765198,0.0073 6.094712,-0.09237 7.400087,-0.218058 1.930038,-0.185731 2.744828,-0.402528 4.338951,-1.168452 4.22871,-2.031762 4.910418,-3.412786 3.664943,-7.393344 -0.388461,-1.24144 -1.023002,-3.864593 -1.408873,-5.829915 -0.385839,-1.965323 -0.870927,-3.878187 -1.081227,-4.25004 C 49.241229,21.57759 46.229586,19.984679 41.04062,18.398259 38.196873,17.528826 33.390372,16.83278 30.42493,16.814265 Z m -1.839487,8.426028 c 2.515484,0.09298 3.083657,2.031715 3.070496,3.690498 0,2.342327 -0.383681,3.247561 -1.75992,4.14307 -1.027918,0.668814 -3.540475,0.806595 -4.292147,0.234515 -0.785416,-0.597782 -1.137391,-1.717067 -1.137391,-3.616444 0,-2.860418 1.470024,-4.450807 4.118962,-4.451639 z m 12.764099,0 h 0.0046 c 0.620717,-0.0094 1.284099,0.164005 2.078203,0.514281 0.821631,0.362449 1.743453,0.948579 2.05012,1.30011 0.731402,0.838402 0.735162,2.724992 0.0142,4.826038 -1.0903,3.170879 -3.259996,4.449375 -6.24397,3.669929 -1.148258,-0.299941 -2.503486,-1.722182 -2.747535,-2.888215 -0.394352,-1.884109 1.361825,-5.873954 3.014331,-6.850263 0.629543,-0.372046 1.209642,-0.561495 1.829923,-0.57188 z M 20.333475,37.879316 c -1.007692,-0.0054 -2.079051,0.289137 -3.107942,0.888682 -1.261029,0.734837 -3.722737,3.289301 -4.376398,4.546268 -1.236947,2.378671 0.81646,6.054909 3.89897,6.973689 1.084292,0.323198 1.101333,0.32128 2.082886,-0.09462 1.166926,-0.494456 1.739672,-1.159358 3.763231,-4.377585 1.366974,-2.173985 1.731407,-2.98728 1.830131,-4.093696 0.111775,-1.251779 0.03827,-1.472858 -0.753582,-2.369821 -0.855303,-0.968695 -2.041685,-1.466624 -3.337296,-1.472913 z m 9.969759,6.319518 c -2.32605,0 -3.978727,1.284636 -5.055087,3.920899 -0.932887,2.284953 -1.038578,4.224853 -0.266798,4.904211 1.344316,1.18328 6.325601,2.139978 7.84475,1.505822 0.634181,-0.264726 0.83144,-0.658188 1.132717,-2.262848 0.288404,-1.536033 -0.112837,-4.966678 -0.734863,-6.290718 -0.554751,-1.180679 -1.53659,-1.777366 -2.920719,-1.777366 z m 10.915249,0 c -0.208694,-0.0014 -0.450645,0.0099 -0.73954,0.0288 -1.723557,0.115729 -2.655318,0.630799 -3.487077,1.929594 -0.554508,0.865836 -0.605743,1.183066 -0.491468,2.937588 0.142658,2.188582 0.525925,3.309744 1.198245,3.472443 0.722156,0.174707 3.967469,-0.08181 5.392094,-0.427884 1.751939,-0.42554 2.944122,-1.262506 2.944122,-2.061248 0,-0.85277 -2.521997,-4.901312 -3.412185,-5.476095 -0.446345,-0.288215 -0.778401,-0.398555 -1.404191,-0.403195 z"
         id="path29" />
      <path
         id="lpe_path-effect31"
         style="opacity:0.85;fill:#f2f2f2;stroke-width:1.12343"
         class="powerclip"
         d="M -0.90427007,2.2353762 H 66.599916 V 66.050567 H -0.90427007 Z M 30.42493,16.814253 c -0.423623,-0.0026 -0.809329,0.01076 -1.146756,0.03703 -3.175298,0.248279 -7.315774,2.734045 -10.826313,6.504663 -3.393429,3.64485 -4.372996,6.557224 -2.925403,8.701679 1.630222,2.415008 3.518084,3.788363 6.150359,4.480439 2.251904,0.592079 2.924882,0.95125 4.853824,2.591992 3.113607,2.648442 4.186318,2.946389 10.732704,2.962274 2.765198,0.0073 6.094712,-0.09237 7.400087,-0.218058 1.930038,-0.185731 2.744828,-0.402528 4.338951,-1.168452 4.22871,-2.031762 4.910418,-3.412786 3.664943,-7.393344 -0.388461,-1.24144 -1.023002,-3.864593 -1.408873,-5.829915 -0.385839,-1.965323 -0.870927,-3.878187 -1.081227,-4.25004 C 49.241229,21.57759 46.229586,19.984679 41.04062,18.398259 38.196873,17.528826 33.390372,16.83278 30.42493,16.814265 Z m -1.839487,8.426028 c -2.648938,8.32e-4 -4.118962,1.591221 -4.118962,4.451639 0,1.899377 0.351975,3.018662 1.137391,3.616444 0.751672,0.57208 3.264229,0.434299 4.292147,-0.234515 1.376239,-0.895509 1.75992,-1.800743 1.75992,-4.14307 0.01316,-1.658783 -0.555012,-3.597518 -3.070496,-3.690498 z m 12.764099,0 h -1.28e-4 c -0.620281,0.01038 -1.20038,0.199834 -1.829923,0.57188 -1.652506,0.976309 -3.408683,4.966154 -3.014331,6.850263 0.244049,1.166033 1.599277,2.588274 2.747535,2.888215 2.983974,0.779446 5.15367,-0.49905 6.24397,-3.669929 0.720962,-2.101046 0.717202,-3.987636 -0.0142,-4.826038 -0.306667,-0.351531 -1.228489,-0.937661 -2.05012,-1.30011 -0.794104,-0.350276 -1.457486,-0.523681 -2.078203,-0.514281 z M 20.333475,37.879316 c -1.007692,-0.0054 -2.079051,0.289137 -3.107942,0.888682 -1.261029,0.734837 -3.722737,3.289301 -4.376398,4.546268 -1.236947,2.378671 0.81646,6.054909 3.89897,6.973689 1.084292,0.323198 1.101333,0.32128 2.082886,-0.09462 1.166926,-0.494456 1.739672,-1.159358 3.763231,-4.377585 1.366974,-2.173985 1.731407,-2.98728 1.830131,-4.093696 0.111775,-1.251779 0.03827,-1.472858 -0.753582,-2.369821 -0.855303,-0.968695 -2.041685,-1.466624 -3.337296,-1.472913 z m 9.969759,6.319518 c -2.32605,0 -3.978727,1.284636 -5.055087,3.920899 -0.932887,2.284953 -1.038578,4.224853 -0.266798,4.904211 1.344316,1.18328 6.325601,2.139978 7.84475,1.505822 0.634181,-0.264726 0.83144,-0.658188 1.132717,-2.262848 0.288404,-1.536033 -0.112837,-4.966678 -0.734863,-6.290718 -0.554751,-1.180679 -1.53659,-1.777366 -2.920719,-1.777366 z m 10.915249,0 c -0.208694,-0.0014 -0.450645,0.0099 -0.73954,0.0288 -1.723557,0.115729 -2.655318,0.630799 -3.487077,1.929594 -0.554508,0.865836 -0.605743,1.183066 -0.491468,2.937588 0.142658,2.188582 0.525925,3.309744 1.198245,3.472443 0.722156,0.174707 3.967469,-0.08181 5.392094,-0.427884 1.751939,-0.42554 2.944122,-1.262506 2.944122,-2.061248 0,-0.85277 -2.521997,-4.901312 -3.412185,-5.476095 -0.446345,-0.288215 -0.778401,-0.398555 -1.404191,-0.403195 z" />
    </clipPath>
    <inkscape:path-effect
       effect="powerclip"
       id="path-effect31"
       is_visible="true"
       lpeversion="1"
       inverse="true"
       flatten="false"
       hide_clip="false"
       message="" />
  </defs>
  <metadata
     id="metadata2">
    <rdf:RDF>
      <cc:Work
         rdf:about="">
        <dc:format>image/svg+xml</dc:format>
        <dc:type
           rdf:resource="http://purl.org/dc/dcmitype/StillImage" />
      </cc:Work>
    </rdf:RDF>
  </metadata>
  <rect
     style="fill:#000000;stroke:none;stroke-width:0.539739;stroke-dasharray:none;filter:url(#filter1283)"
     id="rect246-1"
     width="14.572964"
     height="14.572964"
     x="1.1932471"
     y="1.2138842"
     rx="2.1589575"
     ry="2.1589575" />
  <rect
     style="opacity:1;fill:#000000;stroke:url(#linearGradient885);stroke-width:0.52915625;stroke-dasharray:none"
     id="rect246"
     width="14.287219"
     height="14.287219"
     x="1.3361193"
     y="1.3567564"
     rx="2.1166251"
     ry="2.1166251" />
  <rect
     style="fill:url(#linearGradient1136);fill-opacity:1;stroke:none;stroke-width:0.478315;stroke-dasharray:none"
     id="rect246-5"
     width="12.914515"
     height="12.914515"
     x="2.0224717"
     y="2.0431087"
     rx="1.5874687"
     ry="1.5874687" />
  <g
     id="g2"
     transform="matrix(0.1265469,0,0,0.1265469,4.3224613,3.3704118)"
     style="fill:#999999;fill-opacity:1">
    <rect
       style="fill:#999999;fill-opacity:1;stroke-width:1.12694"
       width="4.6548729"
       height="13.095815"
       x="45.07103"
       y="-20.913651"
       rx="0.61095202"
       ry="0.58276373"
       transform="matrix(0.89174519,0.45253787,-0.54900551,0.83581873,0,0)"
       id="rect4" />
    <path
       style="fill:#999999;fill-opacity:1;stroke-width:1.12343"
       d="M 44.096238,7.4247671 C 43.329343,7.0356955 42.356344,7.2650778 41.912984,7.9387505 L 39.741113,11.24532 A 28.758569,25.277961 0 0 0 7.9485138,23.134385 28.758569,25.277961 0 0 0 18.474153,57.664081 28.758569,25.277961 0 0 0 57.758356,48.412346 28.758569,25.277961 0 0 0 53.573985,18.272593 l 2.174985,-3.311204 c 0.442571,-0.673761 0.18174,-1.529359 -0.584804,-1.918343 L 44.094993,7.4256518 Z"
       id="path6"
       clip-path="url(#clipPath27)"
       inkscape:path-effect="#path-effect31"
       inkscape:original-d="M 44.096238,7.4247671 C 43.329343,7.0356955 42.356344,7.2650778 41.912984,7.9387505 L 39.741113,11.24532 A 28.758569,25.277961 0 0 0 7.9485138,23.134385 28.758569,25.277961 0 0 0 18.474153,57.664081 28.758569,25.277961 0 0 0 57.758356,48.412346 28.758569,25.277961 0 0 0 53.573985,18.272593 l 2.174985,-3.311204 c 0.442571,-0.673761 0.18174,-1.529359 -0.584804,-1.918343 L 44.094993,7.4256518 Z" />
  </g>
  <g
     aria-label="Krita"
     id="text1450"
     style="font-size:1.76385px;opacity:1;fill:#ff00ff;stroke-width:0.529156">
    <rect
       style="font-size:1.76385px;fill:#ff00ff;fill-opacity:1;stroke:none;stroke-width:0.519976;stroke-dasharray:none;filter:url(#filter1694)"
       id="rect1656-7"
       width="0.5055005"
       height="2.2653189"
       x="15.369148"
       y="4.3016486"
       rx="0"
       ry="0" />
    <rect
       style="opacity:1;fill:#ff00ff;fill-opacity:1;stroke:none;stroke-width:0.519976;stroke-dasharray:none"
       id="rect1656"
       width="0.5055005"
       height="2.2653189"
       x="15.369148"
       y="4.3016486"
       rx="0"
       ry="0" />
  </g>
  <path
     d="M 6.6558119,12.901585 6.3206804,14.160974 H 6.16017 L 5.9149949,13.335492 q -0.014111,-0.05115 -0.028222,-0.102304 -0.014111,-0.05115 -0.02293,-0.08996 -0.00882,-0.04057 -0.012347,-0.05644 -0.00176,0.02293 -0.019402,0.09878 -0.015875,0.07408 -0.040569,0.155218 L 5.5534056,14.160974 H 5.3928953 L 5.0595276,12.901585 h 0.1658019 l 0.1957874,0.769038 q 0.021166,0.08114 0.035277,0.156983 0.015875,0.07585 0.024694,0.142872 0.00882,-0.06879 0.026458,-0.149927 0.017639,-0.08114 0.040569,-0.158747 l 0.2222451,-0.760219 h 0.164038 l 0.2310644,0.765511 q 0.024694,0.08114 0.042332,0.162274 0.017639,0.07937 0.026458,0.141108 0.00882,-0.06526 0.024694,-0.141108 0.015875,-0.07761 0.037041,-0.160511 L 6.49001,12.901585 Z m 0.4956416,0.29809 q 0.1728573,0 0.2557582,0.07585 0.082901,0.07585 0.082901,0.241647 v 0.643806 H 7.3772263 l -0.029986,-0.134053 h -0.00706 q -0.061735,0.07761 -0.1305249,0.11465 -0.067026,0.03704 -0.1869681,0.03704 -0.128761,0 -0.2134258,-0.06703 -0.084665,-0.06879 -0.084665,-0.213426 0,-0.141108 0.1111225,-0.216954 0.1111226,-0.07761 0.3421869,-0.08466 l 0.1605104,-0.0053 v -0.05644 q 0,-0.118178 -0.051152,-0.164038 -0.051152,-0.04586 -0.1446357,-0.04586 -0.074082,0 -0.141108,0.02293 -0.067026,0.02117 -0.1252333,0.04939 l -0.047624,-0.116415 q 0.061735,-0.03351 0.1463996,-0.05644 0.084665,-0.02469 0.176385,-0.02469 z m 0.04586,0.504461 q -0.176385,0.0071 -0.2451752,0.05644 -0.067026,0.04939 -0.067026,0.139344 0,0.07937 0.047624,0.116414 0.049388,0.03704 0.1252333,0.03704 0.1199418,0 0.1993151,-0.06526 0.079373,-0.06703 0.079373,-0.204606 v -0.08466 z m 1.0265621,-0.506225 q 0.026458,0 0.056443,0.0035 0.031749,0.0018 0.054679,0.0071 l -0.019402,0.142871 q -0.02293,-0.0053 -0.051152,-0.0088 -0.026458,-0.0035 -0.051152,-0.0035 -0.072318,0 -0.1358164,0.04057 -0.063499,0.0388 -0.1023033,0.111123 -0.037041,0.07055 -0.037041,0.165801 v 0.504462 H 7.7829132 V 13.21555 h 0.1269972 l 0.017638,0.172857 h 0.00706 q 0.04586,-0.07761 0.118178,-0.134052 0.072318,-0.05644 0.1710934,-0.05644 z m 1.3246516,0 q 0.1605104,0 0.2398836,0.0829 0.079373,0.08114 0.079373,0.264578 v 0.615584 h -0.153455 v -0.608529 q 0,-0.224009 -0.1922596,-0.224009 -0.1375803,0 -0.1975512,0.07937 -0.058207,0.07937 -0.058207,0.231064 v 0.5221 H 9.1128564 v -0.608529 q 0,-0.224009 -0.1940235,-0.224009 -0.1428719,0 -0.1975512,0.08819 -0.054679,0.08819 -0.054679,0.253994 v 0.490351 H 8.5113835 V 13.21555 h 0.1252334 l 0.02293,0.128761 h 0.00882 q 0.044096,-0.07408 0.1181779,-0.109359 0.075846,-0.03704 0.1605104,-0.03704 0.2222451,0 0.2892714,0.158747 h 0.00882 q 0.047624,-0.08114 0.1287611,-0.119942 0.082901,-0.0388 0.1746211,-0.0388 z m 1.4022597,0.01764 v 0.945424 H 10.82379 L 10.80086,14.03574 h -0.0071 q -0.04586,0.07408 -0.126997,0.109359 -0.08114,0.03351 -0.172857,0.03351 -0.171094,0 -0.257522,-0.08114 -0.08643,-0.0829 -0.08643,-0.262814 V 13.21555 h 0.156983 v 0.608528 q 0,0.225773 0.209898,0.225773 0.156982,0 0.216953,-0.08819 0.06173,-0.08819 0.06173,-0.253995 V 13.21555 Z m 0.523863,0.462129 -0.326312,-0.462129 h 0.176385 l 0.243411,0.356298 0.241648,-0.356298 h 0.174621 l -0.326312,0.462129 0.34395,0.483295 h -0.176385 l -0.257522,-0.377464 -0.261049,0.377464 h -0.174622 z"
     id="text2"
     style="font-size:1.76385px;text-align:center;text-anchor:middle;fill:#999999;stroke-width:0.264578"
     aria-label="Warmux" />
</svg>
