<?xml version="1.0" encoding="UTF-8" standalone="no"?>
<svg
   width="64"
   height="64"
   version="1.1"
   viewBox="0 0 16.933 16.933"
   id="svg7"
   sodipodi:docname="cs-network.svg"
   inkscape:version="1.4 (e7c3feb100, 2024-10-09)"
   xmlns:inkscape="http://www.inkscape.org/namespaces/inkscape"
   xmlns:sodipodi="http://sodipodi.sourceforge.net/DTD/sodipodi-0.dtd"
   xmlns:xlink="http://www.w3.org/1999/xlink"
   xmlns="http://www.w3.org/2000/svg"
   xmlns:svg="http://www.w3.org/2000/svg"
   xmlns:rdf="http://www.w3.org/1999/02/22-rdf-syntax-ns#"
   xmlns:cc="http://creativecommons.org/ns#"
   xmlns:dc="http://purl.org/dc/elements/1.1/">
  <sodipodi:namedview
     id="namedview7"
     pagecolor="#9c4444"
     bordercolor="#000000"
     borderopacity="0.25"
     inkscape:showpageshadow="2"
     inkscape:pageopacity="0.0"
     inkscape:pagecheckerboard="0"
     inkscape:deskcolor="#d1d1d1"
     inkscape:zoom="6.15625"
     inkscape:cx="15.837563"
     inkscape:cy="29.807107"
     inkscape:window-width="1183"
     inkscape:window-height="940"
     inkscape:window-x="35"
     inkscape:window-y="32"
     inkscape:window-maximized="0"
     inkscape:current-layer="svg7"
     showgrid="false" />
  <defs
     id="defs2">
    <rect
       x="67.489848"
       y="35.60533"
       width="15.337563"
       height="22.51269"
       id="rect3808" />
    <linearGradient
       inkscape:collect="always"
       id="linearGradient1134">
      <stop
         style="stop-color:#161616;stop-opacity:1;"
         offset="0"
         id="stop1130" />
      <stop
         style="stop-color:#404040;stop-opacity:1;"
         offset="1"
         id="stop1132" />
    </linearGradient>
    <linearGradient
       inkscape:collect="always"
       id="linearGradient883">
      <stop
         style="stop-color:#808080;stop-opacity:1;"
         offset="0"
         id="stop879" />
      <stop
         style="stop-color:#3e3e3e;stop-opacity:1;"
         offset="0.5"
         id="stop1216" />
      <stop
         style="stop-color:#242424;stop-opacity:1;"
         offset="1"
         id="stop881" />
    </linearGradient>
    <linearGradient
       inkscape:collect="always"
       xlink:href="#linearGradient883"
       id="linearGradient885"
       x1="2.1085808"
       y1="2.0236168"
       x2="14.846128"
       y2="15.071845"
       gradientUnits="userSpaceOnUse" />
    <linearGradient
       inkscape:collect="always"
       xlink:href="#linearGradient1134"
       id="linearGradient1136"
       x1="14.971222"
       y1="14.703373"
       x2="2.0756054"
       y2="2.0069976"
       gradientUnits="userSpaceOnUse" />
    <filter
       style="color-interpolation-filters:sRGB;"
       inkscape:label="Blur"
       id="filter1283"
       x="-0.082344266"
       y="-0.082344266"
       width="1.1646885"
       height="1.1646885">
      <feGaussianBlur
         stdDeviation="0.5 0.5"
         result="blur"
         id="feGaussianBlur1281" />
    </filter>
    <filter
       style="color-interpolation-filters:sRGB;"
       inkscape:label="Blur"
       id="filter1694"
       x="-0.94955398"
       y="-0.2118907"
       width="2.899108"
       height="1.4237814">
      <feGaussianBlur
         stdDeviation="0.2 0.2"
         result="blur"
         id="feGaussianBlur1692" />
    </filter>
    <filter
       style="color-interpolation-filters:sRGB;"
       inkscape:label="Blur"
       id="filter3148"
       x="-0.94955398"
       y="-0.2118907"
       width="2.899108"
       height="1.4237814">
      <feGaussianBlur
         stdDeviation="0.2 0.2"
         result="blur"
         id="feGaussianBlur3146" />
    </filter>
    <clipPath
       clipPathUnits="userSpaceOnUse"
       id="clipPath44">
      <path
         id="path46"
         style="display:block;opacity:0.85;fill:#f2f2f2;stroke-width:4.39162"
         d="m 17.570312,8.4453125 a 6.5431988,7.4283052 9.9958727e-8 0 0 -6.535156,7.4394535 6.5431988,7.4283052 9.9958727e-8 0 0 6.552735,7.417968 6.5431988,7.4283052 9.9958727e-8 0 0 6.535156,-7.4375 6.5431988,7.4283052 9.9958727e-8 0 0 -6.552735,-7.4199215 z M 45.646484,41.177734 a 6.5431986,7.0703472 2.4665357e-6 0 0 -6.533203,7.080078 6.5431986,7.0703472 2.4665357e-6 0 0 6.550781,7.060547 6.5431986,7.0703472 2.4665357e-6 0 0 6.535157,-7.080078 6.5431986,7.0703472 2.4665357e-6 0 0 -6.552735,-7.060547 z" />
    </clipPath>
    <inkscape:path-effect
       effect="powerclip"
       id="path-effect48"
       is_visible="true"
       lpeversion="1"
       inverse="true"
       flatten="false"
       hide_clip="false"
       message="" />
  </defs>
  <metadata
     id="metadata2">
    <rdf:RDF>
      <cc:Work
         rdf:about="">
        <dc:format>image/svg+xml</dc:format>
        <dc:type
           rdf:resource="http://purl.org/dc/dcmitype/StillImage" />
      </cc:Work>
    </rdf:RDF>
  </metadata>
  <rect
     style="fill:#000000;stroke:none;stroke-width:0.539739;stroke-dasharray:none;filter:url(#filter1283)"
     id="rect246-1"
     width="14.572964"
     height="14.572964"
     x="1.1932471"
     y="1.2138842"
     rx="2.1589575"
     ry="2.1589575" />
  <rect
     style="opacity:1;fill:#000000;stroke:url(#linearGradient885);stroke-width:0.52915625;stroke-dasharray:none"
     id="rect246"
     width="14.287219"
     height="14.287219"
     x="1.3361193"
     y="1.3567564"
     rx="2.1166251"
     ry="2.1166251" />
  <rect
     style="fill:url(#linearGradient1136);fill-opacity:1;stroke:none;stroke-width:0.478315;stroke-dasharray:none"
     id="rect246-5"
     width="12.914515"
     height="12.914515"
     x="2.0224717"
     y="2.0431087"
     rx="1.5874687"
     ry="1.5874687" />
  <path
     d="m 8.4865319,3.7730394 c -2.0466875,0 -3.7058565,1.6510083 -3.7058565,3.6876266 0,2.0366193 1.659169,3.687627 3.7058565,3.687627 2.0466851,0 3.7058561,-1.6510077 3.7058561,-3.687627 0,-2.036618 -1.659171,-3.6876266 -3.7058561,-3.6876266 z M 8.2218273,4.7937217 c 0.035418,-0.00369 0.080079,0.0021 0.115816,0 0.0042,0.016866 -0.025793,0.076846 -0.066173,0.1646273 -0.2572181,0.5591284 -0.2718094,1.2139456 -0.033095,1.5639488 0.043201,0.063457 0.08272,0.1238503 0.08272,0.1317014 0,0.00785 -0.046583,0.016426 -0.099268,0.016426 -0.1236581,0 -0.2406802,-0.074995 -0.479776,-0.2633965 C 7.6358414,6.3233344 7.4977557,6.2530376 7.4442582,6.2423972 7.3602584,6.225693 7.3378676,6.2330178 7.2291818,6.3411721 7.1280734,6.4417707 7.0968393,6.4960145 7.0968393,6.5881118 c 0,0.3492394 0.4166859,0.6268644 1.1911683,0.7902059 1.0517741,0.2218213 1.3110527,0.4209792 1.3400625,0.971294 0.036421,0.6901011 -0.3327844,1.2104739 -1.141536,1.6133369 -0.096526,0.048096 -0.1580353,0.066762 -0.1985341,0.082314 -0.018003,-0.0017 -0.031716,0.0017 -0.049604,0 -0.00681,-0.02133 -0.01661,-0.07083 -0.01661,-0.1646279 0,-0.3665388 -0.1451895,-0.7438206 -0.363961,-0.9548307 C 7.7990988,8.8691584 7.6346642,8.7491382 7.493854,8.6624002 7.3530465,8.5756666 7.211175,8.4749116 7.1795162,8.4319241 7.1270516,8.3605882 7.1226891,8.3167637 7.1629055,8.1849847 7.2363598,7.9443032 7.3238024,7.8102531 7.4937809,7.6581807 7.5829024,7.5784547 7.6725653,7.5115972 7.692315,7.5100166 7.7121221,7.5084317 7.5784206,7.4685034 7.3779795,7.427704 7.1775368,7.3868341 6.8843549,7.3012171 6.732749,7.246624 6.4555612,7.1468221 6.0813236,6.9373065 5.9386311,6.7856716 5.9326256,6.7792423 5.9274243,6.7749174 5.9220223,6.7692461 6.1264435,5.9589896 6.7001105,5.2949012 7.4606098,4.9748203 7.6197252,4.9078473 7.7837712,4.8619003 7.9569301,4.8266556 8.0431708,4.8091146 8.1325734,4.8027399 8.2216335,4.7937309 Z m 2.4815987,1.2346967 c 0.06216,0.038243 0.296952,0.543688 0.363968,0.790205 0.08653,0.3182898 0.08025,0.8690951 0,1.1853094 -0.03055,0.1203422 -0.0697,0.232926 -0.08272,0.2469394 -0.01301,0.014021 -0.06025,-0.066658 -0.115816,-0.1646272 C 10.813305,7.9882918 10.635843,7.7801463 10.488354,7.6252925 10.062637,7.1782838 9.9956934,6.9448833 10.17402,6.5881474 c 0.08992,-0.1798991 0.481284,-0.589283 0.529406,-0.559729 z"
     fill="#333333"
     id="path2-0"
     style="fill:#999999;fill-opacity:1;stroke:none;stroke-width:0.224185;stroke-dasharray:none;stroke-opacity:0.3" />
  <g
     aria-label="Krita"
     id="text1450"
     style="font-size:1.76385px;opacity:1;fill:#ffff00;stroke-width:0.529156">
    <rect
       style="font-size:1.76385px;fill:#ffff00;fill-opacity:1;stroke:none;stroke-width:0.519976;stroke-dasharray:none;filter:url(#filter3148)"
       id="rect1656-3"
       width="0.5055005"
       height="2.2653189"
       x="15.369148"
       y="4.3016486"
       rx="0"
       ry="0" />
    <rect
       style="opacity:1;fill:#ffff00;fill-opacity:1;stroke:none;stroke-width:0.519976;stroke-dasharray:none"
       id="rect1656"
       width="0.5055005"
       height="2.2653189"
       x="15.369148"
       y="4.3016486"
       rx="0"
       ry="0" />
  </g>
  <path
     d="M 6.0239989,12.923073 5.6888674,14.182462 H 5.5283571 L 5.2831819,13.35698 q -0.014111,-0.05115 -0.028222,-0.102303 -0.014111,-0.05115 -0.02293,-0.08996 -0.00882,-0.04057 -0.012347,-0.05644 -0.00176,0.02293 -0.019402,0.09878 -0.015875,0.07408 -0.040569,0.155219 l -0.2381197,0.82019 H 4.7610823 L 4.4277147,12.923073 h 0.1658019 l 0.1957873,0.769038 q 0.021166,0.08114 0.035277,0.156983 0.015875,0.07585 0.024694,0.142872 0.00882,-0.06879 0.026458,-0.149927 0.017639,-0.08114 0.040569,-0.158747 l 0.2222451,-0.760219 h 0.1640381 l 0.2310643,0.765511 q 0.024694,0.08114 0.042332,0.162274 0.017639,0.07937 0.026458,0.141108 0.00882,-0.06526 0.024694,-0.141108 0.015875,-0.07761 0.037041,-0.16051 L 5.858197,12.923073 Z m 0.502697,0.296327 q 0.1217057,0 0.2081343,0.05292 0.088192,0.05292 0.1340526,0.149927 0.047624,0.09525 0.047624,0.224009 v 0.09348 H 6.2691739 q 0.00353,0.160511 0.081137,0.245176 0.079373,0.0829 0.2204813,0.0829 0.089956,0 0.1587465,-0.01587 0.070554,-0.01764 0.1446357,-0.04939 v 0.135816 q -0.072318,0.03175 -0.1428719,0.04586 -0.070554,0.01587 -0.1675657,0.01587 -0.1340526,0 -0.2381198,-0.05468 -0.1023032,-0.05468 -0.1605103,-0.162274 -0.056443,-0.109359 -0.056443,-0.266342 0,-0.155218 0.051152,-0.266341 0.052916,-0.111123 0.1463995,-0.171093 0.095248,-0.05997 0.2204812,-0.05997 z m -0.00176,0.126997 q -0.1111226,0 -0.176385,0.07232 -0.063499,0.07055 -0.075845,0.197551 h 0.481531 q -0.00176,-0.119942 -0.056443,-0.194024 -0.054679,-0.07585 -0.1728573,-0.07585 z m 0.7866756,-0.178149 q 0,0.05997 -0.00353,0.112886 -0.00176,0.05115 -0.00529,0.08114 h 0.00882 q 0.040569,-0.05997 0.1111225,-0.10054 0.070554,-0.04057 0.1816766,-0.04057 0.176385,0 0.282216,0.123469 0.1075948,0.121706 0.1075948,0.365117 0,0.243411 -0.1075948,0.366881 -0.1075949,0.123469 -0.282216,0.123469 -0.1111226,0 -0.1816766,-0.04057 -0.070554,-0.04057 -0.1111225,-0.09701 h -0.012347 l -0.031749,0.119942 H 7.1563889 v -1.340526 h 0.1552188 z m 0.2663413,0.181677 q -0.1499272,0 -0.2081343,0.08643 -0.058207,0.08643 -0.058207,0.268105 v 0.0071 q 0,0.174621 0.056443,0.268105 0.058207,0.09172 0.2134258,0.09172 0.1269972,0 0.188732,-0.09348 0.063499,-0.09348 0.063499,-0.269869 0,-0.358061 -0.2557583,-0.358061 z M 9.5111287,14.182462 9.3594376,13.792651 H 8.860268 L 8.7103408,14.182462 H 8.5498304 l 0.4921142,-1.264681 h 0.1428718 l 0.4903503,1.264681 z M 9.1707056,13.270551 q -0.00529,-0.01411 -0.017639,-0.05115 -0.012347,-0.03704 -0.024694,-0.07585 -0.010583,-0.04057 -0.017639,-0.06174 -0.012347,0.05468 -0.028222,0.107595 -0.015875,0.05115 -0.026458,0.08114 L 8.9131835,13.651543 H 9.3118136 Z M 10.276639,13.2194 q 0.174622,0 0.280453,0.121705 0.107594,0.121706 0.107594,0.366881 0,0.241648 -0.107594,0.366881 -0.105831,0.125233 -0.282216,0.125233 -0.109359,0 -0.181677,-0.04057 -0.07055,-0.04233 -0.1111225,-0.09701 h -0.010583 q 0.00353,0.02998 0.00706,0.07585 0.00353,0.04586 0.00353,0.07937 v 0.388047 H 9.8268577 v -1.368748 h 0.1269972 l 0.021166,0.128761 h 0.00706 q 0.042333,-0.06174 0.1111225,-0.104067 0.06879,-0.04233 0.18344,-0.04233 z m -0.02822,0.130525 q -0.144636,0 -0.204607,0.08114 -0.058207,0.08114 -0.061735,0.246939 v 0.02998 q 0,0.174621 0.056444,0.269869 0.05821,0.09348 0.213426,0.09348 0.08643,0 0.141108,-0.04762 0.05644,-0.04762 0.0829,-0.128761 0.02822,-0.0829 0.02822,-0.188732 0,-0.162274 -0.0635,-0.259286 -0.06173,-0.09701 -0.192259,-0.09701 z M 11.361407,13.2194 q 0.174621,0 0.280452,0.121705 0.107595,0.121706 0.107595,0.366881 0,0.241648 -0.107595,0.366881 -0.105831,0.125233 -0.282216,0.125233 -0.109359,0 -0.181677,-0.04057 -0.07055,-0.04233 -0.111122,-0.09701 h -0.01058 q 0.0035,0.02998 0.0071,0.07585 0.0035,0.04586 0.0035,0.07937 v 0.388047 h -0.155219 v -1.368748 h 0.126997 l 0.02117,0.128761 h 0.0071 q 0.04233,-0.06174 0.111122,-0.104067 0.06879,-0.04233 0.183441,-0.04233 z m -0.02822,0.130525 q -0.144636,0 -0.204606,0.08114 -0.05821,0.08114 -0.06174,0.246939 v 0.02998 q 0,0.174621 0.05644,0.269869 0.05821,0.09348 0.213426,0.09348 0.08643,0 0.141108,-0.04762 0.05644,-0.04762 0.0829,-0.128761 0.02822,-0.0829 0.02822,-0.188732 0,-0.162274 -0.0635,-0.259286 -0.06173,-0.09701 -0.19226,-0.09701 z m 1.278791,0.571487 q 0,0.13758 -0.102303,0.208134 -0.102304,0.07055 -0.275161,0.07055 -0.09877,0 -0.171093,-0.01587 -0.07055,-0.01588 -0.125234,-0.0441 v -0.141108 q 0.05644,0.02822 0.135817,0.05292 0.08114,0.02293 0.164038,0.02293 0.118178,0 0.171093,-0.03704 0.05292,-0.0388 0.05292,-0.102303 0,-0.03528 -0.0194,-0.0635 -0.0194,-0.02822 -0.07055,-0.05644 -0.04939,-0.02822 -0.142871,-0.0635 -0.09172,-0.03528 -0.156983,-0.07055 -0.06526,-0.03528 -0.10054,-0.08466 -0.03528,-0.04939 -0.03528,-0.126998 0,-0.119941 0.09701,-0.185204 0.09878,-0.06526 0.257522,-0.06526 0.08643,0 0.160511,0.01764 0.07584,0.01587 0.141108,0.04586 l -0.05292,0.12347 q -0.05997,-0.02469 -0.125233,-0.04233 -0.06526,-0.01764 -0.134053,-0.01764 -0.09525,0 -0.146399,0.03175 -0.04939,0.02999 -0.04939,0.0829 0,0.0388 0.02293,0.06703 0.02293,0.02646 0.07585,0.05292 0.05468,0.02469 0.144636,0.05997 0.08996,0.03351 0.153455,0.06879 0.0635,0.03528 0.09701,0.08643 0.03351,0.04939 0.03351,0.125233 z"
     id="text1"
     style="font-size:1.76385px;fill:#999999;stroke-width:0.264578"
     aria-label="Web Apps" />
  <text
     xml:space="preserve"
     transform="scale(0.26457812)"
     id="text3806"
     style="fill:#999999;stroke-width:2;font-size:6.66666667px;white-space:pre;shape-inside:url(#rect3808)" />
</svg>
