<?xml version="1.0" encoding="UTF-8" standalone="no"?>
<svg
   width="64"
   height="64"
   version="1.1"
   viewBox="0 0 16.933 16.933"
   id="svg7"
   sodipodi:docname="zorin-os-upgrader.svg"
   inkscape:version="1.4 (e7c3feb100, 2024-10-09)"
   xmlns:inkscape="http://www.inkscape.org/namespaces/inkscape"
   xmlns:sodipodi="http://sodipodi.sourceforge.net/DTD/sodipodi-0.dtd"
   xmlns:xlink="http://www.w3.org/1999/xlink"
   xmlns="http://www.w3.org/2000/svg"
   xmlns:svg="http://www.w3.org/2000/svg"
   xmlns:rdf="http://www.w3.org/1999/02/22-rdf-syntax-ns#"
   xmlns:cc="http://creativecommons.org/ns#"
   xmlns:dc="http://purl.org/dc/elements/1.1/">
  <sodipodi:namedview
     id="namedview7"
     pagecolor="#9c4444"
     bordercolor="#000000"
     borderopacity="0.25"
     inkscape:showpageshadow="2"
     inkscape:pageopacity="0.0"
     inkscape:pagecheckerboard="0"
     inkscape:deskcolor="#d1d1d1"
     inkscape:zoom="4.3531261"
     inkscape:cx="15.965538"
     inkscape:cy="17.343858"
     inkscape:window-width="1183"
     inkscape:window-height="973"
     inkscape:window-x="35"
     inkscape:window-y="32"
     inkscape:window-maximized="0"
     inkscape:current-layer="svg7"
     showgrid="false" />
  <defs
     id="defs2">
    <linearGradient
       inkscape:collect="always"
       id="linearGradient1134">
      <stop
         style="stop-color:#161616;stop-opacity:1;"
         offset="0"
         id="stop1130" />
      <stop
         style="stop-color:#404040;stop-opacity:1;"
         offset="1"
         id="stop1132" />
    </linearGradient>
    <linearGradient
       inkscape:collect="always"
       id="linearGradient883">
      <stop
         style="stop-color:#808080;stop-opacity:1;"
         offset="0"
         id="stop879" />
      <stop
         style="stop-color:#3e3e3e;stop-opacity:1;"
         offset="0.5"
         id="stop1216" />
      <stop
         style="stop-color:#242424;stop-opacity:1;"
         offset="1"
         id="stop881" />
    </linearGradient>
    <linearGradient
       inkscape:collect="always"
       xlink:href="#linearGradient883"
       id="linearGradient885"
       x1="2.1085808"
       y1="2.0236168"
       x2="14.846128"
       y2="15.071845"
       gradientUnits="userSpaceOnUse" />
    <linearGradient
       inkscape:collect="always"
       xlink:href="#linearGradient1134"
       id="linearGradient1136"
       x1="14.971222"
       y1="14.703373"
       x2="2.0756054"
       y2="2.0069976"
       gradientUnits="userSpaceOnUse" />
    <filter
       style="color-interpolation-filters:sRGB;"
       inkscape:label="Blur"
       id="filter1283"
       x="-0.082344266"
       y="-0.082344266"
       width="1.1646885"
       height="1.1646885">
      <feGaussianBlur
         stdDeviation="0.5 0.5"
         result="blur"
         id="feGaussianBlur1281" />
    </filter>
    <filter
       style="color-interpolation-filters:sRGB;"
       inkscape:label="Blur"
       id="filter1694"
       x="-0.94955398"
       y="-0.2118907"
       width="2.899108"
       height="1.4237814">
      <feGaussianBlur
         stdDeviation="0.2 0.2"
         result="blur"
         id="feGaussianBlur1692" />
    </filter>
    <filter
       style="color-interpolation-filters:sRGB;"
       inkscape:label="Blur"
       id="filter3335"
       x="-0.94955398"
       y="-0.2118907"
       width="2.899108"
       height="1.4237814">
      <feGaussianBlur
         stdDeviation="0.2 0.2"
         result="blur"
         id="feGaussianBlur3333" />
    </filter>
  </defs>
  <metadata
     id="metadata2">
    <rdf:RDF>
      <cc:Work
         rdf:about="">
        <dc:format>image/svg+xml</dc:format>
        <dc:type
           rdf:resource="http://purl.org/dc/dcmitype/StillImage" />
      </cc:Work>
    </rdf:RDF>
  </metadata>
  <rect
     style="fill:#000000;stroke:none;stroke-width:0.539739;stroke-dasharray:none;filter:url(#filter1283)"
     id="rect246-1"
     width="14.572964"
     height="14.572964"
     x="1.1932471"
     y="1.2138842"
     rx="2.1589575"
     ry="2.1589575" />
  <rect
     style="opacity:1;fill:#000000;stroke:url(#linearGradient885);stroke-width:0.52915625;stroke-dasharray:none"
     id="rect246"
     width="14.287219"
     height="14.287219"
     x="1.3361193"
     y="1.3567564"
     rx="2.1166251"
     ry="2.1166251" />
  <g
     aria-label="Krita"
     id="text1450"
     style="font-size:1.76385px;opacity:1;fill:#999999;stroke-width:0.529156">
    <rect
       style="font-size:1.76385px;fill:#ff0000;fill-opacity:1;stroke:none;stroke-width:0.519976;stroke-dasharray:none;filter:url(#filter3335)"
       id="rect1656-0"
       width="0.5055005"
       height="2.2653189"
       x="15.369148"
       y="4.3016486"
       rx="0"
       ry="0" />
    <rect
       style="opacity:1;fill:#ff0000;fill-opacity:1;stroke:none;stroke-width:0.519976;stroke-dasharray:none"
       id="rect1656"
       width="0.5055005"
       height="2.2653189"
       x="15.369148"
       y="4.3016486"
       rx="0"
       ry="0" />
  </g>
  <rect
     style="fill:url(#linearGradient1136);fill-opacity:1;stroke:none;stroke-width:0.478315;stroke-dasharray:none"
     id="rect246-5"
     width="12.914515"
     height="12.914515"
     x="2.0224717"
     y="2.0431087"
     rx="1.5874687"
     ry="1.5874687" />
  <path
     id="rect3"
     style="fill:#999999;fill-opacity:1;stroke:none;stroke-width:0.214308;stroke-dasharray:none;stroke-opacity:0.3"
     d="m 5.486694,3.9365871 c -0.2724456,0 -0.4918207,0.2193751 -0.4918207,0.4918208 v 1.967283 c 0,0.2724457 0.2193751,0.4918208 0.4918207,0.4918208 h 1.967283 c 0.2724458,0 0.4918208,-0.2193751 0.4918208,-0.4918208 v -1.967283 c 0,-0.2724457 -0.219375,-0.4918208 -0.4918208,-0.4918208 z m 3.9923289,0 c -0.2724457,0 -0.4918207,0.2193751 -0.4918207,0.4918208 v 1.967283 c 0,0.2724457 0.219375,0.4918208 0.4918207,0.4918208 h 1.9672831 c 0.272446,0 0.491821,-0.2193751 0.491821,-0.4918208 v -1.967283 c 0,-0.2724457 -0.219375,-0.4918208 -0.491821,-0.4918208 z M 5.486694,7.928916 c -0.2724456,0 -0.4918207,0.2193751 -0.4918207,0.4918207 v 1.9672843 c 0,0.272444 0.2193751,0.49182 0.4918207,0.49182 h 1.967283 c 0.2724458,0 0.4918208,-0.219376 0.4918208,-0.49182 V 8.4207367 c 0,-0.2724456 -0.219375,-0.4918206 -0.4918208,-0.4918206 z m 4.975971,0 c -0.240422,0 -0.434059,0.2212389 -0.434059,0.4960064 V 9.317734 H 9.1981619 A 0.21081739,0.19531263 0 0 0 9.0491506,9.6509165 l 1.2645024,1.1719985 a 0.21081739,0.19531263 0 0 0 0.298023,0 l 1.26492,-1.1719985 A 0.21081739,0.19531263 0 0 0 11.727586,9.317734 H 10.896723 V 8.4249224 c 0,-0.2747674 -0.193638,-0.4960063 -0.434058,-0.4960064 z" />
  <g
     aria-label="Upgrader"
     id="text1241"
     style="font-size:1.76385px;text-align:center;text-anchor:middle;fill:#999999;stroke-width:0.529156">
    <path
       d="m 5.6214859,13.734949 q 0,0.130525 -0.052916,0.236356 -0.052915,0.104067 -0.1622742,0.165802 -0.1075949,0.05997 -0.2751606,0.05997 -0.2345921,0 -0.3580616,-0.126997 Q 4.6513684,13.94132 4.6513684,13.731422 v -0.811371 h 0.1587465 v 0.816662 q 0,0.153455 0.081137,0.23812 0.082901,0.08466 0.2487028,0.08466 0.1710935,0 0.246939,-0.08996 0.077609,-0.09172 0.077609,-0.234592 v -0.814898 h 0.1569827 z"
       id="path7660" />
    <path
       d="m 6.3817068,13.216377 q 0.1746211,0 0.2804521,0.121706 0.1075949,0.121706 0.1075949,0.366881 0,0.241647 -0.1075949,0.366881 -0.105831,0.125233 -0.282216,0.125233 -0.1093587,0 -0.1816765,-0.04057 -0.070554,-0.04233 -0.1111226,-0.09701 h -0.010583 q 0.00353,0.02998 0.00706,0.07585 0.00353,0.04586 0.00353,0.07937 v 0.388047 H 5.931925 v -1.368748 h 0.1269972 l 0.021166,0.128761 h 0.00706 q 0.042332,-0.06173 0.1111226,-0.104067 0.06879,-0.04233 0.1834404,-0.04233 z m -0.028222,0.130525 q -0.1446357,0 -0.2046066,0.08114 -0.058207,0.08114 -0.061735,0.246939 v 0.02999 q 0,0.174621 0.056443,0.269869 0.058207,0.09348 0.2134259,0.09348 0.086429,0 0.141108,-0.04762 0.056443,-0.04762 0.082901,-0.128761 0.028222,-0.0829 0.028222,-0.188732 0,-0.162274 -0.063499,-0.259286 -0.061735,-0.09701 -0.1922596,-0.09701 z"
       id="path7662" />
    <path
       d="m 7.3518237,13.216377 q 0.093484,0 0.1675658,0.03528 0.075845,0.03528 0.128761,0.107595 h 0.00882 l 0.021166,-0.125233 h 0.1234695 v 0.961298 q 0,0.202843 -0.1040672,0.305146 -0.1023033,0.102304 -0.3192568,0.102304 -0.2081343,0 -0.340423,-0.05997 v -0.142872 q 0.1393441,0.07408 0.3492422,0.07408 0.1217057,0 0.1904958,-0.07232 0.070554,-0.07055 0.070554,-0.194024 v -0.03704 q 0,-0.02117 0.00176,-0.05997 0.00176,-0.04057 0.00353,-0.05644 h -0.00706 q -0.095248,0.142872 -0.2927991,0.142872 -0.1834404,0 -0.2875075,-0.128761 -0.1023033,-0.128761 -0.1023033,-0.359825 0,-0.225773 0.1023033,-0.358062 0.1040671,-0.134053 0.2857436,-0.134053 z m 0.021166,0.130525 q -0.1181779,0 -0.1834403,0.09525 -0.065263,0.09348 -0.065263,0.268105 0,0.174622 0.063499,0.268106 0.065263,0.09172 0.1887319,0.09172 0.1428719,0 0.2081343,-0.07585 0.065263,-0.07761 0.065263,-0.248703 v -0.03704 q 0,-0.194024 -0.067026,-0.276925 -0.067026,-0.08466 -0.2098982,-0.08466 z"
       id="path7664" />
    <path
       d="m 8.5424221,13.216377 q 0.026458,0 0.056443,0.0035 0.031749,0.0018 0.054679,0.0071 l -0.019402,0.142871 q -0.02293,-0.0053 -0.051152,-0.0088 -0.026458,-0.0035 -0.051152,-0.0035 -0.072318,0 -0.1358165,0.04057 -0.063499,0.0388 -0.1023033,0.111123 -0.037041,0.07055 -0.037041,0.165801 V 14.17944 H 8.1014596 v -0.945424 h 0.1269972 l 0.017639,0.172857 h 0.00706 q 0.04586,-0.07761 0.1181779,-0.134052 0.072318,-0.05644 0.1710935,-0.05644 z"
       id="path7666" />
    <path
       d="m 9.1527136,13.218141 q 0.1728573,0 0.2557583,0.07585 0.082901,0.07585 0.082901,0.241647 V 14.17944 H 9.3784864 L 9.348501,14.045387 h -0.00706 q -0.061735,0.07761 -0.1305249,0.11465 -0.067026,0.03704 -0.1869681,0.03704 -0.1287611,0 -0.2134259,-0.06703 -0.084665,-0.06879 -0.084665,-0.213426 0,-0.141108 0.1111226,-0.216954 0.1111225,-0.07761 0.3421869,-0.08466 l 0.1605103,-0.0053 v -0.05644 q 0,-0.118178 -0.051152,-0.164038 -0.051152,-0.04586 -0.1446357,-0.04586 -0.074082,0 -0.141108,0.02293 -0.067026,0.02117 -0.1252334,0.04939 l -0.047624,-0.116415 q 0.061735,-0.03351 0.1463995,-0.05644 0.084665,-0.02469 0.176385,-0.02469 z m 0.04586,0.504461 q -0.176385,0.0071 -0.2451751,0.05644 -0.067026,0.04939 -0.067026,0.139344 0,0.07937 0.047624,0.116414 0.049388,0.03704 0.1252334,0.03704 0.1199418,0 0.199315,-0.06526 0.079373,-0.06703 0.079373,-0.204606 v -0.08466 z"
       id="path7668" />
    <path
       d="m 10.119305,14.197078 q -0.1763849,0 -0.2822159,-0.121706 -0.105831,-0.123469 -0.105831,-0.36688 0,-0.243412 0.105831,-0.366881 0.1075948,-0.125234 0.2839799,-0.125234 0.109359,0 0.178149,0.04057 0.07055,0.04057 0.11465,0.09878 h 0.01058 q -0.0018,-0.02293 -0.0071,-0.06703 -0.0035,-0.04586 -0.0035,-0.07232 v -0.377463 h 0.155219 v 1.340526 h -0.125234 l -0.02293,-0.126998 h -0.0071 q -0.04233,0.05997 -0.112886,0.102304 -0.07055,0.04233 -0.181677,0.04233 z m 0.02469,-0.128761 q 0.149927,0 0.209898,-0.08114 0.06174,-0.0829 0.06174,-0.248703 v -0.02822 q 0,-0.176385 -0.05821,-0.269869 -0.05821,-0.09525 -0.21519,-0.09525 -0.125233,0 -0.1887318,0.100539 -0.061735,0.09878 -0.061735,0.266341 0,0.16933 0.061735,0.262814 0.063499,0.09348 0.1904958,0.09348 z"
       id="path7670" />
    <path
       d="m 11.234058,13.216377 q 0.121706,0 0.208134,0.05292 0.08819,0.05292 0.134053,0.149927 0.04762,0.09525 0.04762,0.224009 v 0.09348 h -0.647333 q 0.0035,0.160511 0.08114,0.245175 0.07937,0.0829 0.220481,0.0829 0.08996,0 0.158747,-0.01587 0.07055,-0.01764 0.144635,-0.04939 v 0.135816 q -0.07232,0.03175 -0.142872,0.04586 -0.07055,0.01587 -0.167565,0.01587 -0.134053,0 -0.23812,-0.05468 -0.102303,-0.05468 -0.16051,-0.162275 -0.05644,-0.109358 -0.05644,-0.266341 0,-0.155219 0.05115,-0.266341 0.05292,-0.111123 0.1464,-0.171094 0.09525,-0.05997 0.220481,-0.05997 z m -0.0018,0.126998 q -0.111123,0 -0.176385,0.07232 -0.0635,0.07055 -0.07585,0.197551 h 0.481532 q -0.0018,-0.119942 -0.05644,-0.194024 -0.05468,-0.07584 -0.172857,-0.07584 z"
       id="path7672" />
    <path
       d="m 12.304713,13.216377 q 0.02646,0 0.05644,0.0035 0.03175,0.0018 0.05468,0.0071 l -0.0194,0.142871 q -0.02293,-0.0053 -0.05115,-0.0088 -0.02646,-0.0035 -0.05115,-0.0035 -0.07232,0 -0.135817,0.04057 -0.0635,0.0388 -0.102303,0.111123 -0.03704,0.07055 -0.03704,0.165801 v 0.504462 h -0.155218 v -0.945424 h 0.126997 l 0.01764,0.172857 h 0.0071 q 0.04586,-0.07761 0.118178,-0.134052 0.07232,-0.05644 0.171093,-0.05644 z"
       id="path7674" />
  </g>
</svg>
