<?xml version="1.0" encoding="UTF-8" standalone="no"?>
<svg
   width="64"
   height="64"
   version="1.1"
   id="svg73"
   sodipodi:docname="apk.svg"
   inkscape:version="1.2.2 (b0a8486541, 2022-12-01)"
   xmlns:inkscape="http://www.inkscape.org/namespaces/inkscape"
   xmlns:sodipodi="http://sodipodi.sourceforge.net/DTD/sodipodi-0.dtd"
   xmlns:xlink="http://www.w3.org/1999/xlink"
   xmlns="http://www.w3.org/2000/svg"
   xmlns:svg="http://www.w3.org/2000/svg"
   xmlns:rdf="http://www.w3.org/1999/02/22-rdf-syntax-ns#"
   xmlns:cc="http://creativecommons.org/ns#"
   xmlns:dc="http://purl.org/dc/elements/1.1/">
  <metadata
     id="metadata77">
    <rdf:RDF>
      <cc:Work
         rdf:about="">
        <dc:format>image/svg+xml</dc:format>
        <dc:type
           rdf:resource="http://purl.org/dc/dcmitype/StillImage" />
      </cc:Work>
    </rdf:RDF>
  </metadata>
  <sodipodi:namedview
     pagecolor="#f5f7fa"
     bordercolor="#666666"
     borderopacity="1"
     objecttolerance="10"
     gridtolerance="10"
     guidetolerance="10"
     inkscape:pageopacity="0"
     inkscape:pageshadow="2"
     inkscape:window-width="1226"
     inkscape:window-height="603"
     id="namedview75"
     showgrid="false"
     inkscape:zoom="3.1445312"
     inkscape:cx="19.080746"
     inkscape:cy="7.9503106"
     inkscape:window-x="35"
     inkscape:window-y="32"
     inkscape:window-maximized="0"
     inkscape:current-layer="g877"
     inkscape:document-rotation="0"
     inkscape:pagecheckerboard="0"
     inkscape:showpageshadow="2"
     inkscape:deskcolor="#d1d1d1" />
  <defs
     id="defs29">
    <filter
       style="color-interpolation-filters:sRGB;"
       inkscape:label="Blur"
       id="filter6"
       x="-0.044145008"
       y="-0.044145008"
       width="1.08829"
       height="1.08829">
      <feGaussianBlur
         stdDeviation="1 1"
         result="blur"
         id="feGaussianBlur6" />
    </filter>
    <filter
       style="color-interpolation-filters:sRGB;"
       inkscape:label="Blur"
       id="filter7"
       x="-0.098100013"
       y="-0.098100021"
       width="1.1962"
       height="1.1962">
      <feGaussianBlur
         stdDeviation="2 2"
         result="blur"
         id="feGaussianBlur7" />
    </filter>
    <clipPath
       id="clip0_515_3621">
      <rect
         width="16"
         height="16"
         fill="#ffffff"
         transform="translate(0.00292969)"
         id="rect7969"
         x="0"
         y="0" />
    </clipPath>
    <filter
       style="color-interpolation-filters:sRGB;"
       inkscape:label="Blur"
       id="filter7349"
       x="-0.10485812"
       y="-0.10485813"
       width="1.2097162"
       height="1.2097163">
      <feGaussianBlur
         stdDeviation="2 2"
         result="blur"
         id="feGaussianBlur7347" />
    </filter>
    <filter
       style="color-interpolation-filters:sRGB"
       inkscape:label="Blur"
       id="filter1283"
       x="-0.082344266"
       y="-0.082344266"
       width="1.1646885"
       height="1.1646885">
      <feGaussianBlur
         stdDeviation="0.5 0.5"
         result="blur"
         id="feGaussianBlur1281" />
    </filter>
    <linearGradient
       inkscape:collect="always"
       xlink:href="#linearGradient883"
       id="linearGradient885"
       x1="2.1085808"
       y1="2.0236168"
       x2="14.846128"
       y2="15.071845"
       gradientUnits="userSpaceOnUse"
       gradientTransform="matrix(2.4606127,0,0,3.1451148,11.16612,5.3876879)" />
    <linearGradient
       inkscape:collect="always"
       id="linearGradient883">
      <stop
         style="stop-color:#808080;stop-opacity:1;"
         offset="0"
         id="stop879" />
      <stop
         style="stop-color:#3e3e3e;stop-opacity:1;"
         offset="0.5"
         id="stop1216" />
      <stop
         style="stop-color:#242424;stop-opacity:1;"
         offset="1"
         id="stop881" />
    </linearGradient>
    <linearGradient
       inkscape:collect="always"
       xlink:href="#linearGradient1134"
       id="linearGradient1136"
       x1="14.971222"
       y1="14.703373"
       x2="2.0756054"
       y2="2.0069976"
       gradientUnits="userSpaceOnUse"
       gradientTransform="matrix(2.4106819,0,0,3.1438568,11.58952,5.3983817)" />
    <linearGradient
       inkscape:collect="always"
       id="linearGradient1134">
      <stop
         style="stop-color:#161616;stop-opacity:1;"
         offset="0"
         id="stop1130" />
      <stop
         style="stop-color:#404040;stop-opacity:1;"
         offset="1"
         id="stop1132" />
    </linearGradient>
    <filter
       style="color-interpolation-filters:sRGB"
       inkscape:label="Blur"
       id="filter1694"
       x="-0.94955398"
       y="-0.2118907"
       width="2.899108"
       height="1.4237814">
      <feGaussianBlur
         stdDeviation="0.2 0.2"
         result="blur"
         id="feGaussianBlur1692" />
    </filter>
  </defs>
  <g
     id="g877"
     transform="matrix(1.1,0,0,1.1,-3.1845928,-3.2065454)">
    <path
       style="fill:#f5f7fa;stroke-width:0.204426;fill-opacity:1"
       d=""
       id="path3" />
    <rect
       style="fill:#000000;stroke:none;stroke-width:0.539739;stroke-dasharray:none;filter:url(#filter1283)"
       id="rect246-1"
       width="14.572964"
       height="14.572964"
       x="1.1932471"
       y="1.2138842"
       rx="2.1589575"
       ry="2.1589575"
       transform="matrix(2.4606127,0,0,3.1451146,11.16612,5.3876877)" />
    <rect
       style="fill:#000000;stroke:url(#linearGradient885);stroke-width:1.63561;stroke-dasharray:none"
       id="rect246"
       width="35.155312"
       height="44.93494"
       x="14.453793"
       y="9.6548424"
       rx="5.2081943"
       ry="5.181818" />
    <rect
       style="fill:url(#linearGradient1136);fill-opacity:1;stroke:none;stroke-width:1.31679;stroke-dasharray:none"
       id="rect246-5"
       width="31.13278"
       height="40.601383"
       x="16.465055"
       y="11.821622"
       rx="3.1818182"
       ry="3.1725934" />
    <g
       aria-label="ABC"
       id="text5786"
       style="font-size:6.06061px;text-align:center;text-anchor:middle;fill:#999999;stroke-width:1.81818">
      <path
         d="m 29.33035,48.937271 -0.521213,-1.339395 h -1.715152 l -0.515152,1.339395 h -0.551516 l 1.690911,-4.345457 h 0.490909 l 1.684849,4.345457 z m -1.169698,-3.133335 q -0.01818,-0.04848 -0.06061,-0.175758 -0.04242,-0.127273 -0.08485,-0.260606 -0.03636,-0.139394 -0.06061,-0.212121 -0.04242,0.187878 -0.09697,0.369697 -0.05455,0.175757 -0.09091,0.278788 l -0.490909,1.309092 h 1.369698 z"
         id="path2453" />
      <path
         d="m 31.72429,44.609996 q 0.812122,0 1.224243,0.242424 0.418183,0.236364 0.418183,0.830304 0,0.381818 -0.212122,0.636364 -0.212121,0.248485 -0.612121,0.321212 v 0.0303 q 0.272727,0.04242 0.490909,0.157576 0.224243,0.115151 0.351515,0.327273 0.127273,0.212121 0.127273,0.551515 0,0.587879 -0.406061,0.909092 -0.4,0.321212 -1.09697,0.321212 h -1.521213 v -4.327275 z m 0.109091,1.842425 q 0.557576,0 0.763637,-0.175758 0.206061,-0.181818 0.206061,-0.533333 0,-0.357576 -0.254546,-0.509091 -0.248485,-0.157576 -0.8,-0.157576 h -0.715152 v 1.375758 z m -0.8,0.454546 v 1.569698 h 0.872728 q 0.575758,0 0.8,-0.224243 0.224243,-0.224242 0.224243,-0.587879 0,-0.339394 -0.236364,-0.545455 -0.230303,-0.212121 -0.830304,-0.212121 z"
         id="path2455" />
      <path
         d="m 36.281866,45.028178 q -0.69697,0 -1.09697,0.466667 -0.4,0.466667 -0.4,1.278788 0,0.806062 0.369697,1.278789 0.375758,0.466667 1.121213,0.466667 0.284849,0 0.539394,-0.04848 0.254546,-0.04848 0.49697,-0.121212 v 0.472728 q -0.242424,0.09091 -0.50303,0.133333 -0.254546,0.04242 -0.612122,0.04242 -0.660607,0 -1.103031,-0.272727 -0.442425,-0.272728 -0.666667,-0.775758 -0.218182,-0.503031 -0.218182,-1.181819 0,-0.654546 0.236364,-1.151516 0.242424,-0.503031 0.709091,-0.781819 0.466667,-0.284848 1.133334,-0.284848 0.684849,0 1.19394,0.254545 l -0.218182,0.460607 q -0.2,-0.09091 -0.448485,-0.163637 -0.242424,-0.07273 -0.533334,-0.07273 z"
         id="path2457" />
    </g>
    <path
       fill="#f5f7fa"
       d="m 43.097574,16.939174 v 1.137592 H 20.973512 v -1.137595 z m 0,5.687974 v 1.137594 H 20.973512 v -1.137594 z m 0,5.687969 v 1.137597 H 20.973512 v -1.137597 z m -7.128,5.687975 V 35.14069 H 20.973512 v -1.137598 z"
       id="path42-7-3-9"
       style="fill:#999999;fill-opacity:1;stroke:none;stroke-width:0.99;stroke-dasharray:none;stroke-opacity:0.3"
       sodipodi:nodetypes="cccccccccccccccccccc" />
  </g>
</svg>
