<?xml version="1.0" encoding="UTF-8" standalone="no"?>
<svg
   width="64"
   height="64"
   version="1.1"
   viewBox="0 0 16.933 16.933"
   id="svg7"
   sodipodi:docname="application-atom+xml (Copy).svg"
   inkscape:version="1.3.2 (091e20ef0f, 2023-11-25)"
   xmlns:inkscape="http://www.inkscape.org/namespaces/inkscape"
   xmlns:sodipodi="http://sodipodi.sourceforge.net/DTD/sodipodi-0.dtd"
   xmlns:xlink="http://www.w3.org/1999/xlink"
   xmlns="http://www.w3.org/2000/svg"
   xmlns:svg="http://www.w3.org/2000/svg"
   xmlns:rdf="http://www.w3.org/1999/02/22-rdf-syntax-ns#"
   xmlns:cc="http://creativecommons.org/ns#"
   xmlns:dc="http://purl.org/dc/elements/1.1/">
  <sodipodi:namedview
     id="namedview7"
     pagecolor="#9c4444"
     bordercolor="#000000"
     borderopacity="0.25"
     inkscape:showpageshadow="2"
     inkscape:pageopacity="0.0"
     inkscape:pagecheckerboard="0"
     inkscape:deskcolor="#d1d1d1"
     inkscape:zoom="4.3531261"
     inkscape:cx="47.666894"
     inkscape:cy="39.971275"
     inkscape:window-width="1463"
     inkscape:window-height="604"
     inkscape:window-x="115"
     inkscape:window-y="154"
     inkscape:window-maximized="0"
     inkscape:current-layer="svg7"
     showgrid="false" />
  <defs
     id="defs2">
    <linearGradient
       id="linearGradient5"
       inkscape:collect="always">
      <stop
         style="stop-color:#392713;stop-opacity:1;"
         offset="0"
         id="stop2" />
      <stop
         style="stop-color:#eed59e;stop-opacity:1;"
         offset="0.5"
         id="stop3" />
      <stop
         style="stop-color:#beaa8a;stop-opacity:1;"
         offset="1"
         id="stop4" />
    </linearGradient>
    <linearGradient
       id="linearGradient8"
       inkscape:collect="always">
      <stop
         style="stop-color:#1a1a1a;stop-opacity:1;"
         offset="0"
         id="stop8" />
      <stop
         style="stop-color:#ffffff;stop-opacity:0;"
         offset="1"
         id="stop9" />
    </linearGradient>
    <linearGradient
       inkscape:collect="always"
       xlink:href="#linearGradient5"
       id="linearGradient41"
       x1="13.675659"
       y1="16.110115"
       x2="13.728528"
       y2="10.548769"
       gradientUnits="userSpaceOnUse"
       gradientTransform="matrix(1.6061171,0,0,2.1084059,-12.924569,-19.742698)" />
    <linearGradient
       inkscape:collect="always"
       xlink:href="#linearGradient42"
       id="linearGradient4"
       x1="11.885941"
       y1="16.50819"
       x2="12.026573"
       y2="10.244942"
       gradientUnits="userSpaceOnUse"
       gradientTransform="matrix(1.6061171,0,0,2.1084059,-12.924569,-19.742698)" />
    <linearGradient
       id="linearGradient42"
       inkscape:collect="always">
      <stop
         style="stop-color:#010101;stop-opacity:1;"
         offset="0"
         id="stop42" />
      <stop
         style="stop-color:#6e6c6d;stop-opacity:1;"
         offset="1"
         id="stop43" />
    </linearGradient>
    <linearGradient
       inkscape:collect="always"
       xlink:href="#linearGradient8"
       id="linearGradient9"
       x1="9.3404646"
       y1="4.1692023"
       x2="9.4279938"
       y2="16.46883"
       gradientUnits="userSpaceOnUse"
       gradientTransform="matrix(0.80952478,0,0,1.0980733,1.5663172,-0.59391329)" />
    <filter
       style="color-interpolation-filters:sRGB;"
       inkscape:label="Blur"
       id="filter2"
       x="-0.14510849"
       y="-0.14612901"
       width="1.290217"
       height="1.292258">
      <feGaussianBlur
         stdDeviation="0.6 0.6"
         result="blur"
         id="feGaussianBlur2" />
    </filter>
    <linearGradient
       inkscape:collect="always"
       xlink:href="#linearGradient5"
       id="linearGradient6"
       x1="8.6958017"
       y1="11.74379"
       x2="8.4935627"
       y2="4.906435"
       gradientUnits="userSpaceOnUse" />
  </defs>
  <metadata
     id="metadata2">
    <rdf:RDF>
      <cc:Work
         rdf:about="">
        <dc:format>image/svg+xml</dc:format>
        <dc:type
           rdf:resource="http://purl.org/dc/dcmitype/StillImage" />
      </cc:Work>
    </rdf:RDF>
  </metadata>
  <rect
     style="fill:#000000;fill-opacity:0.996424;stroke:#000000;stroke-width:0.911802;stroke-dasharray:none;stroke-opacity:1;filter:url(#filter2)"
     id="rect1-2-3"
     width="13.065404"
     height="12.974159"
     x="1.9816793"
     y="1.9267306"
     rx="2.7149384"
     ry="2.8310909"
     transform="matrix(0.78494475,0,0,1.0304244,1.8310625,-0.25598506)" />
  <rect
     style="fill:url(#linearGradient4);fill-opacity:0.996424;stroke:url(#linearGradient41);stroke-width:0.820027;stroke-dasharray:none;stroke-opacity:1"
     id="rect1-2"
     width="10.25562"
     height="13.36889"
     x="3.3865712"
     y="1.7293652"
     rx="2.1310766"
     ry="2.9172251" />
  <path
     style="fill:#000000;stroke-width:0.0747239;opacity:0.3"
     d="M 6.6132994,12.266079 C 6.4215058,12.149817 6.0963241,11.903394 5.8906736,11.718471 5.685023,11.533547 5.4732084,11.382246 5.4199757,11.382246 c -0.1917989,0 -0.4008027,-0.599232 -0.4008027,-1.149134 0,-0.6454659 0.087637,-0.6671356 0.5229361,-0.129308 0.2118737,0.261776 0.3007839,0.500533 0.344643,0.925486 0.05429,0.525981 0.091613,0.596243 0.4575926,0.861358 0.5652985,0.4095 1.1502072,0.40437 1.5015452,-0.01316 0.1396851,-0.166007 0.2831654,-0.457433 0.3188434,-0.647614 0.035677,-0.19018 0.1082757,-0.345783 0.1613296,-0.345783 0.1193869,0 0.015364,0.528318 -0.1919512,0.97487 -0.2963847,0.638416 -0.8810602,0.794934 -1.5208123,0.407128 z m 2.5563091,0.0074 c -0.155737,-0.122481 -0.32121,-0.409878 -0.4119677,-0.715492 -0.1787024,-0.601755 -0.1842719,-0.673874 -0.052052,-0.673874 0.054797,0 0.099633,0.0919 0.099633,0.204215 0,0.263423 0.2232218,0.692745 0.4819107,0.926855 0.3138384,0.28402 0.8609755,0.237419 1.3471125,-0.114736 0.375622,-0.272101 0.41362,-0.339932 0.424908,-0.758563 0.01247,-0.462332 0.301449,-1.011139 0.742697,-1.4104629 0.187304,-0.1695084 0.191625,-0.1580435 0.191625,0.5085259 v 0.681945 l -0.523073,0.491298 c -1.09634,1.029738 -1.766726,1.280408 -2.3007942,0.86031 z M 8.2327287,10.432283 C 7.6966264,10.056783 7.3794666,8.5231373 7.5973704,7.3599724 7.7249925,6.6787329 8.3693262,5.2755824 8.5299466,5.3291227 8.5904019,5.3492745 8.7658893,5.6098108 8.9199198,5.9080916 9.727378,7.4717463 9.7134613,9.5259033 8.8900884,10.311196 8.556142,10.629699 8.5232316,10.63576 8.2327271,10.432283 Z M 6.67725,9.5962549 C 5.9679711,8.8615683 5.5864578,8.158971 5.4098819,7.2622588 5.3543286,6.9801426 5.2873883,6.6473006 5.2611233,6.522611 5.2181946,6.3187814 5.2412769,6.3025967 5.489895,6.3622356 6.005439,6.4859055 6.299742,6.6842169 6.2500027,6.874422 6.1014909,7.4423346 6.6768154,9.1806355 7.2712109,9.9599297 7.694917,10.515437 7.3763169,10.320361 6.67725,9.5962531 Z m 3.282943,0.119961 C 10.38572,9.0097388 10.698876,8.047872 10.77047,7.2274281 L 10.82438,6.609573 11.277225,6.4552721 c 0.249065,-0.084865 0.467277,-0.1542993 0.484914,-0.1542993 0.08529,0 0.01351,0.5138829 -0.153231,1.0969356 C 11.27122,8.5787402 10.65012,9.5537319 9.8914348,10.093964 L 9.6134286,10.291921 Z M 7.1094083,9.235348 C 6.7318803,8.3546109 6.5886203,7.5918017 6.6425192,6.7493207 6.6929233,5.9613898 6.773455,5.6010143 6.8979492,5.606223 c 0.035235,0.00147 0.2078902,0.1247699 0.3836749,0.2739903 L 7.6012352,6.1515216 7.4531379,6.749319 C 7.2973413,7.378195 7.251557,8.7237723 7.3653213,9.330193 7.4575997,9.8220771 7.3426465,9.7794727 7.1094083,9.2353462 Z M 9.6494959,9.5141337 C 9.8230997,9.0724354 9.8240418,7.539952 9.6511726,6.855074 L 9.4766161,6.163762 9.7901133,5.8836512 C 9.9625375,5.7295906 10.142289,5.603541 10.189561,5.603541 c 0.171025,0 0.305264,1.4177423 0.20293,2.1432206 C 10.302411,8.3853482 9.8018915,9.68849 9.6466951,9.68849 c -0.036137,0 -0.034875,-0.078461 0.00284,-0.1743569 z"
     id="path1-5" />
  <path
     style="fill:url(#linearGradient6);stroke-width:0.0747239"
     d="M 6.6132994,11.736923 C 6.4215058,11.620661 6.0963241,11.374238 5.8906736,11.189315 5.685023,11.004391 5.4732084,10.85309 5.4199757,10.85309 c -0.1917989,0 -0.4008027,-0.599232 -0.4008027,-1.1491342 0,-0.6454659 0.087637,-0.6671356 0.5229361,-0.1293083 0.2118737,0.2617765 0.3007839,0.5005335 0.344643,0.9254865 0.05429,0.525981 0.091613,0.596243 0.4575926,0.861358 0.5652985,0.4095 1.1502072,0.40437 1.5015452,-0.01316 0.1396851,-0.166007 0.2831654,-0.457433 0.3188434,-0.647614 0.035677,-0.19018 0.1082757,-0.345783 0.1613296,-0.345783 0.1193869,0 0.015364,0.528318 -0.1919512,0.97487 -0.2963847,0.638416 -0.8810602,0.794934 -1.5208123,0.407128 z m 2.5563091,0.0074 c -0.155737,-0.122481 -0.32121,-0.409878 -0.4119677,-0.715492 -0.1787024,-0.601755 -0.1842719,-0.673874 -0.052052,-0.673874 0.054797,0 0.099633,0.0919 0.099633,0.204215 0,0.263423 0.2232218,0.692745 0.4819107,0.926855 0.3138384,0.28402 0.8609755,0.237419 1.3471125,-0.114736 0.375622,-0.272101 0.41362,-0.339932 0.424908,-0.758563 0.01247,-0.462332 0.301449,-1.0111397 0.742697,-1.4104631 0.187304,-0.1695085 0.191625,-0.1580436 0.191625,0.5085263 v 0.6819448 l -0.523073,0.491298 c -1.09634,1.029738 -1.766726,1.280408 -2.3007942,0.86031 z M 8.2327287,9.9031266 C 7.6966264,9.5276271 7.3794666,7.9939811 7.5973704,6.8308162 7.7249925,6.1495767 8.3693262,4.7464262 8.5299466,4.7999665 8.5904019,4.8201183 8.7658893,5.0806546 8.9199198,5.3789354 9.727378,6.9425901 9.7134613,8.9967471 8.8900884,9.7820398 8.556142,10.100543 8.5232316,10.106604 8.2327271,9.9031266 Z M 6.67725,9.0670987 C 5.9679711,8.3324121 5.5864578,7.6298148 5.4098819,6.7331026 5.3543286,6.4509864 5.2873883,6.1181444 5.2611233,5.9934548 5.2181946,5.7896252 5.2412769,5.7734405 5.489895,5.8330794 6.005439,5.9567493 6.299742,6.1550607 6.2500027,6.3452658 6.1014909,6.9131784 6.6768154,8.6514793 7.2712109,9.4307735 7.694917,9.9862803 7.3763169,9.7912049 6.67725,9.0670969 Z m 3.282943,0.119961 C 10.38572,8.4805826 10.698876,7.5187158 10.77047,6.6982719 l 0.05391,-0.6178551 0.452845,-0.1543009 c 0.249065,-0.084865 0.467277,-0.1542993 0.484914,-0.1542993 0.08529,0 0.01351,0.5138829 -0.153231,1.0969356 C 11.27122,8.049584 10.65012,9.0245757 9.8914348,9.5648075 L 9.6134286,9.762765 Z M 7.1094083,8.7061918 C 6.7318803,7.8254547 6.5886203,7.0626455 6.6425192,6.2201645 6.6929233,5.4322336 6.773455,5.0718581 6.8979492,5.0770668 6.9331842,5.078541 7.1058394,5.2018367 7.2816241,5.3510571 L 7.6012352,5.6223654 7.4531379,6.2201628 C 7.2973413,6.8490388 7.251557,8.1946161 7.3653213,8.8010368 7.4575997,9.2929209 7.3426465,9.2503165 7.1094083,8.70619 Z M 9.6494959,8.9849775 C 9.8230997,8.5432792 9.8240418,7.0107958 9.6511726,6.3259178 L 9.4766161,5.6346058 9.7901133,5.354495 C 9.9625375,5.2004344 10.142289,5.0743848 10.189561,5.0743848 c 0.171025,0 0.305264,1.4177423 0.20293,2.1432206 -0.09008,0.6385866 -0.5905995,1.9417284 -0.7457959,1.9417284 -0.036137,0 -0.034875,-0.078461 0.00284,-0.1743569 z"
     id="path1" />
  <rect
     style="opacity:0.5;fill:none;fill-opacity:0.996424;stroke:url(#linearGradient9);stroke-width:0.50832;stroke-dasharray:none;stroke-opacity:1"
     id="rect1-2-6"
     width="8.9234324"
     height="12.035513"
     x="4.0584631"
     y="2.3962882"
     rx="1.5176033"
     ry="2.2109985" />
</svg>
