<?xml version="1.0" encoding="UTF-8" standalone="no"?>
<svg
   width="64"
   height="64"
   version="1.1"
   viewBox="0 0 16.933 16.933"
   id="svg7"
   sodipodi:docname="application-atom+xml (Copy).svg"
   inkscape:version="1.3.2 (091e20ef0f, 2023-11-25)"
   xmlns:inkscape="http://www.inkscape.org/namespaces/inkscape"
   xmlns:sodipodi="http://sodipodi.sourceforge.net/DTD/sodipodi-0.dtd"
   xmlns:xlink="http://www.w3.org/1999/xlink"
   xmlns="http://www.w3.org/2000/svg"
   xmlns:svg="http://www.w3.org/2000/svg"
   xmlns:rdf="http://www.w3.org/1999/02/22-rdf-syntax-ns#"
   xmlns:cc="http://creativecommons.org/ns#"
   xmlns:dc="http://purl.org/dc/elements/1.1/">
  <sodipodi:namedview
     id="namedview7"
     pagecolor="#9c4444"
     bordercolor="#000000"
     borderopacity="0.25"
     inkscape:showpageshadow="2"
     inkscape:pageopacity="0.0"
     inkscape:pagecheckerboard="0"
     inkscape:deskcolor="#d1d1d1"
     inkscape:zoom="4.3531261"
     inkscape:cx="47.666894"
     inkscape:cy="39.971275"
     inkscape:window-width="1463"
     inkscape:window-height="604"
     inkscape:window-x="115"
     inkscape:window-y="154"
     inkscape:window-maximized="0"
     inkscape:current-layer="svg7"
     showgrid="false" />
  <defs
     id="defs2">
    <linearGradient
       id="linearGradient5"
       inkscape:collect="always">
      <stop
         style="stop-color:#392713;stop-opacity:1;"
         offset="0"
         id="stop2" />
      <stop
         style="stop-color:#eed59e;stop-opacity:1;"
         offset="0.5"
         id="stop3" />
      <stop
         style="stop-color:#beaa8a;stop-opacity:1;"
         offset="1"
         id="stop4" />
    </linearGradient>
    <linearGradient
       id="linearGradient8"
       inkscape:collect="always">
      <stop
         style="stop-color:#1a1a1a;stop-opacity:1;"
         offset="0"
         id="stop8" />
      <stop
         style="stop-color:#ffffff;stop-opacity:0;"
         offset="1"
         id="stop9" />
    </linearGradient>
    <linearGradient
       inkscape:collect="always"
       xlink:href="#linearGradient5"
       id="linearGradient41"
       x1="13.675659"
       y1="16.110115"
       x2="13.728528"
       y2="10.548769"
       gradientUnits="userSpaceOnUse"
       gradientTransform="matrix(1.6061171,0,0,2.1084059,-12.924569,-19.742698)" />
    <linearGradient
       inkscape:collect="always"
       xlink:href="#linearGradient42"
       id="linearGradient4"
       x1="11.885941"
       y1="16.50819"
       x2="12.026573"
       y2="10.244942"
       gradientUnits="userSpaceOnUse"
       gradientTransform="matrix(1.6061171,0,0,2.1084059,-12.924569,-19.742698)" />
    <linearGradient
       id="linearGradient42"
       inkscape:collect="always">
      <stop
         style="stop-color:#010101;stop-opacity:1;"
         offset="0"
         id="stop42" />
      <stop
         style="stop-color:#6e6c6d;stop-opacity:1;"
         offset="1"
         id="stop43" />
    </linearGradient>
    <linearGradient
       inkscape:collect="always"
       xlink:href="#linearGradient8"
       id="linearGradient9"
       x1="9.3404646"
       y1="4.1692023"
       x2="9.4279938"
       y2="16.46883"
       gradientUnits="userSpaceOnUse"
       gradientTransform="matrix(0.80952478,0,0,1.0980733,1.5663172,-0.59391329)" />
    <filter
       style="color-interpolation-filters:sRGB;"
       inkscape:label="Blur"
       id="filter2"
       x="-0.14510849"
       y="-0.14612901"
       width="1.290217"
       height="1.292258">
      <feGaussianBlur
         stdDeviation="0.6 0.6"
         result="blur"
         id="feGaussianBlur2" />
    </filter>
    <linearGradient
       inkscape:collect="always"
       xlink:href="#linearGradient5"
       id="linearGradient17"
       x1="8.2896414"
       y1="11.241039"
       x2="8.5795698"
       y2="5.3945403"
       gradientUnits="userSpaceOnUse" />
  </defs>
  <metadata
     id="metadata2">
    <rdf:RDF>
      <cc:Work
         rdf:about="">
        <dc:format>image/svg+xml</dc:format>
        <dc:type
           rdf:resource="http://purl.org/dc/dcmitype/StillImage" />
      </cc:Work>
    </rdf:RDF>
  </metadata>
  <rect
     style="fill:#000000;fill-opacity:0.996424;stroke:#000000;stroke-width:0.911802;stroke-dasharray:none;stroke-opacity:1;filter:url(#filter2)"
     id="rect1-2-3"
     width="13.065404"
     height="12.974159"
     x="1.9816793"
     y="1.9267306"
     rx="2.7149384"
     ry="2.8310909"
     transform="matrix(0.78494475,0,0,1.0304244,1.8310625,-0.25598506)" />
  <rect
     style="fill:url(#linearGradient4);fill-opacity:0.996424;stroke:url(#linearGradient41);stroke-width:0.820027;stroke-dasharray:none;stroke-opacity:1"
     id="rect1-2"
     width="10.25562"
     height="13.36889"
     x="3.3865712"
     y="1.7293652"
     rx="2.1310766"
     ry="2.9172251" />
  <path
     d="m 10.750295,7.8281841 c -0.03457,0.026821 -0.644929,0.3707456 -0.644929,1.1354802 0,0.8845413 0.776655,1.1974707 0.799901,1.2052187 -0.0036,0.01908 -0.123381,0.428562 -0.409489,0.845796 -0.255108,0.36717 -0.5215443,0.733741 -0.92686,0.733741 -0.4053141,0 -0.5096243,-0.235441 -0.9775243,-0.235441 -0.4559792,0 -0.6181053,0.24319 -0.9888515,0.24319 -0.370744,0 -0.6294313,-0.339749 -0.9268616,-0.756986 C 6.3311637,10.509229 6.0528082,9.7480696 6.0528082,9.0256533 c 0,-1.1587259 0.7534097,-1.7732545 1.494897,-1.7732545 0.3939926,0 0.7224158,0.2586859 0.9697767,0.2586859 0.235442,0 0.6026098,-0.274184 1.0508411,-0.274184 0.1698755,0 0.780231,0.015496 1.181972,0.5912834 z M 9.3555337,6.7463488 C 9.5409048,6.5264074 9.6720358,6.2212282 9.6720358,5.9160495 c 0,-0.04232 -0.00357,-0.085237 -0.011319,-0.1198063 C 9.359115,5.8075751 9.0002896,5.9971123 8.783924,6.2480493 8.6140503,6.4411712 8.4555011,6.7463488 8.4555011,7.0556994 c 0,0.046493 0.00775,0.092986 0.011319,0.1078873 0.019071,0.00357 0.050068,0.00775 0.081062,0.00775 0.2706078,0 0.6109516,-0.1812 0.8076516,-0.4249879 z"
     id="path1-7"
     style="fill:#000000;fill-opacity:1;stroke-width:0.00596052;opacity:0.3" />
  <path
     d="m 10.750295,7.2990279 c -0.03457,0.026821 -0.644929,0.3707456 -0.644929,1.1354802 0,0.8845413 0.776655,1.1974706 0.799901,1.2052186 -0.0036,0.01908 -0.123381,0.4285623 -0.409489,0.8457963 -0.255108,0.36717 -0.5215443,0.733741 -0.92686,0.733741 -0.4053141,0 -0.5096243,-0.235441 -0.9775243,-0.235441 -0.4559792,0 -0.6181053,0.24319 -0.9888515,0.24319 -0.370744,0 -0.6294313,-0.339749 -0.9268616,-0.756986 C 6.3311637,9.9800727 6.0528082,9.2189134 6.0528082,8.4964971 c 0,-1.1587259 0.7534097,-1.7732545 1.494897,-1.7732545 0.3939926,0 0.7224158,0.2586859 0.9697767,0.2586859 0.235442,0 0.6026098,-0.274184 1.0508411,-0.274184 0.1698755,0 0.780231,0.015496 1.181972,0.5912834 z M 9.3555337,6.2171926 C 9.5409048,5.9972512 9.6720358,5.692072 9.6720358,5.3868933 c 0,-0.04232 -0.00357,-0.085237 -0.011319,-0.1198063 C 9.359115,5.2784189 9.0002896,5.4679561 8.783924,5.7188931 8.6140503,5.912015 8.4555011,6.2171926 8.4555011,6.5265432 c 0,0.046493 0.00775,0.092986 0.011319,0.1078873 0.019071,0.00357 0.050068,0.00775 0.081062,0.00775 0.2706078,0 0.6109516,-0.1812 0.8076516,-0.4249879 z"
     id="path1"
     style="fill:url(#linearGradient17);stroke-width:0.00596052;fill-opacity:1" />
  <rect
     style="opacity:0.5;fill:none;fill-opacity:0.996424;stroke:url(#linearGradient9);stroke-width:0.50832;stroke-dasharray:none;stroke-opacity:1"
     id="rect1-2-6"
     width="8.9234324"
     height="12.035513"
     x="4.0584631"
     y="2.3962882"
     rx="1.5176033"
     ry="2.2109985" />
</svg>
