<?xml version="1.0" encoding="UTF-8" standalone="no"?>
<svg
   width="64"
   height="64"
   version="1.1"
   id="svg73"
   sodipodi:docname="filetype Template.svg"
   inkscape:version="1.4 (e7c3feb100, 2024-10-09)"
   xmlns:inkscape="http://www.inkscape.org/namespaces/inkscape"
   xmlns:sodipodi="http://sodipodi.sourceforge.net/DTD/sodipodi-0.dtd"
   xmlns:xlink="http://www.w3.org/1999/xlink"
   xmlns="http://www.w3.org/2000/svg"
   xmlns:svg="http://www.w3.org/2000/svg"
   xmlns:rdf="http://www.w3.org/1999/02/22-rdf-syntax-ns#"
   xmlns:cc="http://creativecommons.org/ns#"
   xmlns:dc="http://purl.org/dc/elements/1.1/">
  <metadata
     id="metadata77">
    <rdf:RDF>
      <cc:Work
         rdf:about="">
        <dc:format>image/svg+xml</dc:format>
        <dc:type
           rdf:resource="http://purl.org/dc/dcmitype/StillImage" />
      </cc:Work>
    </rdf:RDF>
  </metadata>
  <sodipodi:namedview
     pagecolor="#f5f7fa"
     bordercolor="#666666"
     borderopacity="1"
     objecttolerance="10"
     gridtolerance="10"
     guidetolerance="10"
     inkscape:pageopacity="0"
     inkscape:pageshadow="2"
     inkscape:window-width="1183"
     inkscape:window-height="973"
     id="namedview75"
     showgrid="false"
     inkscape:zoom="4.4470387"
     inkscape:cx="19.226278"
     inkscape:cy="8.4325779"
     inkscape:window-x="35"
     inkscape:window-y="32"
     inkscape:window-maximized="0"
     inkscape:current-layer="g877"
     inkscape:document-rotation="0"
     inkscape:pagecheckerboard="0"
     inkscape:showpageshadow="2"
     inkscape:deskcolor="#d1d1d1" />
  <defs
     id="defs29">
    <filter
       style="color-interpolation-filters:sRGB;"
       inkscape:label="Blur"
       id="filter6"
       x="-0.044145008"
       y="-0.044145008"
       width="1.08829"
       height="1.08829">
      <feGaussianBlur
         stdDeviation="1 1"
         result="blur"
         id="feGaussianBlur6" />
    </filter>
    <filter
       style="color-interpolation-filters:sRGB;"
       inkscape:label="Blur"
       id="filter7"
       x="-0.098100013"
       y="-0.098100021"
       width="1.1962"
       height="1.1962">
      <feGaussianBlur
         stdDeviation="2 2"
         result="blur"
         id="feGaussianBlur7" />
    </filter>
    <clipPath
       id="clip0_515_3621">
      <rect
         width="16"
         height="16"
         fill="#ffffff"
         transform="translate(0.00292969)"
         id="rect7969"
         x="0"
         y="0" />
    </clipPath>
    <filter
       style="color-interpolation-filters:sRGB;"
       inkscape:label="Blur"
       id="filter7349"
       x="-0.10485812"
       y="-0.10485813"
       width="1.2097162"
       height="1.2097163">
      <feGaussianBlur
         stdDeviation="2 2"
         result="blur"
         id="feGaussianBlur7347" />
    </filter>
    <filter
       style="color-interpolation-filters:sRGB"
       inkscape:label="Blur"
       id="filter1283"
       x="-0.082344266"
       y="-0.082344266"
       width="1.1646885"
       height="1.1646885">
      <feGaussianBlur
         stdDeviation="0.5 0.5"
         result="blur"
         id="feGaussianBlur1281" />
    </filter>
    <linearGradient
       inkscape:collect="always"
       xlink:href="#linearGradient883"
       id="linearGradient885"
       x1="2.1085808"
       y1="2.0236168"
       x2="14.846128"
       y2="15.071845"
       gradientUnits="userSpaceOnUse"
       gradientTransform="matrix(2.4606127,0,0,3.1451148,11.16612,5.3876879)" />
    <linearGradient
       inkscape:collect="always"
       id="linearGradient883">
      <stop
         style="stop-color:#808080;stop-opacity:1;"
         offset="0"
         id="stop879" />
      <stop
         style="stop-color:#3e3e3e;stop-opacity:1;"
         offset="0.5"
         id="stop1216" />
      <stop
         style="stop-color:#242424;stop-opacity:1;"
         offset="1"
         id="stop881" />
    </linearGradient>
    <linearGradient
       inkscape:collect="always"
       xlink:href="#linearGradient1134"
       id="linearGradient1136"
       x1="14.971222"
       y1="14.703373"
       x2="2.0756054"
       y2="2.0069976"
       gradientUnits="userSpaceOnUse"
       gradientTransform="matrix(2.4106819,0,0,3.1438568,11.58952,5.3983817)" />
    <linearGradient
       inkscape:collect="always"
       id="linearGradient1134">
      <stop
         style="stop-color:#161616;stop-opacity:1;"
         offset="0"
         id="stop1130" />
      <stop
         style="stop-color:#404040;stop-opacity:1;"
         offset="1"
         id="stop1132" />
    </linearGradient>
    <filter
       style="color-interpolation-filters:sRGB"
       inkscape:label="Blur"
       id="filter1694"
       x="-0.94955398"
       y="-0.2118907"
       width="2.899108"
       height="1.4237814">
      <feGaussianBlur
         stdDeviation="0.2 0.2"
         result="blur"
         id="feGaussianBlur1692" />
    </filter>
  </defs>
  <g
     id="g877"
     transform="matrix(1.1,0,0,1.1,-3.1845928,-3.2065454)">
    <path
       style="fill:#f5f7fa;stroke-width:0.204426;fill-opacity:1"
       d=""
       id="path3" />
    <rect
       style="fill:#000000;stroke:none;stroke-width:0.539739;stroke-dasharray:none;filter:url(#filter1283)"
       id="rect246-1"
       width="14.572964"
       height="14.572964"
       x="1.1932471"
       y="1.2138842"
       rx="2.1589575"
       ry="2.1589575"
       transform="matrix(2.4606127,0,0,3.1451146,11.16612,5.3876877)" />
    <rect
       style="fill:#000000;stroke:url(#linearGradient885);stroke-width:1.63561;stroke-dasharray:none"
       id="rect246"
       width="35.155312"
       height="44.93494"
       x="14.453793"
       y="9.6548424"
       rx="5.2081943"
       ry="5.181818" />
    <rect
       style="fill:url(#linearGradient1136);fill-opacity:1;stroke:none;stroke-width:1.31679;stroke-dasharray:none"
       id="rect246-5"
       width="31.13278"
       height="40.601383"
       x="16.465055"
       y="11.821622"
       rx="3.1818182"
       ry="3.1725934" />
    <path
       id="path72"
       style="fill:#999999;fill-opacity:1;stroke:none;stroke-width:0.643044;stroke-dasharray:none;stroke-dashoffset:2.2;stroke-opacity:0.3"
       d="m 31.971998,15.63988 c -6.139389,0 -6.164812,8.91e-4 -6.360104,0.154483 -0.438873,0.345224 -0.415718,-0.173009 -0.415718,8.884551 0,4.998481 0.02862,8.381722 0.07034,8.491441 0.09348,0.245881 0.357107,0.480965 0.629229,0.561412 0.12553,0.03711 2.868314,0.06122 6.2433,0.05398 5.778757,-0.0125 6.028362,-0.01898 6.226975,-0.153193 0.445098,-0.301675 0.420742,0.211687 0.420742,-8.948607 0,-7.637678 -0.01072,-8.412118 -0.120584,-8.598197 -0.277909,-0.470493 0.08789,-0.445881 -6.694172,-0.445881 z m -9.950849,1.476991 v 0.923119 0.924376 h 0.959542 0.960797 V 18.03999 17.116871 h -0.960797 z m 17.947449,0 v 0.923119 0.924376 h 0.997221 0.997218 V 18.03999 17.116871 h -0.997218 z m -11.447935,0.738497 h 0.443348 0.442091 v 1.145421 1.144165 h -0.442091 -0.443348 v -1.144165 z m 3.02808,0 h 0.443349 0.443349 v 3.06576 3.064504 h -0.394367 c -0.216655,0 -0.416263,-0.0219 -0.443348,-0.04897 -0.02708,-0.02708 -0.04898,-1.405754 -0.04898,-3.064505 z m 3.102185,0 h 0.405669 0.406928 v 2.289586 2.290843 h -0.406928 -0.405669 v -2.290843 z m -12.629779,2.658833 v 0.924375 0.92312 h 0.959542 0.960797 v -0.92312 -0.924375 h -0.960797 z m 17.947449,0 v 0.924375 0.92312 h 0.997221 0.997218 v -0.92312 -0.924375 h -0.997218 z m -11.447935,0.370505 h 0.444603 0.444605 l -0.02011,1.163004 -0.02012,1.163004 -0.371761,0.02134 c -0.204647,0.01199 -0.395577,-0.0012 -0.424482,-0.03013 -0.02891,-0.02891 -0.05275,-0.562733 -0.05275,-1.185612 z m 6.130265,2.289586 h 0.405669 0.406928 v 1.144166 1.145421 h -0.406928 -0.405669 v -1.145421 z m -6.130265,0.738494 h 0.443348 0.442091 v 2.289589 2.289586 h -0.442091 -0.443348 v -2.289586 z m -6.499514,0.07286 v 0.886697 0.886696 h 0.959542 0.960797 v -0.886697 -0.886697 h -0.960797 z m 17.947449,0 v 0.886698 0.886696 h 0.997221 0.997218 v -0.886698 -0.886697 h -0.997218 z m -7.533157,0.658113 v 3.068273 3.069528 h -0.444605 -0.443348 l 0.01884,-3.046921 0.01884,-3.046921 0.42451,-0.02134 z m 2.215487,1.558629 h 0.405669 0.406928 v 2.695257 2.696512 h -0.406928 -0.405669 v -2.696512 z m -12.629779,1.18184 v 0.923121 0.923118 h 0.959542 0.960797 v -0.923118 -0.923121 h -0.960797 z m 17.947449,0 v 0.923121 0.923118 h 0.997221 0.997218 v -0.923118 -0.923121 h -0.997218 z m -17.947449,3.39733 v 0.92312 0.923121 h 0.959542 0.960797 v -0.923121 -0.92312 h -0.960797 z m 17.947449,0 v 0.92312 0.923121 h 0.997221 0.997218 v -0.923121 -0.92312 h -0.997218 z" />
    <path
       d="m 19.560654,48.937271 h -0.545455 v -4.327275 h 2.418184 v 0.478788 h -1.872729 v 1.533334 h 1.757577 v 0.478788 h -1.757577 z m 2.799997,-4.466669 q 0.121212,0 0.212121,0.08485 0.09697,0.07879 0.09697,0.254546 0,0.169697 -0.09697,0.254545 -0.09091,0.08485 -0.212121,0.08485 -0.133334,0 -0.224243,-0.08485 -0.09091,-0.08485 -0.09091,-0.254545 0,-0.175758 0.09091,-0.254546 0.09091,-0.08485 0.224243,-0.08485 z m 0.260606,1.218182 v 3.248487 h -0.533334 v -3.248487 z m 2.545453,-0.06061 q 0.09091,0 0.193939,0.01212 0.109091,0.0061 0.187879,0.02424 l -0.06667,0.490909 q -0.07879,-0.01818 -0.175757,-0.0303 -0.09091,-0.01212 -0.175758,-0.01212 -0.248485,0 -0.466667,0.139394 -0.218182,0.133333 -0.351515,0.381818 -0.127273,0.242425 -0.127273,0.569698 v 1.733334 h -0.533334 v -3.248487 h 0.436364 l 0.06061,0.59394 h 0.02424 q 0.157575,-0.266667 0.40606,-0.460606 0.248485,-0.19394 0.58788,-0.19394 z m 4.551518,0 q 0.551515,0 0.824243,0.284849 0.272727,0.278788 0.272727,0.909091 v 2.115153 h -0.527273 v -2.09091 q 0,-0.769698 -0.660606,-0.769698 -0.472728,0 -0.678789,0.272728 -0.2,0.272727 -0.2,0.79394 v 1.79394 h -0.527273 v -2.09091 q 0,-0.769698 -0.666667,-0.769698 -0.490909,0 -0.678788,0.303031 -0.187879,0.30303 -0.187879,0.872728 v 1.684849 h -0.533334 v -3.248487 h 0.430304 l 0.07879,0.442425 h 0.0303 q 0.151515,-0.254546 0.40606,-0.375758 0.260607,-0.127273 0.551516,-0.127273 0.763637,0 0.99394,0.545455 h 0.0303 q 0.163636,-0.278788 0.442424,-0.412121 0.284849,-0.133334 0.600001,-0.133334 z m 4.199999,1.472728 q -0.07879,-0.248485 -0.139394,-0.484848 -0.05454,-0.242425 -0.08485,-0.375758 h -0.02424 q -0.02424,0.133333 -0.07879,0.375758 -0.05455,0.236363 -0.139394,0.490909 l -0.581818,1.824244 h -0.606061 l -0.89091,-3.248487 h 0.551516 l 0.448485,1.733334 q 0.06667,0.260606 0.127273,0.527273 0.06061,0.266667 0.08485,0.442425 h 0.02424 q 0.02424,-0.103031 0.05454,-0.254546 0.03636,-0.151515 0.07879,-0.315152 0.04242,-0.169697 0.08485,-0.30303 l 0.575758,-1.830304 h 0.581819 l 0.557576,1.830304 q 0.06667,0.206061 0.127273,0.448485 0.06667,0.242424 0.09091,0.418182 h 0.02424 q 0.01818,-0.151515 0.07879,-0.418182 0.06667,-0.266667 0.139394,-0.545455 l 0.454546,-1.733334 h 0.545455 l -0.903031,3.248487 h -0.624243 z m 3.896969,-1.466667 q 0.593939,0 0.878788,0.260606 0.284849,0.260606 0.284849,0.830304 v 2.212122 h -0.387879 l -0.103031,-0.460606 h -0.02424 q -0.212121,0.266667 -0.448485,0.393939 -0.230303,0.127273 -0.642425,0.127273 -0.442424,0 -0.733334,-0.230303 -0.290909,-0.236364 -0.290909,-0.733334 0,-0.484849 0.381819,-0.745455 0.381818,-0.266667 1.175758,-0.290909 l 0.551515,-0.01818 v -0.193939 q 0,-0.406061 -0.175757,-0.563637 -0.175758,-0.157576 -0.49697,-0.157576 -0.254546,0 -0.484849,0.07879 -0.230303,0.07273 -0.430303,0.169697 l -0.163637,-0.4 q 0.212121,-0.115152 0.503031,-0.19394 0.290909,-0.08485 0.606061,-0.08485 z m 0.157576,1.733334 q -0.606061,0.02424 -0.842425,0.19394 -0.230303,0.169697 -0.230303,0.478788 0,0.272727 0.163636,0.4 0.169697,0.127273 0.430303,0.127273 0.412122,0 0.684849,-0.224243 0.272728,-0.230303 0.272728,-0.70303 v -0.29091 z m 3.52728,-1.739395 q 0.09091,0 0.193939,0.01212 0.109091,0.0061 0.187879,0.02424 l -0.06667,0.490909 q -0.07879,-0.01818 -0.175757,-0.0303 -0.09091,-0.01212 -0.175758,-0.01212 -0.248485,0 -0.466667,0.139394 -0.218182,0.133333 -0.351515,0.381818 -0.127273,0.242425 -0.127273,0.569698 v 1.733334 h -0.533334 v -3.248487 h 0.436364 l 0.06061,0.59394 h 0.02424 q 0.157575,-0.266667 0.40606,-0.460606 0.248485,-0.19394 0.58788,-0.19394 z m 2.12121,0 q 0.418182,0 0.715152,0.181818 0.303031,0.181819 0.460607,0.515152 0.163636,0.327273 0.163636,0.769698 v 0.321212 h -2.224244 q 0.01212,0.551516 0.278788,0.842425 0.272728,0.284848 0.757576,0.284848 0.309092,0 0.545455,-0.05455 0.242425,-0.06061 0.49697,-0.169697 v 0.466667 q -0.248485,0.109091 -0.490909,0.157576 -0.242424,0.05455 -0.575758,0.05455 -0.460606,0 -0.818182,-0.187879 -0.351516,-0.187879 -0.551516,-0.557576 -0.193939,-0.375758 -0.193939,-0.915152 0,-0.533334 0.175757,-0.915152 0.181819,-0.381818 0.503031,-0.587879 0.327273,-0.206061 0.757576,-0.206061 z m -0.0061,0.436364 q -0.381819,0 -0.606061,0.248485 -0.218182,0.242424 -0.260607,0.678788 h 1.654547 q -0.0061,-0.412121 -0.19394,-0.666667 -0.187879,-0.260606 -0.593939,-0.260606 z"
       id="text5786"
       style="font-size:6.06061px;text-align:center;text-anchor:middle;fill:#999999;stroke-width:1.81818"
       aria-label="Firmware" />
  </g>
</svg>
