<?xml version="1.0" encoding="UTF-8" standalone="no"?>
<svg
   width="64"
   height="64"
   version="1.1"
   id="svg73"
   sodipodi:docname="filetype Template.svg"
   inkscape:version="1.4 (e7c3feb100, 2024-10-09)"
   xmlns:inkscape="http://www.inkscape.org/namespaces/inkscape"
   xmlns:sodipodi="http://sodipodi.sourceforge.net/DTD/sodipodi-0.dtd"
   xmlns:xlink="http://www.w3.org/1999/xlink"
   xmlns="http://www.w3.org/2000/svg"
   xmlns:svg="http://www.w3.org/2000/svg"
   xmlns:rdf="http://www.w3.org/1999/02/22-rdf-syntax-ns#"
   xmlns:cc="http://creativecommons.org/ns#"
   xmlns:dc="http://purl.org/dc/elements/1.1/">
  <metadata
     id="metadata77">
    <rdf:RDF>
      <cc:Work
         rdf:about="">
        <dc:format>image/svg+xml</dc:format>
        <dc:type
           rdf:resource="http://purl.org/dc/dcmitype/StillImage" />
      </cc:Work>
    </rdf:RDF>
  </metadata>
  <sodipodi:namedview
     pagecolor="#f5f7fa"
     bordercolor="#666666"
     borderopacity="1"
     objecttolerance="10"
     gridtolerance="10"
     guidetolerance="10"
     inkscape:pageopacity="0"
     inkscape:pageshadow="2"
     inkscape:window-width="1183"
     inkscape:window-height="973"
     id="namedview75"
     showgrid="false"
     inkscape:zoom="4.4470387"
     inkscape:cx="19.226278"
     inkscape:cy="8.4325779"
     inkscape:window-x="35"
     inkscape:window-y="32"
     inkscape:window-maximized="0"
     inkscape:current-layer="g877"
     inkscape:document-rotation="0"
     inkscape:pagecheckerboard="0"
     inkscape:showpageshadow="2"
     inkscape:deskcolor="#d1d1d1" />
  <defs
     id="defs29">
    <filter
       style="color-interpolation-filters:sRGB;"
       inkscape:label="Blur"
       id="filter6"
       x="-0.044145008"
       y="-0.044145008"
       width="1.08829"
       height="1.08829">
      <feGaussianBlur
         stdDeviation="1 1"
         result="blur"
         id="feGaussianBlur6" />
    </filter>
    <filter
       style="color-interpolation-filters:sRGB;"
       inkscape:label="Blur"
       id="filter7"
       x="-0.098100013"
       y="-0.098100021"
       width="1.1962"
       height="1.1962">
      <feGaussianBlur
         stdDeviation="2 2"
         result="blur"
         id="feGaussianBlur7" />
    </filter>
    <clipPath
       id="clip0_515_3621">
      <rect
         width="16"
         height="16"
         fill="#ffffff"
         transform="translate(0.00292969)"
         id="rect7969"
         x="0"
         y="0" />
    </clipPath>
    <filter
       style="color-interpolation-filters:sRGB;"
       inkscape:label="Blur"
       id="filter7349"
       x="-0.10485812"
       y="-0.10485813"
       width="1.2097162"
       height="1.2097163">
      <feGaussianBlur
         stdDeviation="2 2"
         result="blur"
         id="feGaussianBlur7347" />
    </filter>
    <filter
       style="color-interpolation-filters:sRGB"
       inkscape:label="Blur"
       id="filter1283"
       x="-0.082344266"
       y="-0.082344266"
       width="1.1646885"
       height="1.1646885">
      <feGaussianBlur
         stdDeviation="0.5 0.5"
         result="blur"
         id="feGaussianBlur1281" />
    </filter>
    <linearGradient
       inkscape:collect="always"
       xlink:href="#linearGradient883"
       id="linearGradient885"
       x1="2.1085808"
       y1="2.0236168"
       x2="14.846128"
       y2="15.071845"
       gradientUnits="userSpaceOnUse"
       gradientTransform="matrix(2.4606127,0,0,3.1451148,11.16612,5.3876879)" />
    <linearGradient
       inkscape:collect="always"
       id="linearGradient883">
      <stop
         style="stop-color:#808080;stop-opacity:1;"
         offset="0"
         id="stop879" />
      <stop
         style="stop-color:#3e3e3e;stop-opacity:1;"
         offset="0.5"
         id="stop1216" />
      <stop
         style="stop-color:#242424;stop-opacity:1;"
         offset="1"
         id="stop881" />
    </linearGradient>
    <linearGradient
       inkscape:collect="always"
       xlink:href="#linearGradient1134"
       id="linearGradient1136"
       x1="14.971222"
       y1="14.703373"
       x2="2.0756054"
       y2="2.0069976"
       gradientUnits="userSpaceOnUse"
       gradientTransform="matrix(2.4106819,0,0,3.1438568,11.58952,5.3983817)" />
    <linearGradient
       inkscape:collect="always"
       id="linearGradient1134">
      <stop
         style="stop-color:#161616;stop-opacity:1;"
         offset="0"
         id="stop1130" />
      <stop
         style="stop-color:#404040;stop-opacity:1;"
         offset="1"
         id="stop1132" />
    </linearGradient>
    <filter
       style="color-interpolation-filters:sRGB"
       inkscape:label="Blur"
       id="filter1694"
       x="-0.94955398"
       y="-0.2118907"
       width="2.899108"
       height="1.4237814">
      <feGaussianBlur
         stdDeviation="0.2 0.2"
         result="blur"
         id="feGaussianBlur1692" />
    </filter>
  </defs>
  <g
     id="g877"
     transform="matrix(1.1,0,0,1.1,-3.1845928,-3.2065454)">
    <path
       style="fill:#f5f7fa;stroke-width:0.204426;fill-opacity:1"
       d=""
       id="path3" />
    <rect
       style="fill:#000000;stroke:none;stroke-width:0.539739;stroke-dasharray:none;filter:url(#filter1283)"
       id="rect246-1"
       width="14.572964"
       height="14.572964"
       x="1.1932471"
       y="1.2138842"
       rx="2.1589575"
       ry="2.1589575"
       transform="matrix(2.4606127,0,0,3.1451146,11.16612,5.3876877)" />
    <rect
       style="fill:#000000;stroke:url(#linearGradient885);stroke-width:1.63561;stroke-dasharray:none"
       id="rect246"
       width="35.155312"
       height="44.93494"
       x="14.453793"
       y="9.6548424"
       rx="5.2081943"
       ry="5.181818" />
    <rect
       style="fill:url(#linearGradient1136);fill-opacity:1;stroke:none;stroke-width:1.31679;stroke-dasharray:none"
       id="rect246-5"
       width="31.13278"
       height="40.601383"
       x="16.465055"
       y="11.821622"
       rx="3.1818182"
       ry="3.1725934" />
    <g
       id="g1759"
       transform="matrix(0.44580398,0,0,0.44580398,17.674464,10.62768)"
       style="fill:#999999;fill-opacity:1;stroke:none;stroke-width:1.57081;stroke-dasharray:none;stroke-opacity:0.3">
      <path
         style="fill:#999999;fill-opacity:1;stroke:none;stroke-width:1.57081;stroke-dasharray:none;stroke-opacity:0.3"
         d="m 21.867542,23.839093 a 0.85488792,0.9179372 0 0 0 -0.843115,0.754715 l -3.076955,18.356905 a 0.85488792,0.9179372 0 1 0 1.681223,0.324473 l 1.846506,-11.01056 1.247146,20.086831 a 0.85488792,0.9179372 0 0 0 1.704593,0.0056 l 0.888194,-13.358986 0.826421,11.526847 a 0.85488792,0.9179372 0 0 0 1.702927,0.01254 l 1.0468,-12.371191 0.676161,5.076833 a 0.85488792,0.9179372 0 0 0 1.679552,0.06812 l 1.72964,-8.355611 v 13.663707 a 0.85488792,0.9179372 0 0 0 1.699587,0.139828 l 2.514322,-17.548414 2.632859,21.201867 a 0.85488792,0.9179372 0 0 0 1.697918,-0.03946 l 1.345644,-15.886608 1.609434,5.085793 a 0.85531408,0.91839456 0 1 0 1.619451,-0.591661 l -2.906663,-9.17668 a 0.85488792,0.9179372 0 0 0 -1.661189,0.211535 L 40.509583,44.04603 38.098771,24.635033 a 0.85488792,0.9179372 0 0 0 -1.692909,-0.01793 l -1.71962,12.000119 V 26.592633 a 0.85488792,0.9179372 0 0 0 -1.687901,-0.200776 l -2.402463,11.609308 -1.0468,-7.868014 a 0.85488792,0.9179372 0 0 0 -1.696248,0.04661 l -0.788022,9.303937 -0.928261,-12.962774 a 0.85488792,0.9179372 0 0 0 -1.704596,0.0057 L 23.605529,38.962101 22.719007,24.696057 a 0.85488792,0.9179372 0 0 0 -0.851465,-0.856931 z"
         id="path8-2" />
      <path
         style="fill:#999999;fill-opacity:1;stroke:none;stroke-width:1.57081;stroke-dasharray:none;stroke-opacity:0.3"
         d="m 32.121834,10.996429 c -4.959901,0 -9.909604,1.662791 -13.246291,4.454776 -3.33669,2.791987 -5.504461,6.787009 -5.504461,11.231057 v 1.606231 c -3.312926,1.802306 -5.1820467,6.528639 -5.1820467,12.070024 0,7.092856 3.7584837,12.849832 8.6014507,12.849832 V 26.682262 c 0,-3.327989 1.604398,-6.391229 4.359157,-8.696228 2.754415,-2.30536 6.645293,-3.327187 10.97386,-3.327187 4.328733,0 8.2191,1.022231 10.973861,3.327187 2.754759,2.30496 4.359156,5.368239 4.359156,8.696228 v 26.526087 c 4.843137,0 8.599781,-5.756976 8.599781,-12.849832 0,-5.541752 -1.783491,-10.26744 -5.096587,-12.070024 v -1.606231 c 0,-4.444048 -2.166101,-8.43907 -5.502791,-11.231057 -3.337028,-2.79217 -8.374034,-4.454776 -13.33342,-4.454776 z M 17.591863,27.508682 v 0.0018 25.697833 c 0.68381,0 1.36762,-0.408557 1.709603,-1.224389 V 28.32444 C 18.95956,27.916511 18.275751,27.508763 17.591863,27.508763 Z m 29.063281,0 c -0.683888,0 -1.367701,0.407747 -1.709605,0.815662 V 51.98396 c 0.341983,0.815833 1.025795,1.224389 1.709605,1.224389 V 27.510473 Z"
         id="path12" />
    </g>
    <path
       d="M 22.903072,48.937271 22.38186,47.597876 h -1.715153 l -0.515152,1.339395 H 19.60004 l 1.69091,-4.345457 h 0.490909 l 1.68485,4.345457 z m -1.169698,-3.133335 q -0.01818,-0.04848 -0.06061,-0.175758 -0.04242,-0.127273 -0.08485,-0.260606 -0.03636,-0.139394 -0.06061,-0.212121 -0.04243,0.187878 -0.09697,0.369697 -0.05455,0.175757 -0.09091,0.278788 l -0.49091,1.309092 h 1.369698 z m 4.9697,-0.115152 v 3.248487 H 26.26671 l -0.07879,-0.430303 h -0.02424 q -0.157576,0.254545 -0.436364,0.375758 -0.278788,0.115151 -0.59394,0.115151 -0.587879,0 -0.884849,-0.278788 -0.29697,-0.284848 -0.29697,-0.903031 v -2.127274 h 0.539395 v 2.090911 q 0,0.775758 0.721212,0.775758 0.539394,0 0.745455,-0.303031 0.212122,-0.30303 0.212122,-0.872728 v -1.69091 z m 2.18182,3.309093 q -0.606061,0 -0.969698,-0.418182 -0.363637,-0.424243 -0.363637,-1.260607 0,-0.836364 0.363637,-1.260607 0.369697,-0.430303 0.975758,-0.430303 0.375758,0 0.612122,0.139394 0.242424,0.139394 0.393939,0.339394 h 0.03636 q -0.0061,-0.07879 -0.02424,-0.230303 -0.01212,-0.157576 -0.01212,-0.248485 v -1.29697 h 0.533334 v 4.606063 h -0.430303 l -0.07879,-0.436364 h -0.02424 q -0.145454,0.206061 -0.387879,0.351516 -0.242424,0.145454 -0.624242,0.145454 z m 0.08485,-0.442424 q 0.515152,0 0.721213,-0.278788 0.212121,-0.284849 0.212121,-0.854546 v -0.09697 q 0,-0.606061 -0.2,-0.927273 -0.2,-0.327273 -0.739395,-0.327273 -0.430303,0 -0.648485,0.345454 -0.212121,0.339395 -0.212121,0.915153 0,0.581818 0.212121,0.90303 0.218182,0.321213 0.654546,0.321213 z m 3.721213,-2.921214 q 0.59394,0 0.878789,0.260606 0.284848,0.260606 0.284848,0.830304 v 2.212122 h -0.387879 l -0.10303,-0.460606 h -0.02424 q -0.212122,0.266667 -0.448485,0.393939 -0.230304,0.127273 -0.642425,0.127273 -0.442425,0 -0.733334,-0.230303 -0.290909,-0.236364 -0.290909,-0.733334 0,-0.484849 0.381818,-0.745455 0.381819,-0.266667 1.175759,-0.290909 l 0.551515,-0.01818 v -0.193939 q 0,-0.406061 -0.175758,-0.563637 -0.175757,-0.157576 -0.49697,-0.157576 -0.254545,0 -0.484848,0.07879 -0.230304,0.07273 -0.430304,0.169697 l -0.163636,-0.4 q 0.212121,-0.115152 0.50303,-0.19394 0.29091,-0.08485 0.606061,-0.08485 z m 0.157576,1.733334 q -0.606061,0.02424 -0.842425,0.19394 -0.230303,0.169697 -0.230303,0.478788 0,0.272727 0.163637,0.4 0.169697,0.127273 0.430303,0.127273 0.412122,0 0.684849,-0.224243 0.272727,-0.230303 0.272727,-0.70303 v -0.29091 z m 3.315159,1.630304 q -0.430303,0 -0.769697,-0.175757 -0.333334,-0.175758 -0.527274,-0.545455 -0.187878,-0.369698 -0.187878,-0.945455 0,-0.600001 0.2,-0.975759 0.2,-0.375757 0.539394,-0.551515 0.345455,-0.175758 0.781819,-0.175758 0.248485,0 0.478788,0.05455 0.230303,0.04848 0.375758,0.121212 l -0.163637,0.442424 q -0.145454,-0.05455 -0.339394,-0.10303 -0.19394,-0.04848 -0.363637,-0.04848 -0.957576,0 -0.957576,1.230304 0,0.587879 0.230303,0.903031 0.236364,0.309091 0.69697,0.309091 0.266667,0 0.466667,-0.05455 0.206061,-0.05455 0.375758,-0.133333 v 0.472728 q -0.163636,0.08485 -0.363636,0.127272 -0.19394,0.04848 -0.472728,0.04848 z m 1.878785,-4.527275 q 0.121213,0 0.212122,0.08485 0.09697,0.07879 0.09697,0.254546 0,0.169697 -0.09697,0.254545 -0.09091,0.08485 -0.212122,0.08485 -0.133333,0 -0.224242,-0.08485 -0.09091,-0.08485 -0.09091,-0.254545 0,-0.175758 0.09091,-0.254546 0.09091,-0.08485 0.224242,-0.08485 z m 0.260607,1.218182 v 3.248487 h -0.533334 v -3.248487 z m 2.11515,2.872729 q 0.121212,0 0.248485,-0.01818 0.127273,-0.02424 0.206061,-0.04848 v 0.40606 q -0.08485,0.04243 -0.242425,0.06667 -0.157576,0.0303 -0.30303,0.0303 -0.254546,0 -0.472728,-0.08485 -0.212121,-0.09091 -0.345454,-0.309091 -0.133334,-0.218182 -0.133334,-0.612122 v -1.89091 H 38.915201 V 45.84636 l 0.466667,-0.212121 0.212121,-0.69091 h 0.315152 v 0.745455 h 0.939394 v 0.412122 h -0.939394 v 1.878789 q 0,0.29697 0.139394,0.442424 0.145454,0.139394 0.369697,0.139394 z m 0.593939,-2.872729 h 0.569697 l 0.703031,1.848486 q 0.09091,0.242425 0.163637,0.466667 0.07273,0.218182 0.109091,0.418182 h 0.02424 q 0.03636,-0.151515 0.115152,-0.393939 0.07879,-0.248485 0.163636,-0.49697 l 0.660607,-1.842426 h 0.575758 l -1.400001,3.696972 q -0.169697,0.460607 -0.442425,0.733334 -0.266667,0.272727 -0.739394,0.272727 -0.145455,0 -0.254546,-0.01818 -0.109091,-0.01212 -0.187879,-0.0303 V 49.91909 q 0.06667,0.01212 0.157576,0.02424 0.09697,0.01212 0.2,0.01212 0.278788,0 0.448485,-0.157576 0.175758,-0.157576 0.272728,-0.418182 l 0.169697,-0.430304 z"
       id="text5786"
       style="font-size:6.06061px;text-align:center;text-anchor:middle;fill:#999999;stroke-width:1.81818"
       aria-label="Audacity" />
  </g>
</svg>
