<?xml version="1.0" encoding="UTF-8" standalone="no"?>
<svg
   width="64"
   height="64"
   version="1.1"
   viewBox="0 0 16.933 16.933"
   id="svg7"
   sodipodi:docname="text-x-subviewer.svg"
   inkscape:version="1.3.2 (091e20ef0f, 2023-11-25)"
   xmlns:inkscape="http://www.inkscape.org/namespaces/inkscape"
   xmlns:sodipodi="http://sodipodi.sourceforge.net/DTD/sodipodi-0.dtd"
   xmlns:xlink="http://www.w3.org/1999/xlink"
   xmlns="http://www.w3.org/2000/svg"
   xmlns:svg="http://www.w3.org/2000/svg"
   xmlns:rdf="http://www.w3.org/1999/02/22-rdf-syntax-ns#"
   xmlns:cc="http://creativecommons.org/ns#"
   xmlns:dc="http://purl.org/dc/elements/1.1/">
  <sodipodi:namedview
     id="namedview7"
     pagecolor="#9c4444"
     bordercolor="#000000"
     borderopacity="0.25"
     inkscape:showpageshadow="2"
     inkscape:pageopacity="0.0"
     inkscape:pagecheckerboard="0"
     inkscape:deskcolor="#d1d1d1"
     inkscape:zoom="6.15625"
     inkscape:cx="33.218274"
     inkscape:cy="36.71066"
     inkscape:window-width="1463"
     inkscape:window-height="664"
     inkscape:window-x="167"
     inkscape:window-y="273"
     inkscape:window-maximized="0"
     inkscape:current-layer="svg7"
     showgrid="false" />
  <defs
     id="defs2">
    <linearGradient
       id="linearGradient5"
       inkscape:collect="always">
      <stop
         style="stop-color:#392713;stop-opacity:1;"
         offset="0"
         id="stop2" />
      <stop
         style="stop-color:#eed59e;stop-opacity:1;"
         offset="0.5"
         id="stop3" />
      <stop
         style="stop-color:#beaa8a;stop-opacity:1;"
         offset="1"
         id="stop4" />
    </linearGradient>
    <linearGradient
       id="linearGradient8"
       inkscape:collect="always">
      <stop
         style="stop-color:#1a1a1a;stop-opacity:1;"
         offset="0"
         id="stop8" />
      <stop
         style="stop-color:#ffffff;stop-opacity:0;"
         offset="1"
         id="stop9" />
    </linearGradient>
    <linearGradient
       inkscape:collect="always"
       xlink:href="#linearGradient5"
       id="linearGradient41"
       x1="13.675659"
       y1="16.110115"
       x2="13.728528"
       y2="10.548769"
       gradientUnits="userSpaceOnUse"
       gradientTransform="matrix(1.6061171,0,0,2.1084059,-12.924569,-19.742698)" />
    <linearGradient
       inkscape:collect="always"
       xlink:href="#linearGradient42"
       id="linearGradient4"
       x1="11.885941"
       y1="16.50819"
       x2="12.026573"
       y2="10.244942"
       gradientUnits="userSpaceOnUse"
       gradientTransform="matrix(1.6061171,0,0,2.1084059,-12.924569,-19.742698)" />
    <linearGradient
       id="linearGradient42"
       inkscape:collect="always">
      <stop
         style="stop-color:#010101;stop-opacity:1;"
         offset="0"
         id="stop42" />
      <stop
         style="stop-color:#6e6c6d;stop-opacity:1;"
         offset="1"
         id="stop43" />
    </linearGradient>
    <linearGradient
       inkscape:collect="always"
       xlink:href="#linearGradient8"
       id="linearGradient9"
       x1="9.3404646"
       y1="4.1692023"
       x2="9.4279938"
       y2="16.46883"
       gradientUnits="userSpaceOnUse"
       gradientTransform="matrix(0.80952478,0,0,1.0980733,1.5663172,-0.59391329)" />
    <filter
       style="color-interpolation-filters:sRGB;"
       inkscape:label="Blur"
       id="filter2"
       x="-0.14510849"
       y="-0.14612901"
       width="1.290217"
       height="1.292258">
      <feGaussianBlur
         stdDeviation="0.6 0.6"
         result="blur"
         id="feGaussianBlur2" />
    </filter>
    <clipPath
       clipPathUnits="userSpaceOnUse"
       id="clipPath354">
      <rect
         style="display:block;opacity:0.2"
         width="36"
         height="36"
         x="15.620633"
         y="15.638589"
         rx="2.7690001"
         ry="2.7690001"
         id="rect356" />
    </clipPath>
    <inkscape:path-effect
       effect="powerclip"
       id="path-effect358"
       is_visible="true"
       lpeversion="1"
       inverse="true"
       flatten="false"
       hide_clip="false"
       message="Use fill-rule evenodd on &lt;b&gt;fill and stroke&lt;/b&gt; dialog if no flatten result after convert clip to paths." />
    <clipPath
       clipPathUnits="userSpaceOnUse"
       id="clipPath186">
      <rect
         style="display:block;opacity:0.2"
         width="36"
         height="36"
         x="5.391973"
         y="5.6022935"
         rx="2.7690001"
         ry="2.7690001"
         id="rect188" />
    </clipPath>
    <inkscape:path-effect
       effect="powerclip"
       id="path-effect190"
       is_visible="true"
       lpeversion="1"
       inverse="true"
       flatten="false"
       hide_clip="false"
       message="Use fill-rule evenodd on &lt;b&gt;fill and stroke&lt;/b&gt; dialog if no flatten result after convert clip to paths." />
    <clipPath
       clipPathUnits="userSpaceOnUse"
       id="clipPath354-9">
      <rect
         style="display:none;opacity:0.2"
         width="36"
         height="36"
         x="15.620633"
         y="15.638589"
         rx="2.7690001"
         ry="2.7690001"
         id="rect356-7"
         d="m 18.389633,15.638589 h 30.462 c 1.534026,0 2.769,1.234974 2.769,2.769 v 30.462 c 0,1.534026 -1.234974,2.769 -2.769,2.769 h -30.462 c -1.534026,0 -2.769,-1.234974 -2.769,-2.769 v -30.462 c 0,-1.534026 1.234974,-2.769 2.769,-2.769 z" />
      <path
         id="lpe_path-effect358-3"
         style="opacity:0.2"
         class="powerclip"
         d="M 19,19 H 65 V 65 H 19 Z m -0.610367,-3.361411 c -1.534026,0 -2.769,1.234974 -2.769,2.769 v 30.462 c 0,1.534026 1.234974,2.769 2.769,2.769 h 30.462 c 1.534026,0 2.769,-1.234974 2.769,-2.769 v -30.462 c 0,-1.534026 -1.234974,-2.769 -2.769,-2.769 z" />
    </clipPath>
    <inkscape:path-effect
       effect="powerclip"
       id="path-effect358-6"
       is_visible="true"
       lpeversion="1"
       inverse="true"
       flatten="false"
       hide_clip="false"
       message="Use fill-rule evenodd on &lt;b&gt;fill and stroke&lt;/b&gt; dialog if no flatten result after convert clip to paths." />
    <clipPath
       clipPathUnits="userSpaceOnUse"
       id="clipPath186-3">
      <rect
         style="display:none;opacity:0.2"
         width="36"
         height="36"
         x="5.391973"
         y="5.6022935"
         rx="2.7690001"
         ry="2.7690001"
         id="rect188-1"
         d="M 8.1609731,5.6022935 H 38.622973 c 1.534026,0 2.769,1.234974 2.769,2.769 V 38.833293 c 0,1.534026 -1.234974,2.769 -2.769,2.769 H 8.1609731 c -1.5340261,0 -2.7690001,-1.234974 -2.7690001,-2.769 V 8.3712935 c 0,-1.534026 1.234974,-2.769 2.7690001,-2.769 z" />
      <path
         id="lpe_path-effect190-9"
         style="opacity:0.2"
         class="powerclip"
         d="M 9,9 H 55 V 55 H 9 Z M 8.1609731,5.6022935 c -1.5340261,0 -2.7690001,1.234974 -2.7690001,2.769 V 38.833293 c 0,1.534026 1.234974,2.769 2.7690001,2.769 H 38.622973 c 1.534026,0 2.769,-1.234974 2.769,-2.769 V 8.3712935 c 0,-1.534026 -1.234974,-2.769 -2.769,-2.769 z" />
    </clipPath>
    <inkscape:path-effect
       effect="powerclip"
       id="path-effect190-4"
       is_visible="true"
       lpeversion="1"
       inverse="true"
       flatten="false"
       hide_clip="false"
       message="Use fill-rule evenodd on &lt;b&gt;fill and stroke&lt;/b&gt; dialog if no flatten result after convert clip to paths." />
    <clipPath
       clipPathUnits="userSpaceOnUse"
       id="clipath_lpe_path-effect358-6">
      <rect
         style="display:block;opacity:0.2"
         width="36"
         height="36"
         x="15.620633"
         y="15.638589"
         rx="2.7690001"
         ry="2.7690001"
         id="rect22" />
    </clipPath>
    <clipPath
       clipPathUnits="userSpaceOnUse"
       id="clipath_lpe_path-effect190-4">
      <rect
         style="display:block;opacity:0.2"
         width="36"
         height="36"
         x="5.391973"
         y="5.6022935"
         rx="2.7690001"
         ry="2.7690001"
         id="rect23" />
    </clipPath>
    <linearGradient
       inkscape:collect="always"
       xlink:href="#linearGradient5"
       id="linearGradient33"
       x1="9.2007704"
       y1="11.16751"
       x2="9.1534767"
       y2="5.9418902"
       gradientUnits="userSpaceOnUse" />
  </defs>
  <metadata
     id="metadata2">
    <rdf:RDF>
      <cc:Work
         rdf:about="">
        <dc:format>image/svg+xml</dc:format>
        <dc:type
           rdf:resource="http://purl.org/dc/dcmitype/StillImage" />
      </cc:Work>
    </rdf:RDF>
  </metadata>
  <rect
     style="fill:#000000;fill-opacity:0.996424;stroke:#000000;stroke-width:0.911802;stroke-dasharray:none;stroke-opacity:1;filter:url(#filter2)"
     id="rect1-2-3"
     width="13.065404"
     height="12.974159"
     x="1.9816793"
     y="1.9267306"
     rx="2.7149384"
     ry="2.8310909"
     transform="matrix(0.78494475,0,0,1.0304244,1.8310625,-0.25598506)" />
  <rect
     style="fill:url(#linearGradient4);fill-opacity:0.996424;stroke:url(#linearGradient41);stroke-width:0.820027;stroke-dasharray:none;stroke-opacity:1"
     id="rect1-2"
     width="10.25562"
     height="13.36889"
     x="3.3865712"
     y="1.7293652"
     rx="2.1310766"
     ry="2.9172251" />
  <path
     style="fill:#000000;stroke-width:0.264578;opacity:0.3"
     d="M 6.4707871,6.4845452 C 6.2212899,6.637736 5.7196498,6.8525734 5.3063788,6.9724273 l 0.012964,0.036247 C 5.5159246,6.9890957 5.7259997,6.961315 5.9231104,6.9279782 V 7.430412 H 5.3095537 l 0.016668,0.055297 H 5.8278622 C 5.7294392,7.8899842 5.5489969,8.3199235 5.2899749,8.6323905 l 0.039158,0.03651 C 5.5722798,8.4929575 5.7685968,8.2894975 5.9225812,8.0577267 v 1.0437611 h 0.062441 c 0.1672133,0 0.2756904,-0.06429 0.2786007,-0.08414 v -1.177898 c 0.1246163,0.1124457 0.2423536,0.2907713 0.2656364,0.4304688 0.042332,0.03598 0.088634,0.05344 0.1312308,0.05344 0.088369,0 0.1637738,-0.06429 0.1637738,-0.1534554 0,-0.1209121 -0.1378452,-0.2793947 -0.560641,-0.3743782 V 7.486238 H 6.72293 c 0.088634,0 0.1312308,-0.014287 0.1539845,-0.05027 L 6.5591562,7.2211307 6.3879741,7.4298829 H 6.2636224 V 6.8607753 c 0.1476346,-0.033601 0.2852152,-0.066674 0.3968672,-0.1002751 0.042332,0.011377 0.079109,0.017198 0.111652,0.017198 0.039687,0 0.071965,-0.00873 0.091809,-0.0254 z M 7.9817927,6.8721522 7.8375976,7.0369843 H 7.2676964 L 6.9028432,6.9025787 v 2.1425541 c 0.3082335,0 0.3476556,-0.111388 0.3476556,-0.117208 V 8.7241995 h 0.619642 v 0.2677534 c 0.2595511,0 0.3508305,-0.07514 0.3508305,-0.0807 V 7.1703317 c 0.06879,-0.013758 0.1214414,-0.035983 0.1410202,-0.061382 z M 7.2504988,7.0928103 h 0.619642 V 8.6689025 H 7.2504988 Z M 10.93131,9.6105361 c -0.362472,0 -0.625728,0.08467 -0.789502,0.2537313 C 10.005815,10.003964 9.9296168,10.217478 9.9065985,10.497668 H 9.2840462 V 9.9666584 c 0,-0.06958 0.010848,-0.119324 0.032014,-0.1494862 0.020902,-0.0299 0.054768,-0.0463 0.1023917,-0.04948 l 0.096571,-0.0058 c 0.035718,-0.0032 0.053709,-0.0209 0.053709,-0.05318 0,-0.02381 -0.00265,-0.03889 -0.0082,-0.04445 -0.00609,-0.0056 -0.020902,-0.0087 -0.044978,-0.0087 -0.00582,0 -0.022754,5.291e-4 -0.05027,0.0026 -0.1076833,0.0048 -0.2113979,0.0071 -0.3114084,0.0071 -0.1047729,0 -0.21325,-0.0024 -0.323579,-0.0071 -0.026458,-0.0021 -0.042333,-0.0026 -0.047095,-0.0026 -0.023283,0 -0.038099,0.0034 -0.044449,0.0087 -0.00609,0.0056 -0.00926,0.02037 -0.00926,0.04445 0,0.03254 0.018785,0.05027 0.056884,0.05318 l 0.090486,0.0058 c 0.050005,0.0029 0.08493,0.01878 0.1058313,0.04842 0.020902,0.0299 0.031485,0.0799 0.031485,0.1505453 v 1.4239595 c 0,0.06958 -0.010319,0.119854 -0.030956,0.150016 -0.020372,0.0299 -0.054503,0.04551 -0.1029209,0.04895 l -0.093925,0.0058 c -0.00238,7.94e-4 -0.00503,0.0016 -0.00873,0.0016 -0.032014,0.0019 -0.048153,0.01773 -0.048153,0.04842 0,0.0254 0.0037,0.04074 0.010318,0.04656 0.00661,0.0064 0.021431,0.0093 0.043391,0.0093 0.00582,0 0.020902,-5.3e-4 0.044978,-0.0016 0.1121812,-0.0053 0.2203936,-0.0082 0.3251665,-0.0082 0.1000106,0 0.2039898,0.0024 0.3119376,0.0071 0.026458,0.0019 0.042597,0.0026 0.049741,0.0026 0.023283,0 0.038099,-0.0029 0.044449,-0.0093 0.00609,-0.0058 0.00926,-0.02143 0.00926,-0.04656 0,-0.03069 -0.014816,-0.04657 -0.044978,-0.04842 -0.00397,-7.94e-4 -0.00609,-0.0016 -0.0082,-0.0016 l -0.093661,-0.0058 c -0.050005,-0.0032 -0.084929,-0.01905 -0.1058312,-0.04842 -0.021166,-0.02937 -0.032014,-0.0799 -0.032014,-0.150545 v -0.587793 h 0.6185837 c 0.01561,0.309292 0.086517,0.542915 0.2201295,0.691872 0.151074,0.168536 0.395544,0.252672 0.731558,0.252672 0.365912,0 0.633136,-0.08493 0.801143,-0.254789 0.167742,-0.170123 0.252143,-0.441316 0.252143,-0.813313 0,-0.376758 -0.07673,-0.64901 -0.230448,-0.8170165 C 11.5237,9.6936141 11.274997,9.6105361 10.93131,9.6105361 Z m -0.03201,0.101334 c 0.251084,0 0.431791,0.07514 0.543179,0.2256853 0.110593,0.1502796 0.16589,0.3979246 0.16589,0.7410826 0,0.340512 -0.05556,0.586305 -0.166949,0.73685 -0.111652,0.15081 -0.291829,0.22595 -0.54212,0.22595 -0.250291,0 -0.431527,-0.07514 -0.543179,-0.22595 -0.110858,-0.150545 -0.166155,-0.397925 -0.166155,-0.741612 0,-0.336544 0.05609,-0.581543 0.168801,-0.7336746 0.112974,-0.1521332 0.292888,-0.2283313 0.540533,-0.2283313 z"
     id="path6-6" />
  <path
     style="fill:url(#linearGradient33);stroke-width:0.264578"
     d="M 6.4707871,5.955389 C 6.2212899,6.1085798 5.7196498,6.3234172 5.3063788,6.4432711 l 0.012964,0.036247 C 5.5159246,6.4599395 5.7259997,6.4321588 5.9231104,6.398822 V 6.9012558 H 5.3095537 l 0.016668,0.055297 H 5.8278622 C 5.7294392,7.360828 5.5489969,7.7907673 5.2899749,8.1032343 l 0.039158,0.03651 C 5.5722798,7.9638013 5.7685968,7.7603413 5.9225812,7.5285705 v 1.0437611 h 0.062441 c 0.1672133,0 0.2756904,-0.06429 0.2786007,-0.08414 v -1.177898 c 0.1246163,0.1124457 0.2423536,0.2907713 0.2656364,0.4304688 0.042332,0.03598 0.088634,0.05344 0.1312308,0.05344 0.088369,0 0.1637738,-0.06429 0.1637738,-0.1534555 0,-0.1209121 -0.1378452,-0.2793946 -0.560641,-0.3743781 V 6.9570818 H 6.72293 c 0.088634,0 0.1312308,-0.014287 0.1539845,-0.05027 L 6.5591562,6.6919745 6.3879741,6.9007267 H 6.2636224 V 6.3316191 C 6.411257,6.2980181 6.5488376,6.2649451 6.6604896,6.231344 c 0.042332,0.011377 0.079109,0.017198 0.111652,0.017198 0.039687,0 0.071965,-0.00873 0.091809,-0.0254 z M 7.9817927,6.342996 7.8375976,6.5078281 H 7.2676964 L 6.9028432,6.3734225 v 2.1425541 c 0.3082335,0 0.3476556,-0.111388 0.3476556,-0.117208 V 8.1950433 h 0.619642 v 0.2677534 c 0.2595511,0 0.3508305,-0.07514 0.3508305,-0.0807 V 6.6411755 c 0.06879,-0.013758 0.1214414,-0.035983 0.1410202,-0.061382 z M 7.2504988,6.5636541 h 0.619642 V 8.1397463 H 7.2504988 Z M 10.93131,9.0813799 c -0.362472,0 -0.625728,0.08467 -0.789502,0.2537313 -0.135993,0.139697 -0.2121912,0.353211 -0.2352095,0.6334002 H 9.2840462 V 9.4375022 c 0,-0.06958 0.010848,-0.119324 0.032014,-0.1494862 0.020902,-0.0299 0.054768,-0.0463 0.1023917,-0.04948 l 0.096571,-0.0058 c 0.035718,-0.0032 0.053709,-0.0209 0.053709,-0.05318 0,-0.02381 -0.00265,-0.03889 -0.0082,-0.04445 -0.00609,-0.0056 -0.020902,-0.0087 -0.044978,-0.0087 -0.00582,0 -0.022754,5.291e-4 -0.05027,0.0026 -0.1076833,0.0048 -0.2113979,0.0071 -0.3114084,0.0071 -0.1047729,0 -0.21325,-0.0024 -0.323579,-0.0071 -0.026458,-0.0021 -0.042333,-0.0026 -0.047095,-0.0026 -0.023283,0 -0.038099,0.0034 -0.044449,0.0087 -0.00609,0.0056 -0.00926,0.02037 -0.00926,0.04445 0,0.03254 0.018785,0.05027 0.056884,0.05318 l 0.090486,0.0058 c 0.050005,0.0029 0.08493,0.01878 0.1058313,0.04842 0.020902,0.0299 0.031485,0.0799 0.031485,0.1505453 v 1.4239597 c 0,0.06958 -0.010319,0.119854 -0.030956,0.150016 -0.020372,0.0299 -0.054503,0.04551 -0.1029209,0.04895 l -0.093925,0.0058 c -0.00238,7.94e-4 -0.00503,0.0016 -0.00873,0.0016 -0.032014,0.0019 -0.048153,0.01773 -0.048153,0.04842 0,0.0254 0.0037,0.04074 0.010318,0.04656 0.00661,0.0064 0.021431,0.0093 0.043391,0.0093 0.00582,0 0.020902,-5.3e-4 0.044978,-0.0016 0.1121812,-0.0053 0.2203936,-0.0082 0.3251665,-0.0082 0.1000106,0 0.2039898,0.0024 0.3119376,0.0071 0.026458,0.0019 0.042597,0.0026 0.049741,0.0026 0.023283,0 0.038099,-0.0029 0.044449,-0.0093 0.00609,-0.0058 0.00926,-0.02143 0.00926,-0.04656 0,-0.03069 -0.014816,-0.04657 -0.044978,-0.04842 -0.00397,-7.94e-4 -0.00609,-0.0016 -0.0082,-0.0016 l -0.093661,-0.0058 c -0.050005,-0.0032 -0.084929,-0.01905 -0.1058312,-0.04842 -0.021166,-0.02937 -0.032014,-0.0799 -0.032014,-0.150545 v -0.587793 h 0.6185837 c 0.01561,0.309292 0.086517,0.542915 0.2201295,0.691872 0.151074,0.168536 0.395544,0.252672 0.731558,0.252672 0.365912,0 0.633136,-0.08493 0.801143,-0.254789 0.167742,-0.170123 0.252143,-0.441316 0.252143,-0.813313 0,-0.3767587 -0.07673,-0.6490098 -0.230448,-0.8170167 C 11.5237,9.1644579 11.274997,9.0813799 10.93131,9.0813799 Z m -0.03201,0.101334 c 0.251084,0 0.431791,0.07514 0.543179,0.2256853 0.110593,0.15028 0.16589,0.397925 0.16589,0.7410828 0,0.340512 -0.05556,0.586305 -0.166949,0.73685 -0.111652,0.15081 -0.291829,0.22595 -0.54212,0.22595 -0.250291,0 -0.431527,-0.07514 -0.543179,-0.22595 -0.110858,-0.150545 -0.166155,-0.397925 -0.166155,-0.741612 0,-0.3365438 0.05609,-0.5815428 0.168801,-0.7336748 C 10.471741,9.258912 10.651655,9.1827139 10.8993,9.1827139 Z"
     id="path6" />
  <rect
     style="opacity:0.5;fill:none;fill-opacity:0.996424;stroke:url(#linearGradient9);stroke-width:0.50832;stroke-dasharray:none;stroke-opacity:1"
     id="rect1-2-6"
     width="8.9234324"
     height="12.035513"
     x="4.0584631"
     y="2.3962882"
     rx="1.5176033"
     ry="2.2109985" />
</svg>
