<?xml version="1.0" encoding="UTF-8" standalone="no"?>
<svg
   width="64"
   height="64"
   version="1.1"
   id="svg73"
   sodipodi:docname="filetype Template.svg"
   inkscape:version="1.4 (e7c3feb100, 2024-10-09)"
   xmlns:inkscape="http://www.inkscape.org/namespaces/inkscape"
   xmlns:sodipodi="http://sodipodi.sourceforge.net/DTD/sodipodi-0.dtd"
   xmlns:xlink="http://www.w3.org/1999/xlink"
   xmlns="http://www.w3.org/2000/svg"
   xmlns:svg="http://www.w3.org/2000/svg"
   xmlns:rdf="http://www.w3.org/1999/02/22-rdf-syntax-ns#"
   xmlns:cc="http://creativecommons.org/ns#"
   xmlns:dc="http://purl.org/dc/elements/1.1/">
  <metadata
     id="metadata77">
    <rdf:RDF>
      <cc:Work
         rdf:about="">
        <dc:format>image/svg+xml</dc:format>
        <dc:type
           rdf:resource="http://purl.org/dc/dcmitype/StillImage" />
      </cc:Work>
    </rdf:RDF>
  </metadata>
  <sodipodi:namedview
     pagecolor="#f5f7fa"
     bordercolor="#666666"
     borderopacity="1"
     objecttolerance="10"
     gridtolerance="10"
     guidetolerance="10"
     inkscape:pageopacity="0"
     inkscape:pageshadow="2"
     inkscape:window-width="1183"
     inkscape:window-height="973"
     id="namedview75"
     showgrid="false"
     inkscape:zoom="4.4470387"
     inkscape:cx="19.226278"
     inkscape:cy="8.4325779"
     inkscape:window-x="35"
     inkscape:window-y="32"
     inkscape:window-maximized="0"
     inkscape:current-layer="g877"
     inkscape:document-rotation="0"
     inkscape:pagecheckerboard="0"
     inkscape:showpageshadow="2"
     inkscape:deskcolor="#d1d1d1" />
  <defs
     id="defs29">
    <filter
       style="color-interpolation-filters:sRGB;"
       inkscape:label="Blur"
       id="filter6"
       x="-0.044145008"
       y="-0.044145008"
       width="1.08829"
       height="1.08829">
      <feGaussianBlur
         stdDeviation="1 1"
         result="blur"
         id="feGaussianBlur6" />
    </filter>
    <filter
       style="color-interpolation-filters:sRGB;"
       inkscape:label="Blur"
       id="filter7"
       x="-0.098100013"
       y="-0.098100021"
       width="1.1962"
       height="1.1962">
      <feGaussianBlur
         stdDeviation="2 2"
         result="blur"
         id="feGaussianBlur7" />
    </filter>
    <clipPath
       id="clip0_515_3621">
      <rect
         width="16"
         height="16"
         fill="#ffffff"
         transform="translate(0.00292969)"
         id="rect7969"
         x="0"
         y="0" />
    </clipPath>
    <filter
       style="color-interpolation-filters:sRGB;"
       inkscape:label="Blur"
       id="filter7349"
       x="-0.10485812"
       y="-0.10485813"
       width="1.2097162"
       height="1.2097163">
      <feGaussianBlur
         stdDeviation="2 2"
         result="blur"
         id="feGaussianBlur7347" />
    </filter>
    <filter
       style="color-interpolation-filters:sRGB"
       inkscape:label="Blur"
       id="filter1283"
       x="-0.082344266"
       y="-0.082344266"
       width="1.1646885"
       height="1.1646885">
      <feGaussianBlur
         stdDeviation="0.5 0.5"
         result="blur"
         id="feGaussianBlur1281" />
    </filter>
    <linearGradient
       inkscape:collect="always"
       xlink:href="#linearGradient883"
       id="linearGradient885"
       x1="2.1085808"
       y1="2.0236168"
       x2="14.846128"
       y2="15.071845"
       gradientUnits="userSpaceOnUse"
       gradientTransform="matrix(2.4606127,0,0,3.1451148,11.16612,5.3876879)" />
    <linearGradient
       inkscape:collect="always"
       id="linearGradient883">
      <stop
         style="stop-color:#808080;stop-opacity:1;"
         offset="0"
         id="stop879" />
      <stop
         style="stop-color:#3e3e3e;stop-opacity:1;"
         offset="0.5"
         id="stop1216" />
      <stop
         style="stop-color:#242424;stop-opacity:1;"
         offset="1"
         id="stop881" />
    </linearGradient>
    <linearGradient
       inkscape:collect="always"
       xlink:href="#linearGradient1134"
       id="linearGradient1136"
       x1="14.971222"
       y1="14.703373"
       x2="2.0756054"
       y2="2.0069976"
       gradientUnits="userSpaceOnUse"
       gradientTransform="matrix(2.4106819,0,0,3.1438568,11.58952,5.3983817)" />
    <linearGradient
       inkscape:collect="always"
       id="linearGradient1134">
      <stop
         style="stop-color:#161616;stop-opacity:1;"
         offset="0"
         id="stop1130" />
      <stop
         style="stop-color:#404040;stop-opacity:1;"
         offset="1"
         id="stop1132" />
    </linearGradient>
    <filter
       style="color-interpolation-filters:sRGB"
       inkscape:label="Blur"
       id="filter1694"
       x="-0.94955398"
       y="-0.2118907"
       width="2.899108"
       height="1.4237814">
      <feGaussianBlur
         stdDeviation="0.2 0.2"
         result="blur"
         id="feGaussianBlur1692" />
    </filter>
  </defs>
  <g
     id="g877"
     transform="matrix(1.1,0,0,1.1,-3.1845928,-3.2065454)">
    <path
       style="fill:#f5f7fa;stroke-width:0.204426;fill-opacity:1"
       d=""
       id="path3" />
    <rect
       style="fill:#000000;stroke:none;stroke-width:0.539739;stroke-dasharray:none;filter:url(#filter1283)"
       id="rect246-1"
       width="14.572964"
       height="14.572964"
       x="1.1932471"
       y="1.2138842"
       rx="2.1589575"
       ry="2.1589575"
       transform="matrix(2.4606127,0,0,3.1451146,11.16612,5.3876877)" />
    <rect
       style="fill:#000000;stroke:url(#linearGradient885);stroke-width:1.63561;stroke-dasharray:none"
       id="rect246"
       width="35.155312"
       height="44.93494"
       x="14.453793"
       y="9.6548424"
       rx="5.2081943"
       ry="5.181818" />
    <rect
       style="fill:url(#linearGradient1136);fill-opacity:1;stroke:none;stroke-width:1.31679;stroke-dasharray:none"
       id="rect246-5"
       width="31.13278"
       height="40.601383"
       x="16.465055"
       y="11.821622"
       rx="3.1818182"
       ry="3.1725934" />
    <g
       id="g900"
       transform="matrix(2.5940871,0,0,2.5940869,6.0801294,0.28962173)"
       style="fill:#999999;fill-opacity:1;stroke:none;stroke-width:0.381637;stroke-dasharray:none;stroke-opacity:0.3">
      <path
         style="fill:#999999;fill-opacity:1;stroke:none;stroke-width:0.381637;stroke-dasharray:none;stroke-opacity:0.3"
         d="M 10.028202,12.438946 7.7002565,10.110821 10.028202,7.7830422 10.804265,8.55895 9.2521573,10.110821 10.02815,10.886839 12.356122,8.5590722 10.328159,6.5311799 c -0.165575,-0.1657409 -0.434169,-0.1657409 -0.5999101,0 L 6.448313,9.8111269 c -0.1655893,0.1655747 -0.1655893,0.4341831 0,0.5998991 l 3.2799359,3.279849 c 0.1657411,0.165675 0.4343351,0.165675 0.5999101,0 l 3.279962,-3.279849 c 0.165589,-0.165716 0.165589,-0.4343247 0,-0.5998991 L 13.131992,9.3351205 Z"
         id="path14" />
    </g>
    <path
       d="m 26.309138,45.628178 q 0.418182,0 0.715152,0.181818 0.303031,0.181819 0.460606,0.515152 0.163637,0.327273 0.163637,0.769698 v 0.321212 h -2.224244 q 0.01212,0.551516 0.278788,0.842425 0.272728,0.284848 0.757576,0.284848 0.309091,0 0.545455,-0.05455 0.242425,-0.06061 0.49697,-0.169697 v 0.466667 q -0.248485,0.109091 -0.490909,0.157576 -0.242425,0.05455 -0.575758,0.05455 -0.460606,0 -0.818182,-0.187879 -0.351516,-0.187879 -0.551516,-0.557576 -0.193939,-0.375758 -0.193939,-0.915152 0,-0.533334 0.175757,-0.915152 0.181819,-0.381818 0.503031,-0.587879 0.327273,-0.206061 0.757576,-0.206061 z m -0.0061,0.436364 q -0.381819,0 -0.606061,0.248485 -0.218182,0.242424 -0.260607,0.678788 h 1.654547 q -0.0061,-0.412121 -0.19394,-0.666667 -0.187879,-0.260606 -0.593939,-0.260606 z m 3.715148,-0.436364 q 0.600001,0 0.963637,0.418182 0.369698,0.418182 0.369698,1.260607 0,0.830304 -0.369698,1.260607 -0.363636,0.430303 -0.969697,0.430303 -0.375758,0 -0.624243,-0.139394 -0.242424,-0.145454 -0.381818,-0.333333 h -0.03636 q 0.01212,0.10303 0.02424,0.260606 0.01212,0.157576 0.01212,0.272727 v 1.333334 h -0.533334 v -4.703033 h 0.436364 l 0.07273,0.442425 h 0.02424 q 0.145454,-0.212122 0.381818,-0.357576 0.236364,-0.145455 0.630303,-0.145455 z m -0.09697,0.448485 q -0.49697,0 -0.703031,0.278788 -0.2,0.278788 -0.212121,0.848486 v 0.10303 q 0,0.6 0.193939,0.927273 0.2,0.321213 0.733334,0.321213 0.29697,0 0.484849,-0.163637 0.193939,-0.163636 0.284848,-0.442424 0.09697,-0.284849 0.09697,-0.648486 0,-0.557576 -0.218182,-0.890909 -0.212121,-0.333334 -0.660606,-0.333334 z m 4.993941,-0.387879 v 3.248487 h -0.436364 l -0.07879,-0.430303 h -0.02424 q -0.157576,0.254545 -0.436364,0.375758 -0.278788,0.115151 -0.593939,0.115151 -0.587879,0 -0.884849,-0.278788 -0.29697,-0.284848 -0.29697,-0.903031 v -2.127274 h 0.539394 v 2.090911 q 0,0.775758 0.721213,0.775758 0.539394,0 0.745455,-0.303031 0.212121,-0.30303 0.212121,-0.872728 v -1.69091 z m 1.563637,-0.236364 q 0,0.206061 -0.01212,0.38788 -0.0061,0.175757 -0.01818,0.278788 h 0.0303 q 0.139394,-0.206061 0.381818,-0.345455 0.242425,-0.139394 0.624243,-0.139394 0.606061,0 0.969698,0.424242 0.369697,0.418183 0.369697,1.254547 0,0.836364 -0.369697,1.260607 -0.369698,0.424242 -0.969698,0.424242 -0.381818,0 -0.624243,-0.139394 -0.242424,-0.139394 -0.381818,-0.333333 h -0.04242 l -0.10909,0.412121 h -0.381819 v -4.606063 h 0.533334 z m 0.915152,0.624243 q -0.515152,0 -0.715152,0.29697 -0.2,0.29697 -0.2,0.921213 v 0.02424 q 0,0.600001 0.193939,0.921213 0.2,0.315152 0.733334,0.315152 0.436364,0 0.648485,-0.321213 0.218182,-0.321212 0.218182,-0.927273 0,-1.230304 -0.878788,-1.230304 z"
       id="text5786"
       style="font-size:6.06061px;text-align:center;text-anchor:middle;fill:#999999;stroke-width:1.81818"
       aria-label="epub" />
  </g>
</svg>
