<?xml version="1.0" encoding="UTF-8" standalone="no"?>
<svg
   width="64"
   height="64"
   version="1.1"
   viewBox="0 0 16.933 16.933"
   id="svg7"
   sodipodi:docname="application-wps-office.dotx.svg"
   inkscape:version="1.3.2 (091e20ef0f, 2023-11-25)"
   xmlns:inkscape="http://www.inkscape.org/namespaces/inkscape"
   xmlns:sodipodi="http://sodipodi.sourceforge.net/DTD/sodipodi-0.dtd"
   xmlns:xlink="http://www.w3.org/1999/xlink"
   xmlns="http://www.w3.org/2000/svg"
   xmlns:svg="http://www.w3.org/2000/svg"
   xmlns:rdf="http://www.w3.org/1999/02/22-rdf-syntax-ns#"
   xmlns:cc="http://creativecommons.org/ns#"
   xmlns:dc="http://purl.org/dc/elements/1.1/">
  <sodipodi:namedview
     id="namedview7"
     pagecolor="#9c4444"
     bordercolor="#000000"
     borderopacity="0.25"
     inkscape:showpageshadow="2"
     inkscape:pageopacity="0.0"
     inkscape:pagecheckerboard="0"
     inkscape:deskcolor="#d1d1d1"
     inkscape:zoom="8.7062522"
     inkscape:cx="33.251966"
     inkscape:cy="26.417797"
     inkscape:window-width="1463"
     inkscape:window-height="664"
     inkscape:window-x="167"
     inkscape:window-y="273"
     inkscape:window-maximized="0"
     inkscape:current-layer="svg7"
     showgrid="false" />
  <defs
     id="defs2">
    <linearGradient
       id="linearGradient5"
       inkscape:collect="always">
      <stop
         style="stop-color:#392713;stop-opacity:1;"
         offset="0"
         id="stop2" />
      <stop
         style="stop-color:#eed59e;stop-opacity:1;"
         offset="0.5"
         id="stop3" />
      <stop
         style="stop-color:#beaa8a;stop-opacity:1;"
         offset="1"
         id="stop4" />
    </linearGradient>
    <linearGradient
       id="linearGradient8"
       inkscape:collect="always">
      <stop
         style="stop-color:#1a1a1a;stop-opacity:1;"
         offset="0"
         id="stop8" />
      <stop
         style="stop-color:#ffffff;stop-opacity:0;"
         offset="1"
         id="stop9" />
    </linearGradient>
    <linearGradient
       inkscape:collect="always"
       xlink:href="#linearGradient5"
       id="linearGradient41"
       x1="13.675659"
       y1="16.110115"
       x2="13.728528"
       y2="10.548769"
       gradientUnits="userSpaceOnUse"
       gradientTransform="matrix(1.6061171,0,0,2.1084059,-12.924569,-19.742698)" />
    <linearGradient
       inkscape:collect="always"
       xlink:href="#linearGradient42"
       id="linearGradient4"
       x1="11.885941"
       y1="16.50819"
       x2="12.026573"
       y2="10.244942"
       gradientUnits="userSpaceOnUse"
       gradientTransform="matrix(1.6061171,0,0,2.1084059,-12.924569,-19.742698)" />
    <linearGradient
       id="linearGradient42"
       inkscape:collect="always">
      <stop
         style="stop-color:#010101;stop-opacity:1;"
         offset="0"
         id="stop42" />
      <stop
         style="stop-color:#6e6c6d;stop-opacity:1;"
         offset="1"
         id="stop43" />
    </linearGradient>
    <linearGradient
       inkscape:collect="always"
       xlink:href="#linearGradient8"
       id="linearGradient9"
       x1="9.3404646"
       y1="4.1692023"
       x2="9.4279938"
       y2="16.46883"
       gradientUnits="userSpaceOnUse"
       gradientTransform="matrix(0.80952478,0,0,1.0980733,1.5663172,-0.59391329)" />
    <filter
       style="color-interpolation-filters:sRGB;"
       inkscape:label="Blur"
       id="filter2"
       x="-0.14510849"
       y="-0.14612901"
       width="1.290217"
       height="1.292258">
      <feGaussianBlur
         stdDeviation="0.6 0.6"
         result="blur"
         id="feGaussianBlur2" />
    </filter>
    <linearGradient
       inkscape:collect="always"
       xlink:href="#linearGradient5"
       id="linearGradient10"
       x1="8.7731524"
       y1="12.888865"
       x2="8.7036247"
       y2="3.531251"
       gradientUnits="userSpaceOnUse"
       gradientTransform="translate(1.5e-6)" />
  </defs>
  <metadata
     id="metadata2">
    <rdf:RDF>
      <cc:Work
         rdf:about="">
        <dc:format>image/svg+xml</dc:format>
        <dc:type
           rdf:resource="http://purl.org/dc/dcmitype/StillImage" />
      </cc:Work>
    </rdf:RDF>
  </metadata>
  <rect
     style="fill:#000000;fill-opacity:0.996424;stroke:#000000;stroke-width:0.911802;stroke-dasharray:none;stroke-opacity:1;filter:url(#filter2)"
     id="rect1-2-3"
     width="13.065404"
     height="12.974159"
     x="1.9816793"
     y="1.9267306"
     rx="2.7149384"
     ry="2.8310909"
     transform="matrix(0.78494475,0,0,1.0304244,1.8310625,-0.25598506)" />
  <rect
     style="fill:url(#linearGradient4);fill-opacity:0.996424;stroke:url(#linearGradient41);stroke-width:0.820027;stroke-dasharray:none;stroke-opacity:1"
     id="rect1-2"
     width="10.25562"
     height="13.36889"
     x="3.3865712"
     y="1.7293652"
     rx="2.1310766"
     ry="2.9172251" />
  <path
     style="fill:#000000;stroke-width:0.0747239;opacity:0.3"
     d="m 6.4282792,13.51798 c -0.00665,-0.0274 -0.00239,-0.486957 0.00944,-1.021238 0.012696,-0.572993 -0.017937,-0.971421 -0.074686,-0.971421 -0.052916,0 -0.1728163,0.273034 -0.2664494,0.60674 -0.093633,0.333705 -0.1860543,0.590926 -0.2053795,0.5716 C 5.8567693,12.669231 6.1861212,11.013708 6.4824021,9.7319297 6.5647341,9.3757421 6.633672,8.9178449 6.635597,8.714381 6.637517,8.5109162 6.730577,8.1123598 6.8423843,7.8287005 7.0441889,7.3167194 7.0387385,6.518066 6.8325643,6.3906467 6.7872274,6.3626297 6.6550374,6.5537257 6.5388101,6.8153122 6.3599023,7.2179708 6.3313562,7.4513871 6.3527084,8.3370685 6.3733394,9.1926524 6.3518085,9.3832139 6.2345204,9.3832139 6.1223403,9.3832139 6.0727133,9.1218214 6.0066263,8.1828694 5.9359723,7.179024 5.9478623,6.9209653 6.0792633,6.6064804 6.1656803,6.3996562 6.2773756,6.2557713 6.3274767,6.2867351 6.3775757,6.3177021 6.4493733,6.2202981 6.4870237,6.0702888 6.6026524,5.6095885 6.7189193,5.531989 7.0426969,5.6994206 7.1988582,5.7801736 7.45856,5.846246 7.619813,5.846246 c 0.1686993,0 0.3175364,0.063455 0.350535,0.1494492 0.071237,0.1856403 0.4621344,0.1987021 0.4621344,0.015439 0,-0.2033299 0.3708233,-0.4957415 0.5442705,-0.4291838 0.1237565,0.04749 0.1531613,0.2513274 0.1531613,1.0617691 v 1.0029977 l 0.4732535,0.2030397 c 0.5866043,0.2516714 1.0212353,0.3437955 1.0212353,0.2164623 0,-0.053069 -0.08967,-0.3571188 -0.199266,-0.6756662 -0.109595,-0.3185468 -0.193672,-0.7402872 -0.186836,-0.9372015 0.0109,-0.3137999 0.02171,-0.2964888 0.08762,0.1401389 0.04136,0.2739903 0.19583,0.7671728 0.34327,1.0959621 0.235588,0.5253507 0.254808,0.642613 0.158602,0.9676042 -0.119651,0.4041872 -0.07189,0.695771 0.223428,1.3641863 0.141167,0.319509 0.177616,0.55726 0.134103,0.874726 -0.03928,0.286584 -0.0058,0.580046 0.09765,0.856463 0.08657,0.231274 0.17512,0.555004 0.196765,0.719398 0.03635,0.276117 0.03299,0.279864 -0.04418,0.04918 -0.04594,-0.137349 -0.15758,-0.392923 -0.248084,-0.567941 -0.106492,-0.205933 -0.164555,-0.561577 -0.164555,-1.007927 0,-0.481155 -0.06243,-0.830853 -0.20647,-1.1564727 C 10.686918,9.4958066 10.62114,9.1675167 10.639913,8.9075189 10.673366,8.4440459 10.662665,8.436981 9.3999371,8.0894356 8.7495533,7.9104304 8.6317461,7.7411399 8.6317461,6.9855402 c 0,-0.5998348 -0.1531449,-0.5558724 -0.3610386,0.1036421 -0.1708294,0.5419344 -0.1699219,0.5554649 0.1386224,2.0673832 0.1708191,0.8370338 0.3614329,1.9926435 0.4235858,2.5680235 0.1429741,1.323562 0.2269321,1.501444 0.78472,1.662599 0.2408495,0.06959 0.4540573,0.142673 0.4737983,0.162411 0.01974,0.01973 -0.2894058,0.02599 -0.6869898,0.0139 L 8.6815634,13.541519 8.6238104,13.006683 C 8.5920584,12.712509 8.5095915,12.337328 8.4405696,12.172933 8.3715486,12.00854 8.2374036,11.515357 8.1424745,11.076972 7.9740519,10.299202 7.9623014,10.279159 7.6570518,10.248975 c -0.2792871,-0.02761 -0.3298238,0.0098 -0.4714205,0.348647 -0.08723,0.208769 -0.2286615,0.794277 -0.3142935,1.30113 -0.1899698,1.124424 -0.1081791,1.327194 0.6081016,1.507556 0.2501838,0.063 0.4548783,0.127869 0.4548783,0.144161 0,0.05177 -1.4934169,0.01954 -1.5060414,-0.03249 z M 8.0975572,5.8960621 C 8.0660162,5.8138651 7.9155046,5.7450241 7.7630899,5.7430827 7.610676,5.7411127 7.3738857,5.6754767 7.2368908,5.597164 6.9265274,5.4197439 6.5742929,5.4078524 6.4991195,5.572261 6.4678015,5.640758 6.4694655,5.53988 6.5027895,5.3480869 6.6000695,4.7886989 6.8149139,4.4673878 7.2349474,4.2531022 7.8083206,3.9605878 8.2710913,3.9986149 9.0955619,4.4059939 9.4886404,4.6002182 9.8651403,4.8252669 9.9322276,4.9061023 9.9993136,4.9869373 9.7968446,4.9176983 9.4822954,4.7522336 8.8221088,4.4049546 8.1335558,4.3379605 8.1335558,4.621005 c 0,0.093288 0.1397548,0.3138036 0.3105648,0.4900352 0.3091758,0.3189886 0.3096206,0.3210096 0.099633,0.4521491 -0.1160128,0.072451 -0.2109319,0.2106137 -0.2109319,0.3070288 0,0.2141277 -0.1564506,0.2313151 -0.235295,0.025854 z"
     id="path1-8" />
  <path
     style="fill:url(#linearGradient10);stroke-width:0.0747239"
     d="m 6.4282792,12.988824 c -0.00665,-0.0274 -0.00239,-0.486957 0.00944,-1.021238 0.012696,-0.572993 -0.017937,-0.971421 -0.074686,-0.971421 -0.052916,0 -0.1728163,0.273034 -0.2664494,0.60674 -0.093633,0.333705 -0.1860543,0.590926 -0.2053795,0.5716 C 5.8567693,12.140075 6.1861212,10.484552 6.4824021,9.2027735 6.5647341,8.8465859 6.633672,8.3886887 6.635597,8.1852248 6.637517,7.98176 6.730577,7.5832036 6.8423843,7.2995443 7.0441889,6.7875632 7.0387385,5.9889098 6.8325643,5.8614905 6.7872274,5.8334735 6.6550374,6.0245695 6.5388101,6.286156 6.3599023,6.6888146 6.3313562,6.9222309 6.3527084,7.8079123 6.3733394,8.6634962 6.3518085,8.8540577 6.2345204,8.8540577 6.1223403,8.8540577 6.0727133,8.5926652 6.0066263,7.6537132 5.9359723,6.6498678 5.9478623,6.3918091 6.0792633,6.0773242 6.1656803,5.8705 6.2773756,5.7266151 6.3274767,5.7575789 6.3775757,5.7885459 6.4493733,5.6911419 6.4870237,5.5411326 6.6026524,5.0804323 6.7189193,5.0028328 7.0426969,5.1702644 7.1988582,5.2510174 7.45856,5.3170898 7.619813,5.3170898 c 0.1686993,0 0.3175364,0.063455 0.350535,0.1494492 0.071237,0.1856403 0.4621344,0.1987021 0.4621344,0.015439 0,-0.2033299 0.3708233,-0.4957415 0.5442705,-0.4291838 0.1237565,0.04749 0.1531613,0.2513274 0.1531613,1.0617691 V 7.117561 l 0.4732535,0.2030397 c 0.5866043,0.2516714 1.0212353,0.3437955 1.0212353,0.2164623 0,-0.053069 -0.08967,-0.3571188 -0.199266,-0.6756662 C 10.315542,6.54285 10.231465,6.1211096 10.238301,5.9241953 c 0.0109,-0.3137999 0.02171,-0.2964888 0.08762,0.1401389 0.04136,0.2739903 0.19583,0.7671728 0.34327,1.0959621 0.235588,0.5253506 0.254808,0.642613 0.158602,0.9676041 -0.119651,0.4041872 -0.07189,0.695771 0.223428,1.3641866 0.141167,0.319509 0.177616,0.55726 0.134103,0.874726 -0.03928,0.286584 -0.0058,0.580046 0.09765,0.856463 0.08657,0.231274 0.17512,0.555004 0.196765,0.719398 0.03635,0.276117 0.03299,0.279864 -0.04418,0.04918 -0.04594,-0.137349 -0.15758,-0.392923 -0.248084,-0.567941 -0.106492,-0.205933 -0.164555,-0.561577 -0.164555,-1.007927 0,-0.4811549 -0.06243,-0.830853 -0.20647,-1.156473 C 10.686918,8.9666504 10.62114,8.6383605 10.639913,8.3783627 10.673366,7.9148897 10.662665,7.9078248 9.3999371,7.5602794 8.7495533,7.3812742 8.6317461,7.2119837 8.6317461,6.456384 c 0,-0.5998348 -0.1531449,-0.5558724 -0.3610386,0.1036421 -0.1708294,0.5419344 -0.1699219,0.5554649 0.1386224,2.0673832 0.1708191,0.8370338 0.3614329,1.9926437 0.4235858,2.5680237 0.1429741,1.323562 0.2269321,1.501444 0.78472,1.662599 0.2408495,0.06959 0.4540573,0.142673 0.4737983,0.162411 0.01974,0.01973 -0.2894058,0.02599 -0.6869898,0.0139 L 8.6815634,13.012363 8.6238104,12.477527 C 8.5920584,12.183353 8.5095915,11.808172 8.4405696,11.643777 8.3715486,11.479384 8.2374036,10.986201 8.1424745,10.547816 7.9740519,9.7700462 7.9623014,9.7500032 7.6570518,9.719819 7.3777647,9.692207 7.327228,9.729579 7.1856313,10.068466 c -0.08723,0.208769 -0.2286615,0.794277 -0.3142935,1.30113 -0.1899698,1.124424 -0.1081791,1.327194 0.6081016,1.507556 0.2501838,0.063 0.4548783,0.127869 0.4548783,0.144161 0,0.05177 -1.4934169,0.01954 -1.5060414,-0.03249 z M 8.0975572,5.3669059 C 8.0660162,5.2847089 7.9155046,5.2158679 7.7630899,5.2139265 7.610676,5.2119565 7.3738857,5.1463205 7.2368908,5.0680078 6.9265274,4.8905877 6.5742929,4.8786962 6.4991195,5.0431048 6.4678015,5.1116018 6.4694655,5.0107238 6.5027895,4.8189307 6.6000695,4.2595427 6.8149139,3.9382316 7.2349474,3.723946 7.8083206,3.4314316 8.2710913,3.4694587 9.0955619,3.8768377 9.4886404,4.071062 9.8651403,4.2961107 9.9322276,4.3769461 9.9993136,4.4577811 9.7968446,4.3885421 9.4822954,4.2230774 8.8221088,3.8757984 8.1335558,3.8088043 8.1335558,4.0918488 c 0,0.093288 0.1397548,0.3138036 0.3105648,0.4900352 0.3091758,0.3189886 0.3096206,0.3210096 0.099633,0.4521491 -0.1160128,0.072451 -0.2109319,0.2106137 -0.2109319,0.3070288 0,0.2141277 -0.1564506,0.2313151 -0.235295,0.025854 z"
     id="path1" />
  <rect
     style="opacity:0.5;fill:none;fill-opacity:0.996424;stroke:url(#linearGradient9);stroke-width:0.50832;stroke-dasharray:none;stroke-opacity:1"
     id="rect1-2-6"
     width="8.9234324"
     height="12.035513"
     x="4.0584631"
     y="2.3962882"
     rx="1.5176033"
     ry="2.2109985" />
</svg>
