<?xml version="1.0" encoding="UTF-8" standalone="no"?>
<svg
   width="64"
   height="64"
   version="1.1"
   id="svg73"
   sodipodi:docname="apk.svg"
   inkscape:version="1.2.2 (b0a8486541, 2022-12-01)"
   xmlns:inkscape="http://www.inkscape.org/namespaces/inkscape"
   xmlns:sodipodi="http://sodipodi.sourceforge.net/DTD/sodipodi-0.dtd"
   xmlns:xlink="http://www.w3.org/1999/xlink"
   xmlns="http://www.w3.org/2000/svg"
   xmlns:svg="http://www.w3.org/2000/svg"
   xmlns:rdf="http://www.w3.org/1999/02/22-rdf-syntax-ns#"
   xmlns:cc="http://creativecommons.org/ns#"
   xmlns:dc="http://purl.org/dc/elements/1.1/">
  <metadata
     id="metadata77">
    <rdf:RDF>
      <cc:Work
         rdf:about="">
        <dc:format>image/svg+xml</dc:format>
        <dc:type
           rdf:resource="http://purl.org/dc/dcmitype/StillImage" />
      </cc:Work>
    </rdf:RDF>
  </metadata>
  <sodipodi:namedview
     pagecolor="#f5f7fa"
     bordercolor="#666666"
     borderopacity="1"
     objecttolerance="10"
     gridtolerance="10"
     guidetolerance="10"
     inkscape:pageopacity="0"
     inkscape:pageshadow="2"
     inkscape:window-width="1226"
     inkscape:window-height="603"
     id="namedview75"
     showgrid="false"
     inkscape:zoom="3.1445312"
     inkscape:cx="19.080746"
     inkscape:cy="7.9503106"
     inkscape:window-x="35"
     inkscape:window-y="32"
     inkscape:window-maximized="0"
     inkscape:current-layer="g877"
     inkscape:document-rotation="0"
     inkscape:pagecheckerboard="0"
     inkscape:showpageshadow="2"
     inkscape:deskcolor="#d1d1d1" />
  <defs
     id="defs29">
    <filter
       style="color-interpolation-filters:sRGB;"
       inkscape:label="Blur"
       id="filter6"
       x="-0.044145008"
       y="-0.044145008"
       width="1.08829"
       height="1.08829">
      <feGaussianBlur
         stdDeviation="1 1"
         result="blur"
         id="feGaussianBlur6" />
    </filter>
    <filter
       style="color-interpolation-filters:sRGB;"
       inkscape:label="Blur"
       id="filter7"
       x="-0.098100013"
       y="-0.098100021"
       width="1.1962"
       height="1.1962">
      <feGaussianBlur
         stdDeviation="2 2"
         result="blur"
         id="feGaussianBlur7" />
    </filter>
    <clipPath
       id="clip0_515_3621">
      <rect
         width="16"
         height="16"
         fill="#ffffff"
         transform="translate(0.00292969)"
         id="rect7969"
         x="0"
         y="0" />
    </clipPath>
    <filter
       style="color-interpolation-filters:sRGB;"
       inkscape:label="Blur"
       id="filter7349"
       x="-0.10485812"
       y="-0.10485813"
       width="1.2097162"
       height="1.2097163">
      <feGaussianBlur
         stdDeviation="2 2"
         result="blur"
         id="feGaussianBlur7347" />
    </filter>
    <filter
       style="color-interpolation-filters:sRGB"
       inkscape:label="Blur"
       id="filter1283"
       x="-0.082344266"
       y="-0.082344266"
       width="1.1646885"
       height="1.1646885">
      <feGaussianBlur
         stdDeviation="0.5 0.5"
         result="blur"
         id="feGaussianBlur1281" />
    </filter>
    <linearGradient
       inkscape:collect="always"
       xlink:href="#linearGradient883"
       id="linearGradient885"
       x1="2.1085808"
       y1="2.0236168"
       x2="14.846128"
       y2="15.071845"
       gradientUnits="userSpaceOnUse"
       gradientTransform="matrix(2.4606127,0,0,3.1451148,11.16612,5.3876879)" />
    <linearGradient
       inkscape:collect="always"
       id="linearGradient883">
      <stop
         style="stop-color:#808080;stop-opacity:1;"
         offset="0"
         id="stop879" />
      <stop
         style="stop-color:#3e3e3e;stop-opacity:1;"
         offset="0.5"
         id="stop1216" />
      <stop
         style="stop-color:#242424;stop-opacity:1;"
         offset="1"
         id="stop881" />
    </linearGradient>
    <linearGradient
       inkscape:collect="always"
       xlink:href="#linearGradient1134"
       id="linearGradient1136"
       x1="14.971222"
       y1="14.703373"
       x2="2.0756054"
       y2="2.0069976"
       gradientUnits="userSpaceOnUse"
       gradientTransform="matrix(2.4106819,0,0,3.1438568,11.58952,5.3983817)" />
    <linearGradient
       inkscape:collect="always"
       id="linearGradient1134">
      <stop
         style="stop-color:#161616;stop-opacity:1;"
         offset="0"
         id="stop1130" />
      <stop
         style="stop-color:#404040;stop-opacity:1;"
         offset="1"
         id="stop1132" />
    </linearGradient>
    <filter
       style="color-interpolation-filters:sRGB"
       inkscape:label="Blur"
       id="filter1694"
       x="-0.94955398"
       y="-0.2118907"
       width="2.899108"
       height="1.4237814">
      <feGaussianBlur
         stdDeviation="0.2 0.2"
         result="blur"
         id="feGaussianBlur1692" />
    </filter>
  </defs>
  <g
     id="g877"
     transform="matrix(1.1,0,0,1.1,-3.1845928,-3.2065454)">
    <path
       style="fill:#f5f7fa;stroke-width:0.204426;fill-opacity:1"
       d=""
       id="path3" />
    <rect
       style="fill:#000000;stroke:none;stroke-width:0.539739;stroke-dasharray:none;filter:url(#filter1283)"
       id="rect246-1"
       width="14.572964"
       height="14.572964"
       x="1.1932471"
       y="1.2138842"
       rx="2.1589575"
       ry="2.1589575"
       transform="matrix(2.4606127,0,0,3.1451146,11.16612,5.3876877)" />
    <rect
       style="fill:#000000;stroke:url(#linearGradient885);stroke-width:1.63561;stroke-dasharray:none"
       id="rect246"
       width="35.155312"
       height="44.93494"
       x="14.453793"
       y="9.6548424"
       rx="5.2081943"
       ry="5.181818" />
    <rect
       style="fill:url(#linearGradient1136);fill-opacity:1;stroke:none;stroke-width:1.31679;stroke-dasharray:none"
       id="rect246-5"
       width="31.13278"
       height="40.601383"
       x="16.465055"
       y="11.821622"
       rx="3.1818182"
       ry="3.1725934" />
    <g
       transform="matrix(0.83188337,0,0,0.83188345,-180.79319,557.93639)"
       fill="#ffffff"
       id="g13202"
       style="fill:#999999;fill-opacity:1">
      <circle
         cx="249"
         cy="-638"
         r="8"
         id="circle13196"
         style="fill:#999999;fill-opacity:1" />
      <path
         d="m 258,-650 h 12 v 8 h -12 z"
         id="path13198"
         style="fill:#999999;fill-opacity:1" />
      <path
         d="m 270,-638 v 12 h -12 z"
         id="path13200"
         style="fill:#999999;fill-opacity:1" />
    </g>
    <g
       aria-label="Drawing "
       id="text5786"
       style="font-size:6.06061px;text-align:center;text-anchor:middle;fill:#999999;stroke-width:1.81818">
      <path
         d="m 23.900046,46.731209 q 0,1.096971 -0.6,1.654547 -0.59394,0.551515 -1.660607,0.551515 h -1.206061 v -4.327275 h 1.333334 q 0.654546,0 1.133334,0.242424 0.478788,0.242424 0.739394,0.715152 0.260606,0.466667 0.260606,1.163637 z m -0.575758,0.01818 q 0,-0.866667 -0.430303,-1.266667 -0.424243,-0.406061 -1.206061,-0.406061 h -0.709092 v 3.393941 h 0.58788 q 1.757576,0 1.757576,-1.721213 z"
         id="path4201" />
      <path
         d="m 26.300045,45.628178 q 0.09091,0 0.19394,0.01212 0.109091,0.0061 0.187879,0.02424 l -0.06667,0.490909 q -0.07879,-0.01818 -0.175758,-0.0303 -0.09091,-0.01212 -0.175757,-0.01212 -0.248485,0 -0.466667,0.139394 -0.218182,0.133333 -0.351516,0.381818 -0.127273,0.242425 -0.127273,0.569698 v 1.733334 h -0.533333 v -3.248487 h 0.436364 l 0.06061,0.59394 h 0.02424 q 0.157576,-0.266667 0.406061,-0.460606 0.248485,-0.19394 0.587879,-0.19394 z"
         id="path4203" />
      <path
         d="m 28.397014,45.634239 q 0.59394,0 0.878788,0.260606 0.284849,0.260606 0.284849,0.830304 v 2.212122 h -0.387879 l -0.10303,-0.460606 h -0.02424 q -0.212121,0.266667 -0.448485,0.393939 -0.230303,0.127273 -0.642425,0.127273 -0.442424,0 -0.733333,-0.230303 -0.29091,-0.236364 -0.29091,-0.733334 0,-0.484849 0.381819,-0.745455 0.381818,-0.266667 1.175758,-0.290909 l 0.551516,-0.01818 v -0.193939 q 0,-0.406061 -0.175758,-0.563637 -0.175758,-0.157576 -0.49697,-0.157576 -0.254546,0 -0.484849,0.07879 -0.230303,0.07273 -0.430303,0.169697 l -0.163637,-0.4 q 0.212122,-0.115152 0.503031,-0.19394 0.290909,-0.08485 0.606061,-0.08485 z m 0.157576,1.733334 q -0.606061,0.02424 -0.842425,0.19394 -0.230303,0.169697 -0.230303,0.478788 0,0.272727 0.163636,0.4 0.169697,0.127273 0.430304,0.127273 0.412121,0 0.684848,-0.224243 0.272728,-0.230303 0.272728,-0.70303 v -0.29091 z"
         id="path4205" />
      <path
         d="M 32.663688,47.100906 Q 32.5849,46.852421 32.524294,46.616058 32.469749,46.373633 32.439446,46.2403 h -0.02424 q -0.02424,0.133333 -0.07879,0.375758 -0.05455,0.236363 -0.139394,0.490909 l -0.581818,1.824244 h -0.606061 l -0.89091,-3.248487 h 0.551516 l 0.448485,1.733334 q 0.06667,0.260606 0.127273,0.527273 0.06061,0.266667 0.08485,0.442425 h 0.02424 q 0.02424,-0.103031 0.05455,-0.254546 0.03636,-0.151515 0.07879,-0.315152 0.04242,-0.169697 0.08485,-0.30303 l 0.575758,-1.830304 h 0.581818 l 0.557576,1.830304 q 0.06667,0.206061 0.127273,0.448485 0.06667,0.242424 0.09091,0.418182 h 0.02424 q 0.01818,-0.151515 0.07879,-0.418182 0.06667,-0.266667 0.139394,-0.545455 l 0.454546,-1.733334 h 0.545455 l -0.903031,3.248487 h -0.624243 z"
         id="path4207" />
      <path
         d="m 35.603079,44.470602 q 0.121213,0 0.212122,0.08485 0.09697,0.07879 0.09697,0.254546 0,0.169697 -0.09697,0.254545 -0.09091,0.08485 -0.212122,0.08485 -0.133333,0 -0.224242,-0.08485 -0.09091,-0.08485 -0.09091,-0.254545 0,-0.175758 0.09091,-0.254546 0.09091,-0.08485 0.224242,-0.08485 z m 0.260607,1.218182 v 3.248487 h -0.533334 v -3.248487 z"
         id="path4209" />
      <path
         d="m 38.457624,45.628178 q 0.581819,0 0.878789,0.284849 0.29697,0.278788 0.29697,0.909091 v 2.115153 h -0.527274 v -2.078789 q 0,-0.781819 -0.727273,-0.781819 -0.539394,0 -0.745455,0.303031 -0.20606,0.30303 -0.20606,0.872728 v 1.684849 h -0.533334 v -3.248487 h 0.430303 l 0.07879,0.442425 h 0.0303 q 0.157576,-0.254546 0.436364,-0.375758 0.278788,-0.127273 0.587879,-0.127273 z"
         id="path4211" />
      <path
         d="m 41.790959,45.628178 q 0.321213,0 0.575758,0.121212 0.260607,0.121213 0.442425,0.369698 h 0.0303 l 0.07273,-0.430304 h 0.424243 v 3.303033 q 0,0.69697 -0.357576,1.048485 -0.351515,0.351515 -1.09697,0.351515 -0.715152,0 -1.169698,-0.20606 v -0.49091 q 0.478788,0.254546 1.200001,0.254546 0.418182,0 0.654546,-0.248485 0.242424,-0.242424 0.242424,-0.666667 v -0.127273 q 0,-0.07273 0.0061,-0.206061 0.0061,-0.139394 0.01212,-0.193939 h -0.02424 q -0.327273,0.490909 -1.006061,0.490909 -0.630303,0 -0.987879,-0.442424 -0.351516,-0.442425 -0.351516,-1.236365 0,-0.775758 0.351516,-1.230303 0.357576,-0.460607 0.981818,-0.460607 z m 0.07273,0.448485 q -0.406061,0 -0.630304,0.327273 -0.224242,0.321213 -0.224242,0.921213 0,0.6 0.218182,0.921213 0.224242,0.315151 0.648485,0.315151 0.490909,0 0.715152,-0.260606 0.224243,-0.266667 0.224243,-0.854546 v -0.127273 q 0,-0.666667 -0.230304,-0.951515 -0.230303,-0.29091 -0.721212,-0.29091 z"
         id="path4213" />
    </g>
  </g>
</svg>
