<?xml version="1.0" encoding="UTF-8" standalone="no"?>
<svg
   width="64"
   height="64"
   version="1.1"
   id="svg73"
   sodipodi:docname="apk.svg"
   inkscape:version="1.2.2 (b0a8486541, 2022-12-01)"
   xmlns:inkscape="http://www.inkscape.org/namespaces/inkscape"
   xmlns:sodipodi="http://sodipodi.sourceforge.net/DTD/sodipodi-0.dtd"
   xmlns:xlink="http://www.w3.org/1999/xlink"
   xmlns="http://www.w3.org/2000/svg"
   xmlns:svg="http://www.w3.org/2000/svg"
   xmlns:rdf="http://www.w3.org/1999/02/22-rdf-syntax-ns#"
   xmlns:cc="http://creativecommons.org/ns#"
   xmlns:dc="http://purl.org/dc/elements/1.1/">
  <metadata
     id="metadata77">
    <rdf:RDF>
      <cc:Work
         rdf:about="">
        <dc:format>image/svg+xml</dc:format>
        <dc:type
           rdf:resource="http://purl.org/dc/dcmitype/StillImage" />
      </cc:Work>
    </rdf:RDF>
  </metadata>
  <sodipodi:namedview
     pagecolor="#f5f7fa"
     bordercolor="#666666"
     borderopacity="1"
     objecttolerance="10"
     gridtolerance="10"
     guidetolerance="10"
     inkscape:pageopacity="0"
     inkscape:pageshadow="2"
     inkscape:window-width="1226"
     inkscape:window-height="603"
     id="namedview75"
     showgrid="false"
     inkscape:zoom="3.1445312"
     inkscape:cx="19.080746"
     inkscape:cy="7.9503106"
     inkscape:window-x="35"
     inkscape:window-y="32"
     inkscape:window-maximized="0"
     inkscape:current-layer="g877"
     inkscape:document-rotation="0"
     inkscape:pagecheckerboard="0"
     inkscape:showpageshadow="2"
     inkscape:deskcolor="#d1d1d1" />
  <defs
     id="defs29">
    <filter
       style="color-interpolation-filters:sRGB"
       inkscape:label="Blur"
       id="filter1283"
       x="-0.082344266"
       y="-0.082344266"
       width="1.1646885"
       height="1.1646885">
      <feGaussianBlur
         stdDeviation="0.5 0.5"
         result="blur"
         id="feGaussianBlur1281" />
    </filter>
    <linearGradient
       inkscape:collect="always"
       xlink:href="#linearGradient883"
       id="linearGradient885"
       x1="2.1085808"
       y1="2.0236168"
       x2="14.846128"
       y2="15.071845"
       gradientUnits="userSpaceOnUse"
       gradientTransform="matrix(2.4606127,0,0,3.1451148,11.16612,5.3876879)" />
    <linearGradient
       inkscape:collect="always"
       id="linearGradient883">
      <stop
         style="stop-color:#808080;stop-opacity:1;"
         offset="0"
         id="stop879" />
      <stop
         style="stop-color:#3e3e3e;stop-opacity:1;"
         offset="0.5"
         id="stop1216" />
      <stop
         style="stop-color:#242424;stop-opacity:1;"
         offset="1"
         id="stop881" />
    </linearGradient>
    <linearGradient
       inkscape:collect="always"
       xlink:href="#linearGradient1134"
       id="linearGradient1136"
       x1="14.971222"
       y1="14.703373"
       x2="2.0756054"
       y2="2.0069976"
       gradientUnits="userSpaceOnUse"
       gradientTransform="matrix(2.4106819,0,0,3.1438568,11.58952,5.3983817)" />
    <linearGradient
       inkscape:collect="always"
       id="linearGradient1134">
      <stop
         style="stop-color:#161616;stop-opacity:1;"
         offset="0"
         id="stop1130" />
      <stop
         style="stop-color:#404040;stop-opacity:1;"
         offset="1"
         id="stop1132" />
    </linearGradient>
  </defs>
  <g
     id="g877"
     transform="matrix(1.1,0,0,1.1,-3.1845928,-3.2065454)">
    <path
       style="fill:#f5f7fa;stroke-width:0.204426;fill-opacity:1"
       d=""
       id="path3" />
    <rect
       style="fill:#000000;stroke:none;stroke-width:0.539739;stroke-dasharray:none;filter:url(#filter1283)"
       id="rect246-1"
       width="14.572964"
       height="14.572964"
       x="1.1932471"
       y="1.2138842"
       rx="2.1589575"
       ry="2.1589575"
       transform="matrix(2.4606127,0,0,3.1451146,11.16612,5.3876877)" />
    <rect
       style="fill:#000000;stroke:url(#linearGradient885);stroke-width:1.63561;stroke-dasharray:none"
       id="rect246"
       width="35.155312"
       height="44.93494"
       x="14.453793"
       y="9.6548424"
       rx="5.2081943"
       ry="5.181818" />
    <rect
       style="fill:url(#linearGradient1136);fill-opacity:1;stroke:none;stroke-width:1.31679;stroke-dasharray:none"
       id="rect246-5"
       width="31.13278"
       height="40.601383"
       x="16.465055"
       y="11.821622"
       rx="3.1818182"
       ry="3.1725934" />
    <g
       fill="#393634"
       fill-opacity="0.51"
       id="g25"
       transform="matrix(0.81818182,0,0,0.81818182,-177.46855,-174.17587)"
       style="fill:#999999;fill-opacity:1">
      <path
         d="m 241.5,232 0.5,-1 h -3 v 3 h 1.5 c 0.373,0 0.5,0 0.5,0.5 0,0.6 0,1.5 -0.5,1.5 -1,0 -1.5,-0.5 -1.5,-0.5 v 1 c 0,0 0.5,0.5 1.5,0.5 1.5,0 1.5,-1.528 1.5,-2.5 0,-1 0,-1.5 -1.5,-1.5 H 240 v -1 z"
         id="path2"
         style="fill:#999999;fill-opacity:1" />
      <path
         d="m 245,231 a 2,3 0 0 0 -2,3 2,3 0 0 0 2,3 2,3 0 0 0 2,-3 2,3 0 0 0 -2,-3 z m 0,1 a 1,2 0 0 1 1,2 1,2 0 0 1 -1,2 1,2 0 0 1 -1,-2 1,2 0 0 1 1,-2 z"
         id="path3-0"
         style="fill:#999999;fill-opacity:1" />
      <path
         d="m 253.5,231 c -1.5,0 -1.5,0 -1.5,3 0,3 0,3 1.5,3 1.5,0 1.5,0 1.5,-2 0,-2 0,-2 -1.5,-2 H 253 c 0,-0.5 0,-1 0.5,-1 h 1 l 0.5,-1 z m 0,3 c 0.276,0 0.5,0.448 0.5,1 0,0.552 -0.224,1 -0.5,1 -0.276,0 -0.5,-0.448 -0.5,-1 v -1 z"
         id="path4"
         style="fill:#999999;fill-opacity:1" />
      <path
         d="m 259,231 -0.5,1 H 257 v 1 h 1 v 1 h -1 v 3 h -1 v -6 z"
         id="path5"
         style="fill:#999999;fill-opacity:1" />
      <path
         d="m 265,231 h 3 v 1 l -2,5 -1,-0.5 2,-4.5 h -2 z"
         id="path6"
         style="fill:#999999;fill-opacity:1" />
      <path
         d="m 240,243 c 0,4 0,4 1,4 v -2 h 1 v 4 h -1 v -1 c -2,0 -2,0 -2,-5 z"
         id="path7"
         style="fill:#999999;fill-opacity:1" />
      <path
         d="m 244.5,249 c 1.5,0 1.5,0 1.5,-3 0,-3 0,-3 -1.5,-3 -1.5,0 -1.5,0 -1.5,2 0,2 0,2 1.5,2 h 0.5 c 0,0.5 0,1 -0.5,1 h -1 l -0.5,1 z m 0,-3 c -0.276,0 -0.5,-0.448 -0.5,-1 0,-0.552 0.224,-1 0.5,-1 0.276,0 0.5,0.448 0.5,1 v 1 z"
         id="path8"
         style="fill:#999999;fill-opacity:1" />
      <path
         d="m 253.5,243 c -1.5,0 -1.5,0 -1.5,3 0,3 0,3 1.5,3 1.5,0 1.5,0 1.5,-2 0,-2 0,-2 -1.5,-2 H 253 c 0,-0.5 0,-1 0.5,-1 h 1 l 0.5,-1 z m 0,3 c 0.276,0 0.5,0.448 0.5,1 0,0.552 -0.224,1 -0.5,1 -0.276,0 -0.5,-0.448 -0.5,-1 v -1 z"
         id="path9"
         style="fill:#999999;fill-opacity:1" />
      <path
         d="m 271,231 a 2,3 0 0 0 -2,3 2,3 0 0 0 2,3 2,3 0 0 0 2,-3 2,3 0 0 0 -2,-3 z m 0,1 a 1,2 0 0 1 1,2 1,2 0 0 1 -1,2 1,2 0 0 1 -1,-2 1,2 0 0 1 1,-2 z"
         id="path10"
         style="fill:#999999;fill-opacity:1" />
      <path
         d="m 256,249 v -1 h 2 v -1 h -1 v -1 h 1 v -2 h -1.5 l -0.5,-1 h 3 v 6 z"
         id="path11"
         style="fill:#999999;fill-opacity:1" />
      <path
         d="m 272,243 -0.5,1 H 270 v 1 h 1 v 1 h -1 v 3 h -1 v -6 z"
         id="path12"
         style="fill:#999999;fill-opacity:1" />
      <path
         d="m 266.5,243 c -1.5,0 -1.5,0 -1.5,3 0,3 0,3 1.5,3 1.5,0 1.5,0 1.5,-2 0,-2 0,-2 -1.5,-2 H 266 c 0,-0.5 0,-1 0.5,-1 h 1 l 0.5,-1 z m 0,3 c 0.276,0 0.5,0.448 0.5,1 0,0.552 -0.224,1 -0.5,1 -0.276,0 -0.5,-0.448 -0.5,-1 v -1 z"
         id="path13"
         style="fill:#999999;fill-opacity:1" />
      <path
         d="m 240.5,255 c -1.5,0 -1.5,0 -1.5,3 0,3 0,3 1.5,3 1.5,0 1.5,0 1.5,-2 0,-2 0,-2 -1.5,-2 H 240 c 0,-0.5 0,-1 0.5,-1 h 1 l 0.5,-1 z m 0,3 c 0.276,0 0.5,0.448 0.5,1 0,0.552 -0.224,1 -0.5,1 -0.276,0 -0.5,-0.448 -0.5,-1 v -1 z"
         id="path14"
         style="fill:#999999;fill-opacity:1" />
      <path
         d="m 246,255 -0.5,1 H 244 v 1 h 1 v 1 h -1 v 2 h 1.5 l 0.5,1 h -3 v -6 z"
         id="path15"
         style="fill:#999999;fill-opacity:1" />
      <path
         d="m 256,261 v -1 h 2 v -1 h -1 v -1 h 1 v -2 h -1.5 l -0.5,-1 h 3 v 6 z"
         id="path16"
         style="fill:#999999;fill-opacity:1" />
      <path
         d="m 268,260 -0.5,1 H 265 v -3 h 1.5 c 0.373,0 0.5,0 0.5,-0.5 0,-0.6 0,-1.5 -0.5,-1.5 -1,0 -1.5,0.5 -1.5,0.5 v -1 c 0,0 0.5,-0.5 1.5,-0.5 1.5,0 1.5,1.528 1.5,2.5 0,1 0,1.5 -1.5,1.5 H 266 v 1 z"
         id="path17"
         style="fill:#999999;fill-opacity:1" />
      <path
         d="m 252,255 h 3 v 1 l -2,5 -1,-0.5 2,-4.5 h -2 z"
         id="path18"
         style="fill:#999999;fill-opacity:1" />
      <path
         d="m 271,255 a 2,3 0 0 0 -2,3 2,3 0 0 0 2,3 2,3 0 0 0 2,-3 2,3 0 0 0 -2,-3 z m 0,1 a 1,2 0 0 1 1,2 1,2 0 0 1 -1,2 1,2 0 0 1 -1,-2 1,2 0 0 1 1,-2 z"
         id="path19"
         style="fill:#999999;fill-opacity:1" />
      <path
         d="m 240,267 c 0,4 0,4 1,4 v -2 h 1 v 4 h -1 v -1 c -2,0 -2,0 -2,-5 z"
         id="path20"
         style="fill:#999999;fill-opacity:1" />
      <path
         d="m 244.5,273 c 1.5,0 1.5,0 1.5,-3 0,-3 0,-3 -1.5,-3 -1.5,0 -1.5,0 -1.5,2 0,2 0,2 1.5,2 h 0.5 c 0,0.5 0,1 -0.5,1 h -1 l -0.5,1 z m 0,-3 c -0.276,0 -0.5,-0.448 -0.5,-1 0,-0.552 0.224,-1 0.5,-1 0.276,0 0.5,0.448 0.5,1 v 1 z"
         id="path21"
         style="fill:#999999;fill-opacity:1" />
      <path
         d="m 253.5,267 c -1.5,0 -1.5,0 -1.5,3 0,3 0,3 1.5,3 1.5,0 1.5,0 1.5,-2 0,-2 0,-2 -1.5,-2 H 253 c 0,-0.5 0,-1 0.5,-1 h 1 l 0.5,-1 z m 0,3 c 0.276,0 0.5,0.448 0.5,1 0,0.552 -0.224,1 -0.5,1 -0.276,0 -0.5,-0.448 -0.5,-1 v -1 z"
         id="path22"
         style="fill:#999999;fill-opacity:1" />
      <path
         d="m 266.5,267 c -1.5,0 -1.5,0 -1.5,3 0,3 0,3 1.5,3 1.5,0 1.5,0 1.5,-2 0,-2 0,-2 -1.5,-2 H 266 c 0,-0.5 0,-1 0.5,-1 h 1 l 0.5,-1 z m 0,3 c 0.276,0 0.5,0.448 0.5,1 0,0.552 -0.224,1 -0.5,1 -0.276,0 -0.5,-0.448 -0.5,-1 v -1 z"
         id="path23"
         style="fill:#999999;fill-opacity:1" />
      <path
         d="m 272,267 -0.5,1 H 270 v 1 h 1 v 1 h -1 v 2 h 1.5 l 0.5,1 h -3 v -6 z"
         id="path24"
         style="fill:#999999;fill-opacity:1" />
      <path
         d="m 257,267 -0.5,1 h 0.5 v 4 h -1 v 1 h 3 v -1 h -1 v -5 z"
         id="path25"
         style="fill:#999999;fill-opacity:1" />
    </g>
  </g>
</svg>
