<?xml version="1.0" encoding="UTF-8" standalone="no"?>
<svg
   width="64"
   height="64"
   version="1.1"
   id="svg73"
   sodipodi:docname="application-x-cd-image.svg"
   inkscape:version="1.4 (e7c3feb100, 2024-10-09)"
   xmlns:inkscape="http://www.inkscape.org/namespaces/inkscape"
   xmlns:sodipodi="http://sodipodi.sourceforge.net/DTD/sodipodi-0.dtd"
   xmlns:xlink="http://www.w3.org/1999/xlink"
   xmlns="http://www.w3.org/2000/svg"
   xmlns:svg="http://www.w3.org/2000/svg"
   xmlns:rdf="http://www.w3.org/1999/02/22-rdf-syntax-ns#"
   xmlns:cc="http://creativecommons.org/ns#"
   xmlns:dc="http://purl.org/dc/elements/1.1/">
  <metadata
     id="metadata77">
    <rdf:RDF>
      <cc:Work
         rdf:about="">
        <dc:format>image/svg+xml</dc:format>
        <dc:type
           rdf:resource="http://purl.org/dc/dcmitype/StillImage" />
      </cc:Work>
    </rdf:RDF>
  </metadata>
  <sodipodi:namedview
     pagecolor="#f5f7fa"
     bordercolor="#666666"
     borderopacity="1"
     objecttolerance="10"
     gridtolerance="10"
     guidetolerance="10"
     inkscape:pageopacity="0"
     inkscape:pageshadow="2"
     inkscape:window-width="1183"
     inkscape:window-height="669"
     id="namedview75"
     showgrid="false"
     inkscape:zoom="8.8940774"
     inkscape:cx="19.394929"
     inkscape:cy="31.931361"
     inkscape:window-x="126"
     inkscape:window-y="185"
     inkscape:window-maximized="0"
     inkscape:current-layer="g877"
     inkscape:document-rotation="0"
     inkscape:pagecheckerboard="0"
     inkscape:showpageshadow="2"
     inkscape:deskcolor="#d1d1d1" />
  <defs
     id="defs29">
    <filter
       style="color-interpolation-filters:sRGB;"
       inkscape:label="Blur"
       id="filter6"
       x="-0.044145008"
       y="-0.044145008"
       width="1.08829"
       height="1.08829">
      <feGaussianBlur
         stdDeviation="1 1"
         result="blur"
         id="feGaussianBlur6" />
    </filter>
    <filter
       style="color-interpolation-filters:sRGB;"
       inkscape:label="Blur"
       id="filter7"
       x="-0.098100013"
       y="-0.098100021"
       width="1.1962"
       height="1.1962">
      <feGaussianBlur
         stdDeviation="2 2"
         result="blur"
         id="feGaussianBlur7" />
    </filter>
    <clipPath
       id="clip0_515_3621">
      <rect
         width="16"
         height="16"
         fill="#ffffff"
         transform="translate(0.00292969)"
         id="rect7969"
         x="0"
         y="0" />
    </clipPath>
    <filter
       style="color-interpolation-filters:sRGB;"
       inkscape:label="Blur"
       id="filter7349"
       x="-0.10485812"
       y="-0.10485813"
       width="1.2097162"
       height="1.2097163">
      <feGaussianBlur
         stdDeviation="2 2"
         result="blur"
         id="feGaussianBlur7347" />
    </filter>
    <filter
       style="color-interpolation-filters:sRGB"
       inkscape:label="Blur"
       id="filter1283"
       x="-0.082344266"
       y="-0.082344266"
       width="1.1646885"
       height="1.1646885">
      <feGaussianBlur
         stdDeviation="0.5 0.5"
         result="blur"
         id="feGaussianBlur1281" />
    </filter>
    <linearGradient
       inkscape:collect="always"
       xlink:href="#linearGradient883"
       id="linearGradient885"
       x1="2.1085808"
       y1="2.0236168"
       x2="14.846128"
       y2="15.071845"
       gradientUnits="userSpaceOnUse"
       gradientTransform="matrix(2.4606127,0,0,3.1451148,11.16612,5.3876879)" />
    <linearGradient
       inkscape:collect="always"
       id="linearGradient883">
      <stop
         style="stop-color:#808080;stop-opacity:1;"
         offset="0"
         id="stop879" />
      <stop
         style="stop-color:#3e3e3e;stop-opacity:1;"
         offset="0.5"
         id="stop1216" />
      <stop
         style="stop-color:#242424;stop-opacity:1;"
         offset="1"
         id="stop881" />
    </linearGradient>
    <linearGradient
       inkscape:collect="always"
       xlink:href="#linearGradient1134"
       id="linearGradient1136"
       x1="14.971222"
       y1="14.703373"
       x2="2.0756054"
       y2="2.0069976"
       gradientUnits="userSpaceOnUse"
       gradientTransform="matrix(2.4106819,0,0,3.1438568,11.58952,5.3983817)" />
    <linearGradient
       inkscape:collect="always"
       id="linearGradient1134">
      <stop
         style="stop-color:#161616;stop-opacity:1;"
         offset="0"
         id="stop1130" />
      <stop
         style="stop-color:#404040;stop-opacity:1;"
         offset="1"
         id="stop1132" />
    </linearGradient>
    <filter
       style="color-interpolation-filters:sRGB"
       inkscape:label="Blur"
       id="filter1694"
       x="-0.94955398"
       y="-0.2118907"
       width="2.899108"
       height="1.4237814">
      <feGaussianBlur
         stdDeviation="0.2 0.2"
         result="blur"
         id="feGaussianBlur1692" />
    </filter>
  </defs>
  <g
     id="g877"
     transform="matrix(1.1,0,0,1.1,-3.1845928,-3.2065454)">
    <path
       style="fill:#f5f7fa;stroke-width:0.204426;fill-opacity:1"
       d=""
       id="path3" />
    <rect
       style="fill:#000000;stroke:none;stroke-width:0.539739;stroke-dasharray:none;filter:url(#filter1283)"
       id="rect246-1"
       width="14.572964"
       height="14.572964"
       x="1.1932471"
       y="1.2138842"
       rx="2.1589575"
       ry="2.1589575"
       transform="matrix(2.4606127,0,0,3.1451146,11.16612,5.3876877)" />
    <rect
       style="fill:#000000;stroke:url(#linearGradient885);stroke-width:1.63561;stroke-dasharray:none"
       id="rect246"
       width="35.155312"
       height="44.93494"
       x="14.453793"
       y="9.6548424"
       rx="5.2081943"
       ry="5.181818" />
    <rect
       style="fill:url(#linearGradient1136);fill-opacity:1;stroke:none;stroke-width:1.31679;stroke-dasharray:none"
       id="rect246-5"
       width="31.13278"
       height="40.601383"
       x="16.465055"
       y="11.821622"
       rx="3.1818182"
       ry="3.1725934" />
    <path
       fill="#f5f7fa"
       d="m 32.088473,36.789431 c -5.725886,0 -10.36763,-4.513474 -10.36763,-10.081131 0,-5.567659 4.641744,-10.081138 10.36763,-10.081138 5.725875,0 10.367627,4.513479 10.367627,10.081138 0,5.567657 -4.641752,10.081131 -10.367627,10.081131 z m 0,-17.92202 c -4.453467,0 -8.063712,3.510488 -8.063712,7.840889 0,0.309312 0.257874,0.560061 0.575977,0.560061 0.318107,0 0.575981,-0.250745 0.575981,-0.560061 0,-3.711773 3.094495,-6.72076 6.911754,-6.72076 0.318104,0 0.575979,-0.250751 0.575979,-0.560059 0,-0.309319 -0.257866,-0.56007 -0.575979,-0.56007 z m 0,12.321394 c 2.544835,0 4.607837,-2.005992 4.607837,-4.480506 0,-2.474513 -2.063002,-4.480508 -4.607837,-4.480508 -2.54484,0 -4.607836,2.005995 -4.607836,4.480508 0,2.474514 2.062996,4.480506 4.607836,4.480506 z m 0,-1.120129 c -1.908629,0 -3.455877,-1.504492 -3.455877,-3.360377 0,-1.855887 1.547248,-3.360382 3.455877,-3.360382 1.908625,0 3.455878,1.504496 3.455878,3.360382 0,1.855885 -1.547253,3.360377 -3.455878,3.360377 z m 0,-1.120124 c 1.272416,0 2.303915,-1.002994 2.303915,-2.240253 0,-1.237259 -1.031499,-2.240254 -2.303915,-2.240254 -1.272421,0 -2.303919,1.002995 -2.303919,2.240254 0,1.237259 1.031498,2.240253 2.303919,2.240253 z"
       id="path42"
       style="fill:#999999;fill-opacity:1;stroke:none;stroke-width:0.99;stroke-dasharray:none;stroke-opacity:0.3" />
    <path
       d="m 28.439934,48.971525 q -0.430303,0 -0.769697,-0.175757 -0.333334,-0.175758 -0.527273,-0.545455 -0.187879,-0.369697 -0.187879,-0.945455 0,-0.600001 0.2,-0.975759 0.2,-0.375757 0.539394,-0.551515 0.345455,-0.175758 0.781819,-0.175758 0.248485,0 0.478788,0.05455 0.230303,0.04848 0.375758,0.121212 l -0.163637,0.442424 q -0.145454,-0.05454 -0.339394,-0.10303 -0.193939,-0.04849 -0.363637,-0.04849 -0.957576,0 -0.957576,1.230304 0,0.587879 0.230303,0.903031 0.236364,0.309091 0.69697,0.309091 0.266667,0 0.466667,-0.05455 0.206061,-0.05454 0.375758,-0.133333 v 0.472728 q -0.163636,0.08485 -0.363636,0.127272 -0.19394,0.04848 -0.472728,0.04848 z m 2.757575,0 q -0.606061,0 -0.969698,-0.418182 -0.363636,-0.424242 -0.363636,-1.260607 0,-0.836364 0.363636,-1.260606 0.369697,-0.430304 0.975758,-0.430304 0.375758,0 0.612122,0.139394 0.242424,0.139394 0.39394,0.339394 h 0.03636 q -0.0061,-0.07879 -0.02424,-0.230303 -0.01212,-0.157576 -0.01212,-0.248485 v -1.29697 h 0.533333 v 4.606063 h -0.430303 l -0.07879,-0.436364 h -0.02424 q -0.145455,0.206061 -0.387879,0.351516 -0.242425,0.145454 -0.624243,0.145454 z m 0.08485,-0.442424 q 0.515152,0 0.721213,-0.278788 0.212121,-0.284849 0.212121,-0.854546 v -0.09697 q 0,-0.606061 -0.2,-0.927273 -0.2,-0.327273 -0.739394,-0.327273 -0.430304,0 -0.648485,0.345455 -0.212122,0.339394 -0.212122,0.915152 0,0.581818 0.212122,0.90303 0.218181,0.321213 0.654545,0.321213 z m 3.721214,-2.921214 q 0.593939,0 0.878788,0.260606 0.284849,0.260606 0.284849,0.830304 v 2.212122 h -0.387879 l -0.103031,-0.460606 h -0.02424 q -0.212121,0.266667 -0.448485,0.393939 -0.230303,0.127273 -0.642425,0.127273 -0.442424,0 -0.733334,-0.230303 -0.290909,-0.236364 -0.290909,-0.733334 0,-0.484848 0.381819,-0.745455 0.381818,-0.266667 1.175758,-0.290909 l 0.551515,-0.01818 v -0.193939 q 0,-0.406061 -0.175757,-0.563637 -0.175758,-0.157576 -0.49697,-0.157576 -0.254546,0 -0.484849,0.07879 -0.230303,0.07273 -0.430303,0.169697 l -0.163637,-0.4 q 0.212121,-0.115152 0.503031,-0.19394 0.290909,-0.08485 0.606061,-0.08485 z m 0.157576,1.733334 q -0.606061,0.02424 -0.842425,0.19394 -0.230303,0.169697 -0.230303,0.478788 0,0.272727 0.163636,0.4 0.169697,0.127273 0.430303,0.127273 0.412122,0 0.684849,-0.224243 0.272728,-0.230303 0.272728,-0.70303 v -0.29091 z"
       id="text1"
       style="font-size:6.06061px;-inkscape-font-specification:sans-serif;text-align:center;text-anchor:middle;fill:#999999;stroke-width:0.454545;stroke-opacity:0.6"
       aria-label="cda" />
  </g>
</svg>
