<?xml version="1.0" encoding="UTF-8" standalone="no"?>
<svg
   width="64"
   height="64"
   version="1.1"
   id="svg73"
   sodipodi:docname="apk.svg"
   inkscape:version="1.2.2 (b0a8486541, 2022-12-01)"
   xmlns:inkscape="http://www.inkscape.org/namespaces/inkscape"
   xmlns:sodipodi="http://sodipodi.sourceforge.net/DTD/sodipodi-0.dtd"
   xmlns:xlink="http://www.w3.org/1999/xlink"
   xmlns="http://www.w3.org/2000/svg"
   xmlns:svg="http://www.w3.org/2000/svg"
   xmlns:rdf="http://www.w3.org/1999/02/22-rdf-syntax-ns#"
   xmlns:cc="http://creativecommons.org/ns#"
   xmlns:dc="http://purl.org/dc/elements/1.1/">
  <metadata
     id="metadata77">
    <rdf:RDF>
      <cc:Work
         rdf:about="">
        <dc:format>image/svg+xml</dc:format>
        <dc:type
           rdf:resource="http://purl.org/dc/dcmitype/StillImage" />
      </cc:Work>
    </rdf:RDF>
  </metadata>
  <sodipodi:namedview
     pagecolor="#f5f7fa"
     bordercolor="#666666"
     borderopacity="1"
     objecttolerance="10"
     gridtolerance="10"
     guidetolerance="10"
     inkscape:pageopacity="0"
     inkscape:pageshadow="2"
     inkscape:window-width="1226"
     inkscape:window-height="603"
     id="namedview75"
     showgrid="false"
     inkscape:zoom="3.1445312"
     inkscape:cx="19.080746"
     inkscape:cy="7.9503106"
     inkscape:window-x="35"
     inkscape:window-y="32"
     inkscape:window-maximized="0"
     inkscape:current-layer="g877"
     inkscape:document-rotation="0"
     inkscape:pagecheckerboard="0"
     inkscape:showpageshadow="2"
     inkscape:deskcolor="#d1d1d1" />
  <defs
     id="defs29">
    <filter
       style="color-interpolation-filters:sRGB;"
       inkscape:label="Blur"
       id="filter6"
       x="-0.044145008"
       y="-0.044145008"
       width="1.08829"
       height="1.08829">
      <feGaussianBlur
         stdDeviation="1 1"
         result="blur"
         id="feGaussianBlur6" />
    </filter>
    <filter
       style="color-interpolation-filters:sRGB;"
       inkscape:label="Blur"
       id="filter7"
       x="-0.098100013"
       y="-0.098100021"
       width="1.1962"
       height="1.1962">
      <feGaussianBlur
         stdDeviation="2 2"
         result="blur"
         id="feGaussianBlur7" />
    </filter>
    <clipPath
       id="clip0_515_3621">
      <rect
         width="16"
         height="16"
         fill="#ffffff"
         transform="translate(0.00292969)"
         id="rect7969"
         x="0"
         y="0" />
    </clipPath>
    <filter
       style="color-interpolation-filters:sRGB;"
       inkscape:label="Blur"
       id="filter7349"
       x="-0.10485812"
       y="-0.10485813"
       width="1.2097162"
       height="1.2097163">
      <feGaussianBlur
         stdDeviation="2 2"
         result="blur"
         id="feGaussianBlur7347" />
    </filter>
    <filter
       style="color-interpolation-filters:sRGB"
       inkscape:label="Blur"
       id="filter1283"
       x="-0.082344266"
       y="-0.082344266"
       width="1.1646885"
       height="1.1646885">
      <feGaussianBlur
         stdDeviation="0.5 0.5"
         result="blur"
         id="feGaussianBlur1281" />
    </filter>
    <linearGradient
       inkscape:collect="always"
       xlink:href="#linearGradient883"
       id="linearGradient885"
       x1="2.1085808"
       y1="2.0236168"
       x2="14.846128"
       y2="15.071845"
       gradientUnits="userSpaceOnUse"
       gradientTransform="matrix(2.4606127,0,0,3.1451148,11.16612,5.3876879)" />
    <linearGradient
       inkscape:collect="always"
       id="linearGradient883">
      <stop
         style="stop-color:#808080;stop-opacity:1;"
         offset="0"
         id="stop879" />
      <stop
         style="stop-color:#3e3e3e;stop-opacity:1;"
         offset="0.5"
         id="stop1216" />
      <stop
         style="stop-color:#242424;stop-opacity:1;"
         offset="1"
         id="stop881" />
    </linearGradient>
    <linearGradient
       inkscape:collect="always"
       xlink:href="#linearGradient1134"
       id="linearGradient1136"
       x1="14.971222"
       y1="14.703373"
       x2="2.0756054"
       y2="2.0069976"
       gradientUnits="userSpaceOnUse"
       gradientTransform="matrix(2.4106819,0,0,3.1438568,11.58952,5.3983817)" />
    <linearGradient
       inkscape:collect="always"
       id="linearGradient1134">
      <stop
         style="stop-color:#161616;stop-opacity:1;"
         offset="0"
         id="stop1130" />
      <stop
         style="stop-color:#404040;stop-opacity:1;"
         offset="1"
         id="stop1132" />
    </linearGradient>
    <filter
       style="color-interpolation-filters:sRGB"
       inkscape:label="Blur"
       id="filter1694"
       x="-0.94955398"
       y="-0.2118907"
       width="2.899108"
       height="1.4237814">
      <feGaussianBlur
         stdDeviation="0.2 0.2"
         result="blur"
         id="feGaussianBlur1692" />
    </filter>
  </defs>
  <g
     id="g877"
     transform="matrix(1.1,0,0,1.1,-3.1845928,-3.2065454)">
    <path
       style="fill:#f5f7fa;stroke-width:0.204426;fill-opacity:1"
       d=""
       id="path3" />
    <rect
       style="fill:#000000;stroke:none;stroke-width:0.539739;stroke-dasharray:none;filter:url(#filter1283)"
       id="rect246-1"
       width="14.572964"
       height="14.572964"
       x="1.1932471"
       y="1.2138842"
       rx="2.1589575"
       ry="2.1589575"
       transform="matrix(2.4606127,0,0,3.1451146,11.16612,5.3876877)" />
    <rect
       style="fill:#000000;stroke:url(#linearGradient885);stroke-width:1.63561;stroke-dasharray:none"
       id="rect246"
       width="35.155312"
       height="44.93494"
       x="14.453793"
       y="9.6548424"
       rx="5.2081943"
       ry="5.181818" />
    <rect
       style="fill:url(#linearGradient1136);fill-opacity:1;stroke:none;stroke-width:1.31679;stroke-dasharray:none"
       id="rect246-5"
       width="31.13278"
       height="40.601383"
       x="16.465055"
       y="11.821622"
       rx="3.1818182"
       ry="3.1725934" />
    <g
       id="g9420"
       style="fill:#999999;fill-opacity:1;stroke:none;stroke-width:1;stroke-dasharray:none;stroke-opacity:0.2"
       transform="matrix(0.72900002,0,0,0.72899999,10.013907,7.4622114)">
      <path
         style="fill:#999999;fill-opacity:1;stroke:none;stroke-width:1;stroke-dasharray:none;stroke-opacity:0.2"
         d="m 12.959006,28.172827 v -1.587089 l 4.233736,-2.203371 c 2.328554,-1.211855 4.221249,-2.274391 4.205988,-2.361192 -0.01526,-0.0868 -1.920442,-1.14953 -4.233735,-2.361619 l -4.205989,-2.203798 v -1.585476 -1.585477 l 1.311801,0.716002 c 0.721491,0.393801 3.243727,1.782845 5.604969,3.086766 l 4.293168,2.370764 v 1.566274 1.566273 l -4.293168,2.368852 c -2.361242,1.302869 -4.883478,2.690901 -5.604969,3.084516 l -1.311801,0.715663 z"
         id="path9414" />
      <path
         style="fill:#999999;fill-opacity:1;stroke:none;stroke-width:1;stroke-dasharray:none;stroke-opacity:0.2"
         d="M 29.17764,32.993789 V 31.48323 h 6.439751 6.439752 v 1.510559 1.510559 H 35.617391 29.17764 Z"
         id="path9416" />
    </g>
    <g
       aria-label="Script"
       id="text5786"
       style="font-size:6.06061px;text-align:center;text-anchor:middle;fill:#999999;stroke-width:1.81818">
      <path
         d="m 26.781866,47.779695 q 0,0.575758 -0.418182,0.89697 -0.418182,0.321212 -1.127274,0.321212 -0.363636,0 -0.672727,-0.05455 -0.309091,-0.05455 -0.515152,-0.151516 v -0.521212 q 0.218182,0.09697 0.539394,0.175758 0.327273,0.07879 0.672728,0.07879 0.484849,0 0.727273,-0.187879 0.248485,-0.187879 0.248485,-0.509091 0,-0.212122 -0.09091,-0.357576 -0.09091,-0.145455 -0.315152,-0.266667 -0.218182,-0.127273 -0.612121,-0.266667 -0.551516,-0.2 -0.836365,-0.49091 -0.278788,-0.290909 -0.278788,-0.793939 0,-0.345455 0.175758,-0.58788 0.175758,-0.248485 0.484849,-0.381818 0.315152,-0.133333 0.721212,-0.133333 0.357576,0 0.654546,0.06667 0.29697,0.06667 0.539395,0.175758 l -0.169698,0.466667 q -0.224242,-0.09697 -0.490909,-0.163637 -0.260606,-0.06667 -0.545455,-0.06667 -0.406061,0 -0.612121,0.175757 -0.206061,0.169698 -0.206061,0.454546 0,0.218182 0.09091,0.363637 0.09091,0.145454 0.29697,0.260606 0.206061,0.115152 0.557576,0.248485 0.381818,0.139394 0.642425,0.303031 0.266666,0.157575 0.4,0.381818 0.139394,0.224242 0.139394,0.563637 z"
         id="path5348" />
      <path
         d="m 28.884896,48.997877 q -0.430303,0 -0.769697,-0.175757 -0.333334,-0.175758 -0.527273,-0.545455 -0.187879,-0.369698 -0.187879,-0.945455 0,-0.600001 0.2,-0.975759 0.2,-0.375757 0.539394,-0.551515 0.345455,-0.175758 0.781819,-0.175758 0.248485,0 0.478788,0.05455 0.230303,0.04848 0.375758,0.121212 l -0.163637,0.442424 q -0.145454,-0.05455 -0.339394,-0.10303 -0.193939,-0.04848 -0.363636,-0.04848 -0.957577,0 -0.957577,1.230304 0,0.587879 0.230304,0.903031 0.236363,0.309091 0.69697,0.309091 0.266667,0 0.466667,-0.05455 0.20606,-0.05455 0.375757,-0.133333 v 0.472728 q -0.163636,0.08485 -0.363636,0.127272 -0.19394,0.04848 -0.472728,0.04848 z"
         id="path5350" />
      <path
         d="m 32.006107,45.628178 q 0.09091,0 0.19394,0.01212 0.109091,0.0061 0.187879,0.02424 l -0.06667,0.490909 q -0.07879,-0.01818 -0.175758,-0.0303 -0.09091,-0.01212 -0.175757,-0.01212 -0.248485,0 -0.466667,0.139394 -0.218182,0.133333 -0.351516,0.381818 -0.127272,0.242425 -0.127272,0.569698 v 1.733334 h -0.533334 v -3.248487 h 0.436364 l 0.06061,0.59394 h 0.02424 q 0.157576,-0.266667 0.406061,-0.460606 0.248485,-0.19394 0.587879,-0.19394 z"
         id="path5352" />
      <path
         d="m 33.266715,44.470602 q 0.121212,0 0.212121,0.08485 0.09697,0.07879 0.09697,0.254546 0,0.169697 -0.09697,0.254545 -0.09091,0.08485 -0.212121,0.08485 -0.133333,0 -0.224242,-0.08485 -0.09091,-0.08485 -0.09091,-0.254545 0,-0.175758 0.09091,-0.254546 0.09091,-0.08485 0.224242,-0.08485 z m 0.260606,1.218182 v 3.248487 h -0.533333 v -3.248487 z"
         id="path5354" />
      <path
         d="m 36.103077,45.628178 q 0.6,0 0.963637,0.418182 0.369697,0.418182 0.369697,1.260607 0,0.830304 -0.369697,1.260607 -0.363637,0.430303 -0.969697,0.430303 -0.375758,0 -0.624243,-0.139394 -0.242425,-0.145454 -0.381819,-0.333333 h -0.03636 q 0.01212,0.10303 0.02424,0.260606 0.01212,0.157576 0.01212,0.272727 v 1.333334 h -0.533333 v -4.703033 h 0.436364 l 0.07273,0.442425 h 0.02424 q 0.145455,-0.212122 0.381819,-0.357576 0.236363,-0.145455 0.630303,-0.145455 z m -0.09697,0.448485 q -0.49697,0 -0.70303,0.278788 -0.200001,0.278788 -0.212122,0.848486 v 0.10303 q 0,0.6 0.19394,0.927273 0.2,0.321213 0.733334,0.321213 0.296969,0 0.484848,-0.163637 0.19394,-0.163636 0.284849,-0.442424 0.09697,-0.284849 0.09697,-0.648486 0,-0.557576 -0.218182,-0.890909 -0.212122,-0.333334 -0.660607,-0.333334 z"
         id="path5356" />
      <path
         d="m 39.369745,48.561513 q 0.121212,0 0.248485,-0.01818 0.127273,-0.02424 0.20606,-0.04848 v 0.40606 q -0.08485,0.04243 -0.242424,0.06667 -0.157576,0.0303 -0.30303,0.0303 -0.254546,0 -0.472728,-0.08485 -0.212121,-0.09091 -0.345455,-0.309091 -0.133333,-0.218182 -0.133333,-0.612122 v -1.89091 H 37.866713 V 45.84636 l 0.466667,-0.212121 0.212122,-0.69091 h 0.315151 v 0.745455 h 0.939395 v 0.412122 h -0.939395 v 1.878789 q 0,0.29697 0.139395,0.442424 0.145454,0.139394 0.369697,0.139394 z"
         id="path5358" />
    </g>
  </g>
</svg>
