<?xml version="1.0" encoding="UTF-8" standalone="no"?>
<svg
   width="64"
   height="64"
   version="1.1"
   id="svg73"
   sodipodi:docname="apk.svg"
   inkscape:version="1.2.2 (b0a8486541, 2022-12-01)"
   xmlns:inkscape="http://www.inkscape.org/namespaces/inkscape"
   xmlns:sodipodi="http://sodipodi.sourceforge.net/DTD/sodipodi-0.dtd"
   xmlns:xlink="http://www.w3.org/1999/xlink"
   xmlns="http://www.w3.org/2000/svg"
   xmlns:svg="http://www.w3.org/2000/svg"
   xmlns:rdf="http://www.w3.org/1999/02/22-rdf-syntax-ns#"
   xmlns:cc="http://creativecommons.org/ns#"
   xmlns:dc="http://purl.org/dc/elements/1.1/">
  <metadata
     id="metadata77">
    <rdf:RDF>
      <cc:Work
         rdf:about="">
        <dc:format>image/svg+xml</dc:format>
        <dc:type
           rdf:resource="http://purl.org/dc/dcmitype/StillImage" />
      </cc:Work>
    </rdf:RDF>
  </metadata>
  <sodipodi:namedview
     pagecolor="#f5f7fa"
     bordercolor="#666666"
     borderopacity="1"
     objecttolerance="10"
     gridtolerance="10"
     guidetolerance="10"
     inkscape:pageopacity="0"
     inkscape:pageshadow="2"
     inkscape:window-width="1226"
     inkscape:window-height="603"
     id="namedview75"
     showgrid="false"
     inkscape:zoom="3.1445312"
     inkscape:cx="19.080746"
     inkscape:cy="7.9503106"
     inkscape:window-x="35"
     inkscape:window-y="32"
     inkscape:window-maximized="0"
     inkscape:current-layer="g877"
     inkscape:document-rotation="0"
     inkscape:pagecheckerboard="0"
     inkscape:showpageshadow="2"
     inkscape:deskcolor="#d1d1d1" />
  <defs
     id="defs29">
    <filter
       style="color-interpolation-filters:sRGB;"
       inkscape:label="Blur"
       id="filter6"
       x="-0.044145008"
       y="-0.044145008"
       width="1.08829"
       height="1.08829">
      <feGaussianBlur
         stdDeviation="1 1"
         result="blur"
         id="feGaussianBlur6" />
    </filter>
    <filter
       style="color-interpolation-filters:sRGB;"
       inkscape:label="Blur"
       id="filter7"
       x="-0.098100013"
       y="-0.098100021"
       width="1.1962"
       height="1.1962">
      <feGaussianBlur
         stdDeviation="2 2"
         result="blur"
         id="feGaussianBlur7" />
    </filter>
    <clipPath
       id="clip0_515_3621">
      <rect
         width="16"
         height="16"
         fill="#ffffff"
         transform="translate(0.00292969)"
         id="rect7969"
         x="0"
         y="0" />
    </clipPath>
    <filter
       style="color-interpolation-filters:sRGB;"
       inkscape:label="Blur"
       id="filter7349"
       x="-0.10485812"
       y="-0.10485813"
       width="1.2097162"
       height="1.2097163">
      <feGaussianBlur
         stdDeviation="2 2"
         result="blur"
         id="feGaussianBlur7347" />
    </filter>
    <filter
       style="color-interpolation-filters:sRGB"
       inkscape:label="Blur"
       id="filter1283"
       x="-0.082344266"
       y="-0.082344266"
       width="1.1646885"
       height="1.1646885">
      <feGaussianBlur
         stdDeviation="0.5 0.5"
         result="blur"
         id="feGaussianBlur1281" />
    </filter>
    <linearGradient
       inkscape:collect="always"
       xlink:href="#linearGradient883"
       id="linearGradient885"
       x1="2.1085808"
       y1="2.0236168"
       x2="14.846128"
       y2="15.071845"
       gradientUnits="userSpaceOnUse"
       gradientTransform="matrix(2.4606127,0,0,3.1451148,11.16612,5.3876879)" />
    <linearGradient
       inkscape:collect="always"
       id="linearGradient883">
      <stop
         style="stop-color:#808080;stop-opacity:1;"
         offset="0"
         id="stop879" />
      <stop
         style="stop-color:#3e3e3e;stop-opacity:1;"
         offset="0.5"
         id="stop1216" />
      <stop
         style="stop-color:#242424;stop-opacity:1;"
         offset="1"
         id="stop881" />
    </linearGradient>
    <linearGradient
       inkscape:collect="always"
       xlink:href="#linearGradient1134"
       id="linearGradient1136"
       x1="14.971222"
       y1="14.703373"
       x2="2.0756054"
       y2="2.0069976"
       gradientUnits="userSpaceOnUse"
       gradientTransform="matrix(2.4106819,0,0,3.1438568,11.58952,5.3983817)" />
    <linearGradient
       inkscape:collect="always"
       id="linearGradient1134">
      <stop
         style="stop-color:#161616;stop-opacity:1;"
         offset="0"
         id="stop1130" />
      <stop
         style="stop-color:#404040;stop-opacity:1;"
         offset="1"
         id="stop1132" />
    </linearGradient>
    <filter
       style="color-interpolation-filters:sRGB"
       inkscape:label="Blur"
       id="filter1694"
       x="-0.94955398"
       y="-0.2118907"
       width="2.899108"
       height="1.4237814">
      <feGaussianBlur
         stdDeviation="0.2 0.2"
         result="blur"
         id="feGaussianBlur1692" />
    </filter>
  </defs>
  <g
     id="g877"
     transform="matrix(1.1,0,0,1.1,-3.1845928,-3.2065454)">
    <path
       style="fill:#f5f7fa;stroke-width:0.204426;fill-opacity:1"
       d=""
       id="path3" />
    <rect
       style="fill:#000000;stroke:none;stroke-width:0.539739;stroke-dasharray:none;filter:url(#filter1283)"
       id="rect246-1"
       width="14.572964"
       height="14.572964"
       x="1.1932471"
       y="1.2138842"
       rx="2.1589575"
       ry="2.1589575"
       transform="matrix(2.4606127,0,0,3.1451146,11.16612,5.3876877)" />
    <rect
       style="fill:#000000;stroke:url(#linearGradient885);stroke-width:1.63561;stroke-dasharray:none"
       id="rect246"
       width="35.155312"
       height="44.93494"
       x="14.453793"
       y="9.6548424"
       rx="5.2081943"
       ry="5.181818" />
    <rect
       style="fill:url(#linearGradient1136);fill-opacity:1;stroke:none;stroke-width:1.31679;stroke-dasharray:none"
       id="rect246-5"
       width="31.13278"
       height="40.601383"
       x="16.465055"
       y="11.821622"
       rx="3.1818182"
       ry="3.1725934" />
    <g
       aria-label="OGG"
       id="text5786"
       style="font-size:6.06061px;text-align:center;text-anchor:middle;fill:#999999;stroke-width:1.81818">
      <path
         d="m 29.433374,46.767573 q 0,0.672727 -0.230303,1.175758 -0.224242,0.49697 -0.666667,0.775758 -0.442424,0.278788 -1.09697,0.278788 -0.672728,0 -1.121213,-0.278788 -0.442425,-0.278788 -0.660607,-0.781819 -0.218181,-0.50303 -0.218181,-1.175758 0,-0.666667 0.218181,-1.163637 0.218182,-0.49697 0.660607,-0.775758 0.448485,-0.278788 1.127273,-0.278788 0.648486,0 1.09091,0.278788 0.442425,0.272727 0.666667,0.775758 0.230303,0.49697 0.230303,1.169698 z m -3.418184,0 q 0,0.818182 0.345455,1.29091 0.345455,0.466667 1.078789,0.466667 0.739394,0 1.078788,-0.466667 0.339394,-0.472728 0.339394,-1.29091 0,-0.818183 -0.339394,-1.278789 -0.339394,-0.466667 -1.072728,-0.466667 -0.733333,0 -1.084849,0.466667 -0.345455,0.460606 -0.345455,1.278789 z"
         id="path1527" />
      <path
         d="m 32.26974,46.652421 h 1.496971 v 2.121214 q -0.351515,0.115151 -0.709091,0.169697 -0.357576,0.05455 -0.812122,0.05455 -0.672728,0 -1.133334,-0.266667 -0.460606,-0.272727 -0.703031,-0.769697 -0.236364,-0.503031 -0.236364,-1.18788 0,-0.678788 0.266667,-1.175758 0.266667,-0.49697 0.763637,-0.769697 0.503031,-0.278788 1.212122,-0.278788 0.363637,0 0.684849,0.06667 0.327273,0.06667 0.606061,0.187879 l -0.206061,0.472728 q -0.230303,-0.103031 -0.521212,-0.175758 -0.284849,-0.07273 -0.59394,-0.07273 -0.775758,0 -1.212122,0.466667 -0.430303,0.466667 -0.430303,1.278788 0,0.515152 0.163636,0.915152 0.169697,0.39394 0.527273,0.618183 0.357576,0.218182 0.939395,0.218182 0.284848,0 0.484849,-0.0303 0.2,-0.0303 0.363636,-0.07273 V 47.13727 H 32.26974 Z"
         id="path1529" />
      <path
         d="m 36.681868,46.652421 h 1.496971 v 2.121214 q -0.351515,0.115151 -0.709091,0.169697 -0.357576,0.05455 -0.812122,0.05455 -0.672728,0 -1.133334,-0.266667 -0.460606,-0.272727 -0.703031,-0.769697 -0.236364,-0.503031 -0.236364,-1.18788 0,-0.678788 0.266667,-1.175758 0.266667,-0.49697 0.763637,-0.769697 0.503031,-0.278788 1.212122,-0.278788 0.363637,0 0.684849,0.06667 0.327273,0.06667 0.606061,0.187879 l -0.206061,0.472728 q -0.230303,-0.103031 -0.521212,-0.175758 -0.284849,-0.07273 -0.59394,-0.07273 -0.775758,0 -1.212122,0.466667 -0.430303,0.466667 -0.430303,1.278788 0,0.515152 0.163636,0.915152 0.169697,0.39394 0.527273,0.618183 0.357576,0.218182 0.939395,0.218182 0.284848,0 0.484849,-0.0303 0.2,-0.0303 0.363636,-0.07273 V 47.13727 h -0.951516 z"
         id="path1531" />
    </g>
    <g
       fill="#ffffff"
       id="g11"
       transform="matrix(1.1,0,0,1.1,5.4883953,2.5152544)"
       style="fill:#999999;fill-opacity:1">
      <path
         transform="matrix(0.75,0,0,0.75,-0.391143,0.805031)"
         d="m 29.44,17.546 c -0.768,0.215 -1.386,1.072 -1.386,1.903 V 32.64 c -0.778,-0.427 -1.777,-0.6 -2.813,-0.318 -1.87,0.509 -3.042,2.153 -2.641,3.672 0.401,1.518 2.243,2.367 4.112,1.858 1.492,-0.406 2.52,-1.554 2.684,-2.765 l 0.044,-12.465 9.696,-2.719 v 9.836 c -0.778,-0.427 -1.777,-0.6 -2.813,-0.318 -1.87,0.509 -3.042,2.153 -2.641,3.672 0.401,1.519 2.243,2.367 4.112,1.858 1.492,-0.406 2.52,-1.554 2.684,-2.765 l 0.044,-16.227 c 0,-0.624 -0.369,-1.09 -0.866,-1.178 z"
         fill-rule="nonzero"
         id="path11"
         style="fill:#999999;fill-opacity:1" />
    </g>
  </g>
</svg>
