<?xml version="1.0" encoding="UTF-8" standalone="no"?>
<svg
   width="64"
   height="64"
   version="1.1"
   id="svg73"
   sodipodi:docname="application-postscript (Copy).svg"
   inkscape:version="1.2.2 (b0a8486541, 2022-12-01)"
   xmlns:inkscape="http://www.inkscape.org/namespaces/inkscape"
   xmlns:sodipodi="http://sodipodi.sourceforge.net/DTD/sodipodi-0.dtd"
   xmlns:xlink="http://www.w3.org/1999/xlink"
   xmlns="http://www.w3.org/2000/svg"
   xmlns:svg="http://www.w3.org/2000/svg"
   xmlns:rdf="http://www.w3.org/1999/02/22-rdf-syntax-ns#"
   xmlns:cc="http://creativecommons.org/ns#"
   xmlns:dc="http://purl.org/dc/elements/1.1/">
  <metadata
     id="metadata77">
    <rdf:RDF>
      <cc:Work
         rdf:about="">
        <dc:format>image/svg+xml</dc:format>
        <dc:type
           rdf:resource="http://purl.org/dc/dcmitype/StillImage" />
      </cc:Work>
    </rdf:RDF>
  </metadata>
  <sodipodi:namedview
     pagecolor="#f5f7fa"
     bordercolor="#666666"
     borderopacity="1"
     objecttolerance="10"
     gridtolerance="10"
     guidetolerance="10"
     inkscape:pageopacity="0"
     inkscape:pageshadow="2"
     inkscape:window-width="1226"
     inkscape:window-height="605"
     id="namedview75"
     showgrid="false"
     inkscape:zoom="5.6568542"
     inkscape:cx="29.875262"
     inkscape:cy="36.415999"
     inkscape:window-x="35"
     inkscape:window-y="32"
     inkscape:window-maximized="0"
     inkscape:current-layer="g877"
     inkscape:document-rotation="0"
     inkscape:pagecheckerboard="0"
     inkscape:showpageshadow="2"
     inkscape:deskcolor="#d1d1d1" />
  <defs
     id="defs29">
    <filter
       style="color-interpolation-filters:sRGB;"
       inkscape:label="Blur"
       id="filter6"
       x="-0.044145008"
       y="-0.044145008"
       width="1.08829"
       height="1.08829">
      <feGaussianBlur
         stdDeviation="1 1"
         result="blur"
         id="feGaussianBlur6" />
    </filter>
    <filter
       style="color-interpolation-filters:sRGB;"
       inkscape:label="Blur"
       id="filter7"
       x="-0.098100013"
       y="-0.098100021"
       width="1.1962"
       height="1.1962">
      <feGaussianBlur
         stdDeviation="2 2"
         result="blur"
         id="feGaussianBlur7" />
    </filter>
    <clipPath
       id="clip0_515_3621">
      <rect
         width="16"
         height="16"
         fill="#ffffff"
         transform="translate(0.00292969)"
         id="rect7969"
         x="0"
         y="0" />
    </clipPath>
    <linearGradient
       id="linearGradient42-9"
       inkscape:collect="always">
      <stop
         style="stop-color:#c0c0c0;stop-opacity:1;"
         offset="0"
         id="stop43-2" />
      <stop
         style="stop-color:#ececec;stop-opacity:1;"
         offset="1"
         id="stop42-2" />
    </linearGradient>
    <linearGradient
       id="linearGradient1180"
       inkscape:collect="always">
      <stop
         style="stop-color:#3b3a42;stop-opacity:1"
         offset="0"
         id="stop1178" />
      <stop
         style="stop-color:#5d5d5d;stop-opacity:1;"
         offset="1"
         id="stop1176" />
    </linearGradient>
    <linearGradient
       inkscape:collect="always"
       xlink:href="#linearGradient1180"
       id="linearGradient1526"
       x1="32.981461"
       y1="53.674984"
       x2="32.995148"
       y2="10.530454"
       gradientUnits="userSpaceOnUse" />
    <linearGradient
       inkscape:collect="always"
       xlink:href="#linearGradient42-9"
       id="linearGradient1581"
       x1="32.116341"
       y1="52.064545"
       x2="32.146839"
       y2="12.01838"
       gradientUnits="userSpaceOnUse" />
    <filter
       style="color-interpolation-filters:sRGB;"
       inkscape:label="Blur"
       id="filter1714"
       x="-0.12945447"
       y="-0.10485813"
       width="1.2589089"
       height="1.2097163">
      <feGaussianBlur
         stdDeviation="2 2"
         result="blur"
         id="feGaussianBlur1712" />
    </filter>
    <linearGradient
       inkscape:collect="always"
       xlink:href="#linearGradient1180"
       id="linearGradient5319"
       x1="32.111549"
       y1="42.63916"
       x2="32.036846"
       y2="19.894224"
       gradientUnits="userSpaceOnUse" />
  </defs>
  <g
     id="g877"
     transform="matrix(1.1,0,0,1.1,-3.1845928,-3.2065454)">
    <rect
       style="fill:#000000;fill-opacity:1;stroke:none;stroke-width:0.695864;stroke-dasharray:none;stroke-dashoffset:0;stroke-opacity:1;filter:url(#filter1714);opacity:0.5"
       id="rect1-6-5"
       width="37.078674"
       height="45.776134"
       x="13.446659"
       y="9.1178827"
       rx="4.146894"
       ry="5.1196208" />
    <path
       style="fill:#f5f7fa;stroke-width:0.204426;fill-opacity:1"
       d=""
       id="path3" />
    <rect
       style="fill:url(#linearGradient1526);fill-opacity:1;stroke:none;stroke-width:0.695864;stroke-dasharray:none;stroke-dashoffset:0;stroke-opacity:1"
       id="rect1-6"
       width="37.078674"
       height="45.776134"
       x="13.446659"
       y="9.1178827"
       rx="4.146894"
       ry="5.1196208" />
    <rect
       style="fill:url(#linearGradient1581);fill-opacity:1;stroke:none;stroke-width:0.726993;stroke-dasharray:none;stroke-dashoffset:0;stroke-opacity:1"
       id="rect1-6-7"
       width="33.128864"
       height="41.312965"
       x="15.421561"
       y="11.349469"
       rx="2.5972102"
       ry="3.2388213" />
    <path
       d="m 30.90874,21.696815 c -1.359326,-0.08984 -2.888018,0.875537 -2.834262,2.362991 -0.160528,0.885109 0.692918,1.545628 0.6561,2.344582 -0.502938,0.220173 -0.88511,0.220173 -1.2393,0.220173 h -5.89091 v 5.830527 c 0.460228,1.001455 1.399091,-0.428564 2.14061,-0.273927 1.4175,-0.296755 2.693618,0.945491 2.761362,2.318809 0.18851,1.309991 -0.318844,3.012464 -1.803354,3.276082 -0.800427,0.134754 -1.661972,-0.01325 -2.319546,-0.5022 -0.79159,-0.4779 -0.8424,0.570682 -0.779072,1.083927 v 5.939509 h 6.774546 c 1.001454,-0.460227 -0.428564,-1.399091 -0.273928,-2.140609 -0.296018,-1.416764 0.945492,-2.693618 2.31881,-2.761364 1.30999,-0.187772 3.012463,0.318846 3.276082,1.803355 0.13549,0.800427 -0.01325,1.661973 -0.5022,2.319545 -0.4779,0.791591 0.570681,0.8424 1.084662,0.779073 h 4.994756 V 37.55367 c 0.471272,-1.010291 1.4094,0.467591 2.175218,0.247418 1.22899,0.241527 2.474918,-0.636954 2.660482,-1.874045 0.31369,-1.369637 -0.07511,-3.186246 -1.574346,-3.666355 -0.94991,-0.323264 -1.896136,0.0891 -2.698036,0.577309 -0.737836,0.104564 -0.539755,-0.788645 -0.563318,-1.248873 0,-1.4094 0,-3.555163 0,-4.964563 H 34.11855 33.473496 c -1.010292,-0.471273 0.46759,-1.4094 0.247418,-2.175218 0.242264,-1.228991 -0.636955,-2.474919 -1.874046,-2.660482 -0.3078,-0.06628 -0.6237,-0.09205 -0.938128,-0.09205 z"
       fill="#ffffff"
       fill-opacity="0.7"
       fill-rule="nonzero"
       id="path10427-7"
       style="fill:#000000;fill-opacity:1;stroke-width:0.736364;opacity:0.2" />
    <path
       d="m 30.90874,19.878633 c -1.359326,-0.08984 -2.888018,0.875537 -2.834262,2.362991 -0.160528,0.885109 0.692918,1.545628 0.6561,2.344582 -0.502938,0.220173 -0.88511,0.220173 -1.2393,0.220173 h -5.89091 v 5.830527 c 0.460228,1.001455 1.399091,-0.428564 2.14061,-0.273927 1.4175,-0.296755 2.693618,0.945491 2.761362,2.318809 0.18851,1.309991 -0.318844,3.012464 -1.803354,3.276082 -0.800427,0.134754 -1.661972,-0.01325 -2.319546,-0.5022 -0.79159,-0.4779 -0.8424,0.570682 -0.779072,1.083927 v 5.939509 h 6.774546 c 1.001454,-0.460227 -0.428564,-1.399091 -0.273928,-2.140609 -0.296018,-1.416764 0.945492,-2.693618 2.31881,-2.761364 1.30999,-0.187772 3.012463,0.318846 3.276082,1.803355 0.13549,0.800427 -0.01325,1.661973 -0.5022,2.319545 -0.4779,0.791591 0.570681,0.8424 1.084662,0.779073 h 4.994756 v -6.743618 c 0.471272,-1.010291 1.4094,0.467591 2.175218,0.247418 1.22899,0.241527 2.474918,-0.636954 2.660482,-1.874045 0.31369,-1.369637 -0.07511,-3.186246 -1.574346,-3.666355 -0.94991,-0.323264 -1.896136,0.0891 -2.698036,0.577309 -0.737836,0.104564 -0.539755,-0.788645 -0.563318,-1.248873 0,-1.4094 0,-3.555163 0,-4.964563 H 34.11855 33.473496 c -1.010292,-0.471273 0.46759,-1.4094 0.247418,-2.175218 0.242264,-1.228991 -0.636955,-2.474919 -1.874046,-2.660482 -0.3078,-0.06628 -0.6237,-0.09205 -0.938128,-0.09205 z"
       fill="#ffffff"
       fill-opacity="0.7"
       fill-rule="nonzero"
       id="path10427"
       style="fill:url(#linearGradient5319);fill-opacity:1;stroke-width:0.736364" />
  </g>
</svg>
