<?xml version="1.0" encoding="UTF-8" standalone="no"?>
<svg
   width="64"
   height="64"
   version="1.1"
   id="svg73"
   sodipodi:docname="filetype Template.svg"
   inkscape:version="1.4 (e7c3feb100, 2024-10-09)"
   xmlns:inkscape="http://www.inkscape.org/namespaces/inkscape"
   xmlns:sodipodi="http://sodipodi.sourceforge.net/DTD/sodipodi-0.dtd"
   xmlns:xlink="http://www.w3.org/1999/xlink"
   xmlns="http://www.w3.org/2000/svg"
   xmlns:svg="http://www.w3.org/2000/svg"
   xmlns:rdf="http://www.w3.org/1999/02/22-rdf-syntax-ns#"
   xmlns:cc="http://creativecommons.org/ns#"
   xmlns:dc="http://purl.org/dc/elements/1.1/">
  <metadata
     id="metadata77">
    <rdf:RDF>
      <cc:Work
         rdf:about="">
        <dc:format>image/svg+xml</dc:format>
        <dc:type
           rdf:resource="http://purl.org/dc/dcmitype/StillImage" />
      </cc:Work>
    </rdf:RDF>
  </metadata>
  <sodipodi:namedview
     pagecolor="#f5f7fa"
     bordercolor="#666666"
     borderopacity="1"
     objecttolerance="10"
     gridtolerance="10"
     guidetolerance="10"
     inkscape:pageopacity="0"
     inkscape:pageshadow="2"
     inkscape:window-width="1183"
     inkscape:window-height="973"
     id="namedview75"
     showgrid="false"
     inkscape:zoom="6.2890624"
     inkscape:cx="19.001243"
     inkscape:cy="33.629814"
     inkscape:window-x="35"
     inkscape:window-y="32"
     inkscape:window-maximized="0"
     inkscape:current-layer="g877"
     inkscape:document-rotation="0"
     inkscape:pagecheckerboard="0"
     inkscape:showpageshadow="2"
     inkscape:deskcolor="#d1d1d1" />
  <defs
     id="defs29">
    <filter
       style="color-interpolation-filters:sRGB;"
       inkscape:label="Blur"
       id="filter6"
       x="-0.044145008"
       y="-0.044145008"
       width="1.08829"
       height="1.08829">
      <feGaussianBlur
         stdDeviation="1 1"
         result="blur"
         id="feGaussianBlur6" />
    </filter>
    <filter
       style="color-interpolation-filters:sRGB;"
       inkscape:label="Blur"
       id="filter7"
       x="-0.098100013"
       y="-0.098100021"
       width="1.1962"
       height="1.1962">
      <feGaussianBlur
         stdDeviation="2 2"
         result="blur"
         id="feGaussianBlur7" />
    </filter>
    <clipPath
       id="clip0_515_3621">
      <rect
         width="16"
         height="16"
         fill="#ffffff"
         transform="translate(0.00292969)"
         id="rect7969"
         x="0"
         y="0" />
    </clipPath>
    <filter
       style="color-interpolation-filters:sRGB;"
       inkscape:label="Blur"
       id="filter7349"
       x="-0.10485812"
       y="-0.10485813"
       width="1.2097162"
       height="1.2097163">
      <feGaussianBlur
         stdDeviation="2 2"
         result="blur"
         id="feGaussianBlur7347" />
    </filter>
    <filter
       style="color-interpolation-filters:sRGB"
       inkscape:label="Blur"
       id="filter1283"
       x="-0.082344266"
       y="-0.082344266"
       width="1.1646885"
       height="1.1646885">
      <feGaussianBlur
         stdDeviation="0.5 0.5"
         result="blur"
         id="feGaussianBlur1281" />
    </filter>
    <linearGradient
       inkscape:collect="always"
       xlink:href="#linearGradient883"
       id="linearGradient885"
       x1="2.1085808"
       y1="2.0236168"
       x2="14.846128"
       y2="15.071845"
       gradientUnits="userSpaceOnUse"
       gradientTransform="matrix(2.4606127,0,0,3.1451148,11.16612,5.3876879)" />
    <linearGradient
       inkscape:collect="always"
       id="linearGradient883">
      <stop
         style="stop-color:#808080;stop-opacity:1;"
         offset="0"
         id="stop879" />
      <stop
         style="stop-color:#3e3e3e;stop-opacity:1;"
         offset="0.5"
         id="stop1216" />
      <stop
         style="stop-color:#242424;stop-opacity:1;"
         offset="1"
         id="stop881" />
    </linearGradient>
    <linearGradient
       inkscape:collect="always"
       xlink:href="#linearGradient1134"
       id="linearGradient1136"
       x1="14.971222"
       y1="14.703373"
       x2="2.0756054"
       y2="2.0069976"
       gradientUnits="userSpaceOnUse"
       gradientTransform="matrix(2.4106819,0,0,3.1438568,11.58952,5.3983817)" />
    <linearGradient
       inkscape:collect="always"
       id="linearGradient1134">
      <stop
         style="stop-color:#161616;stop-opacity:1;"
         offset="0"
         id="stop1130" />
      <stop
         style="stop-color:#404040;stop-opacity:1;"
         offset="1"
         id="stop1132" />
    </linearGradient>
    <filter
       style="color-interpolation-filters:sRGB"
       inkscape:label="Blur"
       id="filter1694"
       x="-0.94955398"
       y="-0.2118907"
       width="2.899108"
       height="1.4237814">
      <feGaussianBlur
         stdDeviation="0.2 0.2"
         result="blur"
         id="feGaussianBlur1692" />
    </filter>
  </defs>
  <g
     id="g877"
     transform="matrix(1.1,0,0,1.1,-3.1845928,-3.2065454)">
    <path
       style="fill:#f5f7fa;stroke-width:0.204426;fill-opacity:1"
       d=""
       id="path3" />
    <rect
       style="fill:#000000;stroke:none;stroke-width:0.539739;stroke-dasharray:none;filter:url(#filter1283)"
       id="rect246-1"
       width="14.572964"
       height="14.572964"
       x="1.1932471"
       y="1.2138842"
       rx="2.1589575"
       ry="2.1589575"
       transform="matrix(2.4606127,0,0,3.1451146,11.16612,5.3876877)" />
    <rect
       style="fill:#000000;stroke:url(#linearGradient885);stroke-width:1.63561;stroke-dasharray:none"
       id="rect246"
       width="35.155312"
       height="44.93494"
       x="14.453793"
       y="9.6548424"
       rx="5.2081943"
       ry="5.181818" />
    <rect
       style="fill:url(#linearGradient1136);fill-opacity:1;stroke:none;stroke-width:1.31679;stroke-dasharray:none"
       id="rect246-5"
       width="31.13278"
       height="40.601383"
       x="16.465055"
       y="11.821622"
       rx="3.1818182"
       ry="3.1725934" />
    <path
       d="m 26.820843,22.715006 c -1.784471,0 -3.220854,1.436382 -3.220854,3.220852 v 8.588951 c 0,1.784475 1.436383,3.220858 3.220854,3.220858 h 8.588946 c 1.784471,0 3.220855,-1.436383 3.220855,-3.220858 v -4.294476 c 0,-0.593425 -0.480191,-1.073617 -1.07362,-1.073617 -0.593425,0 -1.073617,0.480192 -1.073617,1.073617 v 4.294476 c 0,0.595529 -0.478095,1.073624 -1.073618,1.073624 h -8.588946 c -0.595522,0 -1.073619,-0.478095 -1.073619,-1.073624 v -8.588951 c 0,-0.595521 0.478097,-1.073617 1.073619,-1.073617 h 4.294472 c 0.593426,0 1.073619,-0.480192 1.073619,-1.073618 0,-0.593425 -0.480193,-1.073617 -1.073619,-1.073617 z m 7.515327,-2.147237 c -0.593426,0 -1.073617,0.480191 -1.073617,1.073618 0,0.593426 0.480191,1.073619 1.073617,1.073619 h 2.774213 l -5.68053,5.680532 c -0.42148,0.419382 -0.42148,1.100878 0,1.520261 0.419381,0.419381 1.098779,0.419381 1.518162,0 l 5.682629,-5.68263 v 2.776309 c 0,0.593425 0.480192,1.073618 1.073617,1.073618 0.593425,0 1.07362,-0.480193 1.07362,-1.073618 v -5.368091 c 0,-0.09436 -0.01271,-0.186623 -0.03776,-0.276791 -0.02508,-0.09226 -0.06082,-0.178239 -0.106928,-0.260016 -0.04615,-0.08178 -0.104833,-0.155173 -0.169842,-0.222272 -0.01684,-0.01257 -0.03367,-0.02515 -0.0503,-0.03775 -0.05872,-0.05452 -0.125826,-0.100655 -0.195028,-0.138396 -0.03982,-0.02096 -0.08178,-0.03775 -0.12373,-0.05244 -0.05453,-0.02306 -0.111155,-0.03984 -0.167746,-0.05243 -0.04405,-0.01048 -0.08597,-0.01467 -0.130018,-0.01886 -0.03161,-0.01048 -0.06082,-0.01048 -0.09226,-0.01257 z m 0,0"
       id="path3-4"
       style="fill:#999999;fill-opacity:1;stroke:none;stroke-width:0.909087;stroke-dasharray:none;stroke-opacity:0.3" />
    <path
       d="m 23.793985,47.779695 q 0,0.575758 -0.418182,0.89697 -0.418182,0.321212 -1.127273,0.321212 -0.363637,0 -0.672728,-0.05455 -0.309091,-0.05455 -0.515152,-0.151516 v -0.521212 q 0.218182,0.09697 0.539394,0.175758 0.327273,0.07879 0.672728,0.07879 0.484849,0 0.727273,-0.187879 0.248485,-0.187879 0.248485,-0.509091 0,-0.212122 -0.09091,-0.357576 -0.09091,-0.145455 -0.315152,-0.266667 -0.218182,-0.127273 -0.612121,-0.266667 -0.551516,-0.2 -0.836364,-0.49091 -0.278788,-0.290909 -0.278788,-0.793939 0,-0.345455 0.175757,-0.58788 0.175758,-0.248485 0.484849,-0.381818 0.315152,-0.133333 0.721213,-0.133333 0.357576,0 0.654545,0.06667 0.29697,0.06667 0.539395,0.175758 l -0.169697,0.466667 q -0.224243,-0.09697 -0.49091,-0.163637 -0.260606,-0.06667 -0.545455,-0.06667 -0.406061,0 -0.612121,0.175757 -0.206061,0.169698 -0.206061,0.454546 0,0.218182 0.09091,0.363637 0.09091,0.145454 0.29697,0.260606 0.206061,0.115152 0.557576,0.248485 0.381819,0.139394 0.642425,0.303031 0.266667,0.157575 0.4,0.381818 0.139394,0.224242 0.139394,0.563637 z m 0.290908,-2.090911 h 0.569697 l 0.703031,1.848486 q 0.09091,0.242425 0.163637,0.466667 0.07273,0.218182 0.109091,0.418182 h 0.02424 q 0.03636,-0.151515 0.115152,-0.393939 0.07879,-0.248485 0.163636,-0.49697 l 0.660607,-1.842426 h 0.575758 l -1.400001,3.696972 q -0.169697,0.460607 -0.442425,0.733334 -0.266667,0.272727 -0.739394,0.272727 -0.145455,0 -0.254546,-0.01818 -0.109091,-0.01212 -0.187879,-0.0303 V 49.91909 q 0.06667,0.01212 0.157576,0.02424 0.09697,0.01212 0.2,0.01212 0.278788,0 0.448485,-0.157576 0.175758,-0.157576 0.272728,-0.418182 l 0.169697,-0.430304 z m 7.163643,-0.06061 q 0.551515,0 0.824242,0.284849 0.272728,0.278788 0.272728,0.909091 v 2.115153 h -0.527273 v -2.09091 q 0,-0.769698 -0.660607,-0.769698 -0.472727,0 -0.678788,0.272728 -0.2,0.272727 -0.2,0.79394 v 1.79394 h -0.527273 v -2.09091 q 0,-0.769698 -0.666667,-0.769698 -0.49091,0 -0.678788,0.303031 -0.187879,0.30303 -0.187879,0.872728 v 1.684849 H 27.684897 V 45.688784 H 28.1152 l 0.07879,0.442425 h 0.0303 q 0.151515,-0.254546 0.406061,-0.375758 0.260606,-0.127273 0.551516,-0.127273 0.763636,0 0.99394,0.545455 h 0.0303 q 0.163636,-0.278788 0.442424,-0.412121 0.284849,-0.133334 0.600001,-0.133334 z m 2.636362,3.309093 h -0.533334 v -4.606063 h 0.533334 z m 1.303027,-4.466669 q 0.121213,0 0.212122,0.08485 0.09697,0.07879 0.09697,0.254546 0,0.169697 -0.09697,0.254545 -0.09091,0.08485 -0.212122,0.08485 -0.133333,0 -0.224242,-0.08485 -0.09091,-0.08485 -0.09091,-0.254545 0,-0.175758 0.09091,-0.254546 0.09091,-0.08485 0.224242,-0.08485 z m 0.260607,1.218182 v 3.248487 h -0.533334 v -3.248487 z m 2.593936,-0.06061 q 0.581819,0 0.878789,0.284849 0.296969,0.278788 0.296969,0.909091 v 2.115153 h -0.527273 v -2.078789 q 0,-0.781819 -0.727273,-0.781819 -0.539394,0 -0.745455,0.303031 -0.206061,0.30303 -0.206061,0.872728 v 1.684849 h -0.533333 v -3.248487 h 0.430303 l 0.07879,0.442425 h 0.0303 q 0.157576,-0.254546 0.436364,-0.375758 0.278788,-0.127273 0.587879,-0.127273 z m 2.709093,1.109092 q 0,0.09697 -0.01212,0.254545 -0.0061,0.157576 -0.01212,0.272728 h 0.02424 q 0.03636,-0.04849 0.109091,-0.139394 0.07273,-0.09091 0.145454,-0.181819 0.07879,-0.09697 0.133334,-0.157575 l 1.036364,-1.096971 h 0.624243 l -1.315153,1.38788 1.406062,1.860607 h -0.642425 l -1.127273,-1.515152 -0.369697,0.321212 v 1.19394 h -0.527273 v -4.606063 h 0.527273 z"
       id="text5786"
       style="font-size:6.06061px;text-align:center;text-anchor:middle;fill:#999999;stroke-width:1.81818"
       aria-label="Symlink" />
  </g>
</svg>
