<?xml version="1.0" encoding="UTF-8" standalone="no"?>
<svg
   width="64"
   height="64"
   version="1.1"
   viewBox="0 0 16.933 16.933"
   id="svg7"
   sodipodi:docname="application-java.svg"
   inkscape:version="1.3.2 (091e20ef0f, 2023-11-25)"
   xmlns:inkscape="http://www.inkscape.org/namespaces/inkscape"
   xmlns:sodipodi="http://sodipodi.sourceforge.net/DTD/sodipodi-0.dtd"
   xmlns:xlink="http://www.w3.org/1999/xlink"
   xmlns="http://www.w3.org/2000/svg"
   xmlns:svg="http://www.w3.org/2000/svg"
   xmlns:rdf="http://www.w3.org/1999/02/22-rdf-syntax-ns#"
   xmlns:cc="http://creativecommons.org/ns#"
   xmlns:dc="http://purl.org/dc/elements/1.1/">
  <sodipodi:namedview
     id="namedview7"
     pagecolor="#9c4444"
     bordercolor="#000000"
     borderopacity="0.25"
     inkscape:showpageshadow="2"
     inkscape:pageopacity="0.0"
     inkscape:pagecheckerboard="0"
     inkscape:deskcolor="#d1d1d1"
     inkscape:zoom="4.3531261"
     inkscape:cx="47.666894"
     inkscape:cy="16.999278"
     inkscape:window-width="1463"
     inkscape:window-height="604"
     inkscape:window-x="199"
     inkscape:window-y="276"
     inkscape:window-maximized="0"
     inkscape:current-layer="svg7"
     showgrid="false" />
  <defs
     id="defs2">
    <linearGradient
       id="linearGradient5"
       inkscape:collect="always">
      <stop
         style="stop-color:#392713;stop-opacity:1;"
         offset="0"
         id="stop2" />
      <stop
         style="stop-color:#eed59e;stop-opacity:1;"
         offset="0.5"
         id="stop3" />
      <stop
         style="stop-color:#beaa8a;stop-opacity:1;"
         offset="1"
         id="stop4" />
    </linearGradient>
    <linearGradient
       id="linearGradient8"
       inkscape:collect="always">
      <stop
         style="stop-color:#1a1a1a;stop-opacity:1;"
         offset="0"
         id="stop8" />
      <stop
         style="stop-color:#ffffff;stop-opacity:0;"
         offset="1"
         id="stop9" />
    </linearGradient>
    <linearGradient
       inkscape:collect="always"
       xlink:href="#linearGradient5"
       id="linearGradient41"
       x1="13.675659"
       y1="16.110115"
       x2="13.728528"
       y2="10.548769"
       gradientUnits="userSpaceOnUse"
       gradientTransform="matrix(1.6061171,0,0,2.1084059,-12.924569,-19.742698)" />
    <linearGradient
       inkscape:collect="always"
       xlink:href="#linearGradient42"
       id="linearGradient4"
       x1="11.885941"
       y1="16.50819"
       x2="12.026573"
       y2="10.244942"
       gradientUnits="userSpaceOnUse"
       gradientTransform="matrix(1.6061171,0,0,2.1084059,-12.924569,-19.742698)" />
    <linearGradient
       id="linearGradient42"
       inkscape:collect="always">
      <stop
         style="stop-color:#010101;stop-opacity:1;"
         offset="0"
         id="stop42" />
      <stop
         style="stop-color:#6e6c6d;stop-opacity:1;"
         offset="1"
         id="stop43" />
    </linearGradient>
    <linearGradient
       inkscape:collect="always"
       xlink:href="#linearGradient8"
       id="linearGradient9"
       x1="9.3404646"
       y1="4.1692023"
       x2="9.4279938"
       y2="16.46883"
       gradientUnits="userSpaceOnUse"
       gradientTransform="matrix(0.80952478,0,0,1.0980733,1.5663172,-0.59391329)" />
    <filter
       style="color-interpolation-filters:sRGB;"
       inkscape:label="Blur"
       id="filter2"
       x="-0.14510849"
       y="-0.14612901"
       width="1.290217"
       height="1.292258">
      <feGaussianBlur
         stdDeviation="0.6 0.6"
         result="blur"
         id="feGaussianBlur2" />
    </filter>
    <linearGradient
       inkscape:collect="always"
       xlink:href="#linearGradient5"
       id="linearGradient10"
       x1="8.711483"
       y1="11.409821"
       x2="8.7185802"
       y2="5.856729"
       gradientUnits="userSpaceOnUse"
       gradientTransform="matrix(1.21,0,0,1.21,-1.7731756,-1.803344)" />
  </defs>
  <metadata
     id="metadata2">
    <rdf:RDF>
      <cc:Work
         rdf:about="">
        <dc:format>image/svg+xml</dc:format>
        <dc:type
           rdf:resource="http://purl.org/dc/dcmitype/StillImage" />
      </cc:Work>
    </rdf:RDF>
  </metadata>
  <rect
     style="fill:#000000;fill-opacity:0.996424;stroke:#000000;stroke-width:0.911802;stroke-dasharray:none;stroke-opacity:1;filter:url(#filter2)"
     id="rect1-2-3"
     width="13.065404"
     height="12.974159"
     x="1.9816793"
     y="1.9267306"
     rx="2.7149384"
     ry="2.8310909"
     transform="matrix(0.78494475,0,0,1.0304244,1.8310625,-0.25598506)" />
  <rect
     style="fill:url(#linearGradient4);fill-opacity:0.996424;stroke:url(#linearGradient41);stroke-width:0.820027;stroke-dasharray:none;stroke-opacity:1"
     id="rect1-2"
     width="10.25562"
     height="13.36889"
     x="3.3865712"
     y="1.7293652"
     rx="2.1310766"
     ry="2.9172251" />
  <path
     id="path6-0"
     style="fill:#000000;stroke:none;stroke-width:0.210044;stroke-dasharray:none;stroke-dashoffset:2.2;stroke-opacity:0.3;opacity:0.3"
     d="M 8.4023703,5.7662503 C 8.1376808,5.7664241 7.9384564,5.8164994 7.6877299,5.9406033 7.2482525,6.1581327 6.9393064,6.5177122 6.7749423,7.0023077 6.7272383,7.142945 6.7245313,7.2093698 6.7166863,8.5965056 c -0.00932,1.6485194 -0.00957,1.6430984 0.1800962,2.0376704 0.094147,0.19586 0.1411426,0.259669 0.3298335,0.447163 0.2777726,0.276005 0.5330451,0.414952 0.9095056,0.49434 0.058716,0.01237 0.2261298,0.01872 0.3720895,0.01437 0.2098882,-0.0063 0.305593,-0.0215 0.4582401,-0.07303 0.473813,-0.159927 0.8281363,-0.472506 1.0403728,-0.918117 0.168855,-0.354527 0.166148,-0.323376 0.166148,-1.9178785 0,-1.6266104 0.0062,-1.56452 -0.196916,-1.9777737 C 9.8838364,6.5154991 9.8286856,6.4399957 9.6683755,6.2811034 9.3297296,5.9454531 8.9837584,5.791169 8.5201096,5.7691226 c -0.040829,-0.00195 -0.079926,-0.00291 -0.1177391,-0.00288 z m 2.5184717,3.952266 c -0.09132,0 -0.125518,0.069769 -0.142764,0.2920917 -0.04177,0.538588 -0.240766,1.012261 -0.598952,1.42682 -0.2564567,0.296818 -0.7342956,0.587692 -1.1437534,0.696179 -0.2374773,0.06292 -0.7000264,0.08611 -0.9492989,0.04759 C 7.825549,12.140934 7.4646608,12.010699 7.2368738,11.874742 7.0214852,11.746182 6.6498445,11.400365 6.5193615,11.206869 6.3050799,10.889103 6.1457899,10.45198 6.1197864,10.111524 6.0961926,9.8026681 6.0865549,9.7669163 6.0217389,9.7373838 5.9776553,9.7172978 5.9466133,9.7177818 5.8990768,9.7394408 l -0.063589,0.029125 0.013946,0.2703492 c 0.044505,0.880865 0.5766592,1.704337 1.3767699,2.129972 0.2419637,0.128717 0.4173408,0.192555 0.6908474,0.251888 0.2548783,0.0553 0.7425282,0.06189 0.9952459,0.01353 0.5011508,-0.09588 0.9272252,-0.313562 1.306619,-0.667873 0.48659,-0.454421 0.772989,-1.060763 0.825816,-1.748039 0.01355,-0.1764325 0.0098,-0.2102774 -0.02791,-0.2518868 -0.02393,-0.026438 -0.06694,-0.048001 -0.096,-0.048001 z" />
  <path
     id="path6"
     style="fill:url(#linearGradient10);stroke:none;stroke-width:0.210044;stroke-dasharray:none;stroke-dashoffset:2.2;stroke-opacity:0.3"
     d="M 8.4023703,5.2370941 C 8.1376808,5.2372679 7.9384564,5.2873432 7.6877299,5.4114471 7.2482525,5.6289765 6.9393064,5.988556 6.7749423,6.4731515 c -0.047704,0.1406373 -0.050411,0.2070621 -0.058256,1.5941979 -0.00932,1.6485196 -0.00957,1.6430988 0.1800962,2.0376706 0.094147,0.19586 0.1411426,0.259669 0.3298335,0.447163 0.2777726,0.276005 0.5330451,0.414952 0.9095056,0.49434 0.058716,0.01237 0.2261298,0.01872 0.3720895,0.01437 0.2098882,-0.0063 0.305593,-0.0215 0.4582401,-0.07303 0.473813,-0.159927 0.8281363,-0.472506 1.0403728,-0.918117 0.168855,-0.3545274 0.166148,-0.3233759 0.166148,-1.9178787 0,-1.6266104 0.0062,-1.56452 -0.196916,-1.9777737 C 9.8838364,5.9863429 9.8286856,5.9108395 9.6683755,5.7519472 9.3297296,5.4162969 8.9837584,5.2620128 8.5201096,5.2399664 c -0.040829,-0.00195 -0.079926,-0.00291 -0.1177391,-0.00288 z m 2.5184717,3.952266 c -0.09132,0 -0.125518,0.069769 -0.142764,0.2920917 -0.04177,0.5385882 -0.240766,1.0122612 -0.598952,1.4268202 -0.2564567,0.296818 -0.7342956,0.587692 -1.1437534,0.696179 -0.2374773,0.06292 -0.7000264,0.08611 -0.9492989,0.04759 C 7.825549,11.611778 7.4646608,11.481543 7.2368738,11.345586 7.0214852,11.217026 6.6498445,10.871209 6.5193615,10.677713 6.3050799,10.359947 6.1457899,9.9228238 6.1197864,9.5823681 6.0961926,9.2735119 6.0865549,9.2377601 6.0217389,9.2082276 5.9776553,9.1881416 5.9466133,9.1886256 5.8990768,9.2102846 l -0.063589,0.029125 0.013946,0.2703491 c 0.044505,0.8808653 0.5766592,1.7043373 1.3767699,2.1299723 0.2419637,0.128717 0.4173408,0.192555 0.6908474,0.251888 0.2548783,0.0553 0.7425282,0.06189 0.9952459,0.01353 0.5011508,-0.09588 0.9272252,-0.313562 1.306619,-0.667873 0.48659,-0.454421 0.772989,-1.060763 0.825816,-1.7480391 0.01355,-0.1764326 0.0098,-0.2102775 -0.02791,-0.2518869 -0.02393,-0.026438 -0.06694,-0.048001 -0.096,-0.048001 z" />
  <rect
     style="opacity:0.5;fill:none;fill-opacity:0.996424;stroke:url(#linearGradient9);stroke-width:0.50832;stroke-dasharray:none;stroke-opacity:1"
     id="rect1-2-6"
     width="8.9234324"
     height="12.035513"
     x="4.0584631"
     y="2.3962882"
     rx="1.5176033"
     ry="2.2109985" />
</svg>
