<?xml version="1.0" encoding="UTF-8" standalone="no"?>
<svg
   width="64"
   height="64"
   version="1.1"
   id="svg73"
   sodipodi:docname="filetype Template.svg"
   inkscape:version="1.4 (e7c3feb100, 2024-10-09)"
   xmlns:inkscape="http://www.inkscape.org/namespaces/inkscape"
   xmlns:sodipodi="http://sodipodi.sourceforge.net/DTD/sodipodi-0.dtd"
   xmlns:xlink="http://www.w3.org/1999/xlink"
   xmlns="http://www.w3.org/2000/svg"
   xmlns:svg="http://www.w3.org/2000/svg"
   xmlns:rdf="http://www.w3.org/1999/02/22-rdf-syntax-ns#"
   xmlns:cc="http://creativecommons.org/ns#"
   xmlns:dc="http://purl.org/dc/elements/1.1/">
  <metadata
     id="metadata77">
    <rdf:RDF>
      <cc:Work
         rdf:about="">
        <dc:format>image/svg+xml</dc:format>
        <dc:type
           rdf:resource="http://purl.org/dc/dcmitype/StillImage" />
      </cc:Work>
    </rdf:RDF>
  </metadata>
  <sodipodi:namedview
     pagecolor="#f5f7fa"
     bordercolor="#666666"
     borderopacity="1"
     objecttolerance="10"
     gridtolerance="10"
     guidetolerance="10"
     inkscape:pageopacity="0"
     inkscape:pageshadow="2"
     inkscape:window-width="1183"
     inkscape:window-height="973"
     id="namedview75"
     showgrid="false"
     inkscape:zoom="4.4470387"
     inkscape:cx="19.226278"
     inkscape:cy="8.4325779"
     inkscape:window-x="35"
     inkscape:window-y="32"
     inkscape:window-maximized="0"
     inkscape:current-layer="g877"
     inkscape:document-rotation="0"
     inkscape:pagecheckerboard="0"
     inkscape:showpageshadow="2"
     inkscape:deskcolor="#d1d1d1" />
  <defs
     id="defs29">
    <filter
       style="color-interpolation-filters:sRGB;"
       inkscape:label="Blur"
       id="filter6"
       x="-0.044145008"
       y="-0.044145008"
       width="1.08829"
       height="1.08829">
      <feGaussianBlur
         stdDeviation="1 1"
         result="blur"
         id="feGaussianBlur6" />
    </filter>
    <filter
       style="color-interpolation-filters:sRGB;"
       inkscape:label="Blur"
       id="filter7"
       x="-0.098100013"
       y="-0.098100021"
       width="1.1962"
       height="1.1962">
      <feGaussianBlur
         stdDeviation="2 2"
         result="blur"
         id="feGaussianBlur7" />
    </filter>
    <clipPath
       id="clip0_515_3621">
      <rect
         width="16"
         height="16"
         fill="#ffffff"
         transform="translate(0.00292969)"
         id="rect7969"
         x="0"
         y="0" />
    </clipPath>
    <filter
       style="color-interpolation-filters:sRGB;"
       inkscape:label="Blur"
       id="filter7349"
       x="-0.10485812"
       y="-0.10485813"
       width="1.2097162"
       height="1.2097163">
      <feGaussianBlur
         stdDeviation="2 2"
         result="blur"
         id="feGaussianBlur7347" />
    </filter>
    <filter
       style="color-interpolation-filters:sRGB"
       inkscape:label="Blur"
       id="filter1283"
       x="-0.082344266"
       y="-0.082344266"
       width="1.1646885"
       height="1.1646885">
      <feGaussianBlur
         stdDeviation="0.5 0.5"
         result="blur"
         id="feGaussianBlur1281" />
    </filter>
    <linearGradient
       inkscape:collect="always"
       xlink:href="#linearGradient883"
       id="linearGradient885"
       x1="2.1085808"
       y1="2.0236168"
       x2="14.846128"
       y2="15.071845"
       gradientUnits="userSpaceOnUse"
       gradientTransform="matrix(2.4606127,0,0,3.1451148,11.16612,5.3876879)" />
    <linearGradient
       inkscape:collect="always"
       id="linearGradient883">
      <stop
         style="stop-color:#808080;stop-opacity:1;"
         offset="0"
         id="stop879" />
      <stop
         style="stop-color:#3e3e3e;stop-opacity:1;"
         offset="0.5"
         id="stop1216" />
      <stop
         style="stop-color:#242424;stop-opacity:1;"
         offset="1"
         id="stop881" />
    </linearGradient>
    <linearGradient
       inkscape:collect="always"
       xlink:href="#linearGradient1134"
       id="linearGradient1136"
       x1="14.971222"
       y1="14.703373"
       x2="2.0756054"
       y2="2.0069976"
       gradientUnits="userSpaceOnUse"
       gradientTransform="matrix(2.4106819,0,0,3.1438568,11.58952,5.3983817)" />
    <linearGradient
       inkscape:collect="always"
       id="linearGradient1134">
      <stop
         style="stop-color:#161616;stop-opacity:1;"
         offset="0"
         id="stop1130" />
      <stop
         style="stop-color:#404040;stop-opacity:1;"
         offset="1"
         id="stop1132" />
    </linearGradient>
    <filter
       style="color-interpolation-filters:sRGB"
       inkscape:label="Blur"
       id="filter1694"
       x="-0.94955398"
       y="-0.2118907"
       width="2.899108"
       height="1.4237814">
      <feGaussianBlur
         stdDeviation="0.2 0.2"
         result="blur"
         id="feGaussianBlur1692" />
    </filter>
  </defs>
  <g
     id="g877"
     transform="matrix(1.1,0,0,1.1,-3.1845928,-3.2065454)">
    <path
       style="fill:#f5f7fa;stroke-width:0.204426;fill-opacity:1"
       d=""
       id="path3" />
    <rect
       style="fill:#000000;stroke:none;stroke-width:0.539739;stroke-dasharray:none;filter:url(#filter1283)"
       id="rect246-1"
       width="14.572964"
       height="14.572964"
       x="1.1932471"
       y="1.2138842"
       rx="2.1589575"
       ry="2.1589575"
       transform="matrix(2.4606127,0,0,3.1451146,11.16612,5.3876877)" />
    <rect
       style="fill:#000000;stroke:url(#linearGradient885);stroke-width:1.63561;stroke-dasharray:none"
       id="rect246"
       width="35.155312"
       height="44.93494"
       x="14.453793"
       y="9.6548424"
       rx="5.2081943"
       ry="5.181818" />
    <rect
       style="fill:url(#linearGradient1136);fill-opacity:1;stroke:none;stroke-width:1.31679;stroke-dasharray:none"
       id="rect246-5"
       width="31.13278"
       height="40.601383"
       x="16.465055"
       y="11.821622"
       rx="3.1818182"
       ry="3.1725934" />
    <path
       d="m 34.671638,27.223025 a 31.61189,31.61189 0 0 1 0.389544,3.410768 3.3609428,3.3609428 0 0 1 -0.593372,1.997543 c -0.09512,0.339714 -0.380487,0 -0.584317,0 -0.502781,0 -0.688495,-0.54355 -0.960269,-0.878739 -0.271772,-0.335192 -0.077,-0.638673 0.104177,-0.905913 0.194776,-0.140417 0.271777,-0.452956 0.552611,-0.452956 0.280835,0 0.244597,-0.385019 0.20383,-0.588851 0.185715,-0.28536 0.07248,-0.706614 0.253657,-1.019149 0.326129,-0.144947 0.23101,-0.652254 0.344246,-0.937624 0.09059,-0.20383 0,-0.593373 0.258187,-0.679438 0,0 0.03171,0 0.02718,0.04531 M 34.354574,15.582024 c -0.425781,-0.04982 -0.74738,0.240067 -1.105218,0.403134 a 8.15323,8.15323 0 0 1 -0.905914,0.244595 c -0.221945,0.452958 -0.733791,0.720202 -1.010095,1.145983 a 4.5295727,4.5295727 0 0 1 -1.512879,2.137956 c -1.005564,0.520902 -1.512877,1.653292 -1.843534,2.717743 -0.113241,0.240068 -0.09512,0.593374 -0.217422,0.797205 -0.398601,0.11324 -0.185713,-0.407661 -0.231008,-0.656787 -0.05888,-0.371425 0.267246,-0.611492 0.289893,-0.973858 a 1.4902292,1.4902293 0 0 0 0.163065,-0.837972 c -0.0453,-0.647728 0.149476,-1.435873 -0.308011,-1.965834 -0.271774,-0.158535 -0.185712,-0.493723 -0.285363,-0.751909 a 3.2929991,3.2929995 0 0 0 -1.010095,-0.905915 c -0.326129,-0.03171 -0.625082,-0.452956 -0.96027,-0.258185 -0.20836,0.244597 -0.593373,0.240068 -0.715672,0.566197 -0.077,0.407661 -0.53449,0.298953 -0.833442,0.398602 -0.380484,0.149476 -0.869677,0 -1.182218,0.303481 -0.312541,0.303482 -0.824381,0.74738 -0.670376,1.259222 0.357835,0.702083 1.281869,0.348776 1.784651,0.774556 a 14.494631,14.494631 0 0 1 -0.548081,1.386049 8.1804071,8.1804079 0 0 0 -0.03624,1.852596 c 0.09512,0.616022 -0.06341,1.408696 0.452958,1.843537 0.294422,0.108708 0.276303,0.452956 0.389542,0.706612 0.113242,0.253656 0.330661,-0.09059 0.421252,0.15401 0.262716,0.144935 0.02718,0.452957 0.172123,0.634134 a 1.2501623,1.2501623 0 0 1 0.63867,0.339719 5.353955,5.353955 0 0 1 0.774557,0.656789 c 0.181183,0.371427 0.412192,-0.362362 0.611492,-0.08606 a 0.45295727,0.45295727 0 0 0 0.63867,0.226478 2.3100819,2.3100819 0 0 0 1.014623,-0.439369 c 0.194772,0.693025 0.04531,1.444934 0.131358,2.160604 a 9.4622778,9.4622778 0 0 1 0.22648,1.589886 7.6368589,7.6368589 0 0 1 0.235537,1.612521 5.7525581,5.7525581 0 0 1 -0.552608,3.302062 0.7972048,0.7972048 0 0 1 -0.62961,0.634142 c -0.226479,0.104181 -0.697554,0.289888 -0.539018,0.616022 0.525428,0.452952 1.35887,0.403131 1.961304,0.172123 0.398603,-0.194776 0.05435,-0.679439 0.258185,-0.973863 0.267245,-1.032743 0.135888,-2.137952 0.452959,-3.170699 a 3.0438727,3.0438727 0 0 0 0.267245,-1.67141 c 0.0634,-0.348771 -0.08153,-0.770029 0.144945,-1.055391 a 1.4539931,1.453993 0 0 1 0.366895,-0.951211 11.976191,11.97619 0 0 0 0.113239,-1.607997 2.468617,2.4686171 0 0 1 0.987447,-0.09965 c 0,0.298954 -0.212889,0.643199 -0.149475,0.978384 a 1.5762913,1.5762913 0 0 1 -0.203831,1.091628 c -0.140416,0.588844 -0.235538,1.313575 0.131356,1.81183 0.606964,0.665847 1.399638,1.136923 1.974896,1.84806 a 0.41672067,0.41672067 0 0 1 0.02718,0.625088 1.2048663,1.2048663 0 0 1 -0.770026,0.819851 c -0.240069,0.09512 -0.625082,0.45295 -0.344246,0.70208 a 2.9940477,2.9940477 0 0 0 1.698588,-0.113243 c 0.371423,-0.135887 0.235539,-0.584308 0.38048,-0.865145 a 8.9413754,8.9413754 0 0 1 0.552611,0.847033 c 0.231006,0.344251 0.629608,0.05889 0.905912,-0.04982 A 2.8536311,2.8536311 0 0 0 35.663616,34.0491 c -0.12683,-0.298954 -0.620552,-0.308008 -0.597905,-0.67491 0.244596,-0.905913 0.85156,-1.612526 1.331696,-2.378026 0.398599,-0.380478 0.09965,-0.946677 0.122296,-1.426807 a 5.4354866,5.4354861 0 0 1 0.847031,-3.514954 12.750746,12.750747 0 0 0 0.53902,1.698586 4.9825293,4.9825298 0 0 0 0.8425,1.793712 c 0.185714,0.643198 0.135887,1.358881 0.258186,2.024724 a 8.4521831,8.4521831 0 0 1 -0.190244,3.451533 c 0.03171,0.412189 -0.357835,0.715671 -0.321598,1.118805 0.108709,0.371425 0.543546,0.07247 0.770028,0.231008 a 0.86061868,0.86061876 0 0 0 1.03274,-0.452962 5.0776511,5.0776507 0 0 1 -0.190238,-0.964804 6.0288611,6.028861 0 0 1 -0.199303,-2.953272 c 0.03623,-0.534489 0.357838,-1.186754 -0.05889,-1.64424 -0.113241,-0.489192 0.08153,-1.019156 -0.03623,-1.521935 a 10.418017,10.418017 0 0 1 -0.09512,-3.91808 c 0.07247,-0.181183 0,-0.516372 0.194768,-0.616022 a 1.4902292,1.4902293 0 0 1 0.244602,0.978389 2.9940477,2.9940477 0 0 1 0.06341,1.65329 c -0.33066,0.421253 -0.126828,0.991981 -0.08607,1.467583 0.05435,0.335189 0.403133,0.09512 0.45296,-0.113242 a 9.4803939,9.4803939 0 0 0 0.73379,-1.78012 c 0.20836,-0.280834 0,-0.611494 0,-0.905913 0.3216,-0.04078 0.199302,-0.403133 0.02718,-0.561669 -0.172104,-0.579787 -0.131337,-1.250164 -0.52088,-1.743886 a 8.3525313,8.3525313 0 0 1 -1.512888,-2.165139 c -0.412189,-1.299987 -1.58988,-2.165137 -1.988482,-3.478711 a 2.8219238,2.8219237 0 0 0 -1.263749,-1.843537 5.9971546,5.9971546 0 0 0 -0.905914,-0.330659 4.9281747,4.9281747 0 0 1 -0.801735,0.09965"
       fill="#004065"
       id="path1"
       style="fill:#999999;stroke-width:0.45296" />
    <path
       d="m 28.00611,44.609996 q 0.848486,0 1.236365,0.333333 0.387879,0.333334 0.387879,0.939395 0,0.357576 -0.163637,0.672727 -0.157575,0.309092 -0.539394,0.503031 -0.375758,0.19394 -1.024243,0.19394 h -0.49697 v 1.684849 h -0.545455 v -4.327275 z m -0.04848,0.466667 H 27.40611 v 1.709092 h 0.436364 q 0.618182,0 0.921213,-0.2 0.30303,-0.200001 0.30303,-0.678789 0,-0.418182 -0.266667,-0.624243 -0.266667,-0.20606 -0.842424,-0.20606 z m 3.751514,0.551515 q 0.418182,0 0.715152,0.181818 0.303031,0.181819 0.460607,0.515152 0.163636,0.327273 0.163636,0.769698 v 0.321212 h -2.224244 q 0.01212,0.551516 0.278788,0.842425 0.272728,0.284848 0.757577,0.284848 0.309091,0 0.545454,-0.05455 0.242425,-0.06061 0.49697,-0.169697 v 0.466667 q -0.248485,0.109091 -0.490909,0.157576 -0.242424,0.05455 -0.575758,0.05455 -0.460606,0 -0.818182,-0.187879 -0.351516,-0.187879 -0.551516,-0.557576 -0.193939,-0.375758 -0.193939,-0.915152 0,-0.533334 0.175758,-0.915152 0.181818,-0.381818 0.50303,-0.587879 0.327273,-0.206061 0.757576,-0.206061 z m -0.0061,0.436364 q -0.381819,0 -0.606061,0.248485 -0.218182,0.242424 -0.260606,0.678788 h 1.654546 q -0.0061,-0.412121 -0.19394,-0.666667 -0.187878,-0.260606 -0.593939,-0.260606 z m 3.684846,-0.436364 q 0.09091,0 0.193939,0.01212 0.109091,0.0061 0.187879,0.02424 l -0.06667,0.490909 q -0.07879,-0.01818 -0.175758,-0.0303 -0.09091,-0.01212 -0.175758,-0.01212 -0.248485,0 -0.466667,0.139394 -0.218182,0.133333 -0.351515,0.381818 -0.127273,0.242425 -0.127273,0.569698 v 1.733334 h -0.533334 v -3.248487 h 0.436364 l 0.06061,0.59394 h 0.02424 q 0.157576,-0.266667 0.406061,-0.460606 0.248485,-0.19394 0.587879,-0.19394 z m 1.521213,3.309093 h -0.533334 v -4.606063 h 0.533334 z"
       id="text5786"
       style="font-size:6.06061px;text-align:center;text-anchor:middle;fill:#999999;stroke-width:1.81818"
       aria-label="Perl" />
  </g>
</svg>
