<?xml version="1.0" encoding="UTF-8" standalone="no"?>
<svg
   width="64"
   height="64"
   version="1.1"
   id="svg73"
   sodipodi:docname="x-office-contact.svg"
   inkscape:version="1.2.2 (b0a8486541, 2022-12-01)"
   xmlns:inkscape="http://www.inkscape.org/namespaces/inkscape"
   xmlns:sodipodi="http://sodipodi.sourceforge.net/DTD/sodipodi-0.dtd"
   xmlns:xlink="http://www.w3.org/1999/xlink"
   xmlns="http://www.w3.org/2000/svg"
   xmlns:svg="http://www.w3.org/2000/svg"
   xmlns:rdf="http://www.w3.org/1999/02/22-rdf-syntax-ns#"
   xmlns:cc="http://creativecommons.org/ns#"
   xmlns:dc="http://purl.org/dc/elements/1.1/">
  <metadata
     id="metadata77">
    <rdf:RDF>
      <cc:Work
         rdf:about="">
        <dc:format>image/svg+xml</dc:format>
        <dc:type
           rdf:resource="http://purl.org/dc/dcmitype/StillImage" />
      </cc:Work>
    </rdf:RDF>
  </metadata>
  <sodipodi:namedview
     pagecolor="#f5f7fa"
     bordercolor="#666666"
     borderopacity="1"
     objecttolerance="10"
     gridtolerance="10"
     guidetolerance="10"
     inkscape:pageopacity="0"
     inkscape:pageshadow="2"
     inkscape:window-width="1226"
     inkscape:window-height="603"
     id="namedview75"
     showgrid="false"
     inkscape:zoom="4.4470387"
     inkscape:cx="19.676015"
     inkscape:cy="45.198618"
     inkscape:window-x="35"
     inkscape:window-y="32"
     inkscape:window-maximized="0"
     inkscape:current-layer="g877"
     inkscape:document-rotation="0"
     inkscape:pagecheckerboard="0"
     inkscape:showpageshadow="2"
     inkscape:deskcolor="#d1d1d1" />
  <defs
     id="defs29">
    <filter
       style="color-interpolation-filters:sRGB;"
       inkscape:label="Blur"
       id="filter6"
       x="-0.044145008"
       y="-0.044145008"
       width="1.08829"
       height="1.08829">
      <feGaussianBlur
         stdDeviation="1 1"
         result="blur"
         id="feGaussianBlur6" />
    </filter>
    <filter
       style="color-interpolation-filters:sRGB;"
       inkscape:label="Blur"
       id="filter7"
       x="-0.098100013"
       y="-0.098100021"
       width="1.1962"
       height="1.1962">
      <feGaussianBlur
         stdDeviation="2 2"
         result="blur"
         id="feGaussianBlur7" />
    </filter>
    <clipPath
       id="clip0_515_3621">
      <rect
         width="16"
         height="16"
         fill="#ffffff"
         transform="translate(0.00292969)"
         id="rect7969"
         x="0"
         y="0" />
    </clipPath>
    <filter
       style="color-interpolation-filters:sRGB;"
       inkscape:label="Blur"
       id="filter7349"
       x="-0.10485812"
       y="-0.10485813"
       width="1.2097162"
       height="1.2097163">
      <feGaussianBlur
         stdDeviation="2 2"
         result="blur"
         id="feGaussianBlur7347" />
    </filter>
    <filter
       style="color-interpolation-filters:sRGB"
       inkscape:label="Blur"
       id="filter1283"
       x="-0.082344266"
       y="-0.082344266"
       width="1.1646885"
       height="1.1646885">
      <feGaussianBlur
         stdDeviation="0.5 0.5"
         result="blur"
         id="feGaussianBlur1281" />
    </filter>
    <linearGradient
       inkscape:collect="always"
       xlink:href="#linearGradient883"
       id="linearGradient885"
       x1="2.1085808"
       y1="2.0236168"
       x2="14.846128"
       y2="15.071845"
       gradientUnits="userSpaceOnUse"
       gradientTransform="matrix(2.4606127,0,0,3.1451148,11.16612,5.3876879)" />
    <linearGradient
       inkscape:collect="always"
       id="linearGradient883">
      <stop
         style="stop-color:#808080;stop-opacity:1;"
         offset="0"
         id="stop879" />
      <stop
         style="stop-color:#3e3e3e;stop-opacity:1;"
         offset="0.5"
         id="stop1216" />
      <stop
         style="stop-color:#242424;stop-opacity:1;"
         offset="1"
         id="stop881" />
    </linearGradient>
    <linearGradient
       inkscape:collect="always"
       xlink:href="#linearGradient1134"
       id="linearGradient1136"
       x1="14.971222"
       y1="14.703373"
       x2="2.0756054"
       y2="2.0069976"
       gradientUnits="userSpaceOnUse"
       gradientTransform="matrix(2.4106819,0,0,3.1438568,11.58952,5.3983817)" />
    <linearGradient
       inkscape:collect="always"
       id="linearGradient1134">
      <stop
         style="stop-color:#161616;stop-opacity:1;"
         offset="0"
         id="stop1130" />
      <stop
         style="stop-color:#404040;stop-opacity:1;"
         offset="1"
         id="stop1132" />
    </linearGradient>
    <filter
       style="color-interpolation-filters:sRGB"
       inkscape:label="Blur"
       id="filter1694"
       x="-0.94955398"
       y="-0.2118907"
       width="2.899108"
       height="1.4237814">
      <feGaussianBlur
         stdDeviation="0.2 0.2"
         result="blur"
         id="feGaussianBlur1692" />
    </filter>
  </defs>
  <g
     id="g877"
     transform="matrix(1.1,0,0,1.1,-3.1845928,-3.2065454)">
    <path
       style="fill:#f5f7fa;stroke-width:0.204426;fill-opacity:1"
       d=""
       id="path3" />
    <rect
       style="fill:#000000;stroke:none;stroke-width:0.539739;stroke-dasharray:none;filter:url(#filter1283)"
       id="rect246-1"
       width="14.572964"
       height="14.572964"
       x="1.1932471"
       y="1.2138842"
       rx="2.1589575"
       ry="2.1589575"
       transform="matrix(2.4606127,0,0,3.1451146,11.16612,5.3876877)" />
    <rect
       style="fill:#000000;stroke:url(#linearGradient885);stroke-width:1.63561;stroke-dasharray:none"
       id="rect246"
       width="35.155312"
       height="44.93494"
       x="14.453793"
       y="9.6548424"
       rx="5.2081943"
       ry="5.181818" />
    <rect
       style="fill:url(#linearGradient1136);fill-opacity:1;stroke:none;stroke-width:1.31679;stroke-dasharray:none"
       id="rect246-5"
       width="31.13278"
       height="40.601383"
       x="16.465055"
       y="11.821622"
       rx="3.1818182"
       ry="3.1725934" />
    <path
       id="path19"
       style="fill:#999999;fill-opacity:1;stroke:none;stroke-width:0.785942;stroke-dasharray:none;stroke-dashoffset:2.2;stroke-opacity:0.3"
       d="m 29.121397,17.307464 c -0.609346,0.0075 -1.226555,0.144366 -1.815956,0.426742 -2.799334,1.341122 -3.422383,4.940191 -1.228035,7.09804 0.662773,0.651748 1.354796,1.033407 2.207392,1.218825 0.699965,0.152226 0.975963,0.15921 1.642498,0.03838 1.622295,-0.294101 3.044938,-1.569894 3.507573,-3.146839 0.218181,-0.743681 0.187005,-1.902831 -0.07061,-2.632598 -0.664014,-1.881021 -2.414822,-3.02486 -4.242854,-3.00255 z m 7.464918,2.905837 c -0.33441,0.005 -0.671253,0.05471 -1.003921,0.153504 l -0.466651,0.138154 0.05527,0.790549 c 0.103509,1.458317 -0.440604,3.190761 -1.314001,4.182992 -0.202962,0.230581 -0.369945,0.455159 -0.369945,0.498888 0,0.10445 0.881385,0.949518 1.186588,1.137467 0.13106,0.08071 0.476555,0.230194 0.767522,0.333106 0.817124,0.289009 1.952804,0.225082 2.764615,-0.155039 0.810075,-0.379309 1.524776,-1.065417 1.895773,-1.819026 0.273087,-0.554692 0.291652,-0.653999 0.291652,-1.544255 0,-0.888089 -0.01908,-0.990773 -0.288587,-1.536576 -0.67961,-1.378171 -2.069202,-2.201819 -3.518311,-2.179764 z m -0.601739,9.04294 0.442095,0.291657 c 1.02103,0.676305 1.942167,1.720536 2.508261,2.839829 0.305579,0.604205 0.690769,1.934435 0.690769,2.38546 v 0.34999 h 2.221206 2.221203 l -0.03068,-1.065322 c -0.03068,-1.018923 -0.04809,-1.095672 -0.371489,-1.749948 -0.962207,-1.946608 -3.419544,-3.051666 -6.783365,-3.051666 z m -6.662089,0.01689 c -0.216908,2.08e-4 -0.438176,0.0041 -0.664672,0.01075 -1.894849,0.05562 -2.805363,0.207662 -4.101636,0.684623 -2.818448,1.037055 -4.335049,3.147129 -4.338033,6.035796 v 0.653924 h 8.937022 8.937022 v -0.9287 c 0,-1.738262 -0.492003,-2.927794 -1.705436,-4.129264 -1.618914,-1.602962 -3.810596,-2.330239 -7.064266,-2.327127 z" />
    <g
       aria-label="Authors"
       id="text5559"
       style="font-size:6.06061px;text-align:center;text-anchor:middle;fill:#999999;stroke-width:1.81818">
      <path
         d="m 23.947207,48.900642 -0.521212,-1.339394 h -1.715153 l -0.515151,1.339394 h -0.551516 l 1.69091,-4.345457 h 0.49091 l 1.684849,4.345457 z M 22.77751,45.767307 q -0.01818,-0.04848 -0.06061,-0.175758 -0.04242,-0.127272 -0.08485,-0.260606 -0.03636,-0.139394 -0.06061,-0.212121 -0.04242,0.187879 -0.09697,0.369697 -0.05454,0.175758 -0.09091,0.278788 l -0.490909,1.309092 h 1.369697 z"
         id="path5561" />
      <path
         d="m 27.747209,45.652156 v 3.248486 h -0.436364 l -0.07879,-0.430303 h -0.02424 q -0.157576,0.254546 -0.436364,0.375758 -0.278788,0.115151 -0.59394,0.115151 -0.587879,0 -0.884849,-0.278788 -0.29697,-0.284848 -0.29697,-0.90303 v -2.127274 h 0.539395 v 2.09091 q 0,0.775758 0.721212,0.775758 0.539395,0 0.745455,-0.303031 0.212122,-0.30303 0.212122,-0.872727 v -1.69091 z"
         id="path5563" />
      <path
         d="m 29.862362,48.524885 q 0.121212,0 0.248485,-0.01818 0.127273,-0.02424 0.206061,-0.04848 v 0.406061 q -0.08485,0.04242 -0.242425,0.06667 -0.157576,0.0303 -0.30303,0.0303 -0.254546,0 -0.472728,-0.08485 -0.212121,-0.09091 -0.345454,-0.309091 -0.133334,-0.218182 -0.133334,-0.612122 v -1.89091 h -0.460606 v -0.254546 l 0.466667,-0.212121 0.212121,-0.690909 h 0.315152 v 0.745455 h 0.939394 v 0.412121 h -0.939394 v 1.878789 q 0,0.29697 0.139394,0.442425 0.145454,0.139394 0.369697,0.139394 z"
         id="path5565" />
      <path
         d="m 31.498727,45.646095 q 0,0.242424 -0.0303,0.454546 h 0.03636 q 0.157575,-0.248485 0.424242,-0.375758 0.272728,-0.127273 0.587879,-0.127273 0.59394,0 0.89091,0.284849 0.29697,0.278788 0.29697,0.903031 v 2.115152 h -0.527273 v -2.078789 q 0,-0.781818 -0.727273,-0.781818 -0.545455,0 -0.751516,0.309091 -0.2,0.30303 -0.2,0.872727 v 1.678789 h -0.533334 v -4.606063 h 0.533334 z"
         id="path5567" />
      <path
         d="m 37.535094,47.270338 q 0,0.806061 -0.412121,1.248486 -0.406061,0.442424 -1.103031,0.442424 -0.430304,0 -0.769698,-0.193939 -0.333333,-0.2 -0.527273,-0.575758 -0.193939,-0.381818 -0.193939,-0.921213 0,-0.806061 0.406061,-1.242425 0.40606,-0.436364 1.103031,-0.436364 0.442424,0 0.775758,0.200001 0.339394,0.193939 0.527273,0.569697 0.193939,0.369697 0.193939,0.909091 z m -2.454547,0 q 0,0.575758 0.224243,0.915152 0.230303,0.333334 0.727273,0.333334 0.490909,0 0.721213,-0.333334 0.230303,-0.339394 0.230303,-0.915152 0,-0.575758 -0.230303,-0.903031 -0.230304,-0.327272 -0.727274,-0.327272 -0.49697,0 -0.721212,0.327272 -0.224243,0.327273 -0.224243,0.903031 z"
         id="path5569" />
      <path
         d="m 39.892669,45.591549 q 0.09091,0 0.193939,0.01212 0.109091,0.0061 0.187879,0.02424 l -0.06667,0.490909 q -0.07879,-0.01818 -0.175757,-0.0303 -0.09091,-0.01212 -0.175758,-0.01212 -0.248485,0 -0.466667,0.139394 -0.218182,0.133334 -0.351515,0.381819 -0.127273,0.242424 -0.127273,0.569697 v 1.733334 h -0.533334 v -3.248486 h 0.436364 l 0.06061,0.593939 h 0.02424 q 0.157575,-0.266667 0.40606,-0.460606 0.248485,-0.19394 0.58788,-0.19394 z"
         id="path5571" />
      <path
         d="m 42.995702,48.003672 q 0,0.472728 -0.351516,0.715152 -0.351515,0.242424 -0.945455,0.242424 -0.339394,0 -0.587879,-0.05454 -0.242424,-0.05454 -0.430303,-0.151515 v -0.484849 q 0.193939,0.09697 0.466667,0.181818 0.278788,0.07879 0.563636,0.07879 0.406061,0 0.587879,-0.127273 0.181819,-0.133333 0.181819,-0.351515 0,-0.121212 -0.06667,-0.218182 -0.06667,-0.09697 -0.242424,-0.193939 -0.169697,-0.09697 -0.49091,-0.218182 -0.315151,-0.121213 -0.539394,-0.242425 -0.224243,-0.121212 -0.345455,-0.290909 -0.121212,-0.169697 -0.121212,-0.436364 0,-0.412121 0.333334,-0.636364 0.339394,-0.224243 0.884849,-0.224243 0.296969,0 0.551515,0.06061 0.260606,0.05455 0.484849,0.157575 l -0.181818,0.424243 q -0.206061,-0.08485 -0.430304,-0.145455 -0.224242,-0.06061 -0.460606,-0.06061 -0.327273,0 -0.503031,0.109091 -0.169697,0.103031 -0.169697,0.284849 0,0.133333 0.07879,0.230303 0.07879,0.09091 0.260606,0.181818 0.187879,0.08485 0.49697,0.206061 0.309092,0.115152 0.527273,0.236364 0.218182,0.121212 0.333334,0.29697 0.115152,0.169697 0.115152,0.430303 z"
         id="path5573" />
    </g>
  </g>
</svg>
