<?xml version="1.0" encoding="UTF-8" standalone="no"?>
<svg
   width="64"
   height="64"
   version="1.1"
   id="svg73"
   sodipodi:docname="text-x-c++src.svg"
   inkscape:version="1.4 (e7c3feb100, 2024-10-09)"
   xmlns:inkscape="http://www.inkscape.org/namespaces/inkscape"
   xmlns:sodipodi="http://sodipodi.sourceforge.net/DTD/sodipodi-0.dtd"
   xmlns:xlink="http://www.w3.org/1999/xlink"
   xmlns="http://www.w3.org/2000/svg"
   xmlns:svg="http://www.w3.org/2000/svg"
   xmlns:rdf="http://www.w3.org/1999/02/22-rdf-syntax-ns#"
   xmlns:cc="http://creativecommons.org/ns#"
   xmlns:dc="http://purl.org/dc/elements/1.1/">
  <metadata
     id="metadata77">
    <rdf:RDF>
      <cc:Work
         rdf:about="">
        <dc:format>image/svg+xml</dc:format>
        <dc:type
           rdf:resource="http://purl.org/dc/dcmitype/StillImage" />
      </cc:Work>
    </rdf:RDF>
  </metadata>
  <sodipodi:namedview
     pagecolor="#f5f7fa"
     bordercolor="#666666"
     borderopacity="1"
     objecttolerance="10"
     gridtolerance="10"
     guidetolerance="10"
     inkscape:pageopacity="0"
     inkscape:pageshadow="2"
     inkscape:window-width="1183"
     inkscape:window-height="944"
     id="namedview75"
     showgrid="false"
     inkscape:zoom="8.8940774"
     inkscape:cx="19.17006"
     inkscape:cy="22.093354"
     inkscape:window-x="35"
     inkscape:window-y="27"
     inkscape:window-maximized="0"
     inkscape:current-layer="g877"
     inkscape:document-rotation="0"
     inkscape:pagecheckerboard="0"
     inkscape:showpageshadow="2"
     inkscape:deskcolor="#d1d1d1" />
  <defs
     id="defs29">
    <filter
       style="color-interpolation-filters:sRGB;"
       inkscape:label="Blur"
       id="filter6"
       x="-0.044145008"
       y="-0.044145008"
       width="1.08829"
       height="1.08829">
      <feGaussianBlur
         stdDeviation="1 1"
         result="blur"
         id="feGaussianBlur6" />
    </filter>
    <filter
       style="color-interpolation-filters:sRGB;"
       inkscape:label="Blur"
       id="filter7"
       x="-0.098100013"
       y="-0.098100021"
       width="1.1962"
       height="1.1962">
      <feGaussianBlur
         stdDeviation="2 2"
         result="blur"
         id="feGaussianBlur7" />
    </filter>
    <clipPath
       id="clip0_515_3621">
      <rect
         width="16"
         height="16"
         fill="#ffffff"
         transform="translate(0.00292969)"
         id="rect7969"
         x="0"
         y="0" />
    </clipPath>
    <filter
       style="color-interpolation-filters:sRGB;"
       inkscape:label="Blur"
       id="filter7349"
       x="-0.10485812"
       y="-0.10485813"
       width="1.2097162"
       height="1.2097163">
      <feGaussianBlur
         stdDeviation="2 2"
         result="blur"
         id="feGaussianBlur7347" />
    </filter>
    <filter
       style="color-interpolation-filters:sRGB"
       inkscape:label="Blur"
       id="filter1283"
       x="-0.082344266"
       y="-0.082344266"
       width="1.1646885"
       height="1.1646885">
      <feGaussianBlur
         stdDeviation="0.5 0.5"
         result="blur"
         id="feGaussianBlur1281" />
    </filter>
    <linearGradient
       inkscape:collect="always"
       xlink:href="#linearGradient883"
       id="linearGradient885"
       x1="2.1085808"
       y1="2.0236168"
       x2="14.846128"
       y2="15.071845"
       gradientUnits="userSpaceOnUse"
       gradientTransform="matrix(2.4606127,0,0,3.1451148,11.16612,5.3876879)" />
    <linearGradient
       inkscape:collect="always"
       id="linearGradient883">
      <stop
         style="stop-color:#808080;stop-opacity:1;"
         offset="0"
         id="stop879" />
      <stop
         style="stop-color:#3e3e3e;stop-opacity:1;"
         offset="0.5"
         id="stop1216" />
      <stop
         style="stop-color:#242424;stop-opacity:1;"
         offset="1"
         id="stop881" />
    </linearGradient>
    <linearGradient
       inkscape:collect="always"
       xlink:href="#linearGradient1134"
       id="linearGradient1136"
       x1="14.971222"
       y1="14.703373"
       x2="2.0756054"
       y2="2.0069976"
       gradientUnits="userSpaceOnUse"
       gradientTransform="matrix(2.4106819,0,0,3.1438568,11.58952,5.3983817)" />
    <linearGradient
       inkscape:collect="always"
       id="linearGradient1134">
      <stop
         style="stop-color:#161616;stop-opacity:1;"
         offset="0"
         id="stop1130" />
      <stop
         style="stop-color:#404040;stop-opacity:1;"
         offset="1"
         id="stop1132" />
    </linearGradient>
    <filter
       style="color-interpolation-filters:sRGB"
       inkscape:label="Blur"
       id="filter1694"
       x="-0.94955398"
       y="-0.2118907"
       width="2.899108"
       height="1.4237814">
      <feGaussianBlur
         stdDeviation="0.2 0.2"
         result="blur"
         id="feGaussianBlur1692" />
    </filter>
  </defs>
  <g
     id="g877"
     transform="matrix(1.1,0,0,1.1,-3.1845928,-3.2065454)">
    <path
       style="fill:#f5f7fa;stroke-width:0.204426;fill-opacity:1"
       d=""
       id="path3" />
    <rect
       style="fill:#000000;stroke:none;stroke-width:0.539739;stroke-dasharray:none;filter:url(#filter1283)"
       id="rect246-1"
       width="14.572964"
       height="14.572964"
       x="1.1932471"
       y="1.2138842"
       rx="2.1589575"
       ry="2.1589575"
       transform="matrix(2.4606127,0,0,3.1451146,11.16612,5.3876877)" />
    <rect
       style="fill:#000000;stroke:url(#linearGradient885);stroke-width:1.63561;stroke-dasharray:none"
       id="rect246"
       width="35.155312"
       height="44.93494"
       x="14.453793"
       y="9.6548424"
       rx="5.2081943"
       ry="5.181818" />
    <rect
       style="fill:url(#linearGradient1136);fill-opacity:1;stroke:none;stroke-width:1.31679;stroke-dasharray:none"
       id="rect246-5"
       width="31.13278"
       height="40.601383"
       x="16.465055"
       y="11.821622"
       rx="3.1818182"
       ry="3.1725934" />
    <path
       id="path7"
       style="fill:#999999;stroke:none;stroke-width:0.0604149;stroke-opacity:1"
       d="m 41.237775,16.924131 c -0.35039,0 -0.678944,0.166265 -0.872315,0.441402 -0.04913,0.06989 -0.356925,0.83291 -0.710854,1.761404 l -0.62383,1.637686 -1.095634,0.481242 c -0.602173,0.264665 -1.10511,0.481264 -1.117654,0.481241 -0.01254,-2.5e-5 -0.04747,-0.08491 -0.07759,-0.188723 -0.07953,-0.274257 -0.357041,-0.821298 -0.541,-1.06523 -0.221083,-0.293155 -0.506696,-0.590371 -0.773761,-0.805214 -0.201236,-0.161885 -0.237827,-0.207271 -0.325022,-0.407848 -0.214239,-0.492828 -0.564779,-0.902094 -1.046358,-1.219354 -1.357342,-0.894207 -3.312816,-0.720593 -4.425529,0.392121 -0.246376,0.246378 -0.42591,0.510886 -0.566166,0.833523 -0.09151,0.210514 -0.121951,0.247887 -0.342845,0.424625 -0.600572,0.480515 -1.151363,1.281074 -1.307423,1.900848 -0.02657,0.105523 -0.04709,0.136573 -0.08387,0.125816 -0.115151,-0.03368 -2.136312,-0.935796 -2.168203,-0.967724 -0.01936,-0.01939 -0.30813,-0.754524 -0.642705,-1.634542 -0.334575,-0.880019 -0.635665,-1.644702 -0.668915,-1.698498 -0.0994,-0.160829 -0.350583,-0.364607 -0.534712,-0.43406 -0.230397,-0.08691 -0.58444,-0.07198 -0.806261,0.03357 -0.202515,0.09636 -0.423954,0.323009 -0.522131,0.534712 -0.06634,0.143038 -0.08055,0.215685 -0.07968,0.415189 0.001,0.240974 0.0028,0.246805 0.65843,1.963758 0.361644,0.946997 0.692469,1.809633 0.734968,1.917623 0.09526,0.24206 0.241874,0.448737 0.39317,0.553584 0.08316,0.05763 1.785042,0.829272 2.353782,1.067329 0.01893,0.0079 0.136746,-0.139144 0.262112,-0.327121 0.492622,-0.738622 1.023585,-1.318049 1.367186,-1.489854 0.143845,-0.07192 0.227223,-0.09112 0.429867,-0.100654 0.401236,-0.01886 0.38872,-0.02742 2.301361,1.607282 1.638939,1.400772 1.678227,1.431106 1.737288,1.37872 0.28423,-0.252113 3.226971,-2.75053 3.347717,-2.842363 0.27844,-0.211761 0.591402,-0.288023 0.838765,-0.204449 0.182669,0.06173 0.366818,0.222447 0.742306,0.648995 0.418799,0.475746 0.599609,0.709079 0.840861,1.083054 0.13098,0.203037 0.180665,0.257233 0.220179,0.242194 0.303364,-0.115488 2.226893,-0.982393 2.32128,-1.046359 0.145446,-0.09857 0.262373,-0.231961 0.340748,-0.385832 0.03058,-0.06008 0.373528,-0.937721 0.761181,-1.951175 l 0.704563,-1.843187 v -0.27155 c 4.95e-4,-0.23683 -0.0096,-0.293761 -0.08284,-0.443498 -0.175065,-0.357628 -0.55375,-0.598682 -0.940455,-0.598681 z m -7.777441,2.179739 c 0.279378,0.01368 0.597562,0.174903 0.866025,0.462369 0.669271,0.71665 0.782195,1.840082 0.217028,2.157721 -0.132729,0.0746 -0.380318,0.105231 -0.533664,0.06605 -0.21073,-0.05383 -0.450463,-0.200931 -0.644799,-0.395266 -0.660412,-0.660413 -0.833264,-1.736572 -0.34599,-2.15143 0.120831,-0.102874 0.273774,-0.147659 0.4414,-0.139447 z m -2.707111,0.01361 c 0.314325,6.5e-4 0.485557,0.115147 0.624878,0.419382 0.05816,0.127019 0.06914,0.198893 0.06711,0.452933 -0.0044,0.525938 -0.203112,0.986581 -0.600763,1.391299 -0.145164,0.147745 -0.275275,0.246757 -0.41414,0.314539 -0.216743,0.105787 -0.504119,0.145951 -0.667866,0.09331 -0.266134,-0.08554 -0.445565,-0.376091 -0.46761,-0.756973 -0.04167,-0.719903 0.440835,-1.540547 1.080956,-1.837942 0.128781,-0.05984 0.213541,-0.07686 0.377444,-0.07654 z m 5.331395,2.900027 c -0.02859,0.0033 -0.06122,0.01976 -0.118477,0.05033 -0.06917,0.03692 -0.962548,0.780133 -1.984726,1.652366 -1.022177,0.872228 -1.875925,1.586313 -1.897704,1.586313 -0.02178,0 -0.872638,-0.710801 -1.890364,-1.578976 -1.314012,-1.120903 -1.883644,-1.587462 -1.963755,-1.611463 -0.166111,-0.04977 -0.392141,0.06227 -0.646898,0.320828 -0.23922,0.242775 -0.733324,0.895438 -0.960385,1.26863 -0.677231,1.113094 -1.083215,2.381325 -1.203626,3.760808 -0.04284,0.490796 -0.01921,1.437707 0.04823,1.929162 0.279048,2.033595 1.173233,3.904178 2.505808,5.242281 1.040946,1.045266 2.318135,1.694234 3.596202,1.827455 0.6984,0.07281 1.434277,-0.01065 2.145138,-0.243235 0.358091,-0.117236 1.049069,-0.458692 1.389204,-0.685688 2.219779,-1.481402 3.669593,-4.384104 3.669593,-7.345483 0,-1.878202 -0.580719,-3.681278 -1.636639,-5.079767 -0.293019,-0.388082 -0.855035,-1.012848 -0.960385,-1.067326 -0.03833,-0.01983 -0.06263,-0.02941 -0.09121,-0.02622 z m 2.758487,3.105524 c -0.0033,0.0023 0.03965,0.148264 0.09542,0.323981 0.122528,0.386073 0.270516,1.078619 0.318723,1.490906 0.05075,0.433844 0.04271,0.421701 0.32082,0.466561 0.129743,0.02096 0.262957,0.04889 0.296699,0.06185 0.03367,0.01306 0.558426,0.48116 1.164835,1.041115 0.60641,0.559956 1.153889,1.053767 1.217259,1.096687 0.06336,0.04292 0.185406,0.103423 0.271547,0.13421 0.47434,0.169498 1.053031,-0.103218 1.282261,-0.603908 0.147954,-0.323191 0.08882,-0.760571 -0.142594,-1.054747 -0.03367,-0.04278 -0.642168,-0.613275 -1.352507,-1.268631 -0.834354,-0.769778 -1.345102,-1.219402 -1.442674,-1.269681 -0.114522,-0.05903 -0.377183,-0.119883 -1.08725,-0.250588 -0.51503,-0.0948 -0.939231,-0.170048 -0.942558,-0.167746 z m -13.573304,0.02715 c -0.09142,0.0062 -0.456018,0.0636 -0.88175,0.139432 -0.708257,0.12617 -0.920124,0.175649 -1.065231,0.246396 -0.143955,0.07016 -0.454605,0.341539 -1.509775,1.318958 -1.550615,1.436366 -1.511074,1.386987 -1.510825,1.879883 1.3e-4,0.254332 0.0094,0.304979 0.08283,0.444543 0.158661,0.301509 0.385148,0.490657 0.684641,0.571407 0.07594,0.02062 0.195083,0.03766 0.264212,0.03879 0.171838,0.0028 0.472152,-0.09494 0.608103,-0.198154 0.09475,-0.07195 1.815829,-1.6462 2.197563,-2.00989 0.111048,-0.105794 0.148827,-0.120294 0.40785,-0.165649 0.156984,-0.02749 0.289459,-0.05391 0.294613,-0.05766 0.0051,-0.0038 0.02907,-0.160427 0.05347,-0.349136 0.07558,-0.584544 0.172425,-1.041072 0.334457,-1.574783 0.04416,-0.14548 0.07223,-0.272715 0.06186,-0.283092 -0.0013,-0.0013 -0.0089,-0.002 -0.02203,-0.0011 z m -0.349135,4.459213 -0.542051,0.456078 c -0.688196,0.578559 -0.804868,0.693603 -0.898526,0.884899 -0.274306,0.560254 -1.537024,3.367353 -1.565345,3.479824 -0.0454,0.180321 -0.01921,0.476608 0.05871,0.655287 0.112773,0.258696 0.376958,0.497227 0.648994,0.586085 0.07663,0.02508 0.221196,0.03694 0.368008,0.03161 0.206573,-0.0076 0.268747,-0.02302 0.431964,-0.11009 0.330258,-0.176026 0.349429,-0.209287 1.138622,-1.940688 0.618452,-1.356815 0.737074,-1.594057 0.836668,-1.684871 l 0.11533,-0.105904 -0.14783,-0.438255 C 25.195561,30.921865 25.078984,30.474994 24.985669,29.96481 Z m 14.323998,0.0062 c -0.0041,0.0055 -0.0323,0.153074 -0.06188,0.327108 -0.07559,0.442945 -0.228185,1.032018 -0.391072,1.510825 l -0.138402,0.406801 0.12057,0.105898 c 0.106309,0.09377 0.199459,0.279931 0.798918,1.593655 0.373332,0.818153 0.701996,1.53223 0.729728,1.586313 0.113663,0.221656 0.302471,0.392219 0.549389,0.495918 0.238149,0.100022 0.579633,0.08954 0.826183,-0.02508 0.461191,-0.214544 0.723952,-0.789583 0.570359,-1.248708 -0.06528,-0.195131 -1.560735,-3.453012 -1.637687,-3.567895 -0.06367,-0.09504 -1.348181,-1.209041 -1.366138,-1.184756 z" />
    <path
       d="m 25.486411,49.01313 -0.521213,-1.339395 h -1.715152 l -0.515152,1.339395 h -0.551515 l 1.69091,-4.345457 h 0.490909 l 1.68485,4.345457 z m -1.169698,-3.133335 q -0.01818,-0.04848 -0.06061,-0.175758 -0.04242,-0.127273 -0.08485,-0.260606 -0.03636,-0.139394 -0.06061,-0.212121 -0.04242,0.187879 -0.09697,0.369697 -0.05455,0.175758 -0.09091,0.278788 l -0.49091,1.309092 h 1.369698 z m 3.800002,-0.175758 q 0.600001,0 0.963637,0.418182 0.369697,0.418182 0.369697,1.260607 0,0.830304 -0.369697,1.260607 -0.363636,0.430303 -0.969697,0.430303 -0.375758,0 -0.624243,-0.139394 -0.242425,-0.145454 -0.381819,-0.333333 h -0.03636 q 0.01212,0.10303 0.02424,0.260606 0.01212,0.157576 0.01212,0.272727 v 1.333335 H 26.57126 v -4.703034 h 0.436364 l 0.07273,0.442425 h 0.02424 q 0.145455,-0.212122 0.381819,-0.357576 0.236364,-0.145455 0.630303,-0.145455 z m -0.09697,0.448485 q -0.49697,0 -0.70303,0.278788 -0.2,0.278788 -0.212122,0.848486 v 0.10303 q 0,0.600001 0.19394,0.927273 0.2,0.321213 0.733334,0.321213 0.29697,0 0.484848,-0.163637 0.19394,-0.163636 0.284849,-0.442424 0.09697,-0.284849 0.09697,-0.648485 0,-0.557577 -0.218182,-0.89091 -0.212121,-0.333334 -0.660607,-0.333334 z m 3.824244,-0.448485 q 0.6,0 0.963637,0.418182 0.369697,0.418182 0.369697,1.260607 0,0.830304 -0.369697,1.260607 -0.363637,0.430303 -0.969697,0.430303 -0.375758,0 -0.624243,-0.139394 -0.242425,-0.145454 -0.381819,-0.333333 h -0.03636 q 0.01212,0.10303 0.02424,0.260606 0.01212,0.157576 0.01212,0.272727 v 1.333335 h -0.533333 v -4.703034 h 0.436364 l 0.07273,0.442425 h 0.02424 q 0.145455,-0.212122 0.381819,-0.357576 0.236363,-0.145455 0.630303,-0.145455 z m -0.09697,0.448485 q -0.49697,0 -0.70303,0.278788 -0.200001,0.278788 -0.212122,0.848486 v 0.10303 q 0,0.600001 0.19394,0.927273 0.2,0.321213 0.733334,0.321213 0.296969,0 0.484848,-0.163637 0.19394,-0.163636 0.284849,-0.442424 0.09697,-0.284849 0.09697,-0.648485 0,-0.557577 -0.218182,-0.89091 -0.212122,-0.333334 -0.660607,-0.333334 z m 5.103032,1.230304 q 0,0.806061 -0.412122,1.248486 -0.406061,0.442424 -1.103031,0.442424 -0.430303,0 -0.769697,-0.193939 -0.333334,-0.2 -0.527273,-0.575758 -0.19394,-0.381819 -0.19394,-0.921213 0,-0.806061 0.406061,-1.242425 0.406061,-0.436364 1.103031,-0.436364 0.442425,0 0.775758,0.2 0.339394,0.19394 0.527273,0.569698 0.19394,0.369697 0.19394,0.909091 z m -2.454547,0 q 0,0.575758 0.224242,0.915152 0.230304,0.333334 0.727274,0.333334 0.490909,0 0.721212,-0.333334 0.230303,-0.339394 0.230303,-0.915152 0,-0.575758 -0.230303,-0.903031 -0.230303,-0.327273 -0.727273,-0.327273 -0.49697,0 -0.721213,0.327273 -0.224242,0.327273 -0.224242,0.903031 z m 4.812122,-1.678789 q 0.09091,0 0.19394,0.01212 0.109091,0.0061 0.187878,0.02424 l -0.06667,0.490909 q -0.07879,-0.01818 -0.175758,-0.0303 -0.09091,-0.01212 -0.175758,-0.01212 -0.248485,0 -0.466667,0.139394 -0.218182,0.133333 -0.351515,0.381818 -0.127273,0.242425 -0.127273,0.569698 v 1.733334 h -0.533333 v -3.248487 h 0.436363 l 0.06061,0.59394 h 0.02424 q 0.157576,-0.266667 0.406061,-0.460606 0.248485,-0.19394 0.587879,-0.19394 z m 2.072728,2.933335 q 0.121213,0 0.248485,-0.01818 0.127273,-0.02424 0.206061,-0.04848 v 0.406061 q -0.08485,0.04242 -0.242424,0.06667 -0.157576,0.0303 -0.303031,0.0303 -0.254545,0 -0.472727,-0.08485 -0.212122,-0.09091 -0.345455,-0.309091 -0.133333,-0.218182 -0.133333,-0.612122 v -1.89091 h -0.460607 v -0.254546 l 0.466667,-0.212121 0.212122,-0.69091 h 0.315151 v 0.745455 h 0.939395 v 0.412122 h -0.939395 v 1.878789 q 0,0.29697 0.139394,0.442424 0.145455,0.139394 0.369697,0.139394 z"
       id="text1"
       style="font-size:6.06061px;text-align:center;text-anchor:middle;fill:#999999;stroke-width:0.909091"
       aria-label="Apport" />
  </g>
</svg>
