<?xml version="1.0" encoding="UTF-8" standalone="no"?>
<svg
   width="64"
   height="64"
   version="1.1"
   id="svg73"
   sodipodi:docname="filetype Template.svg"
   inkscape:version="1.4 (e7c3feb100, 2024-10-09)"
   xmlns:inkscape="http://www.inkscape.org/namespaces/inkscape"
   xmlns:sodipodi="http://sodipodi.sourceforge.net/DTD/sodipodi-0.dtd"
   xmlns:xlink="http://www.w3.org/1999/xlink"
   xmlns="http://www.w3.org/2000/svg"
   xmlns:svg="http://www.w3.org/2000/svg"
   xmlns:rdf="http://www.w3.org/1999/02/22-rdf-syntax-ns#"
   xmlns:cc="http://creativecommons.org/ns#"
   xmlns:dc="http://purl.org/dc/elements/1.1/">
  <metadata
     id="metadata77">
    <rdf:RDF>
      <cc:Work
         rdf:about="">
        <dc:format>image/svg+xml</dc:format>
        <dc:type
           rdf:resource="http://purl.org/dc/dcmitype/StillImage" />
      </cc:Work>
    </rdf:RDF>
  </metadata>
  <sodipodi:namedview
     pagecolor="#f5f7fa"
     bordercolor="#666666"
     borderopacity="1"
     objecttolerance="10"
     gridtolerance="10"
     guidetolerance="10"
     inkscape:pageopacity="0"
     inkscape:pageshadow="2"
     inkscape:window-width="1183"
     inkscape:window-height="973"
     id="namedview75"
     showgrid="false"
     inkscape:zoom="3.1445312"
     inkscape:cx="18.921739"
     inkscape:cy="8.1093169"
     inkscape:window-x="35"
     inkscape:window-y="32"
     inkscape:window-maximized="0"
     inkscape:current-layer="g877"
     inkscape:document-rotation="0"
     inkscape:pagecheckerboard="0"
     inkscape:showpageshadow="2"
     inkscape:deskcolor="#d1d1d1" />
  <defs
     id="defs29">
    <filter
       style="color-interpolation-filters:sRGB;"
       inkscape:label="Blur"
       id="filter6"
       x="-0.044145008"
       y="-0.044145008"
       width="1.08829"
       height="1.08829">
      <feGaussianBlur
         stdDeviation="1 1"
         result="blur"
         id="feGaussianBlur6" />
    </filter>
    <filter
       style="color-interpolation-filters:sRGB;"
       inkscape:label="Blur"
       id="filter7"
       x="-0.098100013"
       y="-0.098100021"
       width="1.1962"
       height="1.1962">
      <feGaussianBlur
         stdDeviation="2 2"
         result="blur"
         id="feGaussianBlur7" />
    </filter>
    <clipPath
       id="clip0_515_3621">
      <rect
         width="16"
         height="16"
         fill="#ffffff"
         transform="translate(0.00292969)"
         id="rect7969"
         x="0"
         y="0" />
    </clipPath>
    <filter
       style="color-interpolation-filters:sRGB;"
       inkscape:label="Blur"
       id="filter7349"
       x="-0.10485812"
       y="-0.10485813"
       width="1.2097162"
       height="1.2097163">
      <feGaussianBlur
         stdDeviation="2 2"
         result="blur"
         id="feGaussianBlur7347" />
    </filter>
    <filter
       style="color-interpolation-filters:sRGB"
       inkscape:label="Blur"
       id="filter1283"
       x="-0.082344266"
       y="-0.082344266"
       width="1.1646885"
       height="1.1646885">
      <feGaussianBlur
         stdDeviation="0.5 0.5"
         result="blur"
         id="feGaussianBlur1281" />
    </filter>
    <linearGradient
       inkscape:collect="always"
       xlink:href="#linearGradient883"
       id="linearGradient885"
       x1="2.1085808"
       y1="2.0236168"
       x2="14.846128"
       y2="15.071845"
       gradientUnits="userSpaceOnUse"
       gradientTransform="matrix(2.4606127,0,0,3.1451148,11.16612,5.3876879)" />
    <linearGradient
       inkscape:collect="always"
       id="linearGradient883">
      <stop
         style="stop-color:#808080;stop-opacity:1;"
         offset="0"
         id="stop879" />
      <stop
         style="stop-color:#3e3e3e;stop-opacity:1;"
         offset="0.5"
         id="stop1216" />
      <stop
         style="stop-color:#242424;stop-opacity:1;"
         offset="1"
         id="stop881" />
    </linearGradient>
    <linearGradient
       inkscape:collect="always"
       xlink:href="#linearGradient1134"
       id="linearGradient1136"
       x1="14.971222"
       y1="14.703373"
       x2="2.0756054"
       y2="2.0069976"
       gradientUnits="userSpaceOnUse"
       gradientTransform="matrix(2.4106819,0,0,3.1438568,11.58952,5.3983817)" />
    <linearGradient
       inkscape:collect="always"
       id="linearGradient1134">
      <stop
         style="stop-color:#161616;stop-opacity:1;"
         offset="0"
         id="stop1130" />
      <stop
         style="stop-color:#404040;stop-opacity:1;"
         offset="1"
         id="stop1132" />
    </linearGradient>
    <filter
       style="color-interpolation-filters:sRGB"
       inkscape:label="Blur"
       id="filter1694"
       x="-0.94955398"
       y="-0.2118907"
       width="2.899108"
       height="1.4237814">
      <feGaussianBlur
         stdDeviation="0.2 0.2"
         result="blur"
         id="feGaussianBlur1692" />
    </filter>
  </defs>
  <g
     id="g877"
     transform="matrix(1.1,0,0,1.1,-3.1845928,-3.2065454)">
    <path
       style="fill:#f5f7fa;stroke-width:0.204426;fill-opacity:1"
       d=""
       id="path3" />
    <rect
       style="fill:#000000;stroke:none;stroke-width:0.539739;stroke-dasharray:none;filter:url(#filter1283)"
       id="rect246-1"
       width="14.572964"
       height="14.572964"
       x="1.1932471"
       y="1.2138842"
       rx="2.1589575"
       ry="2.1589575"
       transform="matrix(2.4606127,0,0,3.1451146,11.16612,5.3876877)" />
    <rect
       style="fill:#000000;stroke:url(#linearGradient885);stroke-width:1.63561;stroke-dasharray:none"
       id="rect246"
       width="35.155312"
       height="44.93494"
       x="14.453793"
       y="9.6548424"
       rx="5.2081943"
       ry="5.181818" />
    <rect
       style="fill:url(#linearGradient1136);fill-opacity:1;stroke:none;stroke-width:1.31679;stroke-dasharray:none"
       id="rect246-5"
       width="31.13278"
       height="40.601383"
       x="16.465055"
       y="11.821622"
       rx="3.1818182"
       ry="3.1725934" />
    <path
       style="fill:#999999;fill-opacity:1;stroke-width:0.818182"
       d="m 24.929175,17.505949 c 0,0 -2.761363,0.0016 -2.761363,2.727804 v 8.453485 c 0,1.510853 1.249897,2.74757 2.804509,2.727806 h 6.43679 l 3.464489,3.272725 3.466085,-3.272725 h 0.659981 c 0,0 2.804508,-0.0016 2.804508,-2.727806 v -8.453485 c 0,-2.726182 -2.804508,-2.727804 -2.804508,-2.727804 z m -0.306818,1.636363 h 13.09091 v 1.636363 h -13.09091 z m 0,2.454545 h 9 v 1.636365 h -9 z m 0,2.454547 h 6.545454 v 1.636364 h -6.545454 z m 0,2.454545 h 11.454545 v 1.636364 H 24.622357 Z"
       id="path6" />
    <path
       d="m 29.9152,44.609996 q 0.848485,0 1.236364,0.333333 0.387879,0.333334 0.387879,0.939395 0,0.357576 -0.163636,0.672727 -0.157576,0.309092 -0.539394,0.503031 -0.375758,0.19394 -1.024243,0.19394 H 29.3152 v 1.684849 h -0.545455 v -4.327275 z m -0.04848,0.466667 H 29.3152 v 1.709092 h 0.436364 q 0.618182,0 0.921212,-0.2 0.303031,-0.200001 0.303031,-0.678789 0,-0.418182 -0.266667,-0.624243 -0.266667,-0.20606 -0.842425,-0.20606 z m 5.321213,2.230304 q 0,0.806061 -0.412122,1.248486 -0.40606,0.442424 -1.103031,0.442424 -0.430303,0 -0.769697,-0.193939 -0.333334,-0.2 -0.527273,-0.575758 -0.19394,-0.381819 -0.19394,-0.921213 0,-0.806061 0.406061,-1.242425 0.406061,-0.436364 1.103031,-0.436364 0.442425,0 0.775758,0.2 0.339394,0.19394 0.527273,0.569698 0.19394,0.369697 0.19394,0.909091 z m -2.454547,0 q 0,0.575758 0.224242,0.915152 0.230304,0.333334 0.727274,0.333334 0.490909,0 0.721212,-0.333334 0.230303,-0.339394 0.230303,-0.915152 0,-0.575758 -0.230303,-0.903031 -0.230303,-0.327273 -0.727273,-0.327273 -0.49697,0 -0.721213,0.327273 -0.224242,0.327273 -0.224242,0.903031 z"
       id="text5786"
       style="font-size:6.06061px;text-align:center;text-anchor:middle;fill:#999999;stroke-width:1.81818"
       aria-label="Po" />
  </g>
</svg>
