<?xml version="1.0" encoding="UTF-8" standalone="no"?>
<svg
   width="64"
   height="64"
   version="1.1"
   id="svg73"
   sodipodi:docname="filetype Template.svg"
   inkscape:version="1.4 (e7c3feb100, 2024-10-09)"
   xmlns:inkscape="http://www.inkscape.org/namespaces/inkscape"
   xmlns:sodipodi="http://sodipodi.sourceforge.net/DTD/sodipodi-0.dtd"
   xmlns:xlink="http://www.w3.org/1999/xlink"
   xmlns="http://www.w3.org/2000/svg"
   xmlns:svg="http://www.w3.org/2000/svg"
   xmlns:rdf="http://www.w3.org/1999/02/22-rdf-syntax-ns#"
   xmlns:cc="http://creativecommons.org/ns#"
   xmlns:dc="http://purl.org/dc/elements/1.1/">
  <metadata
     id="metadata77">
    <rdf:RDF>
      <cc:Work
         rdf:about="">
        <dc:format>image/svg+xml</dc:format>
        <dc:type
           rdf:resource="http://purl.org/dc/dcmitype/StillImage" />
      </cc:Work>
    </rdf:RDF>
  </metadata>
  <sodipodi:namedview
     pagecolor="#f5f7fa"
     bordercolor="#666666"
     borderopacity="1"
     objecttolerance="10"
     gridtolerance="10"
     guidetolerance="10"
     inkscape:pageopacity="0"
     inkscape:pageshadow="2"
     inkscape:window-width="1183"
     inkscape:window-height="973"
     id="namedview75"
     showgrid="false"
     inkscape:zoom="6.2890624"
     inkscape:cx="19.001243"
     inkscape:cy="33.629814"
     inkscape:window-x="35"
     inkscape:window-y="32"
     inkscape:window-maximized="0"
     inkscape:current-layer="g877"
     inkscape:document-rotation="0"
     inkscape:pagecheckerboard="0"
     inkscape:showpageshadow="2"
     inkscape:deskcolor="#d1d1d1" />
  <defs
     id="defs29">
    <filter
       style="color-interpolation-filters:sRGB;"
       inkscape:label="Blur"
       id="filter6"
       x="-0.044145008"
       y="-0.044145008"
       width="1.08829"
       height="1.08829">
      <feGaussianBlur
         stdDeviation="1 1"
         result="blur"
         id="feGaussianBlur6" />
    </filter>
    <filter
       style="color-interpolation-filters:sRGB;"
       inkscape:label="Blur"
       id="filter7"
       x="-0.098100013"
       y="-0.098100021"
       width="1.1962"
       height="1.1962">
      <feGaussianBlur
         stdDeviation="2 2"
         result="blur"
         id="feGaussianBlur7" />
    </filter>
    <clipPath
       id="clip0_515_3621">
      <rect
         width="16"
         height="16"
         fill="#ffffff"
         transform="translate(0.00292969)"
         id="rect7969"
         x="0"
         y="0" />
    </clipPath>
    <filter
       style="color-interpolation-filters:sRGB;"
       inkscape:label="Blur"
       id="filter7349"
       x="-0.10485812"
       y="-0.10485813"
       width="1.2097162"
       height="1.2097163">
      <feGaussianBlur
         stdDeviation="2 2"
         result="blur"
         id="feGaussianBlur7347" />
    </filter>
    <filter
       style="color-interpolation-filters:sRGB"
       inkscape:label="Blur"
       id="filter1283"
       x="-0.082344266"
       y="-0.082344266"
       width="1.1646885"
       height="1.1646885">
      <feGaussianBlur
         stdDeviation="0.5 0.5"
         result="blur"
         id="feGaussianBlur1281" />
    </filter>
    <linearGradient
       inkscape:collect="always"
       xlink:href="#linearGradient883"
       id="linearGradient885"
       x1="2.1085808"
       y1="2.0236168"
       x2="14.846128"
       y2="15.071845"
       gradientUnits="userSpaceOnUse"
       gradientTransform="matrix(2.4606127,0,0,3.1451148,11.16612,5.3876879)" />
    <linearGradient
       inkscape:collect="always"
       id="linearGradient883">
      <stop
         style="stop-color:#808080;stop-opacity:1;"
         offset="0"
         id="stop879" />
      <stop
         style="stop-color:#3e3e3e;stop-opacity:1;"
         offset="0.5"
         id="stop1216" />
      <stop
         style="stop-color:#242424;stop-opacity:1;"
         offset="1"
         id="stop881" />
    </linearGradient>
    <linearGradient
       inkscape:collect="always"
       xlink:href="#linearGradient1134"
       id="linearGradient1136"
       x1="14.971222"
       y1="14.703373"
       x2="2.0756054"
       y2="2.0069976"
       gradientUnits="userSpaceOnUse"
       gradientTransform="matrix(2.4106819,0,0,3.1438568,11.58952,5.3983817)" />
    <linearGradient
       inkscape:collect="always"
       id="linearGradient1134">
      <stop
         style="stop-color:#161616;stop-opacity:1;"
         offset="0"
         id="stop1130" />
      <stop
         style="stop-color:#404040;stop-opacity:1;"
         offset="1"
         id="stop1132" />
    </linearGradient>
    <filter
       style="color-interpolation-filters:sRGB"
       inkscape:label="Blur"
       id="filter1694"
       x="-0.94955398"
       y="-0.2118907"
       width="2.899108"
       height="1.4237814">
      <feGaussianBlur
         stdDeviation="0.2 0.2"
         result="blur"
         id="feGaussianBlur1692" />
    </filter>
  </defs>
  <g
     id="g877"
     transform="matrix(1.1,0,0,1.1,-3.1845928,-3.2065454)">
    <path
       style="fill:#f5f7fa;stroke-width:0.204426;fill-opacity:1"
       d=""
       id="path3" />
    <rect
       style="fill:#000000;stroke:none;stroke-width:0.539739;stroke-dasharray:none;filter:url(#filter1283)"
       id="rect246-1"
       width="14.572964"
       height="14.572964"
       x="1.1932471"
       y="1.2138842"
       rx="2.1589575"
       ry="2.1589575"
       transform="matrix(2.4606127,0,0,3.1451146,11.16612,5.3876877)" />
    <rect
       style="fill:#000000;stroke:url(#linearGradient885);stroke-width:1.63561;stroke-dasharray:none"
       id="rect246"
       width="35.155312"
       height="44.93494"
       x="14.453793"
       y="9.6548424"
       rx="5.2081943"
       ry="5.181818" />
    <rect
       style="fill:url(#linearGradient1136);fill-opacity:1;stroke:none;stroke-width:1.31679;stroke-dasharray:none"
       id="rect246-5"
       width="31.13278"
       height="40.601383"
       x="16.465055"
       y="11.821622"
       rx="3.1818182"
       ry="3.1725934" />
    <g
       fill="#1976d2"
       id="g6"
       transform="matrix(0.81818182,0,0,0.81818182,5.8041752,-5.4483569)"
       style="fill:#999999;fill-opacity:1">
      <path
         d="m 32,30 c -0.116,0 -0.23,0.05 -0.293,0.152 l -0.625,1.012 -0.293,0.028 -0.809,-0.867 c -0.163,-0.176 -0.498,-0.108 -0.582,0.118 l -0.414,1.105 -0.285,0.086 -0.96,-0.691 c -0.196,-0.14 -0.505,-0.02 -0.544,0.226 l -0.191,1.168 -0.262,0.14 -1.078,-0.492 c -0.219,-0.1 -0.501,0.088 -0.492,0.328 l 0.043,1.188 -0.227,0.188 -1.156,-0.274 c -0.234,-0.054 -0.473,0.184 -0.418,0.418 l 0.274,1.156 -0.188,0.227 -1.187,-0.042 c -0.24,-0.02 -0.428,0.273 -0.328,0.492 l 0.492,1.078 -0.14,0.262 -1.169,0.192 c -0.237,0.038 -0.366,0.348 -0.226,0.543 l 0.691,0.961 -0.086,0.285 -1.11,0.414 c -0.224,0.084 -0.288,0.418 -0.113,0.582 l 0.868,0.805 -0.032,0.297 -1.007,0.625 c -0.205,0.126 -0.205,0.464 0,0.59 l 1.007,0.62 0.032,0.298 -0.868,0.808 c -0.175,0.164 -0.111,0.494 0.114,0.578 l 1.109,0.414 0.086,0.285 -0.691,0.961 c -0.14,0.196 -0.01,0.509 0.226,0.547 l 1.168,0.188 0.14,0.262 -0.491,1.078 c -0.1,0.22 0.089,0.502 0.328,0.492 l 1.187,-0.042 0.188,0.227 -0.274,1.156 c -0.055,0.234 0.184,0.473 0.418,0.418 l 1.156,-0.273 0.227,0.188 -0.043,1.183 c -0.01,0.24 0.273,0.428 0.492,0.328 l 1.078,-0.488 0.262,0.136 0.191,1.168 c 0.039,0.238 0.348,0.367 0.543,0.227 l 0.961,-0.692 0.285,0.086 0.414,1.11 c 0.084,0.224 0.415,0.29 0.579,0.113 l 0.808,-0.867 0.297,0.032 0.625,1.008 c 0.126,0.203 0.464,0.204 0.59,0 l 0.621,-1.008 0.297,-0.032 0.808,0.867 c 0.164,0.176 0.495,0.11 0.579,-0.114 l 0.414,-1.109 0.285,-0.086 0.96,0.692 c 0.196,0.14 0.505,0.02 0.544,-0.227 l 0.191,-1.168 0.262,-0.136 1.078,0.488 c 0.219,0.1 0.5,-0.086 0.492,-0.328 l -0.043,-1.183 0.227,-0.188 1.156,0.273 c 0.234,0.054 0.473,-0.184 0.418,-0.418 l -0.274,-1.156 0.188,-0.227 1.187,0.042 c 0.24,0.02 0.429,-0.273 0.328,-0.492 l -0.492,-1.078 0.14,-0.262 1.169,-0.188 c 0.238,-0.038 0.367,-0.351 0.226,-0.547 l -0.691,-0.96 0.086,-0.286 1.11,-0.414 c 0.225,-0.084 0.289,-0.414 0.113,-0.578 L 42.808,43.218 42.84,42.921 43.847,42.3 c 0.205,-0.126 0.205,-0.464 0,-0.59 l -1.007,-0.625 -0.032,-0.297 0.868,-0.805 c 0.176,-0.164 0.112,-0.498 -0.114,-0.582 l -1.109,-0.414 -0.086,-0.285 0.691,-0.961 c 0.141,-0.194 0.012,-0.504 -0.226,-0.543 l -1.168,-0.192 -0.14,-0.262 0.491,-1.078 c 0.101,-0.22 -0.086,-0.501 -0.328,-0.492 l -1.187,0.042 -0.188,-0.227 0.274,-1.156 c 0.055,-0.234 -0.184,-0.473 -0.418,-0.418 l -1.152,0.274 -0.23,-0.188 0.042,-1.188 c 0.01,-0.24 -0.273,-0.428 -0.492,-0.328 l -1.078,0.492 -0.262,-0.14 -0.187,-1.168 C 36.77,30.932 36.457,30.802 36.262,30.943 l -0.961,0.691 -0.285,-0.086 -0.414,-1.105 c -0.084,-0.226 -0.415,-0.292 -0.578,-0.118 l -0.81,0.867 -0.292,-0.028 -0.625,-1.012 A 0.344,0.344 0 0 0 32,30 Z m 0,3.996 a 8,8 0 0 1 8,8 8,8 0 0 1 -8,8 8,8 0 0 1 -8,-8 8,8 0 0 1 8,-8 z"
         id="path5"
         style="fill:#999999;fill-opacity:1" />
      <path
         d="m 24,36 v 2 h 2 v 8 h -2 v 2 h 8 v -2 h -2 v -4 c 2,0 2,6 4,6 h 4 c 2,0 2,-6 2,-6 h -2 c 0,0 0,4 -2,4 -0.943,0 -2,-4 -2,-4 h 1 c 1.662,0 3,-1.338 3,-3 0,-1.662 -1.338,-3 -3,-3 h -3 z m 6,2 h 4 c 0.554,0 1,0.446 1,1 0,0.554 -0.446,1 -1,1 h -4 z"
         id="path6"
         style="fill:#999999;fill-opacity:1" />
    </g>
    <path
       d="m 27.327317,44.609996 q 0.806061,0 1.18788,0.309091 0.387879,0.30303 0.387879,0.921213 0,0.345454 -0.127273,0.575757 -0.127273,0.230304 -0.327273,0.369698 -0.19394,0.133333 -0.412122,0.212121 l 1.18788,1.939395 h -0.636364 l -1.048486,-1.78788 h -0.860606 v 1.78788 h -0.545455 v -4.327275 z m -0.0303,0.472727 h -0.618182 v 1.606062 h 0.648485 q 0.527273,0 0.769697,-0.206061 0.242425,-0.212121 0.242425,-0.618182 0,-0.424243 -0.254546,-0.6 -0.254545,-0.181819 -0.787879,-0.181819 z m 5.248486,0.606061 v 3.248487 h -0.436363 l -0.07879,-0.430303 h -0.02424 q -0.157576,0.254545 -0.436364,0.375758 -0.278788,0.115151 -0.593939,0.115151 -0.58788,0 -0.88485,-0.278788 -0.296969,-0.284848 -0.296969,-0.903031 v -2.127274 h 0.539394 v 2.090911 q 0,0.775758 0.721212,0.775758 0.539395,0 0.745455,-0.303031 0.212122,-0.30303 0.212122,-0.872728 v -1.69091 z m 3.145457,2.351517 q 0,0.472727 -0.351515,0.715152 -0.351515,0.242424 -0.945455,0.242424 -0.339394,0 -0.587879,-0.05455 -0.242425,-0.05455 -0.430304,-0.151516 v -0.484848 q 0.19394,0.09697 0.466667,0.181818 0.278788,0.07879 0.563637,0.07879 0.406061,0 0.587879,-0.127273 0.181818,-0.133333 0.181818,-0.351515 0,-0.121212 -0.06667,-0.218182 -0.06667,-0.09697 -0.242425,-0.19394 -0.169697,-0.09697 -0.490909,-0.218182 -0.315152,-0.121212 -0.539394,-0.242424 -0.224243,-0.121212 -0.345455,-0.290909 -0.121212,-0.169697 -0.121212,-0.436364 0,-0.412122 0.333333,-0.636364 0.339394,-0.224243 0.884849,-0.224243 0.29697,0 0.551516,0.06061 0.260606,0.05455 0.484849,0.157576 l -0.181819,0.424243 q -0.20606,-0.08485 -0.430303,-0.145455 -0.224243,-0.06061 -0.460606,-0.06061 -0.327273,0 -0.503031,0.109091 -0.169697,0.10303 -0.169697,0.284849 0,0.133333 0.07879,0.230303 0.07879,0.09091 0.260606,0.181818 0.187879,0.08485 0.49697,0.206061 0.309091,0.115151 0.527273,0.236364 0.218182,0.121212 0.333334,0.29697 0.115151,0.169697 0.115151,0.430303 z m 1.872729,0.521212 q 0.121212,0 0.248485,-0.01818 0.127273,-0.02424 0.206061,-0.04848 v 0.40606 q -0.08485,0.04243 -0.242425,0.06667 -0.157576,0.0303 -0.30303,0.0303 -0.254546,0 -0.472728,-0.08485 -0.212121,-0.09091 -0.345455,-0.309091 -0.133333,-0.218182 -0.133333,-0.612122 v -1.89091 H 36.060655 V 45.84636 l 0.466667,-0.212121 0.212121,-0.69091 h 0.315152 v 0.745455 h 0.939394 v 0.412122 h -0.939394 v 1.878789 q 0,0.29697 0.139394,0.442424 0.145454,0.139394 0.369697,0.139394 z"
       id="text5786"
       style="font-size:6.06061px;text-align:center;text-anchor:middle;fill:#999999;stroke-width:1.81818"
       aria-label="Rust" />
  </g>
</svg>
