<?xml version="1.0" encoding="UTF-8" standalone="no"?>
<svg
   width="64"
   height="64"
   version="1.1"
   id="svg73"
   sodipodi:docname="filetype Template.svg"
   inkscape:version="1.4 (e7c3feb100, 2024-10-09)"
   xmlns:inkscape="http://www.inkscape.org/namespaces/inkscape"
   xmlns:sodipodi="http://sodipodi.sourceforge.net/DTD/sodipodi-0.dtd"
   xmlns:xlink="http://www.w3.org/1999/xlink"
   xmlns="http://www.w3.org/2000/svg"
   xmlns:svg="http://www.w3.org/2000/svg"
   xmlns:rdf="http://www.w3.org/1999/02/22-rdf-syntax-ns#"
   xmlns:cc="http://creativecommons.org/ns#"
   xmlns:dc="http://purl.org/dc/elements/1.1/">
  <metadata
     id="metadata77">
    <rdf:RDF>
      <cc:Work
         rdf:about="">
        <dc:format>image/svg+xml</dc:format>
        <dc:type
           rdf:resource="http://purl.org/dc/dcmitype/StillImage" />
      </cc:Work>
    </rdf:RDF>
  </metadata>
  <sodipodi:namedview
     pagecolor="#f5f7fa"
     bordercolor="#666666"
     borderopacity="1"
     objecttolerance="10"
     gridtolerance="10"
     guidetolerance="10"
     inkscape:pageopacity="0"
     inkscape:pageshadow="2"
     inkscape:window-width="1183"
     inkscape:window-height="973"
     id="namedview75"
     showgrid="false"
     inkscape:zoom="4.4470387"
     inkscape:cx="19.001409"
     inkscape:cy="8.2077092"
     inkscape:window-x="35"
     inkscape:window-y="32"
     inkscape:window-maximized="0"
     inkscape:current-layer="g877"
     inkscape:document-rotation="0"
     inkscape:pagecheckerboard="0"
     inkscape:showpageshadow="2"
     inkscape:deskcolor="#d1d1d1" />
  <defs
     id="defs29">
    <filter
       style="color-interpolation-filters:sRGB;"
       inkscape:label="Blur"
       id="filter6"
       x="-0.044145008"
       y="-0.044145008"
       width="1.08829"
       height="1.08829">
      <feGaussianBlur
         stdDeviation="1 1"
         result="blur"
         id="feGaussianBlur6" />
    </filter>
    <filter
       style="color-interpolation-filters:sRGB;"
       inkscape:label="Blur"
       id="filter7"
       x="-0.098100013"
       y="-0.098100021"
       width="1.1962"
       height="1.1962">
      <feGaussianBlur
         stdDeviation="2 2"
         result="blur"
         id="feGaussianBlur7" />
    </filter>
    <clipPath
       id="clip0_515_3621">
      <rect
         width="16"
         height="16"
         fill="#ffffff"
         transform="translate(0.00292969)"
         id="rect7969"
         x="0"
         y="0" />
    </clipPath>
    <filter
       style="color-interpolation-filters:sRGB;"
       inkscape:label="Blur"
       id="filter7349"
       x="-0.10485812"
       y="-0.10485813"
       width="1.2097162"
       height="1.2097163">
      <feGaussianBlur
         stdDeviation="2 2"
         result="blur"
         id="feGaussianBlur7347" />
    </filter>
    <filter
       style="color-interpolation-filters:sRGB"
       inkscape:label="Blur"
       id="filter1283"
       x="-0.082344266"
       y="-0.082344266"
       width="1.1646885"
       height="1.1646885">
      <feGaussianBlur
         stdDeviation="0.5 0.5"
         result="blur"
         id="feGaussianBlur1281" />
    </filter>
    <linearGradient
       inkscape:collect="always"
       xlink:href="#linearGradient883"
       id="linearGradient885"
       x1="2.1085808"
       y1="2.0236168"
       x2="14.846128"
       y2="15.071845"
       gradientUnits="userSpaceOnUse"
       gradientTransform="matrix(2.4606127,0,0,3.1451148,11.16612,5.3876879)" />
    <linearGradient
       inkscape:collect="always"
       id="linearGradient883">
      <stop
         style="stop-color:#808080;stop-opacity:1;"
         offset="0"
         id="stop879" />
      <stop
         style="stop-color:#3e3e3e;stop-opacity:1;"
         offset="0.5"
         id="stop1216" />
      <stop
         style="stop-color:#242424;stop-opacity:1;"
         offset="1"
         id="stop881" />
    </linearGradient>
    <linearGradient
       inkscape:collect="always"
       xlink:href="#linearGradient1134"
       id="linearGradient1136"
       x1="14.971222"
       y1="14.703373"
       x2="2.0756054"
       y2="2.0069976"
       gradientUnits="userSpaceOnUse"
       gradientTransform="matrix(2.4106819,0,0,3.1438568,11.58952,5.3983817)" />
    <linearGradient
       inkscape:collect="always"
       id="linearGradient1134">
      <stop
         style="stop-color:#161616;stop-opacity:1;"
         offset="0"
         id="stop1130" />
      <stop
         style="stop-color:#404040;stop-opacity:1;"
         offset="1"
         id="stop1132" />
    </linearGradient>
    <filter
       style="color-interpolation-filters:sRGB"
       inkscape:label="Blur"
       id="filter1694"
       x="-0.94955398"
       y="-0.2118907"
       width="2.899108"
       height="1.4237814">
      <feGaussianBlur
         stdDeviation="0.2 0.2"
         result="blur"
         id="feGaussianBlur1692" />
    </filter>
  </defs>
  <g
     id="g877"
     transform="matrix(1.1,0,0,1.1,-3.1845928,-3.2065454)">
    <path
       style="fill:#f5f7fa;stroke-width:0.204426;fill-opacity:1"
       d=""
       id="path3" />
    <rect
       style="fill:#000000;stroke:none;stroke-width:0.539739;stroke-dasharray:none;filter:url(#filter1283)"
       id="rect246-1"
       width="14.572964"
       height="14.572964"
       x="1.1932471"
       y="1.2138842"
       rx="2.1589575"
       ry="2.1589575"
       transform="matrix(2.4606127,0,0,3.1451146,11.16612,5.3876877)" />
    <rect
       style="fill:#000000;stroke:url(#linearGradient885);stroke-width:1.63561;stroke-dasharray:none"
       id="rect246"
       width="35.155312"
       height="44.93494"
       x="14.453793"
       y="9.6548424"
       rx="5.2081943"
       ry="5.181818" />
    <rect
       style="fill:url(#linearGradient1136);fill-opacity:1;stroke:none;stroke-width:1.31679;stroke-dasharray:none"
       id="rect246-5"
       width="31.13278"
       height="40.601383"
       x="16.465055"
       y="11.821622"
       rx="3.1818182"
       ry="3.1725934" />
    <path
       d="m 22.215994,25.309587 c 0.275454,0.290909 0.68,0.290909 0.812727,0.290909 0.247273,0 0.552727,-0.04091 0.99,-0.132728 0.342727,-0.07182 0.639091,-0.143636 0.9,-0.207272 0.512727,-0.124546 0.883636,-0.214546 1.232727,-0.214546 0.196364,0 0.555455,0.08545 0.935455,0.175455 0.591818,0.140909 1.328181,0.315454 2.040909,0.315454 0.719091,0 1.476363,-0.05545 1.953636,-0.09909 0.158182,0.594546 0.535455,1.573637 1.390909,2.274546 1.162727,0.953636 2.025455,1.378182 2.061818,1.396364 0.220909,0.107272 0.486364,0.05091 0.643637,-0.137273 0.158182,-0.188182 0.167272,-0.46 0.02364,-0.658182 -0.0055,-0.0073 -0.586364,-0.829091 -0.564545,-1.752727 0.0091,-0.367273 0.02273,-0.655455 0.03636,-0.874546 0.724546,0.213637 1.958182,0.690909 2.594546,1.59 0.963636,1.360909 1.359091,3.456364 1.253636,4.144546 -0.110909,0.716363 -0.123636,0.716363 -0.463636,0.716363 -0.740909,0 -1.362728,0.03 -2.063637,0.411819 -0.62,0.337272 -0.960909,0.706363 -0.998181,0.747272 -0.139091,0.154546 -0.176364,0.375455 -0.09455,0.566364 0.08091,0.191818 0.265455,0.318182 0.472727,0.326364 0.200909,0.0073 0.806364,0.05727 1.196364,0.199091 0.206364,0.07545 0.384545,0.162727 0.557273,0.248181 0.275454,0.135455 0.536363,0.264546 0.84,0.3 0.09909,0.01182 0.2,0.01727 0.296363,0.01546 0.111819,0.26 0.302728,0.570909 0.622728,0.816364 0.245454,0.188181 0.495454,0.304545 0.715454,0.407272 0.270909,0.125455 0.484546,0.225455 0.648182,0.429091 0.43,0.532727 0.574545,1.110909 0.575455,1.116364 0.05636,0.230909 0.25909,0.399091 0.496363,0.409091 0.0082,9.09e-4 0.01636,9.09e-4 0.02455,9.09e-4 0.227272,0 0.431818,-0.143637 0.506363,-0.360909 0.03273,-0.09727 0.315455,-0.990909 -0.06,-2.299091 -0.134545,-0.468182 -0.341818,-0.872727 -0.542727,-1.264546 -0.327273,-0.636363 -0.61,-1.186363 -0.490909,-1.860909 0.556364,-3.167273 0.518182,-5.743636 -0.114546,-7.655454 -0.983636,-2.973637 -3.365454,-4.63 -3.832727,-4.931819 -0.231818,-0.15 -0.440909,-0.281818 -0.617273,-0.390909 0.163637,-0.13 0.37091,-0.267272 0.617273,-0.371818 0.560909,-0.238182 0.797273,-0.303636 0.862727,-0.319091 h 0.01182 c 0.232727,0 0.411818,-0.153636 0.48,-0.380909 0.07091,-0.235454 -0.06,-0.489091 -0.272728,-0.613636 -0.04,-0.02455 -1.003636,-0.584546 -2.274545,-0.584546 -0.261818,0 -0.521818,0.02364 -0.773636,0.07091 -0.783637,0.148182 -1.337273,0.369091 -1.872728,0.582728 -0.522727,0.209091 -1.016363,0.405454 -1.753636,0.560909 -0.358182,0.07545 -0.688182,0.133636 -1.007273,0.19 -1.097273,0.193636 -2.044545,0.360909 -3.461818,1.084545 -1.849091,0.944546 -2.889091,1.978182 -2.928182,2.91 -0.0082,0.196364 -0.0036,0.371818 0.01364,0.525455 -0.173637,0.08636 -0.383637,0.196363 -0.596364,0.317273 -0.864546,0.491818 -1.227273,0.86 -1.251818,1.270909 -0.01636,0.286363 0.06,0.521818 0.228182,0.7 z"
       style="clip-rule:evenodd;fill:#999999;fill-opacity:1;fill-rule:nonzero;stroke-width:0.909091;stroke-linejoin:round;stroke-miterlimit:2"
       id="path4" />
    <path
       d="m 31.036604,47.779695 q 0,0.575758 -0.418182,0.89697 -0.418182,0.321212 -1.127273,0.321212 -0.363637,0 -0.672728,-0.05455 -0.309091,-0.05455 -0.515152,-0.151516 v -0.521212 q 0.218182,0.09697 0.539394,0.175758 0.327273,0.07879 0.672728,0.07879 0.484849,0 0.727273,-0.187879 0.248485,-0.187879 0.248485,-0.509091 0,-0.212122 -0.09091,-0.357576 -0.09091,-0.145455 -0.315152,-0.266667 -0.218182,-0.127273 -0.612121,-0.266667 -0.551516,-0.2 -0.836364,-0.49091 -0.278788,-0.290909 -0.278788,-0.793939 0,-0.345455 0.175757,-0.58788 0.175758,-0.248485 0.484849,-0.381818 0.315152,-0.133333 0.721213,-0.133333 0.357576,0 0.654545,0.06667 0.29697,0.06667 0.539395,0.175758 l -0.169697,0.466667 q -0.224243,-0.09697 -0.49091,-0.163637 -0.260606,-0.06667 -0.545455,-0.06667 -0.40606,0 -0.612121,0.175757 -0.206061,0.169698 -0.206061,0.454546 0,0.218182 0.09091,0.363637 0.09091,0.145454 0.29697,0.260606 0.206061,0.115152 0.557576,0.248485 0.381819,0.139394 0.642425,0.303031 0.266667,0.157575 0.4,0.381818 0.139394,0.224242 0.139394,0.563637 z m 2.963637,1.224243 q 0,-0.109091 0.0061,-0.254546 0.0061,-0.145454 0.02424,-0.248485 h -0.03636 q -0.139394,0.206061 -0.387879,0.351516 -0.242424,0.145454 -0.630303,0.145454 -0.587879,0 -0.957576,-0.418182 -0.363637,-0.424243 -0.363637,-1.260607 0,-0.836364 0.369697,-1.260607 0.375758,-0.430303 0.969698,-0.430303 0.381818,0 0.624243,0.145455 0.242424,0.145454 0.387879,0.357576 h 0.02424 l 0.07879,-0.442425 h 0.424243 v 4.703033 h -0.533334 z m -0.921213,-0.448485 q 0.503031,0 0.709092,-0.272728 0.212121,-0.278788 0.218182,-0.848485 v -0.109091 q 0,-0.618182 -0.206061,-0.933334 -0.206061,-0.321212 -0.733334,-0.321212 -0.436364,0 -0.648485,0.345454 -0.212121,0.339395 -0.212121,0.915153 0,0.575757 0.212121,0.90303 0.218182,0.321213 0.660606,0.321213 z m 3.018183,0.381818 h -0.533334 v -4.606063 h 0.533334 z"
       id="text5786"
       style="font-size:6.06061px;text-align:center;text-anchor:middle;fill:#999999;stroke-width:1.81818"
       aria-label="Sql" />
  </g>
</svg>
