<?xml version="1.0" encoding="UTF-8" standalone="no"?>
<svg
   width="64"
   height="64"
   version="1.1"
   viewBox="0 0 16.933 16.933"
   id="svg7"
   sodipodi:docname="fgh.svg"
   inkscape:version="1.3.2 (091e20ef0f, 2023-11-25)"
   xmlns:inkscape="http://www.inkscape.org/namespaces/inkscape"
   xmlns:sodipodi="http://sodipodi.sourceforge.net/DTD/sodipodi-0.dtd"
   xmlns:xlink="http://www.w3.org/1999/xlink"
   xmlns="http://www.w3.org/2000/svg"
   xmlns:svg="http://www.w3.org/2000/svg"
   xmlns:rdf="http://www.w3.org/1999/02/22-rdf-syntax-ns#"
   xmlns:cc="http://creativecommons.org/ns#"
   xmlns:dc="http://purl.org/dc/elements/1.1/">
  <sodipodi:namedview
     id="namedview7"
     pagecolor="#9c4444"
     bordercolor="#000000"
     borderopacity="0.25"
     inkscape:showpageshadow="2"
     inkscape:pageopacity="0.0"
     inkscape:pagecheckerboard="0"
     inkscape:deskcolor="#d1d1d1"
     inkscape:zoom="4.3531261"
     inkscape:cx="47.896614"
     inkscape:cy="25.958357"
     inkscape:window-width="1463"
     inkscape:window-height="604"
     inkscape:window-x="167"
     inkscape:window-y="273"
     inkscape:window-maximized="0"
     inkscape:current-layer="svg7"
     showgrid="false" />
  <defs
     id="defs2">
    <linearGradient
       id="linearGradient5"
       inkscape:collect="always">
      <stop
         style="stop-color:#392713;stop-opacity:1;"
         offset="0"
         id="stop2" />
      <stop
         style="stop-color:#eed59e;stop-opacity:1;"
         offset="0.5"
         id="stop3" />
      <stop
         style="stop-color:#beaa8a;stop-opacity:1;"
         offset="1"
         id="stop4" />
    </linearGradient>
    <linearGradient
       id="linearGradient8"
       inkscape:collect="always">
      <stop
         style="stop-color:#1a1a1a;stop-opacity:1;"
         offset="0"
         id="stop8" />
      <stop
         style="stop-color:#ffffff;stop-opacity:0;"
         offset="1"
         id="stop9" />
    </linearGradient>
    <linearGradient
       inkscape:collect="always"
       xlink:href="#linearGradient5"
       id="linearGradient41"
       x1="13.675659"
       y1="16.110115"
       x2="13.728528"
       y2="10.548769"
       gradientUnits="userSpaceOnUse"
       gradientTransform="matrix(1.6061171,0,0,2.1084059,-12.924569,-19.742698)" />
    <linearGradient
       inkscape:collect="always"
       xlink:href="#linearGradient42"
       id="linearGradient4"
       x1="11.885941"
       y1="16.50819"
       x2="12.026573"
       y2="10.244942"
       gradientUnits="userSpaceOnUse"
       gradientTransform="matrix(1.6061171,0,0,2.1084059,-12.924569,-19.742698)" />
    <linearGradient
       id="linearGradient42"
       inkscape:collect="always">
      <stop
         style="stop-color:#010101;stop-opacity:1;"
         offset="0"
         id="stop42" />
      <stop
         style="stop-color:#6e6c6d;stop-opacity:1;"
         offset="1"
         id="stop43" />
    </linearGradient>
    <linearGradient
       inkscape:collect="always"
       xlink:href="#linearGradient8"
       id="linearGradient9"
       x1="9.3404646"
       y1="4.1692023"
       x2="9.4279938"
       y2="16.46883"
       gradientUnits="userSpaceOnUse"
       gradientTransform="matrix(0.80952478,0,0,1.0980733,1.5663172,-0.59391329)" />
    <filter
       style="color-interpolation-filters:sRGB;"
       inkscape:label="Blur"
       id="filter2"
       x="-0.14510849"
       y="-0.14612901"
       width="1.290217"
       height="1.292258">
      <feGaussianBlur
         stdDeviation="0.6 0.6"
         result="blur"
         id="feGaussianBlur2" />
    </filter>
    <linearGradient
       inkscape:collect="always"
       xlink:href="#linearGradient5"
       id="linearGradient6"
       x1="9.164752"
       y1="12.851172"
       x2="9.3016205"
       y2="3.8886616"
       gradientUnits="userSpaceOnUse"
       gradientTransform="matrix(0.87326911,0,0,0.87326911,1.0144374,0.99535394)" />
  </defs>
  <metadata
     id="metadata2">
    <rdf:RDF>
      <cc:Work
         rdf:about="">
        <dc:format>image/svg+xml</dc:format>
        <dc:type
           rdf:resource="http://purl.org/dc/dcmitype/StillImage" />
      </cc:Work>
    </rdf:RDF>
  </metadata>
  <rect
     style="fill:#000000;fill-opacity:0.996424;stroke:#000000;stroke-width:0.911802;stroke-dasharray:none;stroke-opacity:1;filter:url(#filter2)"
     id="rect1-2-3"
     width="13.065404"
     height="12.974159"
     x="1.9816793"
     y="1.9267306"
     rx="2.7149384"
     ry="2.8310909"
     transform="matrix(0.78494475,0,0,1.0304244,1.8310625,-0.25598506)" />
  <rect
     style="fill:url(#linearGradient4);fill-opacity:0.996424;stroke:url(#linearGradient41);stroke-width:0.820027;stroke-dasharray:none;stroke-opacity:1"
     id="rect1-2"
     width="10.25562"
     height="13.36889"
     x="3.3865712"
     y="1.7293652"
     rx="2.1310766"
     ry="2.9172251" />
  <path
     style="opacity:0.3;fill:#000000;stroke-width:0.0743079"
     d="M 7.7861606,12.870226 C 7.8190443,12.811383 7.9152263,12.64017 7.9998943,12.489774 8.4829674,11.631682 8.7962222,10.867012 8.9225714,10.237473 8.9700948,10.000682 8.9727727,9.9557035 8.946363,9.837689 8.9020514,9.6396877 8.7691523,9.5060313 8.5535087,9.4425998 8.5135108,9.430887 7.9810918,9.3846881 7.3703561,9.3400462 6.7054697,9.2914515 6.2379758,9.2473422 6.2052177,9.2301057 6.0909141,9.1699845 5.2332012,8.4886457 5.2412847,8.4643955 c 0.00466,-0.013992 0.023893,-0.033857 0.04273,-0.044154 C 5.3028561,8.4099345 5.7890774,8.3364149 6.3645134,8.2568439 7.1469645,8.1486469 7.4363897,8.0998732 7.5124094,8.0634002 7.5712987,8.0351455 7.6713251,7.9485581 7.7501931,7.857562 7.8250663,7.7711741 7.9294388,7.6536232 7.9821297,7.5963376 L 8.0779331,7.492183 8.8023976,7.4218138 C 9.2008526,7.3831126 9.5335539,7.3439182 9.5417317,7.334715 9.5499476,7.325519 9.6445115,6.8418238 9.7519568,6.2598487 9.9200907,5.3491591 9.966929,5.1178015 9.966929,5.1980122 c 0,0.00887 0.148978,0.532283 0.331061,1.1631569 0.182084,0.6308731 0.376186,1.3124813 0.43134,1.5146849 l 0.100276,0.3676424 -0.01398,0.3219293 C 10.787356,9.2164988 10.57595,9.8004183 10.122268,10.480503 9.8031205,10.958917 9.4575819,11.330817 8.6971556,12.014334 8.5153635,12.177739 8.2225673,12.46124 8.0464973,12.644333 7.7916104,12.909387 7.7385557,12.955422 7.7861616,12.870226 Z m 1.1107449,-0.287838 c 0.085007,-0.08062 0.320413,-0.296033 0.5231239,-0.478704 0.7578326,-0.682922 1.2060346,-1.246014 1.5360766,-1.929834 0.06879,-0.142503 0.15418,-0.3486417 0.189783,-0.4580878 0.0356,-0.1094478 0.06717,-0.1961546 0.0701,-0.1926915 0.03157,0.037015 0.22507,0.8044443 0.224688,0.8911863 -7.36e-4,0.143887 -0.09211,0.405433 -0.196933,0.563048 -0.309646,0.46561 -0.79369,0.836984 -1.6694755,1.28088 -0.2744682,0.139114 -0.573935,0.301951 -0.6654814,0.361858 l -0.1664467,0.108911 z"
     id="path1-7" />
  <path
     style="fill:url(#linearGradient6);stroke-width:0.0743079"
     d="M 7.7861606,12.165919 C 7.8190443,12.107076 7.9152263,11.935864 7.9998943,11.785467 8.4829674,10.927374 8.7962222,10.162705 8.9225714,9.5331651 8.9700948,9.2963748 8.9727727,9.2513963 8.946363,9.1333819 8.9020513,8.9353803 8.7691528,8.8017247 8.5535092,8.7382924 8.5135114,8.7265279 7.9810924,8.6803783 7.3703565,8.6357395 6.7054701,8.5871433 6.2379764,8.5430318 6.2052183,8.5257999 6.0909153,8.4656731 5.2332017,7.7843401 5.2412852,7.7600895 5.2459382,7.7460986 5.2651783,7.7262337 5.2840136,7.7159355 5.3028555,7.7056395 5.7890768,7.6321089 6.3645128,7.552538 7.1469645,7.4443403 7.4363897,7.3955662 7.5124094,7.3590932 7.5712983,7.3308387 7.6713251,7.2442505 7.7501931,7.153255 7.8250658,7.0668664 7.9294388,6.9493161 7.9821297,6.8920305 l 0.095803,-0.1041546 0.7244645,-0.070369 c 0.3984554,-0.038702 0.7311568,-0.077897 0.7393345,-0.087099 0.00822,-0.0092 0.1027796,-0.4928913 0.2102252,-1.0748661 0.1681336,-0.91069 0.2149719,-1.1420475 0.2149719,-1.061837 0,0.00887 0.1489782,0.5322832 0.3310612,1.1631571 0.182084,0.6308732 0.376186,1.3124811 0.43134,1.514685 l 0.100276,0.3676422 -0.01398,0.3219294 C 10.787358,8.5121917 10.575952,9.0961112 10.122269,9.7761968 9.8031217,10.25461 9.4575831,10.62651 8.6971568,11.310027 8.5153647,11.473431 8.2225685,11.756932 8.0464985,11.940026 7.7916116,12.205079 7.7385569,12.251116 7.7861638,12.165919 Z M 8.8969055,11.87808 c 0.085007,-0.08062 0.320413,-0.296033 0.5231239,-0.478704 0.7578326,-0.68292 1.2060346,-1.246013 1.5360766,-1.9298327 0.06879,-0.1425036 0.15418,-0.3486422 0.189783,-0.4580878 0.0356,-0.1094445 0.06717,-0.1961553 0.0701,-0.1926909 0.03157,0.037011 0.22507,0.8044426 0.224688,0.8911852 -7.36e-4,0.1438868 -0.09211,0.4054342 -0.196933,0.5630472 -0.309646,0.46561 -0.79369,0.836984 -1.6694755,1.280881 -0.2744682,0.139114 -0.573935,0.301953 -0.6654814,0.361857 l -0.1664467,0.108911 z"
     id="path1" />
  <rect
     style="opacity:0.5;fill:none;fill-opacity:0.996424;stroke:url(#linearGradient9);stroke-width:0.50832;stroke-dasharray:none;stroke-opacity:1"
     id="rect1-2-6"
     width="8.9234324"
     height="12.035513"
     x="4.0584631"
     y="2.3962882"
     rx="1.5176033"
     ry="2.2109985" />
</svg>
