<?xml version="1.0" encoding="UTF-8" standalone="no"?>
<svg
   width="64"
   height="64"
   version="1.1"
   id="svg73"
   sodipodi:docname="text-x-script.svg"
   inkscape:version="1.4 (e7c3feb100, 2024-10-09)"
   xmlns:inkscape="http://www.inkscape.org/namespaces/inkscape"
   xmlns:sodipodi="http://sodipodi.sourceforge.net/DTD/sodipodi-0.dtd"
   xmlns:xlink="http://www.w3.org/1999/xlink"
   xmlns="http://www.w3.org/2000/svg"
   xmlns:svg="http://www.w3.org/2000/svg"
   xmlns:rdf="http://www.w3.org/1999/02/22-rdf-syntax-ns#"
   xmlns:cc="http://creativecommons.org/ns#"
   xmlns:dc="http://purl.org/dc/elements/1.1/">
  <metadata
     id="metadata77">
    <rdf:RDF>
      <cc:Work
         rdf:about="">
        <dc:format>image/svg+xml</dc:format>
        <dc:type
           rdf:resource="http://purl.org/dc/dcmitype/StillImage" />
      </cc:Work>
    </rdf:RDF>
  </metadata>
  <sodipodi:namedview
     pagecolor="#f5f7fa"
     bordercolor="#666666"
     borderopacity="1"
     objecttolerance="10"
     gridtolerance="10"
     guidetolerance="10"
     inkscape:pageopacity="0"
     inkscape:pageshadow="2"
     inkscape:window-width="1226"
     inkscape:window-height="669"
     id="namedview75"
     showgrid="false"
     inkscape:zoom="8.8940773"
     inkscape:cx="19.338712"
     inkscape:cy="29.345371"
     inkscape:window-x="35"
     inkscape:window-y="32"
     inkscape:window-maximized="0"
     inkscape:current-layer="g877"
     inkscape:document-rotation="0"
     inkscape:pagecheckerboard="0"
     inkscape:showpageshadow="2"
     inkscape:deskcolor="#d1d1d1" />
  <defs
     id="defs29">
    <filter
       style="color-interpolation-filters:sRGB;"
       inkscape:label="Blur"
       id="filter6"
       x="-0.044145008"
       y="-0.044145008"
       width="1.08829"
       height="1.08829">
      <feGaussianBlur
         stdDeviation="1 1"
         result="blur"
         id="feGaussianBlur6" />
    </filter>
    <filter
       style="color-interpolation-filters:sRGB;"
       inkscape:label="Blur"
       id="filter7"
       x="-0.098100013"
       y="-0.098100021"
       width="1.1962"
       height="1.1962">
      <feGaussianBlur
         stdDeviation="2 2"
         result="blur"
         id="feGaussianBlur7" />
    </filter>
    <clipPath
       id="clip0_515_3621">
      <rect
         width="16"
         height="16"
         fill="#ffffff"
         transform="translate(0.00292969)"
         id="rect7969"
         x="0"
         y="0" />
    </clipPath>
    <filter
       style="color-interpolation-filters:sRGB;"
       inkscape:label="Blur"
       id="filter7349"
       x="-0.10485812"
       y="-0.10485813"
       width="1.2097162"
       height="1.2097163">
      <feGaussianBlur
         stdDeviation="2 2"
         result="blur"
         id="feGaussianBlur7347" />
    </filter>
    <filter
       style="color-interpolation-filters:sRGB"
       inkscape:label="Blur"
       id="filter1283"
       x="-0.082344266"
       y="-0.082344266"
       width="1.1646885"
       height="1.1646885">
      <feGaussianBlur
         stdDeviation="0.5 0.5"
         result="blur"
         id="feGaussianBlur1281" />
    </filter>
    <linearGradient
       inkscape:collect="always"
       xlink:href="#linearGradient883"
       id="linearGradient885"
       x1="2.1085808"
       y1="2.0236168"
       x2="14.846128"
       y2="15.071845"
       gradientUnits="userSpaceOnUse"
       gradientTransform="matrix(2.4606127,0,0,3.1451148,11.16612,5.3876879)" />
    <linearGradient
       inkscape:collect="always"
       id="linearGradient883">
      <stop
         style="stop-color:#808080;stop-opacity:1;"
         offset="0"
         id="stop879" />
      <stop
         style="stop-color:#3e3e3e;stop-opacity:1;"
         offset="0.5"
         id="stop1216" />
      <stop
         style="stop-color:#242424;stop-opacity:1;"
         offset="1"
         id="stop881" />
    </linearGradient>
    <linearGradient
       inkscape:collect="always"
       xlink:href="#linearGradient1134"
       id="linearGradient1136"
       x1="14.971222"
       y1="14.703373"
       x2="2.0756054"
       y2="2.0069976"
       gradientUnits="userSpaceOnUse"
       gradientTransform="matrix(2.4106819,0,0,3.1438568,11.58952,5.3983817)" />
    <linearGradient
       inkscape:collect="always"
       id="linearGradient1134">
      <stop
         style="stop-color:#161616;stop-opacity:1;"
         offset="0"
         id="stop1130" />
      <stop
         style="stop-color:#404040;stop-opacity:1;"
         offset="1"
         id="stop1132" />
    </linearGradient>
    <filter
       style="color-interpolation-filters:sRGB"
       inkscape:label="Blur"
       id="filter1694"
       x="-0.94955398"
       y="-0.2118907"
       width="2.899108"
       height="1.4237814">
      <feGaussianBlur
         stdDeviation="0.2 0.2"
         result="blur"
         id="feGaussianBlur1692" />
    </filter>
  </defs>
  <g
     id="g877"
     transform="matrix(1.1,0,0,1.1,-3.1845928,-3.2065454)">
    <path
       style="fill:#f5f7fa;stroke-width:0.204426;fill-opacity:1"
       d=""
       id="path3" />
    <rect
       style="fill:#000000;stroke:none;stroke-width:0.539739;stroke-dasharray:none;filter:url(#filter1283)"
       id="rect246-1"
       width="14.572964"
       height="14.572964"
       x="1.1932471"
       y="1.2138842"
       rx="2.1589575"
       ry="2.1589575"
       transform="matrix(2.4606127,0,0,3.1451146,11.16612,5.3876877)" />
    <rect
       style="fill:#000000;stroke:url(#linearGradient885);stroke-width:1.63561;stroke-dasharray:none"
       id="rect246"
       width="35.155312"
       height="44.93494"
       x="14.453793"
       y="9.6548424"
       rx="5.2081943"
       ry="5.181818" />
    <rect
       style="fill:url(#linearGradient1136);fill-opacity:1;stroke:none;stroke-width:1.31679;stroke-dasharray:none"
       id="rect246-5"
       width="31.13278"
       height="40.601383"
       x="16.465055"
       y="11.821622"
       rx="3.1818182"
       ry="3.1725934" />
    <path
       d="m 40.252712,26.306246 c -0.800998,0.0099 -1.494592,0.187678 -2.076325,0.460515 -0.214784,-0.404975 -0.429579,-0.758978 -0.465379,-1.023363 -0.04027,-0.307014 -0.08951,-0.494593 -0.04027,-0.861413 0.04924,-0.366623 0.272956,-0.886949 0.272956,-0.929571 -0.0045,-0.03875 -0.04924,-0.226024 -0.510129,-0.230291 -0.460908,-0.0099 -0.859169,0.08544 -0.903917,0.200387 -0.04473,0.115254 -0.13423,0.379637 -0.192402,0.652569 -0.08054,0.4008 -0.921812,1.820689 -1.400619,2.566951 -0.156621,-0.290036 -0.290862,-0.545862 -0.317713,-0.750433 -0.04028,-0.307107 -0.0895,-0.494692 -0.04028,-0.861414 0.04924,-0.366722 0.272964,-0.886848 0.272964,-0.92957 -0.0044,-0.03875 -0.04923,-0.225931 -0.510132,-0.230198 -0.460906,-0.0099 -0.859166,0.08544 -0.903914,0.200387 -0.04475,0.115069 -0.09396,0.387985 -0.19242,0.652367 -0.09396,0.2644 -1.212678,2.63521 -1.503542,3.253502 -0.147669,0.315651 -0.277436,0.567222 -0.371411,0.737715 -0.09396,0.170484 -0.0044,0.01299 -0.01344,0.02969 -0.08054,0.144972 -0.125293,0.225931 -0.125293,0.225931 v 0.01 c -0.06266,0.106619 -0.129771,0.208944 -0.161094,0.208944 -0.02237,0 -0.06711,-0.285646 0.009,-0.678005 0.165571,-0.822864 0.568304,-2.10644 0.563828,-2.153237 0,-0.02196 0.07608,-0.247392 -0.259538,-0.362547 -0.326651,-0.11522 -0.442994,0.07645 -0.469844,0.07645 -0.02684,0 -0.04923,0.06856 -0.04923,0.06856 0,0 0.362462,-1.445625 -0.693597,-1.445625 -0.662276,0 -1.575141,0.686549 -2.027098,1.313283 -0.286391,0.149332 -0.894966,0.464887 -1.539342,0.801801 -0.246114,0.127871 -0.501181,0.264369 -0.742822,0.387983 l -0.04922,-0.05164 c -1.279806,-1.300438 -3.646991,-2.221365 -3.548545,-3.969727 0.0358,-0.635377 0.268488,-2.311108 4.546427,-4.340743 3.503792,-1.663113 6.309509,-1.206773 6.797264,-0.192054 0.693601,1.449795 -1.499066,4.144717 -5.141578,4.532797 -1.387196,0.149234 -2.116594,-0.362546 -2.300063,-0.554303 -0.192416,-0.200512 -0.219268,-0.208954 -0.290864,-0.170608 -0.116343,0.05962 -0.04475,0.238764 0,0.345359 0.107399,0.268545 0.55488,0.746259 1.315602,0.985111 0.666749,0.208861 2.295586,0.324001 4.264512,-0.4009 2.20609,-0.814403 3.928899,-3.074344 3.423245,-4.963391 -0.514607,-1.923226 -3.86178,-2.554233 -7.025484,-1.483875 -1.883901,0.639552 -3.924424,1.63728 -5.392168,2.946488 -1.745183,1.552034 -2.022623,2.908039 -1.906278,3.470986 0.407209,2.008377 3.311373,3.317483 4.474829,4.285406 -0.05816,0.02969 -0.11187,0.05962 -0.161094,0.08544 -0.581728,0.272843 -2.796768,1.377272 -3.351648,2.545688 -0.626474,1.321827 0.09844,2.272758 0.581729,2.400628 1.494594,0.396628 3.024986,-0.315562 3.852828,-1.488146 0.823368,-1.172594 0.724922,-2.694919 0.344562,-3.39001 l -0.01343,-0.02598 0.456431,-0.255835 c 0.295342,-0.166309 0.586204,-0.319826 0.841269,-0.452069 -0.143195,0.370996 -0.246113,0.810247 -0.299815,1.449799 -0.06265,0.75053 0.259542,1.722724 0.684649,2.106533 0.187942,0.166233 0.411685,0.170494 0.550406,0.170494 0.492231,0 0.715972,-0.38798 0.962086,-0.852768 0.304289,-0.567117 0.572779,-1.223758 0.572779,-1.223758 0,0 -0.335612,1.778065 0.581729,1.778065 0.335611,0 0.671224,-0.413616 0.823367,-0.626834 v 0.01 c 0,0 0.009,-0.01306 0.02684,-0.04274 0.03579,-0.05068 0.05369,-0.08147 0.05369,-0.08147 v -0.01 c 0.134245,-0.22176 0.434059,-0.72917 0.881541,-1.56922 0.577253,-1.083074 1.132133,-2.439081 1.132133,-2.439081 0,0 0.05371,0.332643 0.219265,0.878403 0.09845,0.324098 0.313236,0.678004 0.478807,1.023462 -0.134245,0.17905 -0.214791,0.281378 -0.214791,0.281378 l 0.0044,0.0099 c -0.10738,0.136292 -0.228204,0.281357 -0.353498,0.426316 -0.456432,0.520227 -1.002362,1.112881 -1.073959,1.283474 -0.08502,0.200388 -0.06711,0.34963 0.09845,0.469059 0.12082,0.08545 0.335612,0.102324 0.563828,0.08545 0.411685,-0.02611 0.698074,-0.123799 0.84127,-0.183414 0.223742,-0.07652 0.478804,-0.191866 0.72492,-0.362453 0.447485,-0.315562 0.720448,-0.763245 0.6936,-1.360176 -0.01343,-0.328368 -0.125293,-0.652568 -0.264015,-0.959476 0.04027,-0.05464 0.08054,-0.110986 0.12082,-0.170608 0.707022,-0.985011 1.252952,-2.068089 1.252952,-2.068089 0,0 0.05371,0.332643 0.219265,0.878404 0.08501,0.277203 0.255061,0.57994 0.407209,0.878403 -0.662278,0.515953 -1.078436,1.112981 -1.22163,1.505336 -0.264012,0.724802 -0.05816,1.053169 0.331137,1.12987 0.174518,0.03481 0.425111,-0.04274 0.613055,-0.119436 0.232703,-0.07253 0.514611,-0.196127 0.774146,-0.37944 0.447484,-0.315553 0.877067,-0.754803 0.854695,-1.34756 -0.0134,-0.272843 -0.08951,-0.541486 -0.192416,-0.797327 0.563827,-0.221664 1.293225,-0.349634 2.219513,-0.243032 1.9913,0.221756 2.385087,1.407176 2.309014,1.901766 -0.07607,0.494691 -0.492232,0.767623 -0.630953,0.85287 -0.138712,0.08047 -0.183483,0.110777 -0.170048,0.170494 0.01787,0.08944 0.08054,0.08545 0.201384,0.06855 0.165581,-0.02611 1.047111,-0.405064 1.082908,-1.317551 0.0537,-1.172692 -1.114234,-2.451896 -3.186081,-2.43918 z m -15.357615,4.933599 c -0.6578,0.686448 -1.58409,0.946663 -1.977875,0.7249 -0.425109,-0.234472 -0.259542,-1.245124 0.550404,-1.974394 0.492229,-0.443422 1.132132,-0.852669 1.552766,-1.104236 0.09396,-0.05563 0.237166,-0.13653 0.407209,-0.23459 0.02684,-0.01701 0.04475,-0.02598 0.04475,-0.02598 0.03134,-0.01701 0.06711,-0.03875 0.102922,-0.05962 0.299815,1.040353 0.01344,1.952832 -0.680174,2.673557 z m 4.810442,-3.117077 c -0.228216,0.53304 -0.711499,1.90186 -1.002363,1.825059 -0.25059,-0.06457 -0.402734,-1.100163 -0.04922,-2.123625 0.178992,-0.515952 0.559354,-1.12997 0.783096,-1.368722 0.362461,-0.383712 0.756247,-0.511682 0.854692,-0.353904 0.116346,0.204655 -0.443007,1.688548 -0.586203,2.021192 z m 3.969172,1.807971 c -0.09845,0.0467 -0.187939,0.08147 -0.228216,0.05563 -0.03134,-0.01787 0.04028,-0.08147 0.04028,-0.08147 0,0 0.496705,-0.507308 0.693598,-0.741888 0.111869,-0.13653 0.246114,-0.29418 0.389309,-0.47333 v 0.05068 c 0,0.614019 -0.617526,1.023362 -0.894966,1.189685 z m 3.060785,-0.665186 c -0.0716,-0.05068 -0.06264,-0.208953 0.178988,-0.703538 0.09395,-0.19612 0.308745,-0.524496 0.680175,-0.835876 0.04474,0.127964 0.07157,0.251567 0.0671,0.366821 -0.0045,0.767518 -0.577253,1.05327 -0.92629,1.172593 z"
       id="path4-3"
       style="fill:#999999;stroke-width:0.818181"
       inkscape:connector-curvature="0" />
    <path
       d="m 28.814774,47.753343 q 0,0.575758 -0.418182,0.89697 -0.418182,0.321212 -1.127274,0.321212 -0.363636,0 -0.672727,-0.05454 -0.309092,-0.05455 -0.515152,-0.151515 v -0.521213 q 0.218182,0.09697 0.539394,0.175758 0.327273,0.07879 0.672728,0.07879 0.484848,0 0.727273,-0.187879 0.248485,-0.187879 0.248485,-0.509091 0,-0.212122 -0.09091,-0.357576 -0.09091,-0.145455 -0.315152,-0.266667 -0.218182,-0.127273 -0.612122,-0.266667 -0.551515,-0.2 -0.836364,-0.490909 -0.278788,-0.29091 -0.278788,-0.79394 0,-0.345455 0.175758,-0.587879 0.175758,-0.248485 0.484849,-0.381819 0.315151,-0.133333 0.721212,-0.133333 0.357576,0 0.654546,0.06667 0.29697,0.06667 0.539394,0.175758 l -0.169697,0.466667 q -0.224242,-0.09697 -0.490909,-0.163636 -0.260606,-0.06667 -0.545455,-0.06667 -0.406061,0 -0.612122,0.175758 -0.20606,0.169697 -0.20606,0.454545 0,0.218182 0.09091,0.363637 0.09091,0.145455 0.29697,0.260606 0.20606,0.115152 0.557576,0.248485 0.381818,0.139394 0.642424,0.303031 0.266667,0.157575 0.400001,0.381818 0.139394,0.224243 0.139394,0.563637 z m 2.030303,-2.145456 q 0.59394,0 0.878788,0.260606 0.284849,0.260606 0.284849,0.830304 v 2.212122 h -0.387879 l -0.10303,-0.460606 h -0.02424 q -0.212121,0.266667 -0.448485,0.393939 -0.230303,0.127273 -0.642425,0.127273 -0.442424,0 -0.733333,-0.230303 -0.29091,-0.236364 -0.29091,-0.733334 0,-0.484848 0.381819,-0.745455 0.381818,-0.266667 1.175758,-0.290909 l 0.551515,-0.01818 v -0.193939 q 0,-0.406061 -0.175757,-0.563637 -0.175758,-0.157576 -0.49697,-0.157576 -0.254546,0 -0.484849,0.07879 -0.230303,0.07273 -0.430303,0.169697 l -0.163637,-0.4 q 0.212122,-0.115152 0.503031,-0.19394 0.290909,-0.08485 0.606061,-0.08485 z m 0.157576,1.733334 q -0.606061,0.02424 -0.842425,0.19394 -0.230303,0.169697 -0.230303,0.478788 0,0.272727 0.163636,0.4 0.169697,0.127273 0.430303,0.127273 0.412122,0 0.684849,-0.224243 0.272728,-0.230303 0.272728,-0.70303 v -0.29091 z m 4.12728,0.672728 q 0,0.472728 -0.351516,0.715152 -0.351515,0.242424 -0.945455,0.242424 -0.339394,0 -0.587879,-0.05454 -0.242424,-0.05455 -0.430303,-0.151515 v -0.484849 q 0.193939,0.09697 0.466667,0.181818 0.278788,0.07879 0.563637,0.07879 0.40606,0 0.587879,-0.127273 0.181818,-0.133333 0.181818,-0.351515 0,-0.121212 -0.06667,-0.218182 -0.06667,-0.09697 -0.242424,-0.19394 -0.169697,-0.09697 -0.490909,-0.218182 -0.315152,-0.121212 -0.539395,-0.242424 -0.224242,-0.121212 -0.345455,-0.290909 -0.121212,-0.169697 -0.121212,-0.436364 0,-0.412122 0.333334,-0.636364 0.339394,-0.224243 0.884849,-0.224243 0.29697,0 0.551515,0.06061 0.260607,0.05455 0.484849,0.157576 l -0.181818,0.424243 q -0.206061,-0.08485 -0.430303,-0.145455 -0.224243,-0.06061 -0.460607,-0.06061 -0.327273,0 -0.50303,0.109091 -0.169697,0.10303 -0.169697,0.284849 0,0.133333 0.07879,0.230303 0.07879,0.09091 0.260607,0.181818 0.187879,0.08485 0.49697,0.206061 0.309091,0.115152 0.527273,0.236364 0.218182,0.121212 0.333333,0.29697 0.115152,0.169697 0.115152,0.430303 z m 2.903032,0 q 0,0.472728 -0.351515,0.715152 -0.351516,0.242424 -0.945455,0.242424 -0.339394,0 -0.587879,-0.05454 -0.242425,-0.05455 -0.430304,-0.151515 v -0.484849 q 0.19394,0.09697 0.466667,0.181818 0.278788,0.07879 0.563637,0.07879 0.406061,0 0.587879,-0.127273 0.181818,-0.133333 0.181818,-0.351515 0,-0.121212 -0.06667,-0.218182 -0.06667,-0.09697 -0.242425,-0.19394 -0.169697,-0.09697 -0.490909,-0.218182 -0.315152,-0.121212 -0.539394,-0.242424 -0.224243,-0.121212 -0.345455,-0.290909 -0.121212,-0.169697 -0.121212,-0.436364 0,-0.412122 0.333333,-0.636364 0.339394,-0.224243 0.884849,-0.224243 0.29697,0 0.551516,0.06061 0.260606,0.05455 0.484848,0.157576 l -0.181818,0.424243 q -0.206061,-0.08485 -0.430303,-0.145455 -0.224243,-0.06061 -0.460606,-0.06061 -0.327273,0 -0.503031,0.109091 -0.169697,0.10303 -0.169697,0.284849 0,0.133333 0.07879,0.230303 0.07879,0.09091 0.260606,0.181818 0.187879,0.08485 0.49697,0.206061 0.309091,0.115152 0.527273,0.236364 0.218182,0.121212 0.333334,0.29697 0.115151,0.169697 0.115151,0.430303 z"
       id="text1"
       style="font-size:6.06061px;text-align:center;text-anchor:middle;fill:#999999;stroke-width:0.909091"
       aria-label="Sass" />
  </g>
</svg>
