<?xml version="1.0" encoding="UTF-8" standalone="no"?>
<svg
   width="64"
   height="64"
   version="1.1"
   id="svg73"
   sodipodi:docname="filetype Template.svg"
   inkscape:version="1.4 (e7c3feb100, 2024-10-09)"
   xmlns:inkscape="http://www.inkscape.org/namespaces/inkscape"
   xmlns:sodipodi="http://sodipodi.sourceforge.net/DTD/sodipodi-0.dtd"
   xmlns:xlink="http://www.w3.org/1999/xlink"
   xmlns="http://www.w3.org/2000/svg"
   xmlns:svg="http://www.w3.org/2000/svg"
   xmlns:rdf="http://www.w3.org/1999/02/22-rdf-syntax-ns#"
   xmlns:cc="http://creativecommons.org/ns#"
   xmlns:dc="http://purl.org/dc/elements/1.1/">
  <metadata
     id="metadata77">
    <rdf:RDF>
      <cc:Work
         rdf:about="">
        <dc:format>image/svg+xml</dc:format>
        <dc:type
           rdf:resource="http://purl.org/dc/dcmitype/StillImage" />
      </cc:Work>
    </rdf:RDF>
  </metadata>
  <sodipodi:namedview
     pagecolor="#f5f7fa"
     bordercolor="#666666"
     borderopacity="1"
     objecttolerance="10"
     gridtolerance="10"
     guidetolerance="10"
     inkscape:pageopacity="0"
     inkscape:pageshadow="2"
     inkscape:window-width="1183"
     inkscape:window-height="973"
     id="namedview75"
     showgrid="false"
     inkscape:zoom="3.1445312"
     inkscape:cx="18.921739"
     inkscape:cy="8.1093169"
     inkscape:window-x="35"
     inkscape:window-y="32"
     inkscape:window-maximized="0"
     inkscape:current-layer="g877"
     inkscape:document-rotation="0"
     inkscape:pagecheckerboard="0"
     inkscape:showpageshadow="2"
     inkscape:deskcolor="#d1d1d1" />
  <defs
     id="defs29">
    <filter
       style="color-interpolation-filters:sRGB;"
       inkscape:label="Blur"
       id="filter6"
       x="-0.044145008"
       y="-0.044145008"
       width="1.08829"
       height="1.08829">
      <feGaussianBlur
         stdDeviation="1 1"
         result="blur"
         id="feGaussianBlur6" />
    </filter>
    <filter
       style="color-interpolation-filters:sRGB;"
       inkscape:label="Blur"
       id="filter7"
       x="-0.098100013"
       y="-0.098100021"
       width="1.1962"
       height="1.1962">
      <feGaussianBlur
         stdDeviation="2 2"
         result="blur"
         id="feGaussianBlur7" />
    </filter>
    <clipPath
       id="clip0_515_3621">
      <rect
         width="16"
         height="16"
         fill="#ffffff"
         transform="translate(0.00292969)"
         id="rect7969"
         x="0"
         y="0" />
    </clipPath>
    <filter
       style="color-interpolation-filters:sRGB;"
       inkscape:label="Blur"
       id="filter7349"
       x="-0.10485812"
       y="-0.10485813"
       width="1.2097162"
       height="1.2097163">
      <feGaussianBlur
         stdDeviation="2 2"
         result="blur"
         id="feGaussianBlur7347" />
    </filter>
    <filter
       style="color-interpolation-filters:sRGB"
       inkscape:label="Blur"
       id="filter1283"
       x="-0.082344266"
       y="-0.082344266"
       width="1.1646885"
       height="1.1646885">
      <feGaussianBlur
         stdDeviation="0.5 0.5"
         result="blur"
         id="feGaussianBlur1281" />
    </filter>
    <linearGradient
       inkscape:collect="always"
       xlink:href="#linearGradient883"
       id="linearGradient885"
       x1="2.1085808"
       y1="2.0236168"
       x2="14.846128"
       y2="15.071845"
       gradientUnits="userSpaceOnUse"
       gradientTransform="matrix(2.4606127,0,0,3.1451148,11.16612,5.3876879)" />
    <linearGradient
       inkscape:collect="always"
       id="linearGradient883">
      <stop
         style="stop-color:#808080;stop-opacity:1;"
         offset="0"
         id="stop879" />
      <stop
         style="stop-color:#3e3e3e;stop-opacity:1;"
         offset="0.5"
         id="stop1216" />
      <stop
         style="stop-color:#242424;stop-opacity:1;"
         offset="1"
         id="stop881" />
    </linearGradient>
    <linearGradient
       inkscape:collect="always"
       xlink:href="#linearGradient1134"
       id="linearGradient1136"
       x1="14.971222"
       y1="14.703373"
       x2="2.0756054"
       y2="2.0069976"
       gradientUnits="userSpaceOnUse"
       gradientTransform="matrix(2.4106819,0,0,3.1438568,11.58952,5.3983817)" />
    <linearGradient
       inkscape:collect="always"
       id="linearGradient1134">
      <stop
         style="stop-color:#161616;stop-opacity:1;"
         offset="0"
         id="stop1130" />
      <stop
         style="stop-color:#404040;stop-opacity:1;"
         offset="1"
         id="stop1132" />
    </linearGradient>
    <filter
       style="color-interpolation-filters:sRGB"
       inkscape:label="Blur"
       id="filter1694"
       x="-0.94955398"
       y="-0.2118907"
       width="2.899108"
       height="1.4237814">
      <feGaussianBlur
         stdDeviation="0.2 0.2"
         result="blur"
         id="feGaussianBlur1692" />
    </filter>
  </defs>
  <g
     id="g877"
     transform="matrix(1.1,0,0,1.1,-3.1845928,-3.2065454)">
    <path
       style="fill:#f5f7fa;stroke-width:0.204426;fill-opacity:1"
       d=""
       id="path3" />
    <rect
       style="fill:#000000;stroke:none;stroke-width:0.539739;stroke-dasharray:none;filter:url(#filter1283)"
       id="rect246-1"
       width="14.572964"
       height="14.572964"
       x="1.1932471"
       y="1.2138842"
       rx="2.1589575"
       ry="2.1589575"
       transform="matrix(2.4606127,0,0,3.1451146,11.16612,5.3876877)" />
    <rect
       style="fill:#000000;stroke:url(#linearGradient885);stroke-width:1.63561;stroke-dasharray:none"
       id="rect246"
       width="35.155312"
       height="44.93494"
       x="14.453793"
       y="9.6548424"
       rx="5.2081943"
       ry="5.181818" />
    <rect
       style="fill:url(#linearGradient1136);fill-opacity:1;stroke:none;stroke-width:1.31679;stroke-dasharray:none"
       id="rect246-5"
       width="31.13278"
       height="40.601383"
       x="16.465055"
       y="11.821622"
       rx="3.1818182"
       ry="3.1725934" />
    <path
       style="fill:#999999;fill-opacity:1;stroke-width:0.818182"
       d="m 31.986704,15.096854 c -1.020543,2.500167 -1.63612,4.137736 -2.77186,6.563554 0.69704,0.737965 1.551167,1.593119 2.93826,2.5637 -1.491823,-0.613929 -2.507703,-1.225878 -3.268741,-1.86553 -1.453415,3.032065 -3.73304,7.346912 -8.35292,15.64729 3.630756,-2.095692 6.643429,-3.386156 9.266344,-3.879527 -0.112885,-0.484075 -0.17572,-1.010034 -0.171063,-1.556937 l 0.0033,-0.112873 c 0.05702,-2.326091 1.071794,-4.389834 2.50543,-4.268816 1.433643,0.121017 2.270022,2.382578 2.211839,4.708659 -0.01054,0.437531 -0.05932,0.857601 -0.145458,1.247415 2.593817,0.508505 5.659213,1.795476 9.238651,3.862074 -0.706342,-1.299767 -1.339383,-2.469216 -1.941003,-3.58513 -0.948384,-0.735411 -1.935175,-1.691912 -3.952972,-2.727547 1.385928,0.360728 2.382022,0.774979 3.155866,1.240434 C 34.581432,21.537299 34.084541,20.023185 31.986452,15.09755 Z"
       id="path6" />
    <path
       d="m 20.209136,44.609996 q 0.848485,0 1.236364,0.333333 0.387879,0.333334 0.387879,0.939395 0,0.357576 -0.163636,0.672727 -0.157576,0.309092 -0.539394,0.503031 -0.375758,0.19394 -1.024243,0.19394 h -0.49697 v 1.684849 h -0.545455 v -4.327275 z m -0.04848,0.466667 h -0.551515 v 1.709092 H 20.0455 q 0.618182,0 0.921212,-0.2 0.303031,-0.200001 0.303031,-0.678789 0,-0.418182 -0.266667,-0.624243 -0.266667,-0.20606 -0.842425,-0.20606 z m 3.024242,1.660607 q 0,0.09697 -0.01212,0.254545 -0.0061,0.157576 -0.01212,0.272728 h 0.02424 q 0.03636,-0.04849 0.109091,-0.139394 0.07273,-0.09091 0.145454,-0.181819 0.07879,-0.09697 0.133334,-0.157575 l 1.036364,-1.096971 h 0.624243 l -1.315152,1.38788 1.406061,1.860607 h -0.642425 l -1.127273,-1.515152 -0.369697,0.321212 v 1.19394 H 22.65762 v -4.606063 h 0.527273 z m 3.860611,-1.109092 q 0.321212,0 0.575757,0.121212 0.260607,0.121213 0.442425,0.369698 h 0.0303 l 0.07273,-0.430304 h 0.424243 v 3.303033 q 0,0.69697 -0.357576,1.048485 -0.351515,0.351515 -1.09697,0.351515 -0.715152,0 -1.169698,-0.20606 v -0.49091 q 0.478788,0.254546 1.200001,0.254546 0.418182,0 0.654546,-0.248485 0.242424,-0.242424 0.242424,-0.666667 v -0.127273 q 0,-0.07273 0.0061,-0.206061 0.0061,-0.139394 0.01212,-0.193939 h -0.02424 q -0.327273,0.490909 -1.006061,0.490909 -0.630303,0 -0.987879,-0.442424 -0.351516,-0.442425 -0.351516,-1.236365 0,-0.775758 0.351516,-1.230303 0.357576,-0.460607 0.981819,-0.460607 z m 0.07273,0.448485 q -0.406061,0 -0.630304,0.327273 -0.224242,0.321213 -0.224242,0.921213 0,0.6 0.218182,0.921213 0.224242,0.315151 0.648485,0.315151 0.490909,0 0.715152,-0.260606 0.224243,-0.266667 0.224243,-0.854546 v -0.127273 q 0,-0.666667 -0.230304,-0.951515 -0.230303,-0.29091 -0.721212,-0.29091 z m 5.387882,-1.466667 q 0.812122,0 1.224243,0.242424 0.418182,0.236364 0.418182,0.830304 0,0.381818 -0.212121,0.636364 -0.212121,0.248485 -0.612121,0.321212 v 0.0303 q 0.272727,0.04242 0.490909,0.157576 0.224242,0.115151 0.351515,0.327273 0.127273,0.212121 0.127273,0.551515 0,0.587879 -0.406061,0.909092 -0.4,0.321212 -1.09697,0.321212 h -1.521213 v -4.327275 z m 0.109091,1.842425 q 0.557576,0 0.763637,-0.175758 0.206061,-0.181818 0.206061,-0.533333 0,-0.357576 -0.254546,-0.509091 -0.248485,-0.157576 -0.8,-0.157576 h -0.715152 v 1.375758 z m -0.8,0.454546 v 1.569698 h 0.872728 q 0.575757,0 0.8,-0.224243 0.224243,-0.224242 0.224243,-0.587879 0,-0.339394 -0.236364,-0.545455 -0.230303,-0.212121 -0.830304,-0.212121 z m 6.036365,-1.218183 v 3.248487 h -0.436364 l -0.07879,-0.430303 h -0.02424 q -0.157575,0.254545 -0.436363,0.375758 -0.278789,0.115151 -0.59394,0.115151 -0.587879,0 -0.884849,-0.278788 -0.29697,-0.284848 -0.29697,-0.903031 v -2.127274 h 0.539394 v 2.090911 q 0,0.775758 0.721213,0.775758 0.539394,0 0.745455,-0.303031 0.212121,-0.30303 0.212121,-0.872728 v -1.69091 z M 39.1546,44.470602 q 0.121212,0 0.212121,0.08485 0.09697,0.07879 0.09697,0.254546 0,0.169697 -0.09697,0.254545 -0.09091,0.08485 -0.212121,0.08485 -0.133334,0 -0.224243,-0.08485 -0.09091,-0.08485 -0.09091,-0.254545 0,-0.175758 0.09091,-0.254546 0.09091,-0.08485 0.224243,-0.08485 z m 0.260606,1.218182 v 3.248487 h -0.533334 v -3.248487 z m 1.563633,3.248487 h -0.533334 v -4.606063 h 0.533334 z m 2.181817,0.06061 q -0.606061,0 -0.969698,-0.418182 -0.363636,-0.424243 -0.363636,-1.260607 0,-0.836364 0.363636,-1.260607 0.369698,-0.430303 0.975758,-0.430303 0.375758,0 0.612122,0.139394 0.242424,0.139394 0.39394,0.339394 h 0.03636 q -0.0061,-0.07879 -0.02424,-0.230303 -0.01212,-0.157576 -0.01212,-0.248485 v -1.29697 h 0.533333 v 4.606063 h -0.430303 l -0.07879,-0.436364 h -0.02424 q -0.145455,0.206061 -0.387879,0.351516 -0.242425,0.145454 -0.624243,0.145454 z m 0.08485,-0.442424 q 0.515152,0 0.721213,-0.278788 0.212121,-0.284849 0.212121,-0.854546 v -0.09697 q 0,-0.606061 -0.2,-0.927273 -0.2,-0.327273 -0.739394,-0.327273 -0.430303,0 -0.648485,0.345454 -0.212122,0.339395 -0.212122,0.915153 0,0.581818 0.212122,0.90303 0.218182,0.321213 0.654545,0.321213 z"
       id="text5786"
       style="font-size:6.06061px;text-align:center;text-anchor:middle;fill:#999999;stroke-width:1.81818"
       aria-label="Pkg Build" />
  </g>
</svg>
