<?xml version="1.0" encoding="UTF-8" standalone="no"?>
<svg
   width="64"
   height="64"
   version="1.1"
   id="svg73"
   sodipodi:docname="apk.svg"
   inkscape:version="1.2.2 (b0a8486541, 2022-12-01)"
   xmlns:inkscape="http://www.inkscape.org/namespaces/inkscape"
   xmlns:sodipodi="http://sodipodi.sourceforge.net/DTD/sodipodi-0.dtd"
   xmlns:xlink="http://www.w3.org/1999/xlink"
   xmlns="http://www.w3.org/2000/svg"
   xmlns:svg="http://www.w3.org/2000/svg"
   xmlns:rdf="http://www.w3.org/1999/02/22-rdf-syntax-ns#"
   xmlns:cc="http://creativecommons.org/ns#"
   xmlns:dc="http://purl.org/dc/elements/1.1/">
  <metadata
     id="metadata77">
    <rdf:RDF>
      <cc:Work
         rdf:about="">
        <dc:format>image/svg+xml</dc:format>
        <dc:type
           rdf:resource="http://purl.org/dc/dcmitype/StillImage" />
      </cc:Work>
    </rdf:RDF>
  </metadata>
  <sodipodi:namedview
     pagecolor="#f5f7fa"
     bordercolor="#666666"
     borderopacity="1"
     objecttolerance="10"
     gridtolerance="10"
     guidetolerance="10"
     inkscape:pageopacity="0"
     inkscape:pageshadow="2"
     inkscape:window-width="1226"
     inkscape:window-height="603"
     id="namedview75"
     showgrid="false"
     inkscape:zoom="3.1445312"
     inkscape:cx="19.080746"
     inkscape:cy="7.9503106"
     inkscape:window-x="35"
     inkscape:window-y="32"
     inkscape:window-maximized="0"
     inkscape:current-layer="g877"
     inkscape:document-rotation="0"
     inkscape:pagecheckerboard="0"
     inkscape:showpageshadow="2"
     inkscape:deskcolor="#d1d1d1" />
  <defs
     id="defs29">
    <filter
       style="color-interpolation-filters:sRGB;"
       inkscape:label="Blur"
       id="filter6"
       x="-0.044145008"
       y="-0.044145008"
       width="1.08829"
       height="1.08829">
      <feGaussianBlur
         stdDeviation="1 1"
         result="blur"
         id="feGaussianBlur6" />
    </filter>
    <filter
       style="color-interpolation-filters:sRGB;"
       inkscape:label="Blur"
       id="filter7"
       x="-0.098100013"
       y="-0.098100021"
       width="1.1962"
       height="1.1962">
      <feGaussianBlur
         stdDeviation="2 2"
         result="blur"
         id="feGaussianBlur7" />
    </filter>
    <clipPath
       id="clip0_515_3621">
      <rect
         width="16"
         height="16"
         fill="#ffffff"
         transform="translate(0.00292969)"
         id="rect7969"
         x="0"
         y="0" />
    </clipPath>
    <filter
       style="color-interpolation-filters:sRGB;"
       inkscape:label="Blur"
       id="filter7349"
       x="-0.10485812"
       y="-0.10485813"
       width="1.2097162"
       height="1.2097163">
      <feGaussianBlur
         stdDeviation="2 2"
         result="blur"
         id="feGaussianBlur7347" />
    </filter>
    <filter
       style="color-interpolation-filters:sRGB"
       inkscape:label="Blur"
       id="filter1283"
       x="-0.082344266"
       y="-0.082344266"
       width="1.1646885"
       height="1.1646885">
      <feGaussianBlur
         stdDeviation="0.5 0.5"
         result="blur"
         id="feGaussianBlur1281" />
    </filter>
    <linearGradient
       inkscape:collect="always"
       xlink:href="#linearGradient883"
       id="linearGradient885"
       x1="2.1085808"
       y1="2.0236168"
       x2="14.846128"
       y2="15.071845"
       gradientUnits="userSpaceOnUse"
       gradientTransform="matrix(2.4606127,0,0,3.1451148,11.16612,5.3876879)" />
    <linearGradient
       inkscape:collect="always"
       id="linearGradient883">
      <stop
         style="stop-color:#808080;stop-opacity:1;"
         offset="0"
         id="stop879" />
      <stop
         style="stop-color:#3e3e3e;stop-opacity:1;"
         offset="0.5"
         id="stop1216" />
      <stop
         style="stop-color:#242424;stop-opacity:1;"
         offset="1"
         id="stop881" />
    </linearGradient>
    <linearGradient
       inkscape:collect="always"
       xlink:href="#linearGradient1134"
       id="linearGradient1136"
       x1="14.971222"
       y1="14.703373"
       x2="2.0756054"
       y2="2.0069976"
       gradientUnits="userSpaceOnUse"
       gradientTransform="matrix(2.4106819,0,0,3.1438568,11.58952,5.3983817)" />
    <linearGradient
       inkscape:collect="always"
       id="linearGradient1134">
      <stop
         style="stop-color:#161616;stop-opacity:1;"
         offset="0"
         id="stop1130" />
      <stop
         style="stop-color:#404040;stop-opacity:1;"
         offset="1"
         id="stop1132" />
    </linearGradient>
    <filter
       style="color-interpolation-filters:sRGB"
       inkscape:label="Blur"
       id="filter1694"
       x="-0.94955398"
       y="-0.2118907"
       width="2.899108"
       height="1.4237814">
      <feGaussianBlur
         stdDeviation="0.2 0.2"
         result="blur"
         id="feGaussianBlur1692" />
    </filter>
  </defs>
  <g
     id="g877"
     transform="matrix(1.1,0,0,1.1,-3.1845928,-3.2065454)">
    <path
       style="fill:#f5f7fa;stroke-width:0.204426;fill-opacity:1"
       d=""
       id="path3" />
    <rect
       style="fill:#000000;stroke:none;stroke-width:0.539739;stroke-dasharray:none;filter:url(#filter1283)"
       id="rect246-1"
       width="14.572964"
       height="14.572964"
       x="1.1932471"
       y="1.2138842"
       rx="2.1589575"
       ry="2.1589575"
       transform="matrix(2.4606127,0,0,3.1451146,11.16612,5.3876877)" />
    <rect
       style="fill:#000000;stroke:url(#linearGradient885);stroke-width:1.63561;stroke-dasharray:none"
       id="rect246"
       width="35.155312"
       height="44.93494"
       x="14.453793"
       y="9.6548424"
       rx="5.2081943"
       ry="5.181818" />
    <rect
       style="fill:url(#linearGradient1136);fill-opacity:1;stroke:none;stroke-width:1.31679;stroke-dasharray:none"
       id="rect246-5"
       width="31.13278"
       height="40.601383"
       x="16.465055"
       y="11.821622"
       rx="3.1818182"
       ry="3.1725934" />
    <path
       style="color:#000000;clip-rule:nonzero;display:inline;overflow:visible;visibility:visible;isolation:auto;mix-blend-mode:normal;color-interpolation:sRGB;color-interpolation-filters:linearRGB;solid-color:#000000;solid-opacity:1;fill:#999999;fill-opacity:1;fill-rule:nonzero;stroke:none;stroke-width:0.679477;stroke-linecap:butt;stroke-linejoin:miter;stroke-miterlimit:4;stroke-dasharray:none;stroke-dashoffset:0;stroke-opacity:0.3;marker:none;color-rendering:auto;image-rendering:auto;shape-rendering:auto;text-rendering:auto;enable-background:accumulate"
       d="m 30.708627,16.265087 c -0.263826,0 -0.48368,1.049673 -0.612733,2.549802 a 8.0628494,8.3056501 0 0 0 -1.948426,0.843541 c -1.125535,-0.971722 -2.004741,-1.558289 -2.1918,-1.365595 l -2.074408,2.136877 c -0.187058,0.192688 0.382361,1.098373 1.325674,2.2578 a 8.0628494,8.3056501 0 0 0 -0.811725,2.007103 c -1.460353,0.132809 -2.482418,0.358956 -2.482418,0.631182 v 3.020234 c 0,0.271768 1.018986,0.498246 2.475261,0.631184 a 8.0628494,8.3056501 0 0 0 0.816019,2.011517 c -0.941169,1.157351 -1.509647,2.060918 -1.322811,2.253379 l 2.074408,2.136875 c 0.186656,0.192279 1.062705,-0.391912 2.184642,-1.359693 a 8.0628494,8.3056501 0 0 0 1.955584,0.830268 c 0.12893,1.504332 0.348467,2.557175 0.612733,2.557175 h 2.931943 c 0.263825,0 0.48368,-1.049673 0.612732,-2.549801 a 8.0628494,8.3056501 0 0 0 1.948426,-0.843538 c 1.125536,0.971718 2.004741,1.558281 2.191803,1.365589 L 40.46794,33.242111 C 40.655006,33.04946 40.085573,32.143739 39.142265,30.98431 a 8.0628494,8.3056501 0 0 0 0.811723,-2.007095 c 1.460353,-0.132812 2.482418,-0.358958 2.482418,-0.631184 v -3.020235 c 0,-0.27177 -1.018991,-0.498245 -2.475259,-0.631181 a 8.0628494,8.3056501 0 0 0 -0.816022,-2.011524 c 0.941169,-1.157354 1.509648,-2.060919 1.322815,-2.253379 l -2.074409,-2.136877 c -0.186664,-0.192279 -1.062709,0.391918 -2.18465,1.359696 A 8.0628494,8.3056501 0 0 0 34.253302,18.822262 C 34.124373,17.31793 33.904837,16.265091 33.64057,16.265091 Z m 1.465971,6.795531 a 3.6649311,3.7752949 0 0 1 3.664932,3.775297 3.6649311,3.7752949 0 0 1 -3.664932,3.775291 3.6649311,3.7752949 0 0 1 -3.664931,-3.775291 3.6649311,3.7752949 0 0 1 3.664931,-3.775297 z"
       id="path4690"
       inkscape:connector-curvature="0" />
    <g
       aria-label="Make"
       id="text5786"
       style="font-size:6.06061px;text-align:center;text-anchor:middle;fill:#999999;stroke-width:1.81818">
      <path
         d="m 26.569741,48.937271 -1.424244,-3.793942 h -0.02424 q 0.01818,0.187879 0.0303,0.509092 0.01212,0.315151 0.01212,0.660606 v 2.624244 h -0.50303 v -4.327275 h 0.806061 l 1.333334,3.545456 h 0.02424 l 1.357577,-3.545456 h 0.8 v 4.327275 h -0.539394 v -2.660608 q 0,-0.315151 0.01212,-0.624242 0.01818,-0.309092 0.0303,-0.503031 h -0.02424 l -1.442425,3.787881 z"
         id="path8118" />
      <path
         d="m 31.315196,45.634239 q 0.593939,0 0.878788,0.260606 0.284849,0.260606 0.284849,0.830304 v 2.212122 h -0.387879 l -0.103031,-0.460606 h -0.02424 q -0.212121,0.266667 -0.448485,0.393939 -0.230303,0.127273 -0.642425,0.127273 -0.442424,0 -0.733334,-0.230303 -0.290909,-0.236364 -0.290909,-0.733334 0,-0.484849 0.381818,-0.745455 0.381819,-0.266667 1.175759,-0.290909 l 0.551515,-0.01818 v -0.193939 q 0,-0.406061 -0.175757,-0.563637 -0.175758,-0.157576 -0.49697,-0.157576 -0.254546,0 -0.484849,0.07879 -0.230303,0.07273 -0.430303,0.169697 l -0.163637,-0.4 q 0.212121,-0.115152 0.503031,-0.19394 0.290909,-0.08485 0.606061,-0.08485 z m 0.157576,1.733334 q -0.606061,0.02424 -0.842425,0.19394 -0.230303,0.169697 -0.230303,0.478788 0,0.272727 0.163636,0.4 0.169697,0.127273 0.430303,0.127273 0.412122,0 0.684849,-0.224243 0.272728,-0.230303 0.272728,-0.70303 v -0.29091 z"
         id="path8120" />
      <path
         d="m 34.012172,46.73727 q 0,0.09697 -0.01212,0.254545 -0.0061,0.157576 -0.01212,0.272728 h 0.02424 q 0.03636,-0.04849 0.109091,-0.139394 0.07273,-0.09091 0.145454,-0.181819 0.07879,-0.09697 0.133334,-0.157575 l 1.036364,-1.096971 h 0.624243 l -1.315153,1.38788 1.406062,1.860607 h -0.642425 l -1.127273,-1.515152 -0.369697,0.321212 v 1.19394 h -0.527273 v -4.606063 h 0.527273 z"
         id="path8122" />
      <path
         d="m 37.975813,45.628178 q 0.418182,0 0.715152,0.181818 0.30303,0.181819 0.460606,0.515152 0.163637,0.327273 0.163637,0.769698 v 0.321212 h -2.224244 q 0.01212,0.551516 0.278788,0.842425 0.272728,0.284848 0.757576,0.284848 0.309091,0 0.545455,-0.05455 0.242425,-0.06061 0.49697,-0.169697 v 0.466667 q -0.248485,0.109091 -0.490909,0.157576 -0.242425,0.05455 -0.575758,0.05455 -0.460606,0 -0.818182,-0.187879 -0.351516,-0.187879 -0.551516,-0.557576 -0.193939,-0.375758 -0.193939,-0.915152 0,-0.533334 0.175757,-0.915152 0.181818,-0.381818 0.503031,-0.587879 0.327273,-0.206061 0.757576,-0.206061 z m -0.0061,0.436364 q -0.381818,0 -0.606061,0.248485 -0.218182,0.242424 -0.260606,0.678788 h 1.654547 q -0.0061,-0.412121 -0.19394,-0.666667 -0.187879,-0.260606 -0.59394,-0.260606 z"
         id="path8124" />
    </g>
  </g>
</svg>
