<?xml version="1.0" encoding="UTF-8" standalone="no"?>
<svg
   width="64"
   height="64"
   version="1.1"
   viewBox="0 0 16.933 16.933"
   id="svg7"
   sodipodi:docname="text-x-subviewer.svg"
   inkscape:version="1.3.2 (091e20ef0f, 2023-11-25)"
   xmlns:inkscape="http://www.inkscape.org/namespaces/inkscape"
   xmlns:sodipodi="http://sodipodi.sourceforge.net/DTD/sodipodi-0.dtd"
   xmlns:xlink="http://www.w3.org/1999/xlink"
   xmlns="http://www.w3.org/2000/svg"
   xmlns:svg="http://www.w3.org/2000/svg"
   xmlns:rdf="http://www.w3.org/1999/02/22-rdf-syntax-ns#"
   xmlns:cc="http://creativecommons.org/ns#"
   xmlns:dc="http://purl.org/dc/elements/1.1/">
  <sodipodi:namedview
     id="namedview7"
     pagecolor="#9c4444"
     bordercolor="#000000"
     borderopacity="0.25"
     inkscape:showpageshadow="2"
     inkscape:pageopacity="0.0"
     inkscape:pagecheckerboard="0"
     inkscape:deskcolor="#d1d1d1"
     inkscape:zoom="8.7062522"
     inkscape:cx="33.251966"
     inkscape:cy="49.389794"
     inkscape:window-width="1463"
     inkscape:window-height="664"
     inkscape:window-x="167"
     inkscape:window-y="273"
     inkscape:window-maximized="0"
     inkscape:current-layer="svg7"
     showgrid="false" />
  <defs
     id="defs2">
    <linearGradient
       id="linearGradient5"
       inkscape:collect="always">
      <stop
         style="stop-color:#392713;stop-opacity:1;"
         offset="0"
         id="stop2" />
      <stop
         style="stop-color:#eed59e;stop-opacity:1;"
         offset="0.5"
         id="stop3" />
      <stop
         style="stop-color:#beaa8a;stop-opacity:1;"
         offset="1"
         id="stop4" />
    </linearGradient>
    <linearGradient
       id="linearGradient8"
       inkscape:collect="always">
      <stop
         style="stop-color:#1a1a1a;stop-opacity:1;"
         offset="0"
         id="stop8" />
      <stop
         style="stop-color:#ffffff;stop-opacity:0;"
         offset="1"
         id="stop9" />
    </linearGradient>
    <linearGradient
       inkscape:collect="always"
       xlink:href="#linearGradient5"
       id="linearGradient41"
       x1="13.675659"
       y1="16.110115"
       x2="13.728528"
       y2="10.548769"
       gradientUnits="userSpaceOnUse"
       gradientTransform="matrix(1.6061171,0,0,2.1084059,-12.924569,-19.742698)" />
    <linearGradient
       inkscape:collect="always"
       xlink:href="#linearGradient42"
       id="linearGradient4"
       x1="11.885941"
       y1="16.50819"
       x2="12.026573"
       y2="10.244942"
       gradientUnits="userSpaceOnUse"
       gradientTransform="matrix(1.6061171,0,0,2.1084059,-12.924569,-19.742698)" />
    <linearGradient
       id="linearGradient42"
       inkscape:collect="always">
      <stop
         style="stop-color:#010101;stop-opacity:1;"
         offset="0"
         id="stop42" />
      <stop
         style="stop-color:#6e6c6d;stop-opacity:1;"
         offset="1"
         id="stop43" />
    </linearGradient>
    <linearGradient
       inkscape:collect="always"
       xlink:href="#linearGradient8"
       id="linearGradient9"
       x1="9.3404646"
       y1="4.1692023"
       x2="9.4279938"
       y2="16.46883"
       gradientUnits="userSpaceOnUse"
       gradientTransform="matrix(0.80952478,0,0,1.0980733,1.5663172,-0.59391329)" />
    <filter
       style="color-interpolation-filters:sRGB;"
       inkscape:label="Blur"
       id="filter2"
       x="-0.14510849"
       y="-0.14612901"
       width="1.290217"
       height="1.292258">
      <feGaussianBlur
         stdDeviation="0.6 0.6"
         result="blur"
         id="feGaussianBlur2" />
    </filter>
    <linearGradient
       inkscape:collect="always"
       xlink:href="#linearGradient5"
       id="linearGradient12"
       x1="8.4791412"
       y1="10.189754"
       x2="8.4523258"
       y2="3.7802761"
       gradientUnits="userSpaceOnUse" />
    <linearGradient
       inkscape:collect="always"
       xlink:href="#linearGradient5"
       id="linearGradient6"
       x1="8.8944178"
       y1="12.490615"
       x2="8.946496"
       y2="11.074271"
       gradientUnits="userSpaceOnUse" />
  </defs>
  <metadata
     id="metadata2">
    <rdf:RDF>
      <cc:Work
         rdf:about="">
        <dc:format>image/svg+xml</dc:format>
        <dc:type
           rdf:resource="http://purl.org/dc/dcmitype/StillImage" />
      </cc:Work>
    </rdf:RDF>
  </metadata>
  <rect
     style="fill:#000000;fill-opacity:0.996424;stroke:#000000;stroke-width:0.911802;stroke-dasharray:none;stroke-opacity:1;filter:url(#filter2)"
     id="rect1-2-3"
     width="13.065404"
     height="12.974159"
     x="1.9816793"
     y="1.9267306"
     rx="2.7149384"
     ry="2.8310909"
     transform="matrix(0.78494475,0,0,1.0304244,1.8310625,-0.25598506)" />
  <rect
     style="fill:url(#linearGradient4);fill-opacity:0.996424;stroke:url(#linearGradient41);stroke-width:0.820027;stroke-dasharray:none;stroke-opacity:1"
     id="rect1-2"
     width="10.25562"
     height="13.36889"
     x="3.3865712"
     y="1.7293652"
     rx="2.1310766"
     ry="2.9172251" />
  <path
     style="fill:#000000;stroke-width:0.0490264;opacity:0.3"
     d="m 5.9622937,10.61107 c -0.048875,-0.03845 -0.051672,-0.05004 -0.051672,-0.214398 v -0.173754 l -0.3229292,-0.0062 C 5.309215,10.211362 5.2599503,10.205701 5.229797,10.175516 5.1989081,10.14461 5.194058,10.092032 5.1881873,9.7244674 5.181213,9.2876737 5.2111066,8.4843895 5.2467267,8.1513388 5.3421451,7.2591965 5.8102865,6.5923424 6.6281468,6.1835494 6.9719952,6.0116828 7.4332298,5.8811278 7.7951684,5.8532169 c 0.085235,-0.00658 0.1549709,-0.016151 0.1549709,-0.021281 0,-0.00513 -0.04016,-0.04468 -0.089245,-0.087886 C 7.6562789,5.5639402 7.5209049,5.2820743 7.5040567,5.0010677 c -0.00996,-0.1661774 -0.00917,-0.1700901 0.041322,-0.2031722 0.032834,-0.021514 0.069292,-0.029265 0.1006509,-0.021393 0.031068,0.00779 0.04917,0.00407 0.04917,-0.010139 0,-0.062142 0.1371354,-0.2887503 0.2343418,-0.387236 0.4759499,-0.4822111 1.2758601,-0.354393 1.5774101,0.252055 0.063873,0.1284561 0.079119,0.1462662 0.1205752,0.1408342 0.0308,-0.00404 0.06534,0.011666 0.09843,0.044756 0.04821,0.048216 0.05022,0.058112 0.03717,0.1827439 -0.03546,0.3388156 -0.2297115,0.678328 -0.4756319,0.831363 l -0.064804,0.040327 0.1530513,0.061866 c 0.3316056,0.1340402 0.5428696,0.3573078 0.6539499,0.6911031 0.03496,0.1050317 0.04999,0.1267963 0.09394,0.135932 0.353428,0.073477 0.551707,0.1504962 0.787742,0.3059951 0.309628,0.2039804 0.552359,0.4786612 0.725058,0.8204903 0.09702,0.1920426 0.177045,0.4479116 0.190845,0.6102114 0.0098,0.1147159 0.0061,0.1345971 -0.03081,0.1715944 -0.04472,0.044717 -0.137108,0.055214 -0.198198,0.022526 -0.01986,-0.010627 -0.0599,-0.081577 -0.08898,-0.157664 C 11.371605,8.1729191 11.100613,7.9301884 10.653152,7.7663982 10.497482,7.7094165 10.19526,7.6329869 10.122026,7.6320819 c -0.03174,-4.262e-4 -0.03432,0.034798 -0.03432,0.468107 v 0.4685318 l 0.230426,0.09672 c 0.126733,0.053196 0.32552,0.1357823 0.441745,0.1835249 0.275977,0.1133665 0.378263,0.1909515 0.460061,0.3489672 l 0.06403,0.1236747 v 0.6345239 c 0,0.6334686 -4.9e-5,0.6345746 -0.04359,0.6650536 -0.03892,0.02726 -0.321307,0.03053 -2.6350008,0.03053 H 6.0139656 Z m 1.5564095,-0.223157 c 0,-0.0049 -0.041917,-0.03746 -0.093151,-0.0724 C 7.258708,10.201715 7.1648113,10.114821 7.0577499,9.9751441 6.8662123,9.7252573 6.731483,9.3785515 6.7017981,9.0591588 6.6949851,8.9859042 6.6853335,8.9259705 6.6803313,8.9259705 c -0.035515,0 -0.264963,0.1279284 -0.3310612,0.1845835 -0.098866,0.084742 -0.1366092,0.1741692 -0.1632792,0.3868692 -0.022482,0.1793029 -0.028176,0.8654568 -0.00735,0.8862788 0.014358,0.01436 1.3400669,0.01852 1.3400669,0.0042 z m 2.0485975,-0.06011 c 0.321575,-0.09319 0.317907,-0.10584 -0.030951,-0.106734 -0.2794315,-8.03e-4 -0.3107453,-0.0044 -0.3578958,-0.04143 -0.050143,-0.03944 -0.051673,-0.04695 -0.051673,-0.25306 V 9.7141708 l -0.1029564,0.039471 c -0.081185,0.03112 -0.1309473,0.037179 -0.2353288,0.028674 L 8.6561235,9.7715188 v 0.1814133 c 0,0.2699089 0.024349,0.2555799 -0.454331,0.2673509 l -0.398737,0.0098 0.1274701,0.0435 c 0.070109,0.02393 0.1715944,0.05356 0.2255237,0.06585 0.1489012,0.03394 0.571135,0.05504 0.9235749,0.04616 0.2641947,-0.0067 0.3436824,-0.01608 0.4876745,-0.0578 z M 11.029027,9.8979826 c 0,-0.3057197 -0.0081,-0.5201674 -0.02092,-0.5540032 -0.03123,-0.08243 -0.09519,-0.1433037 -0.204607,-0.194736 l -0.09805,-0.046093 -0.01422,0.092812 c -0.05948,0.3882846 -0.08714,0.4882441 -0.192415,0.6954162 -0.08357,0.1644524 -0.213177,0.3279494 -0.331511,0.4181914 -0.05456,0.04161 -0.09921,0.07826 -0.09921,0.08143 0,0.0032 0.216209,0.0058 0.480464,0.0058 h 0.480466 z M 7.6548037,10.068296 C 7.6372691,9.9624226 7.5968555,9.0690806 7.5970304,8.79109 l 1.177e-4,-0.1839062 -0.077075,0.012325 c -0.042391,0.00678 -0.1880002,0.053351 -0.3235768,0.1034949 l -0.246505,0.091171 v 0.1134475 c 0,0.2223286 0.094305,0.5490476 0.218127,0.7557043 0.083529,0.1394083 0.2722124,0.3366825 0.3985484,0.4166935 0.053344,0.03379 0.09847,0.06142 0.1002794,0.06142 0.00182,0 -0.00364,-0.04192 -0.012142,-0.09315 z M 10.2742,9.7594255 c 0.08344,-0.1672695 0.143297,-0.395723 0.159004,-0.6068756 l 0.01175,-0.157943 -0.178621,-0.072296 -0.17862,-0.072294 5.25e-4,0.5919788 5.85e-4,0.5919783 0.05848,-0.068643 c 0.03217,-0.037764 0.08929,-0.1304114 0.126957,-0.2059124 z M 5.916344,9.6956923 C 5.9417666,9.1122487 6.0366889,8.9475545 6.4670828,8.7401594 6.7494903,8.6040752 7.3577373,8.3843593 7.5307532,8.3559336 c 0.1595823,-0.026221 0.2622751,-0.0065 0.2936898,0.056416 0.012739,0.025507 0.027569,0.2708178 0.03668,0.606701 0.00841,0.3101332 0.020854,0.6477161 0.027643,0.7501819 l 0.012344,0.1863019 0.250037,0.00549 0.2500372,0.00549 V 9.0715728 c 0,-0.7500632 -0.00499,-0.9142 -0.030815,-1.0138741 C 8.3317466,7.9086469 8.2505842,7.7465161 8.1516813,7.6208418 7.9204799,7.3270574 7.8030749,7.0980222 7.7614163,6.859508 7.7160392,6.5997041 7.7757353,6.3702555 7.9412549,6.1682588 l 0.06626,-0.080861 -0.092423,0.00821 C 7.3972907,6.1416051 6.859472,6.3153383 6.4863988,6.5571222 5.9134109,6.9284695 5.57528,7.489408 5.5002641,8.1930623 c -0.047301,0.4436831 -0.081691,1.7247428 -0.047227,1.7592065 0.00718,0.0072 0.1117325,0.013086 0.2323152,0.013086 h 0.2192428 z m 3.9074297,0.2451339 c 0.0051,-0.013482 0.007,-0.5075827 0.0043,-1.0980005 l -0.005,-1.0734863 -0.08825,0.059735 c -0.04854,0.032857 -0.157095,0.094864 -0.241241,0.1377996 l -0.152991,0.078063 0.010498,0.2100901 c 0.023065,0.4618662 0.033512,0.8768951 0.031857,1.2655201 -0.00105,0.224551 0.00324,0.4164899 0.00954,0.4265329 0.017933,0.029034 0.420139,0.023193 0.431408,-0.00621 z M 9.0187211,9.4556581 C 9.1341199,9.3438097 9.133668,9.3481084 9.1085209,8.6006074 9.0821933,7.8181381 9.0744449,7.8592589 9.2611732,7.7911736 9.3261354,7.7674868 9.4608113,7.6945754 9.5604517,7.6291482 L 9.7416157,7.5101891 9.5763777,7.4143518 C 9.2900682,7.2482928 9.2920525,7.2089446 9.5983107,6.9794855 9.8444787,6.7950477 9.8401817,6.8077284 9.7333257,6.5810417 9.5774037,6.2502651 9.1777877,6.0628319 8.6814761,6.0876872 8.452803,6.0991394 8.3627677,6.1328322 8.2162913,6.2617658 c -0.3096558,0.27257 -0.2793367,0.6508385 0.090983,1.1351223 0.1583458,0.207075 0.234355,0.3419423 0.2925743,0.5191282 0.042825,0.1303354 0.045635,0.1739179 0.055594,0.8620089 l 0.010488,0.7247328 0.049027,0.014646 c 0.026964,0.00806 0.091443,0.011904 0.1432863,0.00854 0.075307,-0.00496 0.1075745,-0.019005 0.1604756,-0.070283 z M 8.4438261,6.9195073 C 8.3578831,6.828025 8.4101207,6.7358762 8.6089774,6.628169 8.8520756,6.4964987 9.2328998,6.532295 9.3226173,6.695248 9.3491603,6.743468 9.3491313,6.754886 9.322271,6.803107 9.287862,6.864897 9.1961497,6.884359 9.1232402,6.845338 8.9850757,6.7713959 8.812676,6.7909331 8.6627533,6.8975251 8.5515322,6.9766005 8.5021151,6.9815623 8.4438176,6.9195077 Z m 2.7710599,0.7763864 c -0.304968,-0.3827272 -0.684157,-0.6098199 -1.13763,-0.6813169 -0.07324,-0.011545 -0.08901,-0.00496 -0.2130583,0.088943 l -0.133964,0.1014135 0.129494,0.075123 c 0.101438,0.058849 0.1641923,0.079875 0.2896653,0.097055 0.386319,0.052894 0.808633,0.2042782 1.05613,0.3785836 0.03776,0.026589 0.07209,0.045079 0.07631,0.041094 0.0042,-0.00399 -0.0259,-0.049388 -0.06695,-0.1008953 z M 8.9048697,5.726384 C 9.1125966,5.6486639 9.2958972,5.4169721 9.3399384,5.1764577 9.396528,4.8674212 9.2175378,4.5400975 8.9153424,4.3999864 8.7651949,4.3303712 8.5246475,4.3266469 8.3619653,4.3914167 8.2046607,4.4540467 8.062761,4.5870062 7.9853019,4.7443478 c -0.059324,0.1205037 -0.064578,0.1463705 -0.064578,0.317892 0,0.1616777 0.00707,0.2017973 0.052718,0.2991979 0.1632989,0.3484321 0.5600655,0.5038902 0.9314293,0.3649451 z"
     id="path1-3-9" />
  <path
     style="fill:url(#linearGradient12);stroke-width:0.0490264"
     d="m 5.9622937,10.081914 c -0.048875,-0.03845 -0.051672,-0.05004 -0.051672,-0.214398 V 9.693762 L 5.5876925,9.687562 C 5.309215,9.682206 5.2599503,9.676545 5.229797,9.6463594 5.1989081,9.6154534 5.194058,9.5628754 5.1881873,9.1953112 5.181213,8.7585175 5.2111066,7.9552333 5.2467267,7.6221826 5.3421451,6.7300403 5.8102865,6.0631862 6.6281468,5.6543932 6.9719952,5.4825266 7.4332298,5.3519716 7.7951684,5.3240607 c 0.085235,-0.00658 0.1549709,-0.016151 0.1549709,-0.021281 0,-0.00513 -0.04016,-0.04468 -0.089245,-0.087886 C 7.6562789,5.034784 7.5209049,4.7529181 7.5040567,4.4719115 c -0.00996,-0.1661774 -0.00917,-0.1700901 0.041322,-0.2031722 0.032834,-0.021514 0.069292,-0.029265 0.1006509,-0.021393 0.031068,0.00779 0.04917,0.00407 0.04917,-0.010139 0,-0.062142 0.1371354,-0.2887503 0.2343418,-0.387236 0.4759499,-0.4822111 1.2758601,-0.354393 1.5774101,0.252055 0.063873,0.1284561 0.079119,0.1462662 0.1205752,0.1408342 0.0308,-0.00404 0.06534,0.011666 0.09843,0.044756 0.04821,0.048216 0.05022,0.058112 0.03717,0.1827439 -0.03546,0.3388156 -0.2297115,0.678328 -0.4756319,0.831363 l -0.064804,0.040327 0.1530513,0.061866 c 0.3316056,0.1340402 0.5428696,0.3573078 0.6539499,0.6911031 0.03496,0.1050317 0.04999,0.1267963 0.09394,0.135932 0.353428,0.073477 0.551707,0.1504962 0.787742,0.3059951 0.309628,0.2039804 0.552359,0.4786612 0.725058,0.8204903 0.09702,0.1920426 0.177045,0.4479116 0.190845,0.6102114 0.0098,0.1147159 0.0061,0.1345971 -0.03081,0.1715944 -0.04472,0.044717 -0.137108,0.055214 -0.198198,0.022526 -0.01986,-0.010627 -0.0599,-0.081577 -0.08898,-0.157664 C 11.371605,7.6437629 11.100613,7.4010322 10.653152,7.237242 10.497482,7.1802603 10.19526,7.1038307 10.122026,7.1029257 c -0.03174,-4.262e-4 -0.03432,0.034798 -0.03432,0.468107 v 0.4685318 l 0.230426,0.09672 c 0.126733,0.053196 0.32552,0.1357823 0.441745,0.1835249 0.275977,0.1133665 0.378263,0.1909515 0.460061,0.3489672 l 0.06403,0.1236747 v 0.6345239 c 0,0.6334688 -4.9e-5,0.6345748 -0.04359,0.6650538 -0.03892,0.02726 -0.321307,0.03053 -2.6350008,0.03053 H 6.0139656 Z M 7.5187032,9.858757 c 0,-0.0049 -0.041917,-0.03746 -0.093151,-0.0724 C 7.258708,9.672559 7.1648113,9.5856643 7.0577499,9.4459879 6.8662123,9.1961011 6.731483,8.8493953 6.7017981,8.5300026 6.6949851,8.456748 6.6853335,8.3968143 6.6803313,8.3968143 c -0.035515,0 -0.264963,0.1279284 -0.3310612,0.1845835 -0.098866,0.084742 -0.1366092,0.1741692 -0.1632792,0.3868692 -0.022482,0.1793029 -0.028176,0.865457 -0.00735,0.886279 0.014358,0.01436 1.3400669,0.01852 1.3400669,0.0042 z M 9.5673007,9.798647 C 9.8888757,9.705457 9.8852077,9.692807 9.5363497,9.691913 9.2569182,9.69111 9.2256044,9.687502 9.1784539,9.650485 9.1283109,9.6110425 9.1267808,9.6035338 9.1267808,9.3974248 V 9.1850146 l -0.1029564,0.039471 c -0.081185,0.03112 -0.1309473,0.037179 -0.2353288,0.028674 L 8.6561235,9.2423626 v 0.1814133 c 0,0.2699091 0.024349,0.2555801 -0.454331,0.2673511 l -0.398737,0.0098 0.1274701,0.0435 c 0.070109,0.02393 0.1715944,0.05356 0.2255237,0.06585 0.1489012,0.03394 0.571135,0.05504 0.9235749,0.04616 0.2641947,-0.0067 0.3436824,-0.01608 0.4876745,-0.0578 z M 11.029027,9.3688264 c 0,-0.3057197 -0.0081,-0.5201674 -0.02092,-0.5540032 -0.03123,-0.08243 -0.09519,-0.1433037 -0.204607,-0.194736 l -0.09805,-0.046093 -0.01422,0.092812 c -0.05948,0.3882846 -0.08714,0.4882441 -0.192415,0.6954162 -0.08357,0.1644528 -0.213177,0.3279496 -0.331511,0.4181916 -0.05456,0.04161 -0.09921,0.07826 -0.09921,0.08143 0,0.0032 0.216209,0.0058 0.480464,0.0058 h 0.480466 z M 7.6548037,9.5391397 C 7.6372691,9.4332664 7.5968555,8.5399244 7.5970304,8.2619338 l 1.177e-4,-0.1839062 -0.077075,0.012325 c -0.042391,0.00678 -0.1880002,0.053351 -0.3235768,0.1034949 l -0.246505,0.091171 V 8.398466 c 0,0.2223286 0.094305,0.5490476 0.218127,0.7557043 0.083529,0.1394083 0.2722124,0.3366822 0.3985484,0.4166931 0.053344,0.033786 0.09847,0.061425 0.1002794,0.061425 0.00182,0 -0.00364,-0.041922 -0.012142,-0.093152 z M 10.2742,9.2302693 c 0.08344,-0.1672695 0.143297,-0.395723 0.159004,-0.6068756 l 0.01175,-0.157943 -0.178621,-0.072296 -0.17862,-0.072294 5.25e-4,0.5919788 5.85e-4,0.5919782 0.05848,-0.068643 c 0.03217,-0.037764 0.08929,-0.1304114 0.126957,-0.2059124 z M 5.916344,9.1665361 C 5.9417666,8.5830925 6.0366889,8.4183983 6.4670828,8.2110032 6.7494903,8.074919 7.3577373,7.8552031 7.5307532,7.8267774 c 0.1595823,-0.026221 0.2622751,-0.0065 0.2936898,0.056416 0.012739,0.025507 0.027569,0.2708178 0.03668,0.606701 0.00841,0.3101332 0.020854,0.6477161 0.027643,0.7501819 l 0.012344,0.1863019 0.250037,0.00549 0.2500372,0.00549 V 8.5424166 c 0,-0.7500632 -0.00499,-0.9142 -0.030815,-1.0138741 C 8.3317466,7.3794907 8.2505842,7.2173599 8.1516813,7.0916856 7.9204799,6.7979012 7.8030749,6.568866 7.7614163,6.3303518 7.7160392,6.0705479 7.7757353,5.8410993 7.9412549,5.6391026 l 0.06626,-0.080861 -0.092423,0.00821 C 7.3972907,5.6124489 6.859472,5.7861821 6.4863988,6.027966 5.9134109,6.3993133 5.57528,6.9602518 5.5002641,7.6639061 c -0.047301,0.4436831 -0.081691,1.7247428 -0.047227,1.7592065 0.00718,0.0072 0.1117325,0.013086 0.2323152,0.013086 H 5.9045951 Z M 9.8237737,9.41167 c 0.0051,-0.013482 0.007,-0.5075827 0.0043,-1.0980005 l -0.005,-1.0734863 -0.08825,0.059735 c -0.04854,0.032857 -0.157095,0.094864 -0.241241,0.1377996 l -0.152991,0.078063 0.010498,0.2100901 c 0.023065,0.4618662 0.033512,0.8768951 0.031857,1.2655201 -0.00105,0.224551 0.00324,0.4164899 0.00954,0.426533 0.017933,0.029034 0.420139,0.023193 0.431408,-0.00621 z M 9.0187211,8.9265019 C 9.1341199,8.8146535 9.133668,8.8189522 9.1085209,8.0714512 9.0821933,7.2889819 9.0744449,7.3301027 9.2611732,7.2620174 9.3261354,7.2383306 9.4608113,7.1654192 9.5604517,7.099992 L 9.7416157,6.9810329 9.5763777,6.8851956 C 9.2900682,6.7191366 9.2920525,6.6797884 9.5983107,6.4503293 9.8444787,6.2658915 9.8401817,6.2785722 9.7333257,6.0518855 9.5774037,5.7211089 9.1777877,5.5336757 8.6814761,5.558531 8.452803,5.5699832 8.3627677,5.603676 8.2162913,5.7326096 c -0.3096558,0.27257 -0.2793367,0.6508385 0.090983,1.1351223 0.1583458,0.207075 0.234355,0.3419423 0.2925743,0.5191282 0.042825,0.1303354 0.045635,0.1739179 0.055594,0.8620089 l 0.010488,0.7247328 0.049027,0.014646 c 0.026964,0.00806 0.091443,0.011904 0.1432863,0.00854 0.075307,-0.00496 0.1075745,-0.019005 0.1604756,-0.070283 z M 8.4438261,6.3903511 C 8.3578831,6.2988688 8.4101207,6.20672 8.6089774,6.0990128 c 0.2430982,-0.1316703 0.6239224,-0.095874 0.7136399,0.067079 0.026543,0.04822 0.026514,0.059638 -3.463e-4,0.107859 -0.034409,0.06179 -0.1261213,0.081252 -0.1990308,0.042231 C 8.9850757,6.2422397 8.812676,6.2617769 8.6627533,6.3683689 8.5515322,6.4474443 8.5021151,6.4524061 8.4438176,6.3903515 Z m 2.7710599,0.7763864 c -0.304968,-0.3827272 -0.684157,-0.6098199 -1.13763,-0.6813169 -0.07324,-0.011545 -0.08901,-0.00496 -0.2130583,0.088943 l -0.133964,0.1014135 0.129494,0.075123 c 0.101438,0.058849 0.1641923,0.079875 0.2896653,0.097055 0.386319,0.052894 0.808633,0.2042782 1.05613,0.3785836 0.03776,0.026589 0.07209,0.045079 0.07631,0.041094 0.0042,-0.00399 -0.0259,-0.049388 -0.06695,-0.1008953 z M 8.9048697,5.1972278 C 9.1125966,5.1195077 9.2958972,4.8878159 9.3399384,4.6473015 9.396528,4.338265 9.2175378,4.0109413 8.9153424,3.8708302 8.7651949,3.801215 8.5246475,3.7974907 8.3619653,3.8622605 8.2046607,3.9248905 8.062761,4.05785 7.9853019,4.2151916 c -0.059324,0.1205037 -0.064578,0.1463705 -0.064578,0.317892 0,0.1616777 0.00707,0.2017973 0.052718,0.2991979 0.1632989,0.3484321 0.5600655,0.5038902 0.9314293,0.3649451 z"
     id="path1-3" />
  <rect
     style="opacity:0.5;fill:none;fill-opacity:0.996424;stroke:url(#linearGradient9);stroke-width:0.50832;stroke-dasharray:none;stroke-opacity:1"
     id="rect1-2-6"
     width="8.9234324"
     height="12.035513"
     x="4.0584631"
     y="2.3962882"
     rx="1.5176033"
     ry="2.2109985" />
  <path
     style="font-weight:bold;font-size:2.11663px;font-family:'Noto Sans';-inkscape-font-specification:'Noto Sans Bold';fill:#000000;stroke-width:0.264578;opacity:0.3"
     d="M 7.4584616,13.059463 H 7.1388505 V 11.814884 H 6.7282242 v -0.266695 h 1.1408636 v 0.266695 H 7.4584616 Z m 1.5133915,0 h -0.869935 v -1.511274 h 0.869935 v 0.262462 H 8.4215293 v 0.332311 h 0.5122244 v 0.262462 H 8.4215293 v 0.38946 h 0.5503238 z m 1.5366719,0 h -0.366177 l -0.3513602,-0.57149 -0.3513606,0.57149 H 9.0967331 l 0.5016413,-0.77892 -0.4698919,-0.732354 h 0.3534773 l 0.325961,0.543974 0.3196112,-0.543974 h 0.345011 l -0.4741255,0.749287 z"
     id="text1-5"
     aria-label="TEX" />
  <path
     style="font-weight:bold;font-size:2.11663px;font-family:'Noto Sans';-inkscape-font-specification:'Noto Sans Bold';fill:url(#linearGradient6);stroke-width:0.264578"
     d="M 7.4584616,12.530307 H 7.1388505 V 11.285728 H 6.7282242 v -0.266695 h 1.1408636 v 0.266695 H 7.4584616 Z m 1.5133915,0 h -0.869935 v -1.511274 h 0.869935 v 0.262462 H 8.4215293 v 0.332311 h 0.5122244 v 0.262462 H 8.4215293 v 0.38946 h 0.5503238 z m 1.5366719,0 h -0.366177 l -0.3513602,-0.57149 -0.3513606,0.57149 H 9.0967331 l 0.5016413,-0.77892 -0.4698919,-0.732354 h 0.3534773 l 0.325961,0.543974 0.3196112,-0.543974 h 0.345011 L 9.9984175,11.76832 Z"
     id="text1"
     aria-label="TEX" />
</svg>
