<?xml version="1.0" encoding="UTF-8" standalone="no"?>
<svg
   width="64"
   height="64"
   version="1.1"
   viewBox="0 0 16.933 16.933"
   id="svg7"
   sodipodi:docname="application-atom+xml (Copy).svg"
   inkscape:version="1.3.2 (091e20ef0f, 2023-11-25)"
   xmlns:inkscape="http://www.inkscape.org/namespaces/inkscape"
   xmlns:sodipodi="http://sodipodi.sourceforge.net/DTD/sodipodi-0.dtd"
   xmlns:xlink="http://www.w3.org/1999/xlink"
   xmlns="http://www.w3.org/2000/svg"
   xmlns:svg="http://www.w3.org/2000/svg"
   xmlns:rdf="http://www.w3.org/1999/02/22-rdf-syntax-ns#"
   xmlns:cc="http://creativecommons.org/ns#"
   xmlns:dc="http://purl.org/dc/elements/1.1/">
  <sodipodi:namedview
     id="namedview7"
     pagecolor="#9c4444"
     bordercolor="#000000"
     borderopacity="0.25"
     inkscape:showpageshadow="2"
     inkscape:pageopacity="0.0"
     inkscape:pagecheckerboard="0"
     inkscape:deskcolor="#d1d1d1"
     inkscape:zoom="4.3531261"
     inkscape:cx="47.666894"
     inkscape:cy="39.971275"
     inkscape:window-width="1463"
     inkscape:window-height="604"
     inkscape:window-x="115"
     inkscape:window-y="154"
     inkscape:window-maximized="0"
     inkscape:current-layer="svg7"
     showgrid="false" />
  <defs
     id="defs2">
    <linearGradient
       id="linearGradient5"
       inkscape:collect="always">
      <stop
         style="stop-color:#392713;stop-opacity:1;"
         offset="0"
         id="stop2" />
      <stop
         style="stop-color:#eed59e;stop-opacity:1;"
         offset="0.5"
         id="stop3" />
      <stop
         style="stop-color:#beaa8a;stop-opacity:1;"
         offset="1"
         id="stop4" />
    </linearGradient>
    <linearGradient
       id="linearGradient8"
       inkscape:collect="always">
      <stop
         style="stop-color:#1a1a1a;stop-opacity:1;"
         offset="0"
         id="stop8" />
      <stop
         style="stop-color:#ffffff;stop-opacity:0;"
         offset="1"
         id="stop9" />
    </linearGradient>
    <linearGradient
       inkscape:collect="always"
       xlink:href="#linearGradient5"
       id="linearGradient41"
       x1="13.675659"
       y1="16.110115"
       x2="13.728528"
       y2="10.548769"
       gradientUnits="userSpaceOnUse"
       gradientTransform="matrix(1.6061171,0,0,2.1084059,-12.924569,-19.742698)" />
    <linearGradient
       inkscape:collect="always"
       xlink:href="#linearGradient42"
       id="linearGradient4"
       x1="11.885941"
       y1="16.50819"
       x2="12.026573"
       y2="10.244942"
       gradientUnits="userSpaceOnUse"
       gradientTransform="matrix(1.6061171,0,0,2.1084059,-12.924569,-19.742698)" />
    <linearGradient
       id="linearGradient42"
       inkscape:collect="always">
      <stop
         style="stop-color:#010101;stop-opacity:1;"
         offset="0"
         id="stop42" />
      <stop
         style="stop-color:#6e6c6d;stop-opacity:1;"
         offset="1"
         id="stop43" />
    </linearGradient>
    <linearGradient
       inkscape:collect="always"
       xlink:href="#linearGradient8"
       id="linearGradient9"
       x1="9.3404646"
       y1="4.1692023"
       x2="9.4279938"
       y2="16.46883"
       gradientUnits="userSpaceOnUse"
       gradientTransform="matrix(0.80952478,0,0,1.0980733,1.5663172,-0.59391329)" />
    <filter
       style="color-interpolation-filters:sRGB;"
       inkscape:label="Blur"
       id="filter2"
       x="-0.14510849"
       y="-0.14612901"
       width="1.290217"
       height="1.292258">
      <feGaussianBlur
         stdDeviation="0.6 0.6"
         result="blur"
         id="feGaussianBlur2" />
    </filter>
    <linearGradient
       inkscape:collect="always"
       xlink:href="#linearGradient5"
       id="linearGradient26"
       x1="8.7927532"
       y1="13.258539"
       x2="8.9317074"
       y2="3.5971289"
       gradientUnits="userSpaceOnUse" />
  </defs>
  <metadata
     id="metadata2">
    <rdf:RDF>
      <cc:Work
         rdf:about="">
        <dc:format>image/svg+xml</dc:format>
        <dc:type
           rdf:resource="http://purl.org/dc/dcmitype/StillImage" />
      </cc:Work>
    </rdf:RDF>
  </metadata>
  <rect
     style="fill:#000000;fill-opacity:0.996424;stroke:#000000;stroke-width:0.911802;stroke-dasharray:none;stroke-opacity:1;filter:url(#filter2)"
     id="rect1-2-3"
     width="13.065404"
     height="12.974159"
     x="1.9816793"
     y="1.9267306"
     rx="2.7149384"
     ry="2.8310909"
     transform="matrix(0.78494475,0,0,1.0304244,1.8310625,-0.25598506)" />
  <rect
     style="fill:url(#linearGradient4);fill-opacity:0.996424;stroke:url(#linearGradient41);stroke-width:0.820027;stroke-dasharray:none;stroke-opacity:1"
     id="rect1-2"
     width="10.25562"
     height="13.36889"
     x="3.3865712"
     y="1.7293652"
     rx="2.1310766"
     ry="2.9172251" />
  <path
     style="fill:#000000;stroke-width:0.0544738;opacity:0.3"
     d="M 7.9829969,13.301305 C 7.8997432,12.523892 7.9735673,9.7571576 8.0827576,9.5625583 8.1351107,9.469255 8.1671251,9.3842493 8.1539014,9.3736554 8.1229495,9.3488621 7.1536231,9.516414 6.945066,9.5826072 c -0.1173169,0.03723 -0.1589066,0.020638 -0.1589066,-0.063408 0,-0.062614 -0.046152,-0.1138435 -0.1025594,-0.1138435 -0.1255311,0 -1.1755271,0.1988092 -1.3611544,0.2577255 -0.1230025,0.039038 -0.1341984,-0.00671 -0.1341984,-0.5482553 0,-0.5283428 0.013447,-0.5869448 0.1271064,-0.5539605 0.3458057,0.1003563 0.7448748,0.1839201 1.0894857,0.2281368 0.3480602,0.044659 0.3813201,0.036384 0.3813201,-0.09485 0,-0.1415696 0.00752,-0.1418357 0.4902687,-0.017336 0.7393639,0.1906999 0.9623791,0.2244526 0.9623791,0.1456528 0,-0.038943 -0.024944,-0.070815 -0.055431,-0.070815 -0.1008418,0 -0.6468769,-0.7550071 -0.8794999,-1.2160916 C 6.8258631,6.5880962 6.7178445,5.5320915 7.0307878,4.8658286 7.1246052,4.6660891 7.2643915,4.4467155 7.3414242,4.3783302 7.7968935,3.9739904 8.7859016,3.8813206 9.3804288,4.1872746 10.307364,4.6642914 10.464816,6.0231991 9.7627297,7.4867366 9.6077985,7.8096982 9.3280998,8.2440423 9.1411768,8.4519465 8.9542532,8.6598493 8.8154792,8.8441164 8.8327898,8.861428 c 0.031617,0.031617 1.07489,-0.202089 1.3126192,-0.2940422 0.09639,-0.037288 0.127105,-0.012189 0.127105,0.1038723 0,0.084169 0.04615,0.1530353 0.10256,0.1530353 0.125532,0 1.175527,-0.1988099 1.361154,-0.2577262 0.123004,-0.039038 0.1342,0.00671 0.1342,0.5482546 0,0.5415552 -0.01119,0.5872955 -0.1342,0.5482561 -0.185627,-0.058918 -1.235622,-0.2577263 -1.361154,-0.2577263 -0.05641,0 -0.10256,0.051227 -0.10256,0.1138436 0,0.074672 -0.04373,0.1005918 -0.127105,0.075332 C 9.826011,9.4977539 9.3438998,9.4087466 9.1303517,9.4071275 c -0.2264943,-0.00175 -0.2316342,0.00488 -0.1551001,0.1979643 0.1149178,0.2899744 0.16212,1.7065122 0.1006036,3.0191022 l -0.053385,1.139102 H 8.5274708 8.0324723 Z M 8.8513918,7.6951453 C 9.1420291,7.0186086 9.4009919,6.0989429 9.4008124,5.7439601 9.4006587,5.4382036 9.185518,5.0325078 8.9651314,4.922388 8.6361529,4.758008 8.1949375,4.8058646 7.940092,5.0335685 7.6323416,5.3085444 7.5877093,5.7555548 7.7886612,6.5502115 7.937838,7.1401256 8.432042,8.3158706 8.5308253,8.3158706 c 0.029648,0 0.1739029,-0.2793266 0.3205665,-0.6207253 z"
     id="path1-0" />
  <path
     style="fill:url(#linearGradient26);stroke-width:0.0544738"
     d="M 7.9829969,12.772149 C 7.8997432,11.994736 7.9735673,9.2280014 8.0827576,9.0334021 8.1351107,8.9400988 8.1671251,8.8550931 8.1539014,8.8444992 8.1229495,8.8197059 7.1536231,8.9872578 6.945066,9.053451 6.8277491,9.0906811 6.7861594,9.074089 6.7861594,8.9900426 c 0,-0.062614 -0.046152,-0.1138435 -0.1025594,-0.1138435 -0.1255311,0 -1.1755271,0.1988092 -1.3611544,0.2577255 -0.1230025,0.039038 -0.1341984,-0.00671 -0.1341984,-0.5482553 0,-0.5283428 0.013447,-0.5869449 0.1271064,-0.5539605 0.3458057,0.1003563 0.7448748,0.1839201 1.0894857,0.2281368 0.3480602,0.044659 0.3813201,0.036384 0.3813201,-0.09485 0,-0.1415696 0.00752,-0.1418357 0.4902687,-0.017336 0.7393639,0.1906999 0.9623791,0.2244526 0.9623791,0.1456528 0,-0.038943 -0.024944,-0.070815 -0.055431,-0.070815 C 8.0825344,8.2224975 7.5364993,7.4674904 7.3038763,7.0064059 6.8258631,6.05894 6.7178445,5.0029353 7.0307878,4.3366724 7.1246052,4.1369329 7.2643915,3.9175593 7.3414242,3.849174 7.7968935,3.4448342 8.7859016,3.3521644 9.3804288,3.6581184 10.307364,4.1351352 10.464816,5.4940429 9.7627297,6.9575804 9.6077985,7.280542 9.3280998,7.7148861 9.1411768,7.9227903 8.9542532,8.1306931 8.8154792,8.3149602 8.8327898,8.3322718 c 0.031617,0.031617 1.07489,-0.202089 1.3126192,-0.2940422 0.09639,-0.037288 0.127105,-0.012189 0.127105,0.1038723 0,0.084169 0.04615,0.1530353 0.10256,0.1530353 0.125532,0 1.175527,-0.1988099 1.361154,-0.2577262 0.123004,-0.039038 0.1342,0.00671 0.1342,0.5482546 0,0.5415552 -0.01119,0.5872955 -0.1342,0.5482561 -0.185627,-0.058918 -1.235622,-0.2577263 -1.361154,-0.2577263 -0.05641,0 -0.10256,0.051227 -0.10256,0.1138436 0,0.074672 -0.04373,0.1005918 -0.127105,0.075332 C 9.826011,8.9685977 9.3438998,8.8795904 9.1303517,8.8779713 8.9038574,8.8762217 8.8987175,8.8828556 8.9752516,9.0759356 9.0901694,9.36591 9.1373716,10.782448 9.0758552,12.095038 L 9.0224699,13.23414 H 8.5274708 8.0324723 Z M 8.8513918,7.1659891 C 9.1420291,6.4894524 9.4009919,5.5697867 9.4008124,5.2148039 9.4006587,4.9090474 9.185518,4.5033516 8.9651314,4.3932318 8.6361529,4.2288518 8.1949375,4.2767084 7.940092,4.5044123 7.6323416,4.7793882 7.5877093,5.2263986 7.7886612,6.0210553 7.937838,6.6109694 8.432042,7.7867144 8.5308253,7.7867144 c 0.029648,0 0.1739029,-0.2793266 0.3205665,-0.6207253 z"
     id="path1" />
  <rect
     style="opacity:0.5;fill:none;fill-opacity:0.996424;stroke:url(#linearGradient9);stroke-width:0.50832;stroke-dasharray:none;stroke-opacity:1"
     id="rect1-2-6"
     width="8.9234324"
     height="12.035513"
     x="4.0584631"
     y="2.3962882"
     rx="1.5176033"
     ry="2.2109985" />
</svg>
