<?xml version="1.0" encoding="UTF-8" standalone="no"?>
<svg
   width="64"
   height="64"
   version="1.1"
   id="svg73"
   sodipodi:docname="filetype Template.svg"
   inkscape:version="1.4 (e7c3feb100, 2024-10-09)"
   xmlns:inkscape="http://www.inkscape.org/namespaces/inkscape"
   xmlns:sodipodi="http://sodipodi.sourceforge.net/DTD/sodipodi-0.dtd"
   xmlns:xlink="http://www.w3.org/1999/xlink"
   xmlns="http://www.w3.org/2000/svg"
   xmlns:svg="http://www.w3.org/2000/svg"
   xmlns:rdf="http://www.w3.org/1999/02/22-rdf-syntax-ns#"
   xmlns:cc="http://creativecommons.org/ns#"
   xmlns:dc="http://purl.org/dc/elements/1.1/">
  <metadata
     id="metadata77">
    <rdf:RDF>
      <cc:Work
         rdf:about="">
        <dc:format>image/svg+xml</dc:format>
        <dc:type
           rdf:resource="http://purl.org/dc/dcmitype/StillImage" />
      </cc:Work>
    </rdf:RDF>
  </metadata>
  <sodipodi:namedview
     pagecolor="#f5f7fa"
     bordercolor="#666666"
     borderopacity="1"
     objecttolerance="10"
     gridtolerance="10"
     guidetolerance="10"
     inkscape:pageopacity="0"
     inkscape:pageshadow="2"
     inkscape:window-width="1226"
     inkscape:window-height="669"
     id="namedview75"
     showgrid="false"
     inkscape:zoom="3.1445312"
     inkscape:cx="19.080746"
     inkscape:cy="7.6322983"
     inkscape:window-x="35"
     inkscape:window-y="32"
     inkscape:window-maximized="0"
     inkscape:current-layer="g877"
     inkscape:document-rotation="0"
     inkscape:pagecheckerboard="0"
     inkscape:showpageshadow="2"
     inkscape:deskcolor="#d1d1d1" />
  <defs
     id="defs29">
    <filter
       style="color-interpolation-filters:sRGB"
       inkscape:label="Blur"
       id="filter1283"
       x="-0.082344266"
       y="-0.082344266"
       width="1.1646885"
       height="1.1646885">
      <feGaussianBlur
         stdDeviation="0.5 0.5"
         result="blur"
         id="feGaussianBlur1281" />
    </filter>
    <linearGradient
       inkscape:collect="always"
       xlink:href="#linearGradient883"
       id="linearGradient885"
       x1="2.1085808"
       y1="2.0236168"
       x2="14.846128"
       y2="15.071845"
       gradientUnits="userSpaceOnUse"
       gradientTransform="matrix(2.4606127,0,0,3.1451148,11.16612,5.3876879)" />
    <linearGradient
       inkscape:collect="always"
       id="linearGradient883">
      <stop
         style="stop-color:#808080;stop-opacity:1;"
         offset="0"
         id="stop879" />
      <stop
         style="stop-color:#3e3e3e;stop-opacity:1;"
         offset="0.5"
         id="stop1216" />
      <stop
         style="stop-color:#242424;stop-opacity:1;"
         offset="1"
         id="stop881" />
    </linearGradient>
    <linearGradient
       inkscape:collect="always"
       xlink:href="#linearGradient1134"
       id="linearGradient1136"
       x1="14.971222"
       y1="14.703373"
       x2="2.0756054"
       y2="2.0069976"
       gradientUnits="userSpaceOnUse"
       gradientTransform="matrix(2.4106819,0,0,3.1438568,11.58952,5.3983817)" />
    <linearGradient
       inkscape:collect="always"
       id="linearGradient1134">
      <stop
         style="stop-color:#161616;stop-opacity:1;"
         offset="0"
         id="stop1130" />
      <stop
         style="stop-color:#404040;stop-opacity:1;"
         offset="1"
         id="stop1132" />
    </linearGradient>
  </defs>
  <g
     id="g877"
     transform="matrix(1.1,0,0,1.1,-3.1845928,-3.2065454)">
    <path
       style="fill:#f5f7fa;stroke-width:0.204426;fill-opacity:1"
       d=""
       id="path3" />
    <rect
       style="fill:#000000;stroke:none;stroke-width:0.539739;stroke-dasharray:none;filter:url(#filter1283)"
       id="rect246-1"
       width="14.572964"
       height="14.572964"
       x="1.1932471"
       y="1.2138842"
       rx="2.1589575"
       ry="2.1589575"
       transform="matrix(2.4606127,0,0,3.1451146,11.16612,5.3876877)" />
    <rect
       style="fill:#000000;stroke:url(#linearGradient885);stroke-width:1.63561;stroke-dasharray:none"
       id="rect246"
       width="35.155312"
       height="44.93494"
       x="14.453793"
       y="9.6548424"
       rx="5.2081943"
       ry="5.181818" />
    <rect
       style="fill:url(#linearGradient1136);fill-opacity:1;stroke:none;stroke-width:1.31679;stroke-dasharray:none"
       id="rect246-5"
       width="31.13278"
       height="40.601383"
       x="16.465055"
       y="11.821622"
       rx="3.1818182"
       ry="3.1725934" />
    <g
       id="g250"
       style="fill:#999999;fill-opacity:1;stroke:none;stroke-width:1.51593;stroke-dasharray:none;stroke-opacity:0.3"
       transform="matrix(0.40276878,0,0,0.38436436,19.144652,11.74317)">
      <path
         style="fill:#999999;fill-opacity:1;stroke:none;stroke-width:1.51593;stroke-dasharray:none;stroke-opacity:0.3"
         d="M 19.832685,42.052513 C 17.959162,37.336267 16.234889,32.996355 16.000967,32.408262 L 15.575654,31.339004 H 11.6566 7.7375456 V 28.7339 26.128797 l 5.5018224,0.001 5.501823,0.001 2.838396,7.113347 c 1.561118,3.912339 2.856321,7.113814 2.878228,7.114387 0.02191,5.45e-4 1.715365,-5.799198 3.763239,-12.888384 2.047873,-7.089186 3.772252,-13.05565 3.831952,-13.258809 l 0.108548,-0.369381 h 9.639757 9.639758 v 2.605104 2.605103 l -7.873633,6.3e-4 -7.873633,6.3e-4 -4.54936,15.766079 -4.549361,15.766075 -1.677995,0.02092 -1.677996,0.02092 z"
         id="path90" />
      <path
         style="fill:#999999;fill-opacity:1;stroke:none;stroke-width:1.51593;stroke-dasharray:none;stroke-opacity:0.3"
         d="m 34.149327,50.527339 c 0.0483,-0.07975 8.665482,-11.544961 8.91231,-11.857878 0.0545,-0.06909 -1.066629,-1.561744 -3.995981,-5.32021 -2.239452,-2.873297 -4.099716,-5.27091 -4.133919,-5.328026 -0.05128,-0.08564 0.32409,-0.10385 2.141083,-0.10385 h 2.20327 l 3.073581,3.946538 c 1.690469,2.170595 3.11471,3.946537 3.164979,3.946537 0.05027,0 1.468281,-1.767194 3.151138,-3.927096 l 3.059741,-3.927096 2.237235,-0.02065 L 56.2,27.914958 55.814363,28.40219 c -2.756836,3.483121 -8.028358,10.367403 -7.998414,10.445435 0.02148,0.05598 2.000719,2.709016 4.398309,5.895642 2.39759,3.186625 4.359254,5.813531 4.359254,5.837568 0,0.02404 -0.988579,0.04328 -2.196841,0.04277 l -2.196841,-9.33e-4 -3.415632,-4.596787 c -2.712043,-3.649893 -3.432885,-4.573723 -3.499392,-4.484816 -0.04607,0.06159 -1.585148,2.13056 -3.420177,4.597721 l -3.336415,4.485747 h -2.208879 c -1.746657,0 -2.196559,-0.02034 -2.150008,-0.09721 z"
         id="path129" />
    </g>
    <path
       d="m 26.930345,48.937271 -1.424243,-3.793942 h -0.02424 q 0.01818,0.187879 0.0303,0.509092 0.01212,0.315151 0.01212,0.660606 v 2.624244 h -0.503031 v -4.327275 h 0.806061 l 1.333335,3.545456 h 0.02424 l 1.357577,-3.545456 h 0.8 v 4.327275 h -0.539394 v -2.660608 q 0,-0.315151 0.01212,-0.624242 0.01818,-0.309092 0.0303,-0.503031 h -0.02424 L 27.37883,48.937271 Z M 31.6758,45.634239 q 0.59394,0 0.878789,0.260606 0.284848,0.260606 0.284848,0.830304 v 2.212122 h -0.387879 l -0.10303,-0.460606 h -0.02424 q -0.212122,0.266667 -0.448486,0.393939 -0.230303,0.127273 -0.642424,0.127273 -0.442425,0 -0.733334,-0.230303 -0.290909,-0.236364 -0.290909,-0.733334 0,-0.484849 0.381818,-0.745455 0.381819,-0.266667 1.175759,-0.290909 l 0.551515,-0.01818 v -0.193939 q 0,-0.406061 -0.175758,-0.563637 -0.175757,-0.157576 -0.49697,-0.157576 -0.254545,0 -0.484848,0.07879 -0.230304,0.07273 -0.430304,0.169697 l -0.163636,-0.4 q 0.212121,-0.115152 0.50303,-0.19394 0.29091,-0.08485 0.606061,-0.08485 z m 0.157576,1.733334 q -0.606061,0.02424 -0.842425,0.19394 -0.230303,0.169697 -0.230303,0.478788 0,0.272727 0.163637,0.4 0.169697,0.127273 0.430303,0.127273 0.412122,0 0.684849,-0.224243 0.272727,-0.230303 0.272727,-0.70303 v -0.29091 z m 3.096977,1.19394 q 0.121212,0 0.248485,-0.01818 0.127272,-0.02424 0.20606,-0.04848 v 0.40606 q -0.08485,0.04243 -0.242424,0.06667 -0.157576,0.0303 -0.303031,0.0303 -0.254545,0 -0.472727,-0.08485 -0.212122,-0.09091 -0.345455,-0.309091 -0.133333,-0.218182 -0.133333,-0.612122 v -1.89091 H 33.427321 V 45.84636 l 0.466667,-0.212121 0.212122,-0.69091 h 0.315151 v 0.745455 h 0.939395 v 0.412122 h -0.939395 v 1.878789 q 0,0.29697 0.139394,0.442424 0.145455,0.139394 0.369698,0.139394 z m 1.636365,-2.878789 q 0,0.242424 -0.0303,0.454545 h 0.03636 q 0.157576,-0.248485 0.424243,-0.375757 0.272727,-0.127273 0.587879,-0.127273 0.59394,0 0.89091,0.284848 0.296969,0.278788 0.296969,0.903031 v 2.115153 h -0.527273 v -2.078789 q 0,-0.781819 -0.727273,-0.781819 -0.545455,0 -0.751515,0.309091 -0.2,0.303031 -0.2,0.872728 v 1.678789 h -0.533334 v -4.606063 h 0.533334 z"
       id="text5786"
       style="font-size:6.06061px;text-align:center;text-anchor:middle;fill:#999999;stroke-width:1.81818"
       aria-label="Math" />
  </g>
</svg>
