<?xml version="1.0" encoding="UTF-8" standalone="no"?>
<svg
   width="64"
   height="64"
   version="1.1"
   id="svg73"
   sodipodi:docname="filetype Template.svg"
   inkscape:version="1.4 (e7c3feb100, 2024-10-09)"
   xmlns:inkscape="http://www.inkscape.org/namespaces/inkscape"
   xmlns:sodipodi="http://sodipodi.sourceforge.net/DTD/sodipodi-0.dtd"
   xmlns:xlink="http://www.w3.org/1999/xlink"
   xmlns="http://www.w3.org/2000/svg"
   xmlns:svg="http://www.w3.org/2000/svg"
   xmlns:rdf="http://www.w3.org/1999/02/22-rdf-syntax-ns#"
   xmlns:cc="http://creativecommons.org/ns#"
   xmlns:dc="http://purl.org/dc/elements/1.1/">
  <metadata
     id="metadata77">
    <rdf:RDF>
      <cc:Work
         rdf:about="">
        <dc:format>image/svg+xml</dc:format>
        <dc:type
           rdf:resource="http://purl.org/dc/dcmitype/StillImage" />
      </cc:Work>
    </rdf:RDF>
  </metadata>
  <sodipodi:namedview
     pagecolor="#f5f7fa"
     bordercolor="#666666"
     borderopacity="1"
     objecttolerance="10"
     gridtolerance="10"
     guidetolerance="10"
     inkscape:pageopacity="0"
     inkscape:pageshadow="2"
     inkscape:window-width="1183"
     inkscape:window-height="973"
     id="namedview75"
     showgrid="false"
     inkscape:zoom="4.4470387"
     inkscape:cx="19.226278"
     inkscape:cy="8.4325779"
     inkscape:window-x="35"
     inkscape:window-y="32"
     inkscape:window-maximized="0"
     inkscape:current-layer="g877"
     inkscape:document-rotation="0"
     inkscape:pagecheckerboard="0"
     inkscape:showpageshadow="2"
     inkscape:deskcolor="#d1d1d1" />
  <defs
     id="defs29">
    <filter
       style="color-interpolation-filters:sRGB;"
       inkscape:label="Blur"
       id="filter6"
       x="-0.044145008"
       y="-0.044145008"
       width="1.08829"
       height="1.08829">
      <feGaussianBlur
         stdDeviation="1 1"
         result="blur"
         id="feGaussianBlur6" />
    </filter>
    <filter
       style="color-interpolation-filters:sRGB;"
       inkscape:label="Blur"
       id="filter7"
       x="-0.098100013"
       y="-0.098100021"
       width="1.1962"
       height="1.1962">
      <feGaussianBlur
         stdDeviation="2 2"
         result="blur"
         id="feGaussianBlur7" />
    </filter>
    <clipPath
       id="clip0_515_3621">
      <rect
         width="16"
         height="16"
         fill="#ffffff"
         transform="translate(0.00292969)"
         id="rect7969"
         x="0"
         y="0" />
    </clipPath>
    <filter
       style="color-interpolation-filters:sRGB;"
       inkscape:label="Blur"
       id="filter7349"
       x="-0.10485812"
       y="-0.10485813"
       width="1.2097162"
       height="1.2097163">
      <feGaussianBlur
         stdDeviation="2 2"
         result="blur"
         id="feGaussianBlur7347" />
    </filter>
    <filter
       style="color-interpolation-filters:sRGB"
       inkscape:label="Blur"
       id="filter1283"
       x="-0.082344266"
       y="-0.082344266"
       width="1.1646885"
       height="1.1646885">
      <feGaussianBlur
         stdDeviation="0.5 0.5"
         result="blur"
         id="feGaussianBlur1281" />
    </filter>
    <linearGradient
       inkscape:collect="always"
       xlink:href="#linearGradient883"
       id="linearGradient885"
       x1="2.1085808"
       y1="2.0236168"
       x2="14.846128"
       y2="15.071845"
       gradientUnits="userSpaceOnUse"
       gradientTransform="matrix(2.4606127,0,0,3.1451148,11.16612,5.3876879)" />
    <linearGradient
       inkscape:collect="always"
       id="linearGradient883">
      <stop
         style="stop-color:#808080;stop-opacity:1;"
         offset="0"
         id="stop879" />
      <stop
         style="stop-color:#3e3e3e;stop-opacity:1;"
         offset="0.5"
         id="stop1216" />
      <stop
         style="stop-color:#242424;stop-opacity:1;"
         offset="1"
         id="stop881" />
    </linearGradient>
    <linearGradient
       inkscape:collect="always"
       xlink:href="#linearGradient1134"
       id="linearGradient1136"
       x1="14.971222"
       y1="14.703373"
       x2="2.0756054"
       y2="2.0069976"
       gradientUnits="userSpaceOnUse"
       gradientTransform="matrix(2.4106819,0,0,3.1438568,11.58952,5.3983817)" />
    <linearGradient
       inkscape:collect="always"
       id="linearGradient1134">
      <stop
         style="stop-color:#161616;stop-opacity:1;"
         offset="0"
         id="stop1130" />
      <stop
         style="stop-color:#404040;stop-opacity:1;"
         offset="1"
         id="stop1132" />
    </linearGradient>
    <filter
       style="color-interpolation-filters:sRGB"
       inkscape:label="Blur"
       id="filter1694"
       x="-0.94955398"
       y="-0.2118907"
       width="2.899108"
       height="1.4237814">
      <feGaussianBlur
         stdDeviation="0.2 0.2"
         result="blur"
         id="feGaussianBlur1692" />
    </filter>
  </defs>
  <g
     id="g877"
     transform="matrix(1.1,0,0,1.1,-3.1845928,-3.2065454)">
    <path
       style="fill:#f5f7fa;stroke-width:0.204426;fill-opacity:1"
       d=""
       id="path3" />
    <rect
       style="fill:#000000;stroke:none;stroke-width:0.539739;stroke-dasharray:none;filter:url(#filter1283)"
       id="rect246-1"
       width="14.572964"
       height="14.572964"
       x="1.1932471"
       y="1.2138842"
       rx="2.1589575"
       ry="2.1589575"
       transform="matrix(2.4606127,0,0,3.1451146,11.16612,5.3876877)" />
    <rect
       style="fill:#000000;stroke:url(#linearGradient885);stroke-width:1.63561;stroke-dasharray:none"
       id="rect246"
       width="35.155312"
       height="44.93494"
       x="14.453793"
       y="9.6548424"
       rx="5.2081943"
       ry="5.181818" />
    <rect
       style="fill:url(#linearGradient1136);fill-opacity:1;stroke:none;stroke-width:1.31679;stroke-dasharray:none"
       id="rect246-5"
       width="31.13278"
       height="40.601383"
       x="16.465055"
       y="11.821622"
       rx="3.1818182"
       ry="3.1725934" />
    <path
       d="m 28.981094,16.460716 c -3.363524,0.06576 -7.873534,2.701668 -8.01227,7.456459 -0.08889,3.046547 0.889604,6.328321 6.117284,6.41111 1.577995,0.02499 3.487085,-1.325455 3.487085,-1.325455 l 0.994091,-5.301818 h -4.55625 l -0.745568,1.988182 h 1.988182 l -0.396083,1.946761 c 0,0 -1.085302,0.133745 -1.639991,0.111318 -1.819235,-0.07357 -2.633497,-1.865436 -2.619844,-3.386122 0.02507,-2.796871 2.701844,-5.286731 5.819573,-5.31994 1.432417,-0.01526 2.425687,0.724858 2.425687,0.724858 l 0.436208,-2.741517 c 0,0 -0.833999,-0.612016 -3.298104,-0.563836 z m 5.237099,-0.0497 -1.988183,13.254545 6.119874,0.04531 c 1.621421,0.0092 4.41327,-2.040676 4.501885,-4.588609 -0.01822,-1.221999 -1.67494,-2.415331 -1.67494,-2.415331 0,0 1.639905,-1.254964 1.638697,-2.983567 -0.0014,-1.958525 -2.82731,-3.267038 -3.396477,-3.267038 z m 2.650909,2.650909 1.30345,0.03754 c 0,0 1.399817,-0.03963 1.413473,1.018684 -0.07844,1.527907 -1.195281,1.637163 -1.841916,1.629635 -0.578534,-0.0066 -1.537734,-0.03495 -1.537734,-0.03495 z m -0.891834,5.253925 2.133153,0.0479 c 0,0 1.392125,-0.13342 1.432889,1.210254 0.03393,1.11826 -1.053947,1.432247 -1.614104,1.440655 h -2.385558 z"
       style="fill:#999999;fill-opacity:1;stroke-width:0.662728"
       id="path7" />
    <path
       d="m 27.078836,44.609996 q 0.806061,0 1.187879,0.309091 0.387879,0.30303 0.387879,0.921213 0,0.345454 -0.127273,0.575757 -0.127272,0.230304 -0.327273,0.369698 -0.193939,0.133333 -0.412121,0.212121 l 1.187879,1.939395 h -0.636364 l -1.048485,-1.78788 H 26.43035 v 1.78788 h -0.545455 v -4.327275 z m -0.0303,0.472727 H 26.43035 v 1.606062 h 0.648486 q 0.527273,0 0.769697,-0.206061 0.242424,-0.212121 0.242424,-0.618182 0,-0.424243 -0.254545,-0.6 -0.254546,-0.181819 -0.787879,-0.181819 z m 5.357577,2.224244 q 0,0.806061 -0.412121,1.248486 -0.406061,0.442424 -1.103031,0.442424 -0.430304,0 -0.769698,-0.193939 -0.333333,-0.2 -0.527273,-0.575758 -0.193939,-0.381819 -0.193939,-0.921213 0,-0.806061 0.40606,-1.242425 0.406061,-0.436364 1.103031,-0.436364 0.442425,0 0.775758,0.2 0.339395,0.19394 0.527273,0.569698 0.19394,0.369697 0.19394,0.909091 z m -2.454547,0 q 0,0.575758 0.224243,0.915152 0.230303,0.333334 0.727273,0.333334 0.490909,0 0.721212,-0.333334 0.230303,-0.339394 0.230303,-0.915152 0,-0.575758 -0.230303,-0.903031 -0.230303,-0.327273 -0.727273,-0.327273 -0.49697,0 -0.721212,0.327273 -0.224243,0.327273 -0.224243,0.903031 z m 6.860608,-1.678789 q 0.551515,0 0.824243,0.284849 0.272727,0.278788 0.272727,0.909091 v 2.115153 h -0.527273 v -2.09091 q 0,-0.769698 -0.660606,-0.769698 -0.472728,0 -0.678789,0.272728 -0.2,0.272727 -0.2,0.79394 v 1.79394 H 35.3152 v -2.09091 q 0,-0.769698 -0.666667,-0.769698 -0.490909,0 -0.678788,0.303031 -0.187879,0.30303 -0.187879,0.872728 v 1.684849 h -0.533334 v -3.248487 h 0.430304 l 0.07879,0.442425 h 0.0303 q 0.151515,-0.254546 0.40606,-0.375758 0.260607,-0.127273 0.551516,-0.127273 0.763637,0 0.99394,0.545455 h 0.0303 q 0.163636,-0.278788 0.442425,-0.412121 0.284848,-0.133334 0.6,-0.133334 z"
       id="text5786"
       style="font-size:6.06061px;text-align:center;text-anchor:middle;fill:#999999;stroke-width:1.81818"
       aria-label="Rom" />
  </g>
</svg>
