<?xml version="1.0" encoding="UTF-8" standalone="no"?>
<svg
   width="64"
   height="64"
   version="1.1"
   id="svg73"
   sodipodi:docname="apk.svg"
   inkscape:version="1.2.2 (b0a8486541, 2022-12-01)"
   xmlns:inkscape="http://www.inkscape.org/namespaces/inkscape"
   xmlns:sodipodi="http://sodipodi.sourceforge.net/DTD/sodipodi-0.dtd"
   xmlns:xlink="http://www.w3.org/1999/xlink"
   xmlns="http://www.w3.org/2000/svg"
   xmlns:svg="http://www.w3.org/2000/svg"
   xmlns:rdf="http://www.w3.org/1999/02/22-rdf-syntax-ns#"
   xmlns:cc="http://creativecommons.org/ns#"
   xmlns:dc="http://purl.org/dc/elements/1.1/">
  <metadata
     id="metadata77">
    <rdf:RDF>
      <cc:Work
         rdf:about="">
        <dc:format>image/svg+xml</dc:format>
        <dc:type
           rdf:resource="http://purl.org/dc/dcmitype/StillImage" />
      </cc:Work>
    </rdf:RDF>
  </metadata>
  <sodipodi:namedview
     pagecolor="#f5f7fa"
     bordercolor="#666666"
     borderopacity="1"
     objecttolerance="10"
     gridtolerance="10"
     guidetolerance="10"
     inkscape:pageopacity="0"
     inkscape:pageshadow="2"
     inkscape:window-width="1226"
     inkscape:window-height="603"
     id="namedview75"
     showgrid="false"
     inkscape:zoom="3.1445312"
     inkscape:cx="19.080746"
     inkscape:cy="7.9503106"
     inkscape:window-x="35"
     inkscape:window-y="32"
     inkscape:window-maximized="0"
     inkscape:current-layer="g877"
     inkscape:document-rotation="0"
     inkscape:pagecheckerboard="0"
     inkscape:showpageshadow="2"
     inkscape:deskcolor="#d1d1d1" />
  <defs
     id="defs29">
    <filter
       style="color-interpolation-filters:sRGB;"
       inkscape:label="Blur"
       id="filter6"
       x="-0.044145008"
       y="-0.044145008"
       width="1.08829"
       height="1.08829">
      <feGaussianBlur
         stdDeviation="1 1"
         result="blur"
         id="feGaussianBlur6" />
    </filter>
    <filter
       style="color-interpolation-filters:sRGB;"
       inkscape:label="Blur"
       id="filter7"
       x="-0.098100013"
       y="-0.098100021"
       width="1.1962"
       height="1.1962">
      <feGaussianBlur
         stdDeviation="2 2"
         result="blur"
         id="feGaussianBlur7" />
    </filter>
    <clipPath
       id="clip0_515_3621">
      <rect
         width="16"
         height="16"
         fill="#ffffff"
         transform="translate(0.00292969)"
         id="rect7969"
         x="0"
         y="0" />
    </clipPath>
    <filter
       style="color-interpolation-filters:sRGB;"
       inkscape:label="Blur"
       id="filter7349"
       x="-0.10485812"
       y="-0.10485813"
       width="1.2097162"
       height="1.2097163">
      <feGaussianBlur
         stdDeviation="2 2"
         result="blur"
         id="feGaussianBlur7347" />
    </filter>
    <filter
       style="color-interpolation-filters:sRGB"
       inkscape:label="Blur"
       id="filter1283"
       x="-0.082344266"
       y="-0.082344266"
       width="1.1646885"
       height="1.1646885">
      <feGaussianBlur
         stdDeviation="0.5 0.5"
         result="blur"
         id="feGaussianBlur1281" />
    </filter>
    <linearGradient
       inkscape:collect="always"
       xlink:href="#linearGradient883"
       id="linearGradient885"
       x1="2.1085808"
       y1="2.0236168"
       x2="14.846128"
       y2="15.071845"
       gradientUnits="userSpaceOnUse"
       gradientTransform="matrix(2.4606127,0,0,3.1451148,11.16612,5.3876879)" />
    <linearGradient
       inkscape:collect="always"
       id="linearGradient883">
      <stop
         style="stop-color:#808080;stop-opacity:1;"
         offset="0"
         id="stop879" />
      <stop
         style="stop-color:#3e3e3e;stop-opacity:1;"
         offset="0.5"
         id="stop1216" />
      <stop
         style="stop-color:#242424;stop-opacity:1;"
         offset="1"
         id="stop881" />
    </linearGradient>
    <linearGradient
       inkscape:collect="always"
       xlink:href="#linearGradient1134"
       id="linearGradient1136"
       x1="14.971222"
       y1="14.703373"
       x2="2.0756054"
       y2="2.0069976"
       gradientUnits="userSpaceOnUse"
       gradientTransform="matrix(2.4106819,0,0,3.1438568,11.58952,5.3983817)" />
    <linearGradient
       inkscape:collect="always"
       id="linearGradient1134">
      <stop
         style="stop-color:#161616;stop-opacity:1;"
         offset="0"
         id="stop1130" />
      <stop
         style="stop-color:#404040;stop-opacity:1;"
         offset="1"
         id="stop1132" />
    </linearGradient>
    <filter
       style="color-interpolation-filters:sRGB"
       inkscape:label="Blur"
       id="filter1694"
       x="-0.94955398"
       y="-0.2118907"
       width="2.899108"
       height="1.4237814">
      <feGaussianBlur
         stdDeviation="0.2 0.2"
         result="blur"
         id="feGaussianBlur1692" />
    </filter>
  </defs>
  <g
     id="g877"
     transform="matrix(1.1,0,0,1.1,-3.1845928,-3.2065454)">
    <path
       style="fill:#f5f7fa;stroke-width:0.204426;fill-opacity:1"
       d=""
       id="path3" />
    <rect
       style="fill:#000000;stroke:none;stroke-width:0.539739;stroke-dasharray:none;filter:url(#filter1283)"
       id="rect246-1"
       width="14.572964"
       height="14.572964"
       x="1.1932471"
       y="1.2138842"
       rx="2.1589575"
       ry="2.1589575"
       transform="matrix(2.4606127,0,0,3.1451146,11.16612,5.3876877)" />
    <rect
       style="fill:#000000;stroke:url(#linearGradient885);stroke-width:1.63561;stroke-dasharray:none"
       id="rect246"
       width="35.155312"
       height="44.93494"
       x="14.453793"
       y="9.6548424"
       rx="5.2081943"
       ry="5.181818" />
    <rect
       style="fill:url(#linearGradient1136);fill-opacity:1;stroke:none;stroke-width:1.31679;stroke-dasharray:none"
       id="rect246-5"
       width="31.13278"
       height="40.601383"
       x="16.465055"
       y="11.821622"
       rx="3.1818182"
       ry="3.1725934" />
    <path
       d="m 42.81147,28.811949 c -0.44,-0.433999 -1.415,-0.663 -2.899,-0.682 -1.005,-0.01599 -2.214,0.076 -3.485999,0.255 -0.569001,-0.329 -1.156001,-0.686 -1.617,-1.117 -1.240001,-1.156999 -2.274001,-2.763999 -2.919001,-4.53 0.042,-0.165 0.078,-0.31 0.111,-0.458 0,0 0.698001,-3.966 0.514,-5.306 -0.026,-0.184 -0.041,-0.238 -0.091,-0.381 l -0.06101,-0.155 c -0.189,-0.438 -0.562,-0.902 -1.146,-0.875999 l -0.341999,-0.016 h -0.009 c -0.651,0 -1.182,0.332999 -1.321,0.83 -0.423001,1.561 0.013,3.896 0.804999,6.92 l -0.202999,0.491999 c -0.566001,1.382001 -1.277,2.774001 -1.903,4.001001 l -0.082,0.16 c -0.659,1.29 -1.257,2.386 -1.798999,3.313 l -0.560001,0.296 c -0.041,0.022 -1.001,0.529 -1.226,0.665999 -1.909,1.140001 -3.174999,2.434001 -3.383999,3.461001 -0.067,0.327 -0.01701,0.747 0.321999,0.941 l 0.542,0.272999 c 0.235001,0.118001 0.482,0.177001 0.736,0.177001 1.36,0 2.939,-1.694 5.114,-5.490001 2.511,-0.816999 5.37,-1.497 7.876,-1.871999 1.909001,1.076 4.258,1.822 5.74,1.822 0.263,0 0.49,-0.025 0.675,-0.074 0.284,-0.075 0.523,-0.236999 0.67,-0.456999 0.287,-0.433001 0.345001,-1.029001 0.267,-1.639 -0.023,-0.181001 -0.168,-0.405001 -0.324,-0.558001 z m -20.313,7.236 c 0.248,-0.678 1.23,-2.018999 2.681,-3.208 0.092,-0.074 0.317,-0.284999 0.522,-0.48 -1.516999,2.421 -2.534,3.386001 -3.203,3.688 z m 8.597,-19.797 c 0.437001,0 0.686,1.102 0.707,2.135 0.02,1.033 -0.221,1.758 -0.521,2.295 -0.248,-0.794999 -0.368,-2.046 -0.368,-2.864999 0,0 -0.018,-1.565001 0.182,-1.565001 z m -2.564,14.108 c 0.304,-0.545 0.621,-1.12 0.945001,-1.729999 0.788999,-1.492001 1.287,-2.660001 1.659,-3.620001 0.738,1.343001 1.656999,2.485 2.737999,3.400001 0.135001,0.113999 0.278001,0.228999 0.428,0.342999 -2.197999,0.435 -4.098,0.964 -5.77,1.607 z M 42.389471,30.23595 c -0.134001,0.083 -0.518,0.132999 -0.764001,0.132999 -0.796999,0 -1.781,-0.363999 -3.161999,-0.956 0.529999,-0.04 1.016999,-0.06001 1.452999,-0.06001 0.798,0 1.035,0 1.816,0.196001 0.781,0.198999 0.790001,0.603 0.657001,0.687 z"
       style="clip-rule:evenodd;fill:#999999;fill-opacity:1;fill-rule:nonzero;stroke-width:1;stroke-linejoin:round;stroke-miterlimit:2"
       id="path5" />
    <g
       aria-label="PDF"
       id="text5786"
       style="font-size:6.06061px;text-align:center;text-anchor:middle;fill:#999999;stroke-width:1.81818">
      <path
         d="m 27.963686,44.609996 q 0.848486,0 1.236365,0.333333 0.387879,0.333334 0.387879,0.939395 0,0.357576 -0.163637,0.672727 -0.157576,0.309092 -0.539394,0.503031 -0.375758,0.19394 -1.024243,0.19394 h -0.49697 v 1.684849 h -0.545455 v -4.327275 z m -0.04848,0.466667 h -0.551515 v 1.709092 h 0.436364 q 0.618182,0 0.921213,-0.2 0.30303,-0.200001 0.30303,-0.678789 0,-0.418182 -0.266667,-0.624243 -0.266667,-0.20606 -0.842425,-0.20606 z"
         id="path6793" />
      <path
         d="m 33.951566,46.731209 q 0,1.096971 -0.6,1.654547 -0.59394,0.551515 -1.660607,0.551515 h -1.206062 v -4.327275 h 1.333335 q 0.654545,0 1.133334,0.242424 0.478788,0.242424 0.739394,0.715152 0.260606,0.466667 0.260606,1.163637 z m -0.575758,0.01818 q 0,-0.866667 -0.430303,-1.266667 -0.424243,-0.406061 -1.206061,-0.406061 h -0.709092 v 3.393941 h 0.587879 q 1.757577,0 1.757577,-1.721213 z"
         id="path6795" />
      <path
         d="M 35.454595,48.937271 H 34.90914 v -4.327275 h 2.418183 v 0.478788 h -1.872728 v 1.533334 h 1.757577 v 0.478788 h -1.757577 z"
         id="path6797" />
    </g>
  </g>
</svg>
