<?xml version="1.0" encoding="UTF-8" standalone="no"?>
<svg
   width="64"
   height="64"
   version="1.1"
   id="svg73"
   sodipodi:docname="filetype Template.svg"
   inkscape:version="1.4 (e7c3feb100, 2024-10-09)"
   xmlns:inkscape="http://www.inkscape.org/namespaces/inkscape"
   xmlns:sodipodi="http://sodipodi.sourceforge.net/DTD/sodipodi-0.dtd"
   xmlns:xlink="http://www.w3.org/1999/xlink"
   xmlns="http://www.w3.org/2000/svg"
   xmlns:svg="http://www.w3.org/2000/svg"
   xmlns:rdf="http://www.w3.org/1999/02/22-rdf-syntax-ns#"
   xmlns:cc="http://creativecommons.org/ns#"
   xmlns:dc="http://purl.org/dc/elements/1.1/">
  <metadata
     id="metadata77">
    <rdf:RDF>
      <cc:Work
         rdf:about="">
        <dc:format>image/svg+xml</dc:format>
        <dc:type
           rdf:resource="http://purl.org/dc/dcmitype/StillImage" />
      </cc:Work>
    </rdf:RDF>
  </metadata>
  <sodipodi:namedview
     pagecolor="#f5f7fa"
     bordercolor="#666666"
     borderopacity="1"
     objecttolerance="10"
     gridtolerance="10"
     guidetolerance="10"
     inkscape:pageopacity="0"
     inkscape:pageshadow="2"
     inkscape:window-width="1226"
     inkscape:window-height="669"
     id="namedview75"
     showgrid="false"
     inkscape:zoom="6.2890624"
     inkscape:cx="19.080746"
     inkscape:cy="17.331677"
     inkscape:window-x="56"
     inkscape:window-y="78"
     inkscape:window-maximized="0"
     inkscape:current-layer="g877"
     inkscape:document-rotation="0"
     inkscape:pagecheckerboard="0"
     inkscape:showpageshadow="2"
     inkscape:deskcolor="#d1d1d1" />
  <defs
     id="defs29">
    <filter
       style="color-interpolation-filters:sRGB;"
       inkscape:label="Blur"
       id="filter6"
       x="-0.044145008"
       y="-0.044145008"
       width="1.08829"
       height="1.08829">
      <feGaussianBlur
         stdDeviation="1 1"
         result="blur"
         id="feGaussianBlur6" />
    </filter>
    <filter
       style="color-interpolation-filters:sRGB;"
       inkscape:label="Blur"
       id="filter7"
       x="-0.098100013"
       y="-0.098100021"
       width="1.1962"
       height="1.1962">
      <feGaussianBlur
         stdDeviation="2 2"
         result="blur"
         id="feGaussianBlur7" />
    </filter>
    <clipPath
       id="clip0_515_3621">
      <rect
         width="16"
         height="16"
         fill="#ffffff"
         transform="translate(0.00292969)"
         id="rect7969"
         x="0"
         y="0" />
    </clipPath>
    <filter
       style="color-interpolation-filters:sRGB;"
       inkscape:label="Blur"
       id="filter7349"
       x="-0.10485812"
       y="-0.10485813"
       width="1.2097162"
       height="1.2097163">
      <feGaussianBlur
         stdDeviation="2 2"
         result="blur"
         id="feGaussianBlur7347" />
    </filter>
    <filter
       style="color-interpolation-filters:sRGB"
       inkscape:label="Blur"
       id="filter1283"
       x="-0.082344266"
       y="-0.082344266"
       width="1.1646885"
       height="1.1646885">
      <feGaussianBlur
         stdDeviation="0.5 0.5"
         result="blur"
         id="feGaussianBlur1281" />
    </filter>
    <linearGradient
       inkscape:collect="always"
       xlink:href="#linearGradient883"
       id="linearGradient885"
       x1="2.1085808"
       y1="2.0236168"
       x2="14.846128"
       y2="15.071845"
       gradientUnits="userSpaceOnUse"
       gradientTransform="matrix(2.4606127,0,0,3.1451148,11.16612,5.3876879)" />
    <linearGradient
       inkscape:collect="always"
       id="linearGradient883">
      <stop
         style="stop-color:#808080;stop-opacity:1;"
         offset="0"
         id="stop879" />
      <stop
         style="stop-color:#3e3e3e;stop-opacity:1;"
         offset="0.5"
         id="stop1216" />
      <stop
         style="stop-color:#242424;stop-opacity:1;"
         offset="1"
         id="stop881" />
    </linearGradient>
    <linearGradient
       inkscape:collect="always"
       xlink:href="#linearGradient1134"
       id="linearGradient1136"
       x1="14.971222"
       y1="14.703373"
       x2="2.0756054"
       y2="2.0069976"
       gradientUnits="userSpaceOnUse"
       gradientTransform="matrix(2.4106819,0,0,3.1438568,11.58952,5.3983817)" />
    <linearGradient
       inkscape:collect="always"
       id="linearGradient1134">
      <stop
         style="stop-color:#161616;stop-opacity:1;"
         offset="0"
         id="stop1130" />
      <stop
         style="stop-color:#404040;stop-opacity:1;"
         offset="1"
         id="stop1132" />
    </linearGradient>
    <filter
       style="color-interpolation-filters:sRGB"
       inkscape:label="Blur"
       id="filter1694"
       x="-0.94955398"
       y="-0.2118907"
       width="2.899108"
       height="1.4237814">
      <feGaussianBlur
         stdDeviation="0.2 0.2"
         result="blur"
         id="feGaussianBlur1692" />
    </filter>
  </defs>
  <g
     id="g877"
     transform="matrix(1.1,0,0,1.1,-3.1845928,-3.2065454)">
    <path
       style="fill:#f5f7fa;stroke-width:0.204426;fill-opacity:1"
       d=""
       id="path3" />
    <rect
       style="fill:#000000;stroke:none;stroke-width:0.539739;stroke-dasharray:none;filter:url(#filter1283)"
       id="rect246-1"
       width="14.572964"
       height="14.572964"
       x="1.1932471"
       y="1.2138842"
       rx="2.1589575"
       ry="2.1589575"
       transform="matrix(2.4606127,0,0,3.1451146,11.16612,5.3876877)" />
    <rect
       style="fill:#000000;stroke:url(#linearGradient885);stroke-width:1.63561;stroke-dasharray:none"
       id="rect246"
       width="35.155312"
       height="44.93494"
       x="14.453793"
       y="9.6548424"
       rx="5.2081943"
       ry="5.181818" />
    <rect
       style="fill:url(#linearGradient1136);fill-opacity:1;stroke:none;stroke-width:1.31679;stroke-dasharray:none"
       id="rect246-5"
       width="31.13278"
       height="40.601383"
       x="16.465055"
       y="11.821622"
       rx="3.1818182"
       ry="3.1725934" />
    <path
       style="fill:#999999;stroke-width:0.736364"
       d="m 26.745084,17.196858 c -3.66014,0 -6.627272,2.967132 -6.627272,6.627273 0,3.66014 2.967132,6.627272 6.627272,6.627272 2.805099,-0.004 5.303926,-1.773507 6.238957,-4.418182 h 4.070135 v 2.209091 h 4.418181 v -2.209091 h 1.472727 V 21.61504 H 32.986916 C 32.05167,18.969754 29.55227,17.200063 26.746522,17.196858 Z m 0,4.418182 c 1.220046,0 2.209092,0.989045 2.209092,2.209091 0,1.220046 -0.989046,2.20909 -2.209092,2.20909 -1.220045,0 -2.209091,-0.989044 -2.209091,-2.20909 0,-1.220046 0.989046,-2.209091 2.209091,-2.209091 z"
       id="path6" />
    <path
       d="m 27.344176,44.410468 q 0.848486,0 1.236365,0.333334 0.387879,0.333333 0.387879,0.939394 0,0.357576 -0.163637,0.672728 -0.157576,0.309091 -0.539394,0.50303 -0.375758,0.19394 -1.024243,0.19394 h -0.49697 v 1.684849 h -0.545455 v -4.327275 z m -0.04848,0.466667 h -0.551515 v 1.709092 h 0.436364 q 0.618182,0 0.921212,-0.2 0.303031,-0.2 0.303031,-0.678789 0,-0.418182 -0.266667,-0.624242 -0.266667,-0.206061 -0.842425,-0.206061 z m 4.448485,1.575758 h 1.496971 v 2.121214 q -0.351516,0.115151 -0.709092,0.169697 -0.357575,0.05455 -0.812121,0.05455 -0.672728,0 -1.133334,-0.266666 -0.460607,-0.272728 -0.703031,-0.769698 -0.236364,-0.50303 -0.236364,-1.187879 0,-0.678789 0.266667,-1.175759 0.266667,-0.49697 0.763637,-0.769697 0.503031,-0.278788 1.212122,-0.278788 0.363636,0 0.684849,0.06667 0.327273,0.06667 0.606061,0.187878 l -0.206061,0.472728 q -0.230303,-0.10303 -0.521212,-0.175758 -0.284849,-0.07273 -0.59394,-0.07273 -0.775758,0 -1.212122,0.466667 -0.430303,0.466667 -0.430303,1.278789 0,0.515152 0.163636,0.915152 0.169697,0.393939 0.527273,0.618182 0.357576,0.218182 0.939395,0.218182 0.284848,0 0.484848,-0.0303 0.2,-0.0303 0.363637,-0.07273 v -1.28485 h -0.951516 z m 3.678795,-2.042425 q 0.848485,0 1.236364,0.333334 0.387879,0.333333 0.387879,0.939394 0,0.357576 -0.163636,0.672728 -0.157576,0.309091 -0.539395,0.50303 -0.375757,0.19394 -1.024243,0.19394 h -0.49697 v 1.684849 h -0.545455 v -4.327275 z m -0.04848,0.466667 H 34.82297 v 1.709092 h 0.436364 q 0.618182,0 0.921213,-0.2 0.30303,-0.2 0.30303,-0.678789 0,-0.418182 -0.266666,-0.624242 -0.266667,-0.206061 -0.842425,-0.206061 z"
       id="text1"
       style="font-size:6.06061px;-inkscape-font-specification:sans-serif;fill:#999999;stroke-width:0.454545;stroke-opacity:0.6"
       aria-label="PGP" />
  </g>
</svg>
