<?xml version="1.0" encoding="UTF-8" standalone="no"?>
<svg
   width="64"
   height="64"
   version="1.1"
   viewBox="0 0 16.933 16.933"
   id="svg7"
   sodipodi:docname="Template 4.svg"
   inkscape:version="1.3.2 (091e20ef0f, 2023-11-25)"
   xmlns:inkscape="http://www.inkscape.org/namespaces/inkscape"
   xmlns:sodipodi="http://sodipodi.sourceforge.net/DTD/sodipodi-0.dtd"
   xmlns:xlink="http://www.w3.org/1999/xlink"
   xmlns="http://www.w3.org/2000/svg"
   xmlns:svg="http://www.w3.org/2000/svg"
   xmlns:rdf="http://www.w3.org/1999/02/22-rdf-syntax-ns#"
   xmlns:cc="http://creativecommons.org/ns#"
   xmlns:dc="http://purl.org/dc/elements/1.1/">
  <sodipodi:namedview
     id="namedview7"
     pagecolor="#9c4444"
     bordercolor="#000000"
     borderopacity="0.25"
     inkscape:showpageshadow="2"
     inkscape:pageopacity="0.0"
     inkscape:pagecheckerboard="0"
     inkscape:deskcolor="#d1d1d1"
     inkscape:zoom="4.3531261"
     inkscape:cx="47.666894"
     inkscape:cy="26.188077"
     inkscape:window-width="1463"
     inkscape:window-height="604"
     inkscape:window-x="167"
     inkscape:window-y="273"
     inkscape:window-maximized="0"
     inkscape:current-layer="svg7"
     showgrid="false" />
  <defs
     id="defs2">
    <linearGradient
       id="linearGradient5"
       inkscape:collect="always">
      <stop
         style="stop-color:#392713;stop-opacity:1;"
         offset="0"
         id="stop2" />
      <stop
         style="stop-color:#eed59e;stop-opacity:1;"
         offset="0.5"
         id="stop3" />
      <stop
         style="stop-color:#beaa8a;stop-opacity:1;"
         offset="1"
         id="stop4" />
    </linearGradient>
    <linearGradient
       id="linearGradient8"
       inkscape:collect="always">
      <stop
         style="stop-color:#1a1a1a;stop-opacity:1;"
         offset="0"
         id="stop8" />
      <stop
         style="stop-color:#ffffff;stop-opacity:0;"
         offset="1"
         id="stop9" />
    </linearGradient>
    <linearGradient
       inkscape:collect="always"
       xlink:href="#linearGradient5"
       id="linearGradient41"
       x1="13.675659"
       y1="16.110115"
       x2="13.728528"
       y2="10.548769"
       gradientUnits="userSpaceOnUse"
       gradientTransform="matrix(1.6061171,0,0,2.1084059,-12.924569,-19.742698)" />
    <linearGradient
       inkscape:collect="always"
       xlink:href="#linearGradient42"
       id="linearGradient4"
       x1="11.885941"
       y1="16.50819"
       x2="12.026573"
       y2="10.244942"
       gradientUnits="userSpaceOnUse"
       gradientTransform="matrix(1.6061171,0,0,2.1084059,-12.924569,-19.742698)" />
    <linearGradient
       id="linearGradient42"
       inkscape:collect="always">
      <stop
         style="stop-color:#010101;stop-opacity:1;"
         offset="0"
         id="stop42" />
      <stop
         style="stop-color:#6e6c6d;stop-opacity:1;"
         offset="1"
         id="stop43" />
    </linearGradient>
    <linearGradient
       inkscape:collect="always"
       xlink:href="#linearGradient8"
       id="linearGradient9"
       x1="9.3404646"
       y1="4.1692023"
       x2="9.4279938"
       y2="16.46883"
       gradientUnits="userSpaceOnUse"
       gradientTransform="matrix(0.80952478,0,0,1.0980733,1.5663172,-0.59391329)" />
    <filter
       style="color-interpolation-filters:sRGB;"
       inkscape:label="Blur"
       id="filter2"
       x="-0.14510849"
       y="-0.14612901"
       width="1.290217"
       height="1.292258">
      <feGaussianBlur
         stdDeviation="0.6 0.6"
         result="blur"
         id="feGaussianBlur2" />
    </filter>
    <linearGradient
       inkscape:collect="always"
       xlink:href="#linearGradient5"
       id="linearGradient27"
       x1="9.0424843"
       y1="10.099572"
       x2="9.0745096"
       y2="6.14291"
       gradientUnits="userSpaceOnUse" />
  </defs>
  <metadata
     id="metadata2">
    <rdf:RDF>
      <cc:Work
         rdf:about="">
        <dc:format>image/svg+xml</dc:format>
        <dc:type
           rdf:resource="http://purl.org/dc/dcmitype/StillImage" />
      </cc:Work>
    </rdf:RDF>
  </metadata>
  <rect
     style="fill:#000000;fill-opacity:0.996424;stroke:#000000;stroke-width:0.911802;stroke-dasharray:none;stroke-opacity:1;filter:url(#filter2)"
     id="rect1-2-3"
     width="13.065404"
     height="12.974159"
     x="1.9816793"
     y="1.9267306"
     rx="2.7149384"
     ry="2.8310909"
     transform="matrix(0.78494475,0,0,1.0304244,1.8310625,-0.25598506)" />
  <rect
     style="fill:url(#linearGradient4);fill-opacity:0.996424;stroke:url(#linearGradient41);stroke-width:0.820027;stroke-dasharray:none;stroke-opacity:1"
     id="rect1-2"
     width="10.25562"
     height="13.36889"
     x="3.3865712"
     y="1.7293652"
     rx="2.1310766"
     ry="2.9172251" />
  <path
     style="opacity:0.3;fill:#000000;stroke-width:0.0544738"
     d="M 4.8892001,10.409552 C 4.8667561,10.367616 4.7352143,10.557766 5.9275532,8.9085554 6.16669,8.5777875 6.5379367,8.0639859 6.7525454,7.7667742 7.7073859,6.444416 7.6377066,6.5378343 7.6691944,6.5378343 c 0.029646,0 0.031825,0.00294 1.0452816,1.4092866 0.4218485,0.5853895 0.7719254,1.0647225 0.7779487,1.0651845 0.00602,4.52e-4 0.1996608,-0.2605611 0.4303063,-0.5800519 0.230647,-0.3194909 0.43122,-0.5907389 0.44572,-0.6027733 0.05022,-0.04168 -0.03055,-0.1464239 1.161442,1.5061535 0.338852,0.4697863 0.64216,0.8886223 0.67402,0.9307483 0.06242,0.08253 0.07454,0.148633 0.03036,0.165588 -0.01517,0.0058 -1.670036,0.01058 -3.6774893,0.01058 -3.5633041,0 -3.6503366,-8.19e-4 -3.6675775,-0.033 z M 8.9587483,10.255159 C 8.9446468,10.219206 8.6476511,9.4188045 8.2987562,8.4764878 7.9498614,7.5341714 7.6594565,6.7582396 7.6534119,6.7521951 c -0.00604,-0.00604 -0.013644,-0.00772 -0.016888,-0.00373 -0.00324,0.004 -0.2490832,0.344568 -0.54631,0.7568294 C 6.7929874,7.9175596 6.232515,8.694145 5.8447202,9.2310435 5.4569252,9.7679423 5.1217527,10.232716 5.0998921,10.263876 l -0.039747,0.05665 h 1.9621211 1.9621202 z m 2.2698497,0.03486 c -0.0049,-0.01678 -0.11073,-0.3050568 -0.23527,-0.6406179 C 10.868787,9.3138444 10.681948,8.8098483 10.578129,8.5294146 10.474311,8.2489812 10.384738,8.0195352 10.37908,8.0195352 c -0.01243,0 -0.8017323,1.0906203 -0.8017323,1.1077877 0,0.00972 0.4770723,0.6764715 0.7882793,1.1016891 l 0.06698,0.09152 h 0.402413 c 0.374997,0 0.401813,-0.0021 0.39358,-0.0305 z"
     id="path1-9" />
  <path
     style="fill:url(#linearGradient27);stroke-width:0.0544738"
     d="M 4.8892001,10.01271 C 4.8667561,9.9707734 4.7352143,10.160924 5.9275532,8.5117126 6.16669,8.1809447 6.5379367,7.6671431 6.7525454,7.3699314 7.7073859,6.0475732 7.6377066,6.1409915 7.6691944,6.1409915 c 0.029646,0 0.031825,0.00294 1.0452816,1.4092866 0.4218485,0.5853895 0.7719254,1.0647225 0.7779487,1.0651845 0.00602,4.52e-4 0.1996608,-0.2605611 0.4303063,-0.5800519 0.230647,-0.3194909 0.43122,-0.5907389 0.44572,-0.6027733 0.05022,-0.04168 -0.03055,-0.1464239 1.161442,1.5061535 0.338852,0.4697863 0.64216,0.8886231 0.67402,0.9307488 0.06242,0.082529 0.07454,0.1486333 0.03036,0.1655883 -0.01517,0.0058 -1.670036,0.01058 -3.6774893,0.01058 -3.5633041,0 -3.6503366,-8.19e-4 -3.6675775,-0.033 z M 8.9587483,9.8583167 C 8.9446468,9.8223637 8.6476511,9.0219617 8.2987562,8.079645 7.9498614,7.1373286 7.6594565,6.3613968 7.6534119,6.3553523 c -0.00604,-0.00604 -0.013644,-0.00772 -0.016888,-0.00373 -0.00324,0.004 -0.2490832,0.344568 -0.54631,0.7568294 C 6.7929874,7.5207168 6.232515,8.2973022 5.8447202,8.8342007 5.4569252,9.3710995 5.1217527,9.835874 5.0998921,9.8670333 l -0.039747,0.056654 h 1.9621211 1.9621202 z m 2.2698497,0.034865 C 11.223738,9.8764024 11.117868,9.588125 10.993328,9.2525633 10.868787,8.9170016 10.681948,8.4130055 10.578129,8.1325718 10.474311,7.8521384 10.384738,7.6226924 10.37908,7.6226924 c -0.01243,0 -0.8017323,1.0906203 -0.8017323,1.1077877 0,0.00972 0.4770723,0.6764715 0.7882793,1.1016895 l 0.06698,0.091517 h 0.402413 c 0.374997,0 0.401813,-0.00209 0.39358,-0.030505 z"
     id="path1" />
  <rect
     style="opacity:0.5;fill:none;fill-opacity:0.996424;stroke:url(#linearGradient9);stroke-width:0.50832;stroke-dasharray:none;stroke-opacity:1"
     id="rect1-2-6"
     width="8.9234324"
     height="12.035513"
     x="4.0584631"
     y="2.3962882"
     rx="1.5176033"
     ry="2.2109985" />
</svg>
