<?xml version="1.0" encoding="UTF-8" standalone="no"?>
<svg
   width="64"
   height="64"
   version="1.1"
   viewBox="0 0 16.933 16.933"
   id="svg7"
   sodipodi:docname="Template 4.svg"
   inkscape:version="1.3.2 (091e20ef0f, 2023-11-25)"
   xmlns:inkscape="http://www.inkscape.org/namespaces/inkscape"
   xmlns:sodipodi="http://sodipodi.sourceforge.net/DTD/sodipodi-0.dtd"
   xmlns:xlink="http://www.w3.org/1999/xlink"
   xmlns="http://www.w3.org/2000/svg"
   xmlns:svg="http://www.w3.org/2000/svg"
   xmlns:rdf="http://www.w3.org/1999/02/22-rdf-syntax-ns#"
   xmlns:cc="http://creativecommons.org/ns#"
   xmlns:dc="http://purl.org/dc/elements/1.1/">
  <sodipodi:namedview
     id="namedview7"
     pagecolor="#9c4444"
     bordercolor="#000000"
     borderopacity="0.25"
     inkscape:showpageshadow="2"
     inkscape:pageopacity="0.0"
     inkscape:pagecheckerboard="0"
     inkscape:deskcolor="#d1d1d1"
     inkscape:zoom="6.15625"
     inkscape:cx="32.893401"
     inkscape:cy="24.365482"
     inkscape:window-width="1463"
     inkscape:window-height="604"
     inkscape:window-x="199"
     inkscape:window-y="276"
     inkscape:window-maximized="0"
     inkscape:current-layer="svg7"
     showgrid="false" />
  <defs
     id="defs2">
    <linearGradient
       id="linearGradient5"
       inkscape:collect="always">
      <stop
         style="stop-color:#392713;stop-opacity:1;"
         offset="0"
         id="stop2" />
      <stop
         style="stop-color:#eed59e;stop-opacity:1;"
         offset="0.5"
         id="stop3" />
      <stop
         style="stop-color:#beaa8a;stop-opacity:1;"
         offset="1"
         id="stop4" />
    </linearGradient>
    <linearGradient
       id="linearGradient8"
       inkscape:collect="always">
      <stop
         style="stop-color:#1a1a1a;stop-opacity:1;"
         offset="0"
         id="stop8" />
      <stop
         style="stop-color:#ffffff;stop-opacity:0;"
         offset="1"
         id="stop9" />
    </linearGradient>
    <linearGradient
       inkscape:collect="always"
       xlink:href="#linearGradient5"
       id="linearGradient41"
       x1="13.675659"
       y1="16.110115"
       x2="13.728528"
       y2="10.548769"
       gradientUnits="userSpaceOnUse"
       gradientTransform="matrix(1.8415377,0,0,1.8415377,-16.067037,-16.178831)" />
    <linearGradient
       inkscape:collect="always"
       xlink:href="#linearGradient42"
       id="linearGradient4"
       x1="11.885941"
       y1="16.50819"
       x2="12.026573"
       y2="10.244942"
       gradientUnits="userSpaceOnUse"
       gradientTransform="matrix(1.8415377,0,0,1.8415377,-16.067037,-16.178831)" />
    <linearGradient
       id="linearGradient42"
       inkscape:collect="always">
      <stop
         style="stop-color:#010101;stop-opacity:1;"
         offset="0"
         id="stop42" />
      <stop
         style="stop-color:#6e6c6d;stop-opacity:1;"
         offset="1"
         id="stop43" />
    </linearGradient>
    <linearGradient
       inkscape:collect="always"
       xlink:href="#linearGradient8"
       id="linearGradient9"
       x1="9.3404646"
       y1="4.1692023"
       x2="9.4279938"
       y2="16.46883"
       gradientUnits="userSpaceOnUse"
       gradientTransform="matrix(0.945,0,0,0.945,0.39894513,0.66338344)" />
    <filter
       style="color-interpolation-filters:sRGB;"
       inkscape:label="Blur"
       id="filter2"
       x="-0.14510849"
       y="-0.14612901"
       width="1.290217"
       height="1.292258">
      <feGaussianBlur
         stdDeviation="0.6 0.6"
         result="blur"
         id="feGaussianBlur2" />
    </filter>
    <linearGradient
       inkscape:collect="always"
       xlink:href="#linearGradient5"
       id="linearGradient6"
       x1="32.115986"
       y1="49.243752"
       x2="32.208313"
       y2="15.318441"
       gradientUnits="userSpaceOnUse"
       gradientTransform="matrix(0.19287745,0,0,0.19287745,2.300815,2.1469065)" />
  </defs>
  <metadata
     id="metadata2">
    <rdf:RDF>
      <cc:Work
         rdf:about="">
        <dc:format>image/svg+xml</dc:format>
        <dc:type
           rdf:resource="http://purl.org/dc/dcmitype/StillImage" />
      </cc:Work>
    </rdf:RDF>
  </metadata>
  <rect
     style="fill:#000000;fill-opacity:0.996424;stroke:#000000;stroke-width:0.911802;stroke-dasharray:none;stroke-opacity:1;filter:url(#filter2)"
     id="rect1-2-3"
     width="13.065404"
     height="12.974159"
     x="1.9816793"
     y="1.9267306"
     rx="2.7149384"
     ry="2.8310909"
     transform="matrix(0.9,0,0,0.9,0.85143817,0.84138103)" />
  <rect
     style="fill:url(#linearGradient4);fill-opacity:0.996424;stroke:url(#linearGradient41);stroke-width:0.820622;stroke-dasharray:none;stroke-opacity:1"
     id="rect1-2"
     width="11.758863"
     height="11.676744"
     x="2.6349494"
     y="2.5754385"
     rx="2.4434445"
     ry="2.5479817" />
  <path
     style="fill:#000000;fill-opacity:1;stroke-width:0.233382;opacity:0.3"
     d="m 8.4900915,5.6820106 c -1.8045074,0 -3.267344,1.4628367 -3.267344,3.2673441 0,1.8045053 1.4628366,3.2673423 3.267344,3.2673423 1.8045085,0 3.2673455,-1.462837 3.2673455,-3.2673423 0,-1.8045074 -1.462837,-3.2673441 -3.2673455,-3.2673441 z M 8.1628099,6.3064893 c 0.038093,-0.00397 0.086462,0.0023 0.1248956,0 0.00457,0.018222 -0.027661,0.082892 -0.071109,0.1777711 -0.276647,0.6043626 -0.2923081,1.3127958 -0.035554,1.691106 0.046462,0.06859 0.08843,0.1337308 0.08843,0.1422167 0,0.00848 -0.050008,0.01732 -0.1066632,0.01732 -0.1330003,0 -0.2588336,-0.080799 -0.5159922,-0.2844342 C 7.532579,7.9600083 7.3843675,7.884199 7.3268297,7.8726979 7.236477,7.8546484 7.212158,7.8624619 7.0952716,7.9793608 6.9865189,8.0880939 6.9530544,8.1469313 6.9530544,8.2464736 c 0,0.3774793 0.4478762,0.6767306 1.2808645,0.853303 1.13123,0.2397566 1.4101123,0.4553745 1.4413143,1.0502154 0.039176,0.745915 -0.3581704,1.30856 -1.2279893,1.743981 -0.1038181,0.05199 -0.1697666,0.07163 -0.213325,0.08842 -0.0193,-0.0018 -0.03363,0.0018 -0.052875,0 -0.00741,-0.02307 -0.01823,-0.0764 -0.01823,-0.177771 0,-0.396178 -0.1557915,-0.80394 -0.3910964,-1.031986 C 7.7085527,10.71143 7.5311572,10.581964 7.3797077,10.488213 7.228264,10.394467 7.0755367,10.285795 7.0414863,10.239333 6.9850591,10.16223 6.9808116,10.114656 7.0241659,9.9722214 7.1031757,9.7120793 7.1968854,9.5668116 7.3797086,9.4024422 7.4755557,9.3162707 7.5718008,9.2446316 7.5930337,9.242904 7.6142716,9.2411295 7.4713003,9.1976618 7.2557246,9.1535625 7.040161,9.1093788 6.724086,9.0165654 6.5610494,8.9575587 6.2629226,8.8496855 5.8612011,8.6236954 5.7077471,8.4597992 5.7012571,8.4528492 5.6951521,8.4477192 5.6895161,8.4415682 5.909379,7.5657722 6.5262115,6.8484054 7.3441559,6.5024942 7.515301,6.4301062 7.6921419,6.3801368 7.8783812,6.3420443 c 0.092767,-0.01896 0.1886494,-0.025817 0.284434,-0.035554 z m 2.6693041,1.3346518 c 0.06687,0.041337 0.319017,0.5877339 0.391097,0.8542135 0.09306,0.3440263 0.08633,0.9391093 0,1.2808634 -0.03285,0.1300739 -0.07442,0.251966 -0.08843,0.267113 -0.014,0.01515 -0.06514,-0.071879 -0.124896,-0.1777713 C 10.950124,9.7596852 10.759186,9.5342644 10.600557,9.3668889 10.142678,8.8837353 10.070538,8.6320734 10.262336,8.2464748 10.35906,8.0520306 10.780356,7.6091957 10.832114,7.6411411 Z"
     id="path14-2" />
  <path
     style="fill:url(#linearGradient6);fill-opacity:1;stroke-width:0.233382"
     d="m 8.4900915,5.1528544 c -1.8045074,0 -3.267344,1.4628367 -3.267344,3.2673441 0,1.8045055 1.4628366,3.2673425 3.267344,3.2673425 1.8045085,0 3.2673455,-1.462837 3.2673455,-3.2673425 0,-1.8045074 -1.462837,-3.2673441 -3.2673455,-3.2673441 z M 8.1628099,5.7773331 c 0.038093,-0.00397 0.086462,0.0023 0.1248956,0 0.00457,0.018222 -0.027661,0.082892 -0.071109,0.1777711 -0.276647,0.6043626 -0.2923081,1.3127958 -0.035554,1.691106 0.046462,0.06859 0.08843,0.1337308 0.08843,0.1422167 0,0.00848 -0.050008,0.01732 -0.1066632,0.01732 -0.1330003,0 -0.2588336,-0.080799 -0.5159922,-0.2844342 C 7.532579,7.4308521 7.3843675,7.3550428 7.3268297,7.3435417 7.236477,7.3254922 7.212158,7.3333057 7.0952716,7.4502046 6.9865189,7.5589377 6.9530544,7.6177751 6.9530544,7.7173174 c 0,0.3774793 0.4478762,0.6767306 1.2808645,0.853303 1.13123,0.2397566 1.4101123,0.4553745 1.4413143,1.050215 0.039176,0.7459156 -0.3581704,1.3085606 -1.2279893,1.7439816 -0.1038181,0.05199 -0.1697666,0.07163 -0.213325,0.08842 -0.0193,-0.0018 -0.03363,0.0018 -0.052875,0 -0.00741,-0.02307 -0.01823,-0.0764 -0.01823,-0.177771 0,-0.396178 -0.1557915,-0.80394 -0.3910964,-1.031986 C 7.7085527,10.182274 7.5311572,10.052808 7.3797077,9.9590567 7.228264,9.8653109 7.0755367,9.7566388 7.0414863,9.7101772 6.9850591,9.6330739 6.9808116,9.5855001 7.0241659,9.4430652 7.1031757,9.1829231 7.1968854,9.0376554 7.3797086,8.873286 7.4755557,8.7871145 7.5718008,8.7154754 7.5930337,8.7137478 7.6142716,8.7119733 7.4713003,8.6685056 7.2557246,8.6244063 7.040161,8.5802226 6.724086,8.4874092 6.5610494,8.4284025 6.2629226,8.3205293 5.8612011,8.0945392 5.7077471,7.930643 5.7012571,7.923693 5.6951521,7.918563 5.6895161,7.912412 5.909379,7.036616 6.5262115,6.3192492 7.3441559,5.973338 7.515301,5.90095 7.6921419,5.8509806 7.8783812,5.8128881 c 0.092767,-0.01896 0.1886494,-0.025817 0.284434,-0.035554 z m 2.6693041,1.3346518 c 0.06687,0.041337 0.319017,0.5877339 0.391097,0.8542135 0.09306,0.3440263 0.08633,0.9391093 0,1.2808634 -0.03285,0.1300739 -0.07442,0.2519663 -0.08843,0.2671126 -0.014,0.015149 -0.06514,-0.071879 -0.124896,-0.1777709 C 10.950124,9.230529 10.759186,9.0051082 10.600557,8.8377327 10.142678,8.3545791 10.070538,8.1029172 10.262336,7.7173186 10.35906,7.5228744 10.780356,7.0800395 10.832114,7.1119849 Z"
     id="path14" />
  <rect
     style="opacity:0.5;fill:none;fill-opacity:0.996424;stroke:url(#linearGradient9);stroke-width:0.509492;stroke-dasharray:none;stroke-opacity:1"
     id="rect1-2-6"
     width="10.416782"
     height="10.357741"
     x="3.3081555"
     y="3.2367458"
     rx="1.8221684"
     ry="1.856477" />
</svg>
