<?xml version="1.0" encoding="UTF-8" standalone="no"?>
<svg
   width="64"
   height="64"
   version="1.1"
   id="svg73"
   sodipodi:docname="filetype Template.svg"
   inkscape:version="1.4 (e7c3feb100, 2024-10-09)"
   xmlns:inkscape="http://www.inkscape.org/namespaces/inkscape"
   xmlns:sodipodi="http://sodipodi.sourceforge.net/DTD/sodipodi-0.dtd"
   xmlns:xlink="http://www.w3.org/1999/xlink"
   xmlns="http://www.w3.org/2000/svg"
   xmlns:svg="http://www.w3.org/2000/svg"
   xmlns:rdf="http://www.w3.org/1999/02/22-rdf-syntax-ns#"
   xmlns:cc="http://creativecommons.org/ns#"
   xmlns:dc="http://purl.org/dc/elements/1.1/">
  <metadata
     id="metadata77">
    <rdf:RDF>
      <cc:Work
         rdf:about="">
        <dc:format>image/svg+xml</dc:format>
        <dc:type
           rdf:resource="http://purl.org/dc/dcmitype/StillImage" />
      </cc:Work>
    </rdf:RDF>
  </metadata>
  <sodipodi:namedview
     pagecolor="#f5f7fa"
     bordercolor="#666666"
     borderopacity="1"
     objecttolerance="10"
     gridtolerance="10"
     guidetolerance="10"
     inkscape:pageopacity="0"
     inkscape:pageshadow="2"
     inkscape:window-width="1183"
     inkscape:window-height="973"
     id="namedview75"
     showgrid="false"
     inkscape:zoom="4.4470387"
     inkscape:cx="19.226278"
     inkscape:cy="8.4325779"
     inkscape:window-x="35"
     inkscape:window-y="32"
     inkscape:window-maximized="0"
     inkscape:current-layer="g877"
     inkscape:document-rotation="0"
     inkscape:pagecheckerboard="0"
     inkscape:showpageshadow="2"
     inkscape:deskcolor="#d1d1d1" />
  <defs
     id="defs29">
    <filter
       style="color-interpolation-filters:sRGB;"
       inkscape:label="Blur"
       id="filter6"
       x="-0.044145008"
       y="-0.044145008"
       width="1.08829"
       height="1.08829">
      <feGaussianBlur
         stdDeviation="1 1"
         result="blur"
         id="feGaussianBlur6" />
    </filter>
    <filter
       style="color-interpolation-filters:sRGB;"
       inkscape:label="Blur"
       id="filter7"
       x="-0.098100013"
       y="-0.098100021"
       width="1.1962"
       height="1.1962">
      <feGaussianBlur
         stdDeviation="2 2"
         result="blur"
         id="feGaussianBlur7" />
    </filter>
    <clipPath
       id="clip0_515_3621">
      <rect
         width="16"
         height="16"
         fill="#ffffff"
         transform="translate(0.00292969)"
         id="rect7969"
         x="0"
         y="0" />
    </clipPath>
    <filter
       style="color-interpolation-filters:sRGB;"
       inkscape:label="Blur"
       id="filter7349"
       x="-0.10485812"
       y="-0.10485813"
       width="1.2097162"
       height="1.2097163">
      <feGaussianBlur
         stdDeviation="2 2"
         result="blur"
         id="feGaussianBlur7347" />
    </filter>
    <filter
       style="color-interpolation-filters:sRGB"
       inkscape:label="Blur"
       id="filter1283"
       x="-0.082344266"
       y="-0.082344266"
       width="1.1646885"
       height="1.1646885">
      <feGaussianBlur
         stdDeviation="0.5 0.5"
         result="blur"
         id="feGaussianBlur1281" />
    </filter>
    <linearGradient
       inkscape:collect="always"
       xlink:href="#linearGradient883"
       id="linearGradient885"
       x1="2.1085808"
       y1="2.0236168"
       x2="14.846128"
       y2="15.071845"
       gradientUnits="userSpaceOnUse"
       gradientTransform="matrix(2.4606127,0,0,3.1451148,11.16612,5.3876879)" />
    <linearGradient
       inkscape:collect="always"
       id="linearGradient883">
      <stop
         style="stop-color:#808080;stop-opacity:1;"
         offset="0"
         id="stop879" />
      <stop
         style="stop-color:#3e3e3e;stop-opacity:1;"
         offset="0.5"
         id="stop1216" />
      <stop
         style="stop-color:#242424;stop-opacity:1;"
         offset="1"
         id="stop881" />
    </linearGradient>
    <linearGradient
       inkscape:collect="always"
       xlink:href="#linearGradient1134"
       id="linearGradient1136"
       x1="14.971222"
       y1="14.703373"
       x2="2.0756054"
       y2="2.0069976"
       gradientUnits="userSpaceOnUse"
       gradientTransform="matrix(2.4106819,0,0,3.1438568,11.58952,5.3983817)" />
    <linearGradient
       inkscape:collect="always"
       id="linearGradient1134">
      <stop
         style="stop-color:#161616;stop-opacity:1;"
         offset="0"
         id="stop1130" />
      <stop
         style="stop-color:#404040;stop-opacity:1;"
         offset="1"
         id="stop1132" />
    </linearGradient>
    <filter
       style="color-interpolation-filters:sRGB"
       inkscape:label="Blur"
       id="filter1694"
       x="-0.94955398"
       y="-0.2118907"
       width="2.899108"
       height="1.4237814">
      <feGaussianBlur
         stdDeviation="0.2 0.2"
         result="blur"
         id="feGaussianBlur1692" />
    </filter>
  </defs>
  <g
     id="g877"
     transform="matrix(1.1,0,0,1.1,-3.1845928,-3.2065454)">
    <path
       style="fill:#f5f7fa;stroke-width:0.204426;fill-opacity:1"
       d=""
       id="path3" />
    <rect
       style="fill:#000000;stroke:none;stroke-width:0.539739;stroke-dasharray:none;filter:url(#filter1283)"
       id="rect246-1"
       width="14.572964"
       height="14.572964"
       x="1.1932471"
       y="1.2138842"
       rx="2.1589575"
       ry="2.1589575"
       transform="matrix(2.4606127,0,0,3.1451146,11.16612,5.3876877)" />
    <rect
       style="fill:#000000;stroke:url(#linearGradient885);stroke-width:1.63561;stroke-dasharray:none"
       id="rect246"
       width="35.155312"
       height="44.93494"
       x="14.453793"
       y="9.6548424"
       rx="5.2081943"
       ry="5.181818" />
    <rect
       style="fill:url(#linearGradient1136);fill-opacity:1;stroke:none;stroke-width:1.31679;stroke-dasharray:none"
       id="rect246-5"
       width="31.13278"
       height="40.601383"
       x="16.465055"
       y="11.821622"
       rx="3.1818182"
       ry="3.1725934" />
    <g
       id="g1175"
       style="fill:#999999;fill-opacity:1"
       transform="matrix(0.66272728,0,0,0.66272728,10.778664,3.5259431)">
      <path
         id="path84-6-5"
         style="fill:#999999;fill-opacity:1;fill-rule:nonzero;stroke:none;stroke-width:0.0399999"
         d="m 29.168215,18.873124 c -1.271761,0.282725 -2.529802,0.676348 -3.709278,1.27002 0.02697,1.041485 0.09431,2.039389 0.230801,3.053027 -0.458054,0.293464 -0.93951,0.545327 -1.367343,0.888867 -0.434702,0.334424 -0.87863,0.65437 -1.272247,1.045489 -0.786358,-0.520118 -1.61864,-1.008897 -2.476054,-1.440352 -0.924225,0.994656 -1.788399,2.068201 -2.494336,3.269531 0.554791,0.870863 1.149885,1.746171 1.700977,2.42877 v 5.933496 0.753633 0.685839 c 0.01349,1.2e-4 0.02695,6.27e-4 0.04031,0.0019 l 4.520098,0.435821 c 0.236769,0.02285 0.422383,0.213434 0.438867,0.450703 l 0.139336,1.995293 3.94289,0.281367 0.271641,-1.841601 c 0.03522,-0.238768 0.240009,-0.415723 0.481523,-0.415723 h 4.768829 c 0.241389,0 0.44619,0.176955 0.481406,0.415723 l 0.27164,1.841601 3.943008,-0.281367 0.139278,-1.995293 c 0.01661,-0.237269 0.202039,-0.427726 0.438808,-0.450703 l 4.518339,-0.435821 c 0.01336,-0.0012 0.02671,-0.0018 0.0402,-0.0019 v -0.588339 l 0.0019,-5.85e-4 v -6.784044 c 0.636495,-0.801279 1.239204,-1.685145 1.700976,-2.42877 -0.705687,-1.201329 -1.570344,-2.274875 -2.494569,-3.269531 -0.857166,0.431455 -1.689756,0.920233 -2.476116,1.440352 -0.393487,-0.391119 -0.836685,-0.711065 -1.272011,-1.045489 -0.427708,-0.34354 -0.909695,-0.595403 -1.366875,-0.888867 0.136118,-1.013638 0.20341,-2.011541 0.230508,-3.053027 -1.1796,-0.593671 -2.437477,-0.987295 -3.709863,-1.27002 -0.508005,0.853793 -0.972582,1.778377 -1.377187,2.682246 -0.479783,-0.08017 -0.961799,-0.109861 -1.444454,-0.115605 v -7.62e-4 c -0.0034,0 -0.0065,7.62e-4 -0.0094,7.62e-4 -0.003,0 -0.0061,-7.62e-4 -0.0091,-7.62e-4 v 7.62e-4 c -0.483529,0.0057 -0.965191,0.03543 -1.445098,0.115605 -0.404356,-0.903869 -0.868609,-1.828453 -1.377363,-2.682246 z m -3.575977,10.785703 c 1.504534,0 2.723965,1.218524 2.723965,2.722559 0,1.505034 -1.219431,2.724258 -2.723965,2.724258 -1.503785,0 -2.723613,-1.219224 -2.723613,-2.724258 0,-1.504035 1.219828,-2.722559 2.723613,-2.722559 z m 12.815391,0 c 1.50366,0 2.723319,1.218524 2.723319,2.722559 0,1.505034 -1.219659,2.724258 -2.723319,2.724258 -1.504784,0 -2.724258,-1.219224 -2.724258,-2.724258 0,-1.504035 1.219474,-2.722559 2.724258,-2.722559 z m -6.408047,1.593282 c 0.484278,0 0.877617,0.357244 0.877617,0.796816 v 2.507695 c 0,0.439947 -0.393339,0.796875 -0.877617,0.796875 -0.484278,0 -0.876797,-0.356928 -0.876797,-0.796875 v -2.507695 c 0,-0.439572 0.392519,-0.796816 0.876797,-0.796816 z" />
      <path
         d="m 40.16191,38.128569 -0.139988,2.00592 c -0.01686,0.241765 -0.209171,0.434202 -0.450936,0.45156 l -4.814684,0.34354 c -0.01174,8.74e-4 -0.02348,0.0012 -0.03509,0.0012 -0.239267,0 -0.44569,-0.175579 -0.481031,-0.415845 l -0.276106,-1.872425 h -3.928547 l -0.276106,1.872426 c -0.03709,0.252004 -0.262369,0.433202 -0.516122,0.414595 L 24.428615,40.586 C 24.186851,40.56864 23.994539,40.376205 23.97768,40.13444 l -0.139989,-2.00592 -4.064415,-0.391868 c 0.0019,0.436824 0.0075,0.915358 0.0075,1.01064 0,4.292568 5.44532,6.355807 12.210728,6.379534 h 0.0082 0.0084 c 6.765408,-0.02373 12.208856,-2.086966 12.208856,-6.379534 0,-0.09703 0.0059,-0.573566 0.0079,-1.01064 z"
         style="fill:#999999;fill-opacity:1;fill-rule:nonzero;stroke:none;stroke-width:0.0399999"
         id="path88-5-2"
         inkscape:connector-curvature="0" />
      <path
         d="m 27.660773,32.542987 c 0,0.998278 -0.809087,1.807364 -1.808113,1.807364 -0.998527,0 -1.808114,-0.809086 -1.808114,-1.807364 0,-0.998277 0.809587,-1.808113 1.808114,-1.808113 0.999026,0 1.808113,0.809836 1.808113,1.808113"
         style="fill:#999999;fill-opacity:1;fill-rule:nonzero;stroke:none;stroke-width:0.0399999"
         id="path96-2-7"
         inkscape:connector-curvature="0" />
      <path
         d="m 36.338984,32.542987 c 0,0.998278 0.808837,1.807364 1.807114,1.807364 0.999277,0 1.808114,-0.809086 1.808114,-1.807364 0,-0.998277 -0.808837,-1.808113 -1.808114,-1.808113 -0.998277,0 -1.807114,0.809836 -1.807114,1.808113"
         style="fill:#999999;fill-opacity:1;fill-rule:nonzero;stroke:none;stroke-width:0.0399999"
         id="path108-9-6"
         inkscape:connector-curvature="0" />
    </g>
    <path
       d="m 24.830346,47.779695 q 0,0.575758 -0.418182,0.89697 -0.418182,0.321212 -1.127273,0.321212 -0.363637,0 -0.672728,-0.05455 -0.309091,-0.05455 -0.515152,-0.151516 v -0.521212 q 0.218182,0.09697 0.539395,0.175758 0.327273,0.07879 0.672727,0.07879 0.484849,0 0.727274,-0.187879 0.248485,-0.187879 0.248485,-0.509091 0,-0.212122 -0.09091,-0.357576 -0.09091,-0.145455 -0.315151,-0.266667 -0.218182,-0.127273 -0.612122,-0.266667 -0.551515,-0.2 -0.836364,-0.49091 -0.278788,-0.290909 -0.278788,-0.793939 0,-0.345455 0.175758,-0.58788 0.175757,-0.248485 0.484848,-0.381818 0.315152,-0.133333 0.721213,-0.133333 0.357576,0 0.654546,0.06667 0.29697,0.06667 0.539394,0.175758 l -0.169697,0.466667 q -0.224243,-0.09697 -0.490909,-0.163637 -0.260607,-0.06667 -0.545455,-0.06667 -0.406061,0 -0.612122,0.175757 -0.206061,0.169698 -0.206061,0.454546 0,0.218182 0.09091,0.363637 0.09091,0.145454 0.296969,0.260606 0.206061,0.115152 0.557577,0.248485 0.381818,0.139394 0.642424,0.303031 0.266667,0.157575 0.4,0.381818 0.139394,0.224242 0.139394,0.563637 z m 1.333333,-2.096971 q 0,0.242424 -0.0303,0.454545 h 0.03636 q 0.157576,-0.248485 0.424243,-0.375757 0.272727,-0.127273 0.587879,-0.127273 0.59394,0 0.89091,0.284848 0.296969,0.278788 0.296969,0.903031 v 2.115153 h -0.527273 v -2.078789 q 0,-0.781819 -0.727273,-0.781819 -0.545455,0 -0.751515,0.309091 -0.200001,0.303031 -0.200001,0.872728 v 1.678789 h -0.533333 v -4.606063 h 0.533333 z m 4.442428,-0.04848 q 0.593939,0 0.878788,0.260606 0.284849,0.260606 0.284849,0.830304 v 2.212122 h -0.387879 l -0.103031,-0.460606 h -0.02424 q -0.212122,0.266667 -0.448485,0.393939 -0.230304,0.127273 -0.642425,0.127273 -0.442425,0 -0.733334,-0.230303 -0.290909,-0.236364 -0.290909,-0.733334 0,-0.484849 0.381818,-0.745455 0.381819,-0.266667 1.175759,-0.290909 l 0.551515,-0.01818 v -0.193939 q 0,-0.406061 -0.175758,-0.563637 -0.175757,-0.157576 -0.49697,-0.157576 -0.254545,0 -0.484848,0.07879 -0.230303,0.07273 -0.430304,0.169697 l -0.163636,-0.4 q 0.212121,-0.115152 0.503031,-0.19394 0.290909,-0.08485 0.606061,-0.08485 z m 0.157575,1.733334 q -0.606061,0.02424 -0.842424,0.19394 -0.230304,0.169697 -0.230304,0.478788 0,0.272727 0.163637,0.4 0.169697,0.127273 0.430303,0.127273 0.412122,0 0.684849,-0.224243 0.272728,-0.230303 0.272728,-0.70303 v -0.29091 z m 3.163643,1.630304 q -0.606061,0 -0.969697,-0.418182 -0.363637,-0.424243 -0.363637,-1.260607 0,-0.836364 0.363637,-1.260607 0.369697,-0.430303 0.975758,-0.430303 0.375758,0 0.612122,0.139394 0.242424,0.139394 0.393939,0.339394 h 0.03636 q -0.0061,-0.07879 -0.02424,-0.230303 -0.01212,-0.157576 -0.01212,-0.248485 v -1.29697 h 0.533334 v 4.606063 h -0.430303 l -0.07879,-0.436364 h -0.02424 q -0.145454,0.206061 -0.387879,0.351516 -0.242424,0.145454 -0.624243,0.145454 z m 0.08485,-0.442424 q 0.515152,0 0.721212,-0.278788 0.212122,-0.284849 0.212122,-0.854546 v -0.09697 q 0,-0.606061 -0.2,-0.927273 -0.2,-0.327273 -0.739395,-0.327273 -0.430303,0 -0.648485,0.345454 -0.212121,0.339395 -0.212121,0.915153 0,0.581818 0.212121,0.90303 0.218182,0.321213 0.654546,0.321213 z m 3.745456,-2.927275 q 0.418182,0 0.715152,0.181818 0.30303,0.181819 0.460606,0.515152 0.163636,0.327273 0.163636,0.769698 v 0.321212 h -2.224243 q 0.01212,0.551516 0.278788,0.842425 0.272727,0.284848 0.757576,0.284848 0.309091,0 0.545455,-0.05455 0.242424,-0.06061 0.49697,-0.169697 v 0.466667 q -0.248485,0.109091 -0.49091,0.157576 -0.242424,0.05455 -0.575758,0.05455 -0.460606,0 -0.818182,-0.187879 -0.351515,-0.187879 -0.551515,-0.557576 -0.19394,-0.375758 -0.19394,-0.915152 0,-0.533334 0.175758,-0.915152 0.181818,-0.381818 0.50303,-0.587879 0.327273,-0.206061 0.757577,-0.206061 z m -0.0061,0.436364 q -0.381818,0 -0.606061,0.248485 -0.218182,0.242424 -0.260606,0.678788 h 1.654546 q -0.0061,-0.412121 -0.193939,-0.666667 -0.187879,-0.260606 -0.59394,-0.260606 z m 3.684846,-0.436364 q 0.09091,0 0.19394,0.01212 0.109091,0.0061 0.187879,0.02424 l -0.06667,0.490909 q -0.07879,-0.01818 -0.175758,-0.0303 -0.09091,-0.01212 -0.175757,-0.01212 -0.248485,0 -0.466667,0.139394 -0.218182,0.133333 -0.351516,0.381818 -0.127272,0.242425 -0.127272,0.569698 v 1.733334 h -0.533334 v -3.248487 h 0.436364 l 0.06061,0.59394 h 0.02424 q 0.157576,-0.266667 0.406061,-0.460606 0.248485,-0.19394 0.587879,-0.19394 z"
       id="text5786"
       style="font-size:6.06061px;text-align:center;text-anchor:middle;fill:#999999;stroke-width:1.81818"
       aria-label="Shader" />
  </g>
</svg>
