<?xml version="1.0" encoding="UTF-8" standalone="no"?>
<svg
   width="64"
   height="64"
   version="1.1"
   id="svg73"
   sodipodi:docname="filetype Template.svg"
   inkscape:version="1.4 (e7c3feb100, 2024-10-09)"
   xmlns:inkscape="http://www.inkscape.org/namespaces/inkscape"
   xmlns:sodipodi="http://sodipodi.sourceforge.net/DTD/sodipodi-0.dtd"
   xmlns:xlink="http://www.w3.org/1999/xlink"
   xmlns="http://www.w3.org/2000/svg"
   xmlns:svg="http://www.w3.org/2000/svg"
   xmlns:rdf="http://www.w3.org/1999/02/22-rdf-syntax-ns#"
   xmlns:cc="http://creativecommons.org/ns#"
   xmlns:dc="http://purl.org/dc/elements/1.1/">
  <metadata
     id="metadata77">
    <rdf:RDF>
      <cc:Work
         rdf:about="">
        <dc:format>image/svg+xml</dc:format>
        <dc:type
           rdf:resource="http://purl.org/dc/dcmitype/StillImage" />
      </cc:Work>
    </rdf:RDF>
  </metadata>
  <sodipodi:namedview
     pagecolor="#f5f7fa"
     bordercolor="#666666"
     borderopacity="1"
     objecttolerance="10"
     gridtolerance="10"
     guidetolerance="10"
     inkscape:pageopacity="0"
     inkscape:pageshadow="2"
     inkscape:window-width="1183"
     inkscape:window-height="973"
     id="namedview75"
     showgrid="false"
     inkscape:zoom="4.4470387"
     inkscape:cx="19.226278"
     inkscape:cy="8.4325779"
     inkscape:window-x="35"
     inkscape:window-y="32"
     inkscape:window-maximized="0"
     inkscape:current-layer="g877"
     inkscape:document-rotation="0"
     inkscape:pagecheckerboard="0"
     inkscape:showpageshadow="2"
     inkscape:deskcolor="#d1d1d1" />
  <defs
     id="defs29">
    <filter
       style="color-interpolation-filters:sRGB;"
       inkscape:label="Blur"
       id="filter6"
       x="-0.044145008"
       y="-0.044145008"
       width="1.08829"
       height="1.08829">
      <feGaussianBlur
         stdDeviation="1 1"
         result="blur"
         id="feGaussianBlur6" />
    </filter>
    <filter
       style="color-interpolation-filters:sRGB;"
       inkscape:label="Blur"
       id="filter7"
       x="-0.098100013"
       y="-0.098100021"
       width="1.1962"
       height="1.1962">
      <feGaussianBlur
         stdDeviation="2 2"
         result="blur"
         id="feGaussianBlur7" />
    </filter>
    <clipPath
       id="clip0_515_3621">
      <rect
         width="16"
         height="16"
         fill="#ffffff"
         transform="translate(0.00292969)"
         id="rect7969"
         x="0"
         y="0" />
    </clipPath>
    <filter
       style="color-interpolation-filters:sRGB;"
       inkscape:label="Blur"
       id="filter7349"
       x="-0.10485812"
       y="-0.10485813"
       width="1.2097162"
       height="1.2097163">
      <feGaussianBlur
         stdDeviation="2 2"
         result="blur"
         id="feGaussianBlur7347" />
    </filter>
    <filter
       style="color-interpolation-filters:sRGB"
       inkscape:label="Blur"
       id="filter1283"
       x="-0.082344266"
       y="-0.082344266"
       width="1.1646885"
       height="1.1646885">
      <feGaussianBlur
         stdDeviation="0.5 0.5"
         result="blur"
         id="feGaussianBlur1281" />
    </filter>
    <linearGradient
       inkscape:collect="always"
       xlink:href="#linearGradient883"
       id="linearGradient885"
       x1="2.1085808"
       y1="2.0236168"
       x2="14.846128"
       y2="15.071845"
       gradientUnits="userSpaceOnUse"
       gradientTransform="matrix(2.4606127,0,0,3.1451148,11.16612,5.3876879)" />
    <linearGradient
       inkscape:collect="always"
       id="linearGradient883">
      <stop
         style="stop-color:#808080;stop-opacity:1;"
         offset="0"
         id="stop879" />
      <stop
         style="stop-color:#3e3e3e;stop-opacity:1;"
         offset="0.5"
         id="stop1216" />
      <stop
         style="stop-color:#242424;stop-opacity:1;"
         offset="1"
         id="stop881" />
    </linearGradient>
    <linearGradient
       inkscape:collect="always"
       xlink:href="#linearGradient1134"
       id="linearGradient1136"
       x1="14.971222"
       y1="14.703373"
       x2="2.0756054"
       y2="2.0069976"
       gradientUnits="userSpaceOnUse"
       gradientTransform="matrix(2.4106819,0,0,3.1438568,11.58952,5.3983817)" />
    <linearGradient
       inkscape:collect="always"
       id="linearGradient1134">
      <stop
         style="stop-color:#161616;stop-opacity:1;"
         offset="0"
         id="stop1130" />
      <stop
         style="stop-color:#404040;stop-opacity:1;"
         offset="1"
         id="stop1132" />
    </linearGradient>
    <filter
       style="color-interpolation-filters:sRGB"
       inkscape:label="Blur"
       id="filter1694"
       x="-0.94955398"
       y="-0.2118907"
       width="2.899108"
       height="1.4237814">
      <feGaussianBlur
         stdDeviation="0.2 0.2"
         result="blur"
         id="feGaussianBlur1692" />
    </filter>
  </defs>
  <g
     id="g877"
     transform="matrix(1.1,0,0,1.1,-3.1845928,-3.2065454)">
    <path
       style="fill:#f5f7fa;stroke-width:0.204426;fill-opacity:1"
       d=""
       id="path3" />
    <rect
       style="fill:#000000;stroke:none;stroke-width:0.539739;stroke-dasharray:none;filter:url(#filter1283)"
       id="rect246-1"
       width="14.572964"
       height="14.572964"
       x="1.1932471"
       y="1.2138842"
       rx="2.1589575"
       ry="2.1589575"
       transform="matrix(2.4606127,0,0,3.1451146,11.16612,5.3876877)" />
    <rect
       style="fill:#000000;stroke:url(#linearGradient885);stroke-width:1.63561;stroke-dasharray:none"
       id="rect246"
       width="35.155312"
       height="44.93494"
       x="14.453793"
       y="9.6548424"
       rx="5.2081943"
       ry="5.181818" />
    <rect
       style="fill:url(#linearGradient1136);fill-opacity:1;stroke:none;stroke-width:1.31679;stroke-dasharray:none"
       id="rect246-5"
       width="31.13278"
       height="40.601383"
       x="16.465055"
       y="11.821622"
       rx="3.1818182"
       ry="3.1725934" />
    <path
       d="m 40.167812,16.00595 c -10.431819,0 -9.409091,13.909091 -16.363637,13.909091 v 4.090909 c 5.162728,0 7.658182,-3.801272 9.355091,-7.363636 h 4.554 v -3.272728 h -2.851363 c 1.115181,-1.998 3.056727,-3.272727 5.305909,-3.272727 z"
       fill="#4c0101"
       id="path5"
       style="fill:#999999;fill-opacity:1;stroke-width:0.818182" />
    <path
       d="M 25.603075,48.937271 H 25.05762 v -4.327275 h 2.418183 v 0.478788 h -1.872728 v 1.533334 h 1.757577 v 0.478788 h -1.757577 z m 3.060602,0 h -0.533333 v -4.606063 h 0.533333 z m 2.260605,-3.303032 q 0.593939,0 0.878788,0.260606 0.284849,0.260606 0.284849,0.830304 v 2.212122 H 31.70004 l -0.103031,-0.460606 h -0.02424 q -0.212122,0.266667 -0.448485,0.393939 -0.230304,0.127273 -0.642425,0.127273 -0.442425,0 -0.733334,-0.230303 -0.290909,-0.236364 -0.290909,-0.733334 0,-0.484849 0.381818,-0.745455 0.381819,-0.266667 1.175759,-0.290909 l 0.551515,-0.01818 v -0.193939 q 0,-0.406061 -0.175758,-0.563637 -0.175757,-0.157576 -0.49697,-0.157576 -0.254545,0 -0.484848,0.07879 -0.230304,0.07273 -0.430304,0.169697 l -0.163636,-0.4 q 0.212121,-0.115152 0.503031,-0.19394 0.290909,-0.08485 0.606061,-0.08485 z m 0.157575,1.733334 q -0.606061,0.02424 -0.842424,0.19394 -0.230304,0.169697 -0.230304,0.478788 0,0.272727 0.163637,0.4 0.169697,0.127273 0.430303,0.127273 0.412122,0 0.684849,-0.224243 0.272728,-0.230303 0.272728,-0.70303 v -0.29091 z m 4.12728,0.672728 q 0,0.472727 -0.351515,0.715152 -0.351515,0.242424 -0.945455,0.242424 -0.339394,0 -0.587879,-0.05455 -0.242425,-0.05455 -0.430304,-0.151516 v -0.484848 q 0.19394,0.09697 0.466667,0.181818 0.278788,0.07879 0.563637,0.07879 0.406061,0 0.587879,-0.127273 0.181818,-0.133333 0.181818,-0.351515 0,-0.121212 -0.06667,-0.218182 -0.06667,-0.09697 -0.242425,-0.19394 -0.169697,-0.09697 -0.490909,-0.218182 -0.315152,-0.121212 -0.539394,-0.242424 -0.224243,-0.121212 -0.345455,-0.290909 -0.121212,-0.169697 -0.121212,-0.436364 0,-0.412122 0.333333,-0.636364 0.339394,-0.224243 0.884849,-0.224243 0.29697,0 0.551516,0.06061 0.260606,0.05455 0.484849,0.157576 l -0.181819,0.424243 q -0.20606,-0.08485 -0.430303,-0.145455 -0.224243,-0.06061 -0.460606,-0.06061 -0.327273,0 -0.503031,0.109091 -0.169697,0.10303 -0.169697,0.284849 0,0.133333 0.07879,0.230303 0.07879,0.09091 0.260606,0.181818 0.187879,0.08485 0.49697,0.206061 0.309091,0.115151 0.527273,0.236364 0.218182,0.121212 0.333334,0.29697 0.115151,0.169697 0.115151,0.430303 z m 1.321213,-2.357577 q 0,0.242424 -0.0303,0.454545 h 0.03636 q 0.157576,-0.248485 0.424243,-0.375757 0.272727,-0.127273 0.587879,-0.127273 0.59394,0 0.89091,0.284848 0.296969,0.278788 0.296969,0.903031 v 2.115153 h -0.527273 v -2.078789 q 0,-0.781819 -0.727273,-0.781819 -0.545455,0 -0.751515,0.309091 -0.200001,0.303031 -0.200001,0.872728 v 1.678789 h -0.533333 v -4.606063 h 0.533333 z"
       id="text5786"
       style="font-size:6.06061px;text-align:center;text-anchor:middle;fill:#999999;stroke-width:1.81818"
       aria-label="Flash" />
  </g>
</svg>
