<?xml version="1.0" encoding="UTF-8" standalone="no"?>
<svg
   width="64"
   height="64"
   version="1.1"
   viewBox="0 0 16.933 16.933"
   id="svg7"
   sodipodi:docname="text-x-subviewer.svg"
   inkscape:version="1.3.2 (091e20ef0f, 2023-11-25)"
   xmlns:inkscape="http://www.inkscape.org/namespaces/inkscape"
   xmlns:sodipodi="http://sodipodi.sourceforge.net/DTD/sodipodi-0.dtd"
   xmlns:xlink="http://www.w3.org/1999/xlink"
   xmlns="http://www.w3.org/2000/svg"
   xmlns:svg="http://www.w3.org/2000/svg"
   xmlns:rdf="http://www.w3.org/1999/02/22-rdf-syntax-ns#"
   xmlns:cc="http://creativecommons.org/ns#"
   xmlns:dc="http://purl.org/dc/elements/1.1/">
  <sodipodi:namedview
     id="namedview7"
     pagecolor="#9c4444"
     bordercolor="#000000"
     borderopacity="0.25"
     inkscape:showpageshadow="2"
     inkscape:pageopacity="0.0"
     inkscape:pagecheckerboard="0"
     inkscape:deskcolor="#d1d1d1"
     inkscape:zoom="6.15625"
     inkscape:cx="33.218274"
     inkscape:cy="36.71066"
     inkscape:window-width="1463"
     inkscape:window-height="664"
     inkscape:window-x="167"
     inkscape:window-y="273"
     inkscape:window-maximized="0"
     inkscape:current-layer="svg7"
     showgrid="false" />
  <defs
     id="defs2">
    <linearGradient
       id="linearGradient5"
       inkscape:collect="always">
      <stop
         style="stop-color:#392713;stop-opacity:1;"
         offset="0"
         id="stop2" />
      <stop
         style="stop-color:#eed59e;stop-opacity:1;"
         offset="0.5"
         id="stop3" />
      <stop
         style="stop-color:#beaa8a;stop-opacity:1;"
         offset="1"
         id="stop4" />
    </linearGradient>
    <linearGradient
       id="linearGradient8"
       inkscape:collect="always">
      <stop
         style="stop-color:#1a1a1a;stop-opacity:1;"
         offset="0"
         id="stop8" />
      <stop
         style="stop-color:#ffffff;stop-opacity:0;"
         offset="1"
         id="stop9" />
    </linearGradient>
    <linearGradient
       inkscape:collect="always"
       xlink:href="#linearGradient5"
       id="linearGradient41"
       x1="13.675659"
       y1="16.110115"
       x2="13.728528"
       y2="10.548769"
       gradientUnits="userSpaceOnUse"
       gradientTransform="matrix(1.6061171,0,0,2.1084059,-12.924569,-19.742698)" />
    <linearGradient
       inkscape:collect="always"
       xlink:href="#linearGradient42"
       id="linearGradient4"
       x1="11.885941"
       y1="16.50819"
       x2="12.026573"
       y2="10.244942"
       gradientUnits="userSpaceOnUse"
       gradientTransform="matrix(1.6061171,0,0,2.1084059,-12.924569,-19.742698)" />
    <linearGradient
       id="linearGradient42"
       inkscape:collect="always">
      <stop
         style="stop-color:#010101;stop-opacity:1;"
         offset="0"
         id="stop42" />
      <stop
         style="stop-color:#6e6c6d;stop-opacity:1;"
         offset="1"
         id="stop43" />
    </linearGradient>
    <linearGradient
       inkscape:collect="always"
       xlink:href="#linearGradient8"
       id="linearGradient9"
       x1="9.3404646"
       y1="4.1692023"
       x2="9.4279938"
       y2="16.46883"
       gradientUnits="userSpaceOnUse"
       gradientTransform="matrix(0.80952478,0,0,1.0980733,1.5663172,-0.59391329)" />
    <filter
       style="color-interpolation-filters:sRGB;"
       inkscape:label="Blur"
       id="filter2"
       x="-0.14510849"
       y="-0.14612901"
       width="1.290217"
       height="1.292258">
      <feGaussianBlur
         stdDeviation="0.6 0.6"
         result="blur"
         id="feGaussianBlur2" />
    </filter>
    <linearGradient
       inkscape:collect="always"
       xlink:href="#linearGradient5"
       id="linearGradient16"
       x1="8.7509556"
       y1="11.327399"
       x2="8.8834391"
       y2="5.795465"
       gradientUnits="userSpaceOnUse" />
  </defs>
  <metadata
     id="metadata2">
    <rdf:RDF>
      <cc:Work
         rdf:about="">
        <dc:format>image/svg+xml</dc:format>
        <dc:type
           rdf:resource="http://purl.org/dc/dcmitype/StillImage" />
      </cc:Work>
    </rdf:RDF>
  </metadata>
  <rect
     style="fill:#000000;fill-opacity:0.996424;stroke:#000000;stroke-width:0.911802;stroke-dasharray:none;stroke-opacity:1;filter:url(#filter2)"
     id="rect1-2-3"
     width="13.065404"
     height="12.974159"
     x="1.9816793"
     y="1.9267306"
     rx="2.7149384"
     ry="2.8310909"
     transform="matrix(0.78494475,0,0,1.0304244,1.8310625,-0.25598506)" />
  <rect
     style="fill:url(#linearGradient4);fill-opacity:0.996424;stroke:url(#linearGradient41);stroke-width:0.820027;stroke-dasharray:none;stroke-opacity:1"
     id="rect1-2"
     width="10.25562"
     height="13.36889"
     x="3.3865712"
     y="1.7293652"
     rx="2.1310766"
     ry="2.9172251" />
  <path
     opacity="0.75"
     fill="#ffffff"
     d="m 5.8207186,6.1911281 c -0.1465762,0 -0.2645781,0.1180018 -0.2645781,0.2645781 v 5.2915628 c 0,0.146576 0.1180019,0.264578 0.2645781,0.264578 h 5.2915624 c 0.146576,0 0.264578,-0.118002 0.264578,-0.264578 V 6.4557062 c 0,-0.1465763 -0.118002,-0.2645781 -0.264578,-0.2645781 z m 0,0.2645781 H 11.112281 V 11.747269 H 5.8207186 Z M 9.9216795,6.8525734 9.2602342,7.5140187 H 7.6595366 A 0.6614453,0.6614453 0 0 0 7.0115268,6.9848625 0.6614453,0.6614453 0 0 0 6.3500815,7.6463078 0.6614453,0.6614453 0 0 0 6.8792378,8.2932835 v 2.3944325 h 1.0583124 v 0.529157 H 9.2604408 V 10.687716 H 10.054175 V 8.3065125 L 10.71562,7.6450674 Z m 0,0.3172292 L 10.398185,7.6463078 9.9216795,8.122813 9.5248123,7.7259458 V 7.5666697 Z m -2.9103593,0.07958 A 0.39686718,0.39686718 0 0 1 7.4081874,7.6462498 0.39686718,0.39686718 0 0 1 7.0113202,8.043117 0.39686718,0.39686718 0 0 1 6.614453,7.6462498 0.39686718,0.39686718 0 0 1 7.0113202,7.2493826 M 7.6582137,7.7785389 H 9.2589113 L 9.7880675,8.3076956 V 10.424322 H 9.2589113 V 9.8951644 H 7.9360207 V 10.424322 H 7.1422863 V 8.2944665 a 0.6614453,0.6614453 0 0 0 0.514687,-0.5157209 m 0.5437081,2.3812034 h 0.7937343 v 0.793734 H 8.2006814 Z"
     id="path9-7"
     style="fill:#000000;fill-opacity:1;stroke-width:0.264578;opacity:0.3" />
  <path
     opacity="0.75"
     fill="#ffffff"
     d="m 5.8207186,5.6619719 c -0.1465762,0 -0.2645781,0.1180018 -0.2645781,0.2645781 v 5.291563 c 0,0.146576 0.1180019,0.264578 0.2645781,0.264578 h 5.2915624 c 0.146576,0 0.264578,-0.118002 0.264578,-0.264578 V 5.92655 c 0,-0.1465763 -0.118002,-0.2645781 -0.264578,-0.2645781 z m 0,0.2645781 h 5.2915624 v 5.291563 H 5.8207186 Z M 9.9216795,6.3234172 9.2602342,6.9848625 H 7.6595366 A 0.6614453,0.6614453 0 0 0 7.0115268,6.4557063 0.6614453,0.6614453 0 0 0 6.3500815,7.1171516 0.6614453,0.6614453 0 0 0 6.8792378,7.7641273 V 10.15856 h 1.0583124 v 0.529157 H 9.2604408 V 10.15856 H 10.054175 V 7.7773563 L 10.71562,7.1159112 Z m 0,0.3172292 L 10.398185,7.1171516 9.9216795,7.5936568 9.5248123,7.1967896 V 7.0375135 Z m -2.9103593,0.07958 A 0.39686718,0.39686718 0 0 1 7.4081874,7.1170936 0.39686718,0.39686718 0 0 1 7.0113202,7.5139608 0.39686718,0.39686718 0 0 1 6.614453,7.1170936 0.39686718,0.39686718 0 0 1 7.0113202,6.7202264 M 7.6582137,7.2493827 H 9.2589113 L 9.7880675,7.7785394 V 9.8951658 H 9.2589113 V 9.3660082 H 7.9360207 V 9.8951658 H 7.1422863 V 7.7653103 A 0.6614453,0.6614453 0 0 0 7.6569733,7.2495894 M 8.2006814,9.6307932 H 8.9944157 V 10.424527 H 8.2006814 Z"
     id="path9"
     style="fill:url(#linearGradient16);stroke-width:0.264578;fill-opacity:1;opacity:1" />
  <rect
     style="opacity:0.5;fill:none;fill-opacity:0.996424;stroke:url(#linearGradient9);stroke-width:0.50832;stroke-dasharray:none;stroke-opacity:1"
     id="rect1-2-6"
     width="8.9234324"
     height="12.035513"
     x="4.0584631"
     y="2.3962882"
     rx="1.5176033"
     ry="2.2109985" />
</svg>
