<?xml version="1.0" encoding="UTF-8" standalone="no"?>
<svg
   width="64"
   height="64"
   version="1.1"
   id="svg73"
   sodipodi:docname="application-vnd.ms-access.svg"
   inkscape:version="1.4 (e7c3feb100, 2024-10-09)"
   xmlns:inkscape="http://www.inkscape.org/namespaces/inkscape"
   xmlns:sodipodi="http://sodipodi.sourceforge.net/DTD/sodipodi-0.dtd"
   xmlns:xlink="http://www.w3.org/1999/xlink"
   xmlns="http://www.w3.org/2000/svg"
   xmlns:svg="http://www.w3.org/2000/svg"
   xmlns:rdf="http://www.w3.org/1999/02/22-rdf-syntax-ns#"
   xmlns:cc="http://creativecommons.org/ns#"
   xmlns:dc="http://purl.org/dc/elements/1.1/">
  <metadata
     id="metadata77">
    <rdf:RDF>
      <cc:Work
         rdf:about="">
        <dc:format>image/svg+xml</dc:format>
        <dc:type
           rdf:resource="http://purl.org/dc/dcmitype/StillImage" />
      </cc:Work>
    </rdf:RDF>
  </metadata>
  <sodipodi:namedview
     pagecolor="#f5f7fa"
     bordercolor="#666666"
     borderopacity="1"
     objecttolerance="10"
     gridtolerance="10"
     guidetolerance="10"
     inkscape:pageopacity="0"
     inkscape:pageshadow="2"
     inkscape:window-width="1226"
     inkscape:window-height="669"
     id="namedview75"
     showgrid="false"
     inkscape:zoom="6.2890624"
     inkscape:cx="19.080746"
     inkscape:cy="26.87205"
     inkscape:window-x="35"
     inkscape:window-y="32"
     inkscape:window-maximized="0"
     inkscape:current-layer="g877"
     inkscape:document-rotation="0"
     inkscape:pagecheckerboard="0"
     inkscape:showpageshadow="2"
     inkscape:deskcolor="#d1d1d1" />
  <defs
     id="defs29">
    <filter
       style="color-interpolation-filters:sRGB;"
       inkscape:label="Blur"
       id="filter6"
       x="-0.044145008"
       y="-0.044145008"
       width="1.08829"
       height="1.08829">
      <feGaussianBlur
         stdDeviation="1 1"
         result="blur"
         id="feGaussianBlur6" />
    </filter>
    <filter
       style="color-interpolation-filters:sRGB;"
       inkscape:label="Blur"
       id="filter7"
       x="-0.098100013"
       y="-0.098100021"
       width="1.1962"
       height="1.1962">
      <feGaussianBlur
         stdDeviation="2 2"
         result="blur"
         id="feGaussianBlur7" />
    </filter>
    <clipPath
       id="clip0_515_3621">
      <rect
         width="16"
         height="16"
         fill="#ffffff"
         transform="translate(0.00292969)"
         id="rect7969"
         x="0"
         y="0" />
    </clipPath>
    <filter
       style="color-interpolation-filters:sRGB;"
       inkscape:label="Blur"
       id="filter7349"
       x="-0.10485812"
       y="-0.10485813"
       width="1.2097162"
       height="1.2097163">
      <feGaussianBlur
         stdDeviation="2 2"
         result="blur"
         id="feGaussianBlur7347" />
    </filter>
    <filter
       style="color-interpolation-filters:sRGB"
       inkscape:label="Blur"
       id="filter1283"
       x="-0.082344266"
       y="-0.082344266"
       width="1.1646885"
       height="1.1646885">
      <feGaussianBlur
         stdDeviation="0.5 0.5"
         result="blur"
         id="feGaussianBlur1281" />
    </filter>
    <linearGradient
       inkscape:collect="always"
       xlink:href="#linearGradient883"
       id="linearGradient885"
       x1="2.1085808"
       y1="2.0236168"
       x2="14.846128"
       y2="15.071845"
       gradientUnits="userSpaceOnUse"
       gradientTransform="matrix(2.4606127,0,0,3.1451148,11.16612,5.3876879)" />
    <linearGradient
       inkscape:collect="always"
       id="linearGradient883">
      <stop
         style="stop-color:#808080;stop-opacity:1;"
         offset="0"
         id="stop879" />
      <stop
         style="stop-color:#3e3e3e;stop-opacity:1;"
         offset="0.5"
         id="stop1216" />
      <stop
         style="stop-color:#242424;stop-opacity:1;"
         offset="1"
         id="stop881" />
    </linearGradient>
    <linearGradient
       inkscape:collect="always"
       xlink:href="#linearGradient1134"
       id="linearGradient1136"
       x1="14.971222"
       y1="14.703373"
       x2="2.0756054"
       y2="2.0069976"
       gradientUnits="userSpaceOnUse"
       gradientTransform="matrix(2.4106819,0,0,3.1438568,11.58952,5.3983817)" />
    <linearGradient
       inkscape:collect="always"
       id="linearGradient1134">
      <stop
         style="stop-color:#161616;stop-opacity:1;"
         offset="0"
         id="stop1130" />
      <stop
         style="stop-color:#404040;stop-opacity:1;"
         offset="1"
         id="stop1132" />
    </linearGradient>
    <filter
       style="color-interpolation-filters:sRGB"
       inkscape:label="Blur"
       id="filter1694"
       x="-0.94955398"
       y="-0.2118907"
       width="2.899108"
       height="1.4237814">
      <feGaussianBlur
         stdDeviation="0.2 0.2"
         result="blur"
         id="feGaussianBlur1692" />
    </filter>
  </defs>
  <g
     id="g877"
     transform="matrix(1.1,0,0,1.1,-3.1845928,-3.2065454)">
    <path
       style="fill:#f5f7fa;stroke-width:0.204426;fill-opacity:1"
       d=""
       id="path3" />
    <rect
       style="fill:#000000;stroke:none;stroke-width:0.539739;stroke-dasharray:none;filter:url(#filter1283)"
       id="rect246-1"
       width="14.572964"
       height="14.572964"
       x="1.1932471"
       y="1.2138842"
       rx="2.1589575"
       ry="2.1589575"
       transform="matrix(2.4606127,0,0,3.1451146,11.16612,5.3876877)" />
    <rect
       style="fill:#000000;stroke:url(#linearGradient885);stroke-width:1.63561;stroke-dasharray:none"
       id="rect246"
       width="35.155312"
       height="44.93494"
       x="14.453793"
       y="9.6548424"
       rx="5.2081943"
       ry="5.181818" />
    <rect
       style="fill:url(#linearGradient1136);fill-opacity:1;stroke:none;stroke-width:1.31679;stroke-dasharray:none"
       id="rect246-5"
       width="31.13278"
       height="40.601383"
       x="16.465055"
       y="11.821622"
       rx="3.1818182"
       ry="3.1725934" />
    <path
       style="fill:#999999;fill-opacity:1;stroke:none;stroke-width:0.818181;stroke-dasharray:none;stroke-opacity:0.3"
       d="m 31.404743,16.865381 c -0.338814,0 -0.677521,0.131218 -0.937138,0.390907 -0.519234,0.519219 -0.519234,1.35496 0,1.874275 l 3.681244,3.681243 h -9.599192 c -0.734301,0 -1.325454,0.591154 -1.325454,1.325451 0,0.734306 0.591153,1.325456 1.325454,1.325456 1.691016,-0.0041 3.012608,-0.0012 5.208624,0 l -6.790367,6.787788 c -0.519235,0.519232 -0.519235,1.354963 0,1.874274 0.519233,0.519231 1.357683,0.519231 1.876863,0 1.215548,-1.222121 2.181474,-2.183064 3.75373,-3.753726 a 6.627273,6.6272727 0 0 0 6.554788,5.695311 6.627273,6.6272727 0 0 0 6.627279,-6.627277 6.627273,6.6272727 0 0 0 -1.944172,-4.683104 l 0.0028,-0.0026 c 0,0 -5.069403,-5.056279 -7.497112,-7.497105 -0.259258,-0.259683 -0.598348,-0.390904 -0.937135,-0.390904 z m 3.748552,8.597332 a 3.9763636,3.9763636 0 0 1 3.976369,3.97637 3.9763636,3.9763636 0 0 1 -3.976369,3.976367 3.9763636,3.9763636 0 0 1 -3.976365,-3.976367 3.9763636,3.9763636 0 0 1 3.976365,-3.97637 z m 0,1.325456 a 2.6509091,2.6509089 0 0 0 -2.650909,2.650914 2.6509091,2.6509089 0 0 0 2.650909,2.650912 2.6509091,2.6509089 0 0 0 2.650915,-2.650912 2.6509091,2.6509089 0 0 0 -2.650915,-2.650914 z"
       id="path14" />
    <path
       d="m 22.53054,44.555018 q 0.812121,0 1.224243,0.242425 0.418182,0.236363 0.418182,0.830303 0,0.381819 -0.212121,0.636364 -0.212122,0.248485 -0.612122,0.321213 v 0.0303 q 0.272727,0.04242 0.490909,0.157575 0.224243,0.115152 0.351516,0.327273 0.127273,0.212122 0.127273,0.551516 0,0.587879 -0.406061,0.909091 -0.400001,0.321213 -1.096971,0.321213 h -1.521213 v -4.327276 z m 0.109091,1.842426 q 0.557576,0 0.763636,-0.175758 0.206061,-0.181818 0.206061,-0.533334 0,-0.357576 -0.254545,-0.509091 -0.248485,-0.157576 -0.800001,-0.157576 H 21.83963 v 1.375759 z m -0.800001,0.454545 v 1.569698 h 0.872728 q 0.575758,0 0.8,-0.224242 0.224243,-0.224243 0.224243,-0.587879 0,-0.339395 -0.236364,-0.545455 -0.230303,-0.212122 -0.830303,-0.212122 z m 3.854546,2.030305 H 25.160842 V 44.27623 h 0.533334 z m 2.284846,-3.309093 q 0.418182,0 0.715152,0.181818 0.303031,0.181818 0.460606,0.515152 0.163637,0.327273 0.163637,0.769697 v 0.321213 h -2.224244 q 0.01212,0.551515 0.278788,0.842424 0.272728,0.284849 0.757576,0.284849 0.309091,0 0.545455,-0.05455 0.242425,-0.06061 0.49697,-0.169698 v 0.466667 q -0.248485,0.109091 -0.490909,0.157576 -0.242425,0.05455 -0.575758,0.05455 -0.460606,0 -0.818182,-0.187879 -0.351516,-0.187879 -0.551516,-0.557576 -0.193939,-0.375758 -0.193939,-0.915152 0,-0.533334 0.175757,-0.915152 0.181819,-0.381819 0.503031,-0.58788 0.327273,-0.20606 0.757576,-0.20606 z m -0.0061,0.436364 q -0.381819,0 -0.606061,0.248485 -0.218182,0.242424 -0.260607,0.678788 h 1.654547 q -0.0061,-0.412122 -0.19394,-0.666667 -0.187879,-0.260606 -0.593939,-0.260606 z m 3.73333,-0.436364 q 0.581818,0 0.878788,0.284848 0.29697,0.278788 0.29697,0.909092 v 2.115153 h -0.527273 v -2.078789 q 0,-0.781819 -0.727273,-0.781819 -0.539394,0 -0.745455,0.30303 -0.206061,0.303031 -0.206061,0.872728 v 1.68485 h -0.533334 v -3.248487 h 0.430304 l 0.07879,0.442424 h 0.0303 q 0.157576,-0.254545 0.436364,-0.375757 0.278788,-0.127273 0.587879,-0.127273 z m 3.333336,3.369699 q -0.606061,0 -0.969698,-0.418182 -0.363636,-0.424243 -0.363636,-1.260607 0,-0.836364 0.363636,-1.260607 0.369698,-0.430303 0.975759,-0.430303 0.375757,0 0.612121,0.139394 0.242425,0.139394 0.39394,0.339394 h 0.03636 q -0.0061,-0.07879 -0.02424,-0.230303 -0.01212,-0.157576 -0.01212,-0.248485 V 44.27623 h 0.533333 v 4.606064 H 36.15478 l -0.07879,-0.436364 h -0.02424 q -0.145455,0.206061 -0.387879,0.351515 -0.242425,0.145455 -0.624243,0.145455 z m 0.08485,-0.442425 q 0.515152,0 0.721213,-0.278788 0.212121,-0.284848 0.212121,-0.854546 v -0.09697 q 0,-0.60606 -0.2,-0.927273 -0.2,-0.327273 -0.739394,-0.327273 -0.430303,0 -0.648485,0.345455 -0.212122,0.339394 -0.212122,0.915152 0,0.581819 0.212122,0.903031 0.218182,0.321212 0.654545,0.321212 z m 3.745456,-2.927274 q 0.418182,0 0.715152,0.181818 0.303031,0.181818 0.460607,0.515152 0.163636,0.327273 0.163636,0.769697 v 0.321213 h -2.224244 q 0.01212,0.551515 0.278788,0.842424 0.272728,0.284849 0.757577,0.284849 0.309091,0 0.545454,-0.05455 0.242425,-0.06061 0.49697,-0.169698 v 0.466667 q -0.248485,0.109091 -0.490909,0.157576 -0.242424,0.05455 -0.575758,0.05455 -0.460606,0 -0.818182,-0.187879 -0.351516,-0.187879 -0.551516,-0.557576 -0.193939,-0.375758 -0.193939,-0.915152 0,-0.533334 0.175757,-0.915152 0.181819,-0.381819 0.503031,-0.58788 0.327273,-0.20606 0.757576,-0.20606 z m -0.0061,0.436364 q -0.381819,0 -0.606061,0.248485 -0.218182,0.242424 -0.260607,0.678788 h 1.654547 q -0.0061,-0.412122 -0.19394,-0.666667 -0.187878,-0.260606 -0.593939,-0.260606 z m 3.684845,-0.436364 q 0.09091,0 0.19394,0.01212 0.109091,0.0061 0.187878,0.02424 l -0.06667,0.49091 q -0.07879,-0.01818 -0.175758,-0.0303 -0.09091,-0.01212 -0.175758,-0.01212 -0.248485,0 -0.466667,0.139394 -0.218182,0.133333 -0.351515,0.381818 -0.127273,0.242424 -0.127273,0.569697 v 1.733335 h -0.533333 v -3.248487 h 0.436363 l 0.06061,0.59394 h 0.02424 q 0.157576,-0.266667 0.406061,-0.460607 0.248485,-0.193939 0.587879,-0.193939 z"
       id="text1"
       style="font-size:6.06061px;-inkscape-font-specification:sans-serif;text-align:center;text-anchor:middle;fill:#999999;stroke-width:0.454545;stroke-opacity:0.6"
       aria-label="Blender" />
  </g>
</svg>
