<?xml version="1.0" encoding="UTF-8" standalone="no"?>
<svg
   width="64"
   height="64"
   version="1.1"
   viewBox="0 0 16.933 16.933"
   id="svg7"
   sodipodi:docname="application-java.svg"
   inkscape:version="1.3.2 (091e20ef0f, 2023-11-25)"
   xmlns:inkscape="http://www.inkscape.org/namespaces/inkscape"
   xmlns:sodipodi="http://sodipodi.sourceforge.net/DTD/sodipodi-0.dtd"
   xmlns:xlink="http://www.w3.org/1999/xlink"
   xmlns="http://www.w3.org/2000/svg"
   xmlns:svg="http://www.w3.org/2000/svg"
   xmlns:rdf="http://www.w3.org/1999/02/22-rdf-syntax-ns#"
   xmlns:cc="http://creativecommons.org/ns#"
   xmlns:dc="http://purl.org/dc/elements/1.1/">
  <sodipodi:namedview
     id="namedview7"
     pagecolor="#9c4444"
     bordercolor="#000000"
     borderopacity="0.25"
     inkscape:showpageshadow="2"
     inkscape:pageopacity="0.0"
     inkscape:pagecheckerboard="0"
     inkscape:deskcolor="#d1d1d1"
     inkscape:zoom="4.3531261"
     inkscape:cx="47.666894"
     inkscape:cy="16.999278"
     inkscape:window-width="1463"
     inkscape:window-height="604"
     inkscape:window-x="199"
     inkscape:window-y="276"
     inkscape:window-maximized="0"
     inkscape:current-layer="svg7"
     showgrid="false" />
  <defs
     id="defs2">
    <linearGradient
       id="linearGradient5"
       inkscape:collect="always">
      <stop
         style="stop-color:#392713;stop-opacity:1;"
         offset="0"
         id="stop2" />
      <stop
         style="stop-color:#eed59e;stop-opacity:1;"
         offset="0.5"
         id="stop3" />
      <stop
         style="stop-color:#beaa8a;stop-opacity:1;"
         offset="1"
         id="stop4" />
    </linearGradient>
    <linearGradient
       id="linearGradient8"
       inkscape:collect="always">
      <stop
         style="stop-color:#1a1a1a;stop-opacity:1;"
         offset="0"
         id="stop8" />
      <stop
         style="stop-color:#ffffff;stop-opacity:0;"
         offset="1"
         id="stop9" />
    </linearGradient>
    <linearGradient
       inkscape:collect="always"
       xlink:href="#linearGradient5"
       id="linearGradient41"
       x1="13.675659"
       y1="16.110115"
       x2="13.728528"
       y2="10.548769"
       gradientUnits="userSpaceOnUse"
       gradientTransform="matrix(1.6061171,0,0,2.1084059,-12.924569,-19.742698)" />
    <linearGradient
       inkscape:collect="always"
       xlink:href="#linearGradient42"
       id="linearGradient4"
       x1="11.885941"
       y1="16.50819"
       x2="12.026573"
       y2="10.244942"
       gradientUnits="userSpaceOnUse"
       gradientTransform="matrix(1.6061171,0,0,2.1084059,-12.924569,-19.742698)" />
    <linearGradient
       id="linearGradient42"
       inkscape:collect="always">
      <stop
         style="stop-color:#010101;stop-opacity:1;"
         offset="0"
         id="stop42" />
      <stop
         style="stop-color:#6e6c6d;stop-opacity:1;"
         offset="1"
         id="stop43" />
    </linearGradient>
    <linearGradient
       inkscape:collect="always"
       xlink:href="#linearGradient8"
       id="linearGradient9"
       x1="9.3404646"
       y1="4.1692023"
       x2="9.4279938"
       y2="16.46883"
       gradientUnits="userSpaceOnUse"
       gradientTransform="matrix(0.80952478,0,0,1.0980733,1.5663172,-0.59391329)" />
    <filter
       style="color-interpolation-filters:sRGB;"
       inkscape:label="Blur"
       id="filter2"
       x="-0.14510849"
       y="-0.14612901"
       width="1.290217"
       height="1.292258">
      <feGaussianBlur
         stdDeviation="0.6 0.6"
         result="blur"
         id="feGaussianBlur2" />
    </filter>
    <linearGradient
       inkscape:collect="always"
       xlink:href="#linearGradient5"
       id="linearGradient34"
       x1="24.039497"
       y1="49.567043"
       x2="24.661381"
       y2="32.449821"
       gradientUnits="userSpaceOnUse"
       gradientTransform="matrix(0.26457812,0,0,0.26457812,0.05296418,-2.2754643)" />
  </defs>
  <metadata
     id="metadata2">
    <rdf:RDF>
      <cc:Work
         rdf:about="">
        <dc:format>image/svg+xml</dc:format>
        <dc:type
           rdf:resource="http://purl.org/dc/dcmitype/StillImage" />
      </cc:Work>
    </rdf:RDF>
  </metadata>
  <rect
     style="fill:#000000;fill-opacity:0.996424;stroke:#000000;stroke-width:0.911802;stroke-dasharray:none;stroke-opacity:1;filter:url(#filter2)"
     id="rect1-2-3"
     width="13.065404"
     height="12.974159"
     x="1.9816793"
     y="1.9267306"
     rx="2.7149384"
     ry="2.8310909"
     transform="matrix(0.78494475,0,0,1.0304244,1.8310625,-0.25598506)" />
  <rect
     style="fill:url(#linearGradient4);fill-opacity:0.996424;stroke:url(#linearGradient41);stroke-width:0.820027;stroke-dasharray:none;stroke-opacity:1"
     id="rect1-2"
     width="10.25562"
     height="13.36889"
     x="3.3865712"
     y="1.7293652"
     rx="2.1310766"
     ry="2.9172251" />
  <path
     style="fill:#000000;fill-opacity:1;stroke:none;stroke-width:0.212164;stroke-dasharray:none;stroke-opacity:0.3;opacity:0.3"
     d="M 5.2113953,9.0763459 V 6.7345715 H 8.5090419 11.806689 V 9.0763459 11.418121 H 8.5090419 5.2113953 Z M 8.2405041,10.485557 V 10.008913 H 6.9998582 5.7592125 v 0.476644 0.476643 h 1.2406457 1.2406459 z m 3.0291089,-4.2e-5 v -0.476688 l -1.243331,0.0026 -1.2433311,0.0026 -0.00279,0.474053 -0.00279,0.474053 H 10.02349 11.269614 V 10.485509 Z M 8.2405041,9.0763459 V 8.5997016 H 6.9998582 5.7592125 V 9.0763459 9.5529912 H 6.9998582 8.2405041 Z M 11.269613,9.076305 V 8.5996167 l -1.243331,0.0026 -1.2433311,0.0026 -0.00279,0.4740543 -0.00279,0.4740542 H 10.02349 11.269614 V 9.0762859 Z M 8.2405041,7.6671364 V 7.190492 H 6.9998582 5.7592125 v 0.4766444 0.4766443 h 1.2406457 1.2406459 z m 3.0291089,-4.29e-5 V 7.1904058 l -1.243331,0.00262 -1.2433311,0.00262 -0.00279,0.4740532 -0.00279,0.474054 H 10.02349 11.269614 V 7.6670626 Z"
     id="path2224-2" />
  <path
     style="fill:url(#linearGradient34);fill-opacity:1;stroke:none;stroke-width:0.212164;stroke-dasharray:none;stroke-opacity:0.3"
     d="M 5.2113953,8.5471897 V 6.2054153 H 8.5090419 11.806689 V 8.5471897 10.888965 H 8.5090419 5.2113953 Z M 8.2405041,9.9564003 V 9.4797563 H 6.9998582 5.7592125 v 0.476644 0.4766437 h 1.2406457 1.2406459 z m 3.0291089,-4.2e-5 v -0.476688 l -1.243331,0.0026 -1.2433311,0.0026 -0.00279,0.474053 -0.00279,0.4740537 H 10.02349 11.269614 V 9.9563523 Z M 8.2405041,8.5471897 V 8.0705454 H 6.9998582 5.7592125 V 8.5471897 9.023835 h 1.2406457 1.2406459 z m 3.0291089,-4.09e-5 V 8.0704605 l -1.243331,0.0026 -1.2433311,0.0026 -0.00279,0.4740543 -0.00279,0.4740542 H 10.02349 11.269614 V 8.5471297 Z M 8.2405041,7.1379802 V 6.6613358 H 6.9998582 5.7592125 v 0.4766444 0.4766443 h 1.2406457 1.2406459 z m 3.0291089,-4.29e-5 V 6.6612496 l -1.243331,0.00262 -1.2433311,0.00262 -0.00279,0.4740532 -0.00279,0.4740539 H 10.02349 11.269614 V 7.1379064 Z"
     id="path2224" />
  <rect
     style="opacity:0.5;fill:none;fill-opacity:0.996424;stroke:url(#linearGradient9);stroke-width:0.50832;stroke-dasharray:none;stroke-opacity:1"
     id="rect1-2-6"
     width="8.9234324"
     height="12.035513"
     x="4.0584631"
     y="2.3962882"
     rx="1.5176033"
     ry="2.2109985" />
</svg>
