<?xml version="1.0" encoding="UTF-8" standalone="no"?>
<svg
   width="64"
   height="64"
   version="1.1"
   viewBox="0 0 16.933 16.933"
   id="svg7"
   sodipodi:docname="text-x-subviewer.svg"
   inkscape:version="1.3.2 (091e20ef0f, 2023-11-25)"
   xmlns:inkscape="http://www.inkscape.org/namespaces/inkscape"
   xmlns:sodipodi="http://sodipodi.sourceforge.net/DTD/sodipodi-0.dtd"
   xmlns:xlink="http://www.w3.org/1999/xlink"
   xmlns="http://www.w3.org/2000/svg"
   xmlns:svg="http://www.w3.org/2000/svg"
   xmlns:rdf="http://www.w3.org/1999/02/22-rdf-syntax-ns#"
   xmlns:cc="http://creativecommons.org/ns#"
   xmlns:dc="http://purl.org/dc/elements/1.1/">
  <sodipodi:namedview
     id="namedview7"
     pagecolor="#9c4444"
     bordercolor="#000000"
     borderopacity="0.25"
     inkscape:showpageshadow="2"
     inkscape:pageopacity="0.0"
     inkscape:pagecheckerboard="0"
     inkscape:deskcolor="#d1d1d1"
     inkscape:zoom="6.15625"
     inkscape:cx="33.218274"
     inkscape:cy="36.71066"
     inkscape:window-width="1463"
     inkscape:window-height="664"
     inkscape:window-x="167"
     inkscape:window-y="273"
     inkscape:window-maximized="0"
     inkscape:current-layer="svg7"
     showgrid="false" />
  <defs
     id="defs2">
    <linearGradient
       id="linearGradient5"
       inkscape:collect="always">
      <stop
         style="stop-color:#392713;stop-opacity:1;"
         offset="0"
         id="stop2" />
      <stop
         style="stop-color:#eed59e;stop-opacity:1;"
         offset="0.5"
         id="stop3" />
      <stop
         style="stop-color:#beaa8a;stop-opacity:1;"
         offset="1"
         id="stop4" />
    </linearGradient>
    <linearGradient
       id="linearGradient8"
       inkscape:collect="always">
      <stop
         style="stop-color:#1a1a1a;stop-opacity:1;"
         offset="0"
         id="stop8" />
      <stop
         style="stop-color:#ffffff;stop-opacity:0;"
         offset="1"
         id="stop9" />
    </linearGradient>
    <linearGradient
       inkscape:collect="always"
       xlink:href="#linearGradient5"
       id="linearGradient41"
       x1="13.675659"
       y1="16.110115"
       x2="13.728528"
       y2="10.548769"
       gradientUnits="userSpaceOnUse"
       gradientTransform="matrix(1.6061171,0,0,2.1084059,-12.924569,-19.742698)" />
    <linearGradient
       inkscape:collect="always"
       xlink:href="#linearGradient42"
       id="linearGradient4"
       x1="11.885941"
       y1="16.50819"
       x2="12.026573"
       y2="10.244942"
       gradientUnits="userSpaceOnUse"
       gradientTransform="matrix(1.6061171,0,0,2.1084059,-12.924569,-19.742698)" />
    <linearGradient
       id="linearGradient42"
       inkscape:collect="always">
      <stop
         style="stop-color:#010101;stop-opacity:1;"
         offset="0"
         id="stop42" />
      <stop
         style="stop-color:#6e6c6d;stop-opacity:1;"
         offset="1"
         id="stop43" />
    </linearGradient>
    <linearGradient
       inkscape:collect="always"
       xlink:href="#linearGradient8"
       id="linearGradient9"
       x1="9.3404646"
       y1="4.1692023"
       x2="9.4279938"
       y2="16.46883"
       gradientUnits="userSpaceOnUse"
       gradientTransform="matrix(0.80952478,0,0,1.0980733,1.5663172,-0.59391329)" />
    <filter
       style="color-interpolation-filters:sRGB;"
       inkscape:label="Blur"
       id="filter2"
       x="-0.14510849"
       y="-0.14612901"
       width="1.290217"
       height="1.292258">
      <feGaussianBlur
         stdDeviation="0.6 0.6"
         result="blur"
         id="feGaussianBlur2" />
    </filter>
    <clipPath
       clipPathUnits="userSpaceOnUse"
       id="clipPath354">
      <rect
         style="display:block;opacity:0.2"
         width="36"
         height="36"
         x="15.620633"
         y="15.638589"
         rx="2.7690001"
         ry="2.7690001"
         id="rect356" />
    </clipPath>
    <inkscape:path-effect
       effect="powerclip"
       id="path-effect358"
       is_visible="true"
       lpeversion="1"
       inverse="true"
       flatten="false"
       hide_clip="false"
       message="Use fill-rule evenodd on &lt;b&gt;fill and stroke&lt;/b&gt; dialog if no flatten result after convert clip to paths." />
    <clipPath
       clipPathUnits="userSpaceOnUse"
       id="clipPath186">
      <rect
         style="display:block;opacity:0.2"
         width="36"
         height="36"
         x="5.391973"
         y="5.6022935"
         rx="2.7690001"
         ry="2.7690001"
         id="rect188" />
    </clipPath>
    <inkscape:path-effect
       effect="powerclip"
       id="path-effect190"
       is_visible="true"
       lpeversion="1"
       inverse="true"
       flatten="false"
       hide_clip="false"
       message="Use fill-rule evenodd on &lt;b&gt;fill and stroke&lt;/b&gt; dialog if no flatten result after convert clip to paths." />
    <clipPath
       clipPathUnits="userSpaceOnUse"
       id="clipPath354-9">
      <rect
         style="display:none;opacity:0.2"
         width="36"
         height="36"
         x="15.620633"
         y="15.638589"
         rx="2.7690001"
         ry="2.7690001"
         id="rect356-7"
         d="m 18.389633,15.638589 h 30.462 c 1.534026,0 2.769,1.234974 2.769,2.769 v 30.462 c 0,1.534026 -1.234974,2.769 -2.769,2.769 h -30.462 c -1.534026,0 -2.769,-1.234974 -2.769,-2.769 v -30.462 c 0,-1.534026 1.234974,-2.769 2.769,-2.769 z" />
      <path
         id="lpe_path-effect358-3"
         style="opacity:0.2"
         class="powerclip"
         d="M 19,19 H 65 V 65 H 19 Z m -0.610367,-3.361411 c -1.534026,0 -2.769,1.234974 -2.769,2.769 v 30.462 c 0,1.534026 1.234974,2.769 2.769,2.769 h 30.462 c 1.534026,0 2.769,-1.234974 2.769,-2.769 v -30.462 c 0,-1.534026 -1.234974,-2.769 -2.769,-2.769 z" />
    </clipPath>
    <inkscape:path-effect
       effect="powerclip"
       id="path-effect358-6"
       is_visible="true"
       lpeversion="1"
       inverse="true"
       flatten="false"
       hide_clip="false"
       message="Use fill-rule evenodd on &lt;b&gt;fill and stroke&lt;/b&gt; dialog if no flatten result after convert clip to paths." />
    <clipPath
       clipPathUnits="userSpaceOnUse"
       id="clipPath186-3">
      <rect
         style="display:none;opacity:0.2"
         width="36"
         height="36"
         x="5.391973"
         y="5.6022935"
         rx="2.7690001"
         ry="2.7690001"
         id="rect188-1"
         d="M 8.1609731,5.6022935 H 38.622973 c 1.534026,0 2.769,1.234974 2.769,2.769 V 38.833293 c 0,1.534026 -1.234974,2.769 -2.769,2.769 H 8.1609731 c -1.5340261,0 -2.7690001,-1.234974 -2.7690001,-2.769 V 8.3712935 c 0,-1.534026 1.234974,-2.769 2.7690001,-2.769 z" />
      <path
         id="lpe_path-effect190-9"
         style="opacity:0.2"
         class="powerclip"
         d="M 9,9 H 55 V 55 H 9 Z M 8.1609731,5.6022935 c -1.5340261,0 -2.7690001,1.234974 -2.7690001,2.769 V 38.833293 c 0,1.534026 1.234974,2.769 2.7690001,2.769 H 38.622973 c 1.534026,0 2.769,-1.234974 2.769,-2.769 V 8.3712935 c 0,-1.534026 -1.234974,-2.769 -2.769,-2.769 z" />
    </clipPath>
    <inkscape:path-effect
       effect="powerclip"
       id="path-effect190-4"
       is_visible="true"
       lpeversion="1"
       inverse="true"
       flatten="false"
       hide_clip="false"
       message="Use fill-rule evenodd on &lt;b&gt;fill and stroke&lt;/b&gt; dialog if no flatten result after convert clip to paths." />
    <clipPath
       clipPathUnits="userSpaceOnUse"
       id="clipath_lpe_path-effect358-6">
      <rect
         style="display:block;opacity:0.2"
         width="36"
         height="36"
         x="15.620633"
         y="15.638589"
         rx="2.7690001"
         ry="2.7690001"
         id="rect22" />
    </clipPath>
    <clipPath
       clipPathUnits="userSpaceOnUse"
       id="clipath_lpe_path-effect190-4">
      <rect
         style="display:block;opacity:0.2"
         width="36"
         height="36"
         x="5.391973"
         y="5.6022935"
         rx="2.7690001"
         ry="2.7690001"
         id="rect23" />
    </clipPath>
    <linearGradient
       inkscape:collect="always"
       xlink:href="#linearGradient5"
       id="linearGradient27"
       x1="8.7290306"
       y1="11.277229"
       x2="8.7856674"
       y2="5.7829943"
       gradientUnits="userSpaceOnUse" />
  </defs>
  <metadata
     id="metadata2">
    <rdf:RDF>
      <cc:Work
         rdf:about="">
        <dc:format>image/svg+xml</dc:format>
        <dc:type
           rdf:resource="http://purl.org/dc/dcmitype/StillImage" />
      </cc:Work>
    </rdf:RDF>
  </metadata>
  <rect
     style="fill:#000000;fill-opacity:0.996424;stroke:#000000;stroke-width:0.911802;stroke-dasharray:none;stroke-opacity:1;filter:url(#filter2)"
     id="rect1-2-3"
     width="13.065404"
     height="12.974159"
     x="1.9816793"
     y="1.9267306"
     rx="2.7149384"
     ry="2.8310909"
     transform="matrix(0.78494475,0,0,1.0304244,1.8310625,-0.25598506)" />
  <rect
     style="fill:url(#linearGradient4);fill-opacity:0.996424;stroke:url(#linearGradient41);stroke-width:0.820027;stroke-dasharray:none;stroke-opacity:1"
     id="rect1-2"
     width="10.25562"
     height="13.36889"
     x="3.3865712"
     y="1.7293652"
     rx="2.1310766"
     ry="2.9172251" />
  <path
     id="path7-1"
     style="fill:#000000;stroke:none;stroke-width:0.0175829;stroke-opacity:1;opacity:0.3"
     d="m 11.159101,6.1937739 c -0.101976,0 -0.197597,0.048389 -0.253875,0.1284638 -0.0143,0.020341 -0.103878,0.2424067 -0.206884,0.5126317 L 10.516785,7.311495 10.197916,7.4515537 c -0.175254,0.077027 -0.3216265,0.140065 -0.3252774,0.1400584 -0.00365,-7.2e-6 -0.013816,-0.024712 -0.022582,-0.054925 C 9.8269089,7.4568683 9.7461449,7.2976597 9.6926062,7.2266668 9.6282629,7.141348 9.5451393,7.0548476 9.4674139,6.9923204 9.4088469,6.9452062 9.3981977,6.9319971 9.3728209,6.8736222 9.3104694,6.7301915 9.2084499,6.6110803 9.0682931,6.5187462 8.6732576,6.2584998 8.1041445,6.3090278 7.7803051,6.6328677 7.7086007,6.7045724 7.65635,6.7815538 7.6155304,6.8754528 7.5888963,6.9367198 7.5800383,6.9475969 7.5157503,6.9990338 7.340962,7.1388811 7.1806623,7.3718725 7.135243,7.5522489 7.1275094,7.5829598 7.1215379,7.5919965 7.110833,7.588866 7.07732,7.5790634 6.4890895,7.3165156 6.4798079,7.3072234 6.4741724,7.3015799 6.3901312,7.0876299 6.2927578,6.831513 6.1953843,6.5753958 6.1077563,6.3528457 6.0980796,6.337189 6.0691514,6.290382 5.9960472,6.2310754 5.9424592,6.2108619 c -0.067054,-0.025294 -0.1700933,-0.020949 -0.2346511,0.00977 -0.058939,0.028043 -0.1233858,0.094007 -0.1519589,0.1556204 -0.019306,0.041629 -0.023444,0.062772 -0.02319,0.1208349 2.911e-4,0.070132 8.202e-4,0.071829 0.1916268,0.5715239 0.1052513,0.2756104 0.2015334,0.5266685 0.2139022,0.5580974 0.027723,0.070448 0.070394,0.1305984 0.1144266,0.1611128 0.024201,0.016772 0.5195113,0.2413479 0.6850351,0.3106311 0.00551,0.0023 0.039798,-0.040496 0.076284,-0.095204 0.1433706,-0.2149655 0.2979001,-0.3835996 0.3979003,-0.4336009 0.041864,-0.020931 0.06613,-0.02652 0.1251068,-0.029294 0.116774,-0.00549 0.1131313,-0.00798 0.6697785,0.4677768 0.4769902,0.4076749 0.4884244,0.4165031 0.5056135,0.401257 0.082721,-0.073374 0.9391645,-0.800503 0.9743058,-0.8272297 0.081036,-0.06163 0.1721192,-0.083825 0.2441109,-0.059502 0.053163,0.017965 0.106757,0.06474 0.2160375,0.1888807 0.1218858,0.1384593 0.1745078,0.2063675 0.2447208,0.3152078 0.03812,0.059091 0.05258,0.074864 0.06408,0.070487 0.08829,-0.033611 0.648106,-0.2859116 0.675576,-0.3045281 0.04233,-0.028687 0.07636,-0.067509 0.09917,-0.1122909 0.0089,-0.017486 0.10871,-0.2729105 0.221531,-0.5678619 l 0.205053,-0.5364337 v -0.079031 c 1.44e-4,-0.068926 -0.0028,-0.085495 -0.02411,-0.1290736 -0.05095,-0.1040827 -0.161161,-0.174238 -0.273706,-0.1742377 z M 8.8955863,6.8281563 c 0.081309,0.00398 0.1739119,0.050903 0.2520442,0.1345658 0.1947819,0.2085709 0.2276468,0.5355301 0.063163,0.6279743 -0.038629,0.021711 -0.1106862,0.030626 -0.1553153,0.019224 C 8.994148,7.5942523 8.9243771,7.5514422 8.8678185,7.4948836 8.6756147,7.3026798 8.6253086,6.9894788 8.767123,6.8687402 8.802289,6.8388002 8.846801,6.8257662 8.8955863,6.8281563 Z m -0.7878668,0.00396 c 0.09148,1.891e-4 0.1413146,0.033512 0.181862,0.1220552 0.016928,0.036967 0.020121,0.057885 0.019531,0.1318199 -0.00127,0.1530667 -0.059113,0.2871305 -0.1748438,0.404918 -0.042248,0.042999 -0.080115,0.071815 -0.1205296,0.091542 -0.06308,0.030788 -0.1467168,0.042477 -0.1943731,0.027157 C 7.7419116,7.5847121 7.6896908,7.5001524 7.6832748,7.3893019 7.6711465,7.1797843 7.8115737,6.9409475 7.9978719,6.8543948 c 0.03748,-0.017415 0.062148,-0.02237 0.1098497,-0.022275 z m 1.5516276,0.844012 c -0.00832,9.523e-4 -0.017817,0.00575 -0.034481,0.014647 C 9.6047341,7.7015192 9.34473,7.9178221 9.0472394,8.1716732 8.7497491,8.4255229 8.501278,8.6333474 8.4949395,8.6333474 c -0.00634,0 -0.2539691,-0.2068686 -0.550164,-0.4595387 C 7.5623507,7.8475856 7.3965674,7.7118001 7.3732522,7.704815 7.324908,7.6903293 7.2591251,7.7229386 7.1849816,7.7981875 7.1153602,7.8688436 6.9715581,8.0587919 6.9054752,8.1674044 6.7083766,8.4913547 6.5902206,8.8604554 6.5551767,9.2619347 c -0.012467,0.1428391 -0.00559,0.4184243 0.014036,0.5614554 0.081213,0.5918489 0.3414532,1.1362559 0.7292802,1.5256919 0.3029528,0.30421 0.6746608,0.493083 1.046624,0.531855 0.2032597,0.02119 0.4174262,-0.0031 0.6243123,-0.07079 0.1042173,-0.03412 0.3053168,-0.133496 0.4043084,-0.19956 0.6460354,-0.431141 1.0679834,-1.275932 1.0679834,-2.1377992 0,-0.5466243 -0.16901,-1.0713842 -0.4763208,-1.4783946 -0.085279,-0.112946 -0.2488458,-0.2947754 -0.2795064,-0.3106305 -0.011157,-0.00577 -0.018227,-0.00856 -0.026547,-0.00763 z m 0.8028189,0.9038192 c -9.53e-4,6.62e-4 0.01154,0.04315 0.02777,0.09429 0.03566,0.1123611 0.07873,0.3139171 0.09276,0.4339075 0.01477,0.126264 0.01243,0.12273 0.09337,0.1357859 0.03776,0.0061 0.07653,0.01423 0.08635,0.018 0.0098,0.0038 0.162522,0.1400349 0.339009,0.3030019 0.176487,0.1629673 0.335823,0.3066842 0.354266,0.3191752 0.01844,0.01249 0.05396,0.0301 0.07903,0.03906 0.13805,0.04933 0.30647,-0.03004 0.373184,-0.175759 0.04306,-0.09406 0.02585,-0.2213533 -0.0415,-0.3069691 -0.0098,-0.01245 -0.186894,-0.1784851 -0.393628,-0.3692174 -0.242827,-0.224033 -0.391473,-0.3548898 -0.41987,-0.3695228 -0.03333,-0.01718 -0.109774,-0.03489 -0.316429,-0.07293 -0.149892,-0.02759 -0.27335,-0.04949 -0.274318,-0.04882 z m -3.9503193,0.0079 c -0.026606,0.0018 -0.1327177,0.01851 -0.2566209,0.04058 -0.2061281,0.03672 -0.2677891,0.05112 -0.3100205,0.07171 -0.041896,0.02042 -0.1323065,0.0994 -0.4393989,0.383864 -0.4512846,0.4180343 -0.4397767,0.4036633 -0.4397042,0.5471135 3.78e-5,0.07402 0.00273,0.08876 0.024106,0.129378 0.046176,0.08775 0.1120917,0.142799 0.1992551,0.1663 0.0221,0.006 0.056776,0.01096 0.076895,0.01129 0.050011,8.199e-4 0.1374134,-0.02763 0.17698,-0.05767 0.027577,-0.02094 0.5284713,-0.4791034 0.6395698,-0.5849502 0.032319,-0.03079 0.043314,-0.03501 0.118699,-0.04821 0.045688,-0.008 0.084243,-0.01569 0.085743,-0.01678 0.00148,-0.0011 0.00846,-0.04669 0.015563,-0.101611 0.021997,-0.1701233 0.050182,-0.3029893 0.097339,-0.4583183 0.012853,-0.04234 0.021021,-0.07937 0.018002,-0.08239 -3.705e-4,-3.701e-4 -0.00259,-5.82e-4 -0.00641,-3.172e-4 z M 6.410236,9.885639 6.2524797,10.018374 c -0.2002899,0.168381 -0.2342456,0.201863 -0.2615035,0.257537 -0.079833,0.163054 -0.4473291,0.980021 -0.4555715,1.012754 -0.013213,0.05248 -0.00559,0.13871 0.017087,0.190712 0.032821,0.07529 0.1097081,0.144711 0.1888805,0.170572 0.022301,0.0073 0.064376,0.01075 0.1071036,0.0092 0.06012,-0.0022 0.078215,-0.0067 0.1257169,-0.03204 0.096117,-0.05123 0.1016964,-0.06091 0.3313801,-0.56481 0.1799915,-0.394882 0.2145149,-0.463928 0.2435003,-0.490358 l 0.033565,-0.03082 -0.043024,-0.127548 C 6.4902401,10.267617 6.4563121,10.137562 6.4291541,9.98908 Z m 4.168798,0.0018 c -0.0012,0.0016 -0.0094,0.04455 -0.01801,0.0952 -0.022,0.128913 -0.06641,0.300354 -0.113816,0.439704 l -0.04028,0.118394 0.03509,0.03082 c 0.03094,0.02729 0.05805,0.08147 0.232514,0.463811 0.108653,0.238112 0.204306,0.445934 0.212377,0.461674 0.03308,0.06451 0.08803,0.11415 0.159892,0.14433 0.06931,0.02911 0.168694,0.02606 0.240449,-0.0073 0.134223,-0.06244 0.210696,-0.229797 0.165995,-0.363419 -0.019,-0.05679 -0.45423,-1.00495 -0.476626,-1.038385 -0.01853,-0.02766 -0.392369,-0.3518749 -0.397595,-0.3448069 z" />
  <path
     id="path7"
     style="fill:url(#linearGradient27);stroke:none;stroke-width:0.0175829;stroke-opacity:1"
     d="m 11.159101,5.6646177 c -0.101976,0 -0.197597,0.048389 -0.253875,0.1284638 -0.0143,0.020341 -0.103878,0.2424067 -0.206884,0.5126317 l -0.181557,0.4766256 -0.318869,0.1400587 c -0.175254,0.077027 -0.3216265,0.140065 -0.3252774,0.1400584 -0.00365,-7.2e-6 -0.013816,-0.024712 -0.022582,-0.054925 C 9.8269089,6.9277121 9.7461449,6.7685035 9.6926062,6.6975106 9.6282629,6.6121918 9.5451393,6.5256914 9.4674139,6.4631642 9.4088469,6.41605 9.3981977,6.4028409 9.3728209,6.344466 9.3104694,6.2010353 9.2084499,6.0819241 9.0682931,5.98959 8.6732576,5.7293436 8.1041445,5.7798716 7.7803051,6.1037115 7.7086007,6.1754162 7.65635,6.2523976 7.6155304,6.3462966 7.5888963,6.4075636 7.5800383,6.4184407 7.5157503,6.4698776 7.340962,6.6097249 7.1806623,6.8427163 7.135243,7.0230927 7.1275094,7.0538036 7.1215379,7.0628403 7.110833,7.0597098 7.07732,7.0499072 6.4890895,6.7873594 6.4798079,6.7780672 6.4741724,6.7724237 6.3901312,6.5584737 6.2927578,6.3023568 6.1953843,6.0462396 6.1077563,5.8236895 6.0980796,5.8080328 6.0691514,5.7612258 5.9960472,5.7019192 5.9424592,5.6817057 c -0.067054,-0.025294 -0.1700933,-0.020949 -0.2346511,0.00977 -0.058939,0.028043 -0.1233858,0.094007 -0.1519589,0.1556204 -0.019306,0.041629 -0.023444,0.062772 -0.02319,0.1208349 2.911e-4,0.070132 8.202e-4,0.071829 0.1916268,0.5715239 0.1052513,0.2756104 0.2015334,0.5266685 0.2139022,0.5580974 0.027723,0.070448 0.070394,0.1305984 0.1144266,0.1611128 0.024201,0.016772 0.5195113,0.2413479 0.6850351,0.3106311 0.00551,0.0023 0.039798,-0.040496 0.076284,-0.095204 0.1433706,-0.2149655 0.2979001,-0.3835996 0.3979003,-0.4336009 0.041864,-0.020931 0.06613,-0.02652 0.1251068,-0.029294 0.116774,-0.00549 0.1131313,-0.00798 0.6697785,0.4677768 0.4769902,0.4076749 0.4884244,0.4165031 0.5056135,0.401257 0.082721,-0.073374 0.9391645,-0.800503 0.9743058,-0.8272297 0.081036,-0.06163 0.1721192,-0.083825 0.2441109,-0.059502 0.053163,0.017965 0.106757,0.06474 0.2160375,0.1888807 0.1218858,0.1384593 0.1745078,0.2063675 0.2447208,0.3152078 0.03812,0.059091 0.05258,0.074864 0.06408,0.070487 0.08829,-0.033611 0.648106,-0.2859116 0.675576,-0.3045281 0.04233,-0.028687 0.07636,-0.067509 0.09917,-0.1122909 0.0089,-0.017486 0.10871,-0.2729105 0.221531,-0.5678619 l 0.205053,-0.5364337 v -0.079031 c 1.44e-4,-0.068926 -0.0028,-0.085495 -0.02411,-0.1290736 C 11.381858,5.734773 11.271647,5.6646177 11.159102,5.664618 Z M 8.8955863,6.2990001 c 0.081309,0.00398 0.1739119,0.050903 0.2520442,0.1345658 0.1947819,0.2085709 0.2276468,0.5355301 0.063163,0.6279743 -0.038629,0.021711 -0.1106862,0.030626 -0.1553153,0.019224 C 8.994148,7.0650961 8.9243771,7.022286 8.8678185,6.9657274 8.6756147,6.7735236 8.6253086,6.4603226 8.767123,6.339584 8.802289,6.309644 8.846801,6.29661 8.8955863,6.2990001 Z m -0.7878668,0.00396 c 0.09148,1.891e-4 0.1413146,0.033512 0.181862,0.1220552 0.016928,0.036967 0.020121,0.057885 0.019531,0.1318199 -0.00127,0.1530667 -0.059113,0.2871305 -0.1748438,0.404918 -0.042248,0.042999 -0.080115,0.071815 -0.1205296,0.091542 -0.06308,0.030788 -0.1467168,0.042477 -0.1943731,0.027157 C 7.7419116,7.0555559 7.6896908,6.9709962 7.6832748,6.8601457 7.6711465,6.6506281 7.8115737,6.4117913 7.9978719,6.3252386 c 0.03748,-0.017415 0.062148,-0.02237 0.1098497,-0.022275 z m 1.5516276,0.844012 c -0.00832,9.523e-4 -0.017817,0.00575 -0.034481,0.014647 C 9.6047341,7.172363 9.34473,7.3886659 9.0472394,7.642517 8.7497491,7.8963667 8.501278,8.1041912 8.4949395,8.1041912 c -0.00634,0 -0.2539691,-0.2068686 -0.550164,-0.4595388 C 7.5623507,7.3184294 7.3965674,7.1826439 7.3732522,7.1756588 7.324908,7.1611731 7.2591251,7.1937824 7.1849816,7.2690313 7.1153602,7.3396874 6.9715581,7.5296357 6.9054752,7.6382482 6.7083766,7.9621985 6.5902206,8.3312992 6.5551767,8.7327785 c -0.012467,0.1428391 -0.00559,0.4184243 0.014036,0.5614554 0.081213,0.5918493 0.3414532,1.1362561 0.7292802,1.5256921 0.3029528,0.30421 0.6746608,0.493083 1.046624,0.531855 0.2032597,0.02119 0.4174262,-0.0031 0.6243123,-0.07079 0.1042173,-0.03412 0.3053168,-0.133496 0.4043084,-0.19956 0.6460354,-0.431141 1.0679834,-1.2759318 1.0679834,-2.1377994 0,-0.5466243 -0.16901,-1.0713842 -0.4763208,-1.4783946 C 9.8801212,7.352291 9.7165544,7.1704616 9.6858938,7.1546065 c -0.011157,-0.00577 -0.018227,-0.00856 -0.026547,-0.00763 z m 0.8028189,0.9038192 c -9.53e-4,6.62e-4 0.01154,0.04315 0.02777,0.09429 0.03566,0.1123611 0.07873,0.3139171 0.09276,0.4339074 0.01477,0.126264 0.01243,0.12273 0.09337,0.1357859 0.03776,0.0061 0.07653,0.01423 0.08635,0.018 0.0098,0.0038 0.162522,0.1400349 0.339009,0.3030019 0.176487,0.1629673 0.335823,0.3066842 0.354266,0.3191752 0.01844,0.01249 0.05396,0.0301 0.07903,0.03906 0.13805,0.04933 0.30647,-0.03004 0.373184,-0.175759 0.04306,-0.09406 0.02585,-0.2213533 -0.0415,-0.3069691 -0.0098,-0.01245 -0.186894,-0.1784851 -0.393628,-0.3692174 -0.242827,-0.224033 -0.391473,-0.3548898 -0.41987,-0.3695228 -0.03333,-0.01718 -0.109774,-0.03489 -0.316429,-0.07293 -0.149892,-0.02759 -0.27335,-0.04949 -0.274318,-0.04882 z m -3.9503193,0.0079 c -0.026606,0.0018 -0.1327177,0.01851 -0.2566209,0.04058 -0.2061281,0.03672 -0.2677891,0.05112 -0.3100205,0.07171 -0.041896,0.02042 -0.1323065,0.0994 -0.4393989,0.383864 -0.4512846,0.4180343 -0.4397767,0.4036633 -0.4397042,0.5471135 3.78e-5,0.07402 0.00273,0.08876 0.024106,0.129378 0.046176,0.08775 0.1120917,0.142799 0.1992551,0.1663 0.0221,0.006 0.056776,0.01096 0.076895,0.01129 0.050011,8.2e-4 0.1374134,-0.02763 0.17698,-0.05767 0.027577,-0.02094 0.5284713,-0.4791033 0.6395698,-0.5849501 0.032319,-0.03079 0.043314,-0.03501 0.118699,-0.04821 0.045688,-0.008 0.084243,-0.01569 0.085743,-0.01678 0.00148,-0.0011 0.00846,-0.04669 0.015563,-0.101611 0.021997,-0.1701234 0.050182,-0.3029894 0.097339,-0.4583184 0.012853,-0.04234 0.021021,-0.07937 0.018002,-0.08239 -3.705e-4,-3.7e-4 -0.00259,-5.819e-4 -0.00641,-3.171e-4 z M 6.410236,9.3564828 6.2524797,9.4892178 C 6.0521898,9.6575991 6.0182341,9.6910811 5.9909762,9.7467551 5.9111432,9.9098091 5.5436471,10.726776 5.5354047,10.759509 c -0.013213,0.05248 -0.00559,0.13871 0.017087,0.190712 0.032821,0.07529 0.1097081,0.144711 0.1888805,0.170572 0.022301,0.0073 0.064376,0.01075 0.1071036,0.0092 0.06012,-0.0022 0.078215,-0.0067 0.1257169,-0.03204 0.096117,-0.05123 0.1016964,-0.06091 0.3313801,-0.56481 0.1799915,-0.394882 0.2145149,-0.463928 0.2435003,-0.490358 l 0.033565,-0.03082 -0.043024,-0.1275481 C 6.4902401,9.7384611 6.4563121,9.6084058 6.4291541,9.4599238 Z m 4.168798,0.0018 c -0.0012,0.0016 -0.0094,0.04455 -0.01801,0.0952 -0.022,0.1289131 -0.06641,0.3003543 -0.113816,0.4397044 l -0.04028,0.1183938 0.03509,0.03082 c 0.03094,0.02729 0.05805,0.08147 0.232514,0.463811 0.108653,0.238112 0.204306,0.445934 0.212377,0.461674 0.03308,0.06451 0.08803,0.11415 0.159892,0.14433 0.06931,0.02911 0.168694,0.02606 0.240449,-0.0073 0.134223,-0.06244 0.210696,-0.229797 0.165995,-0.363419 -0.019,-0.05679 -0.45423,-1.0049506 -0.476626,-1.0383855 -0.01853,-0.02766 -0.392369,-0.3518746 -0.397595,-0.3448066 z" />
  <rect
     style="opacity:0.5;fill:none;fill-opacity:0.996424;stroke:url(#linearGradient9);stroke-width:0.50832;stroke-dasharray:none;stroke-opacity:1"
     id="rect1-2-6"
     width="8.9234324"
     height="12.035513"
     x="4.0584631"
     y="2.3962882"
     rx="1.5176033"
     ry="2.2109985" />
</svg>
