<?xml version="1.0" encoding="UTF-8" standalone="no"?>
<svg
   width="64"
   height="64"
   version="1.1"
   id="svg73"
   sodipodi:docname="audio-x-mp2.svg"
   inkscape:version="1.4 (e7c3feb100, 2024-10-09)"
   xmlns:inkscape="http://www.inkscape.org/namespaces/inkscape"
   xmlns:sodipodi="http://sodipodi.sourceforge.net/DTD/sodipodi-0.dtd"
   xmlns:xlink="http://www.w3.org/1999/xlink"
   xmlns="http://www.w3.org/2000/svg"
   xmlns:svg="http://www.w3.org/2000/svg"
   xmlns:rdf="http://www.w3.org/1999/02/22-rdf-syntax-ns#"
   xmlns:cc="http://creativecommons.org/ns#"
   xmlns:dc="http://purl.org/dc/elements/1.1/">
  <metadata
     id="metadata77">
    <rdf:RDF>
      <cc:Work
         rdf:about="">
        <dc:format>image/svg+xml</dc:format>
        <dc:type
           rdf:resource="http://purl.org/dc/dcmitype/StillImage" />
      </cc:Work>
    </rdf:RDF>
  </metadata>
  <sodipodi:namedview
     pagecolor="#f5f7fa"
     bordercolor="#666666"
     borderopacity="1"
     objecttolerance="10"
     gridtolerance="10"
     guidetolerance="10"
     inkscape:pageopacity="0"
     inkscape:pageshadow="2"
     inkscape:window-width="1226"
     inkscape:window-height="669"
     id="namedview75"
     showgrid="false"
     inkscape:zoom="8.8940773"
     inkscape:cx="19.338712"
     inkscape:cy="32.718402"
     inkscape:window-x="35"
     inkscape:window-y="32"
     inkscape:window-maximized="0"
     inkscape:current-layer="g877"
     inkscape:document-rotation="0"
     inkscape:pagecheckerboard="0"
     inkscape:showpageshadow="2"
     inkscape:deskcolor="#d1d1d1" />
  <defs
     id="defs29">
    <filter
       style="color-interpolation-filters:sRGB;"
       inkscape:label="Blur"
       id="filter6"
       x="-0.044145008"
       y="-0.044145008"
       width="1.08829"
       height="1.08829">
      <feGaussianBlur
         stdDeviation="1 1"
         result="blur"
         id="feGaussianBlur6" />
    </filter>
    <filter
       style="color-interpolation-filters:sRGB;"
       inkscape:label="Blur"
       id="filter7"
       x="-0.098100013"
       y="-0.098100021"
       width="1.1962"
       height="1.1962">
      <feGaussianBlur
         stdDeviation="2 2"
         result="blur"
         id="feGaussianBlur7" />
    </filter>
    <clipPath
       id="clip0_515_3621">
      <rect
         width="16"
         height="16"
         fill="#ffffff"
         transform="translate(0.00292969)"
         id="rect7969"
         x="0"
         y="0" />
    </clipPath>
    <filter
       style="color-interpolation-filters:sRGB;"
       inkscape:label="Blur"
       id="filter7349"
       x="-0.10485812"
       y="-0.10485813"
       width="1.2097162"
       height="1.2097163">
      <feGaussianBlur
         stdDeviation="2 2"
         result="blur"
         id="feGaussianBlur7347" />
    </filter>
    <filter
       style="color-interpolation-filters:sRGB"
       inkscape:label="Blur"
       id="filter1283"
       x="-0.082344266"
       y="-0.082344266"
       width="1.1646885"
       height="1.1646885">
      <feGaussianBlur
         stdDeviation="0.5 0.5"
         result="blur"
         id="feGaussianBlur1281" />
    </filter>
    <linearGradient
       inkscape:collect="always"
       xlink:href="#linearGradient883"
       id="linearGradient885"
       x1="2.1085808"
       y1="2.0236168"
       x2="14.846128"
       y2="15.071845"
       gradientUnits="userSpaceOnUse"
       gradientTransform="matrix(2.4606127,0,0,3.1451148,11.16612,5.3876879)" />
    <linearGradient
       inkscape:collect="always"
       id="linearGradient883">
      <stop
         style="stop-color:#808080;stop-opacity:1;"
         offset="0"
         id="stop879" />
      <stop
         style="stop-color:#3e3e3e;stop-opacity:1;"
         offset="0.5"
         id="stop1216" />
      <stop
         style="stop-color:#242424;stop-opacity:1;"
         offset="1"
         id="stop881" />
    </linearGradient>
    <linearGradient
       inkscape:collect="always"
       xlink:href="#linearGradient1134"
       id="linearGradient1136"
       x1="14.971222"
       y1="14.703373"
       x2="2.0756054"
       y2="2.0069976"
       gradientUnits="userSpaceOnUse"
       gradientTransform="matrix(2.4106819,0,0,3.1438568,11.58952,5.3983817)" />
    <linearGradient
       inkscape:collect="always"
       id="linearGradient1134">
      <stop
         style="stop-color:#161616;stop-opacity:1;"
         offset="0"
         id="stop1130" />
      <stop
         style="stop-color:#404040;stop-opacity:1;"
         offset="1"
         id="stop1132" />
    </linearGradient>
    <filter
       style="color-interpolation-filters:sRGB"
       inkscape:label="Blur"
       id="filter1694"
       x="-0.94955398"
       y="-0.2118907"
       width="2.899108"
       height="1.4237814">
      <feGaussianBlur
         stdDeviation="0.2 0.2"
         result="blur"
         id="feGaussianBlur1692" />
    </filter>
  </defs>
  <g
     id="g877"
     transform="matrix(1.1,0,0,1.1,-3.1845928,-3.2065454)">
    <path
       style="fill:#f5f7fa;stroke-width:0.204426;fill-opacity:1"
       d=""
       id="path3" />
    <rect
       style="fill:#000000;stroke:none;stroke-width:0.539739;stroke-dasharray:none;filter:url(#filter1283)"
       id="rect246-1"
       width="14.572964"
       height="14.572964"
       x="1.1932471"
       y="1.2138842"
       rx="2.1589575"
       ry="2.1589575"
       transform="matrix(2.4606127,0,0,3.1451146,11.16612,5.3876877)" />
    <rect
       style="fill:#000000;stroke:url(#linearGradient885);stroke-width:1.63561;stroke-dasharray:none"
       id="rect246"
       width="35.155312"
       height="44.93494"
       x="14.453793"
       y="9.6548424"
       rx="5.2081943"
       ry="5.181818" />
    <rect
       style="fill:url(#linearGradient1136);fill-opacity:1;stroke:none;stroke-width:1.31679;stroke-dasharray:none"
       id="rect246-5"
       width="31.13278"
       height="40.601383"
       x="16.465055"
       y="11.821622"
       rx="3.1818182"
       ry="3.1725934" />
    <path
       d="m 29.91318,44.481429 -1.151516,4.327275 h -0.551516 l -0.842424,-2.836365 q -0.04848,-0.175758 -0.09697,-0.351515 -0.04848,-0.175758 -0.07879,-0.309091 -0.0303,-0.139395 -0.04242,-0.19394 -0.0061,0.07879 -0.06667,0.339394 -0.05455,0.254546 -0.139394,0.533334 l -0.818182,2.818183 h -0.551516 l -1.145455,-4.327275 h 0.569697 l 0.672728,2.642426 q 0.07273,0.278788 0.121212,0.539394 0.05455,0.260606 0.08485,0.49091 0.0303,-0.236364 0.09091,-0.515152 0.06061,-0.278788 0.139394,-0.545455 l 0.763637,-2.612123 h 0.563636 l 0.79394,2.630305 q 0.08485,0.278788 0.145455,0.557576 0.06061,0.272727 0.09091,0.484849 0.0303,-0.224243 0.08485,-0.484849 0.05455,-0.266667 0.127273,-0.551516 l 0.666667,-2.636365 z m 2.57576,4.327275 -1.424243,-3.793941 h -0.02424 q 0.01818,0.187879 0.0303,0.509091 0.01212,0.315152 0.01212,0.660606 v 2.624244 h -0.503031 v -4.327275 h 0.806062 l 1.333334,3.545457 h 0.02424 l 1.357577,-3.545457 h 0.8 v 4.327275 h -0.539394 v -2.660607 q 0,-0.315152 0.01212,-0.624243 0.01818,-0.309091 0.0303,-0.503031 h -0.02424 l -1.442425,3.787881 z m 6.303032,0 -0.521213,-1.339394 h -1.715152 l -0.515152,1.339394 h -0.551516 l 1.690911,-4.345457 h 0.490909 l 1.684849,4.345457 z m -1.169698,-3.133335 q -0.01818,-0.04849 -0.06061,-0.175758 -0.04242,-0.127272 -0.08485,-0.260606 -0.03636,-0.139394 -0.06061,-0.212121 -0.04242,0.187879 -0.09697,0.369697 -0.05455,0.175758 -0.09091,0.278788 l -0.490909,1.309092 h 1.369698 z"
       id="text1"
       style="font-size:6.06061px;text-align:center;text-anchor:middle;fill:#999999;stroke-width:0.909091"
       aria-label="WMA" />
    <g
       fill="#ffffff"
       id="g11"
       transform="matrix(1.1,0,0,1.1,5.4883953,2.5152544)"
       style="fill:#999999;fill-opacity:1">
      <path
         transform="matrix(0.75,0,0,0.75,-0.391143,0.805031)"
         d="m 29.44,17.546 c -0.768,0.215 -1.386,1.072 -1.386,1.903 V 32.64 c -0.778,-0.427 -1.777,-0.6 -2.813,-0.318 -1.87,0.509 -3.042,2.153 -2.641,3.672 0.401,1.518 2.243,2.367 4.112,1.858 1.492,-0.406 2.52,-1.554 2.684,-2.765 l 0.044,-12.465 9.696,-2.719 v 9.836 c -0.778,-0.427 -1.777,-0.6 -2.813,-0.318 -1.87,0.509 -3.042,2.153 -2.641,3.672 0.401,1.519 2.243,2.367 4.112,1.858 1.492,-0.406 2.52,-1.554 2.684,-2.765 l 0.044,-16.227 c 0,-0.624 -0.369,-1.09 -0.866,-1.178 z"
         fill-rule="nonzero"
         id="path11"
         style="fill:#999999;fill-opacity:1" />
    </g>
  </g>
</svg>
