<?xml version="1.0" encoding="UTF-8" standalone="no"?>
<svg
   width="64"
   height="64"
   version="1.1"
   viewBox="0 0 16.933 16.933"
   id="svg7"
   sodipodi:docname="application-atom+xml (Copy).svg"
   inkscape:version="1.3.2 (091e20ef0f, 2023-11-25)"
   xmlns:inkscape="http://www.inkscape.org/namespaces/inkscape"
   xmlns:sodipodi="http://sodipodi.sourceforge.net/DTD/sodipodi-0.dtd"
   xmlns:xlink="http://www.w3.org/1999/xlink"
   xmlns="http://www.w3.org/2000/svg"
   xmlns:svg="http://www.w3.org/2000/svg"
   xmlns:rdf="http://www.w3.org/1999/02/22-rdf-syntax-ns#"
   xmlns:cc="http://creativecommons.org/ns#"
   xmlns:dc="http://purl.org/dc/elements/1.1/">
  <sodipodi:namedview
     id="namedview7"
     pagecolor="#9c4444"
     bordercolor="#000000"
     borderopacity="0.25"
     inkscape:showpageshadow="2"
     inkscape:pageopacity="0.0"
     inkscape:pagecheckerboard="0"
     inkscape:deskcolor="#d1d1d1"
     inkscape:zoom="4.3531261"
     inkscape:cx="47.666894"
     inkscape:cy="39.971275"
     inkscape:window-width="1463"
     inkscape:window-height="604"
     inkscape:window-x="115"
     inkscape:window-y="154"
     inkscape:window-maximized="0"
     inkscape:current-layer="svg7"
     showgrid="false" />
  <defs
     id="defs2">
    <linearGradient
       id="linearGradient5"
       inkscape:collect="always">
      <stop
         style="stop-color:#392713;stop-opacity:1;"
         offset="0"
         id="stop2" />
      <stop
         style="stop-color:#eed59e;stop-opacity:1;"
         offset="0.5"
         id="stop3" />
      <stop
         style="stop-color:#beaa8a;stop-opacity:1;"
         offset="1"
         id="stop4" />
    </linearGradient>
    <linearGradient
       id="linearGradient8"
       inkscape:collect="always">
      <stop
         style="stop-color:#1a1a1a;stop-opacity:1;"
         offset="0"
         id="stop8" />
      <stop
         style="stop-color:#ffffff;stop-opacity:0;"
         offset="1"
         id="stop9" />
    </linearGradient>
    <linearGradient
       inkscape:collect="always"
       xlink:href="#linearGradient5"
       id="linearGradient41"
       x1="13.675659"
       y1="16.110115"
       x2="13.728528"
       y2="10.548769"
       gradientUnits="userSpaceOnUse"
       gradientTransform="matrix(1.6061171,0,0,2.1084059,-12.924569,-19.742698)" />
    <linearGradient
       inkscape:collect="always"
       xlink:href="#linearGradient42"
       id="linearGradient4"
       x1="11.885941"
       y1="16.50819"
       x2="12.026573"
       y2="10.244942"
       gradientUnits="userSpaceOnUse"
       gradientTransform="matrix(1.6061171,0,0,2.1084059,-12.924569,-19.742698)" />
    <linearGradient
       id="linearGradient42"
       inkscape:collect="always">
      <stop
         style="stop-color:#010101;stop-opacity:1;"
         offset="0"
         id="stop42" />
      <stop
         style="stop-color:#6e6c6d;stop-opacity:1;"
         offset="1"
         id="stop43" />
    </linearGradient>
    <linearGradient
       inkscape:collect="always"
       xlink:href="#linearGradient8"
       id="linearGradient9"
       x1="9.3404646"
       y1="4.1692023"
       x2="9.4279938"
       y2="16.46883"
       gradientUnits="userSpaceOnUse"
       gradientTransform="matrix(0.80952478,0,0,1.0980733,1.5663172,-0.59391329)" />
    <filter
       style="color-interpolation-filters:sRGB;"
       inkscape:label="Blur"
       id="filter2"
       x="-0.14510849"
       y="-0.14612901"
       width="1.290217"
       height="1.292258">
      <feGaussianBlur
         stdDeviation="0.6 0.6"
         result="blur"
         id="feGaussianBlur2" />
    </filter>
    <linearGradient
       inkscape:collect="always"
       xlink:href="#linearGradient5"
       id="linearGradient15"
       x1="9.071496"
       y1="11.84525"
       x2="9.2145634"
       y2="4.90376"
       gradientUnits="userSpaceOnUse" />
  </defs>
  <metadata
     id="metadata2">
    <rdf:RDF>
      <cc:Work
         rdf:about="">
        <dc:format>image/svg+xml</dc:format>
        <dc:type
           rdf:resource="http://purl.org/dc/dcmitype/StillImage" />
      </cc:Work>
    </rdf:RDF>
  </metadata>
  <rect
     style="fill:#000000;fill-opacity:0.996424;stroke:#000000;stroke-width:0.911802;stroke-dasharray:none;stroke-opacity:1;filter:url(#filter2)"
     id="rect1-2-3"
     width="13.065404"
     height="12.974159"
     x="1.9816793"
     y="1.9267306"
     rx="2.7149384"
     ry="2.8310909"
     transform="matrix(0.78494475,0,0,1.0304244,1.8310625,-0.25598506)" />
  <rect
     style="fill:url(#linearGradient4);fill-opacity:0.996424;stroke:url(#linearGradient41);stroke-width:0.820027;stroke-dasharray:none;stroke-opacity:1"
     id="rect1-2"
     width="10.25562"
     height="13.36889"
     x="3.3865712"
     y="1.7293652"
     rx="2.1310766"
     ry="2.9172251" />
  <path
     style="fill:#000000;stroke-width:0.0672515;opacity:0.3"
     d="M 7.5821805,12.203826 C 6.9411309,12.006457 6.3313495,11.540301 6.002816,10.996455 5.8425314,10.731126 5.7113895,10.48199 5.7113895,10.442818 c 0,-0.03917 0.4741281,-0.07332 1.0536185,-0.07589 l 1.0536166,-0.0047 -0.4815348,-0.184951 C 6.9374934,10.023838 6.8409681,10.01319 6.7698284,10.11474 6.703311,10.209691 6.6739099,10.211995 6.6386203,10.125021 6.5827533,9.9873284 6.1232051,9.9781849 5.8771531,10.109872 5.7034212,10.202849 5.5350712,10.159368 5.6446274,10.049812 5.8642739,9.8301648 6.8770876,9.8378366 7.6617032,10.065093 7.9837433,10.158366 7.9133129,9.863595 7.572034,9.689798 6.5253557,9.1567654 5.9792982,8.4930775 5.8992808,7.6566958 L 5.845894,7.098663 5.4872159,7.0521259 5.1285372,7.0055887 5.4228289,6.9417108 C 5.5846894,6.9065766 5.8092186,6.7707619 5.9217824,6.6398995 6.0965373,6.4367341 6.193268,6.4034719 6.5837473,6.4122695 7.1192201,6.4243352 7.3913906,6.2121796 7.565143,5.6472841 7.6604119,5.3375509 7.6709889,5.3288184 7.6772304,5.5547479 7.686652,5.8957773 7.4858087,6.3374307 7.2024948,6.598699 6.8452983,6.9281006 6.9317382,7.591852 7.3318331,7.591852 c 0.2063908,0 0.7362899,-0.5411145 1.2286904,-1.2546969 0.1869175,-0.2708777 0.410552,-0.506121 0.4969663,-0.5227628 0.1418375,-0.027316 1.5996272,1.0784134 2.6169302,1.984933 0.302056,0.2691611 0.324615,0.3111731 0.1429,0.2661215 -0.16991,-0.042122 -0.199239,-0.026657 -0.137972,0.072715 0.05063,0.082125 -0.01196,0.067501 -0.179192,-0.041865 -0.236984,-0.1549905 -0.252308,-0.1558553 -0.196763,-0.011101 0.05738,0.1495227 0.04886,0.1495227 -0.179339,0 -0.230889,-0.1512835 -0.237465,-0.1508807 -0.181348,0.011101 0.03203,0.092444 -0.108423,-0.013496 -0.312107,-0.2354324 -0.319664,-0.3483044 -0.351036,-0.3657323 -0.229297,-0.1273805 0.07757,0.1518734 0.321707,0.5150354 0.542526,0.8070267 0.400583,0.5296953 0.475269,0.7376329 0.163647,0.4556188 -0.211979,-0.1918391 -0.291958,-0.189046 -0.229761,0.00802 0.03585,0.1135643 -0.0021,0.098432 -0.13732,-0.054765 L 10.55355,8.7376919 10.55031,8.9493826 10.54707,9.1610732 10.427741,8.9457426 c -0.08772,-0.1583861 -0.132818,-0.1821001 -0.170479,-0.089671 -0.0406,0.099646 -0.08022,0.089626 -0.191337,-0.048394 -0.1387207,-0.1723016 -0.1401571,-0.1723016 -0.1421308,0 C 9.9219042,8.9655162 9.9063882,8.9616878 9.75639,8.7665931 9.6316789,8.6043882 9.578752,8.5823242 9.5412881,8.6769227 9.5047171,8.7692615 9.4897252,8.7617 9.4845157,8.6482839 9.4799887,8.5494064 9.4292328,8.512674 9.342932,8.5457906 9.2399729,8.585301 9.2081061,8.5268096 9.207055,8.2963853 9.2062677,8.1308238 9.1716388,7.9416603 9.1300249,7.8760214 9.0589674,7.7639294 9.0211858,7.8305406 8.7004159,8.6334731 c -0.021986,0.055053 0.1575657,0.242017 0.3990177,0.4154832 0.4390249,0.3154077 1.0947454,0.5139638 2.1489804,0.6507246 0.449893,0.058367 0.470765,0.073015 0.470765,0.3304701 v 0.269414 l -0.56038,-0.06236 C 10.85056,10.202915 10.323354,10.118249 9.9872316,10.049066 9.6511075,9.9798823 9.143105,9.9232792 8.8583353,9.9232792 c -0.4652609,0 -0.5281185,0.022727 -0.6199024,0.2241748 l -0.102141,0.224173 h 1.7130116 1.7130095 l -0.05519,0.275897 c -0.1259,0.629494 -0.767442,1.239323 -1.6101139,1.530516 -0.567074,0.195958 -1.720465,0.208819 -2.3148594,0.02581 z"
     id="path1-7" />
  <path
     style="fill:url(#linearGradient15);stroke-width:0.0672515"
     d="M 7.5821805,11.67467 C 6.9411309,11.477301 6.3313495,11.011145 6.002816,10.467299 5.8425314,10.20197 5.7113895,9.9528337 5.7113895,9.9136621 c 0,-0.039168 0.4741281,-0.073323 1.0536185,-0.075888 L 7.8186246,9.8331058 7.3370898,9.6481552 C 6.9374934,9.4946815 6.8409681,9.4840336 6.7698284,9.5855837 6.703311,9.6805345 6.6739099,9.6828389 6.6386203,9.5958648 6.5827533,9.4581722 6.1232051,9.4490287 5.8771531,9.5807155 5.7034212,9.6736928 5.5350712,9.6302116 5.6446274,9.5206558 5.8642739,9.3010086 6.8770876,9.3086804 7.6617032,9.5359364 7.9837433,9.62921 7.9133129,9.3344388 7.572034,9.1606418 6.5253557,8.6276092 5.9792982,7.9639213 5.8992808,7.1275396 L 5.845894,6.5695068 5.4872159,6.5229697 5.1285372,6.4764325 5.4228289,6.4125546 C 5.5846894,6.3774204 5.8092186,6.2416057 5.9217824,6.1107433 6.0965373,5.9075779 6.193268,5.8743157 6.5837473,5.8831133 7.1192201,5.895179 7.3913906,5.6830234 7.565143,5.1181279 7.6604119,4.8083947 7.6709889,4.7996622 7.6772304,5.0255917 7.686652,5.3666211 7.4858087,5.8082745 7.2024948,6.0695428 c -0.3571965,0.3294016 -0.2707566,0.993153 0.1293383,0.993153 0.2063908,0 0.7362899,-0.5411145 1.2286904,-1.2546969 0.1869175,-0.2708777 0.410552,-0.506121 0.4969663,-0.5227628 0.1418375,-0.027316 1.5996272,1.0784134 2.6169302,1.984933 0.302056,0.2691611 0.324615,0.3111731 0.1429,0.2661214 -0.16991,-0.042122 -0.199239,-0.026657 -0.137972,0.072715 0.05063,0.082125 -0.01196,0.067501 -0.179192,-0.041865 -0.236984,-0.1549905 -0.252308,-0.1558553 -0.196763,-0.011101 0.05738,0.1495226 0.04886,0.1495226 -0.179339,0 -0.230889,-0.1512835 -0.237465,-0.1508807 -0.181348,0.011101 0.03203,0.092444 -0.108423,-0.013496 -0.312107,-0.2354324 -0.319664,-0.3483044 -0.351036,-0.3657323 -0.229297,-0.1273805 0.07757,0.1518734 0.321707,0.5150353 0.542526,0.8070267 0.400583,0.5296952 0.475269,0.7376329 0.163647,0.4556188 -0.211979,-0.1918391 -0.291958,-0.189046 -0.229761,0.00802 0.03585,0.1135643 -0.0021,0.098432 -0.13732,-0.054765 L 10.55355,8.2085357 10.55031,8.4202264 10.54707,8.631917 10.427741,8.4165864 c -0.08772,-0.1583861 -0.132818,-0.1821001 -0.170479,-0.089671 -0.0406,0.099646 -0.08022,0.089626 -0.191337,-0.048394 -0.1387207,-0.1723016 -0.1401571,-0.1723016 -0.1421308,0 C 9.9219042,8.43636 9.9063882,8.4325316 9.75639,8.2374369 9.6316789,8.075232 9.578752,8.053168 9.5412881,8.1477665 9.5047171,8.2401053 9.4897252,8.2325438 9.4845157,8.1191277 9.4799887,8.0202502 9.4292328,7.9835178 9.342932,8.0166344 9.2399729,8.0561448 9.2081061,7.9976534 9.207055,7.7672291 9.2062677,7.6016676 9.1716388,7.4125041 9.1300249,7.3468652 9.0589674,7.2347732 9.0211858,7.3013844 8.7004159,8.1043169 c -0.021986,0.055053 0.1575657,0.242017 0.3990177,0.4154832 0.4390249,0.3154076 1.0947454,0.5139638 2.1489804,0.6507246 0.449893,0.058367 0.470765,0.073015 0.470765,0.3304705 v 0.2694133 l -0.56038,-0.062362 C 10.85056,9.6737584 10.323354,9.5890924 9.9872316,9.5199098 9.6511075,9.4507261 9.143105,9.394123 8.8583353,9.394123 c -0.4652609,0 -0.5281185,0.022727 -0.6199024,0.2241746 l -0.102141,0.2241736 h 1.7130116 1.7130095 l -0.05519,0.2758968 c -0.1259,0.629494 -0.767442,1.239323 -1.6101139,1.530516 -0.567074,0.195958 -1.720465,0.208819 -2.3148594,0.02581 z"
     id="path1" />
  <rect
     style="opacity:0.5;fill:none;fill-opacity:0.996424;stroke:url(#linearGradient9);stroke-width:0.50832;stroke-dasharray:none;stroke-opacity:1"
     id="rect1-2-6"
     width="8.9234324"
     height="12.035513"
     x="4.0584631"
     y="2.3962882"
     rx="1.5176033"
     ry="2.2109985" />
</svg>
