<?xml version="1.0" encoding="UTF-8" standalone="no"?>
<svg
   width="64"
   height="64"
   version="1.1"
   id="svg73"
   sodipodi:docname="apk.svg"
   inkscape:version="1.2.2 (b0a8486541, 2022-12-01)"
   xmlns:inkscape="http://www.inkscape.org/namespaces/inkscape"
   xmlns:sodipodi="http://sodipodi.sourceforge.net/DTD/sodipodi-0.dtd"
   xmlns:xlink="http://www.w3.org/1999/xlink"
   xmlns="http://www.w3.org/2000/svg"
   xmlns:svg="http://www.w3.org/2000/svg"
   xmlns:rdf="http://www.w3.org/1999/02/22-rdf-syntax-ns#"
   xmlns:cc="http://creativecommons.org/ns#"
   xmlns:dc="http://purl.org/dc/elements/1.1/">
  <metadata
     id="metadata77">
    <rdf:RDF>
      <cc:Work
         rdf:about="">
        <dc:format>image/svg+xml</dc:format>
        <dc:type
           rdf:resource="http://purl.org/dc/dcmitype/StillImage" />
      </cc:Work>
    </rdf:RDF>
  </metadata>
  <sodipodi:namedview
     pagecolor="#f5f7fa"
     bordercolor="#666666"
     borderopacity="1"
     objecttolerance="10"
     gridtolerance="10"
     guidetolerance="10"
     inkscape:pageopacity="0"
     inkscape:pageshadow="2"
     inkscape:window-width="1226"
     inkscape:window-height="603"
     id="namedview75"
     showgrid="false"
     inkscape:zoom="3.1445312"
     inkscape:cx="19.080746"
     inkscape:cy="7.9503106"
     inkscape:window-x="35"
     inkscape:window-y="32"
     inkscape:window-maximized="0"
     inkscape:current-layer="g877"
     inkscape:document-rotation="0"
     inkscape:pagecheckerboard="0"
     inkscape:showpageshadow="2"
     inkscape:deskcolor="#d1d1d1" />
  <defs
     id="defs29">
    <filter
       style="color-interpolation-filters:sRGB;"
       inkscape:label="Blur"
       id="filter6"
       x="-0.044145008"
       y="-0.044145008"
       width="1.08829"
       height="1.08829">
      <feGaussianBlur
         stdDeviation="1 1"
         result="blur"
         id="feGaussianBlur6" />
    </filter>
    <filter
       style="color-interpolation-filters:sRGB;"
       inkscape:label="Blur"
       id="filter7"
       x="-0.098100013"
       y="-0.098100021"
       width="1.1962"
       height="1.1962">
      <feGaussianBlur
         stdDeviation="2 2"
         result="blur"
         id="feGaussianBlur7" />
    </filter>
    <clipPath
       id="clip0_515_3621">
      <rect
         width="16"
         height="16"
         fill="#ffffff"
         transform="translate(0.00292969)"
         id="rect7969"
         x="0"
         y="0" />
    </clipPath>
    <filter
       style="color-interpolation-filters:sRGB;"
       inkscape:label="Blur"
       id="filter7349"
       x="-0.10485812"
       y="-0.10485813"
       width="1.2097162"
       height="1.2097163">
      <feGaussianBlur
         stdDeviation="2 2"
         result="blur"
         id="feGaussianBlur7347" />
    </filter>
    <filter
       style="color-interpolation-filters:sRGB"
       inkscape:label="Blur"
       id="filter1283"
       x="-0.082344266"
       y="-0.082344266"
       width="1.1646885"
       height="1.1646885">
      <feGaussianBlur
         stdDeviation="0.5 0.5"
         result="blur"
         id="feGaussianBlur1281" />
    </filter>
    <linearGradient
       inkscape:collect="always"
       xlink:href="#linearGradient883"
       id="linearGradient885"
       x1="2.1085808"
       y1="2.0236168"
       x2="14.846128"
       y2="15.071845"
       gradientUnits="userSpaceOnUse"
       gradientTransform="matrix(2.4606127,0,0,3.1451148,11.16612,5.3876879)" />
    <linearGradient
       inkscape:collect="always"
       id="linearGradient883">
      <stop
         style="stop-color:#808080;stop-opacity:1;"
         offset="0"
         id="stop879" />
      <stop
         style="stop-color:#3e3e3e;stop-opacity:1;"
         offset="0.5"
         id="stop1216" />
      <stop
         style="stop-color:#242424;stop-opacity:1;"
         offset="1"
         id="stop881" />
    </linearGradient>
    <linearGradient
       inkscape:collect="always"
       xlink:href="#linearGradient1134"
       id="linearGradient1136"
       x1="14.971222"
       y1="14.703373"
       x2="2.0756054"
       y2="2.0069976"
       gradientUnits="userSpaceOnUse"
       gradientTransform="matrix(2.4106819,0,0,3.1438568,11.58952,5.3983817)" />
    <linearGradient
       inkscape:collect="always"
       id="linearGradient1134">
      <stop
         style="stop-color:#161616;stop-opacity:1;"
         offset="0"
         id="stop1130" />
      <stop
         style="stop-color:#404040;stop-opacity:1;"
         offset="1"
         id="stop1132" />
    </linearGradient>
    <filter
       style="color-interpolation-filters:sRGB"
       inkscape:label="Blur"
       id="filter1694"
       x="-0.94955398"
       y="-0.2118907"
       width="2.899108"
       height="1.4237814">
      <feGaussianBlur
         stdDeviation="0.2 0.2"
         result="blur"
         id="feGaussianBlur1692" />
    </filter>
  </defs>
  <g
     id="g877"
     transform="matrix(1.1,0,0,1.1,-3.1845928,-3.2065454)">
    <path
       style="fill:#f5f7fa;stroke-width:0.204426;fill-opacity:1"
       d=""
       id="path3" />
    <rect
       style="fill:#000000;stroke:none;stroke-width:0.539739;stroke-dasharray:none;filter:url(#filter1283)"
       id="rect246-1"
       width="14.572964"
       height="14.572964"
       x="1.1932471"
       y="1.2138842"
       rx="2.1589575"
       ry="2.1589575"
       transform="matrix(2.4606127,0,0,3.1451146,11.16612,5.3876877)" />
    <rect
       style="fill:#000000;stroke:url(#linearGradient885);stroke-width:1.63561;stroke-dasharray:none"
       id="rect246"
       width="35.155312"
       height="44.93494"
       x="14.453793"
       y="9.6548424"
       rx="5.2081943"
       ry="5.181818" />
    <rect
       style="fill:url(#linearGradient1136);fill-opacity:1;stroke:none;stroke-width:1.31679;stroke-dasharray:none"
       id="rect246-5"
       width="31.13278"
       height="40.601383"
       x="16.465055"
       y="11.821622"
       rx="3.1818182"
       ry="3.1725934" />
    <path
       style="fill:#999999;fill-opacity:1;stroke:none;stroke-width:0.899999;stroke-dasharray:none;stroke-opacity:0.3"
       d="m 32.185985,16.145041 c -4.484276,0 -8.119278,1.466291 -8.119278,3.276492 v 2.689708 c 0,1.810431 3.635002,3.276491 8.119278,3.276491 4.484067,0 8.119277,-1.46629 8.119277,-3.276491 v -2.689708 c 0,-1.810201 -3.63521,-3.276492 -8.119277,-3.276492 z m -8.119278,7.136491 c -0.01471,0.081 0,4.692647 0,4.692647 0,1.810665 3.635002,3.276498 8.119278,3.276498 4.484067,0 8.119277,-1.46629 8.119277,-3.276498 0,0 0.0096,-4.611888 -0.0052,-4.692647 -0.309068,1.696864 -3.833133,3.033911 -8.114271,3.033911 -4.281335,0 -7.81062,-1.337277 -8.119272,-3.033911 z m -0.0016,5.874415 0.0016,4.692646 c 0,1.810429 3.635002,3.276492 8.119278,3.276492 4.484067,0 8.119277,-1.46652 8.119277,-3.276492 l -0.0069,-4.692646 c -0.30845,1.695716 -3.831251,3.033913 -8.112596,3.033913 -4.28134,0 -7.812292,-1.338424 -8.120946,-3.033913 z"
       id="path10" />
    <g
       aria-label="Database "
       id="text5786"
       style="font-size:6.06061px;text-align:center;text-anchor:middle;fill:#999999;stroke-width:1.81818">
      <path
         d="m 22.472765,46.731209 q 0,1.096971 -0.6,1.654547 -0.59394,0.551515 -1.660608,0.551515 h -1.206061 v -4.327275 h 1.333334 q 0.654546,0 1.133334,0.242424 0.478789,0.242424 0.739395,0.715152 0.260606,0.466667 0.260606,1.163637 z m -0.575758,0.01818 q 0,-0.866667 -0.430303,-1.266667 -0.424243,-0.406061 -1.206062,-0.406061 h -0.709091 v 3.393941 h 0.587879 q 1.757577,0 1.757577,-1.721213 z"
         id="path3851" />
      <path
         d="m 24.587915,45.634239 q 0.59394,0 0.878789,0.260606 0.284848,0.260606 0.284848,0.830304 v 2.212122 h -0.387879 l -0.10303,-0.460606 H 25.2364 q -0.212121,0.266667 -0.448485,0.393939 -0.230303,0.127273 -0.642424,0.127273 -0.442425,0 -0.733334,-0.230303 -0.290909,-0.236364 -0.290909,-0.733334 0,-0.484849 0.381818,-0.745455 0.381818,-0.266667 1.175758,-0.290909 l 0.551516,-0.01818 v -0.193939 q 0,-0.406061 -0.175758,-0.563637 -0.175758,-0.157576 -0.49697,-0.157576 -0.254546,0 -0.484849,0.07879 -0.230303,0.07273 -0.430303,0.169697 l -0.163636,-0.4 q 0.212121,-0.115152 0.50303,-0.19394 0.290909,-0.08485 0.606061,-0.08485 z m 0.157576,1.733334 q -0.606061,0.02424 -0.842425,0.19394 -0.230303,0.169697 -0.230303,0.478788 0,0.272727 0.163636,0.4 0.169698,0.127273 0.430304,0.127273 0.412121,0 0.684849,-0.224243 0.272727,-0.230303 0.272727,-0.70303 v -0.29091 z"
         id="path3853" />
      <path
         d="m 27.842467,48.561513 q 0.121212,0 0.248485,-0.01818 0.127273,-0.02424 0.206061,-0.04848 v 0.40606 q -0.08485,0.04243 -0.242424,0.06667 -0.157576,0.0303 -0.303031,0.0303 -0.254546,0 -0.472727,-0.08485 -0.212122,-0.09091 -0.345455,-0.309091 -0.133334,-0.218182 -0.133334,-0.612122 v -1.89091 H 26.339436 V 45.84636 l 0.466667,-0.212121 0.212121,-0.69091 h 0.315152 v 0.745455 h 0.939395 v 0.412122 h -0.939395 v 1.878789 q 0,0.29697 0.139394,0.442424 0.145455,0.139394 0.369697,0.139394 z"
         id="path3855" />
      <path
         d="m 30.175802,45.634239 q 0.59394,0 0.878789,0.260606 0.284848,0.260606 0.284848,0.830304 v 2.212122 H 30.95156 l -0.10303,-0.460606 h -0.02424 q -0.212122,0.266667 -0.448485,0.393939 -0.230304,0.127273 -0.642425,0.127273 -0.442425,0 -0.733334,-0.230303 -0.290909,-0.236364 -0.290909,-0.733334 0,-0.484849 0.381818,-0.745455 0.381819,-0.266667 1.175759,-0.290909 l 0.551515,-0.01818 v -0.193939 q 0,-0.406061 -0.175758,-0.563637 -0.175757,-0.157576 -0.49697,-0.157576 -0.254545,0 -0.484848,0.07879 -0.230304,0.07273 -0.430304,0.169697 l -0.163636,-0.4 q 0.212121,-0.115152 0.50303,-0.19394 0.29091,-0.08485 0.606061,-0.08485 z m 0.157576,1.733334 q -0.606061,0.02424 -0.842425,0.19394 -0.230303,0.169697 -0.230303,0.478788 0,0.272727 0.163637,0.4 0.169697,0.127273 0.430303,0.127273 0.412122,0 0.684849,-0.224243 0.272727,-0.230303 0.272727,-0.70303 v -0.29091 z"
         id="path3857" />
      <path
         d="m 32.87884,45.45242 q 0,0.206061 -0.01212,0.38788 -0.0061,0.175757 -0.01818,0.278788 h 0.0303 q 0.139394,-0.206061 0.381818,-0.345455 0.242424,-0.139394 0.624243,-0.139394 0.606061,0 0.969697,0.424242 0.369698,0.418183 0.369698,1.254547 0,0.836364 -0.369698,1.260607 -0.369697,0.424242 -0.969697,0.424242 -0.381819,0 -0.624243,-0.139394 -0.242424,-0.139394 -0.381818,-0.333333 h -0.04242 l -0.109091,0.412121 h -0.381818 v -4.606063 h 0.533334 z m 0.915152,0.624243 q -0.515152,0 -0.715152,0.29697 -0.2,0.29697 -0.2,0.921213 v 0.02424 q 0,0.600001 0.193939,0.921213 0.2,0.315152 0.733334,0.315152 0.436364,0 0.648485,-0.321213 0.218182,-0.321212 0.218182,-0.927273 0,-1.230304 -0.878788,-1.230304 z"
         id="path3859" />
      <path
         d="m 37.303083,45.634239 q 0.593939,0 0.878788,0.260606 0.284849,0.260606 0.284849,0.830304 v 2.212122 H 38.078841 L 37.97581,48.476665 h -0.02424 q -0.212121,0.266667 -0.448485,0.393939 -0.230303,0.127273 -0.642425,0.127273 -0.442424,0 -0.733334,-0.230303 -0.290909,-0.236364 -0.290909,-0.733334 0,-0.484849 0.381818,-0.745455 0.381819,-0.266667 1.175759,-0.290909 l 0.551515,-0.01818 v -0.193939 q 0,-0.406061 -0.175757,-0.563637 -0.175758,-0.157576 -0.49697,-0.157576 -0.254546,0 -0.484849,0.07879 -0.230303,0.07273 -0.430303,0.169697 l -0.163637,-0.4 q 0.212121,-0.115152 0.503031,-0.19394 0.290909,-0.08485 0.606061,-0.08485 z m 0.157575,1.733334 q -0.60606,0.02424 -0.842424,0.19394 -0.230303,0.169697 -0.230303,0.478788 0,0.272727 0.163636,0.4 0.169697,0.127273 0.430303,0.127273 0.412122,0 0.684849,-0.224243 0.272728,-0.230303 0.272728,-0.70303 v -0.29091 z"
         id="path3861" />
      <path
         d="m 41.587939,48.040301 q 0,0.472727 -0.351515,0.715152 -0.351516,0.242424 -0.945456,0.242424 -0.339394,0 -0.587879,-0.05455 -0.242424,-0.05455 -0.430303,-0.151516 v -0.484848 q 0.193939,0.09697 0.466667,0.181818 0.278788,0.07879 0.563637,0.07879 0.40606,0 0.587879,-0.127273 0.181818,-0.133333 0.181818,-0.351515 0,-0.121212 -0.06667,-0.218182 -0.06667,-0.09697 -0.242424,-0.19394 -0.169697,-0.09697 -0.490909,-0.218182 -0.315152,-0.121212 -0.539395,-0.242424 -0.224242,-0.121212 -0.345454,-0.290909 -0.121213,-0.169697 -0.121213,-0.436364 0,-0.412122 0.333334,-0.636364 0.339394,-0.224243 0.884849,-0.224243 0.29697,0 0.551515,0.06061 0.260607,0.05455 0.484849,0.157576 l -0.181818,0.424243 q -0.206061,-0.08485 -0.430303,-0.145455 -0.224243,-0.06061 -0.460607,-0.06061 -0.327273,0 -0.50303,0.109091 -0.169697,0.10303 -0.169697,0.284849 0,0.133333 0.07879,0.230303 0.07879,0.09091 0.260606,0.181818 0.187879,0.08485 0.49697,0.206061 0.309091,0.115151 0.527273,0.236364 0.218182,0.121212 0.333333,0.29697 0.115152,0.169697 0.115152,0.430303 z"
         id="path3863" />
      <path
         d="m 43.630365,45.628178 q 0.418182,0 0.715152,0.181818 0.30303,0.181819 0.460606,0.515152 0.163636,0.327273 0.163636,0.769698 v 0.321212 h -2.224243 q 0.01212,0.551516 0.278788,0.842425 0.272727,0.284848 0.757576,0.284848 0.309091,0 0.545455,-0.05455 0.242424,-0.06061 0.49697,-0.169697 v 0.466667 q -0.248485,0.109091 -0.49091,0.157576 -0.242424,0.05455 -0.575758,0.05455 -0.460606,0 -0.818182,-0.187879 Q 42.58794,48.622119 42.38794,48.252422 42.194,47.876664 42.194,47.33727 q 0,-0.533334 0.175758,-0.915152 0.181818,-0.381818 0.50303,-0.587879 0.327273,-0.206061 0.757577,-0.206061 z m -0.0061,0.436364 q -0.381818,0 -0.606061,0.248485 -0.218182,0.242424 -0.260606,0.678788 h 1.654546 q -0.0061,-0.412121 -0.193939,-0.666667 -0.187879,-0.260606 -0.59394,-0.260606 z"
         id="path3865" />
    </g>
  </g>
</svg>
