<?xml version="1.0" encoding="UTF-8" standalone="no"?>
<svg
   width="64"
   height="64"
   version="1.1"
   viewBox="0 0 16.933 16.933"
   id="svg7"
   sodipodi:docname="text-x-subviewer.svg"
   inkscape:version="1.3.2 (091e20ef0f, 2023-11-25)"
   xmlns:inkscape="http://www.inkscape.org/namespaces/inkscape"
   xmlns:sodipodi="http://sodipodi.sourceforge.net/DTD/sodipodi-0.dtd"
   xmlns:xlink="http://www.w3.org/1999/xlink"
   xmlns="http://www.w3.org/2000/svg"
   xmlns:svg="http://www.w3.org/2000/svg"
   xmlns:rdf="http://www.w3.org/1999/02/22-rdf-syntax-ns#"
   xmlns:cc="http://creativecommons.org/ns#"
   xmlns:dc="http://purl.org/dc/elements/1.1/">
  <sodipodi:namedview
     id="namedview7"
     pagecolor="#9c4444"
     bordercolor="#000000"
     borderopacity="0.25"
     inkscape:showpageshadow="2"
     inkscape:pageopacity="0.0"
     inkscape:pagecheckerboard="0"
     inkscape:deskcolor="#d1d1d1"
     inkscape:zoom="6.15625"
     inkscape:cx="33.218274"
     inkscape:cy="36.71066"
     inkscape:window-width="1463"
     inkscape:window-height="664"
     inkscape:window-x="167"
     inkscape:window-y="273"
     inkscape:window-maximized="0"
     inkscape:current-layer="svg7"
     showgrid="false" />
  <defs
     id="defs2">
    <linearGradient
       id="linearGradient5"
       inkscape:collect="always">
      <stop
         style="stop-color:#392713;stop-opacity:1;"
         offset="0"
         id="stop2" />
      <stop
         style="stop-color:#eed59e;stop-opacity:1;"
         offset="0.5"
         id="stop3" />
      <stop
         style="stop-color:#beaa8a;stop-opacity:1;"
         offset="1"
         id="stop4" />
    </linearGradient>
    <linearGradient
       id="linearGradient8"
       inkscape:collect="always">
      <stop
         style="stop-color:#1a1a1a;stop-opacity:1;"
         offset="0"
         id="stop8" />
      <stop
         style="stop-color:#ffffff;stop-opacity:0;"
         offset="1"
         id="stop9" />
    </linearGradient>
    <linearGradient
       inkscape:collect="always"
       xlink:href="#linearGradient5"
       id="linearGradient41"
       x1="13.675659"
       y1="16.110115"
       x2="13.728528"
       y2="10.548769"
       gradientUnits="userSpaceOnUse"
       gradientTransform="matrix(1.6061171,0,0,2.1084059,-12.924569,-19.742698)" />
    <linearGradient
       inkscape:collect="always"
       xlink:href="#linearGradient42"
       id="linearGradient4"
       x1="11.885941"
       y1="16.50819"
       x2="12.026573"
       y2="10.244942"
       gradientUnits="userSpaceOnUse"
       gradientTransform="matrix(1.6061171,0,0,2.1084059,-12.924569,-19.742698)" />
    <linearGradient
       id="linearGradient42"
       inkscape:collect="always">
      <stop
         style="stop-color:#010101;stop-opacity:1;"
         offset="0"
         id="stop42" />
      <stop
         style="stop-color:#6e6c6d;stop-opacity:1;"
         offset="1"
         id="stop43" />
    </linearGradient>
    <linearGradient
       inkscape:collect="always"
       xlink:href="#linearGradient8"
       id="linearGradient9"
       x1="9.3404646"
       y1="4.1692023"
       x2="9.4279938"
       y2="16.46883"
       gradientUnits="userSpaceOnUse"
       gradientTransform="matrix(0.80952478,0,0,1.0980733,1.5663172,-0.59391329)" />
    <filter
       style="color-interpolation-filters:sRGB;"
       inkscape:label="Blur"
       id="filter2"
       x="-0.14510849"
       y="-0.14612901"
       width="1.290217"
       height="1.292258">
      <feGaussianBlur
         stdDeviation="0.6 0.6"
         result="blur"
         id="feGaussianBlur2" />
    </filter>
    <clipPath
       clipPathUnits="userSpaceOnUse"
       id="clipPath354">
      <rect
         style="display:block;opacity:0.2"
         width="36"
         height="36"
         x="15.620633"
         y="15.638589"
         rx="2.7690001"
         ry="2.7690001"
         id="rect356" />
    </clipPath>
    <inkscape:path-effect
       effect="powerclip"
       id="path-effect358"
       is_visible="true"
       lpeversion="1"
       inverse="true"
       flatten="false"
       hide_clip="false"
       message="Use fill-rule evenodd on &lt;b&gt;fill and stroke&lt;/b&gt; dialog if no flatten result after convert clip to paths." />
    <clipPath
       clipPathUnits="userSpaceOnUse"
       id="clipPath186">
      <rect
         style="display:block;opacity:0.2"
         width="36"
         height="36"
         x="5.391973"
         y="5.6022935"
         rx="2.7690001"
         ry="2.7690001"
         id="rect188" />
    </clipPath>
    <inkscape:path-effect
       effect="powerclip"
       id="path-effect190"
       is_visible="true"
       lpeversion="1"
       inverse="true"
       flatten="false"
       hide_clip="false"
       message="Use fill-rule evenodd on &lt;b&gt;fill and stroke&lt;/b&gt; dialog if no flatten result after convert clip to paths." />
    <clipPath
       clipPathUnits="userSpaceOnUse"
       id="clipPath354-9">
      <rect
         style="display:none;opacity:0.2"
         width="36"
         height="36"
         x="15.620633"
         y="15.638589"
         rx="2.7690001"
         ry="2.7690001"
         id="rect356-7"
         d="m 18.389633,15.638589 h 30.462 c 1.534026,0 2.769,1.234974 2.769,2.769 v 30.462 c 0,1.534026 -1.234974,2.769 -2.769,2.769 h -30.462 c -1.534026,0 -2.769,-1.234974 -2.769,-2.769 v -30.462 c 0,-1.534026 1.234974,-2.769 2.769,-2.769 z" />
      <path
         id="lpe_path-effect358-3"
         style="opacity:0.2"
         class="powerclip"
         d="M 19,19 H 65 V 65 H 19 Z m -0.610367,-3.361411 c -1.534026,0 -2.769,1.234974 -2.769,2.769 v 30.462 c 0,1.534026 1.234974,2.769 2.769,2.769 h 30.462 c 1.534026,0 2.769,-1.234974 2.769,-2.769 v -30.462 c 0,-1.534026 -1.234974,-2.769 -2.769,-2.769 z" />
    </clipPath>
    <inkscape:path-effect
       effect="powerclip"
       id="path-effect358-6"
       is_visible="true"
       lpeversion="1"
       inverse="true"
       flatten="false"
       hide_clip="false"
       message="Use fill-rule evenodd on &lt;b&gt;fill and stroke&lt;/b&gt; dialog if no flatten result after convert clip to paths." />
    <clipPath
       clipPathUnits="userSpaceOnUse"
       id="clipPath186-3">
      <rect
         style="display:none;opacity:0.2"
         width="36"
         height="36"
         x="5.391973"
         y="5.6022935"
         rx="2.7690001"
         ry="2.7690001"
         id="rect188-1"
         d="M 8.1609731,5.6022935 H 38.622973 c 1.534026,0 2.769,1.234974 2.769,2.769 V 38.833293 c 0,1.534026 -1.234974,2.769 -2.769,2.769 H 8.1609731 c -1.5340261,0 -2.7690001,-1.234974 -2.7690001,-2.769 V 8.3712935 c 0,-1.534026 1.234974,-2.769 2.7690001,-2.769 z" />
      <path
         id="lpe_path-effect190-9"
         style="opacity:0.2"
         class="powerclip"
         d="M 9,9 H 55 V 55 H 9 Z M 8.1609731,5.6022935 c -1.5340261,0 -2.7690001,1.234974 -2.7690001,2.769 V 38.833293 c 0,1.534026 1.234974,2.769 2.7690001,2.769 H 38.622973 c 1.534026,0 2.769,-1.234974 2.769,-2.769 V 8.3712935 c 0,-1.534026 -1.234974,-2.769 -2.769,-2.769 z" />
    </clipPath>
    <inkscape:path-effect
       effect="powerclip"
       id="path-effect190-4"
       is_visible="true"
       lpeversion="1"
       inverse="true"
       flatten="false"
       hide_clip="false"
       message="Use fill-rule evenodd on &lt;b&gt;fill and stroke&lt;/b&gt; dialog if no flatten result after convert clip to paths." />
    <clipPath
       clipPathUnits="userSpaceOnUse"
       id="clipath_lpe_path-effect358-6">
      <rect
         style="display:block;opacity:0.2"
         width="36"
         height="36"
         x="15.620633"
         y="15.638589"
         rx="2.7690001"
         ry="2.7690001"
         id="rect22" />
    </clipPath>
    <clipPath
       clipPathUnits="userSpaceOnUse"
       id="clipath_lpe_path-effect190-4">
      <rect
         style="display:block;opacity:0.2"
         width="36"
         height="36"
         x="5.391973"
         y="5.6022935"
         rx="2.7690001"
         ry="2.7690001"
         id="rect23" />
    </clipPath>
    <linearGradient
       inkscape:collect="always"
       xlink:href="#linearGradient5"
       id="linearGradient69"
       x1="8.5498419"
       y1="10.008326"
       x2="8.7886705"
       y2="6.3414383"
       gradientUnits="userSpaceOnUse" />
  </defs>
  <metadata
     id="metadata2">
    <rdf:RDF>
      <cc:Work
         rdf:about="">
        <dc:format>image/svg+xml</dc:format>
        <dc:type
           rdf:resource="http://purl.org/dc/dcmitype/StillImage" />
      </cc:Work>
    </rdf:RDF>
  </metadata>
  <rect
     style="fill:#000000;fill-opacity:0.996424;stroke:#000000;stroke-width:0.911802;stroke-dasharray:none;stroke-opacity:1;filter:url(#filter2)"
     id="rect1-2-3"
     width="13.065404"
     height="12.974159"
     x="1.9816793"
     y="1.9267306"
     rx="2.7149384"
     ry="2.8310909"
     transform="matrix(0.78494475,0,0,1.0304244,1.8310625,-0.25598506)" />
  <rect
     style="fill:url(#linearGradient4);fill-opacity:0.996424;stroke:url(#linearGradient41);stroke-width:0.820027;stroke-dasharray:none;stroke-opacity:1"
     id="rect1-2"
     width="10.25562"
     height="13.36889"
     x="3.3865712"
     y="1.7293652"
     rx="2.1310766"
     ry="2.9172251" />
  <rect
     style="opacity:0.5;fill:none;fill-opacity:0.996424;stroke:url(#linearGradient9);stroke-width:0.50832;stroke-dasharray:none;stroke-opacity:1"
     id="rect1-2-6"
     width="8.9234324"
     height="12.035513"
     x="4.0584631"
     y="2.3962882"
     rx="1.5176033"
     ry="2.2109985" />
  <path
     d="M 7.0799334,10.00126 4.6846203,8.9443593 V 8.598644 L 7.0799334,7.4034569 V 7.9812953 L 5.4303776,8.7468077 7.0799334,9.4234219 Z M 7.9639793,9.1419109 q 0,-0.2469395 0.1037146,-0.4148584 0.1037145,-0.1679188 0.3555928,-0.350654 0.2222456,-0.1580413 0.3160826,-0.2716335 0.098776,-0.1185309 0.098776,-0.2765722 0,-0.1580413 -0.118531,-0.2370619 -0.1135921,-0.08396 -0.3210213,-0.08396 -0.2074292,0 -0.4099196,0.064204 Q 7.786183,7.6355789 7.5738151,7.7442326 L 7.312059,7.2157828 q 0.2420007,-0.1333473 0.5235117,-0.2173067 0.2815111,-0.083959 0.6173488,-0.083959 0.5136341,0 0.7951451,0.2469395 0.2864498,0.2469394 0.2864498,0.6272263 0,0.2024904 -0.064204,0.350654 Q 9.4061059,8.2875002 9.2776974,8.4159088 9.1492888,8.5393785 8.956676,8.6826034 8.8134511,8.786318 8.7344305,8.8603999 8.6554098,8.9344817 8.6257771,9.0036248 8.6010832,9.0727678 8.6010832,9.1764824 V 9.3197073 H 7.9639793 Z m -0.079021,1.0025741 q 0,-0.2271841 0.1234698,-0.3160823 0.1234697,-0.093837 0.3012662,-0.093837 0.1728576,0 0.2963274,0.093837 0.1234697,0.088898 0.1234697,0.3160823 0,0.217307 -0.1234697,0.316083 -0.1234698,0.09384 -0.2963274,0.09384 -0.1777965,0 -0.3012662,-0.09384 -0.1234698,-0.09878 -0.1234698,-0.316083 z M 9.8654098,9.4234219 11.514966,8.7468077 9.8654098,7.9812953 V 7.4034569 L 12.260723,8.598644 V 8.9443593 L 9.8654098,10.00126 Z"
     id="text68-1"
     style="font-weight:bold;font-size:4.93879px;font-family:'Noto Sans';-inkscape-font-specification:'Noto Sans Bold';fill:#000000;stroke-width:0.264578;opacity:0.3"
     aria-label="&lt;?&gt;" />
  <path
     d="M 7.0799334,9.4721041 4.6846203,8.4152031 V 8.0694878 L 7.0799334,6.8743007 V 7.4521391 L 5.4303776,8.2176515 7.0799334,8.8942657 Z M 7.9639793,8.6127547 q 0,-0.2469395 0.1037146,-0.4148584 0.1037145,-0.1679188 0.3555928,-0.350654 0.2222456,-0.1580413 0.3160826,-0.2716335 0.098776,-0.1185309 0.098776,-0.2765722 0,-0.1580413 -0.118531,-0.2370619 -0.1135921,-0.08396 -0.3210213,-0.08396 -0.2074292,0 -0.4099196,0.064204 -0.2024904,0.064204 -0.4148583,0.1728577 L 7.312059,6.6866266 q 0.2420007,-0.1333473 0.5235117,-0.2173067 0.2815111,-0.083959 0.6173488,-0.083959 0.5136341,0 0.7951451,0.2469395 0.2864498,0.2469394 0.2864498,0.6272263 0,0.2024904 -0.064204,0.350654 Q 9.4061059,7.758344 9.2776974,7.8867526 9.1492888,8.0102223 8.956676,8.1534472 8.8134511,8.2571618 8.7344305,8.3312437 8.6554098,8.4053255 8.6257771,8.4744686 8.6010832,8.5436116 8.6010832,8.6473262 V 8.7905511 H 7.9639793 Z M 7.8849586,9.615329 q 0,-0.2271843 0.1234698,-0.3160825 0.1234697,-0.093837 0.3012662,-0.093837 0.1728576,0 0.2963274,0.093837 0.1234697,0.088898 0.1234697,0.3160825 0,0.2173068 -0.1234697,0.3160826 -0.1234698,0.093837 -0.2963274,0.093837 -0.1777965,0 -0.3012662,-0.093837 Q 7.8849586,9.8326358 7.8849586,9.615329 Z M 9.8654098,8.8942657 11.514966,8.2176515 9.8654098,7.4521391 V 6.8743007 l 2.3953132,1.1951871 v 0.3457153 l -2.3953132,1.056901 z"
     id="text68"
     style="font-weight:bold;font-size:4.93879px;font-family:'Noto Sans';-inkscape-font-specification:'Noto Sans Bold';opacity:1;stroke-width:0.264578;fill:url(#linearGradient69)"
     aria-label="&lt;?&gt;" />
</svg>
