<?xml version="1.0" encoding="UTF-8" standalone="no"?>
<svg
   width="64"
   height="64"
   version="1.1"
   id="svg73"
   sodipodi:docname="filetype Template.svg"
   inkscape:version="1.4 (e7c3feb100, 2024-10-09)"
   xmlns:inkscape="http://www.inkscape.org/namespaces/inkscape"
   xmlns:sodipodi="http://sodipodi.sourceforge.net/DTD/sodipodi-0.dtd"
   xmlns:xlink="http://www.w3.org/1999/xlink"
   xmlns="http://www.w3.org/2000/svg"
   xmlns:svg="http://www.w3.org/2000/svg"
   xmlns:rdf="http://www.w3.org/1999/02/22-rdf-syntax-ns#"
   xmlns:cc="http://creativecommons.org/ns#"
   xmlns:dc="http://purl.org/dc/elements/1.1/">
  <metadata
     id="metadata77">
    <rdf:RDF>
      <cc:Work
         rdf:about="">
        <dc:format>image/svg+xml</dc:format>
        <dc:type
           rdf:resource="http://purl.org/dc/dcmitype/StillImage" />
      </cc:Work>
    </rdf:RDF>
  </metadata>
  <sodipodi:namedview
     pagecolor="#f5f7fa"
     bordercolor="#666666"
     borderopacity="1"
     objecttolerance="10"
     gridtolerance="10"
     guidetolerance="10"
     inkscape:pageopacity="0"
     inkscape:pageshadow="2"
     inkscape:window-width="1183"
     inkscape:window-height="973"
     id="namedview75"
     showgrid="false"
     inkscape:zoom="4.4470387"
     inkscape:cx="19.001409"
     inkscape:cy="8.2077092"
     inkscape:window-x="35"
     inkscape:window-y="32"
     inkscape:window-maximized="0"
     inkscape:current-layer="g877"
     inkscape:document-rotation="0"
     inkscape:pagecheckerboard="0"
     inkscape:showpageshadow="2"
     inkscape:deskcolor="#d1d1d1" />
  <defs
     id="defs29">
    <filter
       style="color-interpolation-filters:sRGB;"
       inkscape:label="Blur"
       id="filter6"
       x="-0.044145008"
       y="-0.044145008"
       width="1.08829"
       height="1.08829">
      <feGaussianBlur
         stdDeviation="1 1"
         result="blur"
         id="feGaussianBlur6" />
    </filter>
    <filter
       style="color-interpolation-filters:sRGB;"
       inkscape:label="Blur"
       id="filter7"
       x="-0.098100013"
       y="-0.098100021"
       width="1.1962"
       height="1.1962">
      <feGaussianBlur
         stdDeviation="2 2"
         result="blur"
         id="feGaussianBlur7" />
    </filter>
    <clipPath
       id="clip0_515_3621">
      <rect
         width="16"
         height="16"
         fill="#ffffff"
         transform="translate(0.00292969)"
         id="rect7969"
         x="0"
         y="0" />
    </clipPath>
    <filter
       style="color-interpolation-filters:sRGB;"
       inkscape:label="Blur"
       id="filter7349"
       x="-0.10485812"
       y="-0.10485813"
       width="1.2097162"
       height="1.2097163">
      <feGaussianBlur
         stdDeviation="2 2"
         result="blur"
         id="feGaussianBlur7347" />
    </filter>
    <filter
       style="color-interpolation-filters:sRGB"
       inkscape:label="Blur"
       id="filter1283"
       x="-0.082344266"
       y="-0.082344266"
       width="1.1646885"
       height="1.1646885">
      <feGaussianBlur
         stdDeviation="0.5 0.5"
         result="blur"
         id="feGaussianBlur1281" />
    </filter>
    <linearGradient
       inkscape:collect="always"
       xlink:href="#linearGradient883"
       id="linearGradient885"
       x1="2.1085808"
       y1="2.0236168"
       x2="14.846128"
       y2="15.071845"
       gradientUnits="userSpaceOnUse"
       gradientTransform="matrix(2.4606127,0,0,3.1451148,11.16612,5.3876879)" />
    <linearGradient
       inkscape:collect="always"
       id="linearGradient883">
      <stop
         style="stop-color:#808080;stop-opacity:1;"
         offset="0"
         id="stop879" />
      <stop
         style="stop-color:#3e3e3e;stop-opacity:1;"
         offset="0.5"
         id="stop1216" />
      <stop
         style="stop-color:#242424;stop-opacity:1;"
         offset="1"
         id="stop881" />
    </linearGradient>
    <linearGradient
       inkscape:collect="always"
       xlink:href="#linearGradient1134"
       id="linearGradient1136"
       x1="14.971222"
       y1="14.703373"
       x2="2.0756054"
       y2="2.0069976"
       gradientUnits="userSpaceOnUse"
       gradientTransform="matrix(2.4106819,0,0,3.1438568,11.58952,5.3983817)" />
    <linearGradient
       inkscape:collect="always"
       id="linearGradient1134">
      <stop
         style="stop-color:#161616;stop-opacity:1;"
         offset="0"
         id="stop1130" />
      <stop
         style="stop-color:#404040;stop-opacity:1;"
         offset="1"
         id="stop1132" />
    </linearGradient>
    <filter
       style="color-interpolation-filters:sRGB"
       inkscape:label="Blur"
       id="filter1694"
       x="-0.94955398"
       y="-0.2118907"
       width="2.899108"
       height="1.4237814">
      <feGaussianBlur
         stdDeviation="0.2 0.2"
         result="blur"
         id="feGaussianBlur1692" />
    </filter>
  </defs>
  <g
     id="g877"
     transform="matrix(1.1,0,0,1.1,-3.1845928,-3.2065454)">
    <path
       style="fill:#f5f7fa;stroke-width:0.204426;fill-opacity:1"
       d=""
       id="path3" />
    <rect
       style="fill:#000000;stroke:none;stroke-width:0.539739;stroke-dasharray:none;filter:url(#filter1283)"
       id="rect246-1"
       width="14.572964"
       height="14.572964"
       x="1.1932471"
       y="1.2138842"
       rx="2.1589575"
       ry="2.1589575"
       transform="matrix(2.4606127,0,0,3.1451146,11.16612,5.3876877)" />
    <rect
       style="fill:#000000;stroke:url(#linearGradient885);stroke-width:1.63561;stroke-dasharray:none"
       id="rect246"
       width="35.155312"
       height="44.93494"
       x="14.453793"
       y="9.6548424"
       rx="5.2081943"
       ry="5.181818" />
    <rect
       style="fill:url(#linearGradient1136);fill-opacity:1;stroke:none;stroke-width:1.31679;stroke-dasharray:none"
       id="rect246-5"
       width="31.13278"
       height="40.601383"
       x="16.465055"
       y="11.821622"
       rx="3.1818182"
       ry="3.1725934" />
    <g
       id="g7"
       transform="matrix(0.73636364,0,0,0.73636364,8.6041752,-2.7304133)"
       style="fill:#999999;fill-opacity:1">
      <path
         style="fill:#999999;fill-opacity:1"
         d="M 32,27 A 14,14 0 0 0 18,41 14,14 0 0 0 32,55 14,14 0 0 0 46,41 14,14 0 0 0 32,27 Z m 0,3 A 11,11 0 0 1 43,41 11,11 0 0 1 32,52 11,11 0 0 1 21,41 11,11 0 0 1 32,30 Z"
         id="path6" />
      <path
         style="fill:#999999;fill-opacity:1"
         d="m 32,33 a 8,8 0 0 0 -8,8 8,8 0 0 0 8,8 8,8 0 0 0 5.470703,-2.175781 l -2.46875,-1.832031 A 5,5 0 0 1 32,46 a 5,5 0 0 1 -5,-5 5,5 0 0 1 5,-5 5,5 0 0 1 3.041016,1.039062 l 2.470703,-1.833984 A 8,8 0 0 0 32,33 Z"
         id="path7" />
    </g>
    <path
       d="m 23.130541,45.028178 q -0.69697,0 -1.096971,0.466667 -0.4,0.466667 -0.4,1.278788 0,0.806062 0.369697,1.278789 0.375758,0.466667 1.121213,0.466667 0.284849,0 0.539394,-0.04848 0.254546,-0.04848 0.49697,-0.121212 v 0.472728 q -0.242424,0.09091 -0.50303,0.133333 -0.254546,0.04242 -0.612122,0.04242 -0.660606,0 -1.103031,-0.272727 -0.442424,-0.272728 -0.666667,-0.775758 -0.218182,-0.503031 -0.218182,-1.181819 0,-0.654546 0.236364,-1.151516 0.242424,-0.503031 0.709091,-0.781819 0.466667,-0.284848 1.133334,-0.284848 0.684849,0 1.19394,0.254545 l -0.218182,0.460607 q -0.2,-0.09091 -0.448485,-0.163637 -0.242424,-0.07273 -0.533333,-0.07273 z m 4.727275,2.278789 q 0,0.806061 -0.412121,1.248486 -0.406061,0.442424 -1.103031,0.442424 -0.430303,0 -0.769698,-0.193939 -0.333333,-0.2 -0.527273,-0.575758 -0.193939,-0.381819 -0.193939,-0.921213 0,-0.806061 0.406061,-1.242425 0.406061,-0.436364 1.103031,-0.436364 0.442424,0 0.775758,0.2 0.339394,0.19394 0.527273,0.569698 0.193939,0.369697 0.193939,0.909091 z m -2.454547,0 q 0,0.575758 0.224243,0.915152 0.230303,0.333334 0.727273,0.333334 0.490909,0 0.721213,-0.333334 0.230303,-0.339394 0.230303,-0.915152 0,-0.575758 -0.230303,-0.903031 -0.230304,-0.327273 -0.727274,-0.327273 -0.49697,0 -0.721212,0.327273 -0.224243,0.327273 -0.224243,0.903031 z m 4.842425,-1.678789 q 0.6,0 0.963637,0.418182 0.369697,0.418182 0.369697,1.260607 0,0.830304 -0.369697,1.260607 -0.363637,0.430303 -0.969698,0.430303 -0.375758,0 -0.624243,-0.139394 -0.242424,-0.145454 -0.381818,-0.333333 h -0.03636 q 0.01212,0.10303 0.02424,0.260606 0.01212,0.157576 0.01212,0.272727 v 1.333334 h -0.533334 v -4.703033 h 0.436364 l 0.07273,0.442425 h 0.02424 q 0.145455,-0.212122 0.381818,-0.357576 0.236364,-0.145455 0.630304,-0.145455 z m -0.09697,0.448485 q -0.49697,0 -0.703031,0.278788 -0.2,0.278788 -0.212121,0.848486 v 0.10303 q 0,0.6 0.19394,0.927273 0.2,0.321213 0.733333,0.321213 0.29697,0 0.484849,-0.163637 0.19394,-0.163636 0.284849,-0.442424 0.09697,-0.284849 0.09697,-0.648486 0,-0.557576 -0.218182,-0.890909 -0.212122,-0.333334 -0.660607,-0.333334 z m 1.648482,-0.387879 h 0.569697 l 0.703031,1.848486 q 0.09091,0.242425 0.163636,0.466667 0.07273,0.218182 0.109091,0.418182 h 0.02424 q 0.03636,-0.151515 0.115151,-0.393939 0.07879,-0.248485 0.163637,-0.49697 l 0.660606,-1.842426 h 0.575758 l -1.400001,3.696972 q -0.169697,0.460607 -0.442424,0.733334 -0.266667,0.272727 -0.739395,0.272727 -0.145454,0 -0.254545,-0.01818 -0.109091,-0.01212 -0.187879,-0.0303 V 49.91909 q 0.06667,0.01212 0.157576,0.02424 0.09697,0.01212 0.2,0.01212 0.278788,0 0.448485,-0.157576 0.175758,-0.157576 0.272727,-0.418182 l 0.169697,-0.430304 z m 3.872731,-1.218182 q 0.121212,0 0.212122,0.08485 0.09697,0.07879 0.09697,0.254546 0,0.169697 -0.09697,0.254545 -0.09091,0.08485 -0.212122,0.08485 -0.133333,0 -0.224242,-0.08485 -0.09091,-0.08485 -0.09091,-0.254545 0,-0.175758 0.09091,-0.254546 0.09091,-0.08485 0.224242,-0.08485 z m 0.260606,1.218182 v 3.248487 H 35.39721 v -3.248487 z m 2.593937,-0.06061 q 0.581819,0 0.878789,0.284849 0.296969,0.278788 0.296969,0.909091 v 2.115153 h -0.527273 v -2.078789 q 0,-0.781819 -0.727273,-0.781819 -0.539394,0 -0.745455,0.303031 -0.206061,0.30303 -0.206061,0.872728 v 1.684849 h -0.533333 v -3.248487 h 0.430303 l 0.07879,0.442425 h 0.0303 q 0.157576,-0.254546 0.436364,-0.375758 0.278788,-0.127273 0.587879,-0.127273 z m 3.333335,0 q 0.321213,0 0.575758,0.121212 0.260606,0.121213 0.442425,0.369698 h 0.0303 l 0.07273,-0.430304 h 0.424243 v 3.303033 q 0,0.69697 -0.357576,1.048485 -0.351516,0.351515 -1.096971,0.351515 -0.715151,0 -1.169697,-0.20606 v -0.49091 q 0.478788,0.254546 1.200001,0.254546 0.418182,0 0.654545,-0.248485 0.242425,-0.242424 0.242425,-0.666667 v -0.127273 q 0,-0.07273 0.0061,-0.206061 0.0061,-0.139394 0.01212,-0.193939 h -0.02424 q -0.327273,0.490909 -1.006061,0.490909 -0.630303,0 -0.987879,-0.442424 -0.351516,-0.442425 -0.351516,-1.236365 0,-0.775758 0.351516,-1.230303 0.357576,-0.460607 0.981818,-0.460607 z m 0.07273,0.448485 q -0.406061,0 -0.630304,0.327273 -0.224242,0.321213 -0.224242,0.921213 0,0.6 0.218182,0.921213 0.224242,0.315151 0.648485,0.315151 0.490909,0 0.715152,-0.260606 0.224242,-0.266667 0.224242,-0.854546 v -0.127273 q 0,-0.666667 -0.230303,-0.951515 -0.230303,-0.29091 -0.721212,-0.29091 z"
       id="text5786"
       style="font-size:6.06061px;text-align:center;text-anchor:middle;fill:#999999;stroke-width:1.81818"
       aria-label="Copying" />
  </g>
</svg>
