<?xml version="1.0" encoding="UTF-8" standalone="no"?>
<svg
   width="64"
   height="64"
   version="1.1"
   id="svg73"
   sodipodi:docname="text-html.svg"
   inkscape:version="1.4 (e7c3feb100, 2024-10-09)"
   xmlns:inkscape="http://www.inkscape.org/namespaces/inkscape"
   xmlns:sodipodi="http://sodipodi.sourceforge.net/DTD/sodipodi-0.dtd"
   xmlns:xlink="http://www.w3.org/1999/xlink"
   xmlns="http://www.w3.org/2000/svg"
   xmlns:svg="http://www.w3.org/2000/svg"
   xmlns:rdf="http://www.w3.org/1999/02/22-rdf-syntax-ns#"
   xmlns:cc="http://creativecommons.org/ns#"
   xmlns:dc="http://purl.org/dc/elements/1.1/">
  <metadata
     id="metadata77">
    <rdf:RDF>
      <cc:Work
         rdf:about="">
        <dc:format>image/svg+xml</dc:format>
        <dc:type
           rdf:resource="http://purl.org/dc/dcmitype/StillImage" />
      </cc:Work>
    </rdf:RDF>
  </metadata>
  <sodipodi:namedview
     pagecolor="#f5f7fa"
     bordercolor="#666666"
     borderopacity="1"
     objecttolerance="10"
     gridtolerance="10"
     guidetolerance="10"
     inkscape:pageopacity="0"
     inkscape:pageshadow="2"
     inkscape:window-width="1183"
     inkscape:window-height="944"
     id="namedview75"
     showgrid="false"
     inkscape:zoom="8.8940774"
     inkscape:cx="18.945192"
     inkscape:cy="24.117173"
     inkscape:window-x="35"
     inkscape:window-y="27"
     inkscape:window-maximized="0"
     inkscape:current-layer="g877"
     inkscape:document-rotation="0"
     inkscape:pagecheckerboard="0"
     inkscape:showpageshadow="2"
     inkscape:deskcolor="#d1d1d1" />
  <defs
     id="defs29">
    <filter
       style="color-interpolation-filters:sRGB;"
       inkscape:label="Blur"
       id="filter6"
       x="-0.044145008"
       y="-0.044145008"
       width="1.08829"
       height="1.08829">
      <feGaussianBlur
         stdDeviation="1 1"
         result="blur"
         id="feGaussianBlur6" />
    </filter>
    <filter
       style="color-interpolation-filters:sRGB;"
       inkscape:label="Blur"
       id="filter7"
       x="-0.098100013"
       y="-0.098100021"
       width="1.1962"
       height="1.1962">
      <feGaussianBlur
         stdDeviation="2 2"
         result="blur"
         id="feGaussianBlur7" />
    </filter>
    <clipPath
       id="clip0_515_3621">
      <rect
         width="16"
         height="16"
         fill="#ffffff"
         transform="translate(0.00292969)"
         id="rect7969"
         x="0"
         y="0" />
    </clipPath>
    <filter
       style="color-interpolation-filters:sRGB;"
       inkscape:label="Blur"
       id="filter7349"
       x="-0.10485812"
       y="-0.10485813"
       width="1.2097162"
       height="1.2097163">
      <feGaussianBlur
         stdDeviation="2 2"
         result="blur"
         id="feGaussianBlur7347" />
    </filter>
    <filter
       style="color-interpolation-filters:sRGB"
       inkscape:label="Blur"
       id="filter1283"
       x="-0.082344266"
       y="-0.082344266"
       width="1.1646885"
       height="1.1646885">
      <feGaussianBlur
         stdDeviation="0.5 0.5"
         result="blur"
         id="feGaussianBlur1281" />
    </filter>
    <linearGradient
       inkscape:collect="always"
       xlink:href="#linearGradient883"
       id="linearGradient885"
       x1="2.1085808"
       y1="2.0236168"
       x2="14.846128"
       y2="15.071845"
       gradientUnits="userSpaceOnUse"
       gradientTransform="matrix(2.4606127,0,0,3.1451148,11.16612,5.3876879)" />
    <linearGradient
       inkscape:collect="always"
       id="linearGradient883">
      <stop
         style="stop-color:#808080;stop-opacity:1;"
         offset="0"
         id="stop879" />
      <stop
         style="stop-color:#3e3e3e;stop-opacity:1;"
         offset="0.5"
         id="stop1216" />
      <stop
         style="stop-color:#242424;stop-opacity:1;"
         offset="1"
         id="stop881" />
    </linearGradient>
    <linearGradient
       inkscape:collect="always"
       xlink:href="#linearGradient1134"
       id="linearGradient1136"
       x1="14.971222"
       y1="14.703373"
       x2="2.0756054"
       y2="2.0069976"
       gradientUnits="userSpaceOnUse"
       gradientTransform="matrix(2.4106819,0,0,3.1438568,11.58952,5.3983817)" />
    <linearGradient
       inkscape:collect="always"
       id="linearGradient1134">
      <stop
         style="stop-color:#161616;stop-opacity:1;"
         offset="0"
         id="stop1130" />
      <stop
         style="stop-color:#404040;stop-opacity:1;"
         offset="1"
         id="stop1132" />
    </linearGradient>
    <filter
       style="color-interpolation-filters:sRGB"
       inkscape:label="Blur"
       id="filter1694"
       x="-0.94955398"
       y="-0.2118907"
       width="2.899108"
       height="1.4237814">
      <feGaussianBlur
         stdDeviation="0.2 0.2"
         result="blur"
         id="feGaussianBlur1692" />
    </filter>
  </defs>
  <g
     id="g877"
     transform="matrix(1.1,0,0,1.1,-3.1845928,-3.2065454)">
    <path
       style="fill:#f5f7fa;stroke-width:0.204426;fill-opacity:1"
       d=""
       id="path3" />
    <rect
       style="fill:#000000;stroke:none;stroke-width:0.539739;stroke-dasharray:none;filter:url(#filter1283)"
       id="rect246-1"
       width="14.572964"
       height="14.572964"
       x="1.1932471"
       y="1.2138842"
       rx="2.1589575"
       ry="2.1589575"
       transform="matrix(2.4606127,0,0,3.1451146,11.16612,5.3876877)" />
    <rect
       style="fill:#000000;stroke:url(#linearGradient885);stroke-width:1.63561;stroke-dasharray:none"
       id="rect246"
       width="35.155312"
       height="44.93494"
       x="14.453793"
       y="9.6548424"
       rx="5.2081943"
       ry="5.181818" />
    <rect
       style="fill:url(#linearGradient1136);fill-opacity:1;stroke:none;stroke-width:1.31679;stroke-dasharray:none"
       id="rect246-5"
       width="31.13278"
       height="40.601383"
       x="16.465055"
       y="11.821622"
       rx="3.1818182"
       ry="3.1725934" />
    <path
       fill="#5884f4"
       d="m 23.80178,17.687722 v 4.091248 h 12.276835 l -0.352534,2.727498 h -6.463119 v 4.09434 h 6.054922 l -0.599926,4.54583 -2.730591,0.998846 -2.727497,-0.955553 v -1.861625 h -4.091248 v 4.824147 l 6.818745,1.997691 7.165095,-2.000784 1.014308,-18.461638"
       id="path6"
       style="fill:#999999;stroke-width:3.0924" />
    <path
       d="m 29.547836,44.899615 q -0.69697,0 -1.09697,0.466667 -0.400001,0.466667 -0.400001,1.278788 0,0.806062 0.369697,1.278789 0.375758,0.466667 1.121213,0.466667 0.284849,0 0.539395,-0.04848 0.254545,-0.04848 0.49697,-0.121212 v 0.472728 q -0.242425,0.09091 -0.503031,0.133333 -0.254546,0.04242 -0.612122,0.04242 -0.660606,0 -1.103031,-0.272727 -0.442424,-0.272728 -0.666667,-0.775758 -0.218182,-0.503031 -0.218182,-1.181819 0,-0.654546 0.236364,-1.151516 0.242425,-0.503031 0.709091,-0.781819 0.466667,-0.284848 1.133335,-0.284848 0.684848,0 1.19394,0.254545 l -0.218182,0.460607 q -0.2,-0.09091 -0.448485,-0.163637 -0.242425,-0.07273 -0.533334,-0.07273 z m 4.018184,3.012123 q 0,0.472728 -0.351515,0.715152 -0.351516,0.242424 -0.945455,0.242424 -0.339394,0 -0.587879,-0.05455 -0.242425,-0.05455 -0.430304,-0.151515 v -0.484849 q 0.19394,0.09697 0.466667,0.181818 0.278788,0.07879 0.563637,0.07879 0.406061,0 0.587879,-0.127273 0.181818,-0.133333 0.181818,-0.351515 0,-0.121212 -0.06667,-0.218182 -0.06667,-0.09697 -0.242425,-0.19394 -0.169697,-0.09697 -0.490909,-0.218182 -0.315152,-0.121212 -0.539394,-0.242424 -0.224243,-0.121212 -0.345455,-0.290909 -0.121212,-0.169697 -0.121212,-0.436364 0,-0.412122 0.333333,-0.636364 0.339394,-0.224243 0.884849,-0.224243 0.29697,0 0.551516,0.06061 0.260606,0.05455 0.484848,0.157576 l -0.181818,0.424243 q -0.206061,-0.08485 -0.430303,-0.145455 -0.224243,-0.06061 -0.460606,-0.06061 -0.327273,0 -0.503031,0.109091 -0.169697,0.10303 -0.169697,0.284849 0,0.133333 0.07879,0.230303 0.07879,0.09091 0.260606,0.181818 0.187879,0.08485 0.49697,0.206061 0.309091,0.115152 0.527273,0.236364 0.218182,0.121212 0.333334,0.29697 0.115151,0.169697 0.115151,0.430303 z m 2.903033,0 q 0,0.472728 -0.351516,0.715152 -0.351515,0.242424 -0.945455,0.242424 -0.339394,0 -0.587879,-0.05455 -0.242424,-0.05455 -0.430303,-0.151515 v -0.484849 q 0.193939,0.09697 0.466667,0.181818 0.278788,0.07879 0.563636,0.07879 0.406061,0 0.58788,-0.127273 0.181818,-0.133333 0.181818,-0.351515 0,-0.121212 -0.06667,-0.218182 -0.06667,-0.09697 -0.242424,-0.19394 -0.169697,-0.09697 -0.49091,-0.218182 -0.315151,-0.121212 -0.539394,-0.242424 -0.224242,-0.121212 -0.345455,-0.290909 -0.121212,-0.169697 -0.121212,-0.436364 0,-0.412122 0.333334,-0.636364 0.339394,-0.224243 0.884849,-0.224243 0.29697,0 0.551515,0.06061 0.260606,0.05455 0.484849,0.157576 l -0.181818,0.424243 q -0.206061,-0.08485 -0.430304,-0.145455 -0.224242,-0.06061 -0.460606,-0.06061 -0.327273,0 -0.503031,0.109091 -0.169697,0.10303 -0.169697,0.284849 0,0.133333 0.07879,0.230303 0.07879,0.09091 0.260607,0.181818 0.187878,0.08485 0.49697,0.206061 0.309091,0.115152 0.527273,0.236364 0.218182,0.121212 0.333333,0.29697 0.115152,0.169697 0.115152,0.430303 z"
       id="text1"
       style="font-size:6.06061px;text-align:center;text-anchor:middle;fill:#999999;stroke-width:0.909091"
       aria-label="Css" />
  </g>
</svg>
