<?xml version="1.0" encoding="UTF-8" standalone="no"?>
<svg
   width="64"
   height="64"
   version="1.1"
   id="svg73"
   sodipodi:docname="filetype Template.svg"
   inkscape:version="1.4 (e7c3feb100, 2024-10-09)"
   xmlns:inkscape="http://www.inkscape.org/namespaces/inkscape"
   xmlns:sodipodi="http://sodipodi.sourceforge.net/DTD/sodipodi-0.dtd"
   xmlns:xlink="http://www.w3.org/1999/xlink"
   xmlns="http://www.w3.org/2000/svg"
   xmlns:svg="http://www.w3.org/2000/svg"
   xmlns:rdf="http://www.w3.org/1999/02/22-rdf-syntax-ns#"
   xmlns:cc="http://creativecommons.org/ns#"
   xmlns:dc="http://purl.org/dc/elements/1.1/">
  <metadata
     id="metadata77">
    <rdf:RDF>
      <cc:Work
         rdf:about="">
        <dc:format>image/svg+xml</dc:format>
        <dc:type
           rdf:resource="http://purl.org/dc/dcmitype/StillImage" />
      </cc:Work>
    </rdf:RDF>
  </metadata>
  <sodipodi:namedview
     pagecolor="#f5f7fa"
     bordercolor="#666666"
     borderopacity="1"
     objecttolerance="10"
     gridtolerance="10"
     guidetolerance="10"
     inkscape:pageopacity="0"
     inkscape:pageshadow="2"
     inkscape:window-width="1183"
     inkscape:window-height="973"
     id="namedview75"
     showgrid="false"
     inkscape:zoom="4.4470387"
     inkscape:cx="19.001409"
     inkscape:cy="8.2077092"
     inkscape:window-x="35"
     inkscape:window-y="32"
     inkscape:window-maximized="0"
     inkscape:current-layer="g877"
     inkscape:document-rotation="0"
     inkscape:pagecheckerboard="0"
     inkscape:showpageshadow="2"
     inkscape:deskcolor="#d1d1d1" />
  <defs
     id="defs29">
    <filter
       style="color-interpolation-filters:sRGB;"
       inkscape:label="Blur"
       id="filter6"
       x="-0.044145008"
       y="-0.044145008"
       width="1.08829"
       height="1.08829">
      <feGaussianBlur
         stdDeviation="1 1"
         result="blur"
         id="feGaussianBlur6" />
    </filter>
    <filter
       style="color-interpolation-filters:sRGB;"
       inkscape:label="Blur"
       id="filter7"
       x="-0.098100013"
       y="-0.098100021"
       width="1.1962"
       height="1.1962">
      <feGaussianBlur
         stdDeviation="2 2"
         result="blur"
         id="feGaussianBlur7" />
    </filter>
    <clipPath
       id="clip0_515_3621">
      <rect
         width="16"
         height="16"
         fill="#ffffff"
         transform="translate(0.00292969)"
         id="rect7969"
         x="0"
         y="0" />
    </clipPath>
    <filter
       style="color-interpolation-filters:sRGB;"
       inkscape:label="Blur"
       id="filter7349"
       x="-0.10485812"
       y="-0.10485813"
       width="1.2097162"
       height="1.2097163">
      <feGaussianBlur
         stdDeviation="2 2"
         result="blur"
         id="feGaussianBlur7347" />
    </filter>
    <filter
       style="color-interpolation-filters:sRGB"
       inkscape:label="Blur"
       id="filter1283"
       x="-0.082344266"
       y="-0.082344266"
       width="1.1646885"
       height="1.1646885">
      <feGaussianBlur
         stdDeviation="0.5 0.5"
         result="blur"
         id="feGaussianBlur1281" />
    </filter>
    <linearGradient
       inkscape:collect="always"
       xlink:href="#linearGradient883"
       id="linearGradient885"
       x1="2.1085808"
       y1="2.0236168"
       x2="14.846128"
       y2="15.071845"
       gradientUnits="userSpaceOnUse"
       gradientTransform="matrix(2.4606127,0,0,3.1451148,11.16612,5.3876879)" />
    <linearGradient
       inkscape:collect="always"
       id="linearGradient883">
      <stop
         style="stop-color:#808080;stop-opacity:1;"
         offset="0"
         id="stop879" />
      <stop
         style="stop-color:#3e3e3e;stop-opacity:1;"
         offset="0.5"
         id="stop1216" />
      <stop
         style="stop-color:#242424;stop-opacity:1;"
         offset="1"
         id="stop881" />
    </linearGradient>
    <linearGradient
       inkscape:collect="always"
       xlink:href="#linearGradient1134"
       id="linearGradient1136"
       x1="14.971222"
       y1="14.703373"
       x2="2.0756054"
       y2="2.0069976"
       gradientUnits="userSpaceOnUse"
       gradientTransform="matrix(2.4106819,0,0,3.1438568,11.58952,5.3983817)" />
    <linearGradient
       inkscape:collect="always"
       id="linearGradient1134">
      <stop
         style="stop-color:#161616;stop-opacity:1;"
         offset="0"
         id="stop1130" />
      <stop
         style="stop-color:#404040;stop-opacity:1;"
         offset="1"
         id="stop1132" />
    </linearGradient>
    <filter
       style="color-interpolation-filters:sRGB"
       inkscape:label="Blur"
       id="filter1694"
       x="-0.94955398"
       y="-0.2118907"
       width="2.899108"
       height="1.4237814">
      <feGaussianBlur
         stdDeviation="0.2 0.2"
         result="blur"
         id="feGaussianBlur1692" />
    </filter>
  </defs>
  <g
     id="g877"
     transform="matrix(1.1,0,0,1.1,-3.1845928,-3.2065454)">
    <path
       style="fill:#f5f7fa;stroke-width:0.204426;fill-opacity:1"
       d=""
       id="path3" />
    <rect
       style="fill:#000000;stroke:none;stroke-width:0.539739;stroke-dasharray:none;filter:url(#filter1283)"
       id="rect246-1"
       width="14.572964"
       height="14.572964"
       x="1.1932471"
       y="1.2138842"
       rx="2.1589575"
       ry="2.1589575"
       transform="matrix(2.4606127,0,0,3.1451146,11.16612,5.3876877)" />
    <rect
       style="fill:#000000;stroke:url(#linearGradient885);stroke-width:1.63561;stroke-dasharray:none"
       id="rect246"
       width="35.155312"
       height="44.93494"
       x="14.453793"
       y="9.6548424"
       rx="5.2081943"
       ry="5.181818" />
    <rect
       style="fill:url(#linearGradient1136);fill-opacity:1;stroke:none;stroke-width:1.31679;stroke-dasharray:none"
       id="rect246-5"
       width="31.13278"
       height="40.601383"
       x="16.465055"
       y="11.821622"
       rx="3.1818182"
       ry="3.1725934" />
    <path
       d="m 30.167812,17.460494 c -1.510909,0 -2.727273,1.216364 -2.727273,2.727273 v 1.818182 h 4.545454 v 0.909091 h -6.363636 c -2.014545,0 -3.636364,1.621818 -3.636364,3.636364 v 1.818181 c 0,2.014546 1.621819,3.636364 3.636364,3.636364 v -1.818182 c 0,-1.673636 1.125455,-3.062727 2.66,-3.489091 0.133636,-0.03727 0.27,-0.06545 0.408182,-0.09091 0.186364,-0.02909 0.373636,-0.05636 0.568182,-0.05636 h 6.568182 c 0.433636,-0.482728 0.704545,-1.115455 0.704545,-1.818182 v -4.545455 c 0,-1.510909 -1.216364,-2.727273 -2.727273,-2.727273 z m -0.909091,1.818182 c 0.503636,0 0.909091,0.405455 0.909091,0.909091 0,0.503637 -0.405455,0.909091 -0.909091,0.909091 -0.503637,0 -0.909091,-0.405454 -0.909091,-0.909091 0,-0.503636 0.405454,-0.909091 0.909091,-0.909091 m 9.090909,3.636364 v 1.818182 c 0,1.673636 -1.125455,3.062727 -2.66,3.489091 -0.133637,0.03727 -0.27,0.06545 -0.408182,0.09091 -0.186364,0.02909 -0.373636,0.05636 -0.568182,0.05636 h -6.568182 c -0.433636,0.482728 -0.704545,1.115455 -0.704545,1.818182 v 4.545455 c 0,1.510909 1.216364,2.727273 2.727273,2.727273 h 3.636363 c 1.510909,0 2.727273,-1.216364 2.727273,-2.727273 v -1.818182 h -4.545455 v -0.909091 h 6.363637 c 2.014545,0 3.636363,-1.621818 3.636363,-3.636364 v -1.818181 c 0,-2.014546 -1.621818,-3.636364 -3.636363,-3.636364 m -3.636364,10.909091 c 0.503637,0 0.909091,0.405454 0.909091,0.909091 0,0.503636 -0.405454,0.909091 -0.909091,0.909091 -0.503636,0 -0.909091,-0.405455 -0.909091,-0.909091 0,-0.503637 0.405455,-0.909091 0.909091,-0.909091"
       fill="#fde3a7"
       id="path11"
       style="fill:#999999;fill-opacity:1;stroke-width:0.909091" />
    <path
       d="m 23.985083,44.609996 q 0.848486,0 1.236365,0.333333 0.387879,0.333334 0.387879,0.939395 0,0.357576 -0.163637,0.672727 -0.157576,0.309092 -0.539394,0.503031 -0.375758,0.19394 -1.024243,0.19394 h -0.49697 v 1.684849 h -0.545455 v -4.327275 z m -0.04848,0.466667 h -0.551515 v 1.709092 h 0.436364 q 0.618182,0 0.921212,-0.2 0.303031,-0.200001 0.303031,-0.678789 0,-0.418182 -0.266667,-0.624243 -0.266667,-0.20606 -0.842425,-0.20606 z m 1.987878,0.612121 h 0.569697 l 0.703031,1.848486 q 0.09091,0.242425 0.163636,0.466667 0.07273,0.218182 0.109091,0.418182 h 0.02424 q 0.03636,-0.151515 0.115151,-0.393939 0.07879,-0.248485 0.163637,-0.49697 l 0.660606,-1.842426 h 0.575758 l -1.400001,3.696972 q -0.169697,0.460607 -0.442424,0.733334 -0.266667,0.272727 -0.739395,0.272727 -0.145454,0 -0.254545,-0.01818 -0.109091,-0.01212 -0.187879,-0.0303 V 49.91909 q 0.06667,0.01212 0.157576,0.02424 0.09697,0.01212 0.2,0.01212 0.278788,0 0.448485,-0.157576 0.175758,-0.157576 0.272727,-0.418182 l 0.169697,-0.430304 z m 4.684853,2.872729 q 0.121212,0 0.248485,-0.01818 0.127272,-0.02424 0.20606,-0.04848 v 0.40606 q -0.08485,0.04243 -0.242424,0.06667 -0.157576,0.0303 -0.303031,0.0303 -0.254545,0 -0.472727,-0.08485 -0.212121,-0.09091 -0.345455,-0.309091 -0.133333,-0.218182 -0.133333,-0.612122 v -1.89091 H 29.106297 V 45.84636 l 0.466667,-0.212121 0.212122,-0.69091 h 0.315151 v 0.745455 h 0.939395 v 0.412122 h -0.939395 v 1.878789 q 0,0.29697 0.139394,0.442424 0.145455,0.139394 0.369698,0.139394 z m 1.636365,-2.878789 q 0,0.242424 -0.0303,0.454545 h 0.03636 q 0.157576,-0.248485 0.424243,-0.375757 0.272727,-0.127273 0.587879,-0.127273 0.59394,0 0.89091,0.284848 0.29697,0.278788 0.29697,0.903031 v 2.115153 h -0.527273 v -2.078789 q 0,-0.781819 -0.727274,-0.781819 -0.545455,0 -0.751515,0.309091 -0.2,0.303031 -0.2,0.872728 v 1.678789 H 31.71236 v -4.606063 h 0.533334 z m 6.036367,1.624243 q 0,0.806061 -0.412122,1.248486 -0.40606,0.442424 -1.103031,0.442424 -0.430303,0 -0.769697,-0.193939 -0.333334,-0.2 -0.527273,-0.575758 -0.19394,-0.381819 -0.19394,-0.921213 0,-0.806061 0.406061,-1.242425 0.406061,-0.436364 1.103031,-0.436364 0.442425,0 0.775758,0.2 0.339394,0.19394 0.527273,0.569698 0.19394,0.369697 0.19394,0.909091 z m -2.454547,0 q 0,0.575758 0.224242,0.915152 0.230304,0.333334 0.727274,0.333334 0.490909,0 0.721212,-0.333334 0.230303,-0.339394 0.230303,-0.915152 0,-0.575758 -0.230303,-0.903031 -0.230303,-0.327273 -0.727273,-0.327273 -0.49697,0 -0.721213,0.327273 -0.224242,0.327273 -0.224242,0.903031 z m 4.860606,-1.678789 q 0.581819,0 0.878788,0.284849 0.29697,0.278788 0.29697,0.909091 v 2.115153 h -0.527273 v -2.078789 q 0,-0.781819 -0.727273,-0.781819 -0.539394,0 -0.745455,0.303031 -0.206061,0.30303 -0.206061,0.872728 v 1.684849 h -0.533333 v -3.248487 h 0.430303 l 0.07879,0.442425 h 0.0303 q 0.157576,-0.254546 0.436364,-0.375758 0.278788,-0.127273 0.587879,-0.127273 z"
       id="text5786"
       style="font-size:6.06061px;text-align:center;text-anchor:middle;fill:#999999;stroke-width:1.81818"
       aria-label="Python" />
  </g>
</svg>
