<?xml version="1.0" encoding="UTF-8" standalone="no"?>
<svg
   width="64"
   height="64"
   version="1.1"
   id="svg73"
   sodipodi:docname="filetype Template.svg"
   inkscape:version="1.4 (e7c3feb100, 2024-10-09)"
   xmlns:inkscape="http://www.inkscape.org/namespaces/inkscape"
   xmlns:sodipodi="http://sodipodi.sourceforge.net/DTD/sodipodi-0.dtd"
   xmlns:xlink="http://www.w3.org/1999/xlink"
   xmlns="http://www.w3.org/2000/svg"
   xmlns:svg="http://www.w3.org/2000/svg"
   xmlns:rdf="http://www.w3.org/1999/02/22-rdf-syntax-ns#"
   xmlns:cc="http://creativecommons.org/ns#"
   xmlns:dc="http://purl.org/dc/elements/1.1/">
  <metadata
     id="metadata77">
    <rdf:RDF>
      <cc:Work
         rdf:about="">
        <dc:format>image/svg+xml</dc:format>
        <dc:type
           rdf:resource="http://purl.org/dc/dcmitype/StillImage" />
      </cc:Work>
    </rdf:RDF>
  </metadata>
  <sodipodi:namedview
     pagecolor="#f5f7fa"
     bordercolor="#666666"
     borderopacity="1"
     objecttolerance="10"
     gridtolerance="10"
     guidetolerance="10"
     inkscape:pageopacity="0"
     inkscape:pageshadow="2"
     inkscape:window-width="1183"
     inkscape:window-height="973"
     id="namedview75"
     showgrid="false"
     inkscape:zoom="3.1445312"
     inkscape:cx="18.921739"
     inkscape:cy="8.1093169"
     inkscape:window-x="35"
     inkscape:window-y="32"
     inkscape:window-maximized="0"
     inkscape:current-layer="g877"
     inkscape:document-rotation="0"
     inkscape:pagecheckerboard="0"
     inkscape:showpageshadow="2"
     inkscape:deskcolor="#d1d1d1" />
  <defs
     id="defs29">
    <filter
       style="color-interpolation-filters:sRGB;"
       inkscape:label="Blur"
       id="filter6"
       x="-0.044145008"
       y="-0.044145008"
       width="1.08829"
       height="1.08829">
      <feGaussianBlur
         stdDeviation="1 1"
         result="blur"
         id="feGaussianBlur6" />
    </filter>
    <filter
       style="color-interpolation-filters:sRGB;"
       inkscape:label="Blur"
       id="filter7"
       x="-0.098100013"
       y="-0.098100021"
       width="1.1962"
       height="1.1962">
      <feGaussianBlur
         stdDeviation="2 2"
         result="blur"
         id="feGaussianBlur7" />
    </filter>
    <clipPath
       id="clip0_515_3621">
      <rect
         width="16"
         height="16"
         fill="#ffffff"
         transform="translate(0.00292969)"
         id="rect7969"
         x="0"
         y="0" />
    </clipPath>
    <filter
       style="color-interpolation-filters:sRGB;"
       inkscape:label="Blur"
       id="filter7349"
       x="-0.10485812"
       y="-0.10485813"
       width="1.2097162"
       height="1.2097163">
      <feGaussianBlur
         stdDeviation="2 2"
         result="blur"
         id="feGaussianBlur7347" />
    </filter>
    <filter
       style="color-interpolation-filters:sRGB"
       inkscape:label="Blur"
       id="filter1283"
       x="-0.082344266"
       y="-0.082344266"
       width="1.1646885"
       height="1.1646885">
      <feGaussianBlur
         stdDeviation="0.5 0.5"
         result="blur"
         id="feGaussianBlur1281" />
    </filter>
    <linearGradient
       inkscape:collect="always"
       xlink:href="#linearGradient883"
       id="linearGradient885"
       x1="2.1085808"
       y1="2.0236168"
       x2="14.846128"
       y2="15.071845"
       gradientUnits="userSpaceOnUse"
       gradientTransform="matrix(2.4606127,0,0,3.1451148,11.16612,5.3876879)" />
    <linearGradient
       inkscape:collect="always"
       id="linearGradient883">
      <stop
         style="stop-color:#808080;stop-opacity:1;"
         offset="0"
         id="stop879" />
      <stop
         style="stop-color:#3e3e3e;stop-opacity:1;"
         offset="0.5"
         id="stop1216" />
      <stop
         style="stop-color:#242424;stop-opacity:1;"
         offset="1"
         id="stop881" />
    </linearGradient>
    <linearGradient
       inkscape:collect="always"
       xlink:href="#linearGradient1134"
       id="linearGradient1136"
       x1="14.971222"
       y1="14.703373"
       x2="2.0756054"
       y2="2.0069976"
       gradientUnits="userSpaceOnUse"
       gradientTransform="matrix(2.4106819,0,0,3.1438568,11.58952,5.3983817)" />
    <linearGradient
       inkscape:collect="always"
       id="linearGradient1134">
      <stop
         style="stop-color:#161616;stop-opacity:1;"
         offset="0"
         id="stop1130" />
      <stop
         style="stop-color:#404040;stop-opacity:1;"
         offset="1"
         id="stop1132" />
    </linearGradient>
    <filter
       style="color-interpolation-filters:sRGB"
       inkscape:label="Blur"
       id="filter1694"
       x="-0.94955398"
       y="-0.2118907"
       width="2.899108"
       height="1.4237814">
      <feGaussianBlur
         stdDeviation="0.2 0.2"
         result="blur"
         id="feGaussianBlur1692" />
    </filter>
  </defs>
  <g
     id="g877"
     transform="matrix(1.1,0,0,1.1,-3.1845928,-3.2065454)">
    <path
       style="fill:#f5f7fa;stroke-width:0.204426;fill-opacity:1"
       d=""
       id="path3" />
    <rect
       style="fill:#000000;stroke:none;stroke-width:0.539739;stroke-dasharray:none;filter:url(#filter1283)"
       id="rect246-1"
       width="14.572964"
       height="14.572964"
       x="1.1932471"
       y="1.2138842"
       rx="2.1589575"
       ry="2.1589575"
       transform="matrix(2.4606127,0,0,3.1451146,11.16612,5.3876877)" />
    <rect
       style="fill:#000000;stroke:url(#linearGradient885);stroke-width:1.63561;stroke-dasharray:none"
       id="rect246"
       width="35.155312"
       height="44.93494"
       x="14.453793"
       y="9.6548424"
       rx="5.2081943"
       ry="5.181818" />
    <rect
       style="fill:url(#linearGradient1136);fill-opacity:1;stroke:none;stroke-width:1.31679;stroke-dasharray:none"
       id="rect246-5"
       width="31.13278"
       height="40.601383"
       x="16.465055"
       y="11.821622"
       rx="3.1818182"
       ry="3.1725934" />
    <path
       id="path6"
       style="fill:#999999;fill-opacity:1;stroke:none;stroke-width:0.160416;stroke-opacity:1"
       d="m 32.049968,17.783 c -0.536553,0.0044 -1.074842,0.03001 -1.358797,0.07359 -1.502528,0.230668 -2.78475,0.680872 -3.995243,1.404091 -0.812661,0.485531 -1.331555,0.89507 -2.062732,1.626784 -0.917355,0.918029 -1.448344,1.648879 -2.011776,2.76855 -0.149325,0.296747 -0.271759,0.554054 -0.271759,0.571828 0,0.01776 0.896187,0.02742 1.991016,0.0217 l 1.990074,-0.01039 0.165131,-0.269872 c 0.584728,-0.95704 1.500457,-1.903293 2.435457,-2.51755 1.965961,-1.291558 4.409296,-1.648457 6.698685,-0.978525 0.05881,0.01721 0.06709,-0.04894 0.08021,-0.613345 0.01675,-0.720301 0.06935,-0.892006 0.351022,-1.146488 l 0.15192,-0.136816 -0.395373,-0.147203 c -0.726124,-0.26853 -1.562681,-0.473563 -2.419415,-0.594475 -0.276848,-0.03908 -0.811864,-0.05623 -1.348419,-0.05189 z m 6.296709,1.188004 c -0.143545,5.85e-4 -0.306331,0.0021 -0.492565,0.0038 l -1.301237,0.01132 -0.108515,0.100022 c -0.209486,0.193387 -0.218551,0.260462 -0.216088,1.553182 0.0025,1.324192 0.01625,1.417137 0.234017,1.563561 0.13507,0.0908 0.148169,0.09153 1.457876,0.09153 1.287523,0 1.323916,-0.0019 1.441835,-0.08587 0.220724,-0.15717 0.232129,-0.235122 0.232129,-1.564506 0,-1.138565 -0.005,-1.22233 -0.0821,-1.381443 -0.126081,-0.260431 -0.160552,-0.295568 -1.165358,-0.291559 z m 1.789083,2.460935 -0.02737,0.331207 c -0.0427,0.515115 -0.244276,0.823882 -0.648259,0.992676 l -0.150977,0.06322 0.186835,0.229297 c 0.564356,0.695008 1.125534,1.713015 1.400315,2.540198 0.429986,1.2944 0.526685,2.758254 0.26893,4.070733 l -0.07266,0.36612 0.504832,0.01794 c 0.419923,0.01456 0.535349,0.03284 0.694496,0.109457 0.105053,0.05057 0.201244,0.109255 0.214199,0.130218 0.039,0.06312 0.04792,0.02973 0.121726,-0.469916 0.08872,-0.600527 0.100706,-2.171744 0.02075,-2.745905 -0.181756,-1.305351 -0.562474,-2.515539 -1.135162,-3.609307 -0.280093,-0.534946 -0.8092,-1.341186 -1.144599,-1.744735 z m -18.44757,3.368686 -0.17268,0.09247 c -0.265484,0.141754 -0.47582,0.353664 -0.598248,0.602966 l -0.111347,0.22741 -0.01132,2.562844 c -0.01237,2.838539 -0.01374,2.820173 0.243451,3.159206 0.145192,0.191385 0.450208,0.414557 0.644485,0.470861 0.06915,0.02005 1.283385,0.03765 2.697781,0.03963 2.815632,0.004 2.732331,0.01014 3.07428,-0.235902 0.238452,-0.171578 0.43274,-0.474781 0.495394,-0.773761 0.03944,-0.188189 0.05316,-0.818143 0.05378,-2.559069 8.91e-4,-2.369815 -0.01432,-2.638809 -0.160412,-2.925189 -0.102987,-0.201872 -0.371509,-0.458696 -0.59353,-0.568054 l -0.18778,-0.09342 h -2.6874 z m 18.657052,5.75602 c -1.670757,-9.9e-4 -1.725455,0.0049 -1.946667,0.211368 -0.207909,0.19413 -0.207593,0.188329 -0.207593,1.932512 0,1.751569 0.0036,1.788266 0.211367,1.979694 0.05589,0.05151 0.170913,0.118359 0.255719,0.14909 0.123664,0.04484 0.463907,0.05453 1.718312,0.04718 1.768179,-0.01037 1.772024,-0.01139 1.97875,-0.323657 l 0.106628,-0.161358 0.01227,-1.587153 c 0.008,-1.033654 -0.0025,-1.637111 -0.0302,-1.731522 -0.05953,-0.203573 -0.188498,-0.353997 -0.37933,-0.440666 -0.150104,-0.06818 -0.291977,-0.07466 -1.719259,-0.07549 z M 24.48505,32.481608 c -1.174538,-5.85e-4 -2.135389,0.01357 -2.135389,0.03114 0,0.01756 0.122435,0.275083 0.271759,0.571827 0.311716,0.619449 0.642868,1.156601 1.056844,1.713596 0.37071,0.498778 1.503875,1.630889 2.011775,2.009889 1.613489,1.204003 3.444456,1.922093 5.421981,2.126897 0.493518,0.0511 1.957134,0.01887 2.44678,-0.05378 2.329588,-0.345707 4.28656,-1.308008 5.934363,-2.919529 l 0.562391,-0.550124 -0.622783,-0.0019 c -0.709557,-0.0016 -0.990926,-0.05563 -1.26255,-0.242511 -0.09597,-0.06602 -0.214745,-0.17842 -0.264211,-0.250055 -0.04946,-0.07163 -0.09486,-0.137165 -0.100966,-0.145317 -0.0061,-0.0082 -0.125867,0.05771 -0.266097,0.146259 -2.518264,1.590433 -5.862341,1.593038 -8.421718,0.0056 -0.891776,-0.553112 -1.814883,-1.4272 -2.356193,-2.23165 l -0.140597,-0.209481 z" />
    <path
       d="m 26.348531,46.767573 q 0,0.672727 -0.230303,1.175758 -0.224243,0.49697 -0.666667,0.775758 -0.442425,0.278788 -1.096971,0.278788 -0.672727,0 -1.121213,-0.278788 -0.442424,-0.278788 -0.660606,-0.781819 -0.218182,-0.50303 -0.218182,-1.175758 0,-0.666667 0.218182,-1.163637 0.218182,-0.49697 0.660606,-0.775758 0.448486,-0.278788 1.127274,-0.278788 0.648485,0 1.09091,0.278788 0.442424,0.272727 0.666667,0.775758 0.230303,0.49697 0.230303,1.169698 z m -3.418184,0 q 0,0.818182 0.345455,1.29091 0.345454,0.466667 1.078788,0.466667 0.739395,0 1.078789,-0.466667 0.339394,-0.472728 0.339394,-1.29091 0,-0.818183 -0.339394,-1.278789 -0.339394,-0.466667 -1.072728,-0.466667 -0.733334,0 -1.084849,0.466667 -0.345455,0.460606 -0.345455,1.278789 z m 5.606065,2.230304 q -0.430304,0 -0.769698,-0.175757 -0.333333,-0.175758 -0.527273,-0.545455 -0.187879,-0.369698 -0.187879,-0.945455 0,-0.600001 0.2,-0.975759 0.200001,-0.375757 0.539395,-0.551515 0.345454,-0.175758 0.781818,-0.175758 0.248485,0 0.478788,0.05455 0.230304,0.04848 0.375758,0.121212 l -0.163636,0.442424 q -0.145455,-0.05455 -0.339394,-0.10303 -0.19394,-0.04848 -0.363637,-0.04848 -0.957576,0 -0.957576,1.230304 0,0.587879 0.230303,0.903031 0.236364,0.309091 0.69697,0.309091 0.266667,0 0.466667,-0.05455 0.206061,-0.05455 0.375758,-0.133333 v 0.472728 q -0.163637,0.08485 -0.363637,0.127272 -0.193939,0.04848 -0.472727,0.04848 z m 2.690908,-0.436364 q 0.121212,0 0.248485,-0.01818 0.127273,-0.02424 0.20606,-0.04848 v 0.40606 q -0.08485,0.04243 -0.242424,0.06667 -0.157576,0.0303 -0.30303,0.0303 -0.254546,0 -0.472728,-0.08485 -0.212121,-0.09091 -0.345455,-0.309091 -0.133333,-0.218182 -0.133333,-0.612122 v -1.89091 H 29.724289 V 45.84636 l 0.466666,-0.212121 0.212122,-0.69091 h 0.315152 v 0.745455 h 0.939394 v 0.412122 h -0.939394 v 1.878789 q 0,0.29697 0.139394,0.442424 0.145454,0.139394 0.369697,0.139394 z m 2.333334,-2.927274 q 0.59394,0 0.878789,0.260606 0.284849,0.260606 0.284849,0.830304 v 2.212122 h -0.38788 l -0.10303,-0.460606 h -0.02424 q -0.212122,0.266667 -0.448485,0.393939 -0.230304,0.127273 -0.642425,0.127273 -0.442425,0 -0.733334,-0.230303 -0.290909,-0.236364 -0.290909,-0.733334 0,-0.484849 0.381818,-0.745455 0.381819,-0.266667 1.175759,-0.290909 l 0.551515,-0.01818 v -0.193939 q 0,-0.406061 -0.175758,-0.563637 -0.175757,-0.157576 -0.49697,-0.157576 -0.254545,0 -0.484848,0.07879 -0.230304,0.07273 -0.430304,0.169697 l -0.163636,-0.4 q 0.212121,-0.115152 0.50303,-0.19394 0.29091,-0.08485 0.606061,-0.08485 z m 0.157576,1.733334 q -0.606061,0.02424 -0.842424,0.19394 -0.230304,0.169697 -0.230304,0.478788 0,0.272727 0.163637,0.4 0.169697,0.127273 0.430303,0.127273 0.412122,0 0.684849,-0.224243 0.272727,-0.230303 0.272727,-0.70303 v -0.29091 z m 2.72728,1.569698 -1.230304,-3.248487 h 0.569697 l 0.69091,1.915153 q 0.04848,0.133333 0.10303,0.29697 0.05455,0.163636 0.09697,0.315152 0.04242,0.145454 0.06061,0.248485 h 0.02424 q 0.02424,-0.103031 0.06667,-0.254546 0.04848,-0.151515 0.103031,-0.315152 0.06061,-0.163636 0.10303,-0.290909 l 0.69091,-1.915153 h 0.569697 l -1.236365,3.248487 z m 3.618181,-3.309093 q 0.418182,0 0.715152,0.181818 0.30303,0.181819 0.460606,0.515152 0.163637,0.327273 0.163637,0.769698 v 0.321212 h -2.224244 q 0.01212,0.551516 0.278788,0.842425 0.272727,0.284848 0.757576,0.284848 0.309091,0 0.545455,-0.05455 0.242424,-0.06061 0.49697,-0.169697 v 0.466667 q -0.248485,0.109091 -0.490909,0.157576 -0.242425,0.05455 -0.575758,0.05455 -0.460607,0 -0.818183,-0.187879 -0.351515,-0.187879 -0.551515,-0.557576 -0.19394,-0.375758 -0.19394,-0.915152 0,-0.533334 0.175758,-0.915152 0.181818,-0.381818 0.503031,-0.587879 0.327273,-0.206061 0.757576,-0.206061 z m -0.0061,0.436364 q -0.381818,0 -0.606061,0.248485 -0.218182,0.242424 -0.260606,0.678788 h 1.654547 q -0.0061,-0.412121 -0.19394,-0.666667 -0.187879,-0.260606 -0.59394,-0.260606 z"
       id="text5786"
       style="font-size:6.06061px;text-align:center;text-anchor:middle;fill:#999999;stroke-width:1.81818"
       aria-label="Octave" />
  </g>
</svg>
