<?xml version="1.0" encoding="UTF-8" standalone="no"?>
<svg
   width="64"
   height="64"
   version="1.1"
   id="svg73"
   sodipodi:docname="filetype Template.svg"
   inkscape:version="1.4 (e7c3feb100, 2024-10-09)"
   xmlns:inkscape="http://www.inkscape.org/namespaces/inkscape"
   xmlns:sodipodi="http://sodipodi.sourceforge.net/DTD/sodipodi-0.dtd"
   xmlns:xlink="http://www.w3.org/1999/xlink"
   xmlns="http://www.w3.org/2000/svg"
   xmlns:svg="http://www.w3.org/2000/svg"
   xmlns:rdf="http://www.w3.org/1999/02/22-rdf-syntax-ns#"
   xmlns:cc="http://creativecommons.org/ns#"
   xmlns:dc="http://purl.org/dc/elements/1.1/">
  <metadata
     id="metadata77">
    <rdf:RDF>
      <cc:Work
         rdf:about="">
        <dc:format>image/svg+xml</dc:format>
        <dc:type
           rdf:resource="http://purl.org/dc/dcmitype/StillImage" />
      </cc:Work>
    </rdf:RDF>
  </metadata>
  <sodipodi:namedview
     pagecolor="#f5f7fa"
     bordercolor="#666666"
     borderopacity="1"
     objecttolerance="10"
     gridtolerance="10"
     guidetolerance="10"
     inkscape:pageopacity="0"
     inkscape:pageshadow="2"
     inkscape:window-width="1183"
     inkscape:window-height="973"
     id="namedview75"
     showgrid="false"
     inkscape:zoom="6.2890624"
     inkscape:cx="19.001243"
     inkscape:cy="33.629814"
     inkscape:window-x="35"
     inkscape:window-y="32"
     inkscape:window-maximized="0"
     inkscape:current-layer="g877"
     inkscape:document-rotation="0"
     inkscape:pagecheckerboard="0"
     inkscape:showpageshadow="2"
     inkscape:deskcolor="#d1d1d1" />
  <defs
     id="defs29">
    <filter
       style="color-interpolation-filters:sRGB;"
       inkscape:label="Blur"
       id="filter6"
       x="-0.044145008"
       y="-0.044145008"
       width="1.08829"
       height="1.08829">
      <feGaussianBlur
         stdDeviation="1 1"
         result="blur"
         id="feGaussianBlur6" />
    </filter>
    <filter
       style="color-interpolation-filters:sRGB;"
       inkscape:label="Blur"
       id="filter7"
       x="-0.098100013"
       y="-0.098100021"
       width="1.1962"
       height="1.1962">
      <feGaussianBlur
         stdDeviation="2 2"
         result="blur"
         id="feGaussianBlur7" />
    </filter>
    <clipPath
       id="clip0_515_3621">
      <rect
         width="16"
         height="16"
         fill="#ffffff"
         transform="translate(0.00292969)"
         id="rect7969"
         x="0"
         y="0" />
    </clipPath>
    <filter
       style="color-interpolation-filters:sRGB;"
       inkscape:label="Blur"
       id="filter7349"
       x="-0.10485812"
       y="-0.10485813"
       width="1.2097162"
       height="1.2097163">
      <feGaussianBlur
         stdDeviation="2 2"
         result="blur"
         id="feGaussianBlur7347" />
    </filter>
    <filter
       style="color-interpolation-filters:sRGB"
       inkscape:label="Blur"
       id="filter1283"
       x="-0.082344266"
       y="-0.082344266"
       width="1.1646885"
       height="1.1646885">
      <feGaussianBlur
         stdDeviation="0.5 0.5"
         result="blur"
         id="feGaussianBlur1281" />
    </filter>
    <linearGradient
       inkscape:collect="always"
       xlink:href="#linearGradient883"
       id="linearGradient885"
       x1="2.1085808"
       y1="2.0236168"
       x2="14.846128"
       y2="15.071845"
       gradientUnits="userSpaceOnUse"
       gradientTransform="matrix(2.4606127,0,0,3.1451148,11.16612,5.3876879)" />
    <linearGradient
       inkscape:collect="always"
       id="linearGradient883">
      <stop
         style="stop-color:#808080;stop-opacity:1;"
         offset="0"
         id="stop879" />
      <stop
         style="stop-color:#3e3e3e;stop-opacity:1;"
         offset="0.5"
         id="stop1216" />
      <stop
         style="stop-color:#242424;stop-opacity:1;"
         offset="1"
         id="stop881" />
    </linearGradient>
    <linearGradient
       inkscape:collect="always"
       xlink:href="#linearGradient1134"
       id="linearGradient1136"
       x1="14.971222"
       y1="14.703373"
       x2="2.0756054"
       y2="2.0069976"
       gradientUnits="userSpaceOnUse"
       gradientTransform="matrix(2.4106819,0,0,3.1438568,11.58952,5.3983817)" />
    <linearGradient
       inkscape:collect="always"
       id="linearGradient1134">
      <stop
         style="stop-color:#161616;stop-opacity:1;"
         offset="0"
         id="stop1130" />
      <stop
         style="stop-color:#404040;stop-opacity:1;"
         offset="1"
         id="stop1132" />
    </linearGradient>
    <filter
       style="color-interpolation-filters:sRGB"
       inkscape:label="Blur"
       id="filter1694"
       x="-0.94955398"
       y="-0.2118907"
       width="2.899108"
       height="1.4237814">
      <feGaussianBlur
         stdDeviation="0.2 0.2"
         result="blur"
         id="feGaussianBlur1692" />
    </filter>
  </defs>
  <g
     id="g877"
     transform="matrix(1.1,0,0,1.1,-3.1845928,-3.2065454)">
    <path
       style="fill:#f5f7fa;stroke-width:0.204426;fill-opacity:1"
       d=""
       id="path3" />
    <rect
       style="fill:#000000;stroke:none;stroke-width:0.539739;stroke-dasharray:none;filter:url(#filter1283)"
       id="rect246-1"
       width="14.572964"
       height="14.572964"
       x="1.1932471"
       y="1.2138842"
       rx="2.1589575"
       ry="2.1589575"
       transform="matrix(2.4606127,0,0,3.1451146,11.16612,5.3876877)" />
    <rect
       style="fill:#000000;stroke:url(#linearGradient885);stroke-width:1.63561;stroke-dasharray:none"
       id="rect246"
       width="35.155312"
       height="44.93494"
       x="14.453793"
       y="9.6548424"
       rx="5.2081943"
       ry="5.181818" />
    <rect
       style="fill:url(#linearGradient1136);fill-opacity:1;stroke:none;stroke-width:1.31679;stroke-dasharray:none"
       id="rect246-5"
       width="31.13278"
       height="40.601383"
       x="16.465055"
       y="11.821622"
       rx="3.1818182"
       ry="3.1725934" />
    <g
       id="g6300"
       transform="matrix(0.95265729,0,0,0.9526572,0.36221106,-2.621551)"
       style="fill:#999999;fill-opacity:1;stroke:none;stroke-width:0.858842;stroke-dasharray:none;stroke-opacity:0.3">
      <path
         style="fill:#999999;fill-opacity:1;stroke:none;stroke-width:0.858842;stroke-dasharray:none;stroke-opacity:0.3;stop-color:#000000"
         d="M 25.758884,32.469731 V 22.080984 h 0.783008 c 0.430655,0 1.022559,0.0687 1.31534,0.15267 0.292784,0.08397 3.61943,2.065273 7.39255,4.402898 4.810258,2.980181 6.953237,4.397964 7.171505,4.744631 0.466244,0.740517 0.323216,1.946123 -0.301653,2.542682 -0.261464,0.249617 -3.512537,2.332147 -7.224609,4.627846 l -6.749221,4.173994 -1.19346,0.06638 -1.19346,0.06638 z"
         id="path1505" />
    </g>
    <path
       d="m 29.92126,44.609996 -1.151516,4.327275 h -0.551515 l -0.842425,-2.836365 q -0.04848,-0.175758 -0.09697,-0.351516 -0.04848,-0.175757 -0.07879,-0.309091 -0.0303,-0.139394 -0.04242,-0.193939 -0.0061,0.07879 -0.06667,0.339394 -0.05455,0.254546 -0.139394,0.533334 l -0.818182,2.818183 h -0.551516 l -1.145455,-4.327275 h 0.569697 l 0.672728,2.642426 q 0.07273,0.278788 0.121212,0.539394 0.05455,0.260606 0.08485,0.490909 0.0303,-0.236364 0.09091,-0.515152 0.06061,-0.278788 0.139394,-0.545454 l 0.763637,-2.612123 h 0.563636 l 0.79394,2.630304 q 0.08485,0.278788 0.145455,0.557576 0.06061,0.272728 0.09091,0.484849 0.0303,-0.224242 0.08485,-0.484849 0.05455,-0.266666 0.127272,-0.551515 l 0.666668,-2.636365 z m 4.096972,1.018182 q 0.551516,0 0.824243,0.284849 0.272728,0.278788 0.272728,0.909091 v 2.115153 H 34.58793 v -2.09091 q 0,-0.769698 -0.660607,-0.769698 -0.472727,0 -0.678788,0.272728 -0.2,0.272727 -0.2,0.79394 v 1.79394 h -0.527273 v -2.09091 q 0,-0.769698 -0.666667,-0.769698 -0.49091,0 -0.678789,0.303031 -0.187879,0.30303 -0.187879,0.872728 v 1.684849 h -0.533333 v -3.248487 h 0.430303 l 0.07879,0.442425 h 0.0303 q 0.151515,-0.254546 0.406061,-0.375758 0.260606,-0.127273 0.551515,-0.127273 0.763637,0 0.99394,0.545455 h 0.0303 q 0.163636,-0.278788 0.442424,-0.412121 0.284849,-0.133334 0.6,-0.133334 z m 3.648484,0 q 0.6,0 0.963637,0.418182 0.369697,0.418182 0.369697,1.260607 0,0.830304 -0.369697,1.260607 -0.363637,0.430303 -0.969698,0.430303 -0.375758,0 -0.624243,-0.139394 -0.242424,-0.145454 -0.381818,-0.333333 h -0.03636 q 0.01212,0.10303 0.02424,0.260606 0.01212,0.157576 0.01212,0.272727 v 1.333334 H 36.12126 v -4.703033 h 0.436364 l 0.07273,0.442425 h 0.02424 q 0.145455,-0.212122 0.381818,-0.357576 0.236364,-0.145455 0.630304,-0.145455 z m -0.09697,0.448485 q -0.49697,0 -0.703031,0.278788 -0.2,0.278788 -0.212121,0.848486 v 0.10303 q 0,0.6 0.19394,0.927273 0.2,0.321213 0.733333,0.321213 0.29697,0 0.484849,-0.163637 0.19394,-0.163636 0.284849,-0.442424 0.09697,-0.284849 0.09697,-0.648486 0,-0.557576 -0.218182,-0.890909 -0.212122,-0.333334 -0.660607,-0.333334 z"
       id="text5786"
       style="font-size:6.06061px;text-align:center;text-anchor:middle;fill:#999999;stroke-width:1.81818"
       aria-label="Wmp" />
  </g>
</svg>
