<?xml version="1.0" encoding="UTF-8" standalone="no"?>
<svg
   width="64"
   height="64"
   version="1.1"
   id="svg73"
   sodipodi:docname="apk.svg"
   inkscape:version="1.2.2 (b0a8486541, 2022-12-01)"
   xmlns:inkscape="http://www.inkscape.org/namespaces/inkscape"
   xmlns:sodipodi="http://sodipodi.sourceforge.net/DTD/sodipodi-0.dtd"
   xmlns:xlink="http://www.w3.org/1999/xlink"
   xmlns="http://www.w3.org/2000/svg"
   xmlns:svg="http://www.w3.org/2000/svg"
   xmlns:rdf="http://www.w3.org/1999/02/22-rdf-syntax-ns#"
   xmlns:cc="http://creativecommons.org/ns#"
   xmlns:dc="http://purl.org/dc/elements/1.1/">
  <metadata
     id="metadata77">
    <rdf:RDF>
      <cc:Work
         rdf:about="">
        <dc:format>image/svg+xml</dc:format>
        <dc:type
           rdf:resource="http://purl.org/dc/dcmitype/StillImage" />
      </cc:Work>
    </rdf:RDF>
  </metadata>
  <sodipodi:namedview
     pagecolor="#f5f7fa"
     bordercolor="#666666"
     borderopacity="1"
     objecttolerance="10"
     gridtolerance="10"
     guidetolerance="10"
     inkscape:pageopacity="0"
     inkscape:pageshadow="2"
     inkscape:window-width="1226"
     inkscape:window-height="603"
     id="namedview75"
     showgrid="false"
     inkscape:zoom="3.1445312"
     inkscape:cx="19.080746"
     inkscape:cy="7.9503106"
     inkscape:window-x="35"
     inkscape:window-y="32"
     inkscape:window-maximized="0"
     inkscape:current-layer="g877"
     inkscape:document-rotation="0"
     inkscape:pagecheckerboard="0"
     inkscape:showpageshadow="2"
     inkscape:deskcolor="#d1d1d1" />
  <defs
     id="defs29">
    <filter
       style="color-interpolation-filters:sRGB;"
       inkscape:label="Blur"
       id="filter6"
       x="-0.044145008"
       y="-0.044145008"
       width="1.08829"
       height="1.08829">
      <feGaussianBlur
         stdDeviation="1 1"
         result="blur"
         id="feGaussianBlur6" />
    </filter>
    <filter
       style="color-interpolation-filters:sRGB;"
       inkscape:label="Blur"
       id="filter7"
       x="-0.098100013"
       y="-0.098100021"
       width="1.1962"
       height="1.1962">
      <feGaussianBlur
         stdDeviation="2 2"
         result="blur"
         id="feGaussianBlur7" />
    </filter>
    <clipPath
       id="clip0_515_3621">
      <rect
         width="16"
         height="16"
         fill="#ffffff"
         transform="translate(0.00292969)"
         id="rect7969"
         x="0"
         y="0" />
    </clipPath>
    <filter
       style="color-interpolation-filters:sRGB;"
       inkscape:label="Blur"
       id="filter7349"
       x="-0.10485812"
       y="-0.10485813"
       width="1.2097162"
       height="1.2097163">
      <feGaussianBlur
         stdDeviation="2 2"
         result="blur"
         id="feGaussianBlur7347" />
    </filter>
    <filter
       style="color-interpolation-filters:sRGB"
       inkscape:label="Blur"
       id="filter1283"
       x="-0.082344266"
       y="-0.082344266"
       width="1.1646885"
       height="1.1646885">
      <feGaussianBlur
         stdDeviation="0.5 0.5"
         result="blur"
         id="feGaussianBlur1281" />
    </filter>
    <linearGradient
       inkscape:collect="always"
       xlink:href="#linearGradient883"
       id="linearGradient885"
       x1="2.1085808"
       y1="2.0236168"
       x2="14.846128"
       y2="15.071845"
       gradientUnits="userSpaceOnUse"
       gradientTransform="matrix(2.4606127,0,0,3.1451148,11.16612,5.3876879)" />
    <linearGradient
       inkscape:collect="always"
       id="linearGradient883">
      <stop
         style="stop-color:#808080;stop-opacity:1;"
         offset="0"
         id="stop879" />
      <stop
         style="stop-color:#3e3e3e;stop-opacity:1;"
         offset="0.5"
         id="stop1216" />
      <stop
         style="stop-color:#242424;stop-opacity:1;"
         offset="1"
         id="stop881" />
    </linearGradient>
    <linearGradient
       inkscape:collect="always"
       xlink:href="#linearGradient1134"
       id="linearGradient1136"
       x1="14.971222"
       y1="14.703373"
       x2="2.0756054"
       y2="2.0069976"
       gradientUnits="userSpaceOnUse"
       gradientTransform="matrix(2.4106819,0,0,3.1438568,11.58952,5.3983817)" />
    <linearGradient
       inkscape:collect="always"
       id="linearGradient1134">
      <stop
         style="stop-color:#161616;stop-opacity:1;"
         offset="0"
         id="stop1130" />
      <stop
         style="stop-color:#404040;stop-opacity:1;"
         offset="1"
         id="stop1132" />
    </linearGradient>
    <filter
       style="color-interpolation-filters:sRGB"
       inkscape:label="Blur"
       id="filter1694"
       x="-0.94955398"
       y="-0.2118907"
       width="2.899108"
       height="1.4237814">
      <feGaussianBlur
         stdDeviation="0.2 0.2"
         result="blur"
         id="feGaussianBlur1692" />
    </filter>
  </defs>
  <g
     id="g877"
     transform="matrix(1.1,0,0,1.1,-3.1845928,-3.2065454)">
    <path
       style="fill:#f5f7fa;stroke-width:0.204426;fill-opacity:1"
       d=""
       id="path3" />
    <rect
       style="fill:#000000;stroke:none;stroke-width:0.539739;stroke-dasharray:none;filter:url(#filter1283)"
       id="rect246-1"
       width="14.572964"
       height="14.572964"
       x="1.1932471"
       y="1.2138842"
       rx="2.1589575"
       ry="2.1589575"
       transform="matrix(2.4606127,0,0,3.1451146,11.16612,5.3876877)" />
    <rect
       style="fill:#000000;stroke:url(#linearGradient885);stroke-width:1.63561;stroke-dasharray:none"
       id="rect246"
       width="35.155312"
       height="44.93494"
       x="14.453793"
       y="9.6548424"
       rx="5.2081943"
       ry="5.181818" />
    <rect
       style="fill:url(#linearGradient1136);fill-opacity:1;stroke:none;stroke-width:1.31679;stroke-dasharray:none"
       id="rect246-5"
       width="31.13278"
       height="40.601383"
       x="16.465055"
       y="11.821622"
       rx="3.1818182"
       ry="3.1725934" />
    <path
       d="m 21.968503,22.707486 h -2.185528 c 0,-1.362273 0.495573,-2.49259 1.488191,-3.390217 1.000718,-0.905728 2.268,-1.358592 3.804055,-1.358592 1.622945,0 2.893909,0.4293 3.815836,1.287164 0.921191,0.859336 1.381418,2.052245 1.381418,3.579464 0,0.748145 -0.243,1.472727 -0.731945,2.173745 -0.480109,0.701019 -1.138418,1.224572 -1.972718,1.5714 0.945491,0.298963 1.673754,0.796009 2.185527,1.488191 0.519136,0.692918 0.779809,1.540472 0.779809,2.539718 0,1.544891 -0.503673,2.768727 -1.512491,3.674454 -1.008082,0.905728 -2.318809,1.358592 -3.933654,1.358592 -1.61411,0 -2.929991,-0.436664 -3.945437,-1.311464 -1.008082,-0.874064 -1.512491,-2.027945 -1.512491,-3.460909 h 2.197309 c 0,0.904991 0.295282,1.629573 0.886582,2.173745 0.589827,0.5427 1.382155,0.814419 2.374037,0.814419 1.055209,0 1.862263,-0.2754 2.4219,-0.8262 0.5589,-0.552273 0.838718,-1.343127 0.838718,-2.37551 0,-0.999245 -0.3078,-1.767273 -0.921191,-2.303345 -0.614864,-0.5346 -1.499973,-0.810736 -2.659009,-0.8262 h -1.641355 v -1.784209 h 1.641355 c 1.032382,-0.01546 1.843118,-0.287919 2.434418,-0.815155 0.590564,-0.527972 0.885109,-1.240036 0.885109,-2.1384 0,-2.015427 -1.002927,-3.023508 -3.011727,-3.023508 -0.944755,0 -1.701,0.271717 -2.268,0.814417 -0.5589,0.536073 -0.838718,1.248136 -0.838718,2.1384 z m 22.374409,5.351155 c 0,2.5596 -0.4374,4.462364 -1.311464,5.706082 -0.874064,1.244454 -2.240755,1.866682 -4.099336,1.866682 -1.835019,0 -3.193609,-0.606764 -4.075037,-1.819555 -0.8829,-1.220154 -1.339445,-3.039709 -1.371109,-5.457927 V 25.43645 c 0,-2.528673 0.4374,-4.4064 1.3122,-5.634654 0.873327,-1.228255 2.244437,-1.843119 4.110382,-1.843119 1.851218,0 3.213491,0.594983 4.087555,1.784209 0.874063,1.181127 1.322509,3.008046 1.346809,5.481491 z m -2.185528,-2.9889 c 0,-1.850482 -0.259936,-3.196555 -0.779072,-4.039691 -0.520609,-0.8505 -1.343128,-1.275381 -2.469764,-1.275381 -1.1178,0 -1.932955,0.4212 -2.445464,1.2636 -0.511772,0.843136 -0.775391,2.1384 -0.791591,3.886527 v 3.496254 c 0,1.858582 0.268037,3.233373 0.803373,4.123636 0.544173,0.882164 1.363009,1.32251 2.457246,1.32251 1.079509,0 1.878463,-0.416783 2.3976,-1.251819 0.528709,-0.835036 0.804109,-2.150181 0.827672,-3.945436 z"
       style="clip-rule:evenodd;fill:#999999;fill-opacity:1;fill-rule:nonzero;stroke-width:0.736364;stroke-linejoin:round;stroke-miterlimit:2"
       id="path3-6" />
    <g
       aria-label="Calendar"
       id="text5786"
       style="font-size:6.06061px;text-align:center;text-anchor:middle;fill:#999999;stroke-width:1.81818">
      <path
         d="m 21.49701,45.028178 q -0.69697,0 -1.096971,0.466667 -0.4,0.466667 -0.4,1.278788 0,0.806062 0.369697,1.278789 0.375758,0.466667 1.121213,0.466667 0.284849,0 0.539394,-0.04848 0.254546,-0.04848 0.49697,-0.121212 v 0.472728 q -0.242424,0.09091 -0.50303,0.133333 -0.254546,0.04242 -0.612122,0.04242 -0.660606,0 -1.103031,-0.272727 -0.442424,-0.272728 -0.666667,-0.775758 -0.218182,-0.503031 -0.218182,-1.181819 0,-0.654546 0.236364,-1.151516 0.242424,-0.503031 0.709091,-0.781819 0.466667,-0.284848 1.133334,-0.284848 0.684849,0 1.193941,0.254545 l -0.218182,0.460607 q -0.200001,-0.09091 -0.448486,-0.163637 -0.242424,-0.07273 -0.533333,-0.07273 z"
         id="path4728" />
      <path
         d="m 24.630345,45.634239 q 0.59394,0 0.878788,0.260606 0.284849,0.260606 0.284849,0.830304 v 2.212122 h -0.387879 l -0.10303,-0.460606 h -0.02424 q -0.212121,0.266667 -0.448485,0.393939 -0.230303,0.127273 -0.642425,0.127273 -0.442424,0 -0.733333,-0.230303 -0.29091,-0.236364 -0.29091,-0.733334 0,-0.484849 0.381819,-0.745455 0.381818,-0.266667 1.175758,-0.290909 l 0.551516,-0.01818 v -0.193939 q 0,-0.406061 -0.175758,-0.563637 -0.175758,-0.157576 -0.49697,-0.157576 -0.254546,0 -0.484849,0.07879 -0.230303,0.07273 -0.430303,0.169697 l -0.163637,-0.4 q 0.212122,-0.115152 0.503031,-0.19394 0.290909,-0.08485 0.606061,-0.08485 z m 0.157576,1.733334 q -0.606061,0.02424 -0.842425,0.19394 -0.230303,0.169697 -0.230303,0.478788 0,0.272727 0.163636,0.4 0.169697,0.127273 0.430304,0.127273 0.412121,0 0.684849,-0.224243 0.272727,-0.230303 0.272727,-0.70303 v -0.29091 z"
         id="path4730" />
      <path
         d="m 27.333382,48.937271 h -0.533334 v -4.606063 h 0.533334 z"
         id="path4732" />
      <path
         d="m 29.618228,45.628178 q 0.418182,0 0.715152,0.181818 0.303031,0.181819 0.460607,0.515152 0.163636,0.327273 0.163636,0.769698 v 0.321212 h -2.224244 q 0.01212,0.551516 0.278788,0.842425 0.272728,0.284848 0.757577,0.284848 0.309091,0 0.545454,-0.05455 0.242425,-0.06061 0.49697,-0.169697 v 0.466667 q -0.248485,0.109091 -0.490909,0.157576 -0.242424,0.05455 -0.575758,0.05455 -0.460606,0 -0.818182,-0.187879 -0.351516,-0.187879 -0.551516,-0.557576 -0.193939,-0.375758 -0.193939,-0.915152 0,-0.533334 0.175758,-0.915152 0.181818,-0.381818 0.50303,-0.587879 0.327273,-0.206061 0.757576,-0.206061 z m -0.0061,0.436364 q -0.381819,0 -0.606061,0.248485 -0.218182,0.242424 -0.260606,0.678788 h 1.654546 q -0.0061,-0.412121 -0.193939,-0.666667 -0.187879,-0.260606 -0.59394,-0.260606 z"
         id="path4734" />
      <path
         d="m 33.345498,45.628178 q 0.581819,0 0.878788,0.284849 0.29697,0.278788 0.29697,0.909091 v 2.115153 h -0.527273 v -2.078789 q 0,-0.781819 -0.727273,-0.781819 -0.539394,0 -0.745455,0.303031 -0.206061,0.30303 -0.206061,0.872728 v 1.684849 h -0.533333 v -3.248487 h 0.430303 l 0.07879,0.442425 h 0.0303 q 0.157576,-0.254546 0.436364,-0.375758 0.278788,-0.127273 0.587879,-0.127273 z"
         id="path4736" />
      <path
         d="m 36.678834,48.997877 q -0.606061,0 -0.969697,-0.418182 -0.363637,-0.424243 -0.363637,-1.260607 0,-0.836364 0.363637,-1.260607 0.369697,-0.430303 0.975758,-0.430303 0.375758,0 0.612121,0.139394 0.242425,0.139394 0.39394,0.339394 h 0.03636 q -0.0061,-0.07879 -0.02424,-0.230303 -0.01212,-0.157576 -0.01212,-0.248485 v -1.29697 h 0.533334 v 4.606063 h -0.430304 l -0.07879,-0.436364 h -0.02424 q -0.145455,0.206061 -0.387879,0.351516 -0.242424,0.145454 -0.624243,0.145454 z m 0.08485,-0.442424 q 0.515152,0 0.721212,-0.278788 0.212122,-0.284849 0.212122,-0.854546 v -0.09697 q 0,-0.606061 -0.2,-0.927273 -0.200001,-0.327273 -0.739395,-0.327273 -0.430303,0 -0.648485,0.345454 -0.212121,0.339395 -0.212121,0.915153 0,0.581818 0.212121,0.90303 0.218182,0.321213 0.654546,0.321213 z"
         id="path4738" />
      <path
         d="m 40.484896,45.634239 q 0.59394,0 0.878788,0.260606 0.284849,0.260606 0.284849,0.830304 v 2.212122 h -0.387879 l -0.10303,-0.460606 h -0.02424 q -0.212121,0.266667 -0.448485,0.393939 -0.230303,0.127273 -0.642424,0.127273 -0.442425,0 -0.733334,-0.230303 -0.29091,-0.236364 -0.29091,-0.733334 0,-0.484849 0.381819,-0.745455 0.381818,-0.266667 1.175758,-0.290909 l 0.551516,-0.01818 v -0.193939 q 0,-0.406061 -0.175758,-0.563637 -0.175758,-0.157576 -0.49697,-0.157576 -0.254546,0 -0.484849,0.07879 -0.230303,0.07273 -0.430303,0.169697 l -0.163637,-0.4 q 0.212122,-0.115152 0.503031,-0.19394 0.290909,-0.08485 0.606061,-0.08485 z m 0.157576,1.733334 q -0.606061,0.02424 -0.842425,0.19394 -0.230303,0.169697 -0.230303,0.478788 0,0.272727 0.163636,0.4 0.169698,0.127273 0.430304,0.127273 0.412121,0 0.684849,-0.224243 0.272727,-0.230303 0.272727,-0.70303 v -0.29091 z"
         id="path4740" />
      <path
         d="m 44.169752,45.628178 q 0.09091,0 0.193939,0.01212 0.109091,0.0061 0.187879,0.02424 l -0.06667,0.490909 q -0.07879,-0.01818 -0.175758,-0.0303 -0.09091,-0.01212 -0.175758,-0.01212 -0.248485,0 -0.466667,0.139394 -0.218182,0.133333 -0.351515,0.381818 -0.127273,0.242425 -0.127273,0.569698 v 1.733334 H 42.6546 v -3.248487 h 0.436363 l 0.06061,0.59394 h 0.02424 q 0.157576,-0.266667 0.406061,-0.460606 0.248485,-0.19394 0.587879,-0.19394 z"
         id="path4742" />
    </g>
  </g>
</svg>
