<?xml version="1.0" encoding="UTF-8" standalone="no"?>
<svg
   width="64"
   height="64"
   version="1.1"
   id="svg73"
   sodipodi:docname="apk.svg"
   inkscape:version="1.2.2 (b0a8486541, 2022-12-01)"
   xmlns:inkscape="http://www.inkscape.org/namespaces/inkscape"
   xmlns:sodipodi="http://sodipodi.sourceforge.net/DTD/sodipodi-0.dtd"
   xmlns:xlink="http://www.w3.org/1999/xlink"
   xmlns="http://www.w3.org/2000/svg"
   xmlns:svg="http://www.w3.org/2000/svg"
   xmlns:rdf="http://www.w3.org/1999/02/22-rdf-syntax-ns#"
   xmlns:cc="http://creativecommons.org/ns#"
   xmlns:dc="http://purl.org/dc/elements/1.1/">
  <metadata
     id="metadata77">
    <rdf:RDF>
      <cc:Work
         rdf:about="">
        <dc:format>image/svg+xml</dc:format>
        <dc:type
           rdf:resource="http://purl.org/dc/dcmitype/StillImage" />
      </cc:Work>
    </rdf:RDF>
  </metadata>
  <sodipodi:namedview
     pagecolor="#f5f7fa"
     bordercolor="#666666"
     borderopacity="1"
     objecttolerance="10"
     gridtolerance="10"
     guidetolerance="10"
     inkscape:pageopacity="0"
     inkscape:pageshadow="2"
     inkscape:window-width="1226"
     inkscape:window-height="603"
     id="namedview75"
     showgrid="false"
     inkscape:zoom="3.1445312"
     inkscape:cx="19.080746"
     inkscape:cy="7.9503106"
     inkscape:window-x="35"
     inkscape:window-y="32"
     inkscape:window-maximized="0"
     inkscape:current-layer="g877"
     inkscape:document-rotation="0"
     inkscape:pagecheckerboard="0"
     inkscape:showpageshadow="2"
     inkscape:deskcolor="#d1d1d1" />
  <defs
     id="defs29">
    <filter
       style="color-interpolation-filters:sRGB;"
       inkscape:label="Blur"
       id="filter6"
       x="-0.044145008"
       y="-0.044145008"
       width="1.08829"
       height="1.08829">
      <feGaussianBlur
         stdDeviation="1 1"
         result="blur"
         id="feGaussianBlur6" />
    </filter>
    <filter
       style="color-interpolation-filters:sRGB;"
       inkscape:label="Blur"
       id="filter7"
       x="-0.098100013"
       y="-0.098100021"
       width="1.1962"
       height="1.1962">
      <feGaussianBlur
         stdDeviation="2 2"
         result="blur"
         id="feGaussianBlur7" />
    </filter>
    <clipPath
       id="clip0_515_3621">
      <rect
         width="16"
         height="16"
         fill="#ffffff"
         transform="translate(0.00292969)"
         id="rect7969"
         x="0"
         y="0" />
    </clipPath>
    <filter
       style="color-interpolation-filters:sRGB;"
       inkscape:label="Blur"
       id="filter7349"
       x="-0.10485812"
       y="-0.10485813"
       width="1.2097162"
       height="1.2097163">
      <feGaussianBlur
         stdDeviation="2 2"
         result="blur"
         id="feGaussianBlur7347" />
    </filter>
    <filter
       style="color-interpolation-filters:sRGB"
       inkscape:label="Blur"
       id="filter1283"
       x="-0.082344266"
       y="-0.082344266"
       width="1.1646885"
       height="1.1646885">
      <feGaussianBlur
         stdDeviation="0.5 0.5"
         result="blur"
         id="feGaussianBlur1281" />
    </filter>
    <linearGradient
       inkscape:collect="always"
       xlink:href="#linearGradient883"
       id="linearGradient885"
       x1="2.1085808"
       y1="2.0236168"
       x2="14.846128"
       y2="15.071845"
       gradientUnits="userSpaceOnUse"
       gradientTransform="matrix(2.4606127,0,0,3.1451148,11.16612,5.3876879)" />
    <linearGradient
       inkscape:collect="always"
       id="linearGradient883">
      <stop
         style="stop-color:#808080;stop-opacity:1;"
         offset="0"
         id="stop879" />
      <stop
         style="stop-color:#3e3e3e;stop-opacity:1;"
         offset="0.5"
         id="stop1216" />
      <stop
         style="stop-color:#242424;stop-opacity:1;"
         offset="1"
         id="stop881" />
    </linearGradient>
    <linearGradient
       inkscape:collect="always"
       xlink:href="#linearGradient1134"
       id="linearGradient1136"
       x1="14.971222"
       y1="14.703373"
       x2="2.0756054"
       y2="2.0069976"
       gradientUnits="userSpaceOnUse"
       gradientTransform="matrix(2.4106819,0,0,3.1438568,11.58952,5.3983817)" />
    <linearGradient
       inkscape:collect="always"
       id="linearGradient1134">
      <stop
         style="stop-color:#161616;stop-opacity:1;"
         offset="0"
         id="stop1130" />
      <stop
         style="stop-color:#404040;stop-opacity:1;"
         offset="1"
         id="stop1132" />
    </linearGradient>
    <filter
       style="color-interpolation-filters:sRGB"
       inkscape:label="Blur"
       id="filter1694"
       x="-0.94955398"
       y="-0.2118907"
       width="2.899108"
       height="1.4237814">
      <feGaussianBlur
         stdDeviation="0.2 0.2"
         result="blur"
         id="feGaussianBlur1692" />
    </filter>
  </defs>
  <g
     id="g877"
     transform="matrix(1.1,0,0,1.1,-3.1845928,-3.2065454)">
    <path
       style="fill:#f5f7fa;stroke-width:0.204426;fill-opacity:1"
       d=""
       id="path3" />
    <rect
       style="fill:#000000;stroke:none;stroke-width:0.539739;stroke-dasharray:none;filter:url(#filter1283)"
       id="rect246-1"
       width="14.572964"
       height="14.572964"
       x="1.1932471"
       y="1.2138842"
       rx="2.1589575"
       ry="2.1589575"
       transform="matrix(2.4606127,0,0,3.1451146,11.16612,5.3876877)" />
    <rect
       style="fill:#000000;stroke:url(#linearGradient885);stroke-width:1.63561;stroke-dasharray:none"
       id="rect246"
       width="35.155312"
       height="44.93494"
       x="14.453793"
       y="9.6548424"
       rx="5.2081943"
       ry="5.181818" />
    <rect
       style="fill:url(#linearGradient1136);fill-opacity:1;stroke:none;stroke-width:1.31679;stroke-dasharray:none"
       id="rect246-5"
       width="31.13278"
       height="40.601383"
       x="16.465055"
       y="11.821622"
       rx="3.1818182"
       ry="3.1725934" />
    <path
       d="m 42.271572,24.78851 c 0,1.414636 -0.229092,2.695909 -0.686455,3.843818 -0.45,1.140545 -1.079182,2.021727 -1.89,2.644364 -0.803455,0.624272 -1.705909,0.936818 -2.705727,0.936818 -0.77891,0 -1.38191,-0.167728 -1.809,-0.504 -0.424636,-0.333818 -0.637364,-0.834546 -0.637364,-1.503 l 0.03436,-0.801 h -0.07118 c -0.519546,0.936 -1.165091,1.640454 -1.935818,2.112545 -0.762546,0.463909 -1.589728,0.695455 -2.47991,0.695455 -1.23709,0 -2.198454,-0.387818 -2.885726,-1.162637 -0.675818,-0.777272 -1.013728,-1.853181 -1.013728,-3.228545 0,-1.246909 0.251182,-2.407091 0.754364,-3.478909 0.513,-1.071818 1.226454,-1.924364 2.139546,-2.557637 0.913908,-0.630818 1.926,-0.945818 3.03709,-0.945818 1.72391,0 2.908636,0.692182 3.556636,2.078182 h 0.07118 l 0.460637,-1.824545 h 1.842545 l -1.372908,5.769818 c -0.288819,1.247727 -0.432819,2.209091 -0.432819,2.885727 0,0.715091 0.318273,1.072636 0.955637,1.072636 0.628363,0 1.206818,-0.262636 1.734544,-0.788727 0.53591,-0.523636 0.958092,-1.244454 1.26491,-2.164091 0.307636,-0.922091 0.460636,-1.942363 0.460636,-3.061636 0,-1.360636 -0.302727,-2.565 -0.909,-3.612273 -0.606272,-1.057091 -1.48009,-1.867909 -2.622272,-2.43 -1.142182,-0.571091 -2.478273,-0.856636 -4.007455,-0.856636 -1.905545,0 -3.590181,0.406636 -5.056363,1.221545 -1.463728,0.814091 -2.613274,1.989 -3.447818,3.524728 -0.835364,1.527545 -1.252637,3.242454 -1.252637,5.14309 0,1.467819 0.306818,2.764637 0.921273,3.890455 0.621,1.116818 1.514454,1.976727 2.681182,2.578909 1.174908,0.599727 2.54209,0.9 4.100726,0.9 1.142182,0 2.29991,-0.144818 3.472364,-0.433636 1.175728,-0.282273 2.391546,-0.753546 3.649092,-1.413 l 0.649636,1.277182 c -1.139728,0.659454 -2.380092,1.161818 -3.720273,1.506272 -1.331182,0.350182 -2.682,0.525273 -4.050819,0.525273 -1.899,0 -3.561544,-0.365727 -4.987636,-1.097182 -1.41709,-0.721636 -2.502818,-1.752545 -3.259636,-3.092727 -0.748636,-1.344273 -1.122546,-2.890636 -1.122546,-4.638273 0,-2.129727 0.488455,-4.065545 1.465364,-5.807454 0.983454,-1.742728 2.346546,-3.096 4.088454,-4.060637 1.740274,-0.972818 3.688364,-1.459636 5.844274,-1.459636 1.901454,0 3.540272,0.345273 4.917272,1.035818 1.379454,0.684818 2.430818,1.653546 3.154091,2.907 0.733909,1.257546 1.101273,2.714727 1.101273,4.372364 z m -7.162364,0.09327 c 0,-0.777272 -0.259364,-1.402363 -0.77891,-1.874454 -0.519544,-0.477818 -1.212544,-0.717546 -2.078181,-0.717546 -0.796091,0 -1.505455,0.243819 -2.128091,0.729819 -0.613636,0.478636 -1.098818,1.147909 -1.45309,2.007 -0.354274,0.851727 -0.531819,1.775454 -0.531819,2.771181 0,0.913091 0.185727,1.628182 0.556363,2.146091 0.377182,0.515455 0.955637,0.773182 1.735364,0.773182 0.985092,0 1.886728,-0.399273 2.705728,-1.197 0.820636,-0.797727 1.387636,-1.793454 1.701,-2.987182 0.180818,-0.701181 0.271636,-1.252636 0.271636,-1.654363 z"
       fill="#ffffff"
       fill-opacity="0.5"
       fill-rule="nonzero"
       id="path3-3"
       style="fill:#999999;fill-opacity:1;stroke-width:0.818182" />
    <g
       aria-label="Address"
       id="text5786"
       style="font-size:6.06061px;text-align:center;text-anchor:middle;fill:#999999;stroke-width:1.81818">
      <path
         d="M 23.684895,48.937271 23.163682,47.597876 H 21.44853 l -0.515152,1.339395 h -0.551515 l 1.69091,-4.345457 h 0.490909 l 1.68485,4.345457 z m -1.169698,-3.133335 q -0.01818,-0.04848 -0.06061,-0.175758 -0.04242,-0.127273 -0.08485,-0.260606 -0.03636,-0.139394 -0.06061,-0.212121 -0.04242,0.187878 -0.09697,0.369697 -0.05455,0.175757 -0.09091,0.278788 l -0.49091,1.309092 h 1.369698 z"
         id="path4991" />
      <path
         d="m 25.92126,48.997877 q -0.606061,0 -0.969698,-0.418182 -0.363637,-0.424243 -0.363637,-1.260607 0,-0.836364 0.363637,-1.260607 0.369697,-0.430303 0.975758,-0.430303 0.375758,0 0.612122,0.139394 0.242424,0.139394 0.393939,0.339394 h 0.03636 q -0.0061,-0.07879 -0.02424,-0.230303 -0.01212,-0.157576 -0.01212,-0.248485 v -1.29697 h 0.533334 v 4.606063 h -0.430303 l -0.07879,-0.436364 h -0.02424 q -0.145454,0.206061 -0.387879,0.351516 -0.242424,0.145454 -0.624242,0.145454 z m 0.08485,-0.442424 q 0.515152,0 0.721213,-0.278788 0.212121,-0.284849 0.212121,-0.854546 v -0.09697 q 0,-0.606061 -0.2,-0.927273 -0.2,-0.327273 -0.739395,-0.327273 -0.430303,0 -0.648485,0.345454 -0.212121,0.339395 -0.212121,0.915153 0,0.581818 0.212121,0.90303 0.218182,0.321213 0.654546,0.321213 z"
         id="path4993" />
      <path
         d="m 29.648533,48.997877 q -0.606061,0 -0.969697,-0.418182 -0.363637,-0.424243 -0.363637,-1.260607 0,-0.836364 0.363637,-1.260607 0.369697,-0.430303 0.975758,-0.430303 0.375758,0 0.612122,0.139394 0.242424,0.139394 0.393939,0.339394 h 0.03636 q -0.0061,-0.07879 -0.02424,-0.230303 -0.01212,-0.157576 -0.01212,-0.248485 v -1.29697 h 0.533334 v 4.606063 h -0.430303 l -0.07879,-0.436364 h -0.02424 q -0.145454,0.206061 -0.387879,0.351516 -0.242424,0.145454 -0.624243,0.145454 z m 0.08485,-0.442424 q 0.515152,0 0.721213,-0.278788 0.212121,-0.284849 0.212121,-0.854546 v -0.09697 q 0,-0.606061 -0.2,-0.927273 -0.2,-0.327273 -0.739395,-0.327273 -0.430303,0 -0.648485,0.345454 -0.212121,0.339395 -0.212121,0.915153 0,0.581818 0.212121,0.90303 0.218182,0.321213 0.654546,0.321213 z"
         id="path4995" />
      <path
         d="m 33.739443,45.628178 q 0.09091,0 0.19394,0.01212 0.109091,0.0061 0.187878,0.02424 l -0.06667,0.490909 q -0.07879,-0.01818 -0.175758,-0.0303 -0.09091,-0.01212 -0.175758,-0.01212 -0.248485,0 -0.466667,0.139394 -0.218182,0.133333 -0.351515,0.381818 -0.127273,0.242425 -0.127273,0.569698 v 1.733334 h -0.533333 v -3.248487 h 0.436363 l 0.06061,0.59394 h 0.02424 q 0.157576,-0.266667 0.406061,-0.460606 0.248485,-0.19394 0.587879,-0.19394 z"
         id="path4997" />
      <path
         d="m 35.860655,45.628178 q 0.418182,0 0.715152,0.181818 0.30303,0.181819 0.460606,0.515152 0.163636,0.327273 0.163636,0.769698 v 0.321212 h -2.224243 q 0.01212,0.551516 0.278788,0.842425 0.272727,0.284848 0.757576,0.284848 0.309091,0 0.545455,-0.05455 0.242424,-0.06061 0.49697,-0.169697 v 0.466667 q -0.248485,0.109091 -0.49091,0.157576 -0.242424,0.05455 -0.575758,0.05455 -0.460606,0 -0.818182,-0.187879 -0.351515,-0.187879 -0.551515,-0.557576 -0.19394,-0.375758 -0.19394,-0.915152 0,-0.533334 0.175758,-0.915152 0.181818,-0.381818 0.50303,-0.587879 0.327273,-0.206061 0.757577,-0.206061 z m -0.0061,0.436364 q -0.381818,0 -0.606061,0.248485 -0.218182,0.242424 -0.260606,0.678788 h 1.654546 q -0.0061,-0.412121 -0.193939,-0.666667 -0.187879,-0.260606 -0.59394,-0.260606 z"
         id="path4999" />
      <path
         d="m 40.139441,48.040301 q 0,0.472727 -0.351516,0.715152 -0.351515,0.242424 -0.945455,0.242424 -0.339394,0 -0.587879,-0.05455 -0.242424,-0.05455 -0.430303,-0.151516 v -0.484848 q 0.193939,0.09697 0.466667,0.181818 0.278788,0.07879 0.563636,0.07879 0.406061,0 0.58788,-0.127273 0.181818,-0.133333 0.181818,-0.351515 0,-0.121212 -0.06667,-0.218182 -0.06667,-0.09697 -0.242424,-0.19394 -0.169697,-0.09697 -0.49091,-0.218182 -0.315151,-0.121212 -0.539394,-0.242424 -0.224242,-0.121212 -0.345455,-0.290909 -0.121212,-0.169697 -0.121212,-0.436364 0,-0.412122 0.333334,-0.636364 0.339394,-0.224243 0.884849,-0.224243 0.29697,0 0.551515,0.06061 0.260606,0.05455 0.484849,0.157576 l -0.181818,0.424243 q -0.206061,-0.08485 -0.430304,-0.145455 -0.224242,-0.06061 -0.460606,-0.06061 -0.327273,0 -0.503031,0.109091 -0.169697,0.10303 -0.169697,0.284849 0,0.133333 0.07879,0.230303 0.07879,0.09091 0.260607,0.181818 0.187878,0.08485 0.49697,0.206061 0.309091,0.115151 0.527273,0.236364 0.218182,0.121212 0.333333,0.29697 0.115152,0.169697 0.115152,0.430303 z"
         id="path5001" />
      <path
         d="m 43.042473,48.040301 q 0,0.472727 -0.351515,0.715152 -0.351516,0.242424 -0.945455,0.242424 -0.339395,0 -0.58788,-0.05455 -0.242424,-0.05455 -0.430303,-0.151516 v -0.484848 q 0.19394,0.09697 0.466667,0.181818 0.278788,0.07879 0.563637,0.07879 0.406061,0 0.587879,-0.127273 0.181818,-0.133333 0.181818,-0.351515 0,-0.121212 -0.06667,-0.218182 -0.06667,-0.09697 -0.242425,-0.19394 -0.169697,-0.09697 -0.490909,-0.218182 -0.315152,-0.121212 -0.539395,-0.242424 -0.224242,-0.121212 -0.345454,-0.290909 -0.121213,-0.169697 -0.121213,-0.436364 0,-0.412122 0.333334,-0.636364 0.339394,-0.224243 0.884849,-0.224243 0.29697,0 0.551516,0.06061 0.260606,0.05455 0.484848,0.157576 l -0.181818,0.424243 q -0.206061,-0.08485 -0.430303,-0.145455 -0.224243,-0.06061 -0.460607,-0.06061 -0.327273,0 -0.50303,0.109091 -0.169697,0.10303 -0.169697,0.284849 0,0.133333 0.07879,0.230303 0.07879,0.09091 0.260606,0.181818 0.187879,0.08485 0.49697,0.206061 0.309091,0.115151 0.527273,0.236364 0.218182,0.121212 0.333333,0.29697 0.115152,0.169697 0.115152,0.430303 z"
         id="path5003" />
    </g>
  </g>
</svg>
