<?xml version="1.0" encoding="UTF-8" standalone="no"?>
<svg
   width="64"
   height="64"
   version="1.1"
   viewBox="0 0 16.933 16.933"
   id="svg7"
   sodipodi:docname="System Template.svg"
   inkscape:version="1.4 (e7c3feb100, 2024-10-09)"
   xmlns:inkscape="http://www.inkscape.org/namespaces/inkscape"
   xmlns:sodipodi="http://sodipodi.sourceforge.net/DTD/sodipodi-0.dtd"
   xmlns:xlink="http://www.w3.org/1999/xlink"
   xmlns="http://www.w3.org/2000/svg"
   xmlns:svg="http://www.w3.org/2000/svg"
   xmlns:rdf="http://www.w3.org/1999/02/22-rdf-syntax-ns#"
   xmlns:cc="http://creativecommons.org/ns#"
   xmlns:dc="http://purl.org/dc/elements/1.1/">
  <sodipodi:namedview
     id="namedview7"
     pagecolor="#9c4444"
     bordercolor="#000000"
     borderopacity="0.25"
     inkscape:showpageshadow="2"
     inkscape:pageopacity="0.0"
     inkscape:pagecheckerboard="0"
     inkscape:deskcolor="#d1d1d1"
     inkscape:zoom="6.15625"
     inkscape:cx="15.675127"
     inkscape:cy="27.370558"
     inkscape:window-width="1183"
     inkscape:window-height="973"
     inkscape:window-x="35"
     inkscape:window-y="32"
     inkscape:window-maximized="0"
     inkscape:current-layer="svg7"
     showgrid="false" />
  <defs
     id="defs2">
    <linearGradient
       inkscape:collect="always"
       id="linearGradient1134">
      <stop
         style="stop-color:#161616;stop-opacity:1;"
         offset="0"
         id="stop1130" />
      <stop
         style="stop-color:#404040;stop-opacity:1;"
         offset="1"
         id="stop1132" />
    </linearGradient>
    <linearGradient
       inkscape:collect="always"
       id="linearGradient883">
      <stop
         style="stop-color:#808080;stop-opacity:1;"
         offset="0"
         id="stop879" />
      <stop
         style="stop-color:#3e3e3e;stop-opacity:1;"
         offset="0.5"
         id="stop1216" />
      <stop
         style="stop-color:#242424;stop-opacity:1;"
         offset="1"
         id="stop881" />
    </linearGradient>
    <linearGradient
       inkscape:collect="always"
       xlink:href="#linearGradient883"
       id="linearGradient885"
       x1="2.1085808"
       y1="2.0236168"
       x2="14.846128"
       y2="15.071845"
       gradientUnits="userSpaceOnUse" />
    <linearGradient
       inkscape:collect="always"
       xlink:href="#linearGradient1134"
       id="linearGradient1136"
       x1="14.971222"
       y1="14.703373"
       x2="2.0756054"
       y2="2.0069976"
       gradientUnits="userSpaceOnUse" />
    <filter
       style="color-interpolation-filters:sRGB;"
       inkscape:label="Blur"
       id="filter1283"
       x="-0.082344266"
       y="-0.082344266"
       width="1.1646885"
       height="1.1646885">
      <feGaussianBlur
         stdDeviation="0.5 0.5"
         result="blur"
         id="feGaussianBlur1281" />
    </filter>
    <filter
       style="color-interpolation-filters:sRGB;"
       inkscape:label="Blur"
       id="filter1694"
       x="-0.94955398"
       y="-0.2118907"
       width="2.899108"
       height="1.4237814">
      <feGaussianBlur
         stdDeviation="0.2 0.2"
         result="blur"
         id="feGaussianBlur1692" />
    </filter>
    <filter
       style="color-interpolation-filters:sRGB;"
       inkscape:label="Blur"
       id="filter3335"
       x="-0.94955398"
       y="-0.2118907"
       width="2.899108"
       height="1.4237814">
      <feGaussianBlur
         stdDeviation="0.2 0.2"
         result="blur"
         id="feGaussianBlur3333" />
    </filter>
  </defs>
  <metadata
     id="metadata2">
    <rdf:RDF>
      <cc:Work
         rdf:about="">
        <dc:format>image/svg+xml</dc:format>
        <dc:type
           rdf:resource="http://purl.org/dc/dcmitype/StillImage" />
      </cc:Work>
    </rdf:RDF>
  </metadata>
  <rect
     style="fill:#000000;stroke:none;stroke-width:0.539739;stroke-dasharray:none;filter:url(#filter1283)"
     id="rect246-1"
     width="14.572964"
     height="14.572964"
     x="1.1932471"
     y="1.2138842"
     rx="2.1589575"
     ry="2.1589575" />
  <rect
     style="opacity:1;fill:#000000;stroke:url(#linearGradient885);stroke-width:0.52915625;stroke-dasharray:none"
     id="rect246"
     width="14.287219"
     height="14.287219"
     x="1.3361193"
     y="1.3567564"
     rx="2.1166251"
     ry="2.1166251" />
  <g
     aria-label="Krita"
     id="text1450"
     style="font-size:1.76385px;opacity:1;fill:#999999;stroke-width:0.529156">
    <rect
       style="font-size:1.76385px;fill:#ff0000;fill-opacity:1;stroke:none;stroke-width:0.519976;stroke-dasharray:none;filter:url(#filter3335)"
       id="rect1656-0"
       width="0.5055005"
       height="2.2653189"
       x="15.369148"
       y="4.3016486"
       rx="0"
       ry="0" />
    <rect
       style="opacity:1;fill:#ff0000;fill-opacity:1;stroke:none;stroke-width:0.519976;stroke-dasharray:none"
       id="rect1656"
       width="0.5055005"
       height="2.2653189"
       x="15.369148"
       y="4.3016486"
       rx="0"
       ry="0" />
  </g>
  <rect
     style="fill:url(#linearGradient1136);fill-opacity:1;stroke:none;stroke-width:0.478315;stroke-dasharray:none"
     id="rect246-5"
     width="12.914515"
     height="12.914515"
     x="2.0224717"
     y="2.0431087"
     rx="1.5874687"
     ry="1.5874687" />
  <path
     style="color:#444444;fill:#999999;fill-opacity:1;stroke:none;stroke-width:0.224185;stroke-dasharray:none;stroke-opacity:0.3"
     class="ColorScheme-Text"
     d="m 5.7942832,4.4384723 c 0,0 -0.9760063,0 -0.9760063,0.9760067 v 3.9040244 c 0,0.9760076 0.9760063,0.9760076 0.9760063,0.9760076 h 5.3680348 c 0,0 0.976008,0 0.976008,-0.9760076 V 5.414479 c 0,-0.9760067 -0.976008,-0.9760067 -0.976008,-0.9760067 z M 5.9162843,5.414479 H 6.648289 c 0.067589,0 0.1220002,0.054414 0.1220002,0.1220013 V 6.268485 c 0,0.067589 -0.054413,0.1220005 -0.1220002,0.1220005 H 5.9162843 c -0.067589,0 -0.1220011,-0.054414 -0.1220011,-0.1220005 V 5.5364803 c 0,-0.067589 0.054413,-0.1220013 0.1220011,-0.1220013 z m 1.4640096,0 h 0.7320045 c 0.06759,0 0.1220003,0.054414 0.1220003,0.1220013 V 6.268485 c 0,0.067589 -0.054412,0.1220005 -0.1220003,0.1220005 H 7.3802939 c -0.06759,0 -0.1220013,-0.054414 -0.1220013,-0.1220005 V 5.5364803 c 0,-0.067589 0.054413,-0.1220013 0.1220013,-0.1220013 z m 1.4640095,0 h 0.732004 c 0.067589,0 0.1220021,0.054414 0.1220021,0.1220013 V 6.268485 c 0,0.067589 -0.054412,0.1220005 -0.1220021,0.1220005 h -0.732004 c -0.067589,0 -0.122001,-0.054414 -0.122001,-0.1220005 V 5.5364803 c 0,-0.067589 0.054412,-0.1220013 0.122001,-0.1220013 z m 1.4640086,0 h 0.732006 c 0.06759,0 0.122,0.054414 0.122,0.1220013 V 6.268485 c 0,0.067589 -0.05442,0.1220005 -0.122,0.1220005 h -0.732006 c -0.06759,0 -0.122,-0.054414 -0.122,-0.1220005 V 5.5364803 c 0,-0.067589 0.05441,-0.1220013 0.122,-0.1220013 z M 5.9162843,6.8784886 H 6.648289 c 0.067589,0 0.1220002,0.054413 0.1220002,0.1220003 v 0.7320053 c 0,0.06759 -0.054413,0.1220002 -0.1220002,0.1220002 H 5.9162843 c -0.067589,0 -0.1220011,-0.054413 -0.1220011,-0.1220002 V 7.0004889 c 0,-0.067589 0.054413,-0.1220003 0.1220011,-0.1220003 z m 1.4640096,0 h 0.7320045 c 0.06759,0 0.1220003,0.054413 0.1220003,0.1220003 v 0.7320053 c 0,0.06759 -0.054412,0.1220002 -0.1220003,0.1220002 H 7.3802939 c -0.06759,0 -0.1220013,-0.054413 -0.1220013,-0.1220002 V 7.0004889 c 0,-0.067589 0.054413,-0.1220003 0.1220013,-0.1220003 z m 1.4640095,0 h 0.732004 c 0.067589,0 0.1220021,0.054413 0.1220021,0.1220003 v 0.7320053 c 0,0.06759 -0.054412,0.1220002 -0.1220021,0.1220002 h -0.732004 c -0.067589,0 -0.122001,-0.054413 -0.122001,-0.1220002 V 7.0004889 c 0,-0.067589 0.054412,-0.1220003 0.122001,-0.1220003 z m 1.4640086,0 h 0.732006 c 0.06759,0 0.122,0.054413 0.122,0.1220003 v 0.7320053 c 0,0.06759 -0.05442,0.1220002 -0.122,0.1220002 h -0.732006 c -0.06759,0 -0.122,-0.054413 -0.122,-0.1220002 V 7.0004889 c 0,-0.067589 0.05441,-0.1220003 0.122,-0.1220003 z M 6.89229,8.342498 h 3.172021 c 0.06759,0 0.122001,0.054414 0.122001,0.1220003 V 9.196502 c 0,0.067595 -0.05442,0.1220015 -0.122001,0.1220015 H 6.89229 c -0.067589,0 -0.1220008,-0.054424 -0.1220008,-0.1220015 V 8.4644983 c 0,-0.067586 0.054413,-0.1220003 0.1220008,-0.1220003 z"
     id="path5" />
  <path
     d="M 5.6037629,14.160974 H 5.4167948 l -0.446254,-0.601473 -0.1287611,0.112886 v 0.488587 H 4.6830332 v -1.259389 h 0.1587465 v 0.620875 q 0.052916,-0.05997 0.1075949,-0.119942 0.054679,-0.05997 0.1093587,-0.119942 l 0.340423,-0.380991 H 5.5843606 L 5.085191,13.450142 Z m 0.5150433,-0.963063 q 0.1217057,0 0.2081343,0.05292 0.088192,0.05292 0.1340526,0.149927 0.047624,0.09525 0.047624,0.224009 v 0.09348 h -0.647333 q 0.00353,0.160511 0.081137,0.245175 0.079373,0.0829 0.2204813,0.0829 0.089956,0 0.1587465,-0.01587 0.070554,-0.01764 0.1446357,-0.04939 v 0.135816 q -0.072318,0.03175 -0.1428719,0.04586 -0.070554,0.01587 -0.1675657,0.01587 -0.1340526,0 -0.2381198,-0.05468 Q 5.815424,14.069253 5.757217,13.961659 5.7007738,13.8523 5.7007738,13.695317 q 0,-0.155219 0.051152,-0.266341 0.052916,-0.111123 0.1463996,-0.171094 0.095248,-0.05997 0.2204812,-0.05997 z m -0.00176,0.126998 q -0.1111226,0 -0.176385,0.07232 -0.063499,0.07055 -0.075846,0.197551 h 0.4815311 q -0.00176,-0.119942 -0.056443,-0.194024 -0.054679,-0.07584 -0.1728573,-0.07584 z M 6.565058,13.21555 h 0.1658019 l 0.2046066,0.537974 q 0.026458,0.07055 0.047624,0.135817 0.021166,0.0635 0.031749,0.121705 h 0.00706 q 0.010583,-0.0441 0.033513,-0.11465 0.02293,-0.07232 0.047624,-0.144636 l 0.1922596,-0.53621 h 0.1675658 l -0.4074494,1.075948 q -0.049388,0.134053 -0.128761,0.213426 -0.077609,0.07937 -0.2151897,0.07937 -0.042332,0 -0.074082,-0.0053 -0.031749,-0.0035 -0.054679,-0.0088 v -0.12347 q 0.019402,0.0035 0.04586,0.0071 0.028222,0.0035 0.058207,0.0035 0.081137,0 0.1305249,-0.04586 0.051152,-0.04586 0.079373,-0.121705 l 0.049388,-0.125234 z m 1.202946,-0.06879 q 0,0.05997 -0.00353,0.112886 -0.00176,0.05115 -0.00529,0.08114 h 0.00882 q 0.040569,-0.05997 0.1111226,-0.100539 0.070554,-0.04057 0.1816765,-0.04057 0.176385,0 0.282216,0.12347 0.1075949,0.121705 0.1075949,0.365117 0,0.243411 -0.1075949,0.366881 -0.1075948,0.123469 -0.282216,0.123469 -0.1111225,0 -0.1816765,-0.04057 -0.070554,-0.04057 -0.1111226,-0.09701 h -0.012347 l -0.031749,0.119942 H 7.6127852 V 12.820448 H 7.768004 Z m 0.2663414,0.181676 q -0.1499273,0 -0.2081343,0.08643 -0.058207,0.08643 -0.058207,0.268105 v 0.0071 q 0,0.174621 0.056443,0.268105 0.058207,0.09172 0.2134259,0.09172 0.1269972,0 0.1887319,-0.09348 0.063499,-0.09348 0.063499,-0.269869 0,-0.358062 -0.2557582,-0.358062 z m 1.4851612,0.358062 q 0,0.234592 -0.1199418,0.363353 -0.1181779,0.128761 -0.3210206,0.128761 -0.1252334,0 -0.224009,-0.05644 -0.097012,-0.05821 -0.1534549,-0.167566 -0.056443,-0.111122 -0.056443,-0.268105 0,-0.234592 0.1181779,-0.361589 0.118178,-0.126998 0.3210207,-0.126998 0.1287611,0 0.2257728,0.05821 0.098776,0.05644 0.1534549,0.165801 0.056443,0.107595 0.056443,0.264578 z m -0.7143592,0 q 0,0.167566 0.065263,0.266341 0.067026,0.09701 0.211662,0.09701 0.1428718,0 0.2098981,-0.09701 0.067026,-0.09878 0.067026,-0.266341 0,-0.167566 -0.067026,-0.262814 -0.067026,-0.09525 -0.211662,-0.09525 -0.1446357,0 -0.2098981,0.09525 -0.065263,0.09525 -0.065263,0.262814 z m 1.3175956,-0.486823 q 0.172857,0 0.255758,0.07585 0.0829,0.07585 0.0829,0.241647 v 0.643806 h -0.112886 l -0.02999,-0.134053 h -0.0071 q -0.06174,0.07761 -0.130525,0.11465 -0.06703,0.03704 -0.1869683,0.03704 -0.128761,0 -0.2134258,-0.06703 -0.084665,-0.06879 -0.084665,-0.213426 0,-0.141108 0.1111225,-0.216954 0.1111226,-0.07761 0.3421874,-0.08466 l 0.16051,-0.0053 v -0.05644 q 0,-0.118178 -0.05115,-0.164038 -0.05115,-0.04586 -0.144635,-0.04586 -0.07408,0 -0.1411085,0.02293 -0.067026,0.02117 -0.1252333,0.04939 l -0.047624,-0.116415 q 0.061735,-0.03351 0.1463996,-0.05644 0.084665,-0.02469 0.1763852,-0.02469 z m 0.04586,0.504461 q -0.1763851,0.0071 -0.2451753,0.05644 -0.067026,0.04939 -0.067026,0.139344 0,0.07937 0.047624,0.116414 0.049388,0.03704 0.1252336,0.03704 0.119942,0 0.199315,-0.06526 0.07937,-0.06703 0.07937,-0.204606 v -0.08466 z m 1.026562,-0.506225 q 0.02646,0 0.05644,0.0035 0.03175,0.0018 0.05468,0.0071 l -0.0194,0.142871 q -0.02293,-0.0053 -0.05115,-0.0088 -0.02646,-0.0035 -0.05115,-0.0035 -0.07232,0 -0.135817,0.04057 -0.0635,0.0388 -0.102303,0.111123 -0.03704,0.07055 -0.03704,0.165801 v 0.504462 H 10.754202 V 13.21555 h 0.126997 l 0.01764,0.172857 h 0.0071 q 0.04586,-0.07761 0.118178,-0.134052 0.07232,-0.05644 0.171094,-0.05644 z m 0.587361,0.980701 q -0.176385,0 -0.282216,-0.121706 -0.105831,-0.123469 -0.105831,-0.36688 0,-0.243412 0.105831,-0.366881 0.107595,-0.125234 0.28398,-0.125234 0.109359,0 0.178149,0.04057 0.07055,0.04057 0.11465,0.09878 h 0.01058 q -0.0018,-0.02293 -0.0071,-0.06703 -0.0035,-0.04586 -0.0035,-0.07232 v -0.377463 h 0.155219 v 1.340526 h -0.125233 l -0.02293,-0.126998 h -0.0071 q -0.04233,0.05997 -0.112886,0.102304 -0.07055,0.04233 -0.181677,0.04233 z m 0.02469,-0.128761 q 0.149927,0 0.209898,-0.08114 0.06174,-0.0829 0.06174,-0.248703 v -0.02822 q 0,-0.176385 -0.05821,-0.269869 -0.05821,-0.09525 -0.21519,-0.09525 -0.125233,0 -0.188732,0.100539 -0.06173,0.09878 -0.06173,0.266341 0,0.16933 0.06173,0.262814 0.0635,0.09348 0.190496,0.09348 z"
     id="text1"
     style="font-size:1.76385px;text-align:center;text-anchor:middle;fill:#999999;stroke-width:0.132289;stroke-opacity:0.6"
     aria-label="Keyboard" />
</svg>
