<?xml version="1.0" encoding="UTF-8" standalone="no"?>
<svg
   width="64"
   height="64"
   version="1.1"
   viewBox="0 0 16.933 16.933"
   id="svg7"
   sodipodi:docname="nertwork-workgroup.svg"
   inkscape:version="1.4 (e7c3feb100, 2024-10-09)"
   xmlns:inkscape="http://www.inkscape.org/namespaces/inkscape"
   xmlns:sodipodi="http://sodipodi.sourceforge.net/DTD/sodipodi-0.dtd"
   xmlns:xlink="http://www.w3.org/1999/xlink"
   xmlns="http://www.w3.org/2000/svg"
   xmlns:svg="http://www.w3.org/2000/svg"
   xmlns:rdf="http://www.w3.org/1999/02/22-rdf-syntax-ns#"
   xmlns:cc="http://creativecommons.org/ns#"
   xmlns:dc="http://purl.org/dc/elements/1.1/">
  <sodipodi:namedview
     id="namedview7"
     pagecolor="#9c4444"
     bordercolor="#000000"
     borderopacity="0.25"
     inkscape:showpageshadow="2"
     inkscape:pageopacity="0.0"
     inkscape:pagecheckerboard="0"
     inkscape:deskcolor="#d1d1d1"
     inkscape:zoom="6.15625"
     inkscape:cx="15.675127"
     inkscape:cy="29.807107"
     inkscape:window-width="1183"
     inkscape:window-height="973"
     inkscape:window-x="35"
     inkscape:window-y="32"
     inkscape:window-maximized="0"
     inkscape:current-layer="svg7"
     showgrid="false" />
  <defs
     id="defs2">
    <rect
       x="67.489848"
       y="35.60533"
       width="15.337563"
       height="22.51269"
       id="rect3808" />
    <linearGradient
       inkscape:collect="always"
       id="linearGradient1134">
      <stop
         style="stop-color:#161616;stop-opacity:1;"
         offset="0"
         id="stop1130" />
      <stop
         style="stop-color:#404040;stop-opacity:1;"
         offset="1"
         id="stop1132" />
    </linearGradient>
    <linearGradient
       inkscape:collect="always"
       id="linearGradient883">
      <stop
         style="stop-color:#808080;stop-opacity:1;"
         offset="0"
         id="stop879" />
      <stop
         style="stop-color:#3e3e3e;stop-opacity:1;"
         offset="0.5"
         id="stop1216" />
      <stop
         style="stop-color:#242424;stop-opacity:1;"
         offset="1"
         id="stop881" />
    </linearGradient>
    <linearGradient
       inkscape:collect="always"
       xlink:href="#linearGradient883"
       id="linearGradient885"
       x1="2.1085808"
       y1="2.0236168"
       x2="14.846128"
       y2="15.071845"
       gradientUnits="userSpaceOnUse" />
    <linearGradient
       inkscape:collect="always"
       xlink:href="#linearGradient1134"
       id="linearGradient1136"
       x1="14.971222"
       y1="14.703373"
       x2="2.0756054"
       y2="2.0069976"
       gradientUnits="userSpaceOnUse" />
    <filter
       style="color-interpolation-filters:sRGB;"
       inkscape:label="Blur"
       id="filter1283"
       x="-0.082344266"
       y="-0.082344266"
       width="1.1646885"
       height="1.1646885">
      <feGaussianBlur
         stdDeviation="0.5 0.5"
         result="blur"
         id="feGaussianBlur1281" />
    </filter>
    <filter
       style="color-interpolation-filters:sRGB;"
       inkscape:label="Blur"
       id="filter3148"
       x="-0.94955398"
       y="-0.2118907"
       width="2.899108"
       height="1.4237814">
      <feGaussianBlur
         stdDeviation="0.2 0.2"
         result="blur"
         id="feGaussianBlur3146" />
    </filter>
  </defs>
  <metadata
     id="metadata2">
    <rdf:RDF>
      <cc:Work
         rdf:about="">
        <dc:format>image/svg+xml</dc:format>
        <dc:type
           rdf:resource="http://purl.org/dc/dcmitype/StillImage" />
      </cc:Work>
    </rdf:RDF>
  </metadata>
  <rect
     style="fill:#000000;stroke:none;stroke-width:0.539739;stroke-dasharray:none;filter:url(#filter1283)"
     id="rect246-1"
     width="14.572964"
     height="14.572964"
     x="1.1932471"
     y="1.2138842"
     rx="2.1589575"
     ry="2.1589575" />
  <rect
     style="opacity:1;fill:#000000;stroke:url(#linearGradient885);stroke-width:0.52915625;stroke-dasharray:none"
     id="rect246"
     width="14.287219"
     height="14.287219"
     x="1.3361193"
     y="1.3567564"
     rx="2.1166251"
     ry="2.1166251" />
  <rect
     style="fill:url(#linearGradient1136);fill-opacity:1;stroke:none;stroke-width:0.478315;stroke-dasharray:none"
     id="rect246-5"
     width="12.914515"
     height="12.914515"
     x="2.0224717"
     y="2.0431087"
     rx="1.5874687"
     ry="1.5874687" />
  <path
     id="path59"
     style="fill:#999999;fill-opacity:1;stroke:none;stroke-width:0.221944;stroke-dasharray:none;stroke-dashoffset:2.2;stroke-opacity:0.3"
     d="m 8.5181241,4.1852458 c -3.3218032,0 -3.1904862,-0.00499 -3.2606642,0.1261437 -0.016233,0.03033 -0.026443,0.3243579 -0.026443,0.7711674 0,0.7975847 0.00144,0.8059503 0.1625567,0.8760713 0.065542,0.028526 0.6140793,0.034725 3.1093785,0.035546 2.7526629,9.45e-4 3.0378209,-0.00288 3.1176159,-0.040748 0.159877,-0.075868 0.165296,-0.1066104 0.156919,-0.9046809 l -0.0074,-0.7148146 -0.08323,-0.074559 -0.08366,-0.074126 z m 1.8110939,0.2791634 c 0.10151,0.00258 0.198206,0.044631 0.246221,0.1179077 0.09386,0.143255 0.03399,0.3114513 -0.136548,0.3836331 -0.101208,0.042838 -0.150766,0.04264 -0.25272,-0.00174 -0.103306,-0.044961 -0.162557,-0.1319233 -0.162557,-0.2384178 0,-0.1119739 0.03598,-0.1748732 0.127011,-0.2219438 0.05514,-0.028516 0.117689,-0.040991 0.178593,-0.039448 z m -0.9306885,0.0013 c 0.311117,0 0.3954674,0.3819853 0.1096723,0.4963388 C 9.3993892,5.005586 9.3822851,5.0063123 9.2667507,4.9728845 9.1057137,4.9262873 9.0363715,4.7520794 9.1167648,4.596615 9.1623191,4.5085247 9.2549707,4.465703 9.3985295,4.465703 Z m 1.7421695,0 c 0.324134,0 0.425375,0.376611 0.132646,0.4937378 -0.05691,0.022769 -0.117571,0.04028 -0.134813,0.039014 -0.273808,-0.020082 -0.391476,-0.2669872 -0.212404,-0.446056 0.07555,-0.075564 0.10293,-0.086696 0.214571,-0.086696 z M 8.2771074,4.5931458 c 0.062264,0 0.1660243,0.1171302 0.1660243,0.1872652 0,0.056718 -0.3287753,0.5189962 -0.5058755,0.7113465 C 7.8210973,5.617919 7.627315,5.5599082 7.627315,5.398992 7.627315,5.332476 7.679274,5.2471949 7.8835039,4.9798134 8.1344595,4.651255 8.1940802,4.5931431 8.2771074,4.5931431 Z m -2.1327398,0.00434 c 0.033897,-0.00376 0.064935,0.011668 0.1023021,0.039443 0.1288809,0.095783 0.1080602,0.16993 -0.1382816,0.4937357 C 5.986608,5.2907401 5.8576414,5.4531996 5.8218554,5.4917569 5.7436686,5.5759988 5.6357271,5.583925 5.5626325,5.5108336 5.4658691,5.414071 5.4946822,5.3419331 5.7798076,4.9694129 5.9812098,4.7062792 6.0697934,4.6057339 6.1443676,4.5974838 Z m 0.7204493,8.586e-4 c 0.01161,6.2e-5 0.02339,0.00215 0.035545,0.00521 0.083245,0.020881 0.1508032,0.1249039 0.1313453,0.2024261 -0.015852,0.063158 -0.4422602,0.6339507 -0.5310166,0.7109091 -0.06876,0.05962 -0.1803743,0.056674 -0.237549,-0.00651 C 6.1721015,5.4097864 6.2018123,5.3345175 6.4660119,4.9910715 6.7044147,4.6811617 6.7835411,4.5979011 6.8648169,4.5983351 Z m 0.6766687,0.00521 c 0.071869,-0.00502 0.1530011,0.030261 0.1716591,0.078884 0.042045,0.1095633 0.0104,0.1780976 -0.2288794,0.4928669 C 7.3493359,5.3528026 7.2205785,5.512367 7.1985998,5.5298942 7.0955148,5.6120933 6.9138009,5.5268093 6.9138009,5.3963808 c 0,-0.088614 0.5143405,-0.7672417 0.5973406,-0.7880733 0.00967,-0.00242 0.020076,-0.00405 0.030343,-0.00477 z m 0.949329,1.9220478 c -1.5276915,4.467e-4 -3.0522449,0.014938 -3.1063442,0.042915 -0.1523925,0.078802 -0.1534534,0.08376 -0.1534534,0.8743376 0,0.4447538 0.010357,0.7411098 0.026444,0.7711673 0.01437,0.026856 0.057162,0.065962 0.095366,0.086696 0.060186,0.032664 0.4823508,0.037692 3.1600962,0.03858 l 3.0903048,8.586e-4 0.08366,-0.074127 0.08323,-0.074559 0.0074,-0.7148148 c 0.0084,-0.8016376 0.0014,-0.8419553 -0.161255,-0.9098826 -0.06687,-0.027939 -1.597725,-0.041639 -3.1254174,-0.04118 z m 0.8999121,0.2874007 c 0.043124,9.27e-4 0.08587,0.013958 0.1395817,0.039448 0.1700149,0.080677 0.2064466,0.2915066 0.072394,0.4174446 -0.045337,0.042584 -0.1024775,0.062766 -0.2028669,0.07109 C 9.2671773,7.3519872 9.255254,7.3476944 9.1700852,7.2625256 9.0231805,7.1156205 9.0590402,6.9255612 9.2485462,6.846381 9.3038642,6.823267 9.3475992,6.812064 9.3907291,6.813003 Z m 1.7590773,0 c 0.04313,9.27e-4 0.08587,0.013958 0.139581,0.039448 0.170015,0.080677 0.206449,0.2915066 0.07239,0.4174446 -0.04532,0.042584 -0.102481,0.062766 -0.20287,0.071093 -0.132655,0.011003 -0.144576,0.00671 -0.229748,-0.07846 -0.146903,-0.1469053 -0.111043,-0.3369647 0.07846,-0.4161444 0.05532,-0.023114 0.09905,-0.034317 0.142182,-0.033377 z m -0.808447,0.00563 c 0.01377,6.554e-4 0.02707,0.00239 0.03988,0.00521 0.100216,0.022014 0.21909,0.1228477 0.239282,0.203304 0.02309,0.092006 -0.04491,0.2326772 -0.134814,0.2791636 -0.146853,0.075942 -0.373216,0.031206 -0.436082,-0.086263 -0.04242,-0.079263 -0.02993,-0.2185667 0.02557,-0.2891337 0.05546,-0.070498 0.169731,-0.1168725 0.266159,-0.1122719 z M 6.1491361,6.9638775 c 0.094821,0 0.1781613,0.079733 0.1781613,0.1703593 0,0.084956 -0.4919111,0.7416812 -0.5808679,0.7755022 C 5.6639015,7.941117 5.6548045,7.939715 5.5786713,7.879829 5.46366,7.7893609 5.4867209,7.7150968 5.7299568,7.3930268 6.0354757,6.9884885 6.0597726,6.963878 6.1491361,6.9638775 Z m 0.7265181,0 c 0.065831,0 0.1655908,0.1074934 0.1655908,0.1785953 0,0.061197 -0.5089824,0.7292184 -0.5813019,0.7629315 -0.067659,0.03154 -0.075582,0.031405 -0.1491179,0.00174 -0.069921,-0.028208 -0.088364,-0.0592 -0.091032,-0.1530167 C 6.2181436,7.69569 6.277251,7.6002518 6.4785834,7.3358156 6.7432106,6.9882464 6.7691976,6.963887 6.8756542,6.963887 Z m 0.685338,8.586e-4 c 0.048619,-0.00202 0.096422,0.012674 0.1261435,0.045518 0.089924,0.099367 0.056649,0.1832666 -0.213707,0.5362213 C 7.3325769,7.7303591 7.1955996,7.8925295 7.1691225,7.9067 c -0.026475,0.014173 -0.066708,0.026009 -0.089297,0.026009 -0.061649,0 -0.1660243,-0.1170974 -0.1660243,-0.1859644 0,-0.053459 0.3539087,-0.5509433 0.5162786,-0.7256519 0.032956,-0.035458 0.082293,-0.054323 0.1309127,-0.056351 z m 0.6883718,0.00217 c 0.116333,-0.012453 0.2154317,0.08634 0.1855311,0.2054742 -0.020002,0.079697 -0.4877934,0.6880039 -0.5596272,0.7278135 -0.069552,0.038541 -0.093348,0.038767 -0.1586554,0.00174 C 7.561942,7.8142165 7.5881751,7.7250964 7.8835036,7.3379617 8.0244698,7.1531748 8.1663215,6.9915656 8.1986466,6.9790373 c 0.01701,-0.00661 0.034099,-0.010357 0.050718,-0.012137 z m 0.2687601,1.934205 c -3.3217965,0 -3.1904871,-0.00503 -3.2606642,0.1261435 -0.03622,0.067658 -0.035423,1.4662924 8.586e-4,1.5341004 0.014913,0.02787 0.063697,0.07289 0.108371,0.100133 0.079225,0.0483 0.1559898,0.04932 3.1219496,0.04941 3.3356189,1.05e-4 3.1725649,0.0076 3.2550279,-0.151719 0.03547,-0.06858 0.04029,-0.176674 0.03382,-0.7941414 l -0.0074,-0.7152491 -0.08323,-0.074121 -0.08366,-0.074555 z m 0.8019447,0.281333 c 0.02109,-1.596e-4 0.046598,0.00197 0.079758,0.00481 0.1003895,0.00831 0.1575411,0.028074 0.202871,0.070647 0.134054,0.1259383 0.097624,0.3367676 -0.072393,0.417446 C 9.4248574,9.7253811 9.349323,9.7268551 9.242905,9.6805271 9.0585404,9.6002961 9.0251994,9.4101349 9.17008,9.265254 9.233957,9.201379 9.25679,9.182935 9.3200654,9.182461 Z m 0.9684022,0 c 0.140721,-0.00924 0.279874,0.063752 0.320779,0.1877009 0.03533,0.107031 0.0012,0.1990624 -0.101867,0.2752615 -0.195363,0.1444648 -0.483769,0.023263 -0.483769,-0.2033041 0,-0.1119737 0.03598,-0.1748749 0.127011,-0.2219442 0.04365,-0.022577 0.09094,-0.034627 0.137846,-0.037718 z m 0.790676,0 c 0.0211,-1.596e-4 0.04659,0.00197 0.07976,0.00481 0.100387,0.00831 0.157539,0.028074 0.202871,0.070647 0.134053,0.12594 0.09762,0.3367693 -0.0724,0.4174477 -0.105448,0.050034 -0.180982,0.051508 -0.287399,0.00518 -0.184366,-0.080231 -0.217707,-0.270398 -0.07282,-0.4152797 0.06386,-0.063875 0.08671,-0.082318 0.149985,-0.082793 z M 8.2671372,9.3090216 c 0.070352,0 0.1759941,0.1123681 0.1759941,0.1872656 0,0.056709 -0.3287757,0.5189958 -0.5058753,0.7113478 -0.1208746,0.131282 -0.3099413,0.07111 -0.3099413,-0.09883 0,-0.05639 0.05976,-0.1547338 0.2314805,-0.3806003 C 8.1188196,9.386187 8.1938386,9.3090216 8.2671372,9.3090216 Z m -2.1010953,0.00649 c 0.026918,0.00263 0.052876,0.016789 0.082796,0.039002 C 6.3746387,9.4479948 6.3533103,9.5234603 6.1092553,9.8460843 5.9879601,10.00642 5.858973,10.169047 5.8227225,10.207605 c -0.079156,0.0842 -0.1870752,0.09209 -0.26009,0.01906 -0.096534,-0.09654 -0.067591,-0.168646 0.2158746,-0.5383904 0.2188579,-0.285472 0.306783,-0.3807131 0.3875348,-0.372796 z m 0.6918393,0.0043 c 0.065208,0.00197 0.1345931,0.042668 0.1625564,0.1040356 0.04049,0.088863 0.00202,0.1594931 -0.2908672,0.5353526 C 6.5132052,10.236862 6.482804,10.265701 6.4014233,10.27261 6.3365846,10.2781 6.2988336,10.26568 6.2644428,10.22752 6.1712517,10.124544 6.2004393,10.052261 6.4785834,9.6939017 c 0.143882,-0.1853778 0.286704,-0.3484485 0.31731,-0.3623928 0.019152,-0.00873 0.040253,-0.012349 0.061987,-0.011715 z M 7.5397515,9.320241 C 7.6013295,9.317111 7.679211,9.350035 7.7096766,9.39566 7.7693146,9.484977 7.7250226,9.580834 7.4716944,9.9080383 7.3306523,10.090213 7.2019389,10.247462 7.1855952,10.257859 c -0.1029543,0.06549 -0.2717943,-0.0247 -0.2717943,-0.145217 0,-0.08951 0.5165653,-0.7677947 0.6008086,-0.7889401 0.00794,-0.00197 0.016347,-0.00306 0.025142,-0.00336 z" />
  <g
     aria-label="Krita"
     id="text1450"
     style="font-size:1.76385px;opacity:1;fill:#ffff00;stroke-width:0.529156">
    <rect
       style="font-size:1.76385px;fill:#ffff00;fill-opacity:1;stroke:none;stroke-width:0.519976;stroke-dasharray:none;filter:url(#filter3148)"
       id="rect1656-3"
       width="0.5055005"
       height="2.2653189"
       x="15.369148"
       y="4.3016486"
       rx="0"
       ry="0" />
    <rect
       style="opacity:1;fill:#ffff00;fill-opacity:1;stroke:none;stroke-width:0.519976;stroke-dasharray:none"
       id="rect1656"
       width="0.5055005"
       height="2.2653189"
       x="15.369148"
       y="4.3016486"
       rx="0"
       ry="0" />
  </g>
  <path
     d="M 6.1420025,14.179017 H 5.9567982 L 5.2830075,13.133054 h -0.00706 q 0.00353,0.06174 0.00882,0.153455 0.00529,0.09172 0.00529,0.188732 v 0.703776 H 5.1436634 v -1.259389 h 0.1834404 l 0.6720268,1.042436 h 0.00706 q -0.00176,-0.02822 -0.00529,-0.08466 -0.00176,-0.05644 -0.00529,-0.12347 -0.00176,-0.06703 -0.00176,-0.123469 v -0.710832 h 0.1481634 z m 0.686138,-0.963062 q 0.1217056,0 0.2081343,0.05292 0.088192,0.05292 0.1340526,0.149928 0.047624,0.09525 0.047624,0.224009 v 0.09348 H 6.5706184 q 0.00353,0.16051 0.081137,0.245175 0.079373,0.0829 0.2204812,0.0829 0.089956,0 0.1587465,-0.01588 0.070554,-0.01764 0.1446357,-0.04939 v 0.135817 q -0.072318,0.03175 -0.1428718,0.04586 -0.070554,0.01588 -0.1675658,0.01588 -0.1340526,0 -0.2381197,-0.05468 -0.1023033,-0.05468 -0.1605104,-0.162274 -0.056443,-0.109359 -0.056443,-0.266341 0,-0.155219 0.051152,-0.266342 0.052916,-0.111122 0.1463995,-0.171093 0.095248,-0.05997 0.2204813,-0.05997 z m -0.00176,0.126997 q -0.1111225,0 -0.176385,0.07232 -0.063499,0.07055 -0.075845,0.197551 h 0.481531 q -0.00176,-0.119942 -0.056443,-0.194023 -0.054679,-0.07585 -0.1728573,-0.07585 z m 0.9471859,0.726706 q 0.035277,0 0.072318,-0.0053 0.037041,-0.0071 0.059971,-0.01411 v 0.118178 q -0.024694,0.01235 -0.070554,0.0194 -0.04586,0.0088 -0.088192,0.0088 -0.074082,0 -0.1375803,-0.02469 -0.061735,-0.02646 -0.1005395,-0.08996 -0.038805,-0.0635 -0.038805,-0.178149 V 13.353535 H 7.3361278 v -0.07408 l 0.1358164,-0.06173 0.061735,-0.201079 h 0.09172 v 0.216953 h 0.2733968 v 0.119942 H 7.6253991 v 0.546794 q 0,0.08643 0.040569,0.128761 0.042332,0.04057 0.1075948,0.04057 z m 0.931313,-0.425087 q -0.02293,-0.07232 -0.040569,-0.141108 -0.015875,-0.07055 -0.024694,-0.109359 h -0.00706 q -0.00706,0.0388 -0.02293,0.109359 -0.015875,0.06879 -0.040569,0.142871 L 8.3997294,14.177253 H 8.2233444 L 7.9640585,13.23183 h 0.1605103 l 0.1305249,0.504461 q 0.019402,0.07585 0.037041,0.153455 0.017638,0.07761 0.024694,0.128761 h 0.00706 q 0.00706,-0.02999 0.015875,-0.07408 0.010583,-0.0441 0.02293,-0.09172 0.012347,-0.04939 0.024694,-0.08819 L 8.5549482,13.23183 h 0.1693296 l 0.1622742,0.532682 q 0.019402,0.05997 0.037041,0.130525 0.019402,0.07055 0.026458,0.121706 h 0.00706 q 0.00529,-0.0441 0.02293,-0.121706 0.019402,-0.07761 0.040569,-0.158746 L 9.1528934,13.23183 H 9.3116399 L 9.0488262,14.177253 H 8.8671497 Z m 1.5980465,0.05997 q 0,0.234592 -0.119942,0.363354 -0.118178,0.128761 -0.3210203,0.128761 -0.1252333,0 -0.2240089,-0.05644 -0.097012,-0.05821 -0.153455,-0.167565 -0.056443,-0.111123 -0.056443,-0.268106 0,-0.234592 0.118178,-0.361589 0.1181779,-0.126997 0.3210207,-0.126997 0.128761,0 0.2257727,0.05821 0.09878,0.05644 0.153455,0.165802 0.05644,0.107595 0.05644,0.264577 z m -0.714359,0 q 0,0.167566 0.065262,0.266342 0.067026,0.09701 0.211662,0.09701 0.1428716,0 0.2098986,-0.09701 0.06703,-0.09878 0.06703,-0.266342 0,-0.167565 -0.06703,-0.262813 -0.06703,-0.09525 -0.2116624,-0.09525 -0.1446357,0 -0.2098982,0.09525 -0.065262,0.09525 -0.065262,0.262813 z m 1.400496,-0.488586 q 0.02646,0 0.05644,0.0035 0.03175,0.0018 0.05468,0.0071 l -0.0194,0.142872 q -0.02293,-0.0053 -0.05115,-0.0088 -0.02646,-0.0035 -0.05115,-0.0035 -0.07232,0 -0.135816,0.04057 -0.0635,0.0388 -0.102304,0.111122 -0.03704,0.07055 -0.03704,0.165802 v 0.504461 h -0.155219 v -0.945424 h 0.126997 l 0.01764,0.172858 h 0.0071 q 0.04586,-0.07761 0.118178,-0.134053 0.07232,-0.05644 0.171093,-0.05644 z m 0.440963,0.322785 q 0,0.02822 -0.0035,0.07408 -0.0018,0.04586 -0.0035,0.07937 h 0.0071 q 0.01058,-0.01411 0.03175,-0.04057 0.02117,-0.02646 0.04233,-0.05292 0.02293,-0.02822 0.0388,-0.04586 l 0.301619,-0.319257 h 0.181676 l -0.382755,0.403922 0.409213,0.541502 h -0.186968 l -0.328076,-0.440962 -0.107595,0.09348 v 0.347478 h -0.153455 v -1.340526 h 0.153455 z"
     id="text2284"
     style="font-size:1.76385px;fill:#999999;stroke-width:0.529156"
     aria-label="Network" />
  <text
     xml:space="preserve"
     transform="scale(0.26457812)"
     id="text3806"
     style="fill:#999999;stroke-width:2;font-size:6.66666667px;white-space:pre;shape-inside:url(#rect3808)" />
</svg>
