<?xml version="1.0" encoding="UTF-8" standalone="no"?>
<svg
   width="64"
   height="64"
   version="1.1"
   viewBox="0 0 16.933 16.933"
   id="svg7"
   sodipodi:docname="Internet Template.svg"
   inkscape:version="1.4 (e7c3feb100, 2024-10-09)"
   xmlns:inkscape="http://www.inkscape.org/namespaces/inkscape"
   xmlns:sodipodi="http://sodipodi.sourceforge.net/DTD/sodipodi-0.dtd"
   xmlns:xlink="http://www.w3.org/1999/xlink"
   xmlns="http://www.w3.org/2000/svg"
   xmlns:svg="http://www.w3.org/2000/svg"
   xmlns:rdf="http://www.w3.org/1999/02/22-rdf-syntax-ns#"
   xmlns:cc="http://creativecommons.org/ns#"
   xmlns:dc="http://purl.org/dc/elements/1.1/">
  <sodipodi:namedview
     id="namedview7"
     pagecolor="#9c4444"
     bordercolor="#000000"
     borderopacity="0.25"
     inkscape:showpageshadow="2"
     inkscape:pageopacity="0.0"
     inkscape:pagecheckerboard="0"
     inkscape:deskcolor="#d1d1d1"
     inkscape:zoom="6.15625"
     inkscape:cx="15.675127"
     inkscape:cy="29.807107"
     inkscape:window-width="1183"
     inkscape:window-height="973"
     inkscape:window-x="35"
     inkscape:window-y="32"
     inkscape:window-maximized="0"
     inkscape:current-layer="svg7"
     showgrid="false" />
  <defs
     id="defs2">
    <rect
       x="67.489848"
       y="35.60533"
       width="15.337563"
       height="22.51269"
       id="rect3808" />
    <linearGradient
       inkscape:collect="always"
       id="linearGradient1134">
      <stop
         style="stop-color:#161616;stop-opacity:1;"
         offset="0"
         id="stop1130" />
      <stop
         style="stop-color:#404040;stop-opacity:1;"
         offset="1"
         id="stop1132" />
    </linearGradient>
    <linearGradient
       inkscape:collect="always"
       id="linearGradient883">
      <stop
         style="stop-color:#808080;stop-opacity:1;"
         offset="0"
         id="stop879" />
      <stop
         style="stop-color:#3e3e3e;stop-opacity:1;"
         offset="0.5"
         id="stop1216" />
      <stop
         style="stop-color:#242424;stop-opacity:1;"
         offset="1"
         id="stop881" />
    </linearGradient>
    <linearGradient
       inkscape:collect="always"
       xlink:href="#linearGradient883"
       id="linearGradient885"
       x1="2.1085808"
       y1="2.0236168"
       x2="14.846128"
       y2="15.071845"
       gradientUnits="userSpaceOnUse" />
    <linearGradient
       inkscape:collect="always"
       xlink:href="#linearGradient1134"
       id="linearGradient1136"
       x1="14.971222"
       y1="14.703373"
       x2="2.0756054"
       y2="2.0069976"
       gradientUnits="userSpaceOnUse" />
    <filter
       style="color-interpolation-filters:sRGB;"
       inkscape:label="Blur"
       id="filter1283"
       x="-0.082344266"
       y="-0.082344266"
       width="1.1646885"
       height="1.1646885">
      <feGaussianBlur
         stdDeviation="0.5 0.5"
         result="blur"
         id="feGaussianBlur1281" />
    </filter>
    <filter
       style="color-interpolation-filters:sRGB;"
       inkscape:label="Blur"
       id="filter3148"
       x="-0.94955398"
       y="-0.2118907"
       width="2.899108"
       height="1.4237814">
      <feGaussianBlur
         stdDeviation="0.2 0.2"
         result="blur"
         id="feGaussianBlur3146" />
    </filter>
  </defs>
  <metadata
     id="metadata2">
    <rdf:RDF>
      <cc:Work
         rdf:about="">
        <dc:format>image/svg+xml</dc:format>
        <dc:type
           rdf:resource="http://purl.org/dc/dcmitype/StillImage" />
      </cc:Work>
    </rdf:RDF>
  </metadata>
  <rect
     style="fill:#000000;stroke:none;stroke-width:0.539739;stroke-dasharray:none;filter:url(#filter1283)"
     id="rect246-1"
     width="14.572964"
     height="14.572964"
     x="1.1932471"
     y="1.2138842"
     rx="2.1589575"
     ry="2.1589575" />
  <rect
     style="opacity:1;fill:#000000;stroke:url(#linearGradient885);stroke-width:0.52915625;stroke-dasharray:none"
     id="rect246"
     width="14.287219"
     height="14.287219"
     x="1.3361193"
     y="1.3567564"
     rx="2.1166251"
     ry="2.1166251" />
  <rect
     style="fill:url(#linearGradient1136);fill-opacity:1;stroke:none;stroke-width:0.478315;stroke-dasharray:none"
     id="rect246-5"
     width="12.914515"
     height="12.914515"
     x="2.0224717"
     y="2.0431087"
     rx="1.5874687"
     ry="1.5874687" />
  <path
     id="path59"
     style="fill:#999999;fill-opacity:1;stroke:none;stroke-width:0.246605;stroke-dasharray:none;stroke-dashoffset:2.2;stroke-opacity:0.3"
     d="m 8.5195475,3.8227064 c -3.6908924,0 -3.5449847,-0.00554 -3.6229602,0.1401597 -0.018037,0.0337 -0.029381,0.3603977 -0.029381,0.8568527 0,0.8862052 0.0016,0.8955003 0.1806186,0.9734125 0.072824,0.031696 0.6823103,0.038583 3.4548649,0.039495 3.0585142,0.00105 3.3753562,-0.0032 3.4640172,-0.045275 0.177641,-0.084298 0.183663,-0.118456 0.174355,-1.005201 l -0.0082,-0.7942384 -0.09248,-0.082843 -0.09295,-0.082362 z M 10.531874,4.132888 c 0.112789,0.00287 0.220229,0.04959 0.273579,0.1310086 0.104293,0.1591722 0.03777,0.346057 -0.15172,0.426259 -0.112453,0.047598 -0.167518,0.047378 -0.2808,-0.00193 -0.114784,-0.049957 -0.180619,-0.1465815 -0.180619,-0.2649087 0,-0.1244155 0.03998,-0.1943036 0.141123,-0.2466042 0.06127,-0.031684 0.130766,-0.045545 0.198437,-0.043831 z m -1.0340983,0.00145 c 0.3456856,0 0.4394083,0.4244281 0.1218581,0.5514876 -0.1209028,0.04837 -0.1399074,0.049177 -0.268279,0.012035 C 9.1724248,4.6460859 9.095378,4.4525215 9.1847039,4.2797833 9.2353197,4.1819052 9.338266,4.1343256 9.4977757,4.1343256 Z m 1.9357443,0 c 0.360148,0 0.472639,0.4184567 0.147384,0.5485976 -0.06323,0.025299 -0.130634,0.044755 -0.149792,0.043349 -0.304231,-0.022313 -0.434973,-0.2966525 -0.236005,-0.4956178 0.08395,-0.08396 0.114367,-0.096329 0.238413,-0.096329 z M 8.2517512,4.2759287 c 0.069182,0 0.1844714,0.1301446 0.1844714,0.2080724 0,0.06302 -0.3653059,0.5766625 -0.5620839,0.790385 -0.1290654,0.1401794 -0.3443791,0.075723 -0.3443791,-0.1030728 0,-0.073907 0.057732,-0.1686634 0.2846544,-0.465754 C 8.0932535,4.3404944 8.1594987,4.2759257 8.2517512,4.2759257 Z m -2.3697109,0.00482 c 0.037663,-0.00418 0.07215,0.012965 0.113669,0.043826 0.143201,0.1064275 0.1200669,0.1888129 -0.1536462,0.548597 C 5.7067519,5.0510334 5.5634556,5.231544 5.5236934,5.2743854 5.4368192,5.3679875 5.3168842,5.3767944 5.235668,5.2955818 5.1281531,5.1880678 5.1601676,5.1079146 5.4769736,4.6940032 5.7007539,4.4016324 5.7991801,4.2899154 5.8820403,4.2807487 Z m 0.8004992,9.54e-4 c 0.0129,6.88e-5 0.025989,0.00239 0.039494,0.00579 0.092494,0.023201 0.1675591,0.1387821 0.1459392,0.2249178 -0.017613,0.070176 -0.4914002,0.7043897 -0.5900184,0.7898991 -0.0764,0.066244 -0.2004159,0.062971 -0.2639433,-0.00723 C 5.9128557,5.1833071 5.9458677,5.099675 6.2394229,4.7180683 6.5043149,4.3737241 6.5922331,4.2812123 6.6825395,4.2816946 Z m 0.7518541,0.00579 C 7.5142479,4.2819137 7.6043948,4.3211159 7.625126,4.375142 7.6718423,4.496879 7.636682,4.5730282 7.3708155,4.9227719 7.220894,5.1199918 7.0778302,5.2972855 7.0534094,5.3167602 6.9388705,5.4080925 6.7369662,5.3133326 6.7369662,5.168412 c 0,-0.09846 0.5714894,-0.8524908 0.6637118,-0.875637 0.010741,-0.00269 0.022307,-0.0045 0.033715,-0.0053 z m 1.05481,2.1356086 c -1.697435,4.964e-4 -3.3913832,0.016598 -3.4514935,0.047683 -0.169325,0.087558 -0.1705038,0.093067 -0.1705038,0.9714862 0,0.4941709 0.011508,0.8234554 0.029382,0.8568526 0.015967,0.02984 0.063513,0.073291 0.1059624,0.096329 0.066873,0.036293 0.5359454,0.04188 3.511218,0.042867 l 3.4336723,9.54e-4 0.09295,-0.082363 0.09248,-0.082843 0.0082,-0.7942387 c 0.0093,-0.8907084 0.0016,-0.9355059 -0.179172,-1.0109806 -0.0743,-0.031043 -1.775251,-0.046265 -3.4726865,-0.045756 z M 9.489106,6.7424354 c 0.047915,0.00103 0.095411,0.015509 0.1550907,0.043831 0.1889055,0.089641 0.2293852,0.3238963 0.080438,0.4638274 -0.050374,0.047316 -0.1138639,0.06974 -0.2254076,0.078989 C 9.3518288,7.341308 9.3385807,7.3365382 9.2439487,7.2419062 9.0807213,7.0786783 9.1205654,6.8675013 9.3311276,6.7795233 9.3925925,6.7538414 9.4411865,6.741393 9.4891086,6.742437 Z m 1.95453,0 c 0.04792,0.00103 0.09541,0.015509 0.15509,0.043831 0.188906,0.089641 0.229388,0.3238963 0.08043,0.4638274 -0.05036,0.047316 -0.113868,0.06974 -0.225411,0.078992 -0.147394,0.012225 -0.16064,0.00745 -0.255275,-0.087178 -0.163226,-0.1632281 -0.123382,-0.3744053 0.08718,-0.4623827 0.06147,-0.025682 0.110057,-0.03813 0.15798,-0.037086 z m -0.898274,0.00626 c 0.0153,7.283e-4 0.03008,0.00266 0.04431,0.00579 0.111351,0.02446 0.243433,0.1364975 0.265869,0.2258934 0.02566,0.1022293 -0.0499,0.2585302 -0.149794,0.3101818 -0.16317,0.08438 -0.414684,0.034673 -0.484535,-0.095848 -0.04713,-0.08807 -0.03326,-0.2428519 0.02841,-0.3212597 0.06162,-0.078331 0.18859,-0.1298583 0.295732,-0.1247466 z M 5.8873386,6.910075 c 0.1053569,0 0.197957,0.088592 0.197957,0.1892881 0,0.094396 -0.5465679,0.8240902 -0.6454088,0.8616691 -0.091698,0.034864 -0.1018053,0.033307 -0.186398,-0.033233 C 5.1256985,7.8272788 5.1513217,7.7447631 5.4215838,7.3869075 5.7610493,6.9374206 5.7880458,6.9100755 5.8873386,6.910075 Z m 0.8072424,0 c 0.073146,0 0.1839897,0.1194371 0.1839897,0.1984392 0,0.067997 -0.565536,0.8102427 -0.645891,0.8477017 -0.075177,0.035044 -0.08398,0.034894 -0.1656865,0.00193 C 5.9893034,7.9268065 5.9688112,7.892371 5.9658467,7.7881307 5.9640136,7.7232 6.0296885,7.6171575 6.2533912,7.3233396 6.5474214,6.9371516 6.5762959,6.9100855 6.694581,6.9100855 Z m 0.7614866,9.54e-4 c 0.054021,-0.00224 0.1071353,0.014082 0.1401595,0.050575 0.099916,0.1104079 0.062943,0.2036295 -0.2374523,0.5958014 -0.156502,0.2043158 -0.308699,0.3845051 -0.338118,0.4002502 -0.029417,0.015748 -0.07412,0.028899 -0.099219,0.028899 -0.068499,0 -0.1844714,-0.1301083 -0.1844714,-0.2066272 0,-0.059399 0.3932319,-0.6121592 0.5736429,-0.8062798 0.036618,-0.039398 0.091437,-0.060359 0.1454585,-0.062612 z m 0.7648576,0.00241 C 8.3501841,6.899602 8.4602937,7.009372 8.4270709,7.1417437 8.4048469,7.2302957 7.8850782,7.9061924 7.8052628,7.9504253 7.7279828,7.9932483 7.7015433,7.9934993 7.6289791,7.9523553 7.457123,7.8548961 7.4862708,7.7558738 7.8144136,7.3257241 7.9710427,7.1204053 8.1286557,6.9408396 8.1645725,6.9269192 c 0.0189,-0.00734 0.037888,-0.011508 0.056353,-0.013486 z m 0.2986223,2.1491167 c -3.690885,0 -3.5449857,-0.00559 -3.6229602,0.1401594 -0.040244,0.075176 -0.039359,1.6292139 9.54e-4,1.7045559 0.01657,0.03097 0.070774,0.08099 0.1204122,0.111259 0.088028,0.05367 0.173322,0.0548 3.4688329,0.0549 3.7062436,1.17e-4 3.5250726,0.0085 3.6166976,-0.168577 0.03941,-0.0762 0.04477,-0.196304 0.03758,-0.882379 l -0.0082,-0.7947212 -0.09248,-0.082357 -0.09295,-0.082839 z m 0.8910497,0.3125922 c 0.023433,-1.774e-4 0.051776,0.00219 0.08862,0.00535 0.1115439,0.00923 0.1750457,0.031193 0.2254122,0.078497 C 9.8735783,9.5989263 9.8331,9.8331811 9.6441931,9.9228238 9.5270293,9.9784168 9.4431022,9.9800548 9.32486,9.9285838 9.1200104,9.8394388 9.0829649,9.628148 9.2439437,9.4671692 9.3149177,9.396197 9.340288,9.375704 9.4105942,9.3751767 Z m 1.0760028,0 c 0.156356,-0.010271 0.310971,0.070835 0.356421,0.2085565 0.03925,0.1189234 0.0013,0.2211805 -0.113186,0.3058462 -0.21707,0.1605164 -0.537521,0.025848 -0.537521,-0.2258935 0,-0.1244152 0.03998,-0.1943054 0.141123,-0.2466047 0.0485,-0.025086 0.101046,-0.038475 0.153163,-0.041909 z m 0.878528,0 c 0.02344,-1.774e-4 0.05177,0.00219 0.08862,0.00535 0.111542,0.00923 0.175044,0.031193 0.225413,0.078497 0.148948,0.1399333 0.108467,0.3741881 -0.08044,0.4638308 -0.117165,0.055593 -0.201091,0.057231 -0.319333,0.00576 -0.204851,-0.089145 -0.241896,-0.3004423 -0.08091,-0.4614219 0.07096,-0.070972 0.09634,-0.091464 0.16665,-0.091992 z M 8.2406732,9.5157907 c 0.078169,0 0.195549,0.1248534 0.195549,0.2080728 0,0.06301 -0.3653063,0.5766625 -0.5620837,0.7903865 -0.1343051,0.145869 -0.3443792,0.07901 -0.3443792,-0.109816 0,-0.06266 0.0664,-0.171926 0.2572005,-0.4228888 C 8.0758758,9.60153 8.1592303,9.5157907 8.2406732,9.5157907 Z m -2.3345504,0.00721 c 0.029909,0.00292 0.058751,0.018654 0.091995,0.043335 0.1397793,0.1038696 0.116081,0.1877202 -0.1550912,0.5461913 -0.1347724,0.178151 -0.2780914,0.358847 -0.3183697,0.40169 -0.087951,0.09355 -0.2078614,0.10232 -0.2889889,0.02118 C 5.1284084,10.428134 5.1605672,10.348012 5.4755286,9.9371851 5.7187041,9.619994 5.8163986,9.5141706 5.9061228,9.5229673 Z m 0.7687104,0.00478 c 0.072453,0.00219 0.1495479,0.047409 0.1806182,0.1155951 0.044989,0.098737 0.00224,0.1772145 -0.3231858,0.5948362 -0.2404057,0.308512 -0.2741849,0.340556 -0.3646079,0.348232 -0.072043,0.0061 -0.1139885,-0.0077 -0.1522005,-0.0501 -0.1035457,-0.114417 -0.071115,-0.194732 0.237934,-0.5929088 0.1598689,-0.2059753 0.31856,-0.387165 0.3525667,-0.4026587 0.02128,-0.0097 0.044725,-0.013721 0.068875,-0.013017 z m 0.7576337,4.771e-4 c 0.06842,-0.00348 0.1549549,0.033105 0.1888056,0.083799 0.066264,0.099241 0.017051,0.2057489 -0.2644247,0.5693092 -0.1567134,0.202416 -0.2997283,0.377137 -0.3178879,0.38869 -0.1143937,0.07277 -0.3019937,-0.02744 -0.3019937,-0.161353 0,-0.09945 0.5739614,-0.8531048 0.6675651,-0.8765997 0.00882,-0.00219 0.018163,-0.0034 0.027936,-0.00373 z" />
  <g
     aria-label="Krita"
     id="text1450"
     style="font-size:1.76385px;opacity:1;fill:#ffff00;stroke-width:0.529156">
    <rect
       style="font-size:1.76385px;fill:#ffff00;fill-opacity:1;stroke:none;stroke-width:0.519976;stroke-dasharray:none;filter:url(#filter3148)"
       id="rect1656-3"
       width="0.5055005"
       height="2.2653189"
       x="15.369148"
       y="4.3016486"
       rx="0"
       ry="0" />
    <rect
       style="opacity:1;fill:#ffff00;fill-opacity:1;stroke:none;stroke-width:0.519976;stroke-dasharray:none"
       id="rect1656"
       width="0.5055005"
       height="2.2653189"
       x="15.369148"
       y="4.3016486"
       rx="0"
       ry="0" />
  </g>
  <path
     d="M 6.1420025,14.179017 H 5.9567982 L 5.2830075,13.133054 h -0.00706 q 0.00353,0.06174 0.00882,0.153455 0.00529,0.09172 0.00529,0.188732 v 0.703776 H 5.1436634 v -1.259389 h 0.1834404 l 0.6720268,1.042436 h 0.00706 q -0.00176,-0.02822 -0.00529,-0.08466 -0.00176,-0.05644 -0.00529,-0.12347 -0.00176,-0.06703 -0.00176,-0.123469 v -0.710832 h 0.1481634 z m 0.686138,-0.963062 q 0.1217056,0 0.2081343,0.05292 0.088192,0.05292 0.1340526,0.149928 0.047624,0.09525 0.047624,0.224009 v 0.09348 H 6.5706184 q 0.00353,0.16051 0.081137,0.245175 0.079373,0.0829 0.2204812,0.0829 0.089956,0 0.1587465,-0.01588 0.070554,-0.01764 0.1446357,-0.04939 v 0.135817 q -0.072318,0.03175 -0.1428718,0.04586 -0.070554,0.01588 -0.1675658,0.01588 -0.1340526,0 -0.2381197,-0.05468 -0.1023033,-0.05468 -0.1605104,-0.162274 -0.056443,-0.109359 -0.056443,-0.266341 0,-0.155219 0.051152,-0.266342 0.052916,-0.111122 0.1463995,-0.171093 0.095248,-0.05997 0.2204813,-0.05997 z m -0.00176,0.126997 q -0.1111225,0 -0.176385,0.07232 -0.063499,0.07055 -0.075845,0.197551 h 0.481531 q -0.00176,-0.119942 -0.056443,-0.194023 -0.054679,-0.07585 -0.1728573,-0.07585 z m 0.9471859,0.726706 q 0.035277,0 0.072318,-0.0053 0.037041,-0.0071 0.059971,-0.01411 v 0.118178 q -0.024694,0.01235 -0.070554,0.0194 -0.04586,0.0088 -0.088192,0.0088 -0.074082,0 -0.1375803,-0.02469 -0.061735,-0.02646 -0.1005395,-0.08996 -0.038805,-0.0635 -0.038805,-0.178149 V 13.353535 H 7.3361278 v -0.07408 l 0.1358164,-0.06173 0.061735,-0.201079 h 0.09172 v 0.216953 h 0.2733968 v 0.119942 H 7.6253991 v 0.546794 q 0,0.08643 0.040569,0.128761 0.042332,0.04057 0.1075948,0.04057 z m 0.931313,-0.425087 q -0.02293,-0.07232 -0.040569,-0.141108 -0.015875,-0.07055 -0.024694,-0.109359 h -0.00706 q -0.00706,0.0388 -0.02293,0.109359 -0.015875,0.06879 -0.040569,0.142871 L 8.3997294,14.177253 H 8.2233444 L 7.9640585,13.23183 h 0.1605103 l 0.1305249,0.504461 q 0.019402,0.07585 0.037041,0.153455 0.017638,0.07761 0.024694,0.128761 h 0.00706 q 0.00706,-0.02999 0.015875,-0.07408 0.010583,-0.0441 0.02293,-0.09172 0.012347,-0.04939 0.024694,-0.08819 L 8.5549482,13.23183 h 0.1693296 l 0.1622742,0.532682 q 0.019402,0.05997 0.037041,0.130525 0.019402,0.07055 0.026458,0.121706 h 0.00706 q 0.00529,-0.0441 0.02293,-0.121706 0.019402,-0.07761 0.040569,-0.158746 L 9.1528934,13.23183 H 9.3116399 L 9.0488262,14.177253 H 8.8671497 Z m 1.5980465,0.05997 q 0,0.234592 -0.119942,0.363354 -0.118178,0.128761 -0.3210203,0.128761 -0.1252333,0 -0.2240089,-0.05644 -0.097012,-0.05821 -0.153455,-0.167565 -0.056443,-0.111123 -0.056443,-0.268106 0,-0.234592 0.118178,-0.361589 0.1181779,-0.126997 0.3210207,-0.126997 0.128761,0 0.2257727,0.05821 0.09878,0.05644 0.153455,0.165802 0.05644,0.107595 0.05644,0.264577 z m -0.714359,0 q 0,0.167566 0.065262,0.266342 0.067026,0.09701 0.211662,0.09701 0.1428716,0 0.2098986,-0.09701 0.06703,-0.09878 0.06703,-0.266342 0,-0.167565 -0.06703,-0.262813 -0.06703,-0.09525 -0.2116624,-0.09525 -0.1446357,0 -0.2098982,0.09525 -0.065262,0.09525 -0.065262,0.262813 z m 1.400496,-0.488586 q 0.02646,0 0.05644,0.0035 0.03175,0.0018 0.05468,0.0071 l -0.0194,0.142872 q -0.02293,-0.0053 -0.05115,-0.0088 -0.02646,-0.0035 -0.05115,-0.0035 -0.07232,0 -0.135816,0.04057 -0.0635,0.0388 -0.102304,0.111122 -0.03704,0.07055 -0.03704,0.165802 v 0.504461 h -0.155219 v -0.945424 h 0.126997 l 0.01764,0.172858 h 0.0071 q 0.04586,-0.07761 0.118178,-0.134053 0.07232,-0.05644 0.171093,-0.05644 z m 0.440963,0.322785 q 0,0.02822 -0.0035,0.07408 -0.0018,0.04586 -0.0035,0.07937 h 0.0071 q 0.01058,-0.01411 0.03175,-0.04057 0.02117,-0.02646 0.04233,-0.05292 0.02293,-0.02822 0.0388,-0.04586 l 0.301619,-0.319257 h 0.181676 l -0.382755,0.403922 0.409213,0.541502 h -0.186968 l -0.328076,-0.440962 -0.107595,0.09348 v 0.347478 h -0.153455 v -1.340526 h 0.153455 z"
     id="text2284"
     style="font-size:1.76385px;fill:#999999;stroke-width:0.529156"
     aria-label="Network" />
  <text
     xml:space="preserve"
     transform="scale(0.26457812)"
     id="text3806"
     style="fill:#999999;stroke-width:2;font-size:6.66666667px;white-space:pre;shape-inside:url(#rect3808)" />
</svg>
