<?xml version="1.0" encoding="UTF-8" standalone="no"?>
<svg
   width="64"
   height="64"
   version="1.1"
   id="svg73"
   sodipodi:docname="folder.svg"
   inkscape:version="1.2.2 (b0a8486541, 2022-12-01)"
   xmlns:inkscape="http://www.inkscape.org/namespaces/inkscape"
   xmlns:sodipodi="http://sodipodi.sourceforge.net/DTD/sodipodi-0.dtd"
   xmlns:xlink="http://www.w3.org/1999/xlink"
   xmlns="http://www.w3.org/2000/svg"
   xmlns:svg="http://www.w3.org/2000/svg"
   xmlns:rdf="http://www.w3.org/1999/02/22-rdf-syntax-ns#"
   xmlns:cc="http://creativecommons.org/ns#"
   xmlns:dc="http://purl.org/dc/elements/1.1/">
  <metadata
     id="metadata77">
    <rdf:RDF>
      <cc:Work
         rdf:about="">
        <dc:format>image/svg+xml</dc:format>
        <dc:type
           rdf:resource="http://purl.org/dc/dcmitype/StillImage" />
      </cc:Work>
    </rdf:RDF>
  </metadata>
  <sodipodi:namedview
     pagecolor="#f5f7fa"
     bordercolor="#666666"
     borderopacity="1"
     objecttolerance="10"
     gridtolerance="10"
     guidetolerance="10"
     inkscape:pageopacity="0"
     inkscape:pageshadow="2"
     inkscape:window-width="1226"
     inkscape:window-height="603"
     id="namedview75"
     showgrid="false"
     inkscape:zoom="6.2890626"
     inkscape:cx="41.659627"
     inkscape:cy="39.751552"
     inkscape:window-x="35"
     inkscape:window-y="32"
     inkscape:window-maximized="0"
     inkscape:current-layer="g877"
     inkscape:document-rotation="0"
     inkscape:pagecheckerboard="0"
     inkscape:showpageshadow="2"
     inkscape:deskcolor="#d1d1d1" />
  <defs
     id="defs29">
    <linearGradient
       id="linearGradient1"
       inkscape:collect="always">
      <stop
         style="stop-color:#b2b2b2;stop-opacity:1;"
         offset="0"
         id="stop1-3" />
      <stop
         style="stop-color:#ffffff;stop-opacity:1;"
         offset="1"
         id="stop2-6" />
    </linearGradient>
    <linearGradient
       inkscape:collect="always"
       xlink:href="#linearGradient1"
       id="linearGradient7"
       gradientUnits="userSpaceOnUse"
       x1="-11.836824"
       y1="-49.950535"
       x2="-11.840569"
       y2="-53.775551" />
    <linearGradient
       inkscape:collect="always"
       xlink:href="#linearGradient883"
       id="linearGradient1583"
       x1="3.0887103"
       y1="9.7555704"
       x2="61.754448"
       y2="56.700771"
       gradientUnits="userSpaceOnUse"
       gradientTransform="matrix(0.81818182,0,0,0.81818182,5.8109493,5.9356838)" />
    <linearGradient
       inkscape:collect="always"
       xlink:href="#linearGradient1134"
       id="linearGradient1687"
       x1="56.924576"
       y1="51.264984"
       x2="7.1745505"
       y2="19.986633"
       gradientUnits="userSpaceOnUse"
       gradientTransform="matrix(0.91493911,0,0,0.98447115,2.7975482,0.22815629)" />
    <filter
       style="color-interpolation-filters:sRGB;"
       inkscape:label="Blur"
       id="filter1780"
       x="-0.088182512"
       y="-0.11071178"
       width="1.176365"
       height="1.2214236">
      <feGaussianBlur
         stdDeviation="2 2"
         result="blur"
         id="feGaussianBlur1778" />
    </filter>
    <linearGradient
       inkscape:collect="always"
       id="linearGradient883">
      <stop
         style="stop-color:#808080;stop-opacity:1;"
         offset="0"
         id="stop879" />
      <stop
         style="stop-color:#3e3e3e;stop-opacity:1;"
         offset="0.5"
         id="stop1216" />
      <stop
         style="stop-color:#242424;stop-opacity:1;"
         offset="1"
         id="stop881" />
    </linearGradient>
    <linearGradient
       inkscape:collect="always"
       id="linearGradient1134">
      <stop
         style="stop-color:#161616;stop-opacity:1;"
         offset="0"
         id="stop1130" />
      <stop
         style="stop-color:#404040;stop-opacity:1;"
         offset="1"
         id="stop1132" />
    </linearGradient>
  </defs>
  <g
     id="g877"
     transform="matrix(1.1,0,0,1.1,-3.1845928,-3.2065454)">
    <path
       style="fill:#000000;fill-opacity:1;stroke:none;stroke-width:0.722755;filter:url(#filter1780);opacity:0.5"
       d="M 7.3485699,54.25847 C 6.6663746,53.948651 5.914866,53.308064 5.5754123,52.747033 5.0044211,51.803325 4.9835199,51.278758 4.8972987,35.728141 4.7727953,13.273037 4.7864748,12.73229 5.4970042,12.02176 6.0530529,11.465712 6.4606782,11.443556 16.134899,11.443556 h 10.05969 l 2.789175,2.457369 2.789175,2.457369 h 11.823902 c 11.765593,0 11.830186,0.0033 13.098059,0.663129 0.905341,0.471182 1.46244,1.032852 1.924634,1.940422 0.650359,1.277054 0.65048,1.280172 0.65048,16.621745 0,15.338179 -2.66e-4,15.344979 -0.65048,16.633203 -0.4286,0.84916 -1.044931,1.509417 -1.806889,1.935667 l -1.156409,0.646915 -23.561829,-0.0017 C 9.7429673,54.796195 8.471754,54.768424 7.3485699,54.258329 Z"
       id="path1575-7"
       transform="matrix(0.9,0,0,0.9,3.2053733,3.3121467)" />
    <path
       style="opacity:1;fill:url(#linearGradient1583);fill-opacity:1;stroke:none;stroke-width:0.65048"
       d="M 9.8190863,52.14477 C 9.2051104,51.865933 8.5287528,51.289404 8.2232444,50.784477 7.7093523,49.935139 7.6905412,49.463029 7.6129421,35.467474 7.5008891,15.25788 7.5132006,14.771208 8.1526771,14.131731 8.6531209,13.631288 9.0199837,13.611347 17.726782,13.611347 h 9.053721 l 2.510257,2.211632 2.510258,2.211632 H 42.44253 c 10.589034,0 10.647168,0.0029 11.788253,0.596816 0.814807,0.424064 1.316196,0.929567 1.732171,1.74638 0.585323,1.149348 0.585432,1.152155 0.585432,14.959571 0,13.80436 -2.39e-4,13.81048 -0.585432,14.969883 -0.38574,0.764244 -0.940438,1.358475 -1.6262,1.742099 l -1.040768,0.582224 -21.205646,-0.0016 c -20.116296,-0.0013 -21.260388,-0.0263 -22.2712537,-0.485388 z"
       id="path1575" />
    <path
       style="fill:#f5f7fa;stroke-width:0.204426;fill-opacity:1"
       d=""
       id="path3" />
    <g
       transform="matrix(3.0924016,0,0,3.4016418,57.097122,202.44137)"
       fill="url(#linearGradient939)"
       stroke-width="0.66145"
       id="g46-5"
       style="fill:url(#linearGradient7);fill-opacity:1" />
    <rect
       style="fill:url(#linearGradient1687);fill-opacity:1;stroke:#000000;stroke-width:0.891;stroke-dasharray:none;stroke-dashoffset:0;stroke-opacity:1"
       id="rect1-6-7"
       width="45.051292"
       height="30.928782"
       x="9.537137"
       y="19.827698"
       rx="3.8921614"
       ry="3.5523398" />
    <g
       id="g3"
       style="fill:#999999;fill-opacity:1"
       transform="matrix(2.7553298,0,0,2.7553298,53.238957,-2.8598064)">
      <g
         id="g2-7"
         style="fill:#999999;fill-opacity:1"
         transform="translate(-11.11228)">
        <rect
           width="5.4524312"
           height="1.0123751"
           y="14.333112"
           fill="#a4ffcc"
           opacity="0.7"
           rx="0.42182297"
           id="rect11661-9"
           x="3.6829565"
           style="opacity:1;fill:#999999;fill-opacity:1;stroke:none;stroke-width:0.17557;stroke-dasharray:none;stroke-opacity:0.3"
           ry="0.42182297" />
        <rect
           width="1.0123751"
           height="1.0123751"
           x="3.8595989"
           fill="#ffffff"
           rx="0.14060766"
           id="rect11663-1"
           y="10.157064"
           style="fill:#999999;fill-opacity:1;stroke:none;stroke-width:0.192878;stroke-dasharray:none;stroke-opacity:0.3"
           ry="0.14060766" />
        <rect
           width="1.0123751"
           height="1.0123751"
           x="3.8595989"
           y="11.92872"
           fill="#ffffff"
           rx="0.14060766"
           id="rect11665-2"
           style="fill:#999999;fill-opacity:1;stroke:none;stroke-width:0.192878;stroke-dasharray:none;stroke-opacity:0.3"
           ry="0.14060766" />
      </g>
    </g>
    <g
       aria-label="Desktop"
       id="text5912"
       style="font-size:6.06061px;fill:#999999;stroke-width:0.909091">
      <path
         d="m 28.803867,45.473523 q 0,1.09697 -0.6,1.654546 -0.59394,0.551516 -1.660607,0.551516 h -1.206062 v -4.327276 h 1.333335 q 0.654545,0 1.133334,0.242424 0.478788,0.242425 0.739394,0.715152 0.260606,0.466667 0.260606,1.163638 z m -0.575758,0.01818 q 0,-0.866667 -0.430303,-1.266667 -0.424243,-0.406061 -1.206061,-0.406061 h -0.709092 v 3.393942 h 0.587879 q 1.757577,0 1.757577,-1.721214 z"
         style="text-align:end;text-anchor:end"
         id="path8457" />
      <path
         d="m 30.94326,44.370492 q 0.418182,0 0.715152,0.181818 0.30303,0.181818 0.460606,0.515152 0.163637,0.327273 0.163637,0.769697 v 0.321212 h -2.224244 q 0.01212,0.551516 0.278788,0.842425 0.272727,0.284849 0.757576,0.284849 0.309091,0 0.545455,-0.05455 0.242424,-0.06061 0.49697,-0.169697 v 0.466667 q -0.248485,0.109091 -0.490909,0.157576 -0.242425,0.05455 -0.575758,0.05455 -0.460607,0 -0.818183,-0.187879 -0.351515,-0.187879 -0.551515,-0.557576 -0.19394,-0.375758 -0.19394,-0.915152 0,-0.533334 0.175758,-0.915153 0.181818,-0.381818 0.503031,-0.587879 0.327272,-0.20606 0.757576,-0.20606 z m -0.0061,0.436363 q -0.381818,0 -0.606061,0.248485 -0.218182,0.242425 -0.260606,0.678789 h 1.654546 q -0.0061,-0.412122 -0.193939,-0.666667 -0.187879,-0.260607 -0.59394,-0.260607 z"
         style="text-align:end;text-anchor:end"
         id="path8459" />
      <path
         d="m 35.222045,46.782614 q 0,0.472728 -0.351515,0.715152 -0.351515,0.242425 -0.945455,0.242425 -0.339394,0 -0.587879,-0.05455 -0.242425,-0.05454 -0.430304,-0.151515 v -0.484849 q 0.19394,0.09697 0.466667,0.181818 0.278788,0.07879 0.563637,0.07879 0.406061,0 0.587879,-0.127273 0.181819,-0.133333 0.181819,-0.351515 0,-0.121212 -0.06667,-0.218182 -0.06667,-0.09697 -0.242425,-0.193939 -0.169697,-0.09697 -0.490909,-0.218182 -0.315152,-0.121212 -0.539394,-0.242425 -0.224243,-0.121212 -0.345455,-0.290909 -0.121212,-0.169697 -0.121212,-0.436364 0,-0.412121 0.333333,-0.636364 0.339395,-0.224242 0.884849,-0.224242 0.29697,0 0.551516,0.06061 0.260606,0.05455 0.484849,0.157575 l -0.181819,0.424243 q -0.20606,-0.08485 -0.430303,-0.145454 -0.224242,-0.06061 -0.460606,-0.06061 -0.327273,0 -0.503031,0.109091 -0.169697,0.103031 -0.169697,0.284849 0,0.133334 0.07879,0.230303 0.07879,0.09091 0.260606,0.181819 0.187879,0.08485 0.49697,0.20606 0.309091,0.115152 0.527273,0.236364 0.218182,0.121212 0.333334,0.29697 0.115151,0.169697 0.115151,0.430303 z"
         style="text-align:end;text-anchor:end"
         id="path8461" />
      <path
         d="m 36.537198,45.479583 q 0,0.09697 -0.01212,0.254546 -0.0061,0.157576 -0.01212,0.272727 h 0.02424 q 0.03636,-0.04848 0.109091,-0.139394 0.07273,-0.09091 0.145455,-0.181818 0.07879,-0.09697 0.133333,-0.157576 l 1.036364,-1.09697 h 0.624243 l -1.315152,1.387879 1.406061,1.860608 h -0.642424 l -1.127274,-1.515153 -0.369697,0.321212 v 1.193941 h -0.527273 v -4.606064 h 0.527273 z"
         style="text-align:end;text-anchor:end"
         id="path8463" />
      <path
         d="m 40.331142,47.303827 q 0.121212,0 0.248485,-0.01818 0.127273,-0.02424 0.206061,-0.04848 v 0.406061 q -0.08485,0.04242 -0.242424,0.06667 -0.157576,0.0303 -0.303031,0.0303 -0.254546,0 -0.472727,-0.08485 -0.212122,-0.09091 -0.345455,-0.309091 -0.133334,-0.218182 -0.133334,-0.612122 v -1.89091 h -0.460606 v -0.254546 l 0.466667,-0.212121 0.212121,-0.690909 h 0.315152 v 0.745455 h 0.939395 v 0.412121 h -0.939395 v 1.878789 q 0,0.29697 0.139394,0.442425 0.145455,0.139394 0.369697,0.139394 z"
         style="text-align:end;text-anchor:end"
         id="path8465" />
      <path
         d="m 44.258418,46.04928 q 0,0.806062 -0.412122,1.248486 -0.406061,0.442425 -1.103031,0.442425 -0.430303,0 -0.769697,-0.19394 -0.333334,-0.2 -0.527273,-0.575758 -0.19394,-0.381818 -0.19394,-0.921213 0,-0.806061 0.406061,-1.242425 0.406061,-0.436363 1.103031,-0.436363 0.442425,0 0.775758,0.2 0.339394,0.193939 0.527273,0.569697 0.19394,0.369697 0.19394,0.909091 z m -2.454547,0 q 0,0.575758 0.224242,0.915153 0.230304,0.333333 0.727274,0.333333 0.490909,0 0.721212,-0.333333 0.230303,-0.339395 0.230303,-0.915153 0,-0.575757 -0.230303,-0.90303 -0.230303,-0.327273 -0.727273,-0.327273 -0.49697,0 -0.721213,0.327273 -0.224242,0.327273 -0.224242,0.90303 z"
         style="text-align:end;text-anchor:end"
         id="path8467" />
      <path
         d="m 46.646295,44.370492 q 0.6,0 0.963637,0.418182 0.369697,0.418182 0.369697,1.260606 0,0.830304 -0.369697,1.260607 -0.363637,0.430304 -0.969698,0.430304 -0.375757,0 -0.624242,-0.139394 -0.242425,-0.145455 -0.381819,-0.333334 h -0.03636 q 0.01212,0.10303 0.02424,0.260606 0.01212,0.157576 0.01212,0.272728 v 1.333334 H 45.10084 v -4.703033 h 0.436364 l 0.07273,0.442424 h 0.02424 q 0.145455,-0.212121 0.381819,-0.357576 0.236363,-0.145454 0.630303,-0.145454 z m -0.09697,0.448485 q -0.49697,0 -0.70303,0.278788 -0.200001,0.278788 -0.212122,0.848485 v 0.10303 q 0,0.600001 0.19394,0.927274 0.2,0.321212 0.733334,0.321212 0.296969,0 0.484848,-0.163636 0.19394,-0.163637 0.284849,-0.442425 0.09697,-0.284849 0.09697,-0.648485 0,-0.557576 -0.218182,-0.89091 -0.212122,-0.333333 -0.660607,-0.333333 z"
         style="text-align:end;text-anchor:end"
         id="path8469" />
    </g>
  </g>
</svg>
