<?xml version="1.0" encoding="UTF-8" standalone="no"?>
<svg
   width="64"
   height="64"
   version="1.1"
   viewBox="0 0 16.933 16.933"
   id="svg7"
   sodipodi:docname="user-trash-full.svg"
   inkscape:version="1.4 (e7c3feb100, 2024-10-09)"
   xmlns:inkscape="http://www.inkscape.org/namespaces/inkscape"
   xmlns:sodipodi="http://sodipodi.sourceforge.net/DTD/sodipodi-0.dtd"
   xmlns:xlink="http://www.w3.org/1999/xlink"
   xmlns="http://www.w3.org/2000/svg"
   xmlns:svg="http://www.w3.org/2000/svg"
   xmlns:rdf="http://www.w3.org/1999/02/22-rdf-syntax-ns#"
   xmlns:cc="http://creativecommons.org/ns#"
   xmlns:dc="http://purl.org/dc/elements/1.1/">
  <sodipodi:namedview
     id="namedview7"
     pagecolor="#9c4444"
     bordercolor="#000000"
     borderopacity="0.25"
     inkscape:showpageshadow="2"
     inkscape:pageopacity="0.0"
     inkscape:pagecheckerboard="0"
     inkscape:deskcolor="#d1d1d1"
     inkscape:zoom="6.15625"
     inkscape:cx="15.675127"
     inkscape:cy="27.370558"
     inkscape:window-width="1183"
     inkscape:window-height="973"
     inkscape:window-x="35"
     inkscape:window-y="32"
     inkscape:window-maximized="0"
     inkscape:current-layer="svg7"
     showgrid="false" />
  <defs
     id="defs2">
    <linearGradient
       inkscape:collect="always"
       id="linearGradient1134">
      <stop
         style="stop-color:#161616;stop-opacity:1;"
         offset="0"
         id="stop1130" />
      <stop
         style="stop-color:#404040;stop-opacity:1;"
         offset="1"
         id="stop1132" />
    </linearGradient>
    <linearGradient
       inkscape:collect="always"
       id="linearGradient883">
      <stop
         style="stop-color:#808080;stop-opacity:1;"
         offset="0"
         id="stop879" />
      <stop
         style="stop-color:#3e3e3e;stop-opacity:1;"
         offset="0.5"
         id="stop1216" />
      <stop
         style="stop-color:#242424;stop-opacity:1;"
         offset="1"
         id="stop881" />
    </linearGradient>
    <linearGradient
       inkscape:collect="always"
       xlink:href="#linearGradient883"
       id="linearGradient885"
       x1="2.1085808"
       y1="2.0236168"
       x2="14.846128"
       y2="15.071845"
       gradientUnits="userSpaceOnUse" />
    <linearGradient
       inkscape:collect="always"
       xlink:href="#linearGradient1134"
       id="linearGradient1136"
       x1="14.971222"
       y1="14.703373"
       x2="2.0756054"
       y2="2.0069976"
       gradientUnits="userSpaceOnUse" />
    <filter
       style="color-interpolation-filters:sRGB;"
       inkscape:label="Blur"
       id="filter1283"
       x="-0.082344266"
       y="-0.082344266"
       width="1.1646885"
       height="1.1646885">
      <feGaussianBlur
         stdDeviation="0.5 0.5"
         result="blur"
         id="feGaussianBlur1281" />
    </filter>
    <filter
       style="color-interpolation-filters:sRGB;"
       inkscape:label="Blur"
       id="filter3335"
       x="-0.94955398"
       y="-0.2118907"
       width="2.899108"
       height="1.4237814">
      <feGaussianBlur
         stdDeviation="0.2 0.2"
         result="blur"
         id="feGaussianBlur3333" />
    </filter>
  </defs>
  <metadata
     id="metadata2">
    <rdf:RDF>
      <cc:Work
         rdf:about="">
        <dc:format>image/svg+xml</dc:format>
        <dc:type
           rdf:resource="http://purl.org/dc/dcmitype/StillImage" />
      </cc:Work>
    </rdf:RDF>
  </metadata>
  <rect
     style="fill:#000000;stroke:none;stroke-width:0.539739;stroke-dasharray:none;filter:url(#filter1283)"
     id="rect246-1"
     width="14.572964"
     height="14.572964"
     x="1.1932471"
     y="1.2138842"
     rx="2.1589575"
     ry="2.1589575" />
  <rect
     style="opacity:1;fill:#000000;stroke:url(#linearGradient885);stroke-width:0.52915625;stroke-dasharray:none"
     id="rect246"
     width="14.287219"
     height="14.287219"
     x="1.3361193"
     y="1.3567564"
     rx="2.1166251"
     ry="2.1166251" />
  <g
     aria-label="Krita"
     id="text1450"
     style="font-size:1.76385px;opacity:1;fill:#999999;stroke-width:0.529156">
    <rect
       style="font-size:1.76385px;fill:#ff0000;fill-opacity:1;stroke:none;stroke-width:0.519976;stroke-dasharray:none;filter:url(#filter3335)"
       id="rect1656-0"
       width="0.5055005"
       height="2.2653189"
       x="15.369148"
       y="4.3016486"
       rx="0"
       ry="0" />
    <rect
       style="opacity:1;fill:#ff0000;fill-opacity:1;stroke:none;stroke-width:0.519976;stroke-dasharray:none"
       id="rect1656"
       width="0.5055005"
       height="2.2653189"
       x="15.369148"
       y="4.3016486"
       rx="0"
       ry="0" />
  </g>
  <rect
     style="fill:url(#linearGradient1136);fill-opacity:1;stroke:none;stroke-width:0.478315;stroke-dasharray:none"
     id="rect246-5"
     width="12.914515"
     height="12.914515"
     x="2.0224717"
     y="2.0431087"
     rx="1.5874687"
     ry="1.5874687" />
  <g
     id="g919"
     transform="matrix(0.20049611,0,0,0.2004961,2.2231571,0.83864223)"
     style="fill:#999999;fill-opacity:1;stroke:none;stroke-width:1.11111;stroke-dasharray:none;stroke-opacity:0.3">
    <g
       id="g1050"
       transform="matrix(1.0206,0,0,1.0206,1.3860842,1.369738)"
       style="fill:#999999;fill-opacity:1;stroke:none;stroke-width:1.08868;stroke-dasharray:none;stroke-opacity:0.3">
      <path
         style="color:#444444;fill:#999999;fill-opacity:1;stroke:none;stroke-width:1.08868;stroke-dasharray:none;stroke-opacity:0.3"
         class="ColorScheme-Text"
         d="m 26.051738,13.095245 c -2.5,0 -2.5,2.5 -2.5,2.5 h -7.5 c 0,0 -2.5,0 -2.5,2.5 v 2.5 h 32.5 v -2.5 c 0,-2.5 -2.5,-2.5 -2.5,-2.5 h -7.5 c 0,0 0,-2.5 -2.5,-2.5 z m -10,10 c 0,0 -2.5,6.25 -2.5,12.5 0,6.25 3.7,12.5 5,12.5 h 22.5 c 1.3,0 5,-6.25 5,-12.5 0,-6.25 -2.5,-12.5 -2.5,-12.5 z"
         id="path16" />
    </g>
  </g>
  <g
     aria-label="Terminal"
     id="text2284"
     style="font-size:1.76385px;opacity:1;fill:#999999;stroke-width:0.529156">
    <path
       d="M 7.0390027,14.182462 H 6.8802562 V 13.062417 H 6.4869177 v -0.139344 h 0.9436597 v 0.139344 H 7.0390027 Z M 7.9526779,13.2194 q 0.026458,0 0.056443,0.0035 0.031749,0.0018 0.054679,0.0071 l -0.019402,0.142872 q -0.02293,-0.0053 -0.051152,-0.0088 -0.026458,-0.0035 -0.051152,-0.0035 -0.072318,0 -0.1358164,0.04057 -0.063499,0.0388 -0.1023033,0.111123 -0.037041,0.07055 -0.037041,0.165802 v 0.504461 H 7.5117154 v -0.945424 h 0.1269972 l 0.017639,0.172857 h 0.00706 q 0.04586,-0.07761 0.118178,-0.134052 0.072318,-0.05644 0.1710934,-0.05644 z m 0.6102916,0.0018 q 0.1728573,0 0.2557582,0.07584 0.082901,0.07585 0.082901,0.241647 v 0.643806 H 8.7887423 l -0.029985,-0.134053 h -0.00706 q -0.061735,0.07761 -0.1305249,0.11465 -0.067026,0.03704 -0.1869681,0.03704 -0.128761,0 -0.2134258,-0.06703 -0.084665,-0.06879 -0.084665,-0.213426 0,-0.141108 0.1111225,-0.216953 0.1111226,-0.07761 0.3421869,-0.08467 l 0.1605104,-0.0053 v -0.05644 q 0,-0.118178 -0.051152,-0.164038 -0.051152,-0.04586 -0.1446357,-0.04586 -0.074082,0 -0.141108,0.02293 -0.067026,0.02117 -0.1252333,0.04939 l -0.047624,-0.116414 q 0.061735,-0.03351 0.1463996,-0.05644 0.084665,-0.02469 0.176385,-0.02469 z m 0.04586,0.504461 q -0.176385,0.0071 -0.2451752,0.05644 -0.067026,0.04939 -0.067026,0.139344 0,0.07937 0.047624,0.116414 0.049388,0.03704 0.1252333,0.03704 0.1199418,0 0.1993151,-0.06526 0.079373,-0.06703 0.079373,-0.204606 v -0.08466 z m 1.2011832,0.195787 q 0,0.13758 -0.1023033,0.208134 -0.1023033,0.07055 -0.2751606,0.07055 -0.098776,0 -0.1710934,-0.01587 -0.070554,-0.01588 -0.1252334,-0.0441 v -0.141108 q 0.056443,0.02822 0.1358165,0.05292 0.081137,0.02293 0.164038,0.02293 0.118178,0 0.1710935,-0.03704 0.052916,-0.0388 0.052916,-0.102303 0,-0.03528 -0.019402,-0.0635 -0.019402,-0.02822 -0.070554,-0.05644 -0.049388,-0.02822 -0.1428718,-0.0635 -0.09172,-0.03528 -0.1569827,-0.07055 -0.065262,-0.03528 -0.1005394,-0.08466 -0.035277,-0.04939 -0.035277,-0.126998 0,-0.119941 0.097012,-0.185204 0.098776,-0.06526 0.2575221,-0.06526 0.086429,0 0.1605104,0.01764 0.075845,0.01587 0.141108,0.04586 l -0.052915,0.12347 q -0.059971,-0.02469 -0.1252334,-0.04233 -0.065262,-0.01764 -0.1340526,-0.01764 -0.095248,0 -0.1463995,0.03175 -0.049388,0.02999 -0.049388,0.0829 0,0.0388 0.02293,0.06703 0.02293,0.02646 0.075846,0.05292 0.054679,0.02469 0.1446357,0.05997 0.089956,0.03351 0.1534549,0.06879 0.063499,0.03528 0.097012,0.08643 0.033513,0.04939 0.033513,0.125233 z m 0.3845192,-0.686138 q 0,0.07055 -0.0088,0.132289 h 0.01058 q 0.04586,-0.07232 0.123469,-0.109359 0.07937,-0.03704 0.171094,-0.03704 0.172857,0 0.259286,0.0829 0.08643,0.08114 0.08643,0.262814 v 0.615584 h -0.153455 v -0.605001 q 0,-0.227536 -0.211662,-0.227536 -0.158747,0 -0.218718,0.08996 -0.05821,0.08819 -0.05821,0.253994 v 0.488587 h -0.155219 v -1.340526 h 0.155219 z"
       id="text1"
       style="text-align:center;text-anchor:middle;stroke-width:0.140003"
       aria-label="Trash" />
  </g>
</svg>
