<?xml version="1.0" encoding="UTF-8" standalone="no"?>
<svg
   width="64"
   height="64"
   version="1.1"
   viewBox="0 0 16.933 16.933"
   id="svg7"
   sodipodi:docname="Multimedia Template.svg"
   inkscape:version="1.4 (e7c3feb100, 2024-10-09)"
   xmlns:inkscape="http://www.inkscape.org/namespaces/inkscape"
   xmlns:sodipodi="http://sodipodi.sourceforge.net/DTD/sodipodi-0.dtd"
   xmlns:xlink="http://www.w3.org/1999/xlink"
   xmlns="http://www.w3.org/2000/svg"
   xmlns:svg="http://www.w3.org/2000/svg"
   xmlns:rdf="http://www.w3.org/1999/02/22-rdf-syntax-ns#"
   xmlns:cc="http://creativecommons.org/ns#"
   xmlns:dc="http://purl.org/dc/elements/1.1/">
  <sodipodi:namedview
     id="namedview7"
     pagecolor="#9c4444"
     bordercolor="#000000"
     borderopacity="0.25"
     inkscape:showpageshadow="2"
     inkscape:pageopacity="0.0"
     inkscape:pagecheckerboard="0"
     inkscape:deskcolor="#d1d1d1"
     inkscape:zoom="6.15625"
     inkscape:cx="15.675127"
     inkscape:cy="29.807107"
     inkscape:window-width="1183"
     inkscape:window-height="973"
     inkscape:window-x="35"
     inkscape:window-y="32"
     inkscape:window-maximized="0"
     inkscape:current-layer="svg7"
     showgrid="false" />
  <defs
     id="defs2">
    <rect
       x="67.489848"
       y="35.60533"
       width="15.337563"
       height="22.51269"
       id="rect3808" />
    <linearGradient
       inkscape:collect="always"
       id="linearGradient1134">
      <stop
         style="stop-color:#161616;stop-opacity:1;"
         offset="0"
         id="stop1130" />
      <stop
         style="stop-color:#404040;stop-opacity:1;"
         offset="1"
         id="stop1132" />
    </linearGradient>
    <linearGradient
       inkscape:collect="always"
       id="linearGradient883">
      <stop
         style="stop-color:#808080;stop-opacity:1;"
         offset="0"
         id="stop879" />
      <stop
         style="stop-color:#3e3e3e;stop-opacity:1;"
         offset="0.5"
         id="stop1216" />
      <stop
         style="stop-color:#242424;stop-opacity:1;"
         offset="1"
         id="stop881" />
    </linearGradient>
    <linearGradient
       inkscape:collect="always"
       xlink:href="#linearGradient883"
       id="linearGradient885"
       x1="2.1085808"
       y1="2.0236168"
       x2="14.846128"
       y2="15.071845"
       gradientUnits="userSpaceOnUse" />
    <linearGradient
       inkscape:collect="always"
       xlink:href="#linearGradient1134"
       id="linearGradient1136"
       x1="14.971222"
       y1="14.703373"
       x2="2.0756054"
       y2="2.0069976"
       gradientUnits="userSpaceOnUse" />
    <filter
       style="color-interpolation-filters:sRGB;"
       inkscape:label="Blur"
       id="filter1283"
       x="-0.082344266"
       y="-0.082344266"
       width="1.1646885"
       height="1.1646885">
      <feGaussianBlur
         stdDeviation="0.5 0.5"
         result="blur"
         id="feGaussianBlur1281" />
    </filter>
    <filter
       style="color-interpolation-filters:sRGB;"
       inkscape:label="Blur"
       id="filter1694"
       x="-0.94955398"
       y="-0.2118907"
       width="2.899108"
       height="1.4237814">
      <feGaussianBlur
         stdDeviation="0.2 0.2"
         result="blur"
         id="feGaussianBlur1692" />
    </filter>
    <filter
       style="color-interpolation-filters:sRGB;"
       inkscape:label="Blur"
       id="filter3148"
       x="-0.94955398"
       y="-0.2118907"
       width="2.899108"
       height="1.4237814">
      <feGaussianBlur
         stdDeviation="0.2 0.2"
         result="blur"
         id="feGaussianBlur3146" />
    </filter>
    <clipPath
       clipPathUnits="userSpaceOnUse"
       id="clipPath44">
      <path
         id="path46"
         style="display:block;opacity:0.85;fill:#f2f2f2;stroke-width:4.39162"
         d="m 17.570312,8.4453125 a 6.5431988,7.4283052 9.9958727e-8 0 0 -6.535156,7.4394535 6.5431988,7.4283052 9.9958727e-8 0 0 6.552735,7.417968 6.5431988,7.4283052 9.9958727e-8 0 0 6.535156,-7.4375 6.5431988,7.4283052 9.9958727e-8 0 0 -6.552735,-7.4199215 z M 45.646484,41.177734 a 6.5431986,7.0703472 2.4665357e-6 0 0 -6.533203,7.080078 6.5431986,7.0703472 2.4665357e-6 0 0 6.550781,7.060547 6.5431986,7.0703472 2.4665357e-6 0 0 6.535157,-7.080078 6.5431986,7.0703472 2.4665357e-6 0 0 -6.552735,-7.060547 z" />
    </clipPath>
    <inkscape:path-effect
       effect="powerclip"
       id="path-effect48"
       is_visible="true"
       lpeversion="1"
       inverse="true"
       flatten="false"
       hide_clip="false"
       message="" />
  </defs>
  <metadata
     id="metadata2">
    <rdf:RDF>
      <cc:Work
         rdf:about="">
        <dc:format>image/svg+xml</dc:format>
        <dc:type
           rdf:resource="http://purl.org/dc/dcmitype/StillImage" />
      </cc:Work>
    </rdf:RDF>
  </metadata>
  <rect
     style="fill:#000000;stroke:none;stroke-width:0.539739;stroke-dasharray:none;filter:url(#filter1283)"
     id="rect246-1"
     width="14.572964"
     height="14.572964"
     x="1.1932471"
     y="1.2138842"
     rx="2.1589575"
     ry="2.1589575" />
  <rect
     style="opacity:1;fill:#000000;stroke:url(#linearGradient885);stroke-width:0.52915625;stroke-dasharray:none"
     id="rect246"
     width="14.287219"
     height="14.287219"
     x="1.3361193"
     y="1.3567564"
     rx="2.1166251"
     ry="2.1166251" />
  <rect
     style="fill:url(#linearGradient1136);fill-opacity:1;stroke:none;stroke-width:0.478315;stroke-dasharray:none"
     id="rect246-5"
     width="12.914515"
     height="12.914515"
     x="2.0224717"
     y="2.0431087"
     rx="1.5874687"
     ry="1.5874687" />
  <path
     d="m 6.3835971,5.4991387 c -0.2857287,0 -0.5207691,0.2350406 -0.5207691,0.5207691 1.736e-4,0.2855552 0.235214,0.5204221 0.5207691,0.5204221 0.2855551,0 0.5205955,-0.2348669 0.520769,-0.5204221 0,-0.2857285 -0.2350404,-0.5207691 -0.520769,-0.5207691 z m 1.3887177,0 c -0.2857289,0 -0.5207692,0.2350406 -0.5207692,0.5207691 1.735e-4,0.2855552 0.235214,0.5204221 0.5207692,0.5204221 0.2855551,0 0.5205956,-0.2348669 0.5207691,-0.5204221 0,-0.2857285 -0.2350404,-0.5207691 -0.5207691,-0.5207691 z m 1.3887176,0 c -0.2857286,0 -0.5207691,0.2350406 -0.5207691,0.5207691 1.736e-4,0.2855552 0.2352141,0.5204221 0.5207691,0.5204221 0.2855552,0 0.5205954,-0.2348669 0.5207696,-0.5204221 0,-0.2857285 -0.2350409,-0.5207691 -0.5207696,-0.5207691 z m 1.3883696,0 c -0.285727,0 -0.520768,0.2350406 -0.520768,0.5207691 1.73e-4,0.2855552 0.235214,0.5204221 0.520768,0.5204221 0.285557,0 0.520596,-0.2348669 0.520769,-0.5204221 0,-0.2857285 -0.235039,-0.5207691 -0.520769,-0.5207691 z M 4.9948793,6.8875094 c -0.2857285,0 -0.520769,0.2350404 -0.520769,0.5207689 0,0.2857288 0.2350405,0.5207691 0.520769,0.5207691 0.2857288,0 0.5207692,-0.2350402 0.5207692,-0.5207691 0,-0.2857285 -0.2350404,-0.5207689 -0.5207692,-0.5207689 z m 1.3887178,0 c -0.2857287,0 -0.5207691,0.2350404 -0.5207691,0.5207689 0,0.2857288 0.2350404,0.5207691 0.5207691,0.5207691 0.2857286,0 0.520769,-0.2350402 0.520769,-0.5207691 0,-0.2857285 -0.2350404,-0.5207689 -0.520769,-0.5207689 z m 1.3887177,0 c -0.2857289,0 -0.5207692,0.2350404 -0.5207692,0.5207689 0,0.2857288 0.2350403,0.5207691 0.5207692,0.5207691 0.2857287,0 0.5207691,-0.2350402 0.5207691,-0.5207691 0,-0.2857285 -0.2350404,-0.5207689 -0.5207691,-0.5207689 z m 1.3887176,0 c -0.2857286,0 -0.5207691,0.2350404 -0.5207691,0.5207689 0,0.2857288 0.2350405,0.5207691 0.5207691,0.5207691 0.2857287,0 0.5207696,-0.2350402 0.5207696,-0.5207691 0,-0.2857285 -0.2350409,-0.5207689 -0.5207696,-0.5207689 z m 1.3883696,0 c -0.285727,0 -0.520768,0.2350404 -0.520768,0.5207689 0,0.2857288 0.235041,0.5207691 0.520768,0.5207691 0.28573,0 0.520769,-0.2350402 0.520769,-0.5207691 0,-0.2857285 -0.235039,-0.5207689 -0.520769,-0.5207689 z m 1.388718,0 c -0.285728,0 -0.520768,0.2350404 -0.520768,0.5207689 0,0.2857288 0.23504,0.5207691 0.520768,0.5207691 0.28573,0 0.520769,-0.2350402 0.520769,-0.5207691 0,-0.2857285 -0.235039,-0.5207689 -0.520769,-0.5207689 z M 4.9948793,8.276227 c -0.2857285,0 -0.520769,0.2350407 -0.520769,0.5207695 0,0.2857285 0.2350405,0.5207686 0.520769,0.5207686 0.2857288,0 0.5207692,-0.2350401 0.5207692,-0.5207686 0,-0.2857288 -0.2350404,-0.5207695 -0.5207692,-0.5207695 z m 1.3887178,0 c -0.2857287,0 -0.5207691,0.2350407 -0.5207691,0.5207695 0,0.2857285 0.2350404,0.5207686 0.5207691,0.5207686 0.2857286,0 0.520769,-0.2350401 0.520769,-0.5207686 0,-0.2857288 -0.2350404,-0.5207695 -0.520769,-0.5207695 z m 4.1658049,0 c -0.285727,0 -0.520768,0.2350407 -0.520768,0.5207695 0,0.2857285 0.235041,0.5207686 0.520768,0.5207686 0.28573,0 0.520769,-0.2350401 0.520769,-0.5207686 0,-0.2857288 -0.235039,-0.5207695 -0.520769,-0.5207695 z m 1.388718,0 c -0.285728,0 -0.520768,0.2350407 -0.520768,0.5207695 0,0.2857285 0.23504,0.5207686 0.520768,0.5207686 0.28573,0 0.520769,-0.2350401 0.520769,-0.5207686 0,-0.2857288 -0.235039,-0.5207695 -0.520769,-0.5207695 z"
     fill="#ffffff"
     fill-rule="nonzero"
     id="path16-6"
     style="fill:#999999;fill-opacity:1;stroke-width:0.173589" />
  <g
     aria-label="Krita"
     id="text1450"
     style="font-size:1.76385px;opacity:1;fill:#ff7f2a;stroke-width:0.529156">
    <rect
       style="font-size:1.76385px;fill:#ff7f2a;fill-opacity:1;stroke:none;stroke-width:0.519976;stroke-dasharray:none;filter:url(#filter3148)"
       id="rect1656-3"
       width="0.5055005"
       height="2.2653189"
       x="15.369148"
       y="4.3016486"
       rx="0"
       ry="0" />
    <rect
       style="opacity:1;fill:#ff7f2a;fill-opacity:1;stroke:none;stroke-width:0.519976;stroke-dasharray:none"
       id="rect1656"
       width="0.5055005"
       height="2.2653189"
       x="15.369148"
       y="4.3016486"
       rx="0"
       ry="0" />
  </g>
  <path
     style="font-size:1.76385px;text-align:center;text-anchor:middle;fill:#999999;stroke-width:0.529156"
     d="m 6.2380457,12.919628 q 0.2363559,0 0.3562977,0.07055 0.1217056,0.06879 0.1217056,0.241648 0,0.111122 -0.061735,0.185204 -0.061735,0.07232 -0.1781489,0.09348 v 0.0088 q 0.079373,0.01235 0.1428719,0.04586 0.065262,0.03351 0.1023033,0.09525 0.037041,0.06174 0.037041,0.160511 0,0.171093 -0.1181779,0.264577 -0.1164141,0.09348 -0.3192569,0.09348 H 5.8782203 v -1.259389 z m 0.031749,0.536211 q 0.1622742,0 0.2222451,-0.05115 0.059971,-0.05292 0.059971,-0.155219 0,-0.104067 -0.074082,-0.148163 -0.072318,-0.04586 -0.2328282,-0.04586 H 6.0369668 v 0.400394 z m -0.2328282,0.132288 v 0.456837 h 0.2539944 q 0.1675657,0 0.2328282,-0.06526 0.065262,-0.06526 0.065262,-0.171093 0,-0.09878 -0.06879,-0.158747 -0.067026,-0.06174 -0.2416475,-0.06174 z M 7.0829291,12.87906 q 0.035277,0 0.061735,0.02469 0.028222,0.02293 0.028222,0.07408 0,0.04939 -0.028222,0.07408 -0.026458,0.02469 -0.061735,0.02469 -0.038805,0 -0.065263,-0.02469 -0.026458,-0.02469 -0.026458,-0.07408 0,-0.05115 0.026458,-0.07408 0.026458,-0.02469 0.065263,-0.02469 z m 0.075845,0.354533 v 0.945424 H 7.0035558 v -0.945424 z m 0.6155827,0.836065 q 0.035277,0 0.072318,-0.0053 0.037041,-0.0071 0.059971,-0.01411 v 0.118178 q -0.024694,0.01235 -0.070554,0.0194 -0.04586,0.0088 -0.088192,0.0088 -0.074082,0 -0.1375803,-0.02469 -0.061735,-0.02646 -0.1005394,-0.08996 -0.038805,-0.0635 -0.038805,-0.178149 V 13.353535 H 7.3369225 v -0.07408 l 0.1358164,-0.06173 0.061735,-0.201079 h 0.09172 v 0.216953 h 0.2733967 v 0.119942 H 7.6261939 v 0.546794 q 0,0.08643 0.040569,0.128761 0.042332,0.04057 0.1075949,0.04057 z m 0.9313128,-0.425087 q -0.02293,-0.07232 -0.040569,-0.141108 -0.015875,-0.07055 -0.024694,-0.109359 h -0.00706 q -0.00706,0.0388 -0.02293,0.109359 -0.015875,0.06879 -0.040569,0.142871 L 8.400524,14.177253 H 8.224139 L 7.9648531,13.23183 h 0.1605103 l 0.1305249,0.504461 q 0.019402,0.07585 0.037041,0.153455 0.017639,0.07761 0.024694,0.128761 h 0.00706 q 0.00706,-0.02999 0.015875,-0.07408 0.010583,-0.0441 0.02293,-0.09172 0.012347,-0.04939 0.024694,-0.08819 L 8.5557428,13.23183 h 0.1693296 l 0.1622742,0.532682 q 0.019402,0.05997 0.037041,0.130525 0.019402,0.07055 0.026458,0.121706 h 0.00706 q 0.00529,-0.0441 0.02293,-0.121706 0.019402,-0.07761 0.040568,-0.158746 L 9.153688,13.23183 H 9.3124345 L 9.0496208,14.177253 H 8.8679443 Z M 9.5611362,12.87906 q 0.035277,0 0.061735,0.02469 0.028222,0.02293 0.028222,0.07408 0,0.04939 -0.028222,0.07408 -0.026458,0.02469 -0.061735,0.02469 -0.038805,0 -0.065262,-0.02469 -0.026458,-0.02469 -0.026458,-0.07408 0,-0.05115 0.026458,-0.07408 0.026458,-0.02469 0.065262,-0.02469 z m 0.075846,0.354533 v 0.945424 H 9.481763 v -0.945424 z m 0.6349852,-0.01764 q 0.09348,0 0.167565,0.03528 0.07585,0.03528 0.128761,0.107595 h 0.0088 l 0.02117,-0.125234 h 0.123469 v 0.961299 q 0,0.202842 -0.104067,0.305146 -0.102303,0.102303 -0.319257,0.102303 -0.208134,0 -0.3404227,-0.05997 v -0.142872 q 0.1393437,0.07408 0.3492427,0.07408 0.121705,0 0.190495,-0.07232 0.07055,-0.07055 0.07055,-0.194023 v -0.03704 q 0,-0.02117 0.0018,-0.05997 0.0018,-0.04057 0.0035,-0.05644 h -0.0071 q -0.09525,0.142872 -0.2928,0.142872 -0.18344,0 -0.2875071,-0.128761 -0.1023033,-0.128762 -0.1023033,-0.359826 0,-0.225773 0.1023033,-0.358061 0.1040671,-0.134053 0.2857441,-0.134053 z m 0.02117,0.130525 q -0.118178,0 -0.183441,0.09525 -0.06526,0.09348 -0.06526,0.268105 0,0.174621 0.0635,0.268105 0.06526,0.09172 0.188732,0.09172 0.142871,0 0.208134,-0.07585 0.06526,-0.07761 0.06526,-0.248703 v -0.03704 q 0,-0.194023 -0.06703,-0.276924 -0.06703,-0.08467 -0.209898,-0.08467 z"
     id="text2284"
     aria-label="Bitwig" />
  <text
     xml:space="preserve"
     transform="scale(0.26457812)"
     id="text3806"
     style="font-size:6.66667px;white-space:pre;shape-inside:url(#rect3808);display:inline;fill:#999999;stroke-width:2" />
</svg>
