<?xml version="1.0" encoding="UTF-8" standalone="no"?>
<svg
   width="64"
   height="64"
   version="1.1"
   viewBox="0 0 16.933 16.933"
   id="svg7"
   sodipodi:docname="Utilities Template.svg"
   inkscape:version="1.4 (e7c3feb100, 2024-10-09)"
   xmlns:inkscape="http://www.inkscape.org/namespaces/inkscape"
   xmlns:sodipodi="http://sodipodi.sourceforge.net/DTD/sodipodi-0.dtd"
   xmlns:xlink="http://www.w3.org/1999/xlink"
   xmlns="http://www.w3.org/2000/svg"
   xmlns:svg="http://www.w3.org/2000/svg"
   xmlns:rdf="http://www.w3.org/1999/02/22-rdf-syntax-ns#"
   xmlns:cc="http://creativecommons.org/ns#"
   xmlns:dc="http://purl.org/dc/elements/1.1/">
  <sodipodi:namedview
     id="namedview7"
     pagecolor="#9c4444"
     bordercolor="#000000"
     borderopacity="0.25"
     inkscape:showpageshadow="2"
     inkscape:pageopacity="0.0"
     inkscape:pagecheckerboard="0"
     inkscape:deskcolor="#d1d1d1"
     inkscape:zoom="6.15625"
     inkscape:cx="15.51269"
     inkscape:cy="29.807107"
     inkscape:window-width="1183"
     inkscape:window-height="973"
     inkscape:window-x="35"
     inkscape:window-y="32"
     inkscape:window-maximized="0"
     inkscape:current-layer="svg7"
     showgrid="false" />
  <defs
     id="defs2">
    <rect
       x="67.489848"
       y="35.60533"
       width="15.337563"
       height="22.51269"
       id="rect3808" />
    <linearGradient
       inkscape:collect="always"
       id="linearGradient1134">
      <stop
         style="stop-color:#161616;stop-opacity:1;"
         offset="0"
         id="stop1130" />
      <stop
         style="stop-color:#404040;stop-opacity:1;"
         offset="1"
         id="stop1132" />
    </linearGradient>
    <linearGradient
       inkscape:collect="always"
       id="linearGradient883">
      <stop
         style="stop-color:#808080;stop-opacity:1;"
         offset="0"
         id="stop879" />
      <stop
         style="stop-color:#3e3e3e;stop-opacity:1;"
         offset="0.5"
         id="stop1216" />
      <stop
         style="stop-color:#242424;stop-opacity:1;"
         offset="1"
         id="stop881" />
    </linearGradient>
    <linearGradient
       inkscape:collect="always"
       xlink:href="#linearGradient883"
       id="linearGradient885"
       x1="2.1085808"
       y1="2.0236168"
       x2="14.846128"
       y2="15.071845"
       gradientUnits="userSpaceOnUse" />
    <linearGradient
       inkscape:collect="always"
       xlink:href="#linearGradient1134"
       id="linearGradient1136"
       x1="14.971222"
       y1="14.703373"
       x2="2.0756054"
       y2="2.0069976"
       gradientUnits="userSpaceOnUse" />
    <filter
       style="color-interpolation-filters:sRGB;"
       inkscape:label="Blur"
       id="filter1283"
       x="-0.082344266"
       y="-0.082344266"
       width="1.1646885"
       height="1.1646885">
      <feGaussianBlur
         stdDeviation="0.5 0.5"
         result="blur"
         id="feGaussianBlur1281" />
    </filter>
    <filter
       style="color-interpolation-filters:sRGB;"
       inkscape:label="Blur"
       id="filter1694"
       x="-0.94955398"
       y="-0.2118907"
       width="2.899108"
       height="1.4237814">
      <feGaussianBlur
         stdDeviation="0.2 0.2"
         result="blur"
         id="feGaussianBlur1692" />
    </filter>
    <filter
       style="color-interpolation-filters:sRGB;"
       inkscape:label="Blur"
       id="filter3148"
       x="-0.94955398"
       y="-0.2118907"
       width="2.899108"
       height="1.4237814">
      <feGaussianBlur
         stdDeviation="0.2 0.2"
         result="blur"
         id="feGaussianBlur3146" />
    </filter>
    <clipPath
       clipPathUnits="userSpaceOnUse"
       id="clipPath44">
      <path
         id="path46"
         style="display:block;opacity:0.85;fill:#f2f2f2;stroke-width:4.39162"
         d="m 17.570312,8.4453125 a 6.5431988,7.4283052 9.9958727e-8 0 0 -6.535156,7.4394535 6.5431988,7.4283052 9.9958727e-8 0 0 6.552735,7.417968 6.5431988,7.4283052 9.9958727e-8 0 0 6.535156,-7.4375 6.5431988,7.4283052 9.9958727e-8 0 0 -6.552735,-7.4199215 z M 45.646484,41.177734 a 6.5431986,7.0703472 2.4665357e-6 0 0 -6.533203,7.080078 6.5431986,7.0703472 2.4665357e-6 0 0 6.550781,7.060547 6.5431986,7.0703472 2.4665357e-6 0 0 6.535157,-7.080078 6.5431986,7.0703472 2.4665357e-6 0 0 -6.552735,-7.060547 z" />
    </clipPath>
    <inkscape:path-effect
       effect="powerclip"
       id="path-effect48"
       is_visible="true"
       lpeversion="1"
       inverse="true"
       flatten="false"
       hide_clip="false"
       message="" />
  </defs>
  <metadata
     id="metadata2">
    <rdf:RDF>
      <cc:Work
         rdf:about="">
        <dc:format>image/svg+xml</dc:format>
        <dc:type
           rdf:resource="http://purl.org/dc/dcmitype/StillImage" />
      </cc:Work>
    </rdf:RDF>
  </metadata>
  <rect
     style="fill:#000000;stroke:none;stroke-width:0.539739;stroke-dasharray:none;filter:url(#filter1283)"
     id="rect246-1"
     width="14.572964"
     height="14.572964"
     x="1.1932471"
     y="1.2138842"
     rx="2.1589575"
     ry="2.1589575" />
  <rect
     style="opacity:1;fill:#000000;stroke:url(#linearGradient885);stroke-width:0.52915625;stroke-dasharray:none"
     id="rect246"
     width="14.287219"
     height="14.287219"
     x="1.3361193"
     y="1.3567564"
     rx="2.1166251"
     ry="2.1166251" />
  <rect
     style="fill:url(#linearGradient1136);fill-opacity:1;stroke:none;stroke-width:0.478315;stroke-dasharray:none"
     id="rect246-5"
     width="12.914515"
     height="12.914515"
     x="2.0224717"
     y="2.0431087"
     rx="1.5874687"
     ry="1.5874687" />
  <g
     fill="#474747"
     id="g9"
     transform="matrix(0.46959567,0,0,0.46959567,4.7471229,3.7470598)"
     style="fill:#999999;fill-opacity:1;stroke:none;stroke-width:0.58349;stroke-dasharray:none;stroke-opacity:0.3" />
  <g
     aria-label="Krita"
     id="text1450"
     style="font-size:1.76385px;opacity:1;fill:#00ffff;stroke-width:0.529156">
    <rect
       style="font-size:1.76385px;fill:#00ffff;fill-opacity:1;stroke:none;stroke-width:0.519976;stroke-dasharray:none;filter:url(#filter3148)"
       id="rect1656-3"
       width="0.5055005"
       height="2.2653189"
       x="15.369148"
       y="4.3016486"
       rx="0"
       ry="0" />
    <rect
       style="opacity:1;fill:#00ffff;fill-opacity:1;stroke:none;stroke-width:0.519976;stroke-dasharray:none"
       id="rect1656"
       width="0.5055005"
       height="2.2653189"
       x="15.369148"
       y="4.3016486"
       rx="0"
       ry="0" />
  </g>
  <path
     d="m 5.0430331,13.734527 q 0,0.130525 -0.052916,0.236356 -0.052915,0.104067 -0.1622742,0.165802 -0.1075949,0.05997 -0.2751606,0.05997 -0.2345921,0 -0.3580616,-0.126998 -0.1217056,-0.128761 -0.1217056,-0.338659 v -0.811371 h 0.1587465 v 0.816663 q 0,0.153455 0.081137,0.238119 0.082901,0.08466 0.2487028,0.08466 0.1710935,0 0.246939,-0.08996 0.077609,-0.09172 0.077609,-0.234592 v -0.814899 h 0.1569827 z m 0.7655124,-0.518572 q 0.1693296,0 0.2557583,0.0829 0.086429,0.08114 0.086429,0.264577 v 0.615584 H 5.9972775 v -0.605 q 0,-0.227537 -0.211662,-0.227537 -0.1569827,0 -0.2169536,0.08819 -0.059971,0.08819 -0.059971,0.253995 v 0.49035 H 5.3534722 v -0.945424 h 0.1252334 l 0.02293,0.128762 h 0.00882 q 0.04586,-0.07408 0.1269972,-0.109359 0.081137,-0.03704 0.1710934,-0.03704 z M 6.5229046,12.87906 q 0.035277,0 0.061735,0.02469 0.028222,0.02293 0.028222,0.07408 0,0.04939 -0.028222,0.07408 -0.026458,0.02469 -0.061735,0.02469 -0.038805,0 -0.065262,-0.02469 -0.026458,-0.02469 -0.026458,-0.07408 0,-0.05115 0.026458,-0.07408 0.026458,-0.02469 0.065262,-0.02469 z m 0.075846,0.354533 v 0.945424 H 6.4435314 v -0.945424 z m 0.7549269,-0.01764 q 0.1693296,0 0.2557582,0.0829 0.086429,0.08114 0.086429,0.264577 v 0.615584 H 7.542409 v -0.605 q 0,-0.227537 -0.211662,-0.227537 -0.1569826,0 -0.2169535,0.08819 -0.059971,0.08819 -0.059971,0.253995 v 0.49035 H 6.8986038 v -0.945424 h 0.1252333 l 0.02293,0.128762 h 0.00882 q 0.04586,-0.07408 0.1269972,-0.109359 0.081137,-0.03704 0.1710935,-0.03704 z m 1.2505696,0.702012 q 0,0.137581 -0.1023033,0.208135 -0.1023033,0.07055 -0.2751606,0.07055 -0.098776,0 -0.1710934,-0.01588 -0.070554,-0.01587 -0.1252334,-0.0441 v -0.141108 q 0.056443,0.02822 0.1358165,0.05291 0.081137,0.02293 0.164038,0.02293 0.118178,0 0.1710935,-0.03704 0.052916,-0.0388 0.052916,-0.102303 0,-0.03528 -0.019402,-0.0635 -0.019402,-0.02822 -0.070554,-0.05644 -0.049388,-0.02822 -0.1428718,-0.0635 -0.09172,-0.03528 -0.1569827,-0.07055 -0.065262,-0.03528 -0.1005394,-0.08466 -0.035277,-0.04939 -0.035277,-0.126997 0,-0.119942 0.097012,-0.185205 0.098776,-0.06526 0.2575221,-0.06526 0.086429,0 0.1605104,0.01764 0.075845,0.01587 0.141108,0.04586 l -0.052915,0.123469 q -0.059971,-0.02469 -0.1252334,-0.04233 -0.065262,-0.01764 -0.1340526,-0.01764 -0.095248,0 -0.1463995,0.03175 -0.049388,0.02999 -0.049388,0.0829 0,0.0388 0.02293,0.06703 0.02293,0.02646 0.075846,0.05292 0.054679,0.02469 0.1446357,0.05997 0.089956,0.03351 0.1534549,0.06879 0.063499,0.03528 0.097012,0.08643 0.033513,0.04939 0.033513,0.125233 z m 0.5450299,0.151691 q 0.035277,0 0.072318,-0.0053 0.037041,-0.0071 0.059971,-0.01411 v 0.118178 q -0.024694,0.01235 -0.070554,0.0194 -0.04586,0.0088 -0.088192,0.0088 -0.074082,0 -0.1375803,-0.02469 -0.061735,-0.02646 -0.1005395,-0.08996 -0.038805,-0.0635 -0.038805,-0.178149 V 13.353535 H 8.7118418 v -0.07408 l 0.1358165,-0.06173 0.061735,-0.201079 h 0.09172 v 0.216953 H 9.27451 v 0.119942 H 9.0011132 v 0.546794 q 0,0.08643 0.040569,0.128761 0.042332,0.04057 0.1075948,0.04057 z m 0.6790822,-0.851939 q 0.1728572,0 0.2557582,0.07584 0.0829,0.07585 0.0829,0.241648 v 0.643805 h -0.112886 l -0.02999,-0.134053 h -0.0071 q -0.061735,0.07761 -0.1305252,0.114651 -0.067026,0.03704 -0.1869681,0.03704 -0.128761,0 -0.2134258,-0.06703 -0.084665,-0.06879 -0.084665,-0.213426 0,-0.141108 0.1111225,-0.216953 0.1111226,-0.07761 0.3421869,-0.08466 l 0.1605105,-0.0053 v -0.05644 q 0,-0.118178 -0.051152,-0.164038 -0.051152,-0.04586 -0.1446357,-0.04586 -0.074082,0 -0.141108,0.02293 -0.067026,0.02117 -0.1252333,0.04939 l -0.047624,-0.116414 q 0.061735,-0.03351 0.1463996,-0.05644 0.084665,-0.02469 0.176385,-0.02469 z m 0.04586,0.504461 q -0.176385,0.0071 -0.2451752,0.05644 -0.067026,0.04939 -0.067026,0.139344 0,0.07937 0.047624,0.116414 0.049388,0.03704 0.1252333,0.03704 0.1199418,0 0.199315,-0.06526 0.079373,-0.06703 0.079373,-0.204607 v -0.08466 z m 0.7408191,0.456837 h -0.155219 v -1.340526 h 0.155219 z m 0.455071,0 h -0.155218 v -1.340526 h 0.155218 z m 0.664971,-0.963062 q 0.121706,0 0.208134,0.05292 0.08819,0.05292 0.134053,0.149928 0.04762,0.09525 0.04762,0.224009 v 0.09348 h -0.647333 q 0.0035,0.16051 0.08114,0.245175 0.07937,0.0829 0.220481,0.0829 0.08996,0 0.158747,-0.01588 0.07055,-0.01764 0.144635,-0.04939 v 0.135817 q -0.07232,0.03175 -0.142871,0.04586 -0.07055,0.01588 -0.167566,0.01588 -0.134053,0 -0.23812,-0.05468 -0.102303,-0.05468 -0.16051,-0.162274 -0.05644,-0.109359 -0.05644,-0.266341 0,-0.155219 0.05115,-0.266342 0.05292,-0.111122 0.1464,-0.171093 0.09525,-0.05997 0.220481,-0.05997 z m -0.0018,0.126997 q -0.111122,0 -0.176385,0.07232 -0.0635,0.07055 -0.07585,0.197551 h 0.481531 q -0.0018,-0.119942 -0.05644,-0.194023 -0.05468,-0.07585 -0.172857,-0.07585 z m 1.072419,-0.126997 q 0.02646,0 0.05644,0.0035 0.03175,0.0018 0.05468,0.0071 l -0.0194,0.142872 q -0.02293,-0.0053 -0.05115,-0.0088 -0.02646,-0.0035 -0.05115,-0.0035 -0.07232,0 -0.135816,0.04057 -0.0635,0.0388 -0.102304,0.111122 -0.03704,0.07055 -0.03704,0.165802 v 0.504461 h -0.155218 v -0.945424 h 0.126997 l 0.01764,0.172858 h 0.0071 q 0.04586,-0.07761 0.118178,-0.134053 0.07232,-0.05644 0.171093,-0.05644 z"
     id="text2284"
     style="font-size:1.76385px;fill:#999999;stroke-width:0.529156"
     aria-label="Uninstaller" />
  <text
     xml:space="preserve"
     transform="scale(0.26457812)"
     id="text3806"
     style="font-size:6.66667px;white-space:pre;shape-inside:url(#rect3808);display:inline;fill:#999999;stroke-width:2" />
  <path
     style="fill:#999999;stroke-width:0.0105594"
     d="m 7.3538066,10.729141 v -0.09153 l 0.1865502,-2.73e-4 c 0.3680857,-5e-4 0.7406243,-0.0831 0.9248263,-0.204977 0.028756,-0.01903 0.067659,-0.06142 0.086428,-0.09419 l 0.034139,-0.05959 0.00401,-0.8025163 C 8.594215,8.5962013 8.5916321,8.5597943 8.5092939,8.3477312 8.422051,8.122974 8.2433863,7.9248112 7.8036268,7.5650735 7.6131339,7.4092453 7.504095,7.2756416 7.4016111,7.0724878 7.183881,6.6408853 7.1451901,5.9304364 7.2978834,5.1678095 7.3708943,4.8031271 7.5487528,4.2130576 7.5927501,4.1895101 7.6102137,4.1801699 8.03847,4.1752181 8.8308609,4.1752181 h 1.2114161 l 0.02185,0.033351 c 0.0502,0.076623 0.205953,0.5852107 0.272885,0.8911074 0.08138,0.3718756 0.114202,0.6605152 0.114202,1.0037092 0,0.2706325 -0.0041,0.3292981 -0.03456,0.4817659 -0.06466,0.3248638 -0.143692,0.520208 -0.287866,0.7115434 -0.09188,0.1219328 -0.149251,0.1775993 -0.3706561,0.3596442 -0.4141022,0.340484 -0.5568883,0.5274683 -0.6477447,0.8482452 -0.031585,0.1115204 -0.031885,0.1208592 -0.030695,0.9433084 0.00134,0.9176952 -0.00258,0.8770632 0.091909,0.9565692 0.087505,0.07362 0.2551223,0.143735 0.4207847,0.17599 0.069065,0.01349 0.6422191,0.07123 0.7065731,0.07123 0.02184,0 0.02555,0.01212 0.02555,0.08448 v 0.0845 H 8.8391506 7.3537896 Z m 1.8135523,-0.09889 c -0.00401,-0.004 -0.037265,-0.02862 -0.073828,-0.05462 -0.036549,-0.02598 -0.090733,-0.07955 -0.1204076,-0.11904 -0.049378,-0.06573 -0.0547,-0.08167 -0.062894,-0.188252 C 8.9053516,10.20429 8.9000407,9.8192668 8.898319,9.4127264 8.8951597,8.6105921 8.8982726,8.5686071 8.9779433,8.3343976 9.0695518,8.0650656 9.1809266,7.9256341 9.5993924,7.5564238 9.9708729,7.2287117 10.077883,7.0982595 10.170113,6.8607401 10.323957,6.4645415 10.315852,5.7756724 10.149039,5.0692866 10.089671,4.8178876 9.970377,4.4297262 9.9410073,4.3923896 l -0.027216,-0.034608 -1.091167,0.00376 -1.0911677,0.00376 -0.02682,0.033134 c -0.033695,0.041618 -0.078911,0.1873588 -0.166654,0.5370829 -0.1980643,0.7894901 -0.2088209,1.4752135 -0.030393,1.9378779 0.092727,0.2404633 0.2015995,0.3806487 0.4693868,0.6044166 0.2453288,0.2050023 0.4572303,0.4081327 0.540893,0.5185039 0.072235,0.095301 0.1758535,0.3047849 0.1992708,0.4028731 0.047554,0.1991814 0.058676,0.3963083 0.057455,1.0177672 -6.27e-4,0.3422551 -0.0056,0.7039738 -0.011053,0.8038108 l -0.00976,0.181531 -0.1233496,0.117654 -0.1233495,0.117656 H 8.840919 c 0.1836113,0 0.330523,-0.0032 0.3264735,-0.0073 z M 8.8030886,8.0443801 C 8.7794215,7.9726716 8.7020283,7.8520634 8.6220333,7.7622305 8.5894209,7.7256047 8.420916,7.5812456 8.2475764,7.4414267 8.0742368,7.3016069 7.8999229,7.1510046 7.8602117,7.1067546 7.6402404,6.8616456 7.5340501,6.4122747 7.5742061,5.8964416 l 0.00904,-0.1161539 h 1.2429766 1.2429783 l 0.0093,0.029347 c 0.01659,0.052267 0.01163,0.5234519 -0.0066,0.6394188 C 10.032196,6.7002521 9.9410874,6.9307028 9.8222932,7.0804518 9.7868638,7.1251007 9.6378494,7.2572967 9.4756871,7.3879193 9.3192285,7.5139492 9.1539623,7.652038 9.108431,7.6947826 9.0066628,7.7903193 8.8994735,7.9399524 8.8658825,8.0333655 8.8521062,8.071863 8.836637,8.103363 8.8316735,8.103363 c -0.005,0 -0.017808,-0.02654 -0.028513,-0.058981 z"
     id="path1" />
</svg>
