<?xml version="1.0" encoding="UTF-8" standalone="no"?>
<svg
   width="64"
   height="64"
   version="1.1"
   viewBox="0 0 16.933 16.933"
   id="svg7"
   sodipodi:docname="Multimedia Template.svg"
   inkscape:version="1.4 (e7c3feb100, 2024-10-09)"
   xmlns:inkscape="http://www.inkscape.org/namespaces/inkscape"
   xmlns:sodipodi="http://sodipodi.sourceforge.net/DTD/sodipodi-0.dtd"
   xmlns:xlink="http://www.w3.org/1999/xlink"
   xmlns="http://www.w3.org/2000/svg"
   xmlns:svg="http://www.w3.org/2000/svg"
   xmlns:rdf="http://www.w3.org/1999/02/22-rdf-syntax-ns#"
   xmlns:cc="http://creativecommons.org/ns#"
   xmlns:dc="http://purl.org/dc/elements/1.1/">
  <sodipodi:namedview
     id="namedview7"
     pagecolor="#9c4444"
     bordercolor="#000000"
     borderopacity="0.25"
     inkscape:showpageshadow="2"
     inkscape:pageopacity="0.0"
     inkscape:pagecheckerboard="0"
     inkscape:deskcolor="#d1d1d1"
     inkscape:zoom="6.15625"
     inkscape:cx="15.756345"
     inkscape:cy="29.563452"
     inkscape:window-width="1226"
     inkscape:window-height="669"
     inkscape:window-x="35"
     inkscape:window-y="32"
     inkscape:window-maximized="0"
     inkscape:current-layer="svg7"
     showgrid="false" />
  <defs
     id="defs2">
    <rect
       x="67.489848"
       y="35.60533"
       width="15.337563"
       height="22.51269"
       id="rect3808" />
    <linearGradient
       inkscape:collect="always"
       id="linearGradient1134">
      <stop
         style="stop-color:#161616;stop-opacity:1;"
         offset="0"
         id="stop1130" />
      <stop
         style="stop-color:#404040;stop-opacity:1;"
         offset="1"
         id="stop1132" />
    </linearGradient>
    <linearGradient
       inkscape:collect="always"
       id="linearGradient883">
      <stop
         style="stop-color:#808080;stop-opacity:1;"
         offset="0"
         id="stop879" />
      <stop
         style="stop-color:#3e3e3e;stop-opacity:1;"
         offset="0.5"
         id="stop1216" />
      <stop
         style="stop-color:#242424;stop-opacity:1;"
         offset="1"
         id="stop881" />
    </linearGradient>
    <linearGradient
       inkscape:collect="always"
       xlink:href="#linearGradient883"
       id="linearGradient885"
       x1="2.1085808"
       y1="2.0236168"
       x2="14.846128"
       y2="15.071845"
       gradientUnits="userSpaceOnUse" />
    <linearGradient
       inkscape:collect="always"
       xlink:href="#linearGradient1134"
       id="linearGradient1136"
       x1="14.971222"
       y1="14.703373"
       x2="2.0756054"
       y2="2.0069976"
       gradientUnits="userSpaceOnUse" />
    <filter
       style="color-interpolation-filters:sRGB;"
       inkscape:label="Blur"
       id="filter1283"
       x="-0.082344266"
       y="-0.082344266"
       width="1.1646885"
       height="1.1646885">
      <feGaussianBlur
         stdDeviation="0.5 0.5"
         result="blur"
         id="feGaussianBlur1281" />
    </filter>
    <filter
       style="color-interpolation-filters:sRGB;"
       inkscape:label="Blur"
       id="filter1694"
       x="-0.94955398"
       y="-0.2118907"
       width="2.899108"
       height="1.4237814">
      <feGaussianBlur
         stdDeviation="0.2 0.2"
         result="blur"
         id="feGaussianBlur1692" />
    </filter>
    <filter
       style="color-interpolation-filters:sRGB;"
       inkscape:label="Blur"
       id="filter3148"
       x="-0.94955398"
       y="-0.2118907"
       width="2.899108"
       height="1.4237814">
      <feGaussianBlur
         stdDeviation="0.2 0.2"
         result="blur"
         id="feGaussianBlur3146" />
    </filter>
    <clipPath
       clipPathUnits="userSpaceOnUse"
       id="clipPath44">
      <path
         id="path46"
         style="display:block;opacity:0.85;fill:#f2f2f2;stroke-width:4.39162"
         d="m 17.570312,8.4453125 a 6.5431988,7.4283052 9.9958727e-8 0 0 -6.535156,7.4394535 6.5431988,7.4283052 9.9958727e-8 0 0 6.552735,7.417968 6.5431988,7.4283052 9.9958727e-8 0 0 6.535156,-7.4375 6.5431988,7.4283052 9.9958727e-8 0 0 -6.552735,-7.4199215 z M 45.646484,41.177734 a 6.5431986,7.0703472 2.4665357e-6 0 0 -6.533203,7.080078 6.5431986,7.0703472 2.4665357e-6 0 0 6.550781,7.060547 6.5431986,7.0703472 2.4665357e-6 0 0 6.535157,-7.080078 6.5431986,7.0703472 2.4665357e-6 0 0 -6.552735,-7.060547 z" />
    </clipPath>
    <inkscape:path-effect
       effect="powerclip"
       id="path-effect48"
       is_visible="true"
       lpeversion="1"
       inverse="true"
       flatten="false"
       hide_clip="false"
       message="" />
  </defs>
  <metadata
     id="metadata2">
    <rdf:RDF>
      <cc:Work
         rdf:about="">
        <dc:format>image/svg+xml</dc:format>
        <dc:type
           rdf:resource="http://purl.org/dc/dcmitype/StillImage" />
      </cc:Work>
    </rdf:RDF>
  </metadata>
  <rect
     style="fill:#000000;stroke:none;stroke-width:0.539739;stroke-dasharray:none;filter:url(#filter1283)"
     id="rect246-1"
     width="14.572964"
     height="14.572964"
     x="1.1932471"
     y="1.2138842"
     rx="2.1589575"
     ry="2.1589575" />
  <rect
     style="opacity:1;fill:#000000;stroke:url(#linearGradient885);stroke-width:0.52915625;stroke-dasharray:none"
     id="rect246"
     width="14.287219"
     height="14.287219"
     x="1.3361193"
     y="1.3567564"
     rx="2.1166251"
     ry="2.1166251" />
  <rect
     style="fill:url(#linearGradient1136);fill-opacity:1;stroke:none;stroke-width:0.478315;stroke-dasharray:none"
     id="rect246-5"
     width="12.914515"
     height="12.914515"
     x="2.0224717"
     y="2.0431087"
     rx="1.5874687"
     ry="1.5874687" />
  <path
     style="fill:#999999;stroke-width:0.0170945"
     d="M 8.3940465,10.608955 C 7.3434363,10.521969 6.3747157,10.072477 5.6346187,9.3285643 5.5261697,9.2195569 5.3879648,9.0693211 5.3274958,8.9947088 5.0560359,8.6597545 4.7663186,8.1503133 4.6178251,7.7468189 4.5364274,7.5256428 4.433048,7.1152104 4.393643,6.8567855 4.349486,6.567189 4.349486,5.8984754 4.393643,5.6088789 4.44562,5.2680045 4.6186306,4.6451074 4.6780335,4.5849757 c 0.00889,-0.00901 0.052504,7.8e-4 0.1058008,0.023746 0.049866,0.021486 0.1226124,0.052788 0.1616581,0.069559 l 0.070992,0.030494 -0.075996,0.2278221 c -0.3040396,0.9114599 -0.2813788,1.903535 0.063248,2.7690519 0.4781357,1.2008149 1.5023176,2.1031045 2.7436746,2.4171363 0.9340972,0.236304 1.8915922,0.137927 2.751213,-0.2826731 0.778526,-0.3809212 1.402064,-0.9899044 1.811901,-1.7696095 0.05435,-0.1034221 0.107402,-0.1855091 0.117862,-0.1824156 0.01857,0.00549 0.305097,0.1254674 0.314251,0.1315859 0.0093,0.00619 -0.124764,0.2768662 -0.207159,0.4183641 -0.6821,1.1713809 -1.888945,1.9735192 -3.2249304,2.1434682 -0.2545106,0.03238 -0.6969524,0.04563 -0.9165037,0.02745 z M 8.8187417,9.9340391 C 8.6430139,9.8846129 8.5611468,9.816842 8.5468883,9.7089924 c -0.00786,-0.059405 0.014746,-0.526668 0.088349,-1.8265303 0.013841,-0.244453 0.029827,-0.5079237 0.035528,-0.5854905 l 0.010356,-0.1410305 0.088212,-2.648e-4 c 0.048518,-1.544e-4 0.132734,-0.010743 0.1871505,-0.023548 l 0.098938,-0.02328 0.027349,0.053463 c 0.015047,0.029405 0.2772364,0.5296259 0.5826547,1.1116026 0.3054168,0.5819766 0.5625305,1.0843047 0.5713605,1.1162844 0.05514,0.1997487 -0.194498,0.3999076 -0.6484279,0.5198821 -0.1786048,0.047205 -0.6363021,0.061452 -0.769613,0.023949 z M 7.5070698,9.7980059 C 7.1260977,9.6986859 6.7568387,9.4967818 6.5225066,9.2596689 6.3741089,9.1095101 6.3243013,9.01052 6.3440851,8.9050621 6.3575586,8.8332394 6.3122926,8.8815154 7.4909708,7.6819243 7.8676005,7.2986134 8.1812255,6.984995 8.1879159,6.984995 c 0.0067,0 0.041287,0.018384 0.076881,0.040853 0.03559,0.022468 0.1046739,0.055045 0.1535113,0.072392 0.075128,0.026682 0.08879,0.038155 0.088758,0.074535 -5.13e-5,0.062901 -0.1771862,1.4493819 -0.2562017,2.0054177 -0.046391,0.3264527 -0.077555,0.4943571 -0.098368,0.529993 -0.016755,0.028682 -0.064268,0.07004 -0.1055831,0.091887 C 7.942919,9.8550713 7.7227073,9.8542253 7.50707,9.7980023 Z M 10.558328,9.220115 C 10.480786,9.167303 10.138861,8.6267875 9.4501925,7.4683925 L 9.1938644,7.0372281 9.256481,6.9987207 C 9.290918,6.9775417 9.349868,6.9321127 9.387476,6.8977686 l 0.068378,-0.062445 1.133749,0.4918294 c 0.623561,0.2705064 1.152202,0.5091666 1.174759,0.5303565 0.122757,0.1153278 0.08078,0.3571488 -0.114227,0.65806 -0.330892,0.5105814 -0.867858,0.8570858 -1.091807,0.7045455 z M 5.9163542,8.5325156 C 5.7241344,8.4364048 5.5329897,8.2169599 5.394804,7.9337459 5.2915106,7.722045 5.2523538,7.5640763 5.2648225,7.4093689 5.2774395,7.2528125 5.3288086,7.1649729 5.4417652,7.1067971 5.5088452,7.0722488 6.2595983,6.9021514 7.0364462,6.7454915 7.4551238,6.6610606 7.8147816,6.588003 7.8356856,6.5831413 c 0.030793,-0.00716 0.044405,0.00369 0.071686,0.057174 0.01852,0.036308 0.061764,0.1028099 0.096094,0.1477827 l 0.062414,0.081769 -0.040081,0.03796 C 7.3657703,7.5329421 6.3207314,8.472842 6.2078795,8.5428512 6.1349231,8.5881108 6.0193484,8.5840138 5.9163542,8.5325156 Z M 8.5652099,6.8066437 C 8.4627558,6.7728286 8.3684304,6.7083278 8.2882894,6.6172832 8.2140357,6.5329261 8.1428435,6.3726094 8.1515381,6.3093291 c 0.00482,-0.035052 0.03396,-0.024757 0.4795638,0.1694086 0.2609412,0.1137011 0.4721844,0.2145056 0.4694294,0.22401 -0.00278,0.0095 -0.049668,0.039749 -0.1042525,0.067212 -0.1171899,0.058959 -0.3130721,0.075629 -0.4310689,0.036684 z M 5.1963725,6.7309167 C 4.9515715,6.5756282 4.9380707,5.8841442 5.1702002,5.3903454 5.2424837,5.2365781 5.3491697,5.1216826 5.4196664,5.1216826 c 0.022428,0 0.5705001,0.2256854 1.2179415,0.5015232 L 7.8147735,6.124729 V 6.2770747 6.4294203 L 7.438691,6.4928717 C 6.7029326,6.6170056 5.7968873,6.7358227 5.4386213,6.7551563 5.269294,6.7642939 5.245186,6.7618793 5.1963725,6.7309167 Z"
     id="path1" />
  <g
     aria-label="Krita"
     id="text1450"
     style="font-size:1.76385px;opacity:1;fill:#ff7f2a;stroke-width:0.529156">
    <rect
       style="font-size:1.76385px;fill:#ff7f2a;fill-opacity:1;stroke:none;stroke-width:0.519976;stroke-dasharray:none;filter:url(#filter3148)"
       id="rect1656-3"
       width="0.5055005"
       height="2.2653189"
       x="15.369148"
       y="4.3016486"
       rx="0"
       ry="0" />
    <rect
       style="opacity:1;fill:#ff7f2a;fill-opacity:1;stroke:none;stroke-width:0.519976;stroke-dasharray:none"
       id="rect1656"
       width="0.5055005"
       height="2.2653189"
       x="15.369148"
       y="4.3016486"
       rx="0"
       ry="0" />
  </g>
  <path
     style="font-size:1.76385px;text-align:center;text-anchor:middle;fill:#999999;stroke-width:0.529156"
     d="m 4.2625352,13.041334 q -0.2028428,0 -0.3192569,0.135816 -0.1164141,0.135817 -0.1164141,0.372173 0,0.234592 0.1075949,0.372172 0.1093587,0.135816 0.3263122,0.135816 0.082901,0 0.1569827,-0.01411 0.074082,-0.01411 0.1446357,-0.03528 v 0.13758 q -0.070554,0.02646 -0.1463996,0.0388 -0.074082,0.01235 -0.1781488,0.01235 -0.1922597,0 -0.3210207,-0.07937 -0.1287611,-0.07937 -0.1940235,-0.225772 -0.063499,-0.1464 -0.063499,-0.343951 0,-0.190496 0.06879,-0.335132 0.070554,-0.146399 0.2063705,-0.227536 0.1358164,-0.0829 0.3298399,-0.0829 0.1993151,0 0.3474785,0.07408 l -0.063499,0.134053 Q 4.4900718,13.083666 4.417754,13.0625 4.3472,13.041334 4.2625352,13.041334 Z m 0.7090676,1.137683 H 4.816384 v -1.340526 h 0.1552188 z m 0.6649704,-0.963062 q 0.1217057,0 0.2081343,0.05292 0.088192,0.05292 0.1340526,0.149928 0.047624,0.09525 0.047624,0.224009 v 0.09348 h -0.647333 q 0.00353,0.16051 0.081137,0.245175 0.079373,0.0829 0.2204813,0.0829 0.089956,0 0.1587465,-0.01588 0.070554,-0.01764 0.1446357,-0.04939 v 0.135817 q -0.072318,0.03175 -0.1428719,0.04586 -0.070554,0.01588 -0.1675657,0.01588 -0.1340526,0 -0.2381198,-0.05468 -0.1023033,-0.05468 -0.1605103,-0.162274 -0.056443,-0.109359 -0.056443,-0.266341 0,-0.155219 0.051152,-0.266342 0.052916,-0.111122 0.1463996,-0.171093 0.095248,-0.05997 0.2204812,-0.05997 z m -0.00176,0.126997 q -0.1111226,0 -0.176385,0.07232 -0.063499,0.07055 -0.075846,0.197551 h 0.4815311 q -0.00176,-0.119942 -0.056443,-0.194023 -0.054679,-0.07585 -0.1728573,-0.07585 z m 1.6686005,-0.126997 q 0.1605104,0 0.2398836,0.0829 0.079373,0.08114 0.079373,0.264577 v 0.615584 h -0.153455 v -0.608528 q 0,-0.224009 -0.1922596,-0.224009 -0.1375803,0 -0.1975512,0.07937 -0.058207,0.07937 -0.058207,0.231064 v 0.5221 H 6.867739 v -0.608528 q 0,-0.224009 -0.1940235,-0.224009 -0.1428719,0 -0.1975512,0.08819 -0.054679,0.08819 -0.054679,0.253995 v 0.49035 H 6.2662661 v -0.945424 h 0.1252334 l 0.02293,0.128762 h 0.00882 q 0.044096,-0.07408 0.1181779,-0.109359 0.075846,-0.03704 0.1605104,-0.03704 0.2222451,0 0.2892714,0.158746 h 0.00882 q 0.047624,-0.08114 0.1287611,-0.119941 0.082901,-0.0388 0.1746211,-0.0388 z m 0.9771722,0 q 0.1217056,0 0.2081343,0.05292 0.088192,0.05292 0.1340526,0.149928 0.047624,0.09525 0.047624,0.224009 v 0.09348 H 8.02306 q 0.00353,0.16051 0.081137,0.245175 0.079373,0.0829 0.2204812,0.0829 0.089956,0 0.1587465,-0.01588 0.070554,-0.01764 0.1446357,-0.04939 v 0.135817 q -0.072318,0.03175 -0.1428718,0.04586 -0.070554,0.01588 -0.1675658,0.01588 -0.1340526,0 -0.2381197,-0.05468 -0.1023033,-0.05468 -0.1605103,-0.162274 -0.056443,-0.109359 -0.056443,-0.266341 0,-0.155219 0.051152,-0.266342 0.052916,-0.111122 0.1463995,-0.171093 0.095248,-0.05997 0.2204813,-0.05997 z m -0.00176,0.126997 q -0.1111225,0 -0.176385,0.07232 -0.063499,0.07055 -0.075845,0.197551 h 0.481531 q -0.00176,-0.119942 -0.056443,-0.194023 -0.054679,-0.07585 -0.1728573,-0.07585 z m 1.0865299,-0.126997 q 0.1693296,0 0.2557582,0.0829 0.086429,0.08114 0.086429,0.264577 v 0.615584 H 9.55408 v -0.605 q 0,-0.227537 -0.211662,-0.227537 -0.1569826,0 -0.2169535,0.08819 -0.059971,0.08819 -0.059971,0.253995 v 0.49035 H 8.9102748 v -0.945424 h 0.1252333 l 0.02293,0.128762 h 0.00882 q 0.04586,-0.07408 0.1269972,-0.109359 0.081137,-0.03704 0.1710935,-0.03704 z m 0.9507149,0.853703 q 0.03528,0 0.07232,-0.0053 0.03704,-0.0071 0.05997,-0.01411 v 0.118178 q -0.02469,0.01235 -0.07055,0.0194 -0.04586,0.0088 -0.08819,0.0088 -0.07408,0 -0.13758,-0.02469 -0.06174,-0.02646 -0.100539,-0.08996 -0.0388,-0.0635 -0.0388,-0.178149 V 13.353535 H 9.8786284 v -0.07408 l 0.1358166,-0.06173 0.06174,-0.201079 h 0.09172 v 0.216953 h 0.273397 v 0.119942 H 10.1679 v 0.546794 q 0,0.08643 0.04057,0.128761 0.04233,0.04057 0.107595,0.04057 z m 0.400395,-1.190598 q 0.03528,0 0.06173,0.02469 0.02822,0.02293 0.02822,0.07408 0,0.04939 -0.02822,0.07408 -0.02646,0.02469 -0.06173,0.02469 -0.0388,0 -0.06526,-0.02469 -0.02646,-0.02469 -0.02646,-0.07408 0,-0.05115 0.02646,-0.07408 0.02646,-0.02469 0.06526,-0.02469 z m 0.07585,0.354533 v 0.945424 h -0.155219 v -0.945424 z m 0.754927,-0.01764 q 0.169329,0 0.255758,0.0829 0.08643,0.08114 0.08643,0.264577 v 0.615584 h -0.153455 v -0.605 q 0,-0.227537 -0.211662,-0.227537 -0.156982,0 -0.216953,0.08819 -0.05997,0.08819 -0.05997,0.253995 v 0.49035 h -0.155219 v -0.945424 h 0.125234 l 0.02293,0.128762 h 0.0088 q 0.04586,-0.07408 0.126997,-0.109359 0.08114,-0.03704 0.171094,-0.03704 z m 1.000103,0 q 0.121706,0 0.208134,0.05292 0.08819,0.05292 0.134053,0.149928 0.04762,0.09525 0.04762,0.224009 v 0.09348 h -0.647333 q 0.0035,0.16051 0.08114,0.245175 0.07937,0.0829 0.220481,0.0829 0.08996,0 0.158747,-0.01588 0.07055,-0.01764 0.144635,-0.04939 v 0.135817 q -0.07232,0.03175 -0.142871,0.04586 -0.07055,0.01588 -0.167566,0.01588 -0.134053,0 -0.23812,-0.05468 -0.102303,-0.05468 -0.16051,-0.162274 -0.05644,-0.109359 -0.05644,-0.266341 0,-0.155219 0.05115,-0.266342 0.05292,-0.111122 0.1464,-0.171093 0.09525,-0.05997 0.220481,-0.05997 z m -0.0018,0.126997 q -0.111122,0 -0.176385,0.07232 -0.0635,0.07055 -0.07585,0.197551 h 0.481531 q -0.0018,-0.119942 -0.05644,-0.194023 -0.05468,-0.07585 -0.172857,-0.07585 z"
     id="text2284"
     aria-label="Clementine" />
  <text
     xml:space="preserve"
     transform="scale(0.26457812)"
     id="text3806"
     style="font-size:6.66667px;white-space:pre;shape-inside:url(#rect3808);display:inline;fill:#999999;stroke-width:2" />
</svg>
