<?xml version="1.0" encoding="UTF-8" standalone="no"?>
<svg
   width="64"
   height="64"
   version="1.1"
   viewBox="0 0 16.933 16.933"
   id="svg7"
   sodipodi:docname="Office Template.svg"
   inkscape:version="1.4 (e7c3feb100, 2024-10-09)"
   xmlns:inkscape="http://www.inkscape.org/namespaces/inkscape"
   xmlns:sodipodi="http://sodipodi.sourceforge.net/DTD/sodipodi-0.dtd"
   xmlns:xlink="http://www.w3.org/1999/xlink"
   xmlns="http://www.w3.org/2000/svg"
   xmlns:svg="http://www.w3.org/2000/svg"
   xmlns:rdf="http://www.w3.org/1999/02/22-rdf-syntax-ns#"
   xmlns:cc="http://creativecommons.org/ns#"
   xmlns:dc="http://purl.org/dc/elements/1.1/">
  <sodipodi:namedview
     id="namedview7"
     pagecolor="#9c4444"
     bordercolor="#000000"
     borderopacity="0.25"
     inkscape:showpageshadow="2"
     inkscape:pageopacity="0.0"
     inkscape:pagecheckerboard="0"
     inkscape:deskcolor="#d1d1d1"
     inkscape:zoom="6.15625"
     inkscape:cx="15.51269"
     inkscape:cy="29.807107"
     inkscape:window-width="1183"
     inkscape:window-height="973"
     inkscape:window-x="35"
     inkscape:window-y="32"
     inkscape:window-maximized="0"
     inkscape:current-layer="svg7"
     showgrid="false" />
  <defs
     id="defs2">
    <rect
       x="67.489848"
       y="35.60533"
       width="15.337563"
       height="22.51269"
       id="rect3808" />
    <linearGradient
       inkscape:collect="always"
       id="linearGradient1134">
      <stop
         style="stop-color:#161616;stop-opacity:1;"
         offset="0"
         id="stop1130" />
      <stop
         style="stop-color:#404040;stop-opacity:1;"
         offset="1"
         id="stop1132" />
    </linearGradient>
    <linearGradient
       inkscape:collect="always"
       id="linearGradient883">
      <stop
         style="stop-color:#808080;stop-opacity:1;"
         offset="0"
         id="stop879" />
      <stop
         style="stop-color:#3e3e3e;stop-opacity:1;"
         offset="0.5"
         id="stop1216" />
      <stop
         style="stop-color:#242424;stop-opacity:1;"
         offset="1"
         id="stop881" />
    </linearGradient>
    <linearGradient
       inkscape:collect="always"
       xlink:href="#linearGradient883"
       id="linearGradient885"
       x1="2.1085808"
       y1="2.0236168"
       x2="14.846128"
       y2="15.071845"
       gradientUnits="userSpaceOnUse" />
    <linearGradient
       inkscape:collect="always"
       xlink:href="#linearGradient1134"
       id="linearGradient1136"
       x1="14.971222"
       y1="14.703373"
       x2="2.0756054"
       y2="2.0069976"
       gradientUnits="userSpaceOnUse" />
    <filter
       style="color-interpolation-filters:sRGB;"
       inkscape:label="Blur"
       id="filter1283"
       x="-0.082344266"
       y="-0.082344266"
       width="1.1646885"
       height="1.1646885">
      <feGaussianBlur
         stdDeviation="0.5 0.5"
         result="blur"
         id="feGaussianBlur1281" />
    </filter>
    <filter
       style="color-interpolation-filters:sRGB;"
       inkscape:label="Blur"
       id="filter1694"
       x="-0.94955398"
       y="-0.2118907"
       width="2.899108"
       height="1.4237814">
      <feGaussianBlur
         stdDeviation="0.2 0.2"
         result="blur"
         id="feGaussianBlur1692" />
    </filter>
    <filter
       style="color-interpolation-filters:sRGB;"
       inkscape:label="Blur"
       id="filter3148"
       x="-0.94955398"
       y="-0.2118907"
       width="2.899108"
       height="1.4237814">
      <feGaussianBlur
         stdDeviation="0.2 0.2"
         result="blur"
         id="feGaussianBlur3146" />
    </filter>
    <clipPath
       clipPathUnits="userSpaceOnUse"
       id="clipPath44">
      <path
         id="path46"
         style="display:block;opacity:0.85;fill:#f2f2f2;stroke-width:4.39162"
         d="m 17.570312,8.4453125 a 6.5431988,7.4283052 9.9958727e-8 0 0 -6.535156,7.4394535 6.5431988,7.4283052 9.9958727e-8 0 0 6.552735,7.417968 6.5431988,7.4283052 9.9958727e-8 0 0 6.535156,-7.4375 6.5431988,7.4283052 9.9958727e-8 0 0 -6.552735,-7.4199215 z M 45.646484,41.177734 a 6.5431986,7.0703472 2.4665357e-6 0 0 -6.533203,7.080078 6.5431986,7.0703472 2.4665357e-6 0 0 6.550781,7.060547 6.5431986,7.0703472 2.4665357e-6 0 0 6.535157,-7.080078 6.5431986,7.0703472 2.4665357e-6 0 0 -6.552735,-7.060547 z" />
    </clipPath>
    <inkscape:path-effect
       effect="powerclip"
       id="path-effect48"
       is_visible="true"
       lpeversion="1"
       inverse="true"
       flatten="false"
       hide_clip="false"
       message="" />
    <clipPath
       clipPathUnits="userSpaceOnUse"
       id="clipPath11003">
      <path
         d="m 29.096463,29.518749 c -0.769242,0.797452 -0.746529,2.058727 0.05092,2.827967 l 1.439448,1.388522 c 0.797454,0.769241 2.058728,0.746528 2.827968,-0.05092 l 1.388523,-1.439446 1.439447,1.388522 0.694261,-0.719723 -5.757786,-5.554087 z m 4.859826,-5.038065 c -0.769241,0.797454 -0.746529,2.058728 0.05092,2.827969 l 1.439446,1.388521 c 0.797454,0.769241 2.05873,0.746528 2.82797,-0.05092 l 1.388521,-1.439447 1.439449,1.388523 0.69426,-0.719724 -5.757788,-5.554088 z M 22.848115,35.996259 27.166455,40.161823 27.860717,39.4421 24.2621,35.970795 25.650621,34.53135 c 0.38462,-0.398727 1.015257,-0.410084 1.413984,-0.02547 l 2.878894,2.777043 0.69426,-0.719723 -2.878893,-2.777044 c -0.719723,-0.69426 -2.133708,-0.668797 -2.827968,0.05092 z m 6.968071,-5.783251 1.388522,-1.439447 2.878894,2.777044 -1.388523,1.439447 c -0.34713,0.359863 -1.070675,0.356625 -1.413984,0.02547 l -1.439447,-1.388531 c -0.359861,-0.347129 -0.372592,-1.054121 -0.02547,-1.413984 z m 4.859826,-5.038062 1.388522,-1.439448 2.878893,2.777043 -1.388521,1.439447 c -0.347131,0.359861 -1.070675,0.356625 -1.413985,0.02547 l -1.439446,-1.388521 c -0.359862,-0.34713 -0.372592,-1.054122 -0.02546,-1.413983 z"
         fill="#ffffff"
         id="path11005"
         style="display:none;fill:#202833;fill-opacity:1;stroke-width:1" />
      <path
         id="lpe_path-effect11007"
         style="fill:#202833;fill-opacity:1;stroke-width:1"
         class="powerclip"
         d="M 8.094175,7.858363 H 56.829929 V 56.621039 H 8.094175 Z m 21.002288,21.660386 c -0.769242,0.797452 -0.746529,2.058727 0.05092,2.827967 l 1.439448,1.388522 c 0.797454,0.769241 2.058728,0.746528 2.827968,-0.05092 l 1.388523,-1.439446 1.439447,1.388522 0.694261,-0.719723 -5.757786,-5.554087 z m 4.859826,-5.038065 c -0.769241,0.797454 -0.746529,2.058728 0.05092,2.827969 l 1.439446,1.388521 c 0.797454,0.769241 2.05873,0.746528 2.82797,-0.05092 l 1.388521,-1.439447 1.439449,1.388523 0.69426,-0.719724 -5.757788,-5.554088 z M 22.848115,35.996259 27.166455,40.161823 27.860717,39.4421 24.2621,35.970795 25.650621,34.53135 c 0.38462,-0.398727 1.015257,-0.410084 1.413984,-0.02547 l 2.878894,2.777043 0.69426,-0.719723 -2.878893,-2.777044 c -0.719723,-0.69426 -2.133708,-0.668797 -2.827968,0.05092 z m 6.968071,-5.783251 -8e-6,-10e-7 c -0.347122,0.359863 -0.334391,1.066855 0.02547,1.413984 l 1.439447,1.388531 c 0.343309,0.331155 1.066854,0.334393 1.413984,-0.02547 l 1.388523,-1.439447 -2.878894,-2.777044 z m 4.859826,-5.038062 3e-6,8e-6 c -0.347132,0.359861 -0.334402,1.066853 0.02546,1.413983 l 1.439446,1.388521 c 0.34331,0.331155 1.066854,0.334391 1.413985,-0.02547 l 1.388521,-1.439447 -2.878893,-2.777043 z" />
    </clipPath>
    <inkscape:path-effect
       effect="powerclip"
       id="path-effect11007"
       is_visible="true"
       lpeversion="1"
       inverse="true"
       flatten="false"
       hide_clip="false"
       message="" />
  </defs>
  <metadata
     id="metadata2">
    <rdf:RDF>
      <cc:Work
         rdf:about="">
        <dc:format>image/svg+xml</dc:format>
        <dc:type
           rdf:resource="http://purl.org/dc/dcmitype/StillImage" />
      </cc:Work>
    </rdf:RDF>
  </metadata>
  <rect
     style="fill:#000000;stroke:none;stroke-width:0.539739;stroke-dasharray:none;filter:url(#filter1283)"
     id="rect246-1"
     width="14.572964"
     height="14.572964"
     x="1.1932471"
     y="1.2138842"
     rx="2.1589575"
     ry="2.1589575" />
  <rect
     style="opacity:1;fill:#000000;stroke:url(#linearGradient885);stroke-width:0.52915625;stroke-dasharray:none"
     id="rect246"
     width="14.287219"
     height="14.287219"
     x="1.3361193"
     y="1.3567564"
     rx="2.1166251"
     ry="2.1166251" />
  <rect
     style="fill:url(#linearGradient1136);fill-opacity:1;stroke:none;stroke-width:0.478315;stroke-dasharray:none"
     id="rect246-5"
     width="12.914515"
     height="12.914515"
     x="2.0224717"
     y="2.0431087"
     rx="1.5874687"
     ry="1.5874687" />
  <path
     id="path17"
     style="fill:#999999;fill-opacity:1;stroke-width:0.206377;stroke-opacity:0.3"
     d="m 44.290921,12.858379 c -0.260843,0.0014 -0.507997,0.0934 -0.794061,0.243183 -0.320435,0.167771 -6.844491,6.58841 -14.499094,14.26583 l -13.918435,13.95813 4.215982,4.220941 c 2.31902,2.321091 4.280188,4.194984 4.357418,4.166345 0.07722,-0.02882 6.354797,-6.319892 13.950695,-13.982944 14.370427,-14.497493 14.573213,-14.725775 14.107018,-15.91103 -0.106887,-0.27174 -1.573889,-1.903693 -3.258136,-3.625393 -2.471246,-2.526197 -3.378817,-3.339235 -4.161387,-3.335062 z M 13.094175,43.705228 v 3.957906 3.957905 h 3.737061 3.739537 l -0.786619,-0.875948 c -0.431937,-0.482404 -2.112691,-2.263079 -3.73706,-3.957906 z"
     clip-path="url(#clipPath11003)"
     inkscape:path-effect="#path-effect11007"
     inkscape:original-d="m 44.290921,12.858379 c -0.260843,0.0014 -0.507997,0.0934 -0.794061,0.243183 -0.320435,0.167771 -6.844491,6.58841 -14.499094,14.26583 l -13.918435,13.95813 4.215982,4.220941 c 2.31902,2.321091 4.280188,4.194984 4.357418,4.166345 0.07722,-0.02882 6.354797,-6.319892 13.950695,-13.982944 14.370427,-14.497493 14.573213,-14.725775 14.107018,-15.91103 -0.106887,-0.27174 -1.573889,-1.903693 -3.258136,-3.625393 -2.471246,-2.526197 -3.378817,-3.339235 -4.161387,-3.335062 z M 13.094175,43.705228 v 3.957906 3.957905 h 3.737061 3.739537 l -0.786619,-0.875948 c -0.431937,-0.482404 -2.112691,-2.263079 -3.73706,-3.957906 z"
     transform="matrix(0.19094868,0,0,0.19094868,2.4064643,1.3200888)" />
  <g
     fill="#474747"
     id="g9"
     transform="matrix(0.46959567,0,0,0.46959567,4.7471229,3.7470598)"
     style="fill:#999999;fill-opacity:1;stroke:none;stroke-width:0.58349;stroke-dasharray:none;stroke-opacity:0.3" />
  <g
     aria-label="Krita"
     id="text1450"
     style="font-size:1.76385px;opacity:1;fill:#afafe9;stroke-width:0.529156;fill-opacity:1">
    <rect
       style="font-size:1.76385px;fill:#afafe9;fill-opacity:1;stroke:none;stroke-width:0.519976;stroke-dasharray:none;filter:url(#filter3148)"
       id="rect1656-3"
       width="0.5055005"
       height="2.2653189"
       x="15.369148"
       y="4.3016486"
       rx="0"
       ry="0" />
    <rect
       style="opacity:1;fill:#afafe9;fill-opacity:1;stroke:none;stroke-width:0.519976;stroke-dasharray:none"
       id="rect1656"
       width="0.5055005"
       height="2.2653189"
       x="15.369148"
       y="4.3016486"
       rx="0"
       ry="0" />
  </g>
  <path
     d="M 5.0307742,14.179017 H 4.84557 L 4.1717793,13.133054 h -0.00706 q 0.00353,0.06174 0.00882,0.153455 0.00529,0.09172 0.00529,0.188732 v 0.703776 H 4.0324352 v -1.259389 h 0.1834404 l 0.6720268,1.042436 h 0.00706 q -0.00176,-0.02822 -0.00529,-0.08466 -0.00176,-0.05644 -0.00529,-0.12347 -0.00176,-0.06703 -0.00176,-0.123469 v -0.710832 h 0.1481634 z m 1.1429752,-0.474476 q 0,0.234592 -0.1199418,0.363354 -0.118178,0.128761 -0.3210207,0.128761 -0.1252333,0 -0.2240089,-0.05644 -0.097012,-0.05821 -0.153455,-0.167565 -0.056443,-0.111123 -0.056443,-0.268106 0,-0.234592 0.118178,-0.361589 0.1181779,-0.126997 0.3210206,-0.126997 0.1287611,0 0.2257728,0.05821 0.098776,0.05644 0.153455,0.165802 0.056443,0.107595 0.056443,0.264577 z m -0.7143592,0 q 0,0.167566 0.065262,0.266342 0.067026,0.09701 0.211662,0.09701 0.1428718,0 0.2098981,-0.09701 0.067026,-0.09878 0.067026,-0.266342 0,-0.167565 -0.067026,-0.262813 -0.067026,-0.09525 -0.211662,-0.09525 -0.1446356,0 -0.2098981,0.09525 -0.065262,0.09525 -0.065262,0.262813 z m 1.2752627,0.365117 q 0.035277,0 0.072318,-0.0053 0.037041,-0.0071 0.059971,-0.01411 v 0.118178 q -0.024694,0.01235 -0.070554,0.0194 -0.04586,0.0088 -0.088192,0.0088 -0.074082,0 -0.1375803,-0.02469 -0.061735,-0.02646 -0.1005394,-0.08996 -0.038805,-0.0635 -0.038805,-0.178149 V 13.353535 H 6.2972181 v -0.07408 l 0.1358164,-0.06173 0.061735,-0.201079 h 0.09172 v 0.216953 h 0.2733967 v 0.119942 H 6.5864895 v 0.546794 q 0,0.08643 0.040569,0.128761 0.042332,0.04057 0.1075949,0.04057 z m 0.6861378,-0.853703 q 0.1217056,0 0.2081342,0.05292 0.088192,0.05292 0.1340526,0.149928 0.047624,0.09525 0.047624,0.224009 v 0.09348 H 7.1632686 q 0.00353,0.16051 0.081137,0.245175 0.079373,0.0829 0.2204812,0.0829 0.089956,0 0.1587465,-0.01588 0.070554,-0.01764 0.1446357,-0.04939 v 0.135817 q -0.072318,0.03175 -0.1428719,0.04586 -0.070554,0.01588 -0.1675657,0.01588 -0.1340526,0 -0.2381197,-0.05468 -0.1023033,-0.05468 -0.1605104,-0.162274 -0.056443,-0.109359 -0.056443,-0.266341 0,-0.155219 0.051152,-0.266342 0.052916,-0.111122 0.1463995,-0.171093 0.095248,-0.05997 0.2204813,-0.05997 z m -0.00176,0.126997 q -0.1111225,0 -0.176385,0.07232 -0.063499,0.07055 -0.075846,0.197551 h 0.481531 q -0.00176,-0.119942 -0.056443,-0.194023 -0.054679,-0.07585 -0.1728573,-0.07585 z m 1.0812385,-0.126997 q 0.1746212,0 0.2804522,0.121706 0.1075948,0.121705 0.1075948,0.36688 0,0.241648 -0.1075948,0.366881 -0.105831,0.125234 -0.282216,0.125234 -0.1093587,0 -0.1816766,-0.04057 -0.070554,-0.04233 -0.1111225,-0.09701 h -0.010583 q 0.00353,0.02999 0.00706,0.07585 0.00353,0.04586 0.00353,0.07937 v 0.388047 H 8.0504836 v -1.368748 h 0.1269972 l 0.021166,0.128762 h 0.00706 q 0.042332,-0.06174 0.1111225,-0.104068 0.06879,-0.04233 0.1834404,-0.04233 z m -0.028222,0.130525 q -0.1446357,0 -0.2046066,0.08114 -0.058207,0.08114 -0.061735,0.246939 v 0.02998 q 0,0.174622 0.056443,0.269869 0.058207,0.09348 0.2134258,0.09348 0.086429,0 0.141108,-0.04762 0.056443,-0.04762 0.082901,-0.128761 0.028222,-0.0829 0.028222,-0.188732 0,-0.162275 -0.063499,-0.259286 -0.061735,-0.09701 -0.1922597,-0.09701 z m 1.0212688,-0.128761 q 0.1728573,0 0.2557582,0.07584 0.082901,0.07585 0.082901,0.241648 v 0.643805 H 9.7190853 l -0.029986,-0.134053 h -0.00706 q -0.061735,0.07761 -0.1305249,0.114651 -0.067026,0.03704 -0.1869681,0.03704 -0.128761,0 -0.2134258,-0.06703 -0.084665,-0.06879 -0.084665,-0.213426 0,-0.141108 0.1111225,-0.216953 0.1111226,-0.07761 0.3421869,-0.08466 l 0.1605104,-0.0053 v -0.05644 q 0,-0.118178 -0.051152,-0.164038 -0.051152,-0.04586 -0.1446357,-0.04586 -0.074082,0 -0.141108,0.02293 -0.067026,0.02117 -0.1252333,0.04939 l -0.047624,-0.116414 q 0.061735,-0.03351 0.1463996,-0.05644 0.084665,-0.02469 0.176385,-0.02469 z m 0.04586,0.504461 q -0.176385,0.0071 -0.2451752,0.05644 -0.067026,0.04939 -0.067026,0.139344 0,0.07937 0.047624,0.116414 0.049388,0.03704 0.1252333,0.03704 0.1199418,0 0.1993151,-0.06526 0.079373,-0.06703 0.079373,-0.204607 v -0.08466 z m 0.9207314,0.474476 q -0.176385,0 -0.282216,-0.121706 -0.105831,-0.12347 -0.105831,-0.366881 0,-0.243411 0.105831,-0.366881 0.107595,-0.125233 0.28398,-0.125233 0.109358,0 0.178149,0.04057 0.07055,0.04057 0.11465,0.09877 h 0.01058 q -0.0018,-0.02293 -0.0071,-0.06703 -0.0035,-0.04586 -0.0035,-0.07232 v -0.377464 h 0.155219 v 1.340526 h -0.125234 l -0.02293,-0.126997 h -0.0071 q -0.04233,0.05997 -0.112887,0.102303 -0.07055,0.04233 -0.181676,0.04233 z m 0.02469,-0.128761 q 0.149927,0 0.209898,-0.08114 0.06174,-0.0829 0.06174,-0.248702 v -0.02822 q 0,-0.176385 -0.05821,-0.269869 -0.05821,-0.09525 -0.21519,-0.09525 -0.125233,0 -0.188732,0.100539 -0.06174,0.09878 -0.06174,0.266342 0,0.169329 0.06174,0.262813 0.0635,0.09348 0.190496,0.09348 z m 1.354636,0.130524 q 0,-0.03175 0.0018,-0.07408 0.0018,-0.04233 0.0071,-0.07232 h -0.01058 q -0.04057,0.05997 -0.112886,0.102303 -0.07055,0.04233 -0.18344,0.04233 -0.171094,0 -0.278689,-0.121706 -0.105831,-0.12347 -0.105831,-0.366881 0,-0.243411 0.107595,-0.366881 0.109359,-0.125233 0.282216,-0.125233 0.111123,0 0.181677,0.04233 0.07055,0.04233 0.112886,0.104068 h 0.0071 l 0.02293,-0.128762 h 0.123469 v 1.368748 h -0.155219 z m -0.268105,-0.130524 q 0.1464,0 0.20637,-0.07937 0.06173,-0.08114 0.0635,-0.246939 v -0.03175 q 0,-0.179913 -0.05997,-0.271633 -0.05997,-0.09348 -0.213426,-0.09348 -0.126997,0 -0.188732,0.100539 -0.06173,0.09878 -0.06173,0.266342 0,0.167566 0.06173,0.262813 0.0635,0.09348 0.19226,0.09348 z m 1.352873,0.130524 q 0,-0.03175 0.0018,-0.07408 0.0018,-0.04233 0.0071,-0.07232 h -0.01058 q -0.04057,0.05997 -0.112887,0.102303 -0.07055,0.04233 -0.18344,0.04233 -0.171094,0 -0.278688,-0.121706 -0.105831,-0.12347 -0.105831,-0.366881 0,-0.243411 0.107594,-0.366881 0.109359,-0.125233 0.282216,-0.125233 0.111123,0 0.181677,0.04233 0.07055,0.04233 0.112886,0.104068 h 0.0071 l 0.02293,-0.128762 h 0.123469 v 1.368748 h -0.155218 z m -0.268106,-0.130524 q 0.1464,0 0.206371,-0.07937 0.06174,-0.08114 0.0635,-0.246939 v -0.03175 q 0,-0.179913 -0.05997,-0.271633 -0.05997,-0.09348 -0.213425,-0.09348 -0.126998,0 -0.188732,0.100539 -0.06174,0.09878 -0.06174,0.266342 0,0.167566 0.06174,0.262813 0.0635,0.09348 0.192259,0.09348 z"
     id="text2284"
     style="font-size:1.76385px;fill:#999999;stroke-width:0.529156"
     aria-label="Notepadqq" />
  <text
     xml:space="preserve"
     transform="scale(0.26457812)"
     id="text3806"
     style="font-size:6.66667px;white-space:pre;shape-inside:url(#rect3808);display:inline;fill:#999999;stroke-width:2" />
</svg>
