<?xml version="1.0" encoding="UTF-8" standalone="no"?>
<svg
   width="64"
   height="64"
   version="1.1"
   viewBox="0 0 16.933 16.933"
   id="svg7"
   sodipodi:docname="com.microsoft.Edge.svg"
   inkscape:version="1.4 (e7c3feb100, 2024-10-09)"
   xmlns:inkscape="http://www.inkscape.org/namespaces/inkscape"
   xmlns:sodipodi="http://sodipodi.sourceforge.net/DTD/sodipodi-0.dtd"
   xmlns:xlink="http://www.w3.org/1999/xlink"
   xmlns="http://www.w3.org/2000/svg"
   xmlns:svg="http://www.w3.org/2000/svg"
   xmlns:rdf="http://www.w3.org/1999/02/22-rdf-syntax-ns#"
   xmlns:cc="http://creativecommons.org/ns#"
   xmlns:dc="http://purl.org/dc/elements/1.1/">
  <sodipodi:namedview
     id="namedview7"
     pagecolor="#9c4444"
     bordercolor="#000000"
     borderopacity="0.25"
     inkscape:showpageshadow="2"
     inkscape:pageopacity="0.0"
     inkscape:pagecheckerboard="0"
     inkscape:deskcolor="#d1d1d1"
     inkscape:zoom="6.15625"
     inkscape:cx="15.675127"
     inkscape:cy="29.807107"
     inkscape:window-width="1183"
     inkscape:window-height="973"
     inkscape:window-x="35"
     inkscape:window-y="32"
     inkscape:window-maximized="0"
     inkscape:current-layer="svg7"
     showgrid="false" />
  <defs
     id="defs2">
    <rect
       x="67.489848"
       y="35.60533"
       width="15.337563"
       height="22.51269"
       id="rect3808" />
    <linearGradient
       inkscape:collect="always"
       id="linearGradient1134">
      <stop
         style="stop-color:#161616;stop-opacity:1;"
         offset="0"
         id="stop1130" />
      <stop
         style="stop-color:#404040;stop-opacity:1;"
         offset="1"
         id="stop1132" />
    </linearGradient>
    <linearGradient
       inkscape:collect="always"
       id="linearGradient883">
      <stop
         style="stop-color:#808080;stop-opacity:1;"
         offset="0"
         id="stop879" />
      <stop
         style="stop-color:#3e3e3e;stop-opacity:1;"
         offset="0.5"
         id="stop1216" />
      <stop
         style="stop-color:#242424;stop-opacity:1;"
         offset="1"
         id="stop881" />
    </linearGradient>
    <linearGradient
       inkscape:collect="always"
       xlink:href="#linearGradient883"
       id="linearGradient885"
       x1="2.1085808"
       y1="2.0236168"
       x2="14.846128"
       y2="15.071845"
       gradientUnits="userSpaceOnUse" />
    <linearGradient
       inkscape:collect="always"
       xlink:href="#linearGradient1134"
       id="linearGradient1136"
       x1="14.971222"
       y1="14.703373"
       x2="2.0756054"
       y2="2.0069976"
       gradientUnits="userSpaceOnUse" />
    <filter
       style="color-interpolation-filters:sRGB;"
       inkscape:label="Blur"
       id="filter1283"
       x="-0.082344266"
       y="-0.082344266"
       width="1.1646885"
       height="1.1646885">
      <feGaussianBlur
         stdDeviation="0.5 0.5"
         result="blur"
         id="feGaussianBlur1281" />
    </filter>
    <filter
       style="color-interpolation-filters:sRGB;"
       inkscape:label="Blur"
       id="filter1694"
       x="-0.94955398"
       y="-0.2118907"
       width="2.899108"
       height="1.4237814">
      <feGaussianBlur
         stdDeviation="0.2 0.2"
         result="blur"
         id="feGaussianBlur1692" />
    </filter>
    <filter
       style="color-interpolation-filters:sRGB;"
       inkscape:label="Blur"
       id="filter3148"
       x="-0.94955398"
       y="-0.2118907"
       width="2.899108"
       height="1.4237814">
      <feGaussianBlur
         stdDeviation="0.2 0.2"
         result="blur"
         id="feGaussianBlur3146" />
    </filter>
    <clipPath
       clipPathUnits="userSpaceOnUse"
       id="clipPath44">
      <path
         id="path46"
         style="display:block;opacity:0.85;fill:#f2f2f2;stroke-width:4.39162"
         d="m 17.570312,8.4453125 a 6.5431988,7.4283052 9.9958727e-8 0 0 -6.535156,7.4394535 6.5431988,7.4283052 9.9958727e-8 0 0 6.552735,7.417968 6.5431988,7.4283052 9.9958727e-8 0 0 6.535156,-7.4375 6.5431988,7.4283052 9.9958727e-8 0 0 -6.552735,-7.4199215 z M 45.646484,41.177734 a 6.5431986,7.0703472 2.4665357e-6 0 0 -6.533203,7.080078 6.5431986,7.0703472 2.4665357e-6 0 0 6.550781,7.060547 6.5431986,7.0703472 2.4665357e-6 0 0 6.535157,-7.080078 6.5431986,7.0703472 2.4665357e-6 0 0 -6.552735,-7.060547 z" />
    </clipPath>
    <inkscape:path-effect
       effect="powerclip"
       id="path-effect48"
       is_visible="true"
       lpeversion="1"
       inverse="true"
       flatten="false"
       hide_clip="false"
       message="" />
  </defs>
  <metadata
     id="metadata2">
    <rdf:RDF>
      <cc:Work
         rdf:about="">
        <dc:format>image/svg+xml</dc:format>
        <dc:type
           rdf:resource="http://purl.org/dc/dcmitype/StillImage" />
      </cc:Work>
    </rdf:RDF>
  </metadata>
  <rect
     style="fill:#000000;stroke:none;stroke-width:0.539739;stroke-dasharray:none;filter:url(#filter1283)"
     id="rect246-1"
     width="14.572964"
     height="14.572964"
     x="1.1932471"
     y="1.2138842"
     rx="2.1589575"
     ry="2.1589575" />
  <rect
     style="opacity:1;fill:#000000;stroke:url(#linearGradient885);stroke-width:0.52915625;stroke-dasharray:none"
     id="rect246"
     width="14.287219"
     height="14.287219"
     x="1.3361193"
     y="1.3567564"
     rx="2.1166251"
     ry="2.1166251" />
  <rect
     style="fill:url(#linearGradient1136);fill-opacity:1;stroke:none;stroke-width:0.478315;stroke-dasharray:none"
     id="rect246-5"
     width="12.914515"
     height="12.914515"
     x="2.0224717"
     y="2.0431087"
     rx="1.5874687"
     ry="1.5874687" />
  <path
     id="path127"
     style="fill:#999999;fill-opacity:1;stroke:none;stroke-width:0.244138;stroke-dasharray:none;stroke-dashoffset:2.2;stroke-opacity:0.3"
     d="M 8.4760142,3.6991218 C 8.2240192,3.6988353 7.976818,3.7130667 7.8094027,3.7425137 7.055035,3.8752081 6.3522681,4.2455963 5.7885879,4.8072792 5.3552555,5.2390774 5.0516042,5.7269994 4.8659174,6.2897509 4.7172873,6.7401997 4.7154795,6.8083068 4.8587626,6.5267366 5.124677,6.0041853 5.5322399,5.5913491 6.0289084,5.341332 6.4139846,5.1474893 6.6353358,5.0996413 7.1475569,5.1010084 c 1.2945004,0.00344 2.111627,0.4841537 2.3183582,1.3632632 0.057374,0.2439878 0.044782,0.8418465 -0.02098,0.9937183 -0.023372,0.053981 -0.058631,0.148591 -0.078678,0.2102828 -0.020046,0.061692 -0.08504,0.1871978 -0.1444801,0.2789466 -0.059441,0.091748 -0.1082408,0.175212 -0.1082408,0.1854876 0,0.010274 0.026282,0.05231 0.058651,0.093459 0.1164037,0.147984 0.4667393,0.280743 0.8563898,0.3242447 0.575582,0.064269 1.031576,-0.032877 1.456725,-0.3104169 C 12.104304,7.835906 12.332516,7.3590252 12.253001,6.6364079 12.214672,6.2881241 12.14508,6.0603213 11.966902,5.7051547 11.781549,5.3356831 11.645251,5.1399524 11.387551,4.8702213 10.822565,4.2788586 10.043626,3.8828894 9.1726641,3.7444209 8.9847272,3.7145371 8.7280074,3.699428 8.4760125,3.6991218 Z m -1.72947,1.629335 C 6.5704403,5.3265857 6.5009001,5.3394153 6.3617406,5.3813863 5.5928643,5.613273 4.9635005,6.4183665 4.8482751,7.3168481 c -0.05303,0.4135003 0.029553,1.0639325 0.2002694,1.5773611 0.3992728,1.2008118 1.3203401,2.0676068 2.4246918,2.2821168 0.1785427,0.03467 0.298397,0.03527 0.9951485,0.0066 0.023135,-0.0011 0.1750326,0.0081 0.3375973,0.01957 0.3357367,0.02388 0.5508615,-0.0048 0.8878609,-0.1173 0.693386,-0.231771 1.416731,-0.763155 1.840574,-1.3518193 0.165536,-0.2299115 0.18495,-0.2842228 0.120638,-0.337597 -0.02985,-0.024762 -0.0717,-0.00884 -0.187873,0.071045 -0.08218,0.05653 -0.225641,0.1369446 -0.319001,0.1788127 -0.295563,0.1325163 -0.435796,0.1537734 -0.997057,0.151599 C 9.6686393,9.7953464 9.6148121,9.7900364 9.3800874,9.7185611 8.8792193,9.5659483 8.4845769,9.3242368 8.1312643,8.954291 7.883476,8.6948366 7.7379603,8.4670761 7.628207,8.1660877 7.449471,7.6759221 7.459535,7.2283578 7.6549083,6.9539803 7.7464995,6.8253527 7.7216353,6.8292908 7.5404688,6.9716201 7.1472949,7.280515 6.8437117,7.7379152 6.6831247,8.2628815 c -0.06621,0.2164415 -0.07582,0.294961 -0.07677,0.6394334 -0.00126,0.4481699 0.034537,0.6143393 0.2098058,0.9813179 0.138262,0.2894962 0.3585933,0.5746442 0.6027158,0.7800972 0.2022091,0.170179 0.5977013,0.384757 0.8392251,0.454899 l 0.1401885,0.04051 -0.2021766,-0.01382 C 7.3386497,11.085974 6.6300601,10.39299 6.4342181,9.4230122 6.3649069,9.0797211 6.3889067,8.5414065 6.4885769,8.2070907 6.6970268,7.5079039 7.1786613,6.913599 7.711175,6.6993476 7.9545096,6.6014442 8.3052605,6.6976482 8.4955635,6.9143988 8.6074701,7.0418535 8.7191954,7.273213 8.7239659,7.3878934 8.7311454,7.56051 8.7738153,7.2553688 8.7749869,7.023117 8.7782827,6.3686745 8.4863025,5.8381619 7.977247,5.5730701 7.6644086,5.4101585 7.4184248,5.3523638 6.9644556,5.3346536 6.875519,5.3311859 6.8052444,5.3290835 6.7465433,5.3284534 Z" />
  <g
     aria-label="Krita"
     id="text1450"
     style="font-size:1.76385px;opacity:1;fill:#ffff00;stroke-width:0.529156">
    <rect
       style="font-size:1.76385px;fill:#ffff00;fill-opacity:1;stroke:none;stroke-width:0.519976;stroke-dasharray:none;filter:url(#filter3148)"
       id="rect1656-3"
       width="0.5055005"
       height="2.2653189"
       x="15.369148"
       y="4.3016486"
       rx="0"
       ry="0" />
    <rect
       style="opacity:1;fill:#ffff00;fill-opacity:1;stroke:none;stroke-width:0.519976;stroke-dasharray:none"
       id="rect1656"
       width="0.5055005"
       height="2.2653189"
       x="15.369148"
       y="4.3016486"
       rx="0"
       ry="0" />
  </g>
  <g
     aria-label="Edge"
     id="text2284"
     style="font-size:1.76385px;opacity:1;fill:#999999;stroke-width:0.529156">
    <path
       d="M 7.4171763,14.179017 H 6.7134001 v -1.259389 h 0.7037762 v 0.139344 H 6.8721466 v 0.393339 H 7.385427 v 0.13758 H 6.8721466 v 0.449782 h 0.5450297 z"
       style="text-align:center;text-anchor:middle"
       id="path1202" />
    <path
       d="m 8.0080656,14.196656 q -0.176385,0 -0.282216,-0.121706 -0.105831,-0.12347 -0.105831,-0.366881 0,-0.243411 0.105831,-0.366881 0.1075948,-0.125233 0.2839798,-0.125233 0.1093587,0 0.1781489,0.04057 0.070554,0.04057 0.1146502,0.09877 h 0.010583 q -0.00176,-0.02293 -0.00706,-0.06703 -0.00353,-0.04586 -0.00353,-0.07232 v -0.377464 h 0.1552188 v 1.340526 H 8.332614 l -0.02293,-0.126997 h -0.00706 q -0.042332,0.05997 -0.1128864,0.102303 -0.070554,0.04233 -0.1816765,0.04233 z m 0.024694,-0.128761 q 0.1499272,0 0.2098981,-0.08114 0.061735,-0.0829 0.061735,-0.248702 v -0.02822 q 0,-0.176385 -0.058207,-0.269869 -0.058207,-0.09525 -0.2151897,-0.09525 -0.1252333,0 -0.1887319,0.100539 -0.061735,0.09878 -0.061735,0.266342 0,0.169329 0.061735,0.262813 0.063499,0.09348 0.1904958,0.09348 z"
       style="text-align:center;text-anchor:middle"
       id="path1204" />
    <path
       d="m 9.0928328,13.215955 q 0.093484,0 0.1675657,0.03528 0.075846,0.03528 0.1287611,0.107595 h 0.00882 l 0.021166,-0.125234 h 0.1234695 v 0.961299 q 0,0.202842 -0.1040671,0.305146 -0.1023033,0.102303 -0.3192569,0.102303 -0.2081343,0 -0.340423,-0.05997 v -0.142872 q 0.1393441,0.07408 0.3492423,0.07408 0.1217056,0 0.1904958,-0.07232 0.070554,-0.07055 0.070554,-0.194023 v -0.03704 q 0,-0.02117 0.00176,-0.05997 0.00176,-0.04057 0.00353,-0.05644 h -0.00706 q -0.095248,0.142872 -0.2927991,0.142872 -0.1834404,0 -0.2875075,-0.128761 -0.1023033,-0.128762 -0.1023033,-0.359826 0,-0.225773 0.1023033,-0.358061 0.1040671,-0.134053 0.2857437,-0.134053 z m 0.021166,0.130525 q -0.118178,0 -0.1834404,0.09525 -0.065262,0.09348 -0.065262,0.268105 0,0.174621 0.063499,0.268105 0.065263,0.09172 0.188732,0.09172 0.1428718,0 0.2081343,-0.07585 0.065262,-0.07761 0.065262,-0.248703 v -0.03704 q 0,-0.194023 -0.067026,-0.276924 -0.067026,-0.08467 -0.2098981,-0.08467 z"
       style="text-align:center;text-anchor:middle"
       id="path1206" />
    <path
       d="m 10.207586,13.215955 q 0.121705,0 0.208134,0.05292 0.08819,0.05292 0.134052,0.149928 0.04762,0.09525 0.04762,0.224009 v 0.09348 H 9.9500635 q 0.00353,0.16051 0.081137,0.245175 0.07937,0.0829 0.220481,0.0829 0.08996,0 0.158746,-0.01588 0.07055,-0.01764 0.144636,-0.04939 v 0.135817 q -0.07232,0.03175 -0.142872,0.04586 -0.07055,0.01588 -0.167566,0.01588 -0.134052,0 -0.238119,-0.05468 -0.1023036,-0.05468 -0.1605107,-0.162274 -0.056443,-0.109359 -0.056443,-0.266341 0,-0.155219 0.051152,-0.266342 0.052916,-0.111122 0.1463995,-0.171093 0.095248,-0.05997 0.2204817,-0.05997 z m -0.0018,0.126997 q -0.111123,0 -0.176385,0.07232 -0.063499,0.07055 -0.075846,0.197551 h 0.4815308 q -0.0018,-0.119942 -0.05644,-0.194023 -0.05468,-0.07585 -0.172857,-0.07585 z"
       style="text-align:center;text-anchor:middle"
       id="path1208" />
  </g>
  <text
     xml:space="preserve"
     transform="scale(0.26457812)"
     id="text3806"
     style="fill:#999999;stroke-width:2;font-size:6.66666667px;white-space:pre;shape-inside:url(#rect3808)" />
</svg>
