<?xml version="1.0" encoding="UTF-8" standalone="no"?>
<svg
   width="64"
   height="64"
   version="1.1"
   viewBox="0 0 16.933 16.933"
   id="svg7"
   sodipodi:docname="com.discordapp.DiscordCanary.svg"
   inkscape:version="1.4 (e7c3feb100, 2024-10-09)"
   xmlns:inkscape="http://www.inkscape.org/namespaces/inkscape"
   xmlns:sodipodi="http://sodipodi.sourceforge.net/DTD/sodipodi-0.dtd"
   xmlns:xlink="http://www.w3.org/1999/xlink"
   xmlns="http://www.w3.org/2000/svg"
   xmlns:svg="http://www.w3.org/2000/svg"
   xmlns:rdf="http://www.w3.org/1999/02/22-rdf-syntax-ns#"
   xmlns:cc="http://creativecommons.org/ns#"
   xmlns:dc="http://purl.org/dc/elements/1.1/">
  <sodipodi:namedview
     id="namedview7"
     pagecolor="#9c4444"
     bordercolor="#000000"
     borderopacity="0.25"
     inkscape:showpageshadow="2"
     inkscape:pageopacity="0.0"
     inkscape:pagecheckerboard="0"
     inkscape:deskcolor="#d1d1d1"
     inkscape:zoom="6.15625"
     inkscape:cx="16"
     inkscape:cy="41.827411"
     inkscape:window-width="1183"
     inkscape:window-height="973"
     inkscape:window-x="35"
     inkscape:window-y="32"
     inkscape:window-maximized="0"
     inkscape:current-layer="svg7"
     showgrid="false" />
  <defs
     id="defs2">
    <rect
       x="67.489848"
       y="35.60533"
       width="15.337563"
       height="22.51269"
       id="rect3808" />
    <linearGradient
       inkscape:collect="always"
       id="linearGradient1134">
      <stop
         style="stop-color:#161616;stop-opacity:1;"
         offset="0"
         id="stop1130" />
      <stop
         style="stop-color:#404040;stop-opacity:1;"
         offset="1"
         id="stop1132" />
    </linearGradient>
    <linearGradient
       inkscape:collect="always"
       id="linearGradient883">
      <stop
         style="stop-color:#808080;stop-opacity:1;"
         offset="0"
         id="stop879" />
      <stop
         style="stop-color:#3e3e3e;stop-opacity:1;"
         offset="0.5"
         id="stop1216" />
      <stop
         style="stop-color:#242424;stop-opacity:1;"
         offset="1"
         id="stop881" />
    </linearGradient>
    <linearGradient
       inkscape:collect="always"
       xlink:href="#linearGradient883"
       id="linearGradient885"
       x1="2.1085808"
       y1="2.0236168"
       x2="14.846128"
       y2="15.071845"
       gradientUnits="userSpaceOnUse" />
    <linearGradient
       inkscape:collect="always"
       xlink:href="#linearGradient1134"
       id="linearGradient1136"
       x1="14.971222"
       y1="14.703373"
       x2="2.0756054"
       y2="2.0069976"
       gradientUnits="userSpaceOnUse" />
    <filter
       style="color-interpolation-filters:sRGB;"
       inkscape:label="Blur"
       id="filter1283"
       x="-0.082344266"
       y="-0.082344266"
       width="1.1646885"
       height="1.1646885">
      <feGaussianBlur
         stdDeviation="0.5 0.5"
         result="blur"
         id="feGaussianBlur1281" />
    </filter>
    <filter
       style="color-interpolation-filters:sRGB;"
       inkscape:label="Blur"
       id="filter1694"
       x="-0.94955398"
       y="-0.2118907"
       width="2.899108"
       height="1.4237814">
      <feGaussianBlur
         stdDeviation="0.2 0.2"
         result="blur"
         id="feGaussianBlur1692" />
    </filter>
    <filter
       style="color-interpolation-filters:sRGB;"
       inkscape:label="Blur"
       id="filter3148"
       x="-0.94955398"
       y="-0.2118907"
       width="2.899108"
       height="1.4237814">
      <feGaussianBlur
         stdDeviation="0.2 0.2"
         result="blur"
         id="feGaussianBlur3146" />
    </filter>
    <clipPath
       clipPathUnits="userSpaceOnUse"
       id="clipPath44">
      <path
         id="path46"
         style="display:block;opacity:0.85;fill:#f2f2f2;stroke-width:4.39162"
         d="m 17.570312,8.4453125 a 6.5431988,7.4283052 9.9958727e-8 0 0 -6.535156,7.4394535 6.5431988,7.4283052 9.9958727e-8 0 0 6.552735,7.417968 6.5431988,7.4283052 9.9958727e-8 0 0 6.535156,-7.4375 6.5431988,7.4283052 9.9958727e-8 0 0 -6.552735,-7.4199215 z M 45.646484,41.177734 a 6.5431986,7.0703472 2.4665357e-6 0 0 -6.533203,7.080078 6.5431986,7.0703472 2.4665357e-6 0 0 6.550781,7.060547 6.5431986,7.0703472 2.4665357e-6 0 0 6.535157,-7.080078 6.5431986,7.0703472 2.4665357e-6 0 0 -6.552735,-7.060547 z" />
    </clipPath>
    <inkscape:path-effect
       effect="powerclip"
       id="path-effect48"
       is_visible="true"
       lpeversion="1"
       inverse="true"
       flatten="false"
       hide_clip="false"
       message="" />
  </defs>
  <metadata
     id="metadata2">
    <rdf:RDF>
      <cc:Work
         rdf:about="">
        <dc:format>image/svg+xml</dc:format>
        <dc:type
           rdf:resource="http://purl.org/dc/dcmitype/StillImage" />
      </cc:Work>
    </rdf:RDF>
  </metadata>
  <rect
     style="fill:#000000;stroke:none;stroke-width:0.539739;stroke-dasharray:none;filter:url(#filter1283)"
     id="rect246-1"
     width="14.572964"
     height="14.572964"
     x="1.1932471"
     y="1.2138842"
     rx="2.1589575"
     ry="2.1589575" />
  <rect
     style="opacity:1;fill:#000000;stroke:url(#linearGradient885);stroke-width:0.52915625;stroke-dasharray:none"
     id="rect246"
     width="14.287219"
     height="14.287219"
     x="1.3361193"
     y="1.3567564"
     rx="2.1166251"
     ry="2.1166251" />
  <rect
     style="fill:url(#linearGradient1136);fill-opacity:1;stroke:none;stroke-width:0.478315;stroke-dasharray:none"
     id="rect246-5"
     width="12.914515"
     height="12.914515"
     x="2.0224717"
     y="2.0431087"
     rx="1.5874687"
     ry="1.5874687" />
  <path
     d="M 7.3782659,4.6454099 C 6.83556,4.7398829 6.3162157,4.9049537 5.8315284,5.129327 c -0.0041,0.00206 -0.00718,0.00463 -0.00976,0.00873 -0.9847777,1.4848678 -1.254847,2.9335381 -1.1223795,4.3639826 5.092e-4,0.0072 0.0041,0.013599 0.0095,0.017712 0.650015,0.4816064 1.2792351,0.7742664 1.8971599,0.9680914 0.00976,0.0028 0.020537,-5.1e-4 0.0267,-0.0087 C 6.7790822,10.277844 6.9092391,10.152822 7.0209123,9.929476 7.0275903,9.91639 7.0211669,9.900982 7.0078191,9.895843 6.8011594,9.816769 6.6047687,9.7207603 6.4153097,9.6111403 c -0.01489,-0.00873 -0.01643,-0.030807 -0.00282,-0.041076 0.039792,-0.030033 0.080096,-0.061362 0.118091,-0.092932 0.00693,-0.00594 0.016687,-0.0072 0.024645,-0.0036 1.2432948,0.5729987 2.5892769,0.5729987 3.8179393,0 0.0082,-0.00387 0.01745,-0.00279 0.02465,0.00279 0.038,0.031833 0.07804,0.063666 0.118091,0.093703 0.01387,0.010269 0.01258,0.032346 -0.0023,0.041076 C 10.324404,9.7227742 10.1275,9.816991 9.9205832,9.895804 c -0.013347,0.00513 -0.018999,0.020538 -0.012582,0.033633 0.1142398,0.22309 0.2441408,0.347598 0.3876478,0.549124 0.0059,0.0085 0.01695,0.01206 0.0267,0.0092 0.620749,-0.193823 1.250226,-0.486485 1.899984,-0.9680923 0.0056,-0.00405 0.0098,-0.01053 0.01027,-0.017712 0.158396,-1.6537909 -0.265706,-3.0898822 -1.123664,-4.3634696 -0.0021,-0.00436 -0.0056,-0.00744 -0.0098,-0.00924 -0.48416,-0.2241174 -1.003247,-0.3891886 -1.5459534,-0.483918 -0.01001,-0.0018 -0.020024,0.0023 -0.025159,0.011552 -0.066748,0.119888 -0.1406825,0.2176985 -0.1922832,0.3406674 -0.5840377,-0.088312 -1.1652516,-0.088312 -1.7372233,0 C 7.5466661,4.871796 7.4704205,4.7768094 7.4031601,4.6569214 7.3982801,4.6479314 7.3880131,4.6438284 7.3782581,4.6453694 Z M 7.1510686,7.2747351 c 0.4099817,0 0.7375564,0.3306552 0.7311383,0.7303683 0,0.4027933 -0.3242374,0.7306247 -0.7311383,0.7306247 -0.4004831,0 -0.7298545,-0.3278314 -0.7298545,-0.7306247 0,-0.402537 0.3229534,-0.7303683 0.7298545,-0.7303683 z m 2.6303525,0 c 0.4099819,0 0.7367859,0.3306552 0.7303669,0.7303683 0,0.4027933 -0.320385,0.7306247 -0.7303669,0.7306247 -0.4004834,0 -0.7306252,-0.3278314 -0.7306252,-0.7306247 0,-0.402537 0.3237238,-0.7303683 0.7306252,-0.7303683 z"
     fill="#ffffff"
     fill-rule="nonzero"
     id="path2"
     style="fill:#999999;fill-opacity:1;stroke-width:0.256721" />
  <g
     aria-label="Krita"
     id="text1450"
     style="font-size:1.76385px;opacity:1;fill:#ffff00;stroke-width:0.529156">
    <rect
       style="font-size:1.76385px;fill:#ffff00;fill-opacity:1;stroke:none;stroke-width:0.519976;stroke-dasharray:none;filter:url(#filter3148)"
       id="rect1656-3"
       width="0.5055005"
       height="2.2653189"
       x="15.369148"
       y="4.3016486"
       rx="0"
       ry="0" />
    <rect
       style="opacity:1;fill:#ffff00;fill-opacity:1;stroke:none;stroke-width:0.519976;stroke-dasharray:none"
       id="rect1656"
       width="0.5055005"
       height="2.2653189"
       x="15.369148"
       y="4.3016486"
       rx="0"
       ry="0" />
  </g>
  <g
     aria-label="Canary"
     id="text920"
     style="font-size:1.76385px;text-align:center;text-anchor:middle;fill:#999999;stroke-width:0.529156">
    <path
       d="m 6.4087678,13.040235 q -0.2028427,0 -0.3192568,0.135817 -0.1164141,0.135816 -0.1164141,0.372172 0,0.234592 0.1075948,0.372172 0.1093587,0.135817 0.3263123,0.135817 0.082901,0 0.1569826,-0.01411 0.074082,-0.01411 0.1446357,-0.03528 v 0.13758 q -0.070554,0.02646 -0.1463995,0.0388 -0.074082,0.01235 -0.1781489,0.01235 -0.1922596,0 -0.3210207,-0.07937 -0.128761,-0.07937 -0.1940235,-0.225773 -0.063499,-0.1464 -0.063499,-0.343951 0,-0.190496 0.06879,-0.335131 0.070554,-0.1464 0.2063704,-0.227537 0.1358165,-0.0829 0.32984,-0.0829 0.199315,0 0.3474784,0.07408 l -0.063499,0.134052 q -0.058207,-0.02646 -0.1305249,-0.04762 -0.070554,-0.02117 -0.1552188,-0.02117 z"
       id="path2005" />
    <path
       d="m 7.3206782,13.21662 q 0.1728573,0 0.2557583,0.07585 0.082901,0.07585 0.082901,0.241647 v 0.643805 H 7.546451 l -0.029985,-0.134052 h -0.00706 q -0.061735,0.07761 -0.1305249,0.11465 -0.067026,0.03704 -0.1869681,0.03704 -0.1287611,0 -0.2134259,-0.06703 -0.084665,-0.06879 -0.084665,-0.213426 0,-0.141108 0.1111226,-0.216954 0.1111225,-0.07761 0.3421869,-0.08466 l 0.1605103,-0.0053 v -0.05644 q 0,-0.118178 -0.051152,-0.164038 -0.051152,-0.04586 -0.1446357,-0.04586 -0.074082,0 -0.141108,0.02293 -0.067026,0.02117 -0.1252334,0.04939 l -0.047624,-0.116414 q 0.061735,-0.03351 0.1463995,-0.05644 0.084665,-0.02469 0.176385,-0.02469 z m 0.04586,0.504461 q -0.176385,0.0071 -0.2451751,0.05644 -0.067026,0.04939 -0.067026,0.139345 0,0.07937 0.047624,0.116414 0.049388,0.03704 0.1252334,0.03704 0.1199418,0 0.199315,-0.06526 0.079373,-0.06703 0.079373,-0.204606 v -0.08466 z"
       id="path2007" />
    <path
       d="m 8.4072111,13.214856 q 0.1693296,0 0.2557583,0.0829 0.086429,0.08114 0.086429,0.264578 v 0.615583 H 8.5959431 v -0.605 q 0,-0.227537 -0.211662,-0.227537 -0.1569827,0 -0.2169536,0.08819 -0.059971,0.08819 -0.059971,0.253994 v 0.49035 H 7.9521378 v -0.945423 h 0.1252334 l 0.02293,0.128761 h 0.00882 q 0.04586,-0.07408 0.1269972,-0.109359 0.081137,-0.03704 0.1710934,-0.03704 z"
       id="path2009" />
    <path
       d="m 9.4002586,13.21662 q 0.1728573,0 0.2557583,0.07585 0.082901,0.07585 0.082901,0.241647 v 0.643805 H 9.6260314 L 9.596046,14.043866 h -0.00706 q -0.061735,0.07761 -0.1305249,0.11465 -0.067026,0.03704 -0.1869681,0.03704 -0.128761,0 -0.2134258,-0.06703 -0.084665,-0.06879 -0.084665,-0.213426 0,-0.141108 0.1111225,-0.216954 0.1111225,-0.07761 0.3421869,-0.08466 l 0.1605103,-0.0053 v -0.05644 q 0,-0.118178 -0.051152,-0.164038 -0.051152,-0.04586 -0.1446357,-0.04586 -0.074082,0 -0.141108,0.02293 -0.067026,0.02117 -0.1252333,0.04939 l -0.047624,-0.116414 q 0.061735,-0.03351 0.1463995,-0.05644 0.084665,-0.02469 0.176385,-0.02469 z m 0.04586,0.504461 q -0.176385,0.0071 -0.2451751,0.05644 -0.067026,0.04939 -0.067026,0.139345 0,0.07937 0.047624,0.116414 0.049388,0.03704 0.1252333,0.03704 0.1199418,0 0.199315,-0.06526 0.079373,-0.06703 0.079373,-0.204606 v -0.08466 z"
       id="path2011" />
    <path
       d="m 10.472681,13.214856 q 0.02646,0 0.05644,0.0035 0.03175,0.0018 0.05468,0.0071 l -0.0194,0.142872 q -0.02293,-0.0053 -0.05115,-0.0088 -0.02646,-0.0035 -0.05115,-0.0035 -0.07232,0 -0.135816,0.04057 -0.0635,0.0388 -0.102304,0.111122 -0.03704,0.07055 -0.03704,0.165802 v 0.504461 h -0.155218 v -0.945423 h 0.126997 l 0.01764,0.172857 h 0.0071 q 0.04586,-0.07761 0.118178,-0.134052 0.07232,-0.05644 0.171093,-0.05644 z"
       id="path2013" />
    <path
       d="m 10.612025,13.232495 h 0.165802 l 0.204607,0.537974 q 0.02646,0.07055 0.04762,0.135817 0.02117,0.0635 0.03175,0.121705 h 0.0071 q 0.01058,-0.0441 0.03351,-0.11465 0.02293,-0.07232 0.04762,-0.144636 l 0.19226,-0.53621 h 0.167566 l -0.40745,1.075948 q -0.04939,0.134053 -0.128761,0.213426 -0.07761,0.07937 -0.215189,0.07937 -0.04233,0 -0.07408,-0.0053 -0.03175,-0.0035 -0.05468,-0.0088 v -0.12347 q 0.0194,0.0035 0.04586,0.0071 0.02822,0.0035 0.05821,0.0035 0.08114,0 0.130525,-0.04586 0.05115,-0.04586 0.07937,-0.121706 l 0.04939,-0.125233 z"
       id="path2015" />
  </g>
  <text
     xml:space="preserve"
     transform="scale(0.26457812)"
     id="text3806"
     style="fill:#999999;stroke-width:2;font-size:6.66666667px;white-space:pre;shape-inside:url(#rect3808)" />
</svg>
