<?xml version="1.0" encoding="UTF-8" standalone="no"?>
<svg
   width="64"
   height="64"
   version="1.1"
   viewBox="0 0 16.933 16.933"
   id="svg7"
   sodipodi:docname="Multimedia Template.svg"
   inkscape:version="1.4 (e7c3feb100, 2024-10-09)"
   xmlns:inkscape="http://www.inkscape.org/namespaces/inkscape"
   xmlns:sodipodi="http://sodipodi.sourceforge.net/DTD/sodipodi-0.dtd"
   xmlns:xlink="http://www.w3.org/1999/xlink"
   xmlns="http://www.w3.org/2000/svg"
   xmlns:svg="http://www.w3.org/2000/svg"
   xmlns:rdf="http://www.w3.org/1999/02/22-rdf-syntax-ns#"
   xmlns:cc="http://creativecommons.org/ns#"
   xmlns:dc="http://purl.org/dc/elements/1.1/">
  <sodipodi:namedview
     id="namedview7"
     pagecolor="#9c4444"
     bordercolor="#000000"
     borderopacity="0.25"
     inkscape:showpageshadow="2"
     inkscape:pageopacity="0.0"
     inkscape:pagecheckerboard="0"
     inkscape:deskcolor="#d1d1d1"
     inkscape:zoom="6.15625"
     inkscape:cx="15.675127"
     inkscape:cy="29.807107"
     inkscape:window-width="1183"
     inkscape:window-height="973"
     inkscape:window-x="35"
     inkscape:window-y="32"
     inkscape:window-maximized="0"
     inkscape:current-layer="svg7"
     showgrid="false" />
  <defs
     id="defs2">
    <rect
       x="67.489848"
       y="35.60533"
       width="15.337563"
       height="22.51269"
       id="rect3808" />
    <linearGradient
       inkscape:collect="always"
       id="linearGradient1134">
      <stop
         style="stop-color:#161616;stop-opacity:1;"
         offset="0"
         id="stop1130" />
      <stop
         style="stop-color:#404040;stop-opacity:1;"
         offset="1"
         id="stop1132" />
    </linearGradient>
    <linearGradient
       inkscape:collect="always"
       id="linearGradient883">
      <stop
         style="stop-color:#808080;stop-opacity:1;"
         offset="0"
         id="stop879" />
      <stop
         style="stop-color:#3e3e3e;stop-opacity:1;"
         offset="0.5"
         id="stop1216" />
      <stop
         style="stop-color:#242424;stop-opacity:1;"
         offset="1"
         id="stop881" />
    </linearGradient>
    <linearGradient
       inkscape:collect="always"
       xlink:href="#linearGradient883"
       id="linearGradient885"
       x1="2.1085808"
       y1="2.0236168"
       x2="14.846128"
       y2="15.071845"
       gradientUnits="userSpaceOnUse" />
    <linearGradient
       inkscape:collect="always"
       xlink:href="#linearGradient1134"
       id="linearGradient1136"
       x1="14.971222"
       y1="14.703373"
       x2="2.0756054"
       y2="2.0069976"
       gradientUnits="userSpaceOnUse" />
    <filter
       style="color-interpolation-filters:sRGB;"
       inkscape:label="Blur"
       id="filter1283"
       x="-0.082344266"
       y="-0.082344266"
       width="1.1646885"
       height="1.1646885">
      <feGaussianBlur
         stdDeviation="0.5 0.5"
         result="blur"
         id="feGaussianBlur1281" />
    </filter>
    <filter
       style="color-interpolation-filters:sRGB;"
       inkscape:label="Blur"
       id="filter1694"
       x="-0.94955398"
       y="-0.2118907"
       width="2.899108"
       height="1.4237814">
      <feGaussianBlur
         stdDeviation="0.2 0.2"
         result="blur"
         id="feGaussianBlur1692" />
    </filter>
    <filter
       style="color-interpolation-filters:sRGB;"
       inkscape:label="Blur"
       id="filter3148"
       x="-0.94955398"
       y="-0.2118907"
       width="2.899108"
       height="1.4237814">
      <feGaussianBlur
         stdDeviation="0.2 0.2"
         result="blur"
         id="feGaussianBlur3146" />
    </filter>
    <clipPath
       clipPathUnits="userSpaceOnUse"
       id="clipPath44">
      <path
         id="path46"
         style="display:block;opacity:0.85;fill:#f2f2f2;stroke-width:4.39162"
         d="m 17.570312,8.4453125 a 6.5431988,7.4283052 9.9958727e-8 0 0 -6.535156,7.4394535 6.5431988,7.4283052 9.9958727e-8 0 0 6.552735,7.417968 6.5431988,7.4283052 9.9958727e-8 0 0 6.535156,-7.4375 6.5431988,7.4283052 9.9958727e-8 0 0 -6.552735,-7.4199215 z M 45.646484,41.177734 a 6.5431986,7.0703472 2.4665357e-6 0 0 -6.533203,7.080078 6.5431986,7.0703472 2.4665357e-6 0 0 6.550781,7.060547 6.5431986,7.0703472 2.4665357e-6 0 0 6.535157,-7.080078 6.5431986,7.0703472 2.4665357e-6 0 0 -6.552735,-7.060547 z" />
    </clipPath>
    <inkscape:path-effect
       effect="powerclip"
       id="path-effect48"
       is_visible="true"
       lpeversion="1"
       inverse="true"
       flatten="false"
       hide_clip="false"
       message="" />
  </defs>
  <metadata
     id="metadata2">
    <rdf:RDF>
      <cc:Work
         rdf:about="">
        <dc:format>image/svg+xml</dc:format>
        <dc:type
           rdf:resource="http://purl.org/dc/dcmitype/StillImage" />
      </cc:Work>
    </rdf:RDF>
  </metadata>
  <rect
     style="fill:#000000;stroke:none;stroke-width:0.539739;stroke-dasharray:none;filter:url(#filter1283)"
     id="rect246-1"
     width="14.572964"
     height="14.572964"
     x="1.1932471"
     y="1.2138842"
     rx="2.1589575"
     ry="2.1589575" />
  <rect
     style="opacity:1;fill:#000000;stroke:url(#linearGradient885);stroke-width:0.52915625;stroke-dasharray:none"
     id="rect246"
     width="14.287219"
     height="14.287219"
     x="1.3361193"
     y="1.3567564"
     rx="2.1166251"
     ry="2.1166251" />
  <rect
     style="fill:url(#linearGradient1136);fill-opacity:1;stroke:none;stroke-width:0.478315;stroke-dasharray:none"
     id="rect246-5"
     width="12.914515"
     height="12.914515"
     x="2.0224717"
     y="2.0431087"
     rx="1.5874687"
     ry="1.5874687" />
  <path
     id="path7"
     style="fill:#999999;fill-opacity:1;stroke:none;stroke-width:0.0378162;stroke-dasharray:none;stroke-opacity:1"
     d="M 8.4452474,3.9013274 C 8.3494448,3.9046309 8.2548885,3.9232051 8.184096,3.9560488 8.107581,3.9915476 7.8255236,4.2631406 6.7050546,5.3810363 5.2229441,6.8597418 5.2179874,6.8654161 5.1930909,7.0756278 l -0.011346,0.094984 h 1.3070912 1.3070908 l 0.0049,-0.6226252 0.00512,-0.6226261 0.8492979,0.6226261 0.8492977,0.6226252 h 1.1338045 1.133585 L 11.7597,7.0903093 C 11.752896,7.0461116 11.722367,6.958956 11.691847,6.8965589 11.643365,6.7974508 11.458887,6.6058099 10.231708,5.3812585 8.8817013,4.0341414 8.8225452,3.9779984 8.7135169,3.9378084 8.638092,3.9100051 8.54105,3.8980249 8.4452474,3.9013274 Z M 8.0043601,6.3956111 v 1.0125728 c 0,0.8050297 0.00479,1.00978 0.023579,0.9985591 0.046251,-0.02762 1.291088,-0.9396862 1.3231067,-0.9694184 0.030363,-0.028195 0.00704,-0.049102 -0.3403421,-0.3034162 C 8.8055853,6.9837439 8.4953135,6.7562559 8.321123,6.6282896 Z M 5.1870849,7.643309 v 0.065622 c 0,0.036009 0.018037,0.114655 0.04004,0.1748422 0.037994,0.1039258 0.1100864,0.1795111 1.4323279,1.5050692 0.7657574,0.7676756 1.4286855,1.4176256 1.4732578,1.4441156 0.044572,0.0265 0.1170054,0.05993 0.1608286,0.0743 0.1195468,0.03919 0.3287795,0.02134 0.462242,-0.03938 0.09641,-0.04386 0.2687684,-0.209518 1.5010638,-1.443223 1.493909,-1.4956167 1.470632,-1.469385 1.501954,-1.6914769 l 0.01267,-0.089869 H 10.643678 9.5161011 L 8.6652457,8.2672693 C 8.1973885,8.6104522 7.8105181,8.8912301 7.8054931,8.8912301 c -0.00502,0 -0.00912,-0.2807779 -0.00912,-0.6239608 V 7.643309 H 6.4917299 Z" />
  <g
     aria-label="Krita"
     id="text1450"
     style="font-size:1.76385px;opacity:1;fill:#ff7f2a;stroke-width:0.529156">
    <rect
       style="font-size:1.76385px;fill:#ff7f2a;fill-opacity:1;stroke:none;stroke-width:0.519976;stroke-dasharray:none;filter:url(#filter3148)"
       id="rect1656-3"
       width="0.5055005"
       height="2.2653189"
       x="15.369148"
       y="4.3016486"
       rx="0"
       ry="0" />
    <rect
       style="opacity:1;fill:#ff7f2a;fill-opacity:1;stroke:none;stroke-width:0.519976;stroke-dasharray:none"
       id="rect1656"
       width="0.5055005"
       height="2.2653189"
       x="15.369148"
       y="4.3016486"
       rx="0"
       ry="0" />
  </g>
  <path
     style="font-size:1.76385px;text-align:center;text-anchor:middle;fill:#999999;stroke-width:0.529156"
     d="m 6.1543541,13.842122 q 0,0.167565 -0.1217056,0.26105 -0.1217057,0.09348 -0.3280761,0.09348 -0.105831,0 -0.1957874,-0.01588 -0.089956,-0.01587 -0.1499272,-0.0441 v -0.151691 q 0.063499,0.02822 0.1569826,0.05115 0.095248,0.02293 0.1957874,0.02293 0.141108,0 0.211662,-0.05468 0.072318,-0.05468 0.072318,-0.148163 0,-0.06173 -0.026458,-0.104068 -0.026458,-0.04233 -0.09172,-0.07761 -0.063499,-0.03704 -0.1781489,-0.07761 -0.1605103,-0.05821 -0.2434113,-0.142872 -0.081137,-0.08466 -0.081137,-0.231065 0,-0.100539 0.051152,-0.171093 0.051152,-0.07232 0.141108,-0.111123 0.09172,-0.0388 0.2098981,-0.0388 0.1040672,0 0.1904958,0.0194 0.086429,0.0194 0.1569827,0.05115 l -0.049388,0.135816 q -0.065263,-0.02822 -0.1428719,-0.04762 -0.075845,-0.0194 -0.1587465,-0.0194 -0.1181779,0 -0.1781488,0.05115 -0.059971,0.04939 -0.059971,0.132289 0,0.0635 0.026458,0.105831 0.026458,0.04233 0.086429,0.07585 0.059971,0.03351 0.1622742,0.07232 0.1111225,0.04057 0.1869681,0.08819 0.077609,0.04586 0.1164141,0.111123 0.040569,0.06526 0.040569,0.164038 z m 0.548557,0.227536 q 0.035277,0 0.072318,-0.0053 0.037041,-0.0071 0.059971,-0.01411 v 0.118178 q -0.024694,0.01235 -0.070554,0.0194 -0.04586,0.0088 -0.088192,0.0088 -0.074082,0 -0.1375803,-0.02469 -0.061735,-0.02646 -0.1005394,-0.08996 -0.038805,-0.0635 -0.038805,-0.178149 V 13.353535 H 6.2654763 v -0.07408 l 0.1358164,-0.06173 0.061735,-0.201079 h 0.09172 v 0.216953 h 0.2733967 v 0.119942 H 6.5547477 v 0.546794 q 0,0.08643 0.040569,0.128761 0.042332,0.04057 0.1075949,0.04057 z m 0.7619833,-0.853703 q 0.026458,0 0.056443,0.0035 0.031749,0.0018 0.054679,0.0071 l -0.019402,0.142872 q -0.02293,-0.0053 -0.051152,-0.0088 -0.026458,-0.0035 -0.051152,-0.0035 -0.072318,0 -0.1358164,0.04057 -0.063499,0.0388 -0.1023033,0.111122 -0.037041,0.07055 -0.037041,0.165802 v 0.504461 H 7.0239319 v -0.945424 h 0.1269972 l 0.017639,0.172858 h 0.00706 q 0.04586,-0.07761 0.118178,-0.134053 0.072318,-0.05644 0.1710934,-0.05644 z m 0.6173467,0 q 0.1217057,0 0.2081343,0.05292 0.088192,0.05292 0.1340526,0.149928 0.047624,0.09525 0.047624,0.224009 v 0.09348 H 7.824719 q 0.00353,0.16051 0.081137,0.245175 0.079373,0.0829 0.2204813,0.0829 0.089956,0 0.1587465,-0.01588 0.070554,-0.01764 0.1446357,-0.04939 v 0.135817 q -0.072318,0.03175 -0.1428719,0.04586 -0.070554,0.01588 -0.1675657,0.01588 -0.1340526,0 -0.2381198,-0.05468 -0.1023033,-0.05468 -0.1605103,-0.162274 -0.056443,-0.109359 -0.056443,-0.266341 0,-0.155219 0.051152,-0.266342 0.052915,-0.111122 0.1463996,-0.171093 0.095248,-0.05997 0.2204812,-0.05997 z m -0.00176,0.126997 q -0.1111226,0 -0.176385,0.07232 -0.063499,0.07055 -0.075846,0.197551 h 0.4815311 q -0.00176,-0.119942 -0.056443,-0.194023 -0.054679,-0.07585 -0.1728573,-0.07585 z m 1.6686008,-0.126997 q 0.1605103,0 0.2398836,0.0829 0.079373,0.08114 0.079373,0.264577 v 0.615584 H 9.91488 v -0.608528 q 0,-0.224009 -0.1922597,-0.224009 -0.1375803,0 -0.1975512,0.07937 -0.058207,0.07937 -0.058207,0.231064 v 0.5221 h -0.153455 v -0.608528 q 0,-0.224009 -0.1940235,-0.224009 -0.1428718,0 -0.1975512,0.08819 -0.054679,0.08819 -0.054679,0.253995 v 0.49035 H 8.7119343 v -0.945424 h 0.1252333 l 0.02293,0.128762 h 0.00882 q 0.044096,-0.07408 0.118178,-0.109359 0.075845,-0.03704 0.1605103,-0.03704 0.2222451,0 0.2892714,0.158746 h 0.00882 q 0.047624,-0.08114 0.128761,-0.119941 0.082901,-0.0388 0.1746212,-0.0388 z M 10.440506,12.87906 q 0.03528,0 0.06174,0.02469 0.02822,0.02293 0.02822,0.07408 0,0.04939 -0.02822,0.07408 -0.02646,0.02469 -0.06174,0.02469 -0.0388,0 -0.06526,-0.02469 -0.02646,-0.02469 -0.02646,-0.07408 0,-0.05115 0.02646,-0.07408 0.02646,-0.02469 0.06526,-0.02469 z m 0.07585,0.354533 v 0.945424 h -0.155219 v -0.945424 z m 1.121807,0.470948 q 0,0.234592 -0.119941,0.363354 -0.118178,0.128761 -0.321021,0.128761 -0.125234,0 -0.224009,-0.05644 -0.09701,-0.05821 -0.153455,-0.167565 -0.05644,-0.111123 -0.05644,-0.268106 0,-0.234592 0.118178,-0.361589 0.118178,-0.126997 0.32102,-0.126997 0.128761,0 0.225773,0.05821 0.09878,0.05644 0.153455,0.165802 0.05644,0.107595 0.05644,0.264577 z m -0.714359,0 q 0,0.167566 0.06526,0.266342 0.06703,0.09701 0.211662,0.09701 0.142871,0 0.209898,-0.09701 0.06703,-0.09878 0.06703,-0.266342 0,-0.167565 -0.06703,-0.262813 -0.06703,-0.09525 -0.211662,-0.09525 -0.144636,0 -0.209898,0.09525 -0.06526,0.09525 -0.06526,0.262813 z"
     id="text2284"
     aria-label="Stremio" />
  <text
     xml:space="preserve"
     transform="scale(0.26457812)"
     id="text3806"
     style="font-size:6.66667px;white-space:pre;shape-inside:url(#rect3808);display:inline;fill:#999999;stroke-width:2" />
</svg>
