<?xml version="1.0" encoding="UTF-8" standalone="no"?>
<svg
   width="64"
   height="64"
   version="1.1"
   viewBox="0 0 16.933 16.933"
   id="svg7"
   sodipodi:docname="com.system76.CosmicScreenshot.svg"
   inkscape:version="1.4 (e7c3feb100, 2024-10-09)"
   xmlns:inkscape="http://www.inkscape.org/namespaces/inkscape"
   xmlns:sodipodi="http://sodipodi.sourceforge.net/DTD/sodipodi-0.dtd"
   xmlns:xlink="http://www.w3.org/1999/xlink"
   xmlns="http://www.w3.org/2000/svg"
   xmlns:svg="http://www.w3.org/2000/svg"
   xmlns:rdf="http://www.w3.org/1999/02/22-rdf-syntax-ns#"
   xmlns:cc="http://creativecommons.org/ns#"
   xmlns:dc="http://purl.org/dc/elements/1.1/">
  <sodipodi:namedview
     id="namedview7"
     pagecolor="#9c4444"
     bordercolor="#000000"
     borderopacity="0.25"
     inkscape:showpageshadow="2"
     inkscape:pageopacity="0.0"
     inkscape:pagecheckerboard="0"
     inkscape:deskcolor="#d1d1d1"
     inkscape:zoom="6.15625"
     inkscape:cx="15.675127"
     inkscape:cy="29.807107"
     inkscape:window-width="1183"
     inkscape:window-height="973"
     inkscape:window-x="35"
     inkscape:window-y="32"
     inkscape:window-maximized="0"
     inkscape:current-layer="svg7"
     showgrid="false" />
  <defs
     id="defs2">
    <rect
       x="67.489848"
       y="35.60533"
       width="15.337563"
       height="22.51269"
       id="rect3808" />
    <linearGradient
       inkscape:collect="always"
       id="linearGradient1134">
      <stop
         style="stop-color:#161616;stop-opacity:1;"
         offset="0"
         id="stop1130" />
      <stop
         style="stop-color:#404040;stop-opacity:1;"
         offset="1"
         id="stop1132" />
    </linearGradient>
    <linearGradient
       inkscape:collect="always"
       id="linearGradient883">
      <stop
         style="stop-color:#808080;stop-opacity:1;"
         offset="0"
         id="stop879" />
      <stop
         style="stop-color:#3e3e3e;stop-opacity:1;"
         offset="0.5"
         id="stop1216" />
      <stop
         style="stop-color:#242424;stop-opacity:1;"
         offset="1"
         id="stop881" />
    </linearGradient>
    <linearGradient
       inkscape:collect="always"
       xlink:href="#linearGradient883"
       id="linearGradient885"
       x1="2.1085808"
       y1="2.0236168"
       x2="14.846128"
       y2="15.071845"
       gradientUnits="userSpaceOnUse" />
    <linearGradient
       inkscape:collect="always"
       xlink:href="#linearGradient1134"
       id="linearGradient1136"
       x1="14.971222"
       y1="14.703373"
       x2="2.0756054"
       y2="2.0069976"
       gradientUnits="userSpaceOnUse" />
    <filter
       style="color-interpolation-filters:sRGB;"
       inkscape:label="Blur"
       id="filter1283"
       x="-0.082344266"
       y="-0.082344266"
       width="1.1646885"
       height="1.1646885">
      <feGaussianBlur
         stdDeviation="0.5 0.5"
         result="blur"
         id="feGaussianBlur1281" />
    </filter>
    <filter
       style="color-interpolation-filters:sRGB;"
       inkscape:label="Blur"
       id="filter1694"
       x="-0.94955398"
       y="-0.2118907"
       width="2.899108"
       height="1.4237814">
      <feGaussianBlur
         stdDeviation="0.2 0.2"
         result="blur"
         id="feGaussianBlur1692" />
    </filter>
    <filter
       style="color-interpolation-filters:sRGB;"
       inkscape:label="Blur"
       id="filter3148"
       x="-0.94955398"
       y="-0.2118907"
       width="2.899108"
       height="1.4237814">
      <feGaussianBlur
         stdDeviation="0.2 0.2"
         result="blur"
         id="feGaussianBlur3146" />
    </filter>
    <clipPath
       clipPathUnits="userSpaceOnUse"
       id="clipPath44">
      <path
         id="path46"
         style="display:block;opacity:0.85;fill:#f2f2f2;stroke-width:4.39162"
         d="m 17.570312,8.4453125 a 6.5431988,7.4283052 9.9958727e-8 0 0 -6.535156,7.4394535 6.5431988,7.4283052 9.9958727e-8 0 0 6.552735,7.417968 6.5431988,7.4283052 9.9958727e-8 0 0 6.535156,-7.4375 6.5431988,7.4283052 9.9958727e-8 0 0 -6.552735,-7.4199215 z M 45.646484,41.177734 a 6.5431986,7.0703472 2.4665357e-6 0 0 -6.533203,7.080078 6.5431986,7.0703472 2.4665357e-6 0 0 6.550781,7.060547 6.5431986,7.0703472 2.4665357e-6 0 0 6.535157,-7.080078 6.5431986,7.0703472 2.4665357e-6 0 0 -6.552735,-7.060547 z" />
    </clipPath>
    <inkscape:path-effect
       effect="powerclip"
       id="path-effect48"
       is_visible="true"
       lpeversion="1"
       inverse="true"
       flatten="false"
       hide_clip="false"
       message="" />
  </defs>
  <metadata
     id="metadata2">
    <rdf:RDF>
      <cc:Work
         rdf:about="">
        <dc:format>image/svg+xml</dc:format>
        <dc:type
           rdf:resource="http://purl.org/dc/dcmitype/StillImage" />
      </cc:Work>
    </rdf:RDF>
  </metadata>
  <rect
     style="fill:#000000;stroke:none;stroke-width:0.539739;stroke-dasharray:none;filter:url(#filter1283)"
     id="rect246-1"
     width="14.572964"
     height="14.572964"
     x="1.1932471"
     y="1.2138842"
     rx="2.1589575"
     ry="2.1589575" />
  <rect
     style="opacity:1;fill:#000000;stroke:url(#linearGradient885);stroke-width:0.52915625;stroke-dasharray:none"
     id="rect246"
     width="14.287219"
     height="14.287219"
     x="1.3361193"
     y="1.3567564"
     rx="2.1166251"
     ry="2.1166251" />
  <rect
     style="fill:url(#linearGradient1136);fill-opacity:1;stroke:none;stroke-width:0.478315;stroke-dasharray:none"
     id="rect246-5"
     width="12.914515"
     height="12.914515"
     x="2.0224717"
     y="2.0431087"
     rx="1.5874687"
     ry="1.5874687" />
  <g
     fill="#474747"
     id="g9"
     transform="matrix(0.4226361,0,0,0.4226361,5.1227994,4.1227363)"
     style="fill:#999999;fill-opacity:1;stroke:none;stroke-width:0.58349;stroke-dasharray:none;stroke-opacity:0.3">
    <path
       d="m 14,0 c 1.2,0 2,0.798 2,2 V 6 H 14 V 2.25 C 14,2.126 13.943,2 13.812,2 H 2.188 C 2.056,2 2,2.126 2,2.25 V 14 C 0.8,14 0,13.077 0,11.875 V 2 C 0,0.798 0.8,0 2,0 Z"
       color="#bebebe"
       overflow="visible"
       id="path2"
       style="fill:#999999;fill-opacity:1;stroke:none;stroke-width:0.58349;stroke-dasharray:none;stroke-opacity:0.3" />
    <path
       d="M 7.25,6 C 6.779,6 6.507,6.542 6.5,7 V 8 H 4 C 3.531,8.065 3,8.542 3,9 v 6 c 0,0.458 0.527,1 1,1 h 10 c 0.473,0 1,-0.542 1,-1 V 9 C 15,8.542 14.473,8 14,8 H 11.5 V 7 C 11.5,6.542 11.159,6 10.687,6 Z M 9,9 a 3,3 0 1 1 0,6 3,3 0 0 1 0,-6 z"
       color="#bebebe"
       overflow="visible"
       id="path4"
       style="fill:#999999;fill-opacity:1;stroke:none;stroke-width:0.58349;stroke-dasharray:none;stroke-opacity:0.3" />
    <path
       d="m 11,12 a 2,2 0 0 1 -2,2 2,2 0 0 1 -2,-2 2,2 0 0 1 2,-2 2,2 0 0 1 2,2 z"
       id="path6"
       style="fill:#999999;fill-opacity:1;stroke:none;stroke-width:0.58349;stroke-dasharray:none;stroke-opacity:0.3" />
  </g>
  <g
     aria-label="Krita"
     id="text1450"
     style="font-size:1.76385px;opacity:1;fill:#ff7f2a;stroke-width:0.529156">
    <rect
       style="font-size:1.76385px;fill:#ff7f2a;fill-opacity:1;stroke:none;stroke-width:0.519976;stroke-dasharray:none;filter:url(#filter3148)"
       id="rect1656-3"
       width="0.5055005"
       height="2.2653189"
       x="15.369148"
       y="4.3016486"
       rx="0"
       ry="0" />
    <rect
       style="opacity:1;fill:#ff7f2a;fill-opacity:1;stroke:none;stroke-width:0.519976;stroke-dasharray:none"
       id="rect1656"
       width="0.5055005"
       height="2.2653189"
       x="15.369148"
       y="4.3016486"
       rx="0"
       ry="0" />
  </g>
  <g
     aria-label="Screenshot"
     id="text2284"
     style="font-size:1.76385px;opacity:1;fill:#999999;stroke-width:0.529156">
    <path
       d="m 4.6937904,13.842122 q 0,0.167565 -0.1217057,0.26105 -0.1217056,0.09348 -0.3280761,0.09348 -0.105831,0 -0.1957873,-0.01588 -0.089956,-0.01587 -0.1499273,-0.0441 v -0.151691 q 0.063499,0.02822 0.1569827,0.05115 0.095248,0.02293 0.1957873,0.02293 0.141108,0 0.211662,-0.05468 0.072318,-0.05468 0.072318,-0.148163 0,-0.06173 -0.026458,-0.104068 -0.026458,-0.04233 -0.09172,-0.07761 -0.063499,-0.03704 -0.1781488,-0.07761 -0.1605104,-0.05821 -0.2434113,-0.142872 -0.081137,-0.08466 -0.081137,-0.231065 0,-0.100539 0.051152,-0.171093 0.051152,-0.07232 0.141108,-0.111123 0.09172,-0.0388 0.2098982,-0.0388 0.1040671,0 0.1904958,0.0194 0.086429,0.0194 0.1569826,0.05115 l -0.049388,0.135816 q -0.065262,-0.02822 -0.1428718,-0.04762 -0.075846,-0.0194 -0.1587465,-0.0194 -0.118178,0 -0.1781489,0.05115 -0.059971,0.04939 -0.059971,0.132289 0,0.0635 0.026458,0.105831 0.026458,0.04233 0.086429,0.07585 0.059971,0.03351 0.1622742,0.07232 0.1111226,0.04057 0.1869681,0.08819 0.077609,0.04586 0.1164141,0.111123 0.040569,0.06526 0.040569,0.164038 z"
       id="path2832" />
    <path
       d="m 5.305846,14.196656 q -0.1252334,0 -0.224009,-0.05115 -0.097012,-0.05115 -0.1534549,-0.158747 -0.054679,-0.107594 -0.054679,-0.27516 0,-0.174621 0.058207,-0.28398 0.058207,-0.109359 0.1569826,-0.16051 0.1005395,-0.05115 0.2275367,-0.05115 0.072318,0 0.1393441,0.01588 0.067026,0.01411 0.1093587,0.03528 l -0.047624,0.128761 q -0.042332,-0.01587 -0.098776,-0.02999 -0.056443,-0.01411 -0.105831,-0.01411 -0.2786883,0 -0.2786883,0.358062 0,0.171093 0.067026,0.262814 0.06879,0.08996 0.2028427,0.08996 0.077609,0 0.1358165,-0.01587 0.059971,-0.01587 0.1093586,-0.0388 v 0.13758 q -0.047624,0.02469 -0.105831,0.03704 -0.056443,0.01411 -0.1375802,0.01411 z"
       id="path2834" />
    <path
       d="m 6.214228,13.215955 q 0.026458,0 0.056443,0.0035 0.031749,0.0018 0.054679,0.0071 l -0.019402,0.142872 q -0.02293,-0.0053 -0.051152,-0.0088 -0.026458,-0.0035 -0.051152,-0.0035 -0.072318,0 -0.1358165,0.04057 -0.063499,0.0388 -0.1023033,0.111122 -0.037041,0.07055 -0.037041,0.165802 v 0.504461 H 5.7732655 v -0.945424 h 0.1269972 l 0.017639,0.172858 h 0.00706 q 0.04586,-0.07761 0.1181779,-0.134053 0.072318,-0.05644 0.1710935,-0.05644 z"
       id="path2836" />
    <path
       d="m 6.8315749,13.215955 q 0.1217056,0 0.2081343,0.05292 0.088192,0.05292 0.1340526,0.149928 0.047624,0.09525 0.047624,0.224009 v 0.09348 H 6.5740528 q 0.00353,0.16051 0.081137,0.245175 0.079373,0.0829 0.2204812,0.0829 0.089956,0 0.1587465,-0.01588 0.070554,-0.01764 0.1446357,-0.04939 v 0.135817 q -0.072318,0.03175 -0.1428718,0.04586 -0.070554,0.01588 -0.1675658,0.01588 -0.1340526,0 -0.2381197,-0.05468 -0.1023033,-0.05468 -0.1605103,-0.162274 -0.056443,-0.109359 -0.056443,-0.266341 0,-0.155219 0.051152,-0.266342 0.052916,-0.111122 0.1463996,-0.171093 0.095248,-0.05997 0.2204812,-0.05997 z m -0.00176,0.126997 q -0.1111225,0 -0.176385,0.07232 -0.063498,0.07055 -0.075845,0.197551 h 0.481531 q -0.00176,-0.119942 -0.056443,-0.194023 -0.054679,-0.07585 -0.1728573,-0.07585 z"
       id="path2838" />
    <path
       d="m 7.8263848,13.215955 q 0.1217056,0 0.2081343,0.05292 0.088192,0.05292 0.1340526,0.149928 0.047624,0.09525 0.047624,0.224009 v 0.09348 H 7.5688627 q 0.00353,0.16051 0.081137,0.245175 0.079373,0.0829 0.2204812,0.0829 0.089956,0 0.1587465,-0.01588 0.070554,-0.01764 0.1446357,-0.04939 v 0.135817 q -0.072318,0.03175 -0.1428718,0.04586 -0.070554,0.01588 -0.1675658,0.01588 -0.1340526,0 -0.2381197,-0.05468 -0.1023033,-0.05468 -0.1605104,-0.162274 -0.056443,-0.109359 -0.056443,-0.266341 0,-0.155219 0.051152,-0.266342 0.052916,-0.111122 0.1463995,-0.171093 0.095248,-0.05997 0.2204813,-0.05997 z m -0.00176,0.126997 q -0.1111225,0 -0.176385,0.07232 -0.063499,0.07055 -0.075846,0.197551 h 0.481531 q -0.00176,-0.119942 -0.056443,-0.194023 -0.054679,-0.07585 -0.1728573,-0.07585 z"
       id="path2840" />
    <path
       d="m 8.911151,13.215955 q 0.1693296,0 0.2557582,0.0829 0.086429,0.08114 0.086429,0.264577 v 0.615584 h -0.153455 v -0.605 q 0,-0.227537 -0.211662,-0.227537 -0.1569826,0 -0.2169535,0.08819 -0.059971,0.08819 -0.059971,0.253995 v 0.49035 H 8.4560777 V 13.233593 H 8.581311 l 0.02293,0.128762 h 0.00882 q 0.04586,-0.07408 0.1269972,-0.109359 0.081137,-0.03704 0.1710935,-0.03704 z"
       id="path2842" />
    <path
       d="m 10.161721,13.917967 q 0,0.137581 -0.102304,0.208135 -0.102303,0.07055 -0.2751603,0.07055 -0.098776,0 -0.1710934,-0.01588 -0.070554,-0.01587 -0.1252334,-0.0441 v -0.141108 q 0.056443,0.02822 0.1358165,0.05291 0.081137,0.02293 0.164038,0.02293 0.118178,0 0.1710935,-0.03704 0.052915,-0.0388 0.052915,-0.102303 0,-0.03528 -0.019402,-0.0635 -0.019402,-0.02822 -0.070554,-0.05644 -0.049388,-0.02822 -0.1428718,-0.0635 -0.09172,-0.03528 -0.1569827,-0.07055 -0.065262,-0.03528 -0.1005394,-0.08466 -0.035277,-0.04939 -0.035277,-0.126997 0,-0.119942 0.097012,-0.185205 0.098776,-0.06526 0.2575221,-0.06526 0.086429,0 0.1605101,0.01764 0.07585,0.01587 0.141108,0.04586 l -0.05291,0.123469 q -0.05997,-0.02469 -0.1252336,-0.04233 -0.065262,-0.01764 -0.1340526,-0.01764 -0.095248,0 -0.1463995,0.03175 -0.049388,0.02999 -0.049388,0.0829 0,0.0388 0.02293,0.06703 0.02293,0.02646 0.075846,0.05292 0.054679,0.02469 0.1446357,0.05997 0.089956,0.03351 0.1534552,0.06879 0.0635,0.03528 0.09701,0.08643 0.03351,0.04939 0.03351,0.125233 z"
       id="path2844" />
    <path
       d="m 10.54624,13.23183 q 0,0.07055 -0.0088,0.132288 h 0.01058 q 0.04586,-0.07232 0.12347,-0.109358 0.07937,-0.03704 0.171093,-0.03704 0.172857,0 0.259286,0.0829 0.08643,0.08114 0.08643,0.262813 v 0.615584 h -0.153455 v -0.605 q 0,-0.227537 -0.211662,-0.227537 -0.158747,0 -0.218718,0.08996 -0.05821,0.08819 -0.05821,0.253995 v 0.488586 h -0.155219 v -1.340526 h 0.155219 z"
       id="path2846" />
    <path
       d="m 12.303035,13.704541 q 0,0.234592 -0.119942,0.363354 -0.118178,0.128761 -0.321021,0.128761 -0.125233,0 -0.224009,-0.05644 -0.09701,-0.05821 -0.153455,-0.167565 -0.05644,-0.111123 -0.05644,-0.268106 0,-0.234592 0.118178,-0.361589 0.118178,-0.126997 0.321021,-0.126997 0.128761,0 0.225773,0.05821 0.09877,0.05644 0.153455,0.165802 0.05644,0.107595 0.05644,0.264577 z m -0.71436,0 q 0,0.167566 0.06526,0.266342 0.06703,0.09701 0.211662,0.09701 0.142872,0 0.209898,-0.09701 0.06703,-0.09878 0.06703,-0.266342 0,-0.167565 -0.06703,-0.262813 -0.06703,-0.09525 -0.211662,-0.09525 -0.144636,0 -0.209898,0.09525 -0.06526,0.09525 -0.06526,0.262813 z"
       id="path2848" />
    <path
       d="m 12.863938,14.069658 q 0.03528,0 0.07232,-0.0053 0.03704,-0.0071 0.05997,-0.01411 v 0.118178 q -0.02469,0.01235 -0.07055,0.0194 -0.04586,0.0088 -0.08819,0.0088 -0.07408,0 -0.13758,-0.02469 -0.06173,-0.02646 -0.10054,-0.08996 -0.0388,-0.0635 -0.0388,-0.178149 v -0.550321 h -0.134053 v -0.07408 l 0.135817,-0.06173 0.06173,-0.201079 h 0.09172 v 0.216953 h 0.273396 v 0.119942 h -0.273396 v 0.546794 q 0,0.08643 0.04057,0.128761 0.04233,0.04057 0.107595,0.04057 z"
       id="path2850" />
  </g>
  <text
     xml:space="preserve"
     transform="scale(0.26457812)"
     id="text3806"
     style="font-size:6.66667px;white-space:pre;shape-inside:url(#rect3808);display:inline;fill:#999999;stroke-width:2" />
</svg>
