<?xml version="1.0" encoding="UTF-8" standalone="no"?>
<svg
   width="64"
   height="64"
   version="1.1"
   viewBox="0 0 16.933 16.933"
   id="svg7"
   sodipodi:docname="Multimedia Template.svg"
   inkscape:version="1.4 (e7c3feb100, 2024-10-09)"
   xmlns:inkscape="http://www.inkscape.org/namespaces/inkscape"
   xmlns:sodipodi="http://sodipodi.sourceforge.net/DTD/sodipodi-0.dtd"
   xmlns:xlink="http://www.w3.org/1999/xlink"
   xmlns="http://www.w3.org/2000/svg"
   xmlns:svg="http://www.w3.org/2000/svg"
   xmlns:rdf="http://www.w3.org/1999/02/22-rdf-syntax-ns#"
   xmlns:cc="http://creativecommons.org/ns#"
   xmlns:dc="http://purl.org/dc/elements/1.1/">
  <sodipodi:namedview
     id="namedview7"
     pagecolor="#9c4444"
     bordercolor="#000000"
     borderopacity="0.25"
     inkscape:showpageshadow="2"
     inkscape:pageopacity="0.0"
     inkscape:pagecheckerboard="0"
     inkscape:deskcolor="#d1d1d1"
     inkscape:zoom="4.3531261"
     inkscape:cx="15.620958"
     inkscape:cy="31.241916"
     inkscape:window-width="1226"
     inkscape:window-height="669"
     inkscape:window-x="161"
     inkscape:window-y="151"
     inkscape:window-maximized="0"
     inkscape:current-layer="svg7"
     showgrid="false" />
  <defs
     id="defs2">
    <rect
       x="67.489848"
       y="35.60533"
       width="15.337563"
       height="22.51269"
       id="rect3808" />
    <linearGradient
       inkscape:collect="always"
       id="linearGradient1134">
      <stop
         style="stop-color:#161616;stop-opacity:1;"
         offset="0"
         id="stop1130" />
      <stop
         style="stop-color:#404040;stop-opacity:1;"
         offset="1"
         id="stop1132" />
    </linearGradient>
    <linearGradient
       inkscape:collect="always"
       id="linearGradient883">
      <stop
         style="stop-color:#808080;stop-opacity:1;"
         offset="0"
         id="stop879" />
      <stop
         style="stop-color:#3e3e3e;stop-opacity:1;"
         offset="0.5"
         id="stop1216" />
      <stop
         style="stop-color:#242424;stop-opacity:1;"
         offset="1"
         id="stop881" />
    </linearGradient>
    <linearGradient
       inkscape:collect="always"
       xlink:href="#linearGradient883"
       id="linearGradient885"
       x1="2.1085808"
       y1="2.0236168"
       x2="14.846128"
       y2="15.071845"
       gradientUnits="userSpaceOnUse" />
    <linearGradient
       inkscape:collect="always"
       xlink:href="#linearGradient1134"
       id="linearGradient1136"
       x1="14.971222"
       y1="14.703373"
       x2="2.0756054"
       y2="2.0069976"
       gradientUnits="userSpaceOnUse" />
    <filter
       style="color-interpolation-filters:sRGB;"
       inkscape:label="Blur"
       id="filter1283"
       x="-0.082344266"
       y="-0.082344266"
       width="1.1646885"
       height="1.1646885">
      <feGaussianBlur
         stdDeviation="0.5 0.5"
         result="blur"
         id="feGaussianBlur1281" />
    </filter>
    <filter
       style="color-interpolation-filters:sRGB;"
       inkscape:label="Blur"
       id="filter1694"
       x="-0.94955398"
       y="-0.2118907"
       width="2.899108"
       height="1.4237814">
      <feGaussianBlur
         stdDeviation="0.2 0.2"
         result="blur"
         id="feGaussianBlur1692" />
    </filter>
    <filter
       style="color-interpolation-filters:sRGB;"
       inkscape:label="Blur"
       id="filter3148"
       x="-0.94955398"
       y="-0.2118907"
       width="2.899108"
       height="1.4237814">
      <feGaussianBlur
         stdDeviation="0.2 0.2"
         result="blur"
         id="feGaussianBlur3146" />
    </filter>
    <clipPath
       clipPathUnits="userSpaceOnUse"
       id="clipPath44">
      <path
         id="path46"
         style="display:block;opacity:0.85;fill:#f2f2f2;stroke-width:4.39162"
         d="m 17.570312,8.4453125 a 6.5431988,7.4283052 9.9958727e-8 0 0 -6.535156,7.4394535 6.5431988,7.4283052 9.9958727e-8 0 0 6.552735,7.417968 6.5431988,7.4283052 9.9958727e-8 0 0 6.535156,-7.4375 6.5431988,7.4283052 9.9958727e-8 0 0 -6.552735,-7.4199215 z M 45.646484,41.177734 a 6.5431986,7.0703472 2.4665357e-6 0 0 -6.533203,7.080078 6.5431986,7.0703472 2.4665357e-6 0 0 6.550781,7.060547 6.5431986,7.0703472 2.4665357e-6 0 0 6.535157,-7.080078 6.5431986,7.0703472 2.4665357e-6 0 0 -6.552735,-7.060547 z" />
    </clipPath>
    <inkscape:path-effect
       effect="powerclip"
       id="path-effect48"
       is_visible="true"
       lpeversion="1"
       inverse="true"
       flatten="false"
       hide_clip="false"
       message="" />
  </defs>
  <metadata
     id="metadata2">
    <rdf:RDF>
      <cc:Work
         rdf:about="">
        <dc:format>image/svg+xml</dc:format>
        <dc:type
           rdf:resource="http://purl.org/dc/dcmitype/StillImage" />
      </cc:Work>
    </rdf:RDF>
  </metadata>
  <rect
     style="fill:#000000;stroke:none;stroke-width:0.539739;stroke-dasharray:none;filter:url(#filter1283)"
     id="rect246-1"
     width="14.572964"
     height="14.572964"
     x="1.1932471"
     y="1.2138842"
     rx="2.1589575"
     ry="2.1589575" />
  <rect
     style="opacity:1;fill:#000000;stroke:url(#linearGradient885);stroke-width:0.52915625;stroke-dasharray:none"
     id="rect246"
     width="14.287219"
     height="14.287219"
     x="1.3361193"
     y="1.3567564"
     rx="2.1166251"
     ry="2.1166251" />
  <rect
     style="fill:url(#linearGradient1136);fill-opacity:1;stroke:none;stroke-width:0.478315;stroke-dasharray:none"
     id="rect246-5"
     width="12.914515"
     height="12.914515"
     x="2.0224717"
     y="2.0431087"
     rx="1.5874687"
     ry="1.5874687" />
  <g
     id="g4"
     transform="matrix(0.01546344,0,0,0.01546344,4.9511296,3.4966645)"
     style="stroke:#999999;stroke-opacity:1;stroke-width:17.10991377;stroke-dasharray:none;fill:#999999">
	<path
   d="M 464.721,51.671 C 464.721,23.179 441.541,0 413.05,0 H 56.95 C 28.459,0 5.279,23.179 5.279,51.671 v 311.404 c 0,25.944 19.222,47.475 44.171,51.12 v 13.179 H 12.779 c -4.143,0 -7.5,3.358 -7.5,7.5 0,4.142 3.357,7.5 7.5,7.5 H 49.45 V 455 H 12.779 c -4.143,0 -7.5,3.358 -7.5,7.5 0,4.142 3.357,7.5 7.5,7.5 H 56.95 401.074 c 28.491,0 51.671,-23.18 51.671,-51.671 v -77.34 c 0,-0.03 -0.004,-0.058 -0.004,-0.088 7.474,-8.963 11.98,-20.484 11.98,-33.04 z M 401.074,455 H 64.45 v -40.255 h 320.06 c 13.27,0 24.064,-10.795 24.064,-24.064 0,-4.142 -3.357,-7.5 -7.5,-7.5 -4.143,0 -7.5,3.358 -7.5,7.5 0,4.998 -4.066,9.064 -9.064,9.064 H 56.95 c -20.221,0 -36.671,-16.45 -36.671,-36.67 V 51.671 C 20.279,31.45 36.729,15 56.95,15 h 356.1 c 20.221,0 36.671,16.45 36.671,36.671 v 256.19 c 0,20.22 -16.45,36.67 -36.671,36.67 H 73.515 c -13.27,0 -24.064,10.795 -24.064,24.064 0,4.142 3.357,7.5 7.5,7.5 4.143,0 7.5,-3.358 7.5,-7.5 0,-4.998 4.066,-9.064 9.064,-9.064 H 413.05 c 8.939,0 17.354,-2.284 24.695,-6.295 v 65.093 c 0,20.22 -16.45,36.671 -36.671,36.671 z"
   id="path1"
   style="stroke:#999999;stroke-opacity:1;stroke-width:17.10991377;stroke-dasharray:none;fill:#999999" />

	<path
   d="m 403.394,108.5 c 4.411,0 8,-3.589 8,-8 0,-4.411 -3.589,-8 -8,-8 -4.411,0 -8,3.589 -8,8 0,4.411 3.588,8 8,8 z"
   id="path2"
   style="stroke:#999999;stroke-opacity:1;stroke-width:17.10991377;stroke-dasharray:none;fill:#999999" />

	<path
   d="m 107.394,277.116 c 4.411,0 8,-3.589 8,-8 0,-4.411 -3.589,-8 -8,-8 -4.411,0 -8,3.589 -8,8 0,4.411 3.588,8 8,8 z"
   id="path3"
   style="stroke:#999999;stroke-opacity:1;stroke-width:17.10991377;stroke-dasharray:none;fill:#999999" />

	<path
   d="m 82.394,251.116 c 4.411,0 8,-3.589 8,-8 0,-4.411 -3.589,-8 -8,-8 -4.411,0 -8,3.589 -8,8 0,4.411 3.588,8 8,8 z"
   id="path4"
   style="stroke:#999999;stroke-opacity:1;stroke-width:17.10991377;stroke-dasharray:none;fill:#999999" />

</g>
  <g
     aria-label="Krita"
     id="text1450"
     style="font-size:1.76385px;opacity:1;fill:#ff7f2a;stroke-width:0.529156">
    <rect
       style="font-size:1.76385px;fill:#ff7f2a;fill-opacity:1;stroke:none;stroke-width:0.519976;stroke-dasharray:none;filter:url(#filter3148)"
       id="rect1656-3"
       width="0.5055005"
       height="2.2653189"
       x="15.369148"
       y="4.3016486"
       rx="0"
       ry="0" />
    <rect
       style="opacity:1;fill:#ff7f2a;fill-opacity:1;stroke:none;stroke-width:0.519976;stroke-dasharray:none"
       id="rect1656"
       width="0.5055005"
       height="2.2653189"
       x="15.369148"
       y="4.3016486"
       rx="0"
       ry="0" />
  </g>
  <path
     style="font-size:1.76385px;text-align:center;text-anchor:middle;fill:#999999;stroke-width:0.529156"
     d="m 5.6930143,12.919628 q 0.2363559,0 0.3562977,0.07055 0.1217057,0.06879 0.1217057,0.241648 0,0.111122 -0.061735,0.185204 -0.061735,0.07232 -0.1781488,0.09348 v 0.0088 q 0.079373,0.01235 0.1428718,0.04586 0.065262,0.03351 0.1023033,0.09525 0.037041,0.06174 0.037041,0.160511 0,0.171093 -0.118178,0.264577 -0.1164141,0.09348 -0.3192568,0.09348 H 5.3331889 v -1.259389 z m 0.031749,0.536211 q 0.1622742,0 0.2222451,-0.05115 0.059971,-0.05292 0.059971,-0.155219 0,-0.104067 -0.074082,-0.148163 -0.072318,-0.04586 -0.2328282,-0.04586 H 5.4919354 v 0.400394 z m -0.2328282,0.132288 v 0.456837 h 0.2539944 q 0.1675658,0 0.2328282,-0.06526 0.065263,-0.06526 0.065263,-0.171093 0,-0.09878 -0.06879,-0.158747 -0.067026,-0.06174 -0.2416474,-0.06174 z m 1.1218079,0.59089 H 6.4585245 v -1.340526 h 0.1552188 z m 0.657915,-0.961298 q 0.1728573,0 0.2557583,0.07584 0.082901,0.07585 0.082901,0.241648 v 0.643805 H 7.4974311 l -0.029985,-0.134053 h -0.00706 q -0.061735,0.07761 -0.1305249,0.114651 -0.067026,0.03704 -0.1869681,0.03704 -0.1287611,0 -0.2134259,-0.06703 -0.084665,-0.06879 -0.084665,-0.213426 0,-0.141108 0.1111226,-0.216953 0.1111225,-0.07761 0.3421869,-0.08466 l 0.1605103,-0.0053 v -0.05644 q 0,-0.118178 -0.051152,-0.164038 -0.051152,-0.04586 -0.1446357,-0.04586 -0.074082,0 -0.141108,0.02293 -0.067026,0.02117 -0.1252334,0.04939 l -0.047624,-0.116414 q 0.061735,-0.03351 0.1463995,-0.05644 0.084665,-0.02469 0.176385,-0.02469 z m 0.04586,0.504461 q -0.176385,0.0071 -0.2451751,0.05644 -0.067026,0.04939 -0.067026,0.139344 0,0.07937 0.047624,0.116414 0.049388,0.03704 0.1252334,0.03704 0.1199418,0 0.199315,-0.06526 0.079373,-0.06703 0.079373,-0.204607 v -0.08466 z m 1.0406731,-0.506225 q 0.1693296,0 0.2557582,0.0829 0.086429,0.08114 0.086429,0.264577 v 0.615584 h -0.153455 v -0.605 q 0,-0.227537 -0.211662,-0.227537 -0.1569826,0 -0.2169535,0.08819 -0.059971,0.08819 -0.059971,0.253995 v 0.49035 H 7.9031182 v -0.945424 h 0.1252333 l 0.02293,0.128762 h 0.00882 q 0.04586,-0.07408 0.1269972,-0.109359 0.081137,-0.03704 0.1710935,-0.03704 z m 0.7884409,0.322785 q 0,0.02822 -0.00353,0.07408 -0.00176,0.04586 -0.00353,0.07937 h 0.00706 q 0.010583,-0.01411 0.031749,-0.04057 0.021166,-0.02646 0.042332,-0.05292 0.02293,-0.02822 0.038805,-0.04586 l 0.3016183,-0.319257 h 0.1816766 l -0.3827555,0.403922 0.4092132,0.541502 H 9.5823033 l -0.3280761,-0.440962 -0.1075948,0.09348 v 0.347478 h -0.153455 v -1.340526 h 0.153455 z m 1.1535586,-0.322785 q 0.121705,0 0.208134,0.05292 0.08819,0.05292 0.134053,0.149928 0.04762,0.09525 0.04762,0.224009 v 0.09348 h -0.647333 q 0.0035,0.16051 0.08114,0.245175 0.07937,0.0829 0.220481,0.0829 0.08996,0 0.158747,-0.01588 0.07055,-0.01764 0.144635,-0.04939 v 0.135817 q -0.07232,0.03175 -0.142872,0.04586 -0.07055,0.01588 -0.167565,0.01588 -0.134053,0 -0.23812,-0.05468 -0.1023034,-0.05468 -0.1605104,-0.162274 -0.056443,-0.109359 -0.056443,-0.266341 0,-0.155219 0.051152,-0.266342 0.052915,-0.111122 0.1464,-0.171093 0.09525,-0.05997 0.220481,-0.05997 z m -0.0018,0.126997 q -0.111123,0 -0.176385,0.07232 -0.0635,0.07055 -0.07585,0.197551 h 0.481531 q -0.0018,-0.119942 -0.05644,-0.194023 -0.05468,-0.07585 -0.172857,-0.07585 z m 0.947186,0.726706 q 0.03528,0 0.07232,-0.0053 0.03704,-0.0071 0.05997,-0.01411 v 0.118178 q -0.02469,0.01235 -0.07055,0.0194 -0.04586,0.0088 -0.08819,0.0088 -0.07408,0 -0.13758,-0.02469 -0.06174,-0.02646 -0.100539,-0.08996 -0.0388,-0.0635 -0.0388,-0.178149 v -0.550321 h -0.134053 v -0.07408 l 0.135817,-0.06173 0.06174,-0.201079 h 0.09172 v 0.216953 h 0.273396 v 0.119942 H 11.09745 v 0.546794 q 0,0.08643 0.04057,0.128761 0.04233,0.04057 0.107595,0.04057 z"
     id="text2284"
     aria-label="Blanket" />
  <text
     xml:space="preserve"
     transform="scale(0.26457812)"
     id="text3806"
     style="font-size:6.66667px;white-space:pre;shape-inside:url(#rect3808);display:inline;fill:#999999;stroke-width:2" />
</svg>
