<?xml version="1.0" encoding="UTF-8" standalone="no"?>
<svg
   width="64"
   height="64"
   version="1.1"
   viewBox="0 0 16.933 16.933"
   id="svg7"
   sodipodi:docname="Utilities Template.svg"
   inkscape:version="1.4 (e7c3feb100, 2024-10-09)"
   xmlns:inkscape="http://www.inkscape.org/namespaces/inkscape"
   xmlns:sodipodi="http://sodipodi.sourceforge.net/DTD/sodipodi-0.dtd"
   xmlns:xlink="http://www.w3.org/1999/xlink"
   xmlns="http://www.w3.org/2000/svg"
   xmlns:svg="http://www.w3.org/2000/svg"
   xmlns:rdf="http://www.w3.org/1999/02/22-rdf-syntax-ns#"
   xmlns:cc="http://creativecommons.org/ns#"
   xmlns:dc="http://purl.org/dc/elements/1.1/">
  <sodipodi:namedview
     id="namedview7"
     pagecolor="#9c4444"
     bordercolor="#000000"
     borderopacity="0.25"
     inkscape:showpageshadow="2"
     inkscape:pageopacity="0.0"
     inkscape:pagecheckerboard="0"
     inkscape:deskcolor="#d1d1d1"
     inkscape:zoom="6.15625"
     inkscape:cx="15.51269"
     inkscape:cy="29.807107"
     inkscape:window-width="1183"
     inkscape:window-height="973"
     inkscape:window-x="35"
     inkscape:window-y="32"
     inkscape:window-maximized="0"
     inkscape:current-layer="svg7"
     showgrid="false" />
  <defs
     id="defs2">
    <rect
       x="67.489848"
       y="35.60533"
       width="15.337563"
       height="22.51269"
       id="rect3808" />
    <linearGradient
       inkscape:collect="always"
       id="linearGradient1134">
      <stop
         style="stop-color:#161616;stop-opacity:1;"
         offset="0"
         id="stop1130" />
      <stop
         style="stop-color:#404040;stop-opacity:1;"
         offset="1"
         id="stop1132" />
    </linearGradient>
    <linearGradient
       inkscape:collect="always"
       id="linearGradient883">
      <stop
         style="stop-color:#808080;stop-opacity:1;"
         offset="0"
         id="stop879" />
      <stop
         style="stop-color:#3e3e3e;stop-opacity:1;"
         offset="0.5"
         id="stop1216" />
      <stop
         style="stop-color:#242424;stop-opacity:1;"
         offset="1"
         id="stop881" />
    </linearGradient>
    <linearGradient
       inkscape:collect="always"
       xlink:href="#linearGradient883"
       id="linearGradient885"
       x1="2.1085808"
       y1="2.0236168"
       x2="14.846128"
       y2="15.071845"
       gradientUnits="userSpaceOnUse" />
    <linearGradient
       inkscape:collect="always"
       xlink:href="#linearGradient1134"
       id="linearGradient1136"
       x1="14.971222"
       y1="14.703373"
       x2="2.0756054"
       y2="2.0069976"
       gradientUnits="userSpaceOnUse" />
    <filter
       style="color-interpolation-filters:sRGB;"
       inkscape:label="Blur"
       id="filter1283"
       x="-0.082344266"
       y="-0.082344266"
       width="1.1646885"
       height="1.1646885">
      <feGaussianBlur
         stdDeviation="0.5 0.5"
         result="blur"
         id="feGaussianBlur1281" />
    </filter>
    <filter
       style="color-interpolation-filters:sRGB;"
       inkscape:label="Blur"
       id="filter1694"
       x="-0.94955398"
       y="-0.2118907"
       width="2.899108"
       height="1.4237814">
      <feGaussianBlur
         stdDeviation="0.2 0.2"
         result="blur"
         id="feGaussianBlur1692" />
    </filter>
    <filter
       style="color-interpolation-filters:sRGB;"
       inkscape:label="Blur"
       id="filter3148"
       x="-0.94955398"
       y="-0.2118907"
       width="2.899108"
       height="1.4237814">
      <feGaussianBlur
         stdDeviation="0.2 0.2"
         result="blur"
         id="feGaussianBlur3146" />
    </filter>
    <clipPath
       clipPathUnits="userSpaceOnUse"
       id="clipPath44">
      <path
         id="path46"
         style="display:block;opacity:0.85;fill:#f2f2f2;stroke-width:4.39162"
         d="m 17.570312,8.4453125 a 6.5431988,7.4283052 9.9958727e-8 0 0 -6.535156,7.4394535 6.5431988,7.4283052 9.9958727e-8 0 0 6.552735,7.417968 6.5431988,7.4283052 9.9958727e-8 0 0 6.535156,-7.4375 6.5431988,7.4283052 9.9958727e-8 0 0 -6.552735,-7.4199215 z M 45.646484,41.177734 a 6.5431986,7.0703472 2.4665357e-6 0 0 -6.533203,7.080078 6.5431986,7.0703472 2.4665357e-6 0 0 6.550781,7.060547 6.5431986,7.0703472 2.4665357e-6 0 0 6.535157,-7.080078 6.5431986,7.0703472 2.4665357e-6 0 0 -6.552735,-7.060547 z" />
    </clipPath>
    <inkscape:path-effect
       effect="powerclip"
       id="path-effect48"
       is_visible="true"
       lpeversion="1"
       inverse="true"
       flatten="false"
       hide_clip="false"
       message="" />
  </defs>
  <metadata
     id="metadata2">
    <rdf:RDF>
      <cc:Work
         rdf:about="">
        <dc:format>image/svg+xml</dc:format>
        <dc:type
           rdf:resource="http://purl.org/dc/dcmitype/StillImage" />
      </cc:Work>
    </rdf:RDF>
  </metadata>
  <rect
     style="fill:#000000;stroke:none;stroke-width:0.539739;stroke-dasharray:none;filter:url(#filter1283)"
     id="rect246-1"
     width="14.572964"
     height="14.572964"
     x="1.1932471"
     y="1.2138842"
     rx="2.1589575"
     ry="2.1589575" />
  <rect
     style="opacity:1;fill:#000000;stroke:url(#linearGradient885);stroke-width:0.52915625;stroke-dasharray:none"
     id="rect246"
     width="14.287219"
     height="14.287219"
     x="1.3361193"
     y="1.3567564"
     rx="2.1166251"
     ry="2.1166251" />
  <rect
     style="fill:url(#linearGradient1136);fill-opacity:1;stroke:none;stroke-width:0.478315;stroke-dasharray:none"
     id="rect246-5"
     width="12.914515"
     height="12.914515"
     x="2.0224717"
     y="2.0431087"
     rx="1.5874687"
     ry="1.5874687" />
  <path
     style="fill:#999999;fill-opacity:1;stroke-width:0.0312107"
     d="M 8.221964,11.314628 C 7.9943581,11.279182 7.7125499,11.172043 7.6420669,11.094157 7.5787121,11.024152 7.5737991,10.835742 7.5864987,8.9631137 7.602273,6.6373998 7.5933537,6.7051398 7.9368679,6.3026997 8.0410556,6.1806404 8.1445802,6.0330127 8.1669221,5.9746364 8.1905174,5.91298 8.201845,5.4810747 8.1939422,4.9440713 8.1775056,3.8267055 8.1583226,3.870985 8.6589163,3.870985 c 0.5005951,0 0.4814087,-0.04428 0.4649731,1.0730863 -0.0089,0.6052712 0.00226,0.9658183 0.032254,1.0443146 0.025219,0.065938 0.1279274,0.2111792 0.2282452,0.3227575 0.3374901,0.3753697 0.3311823,0.3271518 0.3469496,2.6519704 0.015713,2.3170292 0.039045,2.1497992 -0.3171561,2.2735182 -0.193177,0.06709 -0.9459695,0.116344 -1.1922205,0.078 z M 6.2502625,10.380399 C 6.1500185,10.360709 6.0236127,10.315509 5.969362,10.279962 L 5.870724,10.215332 V 8.5995239 c 0,-1.715481 0.00707,-1.7863236 0.2034181,-2.0381104 C 6.3435488,6.2159365 6.3326269,6.2645618 6.3208451,5.4630841 6.3078778,4.5808474 6.309434,4.5772894 6.7058288,4.582675 c 0.1376979,0.00186 0.2728497,0.025893 0.3003376,0.05338 0.036113,0.036113 0.046535,0.254416 0.037571,0.7868626 l -0.012407,0.736885 0.1259721,0.1872669 c 0.069284,0.1029966 0.1552406,0.2269374 0.1910152,0.2754243 0.052698,0.071428 0.057065,0.122762 0.023,0.2704966 -0.024381,0.1057686 -0.042466,0.8668007 -0.043055,1.8122747 l -9.72e-4,1.6299339 -0.2101267,0.04507 c -0.2417751,0.05185 -0.6033366,0.05192 -0.8668596,1.32e-4 z m 3.9171965,-8.91e-4 -0.1768636,-0.0424 -0.00105,-1.6309332 C 9.9890208,7.7463442 9.9710509,6.9993152 9.9459806,6.8905683 9.9086777,6.7287144 9.9141306,6.6912869 9.9899685,6.5887238 10.308049,6.1584999 10.289126,6.2359469 10.274748,5.4231874 c -0.0094,-0.5333762 8.02e-4,-0.7509673 0.03694,-0.7871295 0.0275,-0.027487 0.16264,-0.051507 0.300337,-0.053381 0.396272,-0.00538 0.398661,1.83e-5 0.383464,0.8667587 -0.01355,0.7730659 -0.0068,0.8076707 0.202941,1.0493163 0.245903,0.2832228 0.251906,0.3362897 0.239346,2.1163296 l -0.01146,1.6229805 -0.155836,0.07615 c -0.186639,0.0912 -0.834977,0.129633 -1.103015,0.06539 z"
     id="path1" />
  <g
     fill="#474747"
     id="g9"
     transform="matrix(0.46959567,0,0,0.46959567,4.7471229,3.7470598)"
     style="fill:#999999;fill-opacity:1;stroke:none;stroke-width:0.58349;stroke-dasharray:none;stroke-opacity:0.3" />
  <g
     aria-label="Krita"
     id="text1450"
     style="font-size:1.76385px;opacity:1;fill:#00ffff;stroke-width:0.529156">
    <rect
       style="font-size:1.76385px;fill:#00ffff;fill-opacity:1;stroke:none;stroke-width:0.519976;stroke-dasharray:none;filter:url(#filter3148)"
       id="rect1656-3"
       width="0.5055005"
       height="2.2653189"
       x="15.369148"
       y="4.3016486"
       rx="0"
       ry="0" />
    <rect
       style="opacity:1;fill:#00ffff;fill-opacity:1;stroke:none;stroke-width:0.519976;stroke-dasharray:none"
       id="rect1656"
       width="0.5055005"
       height="2.2653189"
       x="15.369148"
       y="4.3016486"
       rx="0"
       ry="0" />
  </g>
  <path
     style="font-size:1.76385px;text-align:center;text-anchor:middle;fill:#999999;stroke-width:0.529156"
     d="m 6.1358306,12.919628 q 0.2363559,0 0.3562977,0.07055 0.1217057,0.06879 0.1217057,0.241648 0,0.111122 -0.061735,0.185204 -0.061735,0.07232 -0.1781488,0.09348 v 0.0088 q 0.079373,0.01235 0.1428718,0.04586 0.065263,0.03351 0.1023033,0.09525 0.037041,0.06174 0.037041,0.160511 0,0.171093 -0.118178,0.264577 -0.1164141,0.09348 -0.3192568,0.09348 H 5.7760052 v -1.259389 z m 0.031749,0.536211 q 0.1622742,0 0.2222451,-0.05115 0.059971,-0.05292 0.059971,-0.155219 0,-0.104067 -0.074082,-0.148163 -0.072318,-0.04586 -0.2328282,-0.04586 H 5.9347517 v 0.400394 z m -0.2328282,0.132288 v 0.456837 h 0.2539944 q 0.1675658,0 0.2328282,-0.06526 0.065263,-0.06526 0.065263,-0.171093 0,-0.09878 -0.06879,-0.158747 -0.067026,-0.06174 -0.2416474,-0.06174 z m 1.7885432,0.116414 q 0,0.234592 -0.1199418,0.363354 -0.1181779,0.128761 -0.3210207,0.128761 -0.1252333,0 -0.2240089,-0.05644 -0.097012,-0.05821 -0.153455,-0.167565 -0.056443,-0.111123 -0.056443,-0.268106 0,-0.234592 0.118178,-0.361589 0.1181779,-0.126997 0.3210207,-0.126997 0.128761,0 0.2257728,0.05821 0.098776,0.05644 0.1534549,0.165802 0.056443,0.107595 0.056443,0.264577 z m -0.7143592,0 q 0,0.167566 0.065262,0.266342 0.067026,0.09701 0.211662,0.09701 0.1428719,0 0.2098982,-0.09701 0.067026,-0.09878 0.067026,-0.266342 0,-0.167565 -0.067026,-0.262813 -0.067026,-0.09525 -0.211662,-0.09525 -0.1446357,0 -0.2098982,0.09525 -0.065262,0.09525 -0.065262,0.262813 z m 1.2752627,0.365117 q 0.035277,0 0.072318,-0.0053 0.037041,-0.0071 0.059971,-0.01411 v 0.118178 q -0.024694,0.01235 -0.070554,0.0194 -0.04586,0.0088 -0.088192,0.0088 -0.074082,0 -0.1375803,-0.02469 -0.061735,-0.02646 -0.1005394,-0.08996 -0.038805,-0.0635 -0.038805,-0.178149 V 13.353535 H 7.8467636 v -0.07408 L 7.98258,13.217719 8.0443148,13.01664 h 0.09172 v 0.216953 h 0.2733967 v 0.119942 H 8.136035 v 0.546794 q 0,0.08643 0.040569,0.128761 0.042332,0.04057 0.1075949,0.04057 z m 0.63675,0 q 0.035277,0 0.072318,-0.0053 0.037041,-0.0071 0.059971,-0.01411 v 0.118178 q -0.024694,0.01235 -0.070554,0.0194 -0.04586,0.0088 -0.088192,0.0088 -0.074082,0 -0.1375803,-0.02469 -0.061735,-0.02646 -0.1005394,-0.08996 -0.038805,-0.0635 -0.038805,-0.178149 V 13.353535 H 8.4835136 v -0.07408 L 8.61933,13.217719 8.6810648,13.01664 h 0.09172 v 0.216953 h 0.2733967 v 0.119942 H 8.772785 v 0.546794 q 0,0.08643 0.040568,0.128761 0.042332,0.04057 0.1075949,0.04057 z M 9.397188,14.179017 H 9.2419692 V 12.838491 H 9.397188 Z m 0.66497,-0.963062 q 0.121706,0 0.208135,0.05292 0.08819,0.05292 0.134052,0.149928 0.04762,0.09525 0.04762,0.224009 v 0.09348 H 9.8046362 q 0.00353,0.16051 0.081137,0.245175 0.079373,0.0829 0.2204817,0.0829 0.08996,0 0.158746,-0.01588 0.07055,-0.01764 0.144636,-0.04939 v 0.135817 q -0.07232,0.03175 -0.142872,0.04586 -0.07055,0.01588 -0.167566,0.01588 -0.1340524,0 -0.2381196,-0.05468 -0.1023033,-0.05468 -0.1605103,-0.162274 -0.056443,-0.109359 -0.056443,-0.266341 0,-0.155219 0.051152,-0.266342 0.052916,-0.111122 0.1463996,-0.171093 0.095248,-0.05997 0.2204809,-0.05997 z m -0.0018,0.126997 q -0.1111221,0 -0.1763845,0.07232 -0.063499,0.07055 -0.075846,0.197551 h 0.4815311 q -0.0018,-0.119942 -0.05644,-0.194023 -0.05468,-0.07585 -0.172858,-0.07585 z m 1.247041,0.575015 q 0,0.137581 -0.102303,0.208135 -0.102304,0.07055 -0.275161,0.07055 -0.09878,0 -0.171093,-0.01588 -0.07055,-0.01587 -0.125234,-0.0441 v -0.141108 q 0.05644,0.02822 0.135817,0.05291 0.08114,0.02293 0.164038,0.02293 0.118178,0 0.171093,-0.03704 0.05292,-0.0388 0.05292,-0.102303 0,-0.03528 -0.0194,-0.0635 -0.0194,-0.02822 -0.07055,-0.05644 -0.04939,-0.02822 -0.142872,-0.0635 -0.09172,-0.03528 -0.156982,-0.07055 -0.06526,-0.03528 -0.10054,-0.08466 -0.03528,-0.04939 -0.03528,-0.126997 0,-0.119942 0.09701,-0.185205 0.09878,-0.06526 0.257522,-0.06526 0.08643,0 0.160511,0.01764 0.07585,0.01587 0.141108,0.04586 l -0.05292,0.123469 q -0.05997,-0.02469 -0.125233,-0.04233 -0.06526,-0.01764 -0.134053,-0.01764 -0.09525,0 -0.146399,0.03175 -0.04939,0.02999 -0.04939,0.0829 0,0.0388 0.02293,0.06703 0.02293,0.02646 0.07584,0.05292 0.05468,0.02469 0.144636,0.05997 0.08996,0.03351 0.153455,0.06879 0.0635,0.03528 0.09701,0.08643 0.03351,0.04939 0.03351,0.125233 z"
     id="text2284"
     aria-label="Bottles" />
  <text
     xml:space="preserve"
     transform="scale(0.26457812)"
     id="text3806"
     style="font-size:6.66667px;white-space:pre;shape-inside:url(#rect3808);display:inline;fill:#999999;stroke-width:2" />
</svg>
