<?xml version="1.0" encoding="UTF-8" standalone="no"?>
<svg
   width="64"
   height="64"
   version="1.1"
   viewBox="0 0 16.933 16.933"
   id="svg7"
   sodipodi:docname="com.system76.CosmicPanelWorkspaces.svg"
   inkscape:version="1.4 (e7c3feb100, 2024-10-09)"
   xmlns:inkscape="http://www.inkscape.org/namespaces/inkscape"
   xmlns:sodipodi="http://sodipodi.sourceforge.net/DTD/sodipodi-0.dtd"
   xmlns:xlink="http://www.w3.org/1999/xlink"
   xmlns="http://www.w3.org/2000/svg"
   xmlns:svg="http://www.w3.org/2000/svg"
   xmlns:rdf="http://www.w3.org/1999/02/22-rdf-syntax-ns#"
   xmlns:cc="http://creativecommons.org/ns#"
   xmlns:dc="http://purl.org/dc/elements/1.1/">
  <sodipodi:namedview
     id="namedview7"
     pagecolor="#9c4444"
     bordercolor="#000000"
     borderopacity="0.25"
     inkscape:showpageshadow="2"
     inkscape:pageopacity="0.0"
     inkscape:pagecheckerboard="0"
     inkscape:deskcolor="#d1d1d1"
     inkscape:zoom="4.3531261"
     inkscape:cx="16.424978"
     inkscape:cy="22.627417"
     inkscape:window-width="1183"
     inkscape:window-height="973"
     inkscape:window-x="35"
     inkscape:window-y="32"
     inkscape:window-maximized="0"
     inkscape:current-layer="svg7"
     showgrid="false" />
  <defs
     id="defs2">
    <linearGradient
       inkscape:collect="always"
       id="linearGradient1134">
      <stop
         style="stop-color:#161616;stop-opacity:1;"
         offset="0"
         id="stop1130" />
      <stop
         style="stop-color:#404040;stop-opacity:1;"
         offset="1"
         id="stop1132" />
    </linearGradient>
    <linearGradient
       inkscape:collect="always"
       id="linearGradient883">
      <stop
         style="stop-color:#808080;stop-opacity:1;"
         offset="0"
         id="stop879" />
      <stop
         style="stop-color:#3e3e3e;stop-opacity:1;"
         offset="0.5"
         id="stop1216" />
      <stop
         style="stop-color:#242424;stop-opacity:1;"
         offset="1"
         id="stop881" />
    </linearGradient>
    <linearGradient
       inkscape:collect="always"
       xlink:href="#linearGradient883"
       id="linearGradient885"
       x1="2.1085808"
       y1="2.0236168"
       x2="14.846128"
       y2="15.071845"
       gradientUnits="userSpaceOnUse" />
    <linearGradient
       inkscape:collect="always"
       xlink:href="#linearGradient1134"
       id="linearGradient1136"
       x1="14.971222"
       y1="14.703373"
       x2="2.0756054"
       y2="2.0069976"
       gradientUnits="userSpaceOnUse" />
    <filter
       style="color-interpolation-filters:sRGB;"
       inkscape:label="Blur"
       id="filter1283"
       x="-0.082344266"
       y="-0.082344266"
       width="1.1646885"
       height="1.1646885">
      <feGaussianBlur
         stdDeviation="0.5 0.5"
         result="blur"
         id="feGaussianBlur1281" />
    </filter>
    <filter
       style="color-interpolation-filters:sRGB;"
       inkscape:label="Blur"
       id="filter3335"
       x="-0.94955398"
       y="-0.2118907"
       width="2.899108"
       height="1.4237814">
      <feGaussianBlur
         stdDeviation="0.2 0.2"
         result="blur"
         id="feGaussianBlur3333" />
    </filter>
  </defs>
  <metadata
     id="metadata2">
    <rdf:RDF>
      <cc:Work
         rdf:about="">
        <dc:format>image/svg+xml</dc:format>
        <dc:type
           rdf:resource="http://purl.org/dc/dcmitype/StillImage" />
      </cc:Work>
    </rdf:RDF>
  </metadata>
  <rect
     style="fill:#000000;stroke:none;stroke-width:0.539739;stroke-dasharray:none;filter:url(#filter1283)"
     id="rect246-1"
     width="14.572964"
     height="14.572964"
     x="1.1932471"
     y="1.2138842"
     rx="2.1589575"
     ry="2.1589575" />
  <rect
     style="opacity:1;fill:#000000;stroke:url(#linearGradient885);stroke-width:0.52915625;stroke-dasharray:none"
     id="rect246"
     width="14.287219"
     height="14.287219"
     x="1.3361193"
     y="1.3567564"
     rx="2.1166251"
     ry="2.1166251" />
  <g
     aria-label="Krita"
     id="text1450"
     style="font-size:1.76385px;opacity:1;fill:#999999;stroke-width:0.529156">
    <rect
       style="font-size:1.76385px;fill:#ff0000;fill-opacity:1;stroke:none;stroke-width:0.519976;stroke-dasharray:none;filter:url(#filter3335)"
       id="rect1656-0"
       width="0.5055005"
       height="2.2653189"
       x="15.369148"
       y="4.3016486"
       rx="0"
       ry="0" />
    <rect
       style="opacity:1;fill:#ff0000;fill-opacity:1;stroke:none;stroke-width:0.519976;stroke-dasharray:none"
       id="rect1656"
       width="0.5055005"
       height="2.2653189"
       x="15.369148"
       y="4.3016486"
       rx="0"
       ry="0" />
  </g>
  <rect
     style="fill:url(#linearGradient1136);fill-opacity:1;stroke:none;stroke-width:0.478315;stroke-dasharray:none"
     id="rect246-5"
     width="12.914515"
     height="12.914515"
     x="2.0224717"
     y="2.0431087"
     rx="1.5874687"
     ry="1.5874687" />
  <g
     fill-rule="nonzero"
     id="g8"
     transform="matrix(0.21004355,0,0,0.21004355,3.499702,2.6167288)"
     style="fill:#999999;fill-opacity:1">
    <path
       d="M 32.813,25.313 H 15.187 c -0.621,0 -1.125,0.503 -1.125,1.125 v 12.205 c 0,0.621 0.504,1.125 1.125,1.125 h 17.626 c 0.621,0 1.124,-0.504 1.124,-1.125 V 26.437 c 0,-0.621 -0.503,-1.125 -1.125,-1.125 z"
       fill="#ededed"
       id="path3-3"
       style="fill:#999999;fill-opacity:1" />
    <path
       d="m 14.063,26.438 c -0.001,-0.622 0.503,-1.125 1.124,-1.125 h 17.626 c 0.621,0 1.124,0.503 1.124,1.125 v 2.444 H 14.062 v -2.444 z"
       fill="#ffa700"
       id="path4"
       style="fill:#999999;fill-opacity:1" />
    <path
       d="M 24.75,7.688 H 7.125 C 6.504,7.688 6,8.191 6,8.813 V 21 c 0,0.621 0.504,1.125 1.125,1.125 H 24.75 c 0.621,0 1.125,-0.504 1.125,-1.125 V 8.812 c 0,-0.621 -0.504,-1.124 -1.125,-1.124 z"
       fill="#ededed"
       id="path5"
       style="fill:#999999;fill-opacity:1" />
    <path
       d="M 6,8.813 C 6,8.191 6.504,7.687 7.125,7.687 H 24.75 c 0.621,0 1.125,0.504 1.125,1.125 v 2.457 H 6 V 8.812 Z"
       fill="#ffa700"
       id="path6"
       style="fill:#999999;fill-opacity:1" />
    <path
       d="M 41.063,10.5 H 30 c -0.414,0 -0.75,0.336 -0.75,0.75 v 7.5 c 0,0.414 0.336,0.75 0.75,0.75 h 11.063 c 0.414,0 0.749,-0.336 0.749,-0.75 v -7.5 c 0,-0.414 -0.335,-0.75 -0.75,-0.75 z"
       fill="#ededed"
       id="path7"
       style="fill:#999999;fill-opacity:1" />
    <path
       d="m 29.25,11.25 c 0,-0.414 0.336,-0.75 0.75,-0.75 h 11.063 c 0.414,0 0.749,0.336 0.749,0.75 v 1.5 H 29.25 Z"
       fill="#ffa700"
       id="path8"
       style="fill:#999999;fill-opacity:1" />
  </g>
  <g
     aria-label="Terminal"
     id="text2284"
     style="font-size:1.76385px;opacity:1;fill:#999999;stroke-width:0.529156">
    <g
       aria-label="Workspaces"
       id="text923"
       style="text-align:center;text-anchor:middle;opacity:1">
      <path
         d="M 5.1558338,12.93751 4.8207023,14.196898 H 4.6601919 L 4.4150168,13.371417 q -0.014111,-0.05115 -0.028222,-0.102304 -0.014111,-0.05115 -0.02293,-0.08996 -0.00882,-0.04057 -0.012347,-0.05644 -0.00176,0.02293 -0.019402,0.09877 -0.015875,0.07408 -0.040569,0.155219 l -0.2381198,0.82019 H 3.8929172 L 3.5595495,12.93751 h 0.1658019 l 0.1957874,0.769038 q 0.021166,0.08114 0.035277,0.156983 0.015875,0.07584 0.024694,0.142872 0.00882,-0.06879 0.026458,-0.149928 0.017638,-0.08114 0.040569,-0.158746 L 4.2703811,12.93751 h 0.164038 l 0.2310644,0.76551 q 0.024694,0.08114 0.042332,0.162275 0.017639,0.07937 0.026458,0.141108 0.00882,-0.06526 0.024694,-0.141108 0.015875,-0.07761 0.037041,-0.160511 L 4.9900319,12.93751 Z"
         id="path2655" />
      <path
         d="m 6.1153679,13.722423 q 0,0.234592 -0.1199418,0.363353 -0.1181779,0.128761 -0.3210207,0.128761 -0.1252333,0 -0.2240089,-0.05644 -0.097012,-0.05821 -0.153455,-0.167566 -0.056443,-0.111123 -0.056443,-0.268105 0,-0.234592 0.118178,-0.361589 0.1181779,-0.126998 0.3210207,-0.126998 0.128761,0 0.2257728,0.05821 0.098776,0.05644 0.1534549,0.165802 0.056443,0.107595 0.056443,0.264578 z m -0.7143592,0 q 0,0.167566 0.065262,0.266341 0.067026,0.09701 0.211662,0.09701 0.1428719,0 0.2098982,-0.09701 0.067026,-0.09877 0.067026,-0.266341 0,-0.167566 -0.067026,-0.262814 -0.067026,-0.09525 -0.211662,-0.09525 -0.1446357,0 -0.2098982,0.09525 -0.065262,0.09525 -0.065262,0.262814 z"
         id="path2657" />
      <path
         d="m 6.8015048,13.233836 q 0.026458,0 0.056443,0.0035 0.031749,0.0018 0.054679,0.0071 l -0.019402,0.142872 q -0.02293,-0.0053 -0.051152,-0.0088 -0.026458,-0.0035 -0.051152,-0.0035 -0.072318,0 -0.1358165,0.04057 -0.063499,0.0388 -0.1023033,0.111122 -0.037041,0.07055 -0.037041,0.165802 v 0.504461 H 6.3605423 v -0.945423 h 0.1269972 l 0.017639,0.172857 h 0.00706 q 0.04586,-0.07761 0.1181779,-0.134052 0.072318,-0.05644 0.1710935,-0.05644 z"
         id="path2659" />
      <path
         d="m 7.2424675,13.556621 q 0,0.02822 -0.00353,0.07408 -0.00176,0.04586 -0.00353,0.07937 h 0.00706 q 0.010583,-0.01411 0.031749,-0.04057 0.021166,-0.02646 0.042332,-0.05291 0.02293,-0.02822 0.038805,-0.04586 l 0.3016184,-0.319257 h 0.1816765 l -0.3827554,0.403922 0.4092132,0.541501 H 7.6781385 L 7.3500624,13.755936 7.2424675,13.84942 v 0.347478 H 7.0890126 v -1.340526 h 0.1534549 z"
         id="path2661" />
      <path
         d="m 8.6464927,13.935849 q 0,0.13758 -0.1023033,0.208134 -0.1023033,0.07055 -0.2751606,0.07055 -0.098776,0 -0.1710935,-0.01587 -0.070554,-0.01587 -0.1252333,-0.0441 v -0.141108 q 0.056443,0.02822 0.1358164,0.05292 0.081137,0.02293 0.1640381,0.02293 0.1181779,0 0.1710934,-0.03704 0.052915,-0.0388 0.052915,-0.102304 0,-0.03528 -0.019402,-0.0635 -0.019402,-0.02822 -0.070554,-0.05644 -0.049388,-0.02822 -0.1428719,-0.0635 -0.09172,-0.03528 -0.1569826,-0.07055 -0.065263,-0.03528 -0.1005395,-0.08466 -0.035277,-0.04939 -0.035277,-0.126997 0,-0.119942 0.097012,-0.185204 0.098776,-0.06526 0.2575221,-0.06526 0.086429,0 0.1605103,0.01764 0.075846,0.01588 0.141108,0.04586 l -0.052916,0.123469 q -0.059971,-0.02469 -0.1252333,-0.04233 -0.065262,-0.01764 -0.1340526,-0.01764 -0.095248,0 -0.1463996,0.03175 -0.049388,0.02998 -0.049388,0.0829 0,0.0388 0.02293,0.06703 0.02293,0.02646 0.075846,0.05292 0.054679,0.02469 0.1446357,0.05997 0.089956,0.03351 0.153455,0.06879 0.063499,0.03528 0.097012,0.08643 0.033513,0.04939 0.033513,0.125234 z"
         id="path2663" />
      <path
         d="m 9.3255752,13.233836 q 0.1746211,0 0.2804521,0.121706 0.1075949,0.121706 0.1075949,0.366881 0,0.241647 -0.1075949,0.366881 -0.105831,0.125233 -0.282216,0.125233 -0.1093587,0 -0.1816765,-0.04057 -0.070554,-0.04233 -0.1111226,-0.09701 h -0.010583 q 0.00353,0.02998 0.00706,0.07584 0.00353,0.04586 0.00353,0.07937 v 0.388047 H 8.8757934 v -1.368747 h 0.1269972 l 0.021166,0.128761 h 0.00706 q 0.042332,-0.06174 0.1111226,-0.104067 0.06879,-0.04233 0.1834404,-0.04233 z m -0.028222,0.130525 q -0.1446357,0 -0.2046066,0.08114 -0.058207,0.08114 -0.061735,0.246939 v 0.02999 q 0,0.174621 0.056443,0.269869 0.058207,0.09348 0.2134259,0.09348 0.086429,0 0.141108,-0.04762 0.056443,-0.04762 0.082901,-0.128761 0.028222,-0.0829 0.028222,-0.188732 0,-0.162274 -0.063499,-0.259286 -0.061735,-0.09701 -0.1922596,-0.09701 z"
         id="path2665" />
      <path
         d="m 10.318622,13.2356 q 0.172858,0 0.255759,0.07585 0.0829,0.07584 0.0829,0.241647 v 0.643805 h -0.112887 l -0.02998,-0.134052 h -0.0071 q -0.06173,0.07761 -0.130525,0.11465 -0.06703,0.03704 -0.186968,0.03704 -0.128761,0 -0.2134256,-0.06703 -0.084665,-0.06879 -0.084665,-0.213426 0,-0.141108 0.1111224,-0.216954 0.111123,-0.07761 0.342187,-0.08466 l 0.16051,-0.0053 v -0.05644 q 0,-0.118178 -0.05115,-0.164038 -0.05115,-0.04586 -0.144636,-0.04586 -0.07408,0 -0.141108,0.02293 -0.06703,0.02117 -0.125233,0.04939 l -0.047624,-0.116414 q 0.061735,-0.03351 0.1463992,-0.05644 0.08467,-0.02469 0.176385,-0.02469 z m 0.04586,0.504461 q -0.176385,0.0071 -0.245175,0.05644 -0.06703,0.04939 -0.06703,0.139344 0,0.07937 0.04762,0.116414 0.04939,0.03704 0.125233,0.03704 0.119942,0 0.199315,-0.06526 0.07937,-0.06703 0.07937,-0.204606 v -0.08467 z"
         id="path2667" />
      <path
         d="m 11.32931,14.214537 q -0.125234,0 -0.224009,-0.05115 -0.09701,-0.05115 -0.153455,-0.158746 -0.05468,-0.107595 -0.05468,-0.275161 0,-0.174621 0.05821,-0.28398 0.05821,-0.109358 0.156983,-0.16051 0.100539,-0.05115 0.227537,-0.05115 0.07232,0 0.139344,0.01587 0.06703,0.01411 0.109358,0.03528 l -0.04762,0.128761 q -0.04233,-0.01587 -0.09878,-0.02998 -0.05644,-0.01411 -0.105831,-0.01411 -0.278688,0 -0.278688,0.358061 0,0.171094 0.06703,0.262814 0.06879,0.08996 0.202843,0.08996 0.07761,0 0.135816,-0.01587 0.05997,-0.01587 0.109359,-0.0388 v 0.13758 q -0.04762,0.02469 -0.105831,0.03704 -0.05644,0.01411 -0.13758,0.01411 z"
         id="path2669" />
      <path
         d="m 12.161846,13.233836 q 0.121706,0 0.208134,0.05292 0.08819,0.05292 0.134053,0.149927 0.04762,0.09525 0.04762,0.224009 v 0.09348 h -0.647333 q 0.0035,0.16051 0.08114,0.245175 0.07937,0.0829 0.220481,0.0829 0.08996,0 0.158747,-0.01587 0.07055,-0.01764 0.144635,-0.04939 v 0.135816 q -0.07232,0.03175 -0.142871,0.04586 -0.07055,0.01587 -0.167566,0.01587 -0.134053,0 -0.23812,-0.05468 -0.102303,-0.05468 -0.16051,-0.162275 -0.05644,-0.109358 -0.05644,-0.266341 0,-0.155219 0.05115,-0.266341 0.05292,-0.111123 0.1464,-0.171094 0.09525,-0.05997 0.220481,-0.05997 z m -0.0018,0.126998 q -0.111122,0 -0.176385,0.07232 -0.0635,0.07055 -0.07584,0.197552 h 0.481531 q -0.0018,-0.119942 -0.05644,-0.194024 -0.05468,-0.07584 -0.172857,-0.07584 z"
         id="path2671" />
      <path
         d="m 13.407123,13.935849 q 0,0.13758 -0.102304,0.208134 -0.102303,0.07055 -0.27516,0.07055 -0.09878,0 -0.171094,-0.01587 -0.07055,-0.01587 -0.125233,-0.0441 v -0.141108 q 0.05644,0.02822 0.135817,0.05292 0.08114,0.02293 0.164038,0.02293 0.118178,0 0.171093,-0.03704 0.05292,-0.0388 0.05292,-0.102304 0,-0.03528 -0.0194,-0.0635 -0.0194,-0.02822 -0.07055,-0.05644 -0.04939,-0.02822 -0.142872,-0.0635 -0.09172,-0.03528 -0.156982,-0.07055 -0.06526,-0.03528 -0.10054,-0.08466 -0.03528,-0.04939 -0.03528,-0.126997 0,-0.119942 0.09701,-0.185204 0.09878,-0.06526 0.257522,-0.06526 0.08643,0 0.16051,0.01764 0.07585,0.01588 0.141108,0.04586 l -0.05292,0.123469 q -0.05997,-0.02469 -0.125233,-0.04233 -0.06526,-0.01764 -0.134053,-0.01764 -0.09525,0 -0.1464,0.03175 -0.04939,0.02998 -0.04939,0.0829 0,0.0388 0.02293,0.06703 0.02293,0.02646 0.07585,0.05292 0.05468,0.02469 0.144636,0.05997 0.08996,0.03351 0.153455,0.06879 0.0635,0.03528 0.09701,0.08643 0.03351,0.04939 0.03351,0.125234 z"
         id="path2673" />
    </g>
  </g>
</svg>
