<?xml version="1.0" encoding="UTF-8" standalone="no"?>
<svg
   width="64"
   height="64"
   version="1.1"
   viewBox="0 0 16.933 16.933"
   id="svg7"
   sodipodi:docname="Settings Template.svg"
   inkscape:version="1.4 (e7c3feb100, 2024-10-09)"
   xmlns:inkscape="http://www.inkscape.org/namespaces/inkscape"
   xmlns:sodipodi="http://sodipodi.sourceforge.net/DTD/sodipodi-0.dtd"
   xmlns:xlink="http://www.w3.org/1999/xlink"
   xmlns="http://www.w3.org/2000/svg"
   xmlns:svg="http://www.w3.org/2000/svg"
   xmlns:rdf="http://www.w3.org/1999/02/22-rdf-syntax-ns#"
   xmlns:cc="http://creativecommons.org/ns#"
   xmlns:dc="http://purl.org/dc/elements/1.1/">
  <sodipodi:namedview
     id="namedview7"
     pagecolor="#9c4444"
     bordercolor="#000000"
     borderopacity="0.25"
     inkscape:showpageshadow="2"
     inkscape:pageopacity="0.0"
     inkscape:pagecheckerboard="0"
     inkscape:deskcolor="#d1d1d1"
     inkscape:zoom="6.15625"
     inkscape:cx="15.675127"
     inkscape:cy="29.807107"
     inkscape:window-width="1183"
     inkscape:window-height="973"
     inkscape:window-x="35"
     inkscape:window-y="32"
     inkscape:window-maximized="0"
     inkscape:current-layer="svg7"
     showgrid="false" />
  <defs
     id="defs2">
    <rect
       x="67.489848"
       y="35.60533"
       width="15.337563"
       height="22.51269"
       id="rect3808" />
    <linearGradient
       inkscape:collect="always"
       id="linearGradient1134">
      <stop
         style="stop-color:#161616;stop-opacity:1;"
         offset="0"
         id="stop1130" />
      <stop
         style="stop-color:#404040;stop-opacity:1;"
         offset="1"
         id="stop1132" />
    </linearGradient>
    <linearGradient
       inkscape:collect="always"
       id="linearGradient883">
      <stop
         style="stop-color:#808080;stop-opacity:1;"
         offset="0"
         id="stop879" />
      <stop
         style="stop-color:#3e3e3e;stop-opacity:1;"
         offset="0.5"
         id="stop1216" />
      <stop
         style="stop-color:#242424;stop-opacity:1;"
         offset="1"
         id="stop881" />
    </linearGradient>
    <linearGradient
       inkscape:collect="always"
       xlink:href="#linearGradient883"
       id="linearGradient885"
       x1="2.1085808"
       y1="2.0236168"
       x2="14.846128"
       y2="15.071845"
       gradientUnits="userSpaceOnUse" />
    <linearGradient
       inkscape:collect="always"
       xlink:href="#linearGradient1134"
       id="linearGradient1136"
       x1="14.971222"
       y1="14.703373"
       x2="2.0756054"
       y2="2.0069976"
       gradientUnits="userSpaceOnUse" />
    <filter
       style="color-interpolation-filters:sRGB;"
       inkscape:label="Blur"
       id="filter1283"
       x="-0.082344266"
       y="-0.082344266"
       width="1.1646885"
       height="1.1646885">
      <feGaussianBlur
         stdDeviation="0.5 0.5"
         result="blur"
         id="feGaussianBlur1281" />
    </filter>
    <filter
       style="color-interpolation-filters:sRGB;"
       inkscape:label="Blur"
       id="filter3148"
       x="-0.94955398"
       y="-0.2118907"
       width="2.899108"
       height="1.4237814">
      <feGaussianBlur
         stdDeviation="0.2 0.2"
         result="blur"
         id="feGaussianBlur3146" />
    </filter>
  </defs>
  <metadata
     id="metadata2">
    <rdf:RDF>
      <cc:Work
         rdf:about="">
        <dc:format>image/svg+xml</dc:format>
        <dc:type
           rdf:resource="http://purl.org/dc/dcmitype/StillImage" />
      </cc:Work>
    </rdf:RDF>
  </metadata>
  <rect
     style="fill:#000000;stroke:none;stroke-width:0.539739;stroke-dasharray:none;filter:url(#filter1283)"
     id="rect246-1"
     width="14.572964"
     height="14.572964"
     x="1.1932471"
     y="1.2138842"
     rx="2.1589575"
     ry="2.1589575" />
  <rect
     style="opacity:1;fill:#000000;stroke:url(#linearGradient885);stroke-width:0.52915625;stroke-dasharray:none"
     id="rect246"
     width="14.287219"
     height="14.287219"
     x="1.3361193"
     y="1.3567564"
     rx="2.1166251"
     ry="2.1166251" />
  <rect
     style="fill:url(#linearGradient1136);fill-opacity:1;stroke:none;stroke-width:0.478315;stroke-dasharray:none"
     id="rect246-5"
     width="12.914515"
     height="12.914515"
     x="2.0224717"
     y="2.0431087"
     rx="1.5874687"
     ry="1.5874687" />
  <path
     id="path5-3"
     style="fill:#999999;fill-opacity:1;stroke:none;stroke-width:0.207702;stroke-dasharray:none;stroke-opacity:0.3"
     d="M 8.8335081,3.9315184 C 8.6196298,3.9954504 8.3622002,4.0936278 8.2186285,4.1694708 7.8213858,4.3793436 7.5408218,4.6651015 7.3020219,5.1030268 7.171874,5.3416972 7.0787054,5.5623264 6.8915694,6.0757956 6.69393,6.6180832 6.6390044,6.7528486 6.5100515,7.0113303 6.307753,7.4168325 6.1411005,7.5618863 5.7543203,7.6692229 5.5012299,7.7394608 5.2801015,7.7400219 5.0471599,7.6710818 4.9376486,7.6386716 4.74319,7.5398464 4.6453356,7.4669163 4.5522915,7.3975706 4.3611656,7.2007044 4.3485019,7.1611522 c -0.020506,-0.064046 -0.015493,0.013602 0.01148,0.1780564 0.088476,0.5394418 0.2811015,1.072841 0.5323665,1.4742463 0.2787112,0.4452547 0.7424371,0.8487615 1.2913386,1.1233782 0.3864676,0.1933529 0.7092394,0.2940419 1.1545157,0.3603609 0.6011247,0.08953 1.0953016,0.06302 1.7546867,-0.09409 C 9.2249369,10.171638 9.6469791,10.019395 9.8060088,9.9458818 10.691139,9.5363786 11.407152,8.8670282 11.835477,8.0487193 11.988744,7.7559049 12.115651,7.1740548 12.123442,6.7284174 12.1303,6.3363256 12.086658,6.0392393 11.968021,5.6687783 11.833221,5.2478511 11.630963,4.8421362 11.427033,4.5837787 10.911495,3.9306407 10.026154,3.6714439 9.0269374,3.8809691 8.9711914,3.8926562 8.9047918,3.910183 8.8335077,3.9315162 Z m 1.1015875,0.9352203 c 0.1518784,-0.048628 0.2755974,-0.017744 0.3786764,0.094347 0.143174,0.1556945 0.133628,0.4052221 -0.02053,0.5367829 -0.092,0.078513 -0.242398,0.1114465 -0.350587,0.076789 C 9.8078479,5.5314743 9.7243895,5.4403224 9.6899346,5.298666 9.6643521,5.1938406 9.6696657,5.138026 9.7133395,5.0514937 9.7643832,4.9503312 9.8205914,4.903403 9.9351012,4.8667397 Z m 0.2032934,0.03113 c -0.09431,0.030197 -0.104464,0.1614401 -0.01607,0.2070859 0.02757,0.014248 0.05908,0.017746 0.08536,0.00933 0.05546,-0.017756 0.09119,-0.087146 0.07339,-0.1427368 -0.0178,-0.05559 -0.08723,-0.091442 -0.142687,-0.073685 z m 1.609998,0.1725063 c -0.0018,0.00352 0.02649,0.07061 0.06296,0.1491281 0.03644,0.078527 0.07502,0.16923 0.08564,0.201554 0.01363,0.04153 0.02374,0.055121 0.034,0.046528 0.008,-0.00667 0.08578,-0.092672 0.172759,-0.1910108 0.08698,-0.098337 0.16364,-0.1830564 0.170315,-0.1882204 0.0066,-0.00514 0.0082,-0.011484 0.0033,-0.014031 -0.01399,-0.00719 -0.525371,-0.011011 -0.528967,-0.00394 z M 7.6766368,6.8685314 c 0.077815,-0.026658 0.1610398,-0.039592 0.2498078,-0.038766 0.3640862,0.00339 0.7174534,0.3028075 0.7320945,0.6202004 0.00598,0.1296617 -0.016782,0.2847366 -0.059954,0.408223 -0.065304,0.1867865 -0.1590343,0.2964224 -0.344052,0.402027 -0.1144012,0.065297 -0.5074387,0.2134499 -0.6165094,0.2324477 -0.023231,0.0041 -0.099032,0.018279 -0.168401,0.031569 -0.069368,0.01329 -0.2276774,0.03435 -0.3517809,0.04679 -0.2412325,0.024202 -1.0493117,0.05865 -1.0539918,0.044929 -0.00156,-0.00458 0.028334,-0.0224 0.066451,-0.039737 C 6.2499734,8.5217421 6.4979342,8.3599226 6.6283851,8.2511992 6.922096,8.0064062 7.0777022,7.7763178 7.1695562,7.4510975 7.2130036,7.2972645 7.2572381,7.2059158 7.3312887,7.1168117 7.4321179,6.9954846 7.5469235,6.9128992 7.6766378,6.8685343 Z" />
  <g
     aria-label="Krita"
     id="text1450"
     style="font-size:1.76385px;opacity:1;fill:#5555ff;stroke-width:0.529156">
    <rect
       style="font-size:1.76385px;fill:#5555ff;fill-opacity:1;stroke:none;stroke-width:0.519976;stroke-dasharray:none;filter:url(#filter3148)"
       id="rect1656-3"
       width="0.5055005"
       height="2.2653189"
       x="15.369148"
       y="4.3016486"
       rx="0"
       ry="0" />
    <rect
       style="opacity:1;fill:#5555ff;fill-opacity:1;stroke:none;stroke-width:0.519976;stroke-dasharray:none"
       id="rect1656"
       width="0.5055005"
       height="2.2653189"
       x="15.369148"
       y="4.3016486"
       rx="0"
       ry="0" />
  </g>
  <path
     d="m 6.5246708,13.734527 q 0,0.130525 -0.052916,0.236356 -0.052916,0.104067 -0.1622742,0.165802 -0.1075949,0.05997 -0.2751606,0.05997 -0.2345921,0 -0.3580616,-0.126998 -0.1217056,-0.128761 -0.1217056,-0.338659 v -0.811371 h 0.1587465 v 0.816663 q 0,0.153455 0.081137,0.238119 0.082901,0.08466 0.2487028,0.08466 0.1710935,0 0.246939,-0.08996 0.077609,-0.09172 0.077609,-0.234592 v -0.814899 h 0.1569827 z m 0.4656579,-0.569724 q 0,0.05997 -0.00353,0.112887 -0.00176,0.05115 -0.00529,0.08114 h 0.00882 q 0.040569,-0.05997 0.1111226,-0.10054 0.070554,-0.04057 0.1816765,-0.04057 0.176385,0 0.282216,0.123469 0.1075949,0.121706 0.1075949,0.365117 0,0.243412 -0.1075949,0.366881 -0.1075948,0.12347 -0.282216,0.12347 -0.1111225,0 -0.1816765,-0.04057 -0.070554,-0.04057 -0.1111226,-0.09701 h -0.012347 l -0.031749,0.119942 H 6.8351099 v -1.340526 h 0.1552188 z m 0.2663414,0.181677 q -0.1499273,0 -0.2081343,0.08643 -0.058207,0.08643 -0.058207,0.268105 v 0.0071 q 0,0.174621 0.056443,0.268105 0.058207,0.09172 0.2134259,0.09172 0.1269972,0 0.1887319,-0.09348 0.063499,-0.09348 0.063499,-0.269869 0,-0.358061 -0.2557582,-0.358061 z m 1.4534118,-0.112887 v 0.945424 H 8.5830848 l -0.02293,-0.125233 h -0.00706 q -0.04586,0.07408 -0.1269972,0.109358 -0.081137,0.03351 -0.1728573,0.03351 -0.1710934,0 -0.2575221,-0.08114 -0.086429,-0.0829 -0.086429,-0.262813 v -0.619112 h 0.1569826 v 0.608529 q 0,0.225773 0.2098982,0.225773 0.1569826,0 0.2169535,-0.08819 0.061735,-0.08819 0.061735,-0.253994 v -0.492115 z m 0.7549278,-0.01764 q 0.1693296,0 0.2557583,0.0829 0.086429,0.08114 0.086429,0.264577 v 0.615584 H 9.6537417 v -0.605 q 0,-0.227537 -0.211662,-0.227537 -0.1569827,0 -0.2169536,0.08819 -0.059971,0.08819 -0.059971,0.253995 v 0.49035 H 9.0099364 v -0.945424 h 0.1252334 l 0.02293,0.128762 h 0.00882 q 0.04586,-0.07408 0.1269972,-0.109359 0.081137,-0.03704 0.1710934,-0.03704 z m 0.9507153,0.853703 q 0.03528,0 0.07232,-0.0053 0.03704,-0.0071 0.05997,-0.01411 v 0.118178 q -0.02469,0.01235 -0.07055,0.0194 -0.04586,0.0088 -0.08819,0.0088 -0.07408,0 -0.13758,-0.02469 -0.06174,-0.02646 -0.10054,-0.08996 -0.0388,-0.0635 -0.0388,-0.178149 V 13.353535 H 9.9782901 v -0.07408 l 0.1358169,-0.06173 0.06173,-0.201079 h 0.09172 v 0.216953 h 0.273397 v 0.119942 h -0.273397 v 0.546794 q 0,0.08643 0.04057,0.128761 0.04233,0.04057 0.107595,0.04057 z m 1.111226,-0.836065 v 0.945424 h -0.126997 l -0.02293,-0.125233 h -0.0071 q -0.04586,0.07408 -0.126997,0.109358 -0.08114,0.03351 -0.172857,0.03351 -0.171094,0 -0.257523,-0.08114 -0.08643,-0.0829 -0.08643,-0.262813 v -0.619112 h 0.156982 v 0.608529 q 0,0.225773 0.209899,0.225773 0.156982,0 0.216953,-0.08819 0.06174,-0.08819 0.06174,-0.253994 v -0.492115 z"
     id="text2284"
     style="font-size:1.76385px;fill:#999999;stroke-width:0.529156"
     aria-label="Ubuntu" />
  <text
     xml:space="preserve"
     transform="scale(0.26457812)"
     id="text3806"
     style="font-size:6.66667px;white-space:pre;shape-inside:url(#rect3808);display:inline;fill:#999999;stroke-width:2" />
</svg>
