<?xml version="1.0" encoding="UTF-8" standalone="no"?>
<svg
   width="64"
   height="64"
   version="1.1"
   viewBox="0 0 16.933 16.933"
   id="svg7"
   sodipodi:docname="Graphics Template.svg"
   inkscape:version="1.4 (e7c3feb100, 2024-10-09)"
   xmlns:inkscape="http://www.inkscape.org/namespaces/inkscape"
   xmlns:sodipodi="http://sodipodi.sourceforge.net/DTD/sodipodi-0.dtd"
   xmlns:xlink="http://www.w3.org/1999/xlink"
   xmlns="http://www.w3.org/2000/svg"
   xmlns:svg="http://www.w3.org/2000/svg"
   xmlns:rdf="http://www.w3.org/1999/02/22-rdf-syntax-ns#"
   xmlns:cc="http://creativecommons.org/ns#"
   xmlns:dc="http://purl.org/dc/elements/1.1/">
  <sodipodi:namedview
     id="namedview7"
     pagecolor="#9c4444"
     bordercolor="#000000"
     borderopacity="0.25"
     inkscape:showpageshadow="2"
     inkscape:pageopacity="0.0"
     inkscape:pagecheckerboard="0"
     inkscape:deskcolor="#d1d1d1"
     inkscape:zoom="6.15625"
     inkscape:cx="15.675127"
     inkscape:cy="27.370558"
     inkscape:window-width="1183"
     inkscape:window-height="973"
     inkscape:window-x="35"
     inkscape:window-y="32"
     inkscape:window-maximized="0"
     inkscape:current-layer="svg7"
     showgrid="false" />
  <defs
     id="defs2">
    <linearGradient
       inkscape:collect="always"
       id="linearGradient1134">
      <stop
         style="stop-color:#161616;stop-opacity:1;"
         offset="0"
         id="stop1130" />
      <stop
         style="stop-color:#404040;stop-opacity:1;"
         offset="1"
         id="stop1132" />
    </linearGradient>
    <linearGradient
       inkscape:collect="always"
       id="linearGradient883">
      <stop
         style="stop-color:#808080;stop-opacity:1;"
         offset="0"
         id="stop879" />
      <stop
         style="stop-color:#3e3e3e;stop-opacity:1;"
         offset="0.5"
         id="stop1216" />
      <stop
         style="stop-color:#242424;stop-opacity:1;"
         offset="1"
         id="stop881" />
    </linearGradient>
    <linearGradient
       inkscape:collect="always"
       xlink:href="#linearGradient883"
       id="linearGradient885"
       x1="2.1085808"
       y1="2.0236168"
       x2="14.846128"
       y2="15.071845"
       gradientUnits="userSpaceOnUse" />
    <linearGradient
       inkscape:collect="always"
       xlink:href="#linearGradient1134"
       id="linearGradient1136"
       x1="14.971222"
       y1="14.703373"
       x2="2.0756054"
       y2="2.0069976"
       gradientUnits="userSpaceOnUse" />
    <filter
       style="color-interpolation-filters:sRGB;"
       inkscape:label="Blur"
       id="filter1283"
       x="-0.082344266"
       y="-0.082344266"
       width="1.1646885"
       height="1.1646885">
      <feGaussianBlur
         stdDeviation="0.5 0.5"
         result="blur"
         id="feGaussianBlur1281" />
    </filter>
    <filter
       style="color-interpolation-filters:sRGB;"
       inkscape:label="Blur"
       id="filter1694"
       x="-0.94955398"
       y="-0.2118907"
       width="2.899108"
       height="1.4237814">
      <feGaussianBlur
         stdDeviation="0.2 0.2"
         result="blur"
         id="feGaussianBlur1692" />
    </filter>
  </defs>
  <metadata
     id="metadata2">
    <rdf:RDF>
      <cc:Work
         rdf:about="">
        <dc:format>image/svg+xml</dc:format>
        <dc:type
           rdf:resource="http://purl.org/dc/dcmitype/StillImage" />
      </cc:Work>
    </rdf:RDF>
  </metadata>
  <rect
     style="fill:#000000;stroke:none;stroke-width:0.539739;stroke-dasharray:none;filter:url(#filter1283)"
     id="rect246-1"
     width="14.572964"
     height="14.572964"
     x="1.1932471"
     y="1.2138842"
     rx="2.1589575"
     ry="2.1589575" />
  <rect
     style="opacity:1;fill:#000000;stroke:url(#linearGradient885);stroke-width:0.52915625;stroke-dasharray:none"
     id="rect246"
     width="14.287219"
     height="14.287219"
     x="1.3361193"
     y="1.3567564"
     rx="2.1166251"
     ry="2.1166251" />
  <rect
     style="fill:url(#linearGradient1136);fill-opacity:1;stroke:none;stroke-width:0.478315;stroke-dasharray:none"
     id="rect246-5"
     width="12.914515"
     height="12.914515"
     x="2.0224717"
     y="2.0431087"
     rx="1.5874687"
     ry="1.5874687" />
  <path
     style="fill:#999999;fill-opacity:1;stroke:none;stroke-width:0.203805;stroke-dasharray:none;stroke-opacity:0.3"
     d="m 9.8609437,10.973115 c -1.29e-4,-0.0551 -0.0076,-0.161806 -0.01663,-0.237107 -0.01489,-0.12444 -0.02508,-0.14108 -0.1119281,-0.182663 -0.05255,-0.02516 -0.140198,-0.08126 -0.1947759,-0.124679 l -0.09923,-0.07892 -0.1870531,0.0946 c -0.102881,0.05204 -0.1963349,0.09458 -0.2076729,0.09457 -0.01133,-1.6e-5 -0.07327,-0.09921 -0.1376247,-0.220434 C 8.8416897,10.197259 8.748642,10.024347 8.6992839,9.9342317 l -0.089738,-0.163856 0.1786311,-0.13363 0.1786324,-0.133632 0.0016,-0.2615633 0.0016,-0.261562 L 8.7914518,8.8457759 8.6128482,8.711559 8.7751959,8.40285 C 8.864483,8.2330578 8.9598354,8.056633 8.9870784,8.0107928 l 0.04953,-0.083336 0.1981509,0.1042682 0.19815,0.104268 0.1163264,-0.089169 c 0.06399,-0.049037 0.152825,-0.1043466 0.1974389,-0.1229061 0.07172,-0.029832 0.08304,-0.049783 0.09769,-0.1722261 0.0091,-0.076164 0.01668,-0.1895881 0.0168,-0.2520455 l 2.5e-4,-0.113554 h 0.4257164 0.425715 v 0.08959 c 0,0.049264 0.0076,0.1627194 0.01691,0.2520909 0.01524,0.1464682 0.0244,0.1656061 0.09278,0.1940534 0.04172,0.017358 0.131744,0.071442 0.200037,0.1202088 l 0.124166,0.088655 0.202163,-0.1020745 0.202163,-0.1020699 0.204733,0.3928332 0.204733,0.3928315 -0.178173,0.1338873 -0.178175,0.1338854 0.0026,0.2623321 0.0026,0.2623312 0.176405,0.131965 0.176403,0.131966 L 11.783136,10.107 c -0.09848,0.186134 -0.193144,0.362471 -0.210361,0.391862 -0.03055,0.05212 -0.03624,0.05099 -0.232715,-0.04657 l -0.201392,-0.09999 -0.114909,0.08807 c -0.0632,0.04845 -0.152169,0.10358 -0.197715,0.122525 -0.08159,0.03393 -0.08309,0.03796 -0.101349,0.272423 l -0.01853,0.23798 H 10.283793 9.8615067 l -2.48e-4,-0.100194 z M 10.593227,9.8587997 C 10.813771,9.7290098 10.92561,9.5196158 10.925205,9.2372344 10.924493,8.7158932 10.451979,8.3880302 10.01912,8.6084783 9.7606857,8.7400952 9.6331117,8.9807984 9.6532737,9.2987494 c 0.03208,0.5060063 0.5288433,0.8019876 0.9399533,0.5600503 z"
     id="path792" />
  <path
     d="M 6.0967431,3.6206747 9.8268802,4.6836625 9.6162646,5.4227338 6.7643185,4.6100064 6.2191964,6.5228967 8.7929032,7.2563333 8.582288,7.9954047 6.0085809,7.2619677 5.1252358,10.36172 4.2470452,10.111459 Z"
     id="text1"
     style="font-size:48.4848px;-inkscape-font-specification:sans-serif;fill:#999999;fill-opacity:1;stroke-width:0.694357"
     aria-label="F" />
  <g
     aria-label="Krita"
     id="text1450"
     style="font-size:1.76385px;opacity:1;fill:#999999;stroke-width:0.529156">
    <rect
       style="font-size:1.76385px;fill:#00ff00;fill-opacity:1;stroke:none;stroke-width:0.519976;stroke-dasharray:none;filter:url(#filter1694)"
       id="rect1656-7"
       width="0.5055005"
       height="2.2653189"
       x="15.369148"
       y="4.3016486"
       rx="0"
       ry="0" />
    <rect
       style="opacity:1;fill:#00ff00;fill-opacity:1;stroke:none;stroke-width:0.519976;stroke-dasharray:none"
       id="rect1656"
       width="0.5055005"
       height="2.2653189"
       x="15.369148"
       y="4.3016486"
       rx="0"
       ry="0" />
  </g>
  <path
     d="M 5.408241,14.179017 H 5.2494945 v -1.259389 h 0.7037762 v 0.139344 H 5.408241 v 0.446254 h 0.5115165 v 0.139345 H 5.408241 Z m 1.1764864,-0.963062 q 0.026458,0 0.056443,0.0035 0.031749,0.0018 0.054679,0.0071 l -0.019402,0.142872 q -0.02293,-0.0053 -0.051152,-0.0088 -0.026458,-0.0035 -0.051152,-0.0035 -0.072318,0 -0.1358165,0.04057 -0.063499,0.0388 -0.1023033,0.111122 -0.037041,0.07055 -0.037041,0.165802 v 0.504461 H 6.1437649 v -0.945424 h 0.1269972 l 0.017639,0.172858 h 0.00706 q 0.04586,-0.07761 0.1181779,-0.134053 0.072318,-0.05644 0.1710935,-0.05644 z m 0.6173469,0 q 0.1217056,0 0.2081343,0.05292 0.088192,0.05292 0.1340526,0.149928 0.047624,0.09525 0.047624,0.224009 v 0.09348 H 6.9445522 q 0.00353,0.16051 0.081137,0.245175 0.079373,0.0829 0.2204812,0.0829 0.089956,0 0.1587465,-0.01588 0.070554,-0.01764 0.1446357,-0.04939 v 0.135817 q -0.072318,0.03175 -0.1428718,0.04586 -0.070554,0.01588 -0.1675658,0.01588 -0.1340526,0 -0.2381197,-0.05468 -0.1023033,-0.05468 -0.1605104,-0.162274 -0.056443,-0.109359 -0.056443,-0.266341 0,-0.155219 0.051152,-0.266342 0.052916,-0.111122 0.1463995,-0.171093 0.095248,-0.05997 0.2204813,-0.05997 z m -0.00176,0.126997 q -0.1111225,0 -0.176385,0.07232 -0.063499,0.07055 -0.075846,0.197551 h 0.481531 q -0.00176,-0.119942 -0.056443,-0.194023 -0.054679,-0.07585 -0.1728573,-0.07585 z m 0.9965737,-0.126997 q 0.1217057,0 0.2081343,0.05292 0.088192,0.05292 0.1340526,0.149928 0.047624,0.09525 0.047624,0.224009 v 0.09348 H 7.939362 q 0.00353,0.16051 0.081137,0.245175 0.079373,0.0829 0.2204813,0.0829 0.089956,0 0.1587465,-0.01588 0.070554,-0.01764 0.1446357,-0.04939 v 0.135817 q -0.072318,0.03175 -0.1428719,0.04586 -0.070554,0.01588 -0.1675657,0.01588 -0.1340526,0 -0.2381198,-0.05468 -0.1023033,-0.05468 -0.1605103,-0.162274 -0.056443,-0.109359 -0.056443,-0.266341 0,-0.155219 0.051152,-0.266342 0.052915,-0.111122 0.1463996,-0.171093 0.095248,-0.05997 0.2204812,-0.05997 z m -0.00176,0.126997 q -0.1111226,0 -0.176385,0.07232 -0.063499,0.07055 -0.075846,0.197551 h 0.4815311 q -0.00176,-0.119942 -0.056443,-0.194023 -0.054679,-0.07585 -0.1728573,-0.07585 z m 1.1923613,-0.301618 q -0.2028428,0 -0.3192569,0.135816 -0.1164141,0.135817 -0.1164141,0.372173 0,0.234592 0.1075949,0.372172 0.1093587,0.135816 0.3263122,0.135816 0.082901,0 0.1569827,-0.01411 0.074082,-0.01411 0.1446357,-0.03528 v 0.13758 q -0.070554,0.02646 -0.1463996,0.0388 -0.074082,0.01235 -0.1781488,0.01235 -0.1922597,0 -0.3210207,-0.07937 -0.1287611,-0.07937 -0.1940235,-0.225772 -0.063499,-0.1464 -0.063499,-0.343951 0,-0.190496 0.06879,-0.335132 0.070554,-0.146399 0.2063705,-0.227536 0.1358164,-0.0829 0.3298399,-0.0829 0.1993151,0 0.3474785,0.07408 l -0.063499,0.134053 q -0.058207,-0.02646 -0.1305249,-0.04762 -0.070554,-0.02117 -0.1552188,-0.02117 z m 0.9119104,0.176385 q 0.172857,0 0.255758,0.07584 0.0829,0.07585 0.0829,0.241648 v 0.643805 h -0.112886 l -0.02999,-0.134053 h -0.0071 q -0.06173,0.07761 -0.130525,0.114651 -0.06703,0.03704 -0.186968,0.03704 -0.128761,0 -0.2134258,-0.06703 -0.084665,-0.06879 -0.084665,-0.213426 0,-0.141108 0.1111225,-0.216953 0.1111221,-0.07761 0.3421871,-0.08466 l 0.16051,-0.0053 v -0.05644 q 0,-0.118178 -0.05115,-0.164038 -0.05115,-0.04586 -0.144636,-0.04586 -0.07408,0 -0.141108,0.02293 -0.06703,0.02117 -0.125234,0.04939 l -0.047624,-0.116414 q 0.061735,-0.03351 0.1463995,-0.05644 0.08467,-0.02469 0.176385,-0.02469 z m 0.04586,0.504461 q -0.176385,0.0071 -0.245175,0.05644 -0.06703,0.04939 -0.06703,0.139344 0,0.07937 0.04762,0.116414 0.04939,0.03704 0.125233,0.03704 0.119942,0 0.199315,-0.06526 0.07937,-0.06703 0.07937,-0.204607 v -0.08466 z m 0.920731,0.474476 q -0.176385,0 -0.282216,-0.121706 -0.105831,-0.12347 -0.105831,-0.366881 0,-0.243411 0.105831,-0.366881 0.107595,-0.125233 0.28398,-0.125233 0.109359,0 0.178149,0.04057 0.07055,0.04057 0.11465,0.09877 h 0.01058 q -0.0018,-0.02293 -0.0071,-0.06703 -0.0035,-0.04586 -0.0035,-0.07232 v -0.377464 h 0.155219 v 1.340526 h -0.125234 l -0.02293,-0.126997 h -0.0071 q -0.04233,0.05997 -0.112886,0.102303 -0.07055,0.04233 -0.181677,0.04233 z m 0.02469,-0.128761 q 0.149927,0 0.209898,-0.08114 0.06174,-0.0829 0.06174,-0.248702 v -0.02822 q 0,-0.176385 -0.05821,-0.269869 -0.05821,-0.09525 -0.21519,-0.09525 -0.125233,0 -0.188732,0.100539 -0.06173,0.09878 -0.06173,0.266342 0,0.169329 0.06173,0.262813 0.0635,0.09348 0.190496,0.09348 z"
     id="text2284"
     style="font-size:1.76385px;fill:#999999;stroke-width:0.529156"
     aria-label="FreeCad" />
</svg>
