<?xml version="1.0" encoding="UTF-8" standalone="no"?>
<svg
   width="64"
   height="64"
   version="1.1"
   viewBox="0 0 16.933 16.933"
   id="svg7"
   sodipodi:docname="System Template.svg"
   inkscape:version="1.4 (e7c3feb100, 2024-10-09)"
   xmlns:inkscape="http://www.inkscape.org/namespaces/inkscape"
   xmlns:sodipodi="http://sodipodi.sourceforge.net/DTD/sodipodi-0.dtd"
   xmlns:xlink="http://www.w3.org/1999/xlink"
   xmlns="http://www.w3.org/2000/svg"
   xmlns:svg="http://www.w3.org/2000/svg"
   xmlns:rdf="http://www.w3.org/1999/02/22-rdf-syntax-ns#"
   xmlns:cc="http://creativecommons.org/ns#"
   xmlns:dc="http://purl.org/dc/elements/1.1/">
  <sodipodi:namedview
     id="namedview7"
     pagecolor="#9c4444"
     bordercolor="#000000"
     borderopacity="0.25"
     inkscape:showpageshadow="2"
     inkscape:pageopacity="0.0"
     inkscape:pagecheckerboard="0"
     inkscape:deskcolor="#d1d1d1"
     inkscape:zoom="6.15625"
     inkscape:cx="31.431472"
     inkscape:cy="40.527919"
     inkscape:window-width="1183"
     inkscape:window-height="973"
     inkscape:window-x="35"
     inkscape:window-y="32"
     inkscape:window-maximized="0"
     inkscape:current-layer="svg7"
     showgrid="false" />
  <defs
     id="defs2">
    <linearGradient
       inkscape:collect="always"
       id="linearGradient1134">
      <stop
         style="stop-color:#161616;stop-opacity:1;"
         offset="0"
         id="stop1130" />
      <stop
         style="stop-color:#404040;stop-opacity:1;"
         offset="1"
         id="stop1132" />
    </linearGradient>
    <linearGradient
       inkscape:collect="always"
       id="linearGradient883">
      <stop
         style="stop-color:#808080;stop-opacity:1;"
         offset="0"
         id="stop879" />
      <stop
         style="stop-color:#3e3e3e;stop-opacity:1;"
         offset="0.5"
         id="stop1216" />
      <stop
         style="stop-color:#242424;stop-opacity:1;"
         offset="1"
         id="stop881" />
    </linearGradient>
    <linearGradient
       inkscape:collect="always"
       xlink:href="#linearGradient883"
       id="linearGradient885"
       x1="2.1085808"
       y1="2.0236168"
       x2="14.846128"
       y2="15.071845"
       gradientUnits="userSpaceOnUse" />
    <linearGradient
       inkscape:collect="always"
       xlink:href="#linearGradient1134"
       id="linearGradient1136"
       x1="14.971222"
       y1="14.703373"
       x2="2.0756054"
       y2="2.0069976"
       gradientUnits="userSpaceOnUse" />
    <filter
       style="color-interpolation-filters:sRGB;"
       inkscape:label="Blur"
       id="filter1283"
       x="-0.082344266"
       y="-0.082344266"
       width="1.1646885"
       height="1.1646885">
      <feGaussianBlur
         stdDeviation="0.5 0.5"
         result="blur"
         id="feGaussianBlur1281" />
    </filter>
    <filter
       style="color-interpolation-filters:sRGB;"
       inkscape:label="Blur"
       id="filter1694"
       x="-0.94955398"
       y="-0.2118907"
       width="2.899108"
       height="1.4237814">
      <feGaussianBlur
         stdDeviation="0.2 0.2"
         result="blur"
         id="feGaussianBlur1692" />
    </filter>
    <filter
       style="color-interpolation-filters:sRGB;"
       inkscape:label="Blur"
       id="filter3335"
       x="-0.94955398"
       y="-0.2118907"
       width="2.899108"
       height="1.4237814">
      <feGaussianBlur
         stdDeviation="0.2 0.2"
         result="blur"
         id="feGaussianBlur3333" />
    </filter>
  </defs>
  <metadata
     id="metadata2">
    <rdf:RDF>
      <cc:Work
         rdf:about="">
        <dc:format>image/svg+xml</dc:format>
        <dc:type
           rdf:resource="http://purl.org/dc/dcmitype/StillImage" />
      </cc:Work>
    </rdf:RDF>
  </metadata>
  <rect
     style="fill:#000000;stroke:none;stroke-width:0.539739;stroke-dasharray:none;filter:url(#filter1283)"
     id="rect246-1"
     width="14.572964"
     height="14.572964"
     x="1.1932471"
     y="1.2138842"
     rx="2.1589575"
     ry="2.1589575" />
  <rect
     style="opacity:1;fill:#000000;stroke:url(#linearGradient885);stroke-width:0.52915625;stroke-dasharray:none"
     id="rect246"
     width="14.287219"
     height="14.287219"
     x="1.3361193"
     y="1.3567564"
     rx="2.1166251"
     ry="2.1166251" />
  <g
     aria-label="Krita"
     id="text1450"
     style="font-size:1.76385px;opacity:1;fill:#999999;stroke-width:0.529156">
    <rect
       style="font-size:1.76385px;fill:#ff0000;fill-opacity:1;stroke:none;stroke-width:0.519976;stroke-dasharray:none;filter:url(#filter3335)"
       id="rect1656-0"
       width="0.5055005"
       height="2.2653189"
       x="15.369148"
       y="4.3016486"
       rx="0"
       ry="0" />
    <rect
       style="opacity:1;fill:#ff0000;fill-opacity:1;stroke:none;stroke-width:0.519976;stroke-dasharray:none"
       id="rect1656"
       width="0.5055005"
       height="2.2653189"
       x="15.369148"
       y="4.3016486"
       rx="0"
       ry="0" />
  </g>
  <rect
     style="fill:url(#linearGradient1136);fill-opacity:1;stroke:none;stroke-width:0.478315;stroke-dasharray:none"
     id="rect246-5"
     width="12.914515"
     height="12.914515"
     x="2.0224717"
     y="2.0431087"
     rx="1.5874687"
     ry="1.5874687" />
  <path
     style="fill:#999999;fill-opacity:1;stroke:none;stroke-width:0.192877;stroke-dasharray:none;stroke-dashoffset:2.2;stroke-opacity:0.3"
     d="M 8.3994125,11.462188 C 8.0390821,11.327694 7.5229893,11.00572 7.1774094,10.699821 6.0094962,9.6660093 5.352374,7.6981161 5.4075436,5.3995795 5.422537,4.7748578 5.4458635,4.6506717 5.559646,4.5897772 5.7086375,4.510039 8.4424,3.6059636 8.5318289,3.606854 c 0.055873,5.554e-4 0.7230942,0.2123423 1.5344331,0.4870519 1.690774,0.5724761 1.53889,0.4788515 1.569579,0.9675189 0.02914,0.4641664 -0.0042,1.4482892 -0.06425,1.8941146 -0.12913,0.959256 -0.333635,1.6675976 -0.686932,2.3793296 -0.45467,0.915951 -1.0905099,1.567722 -1.9334018,1.981845 -0.3713977,0.182471 -0.4190643,0.195038 -0.5518509,0.145474 z M 8.829883,8.384952 C 9.3068059,7.7309524 9.7172897,7.1533465 9.7420692,7.1013831 9.8085159,6.9620432 9.8010096,6.8075012 9.724058,6.7305487 9.6292825,6.6357732 9.4927487,6.6102502 9.079661,6.6100871 L 8.7045064,6.6099387 8.9035949,6.0715989 C 9.1403218,5.4314853 9.1576395,5.3400051 9.0604829,5.2428486 8.9935877,5.1759535 8.9835906,5.1743657 8.6292698,5.1743657 c -0.4067546,0 -0.4999459,0.026113 -0.6105099,0.1710702 -0.085775,0.1124567 -0.7040114,1.928209 -0.7040114,2.0676723 0,0.080384 0.018104,0.1229031 0.077709,0.1825086 l 0.077709,0.077709 H 7.814187 8.1582072 L 8.0015991,8.59602 c -0.086134,0.5074817 -0.1503359,0.9390388 -0.1426706,0.9590142 0.00766,0.019983 0.034161,0.032424 0.058879,0.027662 0.024718,-0.00478 0.4351524,-0.5437469 0.9120752,-1.1977462 z"
     id="path83" />
  <path
     d="M 5.5902742,14.182462 H 5.4315277 v -1.259389 h 0.7037761 v 0.139344 H 5.5902742 v 0.446254 h 0.5115165 v 0.139344 H 5.5902742 Z m 0.8148971,-1.299958 q 0.035277,0 0.061735,0.02469 0.028222,0.02293 0.028222,0.07408 0,0.04939 -0.028222,0.07408 -0.026458,0.02469 -0.061735,0.02469 -0.038805,0 -0.065262,-0.02469 -0.026458,-0.02469 -0.026458,-0.07408 0,-0.05115 0.026458,-0.07408 0.026458,-0.02469 0.065262,-0.02469 z m 0.075845,0.354534 v 0.945424 H 6.3257981 V 13.237038 Z M 7.2218329,13.2194 q 0.026458,0 0.056443,0.0035 0.031749,0.0018 0.054679,0.0071 l -0.019402,0.142872 q -0.02293,-0.0053 -0.051152,-0.0088 -0.026458,-0.0035 -0.051152,-0.0035 -0.072318,0 -0.1358165,0.04057 -0.063499,0.0388 -0.1023033,0.111123 -0.037041,0.07055 -0.037041,0.165802 v 0.504461 H 6.7808704 v -0.945424 h 0.1269972 l 0.017638,0.172857 h 0.00706 q 0.04586,-0.07761 0.1181779,-0.134052 0.072318,-0.05644 0.1710935,-0.05644 z m 0.6173467,0 q 0.1217056,0 0.2081343,0.05292 0.088192,0.05292 0.1340526,0.149927 0.047624,0.09525 0.047624,0.224009 v 0.09348 H 7.5816575 q 0.00353,0.160511 0.081137,0.245176 0.079373,0.0829 0.2204812,0.0829 0.089956,0 0.1587465,-0.01587 0.070554,-0.01764 0.1446357,-0.04939 v 0.135816 q -0.072318,0.03175 -0.1428718,0.04586 -0.070554,0.01587 -0.1675658,0.01587 -0.1340526,0 -0.2381197,-0.05468 -0.1023033,-0.05468 -0.1605104,-0.162274 -0.056443,-0.109359 -0.056443,-0.266342 0,-0.155218 0.051152,-0.266341 0.052916,-0.111123 0.1463995,-0.171093 0.095248,-0.05997 0.2204813,-0.05997 z m -0.00176,0.126997 q -0.1111225,0 -0.176385,0.07232 -0.063499,0.07055 -0.075846,0.197551 h 0.481531 q -0.00176,-0.119942 -0.056443,-0.194024 -0.054679,-0.07585 -0.1728573,-0.07585 z m 1.2064713,0.301618 q -0.02293,-0.07232 -0.040569,-0.141108 -0.015875,-0.07055 -0.024694,-0.109358 h -0.00706 q -0.00706,0.0388 -0.02293,0.109358 -0.015875,0.06879 -0.040569,0.142872 L 8.7387409,14.180698 H 8.5623559 L 8.30307,13.235274 h 0.1605103 l 0.1305249,0.504461 q 0.019402,0.07585 0.037041,0.153455 0.017639,0.07761 0.024694,0.128761 h 0.00706 q 0.00706,-0.02998 0.015875,-0.07408 0.010583,-0.0441 0.02293,-0.09172 0.012347,-0.04939 0.024694,-0.08819 l 0.1675657,-0.532683 h 0.1693296 l 0.1622742,0.532683 q 0.019402,0.05997 0.037041,0.130525 0.019402,0.07055 0.026458,0.121706 h 0.00706 q 0.00529,-0.0441 0.02293,-0.121706 0.019402,-0.07761 0.040569,-0.158747 L 9.4919049,13.235274 H 9.6506514 L 9.3878377,14.180698 H 9.2061612 Z m 1.134154,-0.426851 q 0.172858,0 0.255759,0.07584 0.0829,0.07585 0.0829,0.241647 v 0.643806 h -0.112887 l -0.02998,-0.134053 h -0.0071 q -0.06173,0.07761 -0.130525,0.11465 -0.06703,0.03704 -0.186968,0.03704 -0.1287607,0 -0.2134255,-0.06703 -0.084665,-0.06879 -0.084665,-0.213426 0,-0.141108 0.1111226,-0.216953 0.1111225,-0.07761 0.3421867,-0.08467 l 0.160511,-0.0053 v -0.05644 q 0,-0.118178 -0.05115,-0.164038 -0.05115,-0.04586 -0.144636,-0.04586 -0.07408,0 -0.141108,0.02293 -0.067026,0.02117 -0.1252332,0.04939 l -0.047624,-0.116414 q 0.061735,-0.03351 0.1463991,-0.05644 0.08466,-0.02469 0.176385,-0.02469 z m 0.04586,0.504461 q -0.176385,0.0071 -0.2451756,0.05644 -0.067026,0.04939 -0.067026,0.139344 0,0.07937 0.047624,0.116414 0.049388,0.03704 0.125233,0.03704 0.119942,0 0.199315,-0.06526 0.07937,-0.06703 0.07937,-0.204606 v -0.08466 z m 0.740818,0.456837 h -0.155219 v -1.340526 h 0.155219 z m 0.455072,0 h -0.155219 v -1.340526 h 0.155219 z"
     id="text1"
     style="font-size:1.76385px;text-align:center;text-anchor:middle;fill:#999999;stroke-width:0.264578"
     aria-label="Firewall" />
</svg>
