<?xml version="1.0" encoding="UTF-8" standalone="no"?>
<svg
   width="64"
   height="64"
   version="1.1"
   viewBox="0 0 16.933 16.933"
   id="svg7"
   sodipodi:docname="Multimedia Template.svg"
   inkscape:version="1.4 (e7c3feb100, 2024-10-09)"
   xmlns:inkscape="http://www.inkscape.org/namespaces/inkscape"
   xmlns:sodipodi="http://sodipodi.sourceforge.net/DTD/sodipodi-0.dtd"
   xmlns:xlink="http://www.w3.org/1999/xlink"
   xmlns="http://www.w3.org/2000/svg"
   xmlns:svg="http://www.w3.org/2000/svg"
   xmlns:rdf="http://www.w3.org/1999/02/22-rdf-syntax-ns#"
   xmlns:cc="http://creativecommons.org/ns#"
   xmlns:dc="http://purl.org/dc/elements/1.1/">
  <sodipodi:namedview
     id="namedview7"
     pagecolor="#9c4444"
     bordercolor="#000000"
     borderopacity="0.25"
     inkscape:showpageshadow="2"
     inkscape:pageopacity="0.0"
     inkscape:pagecheckerboard="0"
     inkscape:deskcolor="#d1d1d1"
     inkscape:zoom="6.15625"
     inkscape:cx="15.837563"
     inkscape:cy="29.807107"
     inkscape:window-width="1183"
     inkscape:window-height="973"
     inkscape:window-x="35"
     inkscape:window-y="32"
     inkscape:window-maximized="0"
     inkscape:current-layer="svg7"
     showgrid="false" />
  <defs
     id="defs2">
    <rect
       x="67.489848"
       y="35.60533"
       width="15.337563"
       height="22.51269"
       id="rect3808" />
    <linearGradient
       inkscape:collect="always"
       id="linearGradient1134">
      <stop
         style="stop-color:#161616;stop-opacity:1;"
         offset="0"
         id="stop1130" />
      <stop
         style="stop-color:#404040;stop-opacity:1;"
         offset="1"
         id="stop1132" />
    </linearGradient>
    <linearGradient
       inkscape:collect="always"
       id="linearGradient883">
      <stop
         style="stop-color:#808080;stop-opacity:1;"
         offset="0"
         id="stop879" />
      <stop
         style="stop-color:#3e3e3e;stop-opacity:1;"
         offset="0.5"
         id="stop1216" />
      <stop
         style="stop-color:#242424;stop-opacity:1;"
         offset="1"
         id="stop881" />
    </linearGradient>
    <linearGradient
       inkscape:collect="always"
       xlink:href="#linearGradient883"
       id="linearGradient885"
       x1="2.1085808"
       y1="2.0236168"
       x2="14.846128"
       y2="15.071845"
       gradientUnits="userSpaceOnUse" />
    <linearGradient
       inkscape:collect="always"
       xlink:href="#linearGradient1134"
       id="linearGradient1136"
       x1="14.971222"
       y1="14.703373"
       x2="2.0756054"
       y2="2.0069976"
       gradientUnits="userSpaceOnUse" />
    <filter
       style="color-interpolation-filters:sRGB;"
       inkscape:label="Blur"
       id="filter1283"
       x="-0.082344266"
       y="-0.082344266"
       width="1.1646885"
       height="1.1646885">
      <feGaussianBlur
         stdDeviation="0.5 0.5"
         result="blur"
         id="feGaussianBlur1281" />
    </filter>
    <filter
       style="color-interpolation-filters:sRGB;"
       inkscape:label="Blur"
       id="filter1694"
       x="-0.94955398"
       y="-0.2118907"
       width="2.899108"
       height="1.4237814">
      <feGaussianBlur
         stdDeviation="0.2 0.2"
         result="blur"
         id="feGaussianBlur1692" />
    </filter>
    <filter
       style="color-interpolation-filters:sRGB;"
       inkscape:label="Blur"
       id="filter3148"
       x="-0.94955398"
       y="-0.2118907"
       width="2.899108"
       height="1.4237814">
      <feGaussianBlur
         stdDeviation="0.2 0.2"
         result="blur"
         id="feGaussianBlur3146" />
    </filter>
    <clipPath
       clipPathUnits="userSpaceOnUse"
       id="clipPath44">
      <path
         id="path46"
         style="display:block;opacity:0.85;fill:#f2f2f2;stroke-width:4.39162"
         d="m 17.570312,8.4453125 a 6.5431988,7.4283052 9.9958727e-8 0 0 -6.535156,7.4394535 6.5431988,7.4283052 9.9958727e-8 0 0 6.552735,7.417968 6.5431988,7.4283052 9.9958727e-8 0 0 6.535156,-7.4375 6.5431988,7.4283052 9.9958727e-8 0 0 -6.552735,-7.4199215 z M 45.646484,41.177734 a 6.5431986,7.0703472 2.4665357e-6 0 0 -6.533203,7.080078 6.5431986,7.0703472 2.4665357e-6 0 0 6.550781,7.060547 6.5431986,7.0703472 2.4665357e-6 0 0 6.535157,-7.080078 6.5431986,7.0703472 2.4665357e-6 0 0 -6.552735,-7.060547 z" />
    </clipPath>
    <inkscape:path-effect
       effect="powerclip"
       id="path-effect48"
       is_visible="true"
       lpeversion="1"
       inverse="true"
       flatten="false"
       hide_clip="false"
       message="" />
  </defs>
  <metadata
     id="metadata2">
    <rdf:RDF>
      <cc:Work
         rdf:about="">
        <dc:format>image/svg+xml</dc:format>
        <dc:type
           rdf:resource="http://purl.org/dc/dcmitype/StillImage" />
      </cc:Work>
    </rdf:RDF>
  </metadata>
  <rect
     style="fill:#000000;stroke:none;stroke-width:0.539739;stroke-dasharray:none;filter:url(#filter1283)"
     id="rect246-1"
     width="14.572964"
     height="14.572964"
     x="1.1932471"
     y="1.2138842"
     rx="2.1589575"
     ry="2.1589575" />
  <rect
     style="opacity:1;fill:#000000;stroke:url(#linearGradient885);stroke-width:0.52915625;stroke-dasharray:none"
     id="rect246"
     width="14.287219"
     height="14.287219"
     x="1.3361193"
     y="1.3567564"
     rx="2.1166251"
     ry="2.1166251" />
  <rect
     style="fill:url(#linearGradient1136);fill-opacity:1;stroke:none;stroke-width:0.478315;stroke-dasharray:none"
     id="rect246-5"
     width="12.914515"
     height="12.914515"
     x="2.0224717"
     y="2.0431087"
     rx="1.5874687"
     ry="1.5874687" />
  <path
     id="path11"
     style="fill:#999999;stroke:#000000;stroke-width:0.00998649;stroke-dasharray:none"
     d="m 11.638066,3.7659506 c -0.0894,0.00284 -0.248685,0.030955 -0.352207,0.066239 -0.320394,0.1092036 -0.693953,0.4132142 -0.92661,0.754338 -0.04378,0.064176 -0.06225,0.084082 -0.06945,0.07489 -0.0054,-0.00689 -0.02896,-0.046054 -0.05265,-0.087248 C 10.089789,4.3179179 9.8413544,4.0748661 9.5619055,3.9135062 9.4752101,3.8634464 9.3397038,3.8005557 9.3330337,3.8072266 c -0.00186,0.00185 0.021263,0.039051 0.051162,0.082552 0.1724472,0.2509208 0.3102898,0.6430678 0.3826055,1.0887481 0.010692,0.065911 0.02251,0.1570336 0.026438,0.2024258 l 0.00713,0.082552 -0.1334485,-0.065251 C 9.476547,5.1053155 9.2683863,5.0435304 9.1461788,5.0435304 h -0.040039 l 0.081811,0.085271 c 0.056351,0.058697 0.1212779,0.1452112 0.207616,0.2770685 0.069059,0.1054683 0.1528414,0.2270537 0.1861123,0.270148 l 0.060308,0.07835 0.04054,-0.00643 c 0.1545514,-0.024848 0.4149859,-0.035684 0.4149859,-0.017302 0,0.00441 0.04426,0.013515 0.09837,0.020268 0.0541,0.00675 0.140661,0.023808 0.192293,0.038064 0.05164,0.014255 0.10891,0.027535 0.127536,0.029412 0.04181,0.00422 0.251314,0.1054129 0.34578,0.1670814 0.03845,0.025098 0.0724,0.042396 0.07563,0.038558 0.0032,-0.00384 0.02686,-0.034623 0.0524,-0.068464 0.179236,-0.2373883 0.506023,-0.3620287 1.055381,-0.4026267 0.172171,-0.012724 0.199706,-0.017465 0.199706,-0.03485 0,-0.024969 -0.234651,-0.2172886 -0.377909,-0.3096938 C 11.76715,5.1441748 11.62334,5.0775299 11.545141,5.059099 11.408955,5.027 11.246933,5.045948 11.116068,5.10952 c -0.06,0.029149 -0.09356,0.055379 -0.168811,0.1322316 l -0.09392,0.096146 0.0061,-0.1648569 c 0.01316,-0.3543847 0.113299,-0.6199948 0.344049,-0.912522 0.07484,-0.09487 0.259481,-0.2764704 0.356408,-0.3504755 0.04316,-0.032954 0.09618,-0.075361 0.117648,-0.094169 0.03409,-0.029876 0.03684,-0.035441 0.022,-0.043747 -0.0096,-0.00536 -0.03174,-0.00712 -0.06154,-0.00618 z m -2.6804716,1.33418 c -0.00823,-0.0045 -4.0616681,0.00881 -4.0655662,0.013347 -0.00237,0.00274 0.4162367,0.7418613 0.9303174,1.6426377 l 0.9347663,1.6376947 0.00247,1.0712003 0.00272,1.0709517 H 6.4424743 6.1228939 v 0.184878 0.18463 H 6.9417413 7.7605885 V 10.72084 10.535962 H 7.4410082 7.1214279 V 9.4778623 8.419762 L 8.0413645,6.7610584 C 8.5472478,5.8487083 8.9595361,5.1011935 8.9575944,5.1001306 Z m -2.0306824,0.37272 h 1.4231583 l -0.026199,0.052398 C 8.2547188,5.6624072 7.6330132,6.7505109 7.4204945,7.1063436 7.252891,7.3869719 7.1094674,7.565317 7.0163848,7.609071 6.8414815,7.6912852 6.6907253,7.556892 6.3952668,7.0556756 6.0570008,6.4818403 5.5037539,5.5059649 5.5037539,5.4832316 c 0,-0.0071 0.4466274,-0.010381 1.4231581,-0.010381 z m 3.19012,0.2867079 c -0.02314,2.277e-4 -0.02512,0.00623 -0.03115,0.029165 -0.01296,0.049328 -0.08084,0.102349 -0.2634757,0.2063801 C 9.6593521,6.0879837 9.649905,6.0919589 9.5928,6.0917437 9.4961076,6.0913894 9.459549,6.068766 9.3997667,5.9716232 c -0.027911,-0.045358 -0.052129,-0.086683 -0.053881,-0.091944 -0.0026,-0.00797 -0.1571948,0.04841 -0.1571948,0.057341 0,0.0016 0.020107,0.038364 0.044736,0.081563 0.078522,0.1377461 0.082046,0.2287572 0.011617,0.298325 C 9.181183,6.3799891 8.8751747,6.5537971 8.8046016,6.5670365 8.7273852,6.581522 8.6562615,6.5408618 8.5987158,6.4491403 8.580633,6.4203187 8.5642233,6.3947182 8.5623828,6.3922936 8.5569198,6.3851026 8.449677,6.4946882 8.449677,6.5074712 c 0,0.00645 0.00891,0.031422 0.019773,0.055364 0.023187,0.0511 0.025796,0.1253215 0.00618,0.1722719 -0.018722,0.044808 -0.069808,0.084315 -0.248892,0.1913033 l -0.1512674,0.090213 -0.047208,0.089473 c -0.026043,0.049213 -0.072453,0.1448829 -0.1030662,0.2125593 l -0.055611,0.1230865 0.02793,0.028671 c 0.033286,0.034145 0.1381771,0.2068851 0.2061332,0.3393532 0.045049,0.087812 0.048356,0.098766 0.043254,0.1482971 -0.00338,0.032671 -0.015036,0.067765 -0.029907,0.089967 -0.027122,0.040492 -0.1505939,0.1207795 -0.3378703,0.2199738 -0.082895,0.043907 -0.1178624,0.067987 -0.1220979,0.083787 -0.00328,0.012187 -0.0061,0.1379217 -0.00618,0.2795405 v 0.2575419 l 0.071924,0.1270413 c 0.066503,0.1171637 0.072458,0.1323207 0.076126,0.195011 0.00365,0.062577 0.00157,0.071946 -0.02793,0.1193799 l -0.032131,0.051408 0.016807,0.062289 c 0.022983,0.084906 0.033254,0.097421 0.068465,0.084033 0.038869,-0.014778 0.1107303,-0.013311 0.1502744,0.00324 0.041064,0.017154 0.064051,0.047115 0.1589252,0.2066277 0.140815,0.2367486 0.1583869,0.2895194 0.1228394,0.3714854 -0.015261,0.03519 -0.061037,0.08756 -0.090956,0.104302 -0.018261,0.01022 -0.01785,0.01211 0.00717,0.04425 0.072887,0.09365 0.08251,0.10178 0.105044,0.08972 0.029321,-0.0157 0.1259603,-0.01419 0.1658454,0.0025 0.045222,0.0189 0.07911,0.06296 0.1658457,0.21676 l 0.074396,0.132232 0.085271,0.03955 c 0.1061379,0.04925 0.1904396,0.08122 0.2943698,0.111964 0.1193501,0.03532 0.1354875,0.03343 0.2503751,-0.0309 0.2540866,-0.14227 0.2634367,-0.146401 0.3307027,-0.142118 0.076113,0.0049 0.114157,0.03143 0.1695529,0.117403 0.021433,0.03326 0.044137,0.06051 0.050414,0.06055 0.017109,1.26e-4 0.143353,-0.03992 0.143353,-0.04548 10e-7,-0.0027 -0.018333,-0.04135 -0.040779,-0.08601 -0.077724,-0.15459 -0.061308,-0.2345 0.065745,-0.318839 0.03845,-0.02552 0.129639,-0.07903 0.202426,-0.118885 0.224458,-0.122892 0.295372,-0.10999 0.404109,0.07267 0.02213,0.03717 0.04378,0.06969 0.04819,0.07242 0.0044,0.0027 0.03518,-0.01753 0.06846,-0.04524 l 0.06055,-0.05042 -0.04473,-0.08502 c -0.03578,-0.06783 -0.04499,-0.09519 -0.04499,-0.13495 0,-0.106338 0.02335,-0.1300936 0.271384,-0.2780572 l 0.168566,-0.1005957 h 0.07242 0.07242 l 0.05635,-0.102324 c 0.05002,-0.090779 0.147754,-0.2822697 0.147802,-0.2894265 10e-6,-0.00153 -0.02628,-0.00135 -0.05857,4.787e-4 -0.113305,0.00639 -0.157245,-0.039546 -0.322299,-0.3378719 -0.06025,-0.108899 -0.06352,-0.1181933 -0.06352,-0.1814166 0,-0.1043938 0.02975,-0.1333708 0.288438,-0.2812692 0.201296,-0.115088 0.259063,-0.1233076 0.344791,-0.049929 0.02363,0.020228 0.04583,0.032129 0.05042,0.027189 0.01049,-0.011307 0.04063,-0.2973542 0.04054,-0.3848314 v -0.066744 l -0.03831,-0.00643 c -0.08195,-0.013918 -0.116276,-0.05199 -0.240986,-0.2687385 -0.111969,-0.1946038 -0.12237,-0.2269767 -0.09961,-0.3089524 0.01441,-0.051889 0.06838,-0.1011795 0.182407,-0.166587 0.05895,-0.033816 0.09593,-0.061317 0.09614,-0.07143 1.91e-4,-0.00903 -0.0087,-0.046242 -0.02002,-0.082799 l -0.02076,-0.066487 -0.08181,0.044241 C 11.366217,7.2555443 11.335907,7.2663959 11.27326,7.2496961 11.215345,7.2342583 11.17082,7.187638 11.09901,7.0667962 10.992094,6.8868781 10.946265,6.7853933 10.946265,6.7289261 c 0,-0.090137 0.03612,-0.1292821 0.223681,-0.2424659 0.06371,-0.038448 0.115899,-0.072401 0.115919,-0.075632 1.9e-5,-0.00323 -0.02392,-0.032359 -0.05314,-0.064509 l -0.05314,-0.058331 -0.08305,0.047949 C 10.819105,6.4959593 10.772968,6.4857434 10.620748,6.2296595 10.505016,6.0349622 10.485879,5.9882959 10.488268,5.9073604 l 0.002,-0.069946 -0.04648,-0.017302 c -0.05887,-0.021858 -0.224608,-0.055084 -0.295606,-0.059319 -0.01331,-8.019e-4 -0.02343,-0.00131 -0.03115,-0.00124 z m 0.101334,0.2516108 c 0.07193,0.00569 0.119274,0.06668 0.190316,0.1866072 0.113287,0.1912411 0.158184,0.2859992 0.158184,0.3336686 0,0.049516 -0.01998,0.09978 -0.05141,0.1292656 -0.02883,0.027042 -0.27299,0.1772461 -0.356656,0.2194798 -0.09293,0.04691 -0.1833162,0.039064 -0.237768,-0.020514 C 9.861211,6.7942135 9.6999942,6.5046094 9.678321,6.423436 9.668844,6.3879274 9.669681,6.3716401 9.682983,6.3314917 9.7032204,6.2705698 9.7355583,6.2418391 9.8799706,6.1560069 10.049723,6.0551178 10.146406,6.0054831 10.218334,6.01117 Z m 0.971595,0.042263 c -0.02002,-4.04e-5 -0.0418,5.527e-4 -0.06524,0.00174 -0.06538,0.00328 -0.123015,0.00861 -0.128278,0.011864 -0.0053,0.00325 0.02065,0.031891 0.05759,0.063768 0.06781,0.058518 0.115476,0.1088552 0.184877,0.1942692 0.02087,0.025687 0.04182,0.046714 0.04648,0.046714 0.02018,0 0.07111,-0.074803 0.08601,-0.1260526 0.0187,-0.064334 0.01278,-0.1328964 -0.0136,-0.1567006 -0.02621,-0.023664 -0.08106,-0.035416 -0.167823,-0.035591 z M 9.4000144,6.4822597 c 0.078841,0.0019 0.1189147,0.04119 0.199212,0.1762264 0.1083695,0.182242 0.1586786,0.2893038 0.1586786,0.3376232 0,0.061126 -0.018994,0.1025568 -0.067228,0.1460728 C 9.6451869,7.1832283 9.4590555,7.2962588 9.3537949,7.346832 9.238897,7.4020356 9.1586426,7.3903466 9.0979822,7.3095109 9.0589803,7.2575366 8.971477,7.1086948 8.917554,7.0027828 8.8816082,6.9321814 8.8691104,6.8965896 8.8691104,6.8641251 c 0,-0.10053 0.044075,-0.1449796 0.2797872,-0.2820119 0.1364903,-0.079349 0.17016,-0.094938 0.2145366,-0.098618 0.013068,-0.00109 0.025317,-0.0015 0.036579,-0.00124 z m 1.2409996,0.3403419 c 0.0087,-4.43e-4 0.01785,-2.78e-5 0.02843,9.81e-4 0.0767,0.00737 0.120813,0.045311 0.19427,0.1673285 0.03468,0.057593 0.08533,0.1481071 0.112706,0.2011899 0.04275,0.082876 0.04993,0.1046944 0.04993,0.1539818 0,0.098508 -0.02271,0.1246843 -0.201437,0.2313436 -0.0842,0.05025 -0.177902,0.1026466 -0.208111,0.1166604 -0.06801,0.031552 -0.138572,0.033747 -0.194763,0.00594 -0.04718,-0.023351 -0.07119,-0.058082 -0.191304,-0.2758329 -0.07003,-0.1269642 -0.08778,-0.1674825 -0.0912,-0.2088517 -0.0051,-0.062017 0.02088,-0.1206633 0.07019,-0.1581835 0.053,-0.040326 0.239156,-0.151955 0.328232,-0.196741 0.05391,-0.027113 0.077,-0.036475 0.103066,-0.037815 z M 8.5851214,6.951126 c 0.080113,-3.038e-4 0.1282124,0.043907 0.2078631,0.1784508 0.1373734,0.2320469 0.1559591,0.2722097 0.1559591,0.3368818 0,0.1035622 -0.023124,0.1341964 -0.1695531,0.2214572 C 8.710734,7.7288298 8.6170764,7.7817611 8.5715273,7.8058118 8.4759317,7.8562881 8.412103,7.8631027 8.3485874,7.8295394 8.3008089,7.8042922 8.2044126,7.6567681 8.0992009,7.4479214 8.02853,7.3076386 8.050274,7.2423132 8.2020204,7.1406992 8.343691,7.045832 8.5030332,6.9599481 8.5485415,6.9538447 c 0.012928,-0.00174 0.025135,-0.00267 0.03658,-0.00272 z m 1.2694239,0.3425664 c 0.045895,3.036e-4 0.088769,0.019494 0.1230861,0.055858 0.037593,0.039839 0.1372846,0.2028804 0.2081106,0.3403419 0.03976,0.07717 0.04321,0.089594 0.03831,0.1374221 -0.0029,0.028935 -0.01488,0.068042 -0.02644,0.086754 -0.02237,0.036203 -0.128738,0.1086446 -0.3096936,0.210829 -0.096908,0.054724 -0.1100216,0.059287 -0.1747431,0.061791 -0.084473,0.00326 -0.10945,-0.00849 -0.1574489,-0.074643 C 9.5173928,8.0592066 9.418158,7.888535 9.3698618,7.7924653 c -0.056141,-0.1116752 -0.039167,-0.214722 0.045725,-0.276327 0.07712,-0.055967 0.3457391,-0.2040638 0.3922461,-0.2162667 0.015787,-0.00414 0.031412,-0.00628 0.046713,-0.00618 z m 1.2830167,0.3467682 c 0.08539,0.00222 0.1221,0.046016 0.232827,0.2372755 0.112752,0.1947524 0.128404,0.2324752 0.123087,0.2965941 -0.0056,0.068022 -0.03397,0.1061612 -0.124076,0.16634 -0.09353,0.062458 -0.280658,0.1693085 -0.323287,0.1846299 -0.07734,0.027789 -0.165791,0.00372 -0.21256,-0.057836 -0.03579,-0.047134 -0.138451,-0.2223184 -0.18636,-0.3176037 -0.0466,-0.092673 -0.05274,-0.1573275 -0.02126,-0.2266473 0.01998,-0.044006 0.06336,-0.074361 0.305985,-0.2142896 0.09097,-0.052465 0.118628,-0.063537 0.1656,-0.066982 0.01454,-0.00106 0.02785,-0.00181 0.04005,-0.00148 z m -2.1535214,0.120615 0.07489,0.00841 c 0.07186,0.00809 0.076358,0.01034 0.1146831,0.052893 0.043444,0.048235 0.1093346,0.1549895 0.1917979,0.311671 0.040936,0.077784 0.05265,0.1101485 0.052645,0.1450839 -7.2e-6,0.063553 -0.030185,0.1228775 -0.081317,0.1601611 -0.060646,0.044222 -0.2512649,0.1568577 -0.3227932,0.1908087 -0.043926,0.020849 -0.074664,0.028453 -0.1149302,0.028184 C 8.7950604,8.6575549 8.7800729,8.6431596 8.6535849,8.4276732 8.5212757,8.2022693 8.5049413,8.142028 8.5520016,8.0495141 8.5726186,8.0089841 8.5915483,7.9951882 8.7793905,7.8831739 Z M 10.319704,8.109327 c 0.08652,0 0.123479,0.031821 0.214537,0.1846296 0.103193,0.1731759 0.152499,0.2807203 0.152499,0.3331748 0,0.073248 -0.03133,0.1239163 -0.108011,0.1742476 -0.07133,0.046818 -0.2493,0.1502946 -0.318591,0.185373 -0.05564,0.02817 -0.117875,0.027441 -0.173508,-0.00198 C 10.0386,8.959365 9.990959,8.890994 9.8669035,8.6688986 9.8060235,8.5599006 9.8028895,8.551033 9.8028895,8.4874815 c 0,-0.097241 0.027726,-0.1324164 0.1747431,-0.2209625 C 10.16191,8.15553 10.26263,8.1093241 10.319704,8.1093241 Z M 8.2536773,8.2408166 c 0.042475,0.00271 0.071446,0.010613 0.091944,0.025211 0.030195,0.021496 0.1891596,0.2767561 0.2382641,0.3826065 0.032792,0.070689 0.033899,0.1391036 0.00321,0.1999544 -0.019192,0.038052 -0.038655,0.054468 -0.1324788,0.1117188 -0.060415,0.036873 -0.1506226,0.089811 -0.2006924,0.117646 -0.1318901,0.073341 -0.2165931,0.075546 -0.2847274,0.00747 C 7.9359629,9.0521332 7.864344,8.9340901 7.7791311,8.7724623 7.7136596,8.6482788 7.7066408,8.6056264 7.7400793,8.5319741 7.762066,8.4835474 7.7986304,8.4548171 7.9617835,8.3579716 8.1400175,8.2521726 8.1798569,8.236115 8.2536796,8.2408162 Z M 9.5035755,8.579429 c 0.031261,-0.00131 0.060826,0.00546 0.09046,0.019778 0.047364,0.022927 0.072032,0.057154 0.2031669,0.282752 0.077922,0.1340469 0.080571,0.1404369 0.080571,0.2024262 0,0.1115109 -0.022356,0.1405035 -0.1846302,0.2382645 -0.0439,0.026442 -0.1252383,0.071991 -0.1806755,0.1013364 C 9.3950261,9.4861486 9.3495581,9.4921876 9.2776646,9.4543876 9.2411921,9.4352086 9.2226737,9.4134376 9.1696589,9.3270988 9.0694708,9.1639213 8.9889204,9.0027448 8.9889837,8.9657476 c 9e-5,-0.052776 0.019995,-0.1090539 0.048443,-0.1374219 0.030122,-0.030033 0.2755852,-0.1783338 0.3660466,-0.2212097 0.036058,-0.017087 0.068844,-0.026383 0.1001005,-0.02768 z m 1.2748605,0.3388589 c 0.06808,0 0.117726,0.030879 0.164856,0.1025712 0.113533,0.1726848 0.212895,0.3644607 0.212808,0.4112788 -10e-5,0.05409 -0.02159,0.1094301 -0.05438,0.1401407 -0.03374,0.031608 -0.246613,0.1605168 -0.352453,0.2135478 -0.10167,0.050931 -0.187539,0.042705 -0.244937,-0.023472 -0.03136,-0.036171 -0.129419,-0.1973459 -0.183889,-0.3022796 -0.04705,-0.090637 -0.05314,-0.1093591 -0.05314,-0.1628794 0,-0.098618 0.02034,-0.1241994 0.169801,-0.2145369 0.178439,-0.1078533 0.295807,-0.1643625 0.34133,-0.1643625 z m -2.0620717,0.1305 c 0.023175,0.00153 0.045647,0.00837 0.070688,0.02052 0.04929,0.023859 0.062749,0.042345 0.1898204,0.2632278 0.044239,0.076896 0.085791,0.1586205 0.092439,0.1814184 0.015329,0.052569 0.00538,0.1218024 -0.023481,0.1638675 -0.023333,0.034011 -0.1855171,0.1380225 -0.3440493,0.2207163 -0.072612,0.037872 -0.102713,0.048204 -0.1398936,0.048195 C 8.4883985,9.9467212 8.4380084,9.9162139 8.3915927,9.8436667 8.3360897,9.7569157 8.2554478,9.6174019 8.2193209,9.5458366 8.1695284,9.4471993 8.1803959,9.3481408 8.2479922,9.2853271 8.2797703,9.2557981 8.4648405,9.145708 8.5789419,9.0883393 c 0.058245,-0.029286 0.098797,-0.04203 0.1374221,-0.039546 z m 1.2568175,0.343803 c 0.0906,0 0.1239762,0.026352 0.2041562,0.1609029 0.113212,0.1899723 0.169794,0.3089055 0.169553,0.3561609 -3.16e-4,0.061263 -0.03101,0.1207313 -0.08132,0.1571953 -0.05827,0.04225 -0.2682418,0.165961 -0.3316909,0.195504 -0.063918,0.02976 -0.1459485,0.03218 -0.196,0.0056 C 9.700086,10.247918 9.6406038,10.160215 9.5277977,9.9579937 9.4517261,9.8216248 9.4406381,9.7600621 9.4778729,9.6831496 9.5021891,9.6329026 9.5514983,9.5976766 9.7826226,9.4661407 9.9046414,9.3966967 9.9158635,9.3924847 9.9731827,9.3924847 Z M 9.1800401,9.8602222 c 0.041803,0.0036 0.08555,0.021996 0.1104813,0.04869 0.063251,0.067707 0.2301501,0.3627688 0.2464202,0.4357458 0.014034,0.06295 -0.00798,0.129434 -0.05759,0.174249 -0.042663,0.03855 -0.2460032,0.16122 -0.3435548,0.207368 -0.045928,0.02174 -0.076253,0.02922 -0.1169077,0.02891 -0.1024572,-7.22e-4 -0.1213792,-0.02023 -0.2664387,-0.274104 -0.043938,-0.0769 -0.085103,-0.155085 -0.09145,-0.173755 -0.02621,-0.0771 -0.00763,-0.157024 0.047208,-0.203167 0.080696,-0.06791 0.3720835,-0.2316633 0.4315447,-0.2424651 0.012751,-0.00225 0.026353,-0.0027 0.040288,-0.00153 z" />
  <g
     aria-label="Krita"
     id="text1450"
     style="font-size:1.76385px;opacity:1;fill:#ff7f2a;stroke-width:0.529156">
    <rect
       style="font-size:1.76385px;fill:#ff7f2a;fill-opacity:1;stroke:none;stroke-width:0.519976;stroke-dasharray:none;filter:url(#filter3148)"
       id="rect1656-3"
       width="0.5055005"
       height="2.2653189"
       x="15.369148"
       y="4.3016486"
       rx="0"
       ry="0" />
    <rect
       style="opacity:1;fill:#ff7f2a;fill-opacity:1;stroke:none;stroke-width:0.519976;stroke-dasharray:none"
       id="rect1656"
       width="0.5055005"
       height="2.2653189"
       x="15.369148"
       y="4.3016486"
       rx="0"
       ry="0" />
  </g>
  <path
     style="font-size:1.76385px;text-align:center;text-anchor:middle;fill:#999999;stroke-width:0.529156"
     d="M 4.8357831,14.179017 H 4.6770366 V 13.591655 H 4.0314675 v 0.587362 H 3.872721 v -1.259389 h 0.1587465 v 0.532683 h 0.6455691 v -0.532683 h 0.1587465 z m 0.6808447,-0.961298 q 0.1728573,0 0.2557583,0.07584 0.082901,0.07585 0.082901,0.241648 v 0.643805 H 5.7424006 l -0.029985,-0.134053 h -0.00706 q -0.061735,0.07761 -0.1305249,0.114651 -0.067026,0.03704 -0.1869681,0.03704 -0.128761,0 -0.2134258,-0.06703 -0.084665,-0.06879 -0.084665,-0.213426 0,-0.141108 0.1111225,-0.216953 0.1111225,-0.07761 0.3421869,-0.08466 l 0.1605103,-0.0053 v -0.05644 q 0,-0.118178 -0.051152,-0.164038 -0.051152,-0.04586 -0.1446357,-0.04586 -0.074082,0 -0.141108,0.02293 -0.067026,0.02117 -0.1252333,0.04939 l -0.047624,-0.116414 q 0.061735,-0.03351 0.1463995,-0.05644 0.084665,-0.02469 0.176385,-0.02469 z m 0.04586,0.504461 q -0.176385,0.0071 -0.2451751,0.05644 -0.067026,0.04939 -0.067026,0.139344 0,0.07937 0.047624,0.116414 0.049388,0.03704 0.1252334,0.03704 0.1199418,0 0.199315,-0.06526 0.079373,-0.06703 0.079373,-0.204607 v -0.08466 z m 1.0406728,-0.506225 q 0.1693296,0 0.2557583,0.0829 0.086429,0.08114 0.086429,0.264577 v 0.615584 H 6.7918927 v -0.605 q 0,-0.227537 -0.211662,-0.227537 -0.1569827,0 -0.2169536,0.08819 -0.059971,0.08819 -0.059971,0.253995 v 0.49035 H 6.1480874 v -0.945424 h 0.1252334 l 0.02293,0.128762 h 0.00882 q 0.04586,-0.07408 0.1269972,-0.109359 0.081137,-0.03704 0.1710934,-0.03704 z m 0.9701175,0.980701 q -0.176385,0 -0.282216,-0.121706 -0.105831,-0.12347 -0.105831,-0.366881 0,-0.243411 0.105831,-0.366881 0.1075949,-0.125233 0.2839799,-0.125233 0.1093587,0 0.1781488,0.04057 0.070554,0.04057 0.1146503,0.09877 h 0.010583 q -0.00176,-0.02293 -0.00706,-0.06703 -0.00353,-0.04586 -0.00353,-0.07232 V 12.838491 H 8.02306 v 1.340526 H 7.8978266 l -0.02293,-0.126997 h -0.00706 q -0.042332,0.05997 -0.1128864,0.102303 -0.070554,0.04233 -0.1816766,0.04233 z m 0.024694,-0.128761 q 0.1499273,0 0.2098982,-0.08114 0.061735,-0.0829 0.061735,-0.248702 v -0.02822 q 0,-0.176385 -0.058207,-0.269869 -0.058207,-0.09525 -0.2151897,-0.09525 -0.1252334,0 -0.188732,0.100539 -0.061735,0.09878 -0.061735,0.266342 0,0.169329 0.061735,0.262813 0.063499,0.09348 0.1904958,0.09348 z m 0.8801608,-0.903092 q 0,0.05997 -0.00353,0.112887 -0.00176,0.05115 -0.00529,0.08114 h 0.00882 q 0.040568,-0.05997 0.1111225,-0.10054 0.070554,-0.04057 0.1816766,-0.04057 0.176385,0 0.282216,0.123469 0.1075948,0.121706 0.1075948,0.365117 0,0.243412 -0.1075948,0.366881 -0.1075949,0.12347 -0.282216,0.12347 -0.1111226,0 -0.1816766,-0.04057 -0.070554,-0.04057 -0.1111225,-0.09701 h -0.012347 l -0.031749,0.119942 H 8.3229141 v -1.340526 h 0.1552188 z m 0.2663413,0.181677 q -0.1499272,0 -0.2081343,0.08643 -0.058207,0.08643 -0.058207,0.268105 v 0.0071 q 0,0.174621 0.056443,0.268105 0.058207,0.09172 0.2134258,0.09172 0.1269972,0 0.188732,-0.09348 0.063499,-0.09348 0.063499,-0.269869 0,-0.358061 -0.2557583,-0.358061 z m 1.1041697,-0.130525 q 0.026458,0 0.056443,0.0035 0.031749,0.0018 0.054679,0.0071 l -0.019402,0.142872 q -0.02293,-0.0053 -0.051152,-0.0088 -0.026458,-0.0035 -0.051152,-0.0035 -0.072318,0 -0.1358164,0.04057 -0.063499,0.0388 -0.1023033,0.111122 -0.037041,0.07055 -0.037041,0.165802 v 0.504461 H 9.4076814 v -0.945424 h 0.1269972 l 0.017639,0.172858 h 0.00706 q 0.04586,-0.07761 0.118178,-0.134053 0.072318,-0.05644 0.1710934,-0.05644 z m 0.6102911,0.0018 q 0.172858,0 0.255759,0.07584 0.0829,0.07585 0.0829,0.241648 v 0.643805 h -0.112887 l -0.02998,-0.134053 h -0.0071 q -0.06173,0.07761 -0.130525,0.114651 -0.06703,0.03704 -0.186968,0.03704 -0.128761,0 -0.213425,-0.06703 -0.08467,-0.06879 -0.08467,-0.213426 0,-0.141108 0.111122,-0.216953 0.111123,-0.07761 0.342187,-0.08466 l 0.160511,-0.0053 v -0.05644 q 0,-0.118178 -0.05115,-0.164038 -0.05115,-0.04586 -0.144636,-0.04586 -0.07408,0 -0.141108,0.02293 -0.06703,0.02117 -0.125233,0.04939 l -0.04762,-0.116414 q 0.06174,-0.03351 0.146399,-0.05644 0.08466,-0.02469 0.176385,-0.02469 z m 0.04586,0.504461 q -0.176385,0.0071 -0.245176,0.05644 -0.06703,0.04939 -0.06703,0.139344 0,0.07937 0.04762,0.116414 0.04939,0.03704 0.125233,0.03704 0.119942,0 0.199315,-0.06526 0.07937,-0.06703 0.07937,-0.204607 v -0.08466 z m 0.739054,-0.18344 q 0,0.02822 -0.0035,0.07408 -0.0018,0.04586 -0.0035,0.07937 h 0.0071 q 0.01058,-0.01411 0.03175,-0.04057 0.02117,-0.02646 0.04233,-0.05292 0.02293,-0.02822 0.0388,-0.04586 l 0.301618,-0.319257 h 0.181677 l -0.382756,0.403922 0.409213,0.541502 h -0.186968 l -0.328076,-0.440962 -0.107595,0.09348 v 0.347478 h -0.153455 v -1.340526 h 0.153455 z m 1.153558,-0.322785 q 0.121706,0 0.208135,0.05292 0.08819,0.05292 0.134052,0.149928 0.04762,0.09525 0.04762,0.224009 v 0.09348 h -0.647333 q 0.0035,0.16051 0.08114,0.245175 0.07937,0.0829 0.220482,0.0829 0.08996,0 0.158746,-0.01588 0.07055,-0.01764 0.144636,-0.04939 v 0.135817 q -0.07232,0.03175 -0.142872,0.04586 -0.07055,0.01588 -0.167566,0.01588 -0.134052,0 -0.23812,-0.05468 -0.102303,-0.05468 -0.16051,-0.162274 -0.05644,-0.109359 -0.05644,-0.266341 0,-0.155219 0.05115,-0.266342 0.05292,-0.111122 0.146399,-0.171093 0.09525,-0.05997 0.220481,-0.05997 z m -0.0018,0.126997 q -0.111122,0 -0.176385,0.07232 -0.0635,0.07055 -0.07584,0.197551 h 0.481531 q -0.0018,-0.119942 -0.05644,-0.194023 -0.05468,-0.07585 -0.172858,-0.07585 z"
     id="text2284"
     aria-label="Handbrake" />
  <text
     xml:space="preserve"
     transform="scale(0.26457812)"
     id="text3806"
     style="font-size:6.66667px;white-space:pre;shape-inside:url(#rect3808);display:inline;fill:#999999;stroke-width:2" />
</svg>
