<?xml version="1.0" encoding="UTF-8" standalone="no"?>
<svg
   width="64"
   height="64"
   version="1.1"
   viewBox="0 0 16.933 16.933"
   id="svg7"
   sodipodi:docname="inspector.svg"
   inkscape:version="1.4 (e7c3feb100, 2024-10-09)"
   xmlns:inkscape="http://www.inkscape.org/namespaces/inkscape"
   xmlns:sodipodi="http://sodipodi.sourceforge.net/DTD/sodipodi-0.dtd"
   xmlns:xlink="http://www.w3.org/1999/xlink"
   xmlns="http://www.w3.org/2000/svg"
   xmlns:svg="http://www.w3.org/2000/svg"
   xmlns:rdf="http://www.w3.org/1999/02/22-rdf-syntax-ns#"
   xmlns:cc="http://creativecommons.org/ns#"
   xmlns:dc="http://purl.org/dc/elements/1.1/">
  <sodipodi:namedview
     id="namedview7"
     pagecolor="#9c4444"
     bordercolor="#000000"
     borderopacity="0.25"
     inkscape:showpageshadow="2"
     inkscape:pageopacity="0.0"
     inkscape:pagecheckerboard="0"
     inkscape:deskcolor="#d1d1d1"
     inkscape:zoom="6.15625"
     inkscape:cx="15.675127"
     inkscape:cy="27.370558"
     inkscape:window-width="1183"
     inkscape:window-height="973"
     inkscape:window-x="35"
     inkscape:window-y="32"
     inkscape:window-maximized="0"
     inkscape:current-layer="svg7"
     showgrid="false" />
  <defs
     id="defs2">
    <linearGradient
       inkscape:collect="always"
       id="linearGradient1134">
      <stop
         style="stop-color:#161616;stop-opacity:1;"
         offset="0"
         id="stop1130" />
      <stop
         style="stop-color:#404040;stop-opacity:1;"
         offset="1"
         id="stop1132" />
    </linearGradient>
    <linearGradient
       inkscape:collect="always"
       id="linearGradient883">
      <stop
         style="stop-color:#808080;stop-opacity:1;"
         offset="0"
         id="stop879" />
      <stop
         style="stop-color:#3e3e3e;stop-opacity:1;"
         offset="0.5"
         id="stop1216" />
      <stop
         style="stop-color:#242424;stop-opacity:1;"
         offset="1"
         id="stop881" />
    </linearGradient>
    <linearGradient
       inkscape:collect="always"
       xlink:href="#linearGradient883"
       id="linearGradient885"
       x1="2.1085808"
       y1="2.0236168"
       x2="14.846128"
       y2="15.071845"
       gradientUnits="userSpaceOnUse" />
    <linearGradient
       inkscape:collect="always"
       xlink:href="#linearGradient1134"
       id="linearGradient1136"
       x1="14.971222"
       y1="14.703373"
       x2="2.0756054"
       y2="2.0069976"
       gradientUnits="userSpaceOnUse" />
    <filter
       style="color-interpolation-filters:sRGB;"
       inkscape:label="Blur"
       id="filter1283"
       x="-0.082344266"
       y="-0.082344266"
       width="1.1646885"
       height="1.1646885">
      <feGaussianBlur
         stdDeviation="0.5 0.5"
         result="blur"
         id="feGaussianBlur1281" />
    </filter>
    <filter
       style="color-interpolation-filters:sRGB;"
       inkscape:label="Blur"
       id="filter1694"
       x="-0.94955398"
       y="-0.2118907"
       width="2.899108"
       height="1.4237814">
      <feGaussianBlur
         stdDeviation="0.2 0.2"
         result="blur"
         id="feGaussianBlur1692" />
    </filter>
    <filter
       style="color-interpolation-filters:sRGB;"
       inkscape:label="Blur"
       id="filter3335"
       x="-0.94955398"
       y="-0.2118907"
       width="2.899108"
       height="1.4237814">
      <feGaussianBlur
         stdDeviation="0.2 0.2"
         result="blur"
         id="feGaussianBlur3333" />
    </filter>
  </defs>
  <metadata
     id="metadata2">
    <rdf:RDF>
      <cc:Work
         rdf:about="">
        <dc:format>image/svg+xml</dc:format>
        <dc:type
           rdf:resource="http://purl.org/dc/dcmitype/StillImage" />
      </cc:Work>
    </rdf:RDF>
  </metadata>
  <rect
     style="fill:#000000;stroke:none;stroke-width:0.539739;stroke-dasharray:none;filter:url(#filter1283)"
     id="rect246-1"
     width="14.572964"
     height="14.572964"
     x="1.1932471"
     y="1.2138842"
     rx="2.1589575"
     ry="2.1589575" />
  <rect
     style="opacity:1;fill:#000000;stroke:url(#linearGradient885);stroke-width:0.52915625;stroke-dasharray:none"
     id="rect246"
     width="14.287219"
     height="14.287219"
     x="1.3361193"
     y="1.3567564"
     rx="2.1166251"
     ry="2.1166251" />
  <g
     aria-label="Krita"
     id="text1450"
     style="font-size:1.76385px;opacity:1;fill:#999999;stroke-width:0.529156">
    <rect
       style="font-size:1.76385px;fill:#ff0000;fill-opacity:1;stroke:none;stroke-width:0.519976;stroke-dasharray:none;filter:url(#filter3335)"
       id="rect1656-0"
       width="0.5055005"
       height="2.2653189"
       x="15.369148"
       y="4.3016486"
       rx="0"
       ry="0" />
    <rect
       style="opacity:1;fill:#ff0000;fill-opacity:1;stroke:none;stroke-width:0.519976;stroke-dasharray:none"
       id="rect1656"
       width="0.5055005"
       height="2.2653189"
       x="15.369148"
       y="4.3016486"
       rx="0"
       ry="0" />
  </g>
  <rect
     style="fill:url(#linearGradient1136);fill-opacity:1;stroke:none;stroke-width:0.478315;stroke-dasharray:none"
     id="rect246-5"
     width="12.914515"
     height="12.914515"
     x="2.0224717"
     y="2.0431087"
     rx="1.5874687"
     ry="1.5874687" />
  <path
     id="path72"
     style="fill:#999999;fill-opacity:1;stroke:none;stroke-width:0.240173;stroke-dasharray:none;stroke-dashoffset:2.2;stroke-opacity:0.3"
     d="m 8.4757247,10.936825 c 2.2930373,0 2.3025333,-3.43e-4 2.3754743,-0.0577 0.163917,-0.128939 0.155268,0.06461 0.155268,-3.3183451 0,-1.8669127 -0.01069,-3.1305399 -0.02627,-3.1715199 C 10.945287,4.29742 10.846822,4.209621 10.745185,4.179575 10.698299,4.165705 9.6738809,4.156705 8.4133367,4.159415 6.254994,4.164115 6.161767,4.166415 6.087585,4.216635 5.921343,4.329309 5.93044,4.137575 5.93044,7.5589052 c 0,2.8526438 0.004,3.1418938 0.04504,3.2113938 0.103802,0.175725 -0.03283,0.166532 2.5002518,0.166532 z m 3.7166033,-0.55165 V 10.040394 9.695143 h -0.358385 -0.358854 v 0.345251 0.344781 h 0.358854 z m -6.703302,0 V 10.040394 9.695143 H 5.116568 4.744111 v 0.345251 0.344781 H 5.116568 Z M 9.764785,10.10935 H 9.5991963 9.4340767 V 9.68154 9.254198 H 9.5991963 9.764785 V 9.68154 Z m -1.1309765,0 H 8.4682193 8.3026305 V 8.9642998 7.8197199 h 0.1472942 c 0.080921,0 0.1554731,0.00817 0.165589,0.018294 0.010114,0.010115 0.018294,0.5250436 0.018294,1.1445808 z m -1.1586532,0 H 7.3236395 7.1716529 V 9.254198 8.3985772 H 7.3236395 7.4751553 V 9.254198 Z M 12.192328,9.116286 V 8.7710352 8.4262538 H 11.833943 11.475089 V 8.7710352 9.116286 h 0.358854 z m -6.703302,0 V 8.7710352 8.4262538 H 5.116568 4.744111 V 8.7710352 9.116286 H 5.116568 Z M 9.764785,8.9779042 H 9.5987273 9.4326694 l 0.00751,-0.434378 0.00751,-0.4343774 0.138851,-0.00797 c 0.076435,-0.00448 0.1477469,4.413e-4 0.1585427,0.011254 0.010796,0.010796 0.019702,0.2101785 0.019702,0.4428212 z M 7.4751553,8.1227522 H 7.3236395 7.1716529 V 7.6954108 7.2676002 H 7.3236395 7.4751553 V 7.6954108 Z M 9.764785,7.846927 H 9.5991963 9.4340767 V 6.9917751 6.136624 H 9.5991963 9.764785 V 6.9917751 Z M 12.192328,7.819719 V 7.4885418 7.157364 h -0.358385 -0.358854 v 0.331178 0.3311779 h 0.358854 z m -6.703302,0 V 7.4885412 7.1573636 H 5.116568 4.744111 V 7.488542 7.8197199 H 5.116568 Z M 8.3026305,7.5739166 V 6.4279286 5.2814712 h 0.1660578 0.1655889 l -0.00703,1.1380134 -0.00703,1.1380135 -0.1585525,0.00797 z M 7.4751553,6.9917751 H 7.3236395 7.1716529 V 5.9851072 4.977969 H 7.3236395 7.4751553 V 5.9851072 Z M 12.192328,6.5503615 V 6.2055801 5.8607982 h -0.358385 -0.358854 v 0.3447819 0.3447814 h 0.358854 z m -6.703302,0 V 6.2055801 5.8607982 H 5.116568 4.744111 V 6.2055801 6.5503615 H 5.116568 Z M 12.192328,5.2814712 V 4.936689 4.591908 h -0.358385 -0.358854 v 0.344781 0.3447822 h 0.358854 z m -6.703302,0 V 4.936689 4.591908 H 5.116568 4.744111 v 0.344781 0.3447822 h 0.372457 z" />
  <path
     d="M 7.3409836,14.182462 H 6.8859103 v -0.09172 l 0.1481634,-0.03351 V 13.05007 l -0.1481634,-0.03528 v -0.09172 h 0.4550733 v 0.09172 l -0.1481634,0.03528 v 1.007158 l 0.1481634,0.03351 z M 8.0183033,13.2194 q 0.1693296,0 0.2557582,0.0829 0.086429,0.08114 0.086429,0.264577 v 0.615584 h -0.153455 v -0.605001 q 0,-0.227536 -0.211662,-0.227536 -0.1569826,0 -0.2169535,0.08819 -0.059971,0.08819 -0.059971,0.253994 v 0.490351 H 7.56323 v -0.945424 h 0.1252333 l 0.02293,0.128761 h 0.00882 q 0.04586,-0.07408 0.1269972,-0.109358 0.081137,-0.03704 0.1710935,-0.03704 z m 1.0706569,0.13758 H 8.8508405 v 0.825482 H 8.6956217 V 13.35698 H 8.5298198 v -0.07232 l 0.1658019,-0.05292 v -0.05468 q 0,-0.18344 0.081137,-0.262813 0.081137,-0.08114 0.2257727,-0.08114 0.056443,0 0.1023033,0.01058 0.047624,0.0088 0.081137,0.02117 l -0.040569,0.121705 q -0.028222,-0.0088 -0.065262,-0.01764 -0.037041,-0.0088 -0.075845,-0.0088 -0.077609,0 -0.1164141,0.05291 -0.037041,0.05115 -0.037041,0.162274 v 0.06174 h 0.2381197 z m 0.9930468,0.351006 q 0,0.234592 -0.1199414,0.363353 -0.1181779,0.128761 -0.3210207,0.128761 -0.1252333,0 -0.2240089,-0.05644 -0.097012,-0.05821 -0.153455,-0.167566 -0.056443,-0.111122 -0.056443,-0.268105 0,-0.234592 0.118178,-0.361589 0.1181779,-0.126997 0.3210207,-0.126997 0.128761,0 0.2257728,0.05821 0.098776,0.05644 0.1534547,0.165802 0.05644,0.107594 0.05644,0.264577 z m -0.7143588,0 q 0,0.167566 0.065262,0.266341 0.067026,0.09701 0.211662,0.09701 0.1428719,0 0.2098982,-0.09701 0.067026,-0.09877 0.067026,-0.266341 0,-0.167566 -0.067026,-0.262814 -0.067026,-0.09525 -0.211662,-0.09525 -0.1446357,0 -0.2098982,0.09525 -0.065262,0.09525 -0.065262,0.262814 z"
     id="text2"
     style="font-size:1.76385px;text-align:center;text-anchor:middle;fill:#999999;stroke-width:0.132289;stroke-opacity:0.6"
     aria-label="Info" />
</svg>
