<?xml version="1.0" encoding="UTF-8" standalone="no"?>
<svg
   width="64"
   height="64"
   version="1.1"
   viewBox="0 0 16.933 16.933"
   id="svg7"
   sodipodi:docname="Internet Template.svg"
   inkscape:version="1.4 (e7c3feb100, 2024-10-09)"
   xmlns:inkscape="http://www.inkscape.org/namespaces/inkscape"
   xmlns:sodipodi="http://sodipodi.sourceforge.net/DTD/sodipodi-0.dtd"
   xmlns:xlink="http://www.w3.org/1999/xlink"
   xmlns="http://www.w3.org/2000/svg"
   xmlns:svg="http://www.w3.org/2000/svg"
   xmlns:rdf="http://www.w3.org/1999/02/22-rdf-syntax-ns#"
   xmlns:cc="http://creativecommons.org/ns#"
   xmlns:dc="http://purl.org/dc/elements/1.1/">
  <sodipodi:namedview
     id="namedview7"
     pagecolor="#9c4444"
     bordercolor="#000000"
     borderopacity="0.25"
     inkscape:showpageshadow="2"
     inkscape:pageopacity="0.0"
     inkscape:pagecheckerboard="0"
     inkscape:deskcolor="#d1d1d1"
     inkscape:zoom="4.3531261"
     inkscape:cx="22.397697"
     inkscape:cy="29.748736"
     inkscape:window-width="1183"
     inkscape:window-height="973"
     inkscape:window-x="35"
     inkscape:window-y="32"
     inkscape:window-maximized="0"
     inkscape:current-layer="svg7"
     showgrid="false" />
  <defs
     id="defs2">
    <rect
       x="67.489848"
       y="35.60533"
       width="15.337563"
       height="22.51269"
       id="rect3808" />
    <linearGradient
       inkscape:collect="always"
       id="linearGradient1134">
      <stop
         style="stop-color:#161616;stop-opacity:1;"
         offset="0"
         id="stop1130" />
      <stop
         style="stop-color:#404040;stop-opacity:1;"
         offset="1"
         id="stop1132" />
    </linearGradient>
    <linearGradient
       inkscape:collect="always"
       id="linearGradient883">
      <stop
         style="stop-color:#808080;stop-opacity:1;"
         offset="0"
         id="stop879" />
      <stop
         style="stop-color:#3e3e3e;stop-opacity:1;"
         offset="0.5"
         id="stop1216" />
      <stop
         style="stop-color:#242424;stop-opacity:1;"
         offset="1"
         id="stop881" />
    </linearGradient>
    <linearGradient
       inkscape:collect="always"
       xlink:href="#linearGradient883"
       id="linearGradient885"
       x1="2.1085808"
       y1="2.0236168"
       x2="14.846128"
       y2="15.071845"
       gradientUnits="userSpaceOnUse" />
    <linearGradient
       inkscape:collect="always"
       xlink:href="#linearGradient1134"
       id="linearGradient1136"
       x1="14.971222"
       y1="14.703373"
       x2="2.0756054"
       y2="2.0069976"
       gradientUnits="userSpaceOnUse" />
    <filter
       style="color-interpolation-filters:sRGB;"
       inkscape:label="Blur"
       id="filter1283"
       x="-0.082344266"
       y="-0.082344266"
       width="1.1646885"
       height="1.1646885">
      <feGaussianBlur
         stdDeviation="0.5 0.5"
         result="blur"
         id="feGaussianBlur1281" />
    </filter>
    <filter
       style="color-interpolation-filters:sRGB;"
       inkscape:label="Blur"
       id="filter1694"
       x="-0.94955398"
       y="-0.2118907"
       width="2.899108"
       height="1.4237814">
      <feGaussianBlur
         stdDeviation="0.2 0.2"
         result="blur"
         id="feGaussianBlur1692" />
    </filter>
    <filter
       style="color-interpolation-filters:sRGB;"
       inkscape:label="Blur"
       id="filter3148"
       x="-0.94955398"
       y="-0.2118907"
       width="2.899108"
       height="1.4237814">
      <feGaussianBlur
         stdDeviation="0.2 0.2"
         result="blur"
         id="feGaussianBlur3146" />
    </filter>
    <clipPath
       clipPathUnits="userSpaceOnUse"
       id="clipPath44">
      <path
         id="path46"
         style="display:block;opacity:0.85;fill:#f2f2f2;stroke-width:4.39162"
         d="m 17.570312,8.4453125 a 6.5431988,7.4283052 9.9958727e-8 0 0 -6.535156,7.4394535 6.5431988,7.4283052 9.9958727e-8 0 0 6.552735,7.417968 6.5431988,7.4283052 9.9958727e-8 0 0 6.535156,-7.4375 6.5431988,7.4283052 9.9958727e-8 0 0 -6.552735,-7.4199215 z M 45.646484,41.177734 a 6.5431986,7.0703472 2.4665357e-6 0 0 -6.533203,7.080078 6.5431986,7.0703472 2.4665357e-6 0 0 6.550781,7.060547 6.5431986,7.0703472 2.4665357e-6 0 0 6.535157,-7.080078 6.5431986,7.0703472 2.4665357e-6 0 0 -6.552735,-7.060547 z" />
    </clipPath>
    <inkscape:path-effect
       effect="powerclip"
       id="path-effect48"
       is_visible="true"
       lpeversion="1"
       inverse="true"
       flatten="false"
       hide_clip="false"
       message="" />
  </defs>
  <metadata
     id="metadata2">
    <rdf:RDF>
      <cc:Work
         rdf:about="">
        <dc:format>image/svg+xml</dc:format>
        <dc:type
           rdf:resource="http://purl.org/dc/dcmitype/StillImage" />
      </cc:Work>
    </rdf:RDF>
  </metadata>
  <rect
     style="fill:#000000;stroke:none;stroke-width:0.539739;stroke-dasharray:none;filter:url(#filter1283)"
     id="rect246-1"
     width="14.572964"
     height="14.572964"
     x="1.1932471"
     y="1.2138842"
     rx="2.1589575"
     ry="2.1589575" />
  <rect
     style="opacity:1;fill:#000000;stroke:url(#linearGradient885);stroke-width:0.52915625;stroke-dasharray:none"
     id="rect246"
     width="14.287219"
     height="14.287219"
     x="1.3361193"
     y="1.3567564"
     rx="2.1166251"
     ry="2.1166251" />
  <rect
     style="fill:url(#linearGradient1136);fill-opacity:1;stroke:none;stroke-width:0.478315;stroke-dasharray:none"
     id="rect246-5"
     width="12.914515"
     height="12.914515"
     x="2.0224717"
     y="2.0431087"
     rx="1.5874687"
     ry="1.5874687" />
  <path
     style="fill:#999999;fill-opacity:1;stroke-width:0.190949"
     d="M 8.0324006,3.587338 C 6.963088,3.7061507 6.1915363,4.4573475 6.1915363,5.5266605 v 0.1782682 l -2.0607798,1.2853306 0.00241,3.2825797 c 2.453e-4,0.334488 2.8158049,0.189884 3.5427,0.162693 C 7.854083,10.257313 7.972779,10.165058 8.1509977,9.9274325 8.6856543,9.1551508 8.9237433,8.3235127 8.9237433,7.4324183 c 0,-0.7128759 0.2375587,-1.2525044 0.6534025,-1.787161 0.4158439,-0.5940626 1.0093912,-0.8316709 1.7222682,-0.8316709 0.415843,-4e-7 0.772844,0.060202 1.129281,0.1790145 C 12.072258,4.754976 11.656332,4.576608 11.240488,4.4577952 c -0.237626,-0.059406 -0.475449,-0.059672 -0.713074,-0.059672 -0.178219,0 -0.356587,2.673e-4 -0.534805,0.059672 C 9.6361707,3.8637327 8.983216,3.587338 8.2703408,3.587338 Z M 9.031898,4.1691346 c 0.158187,2e-7 0.2864228,0.1282359 0.2864228,0.2864229 2e-7,0.1581873 -0.1282357,0.2864231 -0.2864228,0.2864233 -0.1581873,0 -0.2864232,-0.1282359 -0.286423,-0.2864233 0,-0.158187 0.128236,-0.2864229 0.286423,-0.2864229 z"
     id="path3-6"
     sodipodi:nodetypes="csccsccscsccscscsssss" />
  <g
     aria-label="Krita"
     id="text1450"
     style="font-size:1.76385px;opacity:1;fill:#ffff00;stroke-width:0.529156">
    <rect
       style="font-size:1.76385px;fill:#ffff00;fill-opacity:1;stroke:none;stroke-width:0.519976;stroke-dasharray:none;filter:url(#filter3148)"
       id="rect1656-3"
       width="0.5055005"
       height="2.2653189"
       x="15.369148"
       y="4.3016486"
       rx="0"
       ry="0" />
    <rect
       style="opacity:1;fill:#ffff00;fill-opacity:1;stroke:none;stroke-width:0.519976;stroke-dasharray:none"
       id="rect1656"
       width="0.5055005"
       height="2.2653189"
       x="15.369148"
       y="4.3016486"
       rx="0"
       ry="0" />
  </g>
  <path
     d="m 6.9003719,13.041334 q -0.2028427,0 -0.3192568,0.135816 -0.1164141,0.135817 -0.1164141,0.372173 0,0.234592 0.1075948,0.372172 0.1093587,0.135816 0.3263123,0.135816 0.082901,0 0.1569826,-0.01411 0.074082,-0.01411 0.1446357,-0.03528 v 0.13758 q -0.070554,0.02646 -0.1463995,0.0388 -0.074082,0.01235 -0.1781489,0.01235 -0.1922596,0 -0.3210207,-0.07937 -0.128761,-0.07937 -0.1940235,-0.225772 -0.063499,-0.1464 -0.063499,-0.343951 0,-0.190496 0.06879,-0.335132 0.070554,-0.146399 0.2063704,-0.227536 0.1358165,-0.0829 0.32984,-0.0829 0.199315,0 0.3474784,0.07408 l -0.063499,0.134053 Q 7.1279086,13.083666 7.0555907,13.0625 6.9850367,13.041334 6.9003719,13.041334 Z M 7.533594,12.87906 q 0.035277,0 0.061735,0.02469 0.028222,0.02293 0.028222,0.07408 0,0.04939 -0.028222,0.07408 -0.026458,0.02469 -0.061735,0.02469 -0.038805,0 -0.065262,-0.02469 -0.026458,-0.02469 -0.026458,-0.07408 0,-0.05115 0.026458,-0.07408 0.026458,-0.02469 0.065262,-0.02469 z m 0.075846,0.354533 v 0.945424 H 7.4542208 v -0.945424 z m 0.7549267,-0.01764 q 0.1693296,0 0.2557583,0.0829 0.086429,0.08114 0.086429,0.264577 v 0.615584 H 8.5530983 v -0.605 q 0,-0.227537 -0.211662,-0.227537 -0.1569827,0 -0.2169536,0.08819 -0.059971,0.08819 -0.059971,0.253995 v 0.49035 H 7.909293 v -0.945424 h 0.1252334 l 0.02293,0.128762 h 0.00882 q 0.04586,-0.07408 0.1269972,-0.109359 0.081137,-0.03704 0.1710934,-0.03704 z m 1.0900593,0 q 0.1693296,0 0.2557583,0.0829 0.086429,0.08114 0.086429,0.264577 v 0.615584 H 9.6431576 v -0.605 q 0,-0.227537 -0.211662,-0.227537 -0.1569827,0 -0.2169536,0.08819 -0.059971,0.08819 -0.059971,0.253995 v 0.49035 H 8.9993523 v -0.945424 h 0.1252334 l 0.02293,0.128762 h 0.00882 q 0.04586,-0.07408 0.1269972,-0.109359 0.081137,-0.03704 0.1710934,-0.03704 z m 0.4868226,0.01764 H 10.10705 l 0.204607,0.537975 q 0.02646,0.07055 0.04762,0.135816 0.02117,0.0635 0.03175,0.121706 h 0.0071 q 0.01058,-0.0441 0.03351,-0.11465 0.02293,-0.07232 0.04762,-0.144636 l 0.19226,-0.536211 h 0.167566 l -0.407449,1.075949 q -0.04939,0.134053 -0.128762,0.213426 -0.07761,0.07937 -0.215189,0.07937 -0.04233,0 -0.07408,-0.0053 -0.031749,-0.0035 -0.054679,-0.0088 v -0.123469 q 0.019402,0.0035 0.04586,0.0071 0.02822,0.0035 0.05821,0.0035 0.08114,0 0.130525,-0.04586 0.05115,-0.04586 0.07937,-0.121706 l 0.04939,-0.125233 z"
     id="text2284"
     style="font-size:1.76385px;fill:#999999;stroke-width:0.529156"
     aria-label="Cinny" />
  <text
     xml:space="preserve"
     transform="scale(0.26457812)"
     id="text3806"
     style="fill:#999999;stroke-width:2;font-size:6.66666667px;white-space:pre;shape-inside:url(#rect3808)" />
</svg>
