<?xml version="1.0" encoding="UTF-8" standalone="no"?>
<svg
   width="64"
   height="64"
   version="1.1"
   viewBox="0 0 16.933 16.933"
   id="svg7"
   sodipodi:docname="Office Template.svg"
   inkscape:version="1.4 (e7c3feb100, 2024-10-09)"
   xmlns:inkscape="http://www.inkscape.org/namespaces/inkscape"
   xmlns:sodipodi="http://sodipodi.sourceforge.net/DTD/sodipodi-0.dtd"
   xmlns:xlink="http://www.w3.org/1999/xlink"
   xmlns="http://www.w3.org/2000/svg"
   xmlns:svg="http://www.w3.org/2000/svg"
   xmlns:rdf="http://www.w3.org/1999/02/22-rdf-syntax-ns#"
   xmlns:cc="http://creativecommons.org/ns#"
   xmlns:dc="http://purl.org/dc/elements/1.1/">
  <sodipodi:namedview
     id="namedview7"
     pagecolor="#9c4444"
     bordercolor="#000000"
     borderopacity="0.25"
     inkscape:showpageshadow="2"
     inkscape:pageopacity="0.0"
     inkscape:pagecheckerboard="0"
     inkscape:deskcolor="#d1d1d1"
     inkscape:zoom="6.15625"
     inkscape:cx="15.51269"
     inkscape:cy="29.807107"
     inkscape:window-width="1183"
     inkscape:window-height="973"
     inkscape:window-x="35"
     inkscape:window-y="32"
     inkscape:window-maximized="0"
     inkscape:current-layer="svg7"
     showgrid="false" />
  <defs
     id="defs2">
    <rect
       x="67.489848"
       y="35.60533"
       width="15.337563"
       height="22.51269"
       id="rect3808" />
    <linearGradient
       inkscape:collect="always"
       id="linearGradient1134">
      <stop
         style="stop-color:#161616;stop-opacity:1;"
         offset="0"
         id="stop1130" />
      <stop
         style="stop-color:#404040;stop-opacity:1;"
         offset="1"
         id="stop1132" />
    </linearGradient>
    <linearGradient
       inkscape:collect="always"
       id="linearGradient883">
      <stop
         style="stop-color:#808080;stop-opacity:1;"
         offset="0"
         id="stop879" />
      <stop
         style="stop-color:#3e3e3e;stop-opacity:1;"
         offset="0.5"
         id="stop1216" />
      <stop
         style="stop-color:#242424;stop-opacity:1;"
         offset="1"
         id="stop881" />
    </linearGradient>
    <linearGradient
       inkscape:collect="always"
       xlink:href="#linearGradient883"
       id="linearGradient885"
       x1="2.1085808"
       y1="2.0236168"
       x2="14.846128"
       y2="15.071845"
       gradientUnits="userSpaceOnUse" />
    <linearGradient
       inkscape:collect="always"
       xlink:href="#linearGradient1134"
       id="linearGradient1136"
       x1="14.971222"
       y1="14.703373"
       x2="2.0756054"
       y2="2.0069976"
       gradientUnits="userSpaceOnUse" />
    <filter
       style="color-interpolation-filters:sRGB;"
       inkscape:label="Blur"
       id="filter1283"
       x="-0.082344266"
       y="-0.082344266"
       width="1.1646885"
       height="1.1646885">
      <feGaussianBlur
         stdDeviation="0.5 0.5"
         result="blur"
         id="feGaussianBlur1281" />
    </filter>
    <filter
       style="color-interpolation-filters:sRGB;"
       inkscape:label="Blur"
       id="filter1694"
       x="-0.94955398"
       y="-0.2118907"
       width="2.899108"
       height="1.4237814">
      <feGaussianBlur
         stdDeviation="0.2 0.2"
         result="blur"
         id="feGaussianBlur1692" />
    </filter>
    <filter
       style="color-interpolation-filters:sRGB;"
       inkscape:label="Blur"
       id="filter3148"
       x="-0.94955398"
       y="-0.2118907"
       width="2.899108"
       height="1.4237814">
      <feGaussianBlur
         stdDeviation="0.2 0.2"
         result="blur"
         id="feGaussianBlur3146" />
    </filter>
    <clipPath
       clipPathUnits="userSpaceOnUse"
       id="clipPath44">
      <path
         id="path46"
         style="display:block;opacity:0.85;fill:#f2f2f2;stroke-width:4.39162"
         d="m 17.570312,8.4453125 a 6.5431988,7.4283052 9.9958727e-8 0 0 -6.535156,7.4394535 6.5431988,7.4283052 9.9958727e-8 0 0 6.552735,7.417968 6.5431988,7.4283052 9.9958727e-8 0 0 6.535156,-7.4375 6.5431988,7.4283052 9.9958727e-8 0 0 -6.552735,-7.4199215 z M 45.646484,41.177734 a 6.5431986,7.0703472 2.4665357e-6 0 0 -6.533203,7.080078 6.5431986,7.0703472 2.4665357e-6 0 0 6.550781,7.060547 6.5431986,7.0703472 2.4665357e-6 0 0 6.535157,-7.080078 6.5431986,7.0703472 2.4665357e-6 0 0 -6.552735,-7.060547 z" />
    </clipPath>
    <inkscape:path-effect
       effect="powerclip"
       id="path-effect48"
       is_visible="true"
       lpeversion="1"
       inverse="true"
       flatten="false"
       hide_clip="false"
       message="" />
  </defs>
  <metadata
     id="metadata2">
    <rdf:RDF>
      <cc:Work
         rdf:about="">
        <dc:format>image/svg+xml</dc:format>
        <dc:type
           rdf:resource="http://purl.org/dc/dcmitype/StillImage" />
      </cc:Work>
    </rdf:RDF>
  </metadata>
  <rect
     style="fill:#000000;stroke:none;stroke-width:0.539739;stroke-dasharray:none;filter:url(#filter1283)"
     id="rect246-1"
     width="14.572964"
     height="14.572964"
     x="1.1932471"
     y="1.2138842"
     rx="2.1589575"
     ry="2.1589575" />
  <rect
     style="opacity:1;fill:#000000;stroke:url(#linearGradient885);stroke-width:0.52915625;stroke-dasharray:none"
     id="rect246"
     width="14.287219"
     height="14.287219"
     x="1.3361193"
     y="1.3567564"
     rx="2.1166251"
     ry="2.1166251" />
  <rect
     style="fill:url(#linearGradient1136);fill-opacity:1;stroke:none;stroke-width:0.478315;stroke-dasharray:none"
     id="rect246-5"
     width="12.914515"
     height="12.914515"
     x="2.0224717"
     y="2.0431087"
     rx="1.5874687"
     ry="1.5874687" />
  <path
     style="fill:#999999;fill-opacity:1;stroke-width:0.190949"
     d="m 7.0993134,3.9714727 c -0.087092,-0.00243 -0.1688847,0.00537 -0.223395,0.023495 -0.2674193,0.090471 -0.4352356,0.2851258 -0.5280926,0.6101406 -0.080223,0.2832512 -0.078155,0.7931886 0.0056,1.2370641 0.014695,0.077124 0.029669,0.1471943 0.033192,0.1585026 0.00441,0.015947 -0.02394,0.026037 -0.1502975,0.05445 C 5.6185986,6.1942878 5.1676287,6.4015973 4.8966912,6.6712337 4.7750368,6.7912669 4.7075296,6.8963914 4.6684477,7.0288896 c -0.027623,0.09191 -0.027623,0.2739923 0,0.3647418 0.075826,0.2493387 0.2892001,0.4837704 0.6265504,0.6910699 0.2342051,0.142649 0.3042181,0.158342 0.3800325,0.083541 0.035556,-0.035081 0.043635,-0.051571 0.043635,-0.09361 0,-0.08147 -0.025555,-0.1144401 -0.1357524,-0.1767765 C 4.8920522,7.514013 4.7706274,7.1289671 5.2319702,6.7868472 5.4661829,6.613475 5.7932884,6.4762964 6.2340777,6.3698926 c 0.193064,-0.046389 0.2364482,-0.05216 0.2364482,-0.027225 0,0.033912 0.1420981,0.4824784 0.2155631,0.6761523 L 6.76217,7.2217029 6.66222,7.4115325 c -0.3993618,0.761039 -0.6557394,1.5371579 -0.6865948,2.1045383 -0.025271,0.4371932 0.055123,0.7498822 0.2502474,0.9435552 0.2133499,0.210783 0.5143224,0.255866 0.901039,0.133516 0.14573,-0.04639 0.4351255,-0.191337 0.6038006,-0.304698 0.1216584,-0.08032 0.1483058,-0.104157 0.1644694,-0.146195 0.016162,-0.04203 0.016162,-0.05551 0,-0.09958 -0.024098,-0.065808 -0.074822,-0.1021871 -0.1435843,-0.1021871 -0.044668,0 -0.075307,0.0135 -0.1902027,0.090625 -0.2606492,0.174541 -0.5051712,0.283454 -0.7082255,0.317378 -0.2812103,0.04756 -0.4615566,-0.07481 -0.544129,-0.364742 -0.03556,-0.1258344 -0.033488,-0.5288549 0.0056,-0.7373157 C 6.374292,8.9147554 6.478633,8.5701878 6.6279122,8.2077739 6.7163584,7.9926528 6.8850709,7.6325945 6.907993,7.6088214 6.919452,7.5963564 6.934604,7.6167014 6.972513,7.7028044 7.1655811,8.1307172 7.4606345,8.652835 7.7486148,9.0752476 8.4362742,10.082456 9.1890825,10.738261 9.7688675,10.8322 l -0.00632,0.0012 c 0.2547735,0.04059 0.4695515,-0.022 0.6358735,-0.186102 0.135465,-0.135992 0.225064,-0.3272 0.275608,-0.593357 0.03086,-0.1664285 0.03086,-0.6320444 0,-0.8596422 C 10.579977,8.5158307 10.329874,7.73801 9.9546191,6.9632991 9.8961371,6.8421089 9.8629802,6.8126286 9.7871659,6.8126286 c -0.084926,-0.00114 -0.1540265,0.063234 -0.1540265,0.1447035 0,0.028412 0.029007,0.1053432 0.0772,0.2062393 0.4625156,0.9727231 0.7103756,1.9138247 0.6851036,2.5945906 -0.01557,0.40561 -0.11821,0.649344 -0.312156,0.743283 -0.1019777,0.04958 -0.2306939,0.04854 -0.4005471,-0.006 C 8.9030881,10.235053 7.8470191,8.9325478 7.1664432,7.3921394 L 7.0985675,7.2384856 7.1973986,7.0717784 C 7.3087571,6.8827405 7.5899345,6.4604783 7.7195238,6.2870985 L 7.8067932,6.171858 h 0.2297352 c 1.3949431,0 2.7756486,0.3110885 3.5079366,0.7880365 0.149279,0.097413 0.32932,0.275574 0.383389,0.3796594 0.03909,0.072483 0.04289,0.091709 0.04289,0.1879651 0,0.094229 -0.0038,0.1168425 -0.0358,0.1745391 -0.08965,0.1698895 -0.326137,0.3463203 -0.630279,0.4721507 -0.141052,0.058857 -0.179016,0.097583 -0.179016,0.1778953 0,0.067843 0.04504,0.1244095 0.11263,0.1447032 0.04378,0.012466 0.0587,0.010307 0.136872,-0.020136 0.49134,-0.1916343 0.827801,-0.4894084 0.896564,-0.7906466 0.01939,-0.08147 0.0179,-0.2344968 -0.0015,-0.3136481 C 12.233488,7.2169652 12.102926,7.0178453 11.95247,6.8841862 11.28219,6.2906845 9.8599886,5.9080004 8.1726559,5.8682794 L 8.0521942,5.8645521 8.1931681,5.7082873 C 8.2689823,5.621017 8.4042589,5.4762282 8.4971196,5.3834508 8.9770028,4.9021496 9.4226791,4.5872735 9.8117559,4.4559324 c 0.1240082,-0.042912 0.1487618,-0.047737 0.2774731,-0.047737 0.119599,0 0.14818,0.00374 0.199899,0.029836 0.07024,0.032763 0.149199,0.1131217 0.189458,0.1890842 0.07905,0.1551253 0.105786,0.4268692 0.06788,0.7168033 -0.01264,0.099736 -0.02313,0.2150022 -0.02313,0.2547227 0,0.066976 0.0023,0.077256 0.0414,0.1100191 0.03204,0.029573 0.05404,0.037295 0.09547,0.037295 0.06671,0 0.128429,-0.034871 0.146942,-0.082421 0.05495,-0.1403462 0.08366,-0.6377128 0.04811,-0.8473348 C 10.800009,4.4943691 10.659932,4.2769933 10.437187,4.1717472 10.043428,3.9838551 9.4718679,4.1673286 8.8048006,4.6949913 8.4559775,4.971292 7.9967713,5.4400675 7.6799935,5.8410564 l -0.030955,0.036176 -0.1872192,0.010444 C 7.3046323,5.8966653 7.048742,5.9215906 6.751356,5.9566709 L 6.687209,5.9645009 6.65961,5.8093554 C 6.6058361,5.5002707 6.6010589,5.4539234 6.6010589,5.158192 c 0,-0.2594857 0.00344,-0.3095127 0.028717,-0.4135979 0.062004,-0.2626854 0.1849232,-0.4259203 0.3468402,-0.4598426 0.222756,-0.046373 0.4993625,0.063453 0.88724,0.3475863 0.1240078,0.091907 0.2747288,0.013689 0.2562145,-0.1312771 C 8.1121367,4.4378573 8.0534971,4.3832313 7.8560241,4.253051 7.6905771,4.1431689 7.5049211,4.0524687 7.3532923,4.0083981 7.2786506,3.9863637 7.1864082,3.9739047 7.0993157,3.9714767 Z M 7.3003316,6.201321 c 0.05666,-0.0036 0.094356,-0.00427 0.094356,0 0,0.0058 -0.052694,0.086152 -0.1182242,0.181252 C 7.2109334,6.476511 7.1180442,6.614584 7.069851,6.6928644 7.022834,6.7688274 6.976776,6.8378634 6.9676636,6.8480104 6.9550306,6.8613464 6.9365226,6.8250524 6.8803936,6.6484838 6.8001664,6.4049574 6.7656839,6.273792 6.7759685,6.2624842 6.7887414,6.2496562 7.1303508,6.2121127 7.3003316,6.201321 Z m 1.1662042,0.8249577 c -0.2108082,0 -0.3818974,0.1717432 -0.3818974,0.3822704 0,0.2105309 0.1710926,0.3815244 0.3818974,0.3815244 0.2108078,0 0.3818973,-0.1709968 0.3818973,-0.3815244 0,-0.2105172 -0.1710929,-0.3822704 -0.3818973,-0.3822704 z"
     id="path3-7" />
  <g
     fill="#474747"
     id="g9"
     transform="matrix(0.46959567,0,0,0.46959567,4.7471229,3.7470598)"
     style="fill:#999999;fill-opacity:1;stroke:none;stroke-width:0.58349;stroke-dasharray:none;stroke-opacity:0.3" />
  <g
     aria-label="Krita"
     id="text1450"
     style="font-size:1.76385px;opacity:1;fill:#afafe9;stroke-width:0.529156;fill-opacity:1">
    <rect
       style="font-size:1.76385px;fill:#afafe9;fill-opacity:1;stroke:none;stroke-width:0.519976;stroke-dasharray:none;filter:url(#filter3148)"
       id="rect1656-3"
       width="0.5055005"
       height="2.2653189"
       x="15.369148"
       y="4.3016486"
       rx="0"
       ry="0" />
    <rect
       style="opacity:1;fill:#afafe9;fill-opacity:1;stroke:none;stroke-width:0.519976;stroke-dasharray:none"
       id="rect1656"
       width="0.5055005"
       height="2.2653189"
       x="15.369148"
       y="4.3016486"
       rx="0"
       ry="0" />
  </g>
  <path
     d="M 7.2038429,14.179017 7.0521518,13.789206 H 6.5529822 L 6.403055,14.179017 H 6.2425447 l 0.4921141,-1.26468 h 0.1428718 l 0.4903503,1.26468 z m -0.3404231,-0.91191 q -0.00529,-0.01411 -0.017639,-0.05115 -0.012347,-0.03704 -0.024694,-0.07585 -0.010583,-0.04057 -0.017638,-0.06173 -0.012347,0.05468 -0.028222,0.107595 -0.015875,0.05115 -0.026458,0.08114 l -0.1428719,0.380991 h 0.3986301 z m 0.9718812,0.802551 q 0.035277,0 0.072318,-0.0053 0.037041,-0.0071 0.059971,-0.01411 v 0.118178 q -0.024694,0.01235 -0.070554,0.0194 -0.04586,0.0088 -0.088192,0.0088 -0.074082,0 -0.1375803,-0.02469 -0.061735,-0.02646 -0.1005395,-0.08996 -0.038805,-0.0635 -0.038805,-0.178149 V 13.353535 H 7.3978662 v -0.07408 l 0.1358165,-0.06173 0.061735,-0.201079 h 0.09172 v 0.216953 h 0.2733968 v 0.119942 H 7.6871376 v 0.546794 q 0,0.08643 0.040569,0.128761 0.042332,0.04057 0.1075948,0.04057 z m 1.142975,-0.365117 q 0,0.234592 -0.1199418,0.363354 -0.118178,0.128761 -0.3210207,0.128761 -0.1252334,0 -0.224009,-0.05644 -0.097012,-0.05821 -0.1534549,-0.167565 -0.056443,-0.111123 -0.056443,-0.268106 0,-0.234592 0.1181779,-0.361589 0.118178,-0.126997 0.3210207,-0.126997 0.1287611,0 0.2257728,0.05821 0.098776,0.05644 0.153455,0.165802 0.056443,0.107595 0.056443,0.264577 z m -0.7143593,0 q 0,0.167566 0.065263,0.266342 0.067026,0.09701 0.211662,0.09701 0.1428718,0 0.2098981,-0.09701 0.067026,-0.09878 0.067026,-0.266342 0,-0.167565 -0.067026,-0.262813 -0.067026,-0.09525 -0.211662,-0.09525 -0.1446357,0 -0.2098981,0.09525 -0.065263,0.09525 -0.065263,0.262813 z m 1.9966773,-0.488586 q 0.16051,0 0.239884,0.0829 0.07937,0.08114 0.07937,0.264577 v 0.615584 h -0.153455 v -0.608528 q 0,-0.224009 -0.19226,-0.224009 -0.13758,0 -0.197551,0.07937 -0.058207,0.07937 -0.058207,0.231064 v 0.5221 h -0.153455 v -0.608528 q 0,-0.224009 -0.1940235,-0.224009 -0.1428718,0 -0.1975512,0.08819 -0.054679,0.08819 -0.054679,0.253995 v 0.49035 H 9.2234503 v -0.945424 h 0.1252333 l 0.02293,0.128762 h 0.00882 q 0.044096,-0.07408 0.118178,-0.109359 0.075846,-0.03704 0.1605103,-0.03704 0.2222451,0 0.2892714,0.158746 h 0.00882 q 0.047624,-0.08114 0.1287611,-0.119941 0.0829,-0.0388 0.174621,-0.0388 z"
     id="text2284"
     style="font-size:1.76385px;fill:#999999;stroke-width:0.529156"
     aria-label="Atom" />
  <text
     xml:space="preserve"
     transform="scale(0.26457812)"
     id="text3806"
     style="font-size:6.66667px;white-space:pre;shape-inside:url(#rect3808);display:inline;fill:#999999;stroke-width:2" />
</svg>
