<?xml version="1.0" encoding="UTF-8" standalone="no"?>
<svg
   width="64"
   height="64"
   version="1.1"
   viewBox="0 0 16.933 16.933"
   id="svg7"
   sodipodi:docname="Development Template.svg"
   inkscape:version="1.4 (e7c3feb100, 2024-10-09)"
   xmlns:inkscape="http://www.inkscape.org/namespaces/inkscape"
   xmlns:sodipodi="http://sodipodi.sourceforge.net/DTD/sodipodi-0.dtd"
   xmlns:xlink="http://www.w3.org/1999/xlink"
   xmlns="http://www.w3.org/2000/svg"
   xmlns:svg="http://www.w3.org/2000/svg"
   xmlns:rdf="http://www.w3.org/1999/02/22-rdf-syntax-ns#"
   xmlns:cc="http://creativecommons.org/ns#"
   xmlns:dc="http://purl.org/dc/elements/1.1/">
  <sodipodi:namedview
     id="namedview7"
     pagecolor="#9c4444"
     bordercolor="#000000"
     borderopacity="0.25"
     inkscape:showpageshadow="2"
     inkscape:pageopacity="0.0"
     inkscape:pagecheckerboard="0"
     inkscape:deskcolor="#d1d1d1"
     inkscape:zoom="6.15625"
     inkscape:cx="15.675127"
     inkscape:cy="29.807107"
     inkscape:window-width="1183"
     inkscape:window-height="973"
     inkscape:window-x="35"
     inkscape:window-y="32"
     inkscape:window-maximized="0"
     inkscape:current-layer="svg7"
     showgrid="false" />
  <defs
     id="defs2">
    <rect
       x="67.489848"
       y="35.60533"
       width="15.337563"
       height="22.51269"
       id="rect3808" />
    <linearGradient
       inkscape:collect="always"
       id="linearGradient1134">
      <stop
         style="stop-color:#161616;stop-opacity:1;"
         offset="0"
         id="stop1130" />
      <stop
         style="stop-color:#404040;stop-opacity:1;"
         offset="1"
         id="stop1132" />
    </linearGradient>
    <linearGradient
       inkscape:collect="always"
       id="linearGradient883">
      <stop
         style="stop-color:#808080;stop-opacity:1;"
         offset="0"
         id="stop879" />
      <stop
         style="stop-color:#3e3e3e;stop-opacity:1;"
         offset="0.5"
         id="stop1216" />
      <stop
         style="stop-color:#242424;stop-opacity:1;"
         offset="1"
         id="stop881" />
    </linearGradient>
    <linearGradient
       inkscape:collect="always"
       xlink:href="#linearGradient883"
       id="linearGradient885"
       x1="2.1085808"
       y1="2.0236168"
       x2="14.846128"
       y2="15.071845"
       gradientUnits="userSpaceOnUse" />
    <linearGradient
       inkscape:collect="always"
       xlink:href="#linearGradient1134"
       id="linearGradient1136"
       x1="14.971222"
       y1="14.703373"
       x2="2.0756054"
       y2="2.0069976"
       gradientUnits="userSpaceOnUse" />
    <filter
       style="color-interpolation-filters:sRGB;"
       inkscape:label="Blur"
       id="filter1283"
       x="-0.082344266"
       y="-0.082344266"
       width="1.1646885"
       height="1.1646885">
      <feGaussianBlur
         stdDeviation="0.5 0.5"
         result="blur"
         id="feGaussianBlur1281" />
    </filter>
    <filter
       style="color-interpolation-filters:sRGB;"
       inkscape:label="Blur"
       id="filter1694"
       x="-0.94955398"
       y="-0.2118907"
       width="2.899108"
       height="1.4237814">
      <feGaussianBlur
         stdDeviation="0.2 0.2"
         result="blur"
         id="feGaussianBlur1692" />
    </filter>
    <filter
       style="color-interpolation-filters:sRGB;"
       inkscape:label="Blur"
       id="filter3148"
       x="-0.94955398"
       y="-0.2118907"
       width="2.899108"
       height="1.4237814">
      <feGaussianBlur
         stdDeviation="0.2 0.2"
         result="blur"
         id="feGaussianBlur3146" />
    </filter>
    <clipPath
       clipPathUnits="userSpaceOnUse"
       id="clipPath44">
      <path
         id="path46"
         style="display:block;opacity:0.85;fill:#f2f2f2;stroke-width:4.39162"
         d="m 17.570312,8.4453125 a 6.5431988,7.4283052 9.9958727e-8 0 0 -6.535156,7.4394535 6.5431988,7.4283052 9.9958727e-8 0 0 6.552735,7.417968 6.5431988,7.4283052 9.9958727e-8 0 0 6.535156,-7.4375 6.5431988,7.4283052 9.9958727e-8 0 0 -6.552735,-7.4199215 z M 45.646484,41.177734 a 6.5431986,7.0703472 2.4665357e-6 0 0 -6.533203,7.080078 6.5431986,7.0703472 2.4665357e-6 0 0 6.550781,7.060547 6.5431986,7.0703472 2.4665357e-6 0 0 6.535157,-7.080078 6.5431986,7.0703472 2.4665357e-6 0 0 -6.552735,-7.060547 z" />
    </clipPath>
    <inkscape:path-effect
       effect="powerclip"
       id="path-effect48"
       is_visible="true"
       lpeversion="1"
       inverse="true"
       flatten="false"
       hide_clip="false"
       message="" />
  </defs>
  <metadata
     id="metadata2">
    <rdf:RDF>
      <cc:Work
         rdf:about="">
        <dc:format>image/svg+xml</dc:format>
        <dc:type
           rdf:resource="http://purl.org/dc/dcmitype/StillImage" />
      </cc:Work>
    </rdf:RDF>
  </metadata>
  <rect
     style="fill:#000000;stroke:none;stroke-width:0.539739;stroke-dasharray:none;filter:url(#filter1283)"
     id="rect246-1"
     width="14.572964"
     height="14.572964"
     x="1.1932471"
     y="1.2138842"
     rx="2.1589575"
     ry="2.1589575" />
  <rect
     style="opacity:1;fill:#000000;stroke:url(#linearGradient885);stroke-width:0.52915625;stroke-dasharray:none"
     id="rect246"
     width="14.287219"
     height="14.287219"
     x="1.3361193"
     y="1.3567564"
     rx="2.1166251"
     ry="2.1166251" />
  <rect
     style="fill:url(#linearGradient1136);fill-opacity:1;stroke:none;stroke-width:0.478315;stroke-dasharray:none"
     id="rect246-5"
     width="12.914515"
     height="12.914515"
     x="2.0224717"
     y="2.0431087"
     rx="1.5874687"
     ry="1.5874687" />
  <path
     style="fill:#999999;fill-opacity:1;stroke-width:0.0922527"
     d="M 6.3748353,10.656212 C 5.515873,10.529666 4.8360768,10.211631 4.6504667,9.8494899 4.4655175,9.488637 4.9144538,9.0364963 5.6232472,8.8697684 c 1.1334454,-0.266618 2.4068787,-0.02366 3.6127925,0.6893024 0.1230484,0.072746 0.2237254,0.1210658 0.2237254,0.1073704 0,-0.08827 -0.6287149,-0.5673259 -0.9102777,-0.6935971 C 8.4267254,8.9177884 8.4226954,8.9118025 8.4401455,8.8104796 8.4501109,8.7526213 8.5043834,8.6101852 8.5607536,8.4939631 8.6762096,8.2559204 8.813815,8.1166806 9.2737699,7.7724783 9.59257,7.5339078 9.7926392,7.3414416 9.8627341,7.2058907 9.899014,7.1357277 9.8753944,7.1508877 9.7506561,7.2778293 9.6019821,7.4291258 9.4438917,7.5364955 8.9384458,7.8294522 8.6328706,8.0065636 8.4164281,8.2156336 8.3138486,8.4327733 L 8.2281038,8.6142772 8.1630964,8.4678909 C 8.1273425,8.3873779 8.0375572,8.1023121 7.9635735,7.8344103 7.7755136,7.1534294 7.7818645,7.2145235 7.8990983,7.2141833 8.0353749,7.2138206 8.2998045,7.0859386 8.4363483,6.9544277 8.5577484,6.8375018 8.6261879,6.7256815 8.6645997,6.5814979 8.6848174,6.5056069 8.6830529,6.5000158 8.6535361,6.5464321 8.5263292,6.7464696 8.4863819,6.7940591 8.3732334,6.8803604 8.056457,7.1219739 7.5670149,7.126835 7.2148436,6.891865 7.1425143,6.8436064 6.9645997,6.7038276 6.8194781,6.5812448 6.6743562,6.458662 6.5399066,6.358367 6.5207005,6.358367 c -0.025507,0 -0.028065,0.036691 -0.00949,0.1361164 0.013985,0.074865 0.017995,0.1481446 0.00891,0.1628462 -0.030068,0.048653 -0.071483,-0.00584 -0.071483,-0.094059 0,-0.085787 -0.038128,-0.1150221 -0.0741,-0.056818 -0.04346,0.07032 -0.06983,-0.010519 -0.029115,-0.089253 0.057874,-0.1119153 0.056559,-0.1178744 -0.026014,-0.1178744 -0.097135,0 -0.1445098,-0.068377 -0.1445098,-0.2085765 0,-0.1162978 0.077751,-0.2342361 0.1544211,-0.2342361 0.016916,0 0.030755,-0.033211 0.030755,-0.073803 0,-0.045922 0.016729,-0.073803 0.044282,-0.073803 0.026089,0 0.044491,0.027288 0.044791,0.066423 2.673e-4,0.036532 0.033491,0.097706 0.073803,0.1359421 0.04031,0.038236 0.073292,0.086426 0.073292,0.1070888 0,0.105738 0.2645577,0.1522615 0.4175404,0.073426 C 7.1138208,6.0402351 7.2443077,5.9135509 7.2926182,5.8210773 7.3569997,5.6978408 7.3427797,5.6892527 7.238321,5.7882852 7.1855525,5.8383128 7.0924015,5.8967827 7.0313182,5.9182191 6.929137,5.9540779 6.9169092,5.9524116 6.8783577,5.8973718 6.855312,5.8644696 6.7837831,5.8217683 6.7194046,5.8024802 6.5708344,5.7579675 6.5504044,5.7033092 6.6417571,5.5947425 c 0.039912,-0.047434 0.072569,-0.093947 0.072569,-0.1033641 0,-0.021941 -0.1640102,-0.1071999 -0.2062188,-0.1071999 -0.022725,0 -0.022456,0.017881 9.36e-4,0.061571 0.018123,0.033863 0.024862,0.06966 0.014974,0.079548 C 6.5082917,5.5410221 6.4555364,5.4953154 6.2153787,5.2579033 6.0900778,5.1340383 6.0512563,4.7384822 6.1518465,4.6106026 6.3139702,4.4044959 7.0958776,4.2025608 7.7180418,4.206118 c 0.2550707,0.00145 0.6399544,0.043793 0.4779717,0.052574 -0.1056202,0.00572 -0.049027,0.055174 0.090459,0.07904 0.096206,0.016459 0.1119005,0.026212 0.067575,0.041986 -0.045689,0.01626 0.00812,0.055867 0.2579056,0.1898528 0.7005449,0.3757678 0.961987,0.453485 1.8468399,0.5489958 0.383342,0.041378 0.648599,0.086153 0.807207,0.1362581 0.260762,0.082375 0.289973,0.114637 0.06589,0.072774 -0.0798,-0.014909 -0.148839,-0.023367 -0.153412,-0.018794 -0.0046,0.00457 0.09094,0.048739 0.212257,0.098149 0.121313,0.049409 0.294974,0.1392222 0.385913,0.1995837 0.173254,0.1149993 0.20294,0.169391 0.049,0.089789 -0.149984,-0.07756 -0.147329,-0.053617 0.01234,0.1112266 0.28213,0.2912827 0.455871,0.7735708 0.496198,1.3774003 l 0.01676,0.2509278 -0.05003,-0.1328441 -0.05002,-0.1328444 -0.021,0.2845126 C 12.153998,8.4831023 11.274345,9.5855181 10.104093,10.11882 9.5976913,10.349595 9.0172657,10.512474 8.3431347,10.612981 7.8244195,10.690319 6.7643536,10.7136 6.3748286,10.65621 Z M 6.2567517,4.7937614 c 0.010035,-0.016236 0.00916,-0.044223 -0.00194,-0.062195 -0.01984,-0.032104 -0.07033,0.017092 -0.071402,0.069574 -6.492e-4,0.032359 0.052069,0.027053 0.07335,-0.00738 z M 8.1445019,4.6955223 C 8.1817119,4.589718 8.1147011,4.4585241 8.016232,4.4443921 7.9080723,4.4288701 7.8766734,4.4874751 7.981877,4.5085161 c 0.082514,0.016503 0.090408,0.028241 0.090408,0.1344427 0,0.064502 -0.016447,0.1238041 -0.036901,0.1330614 -0.020296,0.00918 -0.010606,0.013483 0.021531,0.00955 0.033845,-0.00414 0.0707,-0.042032 0.087588,-0.090051 z m -1.1054472,-0.107207 0.073802,-0.022436 -0.085167,-0.034448 c -0.069324,-0.02804 -0.098155,-0.025938 -0.1549846,0.011299 -0.038399,0.02516 -0.069817,0.052082 -0.069817,0.059826 0,0.020749 0.151025,0.011643 0.2361666,-0.014241 z"
     id="path1" />
  <g
     fill="#474747"
     id="g9"
     transform="matrix(0.46959567,0,0,0.46959567,4.7471229,3.7470598)"
     style="fill:#999999;fill-opacity:1;stroke:none;stroke-width:0.58349;stroke-dasharray:none;stroke-opacity:0.3" />
  <g
     aria-label="Krita"
     id="text1450"
     style="font-size:1.76385px;opacity:1;fill:#8a916f;stroke-width:0.529156">
    <rect
       style="font-size:1.76385px;fill:#8a916f;fill-opacity:1;stroke:none;stroke-width:0.519976;stroke-dasharray:none;filter:url(#filter3148)"
       id="rect1656-3"
       width="0.5055005"
       height="2.2653189"
       x="15.369148"
       y="4.3016486"
       rx="0"
       ry="0" />
    <rect
       style="opacity:1;fill:#8a916f;fill-opacity:1;stroke:none;stroke-width:0.519976;stroke-dasharray:none"
       id="rect1656"
       width="0.5055005"
       height="2.2653189"
       x="15.369148"
       y="4.3016486"
       rx="0"
       ry="0" />
  </g>
  <path
     d="m 6.0202966,13.536976 q 0,0.319257 -0.1746211,0.481531 -0.1728573,0.16051 -0.4832949,0.16051 H 5.0113745 v -1.259389 h 0.388047 q 0.1904957,0 0.3298399,0.07055 0.1393441,0.07055 0.2151897,0.208134 0.075845,0.135817 0.075845,0.33866 z m -0.1675657,0.0053 q 0,-0.25223 -0.1252334,-0.368644 Q 5.604028,13.055445 5.3764914,13.055445 H 5.170121 v 0.987756 h 0.1710934 q 0.5115165,0 0.5115165,-0.500934 z m 0.5803059,-0.377464 q 0,0.05997 -0.00353,0.112887 -0.00176,0.05115 -0.00529,0.08114 h 0.00882 q 0.040569,-0.05997 0.1111225,-0.10054 0.070554,-0.04057 0.1816765,-0.04057 0.176385,0 0.282216,0.123469 0.1075949,0.121706 0.1075949,0.365117 0,0.243412 -0.1075949,0.366881 -0.1075948,0.12347 -0.282216,0.12347 -0.1111225,0 -0.1816765,-0.04057 -0.070554,-0.04057 -0.1111225,-0.09701 h -0.012347 l -0.031749,0.119942 H 6.277818 v -1.340526 h 0.1552188 z m 0.2663413,0.181677 q -0.1499273,0 -0.2081343,0.08643 -0.058207,0.08643 -0.058207,0.268105 v 0.0071 q 0,0.174621 0.056443,0.268105 0.058207,0.09172 0.2134258,0.09172 0.1269972,0 0.1887319,-0.09348 0.063499,-0.09348 0.063499,-0.269869 0,-0.358061 -0.2557582,-0.358061 z m 1.028324,-0.130525 q 0.1217057,0 0.2081343,0.05292 0.088192,0.05292 0.1340526,0.149928 0.047624,0.09525 0.047624,0.224009 v 0.09348 H 7.47018 q 0.00353,0.16051 0.081137,0.245175 0.079373,0.0829 0.2204813,0.0829 0.089956,0 0.1587465,-0.01588 0.070554,-0.01764 0.1446357,-0.04939 v 0.135817 q -0.072318,0.03175 -0.1428719,0.04586 -0.070554,0.01588 -0.1675657,0.01588 -0.1340526,0 -0.2381198,-0.05468 -0.1023033,-0.05468 -0.1605103,-0.162274 -0.056443,-0.109359 -0.056443,-0.266341 0,-0.155219 0.051152,-0.266342 0.052916,-0.111122 0.1463996,-0.171093 0.095248,-0.05997 0.2204812,-0.05997 z m -0.00176,0.126997 q -0.1111226,0 -0.176385,0.07232 -0.063499,0.07055 -0.075846,0.197551 h 0.4815311 q -0.00176,-0.119942 -0.056443,-0.194023 -0.054679,-0.07585 -0.1728573,-0.07585 z m 0.9895185,-0.125233 q 0.1728573,0 0.2557583,0.07584 0.082901,0.07585 0.082901,0.241648 v 0.643805 H 8.9412296 l -0.029985,-0.134053 h -0.00706 q -0.061735,0.07761 -0.1305249,0.114651 -0.067026,0.03704 -0.1869681,0.03704 -0.1287611,0 -0.2134259,-0.06703 -0.084665,-0.06879 -0.084665,-0.213426 0,-0.141108 0.1111226,-0.216953 0.1111225,-0.07761 0.3421869,-0.08466 l 0.1605103,-0.0053 v -0.05644 q 0,-0.118178 -0.051152,-0.164038 -0.051152,-0.04586 -0.1446357,-0.04586 -0.074082,0 -0.141108,0.02293 -0.067026,0.02117 -0.1252334,0.04939 l -0.047624,-0.116414 q 0.061735,-0.03351 0.1463995,-0.05644 0.084665,-0.02469 0.176385,-0.02469 z m 0.04586,0.504461 q -0.176385,0.0071 -0.2451751,0.05644 -0.067026,0.04939 -0.067026,0.139344 0,0.07937 0.047624,0.116414 0.049388,0.03704 0.1252334,0.03704 0.1199418,0 0.199315,-0.06526 0.079373,-0.06703 0.079373,-0.204607 v -0.08466 z M 9.5550506,14.179017 9.1969891,13.233593 H 9.362791 l 0.2010789,0.557377 q 0.014111,0.0388 0.029985,0.08643 0.015875,0.04762 0.028222,0.09172 0.012347,0.04233 0.017639,0.07232 h 0.00706 q 0.00706,-0.02999 0.019402,-0.07408 0.014111,-0.0441 0.029985,-0.09172 0.017639,-0.04762 0.029986,-0.08467 l 0.2010788,-0.557377 h 0.1658021 l -0.3598255,0.945424 z m 1.0530174,-0.963062 q 0.121706,0 0.208134,0.05292 0.08819,0.05292 0.134053,0.149928 0.04762,0.09525 0.04762,0.224009 v 0.09348 h -0.647333 q 0.0035,0.16051 0.08114,0.245175 0.07937,0.0829 0.220481,0.0829 0.08996,0 0.158747,-0.01588 0.07055,-0.01764 0.144635,-0.04939 v 0.135817 q -0.07232,0.03175 -0.142871,0.04586 -0.07055,0.01588 -0.167566,0.01588 -0.134053,0 -0.23812,-0.05468 -0.102303,-0.05468 -0.16051,-0.162274 -0.05644,-0.109359 -0.05644,-0.266341 0,-0.155219 0.05115,-0.266342 0.05292,-0.111122 0.1464,-0.171093 0.09525,-0.05997 0.220481,-0.05997 z m -0.0018,0.126997 q -0.111122,0 -0.176385,0.07232 -0.0635,0.07055 -0.07584,0.197551 h 0.481531 q -0.0018,-0.119942 -0.05644,-0.194023 -0.05468,-0.07585 -0.172857,-0.07585 z m 1.07242,-0.126997 q 0.02646,0 0.05644,0.0035 0.03175,0.0018 0.05468,0.0071 l -0.0194,0.142872 q -0.02293,-0.0053 -0.05115,-0.0088 -0.02646,-0.0035 -0.05115,-0.0035 -0.07232,0 -0.135817,0.04057 -0.0635,0.0388 -0.102303,0.111122 -0.03704,0.07055 -0.03704,0.165802 v 0.504461 h -0.155219 v -0.945424 h 0.126997 l 0.01764,0.172858 h 0.0071 q 0.04586,-0.07761 0.118178,-0.134053 0.07232,-0.05644 0.171094,-0.05644 z"
     id="text2284"
     style="font-size:1.76385px;fill:#999999;stroke-width:0.529156"
     aria-label="Dbeaver" />
  <text
     xml:space="preserve"
     transform="scale(0.26457812)"
     id="text3806"
     style="font-size:6.66667px;white-space:pre;shape-inside:url(#rect3808);display:inline;fill:#999999;stroke-width:2" />
</svg>
