<?xml version="1.0" encoding="UTF-8" standalone="no"?>
<svg
   width="64"
   height="64"
   version="1.1"
   viewBox="0 0 16.933 16.933"
   id="svg7"
   sodipodi:docname="io.github.zen_browser.zen.svg"
   inkscape:version="1.4 (e7c3feb100, 2024-10-09)"
   xmlns:inkscape="http://www.inkscape.org/namespaces/inkscape"
   xmlns:sodipodi="http://sodipodi.sourceforge.net/DTD/sodipodi-0.dtd"
   xmlns:xlink="http://www.w3.org/1999/xlink"
   xmlns="http://www.w3.org/2000/svg"
   xmlns:svg="http://www.w3.org/2000/svg"
   xmlns:rdf="http://www.w3.org/1999/02/22-rdf-syntax-ns#"
   xmlns:cc="http://creativecommons.org/ns#"
   xmlns:dc="http://purl.org/dc/elements/1.1/">
  <sodipodi:namedview
     id="namedview7"
     pagecolor="#9c4444"
     bordercolor="#000000"
     borderopacity="0.25"
     inkscape:showpageshadow="2"
     inkscape:pageopacity="0.0"
     inkscape:pagecheckerboard="0"
     inkscape:deskcolor="#d1d1d1"
     inkscape:zoom="6.15625"
     inkscape:cx="15.675127"
     inkscape:cy="29.807107"
     inkscape:window-width="1183"
     inkscape:window-height="973"
     inkscape:window-x="35"
     inkscape:window-y="32"
     inkscape:window-maximized="0"
     inkscape:current-layer="svg7"
     showgrid="false" />
  <defs
     id="defs2">
    <rect
       x="67.489848"
       y="35.60533"
       width="15.337563"
       height="22.51269"
       id="rect3808" />
    <linearGradient
       inkscape:collect="always"
       id="linearGradient1134">
      <stop
         style="stop-color:#161616;stop-opacity:1;"
         offset="0"
         id="stop1130" />
      <stop
         style="stop-color:#404040;stop-opacity:1;"
         offset="1"
         id="stop1132" />
    </linearGradient>
    <linearGradient
       inkscape:collect="always"
       id="linearGradient883">
      <stop
         style="stop-color:#808080;stop-opacity:1;"
         offset="0"
         id="stop879" />
      <stop
         style="stop-color:#3e3e3e;stop-opacity:1;"
         offset="0.5"
         id="stop1216" />
      <stop
         style="stop-color:#242424;stop-opacity:1;"
         offset="1"
         id="stop881" />
    </linearGradient>
    <linearGradient
       inkscape:collect="always"
       xlink:href="#linearGradient883"
       id="linearGradient885"
       x1="2.1085808"
       y1="2.0236168"
       x2="14.846128"
       y2="15.071845"
       gradientUnits="userSpaceOnUse" />
    <linearGradient
       inkscape:collect="always"
       xlink:href="#linearGradient1134"
       id="linearGradient1136"
       x1="14.971222"
       y1="14.703373"
       x2="2.0756054"
       y2="2.0069976"
       gradientUnits="userSpaceOnUse" />
    <filter
       style="color-interpolation-filters:sRGB;"
       inkscape:label="Blur"
       id="filter1283"
       x="-0.082344266"
       y="-0.082344266"
       width="1.1646885"
       height="1.1646885">
      <feGaussianBlur
         stdDeviation="0.5 0.5"
         result="blur"
         id="feGaussianBlur1281" />
    </filter>
    <filter
       style="color-interpolation-filters:sRGB;"
       inkscape:label="Blur"
       id="filter1694"
       x="-0.94955398"
       y="-0.2118907"
       width="2.899108"
       height="1.4237814">
      <feGaussianBlur
         stdDeviation="0.2 0.2"
         result="blur"
         id="feGaussianBlur1692" />
    </filter>
    <filter
       style="color-interpolation-filters:sRGB;"
       inkscape:label="Blur"
       id="filter3148"
       x="-0.94955398"
       y="-0.2118907"
       width="2.899108"
       height="1.4237814">
      <feGaussianBlur
         stdDeviation="0.2 0.2"
         result="blur"
         id="feGaussianBlur3146" />
    </filter>
    <clipPath
       clipPathUnits="userSpaceOnUse"
       id="clipPath44">
      <path
         id="path46"
         style="display:block;opacity:0.85;fill:#f2f2f2;stroke-width:4.39162"
         d="m 17.570312,8.4453125 a 6.5431988,7.4283052 9.9958727e-8 0 0 -6.535156,7.4394535 6.5431988,7.4283052 9.9958727e-8 0 0 6.552735,7.417968 6.5431988,7.4283052 9.9958727e-8 0 0 6.535156,-7.4375 6.5431988,7.4283052 9.9958727e-8 0 0 -6.552735,-7.4199215 z M 45.646484,41.177734 a 6.5431986,7.0703472 2.4665357e-6 0 0 -6.533203,7.080078 6.5431986,7.0703472 2.4665357e-6 0 0 6.550781,7.060547 6.5431986,7.0703472 2.4665357e-6 0 0 6.535157,-7.080078 6.5431986,7.0703472 2.4665357e-6 0 0 -6.552735,-7.060547 z" />
    </clipPath>
    <inkscape:path-effect
       effect="powerclip"
       id="path-effect48"
       is_visible="true"
       lpeversion="1"
       inverse="true"
       flatten="false"
       hide_clip="false"
       message="" />
  </defs>
  <metadata
     id="metadata2">
    <rdf:RDF>
      <cc:Work
         rdf:about="">
        <dc:format>image/svg+xml</dc:format>
        <dc:type
           rdf:resource="http://purl.org/dc/dcmitype/StillImage" />
      </cc:Work>
    </rdf:RDF>
  </metadata>
  <rect
     style="fill:#000000;stroke:none;stroke-width:0.539739;stroke-dasharray:none;filter:url(#filter1283)"
     id="rect246-1"
     width="14.572964"
     height="14.572964"
     x="1.1932471"
     y="1.2138842"
     rx="2.1589575"
     ry="2.1589575" />
  <rect
     style="opacity:1;fill:#000000;stroke:url(#linearGradient885);stroke-width:0.52915625;stroke-dasharray:none"
     id="rect246"
     width="14.287219"
     height="14.287219"
     x="1.3361193"
     y="1.3567564"
     rx="2.1166251"
     ry="2.1166251" />
  <rect
     style="fill:url(#linearGradient1136);fill-opacity:1;stroke:none;stroke-width:0.478315;stroke-dasharray:none"
     id="rect246-5"
     width="12.914515"
     height="12.914515"
     x="2.0224717"
     y="2.0431087"
     rx="1.5874687"
     ry="1.5874687" />
  <path
     style="fill:#999999;fill-opacity:1;stroke-width:0.065254"
     d="M 5.5518404,10.887221 C 5.477133,10.856997 5.3376511,10.739147 5.2418806,10.625331 4.8897878,10.206893 5.091368,9.4873983 5.8379899,8.4976594 6.462072,7.6703608 7.0621252,7.2047987 8.2326076,6.6397501 8.8419375,6.3455971 9.0246835,6.2186311 9.4419041,5.7995693 9.7913111,5.4486215 10.017688,5.146022 10.22496,4.7528557 10.491392,4.2474745 10.542893,4.1889253 10.822452,4.073589 11.116318,3.9523492 11.140013,3.9518158 11.423459,4.060064 11.963588,4.2663412 12.1269,4.8028979 11.844821,5.4444337 11.333411,6.6075358 10.403854,7.5174358 8.9953529,8.2336467 7.7981065,8.842436 7.2971938,9.3015159 6.8415079,10.207615 c -0.2650508,0.527037 -0.5241041,0.744119 -0.8815096,0.738691 -0.149779,-0.0023 -0.3334505,-0.02887 -0.4081579,-0.05909 z m 1.8239888,-0.0332 c -0.108031,-0.281527 0.617412,-1.3205419 1.0982428,-1.5729617 0.2689655,-0.1411976 2.626898,-0.1317505 2.986072,0.011956 0.336985,0.1348342 0.524612,0.4331413 0.524612,0.8340747 0,0.254226 -0.03606,0.342597 -0.2233,0.546964 L 11.538158,10.9178 9.4765054,10.93675 C 7.6583907,10.95347 7.4102432,10.94355 7.3758292,10.85401 Z M 5.677989,5.7240289 C 5.5649927,5.6912945 5.3814636,5.5607801 5.2701464,5.4339973 4.8779096,4.987264 5.0535418,4.2789857 5.6087043,4.0686845 5.8412629,3.9805883 6.1678372,3.9673912 7.7361187,3.9827119 9.8768774,4.003624 9.8415262,3.993157 9.5811371,4.5291135 9.37461,4.9542097 9.1339311,5.2540144 8.7650993,5.5456215 L 8.4492798,5.7953168 7.1663581,5.7894335 C 6.4607514,5.7861932 5.7909852,5.7567653 5.677989,5.7240304 Z"
     id="path1" />
  <g
     aria-label="Krita"
     id="text1450"
     style="font-size:1.76385px;opacity:1;fill:#ffff00;stroke-width:0.529156">
    <rect
       style="font-size:1.76385px;fill:#ffff00;fill-opacity:1;stroke:none;stroke-width:0.519976;stroke-dasharray:none;filter:url(#filter3148)"
       id="rect1656-3"
       width="0.5055005"
       height="2.2653189"
       x="15.369148"
       y="4.3016486"
       rx="0"
       ry="0" />
    <rect
       style="opacity:1;fill:#ffff00;fill-opacity:1;stroke:none;stroke-width:0.519976;stroke-dasharray:none"
       id="rect1656"
       width="0.5055005"
       height="2.2653189"
       x="15.369148"
       y="4.3016486"
       rx="0"
       ry="0" />
  </g>
  <g
     aria-label="Zen Browser"
     id="text2284"
     style="font-size:1.76385px;opacity:1;fill:#999999;stroke-width:0.529156">
    <path
       d="M 4.3657172,14.179017 H 3.4926114 V 14.059075 L 4.155819,13.060736 H 3.5137776 v -0.141108 h 0.8343011 v 0.119942 l -0.6632076,0.998339 h 0.6808461 z"
       style="text-align:center;text-anchor:middle"
       id="path1697" />
    <path
       d="m 4.9495524,13.215955 q 0.1217056,0 0.2081343,0.05292 0.088192,0.05292 0.1340526,0.149928 0.047624,0.09525 0.047624,0.224009 v 0.09348 H 4.6920303 q 0.00353,0.16051 0.081137,0.245175 0.079373,0.0829 0.2204812,0.0829 0.089956,0 0.1587465,-0.01588 0.070554,-0.01764 0.1446357,-0.04939 v 0.135817 q -0.072318,0.03175 -0.1428718,0.04586 -0.070554,0.01588 -0.1675658,0.01588 -0.1340526,0 -0.2381197,-0.05468 -0.1023033,-0.05468 -0.1605104,-0.162274 -0.056443,-0.109359 -0.056443,-0.266341 0,-0.155219 0.051152,-0.266342 0.052916,-0.111122 0.1463995,-0.171093 0.095248,-0.05997 0.2204813,-0.05997 z m -0.00176,0.126997 q -0.1111225,0 -0.176385,0.07232 -0.063499,0.07055 -0.075845,0.197551 h 0.481531 q -0.00176,-0.119942 -0.056443,-0.194023 -0.054679,-0.07585 -0.1728573,-0.07585 z"
       style="text-align:center;text-anchor:middle"
       id="path1699" />
    <path
       d="m 6.0343186,13.215955 q 0.1693296,0 0.2557582,0.0829 0.086429,0.08114 0.086429,0.264577 v 0.615584 h -0.153455 v -0.605 q 0,-0.227537 -0.211662,-0.227537 -0.1569826,0 -0.2169535,0.08819 -0.059971,0.08819 -0.059971,0.253995 v 0.49035 H 5.5792453 v -0.945424 h 0.1252333 l 0.02293,0.128762 h 0.00882 q 0.04586,-0.07408 0.1269972,-0.109359 0.081137,-0.03704 0.1710935,-0.03704 z"
       style="text-align:center;text-anchor:middle"
       id="path1701" />
    <path
       d="m 7.5088976,12.919628 q 0.2363559,0 0.3562977,0.07055 0.1217057,0.06879 0.1217057,0.241648 0,0.111122 -0.061735,0.185204 -0.061735,0.07232 -0.1781488,0.09348 v 0.0088 q 0.079373,0.01235 0.1428718,0.04586 0.065263,0.03351 0.1023033,0.09525 0.037041,0.06174 0.037041,0.160511 0,0.171093 -0.118178,0.264577 -0.1164141,0.09348 -0.3192568,0.09348 H 7.1490722 v -1.259389 z m 0.031749,0.536211 q 0.1622742,0 0.2222451,-0.05115 0.059971,-0.05292 0.059971,-0.155219 0,-0.104067 -0.074082,-0.148163 -0.072318,-0.04586 -0.2328282,-0.04586 H 7.3078187 v 0.400394 z m -0.2328282,0.132288 v 0.456837 h 0.2539944 q 0.1675658,0 0.2328282,-0.06526 0.065262,-0.06526 0.065262,-0.171093 0,-0.09878 -0.06879,-0.158747 -0.067026,-0.06174 -0.2416474,-0.06174 z"
       style="text-align:center;text-anchor:middle"
       id="path1703" />
    <path
       d="m 8.7153703,13.215955 q 0.026458,0 0.056443,0.0035 0.031749,0.0018 0.054679,0.0071 l -0.019402,0.142872 q -0.02293,-0.0053 -0.051152,-0.0088 -0.026458,-0.0035 -0.051152,-0.0035 -0.072318,0 -0.1358164,0.04057 -0.063499,0.0388 -0.1023033,0.111122 -0.037041,0.07055 -0.037041,0.165802 v 0.504461 H 8.2744078 V 13.233593 H 8.401405 l 0.017639,0.172858 h 0.00706 q 0.04586,-0.07761 0.118178,-0.134053 0.072318,-0.05644 0.1710934,-0.05644 z"
       style="text-align:center;text-anchor:middle"
       id="path1705" />
    <path
       d="m 9.7895544,13.704541 q 0,0.234592 -0.1199418,0.363354 -0.118178,0.128761 -0.3210207,0.128761 -0.1252334,0 -0.2240089,-0.05644 -0.097012,-0.05821 -0.153455,-0.167565 -0.056443,-0.111123 -0.056443,-0.268106 0,-0.234592 0.118178,-0.361589 0.1181779,-0.126997 0.3210206,-0.126997 0.1287611,0 0.2257728,0.05821 0.098776,0.05644 0.153455,0.165802 0.056443,0.107595 0.056443,0.264577 z m -0.7143592,0 q 0,0.167566 0.065262,0.266342 0.067026,0.09701 0.211662,0.09701 0.1428718,0 0.2098981,-0.09701 0.067026,-0.09878 0.067026,-0.266342 0,-0.167565 -0.067026,-0.262813 -0.067026,-0.09525 -0.211662,-0.09525 -0.1446357,0 -0.2098981,0.09525 -0.065262,0.09525 -0.065262,0.262813 z"
       style="text-align:center;text-anchor:middle"
       id="path1707" />
    <path
       d="m 10.609743,13.644571 q -0.02293,-0.07232 -0.04057,-0.141108 -0.01587,-0.07055 -0.02469,-0.109359 h -0.0071 q -0.0071,0.0388 -0.02293,0.109359 -0.01587,0.06879 -0.04057,0.142871 l -0.169329,0.530919 H 10.128212 L 9.8689257,13.23183 h 0.1605103 l 0.130525,0.504461 q 0.0194,0.07585 0.03704,0.153455 0.01764,0.07761 0.02469,0.128761 h 0.0071 q 0.0071,-0.02999 0.01587,-0.07408 0.01058,-0.0441 0.02293,-0.09172 0.01235,-0.04939 0.02469,-0.08819 l 0.167565,-0.532682 h 0.16933 l 0.162274,0.532682 q 0.0194,0.05997 0.03704,0.130525 0.0194,0.07055 0.02646,0.121706 h 0.0071 q 0.0053,-0.0441 0.02293,-0.121706 0.0194,-0.07761 0.04057,-0.158746 l 0.132289,-0.504461 h 0.158746 l -0.262814,0.945423 h -0.181676 z"
       style="text-align:center;text-anchor:middle"
       id="path1709" />
    <path
       d="m 12.001419,13.917967 q 0,0.137581 -0.102303,0.208135 -0.102303,0.07055 -0.275161,0.07055 -0.09877,0 -0.171093,-0.01588 -0.07055,-0.01587 -0.125233,-0.0441 v -0.141108 q 0.05644,0.02822 0.135816,0.05291 0.08114,0.02293 0.164038,0.02293 0.118178,0 0.171093,-0.03704 0.05292,-0.0388 0.05292,-0.102303 0,-0.03528 -0.0194,-0.0635 -0.0194,-0.02822 -0.07055,-0.05644 -0.04939,-0.02822 -0.142872,-0.0635 -0.09172,-0.03528 -0.156983,-0.07055 -0.06526,-0.03528 -0.100539,-0.08466 -0.03528,-0.04939 -0.03528,-0.126997 0,-0.119942 0.09701,-0.185205 0.09878,-0.06526 0.257523,-0.06526 0.08643,0 0.16051,0.01764 0.07584,0.01587 0.141108,0.04586 l -0.05292,0.123469 q -0.05997,-0.02469 -0.125233,-0.04233 -0.06526,-0.01764 -0.134053,-0.01764 -0.09525,0 -0.146399,0.03175 -0.04939,0.02999 -0.04939,0.0829 0,0.0388 0.02293,0.06703 0.02293,0.02646 0.07585,0.05292 0.05468,0.02469 0.144635,0.05997 0.08996,0.03351 0.153455,0.06879 0.0635,0.03528 0.09701,0.08643 0.03351,0.04939 0.03351,0.125233 z"
       style="text-align:center;text-anchor:middle"
       id="path1711" />
    <path
       d="m 12.595837,13.215955 q 0.121706,0 0.208134,0.05292 0.08819,0.05292 0.134053,0.149928 0.04762,0.09525 0.04762,0.224009 v 0.09348 h -0.647333 q 0.0035,0.16051 0.08114,0.245175 0.07937,0.0829 0.220481,0.0829 0.08996,0 0.158747,-0.01588 0.07055,-0.01764 0.144635,-0.04939 v 0.135817 q -0.07232,0.03175 -0.142871,0.04586 -0.07055,0.01588 -0.167566,0.01588 -0.134053,0 -0.23812,-0.05468 -0.102303,-0.05468 -0.16051,-0.162274 -0.05644,-0.109359 -0.05644,-0.266341 0,-0.155219 0.05115,-0.266342 0.05292,-0.111122 0.1464,-0.171093 0.09525,-0.05997 0.220481,-0.05997 z m -0.0018,0.126997 q -0.111122,0 -0.176385,0.07232 -0.0635,0.07055 -0.07584,0.197551 h 0.481531 q -0.0018,-0.119942 -0.05644,-0.194023 -0.05468,-0.07585 -0.172857,-0.07585 z"
       style="text-align:center;text-anchor:middle"
       id="path1713" />
    <path
       d="m 13.666493,13.215955 q 0.02646,0 0.05644,0.0035 0.03175,0.0018 0.05468,0.0071 l -0.0194,0.142872 q -0.02293,-0.0053 -0.05115,-0.0088 -0.02646,-0.0035 -0.05115,-0.0035 -0.07232,0 -0.135816,0.04057 -0.0635,0.0388 -0.102303,0.111122 -0.03704,0.07055 -0.03704,0.165802 v 0.504461 H 13.22553 v -0.945424 h 0.126997 l 0.01764,0.172858 h 0.0071 q 0.04586,-0.07761 0.118178,-0.134053 0.07232,-0.05644 0.171094,-0.05644 z"
       style="text-align:center;text-anchor:middle"
       id="path1715" />
  </g>
  <text
     xml:space="preserve"
     transform="scale(0.26457812)"
     id="text3806"
     style="fill:#999999;stroke-width:2;font-size:6.66666667px;white-space:pre;shape-inside:url(#rect3808)" />
</svg>
