<?xml version="1.0" encoding="UTF-8" standalone="no"?>
<svg
   width="64"
   height="64"
   version="1.1"
   viewBox="0 0 16.933 16.933"
   id="svg7"
   sodipodi:docname="Office Template.svg"
   inkscape:version="1.4 (e7c3feb100, 2024-10-09)"
   xmlns:inkscape="http://www.inkscape.org/namespaces/inkscape"
   xmlns:sodipodi="http://sodipodi.sourceforge.net/DTD/sodipodi-0.dtd"
   xmlns:xlink="http://www.w3.org/1999/xlink"
   xmlns="http://www.w3.org/2000/svg"
   xmlns:svg="http://www.w3.org/2000/svg"
   xmlns:rdf="http://www.w3.org/1999/02/22-rdf-syntax-ns#"
   xmlns:cc="http://creativecommons.org/ns#"
   xmlns:dc="http://purl.org/dc/elements/1.1/">
  <sodipodi:namedview
     id="namedview7"
     pagecolor="#9c4444"
     bordercolor="#000000"
     borderopacity="0.25"
     inkscape:showpageshadow="2"
     inkscape:pageopacity="0.0"
     inkscape:pagecheckerboard="0"
     inkscape:deskcolor="#d1d1d1"
     inkscape:zoom="6.15625"
     inkscape:cx="15.918782"
     inkscape:cy="33.624365"
     inkscape:window-width="1226"
     inkscape:window-height="669"
     inkscape:window-x="177"
     inkscape:window-y="267"
     inkscape:window-maximized="0"
     inkscape:current-layer="svg7"
     showgrid="false" />
  <defs
     id="defs2">
    <rect
       x="67.489848"
       y="35.60533"
       width="15.337563"
       height="22.51269"
       id="rect3808" />
    <linearGradient
       inkscape:collect="always"
       id="linearGradient1134">
      <stop
         style="stop-color:#161616;stop-opacity:1;"
         offset="0"
         id="stop1130" />
      <stop
         style="stop-color:#404040;stop-opacity:1;"
         offset="1"
         id="stop1132" />
    </linearGradient>
    <linearGradient
       inkscape:collect="always"
       id="linearGradient883">
      <stop
         style="stop-color:#808080;stop-opacity:1;"
         offset="0"
         id="stop879" />
      <stop
         style="stop-color:#3e3e3e;stop-opacity:1;"
         offset="0.5"
         id="stop1216" />
      <stop
         style="stop-color:#242424;stop-opacity:1;"
         offset="1"
         id="stop881" />
    </linearGradient>
    <linearGradient
       inkscape:collect="always"
       xlink:href="#linearGradient883"
       id="linearGradient885"
       x1="2.1085808"
       y1="2.0236168"
       x2="14.846128"
       y2="15.071845"
       gradientUnits="userSpaceOnUse" />
    <linearGradient
       inkscape:collect="always"
       xlink:href="#linearGradient1134"
       id="linearGradient1136"
       x1="14.971222"
       y1="14.703373"
       x2="2.0756054"
       y2="2.0069976"
       gradientUnits="userSpaceOnUse" />
    <filter
       style="color-interpolation-filters:sRGB;"
       inkscape:label="Blur"
       id="filter1283"
       x="-0.082344266"
       y="-0.082344266"
       width="1.1646885"
       height="1.1646885">
      <feGaussianBlur
         stdDeviation="0.5 0.5"
         result="blur"
         id="feGaussianBlur1281" />
    </filter>
    <filter
       style="color-interpolation-filters:sRGB;"
       inkscape:label="Blur"
       id="filter1694"
       x="-0.94955398"
       y="-0.2118907"
       width="2.899108"
       height="1.4237814">
      <feGaussianBlur
         stdDeviation="0.2 0.2"
         result="blur"
         id="feGaussianBlur1692" />
    </filter>
    <filter
       style="color-interpolation-filters:sRGB;"
       inkscape:label="Blur"
       id="filter3148"
       x="-0.94955398"
       y="-0.2118907"
       width="2.899108"
       height="1.4237814">
      <feGaussianBlur
         stdDeviation="0.2 0.2"
         result="blur"
         id="feGaussianBlur3146" />
    </filter>
    <clipPath
       clipPathUnits="userSpaceOnUse"
       id="clipPath44">
      <path
         id="path46"
         style="display:block;opacity:0.85;fill:#f2f2f2;stroke-width:4.39162"
         d="m 17.570312,8.4453125 a 6.5431988,7.4283052 9.9958727e-8 0 0 -6.535156,7.4394535 6.5431988,7.4283052 9.9958727e-8 0 0 6.552735,7.417968 6.5431988,7.4283052 9.9958727e-8 0 0 6.535156,-7.4375 6.5431988,7.4283052 9.9958727e-8 0 0 -6.552735,-7.4199215 z M 45.646484,41.177734 a 6.5431986,7.0703472 2.4665357e-6 0 0 -6.533203,7.080078 6.5431986,7.0703472 2.4665357e-6 0 0 6.550781,7.060547 6.5431986,7.0703472 2.4665357e-6 0 0 6.535157,-7.080078 6.5431986,7.0703472 2.4665357e-6 0 0 -6.552735,-7.060547 z" />
    </clipPath>
    <inkscape:path-effect
       effect="powerclip"
       id="path-effect48"
       is_visible="true"
       lpeversion="1"
       inverse="true"
       flatten="false"
       hide_clip="false"
       message="" />
  </defs>
  <metadata
     id="metadata2">
    <rdf:RDF>
      <cc:Work
         rdf:about="">
        <dc:format>image/svg+xml</dc:format>
        <dc:type
           rdf:resource="http://purl.org/dc/dcmitype/StillImage" />
      </cc:Work>
    </rdf:RDF>
  </metadata>
  <rect
     style="fill:#000000;stroke:none;stroke-width:0.539739;stroke-dasharray:none;filter:url(#filter1283)"
     id="rect246-1"
     width="14.572964"
     height="14.572964"
     x="1.1932471"
     y="1.2138842"
     rx="2.1589575"
     ry="2.1589575" />
  <rect
     style="opacity:1;fill:#000000;stroke:url(#linearGradient885);stroke-width:0.52915625;stroke-dasharray:none"
     id="rect246"
     width="14.287219"
     height="14.287219"
     x="1.3361193"
     y="1.3567564"
     rx="2.1166251"
     ry="2.1166251" />
  <rect
     style="fill:url(#linearGradient1136);fill-opacity:1;stroke:none;stroke-width:0.478315;stroke-dasharray:none"
     id="rect246-5"
     width="12.914515"
     height="12.914515"
     x="2.0224717"
     y="2.0431087"
     rx="1.5874687"
     ry="1.5874687" />
  <g
     id="g7227"
     transform="matrix(0.17619688,0,0,0.17619688,3.2608116,2.2049208)"
     style="fill:#999999;fill-opacity:1;stroke:none;stroke-width:1.39959;stroke-dasharray:none;stroke-opacity:0.3">
    <path
       style="color:#000000;fill:#999999;fill-opacity:1;stroke:none;stroke-width:1.39959;stroke-linecap:round;stroke-dasharray:none;stroke-opacity:0.3"
       d="m 19.720703,23.611328 a 2.32932,2.32932 0 0 0 -1.587891,0.8125 l -3.535156,4.160156 -1.75,-1.228515 a 2.32932,2.32932 0 0 0 -3.2441404,0.568359 2.32932,2.32932 0 0 0 0.5664064,3.244141 l 5.224609,3.669922 6.28711,-7.396485 a 2.32932,2.32932 0 0 0 -0.265625,-3.283203 2.32932,2.32932 0 0 0 -1.695313,-0.546875 z"
       id="path14" />
    <g
       id="path16"
       style="fill:#999999;fill-opacity:1;stroke:none;stroke-width:1.39959;stroke-dasharray:none;stroke-opacity:0.3">
      <path
         style="color:#000000;fill:#999999;fill-opacity:1;stroke:none;stroke-width:1.39959;stroke-linecap:round;stroke-dasharray:none;stroke-opacity:0.3"
         d="M 28.832479,16.13251 H 48.050681"
         id="path1" />
      <path
         style="color:#000000;fill:#999999;fill-opacity:1;stroke:none;stroke-width:1.39959;stroke-linecap:round;stroke-dasharray:none;stroke-opacity:0.3"
         d="m 28.832031,13.353516 a 2.7781949,2.7781949 0 0 0 -2.777344,2.779296 2.7781949,2.7781949 0 0 0 2.777344,2.777344 h 19.21875 a 2.7781949,2.7781949 0 0 0 2.777344,-2.777344 2.7781949,2.7781949 0 0 0 -2.777344,-2.779296 z"
         id="path2-9" />
    </g>
    <path
       style="color:#000000;fill:#999999;fill-opacity:1;stroke:none;stroke-width:1.39959;stroke-linecap:round;stroke-dasharray:none;stroke-opacity:0.3"
       d="m 19.720703,10.005859 a 2.32932,2.32932 0 0 0 -1.587891,0.8125 l -3.535156,4.158204 -1.75,-1.226563 A 2.32932,2.32932 0 0 0 9.6035156,14.316406 2.32932,2.32932 0 0 0 10.169922,17.5625 l 5.224609,3.667969 6.28711,-7.394531 a 2.32932,2.32932 0 0 0 -0.265625,-3.283204 2.32932,2.32932 0 0 0 -1.695313,-0.546875 z"
       id="path18" />
    <path
       style="color:#000000;fill:#999999;fill-opacity:1;stroke:none;stroke-width:1.39959;stroke-linecap:round;stroke-dasharray:none;stroke-opacity:0.3"
       d="m 19.720703,38.232422 a 2.32932,2.32932 0 0 0 -1.587891,0.8125 l -3.535156,4.160156 -1.75,-1.228516 a 2.32932,2.32932 0 0 0 -3.2441404,0.56836 2.32932,2.32932 0 0 0 0.5664064,3.24414 l 5.224609,3.669922 6.28711,-7.396484 a 2.32932,2.32932 0 0 0 -0.265625,-3.283203 2.32932,2.32932 0 0 0 -1.695313,-0.546875 z"
       id="path20" />
    <g
       id="path22"
       style="fill:#999999;fill-opacity:1;stroke:none;stroke-width:1.39959;stroke-dasharray:none;stroke-opacity:0.3">
      <path
         style="color:#000000;fill:#999999;fill-opacity:1;stroke:none;stroke-width:1.39959;stroke-linecap:round;stroke-dasharray:none;stroke-opacity:0.3"
         d="M 28.832479,29.220274 H 48.050681"
         id="path3-6" />
      <path
         style="color:#000000;fill:#999999;fill-opacity:1;stroke:none;stroke-width:1.39959;stroke-linecap:round;stroke-dasharray:none;stroke-opacity:0.3"
         d="m 28.832031,26.441406 a 2.7781949,2.7781949 0 0 0 -2.777344,2.779297 2.7781949,2.7781949 0 0 0 2.777344,2.777344 h 19.21875 a 2.7781949,2.7781949 0 0 0 2.777344,-2.777344 2.7781949,2.7781949 0 0 0 -2.777344,-2.779297 z"
         id="path4-7" />
    </g>
    <g
       id="path24"
       style="fill:#999999;fill-opacity:1;stroke:none;stroke-width:1.39959;stroke-dasharray:none;stroke-opacity:0.3">
      <path
         style="color:#000000;fill:#999999;fill-opacity:1;stroke:none;stroke-width:1.39959;stroke-linecap:round;stroke-dasharray:none;stroke-opacity:0.3"
         d="M 28.832479,42.308039 H 48.050681"
         id="path5" />
      <path
         style="color:#000000;fill:#999999;fill-opacity:1;stroke:none;stroke-width:1.39959;stroke-linecap:round;stroke-dasharray:none;stroke-opacity:0.3"
         d="m 28.832031,39.529297 a 2.7781949,2.7781949 0 0 0 -2.777344,2.779297 2.7781949,2.7781949 0 0 0 2.777344,2.777343 h 19.21875 a 2.7781949,2.7781949 0 0 0 2.777344,-2.777343 2.7781949,2.7781949 0 0 0 -2.777344,-2.779297 z"
         id="path6" />
    </g>
  </g>
  <g
     fill="#474747"
     id="g9"
     transform="matrix(0.46959567,0,0,0.46959567,4.7471229,3.7470598)"
     style="fill:#999999;fill-opacity:1;stroke:none;stroke-width:0.58349;stroke-dasharray:none;stroke-opacity:0.3" />
  <g
     aria-label="Krita"
     id="text1450"
     style="font-size:1.76385px;opacity:1;fill:#afafe9;stroke-width:0.529156;fill-opacity:1">
    <rect
       style="font-size:1.76385px;fill:#afafe9;fill-opacity:1;stroke:none;stroke-width:0.519976;stroke-dasharray:none;filter:url(#filter3148)"
       id="rect1656-3"
       width="0.5055005"
       height="2.2653189"
       x="15.369148"
       y="4.3016486"
       rx="0"
       ry="0" />
    <rect
       style="opacity:1;fill:#afafe9;fill-opacity:1;stroke:none;stroke-width:0.519976;stroke-dasharray:none"
       id="rect1656"
       width="0.5055005"
       height="2.2653189"
       x="15.369148"
       y="4.3016486"
       rx="0"
       ry="0" />
  </g>
  <path
     d="m 6.2178495,12.919628 q 0.246939,0 0.3598254,0.09701 0.1128864,0.09701 0.1128864,0.273397 0,0.104067 -0.047624,0.195787 -0.04586,0.08996 -0.1569827,0.1464 -0.1093587,0.05644 -0.2980906,0.05644 H 6.0432284 v 0.49035 H 5.8844819 v -1.259389 z m -0.014111,0.135817 H 6.0432284 v 0.497405 h 0.1269972 q 0.1799127,0 0.2681052,-0.05821 0.088192,-0.05821 0.088192,-0.197551 0,-0.121706 -0.077609,-0.181676 -0.077609,-0.05997 -0.2451752,-0.05997 z m 0.8819242,1.123572 H 6.9304441 v -1.340526 h 0.1552188 z m 0.657915,-0.961298 q 0.1728573,0 0.2557583,0.07584 0.082901,0.07585 0.082901,0.241648 v 0.643805 H 7.9693507 l -0.029985,-0.134053 h -0.00706 q -0.061735,0.07761 -0.1305249,0.114651 -0.067026,0.03704 -0.1869681,0.03704 -0.1287611,0 -0.2134259,-0.06703 -0.084665,-0.06879 -0.084665,-0.213426 0,-0.141108 0.1111226,-0.216953 0.1111225,-0.07761 0.3421869,-0.08466 l 0.1605103,-0.0053 v -0.05644 q 0,-0.118178 -0.051152,-0.164038 -0.051152,-0.04586 -0.1446357,-0.04586 -0.074082,0 -0.141108,0.02293 -0.067026,0.02117 -0.1252334,0.04939 l -0.047624,-0.116414 q 0.061735,-0.03351 0.1463995,-0.05644 0.084665,-0.02469 0.176385,-0.02469 z m 0.04586,0.504461 q -0.176385,0.0071 -0.2451751,0.05644 -0.067026,0.04939 -0.067026,0.139344 0,0.07937 0.047624,0.116414 0.049388,0.03704 0.1252334,0.03704 0.1199418,0 0.199315,-0.06526 0.079373,-0.06703 0.079373,-0.204607 v -0.08466 z m 1.0406731,-0.506225 q 0.1693296,0 0.2557582,0.0829 0.086429,0.08114 0.086429,0.264577 v 0.615584 H 9.018843 v -0.605 q 0,-0.227537 -0.211662,-0.227537 -0.1569826,0 -0.2169535,0.08819 -0.059971,0.08819 -0.059971,0.253995 v 0.49035 H 8.3750378 v -0.945424 h 0.1252333 l 0.02293,0.128762 h 0.00882 q 0.04586,-0.07408 0.1269972,-0.109359 0.081137,-0.03704 0.1710935,-0.03704 z M 9.5444703,12.87906 q 0.035277,0 0.061735,0.02469 0.028222,0.02293 0.028222,0.07408 0,0.04939 -0.028222,0.07408 -0.026458,0.02469 -0.061735,0.02469 -0.038805,0 -0.065262,-0.02469 -0.026458,-0.02469 -0.026458,-0.07408 0,-0.05115 0.026458,-0.07408 0.026458,-0.02469 0.065262,-0.02469 z m 0.075846,0.354533 v 0.945424 H 9.4650971 v -0.945424 z m 0.7355241,0.119942 h -0.23812 v 0.825482 H 9.9625014 V 13.353535 H 9.7966995 v -0.07232 l 0.1658019,-0.05292 v -0.05468 q 0,-0.183441 0.081137,-0.262814 0.08114,-0.08114 0.225773,-0.08114 0.05644,0 0.102304,0.01058 0.04762,0.0088 0.08114,0.02117 l -0.04057,0.121706 q -0.02822,-0.0088 -0.06526,-0.01764 -0.03704,-0.0088 -0.07585,-0.0088 -0.07761,0 -0.116414,0.05292 -0.03704,0.05115 -0.03704,0.162274 v 0.06173 h 0.23812 z m 0.02293,-0.119942 h 0.165802 l 0.204606,0.537975 q 0.02646,0.07055 0.04762,0.135816 0.02117,0.0635 0.03175,0.121706 h 0.0071 q 0.01058,-0.0441 0.03351,-0.11465 0.02293,-0.07232 0.04762,-0.144636 l 0.19226,-0.536211 h 0.167566 l -0.40745,1.075949 q -0.04939,0.134053 -0.128761,0.213426 -0.07761,0.07937 -0.21519,0.07937 -0.04233,0 -0.07408,-0.0053 -0.03175,-0.0035 -0.05468,-0.0088 v -0.123469 q 0.0194,0.0035 0.04586,0.0071 0.02822,0.0035 0.05821,0.0035 0.08114,0 0.130524,-0.04586 0.05115,-0.04586 0.07937,-0.121706 l 0.04939,-0.125233 z"
     id="text2284"
     style="font-size:1.76385px;fill:#999999;stroke-width:0.529156"
     aria-label="Planify" />
  <text
     xml:space="preserve"
     transform="scale(0.26457812)"
     id="text3806"
     style="font-size:6.66667px;white-space:pre;shape-inside:url(#rect3808);display:inline;fill:#999999;stroke-width:2" />
</svg>
