<?xml version="1.0" encoding="UTF-8" standalone="no"?>
<svg
   width="64"
   height="64"
   version="1.1"
   viewBox="0 0 16.933 16.933"
   id="svg7"
   sodipodi:docname="krita.svg"
   inkscape:version="1.4 (e7c3feb100, 2024-10-09)"
   xmlns:inkscape="http://www.inkscape.org/namespaces/inkscape"
   xmlns:sodipodi="http://sodipodi.sourceforge.net/DTD/sodipodi-0.dtd"
   xmlns:xlink="http://www.w3.org/1999/xlink"
   xmlns="http://www.w3.org/2000/svg"
   xmlns:svg="http://www.w3.org/2000/svg"
   xmlns:rdf="http://www.w3.org/1999/02/22-rdf-syntax-ns#"
   xmlns:cc="http://creativecommons.org/ns#"
   xmlns:dc="http://purl.org/dc/elements/1.1/">
  <sodipodi:namedview
     id="namedview7"
     pagecolor="#9c4444"
     bordercolor="#000000"
     borderopacity="0.25"
     inkscape:showpageshadow="2"
     inkscape:pageopacity="0.0"
     inkscape:pagecheckerboard="0"
     inkscape:deskcolor="#d1d1d1"
     inkscape:zoom="12.3125"
     inkscape:cx="57.137056"
     inkscape:cy="21.64467"
     inkscape:window-width="1183"
     inkscape:window-height="973"
     inkscape:window-x="35"
     inkscape:window-y="32"
     inkscape:window-maximized="0"
     inkscape:current-layer="svg7"
     showgrid="false" />
  <defs
     id="defs2">
    <linearGradient
       inkscape:collect="always"
       id="linearGradient1134">
      <stop
         style="stop-color:#161616;stop-opacity:1;"
         offset="0"
         id="stop1130" />
      <stop
         style="stop-color:#404040;stop-opacity:1;"
         offset="1"
         id="stop1132" />
    </linearGradient>
    <linearGradient
       inkscape:collect="always"
       id="linearGradient883">
      <stop
         style="stop-color:#808080;stop-opacity:1;"
         offset="0"
         id="stop879" />
      <stop
         style="stop-color:#3e3e3e;stop-opacity:1;"
         offset="0.5"
         id="stop1216" />
      <stop
         style="stop-color:#242424;stop-opacity:1;"
         offset="1"
         id="stop881" />
    </linearGradient>
    <linearGradient
       inkscape:collect="always"
       xlink:href="#linearGradient883"
       id="linearGradient885"
       x1="2.1085808"
       y1="2.0236168"
       x2="14.846128"
       y2="15.071845"
       gradientUnits="userSpaceOnUse" />
    <linearGradient
       inkscape:collect="always"
       xlink:href="#linearGradient1134"
       id="linearGradient1136"
       x1="14.971222"
       y1="14.703373"
       x2="2.0756054"
       y2="2.0069976"
       gradientUnits="userSpaceOnUse" />
    <filter
       style="color-interpolation-filters:sRGB;"
       inkscape:label="Blur"
       id="filter1283"
       x="-0.082344266"
       y="-0.082344266"
       width="1.1646885"
       height="1.1646885">
      <feGaussianBlur
         stdDeviation="0.5 0.5"
         result="blur"
         id="feGaussianBlur1281" />
    </filter>
    <filter
       style="color-interpolation-filters:sRGB;"
       inkscape:label="Blur"
       id="filter1694"
       x="-0.94955398"
       y="-0.2118907"
       width="2.899108"
       height="1.4237814">
      <feGaussianBlur
         stdDeviation="0.2 0.2"
         result="blur"
         id="feGaussianBlur1692" />
    </filter>
  </defs>
  <metadata
     id="metadata2">
    <rdf:RDF>
      <cc:Work
         rdf:about="">
        <dc:format>image/svg+xml</dc:format>
        <dc:type
           rdf:resource="http://purl.org/dc/dcmitype/StillImage" />
      </cc:Work>
    </rdf:RDF>
  </metadata>
  <rect
     style="fill:#000000;stroke:none;stroke-width:0.539739;stroke-dasharray:none;filter:url(#filter1283)"
     id="rect246-1"
     width="14.572964"
     height="14.572964"
     x="1.1932471"
     y="1.2138842"
     rx="2.1589575"
     ry="2.1589575" />
  <rect
     style="opacity:1;fill:#000000;stroke:url(#linearGradient885);stroke-width:0.52915625;stroke-dasharray:none"
     id="rect246"
     width="14.287219"
     height="14.287219"
     x="1.3361193"
     y="1.3567564"
     rx="2.1166251"
     ry="2.1166251" />
  <rect
     style="fill:url(#linearGradient1136);stroke:none;stroke-width:0.478315;stroke-dasharray:none;fill-opacity:1"
     id="rect246-5"
     width="12.914515"
     height="12.914515"
     x="2.0224717"
     y="2.0431087"
     rx="1.9132617"
     ry="1.9132617" />
  <path
     style="fill:#999999;fill-opacity:1;stroke-width:0.0175077"
     d="M 8.1141223,11.121565 C 7.353783,11.044316 6.6660765,10.753338 6.0881688,10.264364 6.0336072,10.218194 5.9167556,10.105811 5.828507,10.014619 5.0323422,9.1919072 4.6774562,8.0414022 4.8633414,6.8856552 4.9363791,6.4315445 5.09908,5.990288 5.3439081,5.5823308 5.604231,5.1485536 6.0415363,4.6997413 6.4785841,4.4177981 6.9786167,4.0952224 7.5434315,3.9041242 8.1572108,3.8498553 c 0.1941925,-0.01717 0.631026,-0.00749 0.8197064,0.018173 0.6984789,0.094984 1.3103358,0.3387076 1.8325648,0.7299716 0.619699,0.4642919 1.050709,1.0963334 1.217775,1.7857721 0.06461,0.2666336 0.07719,0.3765838 0.07744,0.6769595 2.11e-4,0.241427 -0.003,0.2903645 -0.02693,0.4085097 -0.155437,0.7684798 -0.665324,1.3612599 -1.375007,1.5985397 -0.258888,0.086558 -0.346759,0.096084 -0.9380131,0.101673 -0.510472,0.00486 -0.5210186,0.00543 -0.614246,0.033494 C 8.9274787,9.2701448 8.7791742,9.4352604 8.7493988,9.6495 c -0.021294,0.153219 0.030499,0.3077157 0.1631702,0.486729 0.08932,0.12052 0.096205,0.141752 0.1023622,0.315682 0.00411,0.116361 9.18e-4,0.170045 -0.013595,0.227599 -0.047475,0.188338 -0.1574138,0.328403 -0.3179238,0.405043 l -0.091673,0.04378 -0.1867471,0.0019 c -0.1027115,0.0011 -0.2336081,-0.0028 -0.2908818,-0.0086 z M 6.058505,7.4747126 C 6.2407412,7.4272466 6.3924115,7.2931855 6.4626394,7.1175 6.5008228,7.021987 6.5062255,6.8745801 6.4752835,6.7727079 6.368208,6.4201851 5.9724043,6.2546678 5.6601995,6.4318547 5.5183879,6.5123372 5.4010074,6.6800061 5.3733218,6.8416373 5.3089673,7.2173311 5.6911075,7.5704083 6.0585066,7.4747126 Z m 4.758033,0.00614 c 0.10203,-0.01904 0.206014,-0.077024 0.291268,-0.1624153 0.179792,-0.1800794 0.220713,-0.4154842 0.110864,-0.6377484 -0.143245,-0.2898362 -0.478101,-0.4020355 -0.764953,-0.2563107 -0.09667,0.04911 -0.202214,0.1614584 -0.253877,0.2702456 -0.038,0.080006 -0.04378,0.1040271 -0.04792,0.1986467 -0.0037,0.085836 2.68e-4,0.1240247 0.01987,0.1885557 0.0842,0.2772083 0.365307,0.4511816 0.644753,0.3990282 z M 7.4895739,5.7815874 C 7.6959141,5.7210528 7.8595682,5.5372213 7.8978578,5.3229639 7.9502405,5.0298314 7.7283474,4.7290619 7.4216627,4.677504 7.1545027,4.6325911 6.871359,4.8164871 6.7928229,5.0859224 c -0.038815,0.1331599 -0.014985,0.3160898 0.056327,0.4324045 0.036895,0.060169 0.1228818,0.1501274 0.1831807,0.1916305 0.1221794,0.084096 0.312904,0.1139743 0.4572395,0.07163 z M 9.5449252,5.7451058 C 9.6714977,5.6823875 9.7596552,5.5928265 9.8200949,5.465556 9.8578656,5.3860253 9.8636814,5.3618588 9.8678124,5.267347 9.8715384,5.1815119 9.8675631,5.1433227 9.8479431,5.0787919 9.7668148,4.8116861 9.489038,4.6325014 9.2260158,4.6776048 8.9198496,4.7301066 8.6986212,5.0252534 8.7469273,5.316771 c 0.026667,0.1609298 0.1399289,0.3280265 0.2766578,0.4081546 0.098213,0.057556 0.1745007,0.075603 0.3048419,0.072113 0.1121601,-0.00301 0.1230062,-0.00562 0.2164982,-0.051933 z"
     id="path7" />
  <g
     aria-label="Krita"
     id="text1450"
     style="font-size:1.76385px;opacity:1;fill:#999999;stroke-width:0.529156">
    <path
       d="M 7.3104563,14.216559 H 7.1234882 l -0.446254,-0.601472 -0.1287611,0.112886 v 0.488586 H 6.3897266 v -1.259388 h 0.1587465 v 0.620875 q 0.052916,-0.05997 0.1075949,-0.119942 0.054679,-0.05997 0.1093587,-0.119942 l 0.340423,-0.380991 H 7.291054 l -0.4991696,0.548557 z"
       id="path1502" />
    <path
       d="m 7.9013452,13.253497 q 0.026458,0 0.056443,0.0035 0.031749,0.0018 0.054679,0.0071 l -0.019402,0.142872 q -0.02293,-0.0053 -0.051152,-0.0088 -0.026458,-0.0035 -0.051152,-0.0035 -0.072318,0 -0.1358165,0.04057 -0.063499,0.0388 -0.1023033,0.111122 -0.037041,0.07055 -0.037041,0.165802 v 0.504461 H 7.4603827 v -0.945423 h 0.1269972 l 0.017638,0.172857 h 0.00706 q 0.04586,-0.07761 0.1181779,-0.134052 0.072318,-0.05644 0.1710935,-0.05644 z"
       id="path1504" />
    <path
       d="m 8.2682261,12.916602 q 0.035277,0 0.061735,0.02469 0.028222,0.02293 0.028222,0.07408 0,0.04939 -0.028222,0.07408 -0.026458,0.02469 -0.061735,0.02469 -0.038805,0 -0.065262,-0.02469 -0.026458,-0.02469 -0.026458,-0.07408 0,-0.05115 0.026458,-0.07408 0.026458,-0.02469 0.065262,-0.02469 z m 0.075846,0.354534 v 0.945423 H 8.1888529 v -0.945423 z"
       id="path1506" />
    <path
       d="m 8.9596544,14.107201 q 0.035277,0 0.072318,-0.0053 0.037041,-0.0071 0.059971,-0.01411 v 0.118178 q -0.024694,0.01235 -0.070554,0.0194 -0.04586,0.0088 -0.088192,0.0088 -0.074082,0 -0.1375803,-0.02469 -0.061735,-0.02646 -0.1005395,-0.08996 -0.038805,-0.0635 -0.038805,-0.178149 V 13.391078 H 8.5222197 v -0.07408 l 0.1358164,-0.06173 0.061735,-0.201079 h 0.09172 v 0.216954 h 0.2733968 v 0.119942 H 8.811491 v 0.546793 q 0,0.08643 0.040569,0.128761 0.042332,0.04057 0.1075948,0.04057 z"
       id="path1508" />
    <path
       d="m 9.6387366,13.255261 q 0.1728573,0 0.2557582,0.07585 0.082901,0.07585 0.082901,0.241647 v 0.643805 H 9.8645094 l -0.029985,-0.134052 h -0.00706 q -0.061735,0.07761 -0.1305249,0.11465 -0.067026,0.03704 -0.1869681,0.03704 -0.128761,0 -0.2134258,-0.06703 -0.084665,-0.06879 -0.084665,-0.213426 0,-0.141108 0.1111225,-0.216954 0.1111226,-0.07761 0.3421869,-0.08466 l 0.1605104,-0.0053 v -0.05644 q 0,-0.118178 -0.051152,-0.164038 -0.051152,-0.04586 -0.1446357,-0.04586 -0.074082,0 -0.141108,0.02293 -0.067026,0.02117 -0.1252333,0.04939 L 9.315952,13.336398 q 0.061735,-0.03351 0.1463996,-0.05644 0.084665,-0.02469 0.176385,-0.02469 z m 0.04586,0.504461 q -0.176385,0.0071 -0.2451752,0.05644 -0.067026,0.04939 -0.067026,0.139345 0,0.07937 0.047624,0.116414 0.049388,0.03704 0.1252333,0.03704 0.1199418,0 0.1993151,-0.06526 0.079373,-0.06703 0.079373,-0.204606 v -0.08466 z"
       id="path1510" />
    <rect
       style="font-size:1.76385px;fill:#00ff00;fill-opacity:1;stroke:none;stroke-width:0.519976;stroke-dasharray:none;filter:url(#filter1694)"
       id="rect1656-7"
       width="0.5055005"
       height="2.2653189"
       x="15.369148"
       y="4.3016486"
       rx="0"
       ry="0" />
    <rect
       style="opacity:1;fill:#00ff00;fill-opacity:1;stroke:none;stroke-width:0.519976;stroke-dasharray:none"
       id="rect1656"
       width="0.5055005"
       height="2.2653189"
       x="15.369148"
       y="4.3016486"
       rx="0"
       ry="0" />
  </g>
</svg>
