<?xml version="1.0" encoding="UTF-8" standalone="no"?>
<svg
   width="64"
   height="64"
   version="1.1"
   viewBox="0 0 16.933 16.933"
   id="svg7"
   sodipodi:docname="libreoffice-draw.svg"
   inkscape:version="1.4 (e7c3feb100, 2024-10-09)"
   xmlns:inkscape="http://www.inkscape.org/namespaces/inkscape"
   xmlns:sodipodi="http://sodipodi.sourceforge.net/DTD/sodipodi-0.dtd"
   xmlns:xlink="http://www.w3.org/1999/xlink"
   xmlns="http://www.w3.org/2000/svg"
   xmlns:svg="http://www.w3.org/2000/svg"
   xmlns:rdf="http://www.w3.org/1999/02/22-rdf-syntax-ns#"
   xmlns:cc="http://creativecommons.org/ns#"
   xmlns:dc="http://purl.org/dc/elements/1.1/">
  <sodipodi:namedview
     id="namedview7"
     pagecolor="#9c4444"
     bordercolor="#000000"
     borderopacity="0.25"
     inkscape:showpageshadow="2"
     inkscape:pageopacity="0.0"
     inkscape:pagecheckerboard="0"
     inkscape:deskcolor="#d1d1d1"
     inkscape:zoom="8.7062522"
     inkscape:cx="15.678388"
     inkscape:cy="49.217504"
     inkscape:window-width="1183"
     inkscape:window-height="973"
     inkscape:window-x="35"
     inkscape:window-y="32"
     inkscape:window-maximized="0"
     inkscape:current-layer="svg7"
     showgrid="false" />
  <defs
     id="defs2">
    <linearGradient
       inkscape:collect="always"
       id="linearGradient1134">
      <stop
         style="stop-color:#161616;stop-opacity:1;"
         offset="0"
         id="stop1130" />
      <stop
         style="stop-color:#404040;stop-opacity:1;"
         offset="1"
         id="stop1132" />
    </linearGradient>
    <linearGradient
       inkscape:collect="always"
       id="linearGradient883">
      <stop
         style="stop-color:#808080;stop-opacity:1;"
         offset="0"
         id="stop879" />
      <stop
         style="stop-color:#3e3e3e;stop-opacity:1;"
         offset="0.5"
         id="stop1216" />
      <stop
         style="stop-color:#242424;stop-opacity:1;"
         offset="1"
         id="stop881" />
    </linearGradient>
    <linearGradient
       inkscape:collect="always"
       xlink:href="#linearGradient883"
       id="linearGradient885"
       x1="2.1085808"
       y1="2.0236168"
       x2="14.846128"
       y2="15.071845"
       gradientUnits="userSpaceOnUse" />
    <linearGradient
       inkscape:collect="always"
       xlink:href="#linearGradient1134"
       id="linearGradient1136"
       x1="14.971222"
       y1="14.703373"
       x2="2.0756054"
       y2="2.0069976"
       gradientUnits="userSpaceOnUse" />
    <filter
       style="color-interpolation-filters:sRGB;"
       inkscape:label="Blur"
       id="filter1283"
       x="-0.082344266"
       y="-0.082344266"
       width="1.1646885"
       height="1.1646885">
      <feGaussianBlur
         stdDeviation="0.5 0.5"
         result="blur"
         id="feGaussianBlur1281" />
    </filter>
    <filter
       style="color-interpolation-filters:sRGB;"
       inkscape:label="Blur"
       id="filter1694"
       x="-0.94955398"
       y="-0.2118907"
       width="2.899108"
       height="1.4237814">
      <feGaussianBlur
         stdDeviation="0.2 0.2"
         result="blur"
         id="feGaussianBlur1692" />
    </filter>
  </defs>
  <metadata
     id="metadata2">
    <rdf:RDF>
      <cc:Work
         rdf:about="">
        <dc:format>image/svg+xml</dc:format>
        <dc:type
           rdf:resource="http://purl.org/dc/dcmitype/StillImage" />
      </cc:Work>
    </rdf:RDF>
  </metadata>
  <rect
     style="fill:#000000;stroke:none;stroke-width:0.539739;stroke-dasharray:none;filter:url(#filter1283)"
     id="rect246-1"
     width="14.572964"
     height="14.572964"
     x="1.1932471"
     y="1.2138842"
     rx="2.1589575"
     ry="2.1589575" />
  <rect
     style="opacity:1;fill:#000000;stroke:url(#linearGradient885);stroke-width:0.52915625;stroke-dasharray:none"
     id="rect246"
     width="14.287219"
     height="14.287219"
     x="1.3361193"
     y="1.3567564"
     rx="2.1166251"
     ry="2.1166251" />
  <rect
     style="fill:url(#linearGradient1136);stroke:none;stroke-width:0.478315;stroke-dasharray:none;fill-opacity:1"
     id="rect246-5"
     width="12.914515"
     height="12.914515"
     x="2.0224717"
     y="2.0431087"
     rx="1.9132617"
     ry="1.9132617" />
  <g
     aria-label="L.O.  Draw"
     id="text1924"
     style="font-size:1.76385px;opacity:1;fill:#999999;stroke-width:0.529156">
    <path
       d="m 4.3208256,14.18266 v -1.259389 h 0.1587465 v 1.118281 h 0.5503211 v 0.141108 z"
       id="path1926" />
    <path
       d="m 5.200987,14.087412 q 0,-0.06526 0.031749,-0.09172 0.031749,-0.02646 0.075846,-0.02646 0.04586,0 0.077609,0.02646 0.033513,0.02646 0.033513,0.09172 0,0.0635 -0.033513,0.09172 -0.031749,0.02822 -0.077609,0.02822 -0.044096,0 -0.075846,-0.02822 -0.031749,-0.02822 -0.031749,-0.09172 z"
       id="path1928" />
    <path
       d="m 6.7284818,13.551202 q 0,0.195787 -0.067026,0.342187 -0.065262,0.144635 -0.1940235,0.225773 -0.1287611,0.08114 -0.3192569,0.08114 -0.1957873,0 -0.3263122,-0.08114 -0.1287611,-0.08114 -0.1922596,-0.227537 -0.063499,-0.1464 -0.063499,-0.342187 0,-0.194024 0.063499,-0.338659 0.063498,-0.144636 0.1922596,-0.225773 0.1305249,-0.08114 0.3280761,-0.08114 0.1887319,0 0.317493,0.08114 0.128761,0.07937 0.1940235,0.225773 0.067026,0.144635 0.067026,0.340423 z m -0.9948114,0 q 0,0.23812 0.1005394,0.3757 0.1005395,0.135816 0.3139653,0.135816 0.2151897,0 0.3139653,-0.135816 0.098776,-0.13758 0.098776,-0.3757 0,-0.23812 -0.098776,-0.372173 -0.098776,-0.135816 -0.3122014,-0.135816 -0.2134259,0 -0.3157292,0.135816 -0.1005394,0.134053 -0.1005394,0.372173 z"
       id="path1930" />
    <path
       d="m 6.8925185,14.087412 q 0,-0.06526 0.031749,-0.09172 0.031749,-0.02646 0.075845,-0.02646 0.04586,0 0.077609,0.02646 0.033513,0.02646 0.033513,0.09172 0,0.0635 -0.033513,0.09172 -0.031749,0.02822 -0.077609,0.02822 -0.044096,0 -0.075845,-0.02822 -0.031749,-0.02822 -0.031749,-0.09172 z"
       id="path1932" />
    <path
       d="m 9.3354507,13.540619 q 0,0.319257 -0.1746211,0.481531 -0.1728573,0.16051 -0.4832949,0.16051 H 8.3265285 v -1.259389 h 0.388047 q 0.1904958,0 0.32984,0.07055 0.1393441,0.07055 0.2151897,0.208135 0.075846,0.135816 0.075846,0.338659 z m -0.1675657,0.0053 q 0,-0.25223 -0.1252334,-0.368644 Q 8.9191821,13.059088 8.6916455,13.059088 H 8.485275 v 0.987756 h 0.1710935 q 0.5115165,0 0.5115165,-0.500934 z"
       id="path1934" />
    <path
       d="m 10.033935,13.219598 q 0.02646,0 0.05644,0.0035 0.03175,0.0018 0.05468,0.0071 l -0.0194,0.142872 q -0.02293,-0.0053 -0.05115,-0.0088 -0.02646,-0.0035 -0.05115,-0.0035 -0.072318,0 -0.1358167,0.04057 -0.063499,0.0388 -0.1023033,0.111122 -0.037041,0.07055 -0.037041,0.165802 V 14.18266 H 9.5929724 v -0.945423 h 0.1269972 l 0.017638,0.172857 h 0.00706 q 0.04586,-0.07761 0.1181779,-0.134053 0.072318,-0.05644 0.1710936,-0.05644 z"
       id="path1936" />
    <path
       d="m 10.644226,13.221362 q 0.172858,0 0.255759,0.07585 0.0829,0.07585 0.0829,0.241648 v 0.643805 h -0.112887 l -0.02998,-0.134052 h -0.0071 q -0.06173,0.07761 -0.130525,0.11465 -0.06703,0.03704 -0.186968,0.03704 -0.128761,0 -0.213425,-0.06703 -0.08466,-0.06879 -0.08466,-0.213426 0,-0.141108 0.111122,-0.216953 0.111123,-0.07761 0.342187,-0.08466 l 0.160511,-0.0053 v -0.05644 q 0,-0.118178 -0.05115,-0.164038 -0.05115,-0.04586 -0.144636,-0.04586 -0.07408,0 -0.141108,0.02293 -0.06703,0.02117 -0.125233,0.04939 l -0.04762,-0.116414 q 0.06174,-0.03351 0.146399,-0.05644 0.08466,-0.02469 0.176385,-0.02469 z m 0.04586,0.504461 q -0.176385,0.0071 -0.245176,0.05644 -0.06703,0.04939 -0.06703,0.139344 0,0.07937 0.04762,0.116414 0.04939,0.03704 0.125233,0.03704 0.119942,0 0.199315,-0.06526 0.07937,-0.06703 0.07937,-0.204607 v -0.08467 z"
       id="path1938" />
    <path
       d="m 11.885978,13.648214 q -0.02293,-0.07232 -0.04057,-0.141108 -0.01587,-0.07055 -0.02469,-0.109359 h -0.0071 q -0.0071,0.0388 -0.02293,0.109359 -0.01587,0.06879 -0.04057,0.142871 l -0.16933,0.530919 h -0.176385 l -0.259286,-0.945423 h 0.16051 l 0.130525,0.504461 q 0.0194,0.07584 0.03704,0.153455 0.01764,0.07761 0.02469,0.128761 h 0.0071 q 0.0071,-0.02999 0.01587,-0.07408 0.01058,-0.0441 0.02293,-0.09172 0.01235,-0.04939 0.02469,-0.08819 l 0.167566,-0.532682 h 0.169329 l 0.162275,0.532682 q 0.0194,0.05997 0.03704,0.130525 0.0194,0.07055 0.02646,0.121706 h 0.0071 q 0.0053,-0.0441 0.02293,-0.121706 0.0194,-0.07761 0.04057,-0.158746 l 0.132289,-0.504461 h 0.158746 l -0.262813,0.945423 h -0.181677 z"
       id="path1940" />
  </g>
  <path
     style="fill:#999999;fill-opacity:1;stroke:none;stroke-width:0.249095;stroke-dasharray:none;stroke-opacity:0.3"
     d="M 7.4164201,10.644334 C 6.9516755,10.600373 6.5048839,10.349554 6.1755119,9.9477157 5.9300561,9.6482557 5.7333842,9.0943046 5.6595439,8.4944239 L 5.6449675,8.3760198 5.4872546,8.3687298 C 5.4005126,8.3647158 5.1198024,8.3579154 4.8634527,8.353626 l -0.4660893,-0.00781 3e-5,-0.1358102 c 1.63e-5,-0.074696 0.00354,-0.2494947 0.00788,-0.3884419 l 0.00782,-0.2526314 0.1936045,0.00425 c 0.1064826,0.00233 0.3801603,0.00904 0.6081744,0.01493 0.2280127,0.00588 0.4160313,0.00927 0.4178193,0.00751 0.00178,-0.0017 0.00852,-0.073928 0.01496,-0.1604198 0.030755,-0.4130819 0.1549782,-0.8732224 0.326727,-1.2102421 0.261283,-0.5127111 0.627806,-0.8142889 1.0811979,-0.8896194 0.5214256,-0.086634 1.0377831,0.040617 1.4840263,0.365721 0.1578779,0.1150188 0.4264211,0.3770265 0.5854814,0.5712297 0.069188,0.084476 0.2340117,0.3004435 0.3662721,0.4799273 0.422161,0.5728926 0.5596317,0.7290356 0.7034617,0.7990041 0.08729,0.042467 0.11933,0.045041 0.186531,0.015005 0.06763,-0.030234 0.08832,-0.057578 0.103668,-0.1370153 0.02966,-0.1535343 -0.0038,-0.3636549 -0.152691,-0.9567703 C 10.1888,5.9004432 10.167261,5.7743462 10.166902,5.5039514 c -2.76e-4,-0.198558 0.0023,-0.2263932 0.03196,-0.3337216 0.117213,-0.425595 0.444928,-0.7084276 0.820838,-0.7084276 0.305121,0 0.709133,0.1696522 1.121217,0.4708172 0.124961,0.091325 0.463091,0.3685053 0.469461,0.3848375 0.0059,0.015044 -0.502735,0.5861592 -0.515282,0.5786129 -0.0059,-0.00362 -0.07748,-0.062229 -0.158726,-0.1302043 -0.274071,-0.2292807 -0.472089,-0.362584 -0.676967,-0.4557259 -0.145431,-0.066114 -0.215924,-0.082408 -0.253328,-0.058549 -0.03642,0.023237 -0.05324,0.084433 -0.05332,0.1941212 -1.39e-4,0.1832155 0.03867,0.3922117 0.164091,0.8837636 0.143696,0.5631611 0.180933,0.7956811 0.169545,1.0586914 -0.0078,0.1830124 -0.03926,0.3087531 -0.114081,0.4576944 -0.04782,0.095205 -0.07244,0.1273618 -0.170826,0.2230654 -0.09357,0.09104 -0.135059,0.1218336 -0.223192,0.1656777 C 10.402089,8.4217542 10.034734,8.3943289 9.6833384,8.1528616 9.4923484,8.0216167 9.267299,7.7812938 9.0272977,7.4522939 8.9573453,7.3564026 8.8464619,7.204175 8.7808894,7.1140117 8.3214128,6.4822233 7.9557419,6.168574 7.594343,6.0962663 7.4200646,6.061397 7.1757806,6.0828214 7.0521323,6.1438194 6.9193514,6.2093224 6.7711129,6.385735 6.6702367,6.5982971 6.5502333,6.8511618 6.4566006,7.2246474 6.4362196,7.5317485 l -0.0083,0.1250001 0.058229,0.00761 c 0.5011724,0.065525 0.8136288,0.1480755 1.1133418,0.2941439 0.4266647,0.2079396 0.6862923,0.4672442 0.9128245,0.91169 0.249568,0.489638 0.2691403,0.9240512 0.05705,1.2662535 -0.1797614,0.290046 -0.4945848,0.471007 -0.8834644,0.507819 -0.1310098,0.0124 -0.1391239,0.0124 -0.2694847,7e-5 z M 7.8112264,9.8207059 c 0.0476,-0.02403 0.068623,-0.043029 0.081916,-0.073989 C 7.9563208,9.5995138 7.8952216,9.3555256 7.7255715,9.077536 7.5637539,8.8123688 7.3719984,8.6723702 7.0137273,8.5578064 6.8840143,8.5163287 6.5710389,8.4549134 6.4887678,8.4547938 l -0.031559,-4.65e-5 0.022748,0.1258775 c 0.05293,0.2929485 0.1367647,0.5554857 0.2428346,0.7604663 0.092092,0.1779714 0.249212,0.3220209 0.4590836,0.4208961 0.1633333,0.07695 0.2606912,0.098481 0.4269983,0.094421 0.1238009,-0.00297 0.1450457,-0.00675 0.2023568,-0.035703 z"
     id="path109" />
  <g
     aria-label="Krita"
     id="text1450"
     style="font-size:1.76385px;opacity:1;fill:#999999;stroke-width:0.529156">
    <rect
       style="font-size:1.76385px;fill:#00ff00;fill-opacity:1;stroke:none;stroke-width:0.519976;stroke-dasharray:none;filter:url(#filter1694)"
       id="rect1656-7"
       width="0.5055005"
       height="2.2653189"
       x="15.369148"
       y="4.3016486"
       rx="0"
       ry="0" />
    <rect
       style="opacity:1;fill:#00ff00;fill-opacity:1;stroke:none;stroke-width:0.519976;stroke-dasharray:none"
       id="rect1656"
       width="0.5055005"
       height="2.2653189"
       x="15.369148"
       y="4.3016486"
       rx="0"
       ry="0" />
  </g>
</svg>
