<?xml version="1.0" encoding="UTF-8" standalone="no"?>
<svg
   width="64"
   height="64"
   version="1.1"
   viewBox="0 0 16.933 16.933"
   id="svg7"
   sodipodi:docname="mintwelcome.svg"
   inkscape:version="1.4 (e7c3feb100, 2024-10-09)"
   xmlns:inkscape="http://www.inkscape.org/namespaces/inkscape"
   xmlns:sodipodi="http://sodipodi.sourceforge.net/DTD/sodipodi-0.dtd"
   xmlns:xlink="http://www.w3.org/1999/xlink"
   xmlns="http://www.w3.org/2000/svg"
   xmlns:svg="http://www.w3.org/2000/svg"
   xmlns:rdf="http://www.w3.org/1999/02/22-rdf-syntax-ns#"
   xmlns:cc="http://creativecommons.org/ns#"
   xmlns:dc="http://purl.org/dc/elements/1.1/">
  <sodipodi:namedview
     id="namedview7"
     pagecolor="#9c4444"
     bordercolor="#000000"
     borderopacity="0.25"
     inkscape:showpageshadow="2"
     inkscape:pageopacity="0.0"
     inkscape:pagecheckerboard="0"
     inkscape:deskcolor="#d1d1d1"
     inkscape:zoom="6.15625"
     inkscape:cx="15.593909"
     inkscape:cy="29.563452"
     inkscape:window-width="1226"
     inkscape:window-height="669"
     inkscape:window-x="35"
     inkscape:window-y="32"
     inkscape:window-maximized="0"
     inkscape:current-layer="svg7"
     showgrid="false" />
  <defs
     id="defs2">
    <rect
       x="67.489848"
       y="35.60533"
       width="15.337563"
       height="22.51269"
       id="rect3808" />
    <linearGradient
       inkscape:collect="always"
       id="linearGradient1134">
      <stop
         style="stop-color:#161616;stop-opacity:1;"
         offset="0"
         id="stop1130" />
      <stop
         style="stop-color:#404040;stop-opacity:1;"
         offset="1"
         id="stop1132" />
    </linearGradient>
    <linearGradient
       inkscape:collect="always"
       id="linearGradient883">
      <stop
         style="stop-color:#808080;stop-opacity:1;"
         offset="0"
         id="stop879" />
      <stop
         style="stop-color:#3e3e3e;stop-opacity:1;"
         offset="0.5"
         id="stop1216" />
      <stop
         style="stop-color:#242424;stop-opacity:1;"
         offset="1"
         id="stop881" />
    </linearGradient>
    <linearGradient
       inkscape:collect="always"
       xlink:href="#linearGradient883"
       id="linearGradient885"
       x1="2.1085808"
       y1="2.0236168"
       x2="14.846128"
       y2="15.071845"
       gradientUnits="userSpaceOnUse" />
    <linearGradient
       inkscape:collect="always"
       xlink:href="#linearGradient1134"
       id="linearGradient1136"
       x1="14.971222"
       y1="14.703373"
       x2="2.0756054"
       y2="2.0069976"
       gradientUnits="userSpaceOnUse" />
    <filter
       style="color-interpolation-filters:sRGB;"
       inkscape:label="Blur"
       id="filter1283"
       x="-0.082344266"
       y="-0.082344266"
       width="1.1646885"
       height="1.1646885">
      <feGaussianBlur
         stdDeviation="0.5 0.5"
         result="blur"
         id="feGaussianBlur1281" />
    </filter>
    <filter
       style="color-interpolation-filters:sRGB;"
       inkscape:label="Blur"
       id="filter1694"
       x="-0.94955398"
       y="-0.2118907"
       width="2.899108"
       height="1.4237814">
      <feGaussianBlur
         stdDeviation="0.2 0.2"
         result="blur"
         id="feGaussianBlur1692" />
    </filter>
    <filter
       style="color-interpolation-filters:sRGB;"
       inkscape:label="Blur"
       id="filter3148"
       x="-0.94955398"
       y="-0.2118907"
       width="2.899108"
       height="1.4237814">
      <feGaussianBlur
         stdDeviation="0.2 0.2"
         result="blur"
         id="feGaussianBlur3146" />
    </filter>
    <clipPath
       clipPathUnits="userSpaceOnUse"
       id="clipPath44">
      <path
         id="path46"
         style="display:block;opacity:0.85;fill:#f2f2f2;stroke-width:4.39162"
         d="m 17.570312,8.4453125 a 6.5431988,7.4283052 9.9958727e-8 0 0 -6.535156,7.4394535 6.5431988,7.4283052 9.9958727e-8 0 0 6.552735,7.417968 6.5431988,7.4283052 9.9958727e-8 0 0 6.535156,-7.4375 6.5431988,7.4283052 9.9958727e-8 0 0 -6.552735,-7.4199215 z M 45.646484,41.177734 a 6.5431986,7.0703472 2.4665357e-6 0 0 -6.533203,7.080078 6.5431986,7.0703472 2.4665357e-6 0 0 6.550781,7.060547 6.5431986,7.0703472 2.4665357e-6 0 0 6.535157,-7.080078 6.5431986,7.0703472 2.4665357e-6 0 0 -6.552735,-7.060547 z" />
    </clipPath>
    <inkscape:path-effect
       effect="powerclip"
       id="path-effect48"
       is_visible="true"
       lpeversion="1"
       inverse="true"
       flatten="false"
       hide_clip="false"
       message="" />
  </defs>
  <metadata
     id="metadata2">
    <rdf:RDF>
      <cc:Work
         rdf:about="">
        <dc:format>image/svg+xml</dc:format>
        <dc:type
           rdf:resource="http://purl.org/dc/dcmitype/StillImage" />
      </cc:Work>
    </rdf:RDF>
  </metadata>
  <rect
     style="fill:#000000;stroke:none;stroke-width:0.539739;stroke-dasharray:none;filter:url(#filter1283)"
     id="rect246-1"
     width="14.572964"
     height="14.572964"
     x="1.1932471"
     y="1.2138842"
     rx="2.1589575"
     ry="2.1589575" />
  <rect
     style="opacity:1;fill:#000000;stroke:url(#linearGradient885);stroke-width:0.52915625;stroke-dasharray:none"
     id="rect246"
     width="14.287219"
     height="14.287219"
     x="1.3361193"
     y="1.3567564"
     rx="2.1166251"
     ry="2.1166251" />
  <rect
     style="fill:url(#linearGradient1136);fill-opacity:1;stroke:none;stroke-width:0.478315;stroke-dasharray:none"
     id="rect246-5"
     width="12.914515"
     height="12.914515"
     x="2.0224717"
     y="2.0431087"
     rx="1.5874687"
     ry="1.5874687" />
  <path
     style="fill:#999999;stroke-width:0.192877"
     d="m 4.9946851,4.1292707 v 4.5740588 c 0,1.0897936 0.8939814,1.9837745 1.9837747,1.9837745 h 2.9760381 c 1.0712381,0 1.9540461,-0.8642863 1.9837751,-1.9287742 v -2.484726 c 5.5e-5,-0.00753 5.5e-5,-0.015068 0,-0.022602 0,-0.8521862 -0.690833,-1.5430196 -1.543019,-1.5430196 -0.0077,-5.88e-5 -0.01557,-5.88e-5 -0.02336,0 C 10.029272,4.7133692 9.6981926,4.8326553 9.4308632,5.0470233 9.1572651,4.827715 8.8171269,4.708135 8.4664792,4.7079814 c -0.00779,-5.9e-5 -0.015571,-5.9e-5 -0.023356,0 -0.8430514,0.012763 -1.51976,0.6998719 -1.5196636,1.5430195 V 8.7583297 H 8.0807243 V 7.9370935 6.2510009 c 0,-0.2130466 0.1727082,-0.3857549 0.3857549,-0.3857549 0.2130466,0 0.3857549,0.1727083 0.3857549,0.3857549 V 7.9378468 8.7583297 H 10.009498 V 7.9370935 6.2736038 c 5.6e-5,-0.00753 5.6e-5,-0.015068 0,-0.022602 0,-0.2130467 0.172709,-0.3857549 0.385756,-0.3857549 0.213046,0 0.385754,0.1727082 0.385754,0.3857549 v 1.686845 0.6276052 c 0,0.5786323 -0.385754,0.9643875 -1.0193869,0.9643875 H 7.1329126 c -0.5952078,0 -0.9809628,-0.3857552 -0.9809628,-0.9643875 V 4.1292707 Z"
     id="path3" />
  <g
     fill="#474747"
     id="g9"
     transform="matrix(0.46959567,0,0,0.46959567,4.7471229,3.7470598)"
     style="fill:#999999;fill-opacity:1;stroke:none;stroke-width:0.58349;stroke-dasharray:none;stroke-opacity:0.3" />
  <g
     aria-label="Krita"
     id="text1450"
     style="font-size:1.76385px;opacity:1;fill:#afafe9;stroke-width:0.529156;fill-opacity:1">
    <rect
       style="font-size:1.76385px;fill:#afafe9;fill-opacity:1;stroke:none;stroke-width:0.519976;stroke-dasharray:none;filter:url(#filter3148)"
       id="rect1656-3"
       width="0.5055005"
       height="2.2653189"
       x="15.369148"
       y="4.3016486"
       rx="0"
       ry="0" />
    <rect
       style="opacity:1;fill:#afafe9;fill-opacity:1;stroke:none;stroke-width:0.519976;stroke-dasharray:none"
       id="rect1656"
       width="0.5055005"
       height="2.2653189"
       x="15.369148"
       y="4.3016486"
       rx="0"
       ry="0" />
  </g>
  <path
     d="M 6.3253538,12.919628 5.9902223,14.179017 H 5.829712 L 5.5845368,13.353535 q -0.014111,-0.05115 -0.028222,-0.102303 -0.014111,-0.05115 -0.02293,-0.08996 -0.00882,-0.04057 -0.012347,-0.05644 -0.00176,0.02293 -0.019402,0.09878 -0.015875,0.07408 -0.040569,0.155219 l -0.2381197,0.82019 H 5.0624372 L 4.7290696,12.919628 h 0.1658019 l 0.1957873,0.769039 q 0.021166,0.08114 0.035277,0.156982 0.015875,0.07585 0.024694,0.142872 0.00882,-0.06879 0.026458,-0.149927 0.017639,-0.08114 0.040569,-0.158746 l 0.2222451,-0.76022 h 0.1640381 l 0.2310643,0.765511 q 0.024694,0.08114 0.042332,0.162274 0.017638,0.07937 0.026458,0.141108 0.00882,-0.06526 0.024694,-0.141108 0.015875,-0.07761 0.037041,-0.16051 l 0.1940235,-0.767275 z m 0.502697,0.296327 q 0.1217057,0 0.2081343,0.05292 0.088192,0.05292 0.1340526,0.149928 0.047624,0.09525 0.047624,0.224009 v 0.09348 h -0.647333 q 0.00353,0.16051 0.081137,0.245175 0.079373,0.0829 0.2204813,0.0829 0.089956,0 0.1587465,-0.01588 0.070554,-0.01764 0.1446357,-0.04939 v 0.135817 q -0.072318,0.03175 -0.1428719,0.04586 -0.070554,0.01588 -0.1675657,0.01588 -0.1340526,0 -0.2381198,-0.05468 -0.1023033,-0.05468 -0.1605103,-0.162274 -0.056443,-0.109359 -0.056443,-0.266341 0,-0.155219 0.051152,-0.266342 0.052916,-0.111122 0.1463996,-0.171093 0.095248,-0.05997 0.2204812,-0.05997 z m -0.00176,0.126997 q -0.1111226,0 -0.176385,0.07232 -0.063499,0.07055 -0.075846,0.197551 h 0.4815311 q -0.00176,-0.119942 -0.056443,-0.194023 -0.054679,-0.07585 -0.1728573,-0.07585 z m 0.7866756,0.836065 H 7.4577438 v -1.340526 h 0.1552188 z m 0.6790813,0.01764 q -0.1252333,0 -0.2240089,-0.05115 -0.097012,-0.05115 -0.153455,-0.158747 -0.054679,-0.107594 -0.054679,-0.27516 0,-0.174621 0.058207,-0.28398 0.058207,-0.109359 0.1569827,-0.16051 0.1005394,-0.05115 0.2275366,-0.05115 0.072318,0 0.1393441,0.01588 0.067026,0.01411 0.1093587,0.03528 l -0.047624,0.128761 q -0.042332,-0.01587 -0.098776,-0.02999 -0.056443,-0.01411 -0.105831,-0.01411 -0.2786883,0 -0.2786883,0.358062 0,0.171093 0.067026,0.262814 0.06879,0.08996 0.2028428,0.08996 0.077609,0 0.1358164,-0.01587 0.059971,-0.01587 0.1093587,-0.0388 v 0.13758 q -0.047624,0.02469 -0.105831,0.03704 -0.056443,0.01411 -0.1375803,0.01411 z m 1.2893736,-0.492115 q 0,0.234592 -0.1199418,0.363354 -0.1181779,0.128761 -0.3210207,0.128761 -0.1252333,0 -0.2240089,-0.05644 -0.097012,-0.05821 -0.153455,-0.167565 -0.056443,-0.111123 -0.056443,-0.268106 0,-0.234592 0.118178,-0.361589 0.1181779,-0.126997 0.3210207,-0.126997 0.128761,0 0.2257728,0.05821 0.098776,0.05644 0.1534549,0.165802 0.056443,0.107595 0.056443,0.264577 z m -0.7143592,0 q 0,0.167566 0.065262,0.266342 0.067026,0.09701 0.211662,0.09701 0.1428719,0 0.2098982,-0.09701 0.067026,-0.09878 0.067026,-0.266342 0,-0.167565 -0.067026,-0.262813 -0.067026,-0.09525 -0.211662,-0.09525 -0.1446357,0 -0.2098982,0.09525 -0.065262,0.09525 -0.065262,0.262813 z m 1.9966767,-0.488586 q 0.160511,0 0.239884,0.0829 0.07937,0.08114 0.07937,0.264577 v 0.615584 h -0.153455 v -0.608528 q 0,-0.224009 -0.192259,-0.224009 -0.137581,0 -0.197552,0.07937 -0.05821,0.07937 -0.05821,0.231064 v 0.5221 h -0.153455 v -0.608528 q 0,-0.224009 -0.194023,-0.224009 -0.142872,0 -0.197551,0.08819 -0.05468,0.08819 -0.05468,0.253995 v 0.49035 H 9.8265916 v -0.945424 h 0.1252333 l 0.02293,0.128762 h 0.00882 q 0.044096,-0.07408 0.1181778,-0.109359 0.07585,-0.03704 0.160511,-0.03704 0.222245,0 0.289271,0.158746 h 0.0088 q 0.04762,-0.08114 0.128761,-0.119941 0.0829,-0.0388 0.174621,-0.0388 z m 0.977173,0 q 0.121705,0 0.208134,0.05292 0.08819,0.05292 0.134052,0.149928 0.04762,0.09525 0.04762,0.224009 v 0.09348 h -0.647333 q 0.0035,0.16051 0.08114,0.245175 0.07937,0.0829 0.220481,0.0829 0.08996,0 0.158746,-0.01588 0.07055,-0.01764 0.144636,-0.04939 v 0.135817 q -0.07232,0.03175 -0.142872,0.04586 -0.07055,0.01588 -0.167566,0.01588 -0.134052,0 -0.238119,-0.05468 -0.102304,-0.05468 -0.160511,-0.162274 -0.05644,-0.109359 -0.05644,-0.266341 0,-0.155219 0.05115,-0.266342 0.05292,-0.111122 0.146399,-0.171093 0.09525,-0.05997 0.220482,-0.05997 z m -0.0018,0.126997 q -0.111123,0 -0.176385,0.07232 -0.0635,0.07055 -0.07585,0.197551 h 0.481531 q -0.0018,-0.119942 -0.05644,-0.194023 -0.05468,-0.07585 -0.172857,-0.07585 z"
     id="text2284"
     style="font-size:1.76385px;fill:#999999;stroke-width:0.529156"
     aria-label="Welcome" />
  <text
     xml:space="preserve"
     transform="scale(0.26457812)"
     id="text3806"
     style="font-size:6.66667px;white-space:pre;shape-inside:url(#rect3808);display:inline;fill:#999999;stroke-width:2" />
</svg>
