<?xml version="1.0" encoding="UTF-8" standalone="no"?>
<svg
   width="64"
   height="64"
   version="1.1"
   viewBox="0 0 16.933 16.933"
   id="svg7"
   sodipodi:docname="System Template.svg"
   inkscape:version="1.4 (e7c3feb100, 2024-10-09)"
   xmlns:inkscape="http://www.inkscape.org/namespaces/inkscape"
   xmlns:sodipodi="http://sodipodi.sourceforge.net/DTD/sodipodi-0.dtd"
   xmlns:xlink="http://www.w3.org/1999/xlink"
   xmlns="http://www.w3.org/2000/svg"
   xmlns:svg="http://www.w3.org/2000/svg"
   xmlns:rdf="http://www.w3.org/1999/02/22-rdf-syntax-ns#"
   xmlns:cc="http://creativecommons.org/ns#"
   xmlns:dc="http://purl.org/dc/elements/1.1/">
  <sodipodi:namedview
     id="namedview7"
     pagecolor="#9c4444"
     bordercolor="#000000"
     borderopacity="0.25"
     inkscape:showpageshadow="2"
     inkscape:pageopacity="0.0"
     inkscape:pagecheckerboard="0"
     inkscape:deskcolor="#d1d1d1"
     inkscape:zoom="6.15625"
     inkscape:cx="15.675127"
     inkscape:cy="27.370558"
     inkscape:window-width="1183"
     inkscape:window-height="973"
     inkscape:window-x="35"
     inkscape:window-y="32"
     inkscape:window-maximized="0"
     inkscape:current-layer="svg7"
     showgrid="false" />
  <defs
     id="defs2">
    <linearGradient
       inkscape:collect="always"
       id="linearGradient1134">
      <stop
         style="stop-color:#161616;stop-opacity:1;"
         offset="0"
         id="stop1130" />
      <stop
         style="stop-color:#404040;stop-opacity:1;"
         offset="1"
         id="stop1132" />
    </linearGradient>
    <linearGradient
       inkscape:collect="always"
       id="linearGradient883">
      <stop
         style="stop-color:#808080;stop-opacity:1;"
         offset="0"
         id="stop879" />
      <stop
         style="stop-color:#3e3e3e;stop-opacity:1;"
         offset="0.5"
         id="stop1216" />
      <stop
         style="stop-color:#242424;stop-opacity:1;"
         offset="1"
         id="stop881" />
    </linearGradient>
    <linearGradient
       inkscape:collect="always"
       xlink:href="#linearGradient883"
       id="linearGradient885"
       x1="2.1085808"
       y1="2.0236168"
       x2="14.846128"
       y2="15.071845"
       gradientUnits="userSpaceOnUse" />
    <linearGradient
       inkscape:collect="always"
       xlink:href="#linearGradient1134"
       id="linearGradient1136"
       x1="14.971222"
       y1="14.703373"
       x2="2.0756054"
       y2="2.0069976"
       gradientUnits="userSpaceOnUse" />
    <filter
       style="color-interpolation-filters:sRGB;"
       inkscape:label="Blur"
       id="filter1283"
       x="-0.082344266"
       y="-0.082344266"
       width="1.1646885"
       height="1.1646885">
      <feGaussianBlur
         stdDeviation="0.5 0.5"
         result="blur"
         id="feGaussianBlur1281" />
    </filter>
    <filter
       style="color-interpolation-filters:sRGB;"
       inkscape:label="Blur"
       id="filter1694"
       x="-0.94955398"
       y="-0.2118907"
       width="2.899108"
       height="1.4237814">
      <feGaussianBlur
         stdDeviation="0.2 0.2"
         result="blur"
         id="feGaussianBlur1692" />
    </filter>
    <filter
       style="color-interpolation-filters:sRGB;"
       inkscape:label="Blur"
       id="filter3335"
       x="-0.94955398"
       y="-0.2118907"
       width="2.899108"
       height="1.4237814">
      <feGaussianBlur
         stdDeviation="0.2 0.2"
         result="blur"
         id="feGaussianBlur3333" />
    </filter>
  </defs>
  <metadata
     id="metadata2">
    <rdf:RDF>
      <cc:Work
         rdf:about="">
        <dc:format>image/svg+xml</dc:format>
        <dc:type
           rdf:resource="http://purl.org/dc/dcmitype/StillImage" />
      </cc:Work>
    </rdf:RDF>
  </metadata>
  <rect
     style="fill:#000000;stroke:none;stroke-width:0.539739;stroke-dasharray:none;filter:url(#filter1283)"
     id="rect246-1"
     width="14.572964"
     height="14.572964"
     x="1.1932471"
     y="1.2138842"
     rx="2.1589575"
     ry="2.1589575" />
  <rect
     style="opacity:1;fill:#000000;stroke:url(#linearGradient885);stroke-width:0.52915625;stroke-dasharray:none"
     id="rect246"
     width="14.287219"
     height="14.287219"
     x="1.3361193"
     y="1.3567564"
     rx="2.1166251"
     ry="2.1166251" />
  <g
     aria-label="Krita"
     id="text1450"
     style="font-size:1.76385px;opacity:1;fill:#999999;stroke-width:0.529156">
    <rect
       style="font-size:1.76385px;fill:#ff0000;fill-opacity:1;stroke:none;stroke-width:0.519976;stroke-dasharray:none;filter:url(#filter3335)"
       id="rect1656-0"
       width="0.5055005"
       height="2.2653189"
       x="15.369148"
       y="4.3016486"
       rx="0"
       ry="0" />
    <rect
       style="opacity:1;fill:#ff0000;fill-opacity:1;stroke:none;stroke-width:0.519976;stroke-dasharray:none"
       id="rect1656"
       width="0.5055005"
       height="2.2653189"
       x="15.369148"
       y="4.3016486"
       rx="0"
       ry="0" />
  </g>
  <rect
     style="fill:url(#linearGradient1136);fill-opacity:1;stroke:none;stroke-width:0.478315;stroke-dasharray:none"
     id="rect246-5"
     width="12.914515"
     height="12.914515"
     x="2.0224717"
     y="2.0431087"
     rx="1.5874687"
     ry="1.5874687" />
  <path
     id="path7"
     style="fill:#999999;stroke:none;stroke-width:0.0195366;stroke-opacity:1"
     d="m 11.332139,4.5069272 c -0.113307,0 -0.219552,0.053765 -0.282083,0.1427372 -0.01588,0.022601 -0.11542,0.2693414 -0.229871,0.5695912 l -0.20173,0.529584 -0.3543,0.1556206 C 10.069429,5.9900457 9.9067923,6.0600881 9.902736,6.0600808 9.898686,6.0600731 9.887382,6.0326236 9.877653,5.9990527 9.8519274,5.9103656 9.762189,5.7334669 9.702701,5.654586 9.6312091,5.5597875 9.5388496,5.4636758 9.4524877,5.3942011 9.3874136,5.3418519 9.3755809,5.3271753 9.3473848,5.262314 9.2781052,5.1029468 9.16475,4.9706007 9.0090203,4.8680075 8.5700919,4.5788447 7.9377443,4.6349873 7.5779224,4.9948092 7.4982508,5.0744811 7.4401946,5.1600157 7.3948393,5.2643479 7.3652461,5.3324227 7.3554037,5.3445085 7.2839727,5.4016604 7.0897637,5.5570465 6.9116526,5.8159259 6.8611869,6.0163439 6.8525942,6.0504669 6.8459581,6.0605081 6.8340632,6.0570294 6.7968262,6.0461383 6.1432368,5.754418 6.132924,5.7440933 6.1266627,5.7378227 6.0332833,5.5001005 5.9250906,5.2155261 5.816898,4.9309517 5.7195333,4.6836737 5.7087816,4.6662771 5.676639,4.6142693 5.5954118,4.5483732 5.53587,4.5259136 5.4613652,4.4978099 5.3468775,4.5026343 5.2751466,4.5367647 5.209659,4.5679236 5.1380514,4.6412174 5.1063034,4.7096765 c -0.021452,0.046256 -0.02605,0.069746 -0.025768,0.1342607 3.3e-4,0.077926 8.991e-4,0.079811 0.2129187,0.6350267 0.1169457,0.3062338 0.2239259,0.5851872 0.2376688,0.6201082 0.030803,0.078276 0.078216,0.1451097 0.1271408,0.1790144 0.026888,0.018633 0.5772347,0.2681645 0.7611501,0.3451454 0.00612,0.00256 0.04422,-0.044995 0.08476,-0.1057813 0.1593008,-0.2388508 0.3310001,-0.4262223 0.4421116,-0.4817794 0.046516,-0.023259 0.073478,-0.029467 0.1390075,-0.032549 0.129749,-0.0061 0.1257015,-0.00886 0.7441983,0.519752 0.5299892,0.452972 0.5426942,0.4627813 0.5617929,0.4458408 0.091912,-0.081526 1.0435164,-0.8894476 1.0825623,-0.9191439 0.090039,-0.068477 0.1912434,-0.093139 0.2712345,-0.066113 0.059073,0.019957 0.1186182,0.071933 0.2400417,0.2098674 0.1354274,0.1538433 0.1938974,0.2292973 0.2719124,0.3502306 0.04235,0.065658 0.05842,0.083182 0.0712,0.078319 0.0981,-0.037345 0.720117,-0.3176795 0.75064,-0.3383643 0.04703,-0.031874 0.08484,-0.07501 0.110189,-0.1247679 0.0099,-0.019429 0.120788,-0.3032337 0.246145,-0.6309576 L 11.663043,4.931748 V 4.843936 c 1.61e-4,-0.076585 -0.0031,-0.094995 -0.02678,-0.143415 -0.05662,-0.1156428 -0.17907,-0.1935933 -0.30412,-0.1935937 z M 8.8171225,5.2117965 c 0.090343,0.00442 0.1932356,0.056559 0.2800491,0.1495175 0.2164243,0.2317453 0.2529408,0.5950331 0.070182,0.6977494 C 9.1244317,6.083187 9.0443686,6.0930915 8.9947809,6.080424 8.9266353,6.0630143 8.8491125,6.0154479 8.7862695,5.9526045 8.5727097,5.739045 8.516814,5.391044 8.6743855,5.2568899 c 0.039073,-0.033267 0.08853,-0.047749 0.142737,-0.045093 z m -0.8754075,0.00441 c 0.1016445,2.1e-4 0.157016,0.037237 0.202069,0.1356169 0.01881,0.041075 0.022358,0.064317 0.0217,0.1464664 C 8.164084,5.6683639 8.099803,5.817324 7.9712125,5.948199 7.9242705,5.995975 7.8821965,6.027994 7.8372907,6.0499115 7.7672017,6.0841175 7.6742722,6.0971045 7.6213207,6.0800825 7.53526,6.0524174 7.477237,5.9584612 7.4701078,5.835294 7.456633,5.6024966 7.6126623,5.3371222 7.8196603,5.2409525 7.8613051,5.2216061 7.8887137,5.2160963 7.941715,5.2162034 Z m 1.7240306,0.9377911 c -0.00925,0.00106 -0.019795,0.00639 -0.038312,0.016276 C 9.6050658,6.1822072 9.3161713,6.4225433 8.9856261,6.7046 8.6550813,6.9866556 8.379002,7.2175714 8.3719595,7.2175714 8.3649125,7.2175714 8.0897714,6.9877175 7.7606661,6.706973 7.3357495,6.3444987 7.151546,6.1936263 7.1256399,6.1858648 7.0719242,6.1697709 6.9988323,6.206004 6.9164507,6.289612 6.8390936,6.368119 6.6793134,6.5791725 6.6058877,6.6998532 6.3868894,7.0597978 6.2556049,7.4699101 6.2166672,7.9159983 c -0.013855,0.158709 -0.00621,0.4649145 0.015594,0.6238379 0.090236,0.6576105 0.3793923,1.2625066 0.8103114,1.6952128 0.3366143,0.338011 0.7496228,0.54787 1.1629154,0.590951 0.2258445,0.02353 0.4638071,-0.0034 0.6936806,-0.07866 0.1157967,-0.03792 0.3392406,-0.148329 0.4492313,-0.221734 0.7178171,-0.479045 1.1866491,-1.4177018 1.1866491,-2.3753309 0,-0.6073601 -0.187789,-1.1904266 -0.529246,-1.6426605 C 9.9110493,6.3821191 9.7293078,6.1800865 9.6952409,6.1624694 c -0.012398,-0.00641 -0.020253,-0.00951 -0.029497,-0.00848 z m 0.8920204,1.0042437 c -0.0011,7.308e-4 0.01282,0.047942 0.03085,0.1047641 0.03962,0.1248455 0.08747,0.348796 0.10307,0.4821183 0.01641,0.1402931 0.01382,0.1363671 0.103745,0.1508738 0.04196,0.00677 0.08504,0.015811 0.09595,0.020003 0.01091,0.00418 0.180579,0.1555943 0.376676,0.336669 0.196097,0.1810748 0.373136,0.3407597 0.393628,0.3546385 0.02049,0.013878 0.05995,0.033441 0.08781,0.043397 0.15339,0.054814 0.340523,-0.033376 0.414649,-0.1952881 0.04784,-0.1045133 0.02872,-0.2459476 -0.04612,-0.3410768 -0.01088,-0.013836 -0.207657,-0.198316 -0.437361,-0.4102416 -0.269809,-0.2489253 -0.43497,-0.3943219 -0.466523,-0.4105803 -0.03704,-0.019084 -0.121971,-0.038769 -0.351586,-0.081031 -0.166549,-0.030654 -0.303723,-0.054994 -0.3048,-0.054247 z m -4.3892429,0.00881 c -0.029563,0.002 -0.1474645,0.020568 -0.2851348,0.045092 -0.2290308,0.040803 -0.2975432,0.056802 -0.3444671,0.079675 -0.046551,0.022692 -0.1470074,0.1104428 -0.4882211,0.4265152 -0.5014272,0.4644822 -0.4886407,0.4485146 -0.4885599,0.6079033 4.17e-5,0.082241 0.00303,0.098625 0.026784,0.143754 0.051306,0.097497 0.1245463,0.1586648 0.2213946,0.1847779 0.024556,0.00662 0.063085,0.012179 0.085439,0.012546 0.055568,8.991e-4 0.1526817,-0.030695 0.1966444,-0.064079 0.030641,-0.023268 0.5871905,-0.5323365 0.7106333,-0.6499443 0.035911,-0.034213 0.048127,-0.038902 0.1318875,-0.053569 0.050765,-0.00888 0.093604,-0.01743 0.095271,-0.018647 0.00166,-0.00122 0.0094,-0.051884 0.017292,-0.1129013 0.024442,-0.1890254 0.055757,-0.3366549 0.1081545,-0.5092419 0.014284,-0.047047 0.023357,-0.088187 0.020003,-0.091541 -4.244e-4,-4.243e-4 -0.00289,-6.364e-4 -0.00712,-3.3e-4 z M 6.055622,8.6089989 5.8803372,8.7564825 C 5.6577929,8.9435722 5.6200643,8.9807747 5.5897777,9.0426344 5.5010749,9.2238057 5.0927456,10.131547 5.0835873,10.167916 c -0.014682,0.05831 -0.0062,0.154122 0.018986,0.211902 0.036467,0.08366 0.1218979,0.16079 0.2098672,0.189525 0.024781,0.0081 0.071528,0.01195 0.1190039,0.01017 0.0668,-0.0025 0.086906,-0.0075 0.1396856,-0.0356 0.1067967,-0.05692 0.1129961,-0.06768 0.3682,-0.6275677 C 6.1393206,9.4775917 6.1776806,9.4008742 6.2098863,9.3715084 l 0.037295,-0.034247 -0.047805,-0.14172 C 6.144516,9.0334198 6.1068184,8.8889134 6.0766429,8.7239342 Z m 4.631998,0.00202 c -0.0014,0.00182 -0.0104,0.049505 -0.02,0.1057815 -0.02444,0.1432364 -0.07379,0.3337265 -0.126463,0.4885607 l -0.04476,0.131548 0.039,0.034247 c 0.03438,0.030318 0.0645,0.090517 0.258351,0.5153445 0.120725,0.2645684 0.227006,0.4954834 0.235973,0.5129714 0.03675,0.07168 0.09781,0.126832 0.177659,0.160366 0.07701,0.03235 0.187437,0.02895 0.267164,-0.0081 0.149137,-0.06938 0.234108,-0.255329 0.18444,-0.403798 C 11.637874,10.08484 11.154284,9.0313278 11.1294,8.9941778 11.10882,8.9634468 10.693434,8.603207 10.687629,8.6110599 Z" />
  <path
     d="m 3.7568322,12.866699 q 0.234592,0 0.3457146,0.08996 0.1128864,0.08819 0.1128864,0.268105 0,0.100539 -0.037041,0.167566 -0.037041,0.06703 -0.095248,0.107594 -0.056443,0.0388 -0.1199418,0.06173 l 0.3457146,0.564432 H 4.123713 L 3.8185669,13.605752 H 3.5681002 v 0.520336 H 3.4093537 v -1.259389 z m -0.00882,0.137581 H 3.5681002 v 0.46742 h 0.188732 q 0.1534549,0 0.2240089,-0.05997 0.070554,-0.06173 0.070554,-0.179913 0,-0.123469 -0.074082,-0.174621 -0.074082,-0.05292 -0.2293005,-0.05292 z m 1.1024058,0.158746 q 0.1217056,0 0.2081343,0.05292 0.088192,0.05292 0.1340526,0.149927 0.047624,0.09525 0.047624,0.224009 v 0.09348 H 4.5928966 q 0.00353,0.16051 0.081137,0.245175 0.079373,0.0829 0.2204812,0.0829 0.089956,0 0.1587465,-0.01587 0.070554,-0.01764 0.1446357,-0.04939 v 0.135817 q -0.072318,0.03175 -0.1428718,0.04586 -0.070554,0.01587 -0.1675658,0.01587 -0.1340526,0 -0.2381197,-0.05468 -0.1023033,-0.05468 -0.1605104,-0.162274 -0.056443,-0.109359 -0.056443,-0.266341 0,-0.155219 0.051152,-0.266342 0.052916,-0.111122 0.1463995,-0.171093 0.095248,-0.05997 0.2204813,-0.05997 z m -0.00176,0.126997 q -0.1111225,0 -0.176385,0.07232 -0.063499,0.07055 -0.075845,0.197551 h 0.481531 q -0.00176,-0.119941 -0.056443,-0.194023 -0.054679,-0.07585 -0.1728573,-0.07585 z m 1.0812387,-0.126997 q 0.1746211,0 0.2804521,0.121706 0.1075949,0.121705 0.1075949,0.36688 0,0.241648 -0.1075949,0.366881 -0.105831,0.125234 -0.282216,0.125234 -0.1093587,0 -0.1816765,-0.04057 -0.070554,-0.04233 -0.1111226,-0.09701 h -0.010583 q 0.00353,0.02999 0.00706,0.07585 0.00353,0.04586 0.00353,0.07937 v 0.388047 H 5.4801117 v -1.368747 h 0.1269972 l 0.021166,0.128761 h 0.00706 q 0.042332,-0.06174 0.1111226,-0.104068 0.06879,-0.04233 0.1834404,-0.04233 z m -0.028222,0.130525 q -0.1446357,0 -0.2046066,0.08114 -0.058207,0.08114 -0.061735,0.246939 v 0.02998 q 0,0.174622 0.056443,0.26987 0.058207,0.09348 0.2134259,0.09348 0.086429,0 0.141108,-0.04762 0.056443,-0.04762 0.082901,-0.128761 0.028222,-0.0829 0.028222,-0.188732 0,-0.162275 -0.063499,-0.259286 -0.061735,-0.09701 -0.1922596,-0.09701 z m 1.4851613,0.358061 q 0,0.234593 -0.1199418,0.363354 -0.118178,0.128761 -0.3210207,0.128761 -0.1252334,0 -0.224009,-0.05644 -0.097012,-0.05821 -0.1534549,-0.167565 -0.056443,-0.111123 -0.056443,-0.268106 0,-0.234592 0.1181779,-0.361589 0.118178,-0.126997 0.3210207,-0.126997 0.1287611,0 0.2257728,0.05821 0.098776,0.05644 0.153455,0.165802 0.056443,0.107595 0.056443,0.264577 z m -0.7143593,0 q 0,0.167566 0.065263,0.266342 0.067026,0.09701 0.211662,0.09701 0.1428718,0 0.2098981,-0.09701 0.067026,-0.09878 0.067026,-0.266342 0,-0.167565 -0.067026,-0.262813 -0.067026,-0.09525 -0.211662,-0.09525 -0.1446357,0 -0.2098981,0.09525 -0.065263,0.09525 -0.065263,0.262813 z m 1.4004958,-0.488586 q 0.026458,0 0.056443,0.0035 0.031749,0.0018 0.054679,0.0071 l -0.019402,0.142872 q -0.02293,-0.0053 -0.051152,-0.0088 -0.026458,-0.0035 -0.051152,-0.0035 -0.072318,0 -0.1358164,0.04057 -0.063499,0.0388 -0.1023033,0.111122 -0.037041,0.07055 -0.037041,0.165802 v 0.504461 H 7.6320072 v -0.945423 h 0.1269972 l 0.017638,0.172857 h 0.00706 q 0.04586,-0.07761 0.118178,-0.134053 0.072318,-0.05644 0.1710934,-0.05644 z m 0.603237,0.853703 q 0.035277,0 0.072318,-0.0053 0.037041,-0.0071 0.059971,-0.01411 v 0.118178 q -0.024694,0.01235 -0.070554,0.0194 -0.04586,0.0088 -0.088192,0.0088 -0.074082,0 -0.1375803,-0.02469 -0.061735,-0.02646 -0.1005395,-0.08996 -0.038805,-0.0635 -0.038805,-0.178148 V 13.300606 H 8.2387719 v -0.07408 l 0.1358165,-0.06174 0.061735,-0.201079 h 0.09172 v 0.216954 h 0.2733968 v 0.119941 H 8.5280433 V 13.8474 q 0,0.08643 0.040569,0.128761 0.042332,0.04057 0.1075948,0.04057 z m 1.1606137,-1.15003 q 0.2363556,0 0.3562976,0.07055 0.121706,0.06879 0.121706,0.241648 0,0.111122 -0.06174,0.185204 -0.06173,0.07232 -0.178149,0.09348 v 0.0088 q 0.07937,0.01235 0.142872,0.04586 0.06526,0.03351 0.102303,0.09525 0.03704,0.06173 0.03704,0.160511 0,0.171093 -0.118178,0.264577 -0.116414,0.09348 -0.3192567,0.09348 H 9.476995 v -1.259389 z m 0.031749,0.536211 q 0.1622743,0 0.2222453,-0.05115 0.05997,-0.05292 0.05997,-0.155219 0,-0.104067 -0.07408,-0.148163 -0.07232,-0.04586 -0.2328282,-0.04586 H 9.6357415 v 0.400394 z m -0.2328282,0.132288 v 0.456838 h 0.2539944 q 0.1675661,0 0.2328281,-0.06526 0.06526,-0.06526 0.06526,-0.171093 0,-0.09878 -0.06879,-0.158747 -0.06703,-0.06174 -0.2416471,-0.06174 z m 1.7567945,-0.354533 v 0.945423 h -0.126998 l -0.02293,-0.125233 h -0.0071 q -0.04586,0.07408 -0.126997,0.109358 -0.08114,0.03351 -0.172858,0.03351 -0.171093,0 -0.257522,-0.08114 -0.08643,-0.0829 -0.08643,-0.262814 v -0.619111 h 0.156982 v 0.608528 q 0,0.225773 0.209899,0.225773 0.156982,0 0.216953,-0.08819 0.06173,-0.08819 0.06173,-0.253994 v -0.492114 z m 0.634985,-0.01764 q 0.09348,0 0.167566,0.03528 0.07585,0.03528 0.128761,0.107595 h 0.0088 l 0.02117,-0.125233 h 0.12347 v 0.961298 q 0,0.202843 -0.104067,0.305146 -0.102304,0.102303 -0.319257,0.102303 -0.208134,0 -0.340423,-0.05997 v -0.142872 q 0.139344,0.07408 0.349242,0.07408 0.121706,0 0.190496,-0.07232 0.07055,-0.07055 0.07055,-0.194023 v -0.03704 q 0,-0.02117 0.0018,-0.05997 0.0018,-0.04057 0.0035,-0.05644 h -0.0071 q -0.09525,0.142872 -0.292799,0.142872 -0.18344,0 -0.287508,-0.128761 -0.102303,-0.128761 -0.102303,-0.359826 0,-0.225773 0.102303,-0.358061 0.104068,-0.134053 0.285744,-0.134053 z m 0.02117,0.130525 q -0.118178,0 -0.18344,0.09525 -0.06526,0.09348 -0.06526,0.268105 0,0.174621 0.0635,0.268105 0.06526,0.09172 0.188732,0.09172 0.142872,0 0.208134,-0.07584 0.06526,-0.07761 0.06526,-0.248703 v -0.03704 q 0,-0.194023 -0.06703,-0.276924 -0.06703,-0.08466 -0.209898,-0.08466 z m 1.344054,0.571487 q 0,0.137581 -0.102304,0.208135 -0.102303,0.07055 -0.27516,0.07055 -0.09878,0 -0.171094,-0.01587 -0.07055,-0.01588 -0.125233,-0.0441 v -0.141108 q 0.05644,0.02822 0.135816,0.05292 0.08114,0.02293 0.164038,0.02293 0.118178,0 0.171094,-0.03704 0.05292,-0.0388 0.05292,-0.102303 0,-0.03528 -0.0194,-0.0635 -0.0194,-0.02822 -0.07055,-0.05644 -0.04939,-0.02822 -0.142872,-0.0635 -0.09172,-0.03528 -0.156982,-0.07055 -0.06526,-0.03528 -0.10054,-0.08466 -0.03528,-0.04939 -0.03528,-0.126997 0,-0.119942 0.09701,-0.185204 0.09877,-0.06526 0.257522,-0.06526 0.08643,0 0.16051,0.01764 0.07585,0.01587 0.141108,0.04586 l -0.05292,0.123469 q -0.05997,-0.02469 -0.125234,-0.04233 -0.06526,-0.01764 -0.134052,-0.01764 -0.09525,0 -0.1464,0.03175 -0.04939,0.02998 -0.04939,0.0829 0,0.0388 0.02293,0.06703 0.02293,0.02646 0.07584,0.05292 0.05468,0.02469 0.144636,0.05997 0.08996,0.03351 0.153455,0.06879 0.0635,0.03528 0.09701,0.08643 0.03351,0.04939 0.03351,0.125233 z"
     id="text1"
     style="font-size:1.76385px;text-align:center;text-anchor:middle;fill:#999999;stroke-width:0.132289;stroke-opacity:0.6"
     aria-label="Report Bugs" />
</svg>
