<?xml version="1.0" encoding="UTF-8" standalone="no"?>
<svg
   width="64"
   height="64"
   version="1.1"
   viewBox="0 0 16.933 16.933"
   id="svg7"
   sodipodi:docname="Multimedia Template.svg"
   inkscape:version="1.4 (e7c3feb100, 2024-10-09)"
   xmlns:inkscape="http://www.inkscape.org/namespaces/inkscape"
   xmlns:sodipodi="http://sodipodi.sourceforge.net/DTD/sodipodi-0.dtd"
   xmlns:xlink="http://www.w3.org/1999/xlink"
   xmlns="http://www.w3.org/2000/svg"
   xmlns:svg="http://www.w3.org/2000/svg"
   xmlns:rdf="http://www.w3.org/1999/02/22-rdf-syntax-ns#"
   xmlns:cc="http://creativecommons.org/ns#"
   xmlns:dc="http://purl.org/dc/elements/1.1/">
  <sodipodi:namedview
     id="namedview7"
     pagecolor="#9c4444"
     bordercolor="#000000"
     borderopacity="0.25"
     inkscape:showpageshadow="2"
     inkscape:pageopacity="0.0"
     inkscape:pagecheckerboard="0"
     inkscape:deskcolor="#d1d1d1"
     inkscape:zoom="6.15625"
     inkscape:cx="15.675127"
     inkscape:cy="29.807107"
     inkscape:window-width="1183"
     inkscape:window-height="973"
     inkscape:window-x="35"
     inkscape:window-y="32"
     inkscape:window-maximized="0"
     inkscape:current-layer="svg7"
     showgrid="false" />
  <defs
     id="defs2">
    <rect
       x="67.489848"
       y="35.60533"
       width="15.337563"
       height="22.51269"
       id="rect3808" />
    <linearGradient
       inkscape:collect="always"
       id="linearGradient1134">
      <stop
         style="stop-color:#161616;stop-opacity:1;"
         offset="0"
         id="stop1130" />
      <stop
         style="stop-color:#404040;stop-opacity:1;"
         offset="1"
         id="stop1132" />
    </linearGradient>
    <linearGradient
       inkscape:collect="always"
       id="linearGradient883">
      <stop
         style="stop-color:#808080;stop-opacity:1;"
         offset="0"
         id="stop879" />
      <stop
         style="stop-color:#3e3e3e;stop-opacity:1;"
         offset="0.5"
         id="stop1216" />
      <stop
         style="stop-color:#242424;stop-opacity:1;"
         offset="1"
         id="stop881" />
    </linearGradient>
    <linearGradient
       inkscape:collect="always"
       xlink:href="#linearGradient883"
       id="linearGradient885"
       x1="2.1085808"
       y1="2.0236168"
       x2="14.846128"
       y2="15.071845"
       gradientUnits="userSpaceOnUse" />
    <linearGradient
       inkscape:collect="always"
       xlink:href="#linearGradient1134"
       id="linearGradient1136"
       x1="14.971222"
       y1="14.703373"
       x2="2.0756054"
       y2="2.0069976"
       gradientUnits="userSpaceOnUse" />
    <filter
       style="color-interpolation-filters:sRGB;"
       inkscape:label="Blur"
       id="filter1283"
       x="-0.082344266"
       y="-0.082344266"
       width="1.1646885"
       height="1.1646885">
      <feGaussianBlur
         stdDeviation="0.5 0.5"
         result="blur"
         id="feGaussianBlur1281" />
    </filter>
    <filter
       style="color-interpolation-filters:sRGB;"
       inkscape:label="Blur"
       id="filter1694"
       x="-0.94955398"
       y="-0.2118907"
       width="2.899108"
       height="1.4237814">
      <feGaussianBlur
         stdDeviation="0.2 0.2"
         result="blur"
         id="feGaussianBlur1692" />
    </filter>
    <filter
       style="color-interpolation-filters:sRGB;"
       inkscape:label="Blur"
       id="filter3148"
       x="-0.94955398"
       y="-0.2118907"
       width="2.899108"
       height="1.4237814">
      <feGaussianBlur
         stdDeviation="0.2 0.2"
         result="blur"
         id="feGaussianBlur3146" />
    </filter>
    <clipPath
       clipPathUnits="userSpaceOnUse"
       id="clipPath44">
      <path
         id="path46"
         style="display:block;opacity:0.85;fill:#f2f2f2;stroke-width:4.39162"
         d="m 17.570312,8.4453125 a 6.5431988,7.4283052 9.9958727e-8 0 0 -6.535156,7.4394535 6.5431988,7.4283052 9.9958727e-8 0 0 6.552735,7.417968 6.5431988,7.4283052 9.9958727e-8 0 0 6.535156,-7.4375 6.5431988,7.4283052 9.9958727e-8 0 0 -6.552735,-7.4199215 z M 45.646484,41.177734 a 6.5431986,7.0703472 2.4665357e-6 0 0 -6.533203,7.080078 6.5431986,7.0703472 2.4665357e-6 0 0 6.550781,7.060547 6.5431986,7.0703472 2.4665357e-6 0 0 6.535157,-7.080078 6.5431986,7.0703472 2.4665357e-6 0 0 -6.552735,-7.060547 z" />
    </clipPath>
    <inkscape:path-effect
       effect="powerclip"
       id="path-effect48"
       is_visible="true"
       lpeversion="1"
       inverse="true"
       flatten="false"
       hide_clip="false"
       message="" />
    <clipPath
       clipPathUnits="userSpaceOnUse"
       id="clipPath676">
      <path
         id="path678"
         d="m 189.32699,134.40316 c 0,-14.52214 11.86852,-26.39066 26.39065,-26.39066 h 80.56472 c 14.52214,0 26.39066,11.86852 26.39066,26.39066 v 91.67093 c 0,14.52214 -11.86852,26.35495 -26.39066,26.35495 h -80.56472 c -14.52213,0 -26.39065,-11.83281 -26.39065,-26.35495 z"
         style="color:#000000;font-style:normal;font-variant:normal;font-weight:normal;font-stretch:normal;font-size:medium;line-height:normal;font-family:Sans;-inkscape-font-specification:Sans;text-indent:0;text-align:start;text-decoration:none;text-decoration-line:none;letter-spacing:normal;word-spacing:normal;text-transform:none;writing-mode:lr-tb;direction:ltr;baseline-shift:baseline;text-anchor:start;display:block;overflow:visible;visibility:visible;fill:url(#linearGradient680);fill-opacity:1;fill-rule:nonzero;stroke:none;stroke-width:11.1102;marker:none;enable-background:accumulate"
         inkscape:connector-curvature="0" />
    </clipPath>
    <inkscape:path-effect
       effect="powerclip"
       id="path-effect682"
       is_visible="true"
       lpeversion="1"
       inverse="true"
       flatten="false"
       hide_clip="false"
       message="" />
  </defs>
  <metadata
     id="metadata2">
    <rdf:RDF>
      <cc:Work
         rdf:about="">
        <dc:format>image/svg+xml</dc:format>
        <dc:type
           rdf:resource="http://purl.org/dc/dcmitype/StillImage" />
      </cc:Work>
    </rdf:RDF>
  </metadata>
  <rect
     style="fill:#000000;stroke:none;stroke-width:0.539739;stroke-dasharray:none;filter:url(#filter1283)"
     id="rect246-1"
     width="14.572964"
     height="14.572964"
     x="1.1932471"
     y="1.2138842"
     rx="2.1589575"
     ry="2.1589575" />
  <rect
     style="opacity:1;fill:#000000;stroke:url(#linearGradient885);stroke-width:0.52915625;stroke-dasharray:none"
     id="rect246"
     width="14.287219"
     height="14.287219"
     x="1.3361193"
     y="1.3567564"
     rx="2.1166251"
     ry="2.1166251" />
  <rect
     style="fill:url(#linearGradient1136);fill-opacity:1;stroke:none;stroke-width:0.478315;stroke-dasharray:none"
     id="rect246-5"
     width="12.914515"
     height="12.914515"
     x="2.0224717"
     y="2.0431087"
     rx="1.5874687"
     ry="1.5874687" />
  <path
     style="fill:#999999;fill-opacity:1;stroke-width:0.190983"
     d="m 10.716334,4.7726543 c -0.8012267,0 -1.4267434,0.5235517 -1.4267434,1.2107572 7.58e-5,0.2945178 0.6114623,0.2945178 0.6114623,0 0,-0.3926876 0.2115741,-0.6738858 0.8152811,-0.6738858 0.603707,0 0.815281,0.2811982 0.815281,0.6738858 0,0.2945178 0.611462,0.2945178 0.611462,0 0,-0.6872055 -0.625505,-1.2107572 -1.426743,-1.2107572 z m 0,0.894786 c -0.225231,0 -0.40764,0.1596206 -0.40764,0.3568656 0,0.1972329 0.182409,0.3572152 0.40764,0.3572152 0.225231,0 0.407641,-0.1599823 0.407641,-0.3572152 0,-0.197245 -0.18241,-0.3568656 -0.407641,-0.3568656 z M 8.4743088,6.5622259 c -0.4235055,0 -0.9226857,0.2245667 -1.1532572,0.5047153 C 7.0904919,6.7867924 6.655789,6.5978775 6.2322844,6.5978775 c -0.6997718,0 -1.4267432,0.3772908 -1.4267432,1.4138316 V 9.719492 c 0,0 3.08e-5,0.2429211 0.2822435,0.2429211 0.282213,0 0.3292177,-0.2429211 0.3292177,-0.2429211 V 8.0117091 c -2.482e-4,-0.7877552 0.3827968,-0.9126116 0.815282,-0.9126116 0.4324842,0 0.8152817,0.2407415 0.8152817,0.7738498 V 9.719492 c 0,0 0.015555,0.2429211 0.297769,0.2429211 0.282213,0 0.3136923,-0.2429211 0.3136923,-0.2429211 V 7.8729473 c 0,-0.5331083 0.3827974,-0.7738498 0.8152814,-0.7738498 0.274568,0 0.8081165,0.032008 0.8081165,0.7738498 l 0.016321,0.6301948 c 0,1.1649076 0.8512927,1.459271 1.4175867,1.459271 0.566295,0 1.409439,-0.3436559 1.426743,-1.3743361 V 6.957889 c 0,-0.2837079 -0.611462,-0.2837079 -0.611462,0 v 1.6057213 c 0,0.7818932 -0.532134,0.8619301 -0.815281,0.8619301 -0.283148,0 -0.814485,-0.030391 -0.814485,-0.9465153 L 9.8855216,7.9068513 c 0,-0.8835881 -0.6917007,-1.3446254 -1.4112174,-1.3446254 z"
     id="path8" />
  <g
     aria-label="Krita"
     id="text1450"
     style="font-size:1.76385px;opacity:1;fill:#ff7f2a;stroke-width:0.529156">
    <rect
       style="font-size:1.76385px;fill:#ff7f2a;fill-opacity:1;stroke:none;stroke-width:0.519976;stroke-dasharray:none;filter:url(#filter3148)"
       id="rect1656-3"
       width="0.5055005"
       height="2.2653189"
       x="15.369148"
       y="4.3016486"
       rx="0"
       ry="0" />
    <rect
       style="opacity:1;fill:#ff7f2a;fill-opacity:1;stroke:none;stroke-width:0.519976;stroke-dasharray:none"
       id="rect1656"
       width="0.5055005"
       height="2.2653189"
       x="15.369148"
       y="4.3016486"
       rx="0"
       ry="0" />
  </g>
  <path
     style="font-size:1.76385px;text-align:center;text-anchor:middle;fill:#999999;stroke-width:0.529156"
     d="m 4.4662593,14.179017 -0.4145048,-1.10417 h -0.00706 q 0.00529,0.05468 0.00882,0.148163 0.00353,0.09172 0.00353,0.19226 v 0.763747 H 3.9106465 v -1.259389 h 0.2345921 l 0.3880469,1.031852 h 0.00706 l 0.3951024,-1.031852 h 0.2328282 v 1.259389 H 5.0112889 v -0.77433 q 0,-0.09172 0.00353,-0.181677 0.00529,-0.08996 0.00882,-0.146399 h -0.00706 l -0.4197963,1.102406 z m 1.813237,-0.945424 v 0.945424 H 6.1524991 l -0.02293,-0.125233 h -0.00706 q -0.04586,0.07408 -0.1269972,0.109358 -0.081137,0.03351 -0.1728572,0.03351 -0.1710935,0 -0.2575221,-0.08114 -0.086429,-0.0829 -0.086429,-0.262813 v -0.619112 h 0.1569827 v 0.608529 q 0,0.225773 0.2098981,0.225773 0.1569826,0 0.2169535,-0.08819 0.061735,-0.08819 0.061735,-0.253994 v -0.492115 z m 0.915438,0.684374 q 0,0.137581 -0.1023033,0.208135 -0.1023033,0.07055 -0.2751606,0.07055 -0.098776,0 -0.1710934,-0.01588 -0.070554,-0.01587 -0.1252334,-0.0441 v -0.141108 q 0.056443,0.02822 0.1358165,0.05291 0.081137,0.02293 0.164038,0.02293 0.118178,0 0.1710935,-0.03704 0.052916,-0.0388 0.052916,-0.102303 0,-0.03528 -0.019402,-0.0635 -0.019402,-0.02822 -0.070554,-0.05644 -0.049388,-0.02822 -0.1428718,-0.0635 -0.09172,-0.03528 -0.1569827,-0.07055 -0.065262,-0.03528 -0.1005394,-0.08466 -0.035277,-0.04939 -0.035277,-0.126997 0,-0.119942 0.097012,-0.185205 0.098776,-0.06526 0.2575221,-0.06526 0.086429,0 0.1605104,0.01764 0.075846,0.01587 0.141108,0.04586 l -0.052915,0.123469 q -0.059971,-0.02469 -0.1252334,-0.04233 -0.065262,-0.01764 -0.1340526,-0.01764 -0.095248,0 -0.1463995,0.03175 -0.049388,0.02999 -0.049388,0.0829 0,0.0388 0.02293,0.06703 0.02293,0.02646 0.075846,0.05292 0.054679,0.02469 0.1446357,0.05997 0.089956,0.03351 0.1534549,0.06879 0.063499,0.03528 0.097012,0.08643 0.033513,0.04939 0.033513,0.125233 z M 7.789352,13.215955 q 0.1217057,0 0.2081343,0.05292 0.088192,0.05292 0.1340526,0.149928 0.047624,0.09525 0.047624,0.224009 v 0.09348 h -0.647333 q 0.00353,0.16051 0.081137,0.245175 0.079373,0.0829 0.2204813,0.0829 0.089956,0 0.1587465,-0.01588 0.070554,-0.01764 0.1446357,-0.04939 v 0.135817 q -0.072318,0.03175 -0.1428719,0.04586 -0.070554,0.01588 -0.1675657,0.01588 -0.1340526,0 -0.2381198,-0.05468 -0.1023033,-0.05468 -0.1605103,-0.162274 -0.056443,-0.109359 -0.056443,-0.266341 0,-0.155219 0.051152,-0.266342 0.052915,-0.111122 0.1463996,-0.171093 0.095248,-0.05997 0.2204812,-0.05997 z m -0.00176,0.126997 q -0.1111226,0 -0.176385,0.07232 -0.063499,0.07055 -0.075846,0.197551 h 0.4815311 q -0.00176,-0.119942 -0.056443,-0.194023 -0.054679,-0.07585 -0.1728573,-0.07585 z m 1.3669824,0.49917 q 0,0.167565 -0.1217056,0.26105 -0.1217057,0.09348 -0.3280761,0.09348 -0.105831,0 -0.1957874,-0.01588 -0.089956,-0.01587 -0.1499272,-0.0441 v -0.151691 q 0.063499,0.02822 0.1569826,0.05115 0.095248,0.02293 0.1957874,0.02293 0.141108,0 0.211662,-0.05468 0.072318,-0.05468 0.072318,-0.148163 0,-0.06173 -0.026458,-0.104068 -0.026458,-0.04233 -0.09172,-0.07761 -0.063499,-0.03704 -0.1781489,-0.07761 Q 8.538987,13.53874 8.456086,13.454075 8.3749489,13.36941 8.3749489,13.22301 q 0,-0.100539 0.051152,-0.171093 0.051152,-0.07232 0.141108,-0.111123 0.09172,-0.0388 0.2098981,-0.0388 0.1040672,0 0.1904958,0.0194 0.086429,0.0194 0.1569827,0.05115 l -0.049388,0.135816 q -0.065263,-0.02822 -0.1428719,-0.04762 -0.075845,-0.0194 -0.1587465,-0.0194 -0.1181779,0 -0.1781488,0.05115 -0.059971,0.04939 -0.059971,0.132289 0,0.0635 0.026458,0.105831 0.026458,0.04233 0.086429,0.07585 0.059971,0.03351 0.1622742,0.07232 0.1111225,0.04057 0.1869681,0.08819 0.077609,0.04586 0.1164141,0.111123 0.040568,0.06526 0.040568,0.164038 z m 0.6120556,0.354534 q -0.1252334,0 -0.224009,-0.05115 -0.097012,-0.05115 -0.1534549,-0.158747 -0.054679,-0.107594 -0.054679,-0.27516 0,-0.174621 0.058207,-0.28398 0.058207,-0.109359 0.1569826,-0.16051 0.1005395,-0.05115 0.2275367,-0.05115 0.072318,0 0.1393441,0.01588 0.067026,0.01411 0.1093586,0.03528 l -0.047624,0.128761 q -0.042332,-0.01587 -0.098776,-0.02999 -0.056443,-0.01411 -0.105831,-0.01411 -0.2786883,0 -0.2786883,0.358062 0,0.171093 0.067026,0.262814 0.06879,0.08996 0.2028427,0.08996 0.077609,0 0.1358165,-0.01587 0.059971,-0.01587 0.1093582,-0.0388 v 0.13758 q -0.047624,0.02469 -0.1058305,0.03704 -0.056443,0.01411 -0.1375803,0.01411 z M 11.056,13.704541 q 0,0.234592 -0.119942,0.363354 -0.118178,0.128761 -0.321021,0.128761 -0.125233,0 -0.224009,-0.05644 -0.09701,-0.05821 -0.153455,-0.167565 -0.05644,-0.111123 -0.05644,-0.268106 0,-0.234592 0.118178,-0.361589 0.118178,-0.126997 0.321021,-0.126997 0.128761,0 0.225773,0.05821 0.09877,0.05644 0.153455,0.165802 0.05644,0.107595 0.05644,0.264577 z m -0.714359,0 q 0,0.167566 0.06526,0.266342 0.06703,0.09701 0.211662,0.09701 0.142872,0 0.209898,-0.09701 0.06703,-0.09878 0.06703,-0.266342 0,-0.167565 -0.06703,-0.262813 -0.06703,-0.09525 -0.211662,-0.09525 -0.144636,0 -0.209898,0.09525 -0.06526,0.09525 -0.06526,0.262813 z m 1.400495,-0.488586 q 0.02646,0 0.05644,0.0035 0.03175,0.0018 0.05468,0.0071 l -0.0194,0.142872 q -0.02293,-0.0053 -0.05115,-0.0088 -0.02646,-0.0035 -0.05115,-0.0035 -0.07232,0 -0.135816,0.04057 -0.0635,0.0388 -0.102303,0.111122 -0.03704,0.07055 -0.03704,0.165802 v 0.504461 h -0.155219 v -0.945424 h 0.126997 l 0.01764,0.172858 h 0.0071 q 0.04586,-0.07761 0.118178,-0.134053 0.07232,-0.05644 0.171093,-0.05644 z m 0.617347,0 q 0.121706,0 0.208135,0.05292 0.08819,0.05292 0.134052,0.149928 0.04762,0.09525 0.04762,0.224009 v 0.09348 h -0.647333 q 0.0035,0.16051 0.08114,0.245175 0.07937,0.0829 0.220482,0.0829 0.08996,0 0.158746,-0.01588 0.07055,-0.01764 0.144636,-0.04939 v 0.135817 q -0.07232,0.03175 -0.142872,0.04586 -0.07055,0.01588 -0.167566,0.01588 -0.134052,0 -0.23812,-0.05468 -0.102303,-0.05468 -0.16051,-0.162274 -0.05644,-0.109359 -0.05644,-0.266341 0,-0.155219 0.05115,-0.266342 0.05291,-0.111122 0.146399,-0.171093 0.09525,-0.05997 0.220481,-0.05997 z m -0.0018,0.126997 q -0.111122,0 -0.176385,0.07232 -0.0635,0.07055 -0.07584,0.197551 h 0.481531 q -0.0018,-0.119942 -0.05644,-0.194023 -0.05468,-0.07585 -0.172858,-0.07585 z"
     id="text2284"
     aria-label="MuseScore" />
  <text
     xml:space="preserve"
     transform="scale(0.26457812)"
     id="text3806"
     style="font-size:6.66667px;white-space:pre;shape-inside:url(#rect3808);display:inline;fill:#999999;stroke-width:2" />
</svg>
