<?xml version="1.0" encoding="UTF-8" standalone="no"?>
<svg
   width="64"
   height="64"
   version="1.1"
   viewBox="0 0 16.933 16.933"
   id="svg7"
   sodipodi:docname="Games Templates.svg"
   inkscape:version="1.4 (e7c3feb100, 2024-10-09)"
   xmlns:inkscape="http://www.inkscape.org/namespaces/inkscape"
   xmlns:sodipodi="http://sodipodi.sourceforge.net/DTD/sodipodi-0.dtd"
   xmlns:xlink="http://www.w3.org/1999/xlink"
   xmlns="http://www.w3.org/2000/svg"
   xmlns:svg="http://www.w3.org/2000/svg"
   xmlns:rdf="http://www.w3.org/1999/02/22-rdf-syntax-ns#"
   xmlns:cc="http://creativecommons.org/ns#"
   xmlns:dc="http://purl.org/dc/elements/1.1/">
  <sodipodi:namedview
     id="namedview7"
     pagecolor="#9c4444"
     bordercolor="#000000"
     borderopacity="0.25"
     inkscape:showpageshadow="2"
     inkscape:pageopacity="0.0"
     inkscape:pagecheckerboard="0"
     inkscape:deskcolor="#d1d1d1"
     inkscape:zoom="6.15625"
     inkscape:cx="15.675127"
     inkscape:cy="27.370558"
     inkscape:window-width="1183"
     inkscape:window-height="973"
     inkscape:window-x="35"
     inkscape:window-y="32"
     inkscape:window-maximized="0"
     inkscape:current-layer="svg7"
     showgrid="false" />
  <defs
     id="defs2">
    <linearGradient
       inkscape:collect="always"
       id="linearGradient1134">
      <stop
         style="stop-color:#161616;stop-opacity:1;"
         offset="0"
         id="stop1130" />
      <stop
         style="stop-color:#404040;stop-opacity:1;"
         offset="1"
         id="stop1132" />
    </linearGradient>
    <linearGradient
       inkscape:collect="always"
       id="linearGradient883">
      <stop
         style="stop-color:#808080;stop-opacity:1;"
         offset="0"
         id="stop879" />
      <stop
         style="stop-color:#3e3e3e;stop-opacity:1;"
         offset="0.5"
         id="stop1216" />
      <stop
         style="stop-color:#242424;stop-opacity:1;"
         offset="1"
         id="stop881" />
    </linearGradient>
    <linearGradient
       inkscape:collect="always"
       xlink:href="#linearGradient883"
       id="linearGradient885"
       x1="2.1085808"
       y1="2.0236168"
       x2="14.846128"
       y2="15.071845"
       gradientUnits="userSpaceOnUse" />
    <linearGradient
       inkscape:collect="always"
       xlink:href="#linearGradient1134"
       id="linearGradient1136"
       x1="14.971222"
       y1="14.703373"
       x2="2.0756054"
       y2="2.0069976"
       gradientUnits="userSpaceOnUse" />
    <filter
       style="color-interpolation-filters:sRGB;"
       inkscape:label="Blur"
       id="filter1283"
       x="-0.082344266"
       y="-0.082344266"
       width="1.1646885"
       height="1.1646885">
      <feGaussianBlur
         stdDeviation="0.5 0.5"
         result="blur"
         id="feGaussianBlur1281" />
    </filter>
    <filter
       style="color-interpolation-filters:sRGB;"
       inkscape:label="Blur"
       id="filter1694"
       x="-0.94955398"
       y="-0.2118907"
       width="2.899108"
       height="1.4237814">
      <feGaussianBlur
         stdDeviation="0.2 0.2"
         result="blur"
         id="feGaussianBlur1692" />
    </filter>
    <clipPath
       clipPathUnits="userSpaceOnUse"
       id="clipath_lpe_path-effect13-7">
      <circle
         style="display:none;fill:#e6e6e6"
         cx="29.999001"
         cy="30"
         r="18"
         id="circle1" />
    </clipPath>
    <inkscape:path-effect
       effect="powerclip"
       id="path-effect13-7"
       is_visible="true"
       lpeversion="1"
       inverse="true"
       flatten="false"
       hide_clip="false"
       message="" />
  </defs>
  <metadata
     id="metadata2">
    <rdf:RDF>
      <cc:Work
         rdf:about="">
        <dc:format>image/svg+xml</dc:format>
        <dc:type
           rdf:resource="http://purl.org/dc/dcmitype/StillImage" />
      </cc:Work>
    </rdf:RDF>
  </metadata>
  <rect
     style="fill:#000000;stroke:none;stroke-width:0.539739;stroke-dasharray:none;filter:url(#filter1283)"
     id="rect246-1"
     width="14.572964"
     height="14.572964"
     x="1.1932471"
     y="1.2138842"
     rx="2.1589575"
     ry="2.1589575" />
  <rect
     style="opacity:1;fill:#000000;stroke:url(#linearGradient885);stroke-width:0.52915625;stroke-dasharray:none"
     id="rect246"
     width="14.287219"
     height="14.287219"
     x="1.3361193"
     y="1.3567564"
     rx="2.1166251"
     ry="2.1166251" />
  <rect
     style="fill:url(#linearGradient1136);fill-opacity:1;stroke:none;stroke-width:0.478315;stroke-dasharray:none"
     id="rect246-5"
     width="12.914515"
     height="12.914515"
     x="2.0224717"
     y="2.0431087"
     rx="1.5874687"
     ry="1.5874687" />
  <g
     id="g7"
     transform="matrix(0.17358971,0,0,0.17358971,2.8666181,1.8533168)"
     style="fill:#999999;fill-opacity:1">
    <path
       style="fill:#999999;fill-opacity:1"
       d="M 31.777778,15 C 22.204842,15 13,22.61116 13,32 13,41.38884 22.204842,49 31.777778,49 34.272032,48.9938 36.735524,48.459512 39,47.433918 v -8.5083 c -1.899302,1.909046 -4.502644,2.987206 -7.222222,2.991048 -5.584212,0 -11.555556,-4.439842 -11.555556,-9.916666 0,-5.476824 5.971344,-9.916666 11.555556,-9.916666 2.717932,9.3e-4 5.321036,1.075006 7.222222,2.97998 V 16.568848 C 36.735738,15.542303 34.272242,15.007168 31.777778,15 Z"
       id="path3-6" />
    <path
       style="fill:#999999;fill-opacity:1"
       d="m 39,25.063314 h 14.5 l -5.8,6 H 39 Z"
       id="path4" />
    <path
       style="fill:#999999;fill-opacity:1"
       d="M 39,39 H 53.5 L 47.7,33 H 39 Z"
       id="path5" />
  </g>
  <g
     aria-label="Krita"
     id="text1450"
     style="font-size:1.76385px;opacity:1;fill:#ff00ff;stroke-width:0.529156">
    <rect
       style="font-size:1.76385px;fill:#ff00ff;fill-opacity:1;stroke:none;stroke-width:0.519976;stroke-dasharray:none;filter:url(#filter1694)"
       id="rect1656-7"
       width="0.5055005"
       height="2.2653189"
       x="15.369148"
       y="4.3016486"
       rx="0"
       ry="0" />
    <rect
       style="opacity:1;fill:#ff00ff;fill-opacity:1;stroke:none;stroke-width:0.519976;stroke-dasharray:none"
       id="rect1656"
       width="0.5055005"
       height="2.2653189"
       x="15.369148"
       y="4.3016486"
       rx="0"
       ry="0" />
  </g>
  <path
     d="M 7.8044129,12.923073 7.3546312,14.182462 H 7.1958847 L 6.7461029,12.923073 h 0.1658019 l 0.2839799,0.807843 q 0.028222,0.07761 0.047624,0.1464 0.019402,0.06703 0.031749,0.128761 0.012347,-0.06173 0.031749,-0.130525 0.019402,-0.06879 0.047624,-0.148164 l 0.282216,-0.804315 z m 0.2293012,-0.04057 q 0.035277,0 0.061735,0.02469 0.028222,0.02293 0.028222,0.07408 0,0.04939 -0.028222,0.07408 -0.026458,0.02469 -0.061735,0.02469 -0.038805,0 -0.065262,-0.02469 -0.026458,-0.02469 -0.026458,-0.07408 0,-0.05115 0.026458,-0.07408 0.026458,-0.02469 0.065262,-0.02469 z m 0.075846,0.354534 v 0.945424 H 7.9543408 V 13.237038 Z M 8.7886408,14.2001 q -0.1252333,0 -0.2240089,-0.05115 -0.097012,-0.05115 -0.153455,-0.158747 -0.054679,-0.107595 -0.054679,-0.275161 0,-0.174621 0.058207,-0.283979 0.058207,-0.109359 0.1569827,-0.160511 0.1005394,-0.05115 0.2275366,-0.05115 0.072318,0 0.1393442,0.01587 0.067026,0.01411 0.1093587,0.03528 l -0.047624,0.128761 q -0.042332,-0.01587 -0.098776,-0.02998 -0.056443,-0.01411 -0.105831,-0.01411 -0.2786883,0 -0.2786883,0.358062 0,0.171093 0.067026,0.262813 0.06879,0.08996 0.2028428,0.08996 0.077609,0 0.1358164,-0.01588 0.059971,-0.01587 0.1093587,-0.0388 v 0.137581 q -0.047624,0.02469 -0.105831,0.03704 -0.056443,0.01411 -0.1375803,0.01411 z m 0.8325365,-0.9807 q 0.1217056,0 0.2081343,0.05292 0.088192,0.05292 0.1340526,0.149927 0.047624,0.09525 0.047624,0.224009 v 0.09348 H 9.3636552 q 0.00353,0.160511 0.081137,0.245176 0.079373,0.0829 0.2204812,0.0829 0.089956,0 0.1587465,-0.01587 0.070554,-0.01764 0.1446357,-0.04939 v 0.135816 q -0.072318,0.03175 -0.1428718,0.04586 -0.070554,0.01587 -0.1675658,0.01587 -0.1340526,0 -0.2381197,-0.05468 -0.1023033,-0.05468 -0.1605103,-0.162274 -0.056443,-0.109359 -0.056443,-0.266342 0,-0.155218 0.051152,-0.266341 0.052915,-0.111123 0.1463995,-0.171093 0.095248,-0.05997 0.2204813,-0.05997 z m -0.00176,0.126997 q -0.1111225,0 -0.176385,0.07232 -0.063499,0.07055 -0.075845,0.197551 h 0.481531 q -0.00176,-0.119942 -0.056443,-0.194024 -0.054679,-0.07585 -0.1728573,-0.07585 z"
     id="text3"
     style="font-size:1.76385px;text-align:center;text-anchor:middle;fill:#999999;stroke-width:0.264578"
     aria-label="Vice" />
</svg>
