<?xml version="1.0" encoding="UTF-8" standalone="no"?>
<svg
   width="64"
   height="64"
   version="1.1"
   viewBox="0 0 16.933 16.933"
   id="svg7"
   sodipodi:docname="net.worldofpadman.WoP.svg"
   inkscape:version="1.4 (e7c3feb100, 2024-10-09)"
   xmlns:inkscape="http://www.inkscape.org/namespaces/inkscape"
   xmlns:sodipodi="http://sodipodi.sourceforge.net/DTD/sodipodi-0.dtd"
   xmlns:xlink="http://www.w3.org/1999/xlink"
   xmlns="http://www.w3.org/2000/svg"
   xmlns:svg="http://www.w3.org/2000/svg"
   xmlns:rdf="http://www.w3.org/1999/02/22-rdf-syntax-ns#"
   xmlns:cc="http://creativecommons.org/ns#"
   xmlns:dc="http://purl.org/dc/elements/1.1/">
  <sodipodi:namedview
     id="namedview7"
     pagecolor="#9c4444"
     bordercolor="#000000"
     borderopacity="0.25"
     inkscape:showpageshadow="2"
     inkscape:pageopacity="0.0"
     inkscape:pagecheckerboard="0"
     inkscape:deskcolor="#d1d1d1"
     inkscape:zoom="6.15625"
     inkscape:cx="31.106599"
     inkscape:cy="27.370558"
     inkscape:window-width="1183"
     inkscape:window-height="940"
     inkscape:window-x="35"
     inkscape:window-y="32"
     inkscape:window-maximized="0"
     inkscape:current-layer="svg7"
     showgrid="false" />
  <defs
     id="defs2">
    <linearGradient
       inkscape:collect="always"
       id="linearGradient1134">
      <stop
         style="stop-color:#161616;stop-opacity:1;"
         offset="0"
         id="stop1130" />
      <stop
         style="stop-color:#404040;stop-opacity:1;"
         offset="1"
         id="stop1132" />
    </linearGradient>
    <linearGradient
       inkscape:collect="always"
       id="linearGradient883">
      <stop
         style="stop-color:#808080;stop-opacity:1;"
         offset="0"
         id="stop879" />
      <stop
         style="stop-color:#3e3e3e;stop-opacity:1;"
         offset="0.5"
         id="stop1216" />
      <stop
         style="stop-color:#242424;stop-opacity:1;"
         offset="1"
         id="stop881" />
    </linearGradient>
    <linearGradient
       inkscape:collect="always"
       xlink:href="#linearGradient883"
       id="linearGradient885"
       x1="2.1085808"
       y1="2.0236168"
       x2="14.846128"
       y2="15.071845"
       gradientUnits="userSpaceOnUse" />
    <linearGradient
       inkscape:collect="always"
       xlink:href="#linearGradient1134"
       id="linearGradient1136"
       x1="14.971222"
       y1="14.703373"
       x2="2.0756054"
       y2="2.0069976"
       gradientUnits="userSpaceOnUse" />
    <filter
       style="color-interpolation-filters:sRGB;"
       inkscape:label="Blur"
       id="filter1283"
       x="-0.082344266"
       y="-0.082344266"
       width="1.1646885"
       height="1.1646885">
      <feGaussianBlur
         stdDeviation="0.5 0.5"
         result="blur"
         id="feGaussianBlur1281" />
    </filter>
    <filter
       style="color-interpolation-filters:sRGB;"
       inkscape:label="Blur"
       id="filter1694"
       x="-0.94955398"
       y="-0.2118907"
       width="2.899108"
       height="1.4237814">
      <feGaussianBlur
         stdDeviation="0.2 0.2"
         result="blur"
         id="feGaussianBlur1692" />
    </filter>
    <clipPath
       clipPathUnits="userSpaceOnUse"
       id="clipath_lpe_path-effect13-7">
      <circle
         style="display:none;fill:#e6e6e6"
         cx="29.999001"
         cy="30"
         r="18"
         id="circle1" />
    </clipPath>
    <inkscape:path-effect
       effect="powerclip"
       id="path-effect13-7"
       is_visible="true"
       lpeversion="1"
       inverse="true"
       flatten="false"
       hide_clip="false"
       message="" />
    <clipPath
       clipPathUnits="userSpaceOnUse"
       id="clipPath16">
      <g
         id="g24"
         style="display:block">
        <path
           style="opacity:0.85;fill:#ffffff"
           d="m 14.451038,1029.43 -1.304681,-1.9316 -1.186255,-0.6724 c -0.663352,-0.3762 -1.174039,-0.7034 -1.158542,-0.743 0.01524,-0.038 0.653397,-1.0172 1.418124,-2.1746 0.764726,-1.1574 1.378917,-2.138 1.364866,-2.1792 -0.01406,-0.042 -0.05275,-0.076 -0.08598,-0.076 -0.03325,0 -0.479977,0.2604 -0.992745,0.5784 -1.210858,0.7512 -2.9427035,1.8074 -3.3212471,2.0258 -0.2640458,0.152 -0.3015498,0.16 -0.3305804,0.066 -0.01802,-0.058 -0.2175258,-1.0874 -0.4433704,-2.2884 l -0.4106272,-2.1834 0.468897,-2.609 c 0.257894,-1.4354 0.5090238,-2.832 0.5580676,-3.104 0.084698,-0.4698 0.166894,-0.6298 1.6395035,-3.1848 l 1.550334,-2.69 2.371445,-1.1888 c 1.304295,-0.6538 2.392833,-1.1898 2.418972,-1.1904 0.175594,0 -0.07083,0.371 -0.887136,1.3562 -0.514062,0.6204 -1.038335,1.2572 -1.165052,1.4156 -0.18114,0.226 -0.371913,0.6782 -0.892408,2.1148 l -0.662016,1.8274 0.263833,1.6358 0.263833,1.6358 0.438476,0.409 c 0.241159,0.2248 0.544231,0.4982 0.673488,0.607 l 0.235015,0.198 0.532928,-0.2438 0.532928,-0.2438 0.03858,-0.3324 c 0.03088,-0.266 0.11964,-1.7456 0.124716,-2.0784 0.0012,-0.08 2.978442,-3.3722 3.077665,-3.405 0.03045,-0.02 0.599129,0.5446 1.263719,1.232 l 1.208348,1.2502 0.22988,0.9326 c 0.12644,0.5126 0.257288,1.0364 0.290792,1.1638 0.05094,0.194 0.13802,0.2824 0.531976,0.5418 l 0.47106,0.3104 0.367356,-0.6126 0.367358,-0.6124 0.0198,-1.291 0.0198,-1.2906 -1.157528,-1.8872 c -0.954432,-1.5558 -1.20026,-1.9138 -1.401088,-2.0398 -0.13398,-0.082 -1.095858,-0.7092 -2.137548,-1.3894 -1.841852,-1.203 -1.895173,-1.2434 -1.937139,-1.4728 -0.02375,-0.13 -0.03321,-0.2446 -0.02103,-0.2552 0.03029,-0.028 5.749883,1.2418 5.890871,1.3058 0.06204,0.028 1.065208,0.69 2.229268,1.4712 l 2.116466,1.4196 0.259062,0.7756 c 0.1425,0.4264 0.6072,1.816 1.03271,3.0876 l 0.773666,2.3122 -0.04266,1.3672 c -0.02346,0.7522 -0.05784,1.7152 -0.07644,2.1402 l -0.0338,0.7732 -0.797778,2.3498 -0.797774,2.35 -1.13284,1.1538 -1.132844,1.1536 -0.718944,1.4616 c -0.39542,0.8038 -0.732238,1.4744 -0.748486,1.4904 -0.0164,0.02 -0.78263,-1.2372 -1.703066,-2.785 l -1.673516,-2.8134 -0.946258,-0.309 -0.946258,-0.3086 -0.957628,0.7014 -0.957631,0.7014 -0.07635,0.3336 c -0.321508,1.4038 -1.436653,5.868 -1.465689,5.8674 -0.01998,-4e-4 -0.623459,-0.87 -1.341034,-1.9324 z"
           id="path18" />
        <path
           style="opacity:0.85;fill:#ffffff"
           d="m 42.712226,1005.3628 c -0.39073,0 -0.712222,0.02 -0.712222,0.04 0,0.022 0.233048,0.7664 0.515112,1.6546 0.526198,1.6564 0.556778,1.7886 0.620236,2.6308 0.02032,0.2704 0.04914,0.623 0.0657,0.7854 0.0166,0.162 0.18952,2.1978 0.383708,4.522 l 0.352166,4.2234 -0.24967,4.1614 -0.249674,4.1616 -0.720106,1.8642 C 42.322786,1030.4316 42,1031.2872 42,1031.3108 v 0 c 0,0.022 0.650404,-0.11 1.442838,-0.2932 1.278186,-0.2984 1.484496,-0.3294 1.829174,-0.2824 0.21369,0.028 1.31507,0.184 2.44941,0.3442 2.373532,0.3364 2.1336,0.3114 2.081472,0.226 -0.0226,-0.036 -0.386212,-1.152 -0.806832,-2.4776 l -0.764784,-2.4102 -0.07622,-1.8212 c -0.0423,-1.0008 -0.06678,-1.8234 -0.0552,-1.8374 0.0118,-0.02 0.631846,0.06 1.379764,0.158 l 1.361368,0.18 1.78975,-1.2508 1.789752,-1.2536 0.788436,-1.6464 0.791064,-1.6462 -0.10514,-2.335 -0.10514,-2.335 -0.693826,-1.7834 -0.696448,-1.7834 -1.508544,-0.9362 -1.51117,-0.9334 -2.052564,-0.13 -2.055192,-0.128 -1.923784,-0.7882 -1.926414,-0.7882 z m 7.563734,8.5088 0.735874,0.6698 c 0.404308,0.369 0.870654,0.7956 1.035482,0.9494 l 0.299604,0.2798 -0.1866,1.189 c -0.10196,0.6538 -0.19856,1.2112 -0.215504,1.24 -0.017,0.028 -0.537078,0.3638 -1.156372,0.7478 -1.248602,0.7746 -1.118198,0.7408 -2.20237,0.5758 l -0.701708,-0.108 0.0052,-1.4392 c 0.0052,-1.2098 0.14724,-3.6212 0.228646,-3.8738 0.014,-0.044 0.307322,-0.092 0.72536,-0.118 0.385928,-0.024 0.865874,-0.06 1.067018,-0.082 z"
           id="path20" />
        <path
           style="opacity:0.85;fill:#ffffff"
           d="m 35.708826,1011.359 c -0.05144,6e-4 -0.692122,0.3742 -1.422784,0.8306 l -1.329116,0.8306 -0.883542,1.7586 -0.883544,1.7562 -0.19492,3.2174 -0.19492,3.2148 0.964556,2.684 0.96709,2.6842 1.303798,1.3178 1.306328,1.315 1.384812,0.194 c 0.761258,0.104 1.387868,0.198 1.392402,0.198 0.0044,0 0.368606,-0.166 0.810128,-0.3744 0.441522,-0.2094 0.97137,-0.459 1.177218,-0.5536 l 0.374682,-0.172 0.678482,-1.1306 0.68101,-1.1306 0.478482,-2.3278 0.481012,-2.3276 -0.05318,-2.1152 -0.05062,-2.1176 -0.683544,-2.1432 c -0.37585,-1.18 -0.706634,-2.1856 -0.734178,-2.2356 -0.02756,-0.05 -0.587404,-0.6472 -1.243038,-1.3278 l -1.189874,-1.2382 -1.52152,-0.4024 c -0.836712,-0.2216 -1.563718,-0.4032 -1.61519,-0.4026 z m 2.126582,9.7776 c 0.02594,-0.02 0.437252,0.333 0.916458,0.764 l 0.873418,0.7846 0.09368,0.4228 c 0.05196,0.2322 0.15906,0.7338 0.237976,1.1154 l 0.1443,0.6922 -0.278478,1.2126 -0.278484,1.21 -0.873418,0.4436 -0.873414,0.4432 -0.774686,-0.2588 -0.777216,-0.2614 -0.4481,-1.3512 -0.450634,-1.3482 0.43038,-1.3948 c 0.236404,-0.7664 0.430076,-1.422 0.430378,-1.4588 4.74e-4,-0.052 1.394238,-0.9206 1.62785,-1.0152 z"
           id="path22" />
      </g>
    </clipPath>
    <inkscape:path-effect
       effect="powerclip"
       id="path-effect26"
       is_visible="true"
       lpeversion="1"
       inverse="true"
       flatten="false"
       hide_clip="false"
       message="" />
  </defs>
  <metadata
     id="metadata2">
    <rdf:RDF>
      <cc:Work
         rdf:about="">
        <dc:format>image/svg+xml</dc:format>
        <dc:type
           rdf:resource="http://purl.org/dc/dcmitype/StillImage" />
      </cc:Work>
    </rdf:RDF>
  </metadata>
  <rect
     style="fill:#000000;stroke:none;stroke-width:0.539739;stroke-dasharray:none;filter:url(#filter1283)"
     id="rect246-1"
     width="14.572964"
     height="14.572964"
     x="1.1932471"
     y="1.2138842"
     rx="2.1589575"
     ry="2.1589575" />
  <rect
     style="opacity:1;fill:#000000;stroke:url(#linearGradient885);stroke-width:0.52915625;stroke-dasharray:none"
     id="rect246"
     width="14.287219"
     height="14.287219"
     x="1.3361193"
     y="1.3567564"
     rx="2.1166251"
     ry="2.1166251" />
  <rect
     style="fill:url(#linearGradient1136);fill-opacity:1;stroke:none;stroke-width:0.478315;stroke-dasharray:none"
     id="rect246-5"
     width="12.914515"
     height="12.914515"
     x="2.0224717"
     y="2.0431087"
     rx="1.5874687"
     ry="1.5874687" />
  <path
     id="path1"
     style="fill:#999999;stroke-width:0.162437"
     d="M 30.359376 16.06836 L 27.931641 16.613282 L 25.501954 17.158203 L 23.66211 18.050782 L 21.822266 18.94336 L 20.169922 20.888672 C 19.261269 21.959057 18.471433 22.900679 18.414063 22.980469 C 18.289352 23.153915 18.230846 23.503976 17.914063 25.964844 L 17.669922 27.84961 L 18.482422 30.025391 L 19.294922 32.203126 L 21.390625 33.886719 L 23.484375 35.570313 L 25.0625 36.128907 C 28.302363 37.275471 27.876947 37.182306 30.640626 37.341798 L 33.089844 37.484376 L 34.494141 37.263673 C 35.266341 37.143254 36.040055 37.043816 36.212891 37.041016 C 36.470621 37.036886 36.968069 37.277228 38.982423 38.375001 C 40.333264 39.111176 41.526032 39.748296 41.632813 39.791016 C 41.739594 39.833736 41.923887 39.870248 42.041016 39.873048 L 42.253907 39.878907 L 41.451173 37.677735 C 41.010185 36.467116 40.650391 35.467222 40.650391 35.457032 C 40.650391 35.44684 41.220685 34.984511 41.91797 34.429688 C 43.087485 33.499116 43.26919 33.318251 44.257813 32.082032 C 44.847248 31.344976 45.407897 30.632057 45.503907 30.498047 C 45.633996 30.316475 45.753631 29.830818 45.972657 28.591797 C 46.13431 27.67733 46.268185 26.835461 46.271485 26.720704 C 46.280518 26.402986 45.523585 23.296732 45.382813 23.074219 C 45.314834 22.966765 44.671804 22.185555 43.955079 21.337891 C 42.666904 19.814379 42.640873 19.787892 41.63086 19.132813 C 39.058928 17.464697 39.328236 17.595428 36.941407 16.855469 L 34.761719 16.179688 L 32.560547 16.125 L 30.359376 16.06836 z M 37.117188 20.791016 C 37.363662 20.791016 37.782481 20.912233 38.396485 21.160157 C 39.228553 21.496131 39.397254 21.535803 40.306641 21.601563 L 41.304688 21.673829 L 42.01172 22.107422 L 42.718751 22.541016 L 43.066407 23.382813 C 43.402696 24.200977 43.412985 24.258973 43.464845 25.400391 L 43.517579 26.574219 L 43.125001 27.373047 L 42.732423 28.171876 L 41.884766 28.75586 L 41.03711 29.339844 L 40.396485 29.265626 L 39.75586 29.191407 L 39.75586 29.94336 C 39.75586 30.616783 39.797035 30.827117 40.156251 31.97461 C 40.376734 32.678933 40.546471 33.267984 40.531251 33.283204 C 40.516028 33.298428 39.985153 33.235179 39.351563 33.142579 C 38.28434 32.986605 38.159412 32.982809 37.658204 33.095704 C 37.360646 33.16273 37.034102 33.236546 36.933594 33.259766 C 36.833083 33.282986 36.751954 33.273209 36.751954 33.236329 C 36.751954 33.199451 36.903283 32.786823 37.087891 32.320313 L 37.421876 31.472657 L 37.546876 29.400391 C 37.670034 27.333788 37.669617 27.323876 37.457032 24.892579 C 37.27095 22.764391 37.211689 22.359473 36.998048 21.685547 C 36.86352 21.261182 36.752744 20.887016 36.751954 20.853516 C 36.751166 20.820016 36.915664 20.791016 37.117188 20.791016 z M 25.150391 20.832032 C 25.177309 20.805114 25.817085 20.917887 26.570313 21.082032 L 27.939454 21.38086 L 29.013672 22.080079 L 30.087891 22.78125 L 30.587891 24.277344 L 31.087891 25.771485 L 31.042969 26.835938 C 31.000824 27.825683 30.971813 27.974626 30.625001 28.994141 C 30.258788 30.070691 30.242076 30.098262 29.691407 30.658204 C 29.279668 31.076875 29.036104 31.419365 28.771485 31.951172 L 28.41211 32.675782 L 27.966797 31.951172 C 27.722538 31.553174 27.360503 30.945208 27.16211 30.59961 C 26.818178 30.000484 26.781388 29.96436 26.355469 29.820313 L 25.908204 29.669922 L 25.460938 30.011719 L 25.013672 30.355469 L 24.652344 31.828126 C 24.453412 32.637908 24.270174 33.298276 24.246094 33.296876 C 24.222014 33.295489 23.920749 32.879314 23.576172 32.373047 C 23.0064 31.535912 22.898372 31.423051 22.376954 31.113282 C 22.00701 30.893502 21.824329 30.738232 21.861329 30.675782 C 21.892867 30.622549 22.172305 30.185171 22.482422 29.703126 C 22.792538 29.22108 23.031312 28.810609 23.013672 28.792969 C 22.996034 28.775331 22.53031 29.037852 21.978516 29.375001 C 21.295053 29.792601 20.955976 29.957239 20.916016 29.892579 C 20.88375 29.840372 20.773393 29.335607 20.669922 28.771485 L 20.482422 27.746094 L 20.742188 26.279297 L 21.003907 24.8125 L 21.746094 23.503907 L 22.486329 22.195313 L 23.650391 21.615235 C 24.290244 21.296208 24.831576 21.035157 24.853516 21.035157 C 24.973867 21.035157 24.835692 21.26076 24.333985 21.882813 C 23.874744 22.452214 23.721418 22.721767 23.470704 23.404297 L 23.166016 24.236329 L 23.267579 25.033204 C 23.368016 25.821329 23.371974 25.832019 23.701172 26.105469 C 24.017439 26.368178 24.046567 26.376884 24.261719 26.265625 C 24.4462 26.170225 24.488388 26.09216 24.492188 25.845704 C 24.502927 25.151701 24.590811 24.968975 25.296875 24.169922 C 25.675118 23.741863 26.027519 23.390625 26.080079 23.390625 C 26.132636 23.390625 26.430333 23.673339 26.742188 24.019532 C 27.230031 24.56109 27.324146 24.717456 27.416016 25.128907 C 27.512207 25.55972 27.735149 25.908204 27.914063 25.908204 C 27.950967 25.908204 28.054059 25.78971 28.142579 25.644532 C 28.266534 25.441238 28.303782 25.240626 28.300782 24.771485 L 28.296876 24.16211 L 27.750001 23.310547 C 27.213643 22.471842 27.189481 22.445148 26.236329 21.798829 C 25.304818 21.167185 25.045195 20.937228 25.150391 20.832032 z M 33.890626 23.699219 C 34.053791 23.705106 34.247561 23.761056 34.56836 23.847657 L 35.330079 24.052735 L 35.910157 24.681641 C 36.477998 25.295528 36.500015 25.332097 36.820313 26.333985 C 37.134284 27.316087 37.14731 27.40943 37.16211 28.523438 C 37.182573 30.064013 36.912101 31.398712 36.408204 32.236329 C 36.104419 32.741303 36.039938 32.799299 35.501954 33.041016 C 35.183754 33.183985 34.869745 33.296516 34.802735 33.291016 C 34.73573 33.285537 34.434017 33.238041 34.132813 33.187501 C 33.598121 33.097777 33.569035 33.080325 32.941407 32.455079 L 32.298829 31.816407 L 31.839844 30.533204 L 31.382813 29.250001 L 31.476563 27.681641 L 31.570313 26.111329 L 32.015626 25.273438 C 32.405236 24.540775 32.514809 24.401165 32.88086 24.167969 C 33.430921 23.817546 33.618683 23.689407 33.890626 23.699219 z M 40.708985 24.917969 L 40.253907 24.97461 C 40.002936 25.00567 39.77819 25.048693 39.75586 25.070313 C 39.73353 25.091933 39.703784 25.651272 39.689454 26.314454 L 39.664063 27.521485 L 39.892579 27.554688 C 40.364542 27.625532 40.44219 27.605885 40.97461 27.277344 L 41.519532 26.941407 L 41.60547 26.404297 L 41.69336 25.867188 L 41.201173 25.392579 L 40.708985 24.917969 z M 34.796876 28.429688 C 34.772119 28.427914 34.589219 28.529702 34.390626 28.656251 C 34.052359 28.871803 34.018124 28.92797 33.841798 29.552735 L 33.654298 30.220704 L 33.865235 30.855469 C 34.055112 31.425617 34.103731 31.499009 34.337891 31.574219 C 34.723555 31.698089 34.772628 31.692732 35.199219 31.476563 C 35.582026 31.28258 35.592511 31.26804 35.708985 30.726563 C 35.809835 30.257731 35.811334 30.094727 35.720704 29.658204 C 35.627255 29.208097 35.565431 29.097268 35.228516 28.78711 C 35.016498 28.59193 34.821636 28.431488 34.796876 28.429688 z "
     transform="scale(0.26457812)" />
  <g
     aria-label="Krita"
     id="text1450"
     style="font-size:1.76385px;opacity:1;fill:#ff00ff;stroke-width:0.529156">
    <rect
       style="font-size:1.76385px;fill:#ff00ff;fill-opacity:1;stroke:none;stroke-width:0.519976;stroke-dasharray:none;filter:url(#filter1694)"
       id="rect1656-7"
       width="0.5055005"
       height="2.2653189"
       x="15.369148"
       y="4.3016486"
       rx="0"
       ry="0" />
    <rect
       style="opacity:1;fill:#ff00ff;fill-opacity:1;stroke:none;stroke-width:0.519976;stroke-dasharray:none"
       id="rect1656"
       width="0.5055005"
       height="2.2653189"
       x="15.369148"
       y="4.3016486"
       rx="0"
       ry="0" />
  </g>
  <path
     d="M 8.1712933,12.923073 7.8361618,14.182462 H 7.6756515 L 7.4304764,13.35698 q -0.014111,-0.05115 -0.028222,-0.102303 -0.014111,-0.05115 -0.02293,-0.08996 -0.00882,-0.04057 -0.012347,-0.05644 -0.00176,0.02293 -0.019402,0.09878 -0.015875,0.07408 -0.040569,0.155219 l -0.2381198,0.82019 H 6.9083768 L 6.5750091,12.923073 H 6.740811 l 0.1957874,0.769038 q 0.021166,0.08114 0.035277,0.156983 0.015875,0.07585 0.024694,0.142872 0.00882,-0.06879 0.026458,-0.149927 0.017639,-0.08114 0.040569,-0.158747 l 0.2222451,-0.760219 h 0.164038 l 0.2310644,0.765511 q 0.024694,0.08114 0.042332,0.162274 0.017639,0.07937 0.026458,0.141108 0.00882,-0.06526 0.024694,-0.141108 0.015875,-0.07761 0.037041,-0.16051 l 0.1940234,-0.767275 z m 0.9595342,0.784913 q 0,0.234592 -0.1199418,0.363353 Q 8.8927078,14.2001 8.689865,14.2001 q -0.1252333,0 -0.2240089,-0.05644 -0.097012,-0.05821 -0.153455,-0.167566 -0.056443,-0.111122 -0.056443,-0.268105 0,-0.234592 0.118178,-0.361589 0.1181779,-0.126997 0.3210207,-0.126997 0.128761,0 0.2257728,0.05821 0.098776,0.05644 0.1534549,0.165802 0.056443,0.107594 0.056443,0.264577 z m -0.7143592,0 q 0,0.167566 0.065262,0.266341 0.067026,0.09701 0.211662,0.09701 0.1428719,0 0.2098982,-0.09701 0.067026,-0.09877 0.067026,-0.266341 0,-0.167566 -0.067026,-0.262814 -0.067026,-0.09525 -0.211662,-0.09525 -0.1446357,0 -0.2098982,0.09525 -0.065262,0.09525 -0.065262,0.262814 z m 1.3140674,-0.784913 q 0.246939,0 0.3598253,0.09701 0.112886,0.09701 0.112886,0.273396 0,0.104068 -0.04762,0.195788 -0.04586,0.08996 -0.1569831,0.146399 -0.1093587,0.05644 -0.2980907,0.05644 H 9.5559145 v 0.490351 H 9.397168 v -1.259389 z m -0.014111,0.135816 H 9.5559145 v 0.497406 h 0.1269972 q 0.1799127,0 0.2681052,-0.05821 0.088192,-0.05821 0.088192,-0.197551 0,-0.121706 -0.077609,-0.181677 -0.077609,-0.05997 -0.2451751,-0.05997 z"
     id="text3"
     style="font-size:1.76385px;text-align:center;text-anchor:middle;fill:#999999;stroke-width:0.264578"
     aria-label="WoP" />
</svg>
