<?xml version="1.0" encoding="UTF-8" standalone="no"?>
<svg
   width="64"
   height="64"
   version="1.1"
   viewBox="0 0 16.933 16.933"
   id="svg7"
   sodipodi:docname="net.redeclipse.RedEclipse.svg"
   inkscape:version="1.4 (e7c3feb100, 2024-10-09)"
   xmlns:inkscape="http://www.inkscape.org/namespaces/inkscape"
   xmlns:sodipodi="http://sodipodi.sourceforge.net/DTD/sodipodi-0.dtd"
   xmlns:xlink="http://www.w3.org/1999/xlink"
   xmlns="http://www.w3.org/2000/svg"
   xmlns:svg="http://www.w3.org/2000/svg"
   xmlns:rdf="http://www.w3.org/1999/02/22-rdf-syntax-ns#"
   xmlns:cc="http://creativecommons.org/ns#"
   xmlns:dc="http://purl.org/dc/elements/1.1/">
  <sodipodi:namedview
     id="namedview7"
     pagecolor="#9c4444"
     bordercolor="#000000"
     borderopacity="0.25"
     inkscape:showpageshadow="2"
     inkscape:pageopacity="0.0"
     inkscape:pagecheckerboard="0"
     inkscape:deskcolor="#d1d1d1"
     inkscape:zoom="6.15625"
     inkscape:cx="15.837563"
     inkscape:cy="27.370558"
     inkscape:window-width="1183"
     inkscape:window-height="940"
     inkscape:window-x="35"
     inkscape:window-y="32"
     inkscape:window-maximized="0"
     inkscape:current-layer="svg7"
     showgrid="false" />
  <defs
     id="defs2">
    <linearGradient
       inkscape:collect="always"
       id="linearGradient1134">
      <stop
         style="stop-color:#161616;stop-opacity:1;"
         offset="0"
         id="stop1130" />
      <stop
         style="stop-color:#404040;stop-opacity:1;"
         offset="1"
         id="stop1132" />
    </linearGradient>
    <linearGradient
       inkscape:collect="always"
       id="linearGradient883">
      <stop
         style="stop-color:#808080;stop-opacity:1;"
         offset="0"
         id="stop879" />
      <stop
         style="stop-color:#3e3e3e;stop-opacity:1;"
         offset="0.5"
         id="stop1216" />
      <stop
         style="stop-color:#242424;stop-opacity:1;"
         offset="1"
         id="stop881" />
    </linearGradient>
    <linearGradient
       inkscape:collect="always"
       xlink:href="#linearGradient883"
       id="linearGradient885"
       x1="2.1085808"
       y1="2.0236168"
       x2="14.846128"
       y2="15.071845"
       gradientUnits="userSpaceOnUse" />
    <linearGradient
       inkscape:collect="always"
       xlink:href="#linearGradient1134"
       id="linearGradient1136"
       x1="14.971222"
       y1="14.703373"
       x2="2.0756054"
       y2="2.0069976"
       gradientUnits="userSpaceOnUse" />
    <filter
       style="color-interpolation-filters:sRGB;"
       inkscape:label="Blur"
       id="filter1283"
       x="-0.082344266"
       y="-0.082344266"
       width="1.1646885"
       height="1.1646885">
      <feGaussianBlur
         stdDeviation="0.5 0.5"
         result="blur"
         id="feGaussianBlur1281" />
    </filter>
    <filter
       style="color-interpolation-filters:sRGB;"
       inkscape:label="Blur"
       id="filter1694"
       x="-0.94955398"
       y="-0.2118907"
       width="2.899108"
       height="1.4237814">
      <feGaussianBlur
         stdDeviation="0.2 0.2"
         result="blur"
         id="feGaussianBlur1692" />
    </filter>
    <clipPath
       clipPathUnits="userSpaceOnUse"
       id="clipath_lpe_path-effect13-7">
      <circle
         style="display:none;fill:#e6e6e6"
         cx="29.999001"
         cy="30"
         r="18"
         id="circle1" />
    </clipPath>
    <inkscape:path-effect
       effect="powerclip"
       id="path-effect13-7"
       is_visible="true"
       lpeversion="1"
       inverse="true"
       flatten="false"
       hide_clip="false"
       message="" />
  </defs>
  <metadata
     id="metadata2">
    <rdf:RDF>
      <cc:Work
         rdf:about="">
        <dc:format>image/svg+xml</dc:format>
        <dc:type
           rdf:resource="http://purl.org/dc/dcmitype/StillImage" />
      </cc:Work>
    </rdf:RDF>
  </metadata>
  <rect
     style="fill:#000000;stroke:none;stroke-width:0.539739;stroke-dasharray:none;filter:url(#filter1283)"
     id="rect246-1"
     width="14.572964"
     height="14.572964"
     x="1.1932471"
     y="1.2138842"
     rx="2.1589575"
     ry="2.1589575" />
  <rect
     style="opacity:1;fill:#000000;stroke:url(#linearGradient885);stroke-width:0.52915625;stroke-dasharray:none"
     id="rect246"
     width="14.287219"
     height="14.287219"
     x="1.3361193"
     y="1.3567564"
     rx="2.1166251"
     ry="2.1166251" />
  <rect
     style="fill:url(#linearGradient1136);fill-opacity:1;stroke:none;stroke-width:0.478315;stroke-dasharray:none"
     id="rect246-5"
     width="12.914515"
     height="12.914515"
     x="2.0224717"
     y="2.0431087"
     rx="1.5874687"
     ry="1.5874687" />
  <path
     id="path1"
     style="fill:#999999;stroke-width:0.324873"
     d="M 28.751954 13.029297 L 28.742188 13.945313 C 28.7283 15.270978 27.962588 16.56836 27.19336 16.56836 C 27.006054 16.56836 26.519735 16.275743 26.113282 15.917969 C 25.684141 15.540224 25.03162 15.166445 24.556641 15.025391 C 23.553242 14.727419 23.291554 14.720969 22.917969 14.994141 C 22.642492 15.195575 22.654084 15.255413 23.138672 16.042969 C 23.421011 16.501828 23.666154 17.081858 23.683594 17.332032 C 23.715078 17.783822 23.708274 17.78735 22.740235 17.78125 C 22.204194 17.777855 20.963211 17.72352 19.980469 17.66211 C 18.95978 17.59832 18.413072 17.608317 18.707032 17.685547 C 19.44622 17.879756 20.630863 18.609238 21.027344 19.113282 C 22.056732 20.421936 21.433509 21.378084 19.355469 21.677735 C 18.788094 21.75955 18.40244 21.941745 17.976563 22.332032 L 17.384766 22.875 L 18.033203 22.978516 C 19.618821 23.235178 20.24127 23.894685 19.894532 24.945313 C 19.648289 25.691436 19.374019 25.862679 18.396485 25.886719 C 17.58883 25.90658 17.539625 25.932794 17.490235 26.363282 C 17.398192 27.165496 18.326389 28.838108 19.533203 30.044922 C 20.512907 31.024626 23.102288 32.911386 23.25586 32.757813 C 23.288522 32.725152 23.066554 32.283573 22.761719 31.777344 C 21.687406 29.993271 21.246851 27.181506 21.699219 24.982422 C 21.796608 24.508989 22.166582 23.512865 22.521485 22.769532 C 24.357426 18.924216 28.682951 16.770385 32.986329 17.556641 C 34.06907 17.754465 36.295171 18.760112 37.035157 19.384766 L 37.523438 19.794922 L 36.054688 19.703125 C 34.061058 19.577829 32.277008 19.946107 30.375001 20.873047 C 27.859294 22.099073 26.271017 23.685064 25.003907 26.234375 C 22.907159 30.452844 23.52931 35.126979 26.697266 38.947266 C 28.013704 40.534778 30.725893 42.123843 32.97461 42.625001 C 34.540403 42.97396 37.145339 42.868236 38.660157 42.394532 C 40.65284 41.771395 41.946936 40.983261 43.455079 39.47461 C 45.545568 37.38342 46.473673 35.538655 46.904298 32.621094 C 47.231593 30.40361 46.614704 27.488838 45.371095 25.367188 C 44.141803 23.269967 41.195057 20.878408 39.125001 20.298829 C 38.540724 20.135241 38.416016 20.031168 38.416016 19.708985 C 38.416016 19.145127 39.099717 17.883693 39.789063 17.175782 C 40.697425 16.242959 40.145407 16.217439 38.626954 17.121094 C 37.623153 17.718472 37.220929 17.867188 36.625001 17.867188 C 35.576429 17.867188 35.340206 17.639967 35.265626 16.552735 C 35.231316 16.052583 35.094196 15.435973 34.960938 15.181641 L 34.718751 14.71875 L 34.375001 15.394532 C 34.185322 15.766334 33.887358 16.145952 33.714844 16.238282 C 33.356031 16.430309 31.927957 16.459947 31.656251 16.28125 C 31.556451 16.215613 31.199905 15.723541 30.863282 15.1875 C 30.122059 14.00717 29.694678 13.519195 29.158204 13.240235 L 28.751954 13.029297 z "
     transform="scale(0.26457812)" />
  <g
     aria-label="Krita"
     id="text1450"
     style="font-size:1.76385px;opacity:1;fill:#ff00ff;stroke-width:0.529156">
    <rect
       style="font-size:1.76385px;fill:#ff00ff;fill-opacity:1;stroke:none;stroke-width:0.519976;stroke-dasharray:none;filter:url(#filter1694)"
       id="rect1656-7"
       width="0.5055005"
       height="2.2653189"
       x="15.369148"
       y="4.3016486"
       rx="0"
       ry="0" />
    <rect
       style="opacity:1;fill:#ff00ff;fill-opacity:1;stroke:none;stroke-width:0.519976;stroke-dasharray:none"
       id="rect1656"
       width="0.5055005"
       height="2.2653189"
       x="15.369148"
       y="4.3016486"
       rx="0"
       ry="0" />
  </g>
  <path
     d="m 4.4169546,12.923073 q 0.234592,0 0.3457146,0.08996 0.1128864,0.08819 0.1128864,0.268105 0,0.10054 -0.037041,0.167566 -0.037041,0.06703 -0.095248,0.107595 -0.056443,0.0388 -0.1199418,0.06173 l 0.3457146,0.564432 H 4.7838354 L 4.4786893,13.662126 H 4.2282226 v 0.520336 H 4.0694761 v -1.259389 z m -0.00882,0.13758 H 4.2282226 v 0.46742 h 0.188732 q 0.1534549,0 0.2240089,-0.05997 0.070554,-0.06173 0.070554,-0.179912 0,-0.12347 -0.074082,-0.174621 -0.074082,-0.05292 -0.2293005,-0.05292 z M 5.5105411,13.2194 q 0.1217056,0 0.2081343,0.05292 0.088192,0.05292 0.1340526,0.149927 0.047624,0.09525 0.047624,0.224009 v 0.09348 H 5.253019 q 0.00353,0.160511 0.081137,0.245176 0.079373,0.0829 0.2204812,0.0829 0.089956,0 0.1587465,-0.01587 0.070554,-0.01764 0.1446357,-0.04939 v 0.135816 q -0.072318,0.03175 -0.1428718,0.04586 -0.070554,0.01587 -0.1675658,0.01587 -0.1340526,0 -0.2381197,-0.05468 -0.1023033,-0.05468 -0.1605104,-0.162274 -0.056443,-0.109359 -0.056443,-0.266342 0,-0.155218 0.051152,-0.266341 0.052916,-0.111123 0.1463995,-0.171093 0.095248,-0.05997 0.2204813,-0.05997 z m -0.00176,0.126997 q -0.1111225,0 -0.176385,0.07232 -0.063499,0.07055 -0.075845,0.197551 h 0.481531 q -0.00176,-0.119942 -0.056443,-0.194024 -0.054679,-0.07585 -0.1728573,-0.07585 z M 6.4753656,14.2001 q -0.176385,0 -0.282216,-0.121705 -0.105831,-0.12347 -0.105831,-0.366881 0,-0.243412 0.105831,-0.366881 0.1075949,-0.125233 0.2839799,-0.125233 0.1093587,0 0.1781488,0.04057 0.070554,0.04057 0.1146503,0.09878 h 0.010583 q -0.00176,-0.02293 -0.00706,-0.06703 -0.00353,-0.04586 -0.00353,-0.07232 v -0.377464 h 0.1552188 v 1.340526 H 6.799914 l -0.02293,-0.126997 h -0.00706 q -0.042332,0.05997 -0.1128864,0.102303 -0.070554,0.04233 -0.1816766,0.04233 z m 0.024694,-0.128761 q 0.1499273,0 0.2098982,-0.08114 0.061735,-0.0829 0.061735,-0.248703 v -0.02822 q 0,-0.176385 -0.058207,-0.269869 -0.058207,-0.09525 -0.2151897,-0.09525 -0.1252334,0 -0.188732,0.100539 -0.061735,0.09878 -0.061735,0.266341 0,0.16933 0.061735,0.262814 0.063499,0.09348 0.1904958,0.09348 z m 1.4498843,0.111123 H 7.2461677 v -1.259389 h 0.7037761 v 0.139344 H 7.4049142 v 0.393339 h 0.5132803 v 0.13758 H 7.4049142 v 0.449782 h 0.5450296 z m 0.6349854,0.01764 q -0.1252333,0 -0.2240089,-0.05115 -0.097012,-0.05115 -0.153455,-0.158747 -0.054679,-0.107595 -0.054679,-0.275161 0,-0.174621 0.058207,-0.283979 0.058207,-0.109359 0.1569827,-0.160511 0.1005394,-0.05115 0.2275366,-0.05115 0.072318,0 0.1393442,0.01587 0.067026,0.01411 0.1093587,0.03528 l -0.047624,0.128761 q -0.042332,-0.01587 -0.098776,-0.02998 -0.056443,-0.01411 -0.105831,-0.01411 -0.2786883,0 -0.2786883,0.358062 0,0.171093 0.067026,0.262813 0.06879,0.08996 0.2028428,0.08996 0.077609,0 0.1358164,-0.01588 0.059971,-0.01587 0.1093587,-0.0388 v 0.137581 q -0.047624,0.02469 -0.105831,0.03704 -0.056443,0.01411 -0.1375803,0.01411 z m 0.6226383,-0.01764 H 9.0523488 v -1.340526 h 0.1552187 z m 0.3792269,-1.299958 q 0.035277,0 0.061735,0.02469 0.028222,0.02293 0.028222,0.07408 0,0.04939 -0.028222,0.07408 -0.026458,0.02469 -0.061735,0.02469 -0.038805,0 -0.065262,-0.02469 -0.026458,-0.02469 -0.026458,-0.07408 0,-0.05115 0.026458,-0.07408 0.026458,-0.02469 0.065262,-0.02469 z m 0.075846,0.354534 v 0.945424 H 9.5074212 v -0.945424 z m 0.749635,-0.01764 q 0.174621,0 0.280452,0.121705 0.107595,0.121706 0.107595,0.366881 0,0.241648 -0.107595,0.366881 -0.105831,0.125233 -0.282216,0.125233 -0.109358,0 -0.181676,-0.04057 -0.07055,-0.04233 -0.111123,-0.09701 h -0.01058 q 0.0035,0.02998 0.0071,0.07585 0.0035,0.04586 0.0035,0.07937 v 0.388047 H 9.9624936 v -1.368748 h 0.1269974 l 0.02117,0.128761 h 0.0071 q 0.04233,-0.06174 0.111123,-0.104067 0.06879,-0.04233 0.18344,-0.04233 z m -0.02822,0.130525 q -0.144636,0 -0.204607,0.08114 -0.05821,0.08114 -0.06174,0.246939 v 0.02998 q 0,0.174621 0.05644,0.269869 0.05821,0.09348 0.213425,0.09348 0.08643,0 0.141108,-0.04762 0.05644,-0.04762 0.0829,-0.128761 0.02822,-0.0829 0.02822,-0.188732 0,-0.162274 -0.0635,-0.259286 -0.06173,-0.09701 -0.192259,-0.09701 z m 1.278791,0.571487 q 0,0.13758 -0.102304,0.208134 -0.102303,0.07055 -0.27516,0.07055 -0.09878,0 -0.171094,-0.01587 -0.07055,-0.01588 -0.125233,-0.0441 v -0.141108 q 0.05644,0.02822 0.135816,0.05292 0.08114,0.02293 0.164038,0.02293 0.118178,0 0.171094,-0.03704 0.05292,-0.0388 0.05292,-0.102303 0,-0.03528 -0.0194,-0.0635 -0.0194,-0.02822 -0.07055,-0.05644 -0.04939,-0.02822 -0.142872,-0.0635 -0.09172,-0.03528 -0.156983,-0.07055 -0.06526,-0.03528 -0.100539,-0.08466 -0.03528,-0.04939 -0.03528,-0.126998 0,-0.119941 0.09701,-0.185204 0.09878,-0.06526 0.257522,-0.06526 0.08643,0 0.16051,0.01764 0.07585,0.01587 0.141108,0.04586 l -0.05292,0.12347 q -0.05997,-0.02469 -0.125234,-0.04233 -0.06526,-0.01764 -0.134052,-0.01764 -0.09525,0 -0.1464,0.03175 -0.04939,0.02999 -0.04939,0.0829 0,0.0388 0.02293,0.06703 0.02293,0.02646 0.07585,0.05292 0.05468,0.02469 0.144636,0.05997 0.08996,0.03351 0.153455,0.06879 0.0635,0.03528 0.09701,0.08643 0.03351,0.04939 0.03351,0.125233 z M 12.257262,13.2194 q 0.121705,0 0.208134,0.05292 0.08819,0.05292 0.134053,0.149927 0.04762,0.09525 0.04762,0.224009 v 0.09348 H 11.99974 q 0.0035,0.160511 0.08114,0.245176 0.07937,0.0829 0.220481,0.0829 0.08996,0 0.158747,-0.01587 0.07055,-0.01764 0.144635,-0.04939 v 0.135816 q -0.07232,0.03175 -0.142872,0.04586 -0.07055,0.01587 -0.167565,0.01587 -0.134053,0 -0.23812,-0.05468 -0.102303,-0.05468 -0.16051,-0.162274 -0.05644,-0.109359 -0.05644,-0.266342 0,-0.155218 0.05115,-0.266341 0.05292,-0.111123 0.1464,-0.171093 0.09525,-0.05997 0.220481,-0.05997 z m -0.0018,0.126997 q -0.111123,0 -0.176385,0.07232 -0.0635,0.07055 -0.07585,0.197551 h 0.481531 q -0.0018,-0.119942 -0.05644,-0.194024 -0.05468,-0.07585 -0.172857,-0.07585 z"
     id="text3"
     style="font-size:1.76385px;text-align:center;text-anchor:middle;fill:#999999;stroke-width:0.264578"
     aria-label="RedEclipse" />
</svg>
