<?xml version="1.0" encoding="UTF-8" standalone="no"?>
<svg
   width="64"
   height="64"
   version="1.1"
   viewBox="0 0 16.933 16.933"
   id="svg7"
   sodipodi:docname="Multimedia Template.svg"
   inkscape:version="1.4 (e7c3feb100, 2024-10-09)"
   xmlns:inkscape="http://www.inkscape.org/namespaces/inkscape"
   xmlns:sodipodi="http://sodipodi.sourceforge.net/DTD/sodipodi-0.dtd"
   xmlns:xlink="http://www.w3.org/1999/xlink"
   xmlns="http://www.w3.org/2000/svg"
   xmlns:svg="http://www.w3.org/2000/svg"
   xmlns:rdf="http://www.w3.org/1999/02/22-rdf-syntax-ns#"
   xmlns:cc="http://creativecommons.org/ns#"
   xmlns:dc="http://purl.org/dc/elements/1.1/">
  <sodipodi:namedview
     id="namedview7"
     pagecolor="#9c4444"
     bordercolor="#000000"
     borderopacity="0.25"
     inkscape:showpageshadow="2"
     inkscape:pageopacity="0.0"
     inkscape:pagecheckerboard="0"
     inkscape:deskcolor="#d1d1d1"
     inkscape:zoom="6.15625"
     inkscape:cx="15.675127"
     inkscape:cy="29.807107"
     inkscape:window-width="1183"
     inkscape:window-height="973"
     inkscape:window-x="35"
     inkscape:window-y="32"
     inkscape:window-maximized="0"
     inkscape:current-layer="svg7"
     showgrid="false" />
  <defs
     id="defs2">
    <rect
       x="67.489848"
       y="35.60533"
       width="15.337563"
       height="22.51269"
       id="rect3808" />
    <linearGradient
       inkscape:collect="always"
       id="linearGradient1134">
      <stop
         style="stop-color:#161616;stop-opacity:1;"
         offset="0"
         id="stop1130" />
      <stop
         style="stop-color:#404040;stop-opacity:1;"
         offset="1"
         id="stop1132" />
    </linearGradient>
    <linearGradient
       inkscape:collect="always"
       id="linearGradient883">
      <stop
         style="stop-color:#808080;stop-opacity:1;"
         offset="0"
         id="stop879" />
      <stop
         style="stop-color:#3e3e3e;stop-opacity:1;"
         offset="0.5"
         id="stop1216" />
      <stop
         style="stop-color:#242424;stop-opacity:1;"
         offset="1"
         id="stop881" />
    </linearGradient>
    <linearGradient
       inkscape:collect="always"
       xlink:href="#linearGradient883"
       id="linearGradient885"
       x1="2.1085808"
       y1="2.0236168"
       x2="14.846128"
       y2="15.071845"
       gradientUnits="userSpaceOnUse" />
    <linearGradient
       inkscape:collect="always"
       xlink:href="#linearGradient1134"
       id="linearGradient1136"
       x1="14.971222"
       y1="14.703373"
       x2="2.0756054"
       y2="2.0069976"
       gradientUnits="userSpaceOnUse" />
    <filter
       style="color-interpolation-filters:sRGB;"
       inkscape:label="Blur"
       id="filter1283"
       x="-0.082344266"
       y="-0.082344266"
       width="1.1646885"
       height="1.1646885">
      <feGaussianBlur
         stdDeviation="0.5 0.5"
         result="blur"
         id="feGaussianBlur1281" />
    </filter>
    <filter
       style="color-interpolation-filters:sRGB;"
       inkscape:label="Blur"
       id="filter1694"
       x="-0.94955398"
       y="-0.2118907"
       width="2.899108"
       height="1.4237814">
      <feGaussianBlur
         stdDeviation="0.2 0.2"
         result="blur"
         id="feGaussianBlur1692" />
    </filter>
    <filter
       style="color-interpolation-filters:sRGB;"
       inkscape:label="Blur"
       id="filter3148"
       x="-0.94955398"
       y="-0.2118907"
       width="2.899108"
       height="1.4237814">
      <feGaussianBlur
         stdDeviation="0.2 0.2"
         result="blur"
         id="feGaussianBlur3146" />
    </filter>
    <clipPath
       clipPathUnits="userSpaceOnUse"
       id="clipPath44">
      <path
         id="path46"
         style="display:block;opacity:0.85;fill:#f2f2f2;stroke-width:4.39162"
         d="m 17.570312,8.4453125 a 6.5431988,7.4283052 9.9958727e-8 0 0 -6.535156,7.4394535 6.5431988,7.4283052 9.9958727e-8 0 0 6.552735,7.417968 6.5431988,7.4283052 9.9958727e-8 0 0 6.535156,-7.4375 6.5431988,7.4283052 9.9958727e-8 0 0 -6.552735,-7.4199215 z M 45.646484,41.177734 a 6.5431986,7.0703472 2.4665357e-6 0 0 -6.533203,7.080078 6.5431986,7.0703472 2.4665357e-6 0 0 6.550781,7.060547 6.5431986,7.0703472 2.4665357e-6 0 0 6.535157,-7.080078 6.5431986,7.0703472 2.4665357e-6 0 0 -6.552735,-7.060547 z" />
    </clipPath>
    <inkscape:path-effect
       effect="powerclip"
       id="path-effect48"
       is_visible="true"
       lpeversion="1"
       inverse="true"
       flatten="false"
       hide_clip="false"
       message="" />
  </defs>
  <metadata
     id="metadata2">
    <rdf:RDF>
      <cc:Work
         rdf:about="">
        <dc:format>image/svg+xml</dc:format>
        <dc:type
           rdf:resource="http://purl.org/dc/dcmitype/StillImage" />
      </cc:Work>
    </rdf:RDF>
  </metadata>
  <rect
     style="fill:#000000;stroke:none;stroke-width:0.539739;stroke-dasharray:none;filter:url(#filter1283)"
     id="rect246-1"
     width="14.572964"
     height="14.572964"
     x="1.1932471"
     y="1.2138842"
     rx="2.1589575"
     ry="2.1589575" />
  <rect
     style="opacity:1;fill:#000000;stroke:url(#linearGradient885);stroke-width:0.52915625;stroke-dasharray:none"
     id="rect246"
     width="14.287219"
     height="14.287219"
     x="1.3361193"
     y="1.3567564"
     rx="2.1166251"
     ry="2.1166251" />
  <rect
     style="fill:url(#linearGradient1136);fill-opacity:1;stroke:none;stroke-width:0.478315;stroke-dasharray:none"
     id="rect246-5"
     width="12.914515"
     height="12.914515"
     x="2.0224717"
     y="2.0431087"
     rx="1.5874687"
     ry="1.5874687" />
  <path
     style="fill:#999999;fill-opacity:1;stroke-width:0.661046"
     d="m 5.0701448,3.7860917 0.2485957,0.1919866 c -0.7885202,0.3739766 1.2365464,2.0814413 1.2365464,2.0814413 0,0 0.3941113,-0.3649586 0.9715311,-0.4033777 0.5727375,-0.6037987 2.956408,-0.144248 2.8671,0.3512873 -0.8012658,0.012874 -1.0550335,-0.092446 -1.0550335,-0.092446 0,0 0.039554,0.046934 0.055886,0.2079977 C 9.3362124,6.1725967 8.507641,5.9816022 8.3344196,5.9952065 7.8415352,6.0339605 7.5088811,6.0467666 7.155277,6.0870227 7.3985416,6.1695527 9.3370189,6.5247021 9.956845,7.1411192 9.791506,7.2066928 9.7191973,7.1797395 9.6639907,7.2006589 9.6154393,7.2190304 9.5663277,7.320823 9.4597916,7.3213124 9.3834577,7.3215605 9.4095487,7.2517829 9.251903,7.1751131 8.2710212,7.2152078 7.9530049,6.5995552 7.8562083,6.5240585 7.4231919,6.4177395 6.6937032,6.1773304 6.6937032,6.1773304 c 0,0 0.6176554,0.5070543 0.9563032,0.7884838 0.028162,0.0234 0.4924312,0.1121787 1.082634,0.4083322 C 9.0498912,7.1069715 9.9051643,7.5603333 9.7462449,7.9754846 9.6046866,8.3452773 8.6549321,7.9642185 8.689849,7.4611823 8.4730312,7.3917199 8.0725081,7.1925186 7.8162598,7.0974842 8.061931,7.2945868 9.0271141,8.1219052 9.22105,8.3559112 10.070666,8.2485666 11.353293,8.4667023 12.148919,8.9912902 11.967471,9.0405706 11.10409,9.2092647 10.931152,9.1617881 10.609805,9.0367555 10.130866,8.6317151 10.079835,8.5863238 9.8952472,8.5542697 9.4809487,8.4930592 9.321805,8.4744397 c 0.1614159,0.1684997 0.694492,0.8020946 0.861871,1.0686189 0.06934,-0.015082 0.422928,0.072357 0.52092,0.1408703 0.363028,-0.381064 0.951665,0.287583 1.31351,0.6105161 -0.09506,0.198544 -1.588066,-0.107029 -1.388529,-0.5519434 -0.106693,-0.014621 -0.32023,-0.1352432 -0.398969,-0.1416471 0.08049,0.1084452 0.256025,0.2556356 0.487369,0.5052785 0.222526,-0.06511 1.061287,0.868721 1.083793,1.073078 -0.627669,-0.157323 -0.937666,-0.294209 -1.034841,-0.410975 -0.191806,-0.230478 -0.119188,-0.561416 -0.100915,-0.621572 -0.246825,-0.2269192 -0.29281,-0.2943967 -0.373539,-0.3394336 -0.0021,0.0027 2.47e-4,0.069903 0.0041,0.1027323 0.405461,0.3075113 0.209546,1.1586183 -0.02356,1.1887963 -0.101453,0.01315 -0.335297,-1.2007789 -0.04329,-1.2460093 0.0068,-0.024075 0.01057,-0.095738 0.01094,-0.098568 C 10.086512,9.5815992 9.2319049,8.6468345 9.1763313,8.6074641 9.2040106,8.6812311 9.2493925,8.8025351 9.2910438,8.9522806 9.795697,9.2915808 9.8791948,9.8344851 9.841159,10.472151 9.720175,10.254216 8.5345755,9.261295 9.0531053,8.8211343 9.0567576,8.7532571 9.0370957,8.5991834 9.080765,8.5125768 8.9162887,8.3435139 8.4042705,7.8235323 8.3583262,7.8239547 8.41551,7.9445485 8.4510199,8.0133937 8.479382,8.1437964 8.8696654,8.3441843 8.7562915,8.861806 8.5785234,8.8727945 8.3912425,8.8843953 7.9761884,8.2903309 8.3665738,8.1643533 8.3350362,8.0147885 8.277677,7.8115108 8.2545513,7.7232009 8.0856395,7.5903043 7.5262289,7.130331 7.397137,7.0231072 7.555867,7.294828 7.7109182,7.7177701 7.7884548,7.9602714 8.256096,8.5052954 8.126735,9.348357 8.0794505,10.21795 7.5307873,9.7989036 7.1901496,8.3687576 7.5391489,8.0127635 7.4226434,7.5992352 7.2465464,6.8995101 7.2465464,6.8995101 6.4921838,6.2971597 6.0748318,5.845695 6.0748318,5.845695 c 0,0 0.5026194,0.670492 0.5598669,1.0299123 0.4401948,0.087799 0.8079418,0.8766729 0.457927,1.0112995 C 6.5810206,8.0836808 6.0318539,7.2486851 6.468298,6.9376873 c 0,0 -0.3864538,-0.7323174 -0.6855925,-1.3746086 C 4.6027759,4.2306769 4.7161959,3.8306521 5.0701085,3.7861118 Z"
     id="path8" />
  <g
     aria-label="Krita"
     id="text1450"
     style="font-size:1.76385px;opacity:1;fill:#ff7f2a;stroke-width:0.529156">
    <rect
       style="font-size:1.76385px;fill:#ff7f2a;fill-opacity:1;stroke:none;stroke-width:0.519976;stroke-dasharray:none;filter:url(#filter3148)"
       id="rect1656-3"
       width="0.5055005"
       height="2.2653189"
       x="15.369148"
       y="4.3016486"
       rx="0"
       ry="0" />
    <rect
       style="opacity:1;fill:#ff7f2a;fill-opacity:1;stroke:none;stroke-width:0.519976;stroke-dasharray:none"
       id="rect1656"
       width="0.5055005"
       height="2.2653189"
       x="15.369148"
       y="4.3016486"
       rx="0"
       ry="0" />
  </g>
  <path
     style="font-size:1.76385px;text-align:center;text-anchor:middle;fill:#999999;stroke-width:0.529156"
     d="m 7.4700949,13.547559 q 0,0.195787 -0.067026,0.342187 -0.065263,0.144635 -0.1940235,0.225772 -0.1287611,0.08114 -0.3192569,0.08114 -0.1957873,0 -0.3263122,-0.08114 -0.1287611,-0.08114 -0.1922597,-0.227536 -0.063499,-0.1464 -0.063499,-0.342187 0,-0.194024 0.063499,-0.338659 0.063499,-0.144636 0.1922597,-0.225773 0.1305249,-0.08114 0.3280761,-0.08114 0.1887319,0 0.317493,0.08114 0.128761,0.07937 0.1940235,0.225773 0.067026,0.144635 0.067026,0.340423 z m -0.9948114,0 q 0,0.23812 0.1005394,0.3757 0.1005395,0.135816 0.3139653,0.135816 0.2151897,0 0.3139653,-0.135816 0.098776,-0.13758 0.098776,-0.3757 0,-0.23812 -0.098776,-0.372173 -0.098776,-0.135816 -0.3122014,-0.135816 -0.2134259,0 -0.3157292,0.135816 -0.1005394,0.134053 -0.1005394,0.372173 z M 7.882836,14.179017 H 7.7276172 V 12.838491 H 7.882836 Z M 8.2620627,12.87906 q 0.035277,0 0.061735,0.02469 0.028222,0.02293 0.028222,0.07408 0,0.04939 -0.028222,0.07408 -0.026458,0.02469 -0.061735,0.02469 -0.038805,0 -0.065262,-0.02469 -0.026458,-0.02469 -0.026458,-0.07408 0,-0.05115 0.026458,-0.07408 0.026458,-0.02469 0.065262,-0.02469 z m 0.075846,0.354533 v 0.945424 H 8.1826895 v -0.945424 z m 0.5079878,0.945424 -0.3580616,-0.945424 h 0.1658019 l 0.2010789,0.557377 q 0.014111,0.0388 0.029985,0.08643 0.015875,0.04762 0.028222,0.09172 0.012347,0.04233 0.017639,0.07232 h 0.00706 q 0.00706,-0.02999 0.019402,-0.07408 0.014111,-0.0441 0.029986,-0.09172 0.017639,-0.04762 0.029985,-0.08467 l 0.2010789,-0.557377 h 0.1658019 l -0.3598254,0.945424 z m 1.0530173,-0.963062 q 0.1217056,0 0.2081346,0.05292 0.08819,0.05292 0.134052,0.149928 0.04762,0.09525 0.04762,0.224009 v 0.09348 H 9.6413913 q 0.00353,0.16051 0.081137,0.245175 0.079373,0.0829 0.2204813,0.0829 0.089956,0 0.1587463,-0.01588 0.07055,-0.01764 0.144636,-0.04939 v 0.135817 q -0.07232,0.03175 -0.142872,0.04586 -0.07055,0.01588 -0.1675657,0.01588 -0.1340526,0 -0.2381198,-0.05468 -0.1023033,-0.05468 -0.1605103,-0.162274 -0.056443,-0.109359 -0.056443,-0.266341 0,-0.155219 0.051152,-0.266342 0.052915,-0.111122 0.1463996,-0.171093 0.095248,-0.05997 0.2204812,-0.05997 z m -0.00176,0.126997 q -0.1111226,0 -0.176385,0.07232 -0.063499,0.07055 -0.075846,0.197551 h 0.481531 q -0.0018,-0.119942 -0.05644,-0.194023 -0.05468,-0.07585 -0.1728574,-0.07585 z"
     id="text2284"
     aria-label="Olive" />
  <text
     xml:space="preserve"
     transform="scale(0.26457812)"
     id="text3806"
     style="font-size:6.66667px;white-space:pre;shape-inside:url(#rect3808);display:inline;fill:#999999;stroke-width:2" />
</svg>
