<?xml version="1.0" encoding="UTF-8" standalone="no"?>
<svg
   width="64"
   height="64"
   version="1.1"
   viewBox="0 0 16.933 16.933"
   id="svg7"
   sodipodi:docname="org.gnome.Yelp.svg"
   inkscape:version="1.4 (e7c3feb100, 2024-10-09)"
   xmlns:inkscape="http://www.inkscape.org/namespaces/inkscape"
   xmlns:sodipodi="http://sodipodi.sourceforge.net/DTD/sodipodi-0.dtd"
   xmlns:xlink="http://www.w3.org/1999/xlink"
   xmlns="http://www.w3.org/2000/svg"
   xmlns:svg="http://www.w3.org/2000/svg"
   xmlns:rdf="http://www.w3.org/1999/02/22-rdf-syntax-ns#"
   xmlns:cc="http://creativecommons.org/ns#"
   xmlns:dc="http://purl.org/dc/elements/1.1/">
  <sodipodi:namedview
     id="namedview7"
     pagecolor="#9c4444"
     bordercolor="#000000"
     borderopacity="0.25"
     inkscape:showpageshadow="2"
     inkscape:pageopacity="0.0"
     inkscape:pagecheckerboard="0"
     inkscape:deskcolor="#d1d1d1"
     inkscape:zoom="4.3531261"
     inkscape:cx="15.965538"
     inkscape:cy="17.343858"
     inkscape:window-width="1183"
     inkscape:window-height="973"
     inkscape:window-x="35"
     inkscape:window-y="32"
     inkscape:window-maximized="0"
     inkscape:current-layer="svg7"
     showgrid="false" />
  <defs
     id="defs2">
    <linearGradient
       inkscape:collect="always"
       id="linearGradient1134">
      <stop
         style="stop-color:#161616;stop-opacity:1;"
         offset="0"
         id="stop1130" />
      <stop
         style="stop-color:#404040;stop-opacity:1;"
         offset="1"
         id="stop1132" />
    </linearGradient>
    <linearGradient
       inkscape:collect="always"
       id="linearGradient883">
      <stop
         style="stop-color:#808080;stop-opacity:1;"
         offset="0"
         id="stop879" />
      <stop
         style="stop-color:#3e3e3e;stop-opacity:1;"
         offset="0.5"
         id="stop1216" />
      <stop
         style="stop-color:#242424;stop-opacity:1;"
         offset="1"
         id="stop881" />
    </linearGradient>
    <linearGradient
       inkscape:collect="always"
       xlink:href="#linearGradient883"
       id="linearGradient885"
       x1="2.1085808"
       y1="2.0236168"
       x2="14.846128"
       y2="15.071845"
       gradientUnits="userSpaceOnUse" />
    <linearGradient
       inkscape:collect="always"
       xlink:href="#linearGradient1134"
       id="linearGradient1136"
       x1="14.971222"
       y1="14.703373"
       x2="2.0756054"
       y2="2.0069976"
       gradientUnits="userSpaceOnUse" />
    <filter
       style="color-interpolation-filters:sRGB;"
       inkscape:label="Blur"
       id="filter1283"
       x="-0.082344266"
       y="-0.082344266"
       width="1.1646885"
       height="1.1646885">
      <feGaussianBlur
         stdDeviation="0.5 0.5"
         result="blur"
         id="feGaussianBlur1281" />
    </filter>
    <filter
       style="color-interpolation-filters:sRGB;"
       inkscape:label="Blur"
       id="filter1694"
       x="-0.94955398"
       y="-0.2118907"
       width="2.899108"
       height="1.4237814">
      <feGaussianBlur
         stdDeviation="0.2 0.2"
         result="blur"
         id="feGaussianBlur1692" />
    </filter>
    <filter
       style="color-interpolation-filters:sRGB;"
       inkscape:label="Blur"
       id="filter3335"
       x="-0.94955398"
       y="-0.2118907"
       width="2.899108"
       height="1.4237814">
      <feGaussianBlur
         stdDeviation="0.2 0.2"
         result="blur"
         id="feGaussianBlur3333" />
    </filter>
  </defs>
  <metadata
     id="metadata2">
    <rdf:RDF>
      <cc:Work
         rdf:about="">
        <dc:format>image/svg+xml</dc:format>
        <dc:type
           rdf:resource="http://purl.org/dc/dcmitype/StillImage" />
      </cc:Work>
    </rdf:RDF>
  </metadata>
  <rect
     style="fill:#000000;stroke:none;stroke-width:0.539739;stroke-dasharray:none;filter:url(#filter1283)"
     id="rect246-1"
     width="14.572964"
     height="14.572964"
     x="1.1932471"
     y="1.2138842"
     rx="2.1589575"
     ry="2.1589575" />
  <rect
     style="opacity:1;fill:#000000;stroke:url(#linearGradient885);stroke-width:0.52915625;stroke-dasharray:none"
     id="rect246"
     width="14.287219"
     height="14.287219"
     x="1.3361193"
     y="1.3567564"
     rx="2.1166251"
     ry="2.1166251" />
  <g
     aria-label="Krita"
     id="text1450"
     style="font-size:1.76385px;opacity:1;fill:#999999;stroke-width:0.529156">
    <rect
       style="font-size:1.76385px;fill:#ff0000;fill-opacity:1;stroke:none;stroke-width:0.519976;stroke-dasharray:none;filter:url(#filter3335)"
       id="rect1656-0"
       width="0.5055005"
       height="2.2653189"
       x="15.369148"
       y="4.3016486"
       rx="0"
       ry="0" />
    <rect
       style="opacity:1;fill:#ff0000;fill-opacity:1;stroke:none;stroke-width:0.519976;stroke-dasharray:none"
       id="rect1656"
       width="0.5055005"
       height="2.2653189"
       x="15.369148"
       y="4.3016486"
       rx="0"
       ry="0" />
  </g>
  <rect
     style="fill:url(#linearGradient1136);fill-opacity:1;stroke:none;stroke-width:0.478315;stroke-dasharray:none"
     id="rect246-5"
     width="12.914515"
     height="12.914515"
     x="2.0224717"
     y="2.0431087"
     rx="1.5874687"
     ry="1.5874687" />
  <path
     d="M 8.6010171,3.7740705 A 3.6904349,3.784054 0 0 0 4.9103549,7.5578916 3.6904349,3.784054 0 0 0 8.6010171,11.342179 3.6904349,3.784054 0 0 0 12.29168,7.5578916 3.6904349,3.784054 0 0 0 8.6010171,3.7740705 Z m 0,0.4813913 A 3.2210444,3.3027558 0 0 1 10.0808,4.6277455 L 9.5940457,5.480956 A 2.2577728,2.3150478 0 0 0 8.6010171,5.2427737 2.2577728,2.3150478 0 0 0 7.6217206,5.475056 L 7.1154457,4.6291075 A 3.2210444,3.3027558 0 0 1 8.6009944,4.2554498 Z m 0,1.4441492 A 1.8123285,1.8583036 0 0 1 10.4133,7.5578685 1.8123285,1.8583036 0 0 1 8.6010171,9.4161246 1.8123285,1.8583036 0 0 1 6.7887338,7.5578685 1.8123285,1.8583036 0 0 1 8.6010171,5.699611 Z m 2.8544759,0.3318356 a 3.2210444,3.3027558 0 0 1 0.366183,1.5264219 3.2210444,3.3027558 0 0 1 -0.365298,1.5223254 L 10.625592,8.5792763 A 2.2577728,2.3150478 0 0 0 10.858767,7.5578685 2.2577728,2.3150478 0 0 0 10.618942,6.5260101 L 11.45547,6.0314464 Z M 5.7358742,6.0564461 6.5750794,6.5387449 A 2.2577728,2.3150478 0 0 0 6.3432215,7.5578718 2.2577728,2.3150478 0 0 0 6.5817302,8.5879152 L 5.7434094,9.0792907 A 3.2210444,3.3027558 0 0 1 5.3798817,7.5578718 3.2210444,3.3027558 0 0 1 5.7358742,6.0564461 Z M 7.6066719,9.6347617 A 2.2577728,2.3150478 0 0 0 8.6010398,9.8729439 2.2577728,2.3150478 0 0 0 9.578112,9.6415714 l 0.514241,0.8418526 A 3.2210444,3.3027558 0 0 1 8.6010398,10.860713 3.2210444,3.3027558 0 0 1 7.0995351,10.477978 L 7.6066944,9.6347755 Z"
     fill="url(#linearGradient898)"
     stroke-width="0.586066"
     id="path27"
     style="fill:#999999;fill-opacity:1" />
  <g
     aria-label="Help"
     id="text1241"
     style="font-size:1.76385px;text-align:center;text-anchor:middle;fill:#999999;stroke-width:0.529156">
    <path
       d="M 7.6807828,14.17944 H 7.5220363 V 13.592078 H 6.8764672 V 14.17944 H 6.7177207 v -1.259389 h 0.1587465 v 0.532682 h 0.6455691 v -0.532682 h 0.1587465 z"
       id="path5489" />
    <path
       d="m 8.368683,13.216377 q 0.1217056,0 0.2081343,0.05292 0.088192,0.05292 0.1340525,0.149927 0.047624,0.09525 0.047624,0.224009 v 0.09348 H 8.1111609 q 0.00353,0.160511 0.081137,0.245175 0.079373,0.0829 0.2204812,0.0829 0.089956,0 0.1587465,-0.01587 0.070554,-0.01764 0.1446357,-0.04939 v 0.135816 q -0.072318,0.03175 -0.1428718,0.04586 -0.070554,0.01587 -0.1675658,0.01587 -0.1340526,0 -0.2381197,-0.05468 -0.1023033,-0.05468 -0.1605104,-0.162275 -0.056443,-0.109358 -0.056443,-0.266341 0,-0.155219 0.051152,-0.266341 0.052915,-0.111123 0.1463995,-0.171094 0.095248,-0.05997 0.2204813,-0.05997 z m -0.00176,0.126998 q -0.1111225,0 -0.176385,0.07232 -0.063499,0.07055 -0.075846,0.197551 h 0.481531 q -0.00176,-0.119942 -0.056443,-0.194024 -0.054679,-0.07584 -0.1728573,-0.07584 z"
       id="path5491" />
    <path
       d="M 9.1535948,14.17944 H 8.998376 v -1.340526 h 0.1552188 z"
       id="path5493" />
    <path
       d="m 9.9032299,13.216377 q 0.1746211,0 0.2804521,0.121706 0.107595,0.121706 0.107595,0.366881 0,0.241647 -0.107595,0.366881 -0.105831,0.125233 -0.2822159,0.125233 -0.1093587,0 -0.1816766,-0.04057 -0.070554,-0.04233 -0.1111225,-0.09701 h -0.010583 q 0.00353,0.02998 0.00706,0.07585 0.00353,0.04586 0.00353,0.07937 v 0.388047 H 9.4534482 v -1.368748 h 0.1269972 l 0.021166,0.128761 h 0.00706 q 0.042332,-0.06173 0.1111225,-0.104067 0.06879,-0.04233 0.1834404,-0.04233 z m -0.028222,0.130525 q -0.1446357,0 -0.2046066,0.08114 -0.058207,0.08114 -0.061735,0.246939 v 0.02999 q 0,0.174621 0.056443,0.269869 0.058207,0.09348 0.2134258,0.09348 0.086429,0 0.141108,-0.04762 0.05644,-0.04762 0.0829,-0.128761 0.02822,-0.0829 0.02822,-0.188732 0,-0.162274 -0.0635,-0.259286 -0.06174,-0.09701 -0.1922597,-0.09701 z"
       id="path5495" />
  </g>
</svg>
