<?xml version="1.0" encoding="UTF-8" standalone="no"?>
<svg
   width="64"
   height="64"
   version="1.1"
   viewBox="0 0 16.933 16.933"
   id="svg7"
   sodipodi:docname="Multimedia Template.svg"
   inkscape:version="1.4 (e7c3feb100, 2024-10-09)"
   xmlns:inkscape="http://www.inkscape.org/namespaces/inkscape"
   xmlns:sodipodi="http://sodipodi.sourceforge.net/DTD/sodipodi-0.dtd"
   xmlns:xlink="http://www.w3.org/1999/xlink"
   xmlns="http://www.w3.org/2000/svg"
   xmlns:svg="http://www.w3.org/2000/svg"
   xmlns:rdf="http://www.w3.org/1999/02/22-rdf-syntax-ns#"
   xmlns:cc="http://creativecommons.org/ns#"
   xmlns:dc="http://purl.org/dc/elements/1.1/">
  <sodipodi:namedview
     id="namedview7"
     pagecolor="#9c4444"
     bordercolor="#000000"
     borderopacity="0.25"
     inkscape:showpageshadow="2"
     inkscape:pageopacity="0.0"
     inkscape:pagecheckerboard="0"
     inkscape:deskcolor="#d1d1d1"
     inkscape:zoom="6.15625"
     inkscape:cx="15.675127"
     inkscape:cy="29.807107"
     inkscape:window-width="1183"
     inkscape:window-height="973"
     inkscape:window-x="35"
     inkscape:window-y="32"
     inkscape:window-maximized="0"
     inkscape:current-layer="svg7"
     showgrid="false" />
  <defs
     id="defs2">
    <rect
       x="67.489848"
       y="35.60533"
       width="15.337563"
       height="22.51269"
       id="rect3808" />
    <linearGradient
       inkscape:collect="always"
       id="linearGradient1134">
      <stop
         style="stop-color:#161616;stop-opacity:1;"
         offset="0"
         id="stop1130" />
      <stop
         style="stop-color:#404040;stop-opacity:1;"
         offset="1"
         id="stop1132" />
    </linearGradient>
    <linearGradient
       inkscape:collect="always"
       id="linearGradient883">
      <stop
         style="stop-color:#808080;stop-opacity:1;"
         offset="0"
         id="stop879" />
      <stop
         style="stop-color:#3e3e3e;stop-opacity:1;"
         offset="0.5"
         id="stop1216" />
      <stop
         style="stop-color:#242424;stop-opacity:1;"
         offset="1"
         id="stop881" />
    </linearGradient>
    <linearGradient
       inkscape:collect="always"
       xlink:href="#linearGradient883"
       id="linearGradient885"
       x1="2.1085808"
       y1="2.0236168"
       x2="14.846128"
       y2="15.071845"
       gradientUnits="userSpaceOnUse" />
    <linearGradient
       inkscape:collect="always"
       xlink:href="#linearGradient1134"
       id="linearGradient1136"
       x1="14.971222"
       y1="14.703373"
       x2="2.0756054"
       y2="2.0069976"
       gradientUnits="userSpaceOnUse" />
    <filter
       style="color-interpolation-filters:sRGB;"
       inkscape:label="Blur"
       id="filter1283"
       x="-0.082344266"
       y="-0.082344266"
       width="1.1646885"
       height="1.1646885">
      <feGaussianBlur
         stdDeviation="0.5 0.5"
         result="blur"
         id="feGaussianBlur1281" />
    </filter>
    <filter
       style="color-interpolation-filters:sRGB;"
       inkscape:label="Blur"
       id="filter1694"
       x="-0.94955398"
       y="-0.2118907"
       width="2.899108"
       height="1.4237814">
      <feGaussianBlur
         stdDeviation="0.2 0.2"
         result="blur"
         id="feGaussianBlur1692" />
    </filter>
    <filter
       style="color-interpolation-filters:sRGB;"
       inkscape:label="Blur"
       id="filter3148"
       x="-0.94955398"
       y="-0.2118907"
       width="2.899108"
       height="1.4237814">
      <feGaussianBlur
         stdDeviation="0.2 0.2"
         result="blur"
         id="feGaussianBlur3146" />
    </filter>
    <clipPath
       clipPathUnits="userSpaceOnUse"
       id="clipPath44">
      <path
         id="path46"
         style="display:block;opacity:0.85;fill:#f2f2f2;stroke-width:4.39162"
         d="m 17.570312,8.4453125 a 6.5431988,7.4283052 9.9958727e-8 0 0 -6.535156,7.4394535 6.5431988,7.4283052 9.9958727e-8 0 0 6.552735,7.417968 6.5431988,7.4283052 9.9958727e-8 0 0 6.535156,-7.4375 6.5431988,7.4283052 9.9958727e-8 0 0 -6.552735,-7.4199215 z M 45.646484,41.177734 a 6.5431986,7.0703472 2.4665357e-6 0 0 -6.533203,7.080078 6.5431986,7.0703472 2.4665357e-6 0 0 6.550781,7.060547 6.5431986,7.0703472 2.4665357e-6 0 0 6.535157,-7.080078 6.5431986,7.0703472 2.4665357e-6 0 0 -6.552735,-7.060547 z" />
    </clipPath>
    <inkscape:path-effect
       effect="powerclip"
       id="path-effect48"
       is_visible="true"
       lpeversion="1"
       inverse="true"
       flatten="false"
       hide_clip="false"
       message="" />
  </defs>
  <metadata
     id="metadata2">
    <rdf:RDF>
      <cc:Work
         rdf:about="">
        <dc:format>image/svg+xml</dc:format>
        <dc:type
           rdf:resource="http://purl.org/dc/dcmitype/StillImage" />
      </cc:Work>
    </rdf:RDF>
  </metadata>
  <rect
     style="fill:#000000;stroke:none;stroke-width:0.539739;stroke-dasharray:none;filter:url(#filter1283)"
     id="rect246-1"
     width="14.572964"
     height="14.572964"
     x="1.1932471"
     y="1.2138842"
     rx="2.1589575"
     ry="2.1589575" />
  <rect
     style="opacity:1;fill:#000000;stroke:url(#linearGradient885);stroke-width:0.52915625;stroke-dasharray:none"
     id="rect246"
     width="14.287219"
     height="14.287219"
     x="1.3361193"
     y="1.3567564"
     rx="2.1166251"
     ry="2.1166251" />
  <rect
     style="fill:url(#linearGradient1136);fill-opacity:1;stroke:none;stroke-width:0.478315;stroke-dasharray:none"
     id="rect246-5"
     width="12.914515"
     height="12.914515"
     x="2.0224717"
     y="2.0431087"
     rx="1.5874687"
     ry="1.5874687" />
  <path
     id="path11"
     style="fill:#999999;fill-opacity:1;stroke:none;stroke-width:0.0467249;stroke-opacity:1"
     d="m 8.7339061,3.4761895 c -0.00124,0.00252 8.829e-4,0.010613 0.0077,0.026492 0.083279,0.1936057 0.090639,0.3520015 0.023601,0.4970614 -0.027895,0.060358 -0.038229,0.1183779 -0.046238,0.2571999 -0.01205,0.2087953 -0.029861,0.2473088 -0.139679,0.3029578 -0.1516317,0.076837 -0.4729177,0.1488292 -0.6656383,0.1488292 -0.1242845,0 -0.2346813,-0.036533 -0.4479335,-0.1478662 -0.1353317,-0.070653 -0.178107,-0.085733 -0.2422668,-0.085733 h -0.078027 l 0.076582,0.073693 c 0.092595,0.089797 0.1255828,0.1781176 0.092476,0.2456406 -0.011721,0.023908 -0.031461,0.048475 -0.044312,0.054427 C 7.1458208,4.9064762 7.0619485,4.9611236 6.8448745,5.1248749 6.7061776,5.229502 6.5714695,5.3334924 6.5457708,5.3560664 l -0.04672,0.040941 0.09633,-0.00915 C 6.7264149,5.3756291 6.8238332,5.3356717 6.9975613,5.2231292 7.1934317,5.0962441 7.3183671,5.0504801 7.4960672,5.040103 7.6221126,5.032743 7.6402275,5.035263 7.6771671,5.064667 7.7666151,5.135895 7.7429641,5.2228998 7.5582,5.5048934 7.502431,5.5900104 7.4570536,5.6631255 7.4570536,5.6672094 c 0,0.015484 0.2623984,-0.1242129 0.3833926,-0.204219 0.069468,-0.045934 0.1652359,-0.1226506 0.2133703,-0.1700224 0.070738,-0.069616 0.09753,-0.085647 0.138715,-0.085252 0.082626,8.262e-4 0.136788,0.061689 0.136788,0.1541276 0,0.1519071 0.215074,0.5742466 0.3790574,0.7446288 0.035125,0.036496 0.068191,0.064834 0.073693,0.062616 C 8.8034142,6.1604212 8.9195361,6.015681 8.9891787,5.9109227 9.1114234,5.7270416 9.1867592,5.5489061 9.1996591,5.413862 c 0.00917,-0.095947 0.017962,-0.123229 0.047202,-0.1469028 0.061353,-0.049681 0.1094107,-0.035441 0.3255942,0.095366 0.2850882,0.1724988 0.3919698,0.246528 0.6935757,0.4811669 0.144403,0.1123415 0.269137,0.2003754 0.276948,0.19555 0.02284,-0.014115 0.0855,-0.147212 0.112704,-0.238898 0.02897,-0.097676 0.03318,-0.3311707 0.0077,-0.4373373 -0.04082,-0.1701037 -7.21e-4,-0.2334778 0.14883,-0.2345626 l 0.0944,-4.774e-4 -0.06214,-0.032752 C 10.730981,5.0351141 10.290431,4.8644641 10.090708,4.8031414 9.841985,4.7267729 9.573146,4.6815636 9.2579379,4.6634629 8.9829883,4.6476735 8.9645683,4.6412663 8.8870686,4.5281198 8.7897359,4.386024 8.7572456,4.1648378 8.8056698,3.9737422 8.8457907,3.8154178 8.8429148,3.662299 8.7974839,3.5677125 8.7715864,3.5137954 8.7376186,3.4686042 8.7339053,3.4761993 Z M 7.3419418,5.3358349 c -0.00835,-0.00835 -0.13797,0.064211 -0.3082555,0.1729115 -0.127338,0.081287 -0.227714,0.115379 -0.4084375,0.1387152 l -0.1387151,0.018301 -0.061168,0.077545 C 6.3117651,5.8870228 6.1910987,6.167774 6.125298,6.4416979 5.9819482,7.0384554 6.0930721,7.7283926 6.4725668,8.5946663 c 0.199554,0.4555235 0.8734309,1.7612807 1.0196501,1.9757237 0.1143281,0.16767 0.3841479,0.446276 0.520662,0.537519 0.1422201,0.09506 0.3022252,0.170833 0.4296307,0.20422 0.1401767,0.03674 0.3747162,0.04033 0.4999513,0.0076 0.2156753,-0.05617 0.4760843,-0.223824 0.7123592,-0.45853 0.2160608,-0.214627 0.3095846,-0.344178 0.6063949,-0.84144 0.135638,-0.2272416 0.312711,-0.5144561 0.393988,-0.6386663 0.461212,-0.7048202 0.495657,-0.7653144 0.60158,-1.0509392 0.140353,-0.3784243 0.201012,-0.6508127 0.213369,-0.9584352 0.01525,-0.3793939 -0.0345,-0.6394435 -0.180136,-0.942105 -0.08817,-0.1832338 -0.214899,-0.4000672 -0.313072,-0.5351078 l -0.04962,-0.068393 -0.03613,0.1030726 c -0.06112,0.1749689 -0.17566,0.3496919 -0.25767,0.392101 -0.09892,0.051153 -0.136381,0.035825 -0.376167,-0.1517192 C 9.9127897,5.9000711 9.6871674,5.7348589 9.5623422,5.6609464 9.4995815,5.6237836 9.4459815,5.5959011 9.4433751,5.5988138 c -0.0026,0.00292 -0.031119,0.067551 -0.063578,0.1435314 C 9.2963178,5.9377518 9.1047657,6.2201112 8.9694326,6.3477777 8.8471202,6.4631611 8.804122,6.4759792 8.6944113,6.4301393 8.5276282,6.3604532 8.2948508,6.0342621 8.1304006,5.6402355 L 8.1130645,5.5988138 7.9835011,5.6845476 C 7.844699,5.7764215 7.560574,5.9205207 7.4334588,5.9634216 7.3906277,5.9778784 7.3113775,5.990247 7.2571751,5.9913573 7.1644541,5.9932688 7.1559893,5.9905746 7.1131623,5.9427111 7.0384936,5.8592741 7.0535849,5.8083823 7.2383905,5.5183788 7.2996812,5.4221996 7.3462511,5.3401392 7.3419453,5.3358336 Z m 0.024083,1.292745 c 0.00854,8.72e-5 0.017047,0.00124 0.025529,0.00336 0.061611,0.015466 0.1513609,0.1188094 0.1916958,0.2210768 0.053401,0.1353913 0.052367,0.3423347 -0.00241,0.4488965 -0.021924,0.04265 -0.063397,0.093431 -0.091995,0.1127058 -0.036162,0.024376 -0.075095,0.03516 -0.1276296,0.03516 -0.064697,0 -0.084163,-0.00784 -0.1367885,-0.055389 C 7.1438752,7.3216292 7.1064559,7.2227852 7.1068998,7.0837355 7.1076636,6.8486448 7.2379292,6.6272696 7.3660269,6.6285778 Z m 2.6601462,0.00145 c 0.06491,-0.00466 0.121674,0.026073 0.186879,0.096811 0.09076,0.098462 0.129158,0.1920649 0.137751,0.3371544 0.0063,0.107828 0.0028,0.1296739 -0.03564,0.2080718 -0.03158,0.064556 -0.06161,0.099136 -0.114151,0.1324532 -0.142858,0.0906 -0.347771,0.044336 -0.4358961,-0.098252 -0.130064,-0.210448 -0.023058,-0.5774773 0.1926604,-0.6598584 0.024021,-0.00917 0.046764,-0.014821 0.0684,-0.016377 z M 8.251295,7.5066366 C 8.4180955,7.4926517 8.5964714,7.7198962 8.5971188,7.9637217 8.597539,8.1191396 8.5378915,8.2324392 8.4256517,8.2893158 8.1596937,8.4240884 7.8921864,8.187406 7.9560444,7.8741344 7.9926468,7.694573 8.0997194,7.5463568 8.218061,7.5124169 c 0.010967,-0.00314 0.022115,-0.00485 0.033234,-0.00579 z m 2.0393,0.5558227 c 0.02201,0.00149 0.045,0.00737 0.06984,0.016852 0.08346,0.031872 0.15483,0.1087183 0.209998,0.2263754 0.03304,0.07046 0.04045,0.1093175 0.04045,0.2109606 1.5e-5,0.1453962 -0.03724,0.2292912 -0.137269,0.3097007 -0.0505,0.040589 -0.07447,0.048624 -0.163278,0.052982 -0.152438,0.00745 -0.24089,-0.047344 -0.308738,-0.1912144 -0.07245,-0.1536276 -0.030573,-0.378496 0.09681,-0.5201757 0.06936,-0.077153 0.126149,-0.1099711 0.192177,-0.1054811 z M 9.3354856,8.8538061 c 0.032808,0.0013 0.05714,0.013568 0.1059635,0.046729 0.1299921,0.088277 0.2263794,0.3138461 0.2018098,0.4729812 -0.014388,0.093186 -0.08017,0.2031733 -0.1497917,0.2514201 -0.07765,0.053816 -0.2265511,0.067943 -0.3000677,0.028415 C 9.0642085,9.5838855 8.9950113,9.4646242 8.9959239,9.3128237 8.9972766,9.0835953 9.136235,8.8739095 9.2988808,8.8557404 c 0.014009,-0.00162 0.025671,-0.00235 0.036606,-0.00186 z m -1.549945,0.354014 c 0.037157,-0.00202 0.075026,0.015601 0.1170405,0.052504 0.075501,0.066299 0.1142132,0.1542006 0.1146322,0.2610543 C 8.0176716,9.6362316 7.9797283,9.7063776 7.8924669,9.751124 7.8034079,9.796781 7.7511184,9.7931 7.6709081,9.736188 7.5389088,9.642522 7.5397918,9.4122178 7.6728381,9.2723608 c 0.039159,-0.041156 0.075549,-0.062589 0.1127054,-0.064541 z" />
  <g
     aria-label="Krita"
     id="text1450"
     style="font-size:1.76385px;opacity:1;fill:#ff7f2a;stroke-width:0.529156">
    <rect
       style="font-size:1.76385px;fill:#ff7f2a;fill-opacity:1;stroke:none;stroke-width:0.519976;stroke-dasharray:none;filter:url(#filter3148)"
       id="rect1656-3"
       width="0.5055005"
       height="2.2653189"
       x="15.369148"
       y="4.3016486"
       rx="0"
       ry="0" />
    <rect
       style="opacity:1;fill:#ff7f2a;fill-opacity:1;stroke:none;stroke-width:0.519976;stroke-dasharray:none"
       id="rect1656"
       width="0.5055005"
       height="2.2653189"
       x="15.369148"
       y="4.3016486"
       rx="0"
       ry="0" />
  </g>
  <path
     style="font-size:1.76385px;text-align:center;text-anchor:middle;fill:#999999;stroke-width:0.529156"
     d="m 4.6197121,13.842122 q 0,0.167565 -0.1217057,0.26105 -0.1217056,0.09348 -0.3280761,0.09348 -0.105831,0 -0.1957873,-0.01588 -0.089956,-0.01587 -0.1499273,-0.0441 v -0.151691 q 0.063499,0.02822 0.1569827,0.05115 0.095248,0.02293 0.1957873,0.02293 0.141108,0 0.211662,-0.05468 0.072318,-0.05468 0.072318,-0.148163 0,-0.06173 -0.026458,-0.104068 -0.026458,-0.04233 -0.09172,-0.07761 -0.063499,-0.03704 -0.1781488,-0.07761 -0.1605104,-0.05821 -0.2434113,-0.142872 -0.081137,-0.08466 -0.081137,-0.231065 0,-0.100539 0.051152,-0.171093 0.051152,-0.07232 0.141108,-0.111123 0.09172,-0.0388 0.2098982,-0.0388 0.1040671,0 0.1904958,0.0194 0.086429,0.0194 0.1569826,0.05115 l -0.049388,0.135816 q -0.065262,-0.02822 -0.1428718,-0.04762 -0.075846,-0.0194 -0.1587465,-0.0194 -0.118178,0 -0.1781489,0.05115 -0.059971,0.04939 -0.059971,0.132289 0,0.0635 0.026458,0.105831 0.026458,0.04233 0.086429,0.07585 0.059971,0.03351 0.1622742,0.07232 0.1111226,0.04057 0.1869681,0.08819 0.077609,0.04586 0.1164141,0.111123 0.040569,0.06526 0.040569,0.164038 z m 0.5485569,0.227536 q 0.035277,0 0.072318,-0.0053 0.037041,-0.0071 0.059971,-0.01411 v 0.118178 q -0.024694,0.01235 -0.070554,0.0194 -0.04586,0.0088 -0.088193,0.0088 -0.074082,0 -0.1375803,-0.02469 -0.061735,-0.02646 -0.1005395,-0.08996 -0.038805,-0.0635 -0.038805,-0.178149 V 13.353535 H 4.7308342 v -0.07408 l 0.1358165,-0.06173 0.061735,-0.201079 h 0.09172 v 0.216953 h 0.2733968 v 0.119942 H 5.0201056 v 0.546794 q 0,0.08643 0.040569,0.128761 0.042332,0.04057 0.1075948,0.04057 z m 0.7619834,-0.853703 q 0.026458,0 0.056443,0.0035 0.031749,0.0018 0.054679,0.0071 l -0.019402,0.142872 q -0.02293,-0.0053 -0.051152,-0.0088 -0.026458,-0.0035 -0.051152,-0.0035 -0.072318,0 -0.1358165,0.04057 -0.063499,0.0388 -0.1023033,0.111122 -0.037041,0.07055 -0.037041,0.165802 v 0.504461 H 5.4892899 v -0.945424 h 0.1269972 l 0.017639,0.172858 h 0.00706 q 0.04586,-0.07761 0.1181779,-0.134053 0.072318,-0.05644 0.1710935,-0.05644 z m 0.6102913,0.0018 q 0.1728573,0 0.2557582,0.07584 0.082901,0.07585 0.082901,0.241648 v 0.643805 H 6.7663165 L 6.736331,14.044964 h -0.00706 q -0.061735,0.07761 -0.1305249,0.114651 -0.067026,0.03704 -0.1869681,0.03704 -0.128761,0 -0.2134258,-0.06703 -0.084665,-0.06879 -0.084665,-0.213426 0,-0.141108 0.1111225,-0.216953 0.1111226,-0.07761 0.3421869,-0.08466 l 0.1605104,-0.0053 v -0.05644 q 0,-0.118178 -0.051152,-0.164038 -0.051152,-0.04586 -0.1446357,-0.04586 -0.074082,0 -0.141108,0.02293 -0.067026,0.02117 -0.1252333,0.04939 l -0.047624,-0.116414 q 0.061735,-0.03351 0.1463996,-0.05644 0.084665,-0.02469 0.176385,-0.02469 z m 0.04586,0.504461 q -0.176385,0.0071 -0.2451752,0.05644 -0.067026,0.04939 -0.067026,0.139344 0,0.07937 0.047624,0.116414 0.049388,0.03704 0.1252333,0.03704 0.1199418,0 0.1993151,-0.06526 0.079373,-0.06703 0.079373,-0.204607 v -0.08466 z m 1.1958919,-0.07761 q -0.02293,-0.07232 -0.040569,-0.141108 -0.015875,-0.07055 -0.024694,-0.109359 h -0.00706 q -0.00706,0.0388 -0.02293,0.109359 -0.015875,0.06879 -0.040569,0.142871 L 7.4771497,14.177253 H 7.3007647 L 7.0414787,13.23183 h 0.1605104 l 0.1305249,0.504461 q 0.019402,0.07585 0.037041,0.153455 0.017638,0.07761 0.024694,0.128761 h 0.00706 q 0.00706,-0.02999 0.015875,-0.07408 0.010583,-0.0441 0.02293,-0.09172 0.012347,-0.04939 0.024694,-0.08819 L 7.6323685,13.23183 h 0.1693296 l 0.1622742,0.532682 q 0.019402,0.05997 0.037041,0.130525 0.019402,0.07055 0.026458,0.121706 h 0.00706 q 0.00529,-0.0441 0.02293,-0.121706 0.019402,-0.07761 0.040569,-0.158746 L 8.2303136,13.23183 H 8.3890601 L 8.1262465,14.177253 H 7.9445699 Z m 0.9313117,-0.479768 q 0,0.05997 -0.00353,0.112887 -0.00176,0.05115 -0.00529,0.08114 h 0.00882 q 0.040568,-0.05997 0.1111225,-0.10054 0.070554,-0.04057 0.1816766,-0.04057 0.176385,0 0.282216,0.123469 0.1075948,0.121706 0.1075948,0.365117 0,0.243412 -0.1075948,0.366881 -0.1075949,0.12347 -0.282216,0.12347 -0.1111226,0 -0.1816766,-0.04057 -0.070554,-0.04057 -0.1111225,-0.09701 h -0.012347 l -0.031749,0.119942 H 8.5583886 v -1.340526 h 0.1552188 z m 0.2663413,0.181677 q -0.1499272,0 -0.2081343,0.08643 -0.058207,0.08643 -0.058207,0.268105 v 0.0071 q 0,0.174621 0.056443,0.268105 0.058207,0.09172 0.2134258,0.09172 0.1269972,0 0.188732,-0.09348 0.063499,-0.09348 0.063499,-0.269869 0,-0.358061 -0.2557583,-0.358061 z m 1.0283243,-0.130525 q 0.121706,0 0.208134,0.05292 0.08819,0.05292 0.134053,0.149928 0.04762,0.09525 0.04762,0.224009 v 0.09348 H 9.7507508 q 0.00353,0.16051 0.081137,0.245175 0.079373,0.0829 0.2204811,0.0829 0.08996,0 0.158747,-0.01588 0.07055,-0.01764 0.144635,-0.04939 v 0.135817 q -0.07232,0.03175 -0.142872,0.04586 -0.07055,0.01588 -0.167565,0.01588 -0.1340529,0 -0.23812,-0.05468 -0.1023033,-0.05468 -0.1605104,-0.162274 -0.056443,-0.109359 -0.056443,-0.266341 0,-0.155219 0.051152,-0.266342 0.052916,-0.111122 0.1463995,-0.171093 0.095248,-0.05997 0.2204814,-0.05997 z m -0.0018,0.126997 q -0.1111225,0 -0.176385,0.07232 -0.063499,0.07055 -0.075845,0.197551 H 10.23581 q -0.0018,-0.119942 -0.05644,-0.194023 -0.05468,-0.07585 -0.172857,-0.07585 z m 1.072419,-0.126997 q 0.02646,0 0.05644,0.0035 0.03175,0.0018 0.05468,0.0071 l -0.0194,0.142872 q -0.02293,-0.0053 -0.05115,-0.0088 -0.02646,-0.0035 -0.05115,-0.0035 -0.07232,0 -0.135817,0.04057 -0.0635,0.0388 -0.102303,0.111122 -0.03704,0.07055 -0.03704,0.165802 v 0.504461 h -0.155218 v -0.945424 h 0.126997 l 0.01764,0.172858 h 0.0071 q 0.04586,-0.07761 0.118178,-0.134053 0.07232,-0.05644 0.171093,-0.05644 z m 0.72847,0 q 0.02646,0 0.05644,0.0035 0.03175,0.0018 0.05468,0.0071 l -0.0194,0.142872 q -0.02293,-0.0053 -0.05115,-0.0088 -0.02646,-0.0035 -0.05115,-0.0035 -0.07232,0 -0.135816,0.04057 -0.0635,0.0388 -0.102303,0.111122 -0.03704,0.07055 -0.03704,0.165802 v 0.504461 h -0.155219 v -0.945424 h 0.126997 l 0.01764,0.172858 h 0.0071 q 0.04586,-0.07761 0.118178,-0.134053 0.07232,-0.05644 0.171093,-0.05644 z m 0.139344,0.01764 h 0.165802 l 0.204607,0.537975 q 0.02646,0.07055 0.04762,0.135816 0.02117,0.0635 0.03175,0.121706 h 0.0071 q 0.01058,-0.0441 0.03351,-0.11465 0.02293,-0.07232 0.04762,-0.144636 l 0.192259,-0.536211 h 0.167566 l -0.407449,1.075949 q -0.04939,0.134053 -0.128761,0.213426 -0.07761,0.07937 -0.21519,0.07937 -0.04233,0 -0.07408,-0.0053 -0.03175,-0.0035 -0.05468,-0.0088 v -0.123469 q 0.0194,0.0035 0.04586,0.0071 0.02822,0.0035 0.05821,0.0035 0.08114,0 0.130525,-0.04586 0.05115,-0.04586 0.07937,-0.121706 l 0.04939,-0.125233 z"
     id="text2284"
     aria-label="Strawberry" />
  <text
     xml:space="preserve"
     transform="scale(0.26457812)"
     id="text3806"
     style="font-size:6.66667px;white-space:pre;shape-inside:url(#rect3808);display:inline;fill:#999999;stroke-width:2" />
</svg>
