<?xml version="1.0" encoding="UTF-8" standalone="no"?>
<svg
   width="64"
   height="64"
   version="1.1"
   viewBox="0 0 16.933 16.933"
   id="svg7"
   sodipodi:docname="org.gnome.Calendar.svg"
   inkscape:version="1.4 (e7c3feb100, 2024-10-09)"
   xmlns:inkscape="http://www.inkscape.org/namespaces/inkscape"
   xmlns:sodipodi="http://sodipodi.sourceforge.net/DTD/sodipodi-0.dtd"
   xmlns:xlink="http://www.w3.org/1999/xlink"
   xmlns="http://www.w3.org/2000/svg"
   xmlns:svg="http://www.w3.org/2000/svg"
   xmlns:rdf="http://www.w3.org/1999/02/22-rdf-syntax-ns#"
   xmlns:cc="http://creativecommons.org/ns#"
   xmlns:dc="http://purl.org/dc/elements/1.1/">
  <sodipodi:namedview
     id="namedview7"
     pagecolor="#9c4444"
     bordercolor="#000000"
     borderopacity="0.25"
     inkscape:showpageshadow="2"
     inkscape:pageopacity="0.0"
     inkscape:pagecheckerboard="0"
     inkscape:deskcolor="#d1d1d1"
     inkscape:zoom="6.15625"
     inkscape:cx="15.675127"
     inkscape:cy="29.807107"
     inkscape:window-width="1183"
     inkscape:window-height="973"
     inkscape:window-x="35"
     inkscape:window-y="32"
     inkscape:window-maximized="0"
     inkscape:current-layer="svg7"
     showgrid="false" />
  <defs
     id="defs2">
    <rect
       x="67.489848"
       y="35.60533"
       width="15.337563"
       height="22.51269"
       id="rect3808" />
    <linearGradient
       inkscape:collect="always"
       id="linearGradient1134">
      <stop
         style="stop-color:#161616;stop-opacity:1;"
         offset="0"
         id="stop1130" />
      <stop
         style="stop-color:#404040;stop-opacity:1;"
         offset="1"
         id="stop1132" />
    </linearGradient>
    <linearGradient
       inkscape:collect="always"
       id="linearGradient883">
      <stop
         style="stop-color:#808080;stop-opacity:1;"
         offset="0"
         id="stop879" />
      <stop
         style="stop-color:#3e3e3e;stop-opacity:1;"
         offset="0.5"
         id="stop1216" />
      <stop
         style="stop-color:#242424;stop-opacity:1;"
         offset="1"
         id="stop881" />
    </linearGradient>
    <linearGradient
       inkscape:collect="always"
       xlink:href="#linearGradient883"
       id="linearGradient885"
       x1="2.1085808"
       y1="2.0236168"
       x2="14.846128"
       y2="15.071845"
       gradientUnits="userSpaceOnUse" />
    <linearGradient
       inkscape:collect="always"
       xlink:href="#linearGradient1134"
       id="linearGradient1136"
       x1="14.971222"
       y1="14.703373"
       x2="2.0756054"
       y2="2.0069976"
       gradientUnits="userSpaceOnUse" />
    <filter
       style="color-interpolation-filters:sRGB;"
       inkscape:label="Blur"
       id="filter1283"
       x="-0.082344266"
       y="-0.082344266"
       width="1.1646885"
       height="1.1646885">
      <feGaussianBlur
         stdDeviation="0.5 0.5"
         result="blur"
         id="feGaussianBlur1281" />
    </filter>
    <filter
       style="color-interpolation-filters:sRGB;"
       inkscape:label="Blur"
       id="filter1694"
       x="-0.94955398"
       y="-0.2118907"
       width="2.899108"
       height="1.4237814">
      <feGaussianBlur
         stdDeviation="0.2 0.2"
         result="blur"
         id="feGaussianBlur1692" />
    </filter>
    <filter
       style="color-interpolation-filters:sRGB;"
       inkscape:label="Blur"
       id="filter3148"
       x="-0.94955398"
       y="-0.2118907"
       width="2.899108"
       height="1.4237814">
      <feGaussianBlur
         stdDeviation="0.2 0.2"
         result="blur"
         id="feGaussianBlur3146" />
    </filter>
    <clipPath
       clipPathUnits="userSpaceOnUse"
       id="clipPath44">
      <path
         id="path46"
         style="display:block;opacity:0.85;fill:#f2f2f2;stroke-width:4.39162"
         d="m 17.570312,8.4453125 a 6.5431988,7.4283052 9.9958727e-8 0 0 -6.535156,7.4394535 6.5431988,7.4283052 9.9958727e-8 0 0 6.552735,7.417968 6.5431988,7.4283052 9.9958727e-8 0 0 6.535156,-7.4375 6.5431988,7.4283052 9.9958727e-8 0 0 -6.552735,-7.4199215 z M 45.646484,41.177734 a 6.5431986,7.0703472 2.4665357e-6 0 0 -6.533203,7.080078 6.5431986,7.0703472 2.4665357e-6 0 0 6.550781,7.060547 6.5431986,7.0703472 2.4665357e-6 0 0 6.535157,-7.080078 6.5431986,7.0703472 2.4665357e-6 0 0 -6.552735,-7.060547 z" />
    </clipPath>
    <inkscape:path-effect
       effect="powerclip"
       id="path-effect48"
       is_visible="true"
       lpeversion="1"
       inverse="true"
       flatten="false"
       hide_clip="false"
       message="" />
  </defs>
  <metadata
     id="metadata2">
    <rdf:RDF>
      <cc:Work
         rdf:about="">
        <dc:format>image/svg+xml</dc:format>
        <dc:type
           rdf:resource="http://purl.org/dc/dcmitype/StillImage" />
      </cc:Work>
    </rdf:RDF>
  </metadata>
  <rect
     style="fill:#000000;stroke:none;stroke-width:0.539739;stroke-dasharray:none;filter:url(#filter1283)"
     id="rect246-1"
     width="14.572964"
     height="14.572964"
     x="1.1932471"
     y="1.2138842"
     rx="2.1589575"
     ry="2.1589575" />
  <rect
     style="opacity:1;fill:#000000;stroke:url(#linearGradient885);stroke-width:0.52915625;stroke-dasharray:none"
     id="rect246"
     width="14.287219"
     height="14.287219"
     x="1.3361193"
     y="1.3567564"
     rx="2.1166251"
     ry="2.1166251" />
  <rect
     style="fill:url(#linearGradient1136);fill-opacity:1;stroke:none;stroke-width:0.478315;stroke-dasharray:none"
     id="rect246-5"
     width="12.914515"
     height="12.914515"
     x="2.0224717"
     y="2.0431087"
     rx="1.5874687"
     ry="1.5874687" />
  <path
     id="path51393"
     style="fill:#999999;fill-opacity:1;stroke:none;stroke-width:0.192877;stroke-dasharray:none;stroke-opacity:0.3"
     d="M 10.441956,5.1921879 C 9.5651508,5.1906976 9.0365393,5.6838538 8.823326,6.701876 8.7125241,7.2309249 8.7138247,8.1701358 8.8260638,8.5867066 8.9848981,9.176232 9.3232027,9.5547906 9.7691628,9.6428513 10.132082,9.714512 10.575983,9.5755403 10.800236,9.3201276 11.082252,8.9989259 11.217695,8.4341301 11.140276,7.9029714 11.087933,7.543799 10.968909,7.2977528 10.748726,7.0947959 10.561442,6.9221646 10.390633,6.8618948 10.09234,6.8627817 9.8163494,6.8635981 9.623008,6.9592942 9.4131621,7.1991795 L 9.2385817,7.3983744 V 7.2260731 c 0,-0.2582363 0.097592,-0.7179246 0.1982832,-0.9339826 C 9.5481928,6.0532097 9.7271319,5.8704431 9.943741,5.773819 10.140871,5.685885 10.571526,5.6494876 10.769238,5.704078 l 0.139479,0.03829 V 5.4898409 c 0,-0.2979828 0.0013,-0.2968594 -0.466761,-0.297653 z m -3.4761114,0.00364 c -0.031108,1.535e-4 -0.063022,0.00114 -0.095723,0.00274 -0.2746184,0.013297 -0.3548183,0.033032 -0.5447094,0.1349226 -0.1224596,0.065709 -0.28819,0.1753687 -0.3687613,0.2434099 L 5.8098758,5.7004328 5.9324923,5.8914229 c 0.067392,0.1050197 0.1335993,0.1909901 0.1472312,0.1909901 0.013631,0 0.086116,-0.050485 0.1609058,-0.1121325 C 6.4544686,5.7940156 6.6684312,5.7127387 6.9229972,5.7118284 7.3360913,5.710334 7.5375738,5.9393887 7.53608,6.4087828 7.5344033,6.9439555 7.435839,7.1055849 6.1996051,8.6058531 L 5.7875406,9.1063476 V 9.3570507 9.6077532 H 6.9936499 8.1997593 V 9.3292458 9.0511936 H 7.305889 c -0.5168287,0 -0.8887161,-0.014337 -0.8815629,-0.033728 0.0068,-0.018444 0.229695,-0.2875451 0.4950244,-0.5980416 C 7.9062319,7.2645434 8.0748712,6.9396174 8.0443235,6.2533468 8.0315879,5.9672227 8.0130407,5.885037 7.9217069,5.717754 7.7228214,5.3534873 7.4324491,5.1935321 6.9658446,5.1958366 Z M 4.2409307,6.306219 C 4.1829917,6.3057289 4.1211534,6.335288 4.0604246,6.396016 l -0.091165,0.091165 v 0.9244105 c 0,0.8790073 0.00345,0.9289813 0.076579,1.0219566 0.1183719,0.1504854 0.2955489,0.1261492 0.3883618,-0.053331 0.07914,-0.1530397 0.07914,-1.7709918 0,-1.9240316 C 4.383111,6.357393 4.315425,6.306844 4.2409307,6.3062223 Z m 8.4979193,0 c -0.05793,-4.901e-4 -0.119774,0.029068 -0.180506,0.089797 l -0.09116,0.091165 v 0.9244105 c 0,0.8790102 0.0039,0.9289813 0.07703,1.0219566 0.118372,0.1504862 0.295546,0.1261492 0.38836,-0.053331 0.07914,-0.1530403 0.07914,-1.7709909 0,-1.9240315 -0.05108,-0.098795 -0.119228,-0.1493446 -0.193725,-0.1499663 z m -2.732205,1.0379104 c 0.269648,0 0.429841,0.092649 0.546076,0.3154301 0.06542,0.1254007 0.07749,0.2147219 0.07749,0.5752491 0,0.3981932 -0.0068,0.438264 -0.101648,0.5994079 -0.07051,0.1199342 -0.150517,0.1962323 -0.262097,0.250249 -0.182961,0.088569 -0.3650556,0.097472 -0.5269341,0.025523 C 9.3295898,8.9277925 9.1132379,8.1272381 9.3602863,7.7069682 9.503887,7.46268 9.715135,7.3441325 10.006645,7.3441325 Z" />
  <g
     fill="#474747"
     id="g9"
     transform="matrix(0.46959567,0,0,0.46959567,4.7471229,3.7470598)"
     style="fill:#999999;fill-opacity:1;stroke:none;stroke-width:0.58349;stroke-dasharray:none;stroke-opacity:0.3" />
  <g
     aria-label="Krita"
     id="text1450"
     style="font-size:1.76385px;opacity:1;fill:#00ffff;stroke-width:0.529156">
    <rect
       style="font-size:1.76385px;fill:#00ffff;fill-opacity:1;stroke:none;stroke-width:0.519976;stroke-dasharray:none;filter:url(#filter3148)"
       id="rect1656-3"
       width="0.5055005"
       height="2.2653189"
       x="15.369148"
       y="4.3016486"
       rx="0"
       ry="0" />
    <rect
       style="opacity:1;fill:#00ffff;fill-opacity:1;stroke:none;stroke-width:0.519976;stroke-dasharray:none"
       id="rect1656"
       width="0.5055005"
       height="2.2653189"
       x="15.369148"
       y="4.3016486"
       rx="0"
       ry="0" />
  </g>
  <g
     aria-label="Calendar"
     id="text2284"
     style="font-size:1.76385px;text-align:center;text-anchor:middle;opacity:1;fill:#999999;stroke-width:0.529156">
    <path
       d="m 5.480472,13.041334 q -0.2028428,0 -0.3192569,0.135816 -0.1164141,0.135817 -0.1164141,0.372173 0,0.234592 0.1075949,0.372172 0.1093587,0.135816 0.3263122,0.135816 0.082901,0 0.1569827,-0.01411 0.074082,-0.01411 0.1446357,-0.03528 v 0.13758 q -0.070554,0.02646 -0.1463996,0.0388 -0.074082,0.01235 -0.1781488,0.01235 -0.1922597,0 -0.3210207,-0.07937 -0.1287611,-0.07937 -0.1940235,-0.225772 -0.063499,-0.1464 -0.063499,-0.343951 0,-0.190496 0.06879,-0.335132 0.070554,-0.146399 0.2063705,-0.227536 0.1358164,-0.0829 0.3298399,-0.0829 0.1993151,0 0.3474785,0.07408 l -0.063499,0.134053 Q 5.7080086,13.083666 5.6356908,13.0625 5.5651368,13.041334 5.480472,13.041334 Z"
       id="path6500" />
    <path
       d="m 6.3923823,13.217719 q 0.1728573,0 0.2557583,0.07584 0.082901,0.07585 0.082901,0.241648 v 0.643805 H 6.6181551 l -0.029985,-0.134053 h -0.00706 q -0.061735,0.07761 -0.1305249,0.114651 -0.067026,0.03704 -0.1869681,0.03704 -0.1287611,0 -0.2134259,-0.06703 -0.084665,-0.06879 -0.084665,-0.213426 0,-0.141108 0.1111226,-0.216953 0.1111225,-0.07761 0.3421869,-0.08466 l 0.1605103,-0.0053 v -0.05644 q 0,-0.118178 -0.051152,-0.164038 -0.051152,-0.04586 -0.1446357,-0.04586 -0.074082,0 -0.141108,0.02293 -0.067026,0.02117 -0.1252334,0.04939 l -0.047624,-0.116414 q 0.061735,-0.03351 0.1463995,-0.05644 0.084665,-0.02469 0.176385,-0.02469 z m 0.04586,0.504461 q -0.176385,0.0071 -0.2451751,0.05644 -0.067026,0.04939 -0.067026,0.139344 0,0.07937 0.047624,0.116414 0.049388,0.03704 0.1252334,0.03704 0.1199418,0 0.199315,-0.06526 0.079373,-0.06703 0.079373,-0.204607 v -0.08466 z"
       id="path6502" />
    <path
       d="M 7.1790607,14.179017 H 7.0238419 v -1.340526 h 0.1552188 z"
       id="path6504" />
    <path
       d="m 7.8440313,13.215955 q 0.1217056,0 0.2081343,0.05292 0.088192,0.05292 0.1340526,0.149928 0.047624,0.09525 0.047624,0.224009 v 0.09348 H 7.5865092 q 0.00353,0.16051 0.081137,0.245175 0.079373,0.0829 0.2204812,0.0829 0.089956,0 0.1587465,-0.01588 0.070554,-0.01764 0.1446357,-0.04939 v 0.135817 q -0.072318,0.03175 -0.1428718,0.04586 -0.070554,0.01588 -0.1675658,0.01588 -0.1340526,0 -0.2381197,-0.05468 -0.1023033,-0.05468 -0.1605104,-0.162274 -0.056443,-0.109359 -0.056443,-0.266341 0,-0.155219 0.051152,-0.266342 0.052916,-0.111122 0.1463995,-0.171093 0.095248,-0.05997 0.2204813,-0.05997 z m -0.00176,0.126997 q -0.1111225,0 -0.176385,0.07232 -0.063499,0.07055 -0.075845,0.197551 h 0.481531 q -0.00176,-0.119942 -0.056443,-0.194023 -0.054679,-0.07585 -0.1728573,-0.07585 z"
       id="path6506" />
    <path
       d="m 8.9287975,13.215955 q 0.1693296,0 0.2557582,0.0829 0.086429,0.08114 0.086429,0.264577 v 0.615584 H 9.1175295 v -0.605 q 0,-0.227537 -0.211662,-0.227537 -0.1569827,0 -0.2169536,0.08819 -0.059971,0.08819 -0.059971,0.253995 v 0.49035 H 8.4737242 v -0.945424 h 0.1252334 l 0.02293,0.128762 h 0.00882 q 0.04586,-0.07408 0.1269972,-0.109359 0.081137,-0.03704 0.1710934,-0.03704 z"
       id="path6508" />
    <path
       d="m 9.8989152,14.196656 q -0.176385,0 -0.282216,-0.121706 -0.105831,-0.12347 -0.105831,-0.366881 0,-0.243411 0.105831,-0.366881 0.1075949,-0.125233 0.2839799,-0.125233 0.1093589,0 0.1781489,0.04057 0.07055,0.04057 0.11465,0.09877 h 0.01058 q -0.0018,-0.02293 -0.0071,-0.06703 -0.0035,-0.04586 -0.0035,-0.07232 v -0.377464 h 0.155219 v 1.340526 h -0.125233 l -0.02293,-0.126997 h -0.0071 q -0.04233,0.05997 -0.112886,0.102303 -0.07055,0.04233 -0.1816768,0.04233 z m 0.024694,-0.128761 q 0.1499269,0 0.2098979,-0.08114 0.06174,-0.0829 0.06174,-0.248702 v -0.02822 q 0,-0.176385 -0.05821,-0.269869 -0.05821,-0.09525 -0.2151897,-0.09525 -0.1252334,0 -0.188732,0.100539 -0.061735,0.09878 -0.061735,0.266342 0,0.169329 0.061735,0.262813 0.063499,0.09348 0.1904958,0.09348 z"
       id="path6510" />
    <path
       d="m 11.006613,13.217719 q 0.172857,0 0.255758,0.07584 0.0829,0.07585 0.0829,0.241648 v 0.643805 H 11.232385 L 11.2024,14.044964 h -0.0071 q -0.06174,0.07761 -0.130525,0.114651 -0.06703,0.03704 -0.186968,0.03704 -0.128761,0 -0.213426,-0.06703 -0.08467,-0.06879 -0.08467,-0.213426 0,-0.141108 0.111122,-0.216953 0.111123,-0.07761 0.342187,-0.08466 l 0.160511,-0.0053 v -0.05644 q 0,-0.118178 -0.05115,-0.164038 -0.05115,-0.04586 -0.144636,-0.04586 -0.07408,0 -0.141108,0.02293 -0.06703,0.02117 -0.125233,0.04939 l -0.04762,-0.116414 q 0.06174,-0.03351 0.1464,-0.05644 0.08466,-0.02469 0.176385,-0.02469 z m 0.04586,0.504461 q -0.176385,0.0071 -0.245175,0.05644 -0.06703,0.04939 -0.06703,0.139344 0,0.07937 0.04762,0.116414 0.04939,0.03704 0.125234,0.03704 0.119941,0 0.199315,-0.06526 0.07937,-0.06703 0.07937,-0.204607 v -0.08466 z"
       id="path6512" />
    <path
       d="m 12.079035,13.215955 q 0.02646,0 0.05644,0.0035 0.03175,0.0018 0.05468,0.0071 l -0.0194,0.142872 q -0.02293,-0.0053 -0.05115,-0.0088 -0.02646,-0.0035 -0.05115,-0.0035 -0.07232,0 -0.135816,0.04057 -0.0635,0.0388 -0.102303,0.111122 -0.03704,0.07055 -0.03704,0.165802 v 0.504461 h -0.155219 v -0.945424 h 0.126997 l 0.01764,0.172858 h 0.0071 q 0.04586,-0.07761 0.118178,-0.134053 0.07232,-0.05644 0.171094,-0.05644 z"
       id="path6514" />
  </g>
  <text
     xml:space="preserve"
     transform="scale(0.26457812)"
     id="text3806"
     style="font-size:6.66667px;white-space:pre;shape-inside:url(#rect3808);display:inline;fill:#999999;stroke-width:2" />
</svg>
