<?xml version="1.0" encoding="UTF-8" standalone="no"?>
<svg
   width="64"
   height="64"
   version="1.1"
   viewBox="0 0 16.933 16.933"
   id="svg7"
   sodipodi:docname="org.gnome.Cheese.svg"
   inkscape:version="1.4 (e7c3feb100, 2024-10-09)"
   xmlns:inkscape="http://www.inkscape.org/namespaces/inkscape"
   xmlns:sodipodi="http://sodipodi.sourceforge.net/DTD/sodipodi-0.dtd"
   xmlns:xlink="http://www.w3.org/1999/xlink"
   xmlns="http://www.w3.org/2000/svg"
   xmlns:svg="http://www.w3.org/2000/svg"
   xmlns:rdf="http://www.w3.org/1999/02/22-rdf-syntax-ns#"
   xmlns:cc="http://creativecommons.org/ns#"
   xmlns:dc="http://purl.org/dc/elements/1.1/">
  <sodipodi:namedview
     id="namedview7"
     pagecolor="#9c4444"
     bordercolor="#000000"
     borderopacity="0.25"
     inkscape:showpageshadow="2"
     inkscape:pageopacity="0.0"
     inkscape:pagecheckerboard="0"
     inkscape:deskcolor="#d1d1d1"
     inkscape:zoom="6.15625"
     inkscape:cx="15.675127"
     inkscape:cy="29.807107"
     inkscape:window-width="1183"
     inkscape:window-height="973"
     inkscape:window-x="35"
     inkscape:window-y="32"
     inkscape:window-maximized="0"
     inkscape:current-layer="svg7"
     showgrid="false" />
  <defs
     id="defs2">
    <rect
       x="67.489848"
       y="35.60533"
       width="15.337563"
       height="22.51269"
       id="rect3808" />
    <linearGradient
       inkscape:collect="always"
       id="linearGradient1134">
      <stop
         style="stop-color:#161616;stop-opacity:1;"
         offset="0"
         id="stop1130" />
      <stop
         style="stop-color:#404040;stop-opacity:1;"
         offset="1"
         id="stop1132" />
    </linearGradient>
    <linearGradient
       inkscape:collect="always"
       id="linearGradient883">
      <stop
         style="stop-color:#808080;stop-opacity:1;"
         offset="0"
         id="stop879" />
      <stop
         style="stop-color:#3e3e3e;stop-opacity:1;"
         offset="0.5"
         id="stop1216" />
      <stop
         style="stop-color:#242424;stop-opacity:1;"
         offset="1"
         id="stop881" />
    </linearGradient>
    <linearGradient
       inkscape:collect="always"
       xlink:href="#linearGradient883"
       id="linearGradient885"
       x1="2.1085808"
       y1="2.0236168"
       x2="14.846128"
       y2="15.071845"
       gradientUnits="userSpaceOnUse" />
    <linearGradient
       inkscape:collect="always"
       xlink:href="#linearGradient1134"
       id="linearGradient1136"
       x1="14.971222"
       y1="14.703373"
       x2="2.0756054"
       y2="2.0069976"
       gradientUnits="userSpaceOnUse" />
    <filter
       style="color-interpolation-filters:sRGB;"
       inkscape:label="Blur"
       id="filter1283"
       x="-0.082344266"
       y="-0.082344266"
       width="1.1646885"
       height="1.1646885">
      <feGaussianBlur
         stdDeviation="0.5 0.5"
         result="blur"
         id="feGaussianBlur1281" />
    </filter>
    <filter
       style="color-interpolation-filters:sRGB;"
       inkscape:label="Blur"
       id="filter1694"
       x="-0.94955398"
       y="-0.2118907"
       width="2.899108"
       height="1.4237814">
      <feGaussianBlur
         stdDeviation="0.2 0.2"
         result="blur"
         id="feGaussianBlur1692" />
    </filter>
    <filter
       style="color-interpolation-filters:sRGB;"
       inkscape:label="Blur"
       id="filter3148"
       x="-0.94955398"
       y="-0.2118907"
       width="2.899108"
       height="1.4237814">
      <feGaussianBlur
         stdDeviation="0.2 0.2"
         result="blur"
         id="feGaussianBlur3146" />
    </filter>
    <clipPath
       clipPathUnits="userSpaceOnUse"
       id="clipPath44">
      <path
         id="path46"
         style="display:block;opacity:0.85;fill:#f2f2f2;stroke-width:4.39162"
         d="m 17.570312,8.4453125 a 6.5431988,7.4283052 9.9958727e-8 0 0 -6.535156,7.4394535 6.5431988,7.4283052 9.9958727e-8 0 0 6.552735,7.417968 6.5431988,7.4283052 9.9958727e-8 0 0 6.535156,-7.4375 6.5431988,7.4283052 9.9958727e-8 0 0 -6.552735,-7.4199215 z M 45.646484,41.177734 a 6.5431986,7.0703472 2.4665357e-6 0 0 -6.533203,7.080078 6.5431986,7.0703472 2.4665357e-6 0 0 6.550781,7.060547 6.5431986,7.0703472 2.4665357e-6 0 0 6.535157,-7.080078 6.5431986,7.0703472 2.4665357e-6 0 0 -6.552735,-7.060547 z" />
    </clipPath>
    <inkscape:path-effect
       effect="powerclip"
       id="path-effect48"
       is_visible="true"
       lpeversion="1"
       inverse="true"
       flatten="false"
       hide_clip="false"
       message="" />
  </defs>
  <metadata
     id="metadata2">
    <rdf:RDF>
      <cc:Work
         rdf:about="">
        <dc:format>image/svg+xml</dc:format>
        <dc:type
           rdf:resource="http://purl.org/dc/dcmitype/StillImage" />
      </cc:Work>
    </rdf:RDF>
  </metadata>
  <rect
     style="fill:#000000;stroke:none;stroke-width:0.539739;stroke-dasharray:none;filter:url(#filter1283)"
     id="rect246-1"
     width="14.572964"
     height="14.572964"
     x="1.1932471"
     y="1.2138842"
     rx="2.1589575"
     ry="2.1589575" />
  <rect
     style="opacity:1;fill:#000000;stroke:url(#linearGradient885);stroke-width:0.52915625;stroke-dasharray:none"
     id="rect246"
     width="14.287219"
     height="14.287219"
     x="1.3361193"
     y="1.3567564"
     rx="2.1166251"
     ry="2.1166251" />
  <rect
     style="fill:url(#linearGradient1136);fill-opacity:1;stroke:none;stroke-width:0.478315;stroke-dasharray:none"
     id="rect246-5"
     width="12.914515"
     height="12.914515"
     x="2.0224717"
     y="2.0431087"
     rx="1.5874687"
     ry="1.5874687" />
  <path
     style="fill:#999999;fill-opacity:1;stroke:none;stroke-width:0.244138;stroke-dasharray:none;stroke-opacity:0.3"
     d="m 8.4743495,3.7348885 a 3.3381879,3.3375519 0 0 0 -3.2934799,3.3375513 3.3381879,3.3375519 0 0 0 1.921507,3.0218632 c -0.5111515,0.170683 -0.9677385,0.366361 -0.9677385,0.528011 v 0.370632 c 0,0.205446 0.1775521,0.370634 0.3977132,0.370634 h 3.9734137 c 0.22016,0 0.397712,-0.165188 0.397712,-0.370634 v -0.370632 c 0,-0.16165 -0.456588,-0.357328 -0.967739,-0.528011 a 3.3381879,3.3375519 0 0 0 1.921507,-3.0218632 3.3381879,3.3375519 0 0 0 -3.3381878,-3.3375513 3.3381879,3.3375519 0 0 0 -0.044708,0 z m 0.01583,1.430379 a 1.9075358,1.9071725 0 0 1 0.028876,0 A 1.9075358,1.9071725 0 0 1 10.426586,7.0724398 1.9075358,1.9071725 0 0 1 8.5190531,8.9796143 1.9075358,1.9071725 0 0 1 6.6115169,7.0724398 1.9075358,1.9071725 0 0 1 8.4901795,5.1652675 Z m 0.00559,0.953586 A 0.95376789,0.95358618 0 0 0 7.565283,7.0724398 0.95376789,0.95358618 0 0 0 8.5190503,8.0260267 0.95376789,0.95358618 0 0 0 9.4728185,7.0724398 0.95376789,0.95358618 0 0 0 8.5190503,6.1188535 a 0.95376789,0.95358618 0 0 0 -0.023288,0 z"
     id="path2" />
  <g
     fill="#474747"
     id="g9"
     transform="matrix(0.46959567,0,0,0.46959567,4.7471229,3.7470598)"
     style="fill:#999999;fill-opacity:1;stroke:none;stroke-width:0.58349;stroke-dasharray:none;stroke-opacity:0.3" />
  <g
     aria-label="Krita"
     id="text1450"
     style="font-size:1.76385px;opacity:1;fill:#00ffff;stroke-width:0.529156">
    <rect
       style="font-size:1.76385px;fill:#00ffff;fill-opacity:1;stroke:none;stroke-width:0.519976;stroke-dasharray:none;filter:url(#filter3148)"
       id="rect1656-3"
       width="0.5055005"
       height="2.2653189"
       x="15.369148"
       y="4.3016486"
       rx="0"
       ry="0" />
    <rect
       style="opacity:1;fill:#00ffff;fill-opacity:1;stroke:none;stroke-width:0.519976;stroke-dasharray:none"
       id="rect1656"
       width="0.5055005"
       height="2.2653189"
       x="15.369148"
       y="4.3016486"
       rx="0"
       ry="0" />
  </g>
  <g
     aria-label="Cheese"
     id="text2284"
     style="font-size:1.76385px;text-align:center;text-anchor:middle;opacity:1;fill:#999999;stroke-width:0.529156">
    <path
       d="m 6.1868961,13.041334 q -0.2028428,0 -0.3192569,0.135816 -0.1164141,0.135817 -0.1164141,0.372173 0,0.234592 0.1075949,0.372172 0.1093587,0.135816 0.3263122,0.135816 0.082901,0 0.1569827,-0.01411 0.074082,-0.01411 0.1446357,-0.03528 v 0.13758 q -0.070554,0.02646 -0.1463996,0.0388 -0.074082,0.01235 -0.1781488,0.01235 -0.1922597,0 -0.3210207,-0.07937 -0.1287611,-0.07937 -0.1940235,-0.225772 -0.063499,-0.1464 -0.063499,-0.343951 0,-0.190496 0.06879,-0.335132 0.070554,-0.146399 0.2063705,-0.227536 0.1358164,-0.0829 0.3298399,-0.0829 0.1993151,0 0.3474785,0.07408 l -0.063499,0.134053 q -0.058207,-0.02646 -0.1305249,-0.04762 -0.070554,-0.02117 -0.1552188,-0.02117 z"
       id="path2606" />
    <path
       d="m 6.8959637,13.23183 q 0,0.07055 -0.00882,0.132288 h 0.010583 q 0.04586,-0.07232 0.1234695,-0.109358 0.079373,-0.03704 0.1710934,-0.03704 0.1728573,0 0.259286,0.0829 0.086429,0.08114 0.086429,0.262813 v 0.615584 H 7.3845502 v -0.605 q 0,-0.227537 -0.211662,-0.227537 -0.1587465,0 -0.2187174,0.08996 -0.058207,0.08819 -0.058207,0.253995 v 0.488586 H 6.7407449 v -1.340526 h 0.1552188 z"
       id="path2608" />
    <path
       d="m 8.1959213,13.215955 q 0.1217056,0 0.2081343,0.05292 0.088192,0.05292 0.1340526,0.149928 0.047624,0.09525 0.047624,0.224009 v 0.09348 H 7.9383992 q 0.00353,0.16051 0.081137,0.245175 0.079373,0.0829 0.2204812,0.0829 0.089956,0 0.1587465,-0.01588 0.070554,-0.01764 0.1446357,-0.04939 v 0.135817 q -0.072318,0.03175 -0.1428718,0.04586 -0.070554,0.01588 -0.1675658,0.01588 -0.1340526,0 -0.2381197,-0.05468 -0.1023033,-0.05468 -0.1605104,-0.162274 -0.056443,-0.109359 -0.056443,-0.266341 0,-0.155219 0.051152,-0.266342 0.052916,-0.111122 0.1463995,-0.171093 0.095248,-0.05997 0.2204813,-0.05997 z m -0.00176,0.126997 q -0.1111225,0 -0.176385,0.07232 -0.063499,0.07055 -0.075845,0.197551 h 0.481531 q -0.00176,-0.119942 -0.056443,-0.194023 -0.054679,-0.07585 -0.1728573,-0.07585 z"
       id="path2610" />
    <path
       d="m 9.1907311,13.215955 q 0.1217057,0 0.2081343,0.05292 0.088192,0.05292 0.1340526,0.149928 0.047624,0.09525 0.047624,0.224009 v 0.09348 H 8.933209 q 0.00353,0.16051 0.081137,0.245175 0.079373,0.0829 0.2204813,0.0829 0.089956,0 0.1587465,-0.01588 0.070554,-0.01764 0.1446357,-0.04939 v 0.135817 q -0.072318,0.03175 -0.1428719,0.04586 -0.070554,0.01588 -0.1675657,0.01588 -0.1340526,0 -0.2381198,-0.05468 -0.1023033,-0.05468 -0.1605103,-0.162274 -0.056443,-0.109359 -0.056443,-0.266341 0,-0.155219 0.051152,-0.266342 0.052915,-0.111122 0.1463996,-0.171093 0.095248,-0.05997 0.2204812,-0.05997 z m -0.00176,0.126997 q -0.1111226,0 -0.176385,0.07232 -0.063499,0.07055 -0.075846,0.197551 h 0.4815311 q -0.00176,-0.119942 -0.056443,-0.194023 -0.054679,-0.07585 -0.1728573,-0.07585 z"
       id="path2612" />
    <path
       d="m 10.436008,13.917967 q 0,0.137581 -0.102304,0.208135 -0.102303,0.07055 -0.27516,0.07055 -0.098776,0 -0.1710937,-0.01588 -0.070554,-0.01587 -0.1252333,-0.0441 v -0.141108 q 0.056443,0.02822 0.1358164,0.05291 0.081137,0.02293 0.1640376,0.02293 0.118178,0 0.171094,-0.03704 0.05292,-0.0388 0.05292,-0.102303 0,-0.03528 -0.0194,-0.0635 -0.0194,-0.02822 -0.07055,-0.05644 -0.04939,-0.02822 -0.142872,-0.0635 -0.09172,-0.03528 -0.1569824,-0.07055 -0.065262,-0.03528 -0.1005395,-0.08466 -0.035277,-0.04939 -0.035277,-0.126997 0,-0.119942 0.097012,-0.185205 0.098776,-0.06526 0.2575221,-0.06526 0.08643,0 0.16051,0.01764 0.07585,0.01587 0.141108,0.04586 l -0.05292,0.123469 q -0.05997,-0.02469 -0.125234,-0.04233 -0.06526,-0.01764 -0.134052,-0.01764 -0.09525,0 -0.1463997,0.03175 -0.049388,0.02999 -0.049388,0.0829 0,0.0388 0.02293,0.06703 0.02293,0.02646 0.075845,0.05292 0.05468,0.02469 0.144636,0.05997 0.08996,0.03351 0.153455,0.06879 0.0635,0.03528 0.09701,0.08643 0.03351,0.04939 0.03351,0.125233 z"
       id="path2614" />
    <path
       d="m 11.030425,13.215955 q 0.121706,0 0.208135,0.05292 0.08819,0.05292 0.134052,0.149928 0.04762,0.09525 0.04762,0.224009 v 0.09348 h -0.647333 q 0.0035,0.16051 0.08114,0.245175 0.07937,0.0829 0.220482,0.0829 0.08996,0 0.158746,-0.01588 0.07055,-0.01764 0.144636,-0.04939 v 0.135817 q -0.07232,0.03175 -0.142872,0.04586 -0.07055,0.01588 -0.167566,0.01588 -0.134052,0 -0.23812,-0.05468 -0.102303,-0.05468 -0.16051,-0.162274 -0.05644,-0.109359 -0.05644,-0.266341 0,-0.155219 0.05115,-0.266342 0.05292,-0.111122 0.146399,-0.171093 0.09525,-0.05997 0.220481,-0.05997 z m -0.0018,0.126997 q -0.111123,0 -0.176385,0.07232 -0.0635,0.07055 -0.07585,0.197551 h 0.481531 q -0.0018,-0.119942 -0.05644,-0.194023 -0.05468,-0.07585 -0.172857,-0.07585 z"
       id="path2616" />
  </g>
  <text
     xml:space="preserve"
     transform="scale(0.26457812)"
     id="text3806"
     style="font-size:6.66667px;white-space:pre;shape-inside:url(#rect3808);display:inline;fill:#999999;stroke-width:2" />
</svg>
