<?xml version="1.0" encoding="UTF-8" standalone="no"?>
<svg
   width="64"
   height="64"
   version="1.1"
   viewBox="0 0 16.933 16.933"
   id="svg7"
   sodipodi:docname="Multimedia Template.svg"
   inkscape:version="1.4 (e7c3feb100, 2024-10-09)"
   xmlns:inkscape="http://www.inkscape.org/namespaces/inkscape"
   xmlns:sodipodi="http://sodipodi.sourceforge.net/DTD/sodipodi-0.dtd"
   xmlns:xlink="http://www.w3.org/1999/xlink"
   xmlns="http://www.w3.org/2000/svg"
   xmlns:svg="http://www.w3.org/2000/svg"
   xmlns:rdf="http://www.w3.org/1999/02/22-rdf-syntax-ns#"
   xmlns:cc="http://creativecommons.org/ns#"
   xmlns:dc="http://purl.org/dc/elements/1.1/">
  <sodipodi:namedview
     id="namedview7"
     pagecolor="#9c4444"
     bordercolor="#000000"
     borderopacity="0.25"
     inkscape:showpageshadow="2"
     inkscape:pageopacity="0.0"
     inkscape:pagecheckerboard="0"
     inkscape:deskcolor="#d1d1d1"
     inkscape:zoom="6.15625"
     inkscape:cx="15.675127"
     inkscape:cy="29.807107"
     inkscape:window-width="1183"
     inkscape:window-height="973"
     inkscape:window-x="35"
     inkscape:window-y="32"
     inkscape:window-maximized="0"
     inkscape:current-layer="svg7"
     showgrid="false" />
  <defs
     id="defs2">
    <rect
       x="67.489848"
       y="35.60533"
       width="15.337563"
       height="22.51269"
       id="rect3808" />
    <linearGradient
       inkscape:collect="always"
       id="linearGradient1134">
      <stop
         style="stop-color:#161616;stop-opacity:1;"
         offset="0"
         id="stop1130" />
      <stop
         style="stop-color:#404040;stop-opacity:1;"
         offset="1"
         id="stop1132" />
    </linearGradient>
    <linearGradient
       inkscape:collect="always"
       id="linearGradient883">
      <stop
         style="stop-color:#808080;stop-opacity:1;"
         offset="0"
         id="stop879" />
      <stop
         style="stop-color:#3e3e3e;stop-opacity:1;"
         offset="0.5"
         id="stop1216" />
      <stop
         style="stop-color:#242424;stop-opacity:1;"
         offset="1"
         id="stop881" />
    </linearGradient>
    <linearGradient
       inkscape:collect="always"
       xlink:href="#linearGradient883"
       id="linearGradient885"
       x1="2.1085808"
       y1="2.0236168"
       x2="14.846128"
       y2="15.071845"
       gradientUnits="userSpaceOnUse" />
    <linearGradient
       inkscape:collect="always"
       xlink:href="#linearGradient1134"
       id="linearGradient1136"
       x1="14.971222"
       y1="14.703373"
       x2="2.0756054"
       y2="2.0069976"
       gradientUnits="userSpaceOnUse" />
    <filter
       style="color-interpolation-filters:sRGB;"
       inkscape:label="Blur"
       id="filter1283"
       x="-0.082344266"
       y="-0.082344266"
       width="1.1646885"
       height="1.1646885">
      <feGaussianBlur
         stdDeviation="0.5 0.5"
         result="blur"
         id="feGaussianBlur1281" />
    </filter>
    <filter
       style="color-interpolation-filters:sRGB;"
       inkscape:label="Blur"
       id="filter1694"
       x="-0.94955398"
       y="-0.2118907"
       width="2.899108"
       height="1.4237814">
      <feGaussianBlur
         stdDeviation="0.2 0.2"
         result="blur"
         id="feGaussianBlur1692" />
    </filter>
    <filter
       style="color-interpolation-filters:sRGB;"
       inkscape:label="Blur"
       id="filter3148"
       x="-0.94955398"
       y="-0.2118907"
       width="2.899108"
       height="1.4237814">
      <feGaussianBlur
         stdDeviation="0.2 0.2"
         result="blur"
         id="feGaussianBlur3146" />
    </filter>
    <clipPath
       clipPathUnits="userSpaceOnUse"
       id="clipPath44">
      <path
         id="path46"
         style="display:block;opacity:0.85;fill:#f2f2f2;stroke-width:4.39162"
         d="m 17.570312,8.4453125 a 6.5431988,7.4283052 9.9958727e-8 0 0 -6.535156,7.4394535 6.5431988,7.4283052 9.9958727e-8 0 0 6.552735,7.417968 6.5431988,7.4283052 9.9958727e-8 0 0 6.535156,-7.4375 6.5431988,7.4283052 9.9958727e-8 0 0 -6.552735,-7.4199215 z M 45.646484,41.177734 a 6.5431986,7.0703472 2.4665357e-6 0 0 -6.533203,7.080078 6.5431986,7.0703472 2.4665357e-6 0 0 6.550781,7.060547 6.5431986,7.0703472 2.4665357e-6 0 0 6.535157,-7.080078 6.5431986,7.0703472 2.4665357e-6 0 0 -6.552735,-7.060547 z" />
    </clipPath>
    <inkscape:path-effect
       effect="powerclip"
       id="path-effect48"
       is_visible="true"
       lpeversion="1"
       inverse="true"
       flatten="false"
       hide_clip="false"
       message="" />
  </defs>
  <metadata
     id="metadata2">
    <rdf:RDF>
      <cc:Work
         rdf:about="">
        <dc:format>image/svg+xml</dc:format>
        <dc:type
           rdf:resource="http://purl.org/dc/dcmitype/StillImage" />
      </cc:Work>
    </rdf:RDF>
  </metadata>
  <rect
     style="fill:#000000;stroke:none;stroke-width:0.539739;stroke-dasharray:none;filter:url(#filter1283)"
     id="rect246-1"
     width="14.572964"
     height="14.572964"
     x="1.1932471"
     y="1.2138842"
     rx="2.1589575"
     ry="2.1589575" />
  <rect
     style="opacity:1;fill:#000000;stroke:url(#linearGradient885);stroke-width:0.52915625;stroke-dasharray:none"
     id="rect246"
     width="14.287219"
     height="14.287219"
     x="1.3361193"
     y="1.3567564"
     rx="2.1166251"
     ry="2.1166251" />
  <rect
     style="fill:url(#linearGradient1136);fill-opacity:1;stroke:none;stroke-width:0.478315;stroke-dasharray:none"
     id="rect246-5"
     width="12.914515"
     height="12.914515"
     x="2.0224717"
     y="2.0431087"
     rx="1.5874687"
     ry="1.5874687" />
  <path
     id="path52"
     style="fill:#999999;fill-opacity:1;stroke:none;stroke-width:0.256721;stroke-dasharray:none;stroke-dashoffset:2.2;stroke-opacity:0.3"
     d="m 8.5833599,3.8979044 c -0.07441,-0.00123 -0.149763,-1.007e-4 -0.2261345,0.00301 C 6.4879635,3.97702 5.0019707,5.3986593 4.8363521,7.2693588 4.6624334,9.2338164 6.1209031,10.995436 8.1075251,11.220438 9.1520593,11.338742 10.249464,10.964169 11.017686,10.227153 11.884942,9.3951247 12.286126,8.2710789 12.134317,7.0998834 11.972992,5.855268 11.204964,4.7951568 10.074541,4.25691 9.5812576,4.0220349 9.10423,3.9064411 8.5833599,3.8979028 Z m -0.054153,1.9474612 c 0.4680007,-2.97e-4 0.7747731,0.1120439 1.0344005,0.3785616 0.1556986,0.159831 0.2708458,0.3650342 0.340957,0.6082055 0.047052,0.1631737 0.051939,0.2273479 0.051147,0.6352817 -7.29e-4,0.3863071 -0.00792,0.4857826 -0.050634,0.6683739 -0.061853,0.2644332 -0.062249,0.2865028 -0.00207,0.4226853 0.058986,0.1333409 0.062163,0.2535651 0.00855,0.3354406 C 9.8572604,8.9768517 9.5204969,9.216527 9.431257,9.2358738 9.3286723,9.2581083 9.1926474,9.214749 9.0692418,9.1205501 8.9129232,9.0012279 8.8254806,8.9966709 8.6706241,9.0994901 8.6020844,9.1449959 8.4904493,9.2035833 8.4229293,9.2293536 8.2432347,9.2979362 7.9109463,9.3089361 7.7390116,9.2519121 7.2675378,9.0955653 6.9992589,8.6740192 7.0224868,8.1257618 7.0297259,7.9549104 7.0431198,7.8966045 7.1032135,7.7682594 7.1883305,7.5864752 7.3451162,7.4258138 7.538935,7.3225092 7.7410824,7.214766 7.8345777,7.1882435 8.1446334,7.1500254 8.3008797,7.1307672 8.4622478,7.1009248 8.5031387,7.0838402 8.6579312,7.0191631 8.7188855,6.8907078 8.6319999,6.8120779 8.5464991,6.7347009 8.4437418,6.7259546 8.0799519,6.7654474 7.6746518,6.8094447 7.4721599,6.802797 7.4070653,6.7438876 7.2904818,6.638381 7.2477428,6.373933 7.3198206,6.2038728 7.4194856,5.9687237 7.8341152,5.8458299 8.5292117,5.845368 Z M 8.564306,7.7742747 C 8.3708186,7.7712057 8.1847127,7.948756 8.2408986,8.1362899 8.2720557,8.2402825 8.3622192,8.3346131 8.4570048,8.3624243 8.5904917,8.4015905 8.7515022,8.3413436 8.8190199,8.2270446 8.9050122,8.0814723 8.8481286,7.8856859 8.6966771,7.8073674 8.6541665,7.7853849 8.6089568,7.7749827 8.564306,7.7742747 Z" />
  <g
     aria-label="Krita"
     id="text1450"
     style="font-size:1.76385px;opacity:1;fill:#ff7f2a;stroke-width:0.529156">
    <rect
       style="font-size:1.76385px;fill:#ff7f2a;fill-opacity:1;stroke:none;stroke-width:0.519976;stroke-dasharray:none;filter:url(#filter3148)"
       id="rect1656-3"
       width="0.5055005"
       height="2.2653189"
       x="15.369148"
       y="4.3016486"
       rx="0"
       ry="0" />
    <rect
       style="opacity:1;fill:#ff7f2a;fill-opacity:1;stroke:none;stroke-width:0.519976;stroke-dasharray:none"
       id="rect1656"
       width="0.5055005"
       height="2.2653189"
       x="15.369148"
       y="4.3016486"
       rx="0"
       ry="0" />
  </g>
  <path
     style="font-size:1.76385px;text-align:center;text-anchor:middle;fill:#999999;stroke-width:0.529156"
     d="M 5.2679103,14.179017 5.1162192,13.789206 H 4.6170497 L 4.4671224,14.179017 H 4.3066121 l 0.4921141,-1.26468 h 0.1428719 l 0.4903503,1.26468 z m -0.340423,-0.91191 q -0.00529,-0.01411 -0.017639,-0.05115 -0.012347,-0.03704 -0.024694,-0.07585 -0.010583,-0.04057 -0.017638,-0.06173 -0.012347,0.05468 -0.028222,0.107595 -0.015875,0.05115 -0.026458,0.08114 l -0.1428718,0.380991 h 0.3986301 z m 1.4463568,-0.03351 v 0.945424 H 6.2468469 l -0.02293,-0.125233 h -0.00706 q -0.04586,0.07408 -0.1269972,0.109358 -0.081137,0.03351 -0.1728573,0.03351 -0.1710935,0 -0.2575221,-0.08114 -0.086429,-0.0829 -0.086429,-0.262813 v -0.619112 h 0.1569827 v 0.608529 q 0,0.225773 0.2098981,0.225773 0.1569827,0 0.2169536,-0.08819 0.061735,-0.08819 0.061735,-0.253994 v -0.492115 z m 0.634986,0.963063 q -0.176385,0 -0.282216,-0.121706 -0.105831,-0.12347 -0.105831,-0.366881 0,-0.243411 0.105831,-0.366881 0.1075949,-0.125233 0.2839799,-0.125233 0.1093586,0 0.1781488,0.04057 0.070554,0.04057 0.1146502,0.09877 h 0.010583 q -0.00176,-0.02293 -0.00706,-0.06703 -0.00353,-0.04586 -0.00353,-0.07232 v -0.377464 h 0.1552188 v 1.340526 H 7.3333785 l -0.02293,-0.126997 h -0.00706 q -0.042332,0.05997 -0.1128864,0.102303 -0.070554,0.04233 -0.1816765,0.04233 z m 0.024694,-0.128761 q 0.1499272,0 0.2098981,-0.08114 0.061735,-0.0829 0.061735,-0.248702 v -0.02822 q 0,-0.176385 -0.058207,-0.269869 -0.058207,-0.09525 -0.2151896,-0.09525 -0.1252334,0 -0.188732,0.100539 -0.061735,0.09878 -0.061735,0.266342 0,0.169329 0.061735,0.262813 0.063499,0.09348 0.1904958,0.09348 z m 1.0830035,-0.850176 q 0.1728573,0 0.2557582,0.07584 0.082901,0.07585 0.082901,0.241648 v 0.643805 H 8.3423003 l -0.029986,-0.134053 h -0.00706 q -0.061735,0.07761 -0.1305249,0.114651 -0.067026,0.03704 -0.1869681,0.03704 -0.128761,0 -0.2134258,-0.06703 -0.084665,-0.06879 -0.084665,-0.213426 0,-0.141108 0.1111225,-0.216953 0.1111226,-0.07761 0.3421869,-0.08466 l 0.1605104,-0.0053 v -0.05644 q 0,-0.118178 -0.051152,-0.164038 -0.051152,-0.04586 -0.1446357,-0.04586 -0.074082,0 -0.141108,0.02293 -0.067026,0.02117 -0.1252333,0.04939 l -0.047624,-0.116414 q 0.061735,-0.03351 0.1463996,-0.05644 0.084665,-0.02469 0.176385,-0.02469 z m 0.04586,0.504461 q -0.176385,0.0071 -0.2451752,0.05644 -0.067026,0.04939 -0.067026,0.139344 0,0.07937 0.047624,0.116414 0.049388,0.03704 0.1252333,0.03704 0.1199418,0 0.1993151,-0.06526 0.079373,-0.06703 0.079373,-0.204607 v -0.08466 z m 0.9648271,0.474476 q -0.1252333,0 -0.2240089,-0.05115 -0.097012,-0.05115 -0.153455,-0.158747 -0.054679,-0.107594 -0.054679,-0.27516 0,-0.174621 0.058207,-0.28398 0.058207,-0.109359 0.1569827,-0.16051 0.1005394,-0.05115 0.2275366,-0.05115 0.072318,0 0.1393442,0.01588 0.067026,0.01411 0.1093587,0.03528 l -0.047624,0.128761 q -0.042332,-0.01587 -0.098776,-0.02999 -0.056443,-0.01411 -0.105831,-0.01411 -0.2786883,0 -0.2786883,0.358062 0,0.171093 0.067026,0.262814 0.06879,0.08996 0.2028428,0.08996 0.077609,0 0.1358164,-0.01587 0.059971,-0.01587 0.1093587,-0.0388 v 0.13758 q -0.047624,0.02469 -0.105831,0.03704 -0.056443,0.01411 -0.1375803,0.01411 z M 9.6740075,12.87906 q 0.035277,0 0.061735,0.02469 0.028222,0.02293 0.028222,0.07408 0,0.04939 -0.028222,0.07408 -0.026458,0.02469 -0.061735,0.02469 -0.038805,0 -0.065262,-0.02469 -0.026458,-0.02469 -0.026458,-0.07408 0,-0.05115 0.026458,-0.07408 0.026458,-0.02469 0.065262,-0.02469 z m 0.075845,0.354533 v 0.945424 H 9.5946342 v -0.945424 z m 1.121808,0.470948 q 0,0.234592 -0.119942,0.363354 -0.118178,0.128761 -0.321021,0.128761 -0.125233,0 -0.224009,-0.05644 -0.09701,-0.05821 -0.153455,-0.167565 -0.056443,-0.111123 -0.056443,-0.268106 0,-0.234592 0.1181779,-0.361589 0.118178,-0.126997 0.321021,-0.126997 0.128761,0 0.225773,0.05821 0.09877,0.05644 0.153455,0.165802 0.05644,0.107595 0.05644,0.264577 z m -0.71436,0 q 0,0.167566 0.06526,0.266342 0.06703,0.09701 0.211662,0.09701 0.142872,0 0.209898,-0.09701 0.06703,-0.09878 0.06703,-0.266342 0,-0.167565 -0.06703,-0.262813 -0.06703,-0.09525 -0.211662,-0.09525 -0.144636,0 -0.209898,0.09525 -0.06526,0.09525 -0.06526,0.262813 z m 1.749739,-0.470948 v 0.945424 h -0.126997 l -0.02293,-0.125233 h -0.0071 q -0.04586,0.07408 -0.126997,0.109358 -0.08114,0.03351 -0.172857,0.03351 -0.171094,0 -0.257522,-0.08114 -0.08643,-0.0829 -0.08643,-0.262813 v -0.619112 h 0.156983 v 0.608529 q 0,0.225773 0.209898,0.225773 0.156983,0 0.216954,-0.08819 0.06173,-0.08819 0.06173,-0.253994 v -0.492115 z m 0.915438,0.684374 q 0,0.137581 -0.102303,0.208135 -0.102303,0.07055 -0.275161,0.07055 -0.09877,0 -0.171093,-0.01588 -0.07055,-0.01587 -0.125233,-0.0441 v -0.141108 q 0.05644,0.02822 0.135816,0.05291 0.08114,0.02293 0.164038,0.02293 0.118178,0 0.171093,-0.03704 0.05292,-0.0388 0.05292,-0.102303 0,-0.03528 -0.0194,-0.0635 -0.0194,-0.02822 -0.07055,-0.05644 -0.04939,-0.02822 -0.142872,-0.0635 -0.09172,-0.03528 -0.156983,-0.07055 -0.06526,-0.03528 -0.100539,-0.08466 -0.03528,-0.04939 -0.03528,-0.126997 0,-0.119942 0.09701,-0.185205 0.09878,-0.06526 0.257523,-0.06526 0.08643,0 0.16051,0.01764 0.07584,0.01587 0.141108,0.04586 l -0.05292,0.123469 q -0.05997,-0.02469 -0.125233,-0.04233 -0.06526,-0.01764 -0.134053,-0.01764 -0.09525,0 -0.146399,0.03175 -0.04939,0.02999 -0.04939,0.0829 0,0.0388 0.02293,0.06703 0.02293,0.02646 0.07585,0.05292 0.05468,0.02469 0.144635,0.05997 0.08996,0.03351 0.153455,0.06879 0.0635,0.03528 0.09701,0.08643 0.03351,0.04939 0.03351,0.125233 z"
     id="text2284"
     aria-label="Audacious" />
  <text
     xml:space="preserve"
     transform="scale(0.26457812)"
     id="text3806"
     style="font-size:6.66667px;white-space:pre;shape-inside:url(#rect3808);display:inline;fill:#999999;stroke-width:2" />
</svg>
