<?xml version="1.0" encoding="UTF-8" standalone="no"?>
<svg
   width="64"
   height="64"
   version="1.1"
   viewBox="0 0 16.933 16.933"
   id="svg7"
   sodipodi:docname="org.gnome.Photos.svg"
   inkscape:version="1.4 (e7c3feb100, 2024-10-09)"
   xmlns:inkscape="http://www.inkscape.org/namespaces/inkscape"
   xmlns:sodipodi="http://sodipodi.sourceforge.net/DTD/sodipodi-0.dtd"
   xmlns:xlink="http://www.w3.org/1999/xlink"
   xmlns="http://www.w3.org/2000/svg"
   xmlns:svg="http://www.w3.org/2000/svg"
   xmlns:rdf="http://www.w3.org/1999/02/22-rdf-syntax-ns#"
   xmlns:cc="http://creativecommons.org/ns#"
   xmlns:dc="http://purl.org/dc/elements/1.1/">
  <sodipodi:namedview
     id="namedview7"
     pagecolor="#9c4444"
     bordercolor="#000000"
     borderopacity="0.25"
     inkscape:showpageshadow="2"
     inkscape:pageopacity="0.0"
     inkscape:pagecheckerboard="0"
     inkscape:deskcolor="#d1d1d1"
     inkscape:zoom="6.15625"
     inkscape:cx="15.675127"
     inkscape:cy="40.365482"
     inkscape:window-width="1183"
     inkscape:window-height="973"
     inkscape:window-x="35"
     inkscape:window-y="32"
     inkscape:window-maximized="0"
     inkscape:current-layer="text2284"
     showgrid="false" />
  <defs
     id="defs2">
    <linearGradient
       inkscape:collect="always"
       id="linearGradient1134">
      <stop
         style="stop-color:#161616;stop-opacity:1;"
         offset="0"
         id="stop1130" />
      <stop
         style="stop-color:#404040;stop-opacity:1;"
         offset="1"
         id="stop1132" />
    </linearGradient>
    <linearGradient
       inkscape:collect="always"
       id="linearGradient883">
      <stop
         style="stop-color:#808080;stop-opacity:1;"
         offset="0"
         id="stop879" />
      <stop
         style="stop-color:#3e3e3e;stop-opacity:1;"
         offset="0.5"
         id="stop1216" />
      <stop
         style="stop-color:#242424;stop-opacity:1;"
         offset="1"
         id="stop881" />
    </linearGradient>
    <linearGradient
       inkscape:collect="always"
       xlink:href="#linearGradient883"
       id="linearGradient885"
       x1="2.1085808"
       y1="2.0236168"
       x2="14.846128"
       y2="15.071845"
       gradientUnits="userSpaceOnUse" />
    <linearGradient
       inkscape:collect="always"
       xlink:href="#linearGradient1134"
       id="linearGradient1136"
       x1="14.971222"
       y1="14.703373"
       x2="2.0756054"
       y2="2.0069976"
       gradientUnits="userSpaceOnUse" />
    <filter
       style="color-interpolation-filters:sRGB;"
       inkscape:label="Blur"
       id="filter1283"
       x="-0.082344266"
       y="-0.082344266"
       width="1.1646885"
       height="1.1646885">
      <feGaussianBlur
         stdDeviation="0.5 0.5"
         result="blur"
         id="feGaussianBlur1281" />
    </filter>
    <filter
       style="color-interpolation-filters:sRGB;"
       inkscape:label="Blur"
       id="filter1694"
       x="-0.94955398"
       y="-0.2118907"
       width="2.899108"
       height="1.4237814">
      <feGaussianBlur
         stdDeviation="0.2 0.2"
         result="blur"
         id="feGaussianBlur1692" />
    </filter>
  </defs>
  <metadata
     id="metadata2">
    <rdf:RDF>
      <cc:Work
         rdf:about="">
        <dc:format>image/svg+xml</dc:format>
        <dc:type
           rdf:resource="http://purl.org/dc/dcmitype/StillImage" />
      </cc:Work>
    </rdf:RDF>
  </metadata>
  <rect
     style="fill:#000000;stroke:none;stroke-width:0.539739;stroke-dasharray:none;filter:url(#filter1283)"
     id="rect246-1"
     width="14.572964"
     height="14.572964"
     x="1.1932471"
     y="1.2138842"
     rx="2.1589575"
     ry="2.1589575" />
  <rect
     style="opacity:1;fill:#000000;stroke:url(#linearGradient885);stroke-width:0.52915625;stroke-dasharray:none"
     id="rect246"
     width="14.287219"
     height="14.287219"
     x="1.3361193"
     y="1.3567564"
     rx="2.1166251"
     ry="2.1166251" />
  <rect
     style="fill:url(#linearGradient1136);fill-opacity:1;stroke:none;stroke-width:0.478315;stroke-dasharray:none"
     id="rect246-5"
     width="12.914515"
     height="12.914515"
     x="2.0224717"
     y="2.0431087"
     rx="1.5874687"
     ry="1.5874687" />
  <path
     id="path60"
     style="fill:#999999;stroke:none;stroke-width:0.192877;stroke-dasharray:none;stroke-dashoffset:2.2;stroke-opacity:0.3"
     d="M 6.9997106,4.0968464 C 6.9349953,4.0961335 6.8701934,4.1010651 6.8057787,4.1122622 6.2645493,4.2063355 5.8425586,4.6202643 5.7525771,5.1455733 5.6448383,5.7745475 6.1341337,6.4571764 6.7719647,6.5677429 7.2960652,6.6585944 7.8470364,6.3684596 8.0916984,5.8730677 8.1979803,5.6578663 8.2020908,5.6396393 8.2020908,5.3419917 c 0,-0.2863399 -0.00656,-0.3227167 -0.093485,-0.5062129 C 7.8972385,4.3895662 7.452718,4.101845 6.9997106,4.0968471 Z m 3.6742704,1.2197842 c -0.423567,0.01867 -0.8366756,0.3078215 -0.957229,0.7329642 l -0.047735,0.1680748 -0.2068612,9.9e-4 C 9.1198335,6.2197306 8.8535451,6.3858851 8.6938827,6.6980249 8.5800399,6.9205883 8.5903233,7.1325395 8.7291879,7.4061263 L 8.8385862,7.6214389 8.656091,7.9212881 c -0.6793871,1.1159123 -1.1265544,1.834898 -1.1412167,1.834898 -0.00941,0 -0.154083,-0.2204019 -0.3212313,-0.4898033 C 7.0264948,8.9969806 6.7715384,8.5940146 6.6267642,8.3708131 L 6.363215,7.9650472 6.3095108,8.0316801 C 6.2084535,8.1564806 4.707332,10.597758 4.707332,10.637335 c 0,0.01184 0.029947,0.02686 0.066136,0.03382 0.036187,0.0068 1.6558529,0.01472 3.5996809,0.0169 3.3426841,0.0038 3.5335541,0.0013 3.5151461,-0.04674 -0.01069,-0.0279 -0.388734,-0.660198 -0.839876,-1.4052638 -0.451141,-0.7450668 -0.811568,-1.3634578 -0.801089,-1.373937 0.01049,-0.010479 0.370556,-0.028372 0.800096,-0.039781 0.810773,-0.021533 0.88331,-0.03255 1.051212,-0.1606159 C 12.288475,7.516916 12.369308,7.205283 12.267705,7.0088058 12.200255,6.8783637 11.991481,6.7161871 11.865422,6.696028 11.804022,6.686208 11.744358,6.6633 11.732652,6.645307 11.720952,6.627314 11.703892,6.4730237 11.694862,6.3026934 11.680922,6.0395555 11.667082,5.9735386 11.602362,5.8631136 11.500734,5.689694 11.258607,5.4674883 11.090686,5.3932089 10.957565,5.3343222 10.81517,5.3104067 10.673981,5.3166306 Z" />
  <g
     aria-label="Krita"
     id="text1450"
     style="font-size:1.76385px;opacity:1;fill:#999999;stroke-width:0.529156">
    <rect
       style="font-size:1.76385px;fill:#00ff00;fill-opacity:1;stroke:none;stroke-width:0.519976;stroke-dasharray:none;filter:url(#filter1694)"
       id="rect1656-7"
       width="0.5055005"
       height="2.2653189"
       x="15.369148"
       y="4.3016486"
       rx="0"
       ry="0" />
    <rect
       style="opacity:1;fill:#00ff00;fill-opacity:1;stroke:none;stroke-width:0.519976;stroke-dasharray:none"
       id="rect1656"
       width="0.5055005"
       height="2.2653189"
       x="15.369148"
       y="4.3016486"
       rx="0"
       ry="0" />
  </g>
  <g
     aria-label="Photos"
     id="text2284"
     style="font-size:1.76385px;text-align:center;text-anchor:middle;opacity:1;fill:#999999;stroke-width:0.529156">
    <path
       d="m 5.6269583,13.197911 q 0.093484,0 0.1675658,0.03528 0.075845,0.03528 0.128761,0.107595 h 0.00882 l 0.021166,-0.125233 h 0.1234695 v 0.961298 q 0,0.202843 -0.1040672,0.305146 -0.1023033,0.102304 -0.3192568,0.102304 -0.2081343,0 -0.3404231,-0.05997 v -0.142872 q 0.1393442,0.07408 0.3492423,0.07408 0.1217057,0 0.1904958,-0.07232 0.070554,-0.07055 0.070554,-0.194024 v -0.03704 q 0,-0.02117 0.00176,-0.05997 0.00176,-0.04057 0.00353,-0.05644 h -0.00706 q -0.095248,0.142872 -0.2927991,0.142872 -0.1834404,0 -0.2875076,-0.128761 -0.1023033,-0.128761 -0.1023033,-0.359825 0,-0.225773 0.1023033,-0.358062 0.1040672,-0.134053 0.2857437,-0.134053 z m 0.021166,0.130525 q -0.1181779,0 -0.1834404,0.09525 -0.065262,0.09348 -0.065262,0.268105 0,0.174622 0.063499,0.268106 0.065262,0.09172 0.1887319,0.09172 0.1428719,0 0.2081343,-0.07585 0.065262,-0.07761 0.065262,-0.248703 v -0.03704 q 0,-0.194024 -0.067026,-0.276925 -0.067026,-0.08466 -0.2098982,-0.08466 z m 1.148266,0.832538 H 6.637644 V 13.040929 H 6.2443054 v -0.139344 h 0.9436598 v 0.139344 H 6.7963905 Z M 7.512513,13.213786 q 0,0.07055 -0.00882,0.132289 h 0.010583 q 0.04586,-0.07232 0.1234695,-0.109359 0.079373,-0.03704 0.1710935,-0.03704 0.1728573,0 0.2592859,0.0829 0.086429,0.08114 0.086429,0.262814 v 0.615584 h -0.153455 v -0.605001 q 0,-0.227537 -0.211662,-0.227537 -0.1587465,0 -0.2187174,0.08996 -0.058207,0.08819 -0.058207,0.253994 v 0.488587 H 7.3572942 V 12.820448 H 7.512513 Z m 1.7250453,0.0018 v 0.945424 H 9.1105611 L 9.087631,14.03574 h -0.00706 q -0.04586,0.07408 -0.1269972,0.109359 -0.081137,0.03351 -0.1728573,0.03351 -0.1710934,0 -0.2575221,-0.08114 -0.086429,-0.0829 -0.086429,-0.262814 V 13.21555 H 8.593753 v 0.608528 q 0,0.225773 0.2098982,0.225773 0.1569826,0 0.2169535,-0.08819 0.061735,-0.08819 0.061735,-0.253995 V 13.21555 Z m 1.3369987,-0.01764 q 0.16051,0 0.239883,0.0829 0.07937,0.08114 0.07937,0.264578 v 0.615584 h -0.153455 v -0.608529 q 0,-0.224009 -0.192259,-0.224009 -0.137581,0 -0.197551,0.07937 -0.05821,0.07937 -0.05821,0.231064 v 0.5221 h -0.153455 v -0.608529 q 0,-0.224009 -0.1940239,-0.224009 -0.1428719,0 -0.1975512,0.08819 -0.054679,0.08819 -0.054679,0.253994 v 0.490351 H 9.5374127 V 13.21555 h 0.1252334 l 0.02293,0.128761 h 0.00882 q 0.044096,-0.07408 0.1181779,-0.109359 0.075846,-0.03704 0.1605104,-0.03704 0.2222453,0 0.2892713,0.158747 h 0.0088 q 0.04762,-0.08114 0.128761,-0.119942 0.0829,-0.0388 0.174622,-0.0388 z m 0.767274,-0.05115 q 0,0.05997 -0.0035,0.112886 -0.0018,0.05115 -0.0053,0.08114 h 0.0088 q 0.04057,-0.05997 0.111122,-0.100539 0.07055,-0.04057 0.181677,-0.04057 0.176385,0 0.282216,0.12347 0.107594,0.121705 0.107594,0.365117 0,0.243411 -0.107594,0.366881 -0.107595,0.123469 -0.282216,0.123469 -0.111123,0 -0.181677,-0.04057 -0.07055,-0.04057 -0.111122,-0.09701 h -0.01235 l -0.03175,0.119942 h -0.111122 v -1.340526 h 0.155219 z m 0.266341,0.181676 q -0.149927,0 -0.208134,0.08643 -0.05821,0.08643 -0.05821,0.268105 v 0.0071 q 0,0.174621 0.05644,0.268105 0.05821,0.09172 0.213426,0.09172 0.126997,0 0.188732,-0.09348 0.0635,-0.09348 0.0635,-0.269869 0,-0.358062 -0.255758,-0.358062 z"
       id="text1"
       style="stroke-width:0.140003"
       aria-label="gThumb" />
  </g>
</svg>
