<?xml version="1.0" encoding="UTF-8" standalone="no"?>
<svg
   width="64"
   height="64"
   version="1.1"
   viewBox="0 0 16.933 16.933"
   id="svg7"
   sodipodi:docname="alienarena.svg"
   inkscape:version="1.4 (e7c3feb100, 2024-10-09)"
   xmlns:inkscape="http://www.inkscape.org/namespaces/inkscape"
   xmlns:sodipodi="http://sodipodi.sourceforge.net/DTD/sodipodi-0.dtd"
   xmlns:xlink="http://www.w3.org/1999/xlink"
   xmlns="http://www.w3.org/2000/svg"
   xmlns:svg="http://www.w3.org/2000/svg"
   xmlns:rdf="http://www.w3.org/1999/02/22-rdf-syntax-ns#"
   xmlns:cc="http://creativecommons.org/ns#"
   xmlns:dc="http://purl.org/dc/elements/1.1/">
  <sodipodi:namedview
     id="namedview7"
     pagecolor="#9c4444"
     bordercolor="#000000"
     borderopacity="0.25"
     inkscape:showpageshadow="2"
     inkscape:pageopacity="0.0"
     inkscape:pagecheckerboard="0"
     inkscape:deskcolor="#d1d1d1"
     inkscape:zoom="6.15625"
     inkscape:cx="35.979696"
     inkscape:cy="39.878173"
     inkscape:window-width="1183"
     inkscape:window-height="973"
     inkscape:window-x="35"
     inkscape:window-y="32"
     inkscape:window-maximized="0"
     inkscape:current-layer="svg7"
     showgrid="false" />
  <defs
     id="defs2">
    <linearGradient
       inkscape:collect="always"
       id="linearGradient1134">
      <stop
         style="stop-color:#161616;stop-opacity:1;"
         offset="0"
         id="stop1130" />
      <stop
         style="stop-color:#404040;stop-opacity:1;"
         offset="1"
         id="stop1132" />
    </linearGradient>
    <linearGradient
       inkscape:collect="always"
       id="linearGradient883">
      <stop
         style="stop-color:#808080;stop-opacity:1;"
         offset="0"
         id="stop879" />
      <stop
         style="stop-color:#3e3e3e;stop-opacity:1;"
         offset="0.5"
         id="stop1216" />
      <stop
         style="stop-color:#242424;stop-opacity:1;"
         offset="1"
         id="stop881" />
    </linearGradient>
    <linearGradient
       inkscape:collect="always"
       xlink:href="#linearGradient883"
       id="linearGradient885"
       x1="2.1085808"
       y1="2.0236168"
       x2="14.846128"
       y2="15.071845"
       gradientUnits="userSpaceOnUse" />
    <linearGradient
       inkscape:collect="always"
       xlink:href="#linearGradient1134"
       id="linearGradient1136"
       x1="14.971222"
       y1="14.703373"
       x2="2.0756054"
       y2="2.0069976"
       gradientUnits="userSpaceOnUse" />
    <filter
       style="color-interpolation-filters:sRGB;"
       inkscape:label="Blur"
       id="filter1283"
       x="-0.082344266"
       y="-0.082344266"
       width="1.1646885"
       height="1.1646885">
      <feGaussianBlur
         stdDeviation="0.5 0.5"
         result="blur"
         id="feGaussianBlur1281" />
    </filter>
    <filter
       style="color-interpolation-filters:sRGB;"
       inkscape:label="Blur"
       id="filter1694"
       x="-0.94955398"
       y="-0.2118907"
       width="2.899108"
       height="1.4237814">
      <feGaussianBlur
         stdDeviation="0.2 0.2"
         result="blur"
         id="feGaussianBlur1692" />
    </filter>
  </defs>
  <metadata
     id="metadata2">
    <rdf:RDF>
      <cc:Work
         rdf:about="">
        <dc:format>image/svg+xml</dc:format>
        <dc:type
           rdf:resource="http://purl.org/dc/dcmitype/StillImage" />
      </cc:Work>
    </rdf:RDF>
  </metadata>
  <rect
     style="fill:#000000;stroke:none;stroke-width:0.539739;stroke-dasharray:none;filter:url(#filter1283)"
     id="rect246-1"
     width="14.572964"
     height="14.572964"
     x="1.1932471"
     y="1.2138842"
     rx="2.1589575"
     ry="2.1589575" />
  <rect
     style="opacity:1;fill:#000000;stroke:url(#linearGradient885);stroke-width:0.52915625;stroke-dasharray:none"
     id="rect246"
     width="14.287219"
     height="14.287219"
     x="1.3361193"
     y="1.3567564"
     rx="2.1166251"
     ry="2.1166251" />
  <rect
     style="fill:url(#linearGradient1136);fill-opacity:1;stroke:none;stroke-width:0.478315;stroke-dasharray:none"
     id="rect246-5"
     width="12.914515"
     height="12.914515"
     x="2.0224717"
     y="2.0431087"
     rx="1.5874687"
     ry="1.5874687" />
  <path
     style="fill:#999999;stroke-width:0.0289497"
     d="M 8.4912695,11.75207 C 8.477609,11.529155 8.4403812,11.173073 8.4085404,10.960774 8.3766999,10.748475 8.3234387,10.010252 8.2901827,9.3202801 8.22149,7.8951091 8.2143201,7.8287556 8.1238645,7.7811484 8.0876259,7.7620757 7.7540024,7.7264379 7.3824788,7.7019536 7.0109555,7.6774691 6.5767074,7.6388325 6.4174832,7.6160945 6.2582588,7.5933564 5.9282303,7.5542434 5.6840863,7.5291771 L 5.2401885,7.4836015 5.5758068,7.4561839 C 5.7603968,7.4411044 6.0209457,7.403704 6.1548041,7.3730725 6.2886627,7.342441 6.7803215,7.2903967 7.2473797,7.2574179 8.219941,7.188747 8.2312978,7.1841093 8.2321266,6.855266 8.2328046,6.5865437 8.3413637,4.5488833 8.3691682,4.2830035 c 0.013321,-0.1273793 0.048526,-0.396613 0.078235,-0.5982975 0.029709,-0.2016837 0.055849,-0.4796025 0.05809,-0.6175971 0.00499,-0.3064318 0.063529,-0.1774062 0.070069,0.1543996 0.0023,0.1167641 0.029754,0.4291729 0.061006,0.6942412 0.031253,0.2650684 0.08401,1.0380301 0.1172386,1.7176925 0.07035,1.4389715 0.074205,1.4725544 0.1752476,1.5266306 0.042052,0.022506 0.436471,0.066165 0.8764853,0.097021 0.4400143,0.030856 0.8955603,0.075825 1.0123243,0.099932 0.116764,0.024107 0.385998,0.0641 0.598296,0.088874 l 0.385999,0.045044 -0.385999,0.030048 c -0.212298,0.016527 -0.455478,0.045634 -0.540397,0.064682 -0.08491,0.019049 -0.545222,0.063152 -1.0228949,0.098008 -0.9435362,0.06885 -0.9868189,0.081595 -1.0206513,0.3005548 -0.01021,0.066083 -0.045693,0.6759877 -0.07885,1.3553447 -0.033157,0.6793567 -0.085395,1.4436337 -0.1160855,1.6983917 -0.03069,0.25476 -0.058073,0.567418 -0.060852,0.694798 -0.00947,0.434377 -0.059036,0.445609 -0.085161,0.01931 z M 7.7298773,10.378199 C 6.6319604,10.086546 5.8022093,9.129017 5.6323785,7.9576931 l -0.021269,-0.1466934 0.2005379,0.011595 c 0.199246,0.011519 0.2004602,0.012369 0.1885164,0.131915 -0.00661,0.066177 0.011858,0.1443415 0.041044,0.1736992 0.029186,0.029358 0.1112265,0.1626699 0.1823126,0.2962492 0.1622435,0.3048729 0.5173131,0.6389641 0.8391469,0.7895682 0.2124682,0.099426 0.360968,0.1341656 0.8895429,0.2080963 0.1024947,0.014328 0.1200264,0.029793 0.094526,0.08333 -0.017219,0.036149 -0.021733,0.2329232 -0.010034,0.4372704 0.0117,0.204348 0.015657,0.399759 0.00879,0.434249 -0.01484,0.07456 -0.039193,0.07465 -0.3156184,0.0013 z m 1.289019,-0.256971 c 0.013366,-0.1539181 0.027736,-0.4405207 0.031941,-0.6368981 0.0042,-0.1963764 0.020299,-0.3570481 0.035764,-0.3570481 0.090792,0 0.6686794,-0.4972256 0.81983,-0.7053981 0.095961,-0.1321633 0.2013327,-0.2706947 0.2341557,-0.3078477 0.03283,-0.037151 0.05967,-0.1005265 0.05967,-0.1408318 0,-0.07839 0.02314,-0.082245 0.857137,-0.1427739 l 0.33604,-0.024389 -0.02167,0.1491723 c -0.139867,0.9627997 -0.724283,1.7937303 -1.5572407,2.2141094 -0.2408806,0.121568 -0.5859986,0.231753 -0.7258937,0.231753 -0.093227,0 -0.093822,-0.0023 -0.069736,-0.279848 z M 5.658251,6.9118063 c 0.02954,-0.2155167 0.1908489,-0.5833132 0.2689802,-0.6132952 0.038012,-0.014585 0.052111,-0.051765 0.038856,-0.102455 -0.015102,-0.057748 -0.00247,-0.079561 0.046099,-0.079561 0.050735,0 0.061123,0.02099 0.042988,0.08685 -0.013154,0.047768 -0.043526,0.2547794 -0.067492,0.4600268 -0.046076,0.3945873 -0.06043,0.4160033 -0.2798927,0.4175923 -0.063864,4.567e-4 -0.069943,-0.020297 -0.049538,-0.1691579 z m 5.159612,0.1302291 c -0.180454,-0.011085 -0.349811,-0.033823 -0.376347,-0.050528 -0.02653,-0.016706 -0.04825,-0.077808 -0.04825,-0.1357839 0,-0.1823382 -0.111773,-0.5549046 -0.25367,-0.8455437 C 9.9560107,5.6341528 9.6538048,5.3142426 9.3129942,5.1351514 9.0691964,5.0070391 9.0422717,4.9813309 9.0422717,4.8766583 c 0,-0.063928 -0.019392,-0.1524692 -0.043097,-0.1967588 -0.041791,-0.078086 -0.036733,-0.07987 0.1668333,-0.05886 0.1154613,0.011918 0.3275972,0.075019 0.471413,0.1402294 0.859234,0.3895947 1.5762,1.2832992 1.664789,2.0751732 0.02601,0.232541 0.02467,0.2373282 -0.06485,0.2315991 -0.05027,-0.00321 -0.239049,-0.01492 -0.419504,-0.026006 z M 7.1894799,5.0209 c 0,-0.03432 0.015344,-0.062399 0.034098,-0.062399 0.018754,0 0.043219,-0.034877 0.054365,-0.077505 0.011493,-0.043954 0.092812,-0.1102743 0.1878503,-0.1532045 0.175249,-0.079162 0.562614,-0.1791562 0.5881908,-0.1518351 0.00815,0.00871 0.00607,0.1045972 -0.00463,0.2130713 L 8.029891,4.9862532 7.7158321,5.0114042 c -0.1727331,0.013832 -0.3618265,0.035668 -0.4202088,0.048523 -0.081663,0.017981 -0.1061494,0.00898 -0.1061498,-0.039027 z"
     id="path1" />
  <g
     aria-label="Krita"
     id="text1450"
     style="font-size:1.76385px;opacity:1;fill:#ff00ff;stroke-width:0.529156">
    <rect
       style="font-size:1.76385px;fill:#ff00ff;fill-opacity:1;stroke:none;stroke-width:0.519976;stroke-dasharray:none;filter:url(#filter1694)"
       id="rect1656-7"
       width="0.5055005"
       height="2.2653189"
       x="15.369148"
       y="4.3016486"
       rx="0"
       ry="0" />
    <rect
       style="opacity:1;fill:#ff00ff;fill-opacity:1;stroke:none;stroke-width:0.519976;stroke-dasharray:none"
       id="rect1656"
       width="0.5055005"
       height="2.2653189"
       x="15.369148"
       y="4.3016486"
       rx="0"
       ry="0" />
  </g>
  <path
     d="M 4.7109994,14.131089 H 4.5522529 V 12.8717 H 5.256029 v 0.139344 H 4.7109994 v 0.446255 h 0.5115165 v 0.139344 H 4.7109994 Z m 1.1764863,-0.963062 q 0.026458,0 0.056443,0.0035 0.031749,0.0018 0.054679,0.0071 l -0.019402,0.142872 q -0.02293,-0.0053 -0.051152,-0.0088 -0.026458,-0.0035 -0.051152,-0.0035 -0.072318,0 -0.1358164,0.04057 -0.063499,0.0388 -0.1023033,0.111122 -0.037041,0.07055 -0.037041,0.165802 v 0.504461 H 5.4465233 v -0.945423 h 0.1269972 l 0.017639,0.172857 h 0.00706 q 0.04586,-0.07761 0.1181779,-0.134053 0.072318,-0.05644 0.1710934,-0.05644 z m 0.6173469,0 q 0.1217057,0 0.2081343,0.05292 0.088193,0.05292 0.1340526,0.149927 0.047624,0.09525 0.047624,0.224009 v 0.09348 h -0.647333 q 0.00353,0.16051 0.081137,0.245175 0.079373,0.0829 0.2204813,0.0829 0.089956,0 0.1587465,-0.01587 0.070554,-0.01764 0.1446357,-0.04939 v 0.135816 q -0.072318,0.03175 -0.1428719,0.04586 -0.070554,0.01587 -0.1675657,0.01587 -0.1340526,0 -0.2381198,-0.05468 -0.1023033,-0.05468 -0.1605103,-0.162274 -0.056443,-0.109359 -0.056443,-0.266341 0,-0.155219 0.051152,-0.266342 0.052916,-0.111122 0.1463996,-0.171093 0.095248,-0.05997 0.2204812,-0.05997 z m -0.00176,0.126997 q -0.1111226,0 -0.176385,0.07232 -0.063499,0.07055 -0.075846,0.197551 h 0.4815311 q -0.00176,-0.119941 -0.056443,-0.194023 -0.054679,-0.07585 -0.1728573,-0.07585 z m 0.9965737,-0.126997 q 0.1217056,0 0.2081343,0.05292 0.088192,0.05292 0.1340526,0.149927 0.047624,0.09525 0.047624,0.224009 v 0.09348 H 7.2421204 q 0.00353,0.16051 0.081137,0.245175 0.079373,0.0829 0.2204812,0.0829 0.089956,0 0.1587465,-0.01587 0.070554,-0.01764 0.1446357,-0.04939 v 0.135816 q -0.072318,0.03175 -0.1428718,0.04586 -0.070554,0.01587 -0.1675658,0.01587 -0.1340526,0 -0.2381197,-0.05468 Q 7.1962603,14.039369 7.1380532,13.931774 7.08161,13.822415 7.08161,13.665433 q 0,-0.155219 0.051152,-0.266342 0.052916,-0.111122 0.1463995,-0.171093 0.095248,-0.05997 0.2204813,-0.05997 z m -0.00176,0.126997 q -0.1111225,0 -0.176385,0.07232 -0.063499,0.07055 -0.075845,0.197551 h 0.481531 q -0.00176,-0.119941 -0.056443,-0.194023 -0.054679,-0.07585 -0.1728573,-0.07585 z m 1.7515018,0.204607 q 0,0.195787 -0.067026,0.342187 -0.065262,0.144636 -0.1940235,0.225773 -0.1287611,0.08114 -0.3192569,0.08114 -0.1957873,0 -0.3263122,-0.08114 -0.1287611,-0.08114 -0.1922597,-0.227537 -0.063499,-0.1464 -0.063499,-0.342187 0,-0.194023 0.063499,-0.338659 0.063499,-0.144636 0.1922597,-0.225773 0.1305249,-0.08114 0.3280761,-0.08114 0.1887319,0 0.317493,0.08114 0.128761,0.07937 0.1940235,0.225773 0.067026,0.144636 0.067026,0.340423 z m -0.9948114,0 q 0,0.23812 0.1005394,0.3757 0.1005395,0.135816 0.3139653,0.135816 0.2151897,0 0.3139653,-0.135816 0.098776,-0.13758 0.098776,-0.3757 0,-0.23812 -0.098776,-0.372172 -0.098776,-0.135817 -0.3122014,-0.135817 -0.2134259,0 -0.3157292,0.135817 -0.1005394,0.134052 -0.1005394,0.372172 z m 1.693296,-0.331604 q 0.026458,0 0.056443,0.0035 0.03175,0.0018 0.05468,0.0071 l -0.0194,0.142872 q -0.02293,-0.0053 -0.051152,-0.0088 -0.026458,-0.0035 -0.051152,-0.0035 -0.072318,0 -0.1358165,0.04057 -0.063499,0.0388 -0.1023033,0.111122 -0.037041,0.07055 -0.037041,0.165802 v 0.504461 H 9.5069025 v -0.945423 h 0.1269972 l 0.017638,0.172857 h 0.00706 q 0.04586,-0.07761 0.1181779,-0.134053 0.072318,-0.05644 0.1710935,-0.05644 z m 0.366881,-0.336895 q 0.03528,0 0.06174,0.02469 0.02822,0.02293 0.02822,0.07408 0,0.04939 -0.02822,0.07408 -0.02646,0.02469 -0.06174,0.02469 -0.0388,0 -0.06526,-0.02469 -0.02646,-0.02469 -0.02646,-0.07408 0,-0.05115 0.02646,-0.07408 0.02646,-0.02469 0.06526,-0.02469 z m 0.07585,0.354534 v 0.945423 h -0.155219 v -0.945423 z m 1.121807,0.470948 q 0,0.234592 -0.119942,0.363353 -0.118177,0.128761 -0.32102,0.128761 -0.125234,0 -0.224009,-0.05644 -0.09701,-0.05821 -0.153455,-0.167566 -0.05644,-0.111123 -0.05644,-0.268105 0,-0.234592 0.118178,-0.36159 0.118178,-0.126997 0.32102,-0.126997 0.128761,0 0.225773,0.05821 0.09878,0.05644 0.153455,0.165802 0.05644,0.107595 0.05644,0.264578 z m -0.714359,0 q 0,0.167565 0.06526,0.266341 0.06703,0.09701 0.211662,0.09701 0.142872,0 0.209899,-0.09701 0.06703,-0.09878 0.06703,-0.266341 0,-0.167566 -0.06703,-0.262814 -0.06703,-0.09525 -0.211662,-0.09525 -0.144636,0 -0.209899,0.09525 -0.06526,0.09525 -0.06526,0.262814 z m 1.414607,-0.488587 q 0.169329,0 0.255758,0.0829 0.08643,0.08114 0.08643,0.264578 v 0.615583 h -0.153455 v -0.605 q 0,-0.227537 -0.211662,-0.227537 -0.156983,0 -0.216954,0.08819 -0.05997,0.08819 -0.05997,0.253994 v 0.49035 h -0.155219 v -0.945423 h 0.125234 l 0.02293,0.128761 h 0.0088 q 0.04586,-0.07408 0.126997,-0.109359 0.08114,-0.03704 0.171094,-0.03704 z"
     id="text1"
     style="font-size:1.76385px;text-align:center;text-anchor:middle;fill:#999999;stroke-width:1.32289"
     aria-label="FreeOrion" />
</svg>
