<?xml version="1.0" encoding="UTF-8" standalone="no"?>
<svg
   width="64"
   height="64"
   version="1.1"
   viewBox="0 0 16.933 16.933"
   id="svg7"
   sodipodi:docname="org.mozilla.firefox.svg"
   inkscape:version="1.4 (e7c3feb100, 2024-10-09)"
   xmlns:inkscape="http://www.inkscape.org/namespaces/inkscape"
   xmlns:sodipodi="http://sodipodi.sourceforge.net/DTD/sodipodi-0.dtd"
   xmlns:xlink="http://www.w3.org/1999/xlink"
   xmlns="http://www.w3.org/2000/svg"
   xmlns:svg="http://www.w3.org/2000/svg"
   xmlns:rdf="http://www.w3.org/1999/02/22-rdf-syntax-ns#"
   xmlns:cc="http://creativecommons.org/ns#"
   xmlns:dc="http://purl.org/dc/elements/1.1/">
  <sodipodi:namedview
     id="namedview7"
     pagecolor="#9c4444"
     bordercolor="#000000"
     borderopacity="0.25"
     inkscape:showpageshadow="2"
     inkscape:pageopacity="0.0"
     inkscape:pagecheckerboard="0"
     inkscape:deskcolor="#d1d1d1"
     inkscape:zoom="6.15625"
     inkscape:cx="15.675127"
     inkscape:cy="29.807107"
     inkscape:window-width="1183"
     inkscape:window-height="973"
     inkscape:window-x="35"
     inkscape:window-y="32"
     inkscape:window-maximized="0"
     inkscape:current-layer="svg7"
     showgrid="false" />
  <defs
     id="defs2">
    <rect
       x="67.489848"
       y="35.60533"
       width="15.337563"
       height="22.51269"
       id="rect3808" />
    <linearGradient
       inkscape:collect="always"
       id="linearGradient1134">
      <stop
         style="stop-color:#161616;stop-opacity:1;"
         offset="0"
         id="stop1130" />
      <stop
         style="stop-color:#404040;stop-opacity:1;"
         offset="1"
         id="stop1132" />
    </linearGradient>
    <linearGradient
       inkscape:collect="always"
       id="linearGradient883">
      <stop
         style="stop-color:#808080;stop-opacity:1;"
         offset="0"
         id="stop879" />
      <stop
         style="stop-color:#3e3e3e;stop-opacity:1;"
         offset="0.5"
         id="stop1216" />
      <stop
         style="stop-color:#242424;stop-opacity:1;"
         offset="1"
         id="stop881" />
    </linearGradient>
    <linearGradient
       inkscape:collect="always"
       xlink:href="#linearGradient883"
       id="linearGradient885"
       x1="2.1085808"
       y1="2.0236168"
       x2="14.846128"
       y2="15.071845"
       gradientUnits="userSpaceOnUse" />
    <linearGradient
       inkscape:collect="always"
       xlink:href="#linearGradient1134"
       id="linearGradient1136"
       x1="14.971222"
       y1="14.703373"
       x2="2.0756054"
       y2="2.0069976"
       gradientUnits="userSpaceOnUse" />
    <filter
       style="color-interpolation-filters:sRGB;"
       inkscape:label="Blur"
       id="filter1283"
       x="-0.082344266"
       y="-0.082344266"
       width="1.1646885"
       height="1.1646885">
      <feGaussianBlur
         stdDeviation="0.5 0.5"
         result="blur"
         id="feGaussianBlur1281" />
    </filter>
    <filter
       style="color-interpolation-filters:sRGB;"
       inkscape:label="Blur"
       id="filter1694"
       x="-0.94955398"
       y="-0.2118907"
       width="2.899108"
       height="1.4237814">
      <feGaussianBlur
         stdDeviation="0.2 0.2"
         result="blur"
         id="feGaussianBlur1692" />
    </filter>
    <filter
       style="color-interpolation-filters:sRGB;"
       inkscape:label="Blur"
       id="filter3148"
       x="-0.94955398"
       y="-0.2118907"
       width="2.899108"
       height="1.4237814">
      <feGaussianBlur
         stdDeviation="0.2 0.2"
         result="blur"
         id="feGaussianBlur3146" />
    </filter>
    <clipPath
       clipPathUnits="userSpaceOnUse"
       id="clipPath44">
      <path
         id="path46"
         style="display:block;opacity:0.85;fill:#f2f2f2;stroke-width:4.39162"
         d="m 17.570312,8.4453125 a 6.5431988,7.4283052 9.9958727e-8 0 0 -6.535156,7.4394535 6.5431988,7.4283052 9.9958727e-8 0 0 6.552735,7.417968 6.5431988,7.4283052 9.9958727e-8 0 0 6.535156,-7.4375 6.5431988,7.4283052 9.9958727e-8 0 0 -6.552735,-7.4199215 z M 45.646484,41.177734 a 6.5431986,7.0703472 2.4665357e-6 0 0 -6.533203,7.080078 6.5431986,7.0703472 2.4665357e-6 0 0 6.550781,7.060547 6.5431986,7.0703472 2.4665357e-6 0 0 6.535157,-7.080078 6.5431986,7.0703472 2.4665357e-6 0 0 -6.552735,-7.060547 z" />
    </clipPath>
    <inkscape:path-effect
       effect="powerclip"
       id="path-effect48"
       is_visible="true"
       lpeversion="1"
       inverse="true"
       flatten="false"
       hide_clip="false"
       message="" />
  </defs>
  <metadata
     id="metadata2">
    <rdf:RDF>
      <cc:Work
         rdf:about="">
        <dc:format>image/svg+xml</dc:format>
        <dc:type
           rdf:resource="http://purl.org/dc/dcmitype/StillImage" />
      </cc:Work>
    </rdf:RDF>
  </metadata>
  <rect
     style="fill:#000000;stroke:none;stroke-width:0.539739;stroke-dasharray:none;filter:url(#filter1283)"
     id="rect246-1"
     width="14.572964"
     height="14.572964"
     x="1.1932471"
     y="1.2138842"
     rx="2.1589575"
     ry="2.1589575" />
  <rect
     style="opacity:1;fill:#000000;stroke:url(#linearGradient885);stroke-width:0.52915625;stroke-dasharray:none"
     id="rect246"
     width="14.287219"
     height="14.287219"
     x="1.3361193"
     y="1.3567564"
     rx="2.1166251"
     ry="2.1166251" />
  <rect
     style="fill:url(#linearGradient1136);fill-opacity:1;stroke:none;stroke-width:0.478315;stroke-dasharray:none"
     id="rect246-5"
     width="12.914515"
     height="12.914515"
     x="2.0224717"
     y="2.0431087"
     rx="1.5874687"
     ry="1.5874687" />
  <path
     id="path36"
     style="fill:#999999;fill-opacity:1;stroke-width:0.0367842;stroke-opacity:0.3"
     d="m 9.6961476,3.704041 c -0.07037,0 -0.5534633,0.4243793 -0.7315398,0.6426405 C 8.783449,4.568719 8.5302836,5.0380741 8.5302836,5.1516411 c 0,0.041337 0.031745,0.060604 0.1008406,0.061035 0.2139653,0.00134 0.6277204,0.1143412 0.8920899,0.2436989 0.3677129,0.1799238 0.7142019,0.527736 0.8969539,0.9004925 0.07315,0.1492063 0.143321,0.32946 0.155686,0.4002682 l 0.02255,0.1287053 -0.06501,-0.091995 C 10.385423,6.5833662 10.117164,6.3397145 9.9261368,6.2423163 9.7665172,6.1609315 9.40117,6.0583254 9.271112,6.0583254 c -0.00996,0 0.060743,0.055966 0.1574542,0.1247244 0.8701238,0.6186354 0.8442928,1.91899 -0.049975,2.5161604 C 8.9336731,8.9963158 8.4062343,9.0190274 7.8863193,8.7637834 7.1745503,8.414355 6.7519638,7.6501583 7.0795869,7.3055699 7.2926221,7.0815042 7.5486598,6.9734668 7.987599,6.9229929 8.1581021,6.9033896 8.2348213,6.8707281 8.383003,6.7535978 8.4841281,6.6736627 8.5660731,6.5877907 8.5647821,6.5629731 8.5634837,6.538155 8.4185316,6.4478524 8.2427986,6.3621755 8.0670652,6.2764985 7.7964508,6.1047393 7.6412899,5.980483 L 7.3591119,5.7544756 7.317096,5.51343 C 7.2927786,5.3737986 7.2859929,5.1725199 7.3007298,5.0348773 L 7.325937,4.7973702 7.1684841,4.8853848 C 7.0818759,4.9336911 6.8883459,5.0872826 6.738582,5.2268294 6.5832813,5.3715346 6.4532569,5.4663609 6.4356161,5.4475292 6.3835354,5.3919289 6.323276,5.0376206 6.323276,4.7871977 c 0,-0.1305059 -0.014496,-0.2370646 -0.031848,-0.2370646 -0.01735,0 -0.170579,0.1445191 -0.3410016,0.3215409 C 5.2611132,5.5876796 4.9518123,6.3529698 4.9508611,7.3458179 4.9503456,7.906341 5.0388982,8.3029573 5.27771,8.8115508 5.4759594,9.2337603 5.6861428,9.5312994 6.0158844,9.8562289 6.5609916,10.393381 7.1951389,10.721399 7.9530949,10.858889 8.7902598,11.010746 9.7181984,10.834166 10.48739,10.376356 11.125168,9.996763 11.736351,9.2616786 11.984526,8.575813 12.169627,8.0642699 12.221377,7.7276368 12.198594,7.1812874 12.174312,6.5989553 12.068969,6.2024059 11.805846,5.7018437 11.641988,5.3901262 11.32846,4.9395026 11.297218,4.970746 c -0.0075,0.00735 0.0219,0.082661 0.06501,0.1671842 0.09112,0.1786116 0.221146,0.6612314 0.221146,0.8213234 0,0.1032213 -0.01261,0.093469 -0.196376,-0.1539153 C 11.279063,5.6600305 10.946692,5.2918913 10.648388,4.9871106 10.100498,4.4273251 9.8515372,4.1020427 9.7744309,3.8446876 9.7512373,3.7672681 9.715983,3.704041 9.6961512,3.704041 Z M 9.0221047,6.3935774 c -0.021181,-0.00132 -0.043479,0.00482 -0.072537,0.015039 -0.082149,0.02889 -0.1110064,0.071875 -0.148608,0.2198161 C 8.7655087,6.7678997 8.7113899,6.8530678 8.5776065,6.9809343 8.4221374,7.1295248 8.375826,7.1524179 8.186625,7.1746548 7.9434688,7.2032334 7.8152186,7.2602889 7.6890534,7.395355 7.6135974,7.47613 7.6050906,7.5113694 7.6266933,7.6554191 7.6763769,7.9867414 8.0114788,8.3364796 8.3719446,8.4333988 8.7325703,8.5303611 8.9462898,8.4778129 9.1919417,8.2321588 9.6321341,7.7919661 9.6397718,6.9948636 9.2083081,6.5382064 9.1103337,6.4345098 9.0687112,6.3965026 9.0221063,6.3935785 Z" />
  <g
     aria-label="Krita"
     id="text1450"
     style="font-size:1.76385px;opacity:1;fill:#ffff00;stroke-width:0.529156">
    <rect
       style="font-size:1.76385px;fill:#ffff00;fill-opacity:1;stroke:none;stroke-width:0.519976;stroke-dasharray:none;filter:url(#filter3148)"
       id="rect1656-3"
       width="0.5055005"
       height="2.2653189"
       x="15.369148"
       y="4.3016486"
       rx="0"
       ry="0" />
    <rect
       style="opacity:1;fill:#ffff00;fill-opacity:1;stroke:none;stroke-width:0.519976;stroke-dasharray:none"
       id="rect1656"
       width="0.5055005"
       height="2.2653189"
       x="15.369148"
       y="4.3016486"
       rx="0"
       ry="0" />
  </g>
  <g
     aria-label="Firefox"
     id="text2284"
     style="font-size:1.76385px;opacity:1;fill:#999999;stroke-width:0.529156">
    <path
       d="M 6.1295683,14.179017 H 5.9708218 V 12.919628 H 6.674598 v 0.139344 H 6.1295683 v 0.446254 h 0.5115165 v 0.139345 H 6.1295683 Z"
       style="text-align:center;text-anchor:middle"
       id="path647" />
    <path
       d="m 6.9444654,12.87906 q 0.035277,0 0.061735,0.02469 0.028222,0.02293 0.028222,0.07408 0,0.04939 -0.028222,0.07408 -0.026458,0.02469 -0.061735,0.02469 -0.038805,0 -0.065262,-0.02469 -0.026458,-0.02469 -0.026458,-0.07408 0,-0.05115 0.026458,-0.07408 0.026458,-0.02469 0.065262,-0.02469 z m 0.075846,0.354533 v 0.945424 H 6.8650922 v -0.945424 z"
       style="text-align:center;text-anchor:middle"
       id="path649" />
    <path
       d="m 7.761127,13.215955 q 0.026458,0 0.056443,0.0035 0.031749,0.0018 0.054679,0.0071 l -0.019402,0.142872 q -0.02293,-0.0053 -0.051152,-0.0088 -0.026458,-0.0035 -0.051152,-0.0035 -0.072318,0 -0.1358164,0.04057 -0.063499,0.0388 -0.1023033,0.111122 -0.037041,0.07055 -0.037041,0.165802 v 0.504461 H 7.3201645 v -0.945424 h 0.1269972 l 0.017639,0.172858 h 0.00706 q 0.04586,-0.07761 0.118178,-0.134053 0.072318,-0.05644 0.1710934,-0.05644 z"
       style="text-align:center;text-anchor:middle"
       id="path651" />
    <path
       d="m 8.3784737,13.215955 q 0.1217057,0 0.2081343,0.05292 0.088192,0.05292 0.1340526,0.149928 0.047624,0.09525 0.047624,0.224009 v 0.09348 h -0.647333 q 0.00353,0.16051 0.081137,0.245175 0.079373,0.0829 0.2204813,0.0829 0.089956,0 0.1587465,-0.01588 0.070554,-0.01764 0.1446357,-0.04939 v 0.135817 q -0.072318,0.03175 -0.1428719,0.04586 -0.070554,0.01588 -0.1675657,0.01588 -0.1340526,0 -0.2381198,-0.05468 -0.1023033,-0.05468 -0.1605103,-0.162274 -0.056443,-0.109359 -0.056443,-0.266341 0,-0.155219 0.051152,-0.266342 0.052915,-0.111122 0.1463996,-0.171093 0.095248,-0.05997 0.2204812,-0.05997 z m -0.00176,0.126997 q -0.1111226,0 -0.176385,0.07232 -0.063499,0.07055 -0.075846,0.197551 h 0.4815311 q -0.00176,-0.119942 -0.056443,-0.194023 -0.054679,-0.07585 -0.1728573,-0.07585 z"
       style="text-align:center;text-anchor:middle"
       id="path653" />
    <path
       d="M 9.4438378,13.353535 H 9.2057181 v 0.825482 H 9.0504993 V 13.353535 H 8.8846974 v -0.07232 l 0.1658019,-0.05292 v -0.05468 q 0,-0.183441 0.081137,-0.262814 0.081137,-0.08114 0.2257728,-0.08114 0.056443,0 0.1023033,0.01058 0.047624,0.0088 0.081137,0.02117 l -0.040569,0.121706 q -0.028222,-0.0088 -0.065262,-0.01764 -0.037041,-0.0088 -0.075846,-0.0088 -0.077609,0 -0.1164141,0.05292 -0.037041,0.05115 -0.037041,0.162274 v 0.06173 h 0.2381197 z"
       style="text-align:center;text-anchor:middle"
       id="path655" />
    <path
       d="m 10.436885,13.704541 q 0,0.234592 -0.119942,0.363354 -0.118178,0.128761 -0.3210205,0.128761 -0.1252333,0 -0.2240089,-0.05644 -0.097012,-0.05821 -0.1534549,-0.167565 -0.056443,-0.111123 -0.056443,-0.268106 0,-0.234592 0.1181779,-0.361589 0.1181779,-0.126997 0.3210206,-0.126997 0.128761,0 0.225773,0.05821 0.09877,0.05644 0.153455,0.165802 0.05644,0.107595 0.05644,0.264577 z m -0.7143592,0 q 0,0.167566 0.065262,0.266342 0.067026,0.09701 0.211662,0.09701 0.1428718,0 0.2098978,-0.09701 0.06703,-0.09878 0.06703,-0.266342 0,-0.167565 -0.06703,-0.262813 -0.06703,-0.09525 -0.2116616,-0.09525 -0.1446357,0 -0.2098982,0.09525 -0.065262,0.09525 -0.065262,0.262813 z"
       style="text-align:center;text-anchor:middle"
       id="path657" />
    <path
       d="m 10.87079,13.695722 -0.326312,-0.462129 h 0.176385 l 0.243412,0.356298 0.241647,-0.356298 h 0.174621 l -0.326312,0.462129 0.343951,0.483295 h -0.176385 l -0.257522,-0.377464 -0.26105,0.377464 h -0.174621 z"
       style="text-align:center;text-anchor:middle"
       id="path659" />
  </g>
  <text
     xml:space="preserve"
     transform="scale(0.26457812)"
     id="text3806"
     style="fill:#999999;stroke-width:2;font-size:6.66666667px;white-space:pre;shape-inside:url(#rect3808)" />
</svg>
