<?xml version="1.0" encoding="UTF-8" standalone="no"?>
<svg
   width="64"
   height="64"
   version="1.1"
   viewBox="0 0 16.933 16.933"
   id="svg7"
   sodipodi:docname="Utilities Template.svg"
   inkscape:version="1.4 (e7c3feb100, 2024-10-09)"
   xmlns:inkscape="http://www.inkscape.org/namespaces/inkscape"
   xmlns:sodipodi="http://sodipodi.sourceforge.net/DTD/sodipodi-0.dtd"
   xmlns:xlink="http://www.w3.org/1999/xlink"
   xmlns="http://www.w3.org/2000/svg"
   xmlns:svg="http://www.w3.org/2000/svg"
   xmlns:rdf="http://www.w3.org/1999/02/22-rdf-syntax-ns#"
   xmlns:cc="http://creativecommons.org/ns#"
   xmlns:dc="http://purl.org/dc/elements/1.1/">
  <sodipodi:namedview
     id="namedview7"
     pagecolor="#9c4444"
     bordercolor="#000000"
     borderopacity="0.25"
     inkscape:showpageshadow="2"
     inkscape:pageopacity="0.0"
     inkscape:pagecheckerboard="0"
     inkscape:deskcolor="#d1d1d1"
     inkscape:zoom="6.15625"
     inkscape:cx="15.593909"
     inkscape:cy="29.563452"
     inkscape:window-width="1226"
     inkscape:window-height="669"
     inkscape:window-x="35"
     inkscape:window-y="32"
     inkscape:window-maximized="0"
     inkscape:current-layer="svg7"
     showgrid="false" />
  <defs
     id="defs2">
    <rect
       x="67.489848"
       y="35.60533"
       width="15.337563"
       height="22.51269"
       id="rect3808" />
    <linearGradient
       inkscape:collect="always"
       id="linearGradient1134">
      <stop
         style="stop-color:#161616;stop-opacity:1;"
         offset="0"
         id="stop1130" />
      <stop
         style="stop-color:#404040;stop-opacity:1;"
         offset="1"
         id="stop1132" />
    </linearGradient>
    <linearGradient
       inkscape:collect="always"
       id="linearGradient883">
      <stop
         style="stop-color:#808080;stop-opacity:1;"
         offset="0"
         id="stop879" />
      <stop
         style="stop-color:#3e3e3e;stop-opacity:1;"
         offset="0.5"
         id="stop1216" />
      <stop
         style="stop-color:#242424;stop-opacity:1;"
         offset="1"
         id="stop881" />
    </linearGradient>
    <linearGradient
       inkscape:collect="always"
       xlink:href="#linearGradient883"
       id="linearGradient885"
       x1="2.1085808"
       y1="2.0236168"
       x2="14.846128"
       y2="15.071845"
       gradientUnits="userSpaceOnUse" />
    <linearGradient
       inkscape:collect="always"
       xlink:href="#linearGradient1134"
       id="linearGradient1136"
       x1="14.971222"
       y1="14.703373"
       x2="2.0756054"
       y2="2.0069976"
       gradientUnits="userSpaceOnUse" />
    <filter
       style="color-interpolation-filters:sRGB;"
       inkscape:label="Blur"
       id="filter1283"
       x="-0.082344266"
       y="-0.082344266"
       width="1.1646885"
       height="1.1646885">
      <feGaussianBlur
         stdDeviation="0.5 0.5"
         result="blur"
         id="feGaussianBlur1281" />
    </filter>
    <filter
       style="color-interpolation-filters:sRGB;"
       inkscape:label="Blur"
       id="filter1694"
       x="-0.94955398"
       y="-0.2118907"
       width="2.899108"
       height="1.4237814">
      <feGaussianBlur
         stdDeviation="0.2 0.2"
         result="blur"
         id="feGaussianBlur1692" />
    </filter>
    <filter
       style="color-interpolation-filters:sRGB;"
       inkscape:label="Blur"
       id="filter3148"
       x="-0.94955398"
       y="-0.2118907"
       width="2.899108"
       height="1.4237814">
      <feGaussianBlur
         stdDeviation="0.2 0.2"
         result="blur"
         id="feGaussianBlur3146" />
    </filter>
    <clipPath
       clipPathUnits="userSpaceOnUse"
       id="clipPath44">
      <path
         id="path46"
         style="display:block;opacity:0.85;fill:#f2f2f2;stroke-width:4.39162"
         d="m 17.570312,8.4453125 a 6.5431988,7.4283052 9.9958727e-8 0 0 -6.535156,7.4394535 6.5431988,7.4283052 9.9958727e-8 0 0 6.552735,7.417968 6.5431988,7.4283052 9.9958727e-8 0 0 6.535156,-7.4375 6.5431988,7.4283052 9.9958727e-8 0 0 -6.552735,-7.4199215 z M 45.646484,41.177734 a 6.5431986,7.0703472 2.4665357e-6 0 0 -6.533203,7.080078 6.5431986,7.0703472 2.4665357e-6 0 0 6.550781,7.060547 6.5431986,7.0703472 2.4665357e-6 0 0 6.535157,-7.080078 6.5431986,7.0703472 2.4665357e-6 0 0 -6.552735,-7.060547 z" />
    </clipPath>
    <inkscape:path-effect
       effect="powerclip"
       id="path-effect48"
       is_visible="true"
       lpeversion="1"
       inverse="true"
       flatten="false"
       hide_clip="false"
       message="" />
  </defs>
  <metadata
     id="metadata2">
    <rdf:RDF>
      <cc:Work
         rdf:about="">
        <dc:format>image/svg+xml</dc:format>
        <dc:type
           rdf:resource="http://purl.org/dc/dcmitype/StillImage" />
      </cc:Work>
    </rdf:RDF>
  </metadata>
  <rect
     style="fill:#000000;stroke:none;stroke-width:0.539739;stroke-dasharray:none;filter:url(#filter1283)"
     id="rect246-1"
     width="14.572964"
     height="14.572964"
     x="1.1932471"
     y="1.2138842"
     rx="2.1589575"
     ry="2.1589575" />
  <rect
     style="opacity:1;fill:#000000;stroke:url(#linearGradient885);stroke-width:0.52915625;stroke-dasharray:none"
     id="rect246"
     width="14.287219"
     height="14.287219"
     x="1.3361193"
     y="1.3567564"
     rx="2.1166251"
     ry="2.1166251" />
  <rect
     style="fill:url(#linearGradient1136);fill-opacity:1;stroke:none;stroke-width:0.478315;stroke-dasharray:none"
     id="rect246-5"
     width="12.914515"
     height="12.914515"
     x="2.0224717"
     y="2.0431087"
     rx="1.5874687"
     ry="1.5874687" />
  <g
     id="g10"
     transform="matrix(0.19287746,0,0,0.19287746,3.8890515,3.0017654)"
     style="fill:#999999">
    <path
       style="fill:#999999;fill-opacity:1"
       d="m 27.25,4.0097656 c 0,0 -6.398421,0.034677 -6.705078,0.044922 -0.733471,0.1087607 -1.556641,0.71875 -1.556641,0.71875 0.0185,0.00532 0.03771,-0.025593 0.05859,-0.021484 0.565118,-0.337587 1.450518,-0.4038517 2.003906,0.1542969 l 1.214844,2.1035156 2.083984,3.6093759 2.628907,4.552733 c -1.187433,0.677943 -3.464844,2 -3.464844,2 l 10.927734,2.927734 2.931641,-10.9218741 c 0,0 -3.469278,1.9898461 -3.466797,1.9941401 L 30.289062,4.9082031 C 29.883264,4.3361609 29.215336,4.1208191 28.640625,4.0253906 28.512291,4.0071086 27.906232,4.0003936 27.25,4.0097656 Z M 15.244141,18.751953 4.3183594,21.675781 c 0,0 3.4604106,2.008202 3.4628906,2.003907 l -3.6171875,6.263671 c -0.2925043,0.637452 -0.1441649,1.323713 0.060547,1.869141 0.048335,0.120282 0.345408,0.649262 0.6816406,1.212891 0,0 3.2284242,5.522753 3.390625,5.783203 0.4609251,0.580824 1.4003906,0.990234 1.4003906,0.990234 -0.00464,-0.01868 -0.039992,-0.01892 -0.046875,-0.03906 C 9.0754729,39.439151 8.5745733,38.703635 8.78125,37.945312 l 1.2148438,-2.103515 2.0839842,-3.609375 2.628906,-4.552734 c 1.180833,0.689375 3.462891,1.999999 3.462891,2 z M 31,28 l -8,8 7.994141,8 c 0,0 0.01082,-4 0.0059,-4 h 7.232422 c 0.698302,-0.06541 1.217892,-0.536328 1.58789,-0.986328 0.08,-0.102 0.390938,-0.624266 0.710938,-1.197266 0,0 3.168044,-5.55743 3.3125,-5.828125 C 44.116296,31.298696 44,30.28125 44,30.28125 43.98614,30.29461 44.0042,30.32577 43.9902,30.3418 44,31 43.613547,31.799829 42.853482,32.000003 H 40.423828 36.255859 31 c 0.0066,-1.367319 0,-4 0,-4 z"
       id="path6" />
    <path
       d="m 13.00433,14.53975 6.771334,3.924028 c 0.01892,-0.01323 0.61996,-1.024197 1.330171,-2.254075 0.710846,-1.22678 1.736479,-2.986332 2.269088,-3.905825 l 0.0035,-0.002 0.971155,-1.681911 -3.2985,-5.7131695 C 20.492605,4.3435561 19.600291,4.3160241 19.029351,4.7611267 18.669444,5.0497484 18.549621,5.18821 18.229369,5.7195176 17.776628,6.4693463 13.00866,14.53725 13,14.54225"
       style="fill:#999999"
       id="path7" />
    <path
       style="fill:#999999"
       d="m 38.361,20.115 -6.611,4.002 c 0.002,0.023 0.577,1.049 1.287,2.279 0.707,1.229 1.718,2.997 2.248,3.918 v 0.004 L 36.256,32 h 6.597 C 43.62,31.798 44.09,31.039 43.99,30.322 43.92,29.866 43.86,29.693 43.56,29.15 43.137,28.383 38.361,20.12 38.361,20.11"
       id="path8" />
    <path
       d="M 20.997835,39.9975 21,32 c 0,0 -6.111712,-0.0017 -8.919481,0 L 8.7820189,37.945186 C 8.573456,38.710428 8.9957693,39.49696 9.6667095,39.768857 10.096617,39.936236 10.27644,39.970774 10.896692,39.982466 11.772469,39.999638 20.993505,39.995 21.002165,40"
       style="fill:#999999"
       id="path9" />
  </g>
  <g
     fill="#474747"
     id="g9"
     transform="matrix(0.46959567,0,0,0.46959567,4.7471229,3.7470598)"
     style="fill:#999999;fill-opacity:1;stroke:none;stroke-width:0.58349;stroke-dasharray:none;stroke-opacity:0.3" />
  <g
     aria-label="Krita"
     id="text1450"
     style="font-size:1.76385px;opacity:1;fill:#00ffff;stroke-width:0.529156">
    <rect
       style="font-size:1.76385px;fill:#00ffff;fill-opacity:1;stroke:none;stroke-width:0.519976;stroke-dasharray:none;filter:url(#filter3148)"
       id="rect1656-3"
       width="0.5055005"
       height="2.2653189"
       x="15.369148"
       y="4.3016486"
       rx="0"
       ry="0" />
    <rect
       style="opacity:1;fill:#00ffff;fill-opacity:1;stroke:none;stroke-width:0.519976;stroke-dasharray:none"
       id="rect1656"
       width="0.5055005"
       height="2.2653189"
       x="15.369148"
       y="4.3016486"
       rx="0"
       ry="0" />
  </g>
  <path
     d="m 5.9743489,13.041334 q -0.2028427,0 -0.3192568,0.135816 -0.1164141,0.135817 -0.1164141,0.372173 0,0.234592 0.1075948,0.372172 0.1093587,0.135816 0.3263123,0.135816 0.082901,0 0.1569826,-0.01411 0.074082,-0.01411 0.1446357,-0.03528 v 0.13758 q -0.070554,0.02646 -0.1463995,0.0388 -0.074082,0.01235 -0.1781489,0.01235 -0.1922596,0 -0.3210207,-0.07937 -0.128761,-0.07937 -0.1940235,-0.225772 -0.063499,-0.1464 -0.063499,-0.343951 0,-0.190496 0.06879,-0.335132 0.070554,-0.146399 0.2063704,-0.227536 0.1358165,-0.0829 0.32984,-0.0829 0.199315,0 0.3474784,0.07408 l -0.063499,0.134053 q -0.058207,-0.02646 -0.1305249,-0.04762 -0.070554,-0.02117 -0.1552188,-0.02117 z m 0.7090677,1.137683 H 6.5281978 V 12.838491 H 6.6834166 Z M 7.348387,13.215955 q 0.1217056,0 0.2081343,0.05292 0.088192,0.05292 0.1340526,0.149928 0.047624,0.09525 0.047624,0.224009 v 0.09348 H 7.0908649 q 0.00353,0.16051 0.081137,0.245175 0.079373,0.0829 0.2204812,0.0829 0.089956,0 0.1587465,-0.01588 0.070554,-0.01764 0.1446357,-0.04939 v 0.135817 q -0.072318,0.03175 -0.1428718,0.04586 -0.070554,0.01588 -0.1675658,0.01588 -0.1340526,0 -0.2381197,-0.05468 -0.1023033,-0.05468 -0.1605104,-0.162274 -0.056443,-0.109359 -0.056443,-0.266341 0,-0.155219 0.051152,-0.266342 0.052916,-0.111122 0.1463995,-0.171093 0.095248,-0.05997 0.2204813,-0.05997 z m -0.00176,0.126997 q -0.1111225,0 -0.176385,0.07232 -0.063499,0.07055 -0.075845,0.197551 h 0.481531 q -0.00176,-0.119942 -0.056443,-0.194023 -0.054679,-0.07585 -0.1728573,-0.07585 z m 0.9895183,-0.125233 q 0.1728573,0 0.2557583,0.07584 0.082901,0.07585 0.082901,0.241648 v 0.643805 H 8.5619142 l -0.029985,-0.134053 h -0.00706 q -0.061735,0.07761 -0.1305249,0.114651 -0.067026,0.03704 -0.1869681,0.03704 -0.128761,0 -0.2134258,-0.06703 -0.084665,-0.06879 -0.084665,-0.213426 0,-0.141108 0.1111225,-0.216953 0.1111226,-0.07761 0.3421869,-0.08466 l 0.1605103,-0.0053 v -0.05644 q 0,-0.118178 -0.051152,-0.164038 -0.051152,-0.04586 -0.1446357,-0.04586 -0.074082,0 -0.141108,0.02293 -0.067026,0.02117 -0.1252333,0.04939 l -0.047624,-0.116414 q 0.061735,-0.03351 0.1463996,-0.05644 0.084665,-0.02469 0.1763849,-0.02469 z m 0.04586,0.504461 q -0.1763849,0.0071 -0.2451751,0.05644 -0.067026,0.04939 -0.067026,0.139344 0,0.07937 0.047624,0.116414 0.049388,0.03704 0.1252333,0.03704 0.1199418,0 0.199315,-0.06526 0.079373,-0.06703 0.079373,-0.204607 v -0.08466 z m 1.040673,-0.506225 q 0.1693296,0 0.2557582,0.0829 0.086429,0.08114 0.086429,0.264577 v 0.615584 h -0.153455 v -0.605 q 0,-0.227537 -0.211662,-0.227537 -0.1569826,0 -0.2169535,0.08819 -0.059971,0.08819 -0.059971,0.253995 v 0.49035 H 8.9676012 v -0.945424 h 0.1252333 l 0.02293,0.128762 h 0.00882 q 0.04586,-0.07408 0.1269972,-0.109359 0.081137,-0.03704 0.1710935,-0.03704 z m 1.0001035,0 q 0.121705,0 0.208134,0.05292 0.08819,0.05292 0.134053,0.149928 0.04762,0.09525 0.04762,0.224009 v 0.09348 h -0.647332 q 0.0035,0.16051 0.08114,0.245175 0.07937,0.0829 0.220481,0.0829 0.08996,0 0.158746,-0.01588 0.07055,-0.01764 0.144636,-0.04939 v 0.135817 q -0.07232,0.03175 -0.142872,0.04586 -0.07055,0.01588 -0.167566,0.01588 -0.134052,0 -0.238119,-0.05468 -0.102304,-0.05468 -0.160511,-0.162274 -0.05644,-0.109359 -0.05644,-0.266341 0,-0.155219 0.05115,-0.266342 0.05292,-0.111122 0.146399,-0.171093 0.09525,-0.05997 0.220482,-0.05997 z m -0.0018,0.126997 q -0.111123,0 -0.176385,0.07232 -0.0635,0.07055 -0.07585,0.197551 h 0.481531 q -0.0018,-0.119942 -0.05644,-0.194023 -0.05468,-0.07585 -0.172857,-0.07585 z m 1.072419,-0.126997 q 0.02646,0 0.05644,0.0035 0.03175,0.0018 0.05468,0.0071 l -0.0194,0.142872 q -0.02293,-0.0053 -0.05115,-0.0088 -0.02646,-0.0035 -0.05115,-0.0035 -0.07232,0 -0.135817,0.04057 -0.0635,0.0388 -0.102303,0.111122 -0.03704,0.07055 -0.03704,0.165802 v 0.504461 H 11.05247 v -0.945424 h 0.126998 l 0.01764,0.172858 h 0.0071 q 0.04586,-0.07761 0.118178,-0.134053 0.07232,-0.05644 0.171094,-0.05644 z"
     id="text2284"
     style="font-size:1.76385px;fill:#999999;stroke-width:0.529156"
     aria-label="Cleaner" />
  <text
     xml:space="preserve"
     transform="scale(0.26457812)"
     id="text3806"
     style="font-size:6.66667px;white-space:pre;shape-inside:url(#rect3808);display:inline;fill:#999999;stroke-width:2" />
</svg>
