<?xml version="1.0" encoding="UTF-8" standalone="no"?>
<svg
   width="64"
   height="64"
   version="1.1"
   viewBox="0 0 16.933 16.933"
   id="svg7"
   sodipodi:docname="org.gnome.PowerStats.svg"
   inkscape:version="1.4 (e7c3feb100, 2024-10-09)"
   xmlns:inkscape="http://www.inkscape.org/namespaces/inkscape"
   xmlns:sodipodi="http://sodipodi.sourceforge.net/DTD/sodipodi-0.dtd"
   xmlns:xlink="http://www.w3.org/1999/xlink"
   xmlns="http://www.w3.org/2000/svg"
   xmlns:svg="http://www.w3.org/2000/svg"
   xmlns:rdf="http://www.w3.org/1999/02/22-rdf-syntax-ns#"
   xmlns:cc="http://creativecommons.org/ns#"
   xmlns:dc="http://purl.org/dc/elements/1.1/">
  <sodipodi:namedview
     id="namedview7"
     pagecolor="#9c4444"
     bordercolor="#000000"
     borderopacity="0.25"
     inkscape:showpageshadow="2"
     inkscape:pageopacity="0.0"
     inkscape:pagecheckerboard="0"
     inkscape:deskcolor="#d1d1d1"
     inkscape:zoom="4.3531261"
     inkscape:cx="15.965538"
     inkscape:cy="17.343858"
     inkscape:window-width="1183"
     inkscape:window-height="973"
     inkscape:window-x="35"
     inkscape:window-y="32"
     inkscape:window-maximized="0"
     inkscape:current-layer="svg7"
     showgrid="false" />
  <defs
     id="defs2">
    <linearGradient
       inkscape:collect="always"
       id="linearGradient1134">
      <stop
         style="stop-color:#161616;stop-opacity:1;"
         offset="0"
         id="stop1130" />
      <stop
         style="stop-color:#404040;stop-opacity:1;"
         offset="1"
         id="stop1132" />
    </linearGradient>
    <linearGradient
       inkscape:collect="always"
       id="linearGradient883">
      <stop
         style="stop-color:#808080;stop-opacity:1;"
         offset="0"
         id="stop879" />
      <stop
         style="stop-color:#3e3e3e;stop-opacity:1;"
         offset="0.5"
         id="stop1216" />
      <stop
         style="stop-color:#242424;stop-opacity:1;"
         offset="1"
         id="stop881" />
    </linearGradient>
    <linearGradient
       inkscape:collect="always"
       xlink:href="#linearGradient883"
       id="linearGradient885"
       x1="2.1085808"
       y1="2.0236168"
       x2="14.846128"
       y2="15.071845"
       gradientUnits="userSpaceOnUse" />
    <linearGradient
       inkscape:collect="always"
       xlink:href="#linearGradient1134"
       id="linearGradient1136"
       x1="14.971222"
       y1="14.703373"
       x2="2.0756054"
       y2="2.0069976"
       gradientUnits="userSpaceOnUse" />
    <filter
       style="color-interpolation-filters:sRGB;"
       inkscape:label="Blur"
       id="filter1283"
       x="-0.082344266"
       y="-0.082344266"
       width="1.1646885"
       height="1.1646885">
      <feGaussianBlur
         stdDeviation="0.5 0.5"
         result="blur"
         id="feGaussianBlur1281" />
    </filter>
    <filter
       style="color-interpolation-filters:sRGB;"
       inkscape:label="Blur"
       id="filter1694"
       x="-0.94955398"
       y="-0.2118907"
       width="2.899108"
       height="1.4237814">
      <feGaussianBlur
         stdDeviation="0.2 0.2"
         result="blur"
         id="feGaussianBlur1692" />
    </filter>
    <filter
       style="color-interpolation-filters:sRGB;"
       inkscape:label="Blur"
       id="filter3335"
       x="-0.94955398"
       y="-0.2118907"
       width="2.899108"
       height="1.4237814">
      <feGaussianBlur
         stdDeviation="0.2 0.2"
         result="blur"
         id="feGaussianBlur3333" />
    </filter>
  </defs>
  <metadata
     id="metadata2">
    <rdf:RDF>
      <cc:Work
         rdf:about="">
        <dc:format>image/svg+xml</dc:format>
        <dc:type
           rdf:resource="http://purl.org/dc/dcmitype/StillImage" />
      </cc:Work>
    </rdf:RDF>
  </metadata>
  <rect
     style="fill:#000000;stroke:none;stroke-width:0.539739;stroke-dasharray:none;filter:url(#filter1283)"
     id="rect246-1"
     width="14.572964"
     height="14.572964"
     x="1.1932471"
     y="1.2138842"
     rx="2.1589575"
     ry="2.1589575" />
  <rect
     style="opacity:1;fill:#000000;stroke:url(#linearGradient885);stroke-width:0.52915625;stroke-dasharray:none"
     id="rect246"
     width="14.287219"
     height="14.287219"
     x="1.3361193"
     y="1.3567564"
     rx="2.1166251"
     ry="2.1166251" />
  <g
     aria-label="Krita"
     id="text1450"
     style="font-size:1.76385px;opacity:1;fill:#999999;stroke-width:0.529156">
    <rect
       style="font-size:1.76385px;fill:#ff0000;fill-opacity:1;stroke:none;stroke-width:0.519976;stroke-dasharray:none;filter:url(#filter3335)"
       id="rect1656-0"
       width="0.5055005"
       height="2.2653189"
       x="15.369148"
       y="4.3016486"
       rx="0"
       ry="0" />
    <rect
       style="opacity:1;fill:#ff0000;fill-opacity:1;stroke:none;stroke-width:0.519976;stroke-dasharray:none"
       id="rect1656"
       width="0.5055005"
       height="2.2653189"
       x="15.369148"
       y="4.3016486"
       rx="0"
       ry="0" />
  </g>
  <rect
     style="fill:url(#linearGradient1136);fill-opacity:1;stroke:none;stroke-width:0.478315;stroke-dasharray:none"
     id="rect246-5"
     width="12.914515"
     height="12.914515"
     x="2.0224717"
     y="2.0431087"
     rx="1.5874687"
     ry="1.5874687" />
  <path
     style="fill:#999999;fill-opacity:1;stroke:none;stroke-width:0.224185;stroke-dasharray:none;stroke-opacity:0.3"
     d="M 8.5420258,3.7205511 V 6.5368543 H 11.290076 L 8.5420258,11.230694 V 8.4143892 H 5.7939761 Z"
     id="path6" />
  <g
     aria-label="Power Stats"
     id="text1241"
     style="font-size:1.76385px;text-align:center;text-anchor:middle;fill:#999999;stroke-width:0.529156">
    <path
       d="m 4.1001668,12.920051 q 0.246939,0 0.3598254,0.09701 0.1128864,0.09701 0.1128864,0.273397 0,0.104067 -0.047624,0.195788 -0.04586,0.08996 -0.1569826,0.146399 -0.1093587,0.05644 -0.2980907,0.05644 H 3.9255456 V 14.17944 H 3.7667991 V 12.920051 Z M 4.086056,13.055867 H 3.9255456 v 0.497406 h 0.1269972 q 0.1799127,0 0.2681052,-0.05821 0.088192,-0.05821 0.088192,-0.197551 0,-0.121706 -0.077609,-0.181677 -0.077609,-0.05997 -0.2451751,-0.05997 z"
       id="path1899" />
    <path
       d="m 5.6347154,13.704964 q 0,0.234592 -0.1199418,0.363353 -0.1181779,0.128761 -0.3210207,0.128761 -0.1252333,0 -0.2240089,-0.05644 -0.097012,-0.05821 -0.153455,-0.167566 -0.056443,-0.111122 -0.056443,-0.268105 0,-0.234592 0.118178,-0.361589 0.1181779,-0.126998 0.3210207,-0.126998 0.128761,0 0.2257728,0.05821 0.098776,0.05644 0.1534549,0.165801 0.056443,0.107595 0.056443,0.264578 z m -0.7143592,0 q 0,0.167566 0.065262,0.266341 0.067026,0.09701 0.211662,0.09701 0.1428719,0 0.2098982,-0.09701 0.067026,-0.09877 0.067026,-0.266341 0,-0.167566 -0.067026,-0.262814 -0.067026,-0.09525 -0.211662,-0.09525 -0.1446357,0 -0.2098982,0.09525 -0.065262,0.09525 -0.065262,0.262814 z"
       id="path1901" />
    <path
       d="m 6.454904,13.644993 q -0.02293,-0.07232 -0.040569,-0.141108 -0.015875,-0.07055 -0.024694,-0.109359 h -0.00706 q -0.00706,0.0388 -0.02293,0.109359 -0.015875,0.06879 -0.040569,0.142872 L 6.149758,14.177676 H 5.973373 L 5.714087,13.232252 h 0.1605104 l 0.1305249,0.504461 q 0.019402,0.07585 0.037041,0.153455 0.017639,0.07761 0.024694,0.128761 h 0.00706 q 0.00706,-0.02998 0.015875,-0.07408 0.010583,-0.0441 0.02293,-0.09172 0.012347,-0.04939 0.024694,-0.08819 l 0.1675658,-0.532683 h 0.1693296 l 0.1622742,0.532683 q 0.019402,0.05997 0.037041,0.130525 0.019402,0.07055 0.026458,0.121705 h 0.00706 q 0.00529,-0.0441 0.02293,-0.121705 0.019402,-0.07761 0.040569,-0.158747 L 6.9029219,13.232252 H 7.0616684 L 6.7988548,14.177676 H 6.6171782 Z"
       id="path1903" />
    <path
       d="m 7.5961138,13.216377 q 0.1217057,0 0.2081343,0.05292 0.088192,0.05292 0.1340526,0.149927 0.047624,0.09525 0.047624,0.224009 v 0.09348 h -0.647333 q 0.00353,0.160511 0.081137,0.245175 0.079373,0.0829 0.2204813,0.0829 0.089956,0 0.1587465,-0.01587 0.070554,-0.01764 0.1446357,-0.04939 v 0.135816 q -0.072318,0.03175 -0.1428719,0.04586 -0.070554,0.01587 -0.1675657,0.01587 -0.1340526,0 -0.2381198,-0.05468 -0.1023033,-0.05468 -0.1605103,-0.162275 -0.056443,-0.109358 -0.056443,-0.266341 0,-0.155219 0.051152,-0.266341 0.052916,-0.111123 0.1463996,-0.171094 0.095248,-0.05997 0.2204812,-0.05997 z m -0.00176,0.126998 q -0.1111226,0 -0.176385,0.07232 -0.063499,0.07055 -0.075846,0.197551 H 7.8236505 Q 7.8218866,13.493302 7.7672073,13.41922 7.7125279,13.343375 7.59435,13.343375 Z"
       id="path1905" />
    <path
       d="m 8.666769,13.216377 q 0.026458,0 0.056443,0.0035 0.031749,0.0018 0.054679,0.0071 l -0.019402,0.142871 q -0.02293,-0.0053 -0.051152,-0.0088 -0.026458,-0.0035 -0.051152,-0.0035 -0.072318,0 -0.1358164,0.04057 -0.063499,0.0388 -0.1023033,0.111123 -0.037041,0.07055 -0.037041,0.165801 V 14.17944 H 8.2258065 v -0.945424 h 0.1269972 l 0.017638,0.172857 h 0.00706 q 0.04586,-0.07761 0.118178,-0.134052 0.072318,-0.05644 0.1710934,-0.05644 z"
       id="path1907" />
    <path
       d="m 10.148404,13.842544 q 0,0.167566 -0.121706,0.26105 -0.1217055,0.09348 -0.328076,0.09348 -0.105831,0 -0.1957873,-0.01587 -0.089956,-0.01587 -0.1499273,-0.0441 v -0.151691 q 0.063499,0.02822 0.1569827,0.05115 0.095248,0.02293 0.1957873,0.02293 0.141108,0 0.211662,-0.05468 0.072318,-0.05468 0.072318,-0.148163 0,-0.06174 -0.026458,-0.104067 -0.026458,-0.04233 -0.09172,-0.07761 -0.063499,-0.03704 -0.1781488,-0.07761 -0.1605104,-0.05821 -0.2434113,-0.142872 -0.081137,-0.08466 -0.081137,-0.231064 0,-0.10054 0.051152,-0.171094 0.051152,-0.07232 0.141108,-0.111122 0.09172,-0.0388 0.2098982,-0.0388 0.1040671,0 0.1904958,0.0194 0.086428,0.0194 0.1569823,0.05115 l -0.04939,0.135817 q -0.06526,-0.02822 -0.1428723,-0.04762 -0.075846,-0.0194 -0.1587465,-0.0194 -0.118178,0 -0.1781489,0.05115 -0.059971,0.04939 -0.059971,0.132289 0,0.0635 0.026458,0.105831 0.026458,0.04233 0.086429,0.07584 0.059971,0.03351 0.1622742,0.07232 0.1111226,0.04057 0.1869681,0.08819 0.07761,0.04586 0.1164139,0.111122 0.04057,0.06526 0.04057,0.164038 z"
       id="path1909" />
    <path
       d="m 10.696961,14.070081 q 0.03528,0 0.07232,-0.0053 0.03704,-0.0071 0.05997,-0.01411 v 0.118178 q -0.02469,0.01235 -0.07055,0.0194 -0.04586,0.0088 -0.08819,0.0088 -0.07408,0 -0.13758,-0.02469 -0.06174,-0.02646 -0.10054,-0.08996 -0.0388,-0.0635 -0.0388,-0.178149 v -0.550321 h -0.134053 v -0.07408 l 0.135816,-0.06174 0.06174,-0.201079 h 0.09172 v 0.216954 h 0.273397 v 0.119942 h -0.273397 v 0.546793 q 0,0.08643 0.04057,0.128761 0.04233,0.04057 0.107595,0.04057 z"
       id="path1911" />
    <path
       d="m 11.376043,13.218141 q 0.172857,0 0.255758,0.07585 0.0829,0.07585 0.0829,0.241647 v 0.643806 h -0.112886 l -0.02999,-0.134053 h -0.0071 q -0.06173,0.07761 -0.130525,0.11465 -0.06703,0.03704 -0.186968,0.03704 -0.128761,0 -0.213426,-0.06703 -0.08466,-0.06879 -0.08466,-0.213426 0,-0.141108 0.111123,-0.216954 0.111122,-0.07761 0.342187,-0.08466 l 0.16051,-0.0053 v -0.05644 q 0,-0.118178 -0.05115,-0.164038 -0.05115,-0.04586 -0.144635,-0.04586 -0.07408,0 -0.141108,0.02293 -0.06703,0.02117 -0.125234,0.04939 l -0.04762,-0.116415 q 0.06174,-0.03351 0.1464,-0.05644 0.08467,-0.02469 0.176385,-0.02469 z m 0.04586,0.504461 q -0.176385,0.0071 -0.245175,0.05644 -0.06703,0.04939 -0.06703,0.139344 0,0.07937 0.04762,0.116414 0.04939,0.03704 0.125234,0.03704 0.119942,0 0.199315,-0.06526 0.07937,-0.06703 0.07937,-0.204606 v -0.08466 z"
       id="path1913" />
    <path
       d="m 12.323232,14.070081 q 0.03528,0 0.07232,-0.0053 0.03704,-0.0071 0.05997,-0.01411 v 0.118178 q -0.02469,0.01235 -0.07055,0.0194 -0.04586,0.0088 -0.08819,0.0088 -0.07408,0 -0.137581,-0.02469 -0.06173,-0.02646 -0.100539,-0.08996 -0.0388,-0.0635 -0.0388,-0.178149 v -0.550321 h -0.134052 v -0.07408 l 0.135816,-0.06174 0.06174,-0.201079 h 0.09172 v 0.216954 h 0.273397 v 0.119942 h -0.273397 v 0.546793 q 0,0.08643 0.04057,0.128761 0.04233,0.04057 0.107595,0.04057 z"
       id="path1915" />
    <path
       d="m 13.259836,13.91839 q 0,0.13758 -0.102303,0.208134 -0.102303,0.07055 -0.275161,0.07055 -0.09877,0 -0.171093,-0.01587 -0.07055,-0.01587 -0.125233,-0.0441 v -0.141108 q 0.05644,0.02822 0.135816,0.05292 0.08114,0.02293 0.164038,0.02293 0.118178,0 0.171093,-0.03704 0.05292,-0.0388 0.05292,-0.102303 0,-0.03528 -0.0194,-0.0635 -0.0194,-0.02822 -0.07055,-0.05644 -0.04939,-0.02822 -0.142872,-0.0635 -0.09172,-0.03528 -0.156983,-0.07055 -0.06526,-0.03528 -0.100539,-0.08467 -0.03528,-0.04939 -0.03528,-0.126997 0,-0.119942 0.09701,-0.185204 0.09878,-0.06526 0.257523,-0.06526 0.08643,0 0.16051,0.01764 0.07585,0.01587 0.141108,0.04586 l -0.05292,0.12347 q -0.05997,-0.02469 -0.125233,-0.04233 -0.06526,-0.01764 -0.134053,-0.01764 -0.09525,0 -0.146399,0.03175 -0.04939,0.02998 -0.04939,0.0829 0,0.0388 0.02293,0.06703 0.02293,0.02646 0.07585,0.05292 0.05468,0.02469 0.144635,0.05997 0.08996,0.03351 0.153455,0.06879 0.0635,0.03528 0.09701,0.08643 0.03351,0.04939 0.03351,0.125234 z"
       id="path1917" />
  </g>
</svg>
