<?xml version="1.0" encoding="UTF-8" standalone="no"?>
<svg
   width="64"
   height="64"
   version="1.1"
   viewBox="0 0 16.933 16.933"
   id="svg7"
   sodipodi:docname="Games Templates.svg"
   inkscape:version="1.4 (e7c3feb100, 2024-10-09)"
   xmlns:inkscape="http://www.inkscape.org/namespaces/inkscape"
   xmlns:sodipodi="http://sodipodi.sourceforge.net/DTD/sodipodi-0.dtd"
   xmlns:xlink="http://www.w3.org/1999/xlink"
   xmlns="http://www.w3.org/2000/svg"
   xmlns:svg="http://www.w3.org/2000/svg"
   xmlns:rdf="http://www.w3.org/1999/02/22-rdf-syntax-ns#"
   xmlns:cc="http://creativecommons.org/ns#"
   xmlns:dc="http://purl.org/dc/elements/1.1/">
  <sodipodi:namedview
     id="namedview7"
     pagecolor="#9c4444"
     bordercolor="#000000"
     borderopacity="0.25"
     inkscape:showpageshadow="2"
     inkscape:pageopacity="0.0"
     inkscape:pagecheckerboard="0"
     inkscape:deskcolor="#d1d1d1"
     inkscape:zoom="6.15625"
     inkscape:cx="33.86802"
     inkscape:cy="27.370558"
     inkscape:window-width="1183"
     inkscape:window-height="973"
     inkscape:window-x="35"
     inkscape:window-y="32"
     inkscape:window-maximized="0"
     inkscape:current-layer="svg7"
     showgrid="false" />
  <defs
     id="defs2">
    <linearGradient
       inkscape:collect="always"
       id="linearGradient1134">
      <stop
         style="stop-color:#161616;stop-opacity:1;"
         offset="0"
         id="stop1130" />
      <stop
         style="stop-color:#404040;stop-opacity:1;"
         offset="1"
         id="stop1132" />
    </linearGradient>
    <linearGradient
       inkscape:collect="always"
       id="linearGradient883">
      <stop
         style="stop-color:#808080;stop-opacity:1;"
         offset="0"
         id="stop879" />
      <stop
         style="stop-color:#3e3e3e;stop-opacity:1;"
         offset="0.5"
         id="stop1216" />
      <stop
         style="stop-color:#242424;stop-opacity:1;"
         offset="1"
         id="stop881" />
    </linearGradient>
    <linearGradient
       inkscape:collect="always"
       xlink:href="#linearGradient883"
       id="linearGradient885"
       x1="2.1085808"
       y1="2.0236168"
       x2="14.846128"
       y2="15.071845"
       gradientUnits="userSpaceOnUse" />
    <linearGradient
       inkscape:collect="always"
       xlink:href="#linearGradient1134"
       id="linearGradient1136"
       x1="14.971222"
       y1="14.703373"
       x2="2.0756054"
       y2="2.0069976"
       gradientUnits="userSpaceOnUse" />
    <filter
       style="color-interpolation-filters:sRGB;"
       inkscape:label="Blur"
       id="filter1283"
       x="-0.082344266"
       y="-0.082344266"
       width="1.1646885"
       height="1.1646885">
      <feGaussianBlur
         stdDeviation="0.5 0.5"
         result="blur"
         id="feGaussianBlur1281" />
    </filter>
    <filter
       style="color-interpolation-filters:sRGB;"
       inkscape:label="Blur"
       id="filter1694"
       x="-0.94955398"
       y="-0.2118907"
       width="2.899108"
       height="1.4237814">
      <feGaussianBlur
         stdDeviation="0.2 0.2"
         result="blur"
         id="feGaussianBlur1692" />
    </filter>
  </defs>
  <metadata
     id="metadata2">
    <rdf:RDF>
      <cc:Work
         rdf:about="">
        <dc:format>image/svg+xml</dc:format>
        <dc:type
           rdf:resource="http://purl.org/dc/dcmitype/StillImage" />
      </cc:Work>
    </rdf:RDF>
  </metadata>
  <rect
     style="fill:#000000;stroke:none;stroke-width:0.539739;stroke-dasharray:none;filter:url(#filter1283)"
     id="rect246-1"
     width="14.572964"
     height="14.572964"
     x="1.1932471"
     y="1.2138842"
     rx="2.1589575"
     ry="2.1589575" />
  <rect
     style="opacity:1;fill:#000000;stroke:url(#linearGradient885);stroke-width:0.52915625;stroke-dasharray:none"
     id="rect246"
     width="14.287219"
     height="14.287219"
     x="1.3361193"
     y="1.3567564"
     rx="2.1166251"
     ry="2.1166251" />
  <rect
     style="fill:url(#linearGradient1136);fill-opacity:1;stroke:none;stroke-width:0.478315;stroke-dasharray:none"
     id="rect246-5"
     width="12.914515"
     height="12.914515"
     x="2.0224717"
     y="2.0431087"
     rx="1.5874687"
     ry="1.5874687" />
  <path
     style="fill:#999999;fill-opacity:1;stroke:none;stroke-width:0.0130532;stroke-opacity:0.3"
     d="m 6.0017507,9.434303 c 0.063565,-0.070608 0.7482501,-0.8974717 0.7482501,-0.9036297 0,-0.00381 -0.2437689,-0.00683 -0.5417086,-0.00683 -0.2979398,0 -0.5417088,-0.00321 -0.5417088,-0.00712 0,-0.00557 0.1415403,-0.4815483 0.1773864,-0.5965829 0.00671,-0.021516 -0.025654,-0.022846 -0.5552988,-0.022846 H 4.7262542 l 0.00911,-0.035897 c 0.005,-0.019748 0.1097444,-0.4382664 0.2327461,-0.9300464 l 0.2236395,-0.8941457 0.2243647,-0.00357 c 0.1496823,-0.00239 0.2243648,9.63e-4 0.2243648,0.010077 0,0.00751 -0.049928,0.2131046 -0.1109522,0.4568834 -0.061024,0.2437803 -0.1109522,0.449239 -0.1109522,0.4565765 0,0.00876 0.1222768,0.013342 0.3560832,0.013342 h 0.3560834 l 0.077553,-0.31328 0.077553,-0.3132773 h 0.6236742 c 0.3430209,0 0.6236744,-0.003 0.6236744,-0.00667 0,-0.00367 -0.1340016,-0.2077865 -0.2977811,-0.4535994 C 7.0716328,5.6378761 6.9332482,5.429414 6.9278914,5.42044 6.9202514,5.407644 6.9661764,5.404123 7.1407365,5.404123 h 0.2225854 l 0.313457,0.4699162 0.3134568,0.4699159 H 8.4664988 8.9427617 L 9.2562185,5.8740386 9.5696751,5.4041224 h 0.2225856 c 0.1745608,0 0.2204843,0.00352 0.2128453,0.016318 -0.0054,0.00897 -0.1437429,0.2174362 -0.3075208,0.4632491 -0.1637797,0.2458128 -0.297781,0.4499326 -0.297781,0.4535995 0,0.00367 0.2806531,0.00667 0.6236738,0.00667 h 0.623674 l 0.07755,0.3132772 0.07755,0.3132772 h 0.356083 c 0.233807,0 0.356085,-0.00457 0.356085,-0.013342 0,-0.00733 -0.04993,-0.2127962 -0.110952,-0.456575 -0.06103,-0.2437788 -0.110954,-0.4493763 -0.110954,-0.4568832 0,-0.0091 0.07468,-0.012461 0.224364,-0.010077 l 0.224366,0.00357 0.22364,0.8941455 c 0.123,0.49178 0.227737,0.910299 0.232746,0.930042 l 0.0091,0.035896 h -0.562417 c -0.529645,0 -0.562001,0.00133 -0.555299,0.022843 0.03585,0.1150346 0.177387,0.5910603 0.177387,0.5965834 0,0.00387 -0.243769,0.00712 -0.541709,0.00712 -0.29794,0 -0.541708,0.00309 -0.541708,0.00683 0,0.00616 0.684685,0.8330234 0.748248,0.9036303 l 0.02644,0.029371 H 10.49864 10.03959 L 9.7261339,8.9937567 9.4126775,8.5238406 H 8.468459 7.5242408 L 7.2121765,8.9934173 6.9001119,9.462994 6.4377106,9.4633374 5.9753091,9.4636825 Z M 7.5331941,7.1989381 V 6.800815 H 7.1350708 6.7369475 v 0.3981231 0.3981231 h 0.3981233 0.3981233 z m 2.6628579,0 V 6.800815 H 9.7979274 9.3998048 v 0.3981231 0.3981231 h 0.3981226 0.3981246 z"
     id="path1526" />
  <g
     aria-label="Krita"
     id="text1450"
     style="font-size:1.76385px;opacity:1;fill:#ff00ff;stroke-width:0.529156">
    <rect
       style="font-size:1.76385px;fill:#ff00ff;fill-opacity:1;stroke:none;stroke-width:0.519976;stroke-dasharray:none;filter:url(#filter1694)"
       id="rect1656-7"
       width="0.5055005"
       height="2.2653189"
       x="15.369148"
       y="4.3016486"
       rx="0"
       ry="0" />
    <rect
       style="opacity:1;fill:#ff00ff;fill-opacity:1;stroke:none;stroke-width:0.519976;stroke-dasharray:none"
       id="rect1656"
       width="0.5055005"
       height="2.2653189"
       x="15.369148"
       y="4.3016486"
       rx="0"
       ry="0" />
  </g>
  <path
     d="m 4.7381529,12.901584 q 0.234592,0 0.3457146,0.08996 0.1128864,0.08819 0.1128864,0.268105 0,0.10054 -0.037041,0.167566 -0.037041,0.06703 -0.095248,0.107595 -0.056443,0.0388 -0.1199418,0.06174 l 0.3457146,0.564432 H 5.1050337 L 4.7998876,13.640637 H 4.5494209 v 0.520336 H 4.3906744 v -1.259389 z m -0.00882,0.13758 H 4.5494209 v 0.46742 h 0.188732 q 0.1534549,0 0.2240089,-0.05997 0.070554,-0.06173 0.070554,-0.179912 0,-0.12347 -0.074082,-0.174621 -0.074082,-0.05292 -0.2293005,-0.05292 z m 1.1024058,0.158747 q 0.1217056,0 0.2081343,0.05292 0.088192,0.05292 0.1340526,0.149927 0.047624,0.09525 0.047624,0.224009 v 0.09348 H 5.5742173 q 0.00353,0.160511 0.081137,0.245175 0.079373,0.0829 0.2204812,0.0829 0.089956,0 0.1587465,-0.01587 0.070554,-0.01764 0.1446357,-0.04939 v 0.135816 q -0.072318,0.03175 -0.1428718,0.04586 -0.070554,0.01587 -0.1675658,0.01587 -0.1340526,0 -0.2381197,-0.05468 -0.1023033,-0.05468 -0.1605104,-0.162274 -0.056443,-0.109359 -0.056443,-0.266342 0,-0.155219 0.051152,-0.266341 0.052915,-0.111123 0.1463995,-0.171094 0.095248,-0.05997 0.2204813,-0.05997 z m -0.00176,0.126997 q -0.1111225,0 -0.176385,0.07232 -0.063499,0.07055 -0.075845,0.197551 h 0.481531 q -0.00176,-0.119942 -0.056443,-0.194024 -0.054679,-0.07584 -0.1728573,-0.07584 z m 0.9471861,0.726706 q 0.035277,0 0.072318,-0.0053 0.037041,-0.0071 0.059971,-0.01411 v 0.118177 q -0.024694,0.01235 -0.070554,0.0194 -0.04586,0.0088 -0.088192,0.0088 -0.074082,0 -0.1375803,-0.02469 -0.061735,-0.02646 -0.1005394,-0.08996 -0.038805,-0.0635 -0.038805,-0.178149 V 13.335491 H 6.3397268 v -0.07408 l 0.1358164,-0.06174 0.061735,-0.201079 h 0.09172 v 0.216954 h 0.2733967 v 0.119942 H 6.6289982 v 0.546793 q 0,0.08643 0.040569,0.128761 0.042332,0.04057 0.1075949,0.04057 z m 0.7619831,-0.853703 q 0.026458,0 0.056443,0.0035 0.031749,0.0018 0.054679,0.0071 l -0.019402,0.142871 q -0.02293,-0.0053 -0.051152,-0.0088 -0.026458,-0.0035 -0.051152,-0.0035 -0.072318,0 -0.1358165,0.04057 -0.063499,0.0388 -0.1023033,0.111123 -0.037041,0.07055 -0.037041,0.165802 v 0.504461 H 7.0981822 v -0.945424 h 0.1269972 l 0.017639,0.172857 h 0.00706 q 0.04586,-0.07761 0.1181779,-0.134052 0.072318,-0.05644 0.1710935,-0.05644 z m 1.074184,0.488586 q 0,0.234592 -0.1199418,0.363353 -0.1181779,0.128761 -0.3210207,0.128761 -0.1252333,0 -0.2240089,-0.05644 -0.097012,-0.05821 -0.153455,-0.167566 -0.056443,-0.111122 -0.056443,-0.268105 0,-0.234592 0.118178,-0.361589 0.1181779,-0.126997 0.3210207,-0.126997 0.128761,0 0.2257728,0.05821 0.098776,0.05644 0.1534549,0.165801 0.056443,0.107595 0.056443,0.264578 z m -0.7143592,0 q 0,0.167566 0.065262,0.266341 0.067026,0.09701 0.211662,0.09701 0.1428719,0 0.2098982,-0.09701 0.067026,-0.09877 0.067026,-0.266341 0,-0.167566 -0.067026,-0.262814 -0.067026,-0.09525 -0.211662,-0.09525 -0.1446357,0 -0.2098982,0.09525 -0.065262,0.09525 -0.065262,0.262814 z M 9.6698743,14.160973 9.5181832,13.771162 H 9.0190136 L 8.8690864,14.160973 H 8.7085761 L 9.2006902,12.896292 H 9.343562 l 0.4903503,1.264681 z M 9.3294512,13.249062 q -0.00529,-0.01411 -0.017638,-0.05115 -0.012347,-0.03704 -0.024694,-0.07585 -0.010583,-0.04057 -0.017639,-0.06173 -0.012347,0.05468 -0.028222,0.107595 -0.015875,0.05115 -0.026458,0.08114 l -0.1428719,0.380992 h 0.3986301 z m 1.0971148,-0.05115 q 0.02646,0 0.05644,0.0035 0.03175,0.0018 0.05468,0.0071 l -0.0194,0.142871 q -0.02293,-0.0053 -0.05115,-0.0088 -0.02646,-0.0035 -0.05115,-0.0035 -0.07232,0 -0.135817,0.04057 -0.0635,0.0388 -0.102303,0.111123 -0.03704,0.07055 -0.03704,0.165802 v 0.504461 H 9.9856033 V 13.215549 H 10.1126 l 0.01764,0.172857 h 0.0071 q 0.04586,-0.07761 0.118178,-0.134052 0.07232,-0.05644 0.171094,-0.05644 z m 0.631457,0.9807 q -0.125233,0 -0.224009,-0.05115 -0.09701,-0.05115 -0.153455,-0.158746 -0.05468,-0.107595 -0.05468,-0.275161 0,-0.174621 0.05821,-0.283979 0.05821,-0.109359 0.156982,-0.160511 0.10054,-0.05115 0.227537,-0.05115 0.07232,0 0.139344,0.01587 0.06703,0.01411 0.109359,0.03528 l -0.04762,0.128761 q -0.04233,-0.01587 -0.09878,-0.02998 -0.05644,-0.01411 -0.105831,-0.01411 -0.278688,0 -0.278688,0.358062 0,0.171093 0.06703,0.262813 0.06879,0.08996 0.202843,0.08996 0.07761,0 0.135817,-0.01587 0.05997,-0.01587 0.109358,-0.0388 v 0.13758 q -0.04762,0.02469 -0.105831,0.03704 -0.05644,0.01411 -0.13758,0.01411 z m 0.622638,-0.964826 q 0,0.07055 -0.0088,0.132289 h 0.01058 q 0.04586,-0.07232 0.12347,-0.109359 0.07937,-0.03704 0.171093,-0.03704 0.172857,0 0.259286,0.0829 0.08643,0.08114 0.08643,0.262814 v 0.615584 h -0.153455 v -0.605001 q 0,-0.227537 -0.211662,-0.227537 -0.158747,0 -0.218718,0.08996 -0.05821,0.08819 -0.05821,0.253994 v 0.488587 h -0.155218 v -1.340526 h 0.155218 z"
     id="text1"
     style="font-size:1.76385px;text-align:center;text-anchor:middle;fill:#999999;stroke-width:0.264578"
     aria-label="RetroArch" />
</svg>
