<?xml version="1.0" encoding="UTF-8" standalone="no"?>
<svg
   width="64"
   height="64"
   version="1.1"
   viewBox="0 0 16.933 16.933"
   id="svg7"
   sodipodi:docname="Graphics Template.svg"
   inkscape:version="1.4 (e7c3feb100, 2024-10-09)"
   xmlns:inkscape="http://www.inkscape.org/namespaces/inkscape"
   xmlns:sodipodi="http://sodipodi.sourceforge.net/DTD/sodipodi-0.dtd"
   xmlns:xlink="http://www.w3.org/1999/xlink"
   xmlns="http://www.w3.org/2000/svg"
   xmlns:svg="http://www.w3.org/2000/svg"
   xmlns:rdf="http://www.w3.org/1999/02/22-rdf-syntax-ns#"
   xmlns:cc="http://creativecommons.org/ns#"
   xmlns:dc="http://purl.org/dc/elements/1.1/">
  <sodipodi:namedview
     id="namedview7"
     pagecolor="#9c4444"
     bordercolor="#000000"
     borderopacity="0.25"
     inkscape:showpageshadow="2"
     inkscape:pageopacity="0.0"
     inkscape:pagecheckerboard="0"
     inkscape:deskcolor="#d1d1d1"
     inkscape:zoom="6.15625"
     inkscape:cx="15.675127"
     inkscape:cy="27.370558"
     inkscape:window-width="1183"
     inkscape:window-height="973"
     inkscape:window-x="35"
     inkscape:window-y="32"
     inkscape:window-maximized="0"
     inkscape:current-layer="svg7"
     showgrid="false" />
  <defs
     id="defs2">
    <linearGradient
       inkscape:collect="always"
       id="linearGradient1134">
      <stop
         style="stop-color:#161616;stop-opacity:1;"
         offset="0"
         id="stop1130" />
      <stop
         style="stop-color:#404040;stop-opacity:1;"
         offset="1"
         id="stop1132" />
    </linearGradient>
    <linearGradient
       inkscape:collect="always"
       id="linearGradient883">
      <stop
         style="stop-color:#808080;stop-opacity:1;"
         offset="0"
         id="stop879" />
      <stop
         style="stop-color:#3e3e3e;stop-opacity:1;"
         offset="0.5"
         id="stop1216" />
      <stop
         style="stop-color:#242424;stop-opacity:1;"
         offset="1"
         id="stop881" />
    </linearGradient>
    <linearGradient
       inkscape:collect="always"
       xlink:href="#linearGradient883"
       id="linearGradient885"
       x1="2.1085808"
       y1="2.0236168"
       x2="14.846128"
       y2="15.071845"
       gradientUnits="userSpaceOnUse" />
    <linearGradient
       inkscape:collect="always"
       xlink:href="#linearGradient1134"
       id="linearGradient1136"
       x1="14.971222"
       y1="14.703373"
       x2="2.0756054"
       y2="2.0069976"
       gradientUnits="userSpaceOnUse" />
    <filter
       style="color-interpolation-filters:sRGB;"
       inkscape:label="Blur"
       id="filter1283"
       x="-0.082344266"
       y="-0.082344266"
       width="1.1646885"
       height="1.1646885">
      <feGaussianBlur
         stdDeviation="0.5 0.5"
         result="blur"
         id="feGaussianBlur1281" />
    </filter>
    <filter
       style="color-interpolation-filters:sRGB;"
       inkscape:label="Blur"
       id="filter1694"
       x="-0.94955398"
       y="-0.2118907"
       width="2.899108"
       height="1.4237814">
      <feGaussianBlur
         stdDeviation="0.2 0.2"
         result="blur"
         id="feGaussianBlur1692" />
    </filter>
  </defs>
  <metadata
     id="metadata2">
    <rdf:RDF>
      <cc:Work
         rdf:about="">
        <dc:format>image/svg+xml</dc:format>
        <dc:type
           rdf:resource="http://purl.org/dc/dcmitype/StillImage" />
      </cc:Work>
    </rdf:RDF>
  </metadata>
  <rect
     style="fill:#000000;stroke:none;stroke-width:0.539739;stroke-dasharray:none;filter:url(#filter1283)"
     id="rect246-1"
     width="14.572964"
     height="14.572964"
     x="1.1932471"
     y="1.2138842"
     rx="2.1589575"
     ry="2.1589575" />
  <rect
     style="opacity:1;fill:#000000;stroke:url(#linearGradient885);stroke-width:0.52915625;stroke-dasharray:none"
     id="rect246"
     width="14.287219"
     height="14.287219"
     x="1.3361193"
     y="1.3567564"
     rx="2.1166251"
     ry="2.1166251" />
  <rect
     style="fill:url(#linearGradient1136);fill-opacity:1;stroke:none;stroke-width:0.478315;stroke-dasharray:none"
     id="rect246-5"
     width="12.914515"
     height="12.914515"
     x="2.0224717"
     y="2.0431087"
     rx="1.5874687"
     ry="1.5874687" />
  <path
     id="path12"
     style="fill:#999999;fill-opacity:1;stroke:none;stroke-width:0.241697;stroke-dasharray:none;stroke-dashoffset:2.2;stroke-opacity:0.3"
     d="m 8.3268021,3.6318979 c -0.3345825,0 -0.5879831,0.331178 -0.5121891,0.6693863 0.045168,0.2015517 0.078355,0.2432194 0.4003099,0.5036925 L 8.5038261,5.0386482 7.032403,5.0547013 5.5614518,5.0707542 5.443908,5.1514771 C 5.2622694,5.2759816 5.1839363,5.4423248 5.2003233,5.6688603 c 0.010245,0.1415178 0.035619,0.216877 0.1024379,0.3044809 0.1667553,0.2186284 0.2133285,0.2294233 0.9842532,0.2294233 0.6799486,0 0.6874588,5.155e-4 0.6141549,0.060898 C 6.8603408,6.2972861 6.3660834,6.692916 5.8026767,7.1426441 5.23927,7.5923715 4.754026,7.9973098 4.7244834,8.0423977 c -0.029543,0.045089 -0.060313,0.1661827 -0.06845,0.2690756 -0.01219,0.1541195 -0.00175,0.2094043 0.05948,0.31345 0.091201,0.1549348 0.2036714,0.2414371 0.3597123,0.27663 0.2149576,0.048478 0.3314037,-0.011632 0.9110832,-0.4706484 L 6.536263,7.9956632 6.574972,8.3279953 c 0.054267,0.4616127 0.1204024,0.7039971 0.2865428,1.0555365 0.4106514,0.8688992 1.1657196,1.4647832 2.07472,1.6366452 0.3789759,0.07164 0.9208019,0.04514 1.2849572,-0.06279 0.778151,-0.230613 1.377053,-0.740726 1.748997,-1.4888898 C 12.17775,9.0509924 12.270671,8.7149575 12.297801,8.2817298 12.365713,7.1973054 11.86061,6.1362429 10.991602,5.5380988 10.853083,5.4427561 10.579681,5.2365114 10.384057,5.0801975 9.5758818,4.4344276 8.6006945,3.6875709 8.5307341,3.6607002 8.489562,3.6448878 8.3976642,3.6319054 8.3268021,3.6319054 Z m 1.1376742,2.7200315 c 0.2468563,0.00233 0.4949819,0.061102 0.7232027,0.1826889 0.385064,0.2051499 0.723194,0.6556424 0.84216,1.1216237 0.22113,0.8661484 -0.33432,1.8606297 -1.1541951,2.0657516 C 9.2496881,9.8785957 8.740389,9.7404457 8.2965894,9.2943028 7.7093991,8.7040135 7.6223724,7.8265823 8.0794409,7.1006228 8.3841755,6.6166145 8.9213932,6.3468342 9.4644763,6.3519294 Z m -0.03871,0.8690695 c -0.4589029,0 -0.8066974,0.3707934 -0.802509,0.8549079 0.00348,0.4022421 0.2809496,0.7547852 0.6476719,0.822335 0.5200943,0.095799 0.9667858,-0.2907793 0.9667858,-0.8364967 0,-0.4875827 -0.3409914,-0.8407462 -0.8119487,-0.8407462 z" />
  <g
     aria-label="Krita"
     id="text1450"
     style="font-size:1.76385px;opacity:1;fill:#999999;stroke-width:0.529156">
    <rect
       style="font-size:1.76385px;fill:#00ff00;fill-opacity:1;stroke:none;stroke-width:0.519976;stroke-dasharray:none;filter:url(#filter1694)"
       id="rect1656-7"
       width="0.5055005"
       height="2.2653189"
       x="15.369148"
       y="4.3016486"
       rx="0"
       ry="0" />
    <rect
       style="opacity:1;fill:#00ff00;fill-opacity:1;stroke:none;stroke-width:0.519976;stroke-dasharray:none"
       id="rect1656"
       width="0.5055005"
       height="2.2653189"
       x="15.369148"
       y="4.3016486"
       rx="0"
       ry="0" />
  </g>
  <path
     d="m 5.7416089,12.919628 q 0.2363559,0 0.3562977,0.07055 0.1217056,0.06879 0.1217056,0.241648 0,0.111122 -0.061735,0.185204 -0.061735,0.07232 -0.1781489,0.09348 v 0.0088 q 0.079373,0.01235 0.1428719,0.04586 0.065262,0.03351 0.1023033,0.09525 0.037041,0.06174 0.037041,0.160511 0,0.171093 -0.1181779,0.264577 -0.1164141,0.09348 -0.3192569,0.09348 H 5.3817835 v -1.259389 z m 0.031749,0.536211 q 0.1622742,0 0.2222451,-0.05115 0.059971,-0.05292 0.059971,-0.155219 0,-0.104067 -0.074082,-0.148163 -0.072318,-0.04586 -0.2328282,-0.04586 H 5.54053 v 0.400394 z M 5.54053,13.588127 v 0.456837 h 0.2539944 q 0.1675657,0 0.2328282,-0.06526 0.065262,-0.06526 0.065262,-0.171093 0,-0.09878 -0.06879,-0.158747 -0.067026,-0.06174 -0.2416475,-0.06174 z m 1.1218078,0.59089 H 6.507119 v -1.340526 h 0.1552188 z m 0.6649705,-0.963062 q 0.1217056,0 0.2081343,0.05292 0.088193,0.05292 0.1340526,0.149928 0.047624,0.09525 0.047624,0.224009 v 0.09348 H 7.0697862 q 0.00353,0.16051 0.081137,0.245175 0.079373,0.0829 0.2204812,0.0829 0.089956,0 0.1587465,-0.01588 0.070554,-0.01764 0.1446357,-0.04939 v 0.135817 q -0.072318,0.03175 -0.1428718,0.04586 -0.070554,0.01588 -0.1675658,0.01588 -0.1340526,0 -0.2381197,-0.05468 -0.1023033,-0.05468 -0.1605104,-0.162274 -0.056443,-0.109359 -0.056443,-0.266341 0,-0.155219 0.051152,-0.266342 0.052916,-0.111122 0.1463995,-0.171093 0.095248,-0.05997 0.2204813,-0.05997 z m -0.00176,0.126997 q -0.1111225,0 -0.176385,0.07232 -0.063499,0.07055 -0.075846,0.197551 h 0.481531 q -0.00176,-0.119942 -0.056443,-0.194023 -0.054679,-0.07585 -0.1728573,-0.07585 z m 1.0865302,-0.126997 q 0.1693296,0 0.2557583,0.0829 0.086429,0.08114 0.086429,0.264577 v 0.615584 H 8.6008066 v -0.605 q 0,-0.227537 -0.211662,-0.227537 -0.1569827,0 -0.2169536,0.08819 -0.059971,0.08819 -0.059971,0.253995 v 0.49035 H 7.9570013 v -0.945424 h 0.1252334 l 0.02293,0.128762 h 0.00882 q 0.04586,-0.07408 0.1269972,-0.109359 0.081137,-0.03704 0.1710934,-0.03704 z m 0.9701175,0.980701 q -0.176385,0 -0.282216,-0.121706 -0.105831,-0.12347 -0.105831,-0.366881 0,-0.243411 0.105831,-0.366881 0.1075948,-0.125233 0.2839798,-0.125233 0.1093587,0 0.1781489,0.04057 0.070554,0.04057 0.1146502,0.09877 h 0.010583 q -0.00176,-0.02293 -0.00706,-0.06703 -0.00353,-0.04586 -0.00353,-0.07232 v -0.377464 h 0.1552188 v 1.340526 H 9.7067405 l -0.02293,-0.126997 h -0.00706 q -0.042332,0.05997 -0.1128864,0.102303 -0.070554,0.04233 -0.1816765,0.04233 z m 0.024694,-0.128761 q 0.1499272,0 0.2098981,-0.08114 0.061735,-0.0829 0.061735,-0.248702 v -0.02822 q 0,-0.176385 -0.058207,-0.269869 -0.058207,-0.09525 -0.2151897,-0.09525 -0.1252333,0 -0.1887319,0.100539 -0.061735,0.09878 -0.061735,0.266342 0,0.169329 0.061735,0.262813 0.063499,0.09348 0.1904958,0.09348 z m 1.090059,-0.85194 q 0.121706,0 0.208134,0.05292 0.08819,0.05292 0.134053,0.149928 0.04762,0.09525 0.04762,0.224009 v 0.09348 h -0.647333 q 0.0035,0.16051 0.08114,0.245175 0.07937,0.0829 0.220481,0.0829 0.08996,0 0.158747,-0.01588 0.07055,-0.01764 0.144635,-0.04939 v 0.135817 q -0.07232,0.03175 -0.142872,0.04586 -0.07055,0.01588 -0.167565,0.01588 -0.134053,0 -0.23812,-0.05468 -0.102303,-0.05468 -0.16051,-0.162274 -0.05644,-0.109359 -0.05644,-0.266341 0,-0.155219 0.05115,-0.266342 0.05292,-0.111122 0.1464,-0.171093 0.09525,-0.05997 0.220481,-0.05997 z m -0.0018,0.126997 q -0.111123,0 -0.176385,0.07232 -0.0635,0.07055 -0.07585,0.197551 h 0.481532 q -0.0018,-0.119942 -0.05644,-0.194023 -0.05468,-0.07585 -0.172857,-0.07585 z m 1.07242,-0.126997 q 0.02646,0 0.05644,0.0035 0.03175,0.0018 0.05468,0.0071 l -0.0194,0.142872 q -0.02293,-0.0053 -0.05115,-0.0088 -0.02646,-0.0035 -0.05115,-0.0035 -0.07232,0 -0.135816,0.04057 -0.0635,0.0388 -0.102303,0.111122 -0.03704,0.07055 -0.03704,0.165802 v 0.504461 h -0.155219 v -0.945424 h 0.126997 l 0.01764,0.172858 h 0.0071 q 0.04586,-0.07761 0.118178,-0.134053 0.07232,-0.05644 0.171094,-0.05644 z"
     id="text2284"
     style="font-size:1.76385px;fill:#999999;stroke-width:0.529156"
     aria-label="Blender" />
</svg>
