<?xml version="1.0" encoding="UTF-8" standalone="no"?>
<svg
   width="64"
   height="64"
   version="1.1"
   viewBox="0 0 16.933 16.933"
   id="svg7"
   sodipodi:docname="Multimedia Template.svg"
   inkscape:version="1.4 (e7c3feb100, 2024-10-09)"
   xmlns:inkscape="http://www.inkscape.org/namespaces/inkscape"
   xmlns:sodipodi="http://sodipodi.sourceforge.net/DTD/sodipodi-0.dtd"
   xmlns:xlink="http://www.w3.org/1999/xlink"
   xmlns="http://www.w3.org/2000/svg"
   xmlns:svg="http://www.w3.org/2000/svg"
   xmlns:rdf="http://www.w3.org/1999/02/22-rdf-syntax-ns#"
   xmlns:cc="http://creativecommons.org/ns#"
   xmlns:dc="http://purl.org/dc/elements/1.1/">
  <sodipodi:namedview
     id="namedview7"
     pagecolor="#9c4444"
     bordercolor="#000000"
     borderopacity="0.25"
     inkscape:showpageshadow="2"
     inkscape:pageopacity="0.0"
     inkscape:pagecheckerboard="0"
     inkscape:deskcolor="#d1d1d1"
     inkscape:zoom="8.7062522"
     inkscape:cx="24.063167"
     inkscape:cy="30.150746"
     inkscape:window-width="1183"
     inkscape:window-height="973"
     inkscape:window-x="35"
     inkscape:window-y="32"
     inkscape:window-maximized="0"
     inkscape:current-layer="svg7"
     showgrid="false" />
  <defs
     id="defs2">
    <rect
       x="67.489848"
       y="35.60533"
       width="15.337563"
       height="22.51269"
       id="rect3808" />
    <linearGradient
       inkscape:collect="always"
       id="linearGradient1134">
      <stop
         style="stop-color:#161616;stop-opacity:1;"
         offset="0"
         id="stop1130" />
      <stop
         style="stop-color:#404040;stop-opacity:1;"
         offset="1"
         id="stop1132" />
    </linearGradient>
    <linearGradient
       inkscape:collect="always"
       id="linearGradient883">
      <stop
         style="stop-color:#808080;stop-opacity:1;"
         offset="0"
         id="stop879" />
      <stop
         style="stop-color:#3e3e3e;stop-opacity:1;"
         offset="0.5"
         id="stop1216" />
      <stop
         style="stop-color:#242424;stop-opacity:1;"
         offset="1"
         id="stop881" />
    </linearGradient>
    <linearGradient
       inkscape:collect="always"
       xlink:href="#linearGradient883"
       id="linearGradient885"
       x1="2.1085808"
       y1="2.0236168"
       x2="14.846128"
       y2="15.071845"
       gradientUnits="userSpaceOnUse" />
    <linearGradient
       inkscape:collect="always"
       xlink:href="#linearGradient1134"
       id="linearGradient1136"
       x1="14.971222"
       y1="14.703373"
       x2="2.0756054"
       y2="2.0069976"
       gradientUnits="userSpaceOnUse" />
    <filter
       style="color-interpolation-filters:sRGB;"
       inkscape:label="Blur"
       id="filter1283"
       x="-0.082344266"
       y="-0.082344266"
       width="1.1646885"
       height="1.1646885">
      <feGaussianBlur
         stdDeviation="0.5 0.5"
         result="blur"
         id="feGaussianBlur1281" />
    </filter>
    <filter
       style="color-interpolation-filters:sRGB;"
       inkscape:label="Blur"
       id="filter1694"
       x="-0.94955398"
       y="-0.2118907"
       width="2.899108"
       height="1.4237814">
      <feGaussianBlur
         stdDeviation="0.2 0.2"
         result="blur"
         id="feGaussianBlur1692" />
    </filter>
    <filter
       style="color-interpolation-filters:sRGB;"
       inkscape:label="Blur"
       id="filter3148"
       x="-0.94955398"
       y="-0.2118907"
       width="2.899108"
       height="1.4237814">
      <feGaussianBlur
         stdDeviation="0.2 0.2"
         result="blur"
         id="feGaussianBlur3146" />
    </filter>
    <clipPath
       clipPathUnits="userSpaceOnUse"
       id="clipPath44">
      <path
         id="path46"
         style="display:block;opacity:0.85;fill:#f2f2f2;stroke-width:4.39162"
         d="m 17.570312,8.4453125 a 6.5431988,7.4283052 9.9958727e-8 0 0 -6.535156,7.4394535 6.5431988,7.4283052 9.9958727e-8 0 0 6.552735,7.417968 6.5431988,7.4283052 9.9958727e-8 0 0 6.535156,-7.4375 6.5431988,7.4283052 9.9958727e-8 0 0 -6.552735,-7.4199215 z M 45.646484,41.177734 a 6.5431986,7.0703472 2.4665357e-6 0 0 -6.533203,7.080078 6.5431986,7.0703472 2.4665357e-6 0 0 6.550781,7.060547 6.5431986,7.0703472 2.4665357e-6 0 0 6.535157,-7.080078 6.5431986,7.0703472 2.4665357e-6 0 0 -6.552735,-7.060547 z" />
    </clipPath>
    <inkscape:path-effect
       effect="powerclip"
       id="path-effect48"
       is_visible="true"
       lpeversion="1"
       inverse="true"
       flatten="false"
       hide_clip="false"
       message="" />
    <clipPath
       clipPathUnits="userSpaceOnUse"
       id="clipPath345">
      <path
         id="path347"
         style="display:block;fill:#984ee5;stroke-width:1.07356"
         d="m 32.234375,8.234375 c -2.071427,0 -2.999823,0.082078 -4.527344,0.3984375 -1.262601,0.2615573 -3.305763,0.8482889 -3.58789,1.03125 -0.07153,0.046353 0.748318,0.9124865 3.966797,4.1816405 2.231977,2.267115 4.098646,4.121094 4.148437,4.121094 0.04983,0 1.916472,-1.853979 4.148437,-4.121094 3.218477,-3.269154 4.040283,-4.1352621 3.96875,-4.1816405 C 40.069438,9.4811014 38.024333,8.8943698 36.761719,8.6328125 35.234213,8.3164085 34.305805,8.234375 32.234375,8.234375 Z m 14.017578,4.621094 c -0.09727,-0.04015 -9.568359,9.550759 -9.568359,9.689453 0,0.100542 4.741395,4.945312 4.839844,4.945312 0.0336,0 0.480046,-0.426497 0.992187,-0.949218 0.512158,-0.522723 1.547656,-1.555662 2.298828,-2.294922 l 1.365235,-1.34375 0.248046,0.386718 c 0.610309,0.952702 1.395161,2.771873 1.765625,4.091797 0.455896,1.624311 0.605469,2.773152 0.605469,4.658203 0,1.605306 -0.04901,2.142215 -0.308594,3.40625 -0.280519,1.366043 -0.68426,2.592593 -1.255859,3.8125 -0.407879,0.870484 -0.973167,1.845704 -1.068359,1.845704 -0.04015,0 -3.19085,-3.165622 -7.001954,-7.035157 l -6.929687,-7.035156 -6.929687,7.035156 c -3.811088,3.869535 -6.961756,7.035157 -7.001954,7.035157 -0.09518,0 -0.658527,-0.97522 -1.066406,-1.845704 -0.7316,-1.561433 -1.231815,-3.284464 -1.484375,-5.113281 -0.106777,-0.77327 -0.106777,-3.439602 0,-4.21289 0.179289,-1.298215 0.488482,-2.563459 0.923828,-3.78125 0.281993,-0.788854 0.994777,-2.279984 1.367188,-2.861329 l 0.248047,-0.386718 1.304687,1.283203 c 0.718097,0.705668 1.751644,1.736689 2.296875,2.292969 0.545245,0.556282 1.019451,1.011718 1.052734,1.011718 0.09846,0 4.839844,-4.842813 4.839844,-4.943359 0,-0.05058 -2.135848,-2.261897 -4.748047,-4.914063 -4.59166,-4.66192 -4.755685,-4.821059 -4.886718,-4.738281 -0.266005,0.168061 -1.293949,1.041429 -1.90625,1.617188 -5.5284,5.198456 -8.2801152,12.929583 -7.3027348,20.521484 0.4987742,3.874139 1.9297378,7.57391 4.1660158,10.771485 0.796307,1.138624 1.388139,1.838073 2.558594,3.023437 1.030147,1.043254 2.433946,2.283533 2.589843,2.287109 0.03272,7.41e-4 3.171296,-3.15833 6.97461,-7.019531 3.803294,-3.861201 6.954445,-7.021484 7.003906,-7.021484 0.04953,0 3.175653,3.13324 6.945313,6.96289 3.769655,3.829665 6.902839,6.991482 6.96289,7.025391 0.270599,0.152782 3.174713,-2.59268 4.416016,-4.173828 2.133904,-2.718144 3.677243,-5.901776 4.486328,-9.263672 0.800661,-3.326974 0.885655,-6.970642 0.240234,-10.255859 -0.972934,-4.952282 -3.441948,-9.438145 -7.08789,-12.878907 -0.611455,-0.57704 -1.797581,-1.573773 -1.945313,-1.634765 z M 32.234375,46.140625 c -0.04968,0 -1.883319,1.830397 -4.076172,4.068359 l -3.988281,4.070313 0.349609,0.132812 c 1.646226,0.629203 4.318998,1.162562 6.400391,1.277344 1.255387,0.06915 1.30185,0.07022 2.486328,0.0039 1.30079,-0.07263 2.214142,-0.188395 3.458984,-0.435547 0.919694,-0.182602 2.424589,-0.596146 3.091797,-0.849609 l 0.341797,-0.1289 -3.986328,-4.070313 c -2.192839,-2.237962 -4.028528,-4.068359 -4.078125,-4.068359 z" />
    </clipPath>
    <inkscape:path-effect
       effect="powerclip"
       id="path-effect349"
       is_visible="true"
       lpeversion="1"
       inverse="true"
       flatten="false"
       hide_clip="false"
       message="" />
  </defs>
  <metadata
     id="metadata2">
    <rdf:RDF>
      <cc:Work
         rdf:about="">
        <dc:format>image/svg+xml</dc:format>
        <dc:type
           rdf:resource="http://purl.org/dc/dcmitype/StillImage" />
      </cc:Work>
    </rdf:RDF>
  </metadata>
  <rect
     style="fill:#000000;stroke:none;stroke-width:0.539739;stroke-dasharray:none;filter:url(#filter1283)"
     id="rect246-1"
     width="14.572964"
     height="14.572964"
     x="1.1932471"
     y="1.2138842"
     rx="2.1589575"
     ry="2.1589575" />
  <rect
     style="opacity:1;fill:#000000;stroke:url(#linearGradient885);stroke-width:0.52915625;stroke-dasharray:none"
     id="rect246"
     width="14.287219"
     height="14.287219"
     x="1.3361193"
     y="1.3567564"
     rx="2.1166251"
     ry="2.1166251" />
  <rect
     style="fill:url(#linearGradient1136);fill-opacity:1;stroke:none;stroke-width:0.478315;stroke-dasharray:none"
     id="rect246-5"
     width="12.914515"
     height="12.914515"
     x="2.0224717"
     y="2.0431087"
     rx="1.5874687"
     ry="1.5874687" />
  <g
     id="g2"
     transform="matrix(0.01863129,0,0,0.01863129,4.4068751,3.6340548)"
     style="fill:#999999">
	<path
   d="m 165.156,176.583 c -16.007,20.073 -24.81,40.457 -26.128,60.599 -1.475,22.705 5.003,44.281 19.273,64.099 15.118,21.119 34.22,32.572 56.759,34.047 7.574,0.497 14.7,0.288 21.276,-0.597 1.35,7.649 2.709,15.252 3.971,22.781 1.567,10.176 2.124,19.008 1.644,26.241 -0.661,9.998 -3.779,18.178 -9.294,24.321 -5.963,6.628 -13.396,9.533 -22.826,8.92 -4.105,-0.269 -7.722,-1.326 -10.904,-3.201 3.745,-0.862 7.145,-2.469 10.119,-4.785 5.761,-4.469 8.989,-10.965 9.521,-19.28 0.503,-7.999 -1.529,-14.995 -6.067,-20.778 -4.827,-6.332 -11.389,-9.818 -19.5,-10.355 -8.283,-0.545 -15.797,2.806 -21.957,9.807 -5.474,6.199 -8.54,13.493 -9.061,21.68 -0.797,12.227 3.847,22.67 13.85,31.026 8.771,7.321 19.272,11.421 31.22,12.202 6.792,0.445 13.354,-0.337 19.466,-2.328 5.021,-1.635 9.842,-4.12 14.366,-7.37 10.94,-7.878 16.88,-18.182 17.692,-30.656 0.63,-9.506 0.148,-20.767 -1.454,-33.603 l -4.464,-28.918 c 11.425,-3.814 21.007,-10.707 28.473,-20.462 7.926,-10.303 12.391,-22.47 13.296,-36.167 1.103,-16.823 -2.913,-32.079 -11.962,-45.34 -9.918,-14.543 -23.52,-22.478 -40.406,-23.582 -1.948,-0.126 -3.988,-0.112 -6.12,0.046 l -4.744,-35.516 c 13.168,-11.257 23.832,-25.409 31.723,-42.092 7.798,-16.574 12.383,-34.514 13.608,-53.305 0.718,-11.046 -0.797,-24.754 -4.508,-40.761 C 266.932,11.538 259.683,0.67 249.817,0.018 c -3.49,-0.218 -7.33,1.557 -12.015,5.677 -11.377,10.285 -19.656,22.728 -24.609,36.96 -3.833,10.87 -6.368,25.403 -7.548,43.208 -0.579,8.869 0.826,23.942 4.328,46.059 -20.958,18.595 -36.016,33.62 -44.817,44.661 z m 98.299,97.458 c 0,11.63 -5.743,31.162 -13.754,35.931 l -8.264,-62.556 c 12.512,2.4 22.018,13.417 22.018,26.625 z M 222.484,104.798 c 0.739,-11.339 3.589,-23.646 8.478,-36.562 6.196,-16.16 12.071,-21.043 15.895,-22.293 1.05,-0.336 2.079,-0.471 3.157,-0.399 5.001,0.331 9.982,2.447 9.125,15.659 -0.722,11.197 -5.17,23.064 -13.188,35.281 -6.452,9.851 -13.95,18.074 -22.31,24.501 -1.17,-4.6 -1.569,-10.024 -1.157,-16.187 z m -6.285,76.542 3.266,26.908 c -9.077,3.75 -16.99,9.682 -23.568,17.665 -7.578,9.289 -11.79,19.532 -12.499,30.429 -0.735,11.305 1.797,21.664 7.514,30.741 2.974,4.837 7.063,9.137 11.76,12.643 7.7,5.727 16.575,5.294 17.985,2.177 1.429,-3.106 -3.845,-7.991 -7.993,-14.515 -2.36,-3.688 -3.506,-8.123 -3.506,-13.337 0,-11.073 6.672,-20.578 16.186,-24.802 l 8.909,69.388 c -4.745,0.982 -10.055,1.295 -15.824,0.922 -14.815,-0.974 -28.044,-7.069 -39.347,-18.153 -11.806,-11.51 -17.1,-24.197 -16.149,-38.78 1.821,-27.612 19.736,-54.934 53.266,-81.286 z"
   id="path1"
   style="fill:#999999" />

</g>
  <g
     aria-label="Krita"
     id="text1450"
     style="font-size:1.76385px;opacity:1;fill:#ff7f2a;stroke-width:0.529156">
    <rect
       style="font-size:1.76385px;fill:#ff7f2a;fill-opacity:1;stroke:none;stroke-width:0.519976;stroke-dasharray:none;filter:url(#filter3148)"
       id="rect1656-3"
       width="0.5055005"
       height="2.2653189"
       x="15.369148"
       y="4.3016486"
       rx="0"
       ry="0" />
    <rect
       style="opacity:1;fill:#ff7f2a;fill-opacity:1;stroke:none;stroke-width:0.519976;stroke-dasharray:none"
       id="rect1656"
       width="0.5055005"
       height="2.2653189"
       x="15.369148"
       y="4.3016486"
       rx="0"
       ry="0" />
  </g>
  <path
     style="font-size:1.76385px;text-align:center;text-anchor:middle;fill:#999999;stroke-width:0.529156"
     d="m 6.1393615,13.536976 q 0,0.319257 -0.1746211,0.481531 -0.1728573,0.16051 -0.4832949,0.16051 H 5.1304394 v -1.259389 h 0.3880469 q 0.1904958,0 0.32984,0.07055 0.1393441,0.07055 0.2151897,0.208134 0.075845,0.135817 0.075845,0.33866 z m -0.1675657,0.0053 q 0,-0.25223 -0.1252334,-0.368644 Q 5.7230929,13.055445 5.4955563,13.055445 H 5.2891858 v 0.987756 h 0.1710935 q 0.5115165,0 0.5115165,-0.500934 z m 0.790204,-0.326312 q 0.1217056,0 0.2081343,0.05292 0.088192,0.05292 0.1340526,0.149928 0.047624,0.09525 0.047624,0.224009 v 0.09348 H 6.5044777 q 0.00353,0.16051 0.081137,0.245175 0.079373,0.0829 0.2204812,0.0829 0.089956,0 0.1587465,-0.01588 0.070554,-0.01764 0.1446357,-0.04939 v 0.135817 q -0.072318,0.03175 -0.1428718,0.04586 -0.070554,0.01588 -0.1675658,0.01588 -0.1340526,0 -0.2381197,-0.05468 -0.1023033,-0.05468 -0.1605104,-0.162274 -0.056443,-0.109359 -0.056443,-0.266341 0,-0.155219 0.051152,-0.266342 0.052916,-0.111122 0.1463995,-0.171093 0.095248,-0.05997 0.2204813,-0.05997 z m -0.00176,0.126997 q -0.1111225,0 -0.176385,0.07232 -0.063499,0.07055 -0.075845,0.197551 h 0.481531 q -0.00176,-0.119942 -0.056443,-0.194023 -0.054679,-0.07585 -0.1728573,-0.07585 z m 1.0865302,-0.126997 q 0.1693296,0 0.2557583,0.0829 0.086429,0.08114 0.086429,0.264577 v 0.615584 H 8.0354981 v -0.605 q 0,-0.227537 -0.211662,-0.227537 -0.1569827,0 -0.2169536,0.08819 -0.059971,0.08819 -0.059971,0.253995 v 0.49035 H 7.3916928 v -0.945424 h 0.1252334 l 0.02293,0.128762 h 0.00882 q 0.04586,-0.07408 0.1269972,-0.109359 0.081137,-0.03704 0.1710934,-0.03704 z m 1.000103,0 q 0.1217056,0 0.2081343,0.05292 0.088192,0.05292 0.1340526,0.149928 0.047624,0.09525 0.047624,0.224009 v 0.09348 H 8.589347 q 0.00353,0.16051 0.081137,0.245175 0.079373,0.0829 0.2204812,0.0829 0.089956,0 0.1587465,-0.01588 0.070554,-0.01764 0.1446357,-0.04939 v 0.135817 q -0.072318,0.03175 -0.1428718,0.04586 -0.070554,0.01588 -0.1675658,0.01588 -0.1340526,0 -0.2381197,-0.05468 -0.1023033,-0.05468 -0.1605104,-0.162274 -0.056443,-0.109359 -0.056443,-0.266341 0,-0.155219 0.051152,-0.266342 0.052915,-0.111122 0.1463995,-0.171093 0.095248,-0.05997 0.2204813,-0.05997 z m -0.00176,0.126997 q -0.1111225,0 -0.176385,0.07232 -0.063499,0.07055 -0.075845,0.197551 h 0.481531 q -0.00176,-0.119942 -0.056443,-0.194023 -0.054679,-0.07585 -0.1728573,-0.07585 z m 1.6686008,-0.126997 q 0.16051,0 0.239883,0.0829 0.07937,0.08114 0.07937,0.264577 v 0.615584 h -0.153455 v -0.608528 q 0,-0.224009 -0.192259,-0.224009 -0.137581,0 -0.197551,0.07937 -0.05821,0.07937 -0.05821,0.231064 v 0.5221 h -0.153455 v -0.608528 q 0,-0.224009 -0.1940239,-0.224009 -0.1428719,0 -0.1975512,0.08819 -0.054679,0.08819 -0.054679,0.253995 v 0.49035 H 9.4765617 v -0.945424 h 0.1252334 l 0.02293,0.128762 h 0.00882 q 0.044096,-0.07408 0.1181779,-0.109359 0.075846,-0.03704 0.1605104,-0.03704 0.2222453,0 0.2892713,0.158746 h 0.0088 q 0.04762,-0.08114 0.128761,-0.119941 0.0829,-0.0388 0.174622,-0.0388 z m 1.434009,0.488586 q 0,0.234592 -0.119942,0.363354 -0.118178,0.128761 -0.321021,0.128761 -0.125233,0 -0.224009,-0.05644 -0.09701,-0.05821 -0.153455,-0.167565 -0.05644,-0.111123 -0.05644,-0.268106 0,-0.234592 0.118178,-0.361589 0.118178,-0.126997 0.321021,-0.126997 0.128761,0 0.225773,0.05821 0.09877,0.05644 0.153455,0.165802 0.05644,0.107595 0.05644,0.264577 z m -0.714359,0 q 0,0.167566 0.06526,0.266342 0.06703,0.09701 0.211662,0.09701 0.142872,0 0.209898,-0.09701 0.06703,-0.09878 0.06703,-0.266342 0,-0.167565 -0.06703,-0.262813 -0.06703,-0.09525 -0.211662,-0.09525 -0.144636,0 -0.209898,0.09525 -0.06526,0.09525 -0.06526,0.262813 z"
     id="text2284"
     aria-label="Denemo" />
  <text
     xml:space="preserve"
     transform="scale(0.26457812)"
     id="text3806"
     style="font-size:6.66667px;white-space:pre;shape-inside:url(#rect3808);display:inline;fill:#999999;stroke-width:2" />
</svg>
