<?xml version="1.0" encoding="UTF-8" standalone="no"?>
<svg
   width="64"
   height="64"
   version="1.1"
   viewBox="0 0 16.933 16.933"
   id="svg7"
   sodipodi:docname="org.gnome.Evolution.svg"
   inkscape:version="1.4 (e7c3feb100, 2024-10-09)"
   xmlns:inkscape="http://www.inkscape.org/namespaces/inkscape"
   xmlns:sodipodi="http://sodipodi.sourceforge.net/DTD/sodipodi-0.dtd"
   xmlns:xlink="http://www.w3.org/1999/xlink"
   xmlns="http://www.w3.org/2000/svg"
   xmlns:svg="http://www.w3.org/2000/svg"
   xmlns:rdf="http://www.w3.org/1999/02/22-rdf-syntax-ns#"
   xmlns:cc="http://creativecommons.org/ns#"
   xmlns:dc="http://purl.org/dc/elements/1.1/">
  <sodipodi:namedview
     id="namedview7"
     pagecolor="#9c4444"
     bordercolor="#000000"
     borderopacity="0.25"
     inkscape:showpageshadow="2"
     inkscape:pageopacity="0.0"
     inkscape:pagecheckerboard="0"
     inkscape:deskcolor="#d1d1d1"
     inkscape:zoom="6.15625"
     inkscape:cx="15.675127"
     inkscape:cy="29.807107"
     inkscape:window-width="1183"
     inkscape:window-height="973"
     inkscape:window-x="35"
     inkscape:window-y="32"
     inkscape:window-maximized="0"
     inkscape:current-layer="svg7"
     showgrid="false" />
  <defs
     id="defs2">
    <rect
       x="67.489848"
       y="35.60533"
       width="15.337563"
       height="22.51269"
       id="rect3808" />
    <linearGradient
       inkscape:collect="always"
       id="linearGradient1134">
      <stop
         style="stop-color:#161616;stop-opacity:1;"
         offset="0"
         id="stop1130" />
      <stop
         style="stop-color:#404040;stop-opacity:1;"
         offset="1"
         id="stop1132" />
    </linearGradient>
    <linearGradient
       inkscape:collect="always"
       id="linearGradient883">
      <stop
         style="stop-color:#808080;stop-opacity:1;"
         offset="0"
         id="stop879" />
      <stop
         style="stop-color:#3e3e3e;stop-opacity:1;"
         offset="0.5"
         id="stop1216" />
      <stop
         style="stop-color:#242424;stop-opacity:1;"
         offset="1"
         id="stop881" />
    </linearGradient>
    <linearGradient
       inkscape:collect="always"
       xlink:href="#linearGradient883"
       id="linearGradient885"
       x1="2.1085808"
       y1="2.0236168"
       x2="14.846128"
       y2="15.071845"
       gradientUnits="userSpaceOnUse" />
    <linearGradient
       inkscape:collect="always"
       xlink:href="#linearGradient1134"
       id="linearGradient1136"
       x1="14.971222"
       y1="14.703373"
       x2="2.0756054"
       y2="2.0069976"
       gradientUnits="userSpaceOnUse" />
    <filter
       style="color-interpolation-filters:sRGB;"
       inkscape:label="Blur"
       id="filter1283"
       x="-0.082344266"
       y="-0.082344266"
       width="1.1646885"
       height="1.1646885">
      <feGaussianBlur
         stdDeviation="0.5 0.5"
         result="blur"
         id="feGaussianBlur1281" />
    </filter>
    <filter
       style="color-interpolation-filters:sRGB;"
       inkscape:label="Blur"
       id="filter1694"
       x="-0.94955398"
       y="-0.2118907"
       width="2.899108"
       height="1.4237814">
      <feGaussianBlur
         stdDeviation="0.2 0.2"
         result="blur"
         id="feGaussianBlur1692" />
    </filter>
    <filter
       style="color-interpolation-filters:sRGB;"
       inkscape:label="Blur"
       id="filter3148"
       x="-0.94955398"
       y="-0.2118907"
       width="2.899108"
       height="1.4237814">
      <feGaussianBlur
         stdDeviation="0.2 0.2"
         result="blur"
         id="feGaussianBlur3146" />
    </filter>
    <clipPath
       clipPathUnits="userSpaceOnUse"
       id="clipPath44">
      <path
         id="path46"
         style="display:block;opacity:0.85;fill:#f2f2f2;stroke-width:4.39162"
         d="m 17.570312,8.4453125 a 6.5431988,7.4283052 9.9958727e-8 0 0 -6.535156,7.4394535 6.5431988,7.4283052 9.9958727e-8 0 0 6.552735,7.417968 6.5431988,7.4283052 9.9958727e-8 0 0 6.535156,-7.4375 6.5431988,7.4283052 9.9958727e-8 0 0 -6.552735,-7.4199215 z M 45.646484,41.177734 a 6.5431986,7.0703472 2.4665357e-6 0 0 -6.533203,7.080078 6.5431986,7.0703472 2.4665357e-6 0 0 6.550781,7.060547 6.5431986,7.0703472 2.4665357e-6 0 0 6.535157,-7.080078 6.5431986,7.0703472 2.4665357e-6 0 0 -6.552735,-7.060547 z" />
    </clipPath>
    <inkscape:path-effect
       effect="powerclip"
       id="path-effect48"
       is_visible="true"
       lpeversion="1"
       inverse="true"
       flatten="false"
       hide_clip="false"
       message="" />
  </defs>
  <metadata
     id="metadata2">
    <rdf:RDF>
      <cc:Work
         rdf:about="">
        <dc:format>image/svg+xml</dc:format>
        <dc:type
           rdf:resource="http://purl.org/dc/dcmitype/StillImage" />
      </cc:Work>
    </rdf:RDF>
  </metadata>
  <rect
     style="fill:#000000;stroke:none;stroke-width:0.539739;stroke-dasharray:none;filter:url(#filter1283)"
     id="rect246-1"
     width="14.572964"
     height="14.572964"
     x="1.1932471"
     y="1.2138842"
     rx="2.1589575"
     ry="2.1589575" />
  <rect
     style="opacity:1;fill:#000000;stroke:url(#linearGradient885);stroke-width:0.52915625;stroke-dasharray:none"
     id="rect246"
     width="14.287219"
     height="14.287219"
     x="1.3361193"
     y="1.3567564"
     rx="2.1166251"
     ry="2.1166251" />
  <rect
     style="fill:url(#linearGradient1136);fill-opacity:1;stroke:none;stroke-width:0.478315;stroke-dasharray:none"
     id="rect246-5"
     width="12.914515"
     height="12.914515"
     x="2.0224717"
     y="2.0431087"
     rx="1.5874687"
     ry="1.5874687" />
  <path
     fill="#f5f7fa"
     d="M 9.9139311,10.441123 9.6101167,9.8479479 C 9.2705586,10.06517 8.6897349,10.223905 8.126783,10.223905 c -1.6620477,0 -2.5645579,-0.8020416 -2.5645579,-2.34764 0,-1.6792709 1.3671687,-3.1162587 3.1989962,-3.1162587 1.6084327,0 2.5556217,0.7519132 2.5556217,2.0970021 0,0.8855848 -0.428917,1.7461064 -1.170581,1.7461064 -0.2680744,0 -0.3753019,-0.1253196 -0.3753019,-0.3676019 0,-0.1253174 0.026803,-0.3592479 0.062548,-0.5514019 L 10.110519,6.0048389 C 9.8245732,5.8377481 9.3509808,5.737493 8.9220643,5.737493 c -1.0901603,0 -2.1892564,0.6934302 -2.1892564,2.1972549 0,0.7268503 0.3842369,1.3116703 1.3135536,1.3116703 0.4199802,0 0.7952813,-0.1503814 1.0454829,-0.4427932 h 0.035746 c 0.1250994,0.2589935 0.4110435,0.4427932 0.9114446,0.4427932 1.251006,0 2.064157,-1.061033 2.064157,-2.4813114 0,-1.6207892 -1.27781,-2.6734673 -3.2258022,-2.6734673 -2.3590365,0 -4.1104416,1.7126906 -4.1104416,3.8681722 0,1.7878809 1.1259034,2.9241053 3.2258034,2.9241053 0.7506016,0 1.4654607,-0.175448 1.9211829,-0.442794 z M 8.2072049,8.6114699 c -0.4646583,0 -0.6880524,-0.2506374 -0.6880524,-0.8103935 0,-0.8354602 0.5629523,-1.4202805 1.3046193,-1.4202805 0.1697782,0 0.330622,0.033419 0.4378506,0.066838 L 9.0561009,7.7593025 C 9.038232,7.8512019 9.011427,8.0851313 9.011427,8.1853852 8.8773914,8.41096 8.5735755,8.6114699 8.2072094,8.6114699 Z"
     id="path42"
     style="fill:#999999;fill-opacity:1;stroke:none;stroke-width:0.228738;stroke-dasharray:none;stroke-opacity:0.3" />
  <g
     aria-label="Krita"
     id="text1450"
     style="font-size:1.76385px;opacity:1;fill:#ffff00;stroke-width:0.529156">
    <rect
       style="font-size:1.76385px;fill:#ffff00;fill-opacity:1;stroke:none;stroke-width:0.519976;stroke-dasharray:none;filter:url(#filter3148)"
       id="rect1656-3"
       width="0.5055005"
       height="2.2653189"
       x="15.369148"
       y="4.3016486"
       rx="0"
       ry="0" />
    <rect
       style="opacity:1;fill:#ffff00;fill-opacity:1;stroke:none;stroke-width:0.519976;stroke-dasharray:none"
       id="rect1656"
       width="0.5055005"
       height="2.2653189"
       x="15.369148"
       y="4.3016486"
       rx="0"
       ry="0" />
  </g>
  <g
     aria-label="Evolution"
     id="text2284"
     style="font-size:1.76385px;opacity:1;fill:#999999;stroke-width:0.529156">
    <path
       d="M 5.6206962,14.179017 H 4.91692 v -1.259389 h 0.7037762 v 0.139344 H 5.0756665 v 0.393339 h 0.5132804 v 0.13758 H 5.0756665 v 0.449782 h 0.5450297 z"
       style="text-align:center;text-anchor:middle"
       id="path2030" />
    <path
       d="M 6.0845883,14.179017 5.7265267,13.233593 h 0.1658019 l 0.2010789,0.557377 q 0.014111,0.0388 0.029986,0.08643 0.015875,0.04762 0.028222,0.09172 0.012347,0.04233 0.017638,0.07232 h 0.00706 q 0.00706,-0.02999 0.019402,-0.07408 0.014111,-0.0441 0.029986,-0.09172 0.017639,-0.04762 0.029985,-0.08467 l 0.2010789,-0.557377 h 0.1658019 l -0.3598254,0.945424 z"
       style="text-align:center;text-anchor:middle"
       id="path2032" />
    <path
       d="m 7.5944429,13.704541 q 0,0.234592 -0.1199418,0.363354 -0.1181779,0.128761 -0.3210207,0.128761 -0.1252333,0 -0.2240089,-0.05644 -0.097012,-0.05821 -0.153455,-0.167565 -0.056443,-0.111123 -0.056443,-0.268106 0,-0.234592 0.118178,-0.361589 0.1181779,-0.126997 0.3210207,-0.126997 0.128761,0 0.2257728,0.05821 0.098776,0.05644 0.1534549,0.165802 0.056443,0.107595 0.056443,0.264577 z m -0.7143592,0 q 0,0.167566 0.065262,0.266342 0.067026,0.09701 0.211662,0.09701 0.1428719,0 0.2098982,-0.09701 0.067026,-0.09878 0.067026,-0.266342 0,-0.167565 -0.067026,-0.262813 -0.067026,-0.09525 -0.211662,-0.09525 -0.1446357,0 -0.2098982,0.09525 -0.065262,0.09525 -0.065262,0.262813 z"
       style="text-align:center;text-anchor:middle"
       id="path2034" />
    <path
       d="M 7.994836,14.179017 H 7.8396172 V 12.838491 H 7.994836 Z"
       style="text-align:center;text-anchor:middle"
       id="path2036" />
    <path
       d="m 9.0848942,13.233593 v 0.945424 H 8.957897 l -0.02293,-0.125233 h -0.00706 q -0.04586,0.07408 -0.1269972,0.109358 -0.081137,0.03351 -0.1728573,0.03351 -0.1710934,0 -0.2575221,-0.08114 -0.086429,-0.0829 -0.086429,-0.262813 v -0.619112 h 0.1569826 v 0.608529 q 0,0.225773 0.2098982,0.225773 0.1569826,0 0.2169535,-0.08819 0.061735,-0.08819 0.061735,-0.253994 v -0.492115 z"
       style="text-align:center;text-anchor:middle"
       id="path2038" />
    <path
       d="m 9.7004781,14.069658 q 0.035277,0 0.072318,-0.0053 0.037041,-0.0071 0.059971,-0.01411 v 0.118178 q -0.024694,0.01235 -0.070554,0.0194 -0.04586,0.0088 -0.088192,0.0088 -0.074082,0 -0.1375803,-0.02469 -0.061735,-0.02646 -0.1005394,-0.08996 -0.038805,-0.0635 -0.038805,-0.178149 V 13.353535 H 9.2630433 v -0.07408 l 0.1358164,-0.06173 0.061735,-0.201079 h 0.09172 v 0.216953 h 0.2733967 v 0.119942 H 9.5523147 v 0.546794 q 0,0.08643 0.040568,0.128761 0.042332,0.04057 0.1075949,0.04057 z"
       style="text-align:center;text-anchor:middle"
       id="path2040" />
    <path
       d="m 10.100872,12.87906 q 0.03528,0 0.06173,0.02469 0.02822,0.02293 0.02822,0.07408 0,0.04939 -0.02822,0.07408 -0.02646,0.02469 -0.06173,0.02469 -0.0388,0 -0.06526,-0.02469 -0.02646,-0.02469 -0.02646,-0.07408 0,-0.05115 0.02646,-0.07408 0.02646,-0.02469 0.06526,-0.02469 z m 0.07584,0.354533 v 0.945424 h -0.155218 v -0.945424 z"
       style="text-align:center;text-anchor:middle"
       id="path2042" />
    <path
       d="m 11.298525,13.704541 q 0,0.234592 -0.119942,0.363354 -0.118178,0.128761 -0.32102,0.128761 -0.125234,0 -0.224009,-0.05644 -0.09701,-0.05821 -0.153455,-0.167565 -0.05644,-0.111123 -0.05644,-0.268106 0,-0.234592 0.118178,-0.361589 0.118177,-0.126997 0.32102,-0.126997 0.128761,0 0.225773,0.05821 0.09878,0.05644 0.153455,0.165802 0.05644,0.107595 0.05644,0.264577 z m -0.714359,0 q 0,0.167566 0.06526,0.266342 0.06703,0.09701 0.211662,0.09701 0.142872,0 0.209899,-0.09701 0.06703,-0.09878 0.06703,-0.266342 0,-0.167565 -0.06703,-0.262813 -0.06703,-0.09525 -0.211662,-0.09525 -0.144636,0 -0.209899,0.09525 -0.06526,0.09525 -0.06526,0.262813 z"
       style="text-align:center;text-anchor:middle"
       id="path2044" />
    <path
       d="m 11.998773,13.215955 q 0.169329,0 0.255758,0.0829 0.08643,0.08114 0.08643,0.264577 v 0.615584 h -0.153455 v -0.605 q 0,-0.227537 -0.211662,-0.227537 -0.156982,0 -0.216953,0.08819 -0.05997,0.08819 -0.05997,0.253995 v 0.49035 h -0.155219 v -0.945424 h 0.125234 l 0.02293,0.128762 h 0.0088 q 0.04586,-0.07408 0.126997,-0.109359 0.08114,-0.03704 0.171094,-0.03704 z"
       style="text-align:center;text-anchor:middle"
       id="path2046" />
  </g>
  <text
     xml:space="preserve"
     transform="scale(0.26457812)"
     id="text3806"
     style="fill:#999999;stroke-width:2;font-size:6.66666667px;white-space:pre;shape-inside:url(#rect3808)" />
</svg>
