<?xml version="1.0" encoding="UTF-8" standalone="no"?>
<svg
   width="64"
   height="64"
   version="1.1"
   viewBox="0 0 16.933 16.933"
   id="svg7"
   sodipodi:docname="Games Templates.svg"
   inkscape:version="1.4 (e7c3feb100, 2024-10-09)"
   xmlns:inkscape="http://www.inkscape.org/namespaces/inkscape"
   xmlns:sodipodi="http://sodipodi.sourceforge.net/DTD/sodipodi-0.dtd"
   xmlns:xlink="http://www.w3.org/1999/xlink"
   xmlns="http://www.w3.org/2000/svg"
   xmlns:svg="http://www.w3.org/2000/svg"
   xmlns:rdf="http://www.w3.org/1999/02/22-rdf-syntax-ns#"
   xmlns:cc="http://creativecommons.org/ns#"
   xmlns:dc="http://purl.org/dc/elements/1.1/">
  <sodipodi:namedview
     id="namedview7"
     pagecolor="#9c4444"
     bordercolor="#000000"
     borderopacity="0.25"
     inkscape:showpageshadow="2"
     inkscape:pageopacity="0.0"
     inkscape:pagecheckerboard="0"
     inkscape:deskcolor="#d1d1d1"
     inkscape:zoom="6.15625"
     inkscape:cx="15.675127"
     inkscape:cy="27.370558"
     inkscape:window-width="1183"
     inkscape:window-height="973"
     inkscape:window-x="35"
     inkscape:window-y="32"
     inkscape:window-maximized="0"
     inkscape:current-layer="svg7"
     showgrid="false" />
  <defs
     id="defs2">
    <linearGradient
       inkscape:collect="always"
       id="linearGradient1134">
      <stop
         style="stop-color:#161616;stop-opacity:1;"
         offset="0"
         id="stop1130" />
      <stop
         style="stop-color:#404040;stop-opacity:1;"
         offset="1"
         id="stop1132" />
    </linearGradient>
    <linearGradient
       inkscape:collect="always"
       id="linearGradient883">
      <stop
         style="stop-color:#808080;stop-opacity:1;"
         offset="0"
         id="stop879" />
      <stop
         style="stop-color:#3e3e3e;stop-opacity:1;"
         offset="0.5"
         id="stop1216" />
      <stop
         style="stop-color:#242424;stop-opacity:1;"
         offset="1"
         id="stop881" />
    </linearGradient>
    <linearGradient
       inkscape:collect="always"
       xlink:href="#linearGradient883"
       id="linearGradient885"
       x1="2.1085808"
       y1="2.0236168"
       x2="14.846128"
       y2="15.071845"
       gradientUnits="userSpaceOnUse" />
    <linearGradient
       inkscape:collect="always"
       xlink:href="#linearGradient1134"
       id="linearGradient1136"
       x1="14.971222"
       y1="14.703373"
       x2="2.0756054"
       y2="2.0069976"
       gradientUnits="userSpaceOnUse" />
    <filter
       style="color-interpolation-filters:sRGB;"
       inkscape:label="Blur"
       id="filter1283"
       x="-0.082344266"
       y="-0.082344266"
       width="1.1646885"
       height="1.1646885">
      <feGaussianBlur
         stdDeviation="0.5 0.5"
         result="blur"
         id="feGaussianBlur1281" />
    </filter>
    <filter
       style="color-interpolation-filters:sRGB;"
       inkscape:label="Blur"
       id="filter1694"
       x="-0.94955398"
       y="-0.2118907"
       width="2.899108"
       height="1.4237814">
      <feGaussianBlur
         stdDeviation="0.2 0.2"
         result="blur"
         id="feGaussianBlur1692" />
    </filter>
  </defs>
  <metadata
     id="metadata2">
    <rdf:RDF>
      <cc:Work
         rdf:about="">
        <dc:format>image/svg+xml</dc:format>
        <dc:type
           rdf:resource="http://purl.org/dc/dcmitype/StillImage" />
      </cc:Work>
    </rdf:RDF>
  </metadata>
  <rect
     style="fill:#000000;stroke:none;stroke-width:0.539739;stroke-dasharray:none;filter:url(#filter1283)"
     id="rect246-1"
     width="14.572964"
     height="14.572964"
     x="1.1932471"
     y="1.2138842"
     rx="2.1589575"
     ry="2.1589575" />
  <rect
     style="opacity:1;fill:#000000;stroke:url(#linearGradient885);stroke-width:0.52915625;stroke-dasharray:none"
     id="rect246"
     width="14.287219"
     height="14.287219"
     x="1.3361193"
     y="1.3567564"
     rx="2.1166251"
     ry="2.1166251" />
  <rect
     style="fill:url(#linearGradient1136);fill-opacity:1;stroke:none;stroke-width:0.478315;stroke-dasharray:none"
     id="rect246-5"
     width="12.914515"
     height="12.914515"
     x="2.0224717"
     y="2.0431087"
     rx="1.5874687"
     ry="1.5874687" />
  <path
     style="fill:#999999;fill-opacity:1;stroke-width:0.140607"
     d="M 6.4002684,4.0625744 C 6.2994941,4.0895762 6.2401043,4.1924437 6.2671063,4.2932179 L 6.7830726,6.2188304 8.397578,7.1509652 9.3297128,5.5364604 8.8137466,3.610848 C 8.7867439,3.5100735 8.6838772,3.4506835 8.5831031,3.4776856 Z M 4.6691607,7.0609409 C 4.5683867,7.0879432 4.5089963,7.1908103 4.5359985,7.2915844 l 0.5848886,2.1828347 c 0.027002,0.1007748 0.1298698,0.1601648 0.2306438,0.1331627 L 7.2771436,9.0916147 8.2092784,7.4771097 6.5947731,6.544975 Z M 9.6558571,5.7247598 8.7237223,7.3392648 10.338227,8.2713995 12.26384,7.7554338 C 12.364613,7.728432 12.424004,7.625564 12.397003,7.5247899 L 11.812113,5.3419557 C 11.785113,5.2411813 11.682244,5.181791 11.58147,5.2087936 Z m -1.1204342,1.9406493 -0.932135,1.6145047 0.515966,1.9256132 c 0.027002,0.100773 0.1298696,0.160164 0.2306438,0.133163 L 10.532732,10.7538 c 0.100775,-0.02701 0.160164,-0.129868 0.133163,-0.230643 L 10.149928,8.5975436 Z"
     id="path2" />
  <g
     aria-label="Krita"
     id="text1450"
     style="font-size:1.76385px;opacity:1;fill:#ff00ff;stroke-width:0.529156">
    <rect
       style="font-size:1.76385px;fill:#ff00ff;fill-opacity:1;stroke:none;stroke-width:0.519976;stroke-dasharray:none;filter:url(#filter1694)"
       id="rect1656-7"
       width="0.5055005"
       height="2.2653189"
       x="15.369148"
       y="4.3016486"
       rx="0"
       ry="0" />
    <rect
       style="opacity:1;fill:#ff00ff;fill-opacity:1;stroke:none;stroke-width:0.519976;stroke-dasharray:none"
       id="rect1656"
       width="0.5055005"
       height="2.2653189"
       x="15.369148"
       y="4.3016486"
       rx="0"
       ry="0" />
  </g>
  <path
     d="m 5.8683513,12.880096 q 0.246939,0 0.3598254,0.09701 0.1128864,0.09701 0.1128864,0.273397 0,0.104067 -0.047624,0.195787 -0.04586,0.08996 -0.1569826,0.1464 -0.1093587,0.05644 -0.2980907,0.05644 H 5.6937301 v 0.49035 H 5.5349836 v -1.259388 z m -0.014111,0.135816 H 5.6937301 v 0.497406 h 0.1269972 q 0.1799127,0 0.2681052,-0.05821 0.088193,-0.05821 0.088193,-0.197552 0,-0.121705 -0.077609,-0.181676 -0.077609,-0.05997 -0.2451751,-0.05997 z m 1.0812392,-0.135816 q 0.246939,0 0.3598254,0.09701 0.1128864,0.09701 0.1128864,0.273397 0,0.104067 -0.047624,0.195787 -0.04586,0.08996 -0.1569826,0.1464 -0.1093587,0.05644 -0.2980907,0.05644 H 6.7608585 v 0.49035 H 6.602112 v -1.259388 z m -0.014111,0.135816 H 6.7608585 v 0.497406 h 0.1269972 q 0.1799127,0 0.2681052,-0.05821 0.088192,-0.05821 0.088192,-0.197552 0,-0.121705 -0.077609,-0.181676 -0.077609,-0.05997 -0.2451751,-0.05997 z m 1.4622308,0.786677 q 0,0.167566 -0.1217057,0.26105 -0.1217056,0.09348 -0.328076,0.09348 -0.105831,0 -0.1957874,-0.01588 -0.089956,-0.01587 -0.1499272,-0.0441 v -0.151691 q 0.063499,0.02822 0.1569826,0.05115 0.095248,0.02293 0.1957874,0.02293 0.141108,0 0.211662,-0.05468 0.072318,-0.05468 0.072318,-0.148163 0,-0.06174 -0.026458,-0.104067 -0.026458,-0.04233 -0.09172,-0.07761 -0.063499,-0.03704 -0.1781489,-0.07761 -0.1605103,-0.05821 -0.2434113,-0.142872 -0.081137,-0.08467 -0.081137,-0.231064 0,-0.10054 0.051152,-0.171094 0.051152,-0.07232 0.141108,-0.111122 0.09172,-0.0388 0.2098981,-0.0388 0.1040672,0 0.1904958,0.0194 0.086429,0.0194 0.1569826,0.05115 l -0.049388,0.135816 q -0.065262,-0.02822 -0.1428718,-0.04762 -0.075845,-0.0194 -0.1587465,-0.0194 -0.1181779,0 -0.1781488,0.05115 -0.059971,0.04939 -0.059971,0.132289 0,0.0635 0.026458,0.105831 0.026458,0.04233 0.086429,0.07584 0.059971,0.03351 0.1622742,0.07232 0.1111225,0.04057 0.186968,0.08819 0.077609,0.04586 0.1164141,0.111123 0.040569,0.06526 0.040569,0.164038 z m 0.9683533,0 q 0,0.167566 -0.1217057,0.26105 -0.1217056,0.09348 -0.3280761,0.09348 -0.105831,0 -0.1957873,-0.01588 -0.089956,-0.01587 -0.1499273,-0.0441 v -0.151691 q 0.063499,0.02822 0.1569827,0.05115 0.095248,0.02293 0.1957873,0.02293 0.141108,0 0.211662,-0.05468 0.072318,-0.05468 0.072318,-0.148163 0,-0.06174 -0.026458,-0.104067 -0.026458,-0.04233 -0.09172,-0.07761 -0.063499,-0.03704 -0.1781488,-0.07761 -0.1605104,-0.05821 -0.2434113,-0.142872 -0.081137,-0.08467 -0.081137,-0.231064 0,-0.10054 0.051152,-0.171094 0.051152,-0.07232 0.141108,-0.111122 0.09172,-0.0388 0.2098982,-0.0388 0.1040671,0 0.1904958,0.0194 0.086429,0.0194 0.1569826,0.05115 l -0.049388,0.135816 q -0.065262,-0.02822 -0.1428718,-0.04762 -0.075846,-0.0194 -0.1587465,-0.0194 -0.118178,0 -0.1781489,0.05115 -0.059971,0.04939 -0.059971,0.132289 0,0.0635 0.026458,0.105831 0.026458,0.04233 0.086429,0.07584 0.059971,0.03351 0.1622742,0.07232 0.1111226,0.04057 0.1869681,0.08819 0.077609,0.04586 0.1164141,0.111123 0.040569,0.06526 0.040569,0.164038 z m 0.5873616,-0.922493 q 0.2469394,0 0.3598254,0.09701 0.112886,0.09701 0.112886,0.273397 0,0.104067 -0.04762,0.195787 -0.04586,0.08996 -0.156982,0.1464 -0.109359,0.05644 -0.2980908,0.05644 H 9.7646935 v 0.49035 H 9.605947 v -1.259388 z m -0.014111,0.135816 H 9.7646935 v 0.497406 h 0.1269972 q 0.1799123,0 0.2681053,-0.05821 0.08819,-0.05821 0.08819,-0.197552 0,-0.121705 -0.07761,-0.181676 -0.07761,-0.05997 -0.2451752,-0.05997 z m 1.0812392,-0.135816 q 0.246939,0 0.359826,0.09701 0.112886,0.09701 0.112886,0.273397 0,0.104067 -0.04762,0.195787 -0.04586,0.08996 -0.156983,0.1464 -0.109358,0.05644 -0.29809,0.05644 h -0.144636 v 0.49035 h -0.158746 v -1.259388 z m -0.01411,0.135816 h -0.160511 v 0.497406 h 0.126997 q 0.179913,0 0.268106,-0.05821 0.08819,-0.05821 0.08819,-0.197552 0,-0.121705 -0.07761,-0.181676 -0.07761,-0.05997 -0.245175,-0.05997 z"
     id="text1"
     style="font-size:1.76385px;text-align:center;text-anchor:middle;fill:#999999;stroke-width:0.132289;stroke-opacity:0.6"
     aria-label="PPSSPP" />
</svg>
