<?xml version="1.0" encoding="UTF-8" standalone="no"?>
<svg
   width="64"
   height="64"
   version="1.1"
   viewBox="0 0 16.933 16.933"
   id="svg7"
   sodipodi:docname="System Template.svg"
   inkscape:version="1.4 (e7c3feb100, 2024-10-09)"
   xmlns:inkscape="http://www.inkscape.org/namespaces/inkscape"
   xmlns:sodipodi="http://sodipodi.sourceforge.net/DTD/sodipodi-0.dtd"
   xmlns:xlink="http://www.w3.org/1999/xlink"
   xmlns="http://www.w3.org/2000/svg"
   xmlns:svg="http://www.w3.org/2000/svg"
   xmlns:rdf="http://www.w3.org/1999/02/22-rdf-syntax-ns#"
   xmlns:cc="http://creativecommons.org/ns#"
   xmlns:dc="http://purl.org/dc/elements/1.1/">
  <sodipodi:namedview
     id="namedview7"
     pagecolor="#9c4444"
     bordercolor="#000000"
     borderopacity="0.25"
     inkscape:showpageshadow="2"
     inkscape:pageopacity="0.0"
     inkscape:pagecheckerboard="0"
     inkscape:deskcolor="#d1d1d1"
     inkscape:zoom="6.15625"
     inkscape:cx="15.675127"
     inkscape:cy="27.370558"
     inkscape:window-width="1183"
     inkscape:window-height="973"
     inkscape:window-x="35"
     inkscape:window-y="32"
     inkscape:window-maximized="0"
     inkscape:current-layer="svg7"
     showgrid="false" />
  <defs
     id="defs2">
    <linearGradient
       inkscape:collect="always"
       id="linearGradient1134">
      <stop
         style="stop-color:#161616;stop-opacity:1;"
         offset="0"
         id="stop1130" />
      <stop
         style="stop-color:#404040;stop-opacity:1;"
         offset="1"
         id="stop1132" />
    </linearGradient>
    <linearGradient
       inkscape:collect="always"
       id="linearGradient883">
      <stop
         style="stop-color:#808080;stop-opacity:1;"
         offset="0"
         id="stop879" />
      <stop
         style="stop-color:#3e3e3e;stop-opacity:1;"
         offset="0.5"
         id="stop1216" />
      <stop
         style="stop-color:#242424;stop-opacity:1;"
         offset="1"
         id="stop881" />
    </linearGradient>
    <linearGradient
       inkscape:collect="always"
       xlink:href="#linearGradient883"
       id="linearGradient885"
       x1="2.1085808"
       y1="2.0236168"
       x2="14.846128"
       y2="15.071845"
       gradientUnits="userSpaceOnUse" />
    <linearGradient
       inkscape:collect="always"
       xlink:href="#linearGradient1134"
       id="linearGradient1136"
       x1="14.971222"
       y1="14.703373"
       x2="2.0756054"
       y2="2.0069976"
       gradientUnits="userSpaceOnUse" />
    <filter
       style="color-interpolation-filters:sRGB;"
       inkscape:label="Blur"
       id="filter1283"
       x="-0.082344266"
       y="-0.082344266"
       width="1.1646885"
       height="1.1646885">
      <feGaussianBlur
         stdDeviation="0.5 0.5"
         result="blur"
         id="feGaussianBlur1281" />
    </filter>
    <filter
       style="color-interpolation-filters:sRGB;"
       inkscape:label="Blur"
       id="filter1694"
       x="-0.94955398"
       y="-0.2118907"
       width="2.899108"
       height="1.4237814">
      <feGaussianBlur
         stdDeviation="0.2 0.2"
         result="blur"
         id="feGaussianBlur1692" />
    </filter>
    <filter
       style="color-interpolation-filters:sRGB;"
       inkscape:label="Blur"
       id="filter3335"
       x="-0.94955398"
       y="-0.2118907"
       width="2.899108"
       height="1.4237814">
      <feGaussianBlur
         stdDeviation="0.2 0.2"
         result="blur"
         id="feGaussianBlur3333" />
    </filter>
  </defs>
  <metadata
     id="metadata2">
    <rdf:RDF>
      <cc:Work
         rdf:about="">
        <dc:format>image/svg+xml</dc:format>
        <dc:type
           rdf:resource="http://purl.org/dc/dcmitype/StillImage" />
      </cc:Work>
    </rdf:RDF>
  </metadata>
  <rect
     style="fill:#000000;stroke:none;stroke-width:0.539739;stroke-dasharray:none;filter:url(#filter1283)"
     id="rect246-1"
     width="14.572964"
     height="14.572964"
     x="1.1932471"
     y="1.2138842"
     rx="2.1589575"
     ry="2.1589575" />
  <rect
     style="opacity:1;fill:#000000;stroke:url(#linearGradient885);stroke-width:0.52915625;stroke-dasharray:none"
     id="rect246"
     width="14.287219"
     height="14.287219"
     x="1.3361193"
     y="1.3567564"
     rx="2.1166251"
     ry="2.1166251" />
  <g
     aria-label="Krita"
     id="text1450"
     style="font-size:1.76385px;opacity:1;fill:#999999;stroke-width:0.529156">
    <rect
       style="font-size:1.76385px;fill:#ff0000;fill-opacity:1;stroke:none;stroke-width:0.519976;stroke-dasharray:none;filter:url(#filter3335)"
       id="rect1656-0"
       width="0.5055005"
       height="2.2653189"
       x="15.369148"
       y="4.3016486"
       rx="0"
       ry="0" />
    <rect
       style="opacity:1;fill:#ff0000;fill-opacity:1;stroke:none;stroke-width:0.519976;stroke-dasharray:none"
       id="rect1656"
       width="0.5055005"
       height="2.2653189"
       x="15.369148"
       y="4.3016486"
       rx="0"
       ry="0" />
  </g>
  <rect
     style="fill:url(#linearGradient1136);fill-opacity:1;stroke:none;stroke-width:0.478315;stroke-dasharray:none"
     id="rect246-5"
     width="12.914515"
     height="12.914515"
     x="2.0224717"
     y="2.0431087"
     rx="1.5874687"
     ry="1.5874687" />
  <path
     style="color:#444444;fill:#999999;fill-opacity:1;stroke:none;stroke-width:0.221945;stroke-dasharray:none;stroke-opacity:0.3"
     class="ColorScheme-Text"
     d="m 5.8886955,4.6922177 c 0,0 -0.9662465,0 -0.9662465,0.9662461 v 3.8649861 c 0,0.9662461 0.9662465,0.9662461 0.9662465,0.9662461 h 5.3143535 c 0,0 0.966247,0 0.966247,-0.9662461 V 5.6584638 c 0,-0.9662461 -0.966247,-0.9662461 -0.966247,-0.9662461 z M 6.0094762,5.6584638 H 6.734161 c 0.066911,0 0.1207805,0.05387 0.1207805,0.1207814 v 0.724685 c 0,0.066911 -0.05387,0.1207804 -0.1207805,0.1207804 H 6.0094762 c -0.066912,0 -0.1207807,-0.05387 -0.1207807,-0.1207804 v -0.724685 c 0,-0.066913 0.05387,-0.1207814 0.1207807,-0.1207814 z m 1.4493695,0 h 0.7246845 c 0.066913,0 0.120781,0.05387 0.120781,0.1207814 v 0.724685 c 0,0.066911 -0.05387,0.1207804 -0.120781,0.1207804 H 7.4588457 c -0.066912,0 -0.1207808,-0.05387 -0.1207808,-0.1207804 v -0.724685 c 0,-0.066913 0.05387,-0.1207814 0.1207808,-0.1207814 z m 1.4493693,0 h 0.7246844 c 0.066908,0 0.1207816,0.05387 0.1207816,0.1207814 v 0.724685 c 0,0.066911 -0.053873,0.1207804 -0.1207816,0.1207804 H 8.908215 c -0.066913,0 -0.1207804,-0.05387 -0.1207804,-0.1207804 v -0.724685 c 0,-0.066913 0.053869,-0.1207814 0.1207804,-0.1207814 z m 1.44937,0 h 0.724685 c 0.06692,0 0.120779,0.05387 0.120779,0.1207814 v 0.724685 c 0,0.066911 -0.05388,0.1207804 -0.120779,0.1207804 h -0.724685 c -0.06691,0 -0.120782,-0.05387 -0.120782,-0.1207804 v -0.724685 c 0,-0.066913 0.05388,-0.1207814 0.120782,-0.1207814 z M 6.0094762,7.1078343 H 6.734161 c 0.066911,0 0.1207805,0.053869 0.1207805,0.1207803 v 0.7246848 c 0,0.066913 -0.05387,0.1207808 -0.1207805,0.1207808 H 6.0094762 c -0.066912,0 -0.1207807,-0.053869 -0.1207807,-0.1207808 V 7.2286146 c 0,-0.066914 0.05387,-0.1207803 0.1207807,-0.1207803 z m 1.4493695,0 h 0.7246845 c 0.066913,0 0.120781,0.053869 0.120781,0.1207803 v 0.7246848 c 0,0.066913 -0.05387,0.1207808 -0.120781,0.1207808 H 7.4588457 c -0.066911,0 -0.1207808,-0.053869 -0.1207808,-0.1207808 V 7.2286146 c 0,-0.066914 0.05387,-0.1207803 0.1207808,-0.1207803 z m 1.4493693,0 h 0.7246844 c 0.066908,0 0.1207816,0.053869 0.1207816,0.1207803 v 0.7246848 c 0,0.066913 -0.053873,0.1207808 -0.1207816,0.1207808 H 8.908215 c -0.066913,0 -0.1207804,-0.053869 -0.1207804,-0.1207808 V 7.2286146 c 0,-0.066914 0.053869,-0.1207803 0.1207804,-0.1207803 z m 1.44937,0 h 0.724685 c 0.06692,0 0.120779,0.053869 0.120779,0.1207803 v 0.7246848 c 0,0.066913 -0.05388,0.1207808 -0.120779,0.1207808 h -0.724685 c -0.06691,0 -0.120782,-0.053869 -0.120782,-0.1207808 V 7.2286146 c 0,-0.066914 0.05388,-0.1207803 0.120782,-0.1207803 z M 6.9757221,8.5572028 h 3.1403009 c 0.06692,0 0.12078,0.053872 0.12078,0.1207801 v 0.7246862 c 0,0.066914 -0.05388,0.1207807 -0.12078,0.1207807 H 6.9757221 c -0.066912,0 -0.1207806,-0.053873 -0.1207806,-0.1207807 V 8.6779829 c 0,-0.066915 0.05387,-0.1207801 0.1207806,-0.1207801 z"
     id="path5" />
  <path
     d="m 5.7812963,14.182462 v -1.259389 h 0.1587465 v 1.118281 H 6.490364 v 0.141108 z m 1.2611531,-0.961298 q 0.1728573,0 0.2557582,0.07584 0.082901,0.07585 0.082901,0.241647 v 0.643806 H 7.2682222 l -0.029986,-0.134053 h -0.00706 q -0.061735,0.07761 -0.1305249,0.11465 -0.067026,0.03704 -0.1869681,0.03704 -0.128761,0 -0.2134258,-0.06703 -0.084665,-0.06879 -0.084665,-0.213426 0,-0.141108 0.1111225,-0.216953 0.1111226,-0.07761 0.3421869,-0.08467 l 0.1605104,-0.0053 v -0.05644 q 0,-0.118178 -0.051152,-0.164038 -0.051152,-0.04586 -0.1446357,-0.04586 -0.074082,0 -0.141108,0.02293 -0.067026,0.02117 -0.1252333,0.04939 l -0.047624,-0.116414 q 0.061735,-0.03351 0.1463996,-0.05644 0.084665,-0.02469 0.176385,-0.02469 z m 0.04586,0.504461 q -0.176385,0.0071 -0.2451752,0.05644 -0.067026,0.04939 -0.067026,0.139344 0,0.07937 0.047624,0.116414 0.049388,0.03704 0.1252333,0.03704 0.1199418,0 0.1993151,-0.06526 0.079373,-0.06703 0.079373,-0.204606 v -0.08466 z m 0.4374362,-0.488587 h 0.1658019 l 0.2046066,0.537974 q 0.026458,0.07055 0.047624,0.135817 0.021166,0.0635 0.031749,0.121705 h 0.00706 q 0.010583,-0.0441 0.033513,-0.11465 0.02293,-0.07232 0.047624,-0.144635 L 8.2559796,13.237038 H 8.4235454 L 8.016096,14.312987 q -0.049388,0.134052 -0.128761,0.213425 -0.077609,0.07937 -0.2151897,0.07937 -0.042332,0 -0.074082,-0.0053 -0.031749,-0.0035 -0.054679,-0.0088 v -0.12347 q 0.019402,0.0035 0.04586,0.0071 0.028222,0.0035 0.058207,0.0035 0.081137,0 0.1305249,-0.04586 0.051152,-0.04586 0.079373,-0.121705 l 0.049388,-0.125234 z m 1.8696813,0.470948 q 0,0.234592 -0.1199418,0.363353 -0.1181779,0.128761 -0.3210207,0.128761 -0.1252333,0 -0.2240089,-0.05644 -0.097012,-0.05821 -0.153455,-0.167566 -0.056443,-0.111122 -0.056443,-0.268105 0,-0.234592 0.118178,-0.361589 0.1181779,-0.126997 0.3210207,-0.126997 0.128761,0 0.2257728,0.05821 0.098776,0.05644 0.1534549,0.165802 0.056443,0.107594 0.056443,0.264577 z m -0.7143592,0 q 0,0.167566 0.065262,0.266341 0.067026,0.09701 0.211662,0.09701 0.1428719,0 0.2098982,-0.09701 0.067026,-0.09877 0.067026,-0.266341 0,-0.167566 -0.067026,-0.262814 -0.067026,-0.09525 -0.211662,-0.09525 -0.1446357,0 -0.2098982,0.09525 -0.065262,0.09525 -0.065262,0.262814 z m 1.7497382,-0.470948 v 0.945424 h -0.126997 l -0.02293,-0.125234 h -0.0071 q -0.04586,0.07408 -0.126997,0.109359 -0.08114,0.03351 -0.172857,0.03351 -0.1710935,0 -0.2575221,-0.08114 -0.086429,-0.0829 -0.086429,-0.262814 v -0.619111 h 0.1569827 v 0.608528 q 0,0.225773 0.2098981,0.225773 0.156983,0 0.216954,-0.08819 0.06173,-0.08819 0.06173,-0.253995 v -0.492114 z m 0.615584,0.836065 q 0.03528,0 0.07232,-0.0053 0.03704,-0.0071 0.05997,-0.01411 v 0.118178 q -0.02469,0.01235 -0.07055,0.0194 -0.04586,0.0088 -0.08819,0.0088 -0.07408,0 -0.13758,-0.02469 -0.06173,-0.02646 -0.10054,-0.08996 -0.0388,-0.0635 -0.0388,-0.178149 V 13.35698 h -0.134053 v -0.07408 l 0.135816,-0.06173 0.06174,-0.201079 h 0.09172 v 0.216953 h 0.273397 v 0.119942 h -0.273397 v 0.546793 q 0,0.08643 0.04057,0.128761 0.04233,0.04057 0.107595,0.04057 z"
     id="text1"
     style="font-size:1.76385px;text-align:center;text-anchor:middle;fill:#999999;stroke-width:0.264578"
     aria-label="Layout" />
</svg>
