<?xml version="1.0" encoding="UTF-8" standalone="no"?>
<svg
   width="64"
   height="64"
   version="1.1"
   viewBox="0 0 16.933 16.933"
   id="svg7"
   sodipodi:docname="preferences-users.svg"
   inkscape:version="1.4 (e7c3feb100, 2024-10-09)"
   xmlns:inkscape="http://www.inkscape.org/namespaces/inkscape"
   xmlns:sodipodi="http://sodipodi.sourceforge.net/DTD/sodipodi-0.dtd"
   xmlns:xlink="http://www.w3.org/1999/xlink"
   xmlns="http://www.w3.org/2000/svg"
   xmlns:svg="http://www.w3.org/2000/svg"
   xmlns:rdf="http://www.w3.org/1999/02/22-rdf-syntax-ns#"
   xmlns:cc="http://creativecommons.org/ns#"
   xmlns:dc="http://purl.org/dc/elements/1.1/">
  <sodipodi:namedview
     id="namedview7"
     pagecolor="#9c4444"
     bordercolor="#000000"
     borderopacity="0.25"
     inkscape:showpageshadow="2"
     inkscape:pageopacity="0.0"
     inkscape:pagecheckerboard="0"
     inkscape:deskcolor="#d1d1d1"
     inkscape:zoom="6.15625"
     inkscape:cx="35.492386"
     inkscape:cy="29.807107"
     inkscape:window-width="1183"
     inkscape:window-height="973"
     inkscape:window-x="35"
     inkscape:window-y="32"
     inkscape:window-maximized="0"
     inkscape:current-layer="svg7"
     showgrid="false" />
  <defs
     id="defs2">
    <rect
       x="67.489848"
       y="35.60533"
       width="15.337563"
       height="22.51269"
       id="rect3808" />
    <linearGradient
       inkscape:collect="always"
       id="linearGradient1134">
      <stop
         style="stop-color:#161616;stop-opacity:1;"
         offset="0"
         id="stop1130" />
      <stop
         style="stop-color:#404040;stop-opacity:1;"
         offset="1"
         id="stop1132" />
    </linearGradient>
    <linearGradient
       inkscape:collect="always"
       id="linearGradient883">
      <stop
         style="stop-color:#808080;stop-opacity:1;"
         offset="0"
         id="stop879" />
      <stop
         style="stop-color:#3e3e3e;stop-opacity:1;"
         offset="0.5"
         id="stop1216" />
      <stop
         style="stop-color:#242424;stop-opacity:1;"
         offset="1"
         id="stop881" />
    </linearGradient>
    <linearGradient
       inkscape:collect="always"
       xlink:href="#linearGradient883"
       id="linearGradient885"
       x1="2.1085808"
       y1="2.0236168"
       x2="14.846128"
       y2="15.071845"
       gradientUnits="userSpaceOnUse" />
    <linearGradient
       inkscape:collect="always"
       xlink:href="#linearGradient1134"
       id="linearGradient1136"
       x1="14.971222"
       y1="14.703373"
       x2="2.0756054"
       y2="2.0069976"
       gradientUnits="userSpaceOnUse" />
    <filter
       style="color-interpolation-filters:sRGB;"
       inkscape:label="Blur"
       id="filter1283"
       x="-0.082344266"
       y="-0.082344266"
       width="1.1646885"
       height="1.1646885">
      <feGaussianBlur
         stdDeviation="0.5 0.5"
         result="blur"
         id="feGaussianBlur1281" />
    </filter>
    <filter
       style="color-interpolation-filters:sRGB;"
       inkscape:label="Blur"
       id="filter1694"
       x="-0.94955398"
       y="-0.2118907"
       width="2.899108"
       height="1.4237814">
      <feGaussianBlur
         stdDeviation="0.2 0.2"
         result="blur"
         id="feGaussianBlur1692" />
    </filter>
    <filter
       style="color-interpolation-filters:sRGB;"
       inkscape:label="Blur"
       id="filter3148"
       x="-0.94955398"
       y="-0.2118907"
       width="2.899108"
       height="1.4237814">
      <feGaussianBlur
         stdDeviation="0.2 0.2"
         result="blur"
         id="feGaussianBlur3146" />
    </filter>
  </defs>
  <metadata
     id="metadata2">
    <rdf:RDF>
      <cc:Work
         rdf:about="">
        <dc:format>image/svg+xml</dc:format>
        <dc:type
           rdf:resource="http://purl.org/dc/dcmitype/StillImage" />
      </cc:Work>
    </rdf:RDF>
  </metadata>
  <rect
     style="fill:#000000;stroke:none;stroke-width:0.539739;stroke-dasharray:none;filter:url(#filter1283)"
     id="rect246-1"
     width="14.572964"
     height="14.572964"
     x="1.1932471"
     y="1.2138842"
     rx="2.1589575"
     ry="2.1589575" />
  <rect
     style="opacity:1;fill:#000000;stroke:url(#linearGradient885);stroke-width:0.52915625;stroke-dasharray:none"
     id="rect246"
     width="14.287219"
     height="14.287219"
     x="1.3361193"
     y="1.3567564"
     rx="2.1166251"
     ry="2.1166251" />
  <rect
     style="fill:url(#linearGradient1136);fill-opacity:1;stroke:none;stroke-width:0.478315;stroke-dasharray:none"
     id="rect246-5"
     width="12.914515"
     height="12.914515"
     x="2.0224717"
     y="2.0431087"
     rx="1.5874687"
     ry="1.5874687" />
  <path
     style="color:#444444;fill:#999999;fill-opacity:1;stroke:none;stroke-width:0.246605;stroke-dasharray:none;stroke-opacity:0.3"
     class="ColorScheme-Text"
     d="m 5.1107836,4.381486 c -0.4831228,0 -0.4831228,0.4831227 -0.4831228,0.4831227 v 5.3143553 c 0,0 0,0.483122 0.4831228,0.483122 h 6.7637244 c 0,0 0.483122,0 0.483122,-0.483122 V 4.8646087 c 0,-0.4831227 -0.483122,-0.4831227 -0.483122,-0.4831227 z m 0.483123,0.9662461 H 11.391385 V 8.246471 H 5.5939066 Z m 0,3.3818606 h 2.415616 v 0.9662479 h -2.415616 z m 3.3818621,0 H 11.391385 V 9.6958406 H 8.9757687 Z"
     id="path5" />
  <g
     aria-label="Krita"
     id="text1450"
     style="font-size:1.76385px;opacity:1;fill:#5555ff;stroke-width:0.529156">
    <rect
       style="font-size:1.76385px;fill:#5555ff;fill-opacity:1;stroke:none;stroke-width:0.519976;stroke-dasharray:none;filter:url(#filter3148)"
       id="rect1656-3"
       width="0.5055005"
       height="2.2653189"
       x="15.369148"
       y="4.3016486"
       rx="0"
       ry="0" />
    <rect
       style="opacity:1;fill:#5555ff;fill-opacity:1;stroke:none;stroke-width:0.519976;stroke-dasharray:none"
       id="rect1656"
       width="0.5055005"
       height="2.2653189"
       x="15.369148"
       y="4.3016486"
       rx="0"
       ry="0" />
  </g>
  <path
     d="M 4.9300972,14.182462 H 4.7713507 V 13.062417 H 4.3780122 v -0.139344 h 0.9436597 v 0.139344 H 4.9300972 Z m 1.259389,-0.474476 q 0,0.234592 -0.1199418,0.363353 -0.1181779,0.128761 -0.3210207,0.128761 -0.1252333,0 -0.2240089,-0.05644 -0.097012,-0.05821 -0.153455,-0.167566 -0.056443,-0.111122 -0.056443,-0.268105 0,-0.234592 0.118178,-0.361589 0.1181779,-0.126997 0.3210207,-0.126997 0.128761,0 0.2257728,0.05821 0.098776,0.05644 0.1534549,0.165802 0.056443,0.107594 0.056443,0.264577 z m -0.7143592,0 q 0,0.167566 0.065262,0.266341 0.067026,0.09701 0.211662,0.09701 0.1428719,0 0.2098982,-0.09701 0.067026,-0.09877 0.067026,-0.266341 0,-0.167566 -0.067026,-0.262814 -0.067026,-0.09525 -0.211662,-0.09525 -0.1446357,0 -0.2098982,0.09525 -0.065262,0.09525 -0.065262,0.262814 z m 1.7497383,-0.470948 v 0.945424 H 7.0978681 l -0.02293,-0.125234 h -0.00706 q -0.04586,0.07408 -0.1269972,0.109359 -0.081137,0.03351 -0.1728573,0.03351 -0.1710934,0 -0.2575221,-0.08114 -0.086429,-0.0829 -0.086429,-0.262814 V 13.237038 H 6.58106 v 0.608528 q 0,0.225773 0.2098982,0.225773 0.1569826,0 0.2169535,-0.08819 0.061735,-0.08819 0.061735,-0.253995 V 13.237038 Z M 7.9039475,14.2001 q -0.1252333,0 -0.2240089,-0.05115 -0.097012,-0.05115 -0.153455,-0.158747 -0.054679,-0.107595 -0.054679,-0.275161 0,-0.174621 0.058207,-0.283979 0.058207,-0.109359 0.1569827,-0.160511 0.1005394,-0.05115 0.2275366,-0.05115 0.072318,0 0.1393442,0.01587 0.067026,0.01411 0.1093587,0.03528 l -0.047624,0.128761 q -0.042332,-0.01587 -0.098776,-0.02998 -0.056443,-0.01411 -0.105831,-0.01411 -0.2786883,0 -0.2786883,0.358062 0,0.171093 0.067026,0.262813 0.06879,0.08996 0.2028428,0.08996 0.077609,0 0.1358164,-0.01588 0.059971,-0.01587 0.1093587,-0.0388 v 0.137581 q -0.047624,0.02469 -0.105831,0.03704 -0.056443,0.01411 -0.1375803,0.01411 z m 0.6226383,-0.964826 q 0,0.07055 -0.00882,0.132289 h 0.010583 q 0.04586,-0.07232 0.1234695,-0.109359 0.079373,-0.03704 0.1710934,-0.03704 0.1728573,0 0.259286,0.0829 0.086429,0.08114 0.086429,0.262814 v 0.615584 H 9.0151723 v -0.605001 q 0,-0.227536 -0.211662,-0.227536 -0.1587465,0 -0.2187174,0.08996 -0.058207,0.08819 -0.058207,0.253994 v 0.488587 H 8.371367 v -1.340526 h 0.1552188 z m 1.384622,-0.01587 q 0.1746212,0 0.2804522,0.121705 0.107595,0.121706 0.107595,0.366881 0,0.241648 -0.107595,0.366881 -0.105831,0.125233 -0.282216,0.125233 -0.1093587,0 -0.1816766,-0.04057 -0.070554,-0.04233 -0.1111225,-0.09701 h -0.010583 q 0.00353,0.02998 0.00706,0.07585 0.00353,0.04586 0.00353,0.07937 v 0.388047 H 9.4614261 v -1.368748 h 0.1269972 l 0.021166,0.128761 h 0.00706 q 0.042332,-0.06174 0.1111225,-0.104067 0.06879,-0.04233 0.1834404,-0.04233 z m -0.028222,0.130525 q -0.1446357,0 -0.2046066,0.08114 -0.058207,0.08114 -0.061735,0.246939 v 0.02998 q 0,0.174621 0.056443,0.269869 0.058207,0.09348 0.2134258,0.09348 0.086429,0 0.1411081,-0.04762 0.05644,-0.04762 0.0829,-0.128761 0.02822,-0.0829 0.02822,-0.188732 0,-0.162274 -0.0635,-0.259286 -0.06174,-0.09701 -0.1922598,-0.09701 z m 1.0212688,-0.128761 q 0.172857,0 0.255758,0.07584 0.0829,0.07585 0.0829,0.241647 v 0.643806 h -0.112886 l -0.02999,-0.134053 h -0.0071 q -0.06174,0.07761 -0.130525,0.11465 -0.06703,0.03704 -0.186968,0.03704 -0.128761,0 -0.213426,-0.06703 -0.08466,-0.06879 -0.08466,-0.213426 0,-0.141108 0.111123,-0.216953 0.111122,-0.07761 0.342187,-0.08467 l 0.16051,-0.0053 v -0.05644 q 0,-0.118178 -0.05115,-0.164038 -0.05115,-0.04586 -0.144635,-0.04586 -0.07408,0 -0.141108,0.02293 -0.06703,0.02117 -0.125234,0.04939 l -0.04762,-0.116414 q 0.06174,-0.03351 0.1464,-0.05644 0.08467,-0.02469 0.176385,-0.02469 z m 0.04586,0.504461 q -0.176385,0.0071 -0.245175,0.05644 -0.06703,0.04939 -0.06703,0.139344 0,0.07937 0.04762,0.116414 0.04939,0.03704 0.125233,0.03704 0.119942,0 0.199315,-0.06526 0.07937,-0.06703 0.07937,-0.204606 v -0.08466 z m 0.920731,0.474475 q -0.176385,0 -0.282216,-0.121705 -0.105831,-0.12347 -0.105831,-0.366881 0,-0.243412 0.105831,-0.366881 0.107595,-0.125233 0.28398,-0.125233 0.109359,0 0.178149,0.04057 0.07055,0.04057 0.11465,0.09878 h 0.01058 q -0.0018,-0.02293 -0.0071,-0.06703 -0.0035,-0.04586 -0.0035,-0.07232 v -0.377464 h 0.155219 v 1.340526 h -0.125233 l -0.02293,-0.126997 h -0.0071 q -0.04233,0.05997 -0.112886,0.102303 -0.07055,0.04233 -0.181677,0.04233 z m 0.02469,-0.128761 q 0.149928,0 0.209898,-0.08114 0.06174,-0.0829 0.06174,-0.248703 v -0.02822 q 0,-0.176385 -0.05821,-0.269869 -0.05821,-0.09525 -0.21519,-0.09525 -0.125233,0 -0.188731,0.100539 -0.06174,0.09878 -0.06174,0.266341 0,0.16933 0.06174,0.262814 0.0635,0.09348 0.190495,0.09348 z"
     id="text1"
     style="font-size:1.76385px;text-align:center;text-anchor:middle;fill:#999999;stroke-width:0.132289;stroke-opacity:0.6"
     aria-label="Touchpad" />
  <text
     xml:space="preserve"
     transform="scale(0.26457812)"
     id="text3806"
     style="fill:#999999;stroke-width:2;font-size:6.66666667px;white-space:pre;shape-inside:url(#rect3808)" />
</svg>
