<?xml version="1.0" encoding="UTF-8" standalone="no"?>
<svg
   width="64"
   height="64"
   version="1.1"
   viewBox="0 0 16.933 16.933"
   id="svg7"
   sodipodi:docname="Internet Template.svg"
   inkscape:version="1.4 (e7c3feb100, 2024-10-09)"
   xmlns:inkscape="http://www.inkscape.org/namespaces/inkscape"
   xmlns:sodipodi="http://sodipodi.sourceforge.net/DTD/sodipodi-0.dtd"
   xmlns:xlink="http://www.w3.org/1999/xlink"
   xmlns="http://www.w3.org/2000/svg"
   xmlns:svg="http://www.w3.org/2000/svg"
   xmlns:rdf="http://www.w3.org/1999/02/22-rdf-syntax-ns#"
   xmlns:cc="http://creativecommons.org/ns#"
   xmlns:dc="http://purl.org/dc/elements/1.1/">
  <sodipodi:namedview
     id="namedview7"
     pagecolor="#9c4444"
     bordercolor="#000000"
     borderopacity="0.25"
     inkscape:showpageshadow="2"
     inkscape:pageopacity="0.0"
     inkscape:pagecheckerboard="0"
     inkscape:deskcolor="#d1d1d1"
     inkscape:zoom="6.15625"
     inkscape:cx="15.675127"
     inkscape:cy="29.807107"
     inkscape:window-width="1183"
     inkscape:window-height="973"
     inkscape:window-x="35"
     inkscape:window-y="32"
     inkscape:window-maximized="0"
     inkscape:current-layer="svg7"
     showgrid="false" />
  <defs
     id="defs2">
    <rect
       x="67.489848"
       y="35.60533"
       width="15.337563"
       height="22.51269"
       id="rect3808" />
    <linearGradient
       inkscape:collect="always"
       id="linearGradient1134">
      <stop
         style="stop-color:#161616;stop-opacity:1;"
         offset="0"
         id="stop1130" />
      <stop
         style="stop-color:#404040;stop-opacity:1;"
         offset="1"
         id="stop1132" />
    </linearGradient>
    <linearGradient
       inkscape:collect="always"
       id="linearGradient883">
      <stop
         style="stop-color:#808080;stop-opacity:1;"
         offset="0"
         id="stop879" />
      <stop
         style="stop-color:#3e3e3e;stop-opacity:1;"
         offset="0.5"
         id="stop1216" />
      <stop
         style="stop-color:#242424;stop-opacity:1;"
         offset="1"
         id="stop881" />
    </linearGradient>
    <linearGradient
       inkscape:collect="always"
       xlink:href="#linearGradient883"
       id="linearGradient885"
       x1="2.1085808"
       y1="2.0236168"
       x2="14.846128"
       y2="15.071845"
       gradientUnits="userSpaceOnUse" />
    <linearGradient
       inkscape:collect="always"
       xlink:href="#linearGradient1134"
       id="linearGradient1136"
       x1="14.971222"
       y1="14.703373"
       x2="2.0756054"
       y2="2.0069976"
       gradientUnits="userSpaceOnUse" />
    <filter
       style="color-interpolation-filters:sRGB;"
       inkscape:label="Blur"
       id="filter1283"
       x="-0.082344266"
       y="-0.082344266"
       width="1.1646885"
       height="1.1646885">
      <feGaussianBlur
         stdDeviation="0.5 0.5"
         result="blur"
         id="feGaussianBlur1281" />
    </filter>
    <filter
       style="color-interpolation-filters:sRGB;"
       inkscape:label="Blur"
       id="filter1694"
       x="-0.94955398"
       y="-0.2118907"
       width="2.899108"
       height="1.4237814">
      <feGaussianBlur
         stdDeviation="0.2 0.2"
         result="blur"
         id="feGaussianBlur1692" />
    </filter>
    <filter
       style="color-interpolation-filters:sRGB;"
       inkscape:label="Blur"
       id="filter3148"
       x="-0.94955398"
       y="-0.2118907"
       width="2.899108"
       height="1.4237814">
      <feGaussianBlur
         stdDeviation="0.2 0.2"
         result="blur"
         id="feGaussianBlur3146" />
    </filter>
    <clipPath
       clipPathUnits="userSpaceOnUse"
       id="clipPath44">
      <path
         id="path46"
         style="display:block;opacity:0.85;fill:#f2f2f2;stroke-width:4.39162"
         d="m 17.570312,8.4453125 a 6.5431988,7.4283052 9.9958727e-8 0 0 -6.535156,7.4394535 6.5431988,7.4283052 9.9958727e-8 0 0 6.552735,7.417968 6.5431988,7.4283052 9.9958727e-8 0 0 6.535156,-7.4375 6.5431988,7.4283052 9.9958727e-8 0 0 -6.552735,-7.4199215 z M 45.646484,41.177734 a 6.5431986,7.0703472 2.4665357e-6 0 0 -6.533203,7.080078 6.5431986,7.0703472 2.4665357e-6 0 0 6.550781,7.060547 6.5431986,7.0703472 2.4665357e-6 0 0 6.535157,-7.080078 6.5431986,7.0703472 2.4665357e-6 0 0 -6.552735,-7.060547 z" />
    </clipPath>
    <inkscape:path-effect
       effect="powerclip"
       id="path-effect48"
       is_visible="true"
       lpeversion="1"
       inverse="true"
       flatten="false"
       hide_clip="false"
       message="" />
  </defs>
  <metadata
     id="metadata2">
    <rdf:RDF>
      <cc:Work
         rdf:about="">
        <dc:format>image/svg+xml</dc:format>
        <dc:type
           rdf:resource="http://purl.org/dc/dcmitype/StillImage" />
      </cc:Work>
    </rdf:RDF>
  </metadata>
  <rect
     style="fill:#000000;stroke:none;stroke-width:0.539739;stroke-dasharray:none;filter:url(#filter1283)"
     id="rect246-1"
     width="14.572964"
     height="14.572964"
     x="1.1932471"
     y="1.2138842"
     rx="2.1589575"
     ry="2.1589575" />
  <rect
     style="opacity:1;fill:#000000;stroke:url(#linearGradient885);stroke-width:0.52915625;stroke-dasharray:none"
     id="rect246"
     width="14.287219"
     height="14.287219"
     x="1.3361193"
     y="1.3567564"
     rx="2.1166251"
     ry="2.1166251" />
  <rect
     style="fill:url(#linearGradient1136);fill-opacity:1;stroke:none;stroke-width:0.478315;stroke-dasharray:none"
     id="rect246-5"
     width="12.914515"
     height="12.914515"
     x="2.0224717"
     y="2.0431087"
     rx="1.5874687"
     ry="1.5874687" />
  <path
     id="path6"
     style="fill:#999999;stroke-width:0.00998649"
     d="M 8.5686535,3.8546931 C 8.3725774,3.8517327 8.1161283,3.8606158 7.996474,3.8771848 7.587921,3.9337591 7.2422213,4.0392452 6.8830094,4.2170324 6.5033098,4.4049601 6.2125453,4.6163981 5.9136405,4.9221853 5.3410275,5.5079831 4.9939795,6.2618644 4.9210383,7.0779315 c -0.013236,0.1480973 -0.013295,0.4723708 0,0.6193877 0.063128,0.6980944 0.3274817,1.3551359 0.7652132,1.9024052 0.1799269,0.2249508 0.4749695,0.5044106 0.7021871,0.6651126 0.5167324,0.365466 1.1152491,0.589265 1.7279088,0.646329 0.135306,0.0126 0.5039316,0.01332 0.6391607,0.0013 0.5459543,-0.04881 1.0993538,-0.233053 1.5501999,-0.516322 0.83631,-0.5254568 1.415511,-1.3549372 1.605563,-2.299347 0.05636,-0.2800371 0.06426,-0.3672232 0.06426,-0.7091076 0,-0.3418522 -0.0079,-0.4289653 -0.06426,-0.7091075 C 11.804377,6.1470947 11.575906,5.6541642 11.226138,5.200494 11.111477,5.0517714 10.781672,4.7219665 10.63295,4.6073055 10.064251,4.1688527 9.4322919,3.9202176 8.7372181,3.8616179 c -0.04465,-0.00376 -0.1032058,-0.00593 -0.1685646,-0.00692 z m 0.5299153,1.0000172 c 0.051203,0.00319 0.1029242,0.016584 0.1529932,0.041276 0.084011,0.041429 0.1317706,0.091403 0.1767208,0.184877 l 0.031142,0.064756 0.00296,0.561799 0.00272,0.5615519 0.047208,-0.02348 c 0.073692,-0.03712 0.1791188,-0.072518 0.2923932,-0.097876 0.088492,-0.01981 0.1318045,-0.023233 0.288931,-0.023233 0.157129,0 0.200195,0.00343 0.288685,0.023233 0.130418,0.029196 0.219427,0.061139 0.340343,0.1218507 0.56943,0.2859113 0.873115,0.9381664 0.727406,1.562311 -0.129995,0.5568159 -0.582225,0.9746909 -1.151779,1.064032 -0.102029,0.016002 -0.3341209,0.01324 -0.4394533,-0.00518 -0.1095212,-0.019157 -0.2377728,-0.057159 -0.3232876,-0.095898 -0.035088,-0.015897 -0.065489,-0.028914 -0.067475,-0.028914 -0.00199,0 -0.00371,0.033691 -0.00371,0.074889 v 0.074891 H 9.0797813 8.6951971 l 0.00272,-1.8900474 0.00247,-1.8897997 0.026447,-0.056106 C 8.7978214,4.9282364 8.9449597,4.8451147 9.0985673,4.8547097 Z M 7.42726,6.1194378 h 0.3845839 0.384584 l -0.00272,1.8848565 -0.00247,1.8848569 -0.028176,0.061047 c -0.035863,0.077598 -0.1131338,0.1541908 -0.1915506,0.1900678 -0.047412,0.02168 -0.07767,0.02808 -0.1448368,0.0304 C 7.6774644,10.175766 7.567236,10.118926 7.48831,9.9959225 7.428876,9.9033005 7.427261,9.8841542 7.427261,9.2969489 7.427261,8.8741773 7.424551,8.7648002 7.414656,8.7690104 7.141684,8.8851357 6.9520987,8.9208385 6.6961601,8.9042085 6.1031394,8.8656738 5.5968304,8.4418806 5.449224,7.8604455 5.3694083,7.5460446 5.3994997,7.2210007 5.536225,6.9197473 5.620015,6.7351287 5.8081675,6.5078808 5.9786448,6.3851362 6.1379835,6.2704114 6.3275259,6.186911 6.5283328,6.1431646 c 0.1325903,-0.028886 0.4194223,-0.026671 0.5593275,0.00445 0.085715,0.019065 0.2078078,0.059508 0.3220519,0.1065269 0.01568,0.00645 0.017549,-9.16e-5 0.017549,-0.063768 z M 6.812074,6.8876168 C 6.7069159,6.8849258 6.5993693,6.9091934 6.4994143,6.9647315 6.3589002,7.0428056 6.2345246,7.2027378 6.1934278,7.357719 c -0.022302,0.0841 -0.022637,0.2248142 -7.466e-4,0.3087052 0.064646,0.2476848 0.2766757,0.4367081 0.5271963,0.4696076 0.1239762,0.016281 0.2640204,-0.010378 0.382854,-0.072666 0.089672,-0.047002 0.2113112,-0.172875 0.2570483,-0.2661932 0.068911,-0.1405991 0.085003,-0.2876782 0.047702,-0.4335219 -0.07323,-0.286332 -0.3266755,-0.4691623 -0.595413,-0.4760339 z m 3.276131,7.436e-4 C 9.798938,6.8878318 9.542728,7.0961454 9.4787038,7.383923 9.4001057,7.7372056 9.6513676,8.089221 10.015292,8.1357895 10.225387,8.1626736 10.447431,8.0713722 10.579316,7.9039515 10.672684,7.785425 10.715989,7.661371 10.715749,7.5124472 10.715471,7.3373658 10.657801,7.2025122 10.528153,7.0727462 10.403111,6.9475913 10.262787,6.8886797 10.088205,6.8883634 Z" />
  <g
     aria-label="Krita"
     id="text1450"
     style="font-size:1.76385px;opacity:1;fill:#ffff00;stroke-width:0.529156">
    <rect
       style="font-size:1.76385px;fill:#ffff00;fill-opacity:1;stroke:none;stroke-width:0.519976;stroke-dasharray:none;filter:url(#filter3148)"
       id="rect1656-3"
       width="0.5055005"
       height="2.2653189"
       x="15.369148"
       y="4.3016486"
       rx="0"
       ry="0" />
    <rect
       style="opacity:1;fill:#ffff00;fill-opacity:1;stroke:none;stroke-width:0.519976;stroke-dasharray:none"
       id="rect1656"
       width="0.5055005"
       height="2.2653189"
       x="15.369148"
       y="4.3016486"
       rx="0"
       ry="0" />
  </g>
  <path
     d="m 4.693879,14.198419 q 0,-0.03175 0.00176,-0.07408 0.00176,-0.04233 0.00706,-0.07232 h -0.010583 q -0.040569,0.05997 -0.1128864,0.102303 -0.070554,0.04233 -0.1834404,0.04233 -0.1710934,0 -0.2786883,-0.121706 -0.105831,-0.12347 -0.105831,-0.366881 0,-0.243411 0.1075949,-0.366881 0.1093587,-0.125233 0.282216,-0.125233 0.1111225,0 0.1816765,0.04233 0.070554,0.04233 0.1128864,0.104068 h 0.00706 l 0.02293,-0.128762 h 0.1234695 v 1.368748 H 4.693879 Z M 4.4257738,14.067895 q 0.1463995,0 0.2063704,-0.07937 0.061735,-0.08114 0.063499,-0.246939 v -0.03175 q 0,-0.179913 -0.059971,-0.271633 -0.059971,-0.09348 -0.2134258,-0.09348 -0.1269972,0 -0.188732,0.100539 -0.061735,0.09878 -0.061735,0.266342 0,0.167566 0.061735,0.262813 0.063499,0.09348 0.1922597,0.09348 z m 0.8783969,-0.903092 q 0,0.05997 -0.00353,0.112887 -0.00176,0.05115 -0.00529,0.08114 h 0.00882 q 0.040569,-0.05997 0.1111225,-0.10054 0.070554,-0.04057 0.1816766,-0.04057 0.176385,0 0.282216,0.123469 0.1075948,0.121706 0.1075948,0.365117 0,0.243412 -0.1075948,0.366881 -0.1075949,0.12347 -0.282216,0.12347 -0.1111226,0 -0.1816766,-0.04057 -0.070554,-0.04057 -0.1111225,-0.09701 h -0.012347 l -0.031749,0.119942 H 5.1489519 V 12.838491 H 5.3041707 Z M 5.570512,13.34648 q -0.1499272,0 -0.2081343,0.08643 -0.058207,0.08643 -0.058207,0.268105 v 0.0071 q 0,0.174621 0.056443,0.268105 0.058207,0.09172 0.2134258,0.09172 0.1269972,0 0.188732,-0.09348 0.063499,-0.09348 0.063499,-0.269869 0,-0.358061 -0.2557583,-0.358061 z m 0.7425805,-0.46742 q 0.035277,0 0.061735,0.02469 0.028222,0.02293 0.028222,0.07408 0,0.04939 -0.028222,0.07408 -0.026458,0.02469 -0.061735,0.02469 -0.038805,0 -0.065262,-0.02469 -0.026458,-0.02469 -0.026458,-0.07408 0,-0.05115 0.026458,-0.07408 0.026458,-0.02469 0.065262,-0.02469 z m 0.075845,0.354533 v 0.945424 H 6.2337192 v -0.945424 z m 0.6155828,0.836065 q 0.035277,0 0.072318,-0.0053 0.037041,-0.0071 0.059971,-0.01411 v 0.118178 q -0.024694,0.01235 -0.070554,0.0194 -0.04586,0.0088 -0.088192,0.0088 -0.074082,0 -0.1375803,-0.02469 -0.061735,-0.02646 -0.1005394,-0.08996 -0.038805,-0.0635 -0.038805,-0.178149 V 13.353535 H 6.567086 v -0.07408 l 0.1358164,-0.06173 0.061735,-0.201079 h 0.09172 v 0.216953 h 0.2733967 v 0.119942 H 6.8563574 v 0.546794 q 0,0.08643 0.040569,0.128761 0.042332,0.04057 0.1075949,0.04057 z m 0.6367497,0 q 0.035277,0 0.072318,-0.0053 0.037041,-0.0071 0.059971,-0.01411 v 0.118178 q -0.024694,0.01235 -0.070554,0.0194 -0.04586,0.0088 -0.088192,0.0088 -0.074082,0 -0.1375803,-0.02469 -0.061735,-0.02646 -0.1005395,-0.08996 -0.038805,-0.0635 -0.038805,-0.178149 V 13.353535 H 7.2038357 v -0.07408 l 0.1358165,-0.06173 0.061735,-0.201079 h 0.09172 v 0.216953 h 0.2733968 v 0.119942 H 7.4931071 v 0.546794 q 0,0.08643 0.040569,0.128761 0.042332,0.04057 0.1075948,0.04057 z m 1.1429749,-0.365117 q 0,0.234592 -0.1199418,0.363354 -0.1181779,0.128761 -0.3210207,0.128761 -0.1252333,0 -0.2240089,-0.05644 -0.097012,-0.05821 -0.153455,-0.167565 -0.056443,-0.111123 -0.056443,-0.268106 0,-0.234592 0.118178,-0.361589 0.1181779,-0.126997 0.3210207,-0.126997 0.128761,0 0.2257728,0.05821 0.098776,0.05644 0.1534549,0.165802 0.056443,0.107595 0.056443,0.264577 z m -0.7143592,0 q 0,0.167566 0.065262,0.266342 0.067026,0.09701 0.211662,0.09701 0.1428719,0 0.2098982,-0.09701 0.067026,-0.09878 0.067026,-0.266342 0,-0.167565 -0.067026,-0.262813 -0.067026,-0.09525 -0.211662,-0.09525 -0.1446357,0 -0.2098982,0.09525 -0.065262,0.09525 -0.065262,0.262813 z m 1.4004961,-0.488586 q 0.026458,0 0.056443,0.0035 0.031749,0.0018 0.054679,0.0071 l -0.019402,0.142872 q -0.02293,-0.0053 -0.051152,-0.0088 -0.026458,-0.0035 -0.051152,-0.0035 -0.072318,0 -0.1358165,0.04057 -0.063499,0.0388 -0.1023033,0.111122 -0.037041,0.07055 -0.037041,0.165802 v 0.504461 H 9.0294198 V 13.233593 H 9.156417 l 0.017639,0.172858 h 0.00706 q 0.04586,-0.07761 0.1181779,-0.134053 0.072318,-0.05644 0.1710935,-0.05644 z m 0.7284707,0 q 0.02646,0 0.05644,0.0035 0.03175,0.0018 0.05468,0.0071 l -0.0194,0.142872 q -0.02293,-0.0053 -0.05115,-0.0088 -0.02646,-0.0035 -0.05115,-0.0035 -0.07232,0 -0.135816,0.04057 -0.063499,0.0388 -0.1023033,0.111122 -0.037041,0.07055 -0.037041,0.165802 v 0.504461 H 9.7578901 v -0.945424 h 0.1269972 l 0.017638,0.172858 h 0.00706 q 0.04586,-0.07761 0.1181778,-0.134053 0.07232,-0.05644 0.171094,-0.05644 z m 0.617347,0 q 0.121705,0 0.208134,0.05292 0.08819,0.05292 0.134052,0.149928 0.04762,0.09525 0.04762,0.224009 v 0.09348 h -0.647333 q 0.0035,0.16051 0.08114,0.245175 0.07937,0.0829 0.220481,0.0829 0.08996,0 0.158746,-0.01588 0.07055,-0.01764 0.144636,-0.04939 v 0.135817 q -0.07232,0.03175 -0.142872,0.04586 -0.07055,0.01588 -0.167566,0.01588 -0.134052,0 -0.238119,-0.05468 -0.102304,-0.05468 -0.160511,-0.162274 -0.05644,-0.109359 -0.05644,-0.266341 0,-0.155219 0.05115,-0.266342 0.05292,-0.111122 0.146399,-0.171093 0.09525,-0.05997 0.220482,-0.05997 z m -0.0018,0.126997 q -0.111123,0 -0.176385,0.07232 -0.0635,0.07055 -0.07585,0.197551 h 0.481531 q -0.0018,-0.119942 -0.05644,-0.194023 -0.05468,-0.07585 -0.172857,-0.07585 z m 1.086529,-0.126997 q 0.16933,0 0.255759,0.0829 0.08643,0.08114 0.08643,0.264577 v 0.615584 h -0.153455 v -0.605 q 0,-0.227537 -0.211662,-0.227537 -0.156982,0 -0.216953,0.08819 -0.05997,0.08819 -0.05997,0.253995 v 0.49035 h -0.155219 v -0.945424 h 0.125234 l 0.02293,0.128762 h 0.0088 q 0.04586,-0.07408 0.126997,-0.109359 0.08114,-0.03704 0.171093,-0.03704 z m 0.950716,0.853703 q 0.03528,0 0.07232,-0.0053 0.03704,-0.0071 0.05997,-0.01411 v 0.118178 q -0.02469,0.01235 -0.07055,0.0194 -0.04586,0.0088 -0.08819,0.0088 -0.07408,0 -0.13758,-0.02469 -0.06173,-0.02646 -0.100539,-0.08996 -0.0388,-0.0635 -0.0388,-0.178149 v -0.550321 h -0.134053 v -0.07408 l 0.135817,-0.06173 0.06174,-0.201079 h 0.09172 v 0.216953 h 0.273396 v 0.119942 h -0.273396 v 0.546794 q 0,0.08643 0.04057,0.128761 0.04233,0.04057 0.107595,0.04057 z"
     id="text2284"
     style="font-size:1.76385px;fill:#999999;stroke-width:0.529156"
     aria-label="qbittorrent" />
  <text
     xml:space="preserve"
     transform="scale(0.26457812)"
     id="text3806"
     style="fill:#999999;stroke-width:2;font-size:6.66666667px;white-space:pre;shape-inside:url(#rect3808)" />
</svg>
