<?xml version="1.0" encoding="UTF-8" standalone="no"?>
<svg
   width="64"
   height="64"
   version="1.1"
   viewBox="0 0 16.933 16.933"
   id="svg7"
   sodipodi:docname="spotify.svg"
   inkscape:version="1.4 (e7c3feb100, 2024-10-09)"
   xmlns:inkscape="http://www.inkscape.org/namespaces/inkscape"
   xmlns:sodipodi="http://sodipodi.sourceforge.net/DTD/sodipodi-0.dtd"
   xmlns:xlink="http://www.w3.org/1999/xlink"
   xmlns="http://www.w3.org/2000/svg"
   xmlns:svg="http://www.w3.org/2000/svg"
   xmlns:rdf="http://www.w3.org/1999/02/22-rdf-syntax-ns#"
   xmlns:cc="http://creativecommons.org/ns#"
   xmlns:dc="http://purl.org/dc/elements/1.1/">
  <sodipodi:namedview
     id="namedview7"
     pagecolor="#9c4444"
     bordercolor="#000000"
     borderopacity="0.25"
     inkscape:showpageshadow="2"
     inkscape:pageopacity="0.0"
     inkscape:pagecheckerboard="0"
     inkscape:deskcolor="#d1d1d1"
     inkscape:zoom="6.15625"
     inkscape:cx="15.675127"
     inkscape:cy="29.807107"
     inkscape:window-width="1183"
     inkscape:window-height="973"
     inkscape:window-x="35"
     inkscape:window-y="32"
     inkscape:window-maximized="0"
     inkscape:current-layer="svg7"
     showgrid="false" />
  <defs
     id="defs2">
    <rect
       x="67.489848"
       y="35.60533"
       width="15.337563"
       height="22.51269"
       id="rect3808" />
    <linearGradient
       inkscape:collect="always"
       id="linearGradient1134">
      <stop
         style="stop-color:#161616;stop-opacity:1;"
         offset="0"
         id="stop1130" />
      <stop
         style="stop-color:#404040;stop-opacity:1;"
         offset="1"
         id="stop1132" />
    </linearGradient>
    <linearGradient
       inkscape:collect="always"
       id="linearGradient883">
      <stop
         style="stop-color:#808080;stop-opacity:1;"
         offset="0"
         id="stop879" />
      <stop
         style="stop-color:#3e3e3e;stop-opacity:1;"
         offset="0.5"
         id="stop1216" />
      <stop
         style="stop-color:#242424;stop-opacity:1;"
         offset="1"
         id="stop881" />
    </linearGradient>
    <linearGradient
       inkscape:collect="always"
       xlink:href="#linearGradient883"
       id="linearGradient885"
       x1="2.1085808"
       y1="2.0236168"
       x2="14.846128"
       y2="15.071845"
       gradientUnits="userSpaceOnUse" />
    <linearGradient
       inkscape:collect="always"
       xlink:href="#linearGradient1134"
       id="linearGradient1136"
       x1="14.971222"
       y1="14.703373"
       x2="2.0756054"
       y2="2.0069976"
       gradientUnits="userSpaceOnUse" />
    <filter
       style="color-interpolation-filters:sRGB;"
       inkscape:label="Blur"
       id="filter1283"
       x="-0.082344266"
       y="-0.082344266"
       width="1.1646885"
       height="1.1646885">
      <feGaussianBlur
         stdDeviation="0.5 0.5"
         result="blur"
         id="feGaussianBlur1281" />
    </filter>
    <filter
       style="color-interpolation-filters:sRGB;"
       inkscape:label="Blur"
       id="filter1694"
       x="-0.94955398"
       y="-0.2118907"
       width="2.899108"
       height="1.4237814">
      <feGaussianBlur
         stdDeviation="0.2 0.2"
         result="blur"
         id="feGaussianBlur1692" />
    </filter>
    <filter
       style="color-interpolation-filters:sRGB;"
       inkscape:label="Blur"
       id="filter3148"
       x="-0.94955398"
       y="-0.2118907"
       width="2.899108"
       height="1.4237814">
      <feGaussianBlur
         stdDeviation="0.2 0.2"
         result="blur"
         id="feGaussianBlur3146" />
    </filter>
    <clipPath
       clipPathUnits="userSpaceOnUse"
       id="clipPath44">
      <path
         id="path46"
         style="display:block;opacity:0.85;fill:#f2f2f2;stroke-width:4.39162"
         d="m 17.570312,8.4453125 a 6.5431988,7.4283052 9.9958727e-8 0 0 -6.535156,7.4394535 6.5431988,7.4283052 9.9958727e-8 0 0 6.552735,7.417968 6.5431988,7.4283052 9.9958727e-8 0 0 6.535156,-7.4375 6.5431988,7.4283052 9.9958727e-8 0 0 -6.552735,-7.4199215 z M 45.646484,41.177734 a 6.5431986,7.0703472 2.4665357e-6 0 0 -6.533203,7.080078 6.5431986,7.0703472 2.4665357e-6 0 0 6.550781,7.060547 6.5431986,7.0703472 2.4665357e-6 0 0 6.535157,-7.080078 6.5431986,7.0703472 2.4665357e-6 0 0 -6.552735,-7.060547 z" />
    </clipPath>
    <inkscape:path-effect
       effect="powerclip"
       id="path-effect48"
       is_visible="true"
       lpeversion="1"
       inverse="true"
       flatten="false"
       hide_clip="false"
       message="" />
  </defs>
  <metadata
     id="metadata2">
    <rdf:RDF>
      <cc:Work
         rdf:about="">
        <dc:format>image/svg+xml</dc:format>
        <dc:type
           rdf:resource="http://purl.org/dc/dcmitype/StillImage" />
      </cc:Work>
    </rdf:RDF>
  </metadata>
  <rect
     style="fill:#000000;stroke:none;stroke-width:0.539739;stroke-dasharray:none;filter:url(#filter1283)"
     id="rect246-1"
     width="14.572964"
     height="14.572964"
     x="1.1932471"
     y="1.2138842"
     rx="2.1589575"
     ry="2.1589575" />
  <rect
     style="opacity:1;fill:#000000;stroke:url(#linearGradient885);stroke-width:0.52915625;stroke-dasharray:none"
     id="rect246"
     width="14.287219"
     height="14.287219"
     x="1.3361193"
     y="1.3567564"
     rx="2.1166251"
     ry="2.1166251" />
  <rect
     style="fill:url(#linearGradient1136);fill-opacity:1;stroke:none;stroke-width:0.478315;stroke-dasharray:none"
     id="rect246-5"
     width="12.914515"
     height="12.914515"
     x="2.0224717"
     y="2.0431087"
     rx="1.5874687"
     ry="1.5874687" />
  <path
     id="path16"
     style="fill:#999999;fill-opacity:1;stroke:none;stroke-width:0.038623;stroke-opacity:0.3"
     d="M 6.5843156,4.052999 C 6.2746264,4.0529748 5.9929208,4.072409 5.8612448,4.111513 5.5905054,4.191914 5.4577314,4.3645839 5.4367842,4.6641485 5.4240782,4.8458188 5.4370514,4.9055254 5.5134062,5.0180211 L 5.6048922,5.153161 6.3953,5.175452 c 0.6734196,0.019053 0.8581741,0.038101 1.2492355,0.1286386 1.4083888,0.3260683 2.4751015,0.9026578 3.4871775,1.8859265 0.488569,0.4746622 0.561112,0.5312734 0.680345,0.5312734 0.169878,0 0.325192,-0.1208296 0.417958,-0.3250803 0.141513,-0.31157 0.08985,-0.4687714 -0.303248,-0.9213688 C 10.916737,5.3119356 9.1674844,4.3832593 7.4754985,4.1115126 7.2318438,4.0723795 6.8940033,4.0530231 6.5843156,4.052999 Z M 5.8714614,6.2598253 c -0.1043481,-0.0034 -0.1965828,5.156e-4 -0.273531,0.012075 -0.3623119,0.054332 -0.5223668,0.5120819 -0.2739962,0.783442 0.064228,0.07017 0.1210055,0.086718 0.2948942,0.086842 0.7261311,4.964e-4 2.0533962,0.3656559 2.9503314,0.81177 0.6448818,0.3207492 1.0644037,0.6124904 1.5394842,1.0699772 0.226727,0.21833 0.435288,0.3966766 0.463471,0.3965972 0.109718,-2.859e-4 0.309429,-0.162132 0.365482,-0.2962867 0.08139,-0.1947974 0.04239,-0.351398 -0.154646,-0.6190443 C 10.453402,8.0575384 9.7549917,7.5488276 8.8821652,7.1208235 7.9331311,6.6554497 6.6019036,6.2836462 5.8714614,6.2598268 Z M 5.2352339,8.419284 C 5.1280344,8.4215763 5.0761838,8.4381918 5.0146443,8.474547 4.7690347,8.6196314 4.6897971,8.9734256 4.8590698,9.1702169 c 0.079615,0.092552 0.1240495,0.1048286 0.5117686,0.1383909 0.7631689,0.066064 1.6630601,0.3235183 2.4738582,0.7082092 0.4861698,0.230669 0.8813271,0.4881 1.272455,0.828953 0.2041612,0.177919 0.2990244,0.235816 0.3882389,0.235916 C 9.8110048,11.08201 9.9763568,10.66422 9.7900672,10.362795 9.6732801,10.17383 9.2852144,9.8346644 8.8631256,9.5528822 7.9196995,8.923063 6.6611776,8.5022587 5.5017993,8.4290358 5.3839567,8.4215944 5.2995539,8.4179072 5.2352339,8.419282 Z" />
  <g
     aria-label="Krita"
     id="text1450"
     style="font-size:1.76385px;opacity:1;fill:#ff7f2a;stroke-width:0.529156">
    <rect
       style="font-size:1.76385px;fill:#ff7f2a;fill-opacity:1;stroke:none;stroke-width:0.519976;stroke-dasharray:none;filter:url(#filter3148)"
       id="rect1656-3"
       width="0.5055005"
       height="2.2653189"
       x="15.369148"
       y="4.3016486"
       rx="0"
       ry="0" />
    <rect
       style="opacity:1;fill:#ff7f2a;fill-opacity:1;stroke:none;stroke-width:0.519976;stroke-dasharray:none"
       id="rect1656"
       width="0.5055005"
       height="2.2653189"
       x="15.369148"
       y="4.3016486"
       rx="0"
       ry="0" />
  </g>
  <g
     aria-label="Spotify"
     id="text2284"
     style="font-size:1.76385px;opacity:1;fill:#999999;stroke-width:0.529156">
    <path
       d="m 6.3606328,13.842122 q 0,0.167565 -0.1217056,0.26105 -0.1217057,0.09348 -0.3280761,0.09348 -0.105831,0 -0.1957874,-0.01588 -0.089956,-0.01587 -0.1499272,-0.0441 v -0.151691 q 0.063499,0.02822 0.1569826,0.05115 0.095248,0.02293 0.1957874,0.02293 0.141108,0 0.211662,-0.05468 0.072318,-0.05468 0.072318,-0.148163 0,-0.06173 -0.026458,-0.104068 -0.026458,-0.04233 -0.09172,-0.07761 -0.063499,-0.03704 -0.1781489,-0.07761 -0.1605103,-0.05821 -0.2434113,-0.142872 -0.081137,-0.08466 -0.081137,-0.231065 0,-0.100539 0.051152,-0.171093 0.051152,-0.07232 0.141108,-0.111123 0.09172,-0.0388 0.2098981,-0.0388 0.1040672,0 0.1904958,0.0194 0.086429,0.0194 0.1569827,0.05115 l -0.049388,0.135816 q -0.065263,-0.02822 -0.1428719,-0.04762 -0.075845,-0.0194 -0.1587465,-0.0194 -0.1181779,0 -0.1781488,0.05115 -0.059971,0.04939 -0.059971,0.132289 0,0.0635 0.026458,0.105831 0.026458,0.04233 0.086429,0.07585 0.059971,0.03351 0.1622742,0.07232 0.1111225,0.04057 0.1869681,0.08819 0.077609,0.04586 0.1164141,0.111123 0.040569,0.06526 0.040569,0.164038 z"
       id="path1734" />
    <path
       d="m 7.0432424,13.215955 q 0.1746212,0 0.2804522,0.121706 0.1075948,0.121705 0.1075948,0.36688 0,0.241648 -0.1075948,0.366881 -0.105831,0.125234 -0.282216,0.125234 -0.1093587,0 -0.1816766,-0.04057 -0.070554,-0.04233 -0.1111225,-0.09701 h -0.010583 q 0.00353,0.02999 0.00706,0.07585 0.00353,0.04586 0.00353,0.07937 v 0.388047 H 6.5934607 v -1.368748 h 0.1269972 l 0.021166,0.128762 h 0.00706 q 0.042332,-0.06174 0.1111225,-0.104068 0.06879,-0.04233 0.1834404,-0.04233 z m -0.028222,0.130525 q -0.1446357,0 -0.2046066,0.08114 -0.058207,0.08114 -0.061735,0.246939 v 0.02998 q 0,0.174622 0.056443,0.269869 0.058207,0.09348 0.2134258,0.09348 0.086429,0 0.141108,-0.04762 0.056443,-0.04762 0.082901,-0.128761 0.028222,-0.0829 0.028222,-0.188732 0,-0.162275 -0.063499,-0.259286 -0.061735,-0.09701 -0.1922597,-0.09701 z"
       id="path1736" />
    <path
       d="m 8.5001821,13.704541 q 0,0.234592 -0.1199418,0.363354 -0.1181779,0.128761 -0.3210207,0.128761 -0.1252333,0 -0.2240089,-0.05644 -0.097012,-0.05821 -0.153455,-0.167565 -0.056443,-0.111123 -0.056443,-0.268106 0,-0.234592 0.118178,-0.361589 0.1181779,-0.126997 0.3210207,-0.126997 0.128761,0 0.2257728,0.05821 0.098776,0.05644 0.1534549,0.165802 0.056443,0.107595 0.056443,0.264577 z m -0.7143592,0 q 0,0.167566 0.065262,0.266342 0.067026,0.09701 0.211662,0.09701 0.1428719,0 0.2098982,-0.09701 0.067026,-0.09878 0.067026,-0.266342 0,-0.167565 -0.067026,-0.262813 -0.067026,-0.09525 -0.211662,-0.09525 -0.1446357,0 -0.2098982,0.09525 -0.065262,0.09525 -0.065262,0.262813 z"
       id="path1738" />
    <path
       d="m 9.0610856,14.069658 q 0.035277,0 0.072318,-0.0053 0.037041,-0.0071 0.059971,-0.01411 v 0.118178 q -0.024694,0.01235 -0.070554,0.0194 -0.04586,0.0088 -0.088192,0.0088 -0.074082,0 -0.1375803,-0.02469 -0.061735,-0.02646 -0.1005394,-0.08996 -0.038805,-0.0635 -0.038805,-0.178149 V 13.353535 H 8.6236508 v -0.07408 l 0.1358164,-0.06173 0.061735,-0.201079 h 0.09172 v 0.216953 h 0.2733967 v 0.119942 H 8.9129222 v 0.546794 q 0,0.08643 0.040568,0.128761 0.042332,0.04057 0.1075949,0.04057 z"
       id="path1740" />
    <path
       d="m 9.4614797,12.87906 q 0.035277,0 0.061735,0.02469 0.028222,0.02293 0.028222,0.07408 0,0.04939 -0.028222,0.07408 -0.026458,0.02469 -0.061735,0.02469 -0.038805,0 -0.065262,-0.02469 -0.026458,-0.02469 -0.026458,-0.07408 0,-0.05115 0.026458,-0.07408 0.026458,-0.02469 0.065262,-0.02469 z m 0.075845,0.354533 v 0.945424 H 9.3821064 v -0.945424 z"
       id="path1742" />
    <path
       d="m 10.27285,13.353535 h -0.23812 v 0.825482 H 9.8795112 V 13.353535 H 9.7137093 v -0.07232 l 0.1658019,-0.05292 v -0.05468 q 0,-0.183441 0.081137,-0.262814 0.081137,-0.08114 0.2257727,-0.08114 0.05644,0 0.102303,0.01058 0.04762,0.0088 0.08114,0.02117 l -0.04057,0.121706 q -0.02822,-0.0088 -0.06526,-0.01764 -0.03704,-0.0088 -0.07585,-0.0088 -0.07761,0 -0.116414,0.05292 -0.03704,0.05115 -0.03704,0.162274 v 0.06173 h 0.23812 z"
       id="path1744" />
    <path
       d="m 10.295779,13.233593 h 0.165802 l 0.204607,0.537975 q 0.02646,0.07055 0.04762,0.135816 0.02117,0.0635 0.03175,0.121706 h 0.0071 q 0.01058,-0.0441 0.03351,-0.11465 0.02293,-0.07232 0.04762,-0.144636 l 0.19226,-0.536211 h 0.167566 l -0.407449,1.075949 q -0.04939,0.134053 -0.128761,0.213426 -0.07761,0.07937 -0.21519,0.07937 -0.04233,0 -0.07408,-0.0053 -0.03175,-0.0035 -0.05468,-0.0088 v -0.123469 q 0.0194,0.0035 0.04586,0.0071 0.02822,0.0035 0.05821,0.0035 0.08114,0 0.130525,-0.04586 0.05115,-0.04586 0.07937,-0.121706 l 0.04939,-0.125233 z"
       id="path1746" />
  </g>
  <text
     xml:space="preserve"
     transform="scale(0.26457812)"
     id="text3806"
     style="font-size:6.66667px;white-space:pre;shape-inside:url(#rect3808);display:inline;fill:#999999;stroke-width:2" />
</svg>
