<?xml version="1.0" encoding="UTF-8" standalone="no"?>
<svg
   width="64"
   height="64"
   version="1.1"
   viewBox="0 0 16.933 16.933"
   id="svg7"
   sodipodi:docname="steam_icon_1086940.svg"
   inkscape:version="1.4 (e7c3feb100, 2024-10-09)"
   xmlns:inkscape="http://www.inkscape.org/namespaces/inkscape"
   xmlns:sodipodi="http://sodipodi.sourceforge.net/DTD/sodipodi-0.dtd"
   xmlns:xlink="http://www.w3.org/1999/xlink"
   xmlns="http://www.w3.org/2000/svg"
   xmlns:svg="http://www.w3.org/2000/svg"
   xmlns:rdf="http://www.w3.org/1999/02/22-rdf-syntax-ns#"
   xmlns:cc="http://creativecommons.org/ns#"
   xmlns:dc="http://purl.org/dc/elements/1.1/">
  <sodipodi:namedview
     id="namedview7"
     pagecolor="#9c4444"
     bordercolor="#000000"
     borderopacity="0.25"
     inkscape:showpageshadow="2"
     inkscape:pageopacity="0.0"
     inkscape:pagecheckerboard="0"
     inkscape:deskcolor="#d1d1d1"
     inkscape:zoom="4.3531261"
     inkscape:cx="35.951175"
     inkscape:cy="39.856415"
     inkscape:window-width="1183"
     inkscape:window-height="973"
     inkscape:window-x="35"
     inkscape:window-y="32"
     inkscape:window-maximized="0"
     inkscape:current-layer="svg7"
     showgrid="false" />
  <defs
     id="defs2">
    <linearGradient
       inkscape:collect="always"
       id="linearGradient1134">
      <stop
         style="stop-color:#161616;stop-opacity:1;"
         offset="0"
         id="stop1130" />
      <stop
         style="stop-color:#404040;stop-opacity:1;"
         offset="1"
         id="stop1132" />
    </linearGradient>
    <linearGradient
       inkscape:collect="always"
       id="linearGradient883">
      <stop
         style="stop-color:#808080;stop-opacity:1;"
         offset="0"
         id="stop879" />
      <stop
         style="stop-color:#3e3e3e;stop-opacity:1;"
         offset="0.5"
         id="stop1216" />
      <stop
         style="stop-color:#242424;stop-opacity:1;"
         offset="1"
         id="stop881" />
    </linearGradient>
    <linearGradient
       inkscape:collect="always"
       xlink:href="#linearGradient883"
       id="linearGradient885"
       x1="2.1085808"
       y1="2.0236168"
       x2="14.846128"
       y2="15.071845"
       gradientUnits="userSpaceOnUse" />
    <linearGradient
       inkscape:collect="always"
       xlink:href="#linearGradient1134"
       id="linearGradient1136"
       x1="14.971222"
       y1="14.703373"
       x2="2.0756054"
       y2="2.0069976"
       gradientUnits="userSpaceOnUse" />
    <filter
       style="color-interpolation-filters:sRGB;"
       inkscape:label="Blur"
       id="filter1283"
       x="-0.082344266"
       y="-0.082344266"
       width="1.1646885"
       height="1.1646885">
      <feGaussianBlur
         stdDeviation="0.5 0.5"
         result="blur"
         id="feGaussianBlur1281" />
    </filter>
    <filter
       style="color-interpolation-filters:sRGB;"
       inkscape:label="Blur"
       id="filter1694"
       x="-0.94955398"
       y="-0.2118907"
       width="2.899108"
       height="1.4237814">
      <feGaussianBlur
         stdDeviation="0.2 0.2"
         result="blur"
         id="feGaussianBlur1692" />
    </filter>
  </defs>
  <metadata
     id="metadata2">
    <rdf:RDF>
      <cc:Work
         rdf:about="">
        <dc:format>image/svg+xml</dc:format>
        <dc:type
           rdf:resource="http://purl.org/dc/dcmitype/StillImage" />
      </cc:Work>
    </rdf:RDF>
  </metadata>
  <rect
     style="fill:#000000;stroke:none;stroke-width:0.539739;stroke-dasharray:none;filter:url(#filter1283)"
     id="rect246-1"
     width="14.572964"
     height="14.572964"
     x="1.1932471"
     y="1.2138842"
     rx="2.1589575"
     ry="2.1589575" />
  <rect
     style="opacity:1;fill:#000000;stroke:url(#linearGradient885);stroke-width:0.52915625;stroke-dasharray:none"
     id="rect246"
     width="14.287219"
     height="14.287219"
     x="1.3361193"
     y="1.3567564"
     rx="2.1166251"
     ry="2.1166251" />
  <rect
     style="fill:url(#linearGradient1136);fill-opacity:1;stroke:none;stroke-width:0.478315;stroke-dasharray:none"
     id="rect246-5"
     width="12.914515"
     height="12.914515"
     x="2.0224717"
     y="2.0431087"
     rx="1.5874687"
     ry="1.5874687" />
  <path
     style="fill:#999999;fill-opacity:1;stroke:none;stroke-width:0.183425;stroke-dasharray:none;stroke-opacity:0.3"
     d="M 8.6069808,11.282084 C 8.4932119,11.134637 8.3578884,10.976089 8.3062614,10.929759 c -0.091507,-0.08212 -0.1001467,-0.07914 -0.3437051,0.118713 -0.1374107,0.111623 -0.2744375,0.217951 -0.3045031,0.236283 -0.084038,0.05124 0.017594,-0.274128 0.1522627,-0.487457 0.061717,-0.09776 0.1122105,-0.185475 0.1122105,-0.19491 0,-0.01746 -0.2895762,-0.144732 -0.4231171,-0.185957 C 7.4184733,10.391442 7.2253932,9.8027945 7.2077684,9.5272961 7.2004217,9.4124258 7.1425245,9.294523 7.0236119,9.1522668 6.9282206,9.0381472 6.8501729,8.9085083 6.8501729,8.8641787 c 0,-0.195479 0.3568867,-0.7182908 0.9016438,-1.3208402 C 8.1349448,7.1195658 8.2862993,6.884636 8.3588642,6.6010903 8.4198832,6.3626584 8.4270355,6.3549129 8.5914681,6.3492026 8.7749885,6.342825 8.9344788,6.2291074 8.9999245,6.0579601 9.0615335,5.8968446 8.9483737,5.6768096 8.625314,5.3295446 8.3990247,5.0863002 8.342049,4.9944823 8.3416754,4.8724527 8.341217,4.7222222 8.8055461,3.3938393 8.8591829,3.3919374 8.8743023,3.3914408 8.8466853,3.5955257 8.7978203,3.8455472 8.629134,4.7085964 8.689311,5.0140429 9.1712723,5.741108 9.3380173,5.9926509 9.3890696,6.1155421 9.4045943,6.3027504 9.4218695,6.511099 9.4079778,6.5619869 9.2982263,6.6924232 9.2287931,6.7749398 8.9905161,6.966962 8.76872,7.11914 8.1513694,7.5427153 7.5862675,8.1072157 7.4130518,8.4733646 7.2746445,8.7659346 7.2252717,9.0927042 7.3114282,9.1459544 7.3343296,9.1601051 7.4711328,9.025559 7.6154352,8.8469581 7.7597372,8.6683579 8.0714484,8.3678162 8.3081252,8.1790874 9.7154322,7.0568868 9.9531065,6.5117329 9.3909269,5.6954717 9.197725,5.4149508 9.2100053,5.2843314 9.4073924,5.5203768 c 0.3045246,0.3641736 0.7530916,1.354576 0.7530916,1.6627685 0,0.1389123 -0.359416,0.8507306 -0.5529163,1.0950466 C 9.5233783,8.3844911 9.2724041,8.5898407 9.0498494,8.734522 8.3259276,9.2051452 8.1583328,9.325077 7.9915635,9.4918455 7.9012408,9.5821696 7.8341111,9.6763799 7.8423856,9.7012056 c 0.00828,0.024826 0.1411162,0.135383 0.2952031,0.2456879 L 8.4177465,10.147449 8.7645962,9.8897786 C 8.9553632,9.7480619 9.2199919,9.5700018 9.3526598,9.4940941 9.6718257,9.3114707 9.7790279,9.1947667 9.9739901,8.817683 10.160171,8.4575847 10.253736,8.3895548 10.253736,8.6142796 c 0,0.2286625 -0.17495,0.4896512 -0.47441,0.7077235 -0.1493668,0.1087716 -0.2715766,0.2108035 -0.2715766,0.2267386 0,0.015941 0.045291,0.049191 0.1006489,0.07388 0.090945,0.040581 0.059931,0.070608 -0.3216461,0.3113711 -0.5788479,0.3652412 -0.5728088,0.3536792 -0.3178981,0.6085912 0.2433822,0.243381 0.3985968,0.47896 0.3988486,0.605357 1.401e-4,0.06386 -0.106851,-0.0098 -0.3981572,-0.27431 l -0.3983323,-0.361636 -0.1125333,0.10572 -0.1125337,0.10572 0.1550215,0.191904 c 0.085262,0.105545 0.178758,0.237697 0.2077697,0.293668 0.076244,0.147094 0.1469701,0.341161 0.124334,0.341161 -0.010691,0 -0.1125165,-0.120637 -0.2262859,-0.268087 z"
     id="path1-9" />
  <g
     aria-label="Krita"
     id="text1450"
     style="font-size:1.76385px;opacity:1;fill:#ff00ff;stroke-width:0.529156">
    <rect
       style="font-size:1.76385px;fill:#ff00ff;fill-opacity:1;stroke:none;stroke-width:0.519976;stroke-dasharray:none;filter:url(#filter1694)"
       id="rect1656-7"
       width="0.5055005"
       height="2.2653189"
       x="15.369148"
       y="4.3016486"
       rx="0"
       ry="0" />
    <rect
       style="opacity:1;fill:#ff00ff;fill-opacity:1;stroke:none;stroke-width:0.519976;stroke-dasharray:none"
       id="rect1656"
       width="0.5055005"
       height="2.2653189"
       x="15.369148"
       y="4.3016486"
       rx="0"
       ry="0" />
  </g>
  <g
     aria-label="Steam"
     id="text2284"
     style="font-size:1.76385px;opacity:1;fill:#999999;stroke-width:0.529156">
    <path
       d="m 6.7172843,13.496001 h 0.4356709 v 0.617348 q -0.1023033,0.03351 -0.2063705,0.04939 -0.1040671,0.01587 -0.2363558,0.01587 -0.1957874,0 -0.32984,-0.07761 -0.1340526,-0.07937 -0.2046066,-0.224009 -0.06879,-0.1464 -0.06879,-0.345715 0,-0.197551 0.077609,-0.342187 0.077609,-0.144635 0.2222451,-0.224009 0.1463995,-0.08114 0.35277,-0.08114 0.105831,0 0.199315,0.0194 0.095248,0.0194 0.176385,0.05468 l -0.059971,0.13758 q -0.067026,-0.02998 -0.1516911,-0.05115 -0.082901,-0.02117 -0.1728573,-0.02117 -0.2257728,0 -0.35277,0.135817 -0.1252333,0.135816 -0.1252333,0.372172 0,0.149927 0.047624,0.266342 0.049388,0.11465 0.153455,0.179912 0.1040671,0.0635 0.2733967,0.0635 0.082901,0 0.141108,-0.0088 0.058207,-0.0088 0.105831,-0.02117 V 13.637109 H 6.7172843 Z m 1.0741858,-0.296327 q 0.1728573,0 0.2557582,0.07585 0.082901,0.07584 0.082901,0.241647 v 0.643806 H 8.0172429 L 7.9872574,14.02692 h -0.00706 q -0.061735,0.07761 -0.1305249,0.11465 -0.067026,0.03704 -0.1869681,0.03704 -0.128761,0 -0.2134258,-0.06703 -0.084665,-0.06879 -0.084665,-0.213426 0,-0.141108 0.1111225,-0.216954 0.1111226,-0.07761 0.3421869,-0.08466 l 0.1605104,-0.0053 V 13.5348 q 0,-0.118178 -0.051152,-0.164038 -0.051152,-0.04586 -0.1446357,-0.04586 -0.074082,0 -0.141108,0.02293 -0.067026,0.02117 -0.1252333,0.04939 l -0.047624,-0.116415 q 0.061735,-0.03351 0.1463996,-0.05644 0.084665,-0.02469 0.176385,-0.02469 z m 0.04586,0.504461 q -0.176385,0.0071 -0.2451752,0.05644 -0.067026,0.04939 -0.067026,0.139344 0,0.07937 0.047624,0.116414 0.049388,0.03704 0.1252333,0.03704 0.1199418,0 0.1993151,-0.06526 0.079373,-0.06703 0.079373,-0.204606 v -0.08467 z m 1.6227435,-0.506224 q 0.1605103,0 0.2398836,0.0829 0.079373,0.08114 0.079373,0.264578 v 0.615584 H 9.6258756 v -0.608529 q 0,-0.224009 -0.1922597,-0.224009 -0.1375803,0 -0.1975512,0.07937 -0.058207,0.07937 -0.058207,0.231064 v 0.5221 H 9.0244027 V 13.55244 q 0,-0.224009 -0.1940234,-0.224009 -0.1428719,0 -0.1975512,0.08819 -0.054679,0.08819 -0.054679,0.253994 v 0.490351 H 8.4229299 v -0.945424 h 0.1252334 l 0.02293,0.128761 h 0.00882 q 0.044096,-0.07408 0.1181779,-0.109359 0.075846,-0.03704 0.1605104,-0.03704 0.222245,0 0.2892713,0.158746 h 0.00882 q 0.047624,-0.08114 0.128761,-0.119942 0.082901,-0.0388 0.1746212,-0.0388 z m 0.9771714,0 q 0.121705,0 0.208134,0.05292 0.08819,0.05292 0.134052,0.149927 0.04762,0.09525 0.04762,0.224009 v 0.09348 h -0.647333 q 0.0035,0.160511 0.08114,0.245175 0.07937,0.0829 0.220481,0.0829 0.08996,0 0.158746,-0.01587 0.07055,-0.01764 0.144636,-0.04939 v 0.135816 q -0.07232,0.03175 -0.142872,0.04586 -0.07055,0.01587 -0.167566,0.01587 -0.134052,0 -0.238119,-0.05468 -0.102304,-0.05468 -0.160511,-0.162274 -0.05644,-0.109359 -0.05644,-0.266342 0,-0.155219 0.05115,-0.266341 0.05291,-0.111123 0.146399,-0.171094 0.09525,-0.05997 0.220482,-0.05997 z m -0.0018,0.126997 q -0.111123,0 -0.176385,0.07232 -0.0635,0.07055 -0.07585,0.197551 h 0.481531 q -0.0018,-0.119942 -0.05644,-0.194024 -0.05468,-0.07584 -0.172857,-0.07584 z"
       id="text2"
       style="text-align:center;text-anchor:middle;stroke-width:0.140003"
       aria-label="Game" />
  </g>
</svg>
