<?xml version="1.0" encoding="UTF-8" standalone="no"?>
<svg
   width="64"
   height="64"
   version="1.1"
   viewBox="0 0 16.933 16.933"
   id="svg7"
   sodipodi:docname="steam_icon_1086940.svg"
   inkscape:version="1.4 (e7c3feb100, 2024-10-09)"
   xmlns:inkscape="http://www.inkscape.org/namespaces/inkscape"
   xmlns:sodipodi="http://sodipodi.sourceforge.net/DTD/sodipodi-0.dtd"
   xmlns:xlink="http://www.w3.org/1999/xlink"
   xmlns="http://www.w3.org/2000/svg"
   xmlns:svg="http://www.w3.org/2000/svg"
   xmlns:rdf="http://www.w3.org/1999/02/22-rdf-syntax-ns#"
   xmlns:cc="http://creativecommons.org/ns#"
   xmlns:dc="http://purl.org/dc/elements/1.1/">
  <sodipodi:namedview
     id="namedview7"
     pagecolor="#9c4444"
     bordercolor="#000000"
     borderopacity="0.25"
     inkscape:showpageshadow="2"
     inkscape:pageopacity="0.0"
     inkscape:pagecheckerboard="0"
     inkscape:deskcolor="#d1d1d1"
     inkscape:zoom="4.3531261"
     inkscape:cx="35.951175"
     inkscape:cy="39.856415"
     inkscape:window-width="1183"
     inkscape:window-height="973"
     inkscape:window-x="35"
     inkscape:window-y="32"
     inkscape:window-maximized="0"
     inkscape:current-layer="svg7"
     showgrid="false" />
  <defs
     id="defs2">
    <linearGradient
       inkscape:collect="always"
       id="linearGradient1134">
      <stop
         style="stop-color:#161616;stop-opacity:1;"
         offset="0"
         id="stop1130" />
      <stop
         style="stop-color:#404040;stop-opacity:1;"
         offset="1"
         id="stop1132" />
    </linearGradient>
    <linearGradient
       inkscape:collect="always"
       id="linearGradient883">
      <stop
         style="stop-color:#808080;stop-opacity:1;"
         offset="0"
         id="stop879" />
      <stop
         style="stop-color:#3e3e3e;stop-opacity:1;"
         offset="0.5"
         id="stop1216" />
      <stop
         style="stop-color:#242424;stop-opacity:1;"
         offset="1"
         id="stop881" />
    </linearGradient>
    <linearGradient
       inkscape:collect="always"
       xlink:href="#linearGradient883"
       id="linearGradient885"
       x1="2.1085808"
       y1="2.0236168"
       x2="14.846128"
       y2="15.071845"
       gradientUnits="userSpaceOnUse" />
    <linearGradient
       inkscape:collect="always"
       xlink:href="#linearGradient1134"
       id="linearGradient1136"
       x1="14.971222"
       y1="14.703373"
       x2="2.0756054"
       y2="2.0069976"
       gradientUnits="userSpaceOnUse" />
    <filter
       style="color-interpolation-filters:sRGB;"
       inkscape:label="Blur"
       id="filter1283"
       x="-0.082344266"
       y="-0.082344266"
       width="1.1646885"
       height="1.1646885">
      <feGaussianBlur
         stdDeviation="0.5 0.5"
         result="blur"
         id="feGaussianBlur1281" />
    </filter>
    <filter
       style="color-interpolation-filters:sRGB;"
       inkscape:label="Blur"
       id="filter1694"
       x="-0.94955398"
       y="-0.2118907"
       width="2.899108"
       height="1.4237814">
      <feGaussianBlur
         stdDeviation="0.2 0.2"
         result="blur"
         id="feGaussianBlur1692" />
    </filter>
  </defs>
  <metadata
     id="metadata2">
    <rdf:RDF>
      <cc:Work
         rdf:about="">
        <dc:format>image/svg+xml</dc:format>
        <dc:type
           rdf:resource="http://purl.org/dc/dcmitype/StillImage" />
      </cc:Work>
    </rdf:RDF>
  </metadata>
  <rect
     style="fill:#000000;stroke:none;stroke-width:0.539739;stroke-dasharray:none;filter:url(#filter1283)"
     id="rect246-1"
     width="14.572964"
     height="14.572964"
     x="1.1932471"
     y="1.2138842"
     rx="2.1589575"
     ry="2.1589575" />
  <rect
     style="opacity:1;fill:#000000;stroke:url(#linearGradient885);stroke-width:0.52915625;stroke-dasharray:none"
     id="rect246"
     width="14.287219"
     height="14.287219"
     x="1.3361193"
     y="1.3567564"
     rx="2.1166251"
     ry="2.1166251" />
  <rect
     style="fill:url(#linearGradient1136);fill-opacity:1;stroke:none;stroke-width:0.478315;stroke-dasharray:none"
     id="rect246-5"
     width="12.914515"
     height="12.914515"
     x="2.0224717"
     y="2.0431087"
     rx="1.5874687"
     ry="1.5874687" />
  <path
     id="path7"
     style="fill:#999999;fill-opacity:1;stroke:none;stroke-width:0.221944;stroke-dasharray:none;stroke-dashoffset:2.2;stroke-opacity:0.3"
     d="M 8.5078768,4.3545742 C 8.1058405,4.3522128 7.7007556,4.460763 7.3543764,4.6766521 7.1356255,4.8129936 6.7260618,5.2091301 6.5563326,5.448687 6.3366829,5.758701 6.1430986,6.1952892 6.0417874,6.6086893 5.8790356,7.2728007 5.9248224,8.234477 6.1462565,8.7947489 c 0.020777,0.052577 0.05337,0.095799 0.071959,0.095799 0.056097,0 0.614981,-0.202696 0.9545311,-0.3459201 0.90692,-0.3825412 1.8836059,-0.9160648 2.7149104,-1.4833812 0.280248,-0.1912532 0.948468,-0.6869987 0.967535,-0.7178487 0.0056,-0.00899 -0.03344,-0.1218912 -0.0867,-0.2509873 C 10.483943,5.4026086 9.9920035,4.8477235 9.4116901,4.5626464 9.1317394,4.4251194 8.820571,4.3564034 8.5078768,4.3545742 Z m 3.5454642,0.6363537 c -0.119717,5.728e-4 -0.260829,0.01372 -0.39187,0.03858 -0.242733,0.046048 -0.832701,0.2442858 -0.916818,0.3082075 -0.0053,0.0041 0.03182,0.077422 0.08281,0.1629899 0.05098,0.085567 0.09277,0.1720071 0.09277,0.1920335 0,0.0419 0.04736,0.04481 0.191166,0.011701 0.356968,-0.082173 0.87954,-0.1338964 0.87954,-0.087131 0,0.043065 -0.284347,0.3628272 -0.564394,0.6346196 C 9.9650116,7.6703599 7.1796145,9.1670622 5.4917044,9.4410715 5.2446984,9.4811746 5.0156353,9.4873144 4.9953657,9.4545256 4.9776843,9.4259083 5.3303512,9.0070474 5.5736327,8.7674494 l 0.189428,-0.186843 -0.033811,-0.144783 c -0.018719,-0.079545 -0.034461,-0.1760192 -0.034679,-0.2145767 -2.334e-4,-0.038558 -0.00724,-0.070223 -0.015601,-0.070223 -0.029475,0 -0.5463587,0.4372957 -0.7317211,0.6190151 -0.3813141,0.3738177 -0.536559,0.6263854 -0.5388206,0.8765039 -0.00119,0.133602 0.00827,0.1673907 0.062422,0.2254119 0.081387,0.087192 0.1838589,0.1411404 0.3441862,0.1807624 0.17128,0.04232 0.3327371,0.04208 0.637221,-0.0013 C 6.6872509,9.8753661 8.5344148,9.0548485 10.193702,7.9455183 11.713334,6.9295649 12.728233,5.8033281 12.569627,5.3086456 12.540665,5.2183303 12.414371,5.076863 12.317341,5.026029 12.271594,5.002062 12.173065,4.9903125 12.053349,4.9909164 Z M 11.024682,7.794268 c -0.0084,1.016e-4 -0.17286,0.1121099 -0.365426,0.248819 -1.0568327,0.7502899 -2.4166894,1.4937001 -3.4587665,1.8908574 -0.1321116,0.050346 -0.24444,0.1047686 -0.2496868,0.1205096 -0.012535,0.03761 0.3659344,0.321849 0.5570265,0.418311 0.082471,0.04162 0.2502614,0.110193 0.3727961,0.152586 0.2199846,0.0761 0.2279639,0.07714 0.6432902,0.06631 0.3471199,-0.009 0.4497593,-0.02074 0.5865033,-0.06719 C 10.101425,10.287868 10.833237,9.2907677 11.00561,8.0426408 11.02449,7.9059374 11.03302,7.7941527 11.02469,7.7942547 Z" />
  <g
     aria-label="Krita"
     id="text1450"
     style="font-size:1.76385px;opacity:1;fill:#ff00ff;stroke-width:0.529156">
    <rect
       style="font-size:1.76385px;fill:#ff00ff;fill-opacity:1;stroke:none;stroke-width:0.519976;stroke-dasharray:none;filter:url(#filter1694)"
       id="rect1656-7"
       width="0.5055005"
       height="2.2653189"
       x="15.369148"
       y="4.3016486"
       rx="0"
       ry="0" />
    <rect
       style="opacity:1;fill:#ff00ff;fill-opacity:1;stroke:none;stroke-width:0.519976;stroke-dasharray:none"
       id="rect1656"
       width="0.5055005"
       height="2.2653189"
       x="15.369148"
       y="4.3016486"
       rx="0"
       ry="0" />
  </g>
  <g
     aria-label="Steam"
     id="text2284"
     style="font-size:1.76385px;opacity:1;fill:#999999;stroke-width:0.529156">
    <path
       d="m 6.7172843,13.496001 h 0.4356709 v 0.617348 q -0.1023033,0.03351 -0.2063705,0.04939 -0.1040671,0.01587 -0.2363558,0.01587 -0.1957874,0 -0.32984,-0.07761 -0.1340526,-0.07937 -0.2046066,-0.224009 -0.06879,-0.1464 -0.06879,-0.345715 0,-0.197551 0.077609,-0.342187 0.077609,-0.144635 0.2222451,-0.224009 0.1463995,-0.08114 0.35277,-0.08114 0.105831,0 0.199315,0.0194 0.095248,0.0194 0.176385,0.05468 l -0.059971,0.13758 q -0.067026,-0.02998 -0.1516911,-0.05115 -0.082901,-0.02117 -0.1728573,-0.02117 -0.2257728,0 -0.35277,0.135817 -0.1252333,0.135816 -0.1252333,0.372172 0,0.149927 0.047624,0.266342 0.049388,0.11465 0.153455,0.179912 0.1040671,0.0635 0.2733967,0.0635 0.082901,0 0.141108,-0.0088 0.058207,-0.0088 0.105831,-0.02117 V 13.637109 H 6.7172843 Z m 1.0741858,-0.296327 q 0.1728573,0 0.2557582,0.07585 0.082901,0.07584 0.082901,0.241647 v 0.643806 H 8.0172429 L 7.9872574,14.02692 h -0.00706 q -0.061735,0.07761 -0.1305249,0.11465 -0.067026,0.03704 -0.1869681,0.03704 -0.128761,0 -0.2134258,-0.06703 -0.084665,-0.06879 -0.084665,-0.213426 0,-0.141108 0.1111225,-0.216954 0.1111226,-0.07761 0.3421869,-0.08466 l 0.1605104,-0.0053 V 13.5348 q 0,-0.118178 -0.051152,-0.164038 -0.051152,-0.04586 -0.1446357,-0.04586 -0.074082,0 -0.141108,0.02293 -0.067026,0.02117 -0.1252333,0.04939 l -0.047624,-0.116415 q 0.061735,-0.03351 0.1463996,-0.05644 0.084665,-0.02469 0.176385,-0.02469 z m 0.04586,0.504461 q -0.176385,0.0071 -0.2451752,0.05644 -0.067026,0.04939 -0.067026,0.139344 0,0.07937 0.047624,0.116414 0.049388,0.03704 0.1252333,0.03704 0.1199418,0 0.1993151,-0.06526 0.079373,-0.06703 0.079373,-0.204606 v -0.08467 z m 1.6227435,-0.506224 q 0.1605103,0 0.2398836,0.0829 0.079373,0.08114 0.079373,0.264578 v 0.615584 H 9.6258756 v -0.608529 q 0,-0.224009 -0.1922597,-0.224009 -0.1375803,0 -0.1975512,0.07937 -0.058207,0.07937 -0.058207,0.231064 v 0.5221 H 9.0244027 V 13.55244 q 0,-0.224009 -0.1940234,-0.224009 -0.1428719,0 -0.1975512,0.08819 -0.054679,0.08819 -0.054679,0.253994 v 0.490351 H 8.4229299 v -0.945424 h 0.1252334 l 0.02293,0.128761 h 0.00882 q 0.044096,-0.07408 0.1181779,-0.109359 0.075846,-0.03704 0.1605104,-0.03704 0.222245,0 0.2892713,0.158746 h 0.00882 q 0.047624,-0.08114 0.128761,-0.119942 0.082901,-0.0388 0.1746212,-0.0388 z m 0.9771714,0 q 0.121705,0 0.208134,0.05292 0.08819,0.05292 0.134052,0.149927 0.04762,0.09525 0.04762,0.224009 v 0.09348 h -0.647333 q 0.0035,0.160511 0.08114,0.245175 0.07937,0.0829 0.220481,0.0829 0.08996,0 0.158746,-0.01587 0.07055,-0.01764 0.144636,-0.04939 v 0.135816 q -0.07232,0.03175 -0.142872,0.04586 -0.07055,0.01587 -0.167566,0.01587 -0.134052,0 -0.238119,-0.05468 -0.102304,-0.05468 -0.160511,-0.162274 -0.05644,-0.109359 -0.05644,-0.266342 0,-0.155219 0.05115,-0.266341 0.05291,-0.111123 0.146399,-0.171094 0.09525,-0.05997 0.220482,-0.05997 z m -0.0018,0.126997 q -0.111123,0 -0.176385,0.07232 -0.0635,0.07055 -0.07585,0.197551 h 0.481531 q -0.0018,-0.119942 -0.05644,-0.194024 -0.05468,-0.07584 -0.172857,-0.07584 z"
       id="text2"
       style="text-align:center;text-anchor:middle;stroke-width:0.140003"
       aria-label="Game" />
  </g>
</svg>
