<?xml version="1.0" encoding="UTF-8" standalone="no"?>
<svg
   width="64"
   height="64"
   version="1.1"
   viewBox="0 0 16.933 16.933"
   id="svg7"
   sodipodi:docname="steam_icon_1086940.svg"
   inkscape:version="1.4 (e7c3feb100, 2024-10-09)"
   xmlns:inkscape="http://www.inkscape.org/namespaces/inkscape"
   xmlns:sodipodi="http://sodipodi.sourceforge.net/DTD/sodipodi-0.dtd"
   xmlns:xlink="http://www.w3.org/1999/xlink"
   xmlns="http://www.w3.org/2000/svg"
   xmlns:svg="http://www.w3.org/2000/svg"
   xmlns:rdf="http://www.w3.org/1999/02/22-rdf-syntax-ns#"
   xmlns:cc="http://creativecommons.org/ns#"
   xmlns:dc="http://purl.org/dc/elements/1.1/">
  <sodipodi:namedview
     id="namedview7"
     pagecolor="#9c4444"
     bordercolor="#000000"
     borderopacity="0.25"
     inkscape:showpageshadow="2"
     inkscape:pageopacity="0.0"
     inkscape:pagecheckerboard="0"
     inkscape:deskcolor="#d1d1d1"
     inkscape:zoom="4.3531261"
     inkscape:cx="35.951175"
     inkscape:cy="39.856415"
     inkscape:window-width="1183"
     inkscape:window-height="973"
     inkscape:window-x="35"
     inkscape:window-y="32"
     inkscape:window-maximized="0"
     inkscape:current-layer="svg7"
     showgrid="false" />
  <defs
     id="defs2">
    <linearGradient
       inkscape:collect="always"
       id="linearGradient1134">
      <stop
         style="stop-color:#161616;stop-opacity:1;"
         offset="0"
         id="stop1130" />
      <stop
         style="stop-color:#404040;stop-opacity:1;"
         offset="1"
         id="stop1132" />
    </linearGradient>
    <linearGradient
       inkscape:collect="always"
       id="linearGradient883">
      <stop
         style="stop-color:#808080;stop-opacity:1;"
         offset="0"
         id="stop879" />
      <stop
         style="stop-color:#3e3e3e;stop-opacity:1;"
         offset="0.5"
         id="stop1216" />
      <stop
         style="stop-color:#242424;stop-opacity:1;"
         offset="1"
         id="stop881" />
    </linearGradient>
    <linearGradient
       inkscape:collect="always"
       xlink:href="#linearGradient883"
       id="linearGradient885"
       x1="2.1085808"
       y1="2.0236168"
       x2="14.846128"
       y2="15.071845"
       gradientUnits="userSpaceOnUse" />
    <linearGradient
       inkscape:collect="always"
       xlink:href="#linearGradient1134"
       id="linearGradient1136"
       x1="14.971222"
       y1="14.703373"
       x2="2.0756054"
       y2="2.0069976"
       gradientUnits="userSpaceOnUse" />
    <filter
       style="color-interpolation-filters:sRGB;"
       inkscape:label="Blur"
       id="filter1283"
       x="-0.082344266"
       y="-0.082344266"
       width="1.1646885"
       height="1.1646885">
      <feGaussianBlur
         stdDeviation="0.5 0.5"
         result="blur"
         id="feGaussianBlur1281" />
    </filter>
    <filter
       style="color-interpolation-filters:sRGB;"
       inkscape:label="Blur"
       id="filter1694"
       x="-0.94955398"
       y="-0.2118907"
       width="2.899108"
       height="1.4237814">
      <feGaussianBlur
         stdDeviation="0.2 0.2"
         result="blur"
         id="feGaussianBlur1692" />
    </filter>
  </defs>
  <metadata
     id="metadata2">
    <rdf:RDF>
      <cc:Work
         rdf:about="">
        <dc:format>image/svg+xml</dc:format>
        <dc:type
           rdf:resource="http://purl.org/dc/dcmitype/StillImage" />
      </cc:Work>
    </rdf:RDF>
  </metadata>
  <rect
     style="fill:#000000;stroke:none;stroke-width:0.539739;stroke-dasharray:none;filter:url(#filter1283)"
     id="rect246-1"
     width="14.572964"
     height="14.572964"
     x="1.1932471"
     y="1.2138842"
     rx="2.1589575"
     ry="2.1589575" />
  <rect
     style="opacity:1;fill:#000000;stroke:url(#linearGradient885);stroke-width:0.52915625;stroke-dasharray:none"
     id="rect246"
     width="14.287219"
     height="14.287219"
     x="1.3361193"
     y="1.3567564"
     rx="2.1166251"
     ry="2.1166251" />
  <rect
     style="fill:url(#linearGradient1136);fill-opacity:1;stroke:none;stroke-width:0.478315;stroke-dasharray:none"
     id="rect246-5"
     width="12.914515"
     height="12.914515"
     x="2.0224717"
     y="2.0431087"
     rx="1.5874687"
     ry="1.5874687" />
  <path
     style="fill:#999999;fill-opacity:1;stroke:none;stroke-width:0.201767;stroke-dasharray:none;stroke-dashoffset:2.2;stroke-opacity:0.3"
     d="M 8.0756681,11.091692 C 7.612219,11.037801 7.1086937,10.866465 6.6950022,10.621882 5.8150565,10.101643 5.1710885,9.1992573 4.9233707,8.1393138 4.8712901,7.9164706 4.8638213,7.8333516 4.8640191,7.478828 4.8642042,7.1483004 4.8737995,7.0282456 4.9158835,6.829929 5.0361872,6.2630106 5.265351,5.745856 5.5885292,5.3119692 6.1778805,4.5207299 6.9841039,4.0230468 7.9409547,3.8598141 c 0.3639508,-0.062088 0.9446023,-0.05128 1.296025,0.024124 0.7408533,0.158965 1.3349273,0.4851741 1.8811243,1.0329363 0.436054,0.437302 0.689335,0.8372615 0.866743,1.3686724 0.117151,0.3509139 0.163828,0.6122917 0.179991,1.0078796 0.03617,0.8850051 -0.265963,1.7749085 -0.843784,2.4853649 C 10.641571,10.61424 9.5529937,11.127413 8.4880996,11.114289 8.3539301,11.112489 8.1683357,11.102463 8.0756681,11.09169 Z M 8.2127494,10.708287 C 8.2887688,10.640301 8.2826812,10.466392 8.1832609,9.8658485 8.0411741,9.0075794 7.8327171,8.613702 7.5210888,8.6146758 7.1856975,8.6156964 6.5401154,8.9591665 6.1994965,9.3177497 6.0290465,9.4971882 5.9912058,9.5685681 6.0194124,9.6574413 c 0.02902,0.091439 0.3179082,0.3710817 0.5296811,0.5127357 0.3823949,0.255781 0.97607,0.519436 1.2932986,0.574364 0.1509242,0.02614 0.3189939,0.0097 0.3703573,-0.03625 z m 1.1206281,-0.0025 C 9.940537,10.545331 10.688933,10.09803 10.948019,9.7407506 11.058926,9.5878113 11.036536,9.5314661 10.748572,9.238799 10.323247,8.8064896 9.6780735,8.5247165 9.3754426,8.6390573 9.1125725,8.7383759 8.9505436,9.1506637 8.8233853,10.043775 c -0.055215,0.387819 -0.056239,0.593995 -0.00325,0.652604 0.071301,0.07885 0.2387769,0.0819 0.5132331,0.0094 z M 5.9124204,8.8436103 C 6.3481568,8.314797 6.5190107,8.0043729 6.5360172,7.7105997 6.5489558,7.4870839 6.5202849,7.3967055 6.3907245,7.2526029 6.2290743,7.0728088 5.9361693,6.9496319 5.625385,6.9307512 5.3855996,6.9161856 5.3020961,6.9550712 5.219823,7.119616 5.169218,7.2208272 5.162291,7.263351 5.165099,7.4556527 c 0.00313,0.21481 0.040629,0.4611317 0.1140895,0.7495359 0.039872,0.1565298 0.2563845,0.8703522 0.2925324,0.964447 l 0.022626,0.058903 0.050281,-0.060483 C 5.6722832,9.1347821 5.7927884,8.988789 5.9124193,8.843603 Z M 11.43669,9.0605194 C 11.704649,8.7614487 11.979162,7.3884998 11.838371,7.0515399 11.775742,6.9016428 11.604119,6.8671916 11.253144,6.9340625 10.550345,7.067965 10.358887,7.579831 10.737315,8.3131261 10.86092,8.5526395 11.01736,8.7724267 11.206895,8.9728572 11.335803,9.1091747 11.3785,9.125463 11.43669,9.0605194 Z M 8.9857535,8.45185 C 9.5121908,8.2851246 9.9180109,7.9583274 10.122114,7.5367651 10.349713,7.0666743 10.349715,6.5531255 10.122119,6.0537 9.9616024,5.7014697 9.736782,5.4331669 9.4476744,5.2488122 9.1137875,5.0359032 8.8261957,4.9635062 8.3847274,4.981231 7.9450335,4.9988862 7.7212203,5.0987585 7.3361102,5.4491643 6.9530149,5.7977373 6.7261951,6.2811508 6.7261951,6.7490586 c 0,0.764207 0.6491252,1.5503651 1.4368472,1.740174 0.1922382,0.04632 0.6197528,0.026894 0.8227112,-0.037385 z M 5.760531,6.240123 C 6.0842264,6.1728898 6.3800364,6.041283 6.4906646,5.915284 6.6428804,5.7419191 6.6703056,5.3909916 6.5524626,5.1245267 6.4910451,4.9856508 6.4672977,4.9660888 6.3851561,4.9867047 c -0.073928,0.018554 -0.414885,0.3598275 -0.579743,0.5802804 -0.092587,0.1238101 -0.3468382,0.56995 -0.4198396,0.7367013 -0.00443,0.010127 0.016423,0.012786 0.04635,0.00591 0.029927,-0.00688 0.1777998,-0.038141 0.3286068,-0.069465 z m 5.830578,-0.00185 c 0.05538,-0.053928 -0.0039,-0.1886386 -0.23362,-0.5315708 -0.248404,-0.3707044 -0.528432,-0.700671 -0.612539,-0.7217811 -0.128128,-0.032157 -0.316943,0.2607381 -0.346598,0.5376568 -0.01984,0.1852944 -0.0053,0.2422276 0.08832,0.3491089 0.247245,0.2818601 0.951431,0.5155938 1.104444,0.3665879 z M 7.7562872,4.7757673 c 0.1376747,-0.04691 0.3991044,-0.2862708 0.4786084,-0.438205 l 0.055608,-0.1062709 -0.057639,-0.0472 c -0.069866,-0.057212 -0.191923,-0.048514 -0.5558618,0.03961 -0.43718,0.1058573 -0.6865103,0.2398602 -0.6688237,0.3594588 0.024991,0.1690016 0.4763449,0.2852068 0.7481081,0.1926076 z m 1.939049,0.00496 C 10.083542,4.6628959 10.116333,4.5122262 9.7860341,4.3639966 9.6115712,4.2857017 9.1666778,4.1687024 8.9735705,4.1503322 c -0.1227048,-0.011671 -0.1570493,-0.00737 -0.182071,0.022772 -0.026184,0.03155 -0.02198,0.052277 0.027873,0.1373418 0.071585,0.1221511 0.3867483,0.4259166 0.4872751,0.4696534 0.094758,0.041227 0.2540637,0.041481 0.388689,6.492e-4 z"
     id="path3-3" />
  <g
     aria-label="Krita"
     id="text1450"
     style="font-size:1.76385px;opacity:1;fill:#ff00ff;stroke-width:0.529156">
    <rect
       style="font-size:1.76385px;fill:#ff00ff;fill-opacity:1;stroke:none;stroke-width:0.519976;stroke-dasharray:none;filter:url(#filter1694)"
       id="rect1656-7"
       width="0.5055005"
       height="2.2653189"
       x="15.369148"
       y="4.3016486"
       rx="0"
       ry="0" />
    <rect
       style="opacity:1;fill:#ff00ff;fill-opacity:1;stroke:none;stroke-width:0.519976;stroke-dasharray:none"
       id="rect1656"
       width="0.5055005"
       height="2.2653189"
       x="15.369148"
       y="4.3016486"
       rx="0"
       ry="0" />
  </g>
  <g
     aria-label="Steam"
     id="text2284"
     style="font-size:1.76385px;opacity:1;fill:#999999;stroke-width:0.529156">
    <path
       d="m 6.7172843,13.496001 h 0.4356709 v 0.617348 q -0.1023033,0.03351 -0.2063705,0.04939 -0.1040671,0.01587 -0.2363558,0.01587 -0.1957874,0 -0.32984,-0.07761 -0.1340526,-0.07937 -0.2046066,-0.224009 -0.06879,-0.1464 -0.06879,-0.345715 0,-0.197551 0.077609,-0.342187 0.077609,-0.144635 0.2222451,-0.224009 0.1463995,-0.08114 0.35277,-0.08114 0.105831,0 0.199315,0.0194 0.095248,0.0194 0.176385,0.05468 l -0.059971,0.13758 q -0.067026,-0.02998 -0.1516911,-0.05115 -0.082901,-0.02117 -0.1728573,-0.02117 -0.2257728,0 -0.35277,0.135817 -0.1252333,0.135816 -0.1252333,0.372172 0,0.149927 0.047624,0.266342 0.049388,0.11465 0.153455,0.179912 0.1040671,0.0635 0.2733967,0.0635 0.082901,0 0.141108,-0.0088 0.058207,-0.0088 0.105831,-0.02117 V 13.637109 H 6.7172843 Z m 1.0741858,-0.296327 q 0.1728573,0 0.2557582,0.07585 0.082901,0.07584 0.082901,0.241647 v 0.643806 H 8.0172429 L 7.9872574,14.02692 h -0.00706 q -0.061735,0.07761 -0.1305249,0.11465 -0.067026,0.03704 -0.1869681,0.03704 -0.128761,0 -0.2134258,-0.06703 -0.084665,-0.06879 -0.084665,-0.213426 0,-0.141108 0.1111225,-0.216954 0.1111226,-0.07761 0.3421869,-0.08466 l 0.1605104,-0.0053 V 13.5348 q 0,-0.118178 -0.051152,-0.164038 -0.051152,-0.04586 -0.1446357,-0.04586 -0.074082,0 -0.141108,0.02293 -0.067026,0.02117 -0.1252333,0.04939 l -0.047624,-0.116415 q 0.061735,-0.03351 0.1463996,-0.05644 0.084665,-0.02469 0.176385,-0.02469 z m 0.04586,0.504461 q -0.176385,0.0071 -0.2451752,0.05644 -0.067026,0.04939 -0.067026,0.139344 0,0.07937 0.047624,0.116414 0.049388,0.03704 0.1252333,0.03704 0.1199418,0 0.1993151,-0.06526 0.079373,-0.06703 0.079373,-0.204606 v -0.08467 z m 1.6227435,-0.506224 q 0.1605103,0 0.2398836,0.0829 0.079373,0.08114 0.079373,0.264578 v 0.615584 H 9.6258756 v -0.608529 q 0,-0.224009 -0.1922597,-0.224009 -0.1375803,0 -0.1975512,0.07937 -0.058207,0.07937 -0.058207,0.231064 v 0.5221 H 9.0244027 V 13.55244 q 0,-0.224009 -0.1940234,-0.224009 -0.1428719,0 -0.1975512,0.08819 -0.054679,0.08819 -0.054679,0.253994 v 0.490351 H 8.4229299 v -0.945424 h 0.1252334 l 0.02293,0.128761 h 0.00882 q 0.044096,-0.07408 0.1181779,-0.109359 0.075846,-0.03704 0.1605104,-0.03704 0.222245,0 0.2892713,0.158746 h 0.00882 q 0.047624,-0.08114 0.128761,-0.119942 0.082901,-0.0388 0.1746212,-0.0388 z m 0.9771714,0 q 0.121705,0 0.208134,0.05292 0.08819,0.05292 0.134052,0.149927 0.04762,0.09525 0.04762,0.224009 v 0.09348 h -0.647333 q 0.0035,0.160511 0.08114,0.245175 0.07937,0.0829 0.220481,0.0829 0.08996,0 0.158746,-0.01587 0.07055,-0.01764 0.144636,-0.04939 v 0.135816 q -0.07232,0.03175 -0.142872,0.04586 -0.07055,0.01587 -0.167566,0.01587 -0.134052,0 -0.238119,-0.05468 -0.102304,-0.05468 -0.160511,-0.162274 -0.05644,-0.109359 -0.05644,-0.266342 0,-0.155219 0.05115,-0.266341 0.05291,-0.111123 0.146399,-0.171094 0.09525,-0.05997 0.220482,-0.05997 z m -0.0018,0.126997 q -0.111123,0 -0.176385,0.07232 -0.0635,0.07055 -0.07585,0.197551 h 0.481531 q -0.0018,-0.119942 -0.05644,-0.194024 -0.05468,-0.07584 -0.172857,-0.07584 z"
       id="text2"
       style="text-align:center;text-anchor:middle;stroke-width:0.140003"
       aria-label="Game" />
  </g>
</svg>
