<?xml version="1.0" encoding="UTF-8" standalone="no"?>
<svg
   width="64"
   height="64"
   version="1.1"
   viewBox="0 0 16.933 16.933"
   id="svg7"
   sodipodi:docname="steam_icon_1086940.svg"
   inkscape:version="1.4 (e7c3feb100, 2024-10-09)"
   xmlns:inkscape="http://www.inkscape.org/namespaces/inkscape"
   xmlns:sodipodi="http://sodipodi.sourceforge.net/DTD/sodipodi-0.dtd"
   xmlns:xlink="http://www.w3.org/1999/xlink"
   xmlns="http://www.w3.org/2000/svg"
   xmlns:svg="http://www.w3.org/2000/svg"
   xmlns:rdf="http://www.w3.org/1999/02/22-rdf-syntax-ns#"
   xmlns:cc="http://creativecommons.org/ns#"
   xmlns:dc="http://purl.org/dc/elements/1.1/">
  <sodipodi:namedview
     id="namedview7"
     pagecolor="#9c4444"
     bordercolor="#000000"
     borderopacity="0.25"
     inkscape:showpageshadow="2"
     inkscape:pageopacity="0.0"
     inkscape:pagecheckerboard="0"
     inkscape:deskcolor="#d1d1d1"
     inkscape:zoom="4.3531261"
     inkscape:cx="35.491735"
     inkscape:cy="39.856415"
     inkscape:window-width="1183"
     inkscape:window-height="973"
     inkscape:window-x="35"
     inkscape:window-y="32"
     inkscape:window-maximized="0"
     inkscape:current-layer="svg7"
     showgrid="false" />
  <defs
     id="defs2">
    <linearGradient
       inkscape:collect="always"
       id="linearGradient1134">
      <stop
         style="stop-color:#161616;stop-opacity:1;"
         offset="0"
         id="stop1130" />
      <stop
         style="stop-color:#404040;stop-opacity:1;"
         offset="1"
         id="stop1132" />
    </linearGradient>
    <linearGradient
       inkscape:collect="always"
       id="linearGradient883">
      <stop
         style="stop-color:#808080;stop-opacity:1;"
         offset="0"
         id="stop879" />
      <stop
         style="stop-color:#3e3e3e;stop-opacity:1;"
         offset="0.5"
         id="stop1216" />
      <stop
         style="stop-color:#242424;stop-opacity:1;"
         offset="1"
         id="stop881" />
    </linearGradient>
    <linearGradient
       inkscape:collect="always"
       xlink:href="#linearGradient883"
       id="linearGradient885"
       x1="2.1085808"
       y1="2.0236168"
       x2="14.846128"
       y2="15.071845"
       gradientUnits="userSpaceOnUse" />
    <linearGradient
       inkscape:collect="always"
       xlink:href="#linearGradient1134"
       id="linearGradient1136"
       x1="14.971222"
       y1="14.703373"
       x2="2.0756054"
       y2="2.0069976"
       gradientUnits="userSpaceOnUse" />
    <filter
       style="color-interpolation-filters:sRGB;"
       inkscape:label="Blur"
       id="filter1283"
       x="-0.082344266"
       y="-0.082344266"
       width="1.1646885"
       height="1.1646885">
      <feGaussianBlur
         stdDeviation="0.5 0.5"
         result="blur"
         id="feGaussianBlur1281" />
    </filter>
    <filter
       style="color-interpolation-filters:sRGB;"
       inkscape:label="Blur"
       id="filter1694"
       x="-0.94955398"
       y="-0.2118907"
       width="2.899108"
       height="1.4237814">
      <feGaussianBlur
         stdDeviation="0.2 0.2"
         result="blur"
         id="feGaussianBlur1692" />
    </filter>
  </defs>
  <metadata
     id="metadata2">
    <rdf:RDF>
      <cc:Work
         rdf:about="">
        <dc:format>image/svg+xml</dc:format>
        <dc:type
           rdf:resource="http://purl.org/dc/dcmitype/StillImage" />
      </cc:Work>
    </rdf:RDF>
  </metadata>
  <rect
     style="fill:#000000;stroke:none;stroke-width:0.539739;stroke-dasharray:none;filter:url(#filter1283)"
     id="rect246-1"
     width="14.572964"
     height="14.572964"
     x="1.1932471"
     y="1.2138842"
     rx="2.1589575"
     ry="2.1589575" />
  <rect
     style="opacity:1;fill:#000000;stroke:url(#linearGradient885);stroke-width:0.52915625;stroke-dasharray:none"
     id="rect246"
     width="14.287219"
     height="14.287219"
     x="1.3361193"
     y="1.3567564"
     rx="2.1166251"
     ry="2.1166251" />
  <rect
     style="fill:url(#linearGradient1136);fill-opacity:1;stroke:none;stroke-width:0.478315;stroke-dasharray:none"
     id="rect246-5"
     width="12.914515"
     height="12.914515"
     x="2.0224717"
     y="2.0431087"
     rx="1.5874687"
     ry="1.5874687" />
  <path
     d="m 10.603609,3.9586084 c -0.04501,-0.0013 -0.09012,0.00465 -0.132057,0.017725 -0.08176,0.025906 -0.16638,0.076751 -0.20752,0.1519604 -0.08347,0.1525998 -0.09112,0.3572499 -0.03259,0.5210245 0.160605,0.4493144 0.625051,0.7265692 0.974712,1.0483294 0.119221,0.1097042 1.243159,0.9049777 0.668293,1.7750111 -0.02175,0.032965 -0.04673,0.063548 -0.07489,0.09198 0.07651,0.1099021 0.149,0.2223045 0.206947,0.3422078 0.02687,-0.020765 0.05274,-0.041792 0.07775,-0.062823 C 12.506259,7.4889934 12.478776,6.7851973 12.30607,6.4306439 12.152759,6.1159052 11.915098,5.8447213 11.668645,5.5959822 11.446242,5.3715024 10.685494,4.93584 10.597892,4.663053 c -0.04151,-0.1292564 -0.07817,-0.3348043 0.03773,-0.405622 0.06192,-0.037833 0.223851,0.0066 0.303561,0.1125452 0.04604,0.0613 0.121427,0.1524287 0.110906,-0.00198 C 11.038747,4.2020874 10.852569,4.017628 10.735664,3.98066 10.693715,3.967412 10.648625,3.959564 10.603607,3.958376 Z m -0.328715,2.204631 c -0.0141,6.3e-4 -0.01957,0.019314 -0.01772,0.064009 0.01538,0.3720827 -0.2634564,0.4784526 -0.3047061,0.4410359 -0.046773,-0.042458 -0.06336,-0.017337 -0.057168,0.033682 0.00819,0.067612 0.0144,0.079678 0.074889,0.1856715 0.010125,0.017725 0.015876,0.057483 -0.012582,0.01372 C 9.7880604,6.6403123 9.8730779,6.429716 9.9295979,6.2866409 9.9619079,6.2048534 9.9241079,6.197036 9.8804309,6.2495312 9.668145,6.5054096 9.4583993,6.7002904 9.2750252,7.0453389 c -0.025991,0.048919 -0.026699,0.0824 0.042305,0.022285 C 9.487615,6.9192821 9.6199985,7.0374989 9.5648741,7.156749 9.4188153,7.4726733 9.1619003,7.5483042 9.0698003,7.5880732 8.7250537,7.7369231 8.6871263,7.7257501 8.5358515,8.3387523 8.4416855,8.7203503 8.5673025,9.6531201 8.682774,10.16119 8.693935,10.2103 8.705907,10.25754 8.718786,10.303447 8.8194776,10.207167 8.9208256,10.104697 9.0509321,10.056074 9.0205819,9.9164076 8.9938802,9.7435105 8.9748971,9.5247656 8.9596788,8.7988085 8.9700452,8.0956901 9.9673313,8.249061 10.74489,8.35694 11.237566,8.2882852 11.583467,8.1502324 11.534251,8.0250284 11.47432,7.9046577 11.405685,7.7886057 10.938917,7.9390559 10.314583,7.8823701 10.080534,7.7537328 9.6607487,7.5230488 9.9869576,7.3590581 10.069097,7.3618194 c 0.199723,0.00674 0.285542,0.1655736 0.299561,0.1999521 0.04112,0.1008716 0.06574,0.068444 0.119482,0.016012 0.375852,-0.3667567 0.246744,-1.0578223 -0.164075,-1.3871026 -0.0221,-0.017725 -0.0382,-0.027949 -0.04917,-0.027426 z m 0.717456,2.329168 c -0.157213,0.00531 -0.337663,0.059199 -0.475636,0.2233802 -0.229593,0.2731612 -0.320985,0.6101271 -0.361873,0.9129297 0.11533,0.043189 0.234494,0.072203 0.356728,0.086269 0.04101,-0.4315942 0.153316,-0.6954893 0.305847,-0.8340924 0.154758,-0.1406298 0.312278,-0.1044325 0.344722,-0.087978 0.05298,0.026835 0.08691,0.1362703 0.08976,0.2102339 0.0077,0.2025877 0.151275,0.1161972 0.177793,-0.034279 0.0134,-0.07601 0.03237,-0.3560184 -0.144064,-0.429038 -0.06266,-0.025903 -0.170993,-0.051484 -0.293271,-0.047397 z m -0.876384,1.6436206 c -0.0043,0.07905 -0.0094,0.146219 -0.01886,0.195955 -0.0799,0.417364 -0.2899228,0.870985 -0.8232164,0.289078 -0.022009,-0.0352 -0.049305,-0.07762 -0.078321,-0.134257 -0.1292701,0.03922 -0.2435506,0.122568 -0.3201398,0.233664 0.079327,0.162487 0.1645607,0.282793 0.2389615,0.354198 0.364234,0.349576 0.7912011,0.266985 0.9987227,0.10169 0.157441,-0.125402 0.3144,-0.330356 0.368733,-0.976913 -0.124169,-0.008 -0.246654,-0.02888 -0.365875,-0.06341 z M 11.35708,4.7892748 c -0.133595,0.00397 -0.283794,0.054381 -0.437333,0.1879526 0.09244,0.080245 0.19418,0.150787 0.294415,0.2222379 0.08389,-0.055174 0.183954,-0.080996 0.297271,-0.068559 0.316312,0.034744 0.426885,0.2374525 0.474495,0.4558934 0.02627,0.1205367 0.119174,0.2115854 0.118909,-0.013122 -2.1e-4,-0.1712812 -0.0049,-0.3683506 -0.293842,-0.6187114 -0.07561,-0.065524 -0.232332,-0.163016 -0.427616,-0.1656783 -0.0087,-1.315e-4 -0.01738,-2.673e-4 -0.02629,0 z m -0.694017,0.4953079 c -0.0096,0.015031 -0.01957,0.029346 -0.02915,0.045158 -0.09515,0.1570105 -0.17278,0.7554574 0.09947,1.3128427 0.126765,0.2595234 0.316493,0.568777 0.565962,0.9169237 0.624872,0.8720376 0.576354,1.7452314 -0.07432,2.0692317 0.05621,0.1200939 0.09537,0.2487308 0.108046,0.3804802 C 11.731819,9.8316357 11.940346,9.5587568 12.04138,9.2653972 12.307482,8.49276 11.964502,7.8731704 11.865305,7.7286077 L 11.221022,6.7899472 C 10.928918,6.3642779 10.869776,5.8813229 10.974629,5.546241 10.869869,5.4599324 10.764192,5.3746826 10.663064,5.284583 Z M 9.1841303,8.6295229 c -0.078655,0.00263 -0.079864,0.031587 -0.1006154,0.07484 -0.068105,0.1420076 -0.075253,0.2946335 -0.080608,0.4421814 -0.00528,0.1453035 0.036057,0.1978368 0.082894,0.2205192 0.073183,0.035462 0.346293,0.302247 0.5596738,0.4804631 0.3732283,0.3117134 0.8492743,0.3484114 1.1965223,0.3022144 0.01772,-0.137292 -0.02789,-0.2752324 -0.09833,-0.395341 -0.01274,0.00126 -0.02532,0.00198 -0.03829,0.00261 C 10.121952,9.791376 9.3656004,9.3568486 9.4482485,8.7629178 9.459143,8.6846799 9.3960521,8.6806809 9.3779324,8.6669448 9.3326283,8.6326314 9.275144,8.6326314 9.2230115,8.6298685 9.2083389,8.6292386 9.1953737,8.6292386 9.1841339,8.629372 Z M 5.5322491,4.7892748 C 5.3369651,4.7919022 5.1802354,4.8894409 5.1046308,4.9549532 4.8156712,5.2053134 4.8115637,5.4023826 4.8113606,5.5736641 4.8111122,5.7983879 4.9034277,5.7073382 4.9296984,5.5867841 4.9772993,5.3683431 5.0884537,5.1656045 5.4047646,5.1308908 5.9901161,5.066618 6.2219911,6.0213934 5.6946055,6.7899286 L 5.1726613,7.5503234 c 0.090548,0.08666 0.2039013,0.148526 0.3224271,0.191955 C 5.5322503,7.6814339 5.5725595,7.6204823 5.6162851,7.5594668 5.8657543,7.2113202 6.0554809,6.9020663 6.1822467,6.642543 6.4544964,6.0851585 6.3768639,5.4867105 6.2817189,5.3297009 6.0242644,4.9048348 5.7535688,4.786237 5.5322491,4.789256 Z M 4.9285552,7.9542511 C 4.806946,8.2316518 4.6825949,8.7089002 4.8742438,9.2653738 c 0.1196288,0.3473443 0.3901057,0.6661016 0.9484143,0.8318072 0.1489897,0.04423 0.3615364,0.07825 0.5934026,0.06627 -0.00935,-0.136516 -0.012477,-0.2737614 -0.022874,-0.4101924 -0.062011,0.00594 -0.1234469,0.00756 -0.1829367,0.00396 C 5.3083397,9.7040618 4.9779257,8.9969394 5.2869885,8.1655743 5.15965,8.1090798 5.0400153,8.0375097 4.9285462,7.9541926 Z M 7.7314957,8.629523 c -0.011243,-3.054e-4 -0.0242,-2.1e-4 -0.038881,4.965e-4 -0.052137,0.00263 -0.1096196,0.00263 -0.1549247,0.037106 -0.018121,0.01372 -0.081205,0.017729 -0.070316,0.095974 0.054751,0.3934148 -0.2586188,0.7167749 -0.6459981,0.8803636 0.01823,0.1446303 0.027582,0.2901693 0.034874,0.4359029 C 7.0001066,10.029461 7.1413183,9.9550176 7.2701457,9.8474226 7.4835264,9.6692059 7.7566343,9.4024111 7.8298186,9.366959 7.8766666,9.3442871 7.9179853,9.2917424 7.9127113,9.1464422 7.9073653,8.9988915 7.9002098,8.8462648 7.832105,8.7042589 7.8113504,8.6610146 7.8101605,8.6318181 7.7314907,8.6294189 Z M 9.5694422,8.2787469 c -0.1257444,0.00263 -0.2484215,0.040803 -0.361873,0.1833841 -0.030857,0.038822 -0.088666,0.095572 0.017151,0.1079792 0.2665449,0.031252 0.3444896,0.083184 0.4533402,0.1628154 0.1857292,0.1358694 0.3782396,0.2666892 0.5551016,0.4090454 0.04954,-0.1350791 0.116852,-0.2635978 0.20123,-0.3799081 -0.08651,-0.07499 -0.202146,-0.1714992 -0.383025,-0.3216405 -0.0079,-0.0066 -0.01613,-0.0414 -0.01428,-0.061699 0.0046,-0.051419 -0.01887,-0.071389 -0.087462,-0.070836 -0.125873,0.00131 -0.2544228,-0.03184 -0.380167,-0.029137 z m 1.1627938,0.764962 c -0.07834,0.1319006 -0.120611,0.2805324 -0.150351,0.4307607 0.0075,0.00883 0.01503,0.017869 0.02228,0.026835 0.203993,0.2523827 0.463225,0.6085914 0.0869,0.9797714 -0.06899,0.06806 -0.149668,0.09605 -0.232674,0.09826 -1.1e-5,4e-5 -4.96e-4,-3.2e-5 -4.96e-4,0 -0.02938,0.126363 -0.06967,0.249457 -0.127486,0.364488 0.288685,0.07566 0.56482,0.03599 0.770624,-0.263367 0.286721,-0.417052 0.325308,-0.9348451 -0.304705,-1.5722076 -0.02585,-0.026163 -0.04257,-0.042914 -0.06403,-0.064533 z M 9.2418706,10.058901 c -0.2681209,6.5e-4 -0.4028252,0.190894 -0.530518,0.302218 -0.1830947,0.159622 -0.2278771,0.488665 -0.1326307,0.752967 0.032126,0.08914 0.1023691,0.326427 0.3178548,0.355345 0.1807206,0.02426 0.2708109,0.0094 0.1211951,-0.09083 -0.1008434,-0.06755 -0.1496536,-0.148857 -0.1943711,-0.216529 -0.1343952,-0.203373 -0.00607,-0.481063 0.1360602,-0.589576 0.4354101,-0.332306 0.6432933,0.02762 0.9101124,0.175396 0.00774,0.0046 0.015633,0.0083 0.023445,0.01258 0.075375,-0.09785 0.1199947,-0.214861 0.1474897,-0.336492 -0.0069,-0.0053 -0.01399,-0.0099 -0.02057,-0.01484 C 9.6713144,10.146428 9.4253215,10.058399 9.2418703,10.058939 Z M 7.3599051,8.2787469 C 7.2341603,8.2761169 7.1050398,8.3088679 6.979166,8.3078849 6.910584,8.3073882 6.887051,8.3273309 6.891699,8.3787219 6.893549,8.3990289 6.885369,8.4338339 6.877413,8.4404209 6.3843043,8.8497284 6.3715466,8.8664468 6.1325171,9.1082628 5.9557376,9.287106 5.8314195,9.4562915 5.7506349,9.6167163 5.8819303,9.6737403 6.0231755,9.7043834 6.1662453,9.7178391 6.2146541,9.6396498 6.2715089,9.5670058 6.3245998,9.5013137 6.5706666,9.1968817 6.9217092,8.9736057 7.2507189,8.7329239 7.3595714,8.6532912 7.437515,8.6013464 7.7040597,8.5701066 7.8098771,8.5577209 7.7520717,8.5009215 7.7212167,8.4621283 7.6077659,8.3195353 7.48566,8.2814657 7.3599167,8.2787429 Z m 0.3207104,1.7807261 c -0.1827444,0.0013 -0.4271024,0.0899 -0.7717662,0.349633 -0.1700417,0.128141 -0.4699512,0.27043 -0.6711501,0.07198 -0.1016563,-0.10026 -0.1564143,-0.199601 -0.1789341,-0.295931 -0.1473327,-0.02123 -0.2912102,-0.06124 -0.4293325,-0.116541 -0.00606,0.224617 0.071977,0.428003 0.1983719,0.611855 0.3148303,0.457937 0.7943054,0.309504 1.2313974,0.06742 0.2110517,-0.116897 0.3851807,-0.365795 0.6642898,-0.300506 0.054869,-0.115896 0.091981,-0.238639 0.1206242,-0.363342 -0.048725,-0.01589 -0.1025844,-0.02499 -0.1635004,-0.02458 z m 0.5556716,0.318787 c -0.037047,0.121228 -0.082123,0.240103 -0.1372022,0.354205 0.068829,0.128987 0.0951,0.295219 0.00627,0.429606 -0.044714,0.06767 -0.093527,0.148966 -0.1943695,0.216529 -0.149618,0.100232 -0.059526,0.115084 0.121195,0.09083 0.215483,-0.02894 0.2857306,-0.266207 0.3178533,-0.355345 0.091952,-0.255158 0.053749,-0.570683 -0.1137639,-0.735826 z M 6.3348847,3.9626032 c -0.045016,0.0013 -0.090108,0.00903 -0.1320584,0.022285 -0.1169052,0.036984 -0.3030992,0.2214271 -0.3144219,0.3873359 -0.010527,0.1541429 0.064299,0.06302 0.1103335,0.00195 0.07971,-0.1060949 0.2416277,-0.1503934 0.3035612,-0.1125487 0.1158932,0.070816 0.079241,0.2763657 0.037734,0.4056248 -0.029882,0.093041 -0.138834,0.2050542 -0.2772636,0.3210602 0.078442,0.076705 0.1461333,0.1637335 0.2069475,0.2553702 C 6.4582575,5.0728359 6.6237415,4.886043 6.7070511,4.6529678 6.7655892,4.4891947 6.7579363,4.2851172 6.674465,4.1325173 6.633326,4.0573083 6.5487016,4.0064835 6.4669475,3.9805512 6.4250075,3.9672366 6.3799067,3.9616341 6.3348887,3.9628122 Z M 5.7151865,5.2537315 C 5.5321488,5.3865547 5.357945,5.5098729 5.2692758,5.5993739 5.0228236,5.848112 4.7851624,6.1198692 4.6318538,6.4346016 4.4591478,6.7891618 4.4322347,7.4929581 4.8542369,7.8479869 5.205151,8.1432196 5.7185355,8.4261764 6.9705916,8.252469 7.9678976,8.0990916 7.9788143,8.8027767 7.9635962,9.5287387 7.8994766,10.267811 7.7463533,10.493483 7.6640375,10.62506 7.3582281,10.958744 7.1590937,10.951488 7.029473,10.806157 c -0.1236246,0.06552 -0.2518395,0.124136 -0.3858828,0.163393 0.056171,0.09802 0.1190707,0.160279 0.1817944,0.210233 0.2075212,0.165296 0.634489,0.248462 0.9987232,-0.101115 C 7.9677975,10.940755 8.1514113,10.621633 8.2551531,10.165167 8.370623,9.6570948 8.4968125,8.724325 8.4026458,8.3427284 8.2513714,7.7297178 8.2134444,7.7403244 7.8686967,7.591475 7.7765978,7.5517223 7.5196824,7.4766483 7.3736243,7.1607175 c -0.055121,-0.1192374 0.07726,-0.2374596 0.2475363,-0.089118 0.069004,0.06012 0.067727,0.026635 0.041742,-0.022285 -0.1833732,-0.3450478 -0.392548,-0.540503 -0.6048358,-0.7963802 -0.043529,-0.052475 -0.082042,-0.044624 -0.04974,0.03711 0.056512,0.1430739 0.1415326,0.3536709 -0.028005,0.61471 -0.028444,0.043845 -0.022701,0.00389 -0.012576,-0.013718 0.060483,-0.1059942 0.067263,-0.1180571 0.075463,-0.1856722 0.00613,-0.05102 -0.01096,-0.075552 -0.05774,-0.033155 C 6.9442218,6.7096531 6.6659518,6.6026911 6.681336,6.2306073 6.684546,6.1511723 6.664976,6.1541123 6.61445,6.1946093 6.203633,6.5238908 6.0745242,7.2149555 6.4503782,7.5817186 c 0.053744,0.052475 0.078359,0.084874 0.1194805,-0.016013 0.014012,-0.034409 0.099839,-0.1937931 0.2995607,-0.200524 0.082142,-0.0026 0.4077786,0.1618029 -0.012005,0.3924854 C 6.5235396,7.9411308 5.3954084,7.9789354 5.0634841,7.4765876 4.488617,6.606547 5.6125542,5.8112789 5.7317772,5.7015673 5.7871317,5.6506122 5.8455227,5.6009134 5.9049954,5.5513212 5.8665768,5.4376933 5.8071401,5.3298808 5.7151968,5.2536697 Z m 0.2109474,3.2421046 c -0.010776,-7.21e-5 -0.021517,2.29e-4 -0.032011,5.538e-4 -0.1007538,0.00321 -0.1875335,0.025181 -0.2412487,0.047397 -0.1764476,0.073028 -0.1580282,0.3530388 -0.1446337,0.4290386 0.026517,0.1504773 0.1705718,0.2368727 0.1783636,0.034279 0.00283,-0.073961 0.03621,-0.1839379 0.089183,-0.2108008 0.032435,-0.016492 0.1905367,-0.052674 0.3452931,0.087978 0.030073,0.027289 0.058489,0.059729 0.08518,0.097115 C 6.2847888,8.9031333 6.3648867,8.8265203 6.4486512,8.7534542 6.4396019,8.7419198 6.4307275,8.730515 6.4212165,8.719175 6.2774941,8.5481784 6.0876871,8.4969646 5.9261435,8.4957973 Z M 6.6841802,9.197963 C 6.5800969,9.2840642 6.482411,9.3757127 6.3931954,9.4767553 c 3.72e-5,1.855e-4 -3.65e-5,3.823e-4 0,5.541e-4 0.024755,0.1324555 0.041207,0.285965 0.047453,0.4621769 0.0088,0.2483627 0.029667,0.4445877 0.059454,0.6021387 0.1277884,-0.0074 0.2499874,-0.06621 0.3550135,-0.139395 -0.005,-0.02235 -0.010021,-0.04457 -0.014299,-0.06683 C 6.8021927,10.133679 6.8396012,9.6539219 6.6841751,9.1979476 Z M 8.3106047,3.569557 C 8.2873217,3.5698299 8.2638515,3.573481 8.241428,3.577531 7.8989787,3.6384408 7.5735636,3.7901842 7.2718616,3.963153 7.1191267,4.050722 7.078178,4.0877296 7.0037438,4.2528022 6.8411963,4.6132899 6.7065999,5.0667177 6.612145,5.3725375 6.561462,5.5366397 6.596796,5.5649268 6.648734,5.6336227 c 0.5480099,0.7248504 1.245967,1.5158196 1.6138473,2.1452162 0.034554,0.059126 0.07961,0.1705834 0.1913173,-0.03764 0.012279,-0.028937 0.014873,-0.020364 0.026615,0.00198 0.110928,0.2055093 0.1558031,0.094564 0.190246,0.035658 0.3678809,-0.6293971 1.065839,-1.4203666 1.6138484,-2.145217 0.05194,-0.068698 0.08727,-0.096983 0.03658,-0.261085 C 10.22674,5.0667121 10.092142,4.6132832 9.9295943,4.2527969 9.8551589,4.087724 9.8142099,4.0507172 9.6614766,3.9631473 9.3597743,3.7901784 9.0343592,3.6384093 8.6919092,3.5775247 c -0.044827,-0.00797 -0.094626,-0.014102 -0.1366305,0.00338 -0.026438,0.011076 -0.04507,0.040281 -0.072679,0.050824 -0.00919,0.00338 -0.019769,0.00594 -0.029298,0.00338 -0.029967,-0.00771 -0.047487,-0.042781 -0.075245,-0.054381 -0.021009,-0.00877 -0.044178,-0.011737 -0.06746,-0.011399 z"
     id="path339"
     style="fill:#999999;fill-opacity:1;stroke:none;stroke-width:0.231049;stroke-dasharray:none;stroke-opacity:0.3" />
  <g
     aria-label="Krita"
     id="text1450"
     style="font-size:1.76385px;opacity:1;fill:#ff00ff;stroke-width:0.529156">
    <rect
       style="font-size:1.76385px;fill:#ff00ff;fill-opacity:1;stroke:none;stroke-width:0.519976;stroke-dasharray:none;filter:url(#filter1694)"
       id="rect1656-7"
       width="0.5055005"
       height="2.2653189"
       x="15.369148"
       y="4.3016486"
       rx="0"
       ry="0" />
    <rect
       style="opacity:1;fill:#ff00ff;fill-opacity:1;stroke:none;stroke-width:0.519976;stroke-dasharray:none"
       id="rect1656"
       width="0.5055005"
       height="2.2653189"
       x="15.369148"
       y="4.3016486"
       rx="0"
       ry="0" />
  </g>
  <g
     aria-label="Steam"
     id="text2284"
     style="font-size:1.76385px;opacity:1;fill:#999999;stroke-width:0.529156">
    <path
       d="m 6.7172843,13.496001 h 0.4356709 v 0.617348 q -0.1023033,0.03351 -0.2063705,0.04939 -0.1040671,0.01587 -0.2363558,0.01587 -0.1957874,0 -0.32984,-0.07761 -0.1340526,-0.07937 -0.2046066,-0.224009 -0.06879,-0.1464 -0.06879,-0.345715 0,-0.197551 0.077609,-0.342187 0.077609,-0.144635 0.2222451,-0.224009 0.1463995,-0.08114 0.35277,-0.08114 0.105831,0 0.199315,0.0194 0.095248,0.0194 0.176385,0.05468 l -0.059971,0.13758 q -0.067026,-0.02998 -0.1516911,-0.05115 -0.082901,-0.02117 -0.1728573,-0.02117 -0.2257728,0 -0.35277,0.135817 -0.1252333,0.135816 -0.1252333,0.372172 0,0.149927 0.047624,0.266342 0.049388,0.11465 0.153455,0.179912 0.1040671,0.0635 0.2733967,0.0635 0.082901,0 0.141108,-0.0088 0.058207,-0.0088 0.105831,-0.02117 V 13.637109 H 6.7172843 Z m 1.0741858,-0.296327 q 0.1728573,0 0.2557582,0.07585 0.082901,0.07584 0.082901,0.241647 v 0.643806 H 8.0172429 L 7.9872574,14.02692 h -0.00706 q -0.061735,0.07761 -0.1305249,0.11465 -0.067026,0.03704 -0.1869681,0.03704 -0.128761,0 -0.2134258,-0.06703 -0.084665,-0.06879 -0.084665,-0.213426 0,-0.141108 0.1111225,-0.216954 0.1111226,-0.07761 0.3421869,-0.08466 l 0.1605104,-0.0053 V 13.5348 q 0,-0.118178 -0.051152,-0.164038 -0.051152,-0.04586 -0.1446357,-0.04586 -0.074082,0 -0.141108,0.02293 -0.067026,0.02117 -0.1252333,0.04939 l -0.047624,-0.116415 q 0.061735,-0.03351 0.1463996,-0.05644 0.084665,-0.02469 0.176385,-0.02469 z m 0.04586,0.504461 q -0.176385,0.0071 -0.2451752,0.05644 -0.067026,0.04939 -0.067026,0.139344 0,0.07937 0.047624,0.116414 0.049388,0.03704 0.1252333,0.03704 0.1199418,0 0.1993151,-0.06526 0.079373,-0.06703 0.079373,-0.204606 v -0.08467 z m 1.6227435,-0.506224 q 0.1605103,0 0.2398836,0.0829 0.079373,0.08114 0.079373,0.264578 v 0.615584 H 9.6258756 v -0.608529 q 0,-0.224009 -0.1922597,-0.224009 -0.1375803,0 -0.1975512,0.07937 -0.058207,0.07937 -0.058207,0.231064 v 0.5221 H 9.0244027 V 13.55244 q 0,-0.224009 -0.1940234,-0.224009 -0.1428719,0 -0.1975512,0.08819 -0.054679,0.08819 -0.054679,0.253994 v 0.490351 H 8.4229299 v -0.945424 h 0.1252334 l 0.02293,0.128761 h 0.00882 q 0.044096,-0.07408 0.1181779,-0.109359 0.075846,-0.03704 0.1605104,-0.03704 0.222245,0 0.2892713,0.158746 h 0.00882 q 0.047624,-0.08114 0.128761,-0.119942 0.082901,-0.0388 0.1746212,-0.0388 z m 0.9771714,0 q 0.121705,0 0.208134,0.05292 0.08819,0.05292 0.134052,0.149927 0.04762,0.09525 0.04762,0.224009 v 0.09348 h -0.647333 q 0.0035,0.160511 0.08114,0.245175 0.07937,0.0829 0.220481,0.0829 0.08996,0 0.158746,-0.01587 0.07055,-0.01764 0.144636,-0.04939 v 0.135816 q -0.07232,0.03175 -0.142872,0.04586 -0.07055,0.01587 -0.167566,0.01587 -0.134052,0 -0.238119,-0.05468 -0.102304,-0.05468 -0.160511,-0.162274 -0.05644,-0.109359 -0.05644,-0.266342 0,-0.155219 0.05115,-0.266341 0.05291,-0.111123 0.146399,-0.171094 0.09525,-0.05997 0.220482,-0.05997 z m -0.0018,0.126997 q -0.111123,0 -0.176385,0.07232 -0.0635,0.07055 -0.07585,0.197551 h 0.481531 q -0.0018,-0.119942 -0.05644,-0.194024 -0.05468,-0.07584 -0.172857,-0.07584 z"
       id="text2"
       style="text-align:center;text-anchor:middle;stroke-width:0.140003"
       aria-label="Game" />
  </g>
</svg>
