<?xml version="1.0" encoding="UTF-8" standalone="no"?>
<svg
   width="64"
   height="64"
   version="1.1"
   viewBox="0 0 16.933 16.933"
   id="svg7"
   sodipodi:docname="steam_icon_1086940.svg"
   inkscape:version="1.4 (e7c3feb100, 2024-10-09)"
   xmlns:inkscape="http://www.inkscape.org/namespaces/inkscape"
   xmlns:sodipodi="http://sodipodi.sourceforge.net/DTD/sodipodi-0.dtd"
   xmlns:xlink="http://www.w3.org/1999/xlink"
   xmlns="http://www.w3.org/2000/svg"
   xmlns:svg="http://www.w3.org/2000/svg"
   xmlns:rdf="http://www.w3.org/1999/02/22-rdf-syntax-ns#"
   xmlns:cc="http://creativecommons.org/ns#"
   xmlns:dc="http://purl.org/dc/elements/1.1/">
  <sodipodi:namedview
     id="namedview7"
     pagecolor="#9c4444"
     bordercolor="#000000"
     borderopacity="0.25"
     inkscape:showpageshadow="2"
     inkscape:pageopacity="0.0"
     inkscape:pagecheckerboard="0"
     inkscape:deskcolor="#d1d1d1"
     inkscape:zoom="4.3531261"
     inkscape:cx="35.491735"
     inkscape:cy="39.856415"
     inkscape:window-width="1183"
     inkscape:window-height="973"
     inkscape:window-x="35"
     inkscape:window-y="32"
     inkscape:window-maximized="0"
     inkscape:current-layer="svg7"
     showgrid="false" />
  <defs
     id="defs2">
    <linearGradient
       inkscape:collect="always"
       id="linearGradient1134">
      <stop
         style="stop-color:#161616;stop-opacity:1;"
         offset="0"
         id="stop1130" />
      <stop
         style="stop-color:#404040;stop-opacity:1;"
         offset="1"
         id="stop1132" />
    </linearGradient>
    <linearGradient
       inkscape:collect="always"
       id="linearGradient883">
      <stop
         style="stop-color:#808080;stop-opacity:1;"
         offset="0"
         id="stop879" />
      <stop
         style="stop-color:#3e3e3e;stop-opacity:1;"
         offset="0.5"
         id="stop1216" />
      <stop
         style="stop-color:#242424;stop-opacity:1;"
         offset="1"
         id="stop881" />
    </linearGradient>
    <linearGradient
       inkscape:collect="always"
       xlink:href="#linearGradient883"
       id="linearGradient885"
       x1="2.1085808"
       y1="2.0236168"
       x2="14.846128"
       y2="15.071845"
       gradientUnits="userSpaceOnUse" />
    <linearGradient
       inkscape:collect="always"
       xlink:href="#linearGradient1134"
       id="linearGradient1136"
       x1="14.971222"
       y1="14.703373"
       x2="2.0756054"
       y2="2.0069976"
       gradientUnits="userSpaceOnUse" />
    <filter
       style="color-interpolation-filters:sRGB;"
       inkscape:label="Blur"
       id="filter1283"
       x="-0.082344266"
       y="-0.082344266"
       width="1.1646885"
       height="1.1646885">
      <feGaussianBlur
         stdDeviation="0.5 0.5"
         result="blur"
         id="feGaussianBlur1281" />
    </filter>
    <filter
       style="color-interpolation-filters:sRGB;"
       inkscape:label="Blur"
       id="filter1694"
       x="-0.94955398"
       y="-0.2118907"
       width="2.899108"
       height="1.4237814">
      <feGaussianBlur
         stdDeviation="0.2 0.2"
         result="blur"
         id="feGaussianBlur1692" />
    </filter>
  </defs>
  <metadata
     id="metadata2">
    <rdf:RDF>
      <cc:Work
         rdf:about="">
        <dc:format>image/svg+xml</dc:format>
        <dc:type
           rdf:resource="http://purl.org/dc/dcmitype/StillImage" />
      </cc:Work>
    </rdf:RDF>
  </metadata>
  <rect
     style="fill:#000000;stroke:none;stroke-width:0.539739;stroke-dasharray:none;filter:url(#filter1283)"
     id="rect246-1"
     width="14.572964"
     height="14.572964"
     x="1.1932471"
     y="1.2138842"
     rx="2.1589575"
     ry="2.1589575" />
  <rect
     style="opacity:1;fill:#000000;stroke:url(#linearGradient885);stroke-width:0.52915625;stroke-dasharray:none"
     id="rect246"
     width="14.287219"
     height="14.287219"
     x="1.3361193"
     y="1.3567564"
     rx="2.1166251"
     ry="2.1166251" />
  <rect
     style="fill:url(#linearGradient1136);fill-opacity:1;stroke:none;stroke-width:0.478315;stroke-dasharray:none"
     id="rect246-5"
     width="12.914515"
     height="12.914515"
     x="2.0224717"
     y="2.0431087"
     rx="1.5874687"
     ry="1.5874687" />
  <path
     style="fill:#999999;stroke:none;stroke-width:0.0867947;stroke-dasharray:none;stroke-opacity:0.6"
     d="m 7.9149989,11.364618 c -0.1345094,-0.0299 -0.1419276,-0.09046 -0.015251,-0.124542 l 0.037041,-0.01 V 11.10407 10.978025 h 0.6013967 0.6013959 v 0.126045 0.126044 l 0.037041,0.01 c 0.1047692,0.02819 0.1212062,0.07378 0.039478,0.1095 -0.035195,0.01538 -0.072444,0.01637 -0.6604831,0.01761 -0.3427518,7.22e-4 -0.6310296,-4.73e-4 -0.6406171,-0.0026 z m 0.1409797,-0.479492 c -0.00725,-0.0072 -0.00792,-0.290603 -7.363e-4,-0.290603 0.00288,0 0.016585,0.0081 0.030512,0.01804 0.039604,0.0282 0.1782754,0.09052 0.2693533,0.121045 0.165323,0.05541 0.3910588,0.100864 0.5970381,0.120212 0.053258,0.0049 0.069727,0.0096 0.069727,0.01963 0,0.01144 -0.060147,0.01336 -0.4800264,0.01533 -0.2640145,0.0012 -0.4826748,-3.86e-4 -0.485911,-0.0036 z m 0.8482731,-0.17281 C 8.5278133,10.666097 8.2457346,10.562207 8.0914952,10.412978 l -0.041397,-0.04006 V 10.20481 c 0,-0.09246 0.00332,-0.16811 0.00746,-0.16811 0.00409,0 0.044618,0.01957 0.09003,0.04347 0.1862769,0.09807 0.4475627,0.169758 0.7305158,0.200443 0.050334,0.0055 0.1043331,0.01184 0.1199974,0.01417 l 0.02848,0.0043 -0.00238,0.210821 c -0.00199,0.179786 -0.00426,0.211033 -0.015407,0.212261 -0.00718,8.91e-4 -0.054256,-0.0036 -0.1045906,-0.0098 z M 8.8781058,10.14469 C 8.6078365,10.108528 8.3909693,10.044798 8.2386313,9.9567712 8.1686203,9.9163162 8.0630894,9.8338096 8.0552608,9.8134084 c -0.00763,-0.019881 -0.00629,-0.3451822 0.00138,-0.3417826 0.00361,0.00162 0.051664,0.025288 0.1067698,0.05265 0.1153427,0.057267 0.265717,0.1091607 0.4096076,0.1413437 0.087053,0.019472 0.1525872,0.029905 0.4009306,0.063828 l 0.047938,0.00656 0.00237,0.2113613 0.00238,0.2113602 -0.02848,-9.9e-4 c -0.015668,-5.03e-4 -0.069667,-0.0063 -0.1200017,-0.01313 z M 8.8606758,9.5787478 C 8.5269508,9.5328289 8.2741525,9.4400998 8.1120924,9.3041624 l -0.057637,-0.048341 -0.00241,-0.1760877 c -0.00129,-0.096849 -9.09e-4,-0.1760883 9.09e-4,-0.1760883 0.00181,0 0.040127,0.019327 0.085161,0.042946 0.1999533,0.1048829 0.41865,0.1661903 0.7292442,0.2044336 l 0.1544917,0.019019 0.00238,0.2110771 0.00237,0.2110765 -0.041553,-0.00105 C 8.9621725,9.59056 8.9062145,9.5849888 8.8606739,9.5787275 Z M 8.9129718,9.0201585 C 8.6875987,8.9944522 8.4572915,8.9353562 8.309857,8.8653925 8.2225384,8.8239561 8.1215051,8.7560157 8.0817266,8.7119866 L 8.0500961,8.6769784 V 8.5070409 c 0,-0.093464 0.00146,-0.1699347 0.00328,-0.1699347 0.0018,0 0.025639,0.013453 0.052937,0.029887 0.1713769,0.1031974 0.4990568,0.1947912 0.8068696,0.2255359 l 0.1087128,0.010862 0.00237,0.2083604 c 0.00129,0.114597 -6.889e-4,0.2109418 -0.00436,0.2140975 -0.00365,0.00324 -0.051803,5.848e-4 -0.1069306,-0.00559 z M 8.9260452,8.4583734 C 8.5298205,8.4092251 8.2552492,8.3107076 8.0967744,8.1608288 L 8.050095,8.116682 V 7.9479862 c 0,-0.092783 0.00263,-0.1686953 0.00594,-0.1686953 0.00331,0 0.043465,0.019273 0.089339,0.042823 0.1967592,0.1010212 0.4174249,0.1636456 0.6935179,0.1968205 0.062319,0.00749 0.1300446,0.015712 0.1505034,0.018282 l 0.037197,0.00466 -0.00237,0.2108032 c -0.00263,0.2418673 0.00829,0.2189024 -0.098208,0.2056926 z M 8.8737488,7.8875639 C 8.5162578,7.8396004 8.2481705,7.7389227 8.0914986,7.5937989 l -0.041398,-0.03835 V 7.3841027 c 0,-0.09424 0.00113,-0.1713456 0.00258,-0.1713456 0.00138,0 0.047494,0.022767 0.1024116,0.050591 0.1940572,0.098325 0.437659,0.1639783 0.7359886,0.1983536 0.067046,0.00773 0.1248972,0.015897 0.1285592,0.018157 0.00365,0.00228 0.00667,0.098015 0.00667,0.2127813 v 0.2086668 l -0.032685,-0.00103 c -0.017974,-5.614e-4 -0.071904,-0.0063 -0.1198412,-0.012729 z M 8.8563192,7.3209162 C 8.513366,7.2744473 8.2371588,7.1683695 8.0886812,7.0261021 L 8.0500985,6.9891337 V 6.8786913 6.7682484 H 8.538188 9.0262776 v 0.2832663 0.2832669 l -0.041397,-9.9e-4 C 8.9621118,7.3332375 8.9042575,7.3274511 8.8563197,7.3209549 Z M 7.7720231,6.640744 C 7.7318301,6.595084 7.6947731,6.5238812 7.6909561,6.4849816 l -0.00258,-0.026146 h 0.849799 0.8497992 l -0.00258,0.026146 C 9.381554,6.5238832 9.3445109,6.595084 9.3043205,6.6407441 L 9.268811,6.6810875 H 8.5381735 7.8075212 Z M 6.9518956,6.2845161 V 6.1668517 H 8.5381867 10.124477 V 6.2845161 6.4021809 H 8.5381879 6.9518981 Z m -0.149326,0.041015 C 6.7359937,6.2772436 6.5307204,6.1263624 6.3093694,5.9630164 L 6.2725937,5.9358798 6.2725329,5.1427342 6.2724703,4.3495887 6.5746052,4.1273339 C 6.7407791,4.0050934 6.8799216,3.9037712 6.8838106,3.9021734 c 0.0039,-0.00159 0.00707,0.045533 0.00707,0.1047352 V 4.1145493 L 6.6074557,4.2224669 c -0.1558839,0.059354 -0.2822665,0.1090779 -0.280847,0.1104962 0.00135,0.00141 0.126017,-0.030542 0.2768878,-0.071016 0.1508714,-0.040477 0.2772528,-0.073597 0.2808477,-0.073598 0.0036,-2.4e-6 0.00652,0.4294717 0.00652,0.9543855 0,0.5249142 -0.00307,0.9543893 -0.00682,0.9543893 -0.00661,0 -0.1231207,-0.030641 -0.4011151,-0.105486 -0.073368,-0.019754 -0.1348431,-0.034468 -0.1366122,-0.032698 -0.00171,0.00173 0.1200335,0.050182 0.2706717,0.1075875 l 0.2738869,0.104372 v 0.1069254 c 0,0.05881 -0.00154,0.1069254 -0.00331,0.1069254 -0.00189,0 -0.040077,-0.026645 -0.08498,-0.059216 z m 3.3829194,-0.045068 c 0,-0.093944 0.0017,-0.1051731 0.01674,-0.1132473 0.0092,-0.00492 0.110206,-0.044461 0.224433,-0.087849 0.255098,-0.096894 0.314784,-0.1207338 0.303562,-0.1212465 -0.0048,-2.264e-4 -0.126229,0.030968 -0.269856,0.069302 -0.143627,0.038337 -0.264233,0.0697 -0.268013,0.0697 -0.0038,0 -0.0068,-0.429475 -0.0068,-0.9543891 0,-0.5249144 0.003,-0.9543893 0.0068,-0.9543893 0.0037,0 0.124163,0.031429 0.267682,0.069837 0.14352,0.03841 0.264001,0.068807 0.267737,0.067549 0.0037,-0.00126 -0.116721,-0.049223 -0.267683,-0.1065862 L 10.185486,4.1148478 V 4.0070575 c 0,-0.059284 0.0032,-0.1064825 0.0072,-0.1048842 0.004,0.00159 0.143145,0.10292 0.309297,0.2251596 l 0.302098,0.2222555 1.09e-4,0.7918914 1.09e-4,0.7918909 -0.02074,0.016311 c -0.0483,0.037993 -0.590576,0.4350662 -0.594161,0.4350662 -0.0021,0 -0.0039,-0.046928 -0.0039,-0.1042839 z M 6.9518939,5.1427349 V 4.1883457 H 8.5381845 10.124476 V 5.1427349 6.0971242 H 8.5381845 6.9518939 Z m 0,-1.1417811 V 3.8832895 H 8.5381845 10.124476 V 4.0009538 4.1186186 H 8.5381845 6.9518939 Z M 8.0326633,3.756909 V 3.682824 H 8.5381845 9.0437059 V 3.756909 3.830994 H 8.5381845 8.0326633 Z"
     id="path1-7" />
  <g
     aria-label="Krita"
     id="text1450"
     style="font-size:1.76385px;opacity:1;fill:#ff00ff;stroke-width:0.529156">
    <rect
       style="font-size:1.76385px;fill:#ff00ff;fill-opacity:1;stroke:none;stroke-width:0.519976;stroke-dasharray:none;filter:url(#filter1694)"
       id="rect1656-7"
       width="0.5055005"
       height="2.2653189"
       x="15.369148"
       y="4.3016486"
       rx="0"
       ry="0" />
    <rect
       style="opacity:1;fill:#ff00ff;fill-opacity:1;stroke:none;stroke-width:0.519976;stroke-dasharray:none"
       id="rect1656"
       width="0.5055005"
       height="2.2653189"
       x="15.369148"
       y="4.3016486"
       rx="0"
       ry="0" />
  </g>
  <g
     aria-label="Steam"
     id="text2284"
     style="font-size:1.76385px;opacity:1;fill:#999999;stroke-width:0.529156">
    <path
       d="m 6.7172843,13.496001 h 0.4356709 v 0.617348 q -0.1023033,0.03351 -0.2063705,0.04939 -0.1040671,0.01587 -0.2363558,0.01587 -0.1957874,0 -0.32984,-0.07761 -0.1340526,-0.07937 -0.2046066,-0.224009 -0.06879,-0.1464 -0.06879,-0.345715 0,-0.197551 0.077609,-0.342187 0.077609,-0.144635 0.2222451,-0.224009 0.1463995,-0.08114 0.35277,-0.08114 0.105831,0 0.199315,0.0194 0.095248,0.0194 0.176385,0.05468 l -0.059971,0.13758 q -0.067026,-0.02998 -0.1516911,-0.05115 -0.082901,-0.02117 -0.1728573,-0.02117 -0.2257728,0 -0.35277,0.135817 -0.1252333,0.135816 -0.1252333,0.372172 0,0.149927 0.047624,0.266342 0.049388,0.11465 0.153455,0.179912 0.1040671,0.0635 0.2733967,0.0635 0.082901,0 0.141108,-0.0088 0.058207,-0.0088 0.105831,-0.02117 V 13.637109 H 6.7172843 Z m 1.0741858,-0.296327 q 0.1728573,0 0.2557582,0.07585 0.082901,0.07584 0.082901,0.241647 v 0.643806 H 8.0172429 L 7.9872574,14.02692 h -0.00706 q -0.061735,0.07761 -0.1305249,0.11465 -0.067026,0.03704 -0.1869681,0.03704 -0.128761,0 -0.2134258,-0.06703 -0.084665,-0.06879 -0.084665,-0.213426 0,-0.141108 0.1111225,-0.216954 0.1111226,-0.07761 0.3421869,-0.08466 l 0.1605104,-0.0053 V 13.5348 q 0,-0.118178 -0.051152,-0.164038 -0.051152,-0.04586 -0.1446357,-0.04586 -0.074082,0 -0.141108,0.02293 -0.067026,0.02117 -0.1252333,0.04939 l -0.047624,-0.116415 q 0.061735,-0.03351 0.1463996,-0.05644 0.084665,-0.02469 0.176385,-0.02469 z m 0.04586,0.504461 q -0.176385,0.0071 -0.2451752,0.05644 -0.067026,0.04939 -0.067026,0.139344 0,0.07937 0.047624,0.116414 0.049388,0.03704 0.1252333,0.03704 0.1199418,0 0.1993151,-0.06526 0.079373,-0.06703 0.079373,-0.204606 v -0.08467 z m 1.6227435,-0.506224 q 0.1605103,0 0.2398836,0.0829 0.079373,0.08114 0.079373,0.264578 v 0.615584 H 9.6258756 v -0.608529 q 0,-0.224009 -0.1922597,-0.224009 -0.1375803,0 -0.1975512,0.07937 -0.058207,0.07937 -0.058207,0.231064 v 0.5221 H 9.0244027 V 13.55244 q 0,-0.224009 -0.1940234,-0.224009 -0.1428719,0 -0.1975512,0.08819 -0.054679,0.08819 -0.054679,0.253994 v 0.490351 H 8.4229299 v -0.945424 h 0.1252334 l 0.02293,0.128761 h 0.00882 q 0.044096,-0.07408 0.1181779,-0.109359 0.075846,-0.03704 0.1605104,-0.03704 0.222245,0 0.2892713,0.158746 h 0.00882 q 0.047624,-0.08114 0.128761,-0.119942 0.082901,-0.0388 0.1746212,-0.0388 z m 0.9771714,0 q 0.121705,0 0.208134,0.05292 0.08819,0.05292 0.134052,0.149927 0.04762,0.09525 0.04762,0.224009 v 0.09348 h -0.647333 q 0.0035,0.160511 0.08114,0.245175 0.07937,0.0829 0.220481,0.0829 0.08996,0 0.158746,-0.01587 0.07055,-0.01764 0.144636,-0.04939 v 0.135816 q -0.07232,0.03175 -0.142872,0.04586 -0.07055,0.01587 -0.167566,0.01587 -0.134052,0 -0.238119,-0.05468 -0.102304,-0.05468 -0.160511,-0.162274 -0.05644,-0.109359 -0.05644,-0.266342 0,-0.155219 0.05115,-0.266341 0.05291,-0.111123 0.146399,-0.171094 0.09525,-0.05997 0.220482,-0.05997 z m -0.0018,0.126997 q -0.111123,0 -0.176385,0.07232 -0.0635,0.07055 -0.07585,0.197551 h 0.481531 q -0.0018,-0.119942 -0.05644,-0.194024 -0.05468,-0.07584 -0.172857,-0.07584 z"
       id="text2"
       style="text-align:center;text-anchor:middle;stroke-width:0.140003"
       aria-label="Game" />
  </g>
</svg>
