<?xml version="1.0" encoding="UTF-8" standalone="no"?>
<svg
   width="64"
   height="64"
   version="1.1"
   viewBox="0 0 16.933 16.933"
   id="svg7"
   sodipodi:docname="steam.svg"
   inkscape:version="1.4 (e7c3feb100, 2024-10-09)"
   xmlns:inkscape="http://www.inkscape.org/namespaces/inkscape"
   xmlns:sodipodi="http://sodipodi.sourceforge.net/DTD/sodipodi-0.dtd"
   xmlns:xlink="http://www.w3.org/1999/xlink"
   xmlns="http://www.w3.org/2000/svg"
   xmlns:svg="http://www.w3.org/2000/svg"
   xmlns:rdf="http://www.w3.org/1999/02/22-rdf-syntax-ns#"
   xmlns:cc="http://creativecommons.org/ns#"
   xmlns:dc="http://purl.org/dc/elements/1.1/">
  <sodipodi:namedview
     id="namedview7"
     pagecolor="#9c4444"
     bordercolor="#000000"
     borderopacity="0.25"
     inkscape:showpageshadow="2"
     inkscape:pageopacity="0.0"
     inkscape:pagecheckerboard="0"
     inkscape:deskcolor="#d1d1d1"
     inkscape:zoom="6.15625"
     inkscape:cx="15.675127"
     inkscape:cy="27.370558"
     inkscape:window-width="1183"
     inkscape:window-height="973"
     inkscape:window-x="35"
     inkscape:window-y="32"
     inkscape:window-maximized="0"
     inkscape:current-layer="svg7"
     showgrid="false" />
  <defs
     id="defs2">
    <linearGradient
       inkscape:collect="always"
       id="linearGradient1134">
      <stop
         style="stop-color:#161616;stop-opacity:1;"
         offset="0"
         id="stop1130" />
      <stop
         style="stop-color:#404040;stop-opacity:1;"
         offset="1"
         id="stop1132" />
    </linearGradient>
    <linearGradient
       inkscape:collect="always"
       id="linearGradient883">
      <stop
         style="stop-color:#808080;stop-opacity:1;"
         offset="0"
         id="stop879" />
      <stop
         style="stop-color:#3e3e3e;stop-opacity:1;"
         offset="0.5"
         id="stop1216" />
      <stop
         style="stop-color:#242424;stop-opacity:1;"
         offset="1"
         id="stop881" />
    </linearGradient>
    <linearGradient
       inkscape:collect="always"
       xlink:href="#linearGradient883"
       id="linearGradient885"
       x1="2.1085808"
       y1="2.0236168"
       x2="14.846128"
       y2="15.071845"
       gradientUnits="userSpaceOnUse" />
    <linearGradient
       inkscape:collect="always"
       xlink:href="#linearGradient1134"
       id="linearGradient1136"
       x1="14.971222"
       y1="14.703373"
       x2="2.0756054"
       y2="2.0069976"
       gradientUnits="userSpaceOnUse" />
    <filter
       style="color-interpolation-filters:sRGB;"
       inkscape:label="Blur"
       id="filter1283"
       x="-0.082344266"
       y="-0.082344266"
       width="1.1646885"
       height="1.1646885">
      <feGaussianBlur
         stdDeviation="0.5 0.5"
         result="blur"
         id="feGaussianBlur1281" />
    </filter>
    <filter
       style="color-interpolation-filters:sRGB;"
       inkscape:label="Blur"
       id="filter1694"
       x="-0.94955398"
       y="-0.2118907"
       width="2.899108"
       height="1.4237814">
      <feGaussianBlur
         stdDeviation="0.2 0.2"
         result="blur"
         id="feGaussianBlur1692" />
    </filter>
  </defs>
  <metadata
     id="metadata2">
    <rdf:RDF>
      <cc:Work
         rdf:about="">
        <dc:format>image/svg+xml</dc:format>
        <dc:type
           rdf:resource="http://purl.org/dc/dcmitype/StillImage" />
      </cc:Work>
    </rdf:RDF>
  </metadata>
  <rect
     style="fill:#000000;stroke:none;stroke-width:0.539739;stroke-dasharray:none;filter:url(#filter1283)"
     id="rect246-1"
     width="14.572964"
     height="14.572964"
     x="1.1932471"
     y="1.2138842"
     rx="2.1589575"
     ry="2.1589575" />
  <rect
     style="opacity:1;fill:#000000;stroke:url(#linearGradient885);stroke-width:0.52915625;stroke-dasharray:none"
     id="rect246"
     width="14.287219"
     height="14.287219"
     x="1.3361193"
     y="1.3567564"
     rx="2.1166251"
     ry="2.1166251" />
  <rect
     style="fill:url(#linearGradient1136);fill-opacity:1;stroke:none;stroke-width:0.478315;stroke-dasharray:none"
     id="rect246-5"
     width="12.914515"
     height="12.914515"
     x="2.0224717"
     y="2.0431087"
     rx="1.5874687"
     ry="1.5874687" />
  <path
     id="path1"
     style="fill:#999999;fill-opacity:1;stroke:none;stroke-width:0.23352;stroke-dasharray:none;stroke-dashoffset:2.2;stroke-opacity:0.3"
     d="M 10.529439,4.435238 C 10.406703,4.4351866 10.275326,4.484609 10.110902,4.5809496 9.7196316,4.8102021 9.2079231,4.9183212 8.5052106,4.9183212 7.8025663,4.9183212 7.2737876,4.8079018 6.8848471,4.5799718 6.572968,4.3972066 6.3867723,4.3947843 6.1250294,4.5712645 5.453047,5.0241119 4.9466016,6.4760224 4.7980317,8.3733002 4.7089387,9.5110149 4.7921617,10.110824 5.0865082,10.44838 5.2284741,10.611125 5.5769818,10.583534 5.8913111,10.38384 6.1577629,10.21456 6.4752383,9.8410223 6.8545331,9.2504591 7.1972796,8.7168001 7.6118532,8.5410358 8.5286803,8.5395333 c 0.9150026,-0.00144 1.2745895,0.1716947 1.6966377,0.820449 0.708098,1.0884507 1.362602,1.4673847 1.746511,1.0111357 0.212682,-0.252756 0.25161,-0.4969631 0.241537,-1.5137692 C 12.195012,7.0102625 11.712189,5.3299352 11.01643,4.6886061 10.831129,4.5178007 10.687256,4.4353984 10.529439,4.435332 Z M 6.5543215,5.5236281 h 0.4244038 0.4244038 v 0.3637752 0.363776 H 7.7669047 8.1306792 V 6.7058982 7.160616 H 7.7669047 7.4031291 V 7.5547049 7.9487947 H 7.01882 c -0.211131,0 -0.4012024,-0.018925 -0.423428,-0.041065 C 6.573177,7.8855147 6.554326,7.7090827 6.554326,7.5146194 V 7.160616 H 6.1905463 5.8267704 V 6.7058982 6.2511793 h 0.3637759 0.3637752 v -0.363776 z m 3.4597725,0 c 0.382869,0 0.546834,0.4242097 0.270876,0.7001706 C 10.10947,6.3992776 9.9493011,6.4130713 9.7764677,6.2668304 9.4766827,6.0131627 9.633159,5.5236349 10.014094,5.5236349 Z m -0.73635,0.7774225 c 0.095602,6.63e-5 0.1918615,0.038172 0.2679405,0.1222277 0.1185948,0.1310468 0.1314048,0.4310799 0.024453,0.5710886 -0.2093108,0.2740139 -0.7119037,0.097761 -0.7119037,-0.2493613 0,-0.2634515 0.2091867,-0.4441062 0.4195141,-0.4439625 z m 1.503016,0.014765 c 0.110203,0.00208 0.217176,0.038508 0.279676,0.1075618 0.11859,0.1310473 0.1314,0.4310783 0.02444,0.5710887 -0.222632,0.2914495 -0.711903,0.096378 -0.711903,-0.2835889 0,-0.1151705 0.04615,-0.2400046 0.110497,-0.298256 0.07356,-0.066575 0.187098,-0.09882 0.29728,-0.096812 z m -0.740263,0.7842653 c 0.339433,0 0.504591,0.3600403 0.299233,0.6532309 -0.07021,0.10022 -0.155817,0.1349456 -0.332482,0.1349456 -0.2033966,0 -0.2505945,-0.026473 -0.3324806,-0.1848284 C 9.5133099,7.3911991 9.6895297,7.1000711 10.040497,7.1000711 Z" />
  <g
     aria-label="Krita"
     id="text1450"
     style="font-size:1.76385px;opacity:1;fill:#ff00ff;stroke-width:0.529156">
    <rect
       style="font-size:1.76385px;fill:#ff00ff;fill-opacity:1;stroke:none;stroke-width:0.519976;stroke-dasharray:none;filter:url(#filter1694)"
       id="rect1656-7"
       width="0.5055005"
       height="2.2653189"
       x="15.369148"
       y="4.3016486"
       rx="0"
       ry="0" />
    <rect
       style="opacity:1;fill:#ff00ff;fill-opacity:1;stroke:none;stroke-width:0.519976;stroke-dasharray:none"
       id="rect1656"
       width="0.5055005"
       height="2.2653189"
       x="15.369148"
       y="4.3016486"
       rx="0"
       ry="0" />
  </g>
  <g
     aria-label="Steam"
     id="text2284"
     style="font-size:1.76385px;opacity:1;fill:#999999;stroke-width:0.529156">
    <path
       d="m 6.9850377,13.842122 q 0,0.167565 -0.1217056,0.26105 -0.1217057,0.09348 -0.3280761,0.09348 -0.105831,0 -0.1957874,-0.01588 -0.089956,-0.01587 -0.1499272,-0.0441 v -0.151691 q 0.063499,0.02822 0.1569826,0.05115 0.095248,0.02293 0.1957874,0.02293 0.141108,0 0.211662,-0.05468 0.072318,-0.05468 0.072318,-0.148163 0,-0.06173 -0.026458,-0.104068 -0.026458,-0.04233 -0.09172,-0.07761 -0.063499,-0.03704 -0.1781489,-0.07761 Q 6.3694541,13.53874 6.2865531,13.454075 6.205416,13.36941 6.205416,13.22301 q 0,-0.100539 0.051152,-0.171093 0.051152,-0.07232 0.141108,-0.111123 0.09172,-0.0388 0.2098981,-0.0388 0.1040672,0 0.1904958,0.0194 0.086429,0.0194 0.1569827,0.05115 l -0.049388,0.135816 q -0.065263,-0.02822 -0.1428719,-0.04762 -0.075845,-0.0194 -0.1587465,-0.0194 -0.1181779,0 -0.1781488,0.05115 -0.059971,0.04939 -0.059971,0.132289 0,0.0635 0.026458,0.105831 0.026458,0.04233 0.086429,0.07585 0.059971,0.03351 0.1622742,0.07232 0.1111225,0.04057 0.1869681,0.08819 0.077609,0.04586 0.1164141,0.111123 0.040569,0.06526 0.040569,0.164038 z"
       style="text-align:center;text-anchor:middle"
       id="path644" />
    <path
       d="m 7.5335947,14.069658 q 0.035277,0 0.072318,-0.0053 0.037041,-0.0071 0.059971,-0.01411 v 0.118178 q -0.024694,0.01235 -0.070554,0.0194 -0.04586,0.0088 -0.088192,0.0088 -0.074082,0 -0.1375803,-0.02469 -0.061735,-0.02646 -0.1005394,-0.08996 -0.038805,-0.0635 -0.038805,-0.178149 V 13.353535 H 7.0961599 v -0.07408 l 0.1358164,-0.06173 0.061735,-0.201079 h 0.09172 v 0.216953 H 7.658828 v 0.119942 H 7.3854313 v 0.546794 q 0,0.08643 0.040569,0.128761 0.042332,0.04057 0.1075949,0.04057 z"
       style="text-align:center;text-anchor:middle"
       id="path646" />
    <path
       d="m 8.2197325,13.215955 q 0.1217056,0 0.2081343,0.05292 0.088192,0.05292 0.1340526,0.149928 0.047624,0.09525 0.047624,0.224009 v 0.09348 H 7.9622104 q 0.00353,0.16051 0.081137,0.245175 0.079373,0.0829 0.2204812,0.0829 0.089956,0 0.1587465,-0.01588 0.070554,-0.01764 0.1446357,-0.04939 v 0.135817 q -0.072318,0.03175 -0.1428718,0.04586 -0.070554,0.01588 -0.1675658,0.01588 -0.1340526,0 -0.2381197,-0.05468 Q 7.9163503,14.087297 7.8581432,13.979702 7.8017,13.870343 7.8017,13.713361 q 0,-0.155219 0.051152,-0.266342 0.052915,-0.111122 0.1463995,-0.171093 0.095248,-0.05997 0.2204813,-0.05997 z m -0.00176,0.126997 q -0.1111225,0 -0.176385,0.07232 -0.063499,0.07055 -0.075845,0.197551 h 0.481531 q -0.00176,-0.119942 -0.056443,-0.194023 -0.054679,-0.07585 -0.1728573,-0.07585 z"
       style="text-align:center;text-anchor:middle"
       id="path648" />
    <path
       d="m 9.2074869,13.217719 q 0.1728573,0 0.2557583,0.07584 0.082901,0.07585 0.082901,0.241648 v 0.643805 H 9.4332597 l -0.029985,-0.134053 h -0.00706 q -0.061735,0.07761 -0.1305249,0.114651 -0.067026,0.03704 -0.1869681,0.03704 -0.1287611,0 -0.2134259,-0.06703 -0.084665,-0.06879 -0.084665,-0.213426 0,-0.141108 0.1111226,-0.216953 0.1111225,-0.07761 0.3421869,-0.08466 l 0.1605103,-0.0053 v -0.05644 q 0,-0.118178 -0.051152,-0.164038 -0.051152,-0.04586 -0.1446357,-0.04586 -0.074082,0 -0.141108,0.02293 -0.067026,0.02117 -0.1252334,0.04939 l -0.047624,-0.116414 q 0.061735,-0.03351 0.1463995,-0.05644 0.084665,-0.02469 0.176385,-0.02469 z m 0.04586,0.504461 q -0.176385,0.0071 -0.2451751,0.05644 -0.067026,0.04939 -0.067026,0.139344 0,0.07937 0.047624,0.116414 0.049388,0.03704 0.1252334,0.03704 0.1199418,0 0.199315,-0.06526 0.079373,-0.06703 0.079373,-0.204607 v -0.08466 z"
       style="text-align:center;text-anchor:middle"
       id="path650" />
    <path
       d="m 10.87609,13.215955 q 0.160511,0 0.239884,0.0829 0.07937,0.08114 0.07937,0.264577 v 0.615584 h -0.153455 v -0.608528 q 0,-0.224009 -0.192259,-0.224009 -0.137581,0 -0.197552,0.07937 -0.05821,0.07937 -0.05821,0.231064 v 0.5221 H 10.44042 v -0.608528 q 0,-0.224009 -0.194024,-0.224009 -0.142872,0 -0.197551,0.08819 -0.05468,0.08819 -0.05468,0.253995 v 0.49035 H 9.8389467 V 13.233593 H 9.96418 l 0.02293,0.128762 h 0.00882 q 0.044097,-0.07408 0.1181777,-0.109359 0.07585,-0.03704 0.160511,-0.03704 0.222245,0 0.289271,0.158746 h 0.0088 q 0.04762,-0.08114 0.128761,-0.119941 0.0829,-0.0388 0.174621,-0.0388 z"
       style="text-align:center;text-anchor:middle"
       id="path652" />
  </g>
</svg>
