<?xml version="1.0" encoding="UTF-8" standalone="no"?>
<svg
   width="64"
   height="64"
   version="1.1"
   viewBox="0 0 16.933 16.933"
   id="svg7"
   sodipodi:docname="steam_icon_1604030.svg"
   inkscape:version="1.4 (e7c3feb100, 2024-10-09)"
   xmlns:inkscape="http://www.inkscape.org/namespaces/inkscape"
   xmlns:sodipodi="http://sodipodi.sourceforge.net/DTD/sodipodi-0.dtd"
   xmlns:xlink="http://www.w3.org/1999/xlink"
   xmlns="http://www.w3.org/2000/svg"
   xmlns:svg="http://www.w3.org/2000/svg"
   xmlns:rdf="http://www.w3.org/1999/02/22-rdf-syntax-ns#"
   xmlns:cc="http://creativecommons.org/ns#"
   xmlns:dc="http://purl.org/dc/elements/1.1/">
  <sodipodi:namedview
     id="namedview7"
     pagecolor="#9c4444"
     bordercolor="#000000"
     borderopacity="0.25"
     inkscape:showpageshadow="2"
     inkscape:pageopacity="0.0"
     inkscape:pagecheckerboard="0"
     inkscape:deskcolor="#d1d1d1"
     inkscape:zoom="4.3531261"
     inkscape:cx="38.248375"
     inkscape:cy="38.248375"
     inkscape:window-width="1183"
     inkscape:window-height="940"
     inkscape:window-x="35"
     inkscape:window-y="32"
     inkscape:window-maximized="0"
     inkscape:current-layer="svg7"
     showgrid="false" />
  <defs
     id="defs2">
    <linearGradient
       inkscape:collect="always"
       id="linearGradient1134">
      <stop
         style="stop-color:#161616;stop-opacity:1;"
         offset="0"
         id="stop1130" />
      <stop
         style="stop-color:#404040;stop-opacity:1;"
         offset="1"
         id="stop1132" />
    </linearGradient>
    <linearGradient
       inkscape:collect="always"
       id="linearGradient883">
      <stop
         style="stop-color:#808080;stop-opacity:1;"
         offset="0"
         id="stop879" />
      <stop
         style="stop-color:#3e3e3e;stop-opacity:1;"
         offset="0.5"
         id="stop1216" />
      <stop
         style="stop-color:#242424;stop-opacity:1;"
         offset="1"
         id="stop881" />
    </linearGradient>
    <linearGradient
       inkscape:collect="always"
       xlink:href="#linearGradient883"
       id="linearGradient885"
       x1="2.1085808"
       y1="2.0236168"
       x2="14.846128"
       y2="15.071845"
       gradientUnits="userSpaceOnUse" />
    <linearGradient
       inkscape:collect="always"
       xlink:href="#linearGradient1134"
       id="linearGradient1136"
       x1="14.971222"
       y1="14.703373"
       x2="2.0756054"
       y2="2.0069976"
       gradientUnits="userSpaceOnUse" />
    <filter
       style="color-interpolation-filters:sRGB;"
       inkscape:label="Blur"
       id="filter1283"
       x="-0.082344266"
       y="-0.082344266"
       width="1.1646885"
       height="1.1646885">
      <feGaussianBlur
         stdDeviation="0.5 0.5"
         result="blur"
         id="feGaussianBlur1281" />
    </filter>
    <filter
       style="color-interpolation-filters:sRGB;"
       inkscape:label="Blur"
       id="filter1694"
       x="-0.94955398"
       y="-0.2118907"
       width="2.899108"
       height="1.4237814">
      <feGaussianBlur
         stdDeviation="0.2 0.2"
         result="blur"
         id="feGaussianBlur1692" />
    </filter>
  </defs>
  <metadata
     id="metadata2">
    <rdf:RDF>
      <cc:Work
         rdf:about="">
        <dc:format>image/svg+xml</dc:format>
        <dc:type
           rdf:resource="http://purl.org/dc/dcmitype/StillImage" />
      </cc:Work>
    </rdf:RDF>
  </metadata>
  <rect
     style="fill:#000000;stroke:none;stroke-width:0.539739;stroke-dasharray:none;filter:url(#filter1283)"
     id="rect246-1"
     width="14.572964"
     height="14.572964"
     x="1.1932471"
     y="1.2138842"
     rx="2.1589575"
     ry="2.1589575" />
  <rect
     style="opacity:1;fill:#000000;stroke:url(#linearGradient885);stroke-width:0.52915625;stroke-dasharray:none"
     id="rect246"
     width="14.287219"
     height="14.287219"
     x="1.3361193"
     y="1.3567564"
     rx="2.1166251"
     ry="2.1166251" />
  <rect
     style="fill:url(#linearGradient1136);fill-opacity:1;stroke:none;stroke-width:0.478315;stroke-dasharray:none"
     id="rect246-5"
     width="12.914515"
     height="12.914515"
     x="2.0224717"
     y="2.0431087"
     rx="1.5874687"
     ry="1.5874687" />
  <path
     style="fill:#999999;stroke-width:0.0922518"
     d="M 8.3318392,11.896678 C 8.1596233,11.817596 8.1210598,11.759483 8.024006,11.432787 7.896461,11.003455 7.7908144,10.790975 7.5483628,10.476155 7.2885524,10.138799 6.7829095,9.6295674 6.5093721,9.4297944 6.4000211,9.349932 6.3145586,9.2805834 6.3194552,9.2756874 c 0.0049,-0.00495 0.097687,0.0018 0.2062,0.01485 0.1085134,0.013068 0.1970212,0.016164 0.1966843,0.00684 C 6.7219982,9.2881254 6.6456172,9.2315514 6.5525945,9.1716618 6.3558133,9.044949 6.0857865,8.8125078 6.0434038,8.7333143 c -0.025823,-0.048249 -0.00894,-0.045553 0.1391918,0.022268 0.092719,0.042442 0.2356242,0.082971 0.3175673,0.090051 L 6.6491501,8.8585566 6.5163063,8.7719919 C 6.3373069,8.6553444 6.0593943,8.3496036 5.967462,8.1681845 5.8520182,7.9403672 5.659114,6.939424 5.6612681,6.5794026 c 7.263e-4,-0.1211539 0.012173,-0.099679 0.1300885,0.2440344 0.2532363,0.7381586 0.4432112,1.0364418 0.7063838,1.1091075 0.1104646,0.030502 0.225212,0.016311 0.225212,-0.027844 0,-0.014177 -0.097528,-0.3015643 -0.2167295,-0.6386356 C 6.189948,6.3717151 6.1509362,6.2138638 6.1504745,5.8266209 6.1500134,5.442276 6.1834617,5.3300749 6.4144643,4.940995 6.701971,4.4567451 6.7082608,4.4358483 6.7076811,3.9668067 6.7072567,3.6265314 6.6953512,3.5124001 6.6402708,3.3207962 6.6034761,3.1928014 6.5789475,3.0825021 6.5857628,3.0756868 c 0.018243,-0.018243 0.1872682,0.4606963 0.2884449,0.8173183 0.1293151,0.4558021 0.1365352,0.6257926 0.044035,1.0367843 -0.1308916,0.5815729 -0.09862,0.9719796 0.115617,1.3986864 0.1050342,0.2092021 0.4599588,0.6696892 0.4765814,0.6183278 0.00497,-0.015352 0.041799,-0.2055763 0.081847,-0.4227226 0.040047,-0.2171469 0.078526,-0.4005249 0.085508,-0.4075071 0.00698,-0.00698 0.064008,0.117294 0.126723,0.2761693 0.062916,0.1593851 0.1174349,0.2626504 0.1216278,0.2303819 0.00418,-0.032166 0.039538,-0.4082376 0.078575,-0.8357163 0.039035,-0.4274789 0.076213,-0.7824731 0.082616,-0.7888765 0.0064,-0.0064 0.1105311,0.3133461 0.2313951,0.7105542 C 8.4395974,6.1062944 8.5451286,6.4312 8.5532467,6.4310989 8.5613667,6.4309973 8.6669321,6.1060452 8.7878406,5.7089828 8.9087491,5.3119204 9.0128777,4.9922545 9.0192375,4.9986145 c 0.011314,0.011316 0.1528709,1.480529 0.1535853,1.594073 5.579e-4,0.090961 0.04208,0.022388 0.1472222,-0.2432129 0.053275,-0.1345787 0.1023723,-0.2391801 0.1091049,-0.2324472 0.012681,0.012681 0.1573268,0.7727576 0.1573268,0.8267076 0,0.060844 0.1862285,-0.1487564 0.3526928,-0.3969572 0.2279065,-0.3398132 0.2992735,-0.5513329 0.3176855,-0.9415631 0.0125,-0.2651173 0.003,-0.3612281 -0.06559,-0.6642192 -0.09582,-0.4231457 -0.08935,-0.5884609 0.04102,-1.0479904 0.101177,-0.356622 0.270203,-0.8355611 0.288446,-0.8173183 0.0068,0.00681 -0.01772,0.1171146 -0.0545,0.2451098 -0.05507,0.1916039 -0.06699,0.3057352 -0.06741,0.6460104 -6.5e-4,0.4690415 0.0057,0.4899384 0.293216,0.9741885 0.231311,0.3895962 0.264533,0.5012433 0.263534,0.8856257 -9.9e-4,0.3942421 -0.04305,0.565579 -0.350964,1.4308075 -0.121581,0.3416387 -0.221057,0.6328357 -0.221057,0.6471043 0,0.044308 0.114581,0.058559 0.225213,0.028012 0.26354,-0.072767 0.452319,-0.3693383 0.704088,-1.1061133 0.119008,-0.3482648 0.129947,-0.3688188 0.131493,-0.2470286 0.0044,0.3520739 -0.189127,1.359518 -0.305303,1.588782 -0.09182,0.1811946 -0.369601,0.4869121 -0.54885,0.6040486 l -0.132843,0.086811 0.165691,-0.015476 c 0.09296,-0.00869 0.233047,-0.049609 0.31914,-0.093235 0.138129,-0.069996 0.150356,-0.071982 0.122488,-0.019906 -0.04378,0.081773 -0.311052,0.3126858 -0.510763,0.4412544 -0.09303,0.059886 -0.169409,0.1164708 -0.169745,0.1257453 -3.42e-4,0.00928 0.08817,0.00612 0.196684,-0.00684 0.108513,-0.013068 0.201304,-0.019746 0.206199,-0.014859 0.0049,0.00495 -0.08056,0.074241 -0.189915,0.1541088 -0.273538,0.199773 -0.7791817,0.7090028 -1.0389919,1.0463608 -0.2424513,0.314819 -0.3480985,0.5273 -0.4756431,0.956631 -0.048127,0.162 -0.1105084,0.320449 -0.1386266,0.352107 -0.073162,0.08238 -0.269952,0.166009 -0.3906132,0.166009 -0.056828,0 -0.1564604,-0.0244 -0.2214062,-0.05422 z m -0.00384,-0.990741 c 0.044749,-0.0683 0.043207,-0.07684 -0.029465,-0.163211 -0.060625,-0.07205 -0.085262,-0.08402 -0.117632,-0.05715 -0.052798,0.04381 -0.05173,0.09739 0.00409,0.205344 0.054765,0.105902 0.081605,0.108721 0.1429993,0.01502 z m 0.5935043,-0.01502 c 0.054218,-0.104846 0.056664,-0.155158 0.00982,-0.202001 -0.027276,-0.02728 -0.050574,-0.02079 -0.103323,0.02876 -0.074987,0.07044 -0.083615,0.117152 -0.037545,0.203234 0.042613,0.07962 0.078623,0.07139 0.1310474,-0.03001 z M 8.0273462,9.1235028 c 0.043178,-0.017415 0.03439,-0.043479 -0.06647,-0.1971915 C 7.7806183,8.6516066 7.3214704,8.2146299 7.2686178,8.2674823 c -0.022912,0.022914 0.07237,0.2927434 0.1642261,0.4650851 0.1114638,0.2091266 0.2201651,0.3178977 0.3716717,0.3719085 0.1278751,0.045585 0.1518871,0.047637 0.2228306,0.019027 z m 1.2425873,-0.00702 C 9.4274817,9.072669 9.5758344,8.9309502 9.6799171,8.7247624 9.7495826,8.5867577 9.8495711,8.3219713 9.8518439,8.2694737 c 1.753e-4,-0.00404 -0.018813,-0.00738 -0.042191,-0.00738 -0.063481,0 -0.5553876,0.4926092 -0.6776241,0.6785918 -0.094817,0.1442631 -0.1008089,0.1642134 -0.054794,0.1824294 0.070729,0.027999 0.067345,0.028116 0.1926969,-0.00675 z"
     id="path1" />
  <g
     aria-label="Krita"
     id="text1450"
     style="font-size:1.76385px;opacity:1;fill:#ff00ff;stroke-width:0.529156">
    <rect
       style="font-size:1.76385px;fill:#ff00ff;fill-opacity:1;stroke:none;stroke-width:0.519976;stroke-dasharray:none;filter:url(#filter1694)"
       id="rect1656-7"
       width="0.5055005"
       height="2.2653189"
       x="15.369148"
       y="4.3016486"
       rx="0"
       ry="0" />
    <rect
       style="opacity:1;fill:#ff00ff;fill-opacity:1;stroke:none;stroke-width:0.519976;stroke-dasharray:none"
       id="rect1656"
       width="0.5055005"
       height="2.2653189"
       x="15.369148"
       y="4.3016486"
       rx="0"
       ry="0" />
  </g>
  <g
     aria-label="Steam"
     id="text2284"
     style="font-size:1.76385px;opacity:1;fill:#999999;stroke-width:0.529156">
    <path
       d="m 6.7172843,13.496001 h 0.4356709 v 0.617348 q -0.1023033,0.03351 -0.2063705,0.04939 -0.1040671,0.01587 -0.2363558,0.01587 -0.1957874,0 -0.32984,-0.07761 -0.1340526,-0.07937 -0.2046066,-0.224009 -0.06879,-0.1464 -0.06879,-0.345715 0,-0.197551 0.077609,-0.342187 0.077609,-0.144635 0.2222451,-0.224009 0.1463995,-0.08114 0.35277,-0.08114 0.105831,0 0.199315,0.0194 0.095248,0.0194 0.176385,0.05468 l -0.059971,0.13758 q -0.067026,-0.02998 -0.1516911,-0.05115 -0.082901,-0.02117 -0.1728573,-0.02117 -0.2257728,0 -0.35277,0.135817 -0.1252333,0.135816 -0.1252333,0.372172 0,0.149927 0.047624,0.266342 0.049388,0.11465 0.153455,0.179912 0.1040671,0.0635 0.2733967,0.0635 0.082901,0 0.141108,-0.0088 0.058207,-0.0088 0.105831,-0.02117 V 13.637109 H 6.7172843 Z m 1.0741858,-0.296327 q 0.1728573,0 0.2557582,0.07585 0.082901,0.07584 0.082901,0.241647 v 0.643806 H 8.0172429 L 7.9872574,14.02692 h -0.00706 q -0.061735,0.07761 -0.1305249,0.11465 -0.067026,0.03704 -0.1869681,0.03704 -0.128761,0 -0.2134258,-0.06703 -0.084665,-0.06879 -0.084665,-0.213426 0,-0.141108 0.1111225,-0.216954 0.1111226,-0.07761 0.3421869,-0.08466 l 0.1605104,-0.0053 V 13.5348 q 0,-0.118178 -0.051152,-0.164038 -0.051152,-0.04586 -0.1446357,-0.04586 -0.074082,0 -0.141108,0.02293 -0.067026,0.02117 -0.1252333,0.04939 l -0.047624,-0.116415 q 0.061735,-0.03351 0.1463996,-0.05644 0.084665,-0.02469 0.176385,-0.02469 z m 0.04586,0.504461 q -0.176385,0.0071 -0.2451752,0.05644 -0.067026,0.04939 -0.067026,0.139344 0,0.07937 0.047624,0.116414 0.049388,0.03704 0.1252333,0.03704 0.1199418,0 0.1993151,-0.06526 0.079373,-0.06703 0.079373,-0.204606 v -0.08467 z m 1.6227435,-0.506224 q 0.1605103,0 0.2398836,0.0829 0.079373,0.08114 0.079373,0.264578 v 0.615584 H 9.6258756 v -0.608529 q 0,-0.224009 -0.1922597,-0.224009 -0.1375803,0 -0.1975512,0.07937 -0.058207,0.07937 -0.058207,0.231064 v 0.5221 H 9.0244027 V 13.55244 q 0,-0.224009 -0.1940234,-0.224009 -0.1428719,0 -0.1975512,0.08819 -0.054679,0.08819 -0.054679,0.253994 v 0.490351 H 8.4229299 v -0.945424 h 0.1252334 l 0.02293,0.128761 h 0.00882 q 0.044096,-0.07408 0.1181779,-0.109359 0.075846,-0.03704 0.1605104,-0.03704 0.222245,0 0.2892713,0.158746 h 0.00882 q 0.047624,-0.08114 0.128761,-0.119942 0.082901,-0.0388 0.1746212,-0.0388 z m 0.9771714,0 q 0.121705,0 0.208134,0.05292 0.08819,0.05292 0.134052,0.149927 0.04762,0.09525 0.04762,0.224009 v 0.09348 h -0.647333 q 0.0035,0.160511 0.08114,0.245175 0.07937,0.0829 0.220481,0.0829 0.08996,0 0.158746,-0.01587 0.07055,-0.01764 0.144636,-0.04939 v 0.135816 q -0.07232,0.03175 -0.142872,0.04586 -0.07055,0.01587 -0.167566,0.01587 -0.134052,0 -0.238119,-0.05468 -0.102304,-0.05468 -0.160511,-0.162274 -0.05644,-0.109359 -0.05644,-0.266342 0,-0.155219 0.05115,-0.266341 0.05291,-0.111123 0.146399,-0.171094 0.09525,-0.05997 0.220482,-0.05997 z m -0.0018,0.126997 q -0.111123,0 -0.176385,0.07232 -0.0635,0.07055 -0.07585,0.197551 h 0.481531 q -0.0018,-0.119942 -0.05644,-0.194024 -0.05468,-0.07584 -0.172857,-0.07584 z"
       id="text2"
       style="text-align:center;text-anchor:middle;stroke-width:0.140003"
       aria-label="Game" />
  </g>
</svg>
