<?xml version="1.0" encoding="UTF-8" standalone="no"?>
<svg
   width="64"
   height="64"
   version="1.1"
   viewBox="0 0 16.933 16.933"
   id="svg7"
   sodipodi:docname="Office Template.svg"
   inkscape:version="1.4 (e7c3feb100, 2024-10-09)"
   xmlns:inkscape="http://www.inkscape.org/namespaces/inkscape"
   xmlns:sodipodi="http://sodipodi.sourceforge.net/DTD/sodipodi-0.dtd"
   xmlns:xlink="http://www.w3.org/1999/xlink"
   xmlns="http://www.w3.org/2000/svg"
   xmlns:svg="http://www.w3.org/2000/svg"
   xmlns:rdf="http://www.w3.org/1999/02/22-rdf-syntax-ns#"
   xmlns:cc="http://creativecommons.org/ns#"
   xmlns:dc="http://purl.org/dc/elements/1.1/">
  <sodipodi:namedview
     id="namedview7"
     pagecolor="#9c4444"
     bordercolor="#000000"
     borderopacity="0.25"
     inkscape:showpageshadow="2"
     inkscape:pageopacity="0.0"
     inkscape:pagecheckerboard="0"
     inkscape:deskcolor="#d1d1d1"
     inkscape:zoom="6.15625"
     inkscape:cx="15.51269"
     inkscape:cy="29.807107"
     inkscape:window-width="1183"
     inkscape:window-height="973"
     inkscape:window-x="35"
     inkscape:window-y="32"
     inkscape:window-maximized="0"
     inkscape:current-layer="svg7"
     showgrid="false" />
  <defs
     id="defs2">
    <rect
       x="67.489848"
       y="35.60533"
       width="15.337563"
       height="22.51269"
       id="rect3808" />
    <linearGradient
       inkscape:collect="always"
       id="linearGradient1134">
      <stop
         style="stop-color:#161616;stop-opacity:1;"
         offset="0"
         id="stop1130" />
      <stop
         style="stop-color:#404040;stop-opacity:1;"
         offset="1"
         id="stop1132" />
    </linearGradient>
    <linearGradient
       inkscape:collect="always"
       id="linearGradient883">
      <stop
         style="stop-color:#808080;stop-opacity:1;"
         offset="0"
         id="stop879" />
      <stop
         style="stop-color:#3e3e3e;stop-opacity:1;"
         offset="0.5"
         id="stop1216" />
      <stop
         style="stop-color:#242424;stop-opacity:1;"
         offset="1"
         id="stop881" />
    </linearGradient>
    <linearGradient
       inkscape:collect="always"
       xlink:href="#linearGradient883"
       id="linearGradient885"
       x1="2.1085808"
       y1="2.0236168"
       x2="14.846128"
       y2="15.071845"
       gradientUnits="userSpaceOnUse" />
    <linearGradient
       inkscape:collect="always"
       xlink:href="#linearGradient1134"
       id="linearGradient1136"
       x1="14.971222"
       y1="14.703373"
       x2="2.0756054"
       y2="2.0069976"
       gradientUnits="userSpaceOnUse" />
    <filter
       style="color-interpolation-filters:sRGB;"
       inkscape:label="Blur"
       id="filter1283"
       x="-0.082344266"
       y="-0.082344266"
       width="1.1646885"
       height="1.1646885">
      <feGaussianBlur
         stdDeviation="0.5 0.5"
         result="blur"
         id="feGaussianBlur1281" />
    </filter>
    <filter
       style="color-interpolation-filters:sRGB;"
       inkscape:label="Blur"
       id="filter1694"
       x="-0.94955398"
       y="-0.2118907"
       width="2.899108"
       height="1.4237814">
      <feGaussianBlur
         stdDeviation="0.2 0.2"
         result="blur"
         id="feGaussianBlur1692" />
    </filter>
    <filter
       style="color-interpolation-filters:sRGB;"
       inkscape:label="Blur"
       id="filter3148"
       x="-0.94955398"
       y="-0.2118907"
       width="2.899108"
       height="1.4237814">
      <feGaussianBlur
         stdDeviation="0.2 0.2"
         result="blur"
         id="feGaussianBlur3146" />
    </filter>
    <clipPath
       clipPathUnits="userSpaceOnUse"
       id="clipPath44">
      <path
         id="path46"
         style="display:block;opacity:0.85;fill:#f2f2f2;stroke-width:4.39162"
         d="m 17.570312,8.4453125 a 6.5431988,7.4283052 9.9958727e-8 0 0 -6.535156,7.4394535 6.5431988,7.4283052 9.9958727e-8 0 0 6.552735,7.417968 6.5431988,7.4283052 9.9958727e-8 0 0 6.535156,-7.4375 6.5431988,7.4283052 9.9958727e-8 0 0 -6.552735,-7.4199215 z M 45.646484,41.177734 a 6.5431986,7.0703472 2.4665357e-6 0 0 -6.533203,7.080078 6.5431986,7.0703472 2.4665357e-6 0 0 6.550781,7.060547 6.5431986,7.0703472 2.4665357e-6 0 0 6.535157,-7.080078 6.5431986,7.0703472 2.4665357e-6 0 0 -6.552735,-7.060547 z" />
    </clipPath>
    <inkscape:path-effect
       effect="powerclip"
       id="path-effect48"
       is_visible="true"
       lpeversion="1"
       inverse="true"
       flatten="false"
       hide_clip="false"
       message="" />
  </defs>
  <metadata
     id="metadata2">
    <rdf:RDF>
      <cc:Work
         rdf:about="">
        <dc:format>image/svg+xml</dc:format>
        <dc:type
           rdf:resource="http://purl.org/dc/dcmitype/StillImage" />
      </cc:Work>
    </rdf:RDF>
  </metadata>
  <rect
     style="fill:#000000;stroke:none;stroke-width:0.539739;stroke-dasharray:none;filter:url(#filter1283)"
     id="rect246-1"
     width="14.572964"
     height="14.572964"
     x="1.1932471"
     y="1.2138842"
     rx="2.1589575"
     ry="2.1589575" />
  <rect
     style="opacity:1;fill:#000000;stroke:url(#linearGradient885);stroke-width:0.52915625;stroke-dasharray:none"
     id="rect246"
     width="14.287219"
     height="14.287219"
     x="1.3361193"
     y="1.3567564"
     rx="2.1166251"
     ry="2.1166251" />
  <rect
     style="fill:url(#linearGradient1136);fill-opacity:1;stroke:none;stroke-width:0.478315;stroke-dasharray:none"
     id="rect246-5"
     width="12.914515"
     height="12.914515"
     x="2.0224717"
     y="2.0431087"
     rx="1.5874687"
     ry="1.5874687" />
  <path
     id="path8"
     style="fill:#999999;fill-opacity:1;stroke:none;stroke-width:0.0237759;stroke-opacity:1"
     d="M 11.422847,3.4001761 8.5895709,4.2855515 C 7.0312133,4.7724959 5.7505561,5.1729114 5.7439882,5.1750292 5.7374182,5.1771532 6.4078748,5.4328719 7.2339099,5.7433997 8.0599451,6.053928 8.7504039,6.3047092 8.7678393,6.3009551 8.785275,6.2971931 9.3878779,6.1104166 10.10709,5.8854924 l 1.307552,-0.4091223 0.0041,-1.0379105 z M 5.5105232,5.3171218 v 1.0345539 1.034181 l 2.9362091,1.1024308 c 1.6149617,0.6063431 2.9450777,1.1029195 2.9559757,1.1035497 0.01566,9.72e-4 0.01977,-0.2143627 0.01977,-1.0270955 V 7.536527 l -0.04363,-0.017901 c -0.02398,-0.00966 -1.3541,-0.5089112 -2.9559846,-1.1095165 z m 2.6758923,3.2961028 -1.3340301,0.4169548 -1.33403,0.4169543 -0.0041,1.0375373 -0.0041,1.037538 2.8332756,-0.885376 c 1.558354,-0.486946 2.839022,-0.8873648 2.845577,-0.8894771 0.0066,-0.00211 -0.666541,-0.2578826 -1.4955171,-0.5687445 z" />
  <g
     fill="#474747"
     id="g9"
     transform="matrix(0.46959567,0,0,0.46959567,4.7471229,3.7470598)"
     style="fill:#999999;fill-opacity:1;stroke:none;stroke-width:0.58349;stroke-dasharray:none;stroke-opacity:0.3" />
  <g
     aria-label="Krita"
     id="text1450"
     style="font-size:1.76385px;opacity:1;fill:#afafe9;stroke-width:0.529156;fill-opacity:1">
    <rect
       style="font-size:1.76385px;fill:#afafe9;fill-opacity:1;stroke:none;stroke-width:0.519976;stroke-dasharray:none;filter:url(#filter3148)"
       id="rect1656-3"
       width="0.5055005"
       height="2.2653189"
       x="15.369148"
       y="4.3016486"
       rx="0"
       ry="0" />
    <rect
       style="opacity:1;fill:#afafe9;fill-opacity:1;stroke:none;stroke-width:0.519976;stroke-dasharray:none"
       id="rect1656"
       width="0.5055005"
       height="2.2653189"
       x="15.369148"
       y="4.3016486"
       rx="0"
       ry="0" />
  </g>
  <path
     d="m 4.0323452,13.842122 q 0,0.167565 -0.1217056,0.26105 -0.1217057,0.09348 -0.3280761,0.09348 -0.105831,0 -0.1957874,-0.01588 -0.089956,-0.01587 -0.1499272,-0.0441 v -0.151691 q 0.063499,0.02822 0.1569826,0.05115 0.095248,0.02293 0.1957874,0.02293 0.141108,0 0.211662,-0.05468 0.072318,-0.05468 0.072318,-0.148163 0,-0.06173 -0.026458,-0.104068 -0.026458,-0.04233 -0.09172,-0.07761 -0.063499,-0.03704 -0.1781489,-0.07761 -0.1605103,-0.05821 -0.2434113,-0.142872 -0.081137,-0.08466 -0.081137,-0.231065 0,-0.100539 0.051152,-0.171093 0.051152,-0.07232 0.141108,-0.111123 0.09172,-0.0388 0.2098981,-0.0388 0.1040672,0 0.1904958,0.0194 0.086429,0.0194 0.1569827,0.05115 L 3.952972,13.10836 q -0.065262,-0.02822 -0.1428719,-0.04762 -0.075846,-0.0194 -0.1587465,-0.0194 -0.1181779,0 -0.1781488,0.05115 -0.059971,0.04939 -0.059971,0.132289 0,0.0635 0.026458,0.105831 0.026458,0.04233 0.086429,0.07585 0.059971,0.03351 0.1622742,0.07232 0.1111225,0.04057 0.1869681,0.08819 0.077609,0.04586 0.1164141,0.111123 0.040569,0.06526 0.040569,0.164038 z m 1.0230327,-0.608529 v 0.945424 H 4.9283807 l -0.02293,-0.125233 h -0.00706 q -0.04586,0.07408 -0.1269972,0.109358 -0.081137,0.03351 -0.1728573,0.03351 -0.1710934,0 -0.2575221,-0.08114 -0.086429,-0.0829 -0.086429,-0.262813 v -0.619112 h 0.1569826 v 0.608529 q 0,0.225773 0.2098982,0.225773 0.1569826,0 0.2169535,-0.08819 0.061735,-0.08819 0.061735,-0.253994 v -0.492115 z m 0.4550732,-0.06879 q 0,0.05997 -0.00353,0.112887 -0.00176,0.05115 -0.00529,0.08114 h 0.00882 q 0.040569,-0.05997 0.1111226,-0.10054 0.070554,-0.04057 0.1816765,-0.04057 0.176385,0 0.282216,0.123469 0.1075949,0.121706 0.1075949,0.365117 0,0.243412 -0.1075949,0.366881 -0.1075948,0.12347 -0.282216,0.12347 -0.1111225,0 -0.1816765,-0.04057 -0.070554,-0.04057 -0.1111226,-0.09701 h -0.012347 l -0.031749,0.119942 H 5.3552323 v -1.340526 h 0.1552188 z m 0.2663414,0.181677 q -0.1499273,0 -0.2081343,0.08643 -0.058207,0.08643 -0.058207,0.268105 v 0.0071 q 0,0.174621 0.056443,0.268105 0.058207,0.09172 0.2134259,0.09172 0.1269972,0 0.1887319,-0.09348 0.063499,-0.09348 0.063499,-0.269869 0,-0.358061 -0.2557582,-0.358061 z m 0.818426,0.832537 H 6.4399997 V 12.838491 H 6.5952185 Z M 6.9744453,12.87906 q 0.035277,0 0.061735,0.02469 0.028222,0.02293 0.028222,0.07408 0,0.04939 -0.028222,0.07408 -0.026458,0.02469 -0.061735,0.02469 -0.038805,0 -0.065262,-0.02469 -0.026458,-0.02469 -0.026458,-0.07408 0,-0.05115 0.026458,-0.07408 0.026458,-0.02469 0.065262,-0.02469 z m 0.075846,0.354533 v 0.945424 H 6.8950721 v -0.945424 z m 1.3369974,-0.01764 q 0.1605103,0 0.2398836,0.0829 0.079373,0.08114 0.079373,0.264577 v 0.615584 H 8.5530902 v -0.608528 q 0,-0.224009 -0.1922597,-0.224009 -0.1375803,0 -0.1975512,0.07937 -0.058207,0.07937 -0.058207,0.231064 v 0.5221 h -0.153455 v -0.608528 q 0,-0.224009 -0.1940235,-0.224009 -0.1428718,0 -0.1975512,0.08819 -0.054679,0.08819 -0.054679,0.253995 v 0.49035 H 7.3501445 v -0.945424 h 0.1252333 l 0.02293,0.128762 h 0.00882 q 0.044096,-0.07408 0.118178,-0.109359 0.075845,-0.03704 0.1605103,-0.03704 0.2222451,0 0.2892714,0.158746 h 0.00882 q 0.047624,-0.08114 0.128761,-0.119941 0.082901,-0.0388 0.1746212,-0.0388 z m 0.9771717,0 q 0.1217056,0 0.2081343,0.05292 0.088192,0.05292 0.1340526,0.149928 0.047624,0.09525 0.047624,0.224009 v 0.09348 H 9.1069379 q 0.00353,0.16051 0.081137,0.245175 0.079373,0.0829 0.2204812,0.0829 0.089956,0 0.1587465,-0.01588 0.070554,-0.01764 0.1446357,-0.04939 v 0.135817 q -0.072318,0.03175 -0.1428718,0.04586 -0.070554,0.01588 -0.1675658,0.01588 -0.1340526,0 -0.2381197,-0.05468 -0.1023033,-0.05468 -0.1605104,-0.162274 -0.056443,-0.109359 -0.056443,-0.266341 0,-0.155219 0.051152,-0.266342 0.052915,-0.111122 0.1463995,-0.171093 0.095248,-0.05997 0.2204813,-0.05997 z m -0.00176,0.126997 q -0.1111225,0 -0.176385,0.07232 -0.063499,0.07055 -0.075845,0.197551 h 0.481531 q -0.00176,-0.119942 -0.056443,-0.194023 -0.054679,-0.07585 -0.1728573,-0.07585 z m 1.5098539,0.836065 h -0.158746 v -1.120045 h -0.393339 v -0.139344 h 0.94366 v 0.139344 H 10.87255 Z m 0.802552,-0.963062 q 0.121706,0 0.208135,0.05292 0.08819,0.05292 0.134052,0.149928 0.04762,0.09525 0.04762,0.224009 v 0.09348 H 11.41758 q 0.0035,0.16051 0.08114,0.245175 0.07937,0.0829 0.220481,0.0829 0.08996,0 0.158747,-0.01588 0.07055,-0.01764 0.144636,-0.04939 v 0.135817 q -0.07232,0.03175 -0.142872,0.04586 -0.07055,0.01588 -0.167566,0.01588 -0.134053,0 -0.23812,-0.05468 -0.102303,-0.05468 -0.16051,-0.162274 -0.05644,-0.109359 -0.05644,-0.266341 0,-0.155219 0.05115,-0.266342 0.05292,-0.111122 0.1464,-0.171093 0.09525,-0.05997 0.220481,-0.05997 z m -0.0018,0.126997 q -0.111122,0 -0.176385,0.07232 -0.0635,0.07055 -0.07584,0.197551 h 0.481531 q -0.0018,-0.119942 -0.05644,-0.194023 -0.05468,-0.07585 -0.172858,-0.07585 z m 0.820189,0.35277 -0.326312,-0.462129 H 12.3436 l 0.243411,0.356298 0.241647,-0.356298 h 0.174622 l -0.326313,0.462129 0.343951,0.483295 h -0.176385 l -0.257522,-0.377464 -0.26105,0.377464 H 12.15134 Z m 1.024795,0.373936 q 0.03528,0 0.07232,-0.0053 0.03704,-0.0071 0.05997,-0.01411 v 0.118178 q -0.02469,0.01235 -0.07055,0.0194 -0.04586,0.0088 -0.08819,0.0088 -0.07408,0 -0.13758,-0.02469 -0.06174,-0.02646 -0.100539,-0.08996 -0.0388,-0.0635 -0.0388,-0.178149 v -0.550321 h -0.134053 v -0.07408 l 0.135817,-0.06173 0.06174,-0.201079 h 0.09172 v 0.216953 h 0.273396 v 0.119942 h -0.273396 v 0.546794 q 0,0.08643 0.04057,0.128761 0.04233,0.04057 0.107595,0.04057 z"
     id="text2284"
     style="font-size:1.76385px;fill:#999999;stroke-width:0.529156"
     aria-label="Sublime Text" />
  <text
     xml:space="preserve"
     transform="scale(0.26457812)"
     id="text3806"
     style="font-size:6.66667px;white-space:pre;shape-inside:url(#rect3808);display:inline;fill:#999999;stroke-width:2" />
</svg>
