<?xml version="1.0" encoding="UTF-8" standalone="no"?>
<svg
   width="64"
   height="64"
   version="1.1"
   viewBox="0 0 16.933 16.933"
   id="svg7"
   sodipodi:docname="Internet Template.svg"
   inkscape:version="1.4 (e7c3feb100, 2024-10-09)"
   xmlns:inkscape="http://www.inkscape.org/namespaces/inkscape"
   xmlns:sodipodi="http://sodipodi.sourceforge.net/DTD/sodipodi-0.dtd"
   xmlns:xlink="http://www.w3.org/1999/xlink"
   xmlns="http://www.w3.org/2000/svg"
   xmlns:svg="http://www.w3.org/2000/svg"
   xmlns:rdf="http://www.w3.org/1999/02/22-rdf-syntax-ns#"
   xmlns:cc="http://creativecommons.org/ns#"
   xmlns:dc="http://purl.org/dc/elements/1.1/">
  <sodipodi:namedview
     id="namedview7"
     pagecolor="#9c4444"
     bordercolor="#000000"
     borderopacity="0.25"
     inkscape:showpageshadow="2"
     inkscape:pageopacity="0.0"
     inkscape:pagecheckerboard="0"
     inkscape:deskcolor="#d1d1d1"
     inkscape:zoom="6.15625"
     inkscape:cx="15.675127"
     inkscape:cy="29.807107"
     inkscape:window-width="1183"
     inkscape:window-height="973"
     inkscape:window-x="35"
     inkscape:window-y="32"
     inkscape:window-maximized="0"
     inkscape:current-layer="svg7"
     showgrid="false" />
  <defs
     id="defs2">
    <rect
       x="67.489848"
       y="35.60533"
       width="15.337563"
       height="22.51269"
       id="rect3808" />
    <linearGradient
       inkscape:collect="always"
       id="linearGradient1134">
      <stop
         style="stop-color:#161616;stop-opacity:1;"
         offset="0"
         id="stop1130" />
      <stop
         style="stop-color:#404040;stop-opacity:1;"
         offset="1"
         id="stop1132" />
    </linearGradient>
    <linearGradient
       inkscape:collect="always"
       id="linearGradient883">
      <stop
         style="stop-color:#808080;stop-opacity:1;"
         offset="0"
         id="stop879" />
      <stop
         style="stop-color:#3e3e3e;stop-opacity:1;"
         offset="0.5"
         id="stop1216" />
      <stop
         style="stop-color:#242424;stop-opacity:1;"
         offset="1"
         id="stop881" />
    </linearGradient>
    <linearGradient
       inkscape:collect="always"
       xlink:href="#linearGradient883"
       id="linearGradient885"
       x1="2.1085808"
       y1="2.0236168"
       x2="14.846128"
       y2="15.071845"
       gradientUnits="userSpaceOnUse" />
    <linearGradient
       inkscape:collect="always"
       xlink:href="#linearGradient1134"
       id="linearGradient1136"
       x1="14.971222"
       y1="14.703373"
       x2="2.0756054"
       y2="2.0069976"
       gradientUnits="userSpaceOnUse" />
    <filter
       style="color-interpolation-filters:sRGB;"
       inkscape:label="Blur"
       id="filter1283"
       x="-0.082344266"
       y="-0.082344266"
       width="1.1646885"
       height="1.1646885">
      <feGaussianBlur
         stdDeviation="0.5 0.5"
         result="blur"
         id="feGaussianBlur1281" />
    </filter>
    <filter
       style="color-interpolation-filters:sRGB;"
       inkscape:label="Blur"
       id="filter1694"
       x="-0.94955398"
       y="-0.2118907"
       width="2.899108"
       height="1.4237814">
      <feGaussianBlur
         stdDeviation="0.2 0.2"
         result="blur"
         id="feGaussianBlur1692" />
    </filter>
    <filter
       style="color-interpolation-filters:sRGB;"
       inkscape:label="Blur"
       id="filter3148"
       x="-0.94955398"
       y="-0.2118907"
       width="2.899108"
       height="1.4237814">
      <feGaussianBlur
         stdDeviation="0.2 0.2"
         result="blur"
         id="feGaussianBlur3146" />
    </filter>
    <clipPath
       clipPathUnits="userSpaceOnUse"
       id="clipPath44">
      <path
         id="path46"
         style="display:block;opacity:0.85;fill:#f2f2f2;stroke-width:4.39162"
         d="m 17.570312,8.4453125 a 6.5431988,7.4283052 9.9958727e-8 0 0 -6.535156,7.4394535 6.5431988,7.4283052 9.9958727e-8 0 0 6.552735,7.417968 6.5431988,7.4283052 9.9958727e-8 0 0 6.535156,-7.4375 6.5431988,7.4283052 9.9958727e-8 0 0 -6.552735,-7.4199215 z M 45.646484,41.177734 a 6.5431986,7.0703472 2.4665357e-6 0 0 -6.533203,7.080078 6.5431986,7.0703472 2.4665357e-6 0 0 6.550781,7.060547 6.5431986,7.0703472 2.4665357e-6 0 0 6.535157,-7.080078 6.5431986,7.0703472 2.4665357e-6 0 0 -6.552735,-7.060547 z" />
    </clipPath>
    <inkscape:path-effect
       effect="powerclip"
       id="path-effect48"
       is_visible="true"
       lpeversion="1"
       inverse="true"
       flatten="false"
       hide_clip="false"
       message="" />
  </defs>
  <metadata
     id="metadata2">
    <rdf:RDF>
      <cc:Work
         rdf:about="">
        <dc:format>image/svg+xml</dc:format>
        <dc:type
           rdf:resource="http://purl.org/dc/dcmitype/StillImage" />
      </cc:Work>
    </rdf:RDF>
  </metadata>
  <rect
     style="fill:#000000;stroke:none;stroke-width:0.539739;stroke-dasharray:none;filter:url(#filter1283)"
     id="rect246-1"
     width="14.572964"
     height="14.572964"
     x="1.1932471"
     y="1.2138842"
     rx="2.1589575"
     ry="2.1589575" />
  <rect
     style="opacity:1;fill:#000000;stroke:url(#linearGradient885);stroke-width:0.52915625;stroke-dasharray:none"
     id="rect246"
     width="14.287219"
     height="14.287219"
     x="1.3361193"
     y="1.3567564"
     rx="2.1166251"
     ry="2.1166251" />
  <rect
     style="fill:url(#linearGradient1136);fill-opacity:1;stroke:none;stroke-width:0.478315;stroke-dasharray:none"
     id="rect246-5"
     width="12.914515"
     height="12.914515"
     x="2.0224717"
     y="2.0431087"
     rx="1.5874687"
     ry="1.5874687" />
  <path
     d="M 11.328931,10.552734 C 11.449983,10.317896 12.145548,6.3041388 12.245075,5.2666621 12.35271,4.2381316 11.791615,4.4293559 11.275532,4.6032472 10.009371,5.0309861 6.005398,6.764028 4.9094913,7.3360242 4.6399881,7.4478514 4.5231285,7.6376779 4.7196647,7.8020639 4.888524,7.9412885 5.5072078,8.1327928 6.0056775,8.229803 6.4311797,8.3584043 6.7616294,8.235113 7.0663585,8.0629009 7.7988265,7.6287319 9.9819719,6.2471068 10.09967,6.169946 c 0.117419,-0.076882 0.246021,0.066258 0.180601,0.1353108 -0.06598,0.069054 -1.6119882,1.4557107 -2.1199635,2.0827815 -0.268944,0.3444274 -0.2605569,0.5286627 0.015655,0.7461666 0.6198026,0.4858902 2.2756835,1.5938181 2.5219825,1.6609141 0.314515,0.08527 0.49847,0.01454 0.630986,-0.242385 z"
     fill="#e1f5fe"
     fill-rule="nonzero"
     id="path2"
     style="fill:#999999;fill-opacity:1;stroke-width:0.279568" />
  <g
     aria-label="Krita"
     id="text1450"
     style="font-size:1.76385px;opacity:1;fill:#ffff00;stroke-width:0.529156">
    <rect
       style="font-size:1.76385px;fill:#ffff00;fill-opacity:1;stroke:none;stroke-width:0.519976;stroke-dasharray:none;filter:url(#filter3148)"
       id="rect1656-3"
       width="0.5055005"
       height="2.2653189"
       x="15.369148"
       y="4.3016486"
       rx="0"
       ry="0" />
    <rect
       style="opacity:1;fill:#ffff00;fill-opacity:1;stroke:none;stroke-width:0.519976;stroke-dasharray:none"
       id="rect1656"
       width="0.5055005"
       height="2.2653189"
       x="15.369148"
       y="4.3016486"
       rx="0"
       ry="0" />
  </g>
  <path
     d="M 5.1717953,14.179017 H 5.0130488 V 13.058972 H 4.6197103 V 12.919628 H 5.56337 v 0.139344 H 5.1717953 Z m 0.8025519,-0.963062 q 0.1217056,0 0.2081343,0.05292 0.088192,0.05292 0.1340525,0.149928 0.047624,0.09525 0.047624,0.224009 v 0.09348 H 5.7168251 q 0.00353,0.16051 0.081137,0.245175 0.079373,0.0829 0.2204812,0.0829 0.089956,0 0.1587465,-0.01588 0.070554,-0.01764 0.1446357,-0.04939 v 0.135817 q -0.072318,0.03175 -0.1428718,0.04586 -0.070554,0.01588 -0.1675658,0.01588 -0.1340526,0 -0.2381197,-0.05468 -0.1023033,-0.05468 -0.1605104,-0.162274 -0.056443,-0.109359 -0.056443,-0.266341 0,-0.155219 0.051152,-0.266342 0.052916,-0.111122 0.1463995,-0.171093 0.095248,-0.05997 0.2204813,-0.05997 z m -0.00176,0.126997 q -0.1111225,0 -0.176385,0.07232 -0.063499,0.07055 -0.075846,0.197551 h 0.481531 q -0.00176,-0.119942 -0.056443,-0.194023 -0.054679,-0.07585 -0.1728573,-0.07585 z m 0.7866756,0.836065 H 6.6040401 v -1.340526 h 0.1552188 z m 0.6649705,-0.963062 q 0.1217056,0 0.2081343,0.05292 0.088192,0.05292 0.1340526,0.149928 0.047624,0.09525 0.047624,0.224009 v 0.09348 H 7.1667073 q 0.00353,0.16051 0.081137,0.245175 0.079373,0.0829 0.2204812,0.0829 0.089956,0 0.1587465,-0.01588 0.070554,-0.01764 0.1446357,-0.04939 v 0.135817 q -0.072318,0.03175 -0.1428718,0.04586 -0.070554,0.01588 -0.1675658,0.01588 -0.1340526,0 -0.2381197,-0.05468 -0.1023033,-0.05468 -0.1605104,-0.162274 -0.056443,-0.109359 -0.056443,-0.266341 0,-0.155219 0.051152,-0.266342 0.052916,-0.111122 0.1463995,-0.171093 0.095248,-0.05997 0.2204813,-0.05997 z m -0.00176,0.126997 q -0.1111225,0 -0.176385,0.07232 -0.063499,0.07055 -0.075845,0.197551 h 0.481531 q -0.00176,-0.119942 -0.056443,-0.194023 -0.054679,-0.07585 -0.1728573,-0.07585 z m 0.9665883,-0.126997 q 0.093484,0 0.1675657,0.03528 0.075846,0.03528 0.1287611,0.107595 h 0.00882 l 0.021166,-0.125234 h 0.1234695 v 0.961299 q 0,0.202842 -0.1040671,0.305146 -0.1023033,0.102303 -0.3192569,0.102303 -0.2081343,0 -0.340423,-0.05997 v -0.142872 q 0.1393441,0.07408 0.3492423,0.07408 0.1217056,0 0.1904958,-0.07232 0.070554,-0.07055 0.070554,-0.194023 v -0.03704 q 0,-0.02117 0.00176,-0.05997 0.00176,-0.04057 0.00353,-0.05644 h -0.00706 q -0.095248,0.142872 -0.2927991,0.142872 -0.1834404,0 -0.2875075,-0.128761 -0.1023033,-0.128762 -0.1023033,-0.359826 0,-0.225773 0.1023033,-0.358061 0.1040671,-0.134053 0.2857437,-0.134053 z M 8.41022,13.34648 q -0.118178,0 -0.1834404,0.09525 -0.065263,0.09348 -0.065263,0.268105 0,0.174621 0.063499,0.268105 0.065262,0.09172 0.188732,0.09172 0.1428718,0 0.2081343,-0.07585 0.065262,-0.07761 0.065262,-0.248703 v -0.03704 q 0,-0.194023 -0.067026,-0.276924 Q 8.5530918,13.34648 8.41022,13.34648 Z m 1.1694321,-0.130525 q 0.026458,0 0.056443,0.0035 0.031749,0.0018 0.054679,0.0071 l -0.019402,0.142872 q -0.02293,-0.0053 -0.051152,-0.0088 -0.026458,-0.0035 -0.051152,-0.0035 -0.072318,0 -0.1358164,0.04057 -0.063499,0.0388 -0.1023033,0.111122 -0.037041,0.07055 -0.037041,0.165802 v 0.504461 H 9.1386896 v -0.945424 h 0.1269972 l 0.017639,0.172858 h 0.00706 q 0.04586,-0.07761 0.118178,-0.134053 0.072318,-0.05644 0.1710934,-0.05644 z m 0.6102919,0.0018 q 0.172857,0 0.255758,0.07584 0.0829,0.07585 0.0829,0.241648 v 0.643805 h -0.112887 l -0.02998,-0.134053 h -0.0071 q -0.06174,0.07761 -0.130525,0.114651 -0.06703,0.03704 -0.186968,0.03704 -0.1287614,0 -0.2134262,-0.06703 -0.084665,-0.06879 -0.084665,-0.213426 0,-0.141108 0.1111225,-0.216953 0.1111226,-0.07761 0.3421865,-0.08466 l 0.160511,-0.0053 v -0.05644 q 0,-0.118178 -0.05115,-0.164038 -0.05115,-0.04586 -0.144636,-0.04586 -0.07408,0 -0.141108,0.02293 -0.067026,0.02117 -0.1252329,0.04939 l -0.047624,-0.116414 q 0.061735,-0.03351 0.1463999,-0.05644 0.08466,-0.02469 0.176385,-0.02469 z m 0.04586,0.504461 q -0.176385,0.0071 -0.2451754,0.05644 -0.067026,0.04939 -0.067026,0.139344 0,0.07937 0.047624,0.116414 0.049388,0.03704 0.1252337,0.03704 0.119941,0 0.199315,-0.06526 0.07937,-0.06703 0.07937,-0.204607 v -0.08466 z m 1.622743,-0.506225 q 0.160511,0 0.239884,0.0829 0.07937,0.08114 0.07937,0.264577 v 0.615584 h -0.153455 v -0.608528 q 0,-0.224009 -0.192259,-0.224009 -0.137581,0 -0.197552,0.07937 -0.05821,0.07937 -0.05821,0.231064 v 0.5221 h -0.153455 v -0.608528 q 0,-0.224009 -0.194023,-0.224009 -0.142872,0 -0.197551,0.08819 -0.05468,0.08819 -0.05468,0.253995 v 0.49035 h -0.155218 v -0.945424 h 0.125233 l 0.02293,0.128762 h 0.0088 q 0.0441,-0.07408 0.118178,-0.109359 0.07585,-0.03704 0.160511,-0.03704 0.222245,0 0.289271,0.158746 h 0.0088 q 0.04762,-0.08114 0.128761,-0.119941 0.0829,-0.0388 0.174621,-0.0388 z"
     id="text2284"
     style="font-size:1.76385px;fill:#999999;stroke-width:0.529156"
     aria-label="Telegram" />
  <text
     xml:space="preserve"
     transform="scale(0.26457812)"
     id="text3806"
     style="fill:#999999;stroke-width:2;font-size:6.66666667px;white-space:pre;shape-inside:url(#rect3808)" />
</svg>
