<?xml version="1.0" encoding="UTF-8" standalone="no"?>
<svg
   width="64"
   height="64"
   version="1.1"
   viewBox="0 0 16.933 16.933"
   id="svg7"
   sodipodi:docname="Development Template.svg"
   inkscape:version="1.4 (e7c3feb100, 2024-10-09)"
   xmlns:inkscape="http://www.inkscape.org/namespaces/inkscape"
   xmlns:sodipodi="http://sodipodi.sourceforge.net/DTD/sodipodi-0.dtd"
   xmlns:xlink="http://www.w3.org/1999/xlink"
   xmlns="http://www.w3.org/2000/svg"
   xmlns:svg="http://www.w3.org/2000/svg"
   xmlns:rdf="http://www.w3.org/1999/02/22-rdf-syntax-ns#"
   xmlns:cc="http://creativecommons.org/ns#"
   xmlns:dc="http://purl.org/dc/elements/1.1/">
  <sodipodi:namedview
     id="namedview7"
     pagecolor="#9c4444"
     bordercolor="#000000"
     borderopacity="0.25"
     inkscape:showpageshadow="2"
     inkscape:pageopacity="0.0"
     inkscape:pagecheckerboard="0"
     inkscape:deskcolor="#d1d1d1"
     inkscape:zoom="6.15625"
     inkscape:cx="15.675127"
     inkscape:cy="29.807107"
     inkscape:window-width="1183"
     inkscape:window-height="973"
     inkscape:window-x="35"
     inkscape:window-y="32"
     inkscape:window-maximized="0"
     inkscape:current-layer="svg7"
     showgrid="false" />
  <defs
     id="defs2">
    <rect
       x="67.489848"
       y="35.60533"
       width="15.337563"
       height="22.51269"
       id="rect3808" />
    <linearGradient
       inkscape:collect="always"
       id="linearGradient1134">
      <stop
         style="stop-color:#161616;stop-opacity:1;"
         offset="0"
         id="stop1130" />
      <stop
         style="stop-color:#404040;stop-opacity:1;"
         offset="1"
         id="stop1132" />
    </linearGradient>
    <linearGradient
       inkscape:collect="always"
       id="linearGradient883">
      <stop
         style="stop-color:#808080;stop-opacity:1;"
         offset="0"
         id="stop879" />
      <stop
         style="stop-color:#3e3e3e;stop-opacity:1;"
         offset="0.5"
         id="stop1216" />
      <stop
         style="stop-color:#242424;stop-opacity:1;"
         offset="1"
         id="stop881" />
    </linearGradient>
    <linearGradient
       inkscape:collect="always"
       xlink:href="#linearGradient883"
       id="linearGradient885"
       x1="2.1085808"
       y1="2.0236168"
       x2="14.846128"
       y2="15.071845"
       gradientUnits="userSpaceOnUse" />
    <linearGradient
       inkscape:collect="always"
       xlink:href="#linearGradient1134"
       id="linearGradient1136"
       x1="14.971222"
       y1="14.703373"
       x2="2.0756054"
       y2="2.0069976"
       gradientUnits="userSpaceOnUse" />
    <filter
       style="color-interpolation-filters:sRGB;"
       inkscape:label="Blur"
       id="filter1283"
       x="-0.082344266"
       y="-0.082344266"
       width="1.1646885"
       height="1.1646885">
      <feGaussianBlur
         stdDeviation="0.5 0.5"
         result="blur"
         id="feGaussianBlur1281" />
    </filter>
    <filter
       style="color-interpolation-filters:sRGB;"
       inkscape:label="Blur"
       id="filter1694"
       x="-0.94955398"
       y="-0.2118907"
       width="2.899108"
       height="1.4237814">
      <feGaussianBlur
         stdDeviation="0.2 0.2"
         result="blur"
         id="feGaussianBlur1692" />
    </filter>
    <filter
       style="color-interpolation-filters:sRGB;"
       inkscape:label="Blur"
       id="filter3148"
       x="-0.94955398"
       y="-0.2118907"
       width="2.899108"
       height="1.4237814">
      <feGaussianBlur
         stdDeviation="0.2 0.2"
         result="blur"
         id="feGaussianBlur3146" />
    </filter>
    <clipPath
       clipPathUnits="userSpaceOnUse"
       id="clipPath44">
      <path
         id="path46"
         style="display:block;opacity:0.85;fill:#f2f2f2;stroke-width:4.39162"
         d="m 17.570312,8.4453125 a 6.5431988,7.4283052 9.9958727e-8 0 0 -6.535156,7.4394535 6.5431988,7.4283052 9.9958727e-8 0 0 6.552735,7.417968 6.5431988,7.4283052 9.9958727e-8 0 0 6.535156,-7.4375 6.5431988,7.4283052 9.9958727e-8 0 0 -6.552735,-7.4199215 z M 45.646484,41.177734 a 6.5431986,7.0703472 2.4665357e-6 0 0 -6.533203,7.080078 6.5431986,7.0703472 2.4665357e-6 0 0 6.550781,7.060547 6.5431986,7.0703472 2.4665357e-6 0 0 6.535157,-7.080078 6.5431986,7.0703472 2.4665357e-6 0 0 -6.552735,-7.060547 z" />
    </clipPath>
    <inkscape:path-effect
       effect="powerclip"
       id="path-effect48"
       is_visible="true"
       lpeversion="1"
       inverse="true"
       flatten="false"
       hide_clip="false"
       message="" />
  </defs>
  <metadata
     id="metadata2">
    <rdf:RDF>
      <cc:Work
         rdf:about="">
        <dc:format>image/svg+xml</dc:format>
        <dc:type
           rdf:resource="http://purl.org/dc/dcmitype/StillImage" />
      </cc:Work>
    </rdf:RDF>
  </metadata>
  <rect
     style="fill:#000000;stroke:none;stroke-width:0.539739;stroke-dasharray:none;filter:url(#filter1283)"
     id="rect246-1"
     width="14.572964"
     height="14.572964"
     x="1.1932471"
     y="1.2138842"
     rx="2.1589575"
     ry="2.1589575" />
  <rect
     style="opacity:1;fill:#000000;stroke:url(#linearGradient885);stroke-width:0.52915625;stroke-dasharray:none"
     id="rect246"
     width="14.287219"
     height="14.287219"
     x="1.3361193"
     y="1.3567564"
     rx="2.1166251"
     ry="2.1166251" />
  <rect
     style="fill:url(#linearGradient1136);fill-opacity:1;stroke:none;stroke-width:0.478315;stroke-dasharray:none"
     id="rect246-5"
     width="12.914515"
     height="12.914515"
     x="2.0224717"
     y="2.0431087"
     rx="1.5874687"
     ry="1.5874687" />
  <path
     style="fill:#999999;fill-opacity:1;stroke-width:0.190949"
     d="m 10.243607,3.7801955 c -7e-6,-6e-7 -0.235745,0.030072 -0.407631,0.062654 C 9.4317774,3.895877 9.0439081,3.9437825 8.6746204,3.9595828 H 7.6135872 6.8598621 c -0.046046,-0.00683 -0.079564,-0.014919 -0.1972889,-0.014919 -0.066761,1.88e-5 -0.1335102,0.005 -0.1995265,0.014919 C 6.2731465,3.9880138 6.0324349,4.0132174 5.6914202,4.2433952 5.3504229,4.4735879 5.02944,5.0710099 5.02944,5.4879181 c 0.01481,0.2871148 0.084345,0.5387971 0.1372435,0.7246342 0.022945,0.1586519 0.046035,0.3172389 0.068995,0.4732696 0.00273,0.018584 0.0058,0.037117 0.00932,0.055569 0.044369,0.233014 0.08649,0.4376196 0.2133257,0.7085985 0.063419,0.1354895 0.1451898,0.297074 0.3408732,0.4881874 0.182506,0.1782405 0.5360847,0.3694299 0.9290142,0.3964423 C 6.6011787,8.44111 6.4839739,8.5558473 6.4141905,8.659829 c -0.00378,0.00567 -0.0075,0.011405 -0.011188,0.017164 -0.2531844,0.3901243 -0.2637233,1.2601755 0.027598,1.674531 0.1611005,0.229138 0.5574665,0.525599 0.8712033,0.613124 0.3137368,0.08752 0.5231998,0.07493 0.7279919,0.06414 l 0.00149,-3.82e-4 c 0.2498825,-0.01341 0.4640641,-0.03362 0.6709312,-0.05706 0.091609,-0.0029 0.1579866,2.8e-5 0.1812519,0.0023 0.00386,4.01e-4 0.0077,8.02e-4 0.01156,0.0012 0.1060931,0.0092 0.2072253,0.01971 0.3733198,0.0097 0.1660942,-0.01001 0.3890471,-0.06767 0.4796091,-0.100695 0.015196,-0.0055 0.03014,-0.01141 0.045125,-0.01753 0.4609953,-0.187338 0.9957673,-0.9103402 0.9957673,-1.4630689 0,-0.3304696 -0.132789,-0.8820112 -0.574338,-1.2352001 -0.0642,-0.05135 -0.129792,-0.081652 -0.19505,-0.1193431 -1.51e-4,-0.042978 -5.54e-4,-0.07972 -7.22e-4,-0.1204618 0.07829,0.011961 0.180708,0.056688 0.242789,0.056688 0.248964,0 0.595633,-0.021712 0.983459,-0.3024596 0.387827,-0.2807475 0.618345,-0.8538918 0.618345,-1.2228922 0,-0.1863493 -0.01001,-0.2616101 -0.03357,-0.4188191 0.01424,-0.1130835 0.02963,-0.2221635 0.04998,-0.3065621 l -0.0029,0.012307 C 11.99039,5.2938191 11.734126,4.4462676 11.285265,4.1136118 10.983518,3.8944129 10.584153,3.7825756 10.243624,3.7801973 Z m 0.0015,0.7637948 c 0.196207,4.392e-4 0.411163,0.062406 0.578068,0.1838626 0.237479,0.1709435 0.363659,0.5816437 0.300222,0.8346545 l 0.0015,-0.00522 c -0.03316,0.1377263 -0.05944,0.2928695 -0.07757,0.4639454 5.72e-4,-3.436e-4 0.0011,0.019933 0.0075,0.054824 0.0011,0.00508 0.0019,0.010184 0.0026,0.015291 0.02431,0.1539306 0.02984,0.25424 0.02984,0.3695901 0,0.1941983 -0.110546,0.4669762 -0.301342,0.6052923 -0.190795,0.1383149 -0.376752,0.156265 -0.53294,0.156265 -0.218673,0 -0.5582874,-0.096125 -0.7220253,-0.3848813 -0.044156,-0.077991 -0.069226,-0.165242 -0.073471,-0.2547223 -0.00491,-0.1027568 0.00121,-0.2466174 0.00522,-0.3822705 -0.070993,0.00424 -0.1390357,0.00875 -0.208477,0.013426 -8.586e-4,0.012095 -0.00211,0.024159 -0.00373,0.036176 -0.013378,0.098442 -0.024358,0.2994011 -0.024988,0.5698627 0.01291,0.132534 0.013257,0.2680686 0.016782,0.5146659 0.00393,0.2752794 0.00596,0.651333 0.00596,1.1307741 v 0.1413473 c 0.1541543,0.00379 0.3212384,0.031864 0.4788633,0.1581295 0.2167324,0.1736113 0.28717,0.4470456 0.28717,0.6399763 0,0.2978979 -0.2590387,0.6503441 -0.5176508,0.7555911 -0.00643,0.0026 -0.012873,0.0051 -0.019395,0.0075 -0.057738,0.0211 -0.1688233,0.04991 -0.2625547,0.05558 -0.093731,0.0056 -0.1667376,-4.97e-4 -0.2603169,-0.0086 -0.00162,-1.33e-4 -0.00323,-2.48e-4 -0.00485,-3.83e-4 -0.068615,-0.0065 -0.1659445,-0.0091 -0.2856772,-0.0049 -0.1986135,0.02401 -0.4190478,0.04343 -0.6795088,0.05744 h -4.122e-4 c -0.1664776,0.0087 -0.3088681,0.01133 -0.4803553,-0.03659 C 7.3321171,10.182763 7.1410438,10.03795 7.0545766,9.9147872 6.9065374,9.7039223 6.9109248,9.2968112 7.0426422,9.0935595 c 0.0016,-0.00235 0.0032,-0.00478 0.00484,-0.00705 0.0868,-0.1295233 0.2613544,-0.2770955 0.4374666,-0.3405006 0.068787,-0.024762 0.1373807,-0.017917 0.2040018,-0.029095 9.54e-4,-0.022559 6.691e-4,-0.050342 0.00186,-0.07198 -7e-7,-4.972e-4 -7e-7,-0.00102 0,-0.00153 0.01349,-0.2308093 0.014655,-0.5883907 -3.747e-4,-1.0543441 -1.339e-4,-4.964e-4 -2.481e-4,-9.9e-4 -3.819e-4,-0.00149 -0.014498,-0.488696 0.00338,-0.9026726 0.016782,-1.3269441 -0.062464,-0.00107 -0.1037242,7.282e-4 -0.174166,-0.00113 0.014863,0.1305198 0.046797,0.3247599 0.05184,0.4229217 0.00122,0.024736 4.965e-4,0.049529 -0.00149,0.074216 L 7.5680552,6.9487386 C 7.5542996,7.1446589 7.3975592,7.3916411 7.2283005,7.4880195 7.0590423,7.5843988 6.9220792,7.5905797 6.8038875,7.5905797 6.606974,7.5905797 6.4289997,7.4884354 6.3324829,7.3940371 6.2359723,7.2996402 6.1885554,7.2119101 6.1497448,7.1288735 6.0721234,6.9628007 6.032939,6.8000861 5.9949721,6.6004082 c -0.00155,-0.00792 -0.0029,-0.015885 -0.0041,-0.023869 C 5.9601138,6.3672615 5.9294861,6.155462 5.8987476,5.941411 c -9.9e-4,0.00112 -0.00306,0.00186 -0.00299,0.00336 -0.00204,-0.00978 -0.00474,-0.020278 -0.0097,-0.0317 C 5.880627,5.900569 5.8756797,5.8878781 5.87115,5.8750261 5.8302414,5.7584185 5.7932316,5.6642896 5.7932316,5.4890352 c 0,-0.2133459 0.1515136,-0.4949629 0.3252095,-0.6123783 0.1737049,-0.1174165 0.3178742,-0.1402372 0.4546221,-0.1607401 0.028326,-0.00424 0.057135,-0.00635 0.085777,-0.00634 0.074317,0 0.1060873,0.0059 0.1532815,0.012307 0.012922,0.00176 0.022929,0.00237 0.027971,0.00261 h 0.7686417 1.0834104 c 0.4280673,-0.017883 0.8551275,-0.071722 1.2829365,-0.128296 0.1319007,-0.027162 0.1660347,-0.041406 0.2700137,-0.052213 z m 0,0.5728459 c -0.01291,1.562e-4 -0.02614,0.00103 -0.03954,0.00223 -0.06119,0.014555 -0.106649,0.028706 -0.137244,0.043262 -0.4384878,0.05823 -0.8924716,0.116353 -1.361591,0.1357604 H 7.6050274 6.8095324 c -0.015297,0 -0.040388,-0.00298 -0.076081,-0.00783 -0.035694,-0.00484 -0.061158,-0.00709 -0.076454,-0.00709 -0.1937647,0.029112 -0.2908961,0.085317 -0.2908961,0.2066131 0,0.043666 0.014905,0.1092093 0.0455,0.1965431 0.035694,0.082481 0.054077,0.1405761 0.054077,0.1745388 0.030595,0.2134814 0.061151,0.4246343 0.091745,0.6332637 0.066289,0.3493329 0.1477696,0.5243626 0.244653,0.5243626 0.1223794,0 0.186222,-0.036496 0.1913215,-0.1092732 L 7.0086662,6.712673 C 6.9984657,6.5137472 6.9573544,6.1815639 6.8859667,5.7157869 c 0.2906504,-0.019408 0.446533,-0.029463 0.4669293,-0.029463 0.4334259,0.014555 0.7481872,0.01679 0.9062602,0.00709 l 0.023122,0.022377 c -0.035694,0.5482589 -0.043519,1.1668196 -0.023122,1.8557825 0.015296,0.475481 0.015296,0.8437865 0,1.1057871 -0.00509,0.092185 -0.00783,0.1990648 -0.00783,0.3203607 0.00509,0.038815 0.00783,0.079777 0.00783,0.123445 0,0.082482 -0.098141,0.1241916 -0.2562143,0.1241916 -0.3008479,0 -0.4104591,0.05363 -0.481847,0.1603671 -0.040792,0.063083 -0.040792,0.1234026 0,0.1816254 0.06119,0.087333 0.1527902,0.1238287 0.4281428,0.109273 0.2702537,-0.014548 0.5001645,-0.033923 0.6888325,-0.058182 0.1376764,-0.00486 0.2571652,-0.00259 0.3591476,0.00705 0.1682711,0.014548 0.2093185,0.00972 0.2756074,-0.014548 0.1070813,-0.043659 0.1603671,-0.1185192 0.1603671,-0.2252593 0,-0.1795195 -0.096758,-0.257725 -0.2905253,-0.2334655 H 8.7070653 C 8.6815719,9.1382618 8.6686533,9.0801605 8.6686533,8.9976797 V 8.4662654 c 0,-0.9558144 -0.00782,-1.4969161 -0.023123,-1.6230639 0,-0.2959629 0.010186,-0.5186592 0.030582,-0.6690664 L 8.6455305,5.9119516 c -0.010196,-0.092185 -0.010196,-0.1696447 0,-0.2327187 0.4181283,-0.038814 0.9023274,-0.068235 1.3765465,-0.087642 0.0102,0.0097 0.01803,0.014919 0.02312,0.014919 0,0.072779 -0.0055,0.2183877 -0.01566,0.4367204 -0.0102,0.1843704 -0.01256,0.4064342 -0.0075,0.5131746 0.03568,0.063075 0.109722,0.093983 0.221902,0.093983 0.173372,0 0.259944,-0.062563 0.259944,-0.1887108 0,-0.038815 -0.0078,-0.1834186 -0.02312,-0.280456 -0.0153,-0.082481 -0.02039,-0.1506313 -0.01529,-0.204002 0.02038,-0.1989257 0.05095,-0.3832651 0.09175,-0.5530795 0.02549,-0.101889 3.2e-5,-0.1793488 -0.07645,-0.2327189 -0.06693,-0.050943 -0.145346,-0.075686 -0.235702,-0.07459 z"
     id="path4" />
  <g
     fill="#474747"
     id="g9"
     transform="matrix(0.46959567,0,0,0.46959567,4.7471229,3.7470598)"
     style="fill:#999999;fill-opacity:1;stroke:none;stroke-width:0.58349;stroke-dasharray:none;stroke-opacity:0.3" />
  <g
     aria-label="Krita"
     id="text1450"
     style="font-size:1.76385px;opacity:1;fill:#8a916f;stroke-width:0.529156">
    <rect
       style="font-size:1.76385px;fill:#8a916f;fill-opacity:1;stroke:none;stroke-width:0.519976;stroke-dasharray:none;filter:url(#filter3148)"
       id="rect1656-3"
       width="0.5055005"
       height="2.2653189"
       x="15.369148"
       y="4.3016486"
       rx="0"
       ry="0" />
    <rect
       style="opacity:1;fill:#8a916f;fill-opacity:1;stroke:none;stroke-width:0.519976;stroke-dasharray:none"
       id="rect1656"
       width="0.5055005"
       height="2.2653189"
       x="15.369148"
       y="4.3016486"
       rx="0"
       ry="0" />
  </g>
  <path
     d="M 4.5104386,14.179017 H 4.3516921 V 13.058972 H 3.9583536 v -0.139344 h 0.9436597 v 0.139344 H 4.5104386 Z m 1.2629175,-0.945424 v 0.945424 H 5.6463589 l -0.02293,-0.125233 h -0.00706 q -0.04586,0.07408 -0.1269972,0.109358 -0.081137,0.03351 -0.1728572,0.03351 -0.1710935,0 -0.2575221,-0.08114 -0.086429,-0.0829 -0.086429,-0.262813 v -0.619112 h 0.1569827 v 0.608529 q 0,0.225773 0.2098981,0.225773 0.1569826,0 0.2169535,-0.08819 0.061735,-0.08819 0.061735,-0.253994 v -0.492115 z m 0.740817,-0.01764 q 0.026458,0 0.056443,0.0035 0.031749,0.0018 0.054679,0.0071 l -0.019402,0.142872 q -0.02293,-0.0053 -0.051152,-0.0088 -0.026458,-0.0035 -0.051152,-0.0035 -0.072318,0 -0.1358165,0.04057 -0.063499,0.0388 -0.1023033,0.111122 -0.037041,0.07055 -0.037041,0.165802 v 0.504461 H 6.0732106 v -0.945424 h 0.1269972 l 0.017638,0.172858 h 0.00706 q 0.04586,-0.07761 0.1181779,-0.134053 0.072318,-0.05644 0.1710935,-0.05644 z m 0.4427266,-0.05115 q 0,0.05997 -0.00353,0.112887 -0.00176,0.05115 -0.00529,0.08114 h 0.00882 q 0.040569,-0.05997 0.1111226,-0.10054 0.070554,-0.04057 0.1816765,-0.04057 0.176385,0 0.282216,0.123469 0.1075948,0.121706 0.1075948,0.365117 0,0.243412 -0.1075948,0.366881 -0.1075948,0.12347 -0.282216,0.12347 -0.1111225,0 -0.1816765,-0.04057 -0.070554,-0.04057 -0.1111226,-0.09701 h -0.012347 l -0.031749,0.119942 H 6.8016809 v -1.340526 h 0.1552188 z m 0.2663414,0.181677 q -0.1499273,0 -0.2081343,0.08643 -0.058207,0.08643 -0.058207,0.268105 v 0.0071 q 0,0.174621 0.056443,0.268105 0.058207,0.09172 0.2134259,0.09172 0.1269972,0 0.1887319,-0.09348 0.063499,-0.09348 0.063499,-0.269869 0,-0.358061 -0.2557582,-0.358061 z m 1.4851612,0.358061 q 0,0.234592 -0.1199418,0.363354 -0.1181779,0.128761 -0.3210207,0.128761 -0.1252333,0 -0.2240089,-0.05644 -0.097012,-0.05821 -0.1534549,-0.167565 -0.056443,-0.111123 -0.056443,-0.268106 0,-0.234592 0.1181779,-0.361589 0.118178,-0.126997 0.3210207,-0.126997 0.128761,0 0.2257728,0.05821 0.098776,0.05644 0.1534549,0.165802 0.056443,0.107595 0.056443,0.264577 z m -0.7143592,0 q 0,0.167566 0.065263,0.266342 0.067026,0.09701 0.2116619,0.09701 0.1428719,0 0.2098982,-0.09701 0.067026,-0.09878 0.067026,-0.266342 0,-0.167565 -0.067026,-0.262813 -0.067026,-0.09525 -0.211662,-0.09525 -0.1446357,0 -0.2098981,0.09525 -0.065263,0.09525 -0.065263,0.262813 z m 1.5345476,-0.05997 q -0.02293,-0.07232 -0.040569,-0.141108 -0.015875,-0.07055 -0.024694,-0.109359 h -0.00706 q -0.00706,0.0388 -0.02293,0.109359 -0.015875,0.06879 -0.040569,0.142871 L 9.2234446,14.177253 H 9.0470596 L 8.7877737,13.23183 H 8.948284 l 0.1305249,0.504461 q 0.019402,0.07585 0.037041,0.153455 0.017639,0.07761 0.024694,0.128761 h 0.00706 q 0.00706,-0.02999 0.015875,-0.07408 0.010583,-0.0441 0.02293,-0.09172 0.012347,-0.04939 0.024694,-0.08819 L 9.3786634,13.23183 H 9.547993 l 0.1622742,0.532682 q 0.019402,0.05997 0.037041,0.130525 0.019402,0.07055 0.026458,0.121706 h 0.00706 q 0.00529,-0.0441 0.02293,-0.121706 0.019402,-0.07761 0.040568,-0.158746 L 9.9766086,13.23183 H 10.135355 L 9.8725414,14.177253 H 9.6908649 Z m 1.1341543,-0.426852 q 0.172857,0 0.255758,0.07584 0.0829,0.07585 0.0829,0.241648 v 0.643805 h -0.112886 l -0.02999,-0.134053 h -0.0071 q -0.06173,0.07761 -0.130525,0.114651 -0.06703,0.03704 -0.186968,0.03704 -0.128761,0 -0.213426,-0.06703 -0.08466,-0.06879 -0.08466,-0.213426 0,-0.141108 0.111123,-0.216953 0.111123,-0.07761 0.342187,-0.08466 l 0.16051,-0.0053 v -0.05644 q 0,-0.118178 -0.05115,-0.164038 -0.05115,-0.04586 -0.144636,-0.04586 -0.07408,0 -0.141108,0.02293 -0.06703,0.02117 -0.125233,0.04939 l -0.04762,-0.116414 q 0.06173,-0.03351 0.146399,-0.05644 0.08467,-0.02469 0.176385,-0.02469 z m 0.04586,0.504461 q -0.176385,0.0071 -0.245175,0.05644 -0.06703,0.04939 -0.06703,0.139344 0,0.07937 0.04762,0.116414 0.04939,0.03704 0.125233,0.03704 0.119942,0 0.199315,-0.06526 0.07937,-0.06703 0.07937,-0.204607 v -0.08466 z m 1.026563,-0.506225 q 0.02646,0 0.05644,0.0035 0.03175,0.0018 0.05468,0.0071 l -0.0194,0.142872 q -0.02293,-0.0053 -0.05115,-0.0088 -0.02646,-0.0035 -0.05115,-0.0035 -0.07232,0 -0.135816,0.04057 -0.0635,0.0388 -0.102303,0.111122 -0.03704,0.07055 -0.03704,0.165802 v 0.504461 h -0.155219 v -0.945424 h 0.126997 l 0.01764,0.172858 h 0.0071 q 0.04586,-0.07761 0.118178,-0.134053 0.07232,-0.05644 0.171094,-0.05644 z m 0.737289,0 q 0.174621,0 0.280452,0.121706 0.107595,0.121705 0.107595,0.36688 0,0.241648 -0.107595,0.366881 -0.105831,0.125234 -0.282216,0.125234 -0.109359,0 -0.181677,-0.04057 -0.07055,-0.04233 -0.111122,-0.09701 h -0.01058 q 0.0035,0.02999 0.0071,0.07585 0.0035,0.04586 0.0035,0.07937 v 0.388047 h -0.155219 v -1.368748 h 0.126997 l 0.02117,0.128762 h 0.0071 q 0.04233,-0.06174 0.111122,-0.104068 0.06879,-0.04233 0.183441,-0.04233 z m -0.02822,0.130525 q -0.144636,0 -0.204607,0.08114 -0.05821,0.08114 -0.06173,0.246939 v 0.02998 q 0,0.174622 0.05644,0.269869 0.05821,0.09348 0.213426,0.09348 0.08643,0 0.141108,-0.04762 0.05644,-0.04762 0.0829,-0.128761 0.02822,-0.0829 0.02822,-0.188732 0,-0.162275 -0.0635,-0.259286 -0.06174,-0.09701 -0.19226,-0.09701 z"
     id="text2284"
     style="font-size:1.76385px;fill:#999999;stroke-width:0.529156"
     aria-label="Turbowarp" />
  <text
     xml:space="preserve"
     transform="scale(0.26457812)"
     id="text3806"
     style="font-size:6.66667px;white-space:pre;shape-inside:url(#rect3808);display:inline;fill:#999999;stroke-width:2" />
</svg>
