<?xml version="1.0" encoding="UTF-8" standalone="no"?>
<svg
   width="64"
   height="64"
   version="1.1"
   viewBox="0 0 16.933 16.933"
   id="svg7"
   sodipodi:docname="Development Template.svg"
   inkscape:version="1.4 (e7c3feb100, 2024-10-09)"
   xmlns:inkscape="http://www.inkscape.org/namespaces/inkscape"
   xmlns:sodipodi="http://sodipodi.sourceforge.net/DTD/sodipodi-0.dtd"
   xmlns:xlink="http://www.w3.org/1999/xlink"
   xmlns="http://www.w3.org/2000/svg"
   xmlns:svg="http://www.w3.org/2000/svg"
   xmlns:rdf="http://www.w3.org/1999/02/22-rdf-syntax-ns#"
   xmlns:cc="http://creativecommons.org/ns#"
   xmlns:dc="http://purl.org/dc/elements/1.1/">
  <sodipodi:namedview
     id="namedview7"
     pagecolor="#9c4444"
     bordercolor="#000000"
     borderopacity="0.25"
     inkscape:showpageshadow="2"
     inkscape:pageopacity="0.0"
     inkscape:pagecheckerboard="0"
     inkscape:deskcolor="#d1d1d1"
     inkscape:zoom="8.7062522"
     inkscape:cx="32.907386"
     inkscape:cy="29.806166"
     inkscape:window-width="1183"
     inkscape:window-height="973"
     inkscape:window-x="35"
     inkscape:window-y="32"
     inkscape:window-maximized="0"
     inkscape:current-layer="svg7"
     showgrid="false" />
  <defs
     id="defs2">
    <rect
       x="67.489848"
       y="35.60533"
       width="15.337563"
       height="22.51269"
       id="rect3808" />
    <linearGradient
       inkscape:collect="always"
       id="linearGradient1134">
      <stop
         style="stop-color:#161616;stop-opacity:1;"
         offset="0"
         id="stop1130" />
      <stop
         style="stop-color:#404040;stop-opacity:1;"
         offset="1"
         id="stop1132" />
    </linearGradient>
    <linearGradient
       inkscape:collect="always"
       id="linearGradient883">
      <stop
         style="stop-color:#808080;stop-opacity:1;"
         offset="0"
         id="stop879" />
      <stop
         style="stop-color:#3e3e3e;stop-opacity:1;"
         offset="0.5"
         id="stop1216" />
      <stop
         style="stop-color:#242424;stop-opacity:1;"
         offset="1"
         id="stop881" />
    </linearGradient>
    <linearGradient
       inkscape:collect="always"
       xlink:href="#linearGradient883"
       id="linearGradient885"
       x1="2.1085808"
       y1="2.0236168"
       x2="14.846128"
       y2="15.071845"
       gradientUnits="userSpaceOnUse" />
    <linearGradient
       inkscape:collect="always"
       xlink:href="#linearGradient1134"
       id="linearGradient1136"
       x1="14.971222"
       y1="14.703373"
       x2="2.0756054"
       y2="2.0069976"
       gradientUnits="userSpaceOnUse" />
    <filter
       style="color-interpolation-filters:sRGB;"
       inkscape:label="Blur"
       id="filter1283"
       x="-0.082344266"
       y="-0.082344266"
       width="1.1646885"
       height="1.1646885">
      <feGaussianBlur
         stdDeviation="0.5 0.5"
         result="blur"
         id="feGaussianBlur1281" />
    </filter>
    <filter
       style="color-interpolation-filters:sRGB;"
       inkscape:label="Blur"
       id="filter1694"
       x="-0.94955398"
       y="-0.2118907"
       width="2.899108"
       height="1.4237814">
      <feGaussianBlur
         stdDeviation="0.2 0.2"
         result="blur"
         id="feGaussianBlur1692" />
    </filter>
    <filter
       style="color-interpolation-filters:sRGB;"
       inkscape:label="Blur"
       id="filter3148"
       x="-0.94955398"
       y="-0.2118907"
       width="2.899108"
       height="1.4237814">
      <feGaussianBlur
         stdDeviation="0.2 0.2"
         result="blur"
         id="feGaussianBlur3146" />
    </filter>
    <clipPath
       clipPathUnits="userSpaceOnUse"
       id="clipPath44">
      <path
         id="path46"
         style="display:block;opacity:0.85;fill:#f2f2f2;stroke-width:4.39162"
         d="m 17.570312,8.4453125 a 6.5431988,7.4283052 9.9958727e-8 0 0 -6.535156,7.4394535 6.5431988,7.4283052 9.9958727e-8 0 0 6.552735,7.417968 6.5431988,7.4283052 9.9958727e-8 0 0 6.535156,-7.4375 6.5431988,7.4283052 9.9958727e-8 0 0 -6.552735,-7.4199215 z M 45.646484,41.177734 a 6.5431986,7.0703472 2.4665357e-6 0 0 -6.533203,7.080078 6.5431986,7.0703472 2.4665357e-6 0 0 6.550781,7.060547 6.5431986,7.0703472 2.4665357e-6 0 0 6.535157,-7.080078 6.5431986,7.0703472 2.4665357e-6 0 0 -6.552735,-7.060547 z" />
    </clipPath>
    <inkscape:path-effect
       effect="powerclip"
       id="path-effect48"
       is_visible="true"
       lpeversion="1"
       inverse="true"
       flatten="false"
       hide_clip="false"
       message="" />
  </defs>
  <metadata
     id="metadata2">
    <rdf:RDF>
      <cc:Work
         rdf:about="">
        <dc:format>image/svg+xml</dc:format>
        <dc:type
           rdf:resource="http://purl.org/dc/dcmitype/StillImage" />
      </cc:Work>
    </rdf:RDF>
  </metadata>
  <rect
     style="fill:#000000;stroke:none;stroke-width:0.539739;stroke-dasharray:none;filter:url(#filter1283)"
     id="rect246-1"
     width="14.572964"
     height="14.572964"
     x="1.1932471"
     y="1.2138842"
     rx="2.1589575"
     ry="2.1589575" />
  <rect
     style="opacity:1;fill:#000000;stroke:url(#linearGradient885);stroke-width:0.52915625;stroke-dasharray:none"
     id="rect246"
     width="14.287219"
     height="14.287219"
     x="1.3361193"
     y="1.3567564"
     rx="2.1166251"
     ry="2.1166251" />
  <rect
     style="fill:url(#linearGradient1136);fill-opacity:1;stroke:none;stroke-width:0.478315;stroke-dasharray:none"
     id="rect246-5"
     width="12.914515"
     height="12.914515"
     x="2.0224717"
     y="2.0431087"
     rx="1.5874687"
     ry="1.5874687" />
  <path
     id="path11"
     style="fill:#999999;fill-opacity:1;stroke-width:0.0315136"
     d="M 8.6108889,3.9274746 C 8.5139927,3.9245264 8.4167686,3.9361647 8.3397523,3.9628189 8.2381345,3.9979862 5.7850727,5.4081997 5.6612588,5.5026376 5.6232676,5.5316146 5.5551001,5.6109495 5.5097483,5.6788641 5.3616127,5.9006991 5.3608194,5.9106657 5.3609571,7.4875948 c 7.02e-5,0.8038077 0.0087,1.4457009 0.020514,1.5178217 0.027077,0.1653543 0.1043252,0.3186873 0.219974,0.4359933 0.070057,0.071061 0.4147772,0.2813488 1.3396176,0.8168712 0.68491,0.396591 1.297321,0.742589 1.3608736,0.76892 0.160785,0.06662 0.4060003,0.06669 0.5674835,2.48e-4 0.063587,-0.02616 0.6758529,-0.372019 1.3608742,-0.768673 0.885463,-0.5127186 1.272241,-0.7480116 1.337887,-0.8136581 0.110439,-0.1104371 0.191916,-0.2688025 0.22195,-0.4317916 0.01438,-0.078035 0.01978,-0.6311538 0.01582,-1.5966656 l -0.0059,-1.4772904 -0.04918,-0.1218509 C 11.649873,5.5673286 11.610417,5.539224 10.245373,4.7487944 9.5636286,4.3540299 8.949366,4.0076263 8.8802976,3.9791324 8.8044148,3.9478266 8.7077876,3.9304239 8.6108911,3.9274754 Z m 0.1690587,0.951326 c 0.00867,2.864e-4 0.4696054,0.2634154 1.0242398,0.5845382 l 1.0084196,0.5837963 0.0055,1.1804455 c 0.0036,0.7808986 -0.0019,1.1801982 -0.01582,1.1801982 -0.01162,0 -0.191145,-0.096288 -0.399167,-0.2140426 L 10.024654,7.9796942 V 7.4900664 c 0,-0.2693374 -0.0053,-0.4898748 -0.01187,-0.4898748 -0.022077,0 -1.0698606,0.6176495 -1.0855352,0.6399022 -0.020375,0.028934 -0.020616,1.1407106 -2.482e-4,1.1532582 0.00867,0.00535 0.212937,-0.1075534 0.4540366,-0.25087 0.2410987,-0.1433164 0.4490812,-0.2605936 0.4621919,-0.2605088 0.023198,1.531e-4 0.7429059,0.4077151 0.7755949,0.439207 0.009,0.00869 -0.255697,0.1721906 -0.588246,0.3635749 C 9.6980312,9.2761389 9.2510049,9.5340367 9.0372379,9.6576767 8.8234709,9.7813174 8.634395,9.8894587 8.6170625,9.8981653 8.5956785,9.9089059 8.2682386,9.7291292 7.5982595,9.3388377 7.0551785,9.0224686 6.5980302,8.7560304 6.5824271,8.7466377 6.5629568,8.7349178 6.6741816,8.6592749 6.9368575,8.505655 7.1473604,8.3825464 7.3294337,8.2817261 7.3417087,8.2817261 c 0.012274,0 0.2139641,0.1134454 0.4481045,0.2521053 0.2341461,0.1386598 0.4356464,0.252105 0.447863,0.252105 0.015071,0 0.022245,-0.1850967 0.022245,-0.5761344 V 7.6334204 L 8.2020797,7.5936272 C 8.0825943,7.5112468 7.1948381,7.0001916 7.1711675,7.0001916 c -0.018206,0 -0.024806,0.128624 -0.025211,0.4886388 l -4.962e-4,0.4883921 -0.27781,0.1567007 C 6.7148489,8.220193 6.540022,8.3178947 6.4793584,8.3509314 L 6.3691241,8.4109917 6.3696205,7.2275806 6.3698687,6.0444163 7.3711219,5.4665517 C 7.9218171,5.1487899 8.3801777,4.8856188 8.3896761,4.8817668 c 0.0095,-0.00384 0.017302,0.2003087 0.017302,0.4535421 V 5.7957716 L 8.0142377,6.0268682 C 7.798229,6.1539696 7.618466,6.2668114 7.6148241,6.2777375 c -0.00771,0.023125 0.9400322,0.5753926 0.9874117,0.5753926 0.048518,3e-7 0.970012,-0.5391773 0.9757955,-0.5709437 0.00302,-0.016494 -0.1612525,-0.1216756 -0.40411,-0.2587786 L 8.7643677,5.7923111 V 5.3353089 c -7.09e-5,-0.2513207 0.0069,-0.4567992 0.015572,-0.4565083 z" />
  <g
     fill="#474747"
     id="g9"
     transform="matrix(0.46959567,0,0,0.46959567,4.7471229,3.7470598)"
     style="fill:#999999;fill-opacity:1;stroke:none;stroke-width:0.58349;stroke-dasharray:none;stroke-opacity:0.3" />
  <g
     aria-label="Krita"
     id="text1450"
     style="font-size:1.76385px;opacity:1;fill:#8a916f;stroke-width:0.529156">
    <rect
       style="font-size:1.76385px;fill:#8a916f;fill-opacity:1;stroke:none;stroke-width:0.519976;stroke-dasharray:none;filter:url(#filter3148)"
       id="rect1656-3"
       width="0.5055005"
       height="2.2653189"
       x="15.369148"
       y="4.3016486"
       rx="0"
       ry="0" />
    <rect
       style="opacity:1;fill:#8a916f;fill-opacity:1;stroke:none;stroke-width:0.519976;stroke-dasharray:none"
       id="rect1656"
       width="0.5055005"
       height="2.2653189"
       x="15.369148"
       y="4.3016486"
       rx="0"
       ry="0" />
  </g>
  <path
     d="m 5.625105,13.734527 q 0,0.130525 -0.052915,0.236356 -0.052916,0.104067 -0.1622742,0.165802 -0.1075948,0.05997 -0.2751606,0.05997 -0.234592,0 -0.3580614,-0.126998 -0.1217063,-0.12876 -0.1217063,-0.338658 v -0.811371 h 0.1587466 v 0.816663 q 0,0.153455 0.081137,0.238119 0.082901,0.08466 0.2487028,0.08466 0.1710935,0 0.2469391,-0.08996 0.077609,-0.09172 0.077609,-0.234592 v -0.81489 h 0.1569831 z m 0.7655125,-0.518572 q 0.1693296,0 0.2557582,0.0829 0.086429,0.08114 0.086429,0.264577 v 0.615584 h -0.153455 v -0.605 q 0,-0.227537 -0.211662,-0.227537 -0.1569826,0 -0.2169535,0.08819 -0.059971,0.08819 -0.059971,0.253995 v 0.49035 h -0.155219 v -0.945421 h 0.1252333 l 0.02293,0.128762 h 0.00882 q 0.04586,-0.07408 0.1269972,-0.109359 0.081137,-0.03704 0.1710935,-0.03704 z M 7.1049766,12.87906 q 0.035277,0 0.061735,0.02469 0.028222,0.02293 0.028222,0.07408 0,0.04939 -0.028222,0.07408 -0.026458,0.02469 -0.061735,0.02469 -0.038805,0 -0.065262,-0.02469 -0.026458,-0.02469 -0.026458,-0.07408 0,-0.05115 0.026458,-0.07408 0.026458,-0.02469 0.065262,-0.02469 z m 0.075846,0.354533 v 0.945424 H 7.0256033 v -0.945424 z m 0.6155828,0.836065 q 0.035277,0 0.072318,-0.0053 0.037041,-0.0071 0.059971,-0.01411 v 0.118178 q -0.024694,0.01235 -0.070554,0.0194 -0.04586,0.0088 -0.088193,0.0088 -0.074082,0 -0.1375803,-0.02469 -0.061735,-0.02646 -0.1005394,-0.08996 -0.038805,-0.0635 -0.038805,-0.178149 V 13.353535 H 7.3589701 v -0.07408 l 0.1358164,-0.06173 0.061735,-0.201079 h 0.09172 v 0.216953 h 0.2733967 v 0.119942 H 7.6482415 v 0.546794 q 0,0.08643 0.040569,0.128761 0.042332,0.04057 0.1075949,0.04057 z m 0.1728574,-0.836065 h 0.1658019 l 0.2046066,0.537975 q 0.026458,0.07055 0.047624,0.135816 0.021166,0.0635 0.031749,0.121706 h 0.00706 q 0.010583,-0.0441 0.033513,-0.11465 0.02293,-0.07232 0.047624,-0.144636 l 0.1922596,-0.536211 h 0.1675658 l -0.4074494,1.075949 q -0.049388,0.134053 -0.128761,0.213426 -0.077609,0.07937 -0.2151897,0.07937 -0.042332,0 -0.074082,-0.0053 -0.031749,-0.0035 -0.054679,-0.0088 v -0.123469 q 0.019402,0.0035 0.04586,0.0071 0.028222,0.0035 0.058207,0.0035 0.081137,0 0.1305249,-0.04586 0.051152,-0.04586 0.079373,-0.121706 l 0.049388,-0.125233 z m 2.0319542,0.945424 H 9.8424711 V 13.591655 H 9.1969025 v 0.587362 H 9.038156 v -1.259389 h 0.1587465 v 0.532683 h 0.6455686 v -0.532683 h 0.1587459 z m 1.112988,-0.945424 v 0.945424 h -0.126997 l -0.02293,-0.125233 h -0.0071 q -0.04586,0.07408 -0.126998,0.109358 -0.08114,0.03351 -0.172857,0.03351 -0.171093,0 -0.257522,-0.08114 -0.08643,-0.0829 -0.08643,-0.262813 v -0.619112 h 0.156983 v 0.608529 q 0,0.225773 0.209898,0.225773 0.156983,0 0.216954,-0.08819 0.06173,-0.08819 0.06173,-0.253994 V 13.23359 Z m 0.455073,-0.06879 q 0,0.05997 -0.0035,0.112887 -0.0018,0.05115 -0.0053,0.08114 h 0.0088 q 0.04057,-0.05997 0.111123,-0.10054 0.07055,-0.04057 0.181677,-0.04057 0.176385,0 0.282216,0.123469 0.107594,0.121706 0.107594,0.365117 0,0.243412 -0.107594,0.366881 -0.107595,0.12347 -0.282216,0.12347 -0.111123,0 -0.181677,-0.04057 -0.07055,-0.04057 -0.111123,-0.09701 h -0.01235 l -0.03175,0.119942 h -0.111119 v -1.340526 h 0.155218 z m 0.266341,0.181677 q -0.149927,0 -0.208134,0.08643 -0.05821,0.08643 -0.05821,0.268105 v 0.0071 q 0,0.174621 0.05644,0.268105 0.05821,0.09172 0.213426,0.09172 0.126997,0 0.188731,-0.09348 0.0635,-0.09348 0.0635,-0.269869 0,-0.358061 -0.255758,-0.358061 z"
     id="text2284"
     style="font-size:1.76385px;fill:#999999;stroke-width:0.529156"
     aria-label="UnityHub" />
  <text
     xml:space="preserve"
     transform="scale(0.26457812)"
     id="text3806"
     style="font-size:6.66667px;white-space:pre;shape-inside:url(#rect3808);display:inline;fill:#999999;stroke-width:2" />
</svg>
