<?xml version="1.0" encoding="UTF-8" standalone="no"?>
<svg
   width="64"
   height="64"
   version="1.1"
   viewBox="0 0 16.933 16.933"
   id="svg7"
   sodipodi:docname="Internet Template.svg"
   inkscape:version="1.4 (e7c3feb100, 2024-10-09)"
   xmlns:inkscape="http://www.inkscape.org/namespaces/inkscape"
   xmlns:sodipodi="http://sodipodi.sourceforge.net/DTD/sodipodi-0.dtd"
   xmlns:xlink="http://www.w3.org/1999/xlink"
   xmlns="http://www.w3.org/2000/svg"
   xmlns:svg="http://www.w3.org/2000/svg"
   xmlns:rdf="http://www.w3.org/1999/02/22-rdf-syntax-ns#"
   xmlns:cc="http://creativecommons.org/ns#"
   xmlns:dc="http://purl.org/dc/elements/1.1/">
  <sodipodi:namedview
     id="namedview7"
     pagecolor="#9c4444"
     bordercolor="#000000"
     borderopacity="0.25"
     inkscape:showpageshadow="2"
     inkscape:pageopacity="0.0"
     inkscape:pagecheckerboard="0"
     inkscape:deskcolor="#d1d1d1"
     inkscape:zoom="6.15625"
     inkscape:cx="15.675127"
     inkscape:cy="29.807107"
     inkscape:window-width="1183"
     inkscape:window-height="973"
     inkscape:window-x="35"
     inkscape:window-y="32"
     inkscape:window-maximized="0"
     inkscape:current-layer="svg7"
     showgrid="false" />
  <defs
     id="defs2">
    <rect
       x="67.489848"
       y="35.60533"
       width="15.337563"
       height="22.51269"
       id="rect3808" />
    <linearGradient
       inkscape:collect="always"
       id="linearGradient1134">
      <stop
         style="stop-color:#161616;stop-opacity:1;"
         offset="0"
         id="stop1130" />
      <stop
         style="stop-color:#404040;stop-opacity:1;"
         offset="1"
         id="stop1132" />
    </linearGradient>
    <linearGradient
       inkscape:collect="always"
       id="linearGradient883">
      <stop
         style="stop-color:#808080;stop-opacity:1;"
         offset="0"
         id="stop879" />
      <stop
         style="stop-color:#3e3e3e;stop-opacity:1;"
         offset="0.5"
         id="stop1216" />
      <stop
         style="stop-color:#242424;stop-opacity:1;"
         offset="1"
         id="stop881" />
    </linearGradient>
    <linearGradient
       inkscape:collect="always"
       xlink:href="#linearGradient883"
       id="linearGradient885"
       x1="2.1085808"
       y1="2.0236168"
       x2="14.846128"
       y2="15.071845"
       gradientUnits="userSpaceOnUse" />
    <linearGradient
       inkscape:collect="always"
       xlink:href="#linearGradient1134"
       id="linearGradient1136"
       x1="14.971222"
       y1="14.703373"
       x2="2.0756054"
       y2="2.0069976"
       gradientUnits="userSpaceOnUse" />
    <filter
       style="color-interpolation-filters:sRGB;"
       inkscape:label="Blur"
       id="filter1283"
       x="-0.082344266"
       y="-0.082344266"
       width="1.1646885"
       height="1.1646885">
      <feGaussianBlur
         stdDeviation="0.5 0.5"
         result="blur"
         id="feGaussianBlur1281" />
    </filter>
    <filter
       style="color-interpolation-filters:sRGB;"
       inkscape:label="Blur"
       id="filter1694"
       x="-0.94955398"
       y="-0.2118907"
       width="2.899108"
       height="1.4237814">
      <feGaussianBlur
         stdDeviation="0.2 0.2"
         result="blur"
         id="feGaussianBlur1692" />
    </filter>
    <filter
       style="color-interpolation-filters:sRGB;"
       inkscape:label="Blur"
       id="filter3148"
       x="-0.94955398"
       y="-0.2118907"
       width="2.899108"
       height="1.4237814">
      <feGaussianBlur
         stdDeviation="0.2 0.2"
         result="blur"
         id="feGaussianBlur3146" />
    </filter>
    <clipPath
       clipPathUnits="userSpaceOnUse"
       id="clipPath44">
      <path
         id="path46"
         style="display:block;opacity:0.85;fill:#f2f2f2;stroke-width:4.39162"
         d="m 17.570312,8.4453125 a 6.5431988,7.4283052 9.9958727e-8 0 0 -6.535156,7.4394535 6.5431988,7.4283052 9.9958727e-8 0 0 6.552735,7.417968 6.5431988,7.4283052 9.9958727e-8 0 0 6.535156,-7.4375 6.5431988,7.4283052 9.9958727e-8 0 0 -6.552735,-7.4199215 z M 45.646484,41.177734 a 6.5431986,7.0703472 2.4665357e-6 0 0 -6.533203,7.080078 6.5431986,7.0703472 2.4665357e-6 0 0 6.550781,7.060547 6.5431986,7.0703472 2.4665357e-6 0 0 6.535157,-7.080078 6.5431986,7.0703472 2.4665357e-6 0 0 -6.552735,-7.060547 z" />
    </clipPath>
    <inkscape:path-effect
       effect="powerclip"
       id="path-effect48"
       is_visible="true"
       lpeversion="1"
       inverse="true"
       flatten="false"
       hide_clip="false"
       message="" />
  </defs>
  <metadata
     id="metadata2">
    <rdf:RDF>
      <cc:Work
         rdf:about="">
        <dc:format>image/svg+xml</dc:format>
        <dc:type
           rdf:resource="http://purl.org/dc/dcmitype/StillImage" />
      </cc:Work>
    </rdf:RDF>
  </metadata>
  <rect
     style="fill:#000000;stroke:none;stroke-width:0.539739;stroke-dasharray:none;filter:url(#filter1283)"
     id="rect246-1"
     width="14.572964"
     height="14.572964"
     x="1.1932471"
     y="1.2138842"
     rx="2.1589575"
     ry="2.1589575" />
  <rect
     style="opacity:1;fill:#000000;stroke:url(#linearGradient885);stroke-width:0.52915625;stroke-dasharray:none"
     id="rect246"
     width="14.287219"
     height="14.287219"
     x="1.3361193"
     y="1.3567564"
     rx="2.1166251"
     ry="2.1166251" />
  <rect
     style="fill:url(#linearGradient1136);fill-opacity:1;stroke:none;stroke-width:0.478315;stroke-dasharray:none"
     id="rect246-5"
     width="12.914515"
     height="12.914515"
     x="2.0224717"
     y="2.0431087"
     rx="1.5874687"
     ry="1.5874687" />
  <path
     style="fill:#999999;fill-opacity:1;stroke-width:0.0466265"
     d="M 6.7879549,10.692204 V 9.9450957 L 6.7254391,9.9294087 C 6.6372919,9.9072813 6.3156123,9.7441756 6.1859072,9.6558378 5.7139059,9.3343745 5.3432243,8.8048084 5.1854257,8.2265211 L 5.1218105,7.9933891 5.1215241,6.8393864 5.1212376,5.6853836 5.185177,5.4522517 C 5.307409,5.0065778 5.5283646,4.6216352 5.8419388,4.3080612 6.1419084,4.0080917 6.4944423,3.800308 6.8979173,3.6856675 c 0.1780639,-0.050594 0.2074616,-0.05156 1.5685996,-0.05156 1.3611381,0 1.3905359,9.72e-4 1.5685981,0.05156 0.403476,0.1146405 0.75601,0.3224242 1.05598,0.6223937 0.313574,0.313574 0.534529,0.6985166 0.656761,1.1441905 l 0.06394,0.2331319 -2.87e-4,1.1540028 -2.86e-4,1.1540027 -0.06214,0.2262732 C 11.556233,8.9219846 11.09366,9.5037041 10.48599,9.808095 10.056951,10.02301 9.8511884,10.056607 8.9640468,10.056607 H 8.2787088 L 7.584887,10.703547 C 7.2032849,11.059365 6.8678708,11.370473 6.839522,11.3949 L 6.787978,11.43932 Z M 9.5863352,8.9235188 C 9.6886627,8.8931268 9.7439034,8.8544096 9.8821385,8.7161766 10.147804,8.4505098 10.223712,8.233474 10.111082,8.0615783 10.05807,7.9806733 9.7086465,7.7059865 9.4925954,7.575378 9.2776111,7.4454143 9.1291554,7.41511 9.0098078,7.4768271 8.9709991,7.4968956 8.8842963,7.5767456 8.8171349,7.6542711 8.7089464,7.7791546 8.6853177,7.7951549 8.6099055,7.7945959 8.5012926,7.7937939 8.2600035,7.6910011 8.0803607,7.5690081 7.8150498,7.3888387 7.5547915,7.0624809 7.4251695,6.747412 7.3457358,6.5543348 7.3526375,6.4778293 7.4575367,6.3886178 7.7003692,6.1821007 7.7445876,6.1009424 7.7112107,5.9230278 7.6805773,5.7597367 7.2392274,5.1393974 7.0845645,5.0422448 6.9736413,4.9725674 6.8216019,4.9919637 6.665775,5.0956711 6.3979033,5.2739481 6.2051254,5.5353932 6.2051254,5.7204036 c 0,0.1294497 0.08417,0.3512988 0.2786008,0.7343147 0.452338,0.8910771 0.9105828,1.419996 1.6437129,1.8972197 0.4110631,0.2675779 1.1243986,0.6051763 1.2848465,0.6080761 0.026523,4.779e-4 0.1048454,-0.015941 0.1740496,-0.036491 z M 9.881279,6.3690584 c 0.044496,-0.041797 0.053964,-0.074649 0.053964,-0.1872411 0,-0.4235543 -0.306941,-0.8039761 -0.7377309,-0.9143427 -0.3009569,-0.077104 -0.4512429,-0.032297 -0.4512429,0.134537 0,0.1057765 0.064111,0.1576378 0.2263164,0.1830741 0.3610319,0.056615 0.549416,0.2425879 0.5915481,0.5839756 0.015734,0.127457 0.033054,0.1791365 0.070348,0.2098891 0.068169,0.05621 0.1812668,0.051675 0.2468031,-0.00989 z m 0.789381,-0.00652 C 10.74,6.2932064 10.74532,6.1761947 10.69286,5.8753568 10.594489,5.3112138 10.279383,4.8802093 9.789521,4.6397392 9.5236001,4.5092004 9.3583461,4.4647485 9.0726475,4.4469057 c -0.2049214,-0.012797 -0.225396,-0.010092 -0.27393,0.036229 -0.034651,0.03307 -0.052455,0.077448 -0.052455,0.1307489 0,0.1301935 0.053591,0.1628263 0.3168424,0.1929336 0.2808855,0.032125 0.4760108,0.095555 0.6602389,0.2146274 0.2423945,0.1566666 0.4207322,0.3669394 0.5163632,0.6088291 0.05852,0.1480164 0.115165,0.4268668 0.115165,0.5669055 0,0.2025593 0.18284,0.2982934 0.315788,0.1653445 z"
     id="path7" />
  <g
     aria-label="Krita"
     id="text1450"
     style="font-size:1.76385px;opacity:1;fill:#ffff00;stroke-width:0.529156">
    <rect
       style="font-size:1.76385px;fill:#ffff00;fill-opacity:1;stroke:none;stroke-width:0.519976;stroke-dasharray:none;filter:url(#filter3148)"
       id="rect1656-3"
       width="0.5055005"
       height="2.2653189"
       x="15.369148"
       y="4.3016486"
       rx="0"
       ry="0" />
    <rect
       style="opacity:1;fill:#ffff00;fill-opacity:1;stroke:none;stroke-width:0.519976;stroke-dasharray:none"
       id="rect1656"
       width="0.5055005"
       height="2.2653189"
       x="15.369148"
       y="4.3016486"
       rx="0"
       ry="0" />
  </g>
  <path
     d="M 7.2213931,12.919628 6.7716113,14.179017 H 6.6128648 L 6.1630831,12.919628 H 6.328885 l 0.2839798,0.807843 q 0.028222,0.07761 0.047624,0.1464 0.019402,0.06703 0.031749,0.128761 0.012347,-0.06174 0.031749,-0.130525 0.019402,-0.06879 0.047624,-0.148163 l 0.282216,-0.804316 z m 0.2293011,-0.04057 q 0.035277,0 0.061735,0.02469 0.028221,0.02293 0.028221,0.07408 0,0.04939 -0.028221,0.07408 -0.026458,0.02469 -0.061735,0.02469 -0.038805,0 -0.065262,-0.02469 -0.026458,-0.02469 -0.026458,-0.07408 0,-0.05115 0.026458,-0.07408 0.026458,-0.02469 0.065262,-0.02469 z m 0.075845,0.354533 v 0.945424 H 7.371321 v -0.945424 z m 0.4550723,-0.06879 q 0,0.05997 -0.00353,0.112887 -0.00176,0.05115 -0.00529,0.08114 h 0.00882 q 0.040569,-0.05997 0.1111226,-0.10054 0.070554,-0.04057 0.1816765,-0.04057 0.176385,0 0.282216,0.123469 0.1075949,0.121706 0.1075949,0.365117 0,0.243412 -0.1075949,0.366881 -0.1075948,0.12347 -0.282216,0.12347 -0.1111225,0 -0.1816765,-0.04057 -0.070554,-0.04057 -0.1111226,-0.09701 h -0.012347 l -0.031749,0.119942 H 7.8263932 V 12.838491 H 7.981612 Z m 0.2663414,0.181677 q -0.1499273,0 -0.2081343,0.08643 -0.058207,0.08643 -0.058207,0.268105 v 0.0071 q 0,0.174621 0.056443,0.268105 0.058207,0.09172 0.2134259,0.09172 0.1269972,0 0.1887319,-0.09348 0.063499,-0.09348 0.063499,-0.269869 0,-0.358061 -0.2557582,-0.358061 z m 1.0283241,-0.130525 q 0.1217057,0 0.2081343,0.05292 0.088192,0.05292 0.1340526,0.149928 0.047624,0.09525 0.047624,0.224009 v 0.09348 h -0.647333 q 0.00353,0.16051 0.081137,0.245175 0.079373,0.0829 0.2204813,0.0829 0.089956,0 0.1587465,-0.01588 0.070554,-0.01764 0.1446357,-0.04939 v 0.135817 q -0.072318,0.03175 -0.1428719,0.04586 -0.070554,0.01588 -0.1675657,0.01588 -0.1340526,0 -0.2381198,-0.05468 -0.1023033,-0.05468 -0.1605103,-0.162274 -0.056443,-0.109359 -0.056443,-0.266341 0,-0.155219 0.051152,-0.266342 0.052915,-0.111122 0.1463996,-0.171093 0.095248,-0.05997 0.2204812,-0.05997 z m -0.00176,0.126997 q -0.1111226,0 -0.176385,0.07232 -0.063499,0.07055 -0.075846,0.197551 h 0.4815311 q -0.00176,-0.119942 -0.056443,-0.194023 -0.054679,-0.07585 -0.1728573,-0.07585 z m 1.0724193,-0.126997 q 0.02646,0 0.05644,0.0035 0.03175,0.0018 0.05468,0.0071 l -0.0194,0.142872 q -0.02293,-0.0053 -0.05115,-0.0088 -0.02646,-0.0035 -0.05115,-0.0035 -0.07232,0 -0.135817,0.04057 -0.0635,0.0388 -0.102303,0.111122 -0.03704,0.07055 -0.03704,0.165802 v 0.504461 H 9.9059704 v -0.945424 h 0.1269976 l 0.01764,0.172858 h 0.0071 q 0.04586,-0.07761 0.118177,-0.134053 0.07232,-0.05644 0.171094,-0.05644 z"
     id="text2284"
     style="font-size:1.76385px;fill:#999999;stroke-width:0.529156"
     aria-label="Viber" />
  <text
     xml:space="preserve"
     transform="scale(0.26457812)"
     id="text3806"
     style="fill:#999999;stroke-width:2;font-size:6.66666667px;white-space:pre;shape-inside:url(#rect3808)" />
</svg>
