<?xml version="1.0" encoding="UTF-8" standalone="no"?>
<svg
   width="64"
   height="64"
   version="1.1"
   viewBox="0 0 16.933 16.933"
   id="svg7"
   sodipodi:docname="vscodium-insiders.svg"
   inkscape:version="1.4 (e7c3feb100, 2024-10-09)"
   xmlns:inkscape="http://www.inkscape.org/namespaces/inkscape"
   xmlns:sodipodi="http://sodipodi.sourceforge.net/DTD/sodipodi-0.dtd"
   xmlns:xlink="http://www.w3.org/1999/xlink"
   xmlns="http://www.w3.org/2000/svg"
   xmlns:svg="http://www.w3.org/2000/svg"
   xmlns:rdf="http://www.w3.org/1999/02/22-rdf-syntax-ns#"
   xmlns:cc="http://creativecommons.org/ns#"
   xmlns:dc="http://purl.org/dc/elements/1.1/">
  <sodipodi:namedview
     id="namedview7"
     pagecolor="#9c4444"
     bordercolor="#000000"
     borderopacity="0.25"
     inkscape:showpageshadow="2"
     inkscape:pageopacity="0.0"
     inkscape:pagecheckerboard="0"
     inkscape:deskcolor="#d1d1d1"
     inkscape:zoom="6.15625"
     inkscape:cx="15.675127"
     inkscape:cy="29.807107"
     inkscape:window-width="1183"
     inkscape:window-height="973"
     inkscape:window-x="35"
     inkscape:window-y="32"
     inkscape:window-maximized="0"
     inkscape:current-layer="svg7"
     showgrid="false" />
  <defs
     id="defs2">
    <rect
       x="67.489848"
       y="35.60533"
       width="15.337563"
       height="22.51269"
       id="rect3808" />
    <linearGradient
       inkscape:collect="always"
       id="linearGradient1134">
      <stop
         style="stop-color:#161616;stop-opacity:1;"
         offset="0"
         id="stop1130" />
      <stop
         style="stop-color:#404040;stop-opacity:1;"
         offset="1"
         id="stop1132" />
    </linearGradient>
    <linearGradient
       inkscape:collect="always"
       id="linearGradient883">
      <stop
         style="stop-color:#808080;stop-opacity:1;"
         offset="0"
         id="stop879" />
      <stop
         style="stop-color:#3e3e3e;stop-opacity:1;"
         offset="0.5"
         id="stop1216" />
      <stop
         style="stop-color:#242424;stop-opacity:1;"
         offset="1"
         id="stop881" />
    </linearGradient>
    <linearGradient
       inkscape:collect="always"
       xlink:href="#linearGradient883"
       id="linearGradient885"
       x1="2.1085808"
       y1="2.0236168"
       x2="14.846128"
       y2="15.071845"
       gradientUnits="userSpaceOnUse" />
    <linearGradient
       inkscape:collect="always"
       xlink:href="#linearGradient1134"
       id="linearGradient1136"
       x1="14.971222"
       y1="14.703373"
       x2="2.0756054"
       y2="2.0069976"
       gradientUnits="userSpaceOnUse" />
    <filter
       style="color-interpolation-filters:sRGB;"
       inkscape:label="Blur"
       id="filter1283"
       x="-0.082344266"
       y="-0.082344266"
       width="1.1646885"
       height="1.1646885">
      <feGaussianBlur
         stdDeviation="0.5 0.5"
         result="blur"
         id="feGaussianBlur1281" />
    </filter>
    <filter
       style="color-interpolation-filters:sRGB;"
       inkscape:label="Blur"
       id="filter1694"
       x="-0.94955398"
       y="-0.2118907"
       width="2.899108"
       height="1.4237814">
      <feGaussianBlur
         stdDeviation="0.2 0.2"
         result="blur"
         id="feGaussianBlur1692" />
    </filter>
    <filter
       style="color-interpolation-filters:sRGB;"
       inkscape:label="Blur"
       id="filter3148"
       x="-0.94955398"
       y="-0.2118907"
       width="2.899108"
       height="1.4237814">
      <feGaussianBlur
         stdDeviation="0.2 0.2"
         result="blur"
         id="feGaussianBlur3146" />
    </filter>
    <clipPath
       clipPathUnits="userSpaceOnUse"
       id="clipPath44">
      <path
         id="path46"
         style="display:block;opacity:0.85;fill:#f2f2f2;stroke-width:4.39162"
         d="m 17.570312,8.4453125 a 6.5431988,7.4283052 9.9958727e-8 0 0 -6.535156,7.4394535 6.5431988,7.4283052 9.9958727e-8 0 0 6.552735,7.417968 6.5431988,7.4283052 9.9958727e-8 0 0 6.535156,-7.4375 6.5431988,7.4283052 9.9958727e-8 0 0 -6.552735,-7.4199215 z M 45.646484,41.177734 a 6.5431986,7.0703472 2.4665357e-6 0 0 -6.533203,7.080078 6.5431986,7.0703472 2.4665357e-6 0 0 6.550781,7.060547 6.5431986,7.0703472 2.4665357e-6 0 0 6.535157,-7.080078 6.5431986,7.0703472 2.4665357e-6 0 0 -6.552735,-7.060547 z" />
    </clipPath>
    <inkscape:path-effect
       effect="powerclip"
       id="path-effect48"
       is_visible="true"
       lpeversion="1"
       inverse="true"
       flatten="false"
       hide_clip="false"
       message="" />
  </defs>
  <metadata
     id="metadata2">
    <rdf:RDF>
      <cc:Work
         rdf:about="">
        <dc:format>image/svg+xml</dc:format>
        <dc:type
           rdf:resource="http://purl.org/dc/dcmitype/StillImage" />
      </cc:Work>
    </rdf:RDF>
  </metadata>
  <rect
     style="fill:#000000;stroke:none;stroke-width:0.539739;stroke-dasharray:none;filter:url(#filter1283)"
     id="rect246-1"
     width="14.572964"
     height="14.572964"
     x="1.1932471"
     y="1.2138842"
     rx="2.1589575"
     ry="2.1589575" />
  <rect
     style="opacity:1;fill:#000000;stroke:url(#linearGradient885);stroke-width:0.52915625;stroke-dasharray:none"
     id="rect246"
     width="14.287219"
     height="14.287219"
     x="1.3361193"
     y="1.3567564"
     rx="2.1166251"
     ry="2.1166251" />
  <rect
     style="fill:url(#linearGradient1136);fill-opacity:1;stroke:none;stroke-width:0.478315;stroke-dasharray:none"
     id="rect246-5"
     width="12.914515"
     height="12.914515"
     x="2.0224717"
     y="2.0431087"
     rx="1.5874687"
     ry="1.5874687" />
  <path
     d="M 8.5120986,11.099877 C 8.4340045,11.078621 8.3660763,11.028715 8.3187116,10.957783 8.248473,10.853118 8.2251371,10.777335 8.1396495,10.376467 8.103837,10.209419 8.0513891,10.098054 7.9628978,10.00217 7.8083267,9.8348908 7.6297265,9.7755106 7.206909,9.7507894 6.733954,9.7230643 6.5659821,9.681244 6.4079454,9.5525504 6.2284212,9.4060666 6.1533306,9.2406354 6.0461246,8.753587 5.9798137,8.4527619 5.9419218,8.3312308 5.8638276,8.1692664 5.7203469,7.8716766 5.5232629,7.6406287 5.2376878,7.4349959 5.0537737,7.3026057 4.9987845,7.2219698 5.0290515,7.1288574 5.0537727,7.0533046 5.1320989,7.0045536 5.2293701,7.0045536 c 0.078325,0 0.1261521,0.01941 0.188304,0.076477 0.059611,0.054759 0.09473,0.1065132 0.1772137,0.2601596 0.075091,0.1404776 0.1474086,0.2428318 0.1714377,0.2428318 0.014556,0 0.016866,-0.05938 0.016866,-0.4258217 0,-0.2546148 0.00463,-0.4429187 0.011554,-0.4685648 0.014094,-0.051293 0.069776,-0.1021232 0.1118273,-0.1021232 0.069776,2.292e-4 0.1298489,0.067234 0.1603471,0.1795243 0.00693,0.025646 0.036275,0.2809541 0.065155,0.5679159 0.028881,0.2867304 0.056837,0.5258649 0.061921,0.5316408 0.016173,0.01733 0.089646,-0.074858 0.1374738,-0.1725927 0.046903,-0.095885 0.078557,-0.2181089 0.079019,-0.3045213 0,-0.027494 -0.012939,-0.1143684 -0.029112,-0.1933866 -0.023798,-0.1173718 -0.026802,-0.1520291 -0.017097,-0.1889966 0.031191,-0.1171413 0.1596542,-0.1365493 0.2439867,-0.036505 0.060998,0.072319 0.082022,0.1543402 0.08156,0.3179219 0,0.1772137 -0.015249,0.2432934 -0.144174,0.6420824 -0.1113652,0.3444924 -0.1464842,0.4972149 -0.1462532,0.6358445 0,0.497214 0.4110344,0.8211438 1.0981706,0.8675843 0.061227,0.00397 0.1111341,0.00348 0.1111341,-0.00113 0,-0.0047 -0.038122,-0.079712 -0.085026,-0.1668163 C 7.3624066,8.9658896 7.2970203,8.7563296 7.2970203,8.5398375 c 0,-0.1628893 0.023567,-0.2624708 0.1270763,-0.5339522 C 7.56596,7.6343605 7.5798228,7.574057 7.5798228,7.3289152 7.5800521,7.2013767 7.5742777,7.1221273 7.5599527,7.0548923 7.4827827,6.6893743 7.2928613,6.3753805 7.0248458,6.1702099 6.9185637,6.088881 6.8869101,6.0713213 6.6151979,5.9440141 6.3538824,5.8215585 6.2857235,5.7790458 6.1812899,5.6723016 6.0690004,5.5577019 6.0214048,5.4638965 6.0137802,5.3425963 c -0.00463,-0.074859 -0.00277,-0.086643 0.015943,-0.096809 0.043206,-0.023105 0.1349323,-0.027264 0.2169543,-0.00994 0.1520295,0.032116 0.2883473,0.1199139 0.5062259,0.3255466 0.2322028,0.2190333 0.3629763,0.3001312 0.5228615,0.323467 0.077863,0.011319 0.085719,0.010628 0.1002748,-0.0097 C 7.399838,5.8421218 7.3963721,5.7192041 7.3693433,5.646424 7.3196624,5.5124164 7.2133805,5.4128347 6.975632,5.2781338 6.8226785,5.1914908 6.7196309,5.1173244 6.6736525,5.0609487 6.5611322,4.9230131 6.5382585,4.7206153 6.6235152,4.6175678 c 0.080866,-0.097502 0.2178782,-0.1083616 0.3756836,-0.030036 0.076708,0.037893 0.1111342,0.065849 0.2275824,0.1850696 0.3401026,0.3479581 0.5448108,0.8042774 0.6349197,1.4151682 0.02403,0.1628887 0.020795,0.7774761 -0.00532,0.9907334 -0.024721,0.2033221 -0.064231,0.4445362 -0.1104408,0.6767392 -0.040203,0.2010119 -0.043206,0.2932001 -0.012477,0.3622831 0.022874,0.050831 0.070007,0.084794 0.1176033,0.084794 0.054066,0 0.1497191,-0.062615 0.259929,-0.16982 C 8.2909864,7.9569029 8.391723,7.7870827 8.449485,7.5620419 8.474669,7.4640779 8.47906,7.4157888 8.486453,7.1600185 8.494073,6.8899238 8.496393,6.8656636 8.52111,6.8143709 8.556691,6.7395119 8.62254,6.6916846 8.690006,6.6916846 c 0.043668,0 0.057069,0.00624 0.094037,0.043667 0.096347,0.097965 0.093113,0.226196 -0.01756,0.682978 C 8.687466,7.7436457 8.5823391,7.9945637 8.4485625,8.1747811 8.4085914,8.2290769 8.2905257,8.3556917 8.1865542,8.4564286 8.0617884,8.5772674 7.9783802,8.6685306 7.9411812,8.7249066 7.7237651,9.0550747 7.8397511,9.378772 8.1969514,9.4386132 8.3464392,9.4637961 8.5121007,9.4150422 8.625083,9.3126922 8.7828887,9.1703663 8.9300663,8.8531376 9.0331139,8.4333233 9.1865298,7.8097257 9.235743,7.1313688 9.1558004,6.7429776 9.0834824,6.3917846 8.9383843,6.0974298 8.734369,5.8885624 8.6786865,5.8314934 8.5580796,5.732374 8.4358553,5.6431894 8.0948286,5.3945819 7.9575862,5.2340036 7.9102211,5.0276778 7.8866537,4.9253236 7.8926615,4.8211212 7.9231599,4.7977852 c 0.039509,-0.030267 0.13886,-0.044823 0.2074811,-0.030961 0.1698201,0.034657 0.319077,0.1693581 0.4761897,0.4302114 0.1236107,0.2049392 0.1799864,0.2814161 0.2647809,0.3581242 0.063077,0.056837 0.094961,0.072548 0.094961,0.046441 0,-0.0067 -0.030267,-0.0707 -0.067004,-0.1418634 C 8.6313218,4.9419591 8.4386279,4.5514881 8.4127505,4.473163 8.3542954,4.2959491 8.3877979,4.1704903 8.507711,4.1166559 c 0.1363185,-0.061227 0.2878857,0.037893 0.360666,0.2358999 0.01548,0.042282 0.1159859,0.3863122 0.2234232,0.7647686 0.231741,0.8169854 0.2160299,0.7656927 0.2324341,0.7601476 0.020101,-0.0067 0.095654,-0.1936182 0.1337769,-0.3313227 0.049907,-0.1809105 0.071394,-0.3692143 0.064,-0.5577497 C 9.514387,4.8037925 9.4952098,4.6843408 9.4275129,4.4056969 9.3910072,4.2557467 9.3773754,4.1758044 9.3773754,4.1134213 c 0,-0.1474085 0.057763,-0.2675535 0.1571125,-0.3269329 0.1104408,-0.065848 0.2767957,-0.032809 0.3883914,0.07717 0.1095177,0.1078996 0.1450967,0.2250411 0.1356267,0.4468469 -0.01017,0.2372862 -0.04875,0.3814603 -0.2647823,0.9907334 -0.1924635,0.5434246 -0.250225,0.7458225 -0.2848821,0.998589 -0.022872,0.1658924 -0.022413,0.4272075 0,0.5665293 0.020102,0.1217624 0.060997,0.2564633 0.079019,0.2622395 0.00649,0.00208 0.062614,-0.1409392 0.1243044,-0.3179219 0.151335,-0.4332152 0.1716678,-0.4819663 0.219033,-0.524017 0.093573,-0.083639 0.232664,-0.012015 0.232664,0.1194516 0,0.11021 -0.2338205,0.8054331 -0.828999,2.467361 -0.166355,0.4639448 -0.3005939,0.8516426 -0.2987457,0.861578 0.00278,0.011778 0.24029,-0.2007811 0.6769709,-0.6044213 0.9329708,-0.8622715 0.9468348,-0.8768275 1.0071378,-1.053117 0.02425,-0.070701 0.02749,-0.096116 0.02241,-0.1806797 C 10.734523,7.7616674 10.690183,7.6447571 10.555724,7.4037743 10.3963,7.1184299 10.345702,6.99713 10.329066,6.862198 10.29533,6.5879438 10.53701,6.409575 10.707523,6.5828608 c 0.09473,0.096116 0.225965,0.4272078 0.283265,0.7146313 0.01571,0.079481 0.02865,0.1552641 0.02865,0.1684339 0,0.066542 0.03535,0.011319 0.177907,-0.2784125 0.206093,-0.4188902 0.244218,-0.476421 0.355119,-0.534645 0.09727,-0.05083 0.216031,0.0023 0.280724,0.1256903 0.03512,0.066773 0.03396,0.1926937 -0.0025,0.305214 -0.09658,0.2975896 -0.476651,0.930892 -0.886069,1.4763963 -0.02287,0.030268 -0.03535,0.054988 -0.02795,0.054988 0.0076,0 0.04251,-0.017095 0.07809,-0.038127 0.220421,-0.1300797 0.376379,-0.1386287 0.530025,-0.02865 0.04712,0.033498 0.09935,0.1328526 0.09912,0.1885352 -2.29e-4,0.062621 -0.03466,0.1353939 -0.0811,0.1709756 -0.0848,0.065156 -0.173979,0.086182 -0.426052,0.1009681 -0.415206,0.024033 -0.730354,0.1374727 -1.032796,0.3715246 -0.2384419,0.1843765 -0.377763,0.3703699 -0.6162053,0.8222994 -0.1943112,0.367828 -0.2851128,0.501142 -0.4667167,0.68367 -0.1314661,0.132159 -0.2294304,0.195005 -0.3412576,0.218802 -0.073011,0.01549 -0.072549,0.01549 -0.148795,-0.0053 z"
     fill="url(#b)"
     fill-rule="nonzero"
     id="path4"
     style="fill:#999999;fill-opacity:1;stroke-width:0.231049" />
  <g
     fill="#474747"
     id="g9"
     transform="matrix(0.46959567,0,0,0.46959567,4.7471229,3.7470598)"
     style="fill:#999999;fill-opacity:1;stroke:none;stroke-width:0.58349;stroke-dasharray:none;stroke-opacity:0.3" />
  <g
     aria-label="Krita"
     id="text1450"
     style="font-size:1.76385px;opacity:1;fill:#8a916f;stroke-width:0.529156">
    <rect
       style="font-size:1.76385px;fill:#8a916f;fill-opacity:1;stroke:none;stroke-width:0.519976;stroke-dasharray:none;filter:url(#filter3148)"
       id="rect1656-3"
       width="0.5055005"
       height="2.2653189"
       x="15.369148"
       y="4.3016486"
       rx="0"
       ry="0" />
    <rect
       style="opacity:1;fill:#8a916f;fill-opacity:1;stroke:none;stroke-width:0.519976;stroke-dasharray:none"
       id="rect1656"
       width="0.5055005"
       height="2.2653189"
       x="15.369148"
       y="4.3016486"
       rx="0"
       ry="0" />
  </g>
  <g
     aria-label="Insiders"
     id="text2284"
     style="font-size:1.76385px;text-align:center;text-anchor:middle;opacity:1;fill:#999999;stroke-width:0.529156">
    <path
       d="M 5.5863868,14.179017 H 5.1313135 v -0.09172 l 0.1481634,-0.03351 v -1.007159 l -0.1481634,-0.03528 v -0.09172 h 0.4550733 v 0.09172 l -0.1481634,0.03528 v 1.007159 l 0.1481634,0.03351 z"
       id="path2735" />
    <path
       d="m 6.2637064,13.215955 q 0.1693296,0 0.2557583,0.0829 0.086429,0.08114 0.086429,0.264577 v 0.615584 H 6.4524384 v -0.605 q 0,-0.227537 -0.211662,-0.227537 -0.1569827,0 -0.2169536,0.08819 -0.059971,0.08819 -0.059971,0.253995 v 0.49035 H 5.8086331 v -0.945424 h 0.1252334 l 0.02293,0.128762 h 0.00882 q 0.04586,-0.07408 0.1269972,-0.109359 0.081137,-0.03704 0.1710934,-0.03704 z"
       id="path2737" />
    <path
       d="m 7.514276,13.917967 q 0,0.137581 -0.1023032,0.208135 -0.1023033,0.07055 -0.2751606,0.07055 -0.098776,0 -0.1710935,-0.01588 -0.070554,-0.01587 -0.1252333,-0.0441 v -0.141108 q 0.056443,0.02822 0.1358164,0.05291 0.081137,0.02293 0.1640381,0.02293 0.1181779,0 0.1710934,-0.03704 0.052916,-0.0388 0.052916,-0.102303 0,-0.03528 -0.019402,-0.0635 -0.019402,-0.02822 -0.070554,-0.05644 -0.049388,-0.02822 -0.1428719,-0.0635 -0.09172,-0.03528 -0.1569826,-0.07055 -0.065263,-0.03528 -0.1005395,-0.08466 -0.035277,-0.04939 -0.035277,-0.126997 0,-0.119942 0.097012,-0.185205 0.098776,-0.06526 0.2575221,-0.06526 0.086429,0 0.1605103,0.01764 0.075846,0.01587 0.141108,0.04586 l -0.052916,0.123469 q -0.059971,-0.02469 -0.1252333,-0.04233 -0.065262,-0.01764 -0.1340526,-0.01764 -0.095248,0 -0.1463996,0.03175 -0.049388,0.02999 -0.049388,0.0829 0,0.0388 0.02293,0.06703 0.02293,0.02646 0.075846,0.05292 0.054679,0.02469 0.1446357,0.05997 0.089956,0.03351 0.153455,0.06879 0.063499,0.03528 0.097012,0.08643 0.033513,0.04939 0.033513,0.125233 z"
       id="path2739" />
    <path
       d="m 7.8229498,12.87906 q 0.035277,0 0.061735,0.02469 0.028222,0.02293 0.028222,0.07408 0,0.04939 -0.028222,0.07408 -0.026458,0.02469 -0.061735,0.02469 -0.038805,0 -0.065262,-0.02469 -0.026458,-0.02469 -0.026458,-0.07408 0,-0.05115 0.026458,-0.07408 0.026458,-0.02469 0.065262,-0.02469 z m 0.075846,0.354533 v 0.945424 H 7.7435766 v -0.945424 z"
       id="path2741" />
    <path
       d="m 8.5337805,14.196656 q -0.176385,0 -0.282216,-0.121706 -0.105831,-0.12347 -0.105831,-0.366881 0,-0.243411 0.105831,-0.366881 0.1075948,-0.125233 0.2839798,-0.125233 0.1093587,0 0.1781489,0.04057 0.070554,0.04057 0.1146502,0.09877 h 0.010583 q -0.00176,-0.02293 -0.00706,-0.06703 -0.00353,-0.04586 -0.00353,-0.07232 v -0.377464 h 0.1552188 v 1.340526 H 8.8583289 l -0.02293,-0.126997 h -0.00706 q -0.042332,0.05997 -0.1128864,0.102303 -0.070554,0.04233 -0.1816765,0.04233 z m 0.024694,-0.128761 q 0.1499272,0 0.2098981,-0.08114 0.061735,-0.0829 0.061735,-0.248702 v -0.02822 q 0,-0.176385 -0.058207,-0.269869 -0.058207,-0.09525 -0.2151897,-0.09525 -0.1252333,0 -0.1887319,0.100539 -0.061735,0.09878 -0.061735,0.266342 0,0.169329 0.061735,0.262813 0.063499,0.09348 0.1904958,0.09348 z"
       id="path2743" />
    <path
       d="m 9.6485333,13.215955 q 0.1217056,0 0.2081343,0.05292 0.088192,0.05292 0.1340526,0.149928 0.047624,0.09525 0.047624,0.224009 v 0.09348 H 9.3910112 q 0.00353,0.16051 0.081137,0.245175 0.079373,0.0829 0.2204812,0.0829 0.089956,0 0.1587465,-0.01588 0.070554,-0.01764 0.1446357,-0.04939 v 0.135817 q -0.072318,0.03175 -0.1428718,0.04586 -0.070554,0.01588 -0.1675658,0.01588 -0.1340526,0 -0.2381197,-0.05468 -0.1023033,-0.05468 -0.1605104,-0.162274 -0.056443,-0.109359 -0.056443,-0.266341 0,-0.155219 0.051152,-0.266342 0.052916,-0.111122 0.1463995,-0.171093 0.095248,-0.05997 0.2204813,-0.05997 z m -0.00176,0.126997 q -0.1111225,0 -0.176385,0.07232 -0.063499,0.07055 -0.075845,0.197551 h 0.481531 q -0.00176,-0.119942 -0.056443,-0.194023 -0.054679,-0.07585 -0.1728573,-0.07585 z"
       id="path2745" />
    <path
       d="m 10.719189,13.215955 q 0.02646,0 0.05644,0.0035 0.03175,0.0018 0.05468,0.0071 l -0.0194,0.142872 q -0.02293,-0.0053 -0.05115,-0.0088 -0.02646,-0.0035 -0.05115,-0.0035 -0.07232,0 -0.135817,0.04057 -0.0635,0.0388 -0.102303,0.111122 -0.03704,0.07055 -0.03704,0.165802 v 0.504461 h -0.155219 v -0.945424 h 0.126998 l 0.01764,0.172858 h 0.0071 q 0.04586,-0.07761 0.118177,-0.134053 0.07232,-0.05644 0.171094,-0.05644 z"
       id="path2747" />
    <path
       d="m 11.62228,13.917967 q 0,0.137581 -0.102303,0.208135 -0.102304,0.07055 -0.275161,0.07055 -0.09878,0 -0.171093,-0.01588 -0.07055,-0.01587 -0.125234,-0.0441 v -0.141108 q 0.05644,0.02822 0.135817,0.05291 0.08114,0.02293 0.164038,0.02293 0.118178,0 0.171093,-0.03704 0.05292,-0.0388 0.05292,-0.102303 0,-0.03528 -0.0194,-0.0635 -0.0194,-0.02822 -0.07055,-0.05644 -0.04939,-0.02822 -0.142872,-0.0635 -0.09172,-0.03528 -0.156982,-0.07055 -0.06526,-0.03528 -0.10054,-0.08466 -0.03528,-0.04939 -0.03528,-0.126997 0,-0.119942 0.09701,-0.185205 0.09878,-0.06526 0.257522,-0.06526 0.08643,0 0.160511,0.01764 0.07585,0.01587 0.141108,0.04586 l -0.05292,0.123469 q -0.05997,-0.02469 -0.125233,-0.04233 -0.06526,-0.01764 -0.134053,-0.01764 -0.09525,0 -0.146399,0.03175 -0.04939,0.02999 -0.04939,0.0829 0,0.0388 0.02293,0.06703 0.02293,0.02646 0.07584,0.05292 0.05468,0.02469 0.144636,0.05997 0.08996,0.03351 0.153455,0.06879 0.0635,0.03528 0.09701,0.08643 0.03351,0.04939 0.03351,0.125233 z"
       id="path2749" />
  </g>
  <text
     xml:space="preserve"
     transform="scale(0.26457812)"
     id="text3806"
     style="font-size:6.66667px;white-space:pre;shape-inside:url(#rect3808);display:inline;fill:#999999;stroke-width:2" />
</svg>
