<?xml version="1.0" encoding="UTF-8" standalone="no"?>
<svg
   width="64"
   height="64"
   version="1.1"
   viewBox="0 0 16.933 16.933"
   id="svg7"
   sodipodi:docname="Graphics Template.svg"
   inkscape:version="1.4 (e7c3feb100, 2024-10-09)"
   xmlns:inkscape="http://www.inkscape.org/namespaces/inkscape"
   xmlns:sodipodi="http://sodipodi.sourceforge.net/DTD/sodipodi-0.dtd"
   xmlns:xlink="http://www.w3.org/1999/xlink"
   xmlns="http://www.w3.org/2000/svg"
   xmlns:svg="http://www.w3.org/2000/svg"
   xmlns:rdf="http://www.w3.org/1999/02/22-rdf-syntax-ns#"
   xmlns:cc="http://creativecommons.org/ns#"
   xmlns:dc="http://purl.org/dc/elements/1.1/">
  <sodipodi:namedview
     id="namedview7"
     pagecolor="#9c4444"
     bordercolor="#000000"
     borderopacity="0.25"
     inkscape:showpageshadow="2"
     inkscape:pageopacity="0.0"
     inkscape:pagecheckerboard="0"
     inkscape:deskcolor="#d1d1d1"
     inkscape:zoom="6.15625"
     inkscape:cx="15.756345"
     inkscape:cy="27.126904"
     inkscape:window-width="1226"
     inkscape:window-height="669"
     inkscape:window-x="35"
     inkscape:window-y="32"
     inkscape:window-maximized="0"
     inkscape:current-layer="svg7"
     showgrid="false" />
  <defs
     id="defs2">
    <linearGradient
       inkscape:collect="always"
       id="linearGradient1134">
      <stop
         style="stop-color:#161616;stop-opacity:1;"
         offset="0"
         id="stop1130" />
      <stop
         style="stop-color:#404040;stop-opacity:1;"
         offset="1"
         id="stop1132" />
    </linearGradient>
    <linearGradient
       inkscape:collect="always"
       id="linearGradient883">
      <stop
         style="stop-color:#808080;stop-opacity:1;"
         offset="0"
         id="stop879" />
      <stop
         style="stop-color:#3e3e3e;stop-opacity:1;"
         offset="0.5"
         id="stop1216" />
      <stop
         style="stop-color:#242424;stop-opacity:1;"
         offset="1"
         id="stop881" />
    </linearGradient>
    <linearGradient
       inkscape:collect="always"
       xlink:href="#linearGradient883"
       id="linearGradient885"
       x1="2.1085808"
       y1="2.0236168"
       x2="14.846128"
       y2="15.071845"
       gradientUnits="userSpaceOnUse" />
    <linearGradient
       inkscape:collect="always"
       xlink:href="#linearGradient1134"
       id="linearGradient1136"
       x1="14.971222"
       y1="14.703373"
       x2="2.0756054"
       y2="2.0069976"
       gradientUnits="userSpaceOnUse" />
    <filter
       style="color-interpolation-filters:sRGB;"
       inkscape:label="Blur"
       id="filter1283"
       x="-0.082344266"
       y="-0.082344266"
       width="1.1646885"
       height="1.1646885">
      <feGaussianBlur
         stdDeviation="0.5 0.5"
         result="blur"
         id="feGaussianBlur1281" />
    </filter>
    <filter
       style="color-interpolation-filters:sRGB;"
       inkscape:label="Blur"
       id="filter1694"
       x="-0.94955398"
       y="-0.2118907"
       width="2.899108"
       height="1.4237814">
      <feGaussianBlur
         stdDeviation="0.2 0.2"
         result="blur"
         id="feGaussianBlur1692" />
    </filter>
  </defs>
  <metadata
     id="metadata2">
    <rdf:RDF>
      <cc:Work
         rdf:about="">
        <dc:format>image/svg+xml</dc:format>
        <dc:type
           rdf:resource="http://purl.org/dc/dcmitype/StillImage" />
      </cc:Work>
    </rdf:RDF>
  </metadata>
  <rect
     style="fill:#000000;stroke:none;stroke-width:0.539739;stroke-dasharray:none;filter:url(#filter1283)"
     id="rect246-1"
     width="14.572964"
     height="14.572964"
     x="1.1932471"
     y="1.2138842"
     rx="2.1589575"
     ry="2.1589575" />
  <rect
     style="opacity:1;fill:#000000;stroke:url(#linearGradient885);stroke-width:0.52915625;stroke-dasharray:none"
     id="rect246"
     width="14.287219"
     height="14.287219"
     x="1.3361193"
     y="1.3567564"
     rx="2.1166251"
     ry="2.1166251" />
  <rect
     style="fill:url(#linearGradient1136);fill-opacity:1;stroke:none;stroke-width:0.478315;stroke-dasharray:none"
     id="rect246-5"
     width="12.914515"
     height="12.914515"
     x="2.0224717"
     y="2.0431087"
     rx="1.5874687"
     ry="1.5874687" />
  <path
     id="path4"
     style="fill:#999999;stroke-width:0.0117326"
     d="m 9.6529519,3.8990155 c -0.089569,2.18e-4 -0.1815188,0.022004 -0.2718783,0.06591 -0.085798,0.04169 -0.2091523,0.1660815 -0.2507322,0.2526544 -0.017495,0.036426 -0.080785,0.2415482 -0.1406075,0.4558765 L 8.8809827,5.063148 8.8104047,5.056011 C 8.632345,5.0381217 8.3784659,5.0346288 8.2257292,5.048046 8.136433,5.055885 8.0604772,5.0593779 8.0568352,5.055732 8.0531932,5.0520922 8.0034097,4.8814493 7.9461612,4.6764776 7.8829069,4.4500006 7.8259546,4.2709813 7.8011597,4.2200514 7.751925,4.118922 7.6606277,4.0235012 7.5636096,3.9717911 7.1701219,3.7620643 6.7045848,4.0366649 6.7045848,4.478473 c 0,0.084139 0.012857,0.1441679 0.104357,0.4827894 0.057464,0.2126625 0.1123398,0.4169015 0.1219334,0.4536794 l 0.017576,0.066734 -0.1661478,0.1109481 c -0.091257,0.061057 -0.2155877,0.151233 -0.2765469,0.2002008 -0.060959,0.048968 -0.1146228,0.088979 -0.119187,0.088979 -0.00456,0 -0.162088,-0.1596139 -0.3498713,-0.3548148 C 5.8489148,5.3317877 5.6699874,5.1548287 5.6390422,5.1337265 5.4157291,4.9814461 5.102153,5.0131326 4.9074431,5.2078752 4.7165192,5.3988313 4.6798119,5.6837839 4.816817,5.912012 4.8409946,5.9522879 4.9964767,6.1231248 5.2125508,6.3467422 L 5.5684639,6.7152882 5.4297786,6.8704509 C 5.2335184,7.0903867 4.8984453,7.4231383 4.7778204,7.5177404 4.721508,7.5619043 4.6568664,7.6251177 4.6341917,7.6580735 c -0.1140101,0.165704 -0.1308891,0.4122017 -0.040919,0.600878 0.04237,0.088855 0.099585,0.1487525 0.2183263,0.2284877 0.2689017,0.1805678 0.4495332,0.340779 0.9070842,0.8043752 0.6462209,0.6547587 0.8388096,0.8352236 1.1031659,1.0342356 0.4224755,0.318047 0.8632963,0.511829 1.2846926,0.564352 0.058076,0.0072 0.1187085,0.01538 0.1348406,0.01813 0.069324,0.0118 0.516278,-0.0042 0.6220242,-0.02224 0.5126637,-0.08737 0.964907,-0.313814 1.4546845,-0.728306 C 10.487938,10.01425 10.697604,9.8113511 11.143887,9.358829 11.67277,8.822544 11.813374,8.6963829 12.105072,8.4959516 12.325762,8.3443161 12.389619,8.2299085 12.38821,7.9878996 12.38695,7.7730675 12.32818,7.6569384 12.150934,7.5177428 12.028653,7.4217092 11.704922,7.1002355 11.505018,6.876495 L 11.361115,6.7155651 11.710712,6.3544342 c 0.192271,-0.1986444 0.366636,-0.3869518 0.387495,-0.4185276 0.163531,-0.2475642 0.115254,-0.5727995 -0.113421,-0.7634556 -0.21614,-0.1802081 -0.533135,-0.1807264 -0.74066,-0.00138 -0.02303,0.019903 -0.188395,0.1879676 -0.367723,0.373489 -0.179328,0.1855215 -0.329738,0.3372388 -0.334218,0.3372388 -0.0044,0 -0.05822,-0.04004 -0.119186,-0.088978 C 10.362042,5.7438831 10.240982,5.6561821 10.153867,5.5978372 10.066756,5.5394929 9.9939392,5.485618 9.9921131,5.4781011 9.9902231,5.4705861 10.041856,5.2683646 10.106631,5.0288158 10.171413,4.7892667 10.227782,4.561423 10.23186,4.5224084 10.248367,4.364466 10.184761,4.1976433 10.061043,4.0742212 9.9447173,3.958176 9.8022333,3.8986517 9.6529519,3.8990155 Z m -1.178688,1.8180132 c 0.3438831,9.99e-4 0.6877781,0.078696 0.9988087,0.2350785 0.6838624,0.3438389 1.1447964,1.0046652 1.2316904,1.7658344 0.05243,0.4592776 -0.04763,0.9567229 -0.272154,1.3525254 C 10.069894,9.7098739 9.4319952,10.13148 8.7082439,10.210432 8.1604715,10.270188 7.6074639,10.125662 7.1503,9.8031644 7.0060613,9.7014135 6.7333002,9.4292992 6.6337316,9.2876947 6.3639411,8.9040032 6.2308339,8.5087804 6.2152041,8.0461178 6.201904,7.6524371 6.2716858,7.3218051 6.4401216,6.9789275 6.5572548,6.7404838 6.6695859,6.5824711 6.8605713,6.3882105 6.986174,6.2604542 7.0829996,6.1795251 7.2184068,6.0891447 7.5899157,5.8411734 8.0321287,5.7157412 8.4742639,5.7170287 Z m -0.00989,0.8639682 c -0.2109039,0 -0.2379022,0.00259 -0.3438295,0.031307 C 7.8689214,6.6805009 7.6591143,6.8015857 7.4773779,6.983322 7.2946392,7.1660607 7.1720401,7.3790636 7.1074589,7.6264922 7.0675232,7.7794961 7.056878,8.0429288 7.0841156,8.199084 7.1866345,8.7868145 7.6392977,9.2430548 8.2238064,9.3475628 8.3479353,9.3697532 8.5620262,9.3705191 8.693414,9.3492368 9.2774771,9.2544787 9.7414007,8.7909396 9.8446392,8.1990841 9.8716364,8.0443233 9.8612765,7.7793548 9.8221212,7.6300625 9.7539824,7.3702337 9.6348727,7.1662691 9.4384698,6.9728859 9.2518192,6.7891046 9.0635698,6.681504 8.808207,6.612304 8.7020207,6.5835283 8.675383,6.5809969 8.4643774,6.5809969 Z" />
  <g
     aria-label="Krita"
     id="text1450"
     style="font-size:1.76385px;opacity:1;fill:#999999;stroke-width:0.529156">
    <rect
       style="font-size:1.76385px;fill:#00ff00;fill-opacity:1;stroke:none;stroke-width:0.519976;stroke-dasharray:none;filter:url(#filter1694)"
       id="rect1656-7"
       width="0.5055005"
       height="2.2653189"
       x="15.369148"
       y="4.3016486"
       rx="0"
       ry="0" />
    <rect
       style="opacity:1;fill:#00ff00;fill-opacity:1;stroke:none;stroke-width:0.519976;stroke-dasharray:none"
       id="rect1656"
       width="0.5055005"
       height="2.2653189"
       x="15.369148"
       y="4.3016486"
       rx="0"
       ry="0" />
  </g>
  <path
     d="M 4.8614449,14.179017 H 4.6815322 L 4.3481645,13.632224 4.0095053,14.179017 H 3.8419396 L 4.259972,13.522865 3.8683973,12.919628 h 0.176385 l 0.3086738,0.493878 0.3104376,-0.493878 h 0.1675657 l -0.3898108,0.599709 z m 1.1764887,0 H 5.8527294 L 5.1789387,13.133054 h -0.00706 q 0.00353,0.06174 0.00882,0.153455 0.00529,0.09172 0.00529,0.188732 v 0.703776 H 5.0395945 v -1.259389 h 0.1834404 l 0.6720269,1.042436 h 0.00706 q -0.00176,-0.02822 -0.00529,-0.08466 -0.00176,-0.05644 -0.00529,-0.12347 -0.00176,-0.06703 -0.00176,-0.123469 V 12.919628 H 6.0379336 Z M 7.2673373,12.919628 6.8175555,14.179017 H 6.658809 L 6.2090273,12.919628 h 0.1658019 l 0.2839798,0.807843 q 0.028222,0.07761 0.047624,0.1464 0.019402,0.06703 0.031749,0.128761 0.012347,-0.06174 0.031749,-0.130525 0.019402,-0.06879 0.047624,-0.148163 l 0.282216,-0.804316 z m 0.2293012,-0.04057 q 0.035277,0 0.061735,0.02469 0.028222,0.02293 0.028222,0.07408 0,0.04939 -0.028222,0.07408 -0.026458,0.02469 -0.061735,0.02469 -0.038805,0 -0.065262,-0.02469 -0.026458,-0.02469 -0.026458,-0.07408 0,-0.05115 0.026458,-0.07408 0.026458,-0.02469 0.065262,-0.02469 z m 0.075846,0.354533 v 0.945424 H 7.4172653 v -0.945424 z m 0.6649703,-0.01764 q 0.1217056,0 0.2081343,0.05292 0.088192,0.05292 0.1340526,0.149928 0.047624,0.09525 0.047624,0.224009 v 0.09348 H 7.9799323 q 0.00353,0.16051 0.081137,0.245175 0.079373,0.0829 0.2204812,0.0829 0.089956,0 0.1587465,-0.01588 0.070554,-0.01764 0.1446357,-0.04939 v 0.135817 q -0.072318,0.03175 -0.1428718,0.04586 -0.070554,0.01588 -0.1675658,0.01588 -0.1340526,0 -0.2381197,-0.05468 -0.1023033,-0.05468 -0.1605104,-0.162274 -0.056443,-0.109359 -0.056443,-0.266341 0,-0.155219 0.051152,-0.266342 0.052916,-0.111122 0.1463995,-0.171093 0.095248,-0.05997 0.2204813,-0.05997 z m -0.00176,0.126997 q -0.1111225,0 -0.176385,0.07232 -0.063499,0.07055 -0.075846,0.197551 h 0.481531 q -0.00176,-0.119942 -0.056443,-0.194023 -0.054679,-0.07585 -0.1728573,-0.07585 z m 1.2064713,0.301619 q -0.02293,-0.07232 -0.040568,-0.141108 -0.015875,-0.07055 -0.024694,-0.109359 h -0.00706 q -0.00706,0.0388 -0.02293,0.109359 -0.015875,0.06879 -0.040569,0.142871 L 9.1370158,14.177253 H 8.9606308 L 8.7013448,13.23183 h 0.1605104 l 0.1305249,0.504461 q 0.019402,0.07585 0.037041,0.153455 0.017639,0.07761 0.024694,0.128761 h 0.00706 q 0.00706,-0.02999 0.015875,-0.07408 0.010583,-0.0441 0.02293,-0.09172 0.012347,-0.04939 0.024694,-0.08819 L 9.2922346,13.23183 h 0.1693296 l 0.1622741,0.532682 q 0.019402,0.05997 0.037041,0.130525 0.019402,0.07055 0.026458,0.121706 h 0.00706 q 0.00529,-0.0441 0.02293,-0.121706 0.019402,-0.07761 0.040568,-0.158746 L 9.8901797,13.23183 H 10.048926 L 9.7861125,14.177253 H 9.604436 Z m 1.8114732,0.534446 -0.414505,-1.10417 h -0.0071 q 0.0053,0.05468 0.0088,0.148163 0.0035,0.09172 0.0035,0.19226 v 0.763747 h -0.1464 v -1.259389 h 0.234592 l 0.388047,1.031852 h 0.0071 l 0.395102,-1.031852 h 0.232828 v 1.259389 h -0.156982 v -0.77433 q 0,-0.09172 0.0035,-0.181677 0.0053,-0.08996 0.0088,-0.146399 h -0.0071 l -0.419796,1.102406 z m 1.377566,-1.259389 q 0.246939,0 0.359825,0.09701 0.112887,0.09701 0.112887,0.273397 0,0.104067 -0.04762,0.195787 -0.04586,0.08996 -0.156983,0.1464 -0.109358,0.05644 -0.29809,0.05644 H 12.45658 v 0.49035 h -0.158747 v -1.259389 z m -0.01411,0.135817 h -0.16051 v 0.497405 h 0.126997 q 0.179913,0 0.268105,-0.05821 0.08819,-0.05821 0.08819,-0.197551 0,-0.121706 -0.07761,-0.181676 -0.07761,-0.05997 -0.245175,-0.05997 z"
     id="text2284"
     style="font-size:1.76385px;fill:#999999;stroke-width:0.529156"
     aria-label="XNView MP" />
</svg>
