<?xml version="1.0" encoding="UTF-8" standalone="no"?>
<svg
   width="64"
   height="64"
   version="1.1"
   viewBox="0 0 16.933 16.933"
   id="svg7"
   sodipodi:docname="System Template.svg"
   inkscape:version="1.4 (e7c3feb100, 2024-10-09)"
   xmlns:inkscape="http://www.inkscape.org/namespaces/inkscape"
   xmlns:sodipodi="http://sodipodi.sourceforge.net/DTD/sodipodi-0.dtd"
   xmlns:xlink="http://www.w3.org/1999/xlink"
   xmlns="http://www.w3.org/2000/svg"
   xmlns:svg="http://www.w3.org/2000/svg"
   xmlns:rdf="http://www.w3.org/1999/02/22-rdf-syntax-ns#"
   xmlns:cc="http://creativecommons.org/ns#"
   xmlns:dc="http://purl.org/dc/elements/1.1/">
  <sodipodi:namedview
     id="namedview7"
     pagecolor="#9c4444"
     bordercolor="#000000"
     borderopacity="0.25"
     inkscape:showpageshadow="2"
     inkscape:pageopacity="0.0"
     inkscape:pagecheckerboard="0"
     inkscape:deskcolor="#d1d1d1"
     inkscape:zoom="6.15625"
     inkscape:cx="15.675127"
     inkscape:cy="40.365482"
     inkscape:window-width="1183"
     inkscape:window-height="973"
     inkscape:window-x="35"
     inkscape:window-y="32"
     inkscape:window-maximized="0"
     inkscape:current-layer="text2284"
     showgrid="false" />
  <defs
     id="defs2">
    <linearGradient
       inkscape:collect="always"
       id="linearGradient1134">
      <stop
         style="stop-color:#161616;stop-opacity:1;"
         offset="0"
         id="stop1130" />
      <stop
         style="stop-color:#404040;stop-opacity:1;"
         offset="1"
         id="stop1132" />
    </linearGradient>
    <linearGradient
       inkscape:collect="always"
       id="linearGradient883">
      <stop
         style="stop-color:#808080;stop-opacity:1;"
         offset="0"
         id="stop879" />
      <stop
         style="stop-color:#3e3e3e;stop-opacity:1;"
         offset="0.5"
         id="stop1216" />
      <stop
         style="stop-color:#242424;stop-opacity:1;"
         offset="1"
         id="stop881" />
    </linearGradient>
    <linearGradient
       inkscape:collect="always"
       xlink:href="#linearGradient883"
       id="linearGradient885"
       x1="2.1085808"
       y1="2.0236168"
       x2="14.846128"
       y2="15.071845"
       gradientUnits="userSpaceOnUse" />
    <linearGradient
       inkscape:collect="always"
       xlink:href="#linearGradient1134"
       id="linearGradient1136"
       x1="14.971222"
       y1="14.703373"
       x2="2.0756054"
       y2="2.0069976"
       gradientUnits="userSpaceOnUse" />
    <filter
       style="color-interpolation-filters:sRGB;"
       inkscape:label="Blur"
       id="filter1283"
       x="-0.082344266"
       y="-0.082344266"
       width="1.1646885"
       height="1.1646885">
      <feGaussianBlur
         stdDeviation="0.5 0.5"
         result="blur"
         id="feGaussianBlur1281" />
    </filter>
    <filter
       style="color-interpolation-filters:sRGB;"
       inkscape:label="Blur"
       id="filter1694"
       x="-0.94955398"
       y="-0.2118907"
       width="2.899108"
       height="1.4237814">
      <feGaussianBlur
         stdDeviation="0.2 0.2"
         result="blur"
         id="feGaussianBlur1692" />
    </filter>
    <filter
       style="color-interpolation-filters:sRGB;"
       inkscape:label="Blur"
       id="filter3335"
       x="-0.94955398"
       y="-0.2118907"
       width="2.899108"
       height="1.4237814">
      <feGaussianBlur
         stdDeviation="0.2 0.2"
         result="blur"
         id="feGaussianBlur3333" />
    </filter>
  </defs>
  <metadata
     id="metadata2">
    <rdf:RDF>
      <cc:Work
         rdf:about="">
        <dc:format>image/svg+xml</dc:format>
        <dc:type
           rdf:resource="http://purl.org/dc/dcmitype/StillImage" />
      </cc:Work>
    </rdf:RDF>
  </metadata>
  <rect
     style="fill:#000000;stroke:none;stroke-width:0.539739;stroke-dasharray:none;filter:url(#filter1283)"
     id="rect246-1"
     width="14.572964"
     height="14.572964"
     x="1.1932471"
     y="1.2138842"
     rx="2.1589575"
     ry="2.1589575" />
  <rect
     style="opacity:1;fill:#000000;stroke:url(#linearGradient885);stroke-width:0.52915625;stroke-dasharray:none"
     id="rect246"
     width="14.287219"
     height="14.287219"
     x="1.3361193"
     y="1.3567564"
     rx="2.1166251"
     ry="2.1166251" />
  <g
     aria-label="Krita"
     id="text1450"
     style="font-size:1.76385px;opacity:1;fill:#999999;stroke-width:0.529156">
    <rect
       style="font-size:1.76385px;fill:#ff0000;fill-opacity:1;stroke:none;stroke-width:0.519976;stroke-dasharray:none;filter:url(#filter3335)"
       id="rect1656-0"
       width="0.5055005"
       height="2.2653189"
       x="15.369148"
       y="4.3016486"
       rx="0"
       ry="0" />
    <rect
       style="opacity:1;fill:#ff0000;fill-opacity:1;stroke:none;stroke-width:0.519976;stroke-dasharray:none"
       id="rect1656"
       width="0.5055005"
       height="2.2653189"
       x="15.369148"
       y="4.3016486"
       rx="0"
       ry="0" />
  </g>
  <rect
     style="fill:url(#linearGradient1136);fill-opacity:1;stroke:none;stroke-width:0.478315;stroke-dasharray:none"
     id="rect246-5"
     width="12.914515"
     height="12.914515"
     x="2.0224717"
     y="2.0431087"
     rx="1.5874687"
     ry="1.5874687" />
  <path
     style="color:#000000;clip-rule:nonzero;display:inline;overflow:visible;visibility:visible;isolation:auto;mix-blend-mode:normal;color-interpolation:sRGB;color-interpolation-filters:linearRGB;solid-color:#000000;solid-opacity:1;fill:#999999;fill-opacity:1;fill-rule:nonzero;stroke:none;stroke-width:0.244138;stroke-linecap:butt;stroke-linejoin:miter;stroke-miterlimit:4;stroke-dasharray:none;stroke-dashoffset:0;stroke-opacity:0.3;marker:none;color-rendering:auto;image-rendering:auto;shape-rendering:auto;text-rendering:auto;enable-background:accumulate"
     d="m 7.9946619,3.8250921 c -0.094793,0 -0.1737878,0.3771511 -0.220157,0.9161527 A 2.8970107,2.9842501 0 0 0 7.0744283,5.0443325 C 6.6700196,4.6951895 6.3541176,4.4844339 6.2869069,4.5536688 L 5.5415643,5.3214569 C 5.4743537,5.3906901 5.6789479,5.7161066 6.0178837,6.132693 A 2.8970107,2.9842501 0 0 0 5.7262275,6.8538516 C 5.2015178,6.9015711 4.8342862,6.9828262 4.8342862,7.0806381 v 1.0851806 c 0,0.097648 0.3661253,0.1790221 0.8893701,0.2267873 A 2.8970107,2.9842501 0 0 0 6.0168551,9.115352 C 5.6786898,9.5311924 5.4744337,9.8558472 5.5415643,9.9249996 l 0.7453426,0.7677864 c 0.067065,0.06908 0.3818336,-0.140816 0.7849499,-0.488543 a 2.8970107,2.9842501 0 0 0 0.7026481,0.298319 c 0.046324,0.540512 0.1252052,0.918802 0.220157,0.918802 h 1.0534577 c 0.094794,0 0.1737883,-0.377151 0.2201569,-0.916152 a 2.8970107,2.9842501 0 0 0 0.7000769,-0.303087 c 0.4044096,0.349142 0.7203096,0.559897 0.7875226,0.490661 L 11.501219,9.9249996 C 11.568433,9.8557851 11.363833,9.53035 11.024898,9.1137621 a 2.8970107,2.9842501 0 0 0 0.291655,-0.7211562 c 0.52471,-0.04772 0.891943,-0.1289748 0.891943,-0.2267872 v -1.085181 c 0,-0.097648 -0.366127,-0.1790214 -0.88937,-0.2267861 A 2.8970107,2.9842501 0 0 0 11.025925,6.131104 C 11.364091,5.7152628 11.568348,5.3906084 11.501219,5.3214569 L 10.755876,4.5536688 C 10.688808,4.484583 10.374041,4.6944868 9.9709238,5.0422129 A 2.8970107,2.9842501 0 0 0 9.2682765,4.7438938 C 9.221952,4.2033827 9.143072,3.8250934 9.0481196,3.8250934 Z m 0.5267289,2.441659 A 1.3168231,1.3564772 0 0 1 9.8382137,7.6232284 1.3168231,1.3564772 0 0 1 8.5213908,8.9797046 1.3168231,1.3564772 0 0 1 7.2045675,7.6232284 1.3168231,1.3564772 0 0 1 8.5213908,6.2667511 Z"
     id="path4690"
     inkscape:connector-curvature="0" />
  <g
     aria-label="Terminal"
     id="text2284"
     style="font-size:1.76385px;opacity:1;fill:#999999;stroke-width:0.529156">
    <path
       d="M 4.7736047,14.182463 4.6219136,13.792652 H 4.1227441 L 3.9728168,14.182463 H 3.8123065 l 0.4921141,-1.264681 h 0.1428719 l 0.4903503,1.264681 z m -0.340423,-0.911911 q -0.00529,-0.01411 -0.017638,-0.05115 -0.012347,-0.03704 -0.024694,-0.07585 -0.010583,-0.04057 -0.017639,-0.06173 -0.012347,0.05468 -0.028222,0.107595 -0.015875,0.05115 -0.026458,0.08114 l -0.1428718,0.380992 h 0.3986301 z m 1.1059338,-0.05115 q 0.1746211,0 0.2804521,0.121705 0.1075949,0.121706 0.1075949,0.366881 0,0.241647 -0.1075949,0.366881 -0.105831,0.125233 -0.282216,0.125233 -0.1093587,0 -0.1816765,-0.04057 -0.070554,-0.04233 -0.1111226,-0.09701 h -0.010583 q 0.00353,0.02998 0.00706,0.07584 0.00353,0.04586 0.00353,0.07937 v 0.388047 H 5.0893337 v -1.368748 h 0.1269972 l 0.021166,0.128761 h 0.00706 q 0.042332,-0.06174 0.1111226,-0.104067 0.06879,-0.04233 0.1834404,-0.04233 z m -0.028222,0.130525 q -0.1446357,0 -0.2046066,0.08114 -0.058207,0.08114 -0.061735,0.246939 v 0.02998 q 0,0.174621 0.056443,0.269869 0.058207,0.09348 0.2134259,0.09348 0.086429,0 0.141108,-0.04762 0.056443,-0.04762 0.082901,-0.128761 0.028222,-0.0829 0.028222,-0.188732 0,-0.162274 -0.063499,-0.259286 -0.061735,-0.09701 -0.1922596,-0.09701 z m 1.1129889,-0.130525 q 0.1746212,0 0.2804522,0.121705 0.1075948,0.121706 0.1075948,0.366881 0,0.241647 -0.1075948,0.366881 -0.105831,0.125233 -0.282216,0.125233 -0.1093587,0 -0.1816766,-0.04057 -0.070554,-0.04233 -0.1111225,-0.09701 h -0.010583 q 0.00353,0.02998 0.00706,0.07584 0.00353,0.04586 0.00353,0.07937 v 0.388047 H 6.1741011 v -1.368748 h 0.1269972 l 0.021166,0.128761 h 0.00706 q 0.042332,-0.06174 0.1111225,-0.104067 0.06879,-0.04233 0.1834404,-0.04233 z m -0.028222,0.130525 q -0.1446357,0 -0.2046066,0.08114 -0.058207,0.08114 -0.061735,0.246939 v 0.02998 q 0,0.174621 0.056443,0.269869 0.058207,0.09348 0.2134258,0.09348 0.086429,0 0.141108,-0.04762 0.056443,-0.04762 0.082901,-0.128761 0.028222,-0.0829 0.028222,-0.188732 0,-0.162274 -0.063499,-0.259286 -0.061735,-0.09701 -0.1922597,-0.09701 z m 0.818426,0.832537 H 7.2588684 v -1.340526 h 0.1552188 z m 0.3792269,-1.299958 q 0.035277,0 0.061735,0.02469 0.028222,0.02293 0.028222,0.07408 0,0.04939 -0.028222,0.07408 -0.026458,0.02469 -0.061735,0.02469 -0.038805,0 -0.065263,-0.02469 -0.026458,-0.02469 -0.026458,-0.07408 0,-0.05115 0.026458,-0.07408 0.026458,-0.02469 0.065263,-0.02469 z m 0.075845,0.354534 v 0.945424 H 7.7139408 v -0.945424 z m 0.6790814,0.963062 q -0.1252334,0 -0.224009,-0.05115 -0.097012,-0.05115 -0.1534549,-0.158747 -0.054679,-0.107595 -0.054679,-0.275161 0,-0.174621 0.058207,-0.283979 0.058207,-0.109359 0.1569826,-0.160511 0.1005395,-0.05115 0.2275367,-0.05115 0.072318,0 0.1393441,0.01587 0.067026,0.01411 0.1093587,0.03528 l -0.047624,0.128761 q -0.042332,-0.01587 -0.098776,-0.02998 -0.056443,-0.01411 -0.105831,-0.01411 -0.2786883,0 -0.2786883,0.358062 0,0.171093 0.067026,0.262813 0.06879,0.08996 0.2028427,0.08996 0.077609,0 0.1358165,-0.01587 0.059971,-0.01587 0.1093587,-0.0388 v 0.137581 q -0.047624,0.02469 -0.105831,0.03704 -0.056443,0.01411 -0.1375803,0.01411 z m 0.8254806,-0.978937 q 0.1728572,0 0.2557582,0.07585 0.082901,0.07585 0.082901,0.241647 v 0.643806 H 9.5994943 L 9.5695089,14.04841 h -0.00706 q -0.061735,0.07761 -0.1305249,0.11465 -0.067026,0.03704 -0.1869681,0.03704 -0.128761,0 -0.2134258,-0.06703 -0.084665,-0.06879 -0.084665,-0.213426 0,-0.141108 0.1111225,-0.216954 0.1111226,-0.07761 0.3421869,-0.08466 l 0.1605103,-0.0053 v -0.05644 q 0,-0.118178 -0.051152,-0.164038 -0.051152,-0.04586 -0.1446357,-0.04586 -0.074082,0 -0.141108,0.02293 -0.067026,0.02117 -0.1252333,0.04939 L 9.050937,13.302302 q 0.061735,-0.03351 0.1463996,-0.05644 0.084665,-0.02469 0.176385,-0.02469 z m 0.04586,0.504462 q -0.176385,0.0071 -0.2451752,0.05644 -0.067026,0.04939 -0.067026,0.139344 0,0.07937 0.047624,0.116414 0.049388,0.03704 0.1252333,0.03704 0.1199418,0 0.199315,-0.06526 0.079373,-0.06703 0.079373,-0.204606 v -0.08467 z m 0.9013293,0.347478 q 0.03528,0 0.07232,-0.0053 0.03704,-0.0071 0.05997,-0.01411 v 0.118178 q -0.02469,0.01235 -0.07055,0.0194 -0.04586,0.0088 -0.08819,0.0088 -0.07408,0 -0.13758,-0.02469 -0.06173,-0.02646 -0.10054,-0.08996 -0.0388,-0.0635 -0.0388,-0.178149 V 13.356981 H 9.8834759 v -0.07408 l 0.1358161,-0.06174 0.06174,-0.201078 h 0.09172 v 0.216953 h 0.273397 v 0.119942 h -0.273397 v 0.546793 q 0,0.08643 0.04057,0.128761 0.04233,0.04057 0.107595,0.04057 z m 0.400394,-1.190599 q 0.03528,0 0.06173,0.02469 0.02822,0.02293 0.02822,0.07408 0,0.04939 -0.02822,0.07408 -0.02646,0.02469 -0.06173,0.02469 -0.0388,0 -0.06526,-0.02469 -0.02646,-0.02469 -0.02646,-0.07408 0,-0.05115 0.02646,-0.07408 0.02646,-0.02469 0.06526,-0.02469 z m 0.07585,0.354534 v 0.945424 h -0.155219 v -0.945424 z m 1.121808,0.470948 q 0,0.234592 -0.119942,0.363353 -0.118178,0.128761 -0.321021,0.128761 -0.125233,0 -0.224009,-0.05644 -0.09701,-0.05821 -0.153455,-0.167566 -0.05644,-0.111122 -0.05644,-0.268105 0,-0.234592 0.118178,-0.361589 0.118178,-0.126997 0.321021,-0.126997 0.128761,0 0.225773,0.05821 0.09878,0.05644 0.153455,0.165802 0.05644,0.107594 0.05644,0.264577 z m -0.714359,0 q 0,0.167566 0.06526,0.266341 0.06703,0.09701 0.211662,0.09701 0.142872,0 0.209898,-0.09701 0.06703,-0.09877 0.06703,-0.266341 0,-0.167566 -0.06703,-0.262814 -0.06703,-0.09525 -0.211662,-0.09525 -0.144636,0 -0.209898,0.09525 -0.06526,0.09525 -0.06526,0.262814 z m 1.414607,-0.488586 q 0.169329,0 0.255758,0.0829 0.08643,0.08114 0.08643,0.264577 v 0.615584 h -0.153455 v -0.605001 q 0,-0.227536 -0.211662,-0.227536 -0.156983,0 -0.216954,0.08819 -0.05997,0.08819 -0.05997,0.253994 v 0.490351 h -0.155219 v -0.945424 h 0.125234 l 0.02293,0.128761 h 0.0088 q 0.04586,-0.07408 0.126997,-0.109359 0.08114,-0.03704 0.171094,-0.03704 z"
       id="text1"
       style="text-align:center;text-anchor:middle;stroke-width:0.140003"
       aria-label="Application" />
  </g>
</svg>
